<svg width="93" height="27" viewBox="0 0 93 27" fill="none" xmlns="http://www.w3.org/2000/svg">
<rect width="93" height="27" rx="6" fill="#1851A6"/>
<path d="M33.49 18C33.4153 18 33.3453 17.972 33.28 17.916C33.224 17.86 33.196 17.79 33.196 17.706C33.196 17.6687 33.2053 17.6267 33.224 17.58L36.598 8.55C36.626 8.45667 36.6773 8.37733 36.752 8.312C36.836 8.23733 36.948 8.2 37.088 8.2H38.614C38.754 8.2 38.8613 8.23733 38.936 8.312C39.0107 8.37733 39.0667 8.45667 39.104 8.55L42.478 17.58C42.4873 17.6267 42.492 17.6687 42.492 17.706C42.492 17.79 42.464 17.86 42.408 17.916C42.352 17.972 42.2867 18 42.212 18H40.994C40.8633 18 40.7653 17.972 40.7 17.916C40.644 17.8507 40.6067 17.79 40.588 17.734L39.93 16.026H35.772L35.114 17.734C35.0953 17.79 35.0533 17.8507 34.988 17.916C34.932 17.972 34.8387 18 34.708 18H33.49ZM36.262 14.416H39.44L37.844 10.09L36.262 14.416ZM46.531 18.14C46.0457 18.14 45.6163 18.0607 45.243 17.902C44.879 17.734 44.5757 17.5007 44.333 17.202C44.0903 16.9033 43.9037 16.5533 43.773 16.152C43.6423 15.7413 43.5677 15.2933 43.549 14.808C43.5397 14.64 43.535 14.4907 43.535 14.36C43.535 14.22 43.5397 14.066 43.549 13.898C43.5677 13.4313 43.6377 12.9973 43.759 12.596C43.8897 12.1947 44.0763 11.8447 44.319 11.546C44.571 11.238 44.879 11 45.243 10.832C45.6163 10.664 46.0457 10.58 46.531 10.58C47.035 10.58 47.4597 10.6687 47.805 10.846C48.1597 11.014 48.4537 11.2333 48.687 11.504V8.396C48.687 8.30267 48.715 8.22333 48.771 8.158C48.8363 8.09267 48.9203 8.06 49.023 8.06H50.213C50.3063 8.06 50.3857 8.09267 50.451 8.158C50.5163 8.22333 50.549 8.30267 50.549 8.396V17.664C50.549 17.7573 50.5163 17.8367 50.451 17.902C50.3857 17.9673 50.3063 18 50.213 18H49.107C49.0043 18 48.9203 17.9673 48.855 17.902C48.799 17.8367 48.771 17.7573 48.771 17.664V17.146C48.5377 17.4353 48.239 17.6733 47.875 17.86C47.5203 18.0467 47.0723 18.14 46.531 18.14ZM47.049 16.642C47.441 16.642 47.7537 16.5533 47.987 16.376C48.2203 16.1987 48.393 15.9747 48.505 15.704C48.617 15.424 48.6777 15.1393 48.687 14.85C48.6963 14.682 48.701 14.5047 48.701 14.318C48.701 14.122 48.6963 13.94 48.687 13.772C48.6777 13.492 48.6123 13.226 48.491 12.974C48.3697 12.7127 48.1923 12.498 47.959 12.33C47.7257 12.162 47.4223 12.078 47.049 12.078C46.657 12.078 46.3443 12.1667 46.111 12.344C45.887 12.512 45.7237 12.736 45.621 13.016C45.5183 13.296 45.4577 13.604 45.439 13.94C45.4297 14.22 45.4297 14.5 45.439 14.78C45.4577 15.116 45.5183 15.424 45.621 15.704C45.7237 15.984 45.887 16.2127 46.111 16.39C46.3443 16.558 46.657 16.642 47.049 16.642ZM55.3969 18.14C54.9116 18.14 54.4823 18.0607 54.1089 17.902C53.7449 17.734 53.4416 17.5007 53.1989 17.202C52.9563 16.9033 52.7696 16.5533 52.6389 16.152C52.5083 15.7413 52.4336 15.2933 52.4149 14.808C52.4056 14.64 52.4009 14.4907 52.4009 14.36C52.4009 14.22 52.4056 14.066 52.4149 13.898C52.4336 13.4313 52.5036 12.9973 52.6249 12.596C52.7556 12.1947 52.9423 11.8447 53.1849 11.546C53.4369 11.238 53.7449 11 54.1089 10.832C54.4823 10.664 54.9116 10.58 55.3969 10.58C55.9009 10.58 56.3256 10.6687 56.6709 10.846C57.0256 11.014 57.3196 11.2333 57.5529 11.504V8.396C57.5529 8.30267 57.5809 8.22333 57.6369 8.158C57.7023 8.09267 57.7863 8.06 57.8889 8.06H59.0789C59.1723 8.06 59.2516 8.09267 59.3169 8.158C59.3823 8.22333 59.4149 8.30267 59.4149 8.396V17.664C59.4149 17.7573 59.3823 17.8367 59.3169 17.902C59.2516 17.9673 59.1723 18 59.0789 18H57.9729C57.8703 18 57.7863 17.9673 57.7209 17.902C57.6649 17.8367 57.6369 17.7573 57.6369 17.664V17.146C57.4036 17.4353 57.1049 17.6733 56.7409 17.86C56.3863 18.0467 55.9383 18.14 55.3969 18.14ZM55.9149 16.642C56.3069 16.642 56.6196 16.5533 56.8529 16.376C57.0863 16.1987 57.2589 15.9747 57.3709 15.704C57.4829 15.424 57.5436 15.1393 57.5529 14.85C57.5623 14.682 57.5669 14.5047 57.5669 14.318C57.5669 14.122 57.5623 13.94 57.5529 13.772C57.5436 13.492 57.4783 13.226 57.3569 12.974C57.2356 12.7127 57.0583 12.498 56.8249 12.33C56.5916 12.162 56.2883 12.078 55.9149 12.078C55.5229 12.078 55.2103 12.1667 54.9769 12.344C54.7529 12.512 54.5896 12.736 54.4869 13.016C54.3843 13.296 54.3236 13.604 54.3049 13.94C54.2956 14.22 54.2956 14.5 54.3049 14.78C54.3236 15.116 54.3843 15.424 54.4869 15.704C54.5896 15.984 54.7529 16.2127 54.9769 16.39C55.2103 16.558 55.5229 16.642 55.9149 16.642Z" fill="white"/>
</svg>
