<svg width="93" height="27" viewBox="0 0 93 27" fill="none" xmlns="http://www.w3.org/2000/svg">
<rect width="93" height="27" rx="6" fill="#D02B20"/>
<path d="M33.872 18.14C33.004 18.14 32.2667 17.9907 31.66 17.692C31.0627 17.384 30.6053 16.95 30.288 16.39C29.9707 15.8207 29.7933 15.1393 29.756 14.346C29.7467 13.9633 29.742 13.5527 29.742 13.114C29.742 12.6753 29.7467 12.2553 29.756 11.854C29.7933 11.07 29.9707 10.3933 30.288 9.824C30.6147 9.25467 31.0767 8.82067 31.674 8.522C32.2807 8.214 33.0133 8.06 33.872 8.06C34.5067 8.06 35.076 8.144 35.58 8.312C36.084 8.48 36.5133 8.71333 36.868 9.012C37.2227 9.30133 37.498 9.642 37.694 10.034C37.89 10.426 37.9927 10.8507 38.002 11.308C38.0113 11.392 37.9833 11.462 37.918 11.518C37.862 11.574 37.792 11.602 37.708 11.602H36.378C36.2753 11.602 36.1913 11.5787 36.126 11.532C36.0607 11.476 36.014 11.3873 35.986 11.266C35.8367 10.65 35.58 10.23 35.216 10.006C34.852 9.782 34.3993 9.67 33.858 9.67C33.2327 9.67 32.7333 9.84733 32.36 10.202C31.9867 10.5473 31.786 11.1213 31.758 11.924C31.73 12.6893 31.73 13.4733 31.758 14.276C31.786 15.0787 31.9867 15.6573 32.36 16.012C32.7333 16.3573 33.2327 16.53 33.858 16.53C34.3993 16.53 34.852 16.418 35.216 16.194C35.5893 15.9607 35.846 15.5407 35.986 14.934C36.014 14.8033 36.0607 14.7147 36.126 14.668C36.1913 14.6213 36.2753 14.598 36.378 14.598H37.708C37.792 14.598 37.862 14.626 37.918 14.682C37.9833 14.738 38.0113 14.808 38.002 14.892C37.9927 15.3493 37.89 15.774 37.694 16.166C37.498 16.558 37.2227 16.9033 36.868 17.202C36.5133 17.4913 36.084 17.72 35.58 17.888C35.076 18.056 34.5067 18.14 33.872 18.14ZM40.1243 18C40.031 18 39.9516 17.9673 39.8863 17.902C39.821 17.8367 39.7883 17.7573 39.7883 17.664V8.396C39.7883 8.30267 39.821 8.22333 39.8863 8.158C39.9516 8.09267 40.031 8.06 40.1243 8.06H41.2863C41.3796 8.06 41.459 8.09267 41.5243 8.158C41.5896 8.22333 41.6223 8.30267 41.6223 8.396V17.664C41.6223 17.7573 41.5896 17.8367 41.5243 17.902C41.459 17.9673 41.3796 18 41.2863 18H40.1243ZM46.8954 18.14C45.8594 18.14 45.0381 17.8413 44.4314 17.244C43.8247 16.6467 43.4981 15.7973 43.4514 14.696C43.4421 14.6027 43.4374 14.486 43.4374 14.346C43.4374 14.1967 43.4421 14.08 43.4514 13.996C43.4887 13.2867 43.6474 12.68 43.9274 12.176C44.2167 11.6627 44.6134 11.2707 45.1174 11C45.6214 10.72 46.2141 10.58 46.8954 10.58C47.6514 10.58 48.2861 10.7387 48.7994 11.056C49.3127 11.364 49.7001 11.798 49.9614 12.358C50.2227 12.9087 50.3534 13.548 50.3534 14.276V14.57C50.3534 14.6633 50.3207 14.7427 50.2554 14.808C50.1901 14.8733 50.1061 14.906 50.0034 14.906H45.3554C45.3554 14.906 45.3554 14.92 45.3554 14.948C45.3554 14.976 45.3554 14.9993 45.3554 15.018C45.3647 15.3447 45.4254 15.648 45.5374 15.928C45.6587 16.1987 45.8314 16.418 46.0554 16.586C46.2887 16.754 46.5641 16.838 46.8814 16.838C47.1427 16.838 47.3621 16.8007 47.5394 16.726C47.7167 16.642 47.8614 16.5487 47.9734 16.446C48.0854 16.3433 48.1647 16.2593 48.2114 16.194C48.2954 16.082 48.3607 16.0167 48.4074 15.998C48.4634 15.97 48.5427 15.956 48.6454 15.956H49.8494C49.9427 15.956 50.0174 15.984 50.0734 16.04C50.1387 16.096 50.1667 16.166 50.1574 16.25C50.1481 16.3993 50.0687 16.5813 49.9194 16.796C49.7794 17.0107 49.5741 17.2207 49.3034 17.426C49.0327 17.6313 48.6921 17.804 48.2814 17.944C47.8801 18.0747 47.4181 18.14 46.8954 18.14ZM45.3554 13.73H48.4494V13.688C48.4494 13.324 48.3887 13.0067 48.2674 12.736C48.1461 12.456 47.9687 12.2413 47.7354 12.092C47.5021 11.9333 47.2221 11.854 46.8954 11.854C46.5687 11.854 46.2887 11.9333 46.0554 12.092C45.8221 12.2413 45.6447 12.456 45.5234 12.736C45.4114 13.0067 45.3554 13.324 45.3554 13.688V13.73ZM54.2335 18.14C53.7481 18.14 53.3095 18.0467 52.9175 17.86C52.5255 17.664 52.2128 17.4073 51.9795 17.09C51.7555 16.7633 51.6435 16.3993 51.6435 15.998C51.6435 15.3447 51.9095 14.8267 52.4415 14.444C52.9735 14.052 53.6688 13.7907 54.5275 13.66L56.4455 13.38V13.086C56.4455 12.694 56.3475 12.3907 56.1515 12.176C55.9555 11.9613 55.6195 11.854 55.1435 11.854C54.8075 11.854 54.5321 11.924 54.3175 12.064C54.1121 12.1947 53.9581 12.372 53.8555 12.596C53.7808 12.7173 53.6735 12.778 53.5335 12.778H52.4275C52.3248 12.778 52.2455 12.75 52.1895 12.694C52.1428 12.638 52.1195 12.5633 52.1195 12.47C52.1288 12.3207 52.1895 12.1387 52.3015 11.924C52.4228 11.7093 52.6001 11.504 52.8335 11.308C53.0761 11.1027 53.3888 10.93 53.7715 10.79C54.1541 10.65 54.6161 10.58 55.1575 10.58C55.7455 10.58 56.2401 10.6547 56.6415 10.804C57.0521 10.944 57.3788 11.1353 57.6215 11.378C57.8641 11.6207 58.0415 11.9053 58.1535 12.232C58.2655 12.5587 58.3215 12.904 58.3215 13.268V17.664C58.3215 17.7573 58.2888 17.8367 58.2235 17.902C58.1581 17.9673 58.0788 18 57.9855 18H56.8515C56.7488 18 56.6648 17.9673 56.5995 17.902C56.5435 17.8367 56.5155 17.7573 56.5155 17.664V17.118C56.3941 17.286 56.2308 17.4493 56.0255 17.608C55.8201 17.7667 55.5681 17.8973 55.2695 18C54.9801 18.0933 54.6348 18.14 54.2335 18.14ZM54.7095 16.81C55.0361 16.81 55.3301 16.74 55.5915 16.6C55.8621 16.46 56.0721 16.2453 56.2215 15.956C56.3801 15.6573 56.4595 15.284 56.4595 14.836V14.542L55.0595 14.766C54.5088 14.85 54.0981 14.9853 53.8275 15.172C53.5568 15.3587 53.4215 15.5873 53.4215 15.858C53.4215 16.0633 53.4821 16.2407 53.6035 16.39C53.7341 16.53 53.8975 16.6373 54.0935 16.712C54.2895 16.7773 54.4948 16.81 54.7095 16.81ZM60.7335 18C60.6402 18 60.5608 17.9673 60.4955 17.902C60.4302 17.8367 60.3975 17.7573 60.3975 17.664V11.07C60.3975 10.9673 60.4302 10.8833 60.4955 10.818C60.5608 10.7527 60.6402 10.72 60.7335 10.72H61.8675C61.9608 10.72 62.0402 10.7527 62.1055 10.818C62.1802 10.8833 62.2175 10.9673 62.2175 11.07V11.644C62.4322 11.3453 62.7075 11.1167 63.0435 10.958C63.3889 10.7993 63.7855 10.72 64.2335 10.72H64.8075C64.9102 10.72 64.9895 10.7527 65.0455 10.818C65.1109 10.8833 65.1435 10.9627 65.1435 11.056V12.064C65.1435 12.1573 65.1109 12.2367 65.0455 12.302C64.9895 12.3673 64.9102 12.4 64.8075 12.4H63.7155C63.2675 12.4 62.9175 12.526 62.6655 12.778C62.4228 13.0207 62.3015 13.366 62.3015 13.814V17.664C62.3015 17.7573 62.2688 17.8367 62.2035 17.902C62.1382 17.9673 62.0542 18 61.9515 18H60.7335Z" fill="white"/>
</svg>
