<svg width="17" height="20" viewBox="0 0 17 20" fill="none" xmlns="http://www.w3.org/2000/svg">
<g clip-path="url(#clip0_255_474)">
<path d="M15.8154 9.80538C15.4777 9.51409 15.1778 9.25681 14.8796 8.99781C14.3129 8.50559 13.75 8.0092 13.1775 7.52333C13.1019 7.45918 12.9799 7.41488 12.8792 7.41461C10.5158 7.40849 8.15245 7.40972 5.78908 7.40961C5.71121 7.40961 5.63335 7.40961 5.53462 7.40961C5.53462 11.6096 5.53462 15.7872 5.53462 20C5.21889 19.9534 4.92736 19.9169 4.63841 19.8666C3.5227 19.6725 2.43444 19.3916 1.43235 18.8603C0.953022 18.6061 0.513578 18.3001 0.210008 17.8444C0.0747706 17.6413 -7.89997e-05 17.4253 7.99167e-05 17.177C0.00353635 12.4378 0.0040131 7.69863 4.58498e-07 2.9595C-0.000317374 2.59278 0.164638 2.30587 0.398324 2.0449C0.847581 1.54317 1.4349 1.23552 2.053 0.981485C3.1055 0.548912 4.2112 0.3145 5.34046 0.16233C6.47215 0.00985187 7.60875 -0.0275171 8.74648 0.0183186C10.4576 0.0872838 12.139 0.328508 13.7336 0.974557C14.3718 1.23314 14.9752 1.54979 15.4336 2.07215C15.6905 2.36483 15.8214 2.69268 15.8195 3.08977C15.809 5.21877 15.815 7.34784 15.8154 9.47687C15.8154 9.5665 15.8154 9.6561 15.8154 9.80538ZM7.40387 4.38195C8.85513 4.37656 10.1521 4.28416 11.4235 3.97532C12.0142 3.8318 12.5994 3.66366 13.0895 3.29263C13.577 2.92356 13.571 2.52273 13.0818 2.1572C12.6659 1.84636 12.1785 1.68322 11.6807 1.54945C10.3516 1.19223 8.99109 1.08274 7.61801 1.07866C6.25153 1.07458 4.89641 1.17668 3.56966 1.51369C3.00614 1.65682 2.44989 1.82796 1.98931 2.19457C1.55901 2.53709 1.56008 2.90982 1.9824 3.25776C2.32161 3.53724 2.72736 3.69437 3.14396 3.82211C4.57751 4.26157 6.05769 4.36732 7.40387 4.38195Z" fill="#19427D"/>
<path d="M16.6551 19.9825C13.2233 19.9825 9.80505 19.9825 6.375 19.9825C6.375 16.0556 6.375 12.1406 6.375 8.20434C6.44862 8.20041 6.5183 8.19348 6.58799 8.19345C8.47456 8.19256 10.3611 8.19094 12.2477 8.19626C12.3439 8.19652 12.4583 8.23493 12.5335 8.29297C13.8784 9.33191 15.2193 10.3757 16.557 11.4233C16.6137 11.4678 16.6623 11.5592 16.6624 11.6289C16.6675 14.3798 16.6666 17.1309 16.6661 19.8819C16.6661 19.9073 16.6607 19.9327 16.6551 19.9825ZM12.7272 8.92636C10.843 8.92636 8.98838 8.92636 7.13633 8.92636C7.13633 12.3848 7.13633 15.837 7.13633 19.2847C10.0666 19.2847 12.9812 19.2847 15.8904 19.2847C15.8904 16.8032 15.8904 14.3385 15.8904 11.8587C14.8311 11.8587 13.7877 11.8587 12.7272 11.8587C12.7272 10.8846 12.7272 9.92539 12.7272 8.92636Z" fill="#19427D"/>
<path d="M14.0674 14.5833C14.0674 14.8259 14.0674 15.0537 14.0674 15.2938C13.2743 15.2938 12.4928 15.2938 11.6997 15.2938C11.6997 15.0535 11.6997 14.8257 11.6997 14.5833C12.4851 14.5833 13.267 14.5833 14.0674 14.5833Z" fill="#19427D"/>
<path d="M8.56885 10.1459C9.34575 10.1459 10.104 10.1459 10.8789 10.1459C10.8789 10.3773 10.8789 10.6041 10.8789 10.8464C10.1184 10.8464 9.3502 10.8464 8.56885 10.8464C8.56885 10.6189 8.56885 10.3923 8.56885 10.1459Z" fill="#19427D"/>
<path d="M10.881 13.8128C10.1062 13.8128 9.3425 13.8128 8.56738 13.8128C8.56738 13.5765 8.56738 13.3497 8.56738 13.1115C9.33896 13.1115 10.1027 13.1115 10.881 13.1115C10.881 13.3384 10.881 13.5656 10.881 13.8128Z" fill="#19427D"/>
<path d="M10.879 15.2991C10.1068 15.2991 9.3477 15.2991 8.57227 15.2991C8.57227 15.0605 8.57227 14.828 8.57227 14.582C9.33542 14.582 10.0989 14.582 10.879 14.582C10.879 14.8125 10.879 15.0445 10.879 15.2991Z" fill="#19427D"/>
<path d="M11.6992 13.1395C12.4937 13.1395 13.272 13.1395 14.0648 13.1395C14.0648 13.3662 14.0648 13.5864 14.0648 13.8196C13.2768 13.8196 12.4936 13.8196 11.6992 13.8196C11.6992 13.5945 11.6992 13.379 11.6992 13.1395Z" fill="#19427D"/>
<path d="M11.6997 16.7821C11.6997 16.5516 11.6997 16.3318 11.6997 16.1003C12.493 16.1003 13.2746 16.1003 14.0676 16.1003C14.0676 16.3321 14.0676 16.552 14.0676 16.7821C13.2744 16.7821 12.4925 16.7821 11.6997 16.7821Z" fill="#19427D"/>
<path d="M8.5415 18.0612C8.5415 17.8308 8.5415 17.611 8.5415 17.3795C10.392 17.3795 12.2151 17.3795 14.0648 17.3795C14.0648 17.6112 14.0648 17.8311 14.0648 18.0612C12.2146 18.0612 10.3907 18.0612 8.5415 18.0612Z" fill="#19427D"/>
<path d="M8.56641 12.3126C8.56641 12.0914 8.56641 11.8769 8.56641 11.6489C9.33862 11.6489 10.1065 11.6489 10.885 11.6489C10.885 11.8704 10.885 12.085 10.885 12.3126C10.1131 12.3126 9.34506 12.3126 8.56641 12.3126Z" fill="#19427D"/>
<path d="M8.56494 16.7772C8.56494 16.5462 8.56494 16.3307 8.56494 16.1019C9.33739 16.1019 10.1008 16.1019 10.8798 16.1019C10.8798 16.3205 10.8798 16.541 10.8798 16.7772C10.1166 16.7772 9.34844 16.7772 8.56494 16.7772Z" fill="#19427D"/>
</g>
<defs>
<clipPath id="clip0_255_474">
<rect width="16.6667" height="20" fill="white"/>
</clipPath>
</defs>
</svg>
