<svg width="20" height="20" viewBox="0 0 20 20" fill="none" xmlns="http://www.w3.org/2000/svg">
<path d="M12.2816 9.88395C12.2308 10.572 12.1828 11.2587 12.1237 11.944C12.1168 12.0181 12.0578 12.1074 11.996 12.1527C10.9042 12.9657 9.73546 13.6455 8.48297 14.1811C8.39783 14.2182 8.27011 14.2169 8.18358 14.1798C6.93796 13.6483 5.77199 12.974 4.68843 12.161C4.61839 12.1088 4.55521 12.0071 4.54422 11.922C4.37393 10.5624 4.37393 9.2014 4.54422 7.84179C4.55384 7.75939 4.6074 7.66051 4.67332 7.61244C5.7665 6.79256 6.94346 6.11138 8.20281 5.5744C8.27835 5.54144 8.39233 5.54144 8.46787 5.5744C9.72585 6.11275 10.9028 6.79256 11.9987 7.61244C12.0605 7.65914 12.1182 7.74841 12.1237 7.82394C12.1828 8.50924 12.2308 9.19454 12.2816 9.88395ZM8.33191 13.4766C8.53653 13.2418 8.73018 13.022 8.92244 12.8009C9.48002 12.1555 10.0403 11.5127 10.4633 10.7656C10.7284 10.2987 10.9413 9.81117 10.9248 9.26183C10.8836 7.87475 9.79864 6.78981 8.41293 6.74037C6.53969 6.67308 5.21991 8.60812 5.95465 10.2589C6.51085 11.5045 7.47219 12.4425 8.33191 13.4766Z" fill="#19427D"/>
<path d="M18.9329 14.3075C18.8834 14.4188 18.8477 14.5149 18.7996 14.6042C18.7227 14.7484 18.7131 14.8843 18.8093 15.0258C18.8505 15.0876 18.8889 15.1563 18.9068 15.2277C18.9878 15.5655 19.1457 15.821 19.5179 15.9006C19.577 15.913 19.6415 16.0407 19.6484 16.1204C19.6676 16.3167 19.6484 16.5159 19.6566 16.7136C19.6635 16.862 19.5948 16.9554 19.4616 16.9856C19.1704 17.0501 18.9988 17.2177 18.9507 17.5143C18.9438 17.5541 18.9274 17.5953 18.9054 17.6269C18.7186 17.892 18.7063 18.1543 18.8752 18.4413C18.9136 18.5072 18.8642 18.6404 18.8244 18.7297C18.7928 18.7998 18.7063 18.8423 18.6582 18.9069C18.4343 19.2035 18.1858 19.3422 17.8314 19.095C17.7738 19.0552 17.6488 19.0827 17.5664 19.1115C17.3933 19.1719 17.234 19.2763 17.0582 19.3202C16.8577 19.3697 16.7671 19.4878 16.7039 19.6691C16.5941 19.9849 16.5872 19.9836 16.2507 19.9836C16.2164 19.9836 16.1821 19.9795 16.1491 19.9849C15.7769 20.0467 15.5146 19.9465 15.435 19.5331C15.4226 19.4672 15.3237 19.4054 15.2523 19.3669C15.1644 19.3189 15.0545 19.3079 14.968 19.2571C14.6686 19.0827 14.3775 19.0099 14.0575 19.22C14.0067 19.253 13.8707 19.209 13.8075 19.1582C13.6606 19.0387 13.537 18.889 13.3969 18.7586C13.2788 18.6487 13.2527 18.5306 13.3379 18.3946C13.4862 18.1598 13.5013 17.9291 13.3269 17.6983C13.2953 17.6558 13.2761 17.6008 13.2651 17.5473C13.206 17.2355 13.0302 17.0501 12.7171 16.9691C12.6402 16.9485 12.5798 16.807 12.5427 16.7095C12.5152 16.6381 12.5482 16.5461 12.5358 16.4664C12.4768 16.0956 12.5949 15.8526 12.9877 15.7647C13.0632 15.7482 13.1346 15.6356 13.1758 15.5518C13.2513 15.4007 13.2815 15.2236 13.3694 15.0821C13.4834 14.8953 13.4903 14.7292 13.3749 14.552C13.2404 14.3433 13.2747 14.1688 13.4752 14.0246C13.4972 14.0095 13.5178 13.9889 13.5329 13.967C13.7608 13.6511 14.0259 13.5206 14.3912 13.7678C14.4448 13.8049 14.5601 13.7774 14.637 13.75C14.7963 13.6923 14.9433 13.5934 15.1053 13.5522C15.3292 13.4959 15.4624 13.3737 15.5119 13.1526C15.5613 12.926 15.7028 12.8353 15.9294 12.8655C15.9692 12.871 16.0118 12.8724 16.0516 12.8655C16.4251 12.8065 16.6874 12.9081 16.7671 13.3229C16.7808 13.3929 16.8879 13.4616 16.9662 13.5C17.1118 13.5714 17.2848 13.5962 17.4181 13.684C17.6309 13.8228 17.8218 13.8076 18.0237 13.684C18.1967 13.5783 18.3382 13.6058 18.4714 13.7623C18.5813 13.8928 18.7145 14.0027 18.8285 14.1276C18.8738 14.1771 18.8999 14.2485 18.9329 14.3075ZM17.7738 16.4486C17.7793 15.512 17.0239 14.747 16.0955 14.7511C15.1809 14.7553 14.4352 15.4982 14.4228 16.417C14.4118 17.3234 15.1658 18.0952 16.0722 18.1021C17.0047 18.109 17.7683 17.3674 17.7738 16.4486Z" fill="#19427D"/>
<path d="M5.56201 3.95115C5.99187 3.05848 6.48627 2.1974 7.40229 1.68926C8.19883 1.24979 8.95692 1.39811 9.65045 1.94058C10.3165 2.46382 10.7395 3.16972 11.0925 3.92369C11.1007 3.94017 11.0938 3.96351 11.0938 3.95802C10.4127 4.15441 9.72187 4.29861 9.07502 4.55543C8.55178 4.76417 8.10407 4.75181 7.58495 4.55131C6.94085 4.30136 6.2583 4.15304 5.56201 3.95115Z" fill="#19427D"/>
<path d="M11.1199 15.7852C10.7381 16.5914 10.3028 17.3357 9.58725 17.8686C8.75638 18.488 7.86783 18.4784 7.04657 17.8439C6.35303 17.3097 5.9218 16.5804 5.54688 15.7784C5.78584 15.7248 6.01244 15.6905 6.22943 15.6246C6.87902 15.4268 7.52449 15.2153 8.17408 15.0148C8.25785 14.9887 8.36498 14.9667 8.44051 14.9956C9.27413 15.3156 10.1229 15.5779 11.0004 15.7454C11.0334 15.7523 11.065 15.766 11.1199 15.7852Z" fill="#19427D"/>
<path d="M1.8278 9.3429C1.31005 8.59031 0.882939 7.81712 0.767578 6.88599C1.2716 6.83243 1.66986 6.62231 1.91844 6.1897C2.16839 5.7571 2.16976 5.30939 1.96513 4.85894C2.37027 4.5568 3.5898 4.40161 4.61843 4.52384C4.57449 4.66667 4.5223 4.804 4.48797 4.94546C4.31355 5.69942 4.14326 6.45476 3.96472 7.20735C3.94549 7.28701 3.90292 7.37627 3.84112 7.42571C3.13934 7.99428 2.48288 8.60679 1.89509 9.29209C1.88136 9.30582 1.86351 9.31543 1.8278 9.3429Z" fill="#19427D"/>
<path d="M12.0513 4.52519C13.0675 4.40297 14.2321 4.54717 14.6936 4.84656C14.3049 5.76395 14.7856 6.75001 15.8953 6.8997C15.7923 7.81573 15.3583 8.58617 14.8447 9.33876C14.8076 9.30855 14.776 9.28795 14.7499 9.26186C14.1195 8.66033 13.4878 8.05881 12.8602 7.45316C12.7956 7.39136 12.7201 7.31033 12.7077 7.22793C12.5759 6.34487 12.3699 5.47967 12.0801 4.63369C12.0691 4.6021 12.0623 4.57051 12.0513 4.52519Z" fill="#19427D"/>
<path d="M1.96776 14.9214C2.4086 13.8955 1.74802 12.9616 0.805911 12.882C0.72351 12.4247 1.2495 11.1667 1.84004 10.4237C1.89223 10.4773 1.93892 10.5308 1.99111 10.5803C2.56654 11.1324 3.13785 11.6886 3.72289 12.2297C3.86435 12.3601 3.95087 12.4823 3.99069 12.6801C4.16511 13.5316 4.36836 14.3776 4.56063 15.2277C4.04975 15.3595 2.57478 15.2798 1.96776 14.9214Z" fill="#19427D"/>
<path d="M14.9049 10.4374C15.1961 10.995 15.4996 11.5759 15.8237 12.1939C15.7015 12.2186 15.6452 12.2296 15.5888 12.242C15.2771 12.3092 15.0738 12.5001 14.953 12.7913C14.872 12.9863 14.541 13.1264 14.3473 13.0481C13.9669 12.8943 13.6277 12.9533 13.3352 13.2459C13.1759 13.4052 13.0138 13.5604 12.8614 13.7265C12.6279 13.982 12.595 14.2786 12.6925 14.6027C12.8147 15.0134 12.6265 15.3842 12.1706 15.2578C12.1376 15.2482 12.1047 15.2427 12.0635 15.2345C12.1843 14.8074 12.3175 14.3899 12.4192 13.9641C12.529 13.5013 12.6059 13.0316 12.7021 12.5661C12.7158 12.4974 12.7419 12.415 12.7913 12.3697C13.4753 11.7379 14.1647 11.1103 14.9049 10.4374Z" fill="#19427D"/>
<path d="M15.3499 2.68082C15.3485 2.70416 15.3526 2.76596 15.3416 2.82639C15.3101 3.01179 15.1796 3.12166 15.0038 3.11754C14.828 3.11342 14.7113 2.99943 14.6879 2.80716C14.6577 2.56408 14.6591 2.31276 14.5946 2.08067C14.3556 1.23057 13.6099 0.677109 12.709 0.655136C12.3711 0.648269 12.2173 0.546642 12.2173 0.329653C12.2159 0.105798 12.3835 -0.00269583 12.7282 5.08568e-05C14.1771 0.00966426 15.3375 1.17838 15.3499 2.68082Z" fill="#19427D"/>
<path d="M9.21094 5.14321C9.93469 4.95232 10.6461 4.76554 11.4055 4.56641C11.6115 5.32312 11.8024 6.02764 11.9988 6.75277C11.0512 6.2048 10.1476 5.68293 9.21094 5.14321Z" fill="#19427D"/>
<path d="M7.47374 5.13353C6.52064 5.68287 5.6211 6.20199 4.70508 6.73073C4.73254 6.59477 4.75314 6.44507 4.79297 6.30225C4.93717 5.78587 5.08412 5.26949 5.24068 4.75586C5.25716 4.70093 5.35604 4.62402 5.39862 4.63363C6.08254 4.79019 6.76372 4.95912 7.47374 5.13353Z" fill="#19427D"/>
<path d="M11.4055 15.2002C10.6447 14.9997 9.94018 14.8129 9.21094 14.6206C10.1544 14.0768 11.0553 13.5577 12.0002 13.0125C11.8024 13.7376 11.6115 14.4407 11.4055 15.2002Z" fill="#19427D"/>
<path d="M7.45714 14.6206C6.72927 14.8128 6.02474 14.9996 5.26666 15.2001C5.06065 14.4489 4.86701 13.7403 4.6665 13.0096C5.60862 13.5549 6.50816 14.0726 7.45714 14.6206Z" fill="#19427D"/>
<path d="M3.80026 8.26208C3.80026 9.36488 3.80026 10.4031 3.80026 11.4977C3.26741 10.9621 2.74828 10.4402 2.19482 9.884C2.74141 9.33055 3.25917 8.80868 3.80026 8.26208Z" fill="#19427D"/>
<path d="M14.449 9.90729C13.9271 10.4347 13.4121 10.9551 12.8696 11.5017C12.8696 10.4086 12.8696 9.37168 12.8696 8.30872C13.4327 8.78527 13.9504 9.30439 14.449 9.90729Z" fill="#19427D"/>
<path d="M12.6456 1.01907C13.607 1.03967 14.3664 1.8472 14.3293 2.80854C14.3211 3.02828 14.1893 3.16698 13.9929 3.16424C13.8061 3.16149 13.6852 3.02965 13.6743 2.81541C13.6399 2.11225 13.2348 1.69201 12.5742 1.67553C12.327 1.66867 12.1677 1.53545 12.1704 1.33769C12.1732 1.13581 12.3256 1.01907 12.5838 1.0177C12.6044 1.01907 12.625 1.01907 12.6456 1.01907Z" fill="#19427D"/>
<path d="M0.727889 6.22264C0.321379 6.22126 0.0027638 5.90402 1.71136e-05 5.49889C-0.00272957 5.08414 0.325499 4.75179 0.733382 4.75453C1.12891 4.75591 1.46263 5.08963 1.46812 5.48378C1.47224 5.89166 1.13989 6.22401 0.727889 6.22264Z" fill="#19427D"/>
<path d="M16.6685 5.48239C16.6712 5.89165 16.3595 6.21713 15.9585 6.22263C15.5437 6.22949 15.2086 5.9095 15.2018 5.50025C15.1949 5.1006 15.5396 4.75315 15.9406 4.75452C16.3403 4.75452 16.6644 5.08 16.6685 5.48239Z" fill="#19427D"/>
<path d="M0 14.2704C0 13.8584 0.330976 13.5329 0.742979 13.5398C1.14262 13.5466 1.46948 13.8776 1.4681 14.2745C1.46673 14.67 1.13575 15.0024 0.738859 15.0065C0.329602 15.012 0 14.6824 0 14.2704Z" fill="#19427D"/>
<path d="M12.6583 3.19575C12.3672 3.19713 12.1351 2.96641 12.1392 2.68075C12.1433 2.40745 12.3782 2.17536 12.6501 2.17261C12.9316 2.17124 13.1747 2.41569 13.1706 2.69448C13.1651 2.97327 12.9399 3.19438 12.6583 3.19575Z" fill="#19427D"/>
<path d="M8.34432 10.848C7.50246 10.8521 6.80205 10.1545 6.80617 9.31811C6.81166 8.48449 7.50246 7.79919 8.3347 7.79919C9.16832 7.79919 9.85774 8.48587 9.86186 9.31949C9.86461 10.1504 9.17519 10.8439 8.34432 10.848Z" fill="#19427D"/>
</svg>
