<svg width="17" height="20" viewBox="0 0 17 20" fill="none" xmlns="http://www.w3.org/2000/svg">
<g clip-path="url(#clip0_255_486)">
<path d="M16.2439 3.4013C16.2439 7.80043 16.2439 12.1996 16.2439 16.5987C16.0903 17.2227 15.779 17.7529 15.2651 18.143C14.9905 18.351 14.705 18.5536 14.4018 18.714C13.0288 19.4358 11.5375 19.7281 10.0122 19.8899C9.63703 19.9293 9.26047 19.9633 8.8839 19.9986C8.37683 19.9986 7.86841 19.9986 7.36134 19.9986C7.25394 19.981 7.14791 19.9511 7.04051 19.947C5.89995 19.898 4.7689 19.7526 3.67863 19.4182C2.9894 19.2074 2.31104 18.9356 1.66803 18.6107C0.838771 18.1892 0.21751 17.5489 0 16.5987C0 12.1996 0 7.80043 0 3.4013C0.0788472 3.18244 0.138662 2.95269 0.241979 2.74606C0.535617 2.15878 1.02229 1.75503 1.57694 1.43284C3.01523 0.598151 4.60576 0.286841 6.23165 0.110114C6.60821 0.0679717 6.98477 0.0367047 7.35998 0C7.86705 0 8.37548 0 8.88254 0C8.98994 0.0176726 9.09598 0.0475802 9.20337 0.0516585C10.3439 0.100598 11.475 0.246058 12.5653 0.580478C13.2531 0.791191 13.9315 1.06444 14.5745 1.38934C15.4051 1.80941 16.025 2.45106 16.2439 3.4013ZM8.07504 5.83469C9.34067 5.8143 10.5519 5.72186 11.7401 5.43774C12.621 5.22703 13.4842 4.96058 14.2278 4.41952C14.9782 3.87303 14.9932 3.36052 14.2183 2.85617C13.7221 2.53399 13.1688 2.27569 12.6088 2.08265C11.1338 1.57694 9.59625 1.44236 8.04377 1.44644C6.60277 1.45188 5.17945 1.59734 3.79554 2.02284C3.06009 2.24986 2.33687 2.51767 1.76591 3.06416C1.34176 3.47064 1.32001 3.83496 1.77542 4.19929C2.16558 4.5106 2.6074 4.78385 3.06688 4.97553C4.68053 5.65389 6.39478 5.79799 8.07504 5.83469ZM14.7852 5.78983C12.6808 6.94263 10.4296 7.24443 8.12126 7.24579C5.80886 7.24579 3.5522 6.93991 1.44916 5.78711C1.44916 6.43828 1.47635 7.04731 1.441 7.65226C1.41245 8.14437 1.62045 8.472 1.99429 8.74388C2.66313 9.2292 3.42306 9.50109 4.21153 9.70228C5.87819 10.1264 7.57205 10.2325 9.2863 10.1223C10.4024 10.0503 11.4995 9.88581 12.5666 9.54867C13.1879 9.35155 13.8023 9.12045 14.3026 8.6895C14.5024 8.51686 14.7444 8.26536 14.7635 8.0329C14.8233 7.30288 14.7852 6.56471 14.7852 5.78983ZM14.7784 10.1319C12.6849 11.2792 10.435 11.5797 8.12806 11.581C5.8143 11.5824 3.55628 11.2792 1.44916 10.1251C1.44916 10.7327 1.48994 11.3023 1.43828 11.8624C1.37983 12.5068 1.6789 12.9038 2.18597 13.2083C2.36542 13.317 2.54894 13.4231 2.73926 13.5128C3.77379 13.9995 4.87629 14.2319 6.0019 14.3706C7.22268 14.5201 8.44617 14.5283 9.67102 14.4263C10.8293 14.3298 11.963 14.1259 13.0506 13.7085C13.5889 13.5019 14.1055 13.2545 14.5201 12.8358C14.7077 12.6468 14.8029 12.4307 14.7974 12.1561C14.7852 11.5729 14.7947 10.9897 14.7934 10.4051C14.7934 10.3249 14.7852 10.2433 14.7784 10.1319ZM1.44916 14.4535C1.44916 14.9742 1.48858 15.4649 1.43964 15.9462C1.37575 16.5606 1.66939 16.9426 2.14247 17.2403C2.36406 17.379 2.59244 17.5095 2.83034 17.6169C3.8404 18.0723 4.91028 18.2993 6.00326 18.4312C7.23219 18.5807 8.4652 18.5889 9.69956 18.4856C10.8646 18.3877 12.0079 18.1797 13.0995 17.7515C13.6283 17.5449 14.1368 17.2961 14.5392 16.8774C14.7104 16.6979 14.8029 16.4967 14.7974 16.2412C14.7879 15.7259 14.7947 15.2094 14.7934 14.6928C14.7934 14.6221 14.7798 14.5527 14.7703 14.4657C12.6794 15.6213 10.4214 15.919 8.11582 15.9176C5.81158 15.9176 3.55492 15.6185 1.44916 14.4535Z" fill="#19427D"/>
</g>
<defs>
<clipPath id="clip0_255_486">
<rect width="16.2439" height="20" fill="white"/>
</clipPath>
</defs>
</svg>
