<svg width="17" height="20" viewBox="0 0 17 20" fill="none" xmlns="http://www.w3.org/2000/svg">
<g clip-path="url(#clip0_255_522)">
<path d="M8.80197 0C9.13422 0.0511146 9.4693 0.0922902 9.80013 0.156183C11.2782 0.440153 12.5731 1.0947 13.6919 2.09854C15.0408 3.30967 15.8913 4.80761 16.2775 6.57958C16.6225 8.16129 16.374 9.64504 15.6428 11.0748C14.8491 12.6253 13.8311 14.0182 12.7193 15.3486C11.3563 16.98 9.86686 18.4879 8.30219 19.9262C8.27805 19.9475 8.25249 19.9673 8.21415 20C8.08069 19.8779 7.94438 19.76 7.81234 19.6365C5.95375 17.8929 4.18888 16.0613 2.65686 14.0196C1.77656 12.8482 0.980021 11.6257 0.429119 10.2542C-0.0138742 9.15235 -0.0962255 8.02499 0.101134 6.86639C0.346768 5.41815 0.937425 4.12182 1.87311 2.99588C3.06578 1.56041 4.57792 0.619054 6.40385 0.203038C6.80708 0.110748 7.22026 0.0667329 7.6306 0C8.02106 0 8.41151 0 8.80197 0ZM8.22551 13.2089C11.2299 13.2188 13.6792 10.7823 13.6877 7.77368C13.6962 4.76927 11.264 2.31861 8.25675 2.303C5.26087 2.28738 2.79885 4.72952 2.78323 7.7325C2.76903 10.7468 5.20407 13.1989 8.22551 13.2089Z" fill="#19427D"/>
<path d="M9.28464 9.02457C9.28464 9.81685 9.28464 10.6006 9.28464 11.3986C8.77207 11.3986 8.28081 11.3986 7.76114 11.3986C7.76114 11.3276 7.76114 11.2594 7.76114 11.1898C7.76114 9.11402 7.76256 7.03678 7.7583 4.96096C7.7583 4.80052 7.7938 4.74089 7.96702 4.71959C8.80899 4.61878 9.65238 4.56625 10.4972 4.65144C11.2568 4.72811 11.9355 4.97516 12.3444 5.68225C13.0529 6.91326 12.4182 8.45947 11.0183 8.85561C10.6065 8.97204 10.1607 8.9763 9.73047 9.02315C9.58991 9.03735 9.4465 9.02457 9.28464 9.02457ZM9.29174 5.81713C9.29174 6.49866 9.29174 7.15037 9.29174 7.81202C9.72053 7.88727 10.1309 7.88301 10.5227 7.70269C10.9189 7.51953 11.1432 7.10352 11.0893 6.66478C11.0325 6.18771 10.7826 5.88671 10.3126 5.82423C9.98462 5.78164 9.64528 5.81713 9.29174 5.81713Z" fill="#19427D"/>
<path d="M4.90561 11.3986C4.90561 11.3191 4.90561 11.2481 4.90561 11.1785C4.90561 9.08423 4.90845 6.98995 4.89993 4.89709C4.89851 4.69406 4.95672 4.64578 5.14982 4.65288C5.57294 4.66708 5.99463 4.65714 6.43479 4.65714C6.43479 6.90902 6.43479 9.1467 6.43479 11.3986C5.93216 11.3986 5.42953 11.3986 4.90561 11.3986Z" fill="#19427D"/>
</g>
<defs>
<clipPath id="clip0_255_522">
<rect width="16.4305" height="20" fill="white"/>
</clipPath>
</defs>
</svg>
