<svg width="93" height="27" viewBox="0 0 93 27" fill="none" xmlns="http://www.w3.org/2000/svg">
<g opacity="0.3">
<path d="M87 0H6C2.68629 0 0 2.68629 0 6V21C0 24.3137 2.68629 27 6 27H87C90.3137 27 93 24.3137 93 21V6C93 2.68629 90.3137 0 87 0Z" fill="#1851A6"/>
<path d="M31.1037 17.62H34.6287V19H29.3937V8.575H31.1037V17.62ZM39.9438 19.135C39.1638 19.135 38.4588 18.96 37.8288 18.61C37.1988 18.25 36.7038 17.75 36.3438 17.11C35.9838 16.46 35.8038 15.71 35.8038 14.86C35.8038 14.02 35.9888 13.275 36.3588 12.625C36.7288 11.975 37.2338 11.475 37.8738 11.125C38.5138 10.775 39.2288 10.6 40.0188 10.6C40.8088 10.6 41.5238 10.775 42.1638 11.125C42.8038 11.475 43.3088 11.975 43.6788 12.625C44.0488 13.275 44.2338 14.02 44.2338 14.86C44.2338 15.7 44.0438 16.445 43.6638 17.095C43.2838 17.745 42.7638 18.25 42.1038 18.61C41.4538 18.96 40.7338 19.135 39.9438 19.135ZM39.9438 17.65C40.3838 17.65 40.7938 17.545 41.1738 17.335C41.5638 17.125 41.8788 16.81 42.1188 16.39C42.3588 15.97 42.4788 15.46 42.4788 14.86C42.4788 14.26 42.3638 13.755 42.1338 13.345C41.9038 12.925 41.5988 12.61 41.2188 12.4C40.8388 12.19 40.4288 12.085 39.9888 12.085C39.5488 12.085 39.1388 12.19 38.7588 12.4C38.3888 12.61 38.0938 12.925 37.8738 13.345C37.6538 13.755 37.5438 14.26 37.5438 14.86C37.5438 15.75 37.7688 16.44 38.2188 16.93C38.6788 17.41 39.2538 17.65 39.9438 17.65ZM45.6542 14.83C45.6542 14 45.8242 13.265 46.1642 12.625C46.5142 11.985 46.9842 11.49 47.5742 11.14C48.1742 10.78 48.8342 10.6 49.5542 10.6C50.2042 10.6 50.7692 10.73 51.2492 10.99C51.7392 11.24 52.1292 11.555 52.4192 11.935V10.735H54.1442V19H52.4192V17.77C52.1292 18.16 51.7342 18.485 51.2342 18.745C50.7342 19.005 50.1642 19.135 49.5242 19.135C48.8142 19.135 48.1642 18.955 47.5742 18.595C46.9842 18.225 46.5142 17.715 46.1642 17.065C45.8242 16.405 45.6542 15.66 45.6542 14.83ZM52.4192 14.86C52.4192 14.29 52.2992 13.795 52.0592 13.375C51.8292 12.955 51.5242 12.635 51.1442 12.415C50.7642 12.195 50.3542 12.085 49.9142 12.085C49.4742 12.085 49.0642 12.195 48.6842 12.415C48.3042 12.625 47.9942 12.94 47.7542 13.36C47.5242 13.77 47.4092 14.26 47.4092 14.83C47.4092 15.4 47.5242 15.9 47.7542 16.33C47.9942 16.76 48.3042 17.09 48.6842 17.32C49.0742 17.54 49.4842 17.65 49.9142 17.65C50.3542 17.65 50.7642 17.54 51.1442 17.32C51.5242 17.1 51.8292 16.78 52.0592 16.36C52.2992 15.93 52.4192 15.43 52.4192 14.86ZM56.1202 14.83C56.1202 14 56.2902 13.265 56.6302 12.625C56.9802 11.985 57.4502 11.49 58.0402 11.14C58.6402 10.78 59.3052 10.6 60.0352 10.6C60.5752 10.6 61.1052 10.72 61.6252 10.96C62.1552 11.19 62.5752 11.5 62.8852 11.89V7.9H64.6102V19H62.8852V17.755C62.6052 18.155 62.2152 18.485 61.7152 18.745C61.2252 19.005 60.6602 19.135 60.0202 19.135C59.3002 19.135 58.6402 18.955 58.0402 18.595C57.4502 18.225 56.9802 17.715 56.6302 17.065C56.2902 16.405 56.1202 15.66 56.1202 14.83ZM62.8852 14.86C62.8852 14.29 62.7652 13.795 62.5252 13.375C62.2952 12.955 61.9902 12.635 61.6102 12.415C61.2302 12.195 60.8202 12.085 60.3802 12.085C59.9402 12.085 59.5302 12.195 59.1502 12.415C58.7702 12.625 58.4602 12.94 58.2202 13.36C57.9902 13.77 57.8752 14.26 57.8752 14.83C57.8752 15.4 57.9902 15.9 58.2202 16.33C58.4602 16.76 58.7702 17.09 59.1502 17.32C59.5402 17.54 59.9502 17.65 60.3802 17.65C60.8202 17.65 61.2302 17.54 61.6102 17.32C61.9902 17.1 62.2952 16.78 62.5252 16.36C62.7652 15.93 62.8852 15.43 62.8852 14.86Z" fill="#FFFEFE"/>
</g>
</svg>
