<svg width="22" height="20" viewBox="0 0 22 20" fill="none" xmlns="http://www.w3.org/2000/svg">
<path d="M21.1843 16.3735C21.1843 17.5057 21.1843 18.6394 21.1828 19.7716C21.1828 19.817 21.1828 19.8608 21.1798 19.9062C21.1767 19.9636 21.145 19.9939 21.0876 19.9969C21.0467 19.9984 21.0044 19.9999 20.9636 19.9999C14.0493 19.9999 7.135 19.9999 0.220701 19.9999C0.207096 19.9999 0.193492 19.9999 0.179887 19.9999C0.0151165 19.9984 0.00302331 19.9863 0.00151165 19.823C0 18.6802 0 17.5374 0 16.3931C0.0241864 15.9578 0.188957 15.5768 0.445938 15.2322C0.796641 14.762 1.25014 14.4098 1.7384 14.0969C2.51085 13.6026 3.34831 13.2443 4.21146 12.9435C5.34672 12.5459 6.5122 12.2572 7.69885 12.0532C8.39723 11.9322 9.09864 11.8445 9.80458 11.7977C10.4395 11.7554 11.0729 11.775 11.7078 11.8249C12.7992 11.9126 13.8724 12.1 14.9351 12.3494C16.016 12.6034 17.0726 12.936 18.0915 13.3804C18.8019 13.6918 19.4822 14.0606 20.0838 14.5549C20.5343 14.9253 20.9137 15.3546 21.0996 15.9245C21.148 16.0711 21.1692 16.2208 21.1843 16.3735Z" fill="#19427D"/>
<path d="M5.30555 5.29162C5.27078 2.41797 7.66373 -0.0520733 10.6885 0.000834593C13.6015 0.0507191 15.9083 2.46332 15.8841 5.34302C15.8599 8.16829 13.5667 10.593 10.5812 10.5854C7.58059 10.5779 5.27532 8.13201 5.30555 5.29162Z" fill="#19427D"/>
</svg>
