<svg width="20" height="20" viewBox="0 0 20 20" fill="none" xmlns="http://www.w3.org/2000/svg">
<g clip-path="url(#clip0_255_519)">
<path d="M4.16028 13.4285C6.07274 14.0064 6.90686 15.7279 6.62309 17.2723C6.33759 18.8236 4.95656 19.9862 3.38807 19.9983C1.76798 20.012 0.364594 18.8701 0.0619027 17.2912C-0.23219 15.752 0.593333 14.0064 2.48687 13.4354C2.49031 13.3666 2.49547 13.2961 2.49547 13.2238C2.49547 11.0775 2.49375 8.93111 2.49891 6.78303C2.49891 6.61277 2.45592 6.53366 2.28393 6.47862C0.847869 6.02286 -0.116961 4.57132 0.0120274 3.08022C0.147895 1.51173 1.32598 0.259685 2.86868 0.0412658C4.93764 -0.249387 6.76411 1.3879 6.67468 3.4689C6.61449 4.88261 5.69609 6.11574 4.20155 6.55601C4.20155 7.68423 4.20155 8.81932 4.20155 9.96129C4.48705 9.80823 4.75534 9.64484 5.03911 9.51414C5.58602 9.26304 6.16389 9.16673 6.76755 9.16673C9.4677 9.17189 12.1661 9.16845 14.8663 9.17017C15.1363 9.17017 15.4063 9.13577 15.5748 8.91735C15.697 8.76085 15.8001 8.54759 15.8105 8.35496C15.8431 7.8115 15.8156 7.26631 15.8277 6.72112C15.8311 6.57149 15.7606 6.53022 15.6419 6.49066C14.2076 6.01254 13.2961 4.72611 13.3287 3.23501C13.3649 1.54612 14.7562 0.108339 16.4502 0.00686901C18.1873 -0.0980411 19.73 1.154 19.9604 2.85664C20.1806 4.48705 19.2656 5.96267 17.7074 6.4941C17.6472 6.51474 17.5871 6.5371 17.5079 6.56633C17.5079 7.13216 17.5131 7.70143 17.5062 8.26897C17.4976 9.16329 17.1433 9.88906 16.4004 10.405C15.9979 10.6853 15.5473 10.8298 15.052 10.8298C12.2951 10.8298 9.53821 10.8298 6.78303 10.8333C5.55335 10.835 4.57648 11.5504 4.27379 12.6769C4.20843 12.916 4.19811 13.1705 4.16028 13.4285ZM16.6601 4.9944C17.5819 4.99956 18.3197 4.26863 18.3249 3.34508C18.33 2.42668 17.5957 1.68543 16.6738 1.68027C15.7554 1.67511 15.0159 2.40948 15.0125 3.33132C15.0073 4.25487 15.7348 4.98924 16.6601 4.9944Z" fill="#19427D"/>
</g>
<defs>
<clipPath id="clip0_255_519">
<rect width="19.9931" height="20" fill="white"/>
</clipPath>
</defs>
</svg>
