<svg width="100" height="156" viewBox="0 0 100 156" fill="none" xmlns="http://www.w3.org/2000/svg">
<rect width="100" height="156" rx="19" fill="#F9FBFF"/>
<path d="M25.8659 109.34C26.0152 109.34 26.1459 109.382 26.2579 109.466C26.3699 109.55 26.4492 109.662 26.4959 109.802L29.4219 119H27.6299L25.4179 111.552C25.3806 111.403 25.3432 111.253 25.3059 111.104C25.2686 110.955 25.2359 110.81 25.2079 110.67H24.8159C24.7879 110.81 24.7552 110.955 24.7179 111.104C24.6806 111.253 24.6386 111.403 24.5919 111.552L22.3939 119H20.6019L23.5279 109.802C23.5652 109.662 23.6399 109.55 23.7519 109.466C23.8732 109.382 24.0086 109.34 24.1579 109.34H25.8659ZM27.4899 114.87V116.242H22.5199V114.87H27.4899ZM33.323 111.958C33.7897 111.958 34.247 112.023 34.695 112.154C35.143 112.275 35.549 112.481 35.913 112.77L35.801 113.624C35.437 113.521 35.1103 113.433 34.821 113.358C34.5317 113.283 34.2097 113.246 33.855 113.246C33.519 113.246 33.2483 113.307 33.043 113.428C32.847 113.54 32.6977 113.759 32.595 114.086C32.5017 114.413 32.455 114.889 32.455 115.514C32.455 116.111 32.5017 116.573 32.595 116.9C32.6883 117.217 32.833 117.441 33.029 117.572C33.225 117.693 33.4817 117.754 33.799 117.754C34.051 117.754 34.275 117.726 34.471 117.67C34.667 117.605 34.8677 117.511 35.073 117.39C35.2783 117.259 35.5163 117.096 35.787 116.9L35.927 117.852C35.6097 118.216 35.2177 118.529 34.751 118.79C34.2937 119.042 33.7617 119.168 33.155 119.168C32.2777 119.168 31.6523 118.86 31.279 118.244C30.9057 117.619 30.719 116.713 30.719 115.528C30.719 114.623 30.8123 113.913 30.999 113.4C31.195 112.877 31.4843 112.509 31.867 112.294C32.259 112.07 32.7443 111.958 33.323 111.958ZM37.299 109.2V119H35.969L35.787 117.768L35.605 117.628V113.036L35.689 112.84C35.6517 112.569 35.6283 112.299 35.619 112.028C35.6097 111.748 35.605 111.463 35.605 111.174V109.2H37.299ZM46.3558 112.126L43.9898 118.594C43.9431 118.715 43.8685 118.813 43.7658 118.888C43.6725 118.963 43.5558 119 43.4158 119H41.9318C41.8011 119 41.6845 118.963 41.5818 118.888C41.4791 118.813 41.4045 118.715 41.3578 118.594L38.9918 112.126H40.7978L42.2398 116.634C42.3051 116.839 42.3658 117.049 42.4218 117.264C42.4778 117.469 42.5291 117.67 42.5758 117.866H42.7578C42.8231 117.661 42.8838 117.455 42.9398 117.25C43.0051 117.045 43.0658 116.839 43.1218 116.634L44.5638 112.126H46.3558ZM51.4227 111.958C51.9734 111.958 52.4354 112.033 52.8087 112.182C53.1914 112.322 53.4807 112.565 53.6767 112.91C53.8727 113.255 53.9707 113.731 53.9707 114.338V119H52.6267L52.3887 117.516L52.2627 117.32V114.324C52.2627 113.96 52.1787 113.699 52.0107 113.54C51.8427 113.372 51.5207 113.288 51.0447 113.288C50.69 113.288 50.242 113.302 49.7007 113.33C49.1687 113.358 48.632 113.395 48.0907 113.442L47.9367 112.28C48.2634 112.215 48.632 112.159 49.0427 112.112C49.4534 112.065 49.8687 112.028 50.2887 112C50.7087 111.972 51.0867 111.958 51.4227 111.958ZM53.2427 114.772L53.2287 115.822H50.0787C49.7987 115.831 49.598 115.906 49.4767 116.046C49.3554 116.186 49.2947 116.377 49.2947 116.62V116.998C49.2947 117.278 49.3694 117.493 49.5187 117.642C49.668 117.782 49.9014 117.852 50.2187 117.852C50.4707 117.852 50.7507 117.801 51.0587 117.698C51.3667 117.595 51.67 117.446 51.9687 117.25C52.2767 117.054 52.552 116.821 52.7947 116.55V117.432C52.7014 117.572 52.566 117.74 52.3887 117.936C52.2114 118.123 51.992 118.309 51.7307 118.496C51.4787 118.683 51.1847 118.837 50.8487 118.958C50.522 119.079 50.158 119.14 49.7567 119.14C49.346 119.14 48.9774 119.07 48.6507 118.93C48.324 118.781 48.0674 118.566 47.8807 118.286C47.694 117.997 47.6007 117.642 47.6007 117.222V116.494C47.6007 115.953 47.778 115.533 48.1327 115.234C48.4967 114.926 48.9914 114.772 49.6167 114.772H53.2427ZM60.8944 111.958C62.173 111.958 62.8124 112.588 62.8124 113.848V119H61.1184V114.366C61.1184 113.993 61.053 113.736 60.9224 113.596C60.7917 113.456 60.5724 113.386 60.2644 113.386C59.919 113.386 59.5644 113.465 59.2004 113.624C58.8364 113.773 58.3977 113.993 57.8844 114.282L57.8144 113.26C58.3184 112.84 58.8317 112.518 59.3544 112.294C59.877 112.07 60.3904 111.958 60.8944 111.958ZM57.7584 112.126L57.9264 113.47L58.0664 113.666V119H56.3724V112.126H57.7584ZM68.3112 111.958C68.5445 111.958 68.8012 111.967 69.0812 111.986C69.3612 112.005 69.6458 112.042 69.9352 112.098C70.2245 112.154 70.4858 112.233 70.7192 112.336L70.5232 113.4C70.1778 113.381 69.8325 113.367 69.4872 113.358C69.1512 113.349 68.8572 113.344 68.6052 113.344C68.1292 113.344 67.7512 113.409 67.4712 113.54C67.2005 113.661 67.0045 113.885 66.8832 114.212C66.7618 114.529 66.7012 114.977 66.7012 115.556C66.7012 116.135 66.7618 116.587 66.8832 116.914C67.0045 117.231 67.2005 117.455 67.4712 117.586C67.7512 117.717 68.1292 117.782 68.6052 117.782C68.7452 117.782 68.9272 117.777 69.1512 117.768C69.3845 117.759 69.6318 117.745 69.8932 117.726C70.1638 117.707 70.4252 117.684 70.6772 117.656L70.8452 118.748C70.4812 118.897 70.0752 119.005 69.6272 119.07C69.1792 119.135 68.7358 119.168 68.2972 119.168C67.4758 119.168 66.8178 119.051 66.3232 118.818C65.8285 118.585 65.4692 118.207 65.2452 117.684C65.0305 117.152 64.9232 116.443 64.9232 115.556C64.9232 114.669 65.0352 113.965 65.2592 113.442C65.4832 112.91 65.8425 112.532 66.3372 112.308C66.8318 112.075 67.4898 111.958 68.3112 111.958ZM75.7615 111.958C76.8721 111.958 77.6701 112.154 78.1555 112.546C78.6408 112.929 78.8881 113.498 78.8975 114.254C78.9068 114.879 78.7575 115.355 78.4495 115.682C78.1508 115.999 77.6515 116.158 76.9515 116.158H73.0315V115.108H76.4895C76.8068 115.108 77.0075 115.024 77.0915 114.856C77.1848 114.688 77.2315 114.483 77.2315 114.24C77.2221 113.857 77.1101 113.591 76.8955 113.442C76.6901 113.293 76.3355 113.218 75.8315 113.218C75.3928 113.218 75.0521 113.279 74.8095 113.4C74.5668 113.521 74.3941 113.741 74.2915 114.058C74.1981 114.375 74.1515 114.833 74.1515 115.43C74.1515 116.065 74.2121 116.555 74.3335 116.9C74.4548 117.245 74.6555 117.483 74.9355 117.614C75.2155 117.735 75.5888 117.796 76.0555 117.796C76.4008 117.796 76.7975 117.782 77.2455 117.754C77.7028 117.726 78.1415 117.689 78.5615 117.642L78.7295 118.72C78.4775 118.823 78.1881 118.907 77.8615 118.972C77.5348 119.037 77.1941 119.084 76.8395 119.112C76.4941 119.149 76.1675 119.168 75.8595 119.168C75.0195 119.168 74.3428 119.047 73.8295 118.804C73.3255 118.552 72.9568 118.16 72.7235 117.628C72.4995 117.096 72.3875 116.41 72.3875 115.57C72.3875 114.665 72.4995 113.951 72.7235 113.428C72.9568 112.896 73.3208 112.518 73.8155 112.294C74.3195 112.07 74.9681 111.958 75.7615 111.958ZM34.1774 127.312C34.6628 127.312 35.1574 127.312 35.6614 127.312C36.1748 127.312 36.6788 127.321 37.1734 127.34C37.6681 127.359 38.1348 127.387 38.5734 127.424L38.4894 128.726H34.7094C34.4481 128.726 34.2521 128.791 34.1214 128.922C34.0001 129.053 33.9394 129.258 33.9394 129.538V134.802C33.9394 135.082 34.0001 135.287 34.1214 135.418C34.2521 135.549 34.4481 135.614 34.7094 135.614H38.4894L38.5734 136.916C38.1348 136.953 37.6681 136.981 37.1734 137C36.6788 137.009 36.1748 137.014 35.6614 137.014C35.1574 137.023 34.6628 137.028 34.1774 137.028C33.5801 137.028 33.0994 136.865 32.7354 136.538C32.3808 136.202 32.1988 135.754 32.1894 135.194V129.146C32.1988 128.586 32.3808 128.143 32.7354 127.816C33.0994 127.48 33.5801 127.312 34.1774 127.312ZM32.4414 131.302H37.9574V132.59H32.4414V131.302ZM45.2138 129.958C46.4925 129.958 47.1318 130.588 47.1318 131.848V137H45.4378V132.366C45.4378 131.993 45.3725 131.736 45.2418 131.596C45.1111 131.456 44.8918 131.386 44.5838 131.386C44.2385 131.386 43.8838 131.465 43.5198 131.624C43.1558 131.773 42.7171 131.993 42.2038 132.282L42.1338 131.26C42.6378 130.84 43.1511 130.518 43.6738 130.294C44.1965 130.07 44.7098 129.958 45.2138 129.958ZM42.0778 130.126L42.2458 131.47L42.3858 131.666V137H40.6918V130.126H42.0778ZM51.8186 128.166V134.928C51.8186 135.217 51.8793 135.423 52.0006 135.544C52.1313 135.665 52.3506 135.726 52.6586 135.726H53.6106L53.7926 136.916C53.634 136.963 53.4426 137.005 53.2186 137.042C52.9946 137.079 52.7753 137.103 52.5606 137.112C52.346 137.131 52.164 137.14 52.0146 137.14C51.4173 137.14 50.9506 136.981 50.6146 136.664C50.288 136.337 50.1246 135.871 50.1246 135.264V128.166H51.8186ZM53.8626 130.126V131.302H48.9066V130.196L50.2506 130.126H53.8626ZM56.9911 130.126L57.2151 131.47L57.3691 131.666V137H55.6751V130.126H56.9911ZM60.3511 129.958L60.1831 131.526H59.6931C59.3291 131.526 58.9604 131.587 58.5871 131.708C58.2138 131.829 57.7471 132.011 57.1871 132.254L57.0751 131.26C57.5604 130.849 58.0551 130.532 58.5591 130.308C59.0631 130.075 59.5484 129.958 60.0151 129.958H60.3511ZM68.6253 130.126L66.0493 137.21C65.928 137.537 65.774 137.859 65.5873 138.176C65.41 138.503 65.1813 138.797 64.9013 139.058C64.6213 139.319 64.29 139.525 63.9073 139.674C63.5246 139.823 63.0813 139.879 62.5773 139.842L62.4373 138.834C62.9973 138.675 63.4313 138.461 63.7393 138.19C64.0566 137.919 64.304 137.574 64.4813 137.154L64.8593 136.258C64.9433 136.053 65.0226 135.819 65.0973 135.558C65.1813 135.287 65.2513 135.054 65.3073 134.858L66.8053 130.126H68.6253ZM63.0813 130.126L64.6073 134.858C64.654 135.017 64.696 135.18 64.7333 135.348C64.7706 135.507 64.8033 135.665 64.8313 135.824H65.1813L64.6493 137H64.2013C64.0706 137 63.954 136.963 63.8513 136.888C63.7486 136.813 63.6786 136.711 63.6413 136.58L61.2753 130.126H63.0813Z" fill="#333839"/>
<path d="M90.3994 53.6045L53.7439 90.2501" stroke="white" stroke-width="6.29" stroke-miterlimit="10"/>
<path d="M90.3994 53.6045L53.7439 90.2501" stroke="#4C6ECD" stroke-width="3.42" stroke-miterlimit="10"/>
<path d="M8.6601 52.6616L6 50.0016L45.9905 10.0012" stroke="white" stroke-width="6.29" stroke-miterlimit="10"/>
<path d="M8.6601 52.6616L6 50.0016L45.9905 10.0012" stroke="#4C6ECD" stroke-width="3.42" stroke-miterlimit="10"/>
<path d="M68.6358 87.9313H31.3153L12 68.6358V31.3153L31.3153 12H68.6358L87.9512 31.3153V68.6358L68.6358 87.9313Z" fill="#4C6ECD"/>
<path d="M53.742 90.2506L50.0001 94.0025L8.65967 52.6621" stroke="white" stroke-width="6.29" stroke-miterlimit="10"/>
<path d="M53.742 90.2506L50.0001 94.0025L8.65967 52.6621" stroke="#4C6ECD" stroke-width="3.42" stroke-miterlimit="10"/>
<path d="M45.9895 10L49.9995 6L93.9999 50.0004L90.3969 53.6034" stroke="white" stroke-width="6.29" stroke-miterlimit="10"/>
<path d="M45.9895 10L49.9995 6L93.9999 50.0004L90.3969 53.6034" stroke="#4C6ECD" stroke-width="3.42" stroke-miterlimit="10"/>
<path d="M59.3964 46.7982C59.5515 47.2292 59.6749 47.671 59.7659 48.1199C59.8401 48.4624 60.0037 48.6007 60.3563 48.6049C60.8193 48.6108 61.2841 48.6125 61.7446 48.6049C61.9133 48.6049 61.9842 48.6243 61.9816 48.8192C61.971 49.6919 61.971 50.5635 61.9816 51.4339C61.9816 51.611 61.9184 51.6389 61.7649 51.6363C61.3018 51.6279 60.8371 51.6304 60.3765 51.6363C60.0012 51.6363 59.8409 51.7679 59.7642 52.134C59.4888 53.4716 58.9475 54.7402 58.1725 55.8646C57.9305 56.2164 57.9532 56.3893 58.2569 56.6938C58.5302 56.9704 58.8009 57.2513 59.0843 57.517C59.2201 57.6427 59.2454 57.7186 59.0953 57.862C58.5892 58.3503 58.0916 58.8513 57.5998 59.3557C57.4767 59.4814 57.4025 59.4924 57.2768 59.3557C57.0052 59.063 56.7167 58.7855 56.4333 58.5055C56.1499 58.2255 55.9601 58.1909 55.6287 58.4212C54.4899 59.212 53.2004 59.7598 51.8407 60.0305C51.5252 60.0929 51.3793 60.2962 51.3793 60.6125C51.3793 61.0857 51.3725 61.5589 51.3835 62.032C51.3835 62.1965 51.3405 62.2438 51.1743 62.2421C50.301 62.2336 49.4295 62.2336 48.5596 62.2421C48.3909 62.2421 48.3462 62.1965 48.3504 62.032C48.3614 61.5698 48.3571 61.1042 48.3504 60.6437C48.3504 60.2667 48.223 60.1022 47.8587 60.0263C46.5112 59.749 45.2331 59.204 44.1002 58.4237C43.7695 58.196 43.5941 58.2246 43.2972 58.514C43.0197 58.7872 42.7405 59.0588 42.474 59.3414C42.3525 59.4696 42.2766 59.5101 42.1282 59.3583C41.6418 58.8488 41.1436 58.3506 40.6335 57.8636C40.4792 57.716 40.5188 57.641 40.6487 57.5178C40.9321 57.2513 41.2037 56.9721 41.4762 56.6946C41.7638 56.4011 41.7916 56.218 41.5664 55.8899C40.7759 54.7509 40.2282 53.4616 39.9571 52.1019C39.8947 51.7882 39.6931 51.6389 39.3759 51.6389C38.9027 51.6389 38.4296 51.633 37.9564 51.6431C37.7944 51.6431 37.743 51.6043 37.7447 51.4356C37.7531 50.5623 37.7531 49.6893 37.7447 48.8166C37.7447 48.6538 37.7852 48.6016 37.953 48.6058C38.4051 48.6176 38.8572 48.6117 39.3101 48.6058C39.7319 48.6058 39.8778 48.486 39.9638 48.0837C40.2381 46.7679 40.7708 45.5196 41.531 44.4112C41.8017 44.0182 41.779 43.8545 41.434 43.5079C41.1674 43.2388 40.906 42.9647 40.6285 42.7074C40.4935 42.5826 40.5062 42.5084 40.6285 42.3852C41.1346 41.8943 41.6347 41.3984 42.1222 40.8897C42.2673 40.7379 42.3432 40.7691 42.4681 40.9016C42.7422 41.1926 43.0281 41.4726 43.3115 41.7518C43.5949 42.031 43.7738 42.0436 44.0926 41.8235C45.2323 41.0336 46.5218 40.4856 47.8814 40.2133C48.1952 40.15 48.3462 39.9501 48.3462 39.633C48.3462 39.1598 48.3521 38.6866 48.3462 38.2134C48.3462 38.054 48.3808 37.9984 48.552 38C49.425 38.0093 50.298 38.0076 51.1709 38C51.3312 38 51.3877 38.0355 51.3835 38.2067C51.3717 38.6689 51.3767 39.1345 51.3835 39.5942C51.3835 39.9847 51.5134 40.134 51.9039 40.2184C53.2197 40.4917 54.468 41.0238 55.5764 41.7838C55.9736 42.0579 56.1314 42.0369 56.4797 41.691C56.7564 41.4169 57.0347 41.1445 57.3029 40.8628C57.4075 40.7531 57.4716 40.7531 57.5804 40.8628C58.0966 41.388 58.6171 41.9087 59.1417 42.4249C59.2446 42.5261 59.226 42.5876 59.1349 42.6779C58.5074 43.2998 57.8827 43.9245 57.2608 44.5521C57.076 44.7402 57.0339 44.5403 56.9647 44.4542C55.9535 43.1799 54.6159 42.2034 53.094 41.6286C47.835 39.617 42.0109 42.8795 40.9549 48.4236C40.0524 53.1613 43.0425 57.8257 47.7026 58.9407C48.8999 59.2323 50.1439 59.2773 51.3591 59.0728C52.5742 58.8683 53.7351 58.4187 54.7709 57.7513C55.8068 57.0839 56.696 56.2127 57.3845 55.1908C58.073 54.1688 58.5463 53.0174 58.7756 51.8067C59.0278 50.5138 58.9892 49.181 58.6626 47.9048C58.6171 47.7227 58.6289 47.5953 58.7723 47.4612C58.9781 47.2689 59.1602 47.0513 59.3964 46.7982Z" fill="#F9FBFF"/>
<path d="M57.7689 48.4476C58.5347 52.352 56.5307 55.8414 53.4402 57.3698C48.6873 59.7197 42.9897 56.9143 41.9244 51.7059C41.0202 47.2845 43.9791 42.9339 48.4781 42.1748C51.62 41.6476 54.2137 42.7036 56.2447 45.1581C56.3932 45.3369 56.3991 45.4423 56.2203 45.5883C56.0415 45.7342 55.8829 46.0328 55.6923 46.0539C55.5177 46.0724 55.4055 45.7333 55.252 45.563C53.3331 43.4391 50.9545 42.5956 48.1795 43.2856C45.3429 43.9882 43.5759 45.8826 42.9424 48.7344C42.0905 52.5713 44.7694 56.4268 48.6729 57.0754C52.4601 57.7046 55.9967 55.2856 56.7837 51.5085C56.9305 50.8729 56.9679 50.2168 56.8942 49.5686C56.8815 49.4758 56.8596 49.383 56.9389 49.302C57.1995 49.0347 57.4593 48.7622 57.7689 48.4476Z" fill="#F9FBFF"/>
<path d="M60.6489 40.0236C61.7649 40.0236 62.7838 40.0236 63.8027 40.0236C63.9132 40.0236 64.0009 40.0134 64 40.1779C63.9933 41.2145 64 42.2503 64 43.3637C63.7082 43.0685 63.4695 42.8247 63.2274 42.5835C62.8428 42.2014 62.637 42.2014 62.2498 42.5835C58.8816 45.9512 55.5153 49.3208 52.151 52.6924C51.9419 52.9024 51.839 52.9218 51.6213 52.6983C50.5493 51.6018 49.457 50.5213 48.3706 49.4366C47.9396 49.0048 47.7507 49.0039 47.3264 49.4282L44.516 52.2378C44.4426 52.3103 44.365 52.3786 44.2807 52.4588C44.112 52.1214 44.0276 51.7772 43.9382 51.4365C43.9194 51.3717 43.9204 51.3027 43.9412 51.2385C43.9619 51.1743 44.0014 51.1178 44.0546 51.0763C45.2636 49.8764 46.4675 48.6713 47.6663 47.4612C47.8274 47.2976 47.9025 47.3448 48.0349 47.4773C49.1382 48.5889 50.2451 49.6973 51.3557 50.8022C51.7883 51.2349 51.9764 51.2374 52.3999 50.814L61.4114 41.8033C61.8332 41.3815 61.8332 41.1884 61.403 40.7582C61.1711 40.5313 60.9391 40.3078 60.6489 40.0236Z" fill="#F9FBFF"/>
<path d="M43.7939 49.9346C43.864 48.6154 44.2503 47.5071 44.9807 46.5245C45.544 45.7622 46.2778 45.1423 47.1236 44.7145C47.9693 44.2866 48.9035 44.0627 49.8513 44.0606C50.7991 44.0584 51.7342 44.2782 52.5819 44.7022C53.4295 45.1262 54.1662 45.7428 54.7328 46.5025C54.91 46.737 54.9454 46.8796 54.7033 47.1124C53.816 47.9634 52.9531 48.8398 52.0886 49.7178C51.9292 49.8806 51.8457 49.8992 51.6736 49.7246C50.5906 48.623 49.4932 47.5316 48.4001 46.4418C47.9176 45.9593 47.7591 45.9602 47.2665 46.4536L43.7939 49.9346Z" fill="#F9FBFF"/>
<path d="M55.922 50.4105C55.8157 52.0342 55.1907 53.4217 54.0006 54.5435C51.3512 57.0393 47.0841 56.6285 44.9476 53.6848C44.8 53.4816 44.779 53.366 44.9797 53.1703C45.8856 52.2931 46.7729 51.399 47.6569 50.4974C47.8053 50.3464 47.8821 50.3548 48.0254 50.4974C49.1422 51.6254 50.2634 52.7483 51.3892 53.8662C51.7747 54.2516 51.9796 54.2533 52.3659 53.8721C53.4512 52.7874 54.5356 51.7021 55.6192 50.6163C55.6946 50.53 55.7642 50.4387 55.8275 50.343L55.922 50.4105Z" fill="#F9FBFF"/>
<path d="M40.5303 56.1479C40.5303 56.2525 40.4586 56.2896 40.4089 56.3394C39.2356 57.5152 38.0581 58.6868 36.8891 59.8668C36.755 60.0026 36.6808 59.9823 36.5677 59.855C36.3729 59.6365 36.0229 59.4442 36.0009 59.2156C35.979 58.987 36.351 58.7863 36.5559 58.5797C37.6077 57.5211 38.673 56.471 39.7164 55.4065C39.945 55.1721 40.0318 55.2151 40.1457 55.4824C40.2344 55.6607 40.3344 55.8332 40.4451 55.9986L40.5303 56.1479Z" fill="#F9FBFF"/>
</svg>
