<svg width="100" height="156" viewBox="0 0 100 156" fill="none" xmlns="http://www.w3.org/2000/svg">
<rect width="100" height="156" rx="19" fill="#F9FBFF"/>
<path d="M25.4533 109.231C26.2746 109.231 26.9279 109.305 27.4133 109.455C27.8986 109.595 28.2486 109.847 28.4633 110.211C28.6873 110.575 28.7993 111.088 28.7993 111.751C28.7993 112.441 28.6686 112.969 28.4073 113.333C28.1459 113.697 27.7166 113.907 27.1193 113.963V114.019C27.8566 114.084 28.3699 114.336 28.6593 114.775C28.9579 115.213 29.1073 115.82 29.1073 116.595C29.1073 117.257 28.9953 117.771 28.7713 118.135C28.5566 118.499 28.2113 118.755 27.7353 118.905C27.2686 119.045 26.6573 119.115 25.9013 119.115C25.3133 119.115 24.7999 119.11 24.3613 119.101C23.9226 119.101 23.5213 119.091 23.1573 119.073C22.7933 119.054 22.4153 119.031 22.0233 119.003L22.2193 117.729C22.4433 117.738 22.8586 117.747 23.4653 117.757C24.0719 117.766 24.7859 117.771 25.6073 117.771C26.0459 117.771 26.3913 117.733 26.6433 117.659C26.8953 117.575 27.0726 117.425 27.1753 117.211C27.2873 116.987 27.3433 116.674 27.3433 116.273C27.3433 115.825 27.2873 115.484 27.1753 115.251C27.0633 115.008 26.8766 114.84 26.6153 114.747C26.3633 114.644 26.0039 114.593 25.5373 114.593H22.2053V113.403H25.5233C25.9246 113.403 26.2373 113.365 26.4613 113.291C26.6946 113.207 26.8626 113.062 26.9653 112.857C27.0679 112.651 27.1193 112.357 27.1193 111.975C27.1193 111.592 27.0633 111.298 26.9513 111.093C26.8486 110.887 26.6713 110.752 26.4193 110.687C26.1673 110.612 25.8173 110.575 25.3693 110.575C24.8746 110.575 24.4359 110.575 24.0533 110.575C23.6706 110.575 23.3299 110.579 23.0313 110.589C22.7326 110.589 22.4619 110.598 22.2193 110.617L22.0233 109.343C22.3779 109.305 22.7139 109.282 23.0313 109.273C23.3579 109.254 23.7126 109.245 24.0953 109.245C24.4873 109.235 24.9399 109.231 25.4533 109.231ZM23.7313 109.343V119.003H22.0233V109.343H23.7313ZM34.621 111.961C35.1717 111.961 35.6337 112.035 36.007 112.185C36.3897 112.325 36.679 112.567 36.875 112.913C37.071 113.258 37.169 113.734 37.169 114.341V119.003H35.825L35.587 117.519L35.461 117.323V114.327C35.461 113.963 35.377 113.701 35.209 113.543C35.041 113.375 34.719 113.291 34.243 113.291C33.8883 113.291 33.4403 113.305 32.899 113.333C32.367 113.361 31.8303 113.398 31.289 113.445L31.135 112.283C31.4616 112.217 31.8303 112.161 32.241 112.115C32.6517 112.068 33.067 112.031 33.487 112.003C33.907 111.975 34.285 111.961 34.621 111.961ZM36.441 114.775L36.427 115.825H33.277C32.997 115.834 32.7963 115.909 32.675 116.049C32.5537 116.189 32.493 116.38 32.493 116.623V117.001C32.493 117.281 32.5676 117.495 32.717 117.645C32.8663 117.785 33.0997 117.855 33.417 117.855C33.669 117.855 33.949 117.803 34.257 117.701C34.565 117.598 34.8683 117.449 35.167 117.253C35.475 117.057 35.7503 116.823 35.993 116.553V117.435C35.8997 117.575 35.7643 117.743 35.587 117.939C35.4097 118.125 35.1903 118.312 34.929 118.499C34.677 118.685 34.383 118.839 34.047 118.961C33.7203 119.082 33.3563 119.143 32.955 119.143C32.5443 119.143 32.1757 119.073 31.849 118.933C31.5223 118.783 31.2656 118.569 31.079 118.289C30.8923 117.999 30.799 117.645 30.799 117.225V116.497C30.799 115.955 30.9763 115.535 31.331 115.237C31.695 114.929 32.1896 114.775 32.815 114.775H36.441ZM41.1386 109.203L41.1246 116.931C41.1246 117.192 41.1993 117.393 41.3486 117.533C41.498 117.663 41.7126 117.729 41.9926 117.729H42.5946L42.7906 118.919C42.688 118.965 42.5433 119.007 42.3566 119.045C42.1793 119.082 41.9926 119.105 41.7966 119.115C41.61 119.133 41.4466 119.143 41.3066 119.143C40.7373 119.143 40.2846 118.989 39.9486 118.681C39.6126 118.373 39.4446 117.929 39.4446 117.351V109.203H41.1386ZM47.7247 111.961C48.2753 111.961 48.7373 112.035 49.1107 112.185C49.4933 112.325 49.7827 112.567 49.9787 112.913C50.1747 113.258 50.2727 113.734 50.2727 114.341V119.003H48.9287L48.6907 117.519L48.5647 117.323V114.327C48.5647 113.963 48.4807 113.701 48.3127 113.543C48.1447 113.375 47.8227 113.291 47.3467 113.291C46.992 113.291 46.544 113.305 46.0027 113.333C45.4707 113.361 44.934 113.398 44.3927 113.445L44.2387 112.283C44.5653 112.217 44.934 112.161 45.3447 112.115C45.7553 112.068 46.1707 112.031 46.5907 112.003C47.0107 111.975 47.3887 111.961 47.7247 111.961ZM49.5447 114.775L49.5307 115.825H46.3807C46.1007 115.834 45.9 115.909 45.7787 116.049C45.6573 116.189 45.5967 116.38 45.5967 116.623V117.001C45.5967 117.281 45.6713 117.495 45.8207 117.645C45.97 117.785 46.2033 117.855 46.5207 117.855C46.7727 117.855 47.0527 117.803 47.3607 117.701C47.6687 117.598 47.972 117.449 48.2707 117.253C48.5787 117.057 48.854 116.823 49.0967 116.553V117.435C49.0033 117.575 48.868 117.743 48.6907 117.939C48.5133 118.125 48.294 118.312 48.0327 118.499C47.7807 118.685 47.4867 118.839 47.1507 118.961C46.824 119.082 46.46 119.143 46.0587 119.143C45.648 119.143 45.2793 119.073 44.9527 118.933C44.626 118.783 44.3693 118.569 44.1827 118.289C43.996 117.999 43.9027 117.645 43.9027 117.225V116.497C43.9027 115.955 44.08 115.535 44.4347 115.237C44.7987 114.929 45.2933 114.775 45.9187 114.775H49.5447ZM57.0563 111.961C58.335 111.961 58.9743 112.591 58.9743 113.851V119.003H57.2803V114.369C57.2803 113.995 57.215 113.739 57.0843 113.599C56.9536 113.459 56.7343 113.389 56.4263 113.389C56.081 113.389 55.7263 113.468 55.3623 113.627C54.9983 113.776 54.5596 113.995 54.0463 114.285L53.9763 113.263C54.4803 112.843 54.9936 112.521 55.5163 112.297C56.039 112.073 56.5523 111.961 57.0563 111.961ZM53.9203 112.129L54.0883 113.473L54.2283 113.669V119.003H52.5343V112.129H53.9203ZM64.3331 111.961C64.5665 111.961 64.8231 111.97 65.1031 111.989C65.3831 112.007 65.6678 112.045 65.9571 112.101C66.2465 112.157 66.5078 112.236 66.7411 112.339L66.5451 113.403C66.1998 113.384 65.8545 113.37 65.5091 113.361C65.1731 113.351 64.8791 113.347 64.6271 113.347C64.1511 113.347 63.7731 113.412 63.4931 113.543C63.2225 113.664 63.0265 113.888 62.9051 114.215C62.7838 114.532 62.7231 114.98 62.7231 115.559C62.7231 116.137 62.7838 116.59 62.9051 116.917C63.0265 117.234 63.2225 117.458 63.4931 117.589C63.7731 117.719 64.1511 117.785 64.6271 117.785C64.7671 117.785 64.9491 117.78 65.1731 117.771C65.4065 117.761 65.6538 117.747 65.9151 117.729C66.1858 117.71 66.4471 117.687 66.6991 117.659L66.8671 118.751C66.5031 118.9 66.0971 119.007 65.6491 119.073C65.2011 119.138 64.7578 119.171 64.3191 119.171C63.4978 119.171 62.8398 119.054 62.3451 118.821C61.8505 118.587 61.4911 118.209 61.2671 117.687C61.0525 117.155 60.9451 116.445 60.9451 115.559C60.9451 114.672 61.0571 113.967 61.2811 113.445C61.5051 112.913 61.8645 112.535 62.3591 112.311C62.8538 112.077 63.5118 111.961 64.3331 111.961ZM71.6434 111.961C72.7541 111.961 73.5521 112.157 74.0374 112.549C74.5228 112.931 74.7701 113.501 74.7794 114.257C74.7888 114.882 74.6394 115.358 74.3314 115.685C74.0328 116.002 73.5334 116.161 72.8334 116.161H68.9134V115.111H72.3714C72.6888 115.111 72.8894 115.027 72.9734 114.859C73.0668 114.691 73.1134 114.485 73.1134 114.243C73.1041 113.86 72.9921 113.594 72.7774 113.445C72.5721 113.295 72.2174 113.221 71.7134 113.221C71.2748 113.221 70.9341 113.281 70.6914 113.403C70.4488 113.524 70.2761 113.743 70.1734 114.061C70.0801 114.378 70.0334 114.835 70.0334 115.433C70.0334 116.067 70.0941 116.557 70.2154 116.903C70.3368 117.248 70.5374 117.486 70.8174 117.617C71.0974 117.738 71.4708 117.799 71.9374 117.799C72.2828 117.799 72.6794 117.785 73.1274 117.757C73.5848 117.729 74.0234 117.691 74.4434 117.645L74.6114 118.723C74.3594 118.825 74.0701 118.909 73.7434 118.975C73.4168 119.04 73.0761 119.087 72.7214 119.115C72.3761 119.152 72.0494 119.171 71.7414 119.171C70.9014 119.171 70.2248 119.049 69.7114 118.807C69.2074 118.555 68.8388 118.163 68.6054 117.631C68.3814 117.099 68.2694 116.413 68.2694 115.573C68.2694 114.667 68.3814 113.953 68.6054 113.431C68.8388 112.899 69.2028 112.521 69.6974 112.297C70.2014 112.073 70.8501 111.961 71.6434 111.961ZM21.1426 127.161C21.6186 127.17 22.118 127.198 22.6406 127.245C23.1726 127.291 23.6906 127.38 24.1946 127.511L24.0826 128.701C23.6813 128.691 23.2146 128.682 22.6826 128.673C22.16 128.654 21.656 128.645 21.1706 128.645C20.872 128.645 20.6153 128.654 20.4006 128.673C20.1953 128.691 20.0273 128.738 19.8966 128.813C19.766 128.887 19.668 129.004 19.6026 129.163C19.5466 129.312 19.5186 129.522 19.5186 129.793C19.5186 130.213 19.6026 130.511 19.7706 130.689C19.948 130.866 20.2326 131.006 20.6246 131.109L22.5286 131.669C23.294 131.902 23.8213 132.243 24.1106 132.691C24.4 133.129 24.5446 133.717 24.5446 134.455C24.5446 135.005 24.4793 135.458 24.3486 135.813C24.218 136.167 24.0173 136.443 23.7466 136.639C23.476 136.835 23.1213 136.975 22.6826 137.059C22.244 137.143 21.7166 137.185 21.1006 137.185C20.7833 137.185 20.3446 137.166 19.7846 137.129C19.234 137.091 18.604 136.998 17.8946 136.849L18.0066 135.589C18.5573 135.607 19.0193 135.626 19.3926 135.645C19.766 135.654 20.088 135.659 20.3586 135.659C20.6293 135.659 20.8813 135.659 21.1146 135.659C21.544 135.659 21.88 135.631 22.1226 135.575C22.3653 135.519 22.5333 135.402 22.6266 135.225C22.7293 135.047 22.7806 134.791 22.7806 134.455C22.7806 134.165 22.7433 133.941 22.6686 133.783C22.6033 133.615 22.4913 133.484 22.3326 133.391C22.174 133.297 21.9686 133.218 21.7166 133.153L19.7426 132.551C19.0146 132.327 18.5013 131.995 18.2026 131.557C17.9133 131.118 17.7686 130.53 17.7686 129.793C17.7686 129.242 17.834 128.794 17.9646 128.449C18.0953 128.094 18.296 127.828 18.5666 127.651C18.8373 127.464 19.1826 127.338 19.6026 127.273C20.032 127.198 20.5453 127.161 21.1426 127.161ZM28.1734 130.129V134.777C28.164 135.122 28.2294 135.369 28.3694 135.519C28.5187 135.668 28.7567 135.743 29.0834 135.743C29.41 135.743 29.7367 135.673 30.0634 135.533C30.39 135.393 30.7867 135.183 31.2534 134.903L31.4214 135.911C30.8987 136.331 30.3947 136.648 29.9094 136.863C29.424 137.077 28.92 137.185 28.3974 137.185C27.1187 137.185 26.4794 136.555 26.4794 135.295V130.129H28.1734ZM32.7794 130.129V137.003H31.4354L31.2534 135.673L31.0854 135.477V130.129H32.7794ZM39.1635 129.961C40.0408 129.961 40.6802 130.236 41.0815 130.787C41.4828 131.337 41.6835 132.252 41.6835 133.531C41.6835 134.081 41.6322 134.581 41.5295 135.029C41.4362 135.477 41.2682 135.864 41.0255 136.191C40.7922 136.508 40.4655 136.751 40.0455 136.919C39.6255 137.087 39.0888 137.171 38.4355 137.171C38.2022 137.171 37.9362 137.161 37.6375 137.143C37.3388 137.124 37.0355 137.091 36.7275 137.045C36.4195 136.998 36.1208 136.947 35.8315 136.891C35.5515 136.825 35.2995 136.746 35.0755 136.653L36.4335 135.617C36.6388 135.682 36.8535 135.738 37.0775 135.785C37.3108 135.822 37.5395 135.85 37.7635 135.869C37.9968 135.878 38.2115 135.883 38.4075 135.883C38.7808 135.873 39.0748 135.799 39.2895 135.659C39.5135 135.519 39.6768 135.281 39.7795 134.945C39.8822 134.599 39.9335 134.128 39.9335 133.531C39.9335 132.971 39.8915 132.532 39.8075 132.215C39.7328 131.888 39.5928 131.659 39.3875 131.529C39.1822 131.398 38.8882 131.333 38.5055 131.333C38.1695 131.333 37.8568 131.412 37.5675 131.571C37.2875 131.729 36.9608 131.944 36.5875 132.215L36.4755 131.305C36.7275 131.034 36.9935 130.796 37.2735 130.591C37.5628 130.385 37.8662 130.231 38.1835 130.129C38.5102 130.017 38.8368 129.961 39.1635 129.961ZM36.7695 127.203L36.7835 129.583C36.7835 129.881 36.7695 130.171 36.7415 130.451C36.7228 130.721 36.6762 130.987 36.6015 131.249L36.7695 131.445V136.737L35.0755 136.653V127.203H36.7695ZM46.6113 129.961C47.3859 129.961 47.9973 130.035 48.4453 130.185C48.9026 130.325 49.2293 130.558 49.4253 130.885C49.6213 131.202 49.7193 131.622 49.7193 132.145C49.7193 132.649 49.6213 133.064 49.4253 133.391C49.2293 133.708 48.9026 133.941 48.4453 134.091C47.9879 134.24 47.3719 134.315 46.5973 134.315C45.8226 134.315 45.2066 134.24 44.7493 134.091C44.3013 133.941 43.9746 133.708 43.7693 133.391C43.5733 133.073 43.4753 132.658 43.4753 132.145C43.4753 131.622 43.5733 131.202 43.7693 130.885C43.9746 130.558 44.3059 130.325 44.7633 130.185C45.2206 130.035 45.8366 129.961 46.6113 129.961ZM46.5973 131.067C46.0093 131.067 45.6033 131.146 45.3793 131.305C45.1553 131.463 45.0433 131.743 45.0433 132.145C45.0433 132.527 45.1553 132.803 45.3793 132.971C45.6033 133.129 46.0093 133.209 46.5973 133.209C47.1853 133.209 47.5866 133.129 47.8013 132.971C48.0253 132.803 48.1373 132.527 48.1373 132.145C48.1373 131.743 48.0253 131.463 47.8013 131.305C47.5866 131.146 47.1853 131.067 46.5973 131.067ZM50.5173 130.129L50.4193 130.913L48.6273 131.109L48.1233 130.129H50.5173ZM44.5953 133.895L45.4633 134.021C45.3233 134.133 45.2253 134.277 45.1693 134.455C45.1226 134.623 45.1366 134.786 45.2113 134.945C45.2953 135.094 45.4726 135.187 45.7433 135.225L48.2913 135.561C48.9819 135.645 49.4673 135.85 49.7473 136.177C50.0273 136.494 50.1673 136.956 50.1673 137.563C50.1673 138.132 50.0553 138.575 49.8313 138.893C49.6073 139.21 49.2386 139.429 48.7253 139.551C48.2213 139.681 47.5399 139.747 46.6813 139.747C45.9999 139.747 45.4353 139.709 44.9873 139.635C44.5393 139.569 44.1799 139.453 43.9093 139.285C43.6479 139.126 43.4613 138.916 43.3493 138.655C43.2373 138.403 43.1813 138.085 43.1813 137.703C43.1813 137.404 43.2279 137.152 43.3213 136.947C43.4239 136.741 43.5873 136.559 43.8113 136.401C44.0353 136.233 44.3386 136.079 44.7213 135.939L45.6733 135.533L46.3313 135.771L45.7153 136.205C45.5006 136.363 45.3233 136.508 45.1833 136.639C45.0526 136.76 44.9546 136.881 44.8893 137.003C44.8333 137.133 44.8053 137.297 44.8053 137.493C44.8053 137.754 44.8566 137.955 44.9593 138.095C45.0713 138.235 45.2626 138.328 45.5333 138.375C45.8039 138.431 46.1819 138.459 46.6673 138.459C47.1619 138.459 47.5446 138.431 47.8153 138.375C48.0859 138.328 48.2726 138.235 48.3753 138.095C48.4873 137.964 48.5433 137.773 48.5433 137.521C48.5433 137.315 48.5106 137.161 48.4453 137.059C48.3799 136.965 48.2633 136.891 48.0953 136.835C47.9273 136.779 47.6939 136.732 47.3953 136.695L45.0993 136.415C44.7726 136.377 44.5113 136.284 44.3153 136.135C44.1286 135.976 43.9979 135.789 43.9233 135.575C43.8486 135.351 43.8253 135.131 43.8533 134.917C43.8906 134.693 43.9699 134.487 44.0913 134.301C44.2219 134.114 44.3899 133.979 44.5953 133.895ZM53.4333 130.129L53.6573 131.473L53.8113 131.669V137.003H52.1173V130.129H53.4333ZM56.7933 129.961L56.6253 131.529H56.1353C55.7713 131.529 55.4027 131.589 55.0293 131.711C54.656 131.832 54.1893 132.014 53.6293 132.257L53.5173 131.263C54.0027 130.852 54.4973 130.535 55.0013 130.311C55.5053 130.077 55.9907 129.961 56.4573 129.961H56.7933ZM61.3328 129.961C62.1728 129.961 62.8401 130.077 63.3348 130.311C63.8388 130.544 64.1981 130.927 64.4128 131.459C64.6368 131.991 64.7488 132.695 64.7488 133.573C64.7488 134.45 64.6368 135.155 64.4128 135.687C64.1981 136.209 63.8388 136.592 63.3348 136.835C62.8401 137.068 62.1728 137.185 61.3328 137.185C60.5115 137.185 59.8488 137.068 59.3448 136.835C58.8501 136.592 58.4908 136.209 58.2668 135.687C58.0428 135.155 57.9308 134.45 57.9308 133.573C57.9308 132.695 58.0428 131.991 58.2668 131.459C58.4908 130.927 58.8501 130.544 59.3448 130.311C59.8488 130.077 60.5115 129.961 61.3328 129.961ZM61.3328 131.249C60.9221 131.249 60.5955 131.319 60.3528 131.459C60.1195 131.589 59.9515 131.823 59.8488 132.159C59.7461 132.495 59.6948 132.966 59.6948 133.573C59.6948 134.179 59.7461 134.651 59.8488 134.987C59.9515 135.323 60.1195 135.556 60.3528 135.687C60.5955 135.817 60.9221 135.883 61.3328 135.883C61.7528 135.883 62.0841 135.817 62.3268 135.687C62.5695 135.556 62.7375 135.323 62.8308 134.987C62.9335 134.651 62.9848 134.179 62.9848 133.573C62.9848 132.966 62.9335 132.495 62.8308 132.159C62.7375 131.823 62.5695 131.589 62.3268 131.459C62.0841 131.319 61.7528 131.249 61.3328 131.249ZM68.4179 130.129V134.777C68.4086 135.122 68.4739 135.369 68.6139 135.519C68.7632 135.668 69.0012 135.743 69.3279 135.743C69.6546 135.743 69.9812 135.673 70.3079 135.533C70.6346 135.393 71.0312 135.183 71.4979 134.903L71.6659 135.911C71.1432 136.331 70.6392 136.648 70.1539 136.863C69.6686 137.077 69.1646 137.185 68.6419 137.185C67.3632 137.185 66.7239 136.555 66.7239 135.295V130.129H68.4179ZM73.0239 130.129V137.003H71.6799L71.4979 135.673L71.3299 135.477V130.129H73.0239ZM79.618 129.961C80.4674 129.961 81.0787 130.273 81.452 130.899C81.8254 131.524 82.012 132.429 82.012 133.615C82.012 134.52 81.914 135.234 81.718 135.757C81.5314 136.27 81.2467 136.639 80.864 136.863C80.4814 137.077 79.996 137.185 79.408 137.185C78.9414 137.185 78.484 137.119 78.036 136.989C77.5974 136.849 77.1914 136.634 76.818 136.345L76.93 135.505C77.294 135.607 77.6207 135.696 77.91 135.771C78.1994 135.845 78.5167 135.883 78.862 135.883C79.2074 135.883 79.478 135.827 79.674 135.715C79.8794 135.593 80.0287 135.369 80.122 135.043C80.2154 134.716 80.262 134.245 80.262 133.629C80.262 133.022 80.22 132.551 80.136 132.215C80.052 131.879 79.912 131.645 79.716 131.515C79.5294 131.375 79.282 131.305 78.974 131.305C78.638 131.305 78.3207 131.379 78.022 131.529C77.7234 131.669 77.378 131.879 76.986 132.159L76.79 131.263C77.0047 131.011 77.2614 130.787 77.56 130.591C77.868 130.395 78.1994 130.241 78.554 130.129C78.9087 130.017 79.2634 129.961 79.618 129.961ZM76.72 130.129L76.888 131.459L77.042 131.655V136.093L76.972 136.261C77 136.531 77.0187 136.802 77.028 137.073C77.0374 137.353 77.042 137.637 77.042 137.927V139.733H75.348V130.129H76.72Z" fill="#333839"/>
<path d="M90.3994 53.6044L53.7439 90.2499" stroke="white" stroke-width="6.29" stroke-miterlimit="10"/>
<path d="M90.3994 53.6044L53.7439 90.2499" stroke="#CA6557" stroke-width="3.42" stroke-miterlimit="10"/>
<path d="M8.6601 52.6618L6 50.0017L45.9905 10.0013" stroke="white" stroke-width="6.29" stroke-miterlimit="10"/>
<path d="M8.6601 52.6618L6 50.0017L45.9905 10.0013" stroke="#CA6557" stroke-width="3.42" stroke-miterlimit="10"/>
<path d="M68.6358 87.9313H31.3153L12 68.6358V31.3153L31.3153 12H68.6358L87.9512 31.3153V68.6358L68.6358 87.9313Z" fill="#CA6557"/>
<path d="M53.742 90.2507L50.0001 94.0026L8.65967 52.6622" stroke="white" stroke-width="6.29" stroke-miterlimit="10"/>
<path d="M53.742 90.2507L50.0001 94.0026L8.65967 52.6622" stroke="#CA6557" stroke-width="3.42" stroke-miterlimit="10"/>
<path d="M45.9895 10L49.9995 6L93.9999 50.0004L90.3969 53.6034" stroke="white" stroke-width="6.29" stroke-miterlimit="10"/>
<path d="M45.9895 10L49.9995 6L93.9999 50.0004L90.3969 53.6034" stroke="#CA6557" stroke-width="3.42" stroke-miterlimit="10"/>
<g clip-path="url(#clip0_245_6262)">
<path d="M64 52.0572C63.789 52.5135 63.4276 52.645 62.9376 52.6436C59.379 52.6302 55.8198 52.6359 52.2606 52.6359H51.9062C51.9702 52.7469 52.0152 52.8278 52.0623 52.9066L55.8163 59.151C55.8479 59.2037 55.8803 59.2565 55.9098 59.3099C56.2375 59.9012 55.8831 60.5256 55.2067 60.5305C54.1787 60.5376 53.1508 60.5305 52.1221 60.5305C50.0486 60.5305 47.9736 60.5305 45.9008 60.5305C45.5493 60.5305 45.2568 60.4462 45.0726 60.1284C44.8883 59.8105 44.9643 59.5131 45.1429 59.2143C46.4085 57.1194 47.6692 55.023 48.925 52.9248C48.9735 52.8433 49.0206 52.7603 49.0958 52.6316H48.7654C45.197 52.6316 41.6293 52.6253 38.0617 52.6394C37.5695 52.6394 37.2102 52.5079 36.9993 52.053V51.6311C37.2102 51.1755 37.5709 51.044 38.061 51.0447C46.3536 51.0545 54.6458 51.0545 62.9376 51.0447C63.4297 51.0447 63.7897 51.1741 63.9993 51.6311L64 52.0572Z" fill="white"/>
<path d="M37 44.2139C37.0485 44.003 37.0935 43.7921 37.147 43.5811C37.4184 42.5067 38.0572 41.5612 38.9527 40.9084C39.8482 40.2556 40.9439 39.9368 42.0498 40.0071C43.1506 40.0769 44.1925 40.5287 44.9957 41.2845C45.799 42.0402 46.3134 43.0527 46.45 44.1471C46.7741 46.6896 44.9615 49.0908 42.4689 49.4206C39.797 49.7721 37.4219 48.0143 37.0485 45.4078C37.0368 45.3595 37.0206 45.3124 37 45.2672V44.2139Z" fill="white"/>
<path d="M64 45.2136C63.9473 45.4604 63.903 45.7093 63.8397 45.9533C63.2772 48.1288 61.2107 49.6096 58.9474 49.4689C56.6974 49.3283 54.8249 47.5761 54.5521 45.3528C54.1872 42.3786 56.5342 39.8579 59.5288 40.0056C61.7437 40.1153 63.6351 41.8428 63.948 44.0394C63.9592 44.1153 63.9824 44.1899 64 44.2644V45.2136Z" fill="white"/>
</g>
<defs>
<clipPath id="clip0_245_6262">
<rect width="27" height="20.5348" fill="white" transform="translate(37 40)"/>
</clipPath>
</defs>
</svg>
