<svg width="100" height="156" viewBox="0 0 100 156" fill="none" xmlns="http://www.w3.org/2000/svg">
<rect width="100" height="156" rx="19" fill="#F9FBFF"/>
<path d="M25.4533 109.231C26.2746 109.231 26.9279 109.305 27.4133 109.455C27.8986 109.595 28.2486 109.847 28.4633 110.211C28.6873 110.575 28.7993 111.088 28.7993 111.751C28.7993 112.441 28.6686 112.969 28.4073 113.333C28.1459 113.697 27.7166 113.907 27.1193 113.963V114.019C27.8566 114.084 28.3699 114.336 28.6593 114.775C28.9579 115.213 29.1073 115.82 29.1073 116.595C29.1073 117.257 28.9953 117.771 28.7713 118.135C28.5566 118.499 28.2113 118.755 27.7353 118.905C27.2686 119.045 26.6573 119.115 25.9013 119.115C25.3133 119.115 24.7999 119.11 24.3613 119.101C23.9226 119.101 23.5213 119.091 23.1573 119.073C22.7933 119.054 22.4153 119.031 22.0233 119.003L22.2193 117.729C22.4433 117.738 22.8586 117.747 23.4653 117.757C24.0719 117.766 24.7859 117.771 25.6073 117.771C26.0459 117.771 26.3913 117.733 26.6433 117.659C26.8953 117.575 27.0726 117.425 27.1753 117.211C27.2873 116.987 27.3433 116.674 27.3433 116.273C27.3433 115.825 27.2873 115.484 27.1753 115.251C27.0633 115.008 26.8766 114.84 26.6153 114.747C26.3633 114.644 26.0039 114.593 25.5373 114.593H22.2053V113.403H25.5233C25.9246 113.403 26.2373 113.365 26.4613 113.291C26.6946 113.207 26.8626 113.062 26.9653 112.857C27.0679 112.651 27.1193 112.357 27.1193 111.975C27.1193 111.592 27.0633 111.298 26.9513 111.093C26.8486 110.887 26.6713 110.752 26.4193 110.687C26.1673 110.612 25.8173 110.575 25.3693 110.575C24.8746 110.575 24.4359 110.575 24.0533 110.575C23.6706 110.575 23.3299 110.579 23.0313 110.589C22.7326 110.589 22.4619 110.598 22.2193 110.617L22.0233 109.343C22.3779 109.305 22.7139 109.282 23.0313 109.273C23.3579 109.254 23.7126 109.245 24.0953 109.245C24.4873 109.235 24.9399 109.231 25.4533 109.231ZM23.7313 109.343V119.003H22.0233V109.343H23.7313ZM34.621 111.961C35.1717 111.961 35.6337 112.035 36.007 112.185C36.3897 112.325 36.679 112.567 36.875 112.913C37.071 113.258 37.169 113.734 37.169 114.341V119.003H35.825L35.587 117.519L35.461 117.323V114.327C35.461 113.963 35.377 113.701 35.209 113.543C35.041 113.375 34.719 113.291 34.243 113.291C33.8883 113.291 33.4403 113.305 32.899 113.333C32.367 113.361 31.8303 113.398 31.289 113.445L31.135 112.283C31.4616 112.217 31.8303 112.161 32.241 112.115C32.6517 112.068 33.067 112.031 33.487 112.003C33.907 111.975 34.285 111.961 34.621 111.961ZM36.441 114.775L36.427 115.825H33.277C32.997 115.834 32.7963 115.909 32.675 116.049C32.5537 116.189 32.493 116.38 32.493 116.623V117.001C32.493 117.281 32.5676 117.495 32.717 117.645C32.8663 117.785 33.0997 117.855 33.417 117.855C33.669 117.855 33.949 117.803 34.257 117.701C34.565 117.598 34.8683 117.449 35.167 117.253C35.475 117.057 35.7503 116.823 35.993 116.553V117.435C35.8997 117.575 35.7643 117.743 35.587 117.939C35.4097 118.125 35.1903 118.312 34.929 118.499C34.677 118.685 34.383 118.839 34.047 118.961C33.7203 119.082 33.3563 119.143 32.955 119.143C32.5443 119.143 32.1757 119.073 31.849 118.933C31.5223 118.783 31.2656 118.569 31.079 118.289C30.8923 117.999 30.799 117.645 30.799 117.225V116.497C30.799 115.955 30.9763 115.535 31.331 115.237C31.695 114.929 32.1896 114.775 32.815 114.775H36.441ZM41.1386 109.203L41.1246 116.931C41.1246 117.192 41.1993 117.393 41.3486 117.533C41.498 117.663 41.7126 117.729 41.9926 117.729H42.5946L42.7906 118.919C42.688 118.965 42.5433 119.007 42.3566 119.045C42.1793 119.082 41.9926 119.105 41.7966 119.115C41.61 119.133 41.4466 119.143 41.3066 119.143C40.7373 119.143 40.2846 118.989 39.9486 118.681C39.6126 118.373 39.4446 117.929 39.4446 117.351V109.203H41.1386ZM47.7247 111.961C48.2753 111.961 48.7373 112.035 49.1107 112.185C49.4933 112.325 49.7827 112.567 49.9787 112.913C50.1747 113.258 50.2727 113.734 50.2727 114.341V119.003H48.9287L48.6907 117.519L48.5647 117.323V114.327C48.5647 113.963 48.4807 113.701 48.3127 113.543C48.1447 113.375 47.8227 113.291 47.3467 113.291C46.992 113.291 46.544 113.305 46.0027 113.333C45.4707 113.361 44.934 113.398 44.3927 113.445L44.2387 112.283C44.5653 112.217 44.934 112.161 45.3447 112.115C45.7553 112.068 46.1707 112.031 46.5907 112.003C47.0107 111.975 47.3887 111.961 47.7247 111.961ZM49.5447 114.775L49.5307 115.825H46.3807C46.1007 115.834 45.9 115.909 45.7787 116.049C45.6573 116.189 45.5967 116.38 45.5967 116.623V117.001C45.5967 117.281 45.6713 117.495 45.8207 117.645C45.97 117.785 46.2033 117.855 46.5207 117.855C46.7727 117.855 47.0527 117.803 47.3607 117.701C47.6687 117.598 47.972 117.449 48.2707 117.253C48.5787 117.057 48.854 116.823 49.0967 116.553V117.435C49.0033 117.575 48.868 117.743 48.6907 117.939C48.5133 118.125 48.294 118.312 48.0327 118.499C47.7807 118.685 47.4867 118.839 47.1507 118.961C46.824 119.082 46.46 119.143 46.0587 119.143C45.648 119.143 45.2793 119.073 44.9527 118.933C44.626 118.783 44.3693 118.569 44.1827 118.289C43.996 117.999 43.9027 117.645 43.9027 117.225V116.497C43.9027 115.955 44.08 115.535 44.4347 115.237C44.7987 114.929 45.2933 114.775 45.9187 114.775H49.5447ZM57.0563 111.961C58.335 111.961 58.9743 112.591 58.9743 113.851V119.003H57.2803V114.369C57.2803 113.995 57.215 113.739 57.0843 113.599C56.9536 113.459 56.7343 113.389 56.4263 113.389C56.081 113.389 55.7263 113.468 55.3623 113.627C54.9983 113.776 54.5596 113.995 54.0463 114.285L53.9763 113.263C54.4803 112.843 54.9936 112.521 55.5163 112.297C56.039 112.073 56.5523 111.961 57.0563 111.961ZM53.9203 112.129L54.0883 113.473L54.2283 113.669V119.003H52.5343V112.129H53.9203ZM64.3331 111.961C64.5665 111.961 64.8231 111.97 65.1031 111.989C65.3831 112.007 65.6678 112.045 65.9571 112.101C66.2465 112.157 66.5078 112.236 66.7411 112.339L66.5451 113.403C66.1998 113.384 65.8545 113.37 65.5091 113.361C65.1731 113.351 64.8791 113.347 64.6271 113.347C64.1511 113.347 63.7731 113.412 63.4931 113.543C63.2225 113.664 63.0265 113.888 62.9051 114.215C62.7838 114.532 62.7231 114.98 62.7231 115.559C62.7231 116.137 62.7838 116.59 62.9051 116.917C63.0265 117.234 63.2225 117.458 63.4931 117.589C63.7731 117.719 64.1511 117.785 64.6271 117.785C64.7671 117.785 64.9491 117.78 65.1731 117.771C65.4065 117.761 65.6538 117.747 65.9151 117.729C66.1858 117.71 66.4471 117.687 66.6991 117.659L66.8671 118.751C66.5031 118.9 66.0971 119.007 65.6491 119.073C65.2011 119.138 64.7578 119.171 64.3191 119.171C63.4978 119.171 62.8398 119.054 62.3451 118.821C61.8505 118.587 61.4911 118.209 61.2671 117.687C61.0525 117.155 60.9451 116.445 60.9451 115.559C60.9451 114.672 61.0571 113.967 61.2811 113.445C61.5051 112.913 61.8645 112.535 62.3591 112.311C62.8538 112.077 63.5118 111.961 64.3331 111.961ZM71.6434 111.961C72.7541 111.961 73.5521 112.157 74.0374 112.549C74.5228 112.931 74.7701 113.501 74.7794 114.257C74.7888 114.882 74.6394 115.358 74.3314 115.685C74.0328 116.002 73.5334 116.161 72.8334 116.161H68.9134V115.111H72.3714C72.6888 115.111 72.8894 115.027 72.9734 114.859C73.0668 114.691 73.1134 114.485 73.1134 114.243C73.1041 113.86 72.9921 113.594 72.7774 113.445C72.5721 113.295 72.2174 113.221 71.7134 113.221C71.2748 113.221 70.9341 113.281 70.6914 113.403C70.4488 113.524 70.2761 113.743 70.1734 114.061C70.0801 114.378 70.0334 114.835 70.0334 115.433C70.0334 116.067 70.0941 116.557 70.2154 116.903C70.3368 117.248 70.5374 117.486 70.8174 117.617C71.0974 117.738 71.4708 117.799 71.9374 117.799C72.2828 117.799 72.6794 117.785 73.1274 117.757C73.5848 117.729 74.0234 117.691 74.4434 117.645L74.6114 118.723C74.3594 118.825 74.0701 118.909 73.7434 118.975C73.4168 119.04 73.0761 119.087 72.7214 119.115C72.3761 119.152 72.0494 119.171 71.7414 119.171C70.9014 119.171 70.2248 119.049 69.7114 118.807C69.2074 118.555 68.8388 118.163 68.6054 117.631C68.3814 117.099 68.2694 116.413 68.2694 115.573C68.2694 114.667 68.3814 113.953 68.6054 113.431C68.8388 112.899 69.2028 112.521 69.6974 112.297C70.2014 112.073 70.8501 111.961 71.6434 111.961ZM34.3714 127.161C34.7541 127.161 35.1088 127.17 35.4354 127.189C35.7714 127.207 36.0888 127.24 36.3874 127.287C36.6861 127.333 36.9801 127.399 37.2694 127.483L37.1154 128.771C36.8074 128.752 36.5041 128.738 36.2054 128.729C35.9068 128.71 35.6081 128.701 35.3094 128.701C35.0201 128.691 34.7261 128.687 34.4274 128.687C33.9794 128.687 33.6014 128.733 33.2934 128.827C32.9854 128.911 32.7381 129.079 32.5514 129.331C32.3741 129.583 32.2434 129.942 32.1594 130.409C32.0754 130.875 32.0334 131.477 32.0334 132.215C32.0334 133.083 32.0894 133.769 32.2014 134.273C32.3228 134.767 32.5188 135.127 32.7894 135.351C33.0601 135.565 33.4241 135.673 33.8814 135.673C34.1894 135.673 34.4741 135.635 34.7354 135.561C34.9968 135.486 35.2348 135.388 35.4494 135.267C35.6734 135.136 35.8834 135.005 36.0794 134.875L36.2894 135.785C36.1401 135.971 35.9208 136.177 35.6314 136.401C35.3514 136.615 35.0154 136.802 34.6234 136.961C34.2314 137.11 33.7881 137.185 33.2934 137.185C32.5654 137.185 31.9681 137.012 31.5014 136.667C31.0441 136.312 30.7081 135.766 30.4934 135.029C30.2881 134.282 30.1854 133.325 30.1854 132.159C30.1854 130.889 30.3208 129.891 30.5914 129.163C30.8621 128.435 31.3008 127.921 31.9074 127.623C32.5234 127.315 33.3448 127.161 34.3714 127.161ZM37.5774 131.431V137.003H36.2894L36.0374 135.561L35.8694 135.211V131.431H37.5774ZM41.0865 130.129L41.3105 131.473L41.4645 131.669V137.003H39.7705V130.129H41.0865ZM44.4465 129.961L44.2785 131.529H43.7885C43.4245 131.529 43.0559 131.589 42.6825 131.711C42.3092 131.832 41.8425 132.014 41.2825 132.257L41.1705 131.263C41.6559 130.852 42.1505 130.535 42.6545 130.311C43.1585 130.077 43.6439 129.961 44.1105 129.961H44.4465ZM48.986 129.961C49.826 129.961 50.4934 130.077 50.988 130.311C51.492 130.544 51.8514 130.927 52.066 131.459C52.29 131.991 52.402 132.695 52.402 133.573C52.402 134.45 52.29 135.155 52.066 135.687C51.8514 136.209 51.492 136.592 50.988 136.835C50.4934 137.068 49.826 137.185 48.986 137.185C48.1647 137.185 47.502 137.068 46.998 136.835C46.5034 136.592 46.144 136.209 45.92 135.687C45.696 135.155 45.584 134.45 45.584 133.573C45.584 132.695 45.696 131.991 45.92 131.459C46.144 130.927 46.5034 130.544 46.998 130.311C47.502 130.077 48.1647 129.961 48.986 129.961ZM48.986 131.249C48.5754 131.249 48.2487 131.319 48.006 131.459C47.7727 131.589 47.6047 131.823 47.502 132.159C47.3994 132.495 47.348 132.966 47.348 133.573C47.348 134.179 47.3994 134.651 47.502 134.987C47.6047 135.323 47.7727 135.556 48.006 135.687C48.2487 135.817 48.5754 135.883 48.986 135.883C49.406 135.883 49.7374 135.817 49.98 135.687C50.2227 135.556 50.3907 135.323 50.484 134.987C50.5867 134.651 50.638 134.179 50.638 133.573C50.638 132.966 50.5867 132.495 50.484 132.159C50.3907 131.823 50.2227 131.589 49.98 131.459C49.7374 131.319 49.406 131.249 48.986 131.249ZM56.0711 130.129V134.777C56.0618 135.122 56.1271 135.369 56.2671 135.519C56.4165 135.668 56.6545 135.743 56.9811 135.743C57.3078 135.743 57.6345 135.673 57.9611 135.533C58.2878 135.393 58.6845 135.183 59.1511 134.903L59.3191 135.911C58.7965 136.331 58.2925 136.648 57.8071 136.863C57.3218 137.077 56.8178 137.185 56.2951 137.185C55.0165 137.185 54.3771 136.555 54.3771 135.295V130.129H56.0711ZM60.6771 130.129V137.003H59.3331L59.1511 135.673L58.9831 135.477V130.129H60.6771ZM67.2712 129.961C68.1206 129.961 68.7319 130.273 69.1052 130.899C69.4786 131.524 69.6652 132.429 69.6652 133.615C69.6652 134.52 69.5672 135.234 69.3712 135.757C69.1846 136.27 68.8999 136.639 68.5172 136.863C68.1346 137.077 67.6492 137.185 67.0612 137.185C66.5946 137.185 66.1372 137.119 65.6892 136.989C65.2506 136.849 64.8446 136.634 64.4712 136.345L64.5832 135.505C64.9472 135.607 65.2739 135.696 65.5632 135.771C65.8526 135.845 66.1699 135.883 66.5152 135.883C66.8606 135.883 67.1312 135.827 67.3272 135.715C67.5326 135.593 67.6819 135.369 67.7752 135.043C67.8686 134.716 67.9152 134.245 67.9152 133.629C67.9152 133.022 67.8732 132.551 67.7892 132.215C67.7052 131.879 67.5652 131.645 67.3692 131.515C67.1826 131.375 66.9352 131.305 66.6272 131.305C66.2912 131.305 65.9739 131.379 65.6752 131.529C65.3766 131.669 65.0312 131.879 64.6392 132.159L64.4432 131.263C64.6579 131.011 64.9146 130.787 65.2132 130.591C65.5212 130.395 65.8526 130.241 66.2072 130.129C66.5619 130.017 66.9166 129.961 67.2712 129.961ZM64.3732 130.129L64.5412 131.459L64.6952 131.655V136.093L64.6252 136.261C64.6532 136.531 64.6719 136.802 64.6812 137.073C64.6906 137.353 64.6952 137.637 64.6952 137.927V139.733H63.0012V130.129H64.3732Z" fill="#333839"/>
<path d="M90.3994 53.6044L53.7439 90.2499" stroke="white" stroke-width="6.29" stroke-miterlimit="10"/>
<path d="M90.3994 53.6044L53.7439 90.2499" stroke="#429AB8" stroke-width="3.42" stroke-miterlimit="10"/>
<path d="M8.6601 52.6618L6 50.0017L45.9905 10.0013" stroke="white" stroke-width="6.29" stroke-miterlimit="10"/>
<path d="M8.6601 52.6618L6 50.0017L45.9905 10.0013" stroke="#429AB8" stroke-width="3.42" stroke-miterlimit="10"/>
<path d="M68.6358 87.9313H31.3153L12 68.6358V31.3153L31.3153 12H68.6358L87.9512 31.3153V68.6358L68.6358 87.9313Z" fill="#429AB8"/>
<path d="M53.742 90.2507L50.0001 94.0026L8.65967 52.6622" stroke="white" stroke-width="6.29" stroke-miterlimit="10"/>
<path d="M53.742 90.2507L50.0001 94.0026L8.65967 52.6622" stroke="#429AB8" stroke-width="3.42" stroke-miterlimit="10"/>
<path d="M45.9895 10L49.9995 6L93.9999 50.0004L90.3969 53.6034" stroke="white" stroke-width="6.29" stroke-miterlimit="10"/>
<path d="M45.9895 10L49.9995 6L93.9999 50.0004L90.3969 53.6034" stroke="#429AB8" stroke-width="3.42" stroke-miterlimit="10"/>
<path d="M48.0342 63.4178C47.9855 63.3994 47.9375 63.3775 47.8881 63.3634C47.5486 63.2739 47.2488 63.0735 47.0362 62.794C46.8236 62.5146 46.7105 62.1721 46.7149 61.821C46.7093 60.5878 46.7149 59.3552 46.7149 58.122V45.3676H42.1752C42.2147 45.4615 42.2521 45.5554 42.2938 45.65C42.9623 47.1232 43.6046 48.6091 44.3127 50.0633C44.6833 50.825 44.6748 51.5782 44.4694 52.3455C44.0353 53.9691 42.4032 55.0598 40.7986 54.8423C39.0296 54.6023 37.7632 53.1926 37.7286 51.4596C37.7145 50.9859 37.8129 50.5156 38.0159 50.0873C38.7063 48.6148 39.3699 47.1288 40.0426 45.6485C40.0821 45.5617 40.1181 45.4735 40.1633 45.3662C39.9595 45.3591 39.7561 45.3412 39.5541 45.3125C39.1647 45.2407 38.8165 45.0251 38.5785 44.7085C38.3406 44.392 38.2302 43.9976 38.2694 43.6035C38.3076 43.2134 38.4895 42.8515 38.7799 42.5882C39.0702 42.3249 39.4481 42.179 39.84 42.179C41.7163 42.1712 43.5919 42.179 45.4676 42.179C45.829 42.179 46.1904 42.1691 46.5504 42.1853C46.6573 42.1948 46.7563 42.2454 46.8264 42.3265C48.8482 44.9553 52.5055 44.9553 54.5329 42.3265C54.6023 42.2448 54.7013 42.1941 54.8082 42.1853C57.0544 42.1783 59.2999 42.1733 61.5454 42.1853C61.9607 42.1896 62.3574 42.3584 62.6485 42.6547C62.9397 42.9509 63.1014 43.3505 63.0984 43.7659C63.098 44.1805 62.9352 44.5785 62.6449 44.8746C62.3546 45.1706 61.9599 45.3413 61.5454 45.3499C61.4395 45.3499 61.3336 45.3499 61.1925 45.3499C61.2412 45.465 61.2786 45.5617 61.3195 45.65C61.9887 47.1232 62.6297 48.6099 63.3391 50.0633C63.7062 50.8158 63.6984 51.5606 63.5043 52.3222C63.0928 53.9374 61.4671 55.0449 59.8512 54.8494C58.0822 54.6376 56.7876 53.2075 56.753 51.4646C56.7388 50.9908 56.8373 50.5205 57.0403 50.0923C57.73 48.6197 58.3935 47.1345 59.067 45.6535C59.1058 45.5667 59.1375 45.4784 59.1877 45.3711H54.6451V61.4772C54.6451 62.6236 54.3748 63.0218 53.3244 63.4178H52.7956C51.7473 63.0225 51.4749 62.6236 51.4749 61.48V56.8351C51.4749 56.1222 51.4805 55.4099 51.4749 54.6969C51.475 54.501 51.4023 54.3119 51.271 54.1665C51.1396 54.0211 50.959 53.9296 50.764 53.9098C50.5693 53.8919 50.3747 53.9462 50.2174 54.0624C50.0602 54.1787 49.9512 54.3488 49.9113 54.5402C49.8942 54.6442 49.888 54.7498 49.8929 54.8551C49.8929 57.1516 49.8929 59.448 49.8929 61.7441C49.8929 62.5777 49.4602 63.1474 48.666 63.3733C48.6337 63.3858 48.6023 63.4007 48.5722 63.4178H48.0342ZM39.761 50.0887H42.5691C42.1018 49.0616 41.6472 48.0607 41.165 46.999C40.6822 48.0607 40.2276 49.0616 39.761 50.0887ZM60.1872 46.9975L58.7867 50.0824H61.5885L60.1872 46.9975Z" fill="white"/>
<path d="M50.6852 36.3637C51.5266 36.3679 52.3319 36.7059 52.9244 37.3033C53.5169 37.9007 53.8482 38.7087 53.8456 39.5501C53.8396 40.3918 53.4999 41.1966 52.901 41.788C52.3021 42.3794 51.493 42.7089 50.6514 42.7042C49.8144 42.6952 49.0146 42.3568 48.4255 41.7621C47.8364 41.1675 47.5055 40.3646 47.5044 39.5276C47.5078 38.6865 47.8445 37.8812 48.4408 37.2881C49.0371 36.695 49.8442 36.3625 50.6852 36.3637Z" fill="white"/>
</svg>
