<svg width="100" height="156" viewBox="0 0 100 156" fill="none" xmlns="http://www.w3.org/2000/svg">
<rect width="100" height="156" rx="19" fill="#F9FBFF"/>
<path d="M30.303 109.231C31.1243 109.231 31.7776 109.305 32.263 109.455C32.7483 109.595 33.0983 109.847 33.313 110.211C33.537 110.575 33.649 111.088 33.649 111.751C33.649 112.441 33.5183 112.969 33.257 113.333C32.9956 113.697 32.5663 113.907 31.969 113.963V114.019C32.7063 114.084 33.2196 114.336 33.509 114.775C33.8076 115.213 33.957 115.82 33.957 116.595C33.957 117.257 33.845 117.771 33.621 118.135C33.4063 118.499 33.061 118.755 32.585 118.905C32.1183 119.045 31.507 119.115 30.751 119.115C30.163 119.115 29.6496 119.11 29.211 119.101C28.7723 119.101 28.371 119.091 28.007 119.073C27.643 119.054 27.265 119.031 26.873 119.003L27.069 117.729C27.293 117.738 27.7083 117.747 28.315 117.757C28.9216 117.766 29.6356 117.771 30.457 117.771C30.8956 117.771 31.241 117.733 31.493 117.659C31.745 117.575 31.9223 117.425 32.025 117.211C32.137 116.987 32.193 116.674 32.193 116.273C32.193 115.825 32.137 115.484 32.025 115.251C31.913 115.008 31.7263 114.84 31.465 114.747C31.213 114.644 30.8536 114.593 30.387 114.593H27.055V113.403H30.373C30.7743 113.403 31.087 113.365 31.311 113.291C31.5443 113.207 31.7123 113.062 31.815 112.857C31.9176 112.651 31.969 112.357 31.969 111.975C31.969 111.592 31.913 111.298 31.801 111.093C31.6983 110.887 31.521 110.752 31.269 110.687C31.017 110.612 30.667 110.575 30.219 110.575C29.7243 110.575 29.2856 110.575 28.903 110.575C28.5203 110.575 28.1796 110.579 27.881 110.589C27.5823 110.589 27.3116 110.598 27.069 110.617L26.873 109.343C27.2276 109.305 27.5636 109.282 27.881 109.273C28.2076 109.254 28.5623 109.245 28.945 109.245C29.337 109.235 29.7896 109.231 30.303 109.231ZM28.581 109.343V119.003H26.873V109.343H28.581ZM37.3287 112.129L37.5527 113.473L37.7067 113.669V119.003H36.0127V112.129H37.3287ZM40.6887 111.961L40.5207 113.529H40.0307C39.6667 113.529 39.298 113.589 38.9247 113.711C38.5513 113.832 38.0847 114.014 37.5247 114.257L37.4127 113.263C37.898 112.852 38.3927 112.535 38.8967 112.311C39.4007 112.077 39.886 111.961 40.3527 111.961H40.6887ZM45.6875 111.961C46.2382 111.961 46.7002 112.035 47.0735 112.185C47.4562 112.325 47.7455 112.567 47.9415 112.913C48.1375 113.258 48.2355 113.734 48.2355 114.341V119.003H46.8915L46.6535 117.519L46.5275 117.323V114.327C46.5275 113.963 46.4435 113.701 46.2755 113.543C46.1075 113.375 45.7855 113.291 45.3095 113.291C44.9549 113.291 44.5069 113.305 43.9655 113.333C43.4335 113.361 42.8969 113.398 42.3555 113.445L42.2015 112.283C42.5282 112.217 42.8969 112.161 43.3075 112.115C43.7182 112.068 44.1335 112.031 44.5535 112.003C44.9735 111.975 45.3515 111.961 45.6875 111.961ZM47.5075 114.775L47.4935 115.825H44.3435C44.0635 115.834 43.8629 115.909 43.7415 116.049C43.6202 116.189 43.5595 116.38 43.5595 116.623V117.001C43.5595 117.281 43.6342 117.495 43.7835 117.645C43.9329 117.785 44.1662 117.855 44.4835 117.855C44.7355 117.855 45.0155 117.803 45.3235 117.701C45.6315 117.598 45.9349 117.449 46.2335 117.253C46.5415 117.057 46.8169 116.823 47.0595 116.553V117.435C46.9662 117.575 46.8309 117.743 46.6535 117.939C46.4762 118.125 46.2569 118.312 45.9955 118.499C45.7435 118.685 45.4495 118.839 45.1135 118.961C44.7869 119.082 44.4229 119.143 44.0215 119.143C43.6109 119.143 43.2422 119.073 42.9155 118.933C42.5889 118.783 42.3322 118.569 42.1455 118.289C41.9589 117.999 41.8655 117.645 41.8655 117.225V116.497C41.8655 115.955 42.0429 115.535 42.3975 115.237C42.7615 114.929 43.2562 114.775 43.8815 114.775H47.5075ZM55.0192 111.961C56.2979 111.961 56.9372 112.591 56.9372 113.851V119.003H55.2432V114.369C55.2432 113.995 55.1779 113.739 55.0472 113.599C54.9165 113.459 54.6972 113.389 54.3892 113.389C54.0439 113.389 53.6892 113.468 53.3252 113.627C52.9612 113.776 52.5225 113.995 52.0092 114.285L51.9392 113.263C52.4432 112.843 52.9565 112.521 53.4792 112.297C54.0019 112.073 54.5152 111.961 55.0192 111.961ZM51.8832 112.129L52.0512 113.473L52.1912 113.669V119.003H50.4972V112.129H51.8832ZM62.296 111.961C62.5294 111.961 62.786 111.97 63.066 111.989C63.346 112.007 63.6307 112.045 63.92 112.101C64.2094 112.157 64.4707 112.236 64.704 112.339L64.508 113.403C64.1627 113.384 63.8174 113.37 63.472 113.361C63.136 113.351 62.842 113.347 62.59 113.347C62.114 113.347 61.736 113.412 61.456 113.543C61.1854 113.664 60.9894 113.888 60.868 114.215C60.7467 114.532 60.686 114.98 60.686 115.559C60.686 116.137 60.7467 116.59 60.868 116.917C60.9894 117.234 61.1854 117.458 61.456 117.589C61.736 117.719 62.114 117.785 62.59 117.785C62.73 117.785 62.912 117.78 63.136 117.771C63.3694 117.761 63.6167 117.747 63.878 117.729C64.1487 117.71 64.41 117.687 64.662 117.659L64.83 118.751C64.466 118.9 64.06 119.007 63.612 119.073C63.164 119.138 62.7207 119.171 62.282 119.171C61.4607 119.171 60.8027 119.054 60.308 118.821C59.8134 118.587 59.454 118.209 59.23 117.687C59.0154 117.155 58.908 116.445 58.908 115.559C58.908 114.672 59.02 113.967 59.244 113.445C59.468 112.913 59.8274 112.535 60.322 112.311C60.8167 112.077 61.4747 111.961 62.296 111.961ZM71.158 111.961C72.4367 111.961 73.076 112.591 73.076 113.851V119.003H71.368V114.369C71.368 113.995 71.3027 113.739 71.172 113.599C71.0507 113.459 70.836 113.389 70.528 113.389C70.1827 113.389 69.828 113.463 69.464 113.613C69.1 113.762 68.6614 113.986 68.148 114.285L68.022 113.305C68.5447 112.875 69.0674 112.544 69.59 112.311C70.122 112.077 70.6447 111.961 71.158 111.961ZM68.33 109.203L68.344 111.723C68.344 112.068 68.3254 112.395 68.288 112.703C68.26 113.001 68.218 113.258 68.162 113.473L68.33 113.669V119.003H66.636V109.203H68.33ZM25.773 127.343V137.003H24.023V127.343H25.773ZM28.769 127.343V128.771H21.027V127.343H28.769ZM30.5718 130.129L30.7958 131.473L30.9498 131.669V137.003H29.2558V130.129H30.5718ZM33.9318 129.961L33.7638 131.529H33.2738C32.9098 131.529 32.5411 131.589 32.1678 131.711C31.7944 131.832 31.3278 132.014 30.7678 132.257L30.6558 131.263C31.1411 130.852 31.6358 130.535 32.1398 130.311C32.6438 130.077 33.1291 129.961 33.5958 129.961H33.9318ZM38.9306 129.961C39.4813 129.961 39.9433 130.035 40.3166 130.185C40.6993 130.325 40.9886 130.567 41.1846 130.913C41.3806 131.258 41.4786 131.734 41.4786 132.341V137.003H40.1346L39.8966 135.519L39.7706 135.323V132.327C39.7706 131.963 39.6866 131.701 39.5186 131.543C39.3506 131.375 39.0286 131.291 38.5526 131.291C38.198 131.291 37.75 131.305 37.2086 131.333C36.6766 131.361 36.14 131.398 35.5986 131.445L35.4446 130.283C35.7713 130.217 36.14 130.161 36.5506 130.115C36.9613 130.068 37.3766 130.031 37.7966 130.003C38.2166 129.975 38.5946 129.961 38.9306 129.961ZM40.7506 132.775L40.7366 133.825H37.5866C37.3066 133.834 37.106 133.909 36.9846 134.049C36.8633 134.189 36.8026 134.38 36.8026 134.623V135.001C36.8026 135.281 36.8773 135.495 37.0266 135.645C37.176 135.785 37.4093 135.855 37.7266 135.855C37.9786 135.855 38.2586 135.803 38.5666 135.701C38.8746 135.598 39.178 135.449 39.4766 135.253C39.7846 135.057 40.06 134.823 40.3026 134.553V135.435C40.2093 135.575 40.074 135.743 39.8966 135.939C39.7193 136.125 39.5 136.312 39.2386 136.499C38.9866 136.685 38.6926 136.839 38.3566 136.961C38.03 137.082 37.666 137.143 37.2646 137.143C36.854 137.143 36.4853 137.073 36.1586 136.933C35.832 136.783 35.5753 136.569 35.3886 136.289C35.202 135.999 35.1086 135.645 35.1086 135.225V134.497C35.1086 133.955 35.286 133.535 35.6406 133.237C36.0046 132.929 36.4993 132.775 37.1246 132.775H40.7506ZM48.2623 129.961C49.541 129.961 50.1803 130.591 50.1803 131.851V137.003H48.4863V132.369C48.4863 131.995 48.421 131.739 48.2903 131.599C48.1596 131.459 47.9403 131.389 47.6323 131.389C47.287 131.389 46.9323 131.468 46.5683 131.627C46.2043 131.776 45.7656 131.995 45.2523 132.285L45.1823 131.263C45.6863 130.843 46.1996 130.521 46.7223 130.297C47.245 130.073 47.7583 129.961 48.2623 129.961ZM45.1263 130.129L45.2943 131.473L45.4343 131.669V137.003H43.7403V130.129H45.1263ZM54.9371 129.961C55.2545 129.961 55.5951 129.97 55.9591 129.989C56.3325 130.007 56.6965 130.035 57.0511 130.073C57.4058 130.101 57.7231 130.143 58.0031 130.199L57.8911 131.305C57.4431 131.295 56.9951 131.286 56.5471 131.277C56.1085 131.258 55.6745 131.249 55.2451 131.249C54.8625 131.249 54.5591 131.258 54.3351 131.277C54.1205 131.295 53.9665 131.351 53.8731 131.445C53.7891 131.538 53.7471 131.697 53.7471 131.921C53.7471 132.191 53.8218 132.373 53.9711 132.467C54.1205 132.551 54.3631 132.635 54.6991 132.719L56.5751 133.153C57.1351 133.293 57.5505 133.507 57.8211 133.797C58.0918 134.077 58.2271 134.511 58.2271 135.099C58.2271 135.668 58.1198 136.102 57.9051 136.401C57.6998 136.69 57.3685 136.891 56.9111 137.003C56.4631 137.105 55.8891 137.157 55.1891 137.157C54.9185 137.157 54.5171 137.143 53.9851 137.115C53.4531 137.096 52.8698 137.035 52.2351 136.933L52.3471 135.827C52.5338 135.827 52.7531 135.831 53.0051 135.841C53.2665 135.85 53.5418 135.855 53.8311 135.855C54.1298 135.855 54.4331 135.855 54.7411 135.855C55.2358 135.855 55.6138 135.841 55.8751 135.813C56.1458 135.775 56.3325 135.705 56.4351 135.603C56.5378 135.491 56.5891 135.332 56.5891 135.127C56.5891 134.865 56.5005 134.693 56.3231 134.609C56.1551 134.515 55.9031 134.427 55.5671 134.343L53.7331 133.895C53.3131 133.783 52.9865 133.643 52.7531 133.475C52.5198 133.297 52.3518 133.083 52.2491 132.831C52.1465 132.569 52.0951 132.252 52.0951 131.879C52.0951 131.375 52.1885 130.983 52.3751 130.703C52.5711 130.423 52.8745 130.227 53.2851 130.115C53.7051 130.003 54.2558 129.951 54.9371 129.961ZM62.9099 126.937C63.0686 126.937 63.2739 126.941 63.5259 126.951C63.7872 126.96 64.0532 126.974 64.3239 126.993C64.5946 127.002 64.8232 127.025 65.0099 127.063L64.8699 128.197H63.5119C63.1199 128.197 62.8446 128.276 62.6859 128.435C62.5272 128.593 62.4479 128.859 62.4479 129.233V137.003H60.7539V129.023C60.7539 128.584 60.8239 128.211 60.9639 127.903C61.1039 127.595 61.3326 127.357 61.6499 127.189C61.9672 127.021 62.3872 126.937 62.9099 126.937ZM64.4919 130.129V131.305H59.5359V130.199L60.8099 130.129H64.4919ZM69.08 129.961C70.1906 129.961 70.9886 130.157 71.474 130.549C71.9593 130.931 72.2066 131.501 72.216 132.257C72.2253 132.882 72.076 133.358 71.768 133.685C71.4693 134.002 70.97 134.161 70.27 134.161H66.35V133.111H69.808C70.1253 133.111 70.326 133.027 70.41 132.859C70.5033 132.691 70.55 132.485 70.55 132.243C70.5406 131.86 70.4286 131.594 70.214 131.445C70.0086 131.295 69.654 131.221 69.15 131.221C68.7113 131.221 68.3706 131.281 68.128 131.403C67.8853 131.524 67.7126 131.743 67.61 132.061C67.5166 132.378 67.47 132.835 67.47 133.433C67.47 134.067 67.5306 134.557 67.652 134.903C67.7733 135.248 67.974 135.486 68.254 135.617C68.534 135.738 68.9073 135.799 69.374 135.799C69.7193 135.799 70.116 135.785 70.564 135.757C71.0213 135.729 71.46 135.691 71.88 135.645L72.048 136.723C71.796 136.825 71.5066 136.909 71.18 136.975C70.8533 137.04 70.5126 137.087 70.158 137.115C69.8126 137.152 69.486 137.171 69.178 137.171C68.338 137.171 67.6613 137.049 67.148 136.807C66.644 136.555 66.2753 136.163 66.042 135.631C65.818 135.099 65.706 134.413 65.706 133.573C65.706 132.667 65.818 131.953 66.042 131.431C66.2753 130.899 66.6393 130.521 67.134 130.297C67.638 130.073 68.2866 129.961 69.08 129.961ZM75.4746 130.129L75.6986 131.473L75.8526 131.669V137.003H74.1586V130.129H75.4746ZM78.8346 129.961L78.6666 131.529H78.1766C77.8126 131.529 77.4439 131.589 77.0706 131.711C76.6972 131.832 76.2306 132.014 75.6706 132.257L75.5586 131.263C76.0439 130.852 76.5386 130.535 77.0426 130.311C77.5466 130.077 78.0319 129.961 78.4986 129.961H78.8346Z" fill="#333839"/>
<path d="M90.3995 53.6045L53.744 90.2501" stroke="white" stroke-width="6.29" stroke-miterlimit="10"/>
<path d="M90.3995 53.6045L53.744 90.2501" stroke="#7D93CA" stroke-width="3.42" stroke-miterlimit="10"/>
<path d="M8.6601 52.6616L6 50.0016L45.9905 10.0012" stroke="white" stroke-width="6.29" stroke-miterlimit="10"/>
<path d="M8.6601 52.6616L6 50.0016L45.9905 10.0012" stroke="#7D93CA" stroke-width="3.42" stroke-miterlimit="10"/>
<path d="M68.6358 87.9313H31.3153L12 68.6358V31.3153L31.3153 12H68.6358L87.9512 31.3153V68.6358L68.6358 87.9313Z" fill="#7D93CA"/>
<path d="M53.7421 90.2506L50.0002 94.0025L8.65979 52.6621" stroke="white" stroke-width="6.29" stroke-miterlimit="10"/>
<path d="M53.7421 90.2506L50.0002 94.0025L8.65979 52.6621" stroke="#7D93CA" stroke-width="3.42" stroke-miterlimit="10"/>
<path d="M45.9896 10L49.9996 6L94.0001 50.0004L90.397 53.6034" stroke="white" stroke-width="6.29" stroke-miterlimit="10"/>
<path d="M45.9896 10L49.9996 6L94.0001 50.0004L90.397 53.6034" stroke="#7D93CA" stroke-width="3.42" stroke-miterlimit="10"/>
<path d="M45.4778 64.3883C45.4014 63.5997 45.4777 63.3301 46.3833 63.3352C52.4881 63.3352 58.593 63.3352 64.6978 63.3352C64.8389 63.3187 64.9817 63.3442 65.1084 63.4084C65.235 63.4727 65.34 63.5729 65.41 63.6964V64.3883H45.4778Z" fill="#FFFCFC"/>
<path d="M55.6424 41.8004H36.3663C36.4197 41.7417 36.4775 41.6873 36.5393 41.6376L45.7627 35.0901C45.8249 35.0322 45.9067 35 45.9916 35C46.0766 35 46.1584 35.0322 46.2206 35.0901C49.3238 37.2981 52.4305 39.5026 55.5406 41.7037L55.6424 41.8004Z" fill="#FFFCFC"/>
<path d="M45.7982 53.8522L45.9712 53.7148C49.0236 51.5442 52.0896 49.3685 55.1691 47.1877C55.2405 47.1281 55.3305 47.0955 55.4235 47.0955C55.5165 47.0955 55.6065 47.1281 55.6779 47.1877C58.7303 49.3651 61.7827 51.5357 64.8351 53.6995L65.0335 53.8522H45.7982Z" fill="#FFFCFC"/>
<path d="M47.0498 62.2615V61.8953C47.0498 61.4221 47.238 61.2339 47.7112 61.2339H63.1767C63.6499 61.2339 63.833 61.4221 63.8432 61.8953V62.2615H47.0498Z" fill="#FFFCFC"/>
<path d="M61.213 42.5583C61.213 41.7392 61.213 40.9355 61.213 40.1316C61.1944 39.5892 60.9641 39.0755 60.5713 38.7009C60.1786 38.3262 59.6547 38.1203 59.1119 38.1272H56.0595C55.6678 38.1272 55.4032 37.8525 55.4694 37.5167C55.4878 37.3954 55.5494 37.2849 55.6429 37.2054C55.7364 37.1259 55.8554 37.0829 55.9781 37.0843C57.1685 37.0843 58.359 37.0385 59.5393 37.1098C60.2756 37.1876 60.9592 37.5282 61.4647 38.0692C61.9703 38.6103 62.2638 39.3154 62.2915 40.0553C62.2915 40.8846 62.2915 41.7189 62.2915 42.6346C62.5561 42.3752 62.7646 42.1615 62.9834 41.958C63.0649 41.8764 63.1717 41.8249 63.2863 41.8119C63.401 41.799 63.5166 41.8254 63.6142 41.8868C63.7147 41.946 63.7918 42.038 63.8325 42.1473C63.8733 42.2566 63.8752 42.3765 63.8381 42.4871C63.7998 42.5947 63.735 42.6909 63.6498 42.7669C63.1716 43.2502 62.6934 43.7335 62.2101 44.2117C62.1589 44.2792 62.0927 44.3339 62.0168 44.3715C61.9409 44.4092 61.8573 44.4288 61.7726 44.4288C61.6879 44.4288 61.6043 44.4092 61.5284 44.3715C61.4525 44.3339 61.3863 44.2792 61.3351 44.2117L59.8954 42.772C59.8345 42.7246 59.7845 42.6648 59.7485 42.5967C59.7124 42.5285 59.6913 42.4534 59.6865 42.3765C59.6817 42.2995 59.6933 42.2224 59.7206 42.1503C59.7478 42.0781 59.79 42.0126 59.8445 41.958C59.899 41.9072 59.9635 41.8683 60.034 41.8439C60.1044 41.8196 60.1791 41.8102 60.2534 41.8164C60.3277 41.8226 60.3998 41.8443 60.4652 41.8801C60.5306 41.9159 60.5878 41.965 60.633 42.0241L61.1926 42.5634L61.213 42.5583Z" fill="#FFFCFC"/>
<path d="M42.0489 60.6289C41.8505 60.4508 41.647 60.2778 41.4587 60.0896C41.3973 60.0454 41.3465 59.988 41.3101 59.9217C41.2737 59.8554 41.2525 59.7818 41.2481 59.7062C41.2437 59.6307 41.2562 59.5551 41.2848 59.485C41.3133 59.4149 41.3571 59.3521 41.4129 59.3011C41.4643 59.2455 41.5275 59.202 41.5978 59.1739C41.6681 59.1458 41.7438 59.1338 41.8193 59.1386C41.8949 59.1435 41.9684 59.1652 42.0345 59.2021C42.1006 59.239 42.1577 59.2902 42.2015 59.3519C42.7 59.8403 43.1935 60.3338 43.6819 60.8324C43.7441 60.8798 43.7946 60.941 43.8293 61.0112C43.864 61.0813 43.882 61.1585 43.882 61.2368C43.882 61.3151 43.864 61.3923 43.8293 61.4624C43.7946 61.5326 43.7441 61.5938 43.6819 61.6412C43.1732 62.15 42.6644 62.6587 42.1557 63.1675C42.1102 63.2244 42.0529 63.2709 41.9879 63.3038C41.9228 63.3367 41.8514 63.3552 41.7786 63.3581C41.7057 63.361 41.6331 63.3482 41.5656 63.3206C41.4982 63.2929 41.4374 63.2511 41.3875 63.198C41.3344 63.1481 41.2926 63.0873 41.2649 63.0199C41.2373 62.9524 41.2245 62.8798 41.2274 62.8069C41.2303 62.7341 41.2488 62.6627 41.2817 62.5976C41.3146 62.5326 41.3611 62.4753 41.418 62.4298C41.6215 62.2314 41.8403 62.0533 42.0539 61.8651L41.998 61.7633H41.4893C40.8584 61.7633 40.2276 61.7633 39.5968 61.7633C38.7872 61.7543 38.0128 61.4307 37.4375 60.8611C36.8622 60.2914 36.5309 59.5204 36.5138 58.7109C36.4833 57.6477 36.5138 56.5844 36.5138 55.5211C36.5038 55.4464 36.5106 55.3703 36.5336 55.2984C36.5567 55.2266 36.5954 55.1608 36.647 55.1058C36.6986 55.0507 36.7619 55.0079 36.8321 54.9803C36.9023 54.9527 36.9778 54.9411 37.0531 54.9463C37.1258 54.9457 37.1979 54.9606 37.2643 54.9902C37.3308 55.0198 37.3901 55.0634 37.4384 55.1178C37.4866 55.1723 37.5226 55.2365 37.5439 55.3061C37.5651 55.3757 37.5713 55.449 37.5618 55.5211C37.5618 56.4877 37.5618 57.4543 37.5618 58.4209C37.5336 58.7304 37.5738 59.0423 37.6797 59.3345C37.7856 59.6266 37.9546 59.8919 38.1746 60.1114C38.3946 60.3309 38.6602 60.4993 38.9526 60.6045C39.245 60.7098 39.557 60.7494 39.8664 60.7204H41.9878L42.0489 60.6289Z" fill="#FFFCFC"/>
<path d="M37.5771 50.1896C37.5771 49.9963 37.5771 49.8233 37.5771 49.6809C37.5771 49.5459 37.6307 49.4165 37.7262 49.3211C37.8216 49.2257 37.951 49.1721 38.0859 49.1721C38.3759 49.1721 38.6608 49.1721 38.9507 49.1721H50.4584V49.2281C50.0107 49.5435 49.563 49.864 49.1102 50.1743C49.0425 50.2079 48.9663 50.2203 48.8914 50.2099H37.6992L37.5771 50.1896Z" fill="#FFFCFC"/>
<path d="M47.5585 51.3136C47.1006 51.6341 46.6479 51.9597 46.1849 52.2751C46.1153 52.3082 46.0376 52.3206 45.9611 52.3108H36.2137H36C36 52.1276 36 51.9546 36 51.802C35.9994 51.6755 36.0459 51.5532 36.1306 51.4591C36.2153 51.3651 36.3319 51.3059 36.4579 51.2933C36.534 51.2857 36.6107 51.2857 36.6868 51.2933H47.5127L47.5585 51.3136Z" fill="#FFFCFC"/>
<path d="M39.6884 42.8635H40.7058V45.9872H39.6884V42.8635Z" fill="#FFFCFC"/>
<path d="M46.48 45.9923H45.4625V42.8635H46.48V45.9923Z" fill="#FFFCFC"/>
<path d="M52.254 45.9921H51.2366V42.8735H52.254V45.9921Z" fill="#FFFCFC"/>
<path d="M60.7195 54.9512H61.737V58.0697H60.7195V54.9512Z" fill="#FFFCFC"/>
<path d="M50.1632 58.0698H49.1458V54.9563H50.1632V58.0698Z" fill="#FFFCFC"/>
<path d="M55.9323 58.0698H54.9148V54.9563H55.9323V58.0698Z" fill="#FFFCFC"/>
<path d="M47.0039 48.1087C46.3527 48.1087 45.7066 48.1087 45.0605 48.1087C45.0289 48.0993 45.0005 48.0816 44.9781 48.0575C44.9557 48.0333 44.9402 48.0035 44.9333 47.9713C44.9333 47.6762 44.9333 47.3863 44.9333 47.0759H47.0141L47.0039 48.1087Z" fill="#FFFCFC"/>
<path d="M41.2196 48.1085H39.1847V47.0911H41.2196V48.1085Z" fill="#FFFCFC"/>
<path d="M50.6973 59.1633V60.1808H48.6217V59.1633H50.6973Z" fill="#FFFCFC"/>
<path d="M54.3959 60.1708V59.1533H56.4664V60.1708H54.3959Z" fill="#FFFCFC"/>
<path d="M62.2355 60.1759H60.2006V59.1584H62.2355V60.1759Z" fill="#FFFCFC"/>
<path d="M52.7781 47.0911C52.8254 47.227 52.8244 47.3751 52.7753 47.5104C52.7262 47.6457 52.632 47.7599 52.5084 47.8338C52.1705 48.0825 51.7491 48.1901 51.3333 48.134C51.1349 48.134 50.9364 48.134 50.7228 48.134V47.1165L52.7781 47.0911Z" fill="#FFFCFC"/>
</svg>
