<svg width="100" height="156" viewBox="0 0 100 156" fill="none" xmlns="http://www.w3.org/2000/svg">
<rect width="100" height="156" rx="19" fill="#F9FBFF"/>
<path d="M19.75 109.228C20.5713 109.228 21.2247 109.303 21.71 109.452C22.1953 109.592 22.5453 109.844 22.76 110.208C22.984 110.572 23.096 111.085 23.096 111.748C23.096 112.439 22.9653 112.966 22.704 113.33C22.4427 113.694 22.0133 113.904 21.416 113.96V114.016C22.1533 114.081 22.6667 114.333 22.956 114.772C23.2547 115.211 23.404 115.817 23.404 116.592C23.404 117.255 23.292 117.768 23.068 118.132C22.8533 118.496 22.508 118.753 22.032 118.902C21.5653 119.042 20.954 119.112 20.198 119.112C19.61 119.112 19.0967 119.107 18.658 119.098C18.2193 119.098 17.818 119.089 17.454 119.07C17.09 119.051 16.712 119.028 16.32 119L16.516 117.726C16.74 117.735 17.1553 117.745 17.762 117.754C18.3687 117.763 19.0827 117.768 19.904 117.768C20.3427 117.768 20.688 117.731 20.94 117.656C21.192 117.572 21.3693 117.423 21.472 117.208C21.584 116.984 21.64 116.671 21.64 116.27C21.64 115.822 21.584 115.481 21.472 115.248C21.36 115.005 21.1733 114.837 20.912 114.744C20.66 114.641 20.3007 114.59 19.834 114.59H16.502V113.4H19.82C20.2213 113.4 20.534 113.363 20.758 113.288C20.9913 113.204 21.1593 113.059 21.262 112.854C21.3647 112.649 21.416 112.355 21.416 111.972C21.416 111.589 21.36 111.295 21.248 111.09C21.1453 110.885 20.968 110.749 20.716 110.684C20.464 110.609 20.114 110.572 19.666 110.572C19.1713 110.572 18.7327 110.572 18.35 110.572C17.9673 110.572 17.6267 110.577 17.328 110.586C17.0293 110.586 16.7587 110.595 16.516 110.614L16.32 109.34C16.6747 109.303 17.0107 109.279 17.328 109.27C17.6547 109.251 18.0093 109.242 18.392 109.242C18.784 109.233 19.2367 109.228 19.75 109.228ZM18.028 109.34V119H16.32V109.34H18.028ZM25.5157 112.126L25.7397 113.47L25.8937 113.666V119H24.1997V112.126H25.5157ZM28.8757 111.958L28.7077 113.526H28.2177C27.8537 113.526 27.485 113.587 27.1117 113.708C26.7384 113.829 26.2717 114.011 25.7117 114.254L25.5997 113.26C26.085 112.849 26.5797 112.532 27.0837 112.308C27.5877 112.075 28.073 111.958 28.5397 111.958H28.8757ZM32.6146 111.958C33.1652 111.958 33.6272 112.033 34.0006 112.182C34.3832 112.322 34.6726 112.565 34.8686 112.91C35.0646 113.255 35.1626 113.731 35.1626 114.338V119H33.8186L33.5806 117.516L33.4546 117.32V114.324C33.4546 113.96 33.3706 113.699 33.2026 113.54C33.0346 113.372 32.7126 113.288 32.2366 113.288C31.8819 113.288 31.4339 113.302 30.8926 113.33C30.3606 113.358 29.8239 113.395 29.2826 113.442L29.1286 112.28C29.4552 112.215 29.8239 112.159 30.2346 112.112C30.6452 112.065 31.0606 112.028 31.4806 112C31.9006 111.972 32.2786 111.958 32.6146 111.958ZM34.4346 114.772L34.4206 115.822H31.2706C30.9906 115.831 30.7899 115.906 30.6686 116.046C30.5472 116.186 30.4866 116.377 30.4866 116.62V116.998C30.4866 117.278 30.5612 117.493 30.7106 117.642C30.8599 117.782 31.0932 117.852 31.4106 117.852C31.6626 117.852 31.9426 117.801 32.2506 117.698C32.5586 117.595 32.8619 117.446 33.1606 117.25C33.4686 117.054 33.7439 116.821 33.9866 116.55V117.432C33.8932 117.572 33.7579 117.74 33.5806 117.936C33.4032 118.123 33.1839 118.309 32.9226 118.496C32.6706 118.683 32.3766 118.837 32.0406 118.958C31.7139 119.079 31.3499 119.14 30.9486 119.14C30.5379 119.14 30.1692 119.07 29.8426 118.93C29.5159 118.781 29.2592 118.566 29.0726 118.286C28.8859 117.997 28.7926 117.642 28.7926 117.222V116.494C28.7926 115.953 28.9699 115.533 29.3246 115.234C29.6886 114.926 30.1832 114.772 30.8086 114.772H34.4346ZM40.6862 111.958C41.9649 111.958 42.6042 112.588 42.6042 113.848V119H40.9102V114.366C40.9102 113.993 40.8449 113.736 40.7142 113.596C40.5836 113.456 40.3642 113.386 40.0562 113.386C39.7109 113.386 39.3562 113.465 38.9922 113.624C38.6282 113.773 38.1896 113.993 37.6762 114.282L37.6062 113.26C38.1102 112.84 38.6236 112.518 39.1462 112.294C39.6689 112.07 40.1822 111.958 40.6862 111.958ZM37.5502 112.126L37.7182 113.47L37.8582 113.666V119H36.1642V112.126H37.5502ZM46.7031 111.958C46.9364 111.958 47.1931 111.967 47.4731 111.986C47.7531 112.005 48.0377 112.042 48.3271 112.098C48.6164 112.154 48.8777 112.233 49.1111 112.336L48.9151 113.4C48.5697 113.381 48.2244 113.367 47.8791 113.358C47.5431 113.349 47.2491 113.344 46.9971 113.344C46.5211 113.344 46.1431 113.409 45.8631 113.54C45.5924 113.661 45.3964 113.885 45.2751 114.212C45.1537 114.529 45.0931 114.977 45.0931 115.556C45.0931 116.135 45.1537 116.587 45.2751 116.914C45.3964 117.231 45.5924 117.455 45.8631 117.586C46.1431 117.717 46.5211 117.782 46.9971 117.782C47.1371 117.782 47.3191 117.777 47.5431 117.768C47.7764 117.759 48.0237 117.745 48.2851 117.726C48.5557 117.707 48.8171 117.684 49.0691 117.656L49.2371 118.748C48.8731 118.897 48.4671 119.005 48.0191 119.07C47.5711 119.135 47.1277 119.168 46.6891 119.168C45.8677 119.168 45.2097 119.051 44.7151 118.818C44.2204 118.585 43.8611 118.207 43.6371 117.684C43.4224 117.152 43.3151 116.443 43.3151 115.556C43.3151 114.669 43.4271 113.965 43.6511 113.442C43.8751 112.91 44.2344 112.532 44.7291 112.308C45.2237 112.075 45.8817 111.958 46.7031 111.958ZM54.3051 111.958C55.5837 111.958 56.2231 112.588 56.2231 113.848V119H54.5151V114.366C54.5151 113.993 54.4497 113.736 54.3191 113.596C54.1977 113.456 53.9831 113.386 53.6751 113.386C53.3297 113.386 52.9751 113.461 52.6111 113.61C52.2471 113.759 51.8084 113.983 51.2951 114.282L51.1691 113.302C51.6917 112.873 52.2144 112.541 52.7371 112.308C53.2691 112.075 53.7917 111.958 54.3051 111.958ZM51.4771 109.2L51.4911 111.72C51.4911 112.065 51.4724 112.392 51.4351 112.7C51.4071 112.999 51.3651 113.255 51.3091 113.47L51.4771 113.666V119H49.7831V109.2H51.4771ZM63.2239 109.34V119H61.4739V109.34H63.2239ZM66.2199 109.34V110.768H58.4779V109.34H66.2199ZM66.7626 112.126L66.9866 113.47L67.1406 113.666V119H65.4466V112.126H66.7626ZM70.1226 111.958L69.9546 113.526H69.4646C69.1006 113.526 68.732 113.587 68.3586 113.708C67.9853 113.829 67.5186 114.011 66.9586 114.254L66.8466 113.26C67.332 112.849 67.8266 112.532 68.3306 112.308C68.8346 112.075 69.32 111.958 69.7866 111.958H70.1226ZM73.8615 111.958C74.4122 111.958 74.8742 112.033 75.2475 112.182C75.6302 112.322 75.9195 112.565 76.1155 112.91C76.3115 113.255 76.4095 113.731 76.4095 114.338V119H75.0655L74.8275 117.516L74.7015 117.32V114.324C74.7015 113.96 74.6175 113.699 74.4495 113.54C74.2815 113.372 73.9595 113.288 73.4835 113.288C73.1289 113.288 72.6809 113.302 72.1395 113.33C71.6075 113.358 71.0709 113.395 70.5295 113.442L70.3755 112.28C70.7022 112.215 71.0709 112.159 71.4815 112.112C71.8922 112.065 72.3075 112.028 72.7275 112C73.1475 111.972 73.5255 111.958 73.8615 111.958ZM75.6815 114.772L75.6675 115.822H72.5175C72.2375 115.831 72.0369 115.906 71.9155 116.046C71.7942 116.186 71.7335 116.377 71.7335 116.62V116.998C71.7335 117.278 71.8082 117.493 71.9575 117.642C72.1069 117.782 72.3402 117.852 72.6575 117.852C72.9095 117.852 73.1895 117.801 73.4975 117.698C73.8055 117.595 74.1089 117.446 74.4075 117.25C74.7155 117.054 74.9909 116.821 75.2335 116.55V117.432C75.1402 117.572 75.0049 117.74 74.8275 117.936C74.6502 118.123 74.4309 118.309 74.1695 118.496C73.9175 118.683 73.6235 118.837 73.2875 118.958C72.9609 119.079 72.5969 119.14 72.1955 119.14C71.7849 119.14 71.4162 119.07 71.0895 118.93C70.7629 118.781 70.5062 118.566 70.3195 118.286C70.1329 117.997 70.0395 117.642 70.0395 117.222V116.494C70.0395 115.953 70.2169 115.533 70.5715 115.234C70.9355 114.926 71.4302 114.772 72.0555 114.772H75.6815ZM81.9332 111.958C83.2118 111.958 83.8512 112.588 83.8512 113.848V119H82.1572V114.366C82.1572 113.993 82.0918 113.736 81.9612 113.596C81.8305 113.456 81.6112 113.386 81.3032 113.386C80.9578 113.386 80.6032 113.465 80.2392 113.624C79.8752 113.773 79.4365 113.993 78.9232 114.282L78.8532 113.26C79.3572 112.84 79.8705 112.518 80.3932 112.294C80.9158 112.07 81.4292 111.958 81.9332 111.958ZM78.7972 112.126L78.9652 113.47L79.1052 113.666V119H77.4112V112.126H78.7972ZM34.5651 127.214C35.3677 127.214 36.0164 127.298 36.5111 127.466C37.0151 127.634 37.3791 127.923 37.6031 128.334C37.8364 128.735 37.9531 129.305 37.9531 130.042C37.9531 130.527 37.8924 130.943 37.7711 131.288C37.6591 131.624 37.4677 131.895 37.1971 132.1C36.9357 132.296 36.5811 132.422 36.1331 132.478V132.548C36.2917 132.585 36.4551 132.66 36.6231 132.772C36.8004 132.875 36.9591 133.024 37.0991 133.22C37.2484 133.416 37.3604 133.668 37.4351 133.976L38.3171 137H36.4691L35.6711 134.018C35.5684 133.682 35.4284 133.449 35.2511 133.318C35.0737 133.178 34.8311 133.108 34.5231 133.108C33.9164 133.108 33.3984 133.108 32.9691 133.108C32.5397 133.099 32.1804 133.089 31.8911 133.08C31.6111 133.071 31.3637 133.066 31.1491 133.066L31.1911 131.736H34.5231C34.9431 131.727 35.2744 131.68 35.5171 131.596C35.7597 131.503 35.9324 131.344 36.0351 131.12C36.1377 130.887 36.1891 130.56 36.1891 130.14C36.1891 129.729 36.1377 129.412 36.0351 129.188C35.9324 128.964 35.7597 128.81 35.5171 128.726C35.2744 128.633 34.9431 128.586 34.5231 128.586C33.7017 128.586 32.9971 128.591 32.4091 128.6C31.8211 128.609 31.4197 128.619 31.2051 128.628L31.0091 127.34C31.3824 127.303 31.7324 127.275 32.0591 127.256C32.3951 127.237 32.7591 127.228 33.1511 127.228C33.5431 127.219 34.0144 127.214 34.5651 127.214ZM32.7311 127.34V137H31.0091V127.34H32.7311ZM41.9274 129.958C43.0381 129.958 43.8361 130.154 44.3214 130.546C44.8067 130.929 45.0541 131.498 45.0634 132.254C45.0727 132.879 44.9234 133.355 44.6154 133.682C44.3167 133.999 43.8174 134.158 43.1174 134.158H39.1974V133.108H42.6554C42.9727 133.108 43.1734 133.024 43.2574 132.856C43.3507 132.688 43.3974 132.483 43.3974 132.24C43.3881 131.857 43.2761 131.591 43.0614 131.442C42.8561 131.293 42.5014 131.218 41.9974 131.218C41.5587 131.218 41.2181 131.279 40.9754 131.4C40.7327 131.521 40.5601 131.741 40.4574 132.058C40.3641 132.375 40.3174 132.833 40.3174 133.43C40.3174 134.065 40.3781 134.555 40.4994 134.9C40.6207 135.245 40.8214 135.483 41.1014 135.614C41.3814 135.735 41.7547 135.796 42.2214 135.796C42.5667 135.796 42.9634 135.782 43.4114 135.754C43.8687 135.726 44.3074 135.689 44.7274 135.642L44.8954 136.72C44.6434 136.823 44.3541 136.907 44.0274 136.972C43.7007 137.037 43.3601 137.084 43.0054 137.112C42.6601 137.149 42.3334 137.168 42.0254 137.168C41.1854 137.168 40.5087 137.047 39.9954 136.804C39.4914 136.552 39.1227 136.16 38.8894 135.628C38.6654 135.096 38.5534 134.41 38.5534 133.57C38.5534 132.665 38.6654 131.951 38.8894 131.428C39.1227 130.896 39.4867 130.518 39.9814 130.294C40.4854 130.07 41.1341 129.958 41.9274 129.958ZM50.016 129.958C50.8654 129.958 51.4767 130.271 51.85 130.896C52.2234 131.521 52.41 132.427 52.41 133.612C52.41 134.517 52.312 135.231 52.116 135.754C51.9294 136.267 51.6447 136.636 51.262 136.86C50.8794 137.075 50.394 137.182 49.806 137.182C49.3394 137.182 48.882 137.117 48.434 136.986C47.9954 136.846 47.5894 136.631 47.216 136.342L47.328 135.502C47.692 135.605 48.0187 135.693 48.308 135.768C48.5974 135.843 48.9147 135.88 49.26 135.88C49.6054 135.88 49.876 135.824 50.072 135.712C50.2774 135.591 50.4267 135.367 50.52 135.04C50.6134 134.713 50.66 134.242 50.66 133.626C50.66 133.019 50.618 132.548 50.534 132.212C50.45 131.876 50.31 131.643 50.114 131.512C49.9274 131.372 49.68 131.302 49.372 131.302C49.036 131.302 48.7187 131.377 48.42 131.526C48.1214 131.666 47.776 131.876 47.384 132.156L47.188 131.26C47.4027 131.008 47.6594 130.784 47.958 130.588C48.266 130.392 48.5974 130.238 48.952 130.126C49.3067 130.014 49.6614 129.958 50.016 129.958ZM47.118 130.126L47.286 131.456L47.44 131.652V136.09L47.37 136.258C47.398 136.529 47.4167 136.799 47.426 137.07C47.4354 137.35 47.44 137.635 47.44 137.924V139.73H45.746V130.126H47.118ZM56.2992 129.958C57.1392 129.958 57.8065 130.075 58.3012 130.308C58.8052 130.541 59.1645 130.924 59.3792 131.456C59.6032 131.988 59.7152 132.693 59.7152 133.57C59.7152 134.447 59.6032 135.152 59.3792 135.684C59.1645 136.207 58.8052 136.589 58.3012 136.832C57.8065 137.065 57.1392 137.182 56.2992 137.182C55.4778 137.182 54.8152 137.065 54.3112 136.832C53.8165 136.589 53.4572 136.207 53.2332 135.684C53.0092 135.152 52.8972 134.447 52.8972 133.57C52.8972 132.693 53.0092 131.988 53.2332 131.456C53.4572 130.924 53.8165 130.541 54.3112 130.308C54.8152 130.075 55.4778 129.958 56.2992 129.958ZM56.2992 131.246C55.8885 131.246 55.5618 131.316 55.3192 131.456C55.0858 131.587 54.9178 131.82 54.8152 132.156C54.7125 132.492 54.6612 132.963 54.6612 133.57C54.6612 134.177 54.7125 134.648 54.8152 134.984C54.9178 135.32 55.0858 135.553 55.3192 135.684C55.5618 135.815 55.8885 135.88 56.2992 135.88C56.7192 135.88 57.0505 135.815 57.2932 135.684C57.5358 135.553 57.7038 135.32 57.7972 134.984C57.8998 134.648 57.9512 134.177 57.9512 133.57C57.9512 132.963 57.8998 132.492 57.7972 132.156C57.7038 131.82 57.5358 131.587 57.2932 131.456C57.0505 131.316 56.7192 131.246 56.2992 131.246ZM61.7883 130.126L62.0123 131.47L62.1663 131.666V137H60.4723V130.126H61.7883ZM65.1483 129.958L64.9803 131.526H64.4903C64.1263 131.526 63.7576 131.587 63.3843 131.708C63.0109 131.829 62.5443 132.011 61.9843 132.254L61.8723 131.26C62.3576 130.849 62.8523 130.532 63.3563 130.308C63.8603 130.075 64.3456 129.958 64.8123 129.958H65.1483ZM67.7245 128.166V134.928C67.7245 135.217 67.7852 135.423 67.9065 135.544C68.0372 135.665 68.2565 135.726 68.5645 135.726H69.5165L69.6985 136.916C69.5398 136.963 69.3485 137.005 69.1245 137.042C68.9005 137.079 68.6812 137.103 68.4665 137.112C68.2518 137.131 68.0698 137.14 67.9205 137.14C67.3232 137.14 66.8565 136.981 66.5205 136.664C66.1938 136.337 66.0305 135.871 66.0305 135.264V128.166H67.7245ZM69.7685 130.126V131.302H64.8125V130.196L66.1565 130.126H69.7685Z" fill="#333839"/>
<path d="M90.3994 53.6045L53.7439 90.2501" stroke="white" stroke-width="6.29" stroke-miterlimit="10"/>
<path d="M90.3994 53.6045L53.7439 90.2501" stroke="#7369E6" stroke-width="3.42" stroke-miterlimit="10"/>
<path d="M8.6601 52.6616L6 50.0016L45.9905 10.0012" stroke="white" stroke-width="6.29" stroke-miterlimit="10"/>
<path d="M8.6601 52.6616L6 50.0016L45.9905 10.0012" stroke="#7369E6" stroke-width="3.42" stroke-miterlimit="10"/>
<path d="M68.6358 87.9313H31.3153L12 68.6358V31.3153L31.3153 12H68.6358L87.9512 31.3153V68.6358L68.6358 87.9313Z" fill="#7369E6"/>
<path d="M53.7421 90.2506L50.0002 94.0025L8.65979 52.6621" stroke="white" stroke-width="6.29" stroke-miterlimit="10"/>
<path d="M53.7421 90.2506L50.0002 94.0025L8.65979 52.6621" stroke="#7369E6" stroke-width="3.42" stroke-miterlimit="10"/>
<path d="M45.9896 10L49.9996 6L94.0001 50.0004L90.397 53.6034" stroke="white" stroke-width="6.29" stroke-miterlimit="10"/>
<path d="M45.9896 10L49.9996 6L94.0001 50.0004L90.397 53.6034" stroke="#7369E6" stroke-width="3.42" stroke-miterlimit="10"/>
<path d="M64.5367 49.0094H54.8351C54.7818 48.4524 54.7277 47.9026 54.6736 47.3536C54.5759 46.2912 54.4823 45.2287 54.3813 44.1671C54.3313 43.6407 54.4895 43.4502 55.003 43.4502C58.1246 43.4502 61.2463 43.4502 64.368 43.4502C64.8725 43.4502 65.038 43.6351 64.9928 44.1364C64.8529 45.6703 64.7135 47.2043 64.5746 48.7382C64.5698 48.8254 64.5512 48.9126 64.5367 49.0094ZM59.7024 45.8722C59.6395 45.8697 59.5768 45.8797 59.5178 45.9016C59.4588 45.9235 59.4047 45.9569 59.3587 45.9999C59.3127 46.0428 59.2756 46.0944 59.2497 46.1518C59.2237 46.2091 59.2094 46.2711 59.2075 46.334C59.2074 46.461 59.2561 46.5832 59.3435 46.6753C59.431 46.7675 59.5505 46.8224 59.6774 46.8289C59.8044 46.8294 59.9267 46.7808 60.0186 46.6932C60.1105 46.6056 60.165 46.4859 60.1707 46.359C60.1726 46.2961 60.162 46.2334 60.1393 46.1747C60.1167 46.116 60.0826 46.0624 60.039 46.017C59.9954 45.9717 59.9431 45.9355 59.8853 45.9106C59.8275 45.8858 59.7653 45.8727 59.7024 45.8722Z" fill="white"/>
<path d="M46.1563 61.8339H36.4644C36.4313 61.5255 36.3958 61.2203 36.3675 60.9144C36.2464 59.6011 36.1264 58.2876 36.0074 56.9738C35.9606 56.4603 36.1301 56.2747 36.6533 56.2747C39.7663 56.2747 42.8791 56.2747 45.9916 56.2747C46.476 56.2747 46.6641 56.4668 46.6222 56.9334C46.4822 58.4878 46.3412 60.0419 46.1991 61.5957C46.1894 61.6644 46.1733 61.733 46.1563 61.8339ZM41.7927 59.1826C41.7938 59.0553 41.7447 58.9326 41.656 58.8412C41.5673 58.7498 41.4462 58.697 41.3188 58.6942C41.1924 58.6942 41.071 58.7435 40.9805 58.8318C40.89 58.92 40.8376 59.0401 40.8344 59.1665C40.8331 59.2939 40.882 59.4166 40.9706 59.5082C41.0591 59.5998 41.1802 59.6528 41.3075 59.6557C41.4342 59.656 41.5559 59.6066 41.6466 59.5182C41.7373 59.4297 41.7898 59.3093 41.7927 59.1826Z" fill="white"/>
<path d="M48.5654 54.8021C48.5654 53.8858 48.5654 52.9703 48.5654 52.0572C48.5654 51.6067 48.7325 51.4437 49.1871 51.4429C50.214 51.4429 51.2409 51.4477 52.2678 51.4388C52.3827 51.4328 52.4975 51.4518 52.6043 51.4943C52.7112 51.5368 52.8076 51.6018 52.887 51.6851C53.2907 52.0887 53.7234 52.473 54.1117 52.896C54.2562 53.0548 54.343 53.2576 54.358 53.4717C54.379 54.8506 54.3709 56.2295 54.3685 57.6084C54.3685 58.0419 54.1989 58.2131 53.767 58.2139C52.2363 58.2139 50.7062 58.2139 49.1766 58.2139C48.7309 58.2139 48.5662 58.0419 48.5654 57.585C48.5638 56.6533 48.5654 55.7281 48.5654 54.8021ZM51.4427 54.8231C51.7657 54.8231 52.0886 54.8288 52.4059 54.8231C52.7231 54.8175 52.9113 54.6366 52.9169 54.3525C52.9226 54.0683 52.7353 53.8681 52.426 53.8624C51.784 53.8538 51.1419 53.8538 50.4998 53.8624C50.4364 53.8584 50.3728 53.8678 50.3132 53.8898C50.2536 53.9118 50.1993 53.946 50.1537 53.9903C50.1081 54.0345 50.0722 54.0878 50.0484 54.1467C50.0246 54.2056 50.0133 54.2688 50.0154 54.3323C50.0097 54.6173 50.1978 54.8167 50.507 54.8223C50.8162 54.828 51.1311 54.8231 51.4427 54.8231ZM51.4774 56.7607C51.7794 56.7607 52.0821 56.7656 52.3841 56.7607C52.7183 56.7543 52.9153 56.5645 52.9096 56.2691C52.904 55.9736 52.7135 55.8008 52.3946 55.7976C51.7805 55.7911 51.1663 55.7911 50.5522 55.7976C50.218 55.7976 50.0202 55.9938 50.0259 56.2892C50.0323 56.5726 50.2237 56.7543 50.5409 56.7607C50.8582 56.7672 51.1658 56.7575 51.4807 56.7575L51.4774 56.7607Z" fill="white"/>
<path d="M41.3148 53.1381C40.6112 53.1398 39.9356 52.8625 39.4362 52.3668C38.9368 51.8712 38.6543 51.1977 38.6506 50.4941C38.6504 50.1433 38.7194 49.7958 38.8536 49.4717C38.9878 49.1475 39.1845 48.853 39.4327 48.6049C39.6808 48.3569 39.9754 48.1602 40.2996 48.0261C40.6238 47.892 40.9712 47.8232 41.3221 47.8235C42.0254 47.8284 42.6983 48.1112 43.1939 48.6103C43.6896 49.1094 43.9677 49.7843 43.9677 50.4877C43.9666 51.1907 43.6867 51.8646 43.1894 52.3615C42.692 52.8584 42.0178 53.1377 41.3148 53.1381Z" fill="white"/>
<path d="M62.3488 37.6602C62.3469 38.3624 62.0678 39.0355 61.5722 39.5331C61.0766 40.0306 60.4046 40.3124 59.7024 40.3171C58.9953 40.3167 58.3173 40.036 57.8167 39.5367C57.3161 39.0373 57.0339 38.36 57.0317 37.6529C57.0347 36.9509 57.3146 36.2785 57.8106 35.7817C58.3066 35.285 58.9786 35.0041 59.6806 35C60.0308 34.9983 60.3778 35.0659 60.7018 35.1989C61.0258 35.3319 61.3202 35.5276 61.5682 35.7749C61.8162 36.0221 62.0129 36.316 62.1468 36.6396C62.2808 36.9631 62.3494 37.31 62.3488 37.6602Z" fill="white"/>
<path d="M52.5875 37.0845C52.4397 36.8423 52.3057 36.634 52.1773 36.4201C51.9941 36.1133 52.0377 35.8315 52.2871 35.6806C52.5366 35.5296 52.7974 35.5998 52.9814 35.8905C53.3297 36.4325 53.6717 36.978 54.0076 37.5269C54.1965 37.8378 54.1392 38.0678 53.8251 38.2713C53.2933 38.6152 52.7573 38.9529 52.2169 39.2845C51.9174 39.4694 51.6324 39.4169 51.4798 39.1658C51.3272 38.9147 51.4104 38.6572 51.7172 38.457C51.894 38.3423 52.0732 38.2309 52.25 38.1155C52.2613 38.1074 52.2597 38.08 52.2847 37.9807C51.4774 37.9572 50.687 37.8749 49.9031 37.9225C46.7021 38.1155 43.9991 39.3951 41.85 41.7824C41.3551 42.3321 40.9676 42.978 40.5212 43.5722C40.4227 43.7046 40.2992 43.8814 40.1635 43.9056C40.0737 43.9141 39.9831 43.9046 39.8969 43.8779C39.8107 43.8512 39.7306 43.8076 39.6614 43.7498C39.4878 43.5956 39.5241 43.3696 39.6436 43.1677C40.2234 42.1635 40.9445 41.2478 41.7846 40.4486C44.3681 38.0202 47.4322 36.852 50.9769 36.944C51.4968 36.957 52.0159 37.0329 52.5875 37.0845Z" fill="white"/>
<path d="M51.7317 62.0527C51.9473 62.2521 52.1443 62.4232 52.3283 62.6081C52.5447 62.8237 52.5536 63.1087 52.3647 63.3065C52.1758 63.5043 51.9142 63.5172 51.6881 63.3178C51.1822 62.8721 50.6827 62.4189 50.1897 61.9582C49.9621 61.7459 49.9475 61.4956 50.1574 61.2607C50.6031 60.7542 51.0563 60.2548 51.517 59.7623C51.5576 59.7138 51.6074 59.674 51.6636 59.645C51.7198 59.6161 51.7812 59.5987 51.8442 59.5938C51.9072 59.5889 51.9706 59.5967 52.0306 59.6166C52.0906 59.6365 52.146 59.6682 52.1935 59.7098C52.4042 59.8915 52.4188 60.1603 52.2242 60.4106C52.1435 60.5139 52.0506 60.6068 51.9626 60.7036C51.8598 60.8035 51.7775 60.9225 51.7204 61.054C52.1241 60.987 52.5374 60.941 52.9371 60.849C56.1771 60.103 58.6766 58.3183 60.4355 55.4948C60.4678 55.4439 60.4969 55.3906 60.5308 55.3406C60.7189 55.0629 60.9837 54.9886 61.2267 55.1436C61.4697 55.2986 61.5311 55.569 61.3551 55.833C60.9587 56.4256 60.5792 57.0368 60.1199 57.5793C58.024 60.0551 55.3642 61.5166 52.1402 61.9639C52.0304 61.9792 51.9206 61.9962 51.8117 62.0131C51.7839 62.024 51.7572 62.0372 51.7317 62.0527Z" fill="white"/>
<path d="M45.6679 43.7136H52.4324C52.4324 44.3845 52.4462 45.0449 52.426 45.7045C52.4179 45.9782 52.1959 46.1195 51.8608 46.1195C50.4421 46.1195 49.0231 46.1195 47.6038 46.1195C47.1509 46.1195 46.698 46.1195 46.2451 46.1195C45.8503 46.1195 45.6743 45.9427 45.6711 45.5487C45.6606 44.9464 45.6679 44.3441 45.6679 43.7136Z" fill="white"/>
<path d="M46.6101 62.8382C46.5818 63.5252 46.0837 64.0056 45.3918 64.0088C44.0831 64.0153 42.7737 64.0088 41.465 64.0088C40.0554 64.0088 38.645 64.0088 37.2354 64.0088C36.5403 64.0088 36.0535 63.5414 36.0099 62.8374L46.6101 62.8382Z" fill="white"/>
<path d="M54.387 49.9985H64.9775C64.9854 50.2557 64.9053 50.508 64.7504 50.7135C64.5955 50.919 64.3752 51.0655 64.1257 51.1288C63.9791 51.165 63.8287 51.1831 63.6777 51.1829C61.0194 51.1829 58.3609 51.1829 55.7021 51.1829C54.9279 51.1845 54.4378 50.7445 54.387 49.9985Z" fill="white"/>
<path d="M63.9208 42.4711H55.4939C55.5334 42.3969 55.5782 42.3257 55.6279 42.2579C56.2576 41.5168 57.0537 41.0728 58.0305 41.0469C59.1357 41.0146 60.2442 41.0114 61.3494 41.0469C62.407 41.0792 63.2394 41.579 63.9208 42.4711Z" fill="white"/>
<path d="M45.6679 42.7156C45.6679 42.2312 45.6606 41.7678 45.6679 41.3052C45.6736 40.9992 45.8568 40.8079 46.1523 40.8046C46.9475 40.7966 47.7435 40.7909 48.5388 40.8119C48.6227 40.817 48.7047 40.8387 48.7801 40.8758C48.8556 40.913 48.9228 40.9648 48.9779 41.0283C49.4454 41.6741 50.0565 41.8897 50.8299 41.7775C51.1351 41.7331 51.4532 41.7694 51.7648 41.7702C52.2831 41.7702 52.4333 41.9187 52.4333 42.4282V42.7156H45.6679Z" fill="white"/>
<path d="M37.0925 55.285C37.7755 54.3896 38.6361 53.9012 39.7123 53.8665C40.7885 53.8318 41.8469 53.8334 42.9125 53.8665C43.9903 53.8996 44.8501 54.3913 45.5315 55.285H37.0925Z" fill="white"/>
</svg>
