<svg width="98" height="150" viewBox="0 0 98 150" fill="none" xmlns="http://www.w3.org/2000/svg">
<path d="M14.9355 108.228C15.7569 108.228 16.4102 108.303 16.8955 108.452C17.3809 108.592 17.7309 108.844 17.9455 109.208C18.1695 109.572 18.2815 110.085 18.2815 110.748C18.2815 111.439 18.1509 111.966 17.8895 112.33C17.6282 112.694 17.1989 112.904 16.6015 112.96V113.016C17.3389 113.081 17.8522 113.333 18.1415 113.772C18.4402 114.211 18.5895 114.817 18.5895 115.592C18.5895 116.255 18.4775 116.768 18.2535 117.132C18.0389 117.496 17.6935 117.753 17.2175 117.902C16.7509 118.042 16.1395 118.112 15.3835 118.112C14.7955 118.112 14.2822 118.107 13.8435 118.098C13.4049 118.098 13.0035 118.089 12.6395 118.07C12.2755 118.051 11.8975 118.028 11.5055 118L11.7015 116.726C11.9255 116.735 12.3409 116.745 12.9475 116.754C13.5542 116.763 14.2682 116.768 15.0895 116.768C15.5282 116.768 15.8735 116.731 16.1255 116.656C16.3775 116.572 16.5549 116.423 16.6575 116.208C16.7695 115.984 16.8255 115.671 16.8255 115.27C16.8255 114.822 16.7695 114.481 16.6575 114.248C16.5455 114.005 16.3589 113.837 16.0975 113.744C15.8455 113.641 15.4862 113.59 15.0195 113.59H11.6875V112.4H15.0055C15.4069 112.4 15.7195 112.363 15.9435 112.288C16.1769 112.204 16.3449 112.059 16.4475 111.854C16.5502 111.649 16.6015 111.355 16.6015 110.972C16.6015 110.589 16.5455 110.295 16.4335 110.09C16.3309 109.885 16.1535 109.749 15.9015 109.684C15.6495 109.609 15.2995 109.572 14.8515 109.572C14.3569 109.572 13.9182 109.572 13.5355 109.572C13.1529 109.572 12.8122 109.577 12.5135 109.586C12.2149 109.586 11.9442 109.595 11.7015 109.614L11.5055 108.34C11.8602 108.303 12.1962 108.279 12.5135 108.27C12.8402 108.251 13.1949 108.242 13.5775 108.242C13.9695 108.233 14.4222 108.228 14.9355 108.228ZM13.2135 108.34V118H11.5055V108.34H13.2135ZM24.0362 108.34V118H22.2862V108.34H24.0362ZM27.0322 108.34V109.768H19.2902V108.34H27.0322ZM34.7693 108.34C34.9186 108.34 35.0493 108.382 35.1613 108.466C35.2733 108.55 35.3526 108.662 35.3993 108.802L38.3253 118H36.5333L34.3213 110.552C34.2839 110.403 34.2466 110.253 34.2093 110.104C34.1719 109.955 34.1393 109.81 34.1113 109.67H33.7193C33.6913 109.81 33.6586 109.955 33.6213 110.104C33.5839 110.253 33.5419 110.403 33.4953 110.552L31.2973 118H29.5053L32.4313 108.802C32.4686 108.662 32.5433 108.55 32.6553 108.466C32.7766 108.382 32.9119 108.34 33.0613 108.34H34.7693ZM36.3933 113.87V115.242H31.4233V113.87H36.3933ZM43.4724 110.958C44.3217 110.958 44.933 111.271 45.3064 111.896C45.6797 112.521 45.8664 113.427 45.8664 114.612C45.8664 115.517 45.7684 116.231 45.5724 116.754C45.3857 117.267 45.101 117.636 44.7184 117.86C44.3357 118.075 43.8504 118.182 43.2624 118.182C42.7957 118.182 42.3384 118.117 41.8904 117.986C41.4517 117.846 41.0457 117.631 40.6724 117.342L40.7844 116.502C41.1484 116.605 41.475 116.693 41.7644 116.768C42.0537 116.843 42.371 116.88 42.7164 116.88C43.0617 116.88 43.3324 116.824 43.5284 116.712C43.7337 116.591 43.883 116.367 43.9764 116.04C44.0697 115.713 44.1164 115.242 44.1164 114.626C44.1164 114.019 44.0744 113.548 43.9904 113.212C43.9064 112.876 43.7664 112.643 43.5704 112.512C43.3837 112.372 43.1364 112.302 42.8284 112.302C42.4924 112.302 42.175 112.377 41.8764 112.526C41.5777 112.666 41.2324 112.876 40.8404 113.156L40.6444 112.26C40.859 112.008 41.1157 111.784 41.4144 111.588C41.7224 111.392 42.0537 111.238 42.4084 111.126C42.763 111.014 43.1177 110.958 43.4724 110.958ZM40.5744 111.126L40.7424 112.456L40.8964 112.652V117.09L40.8264 117.258C40.8544 117.529 40.873 117.799 40.8824 118.07C40.8917 118.35 40.8964 118.635 40.8964 118.924V120.73H39.2024V111.126H40.5744ZM51.6175 110.958C52.4668 110.958 53.0782 111.271 53.4515 111.896C53.8248 112.521 54.0115 113.427 54.0115 114.612C54.0115 115.517 53.9135 116.231 53.7175 116.754C53.5308 117.267 53.2462 117.636 52.8635 117.86C52.4808 118.075 51.9955 118.182 51.4075 118.182C50.9408 118.182 50.4835 118.117 50.0355 117.986C49.5968 117.846 49.1908 117.631 48.8175 117.342L48.9295 116.502C49.2935 116.605 49.6202 116.693 49.9095 116.768C50.1988 116.843 50.5162 116.88 50.8615 116.88C51.2068 116.88 51.4775 116.824 51.6735 116.712C51.8788 116.591 52.0282 116.367 52.1215 116.04C52.2148 115.713 52.2615 115.242 52.2615 114.626C52.2615 114.019 52.2195 113.548 52.1355 113.212C52.0515 112.876 51.9115 112.643 51.7155 112.512C51.5288 112.372 51.2815 112.302 50.9735 112.302C50.6375 112.302 50.3202 112.377 50.0215 112.526C49.7228 112.666 49.3775 112.876 48.9855 113.156L48.7895 112.26C49.0042 112.008 49.2608 111.784 49.5595 111.588C49.8675 111.392 50.1988 111.238 50.5535 111.126C50.9082 111.014 51.2628 110.958 51.6175 110.958ZM48.7195 111.126L48.8875 112.456L49.0415 112.652V117.09L48.9715 117.258C48.9995 117.529 49.0182 117.799 49.0275 118.07C49.0368 118.35 49.0415 118.635 49.0415 118.924V120.73H47.3475V111.126H48.7195ZM56.8087 111.126L57.0327 112.47L57.1867 112.666V118H55.4927V111.126H56.8087ZM60.1687 110.958L60.0007 112.526H59.5107C59.1467 112.526 58.778 112.587 58.4047 112.708C58.0313 112.829 57.5647 113.011 57.0047 113.254L56.8927 112.26C57.378 111.849 57.8727 111.532 58.3767 111.308C58.8807 111.075 59.366 110.958 59.8327 110.958H60.1687ZM64.1482 110.958C64.9882 110.958 65.6555 111.075 66.1502 111.308C66.6542 111.541 67.0135 111.924 67.2282 112.456C67.4522 112.988 67.5642 113.693 67.5642 114.57C67.5642 115.447 67.4522 116.152 67.2282 116.684C67.0135 117.207 66.6542 117.589 66.1502 117.832C65.6555 118.065 64.9882 118.182 64.1482 118.182C63.3268 118.182 62.6642 118.065 62.1602 117.832C61.6655 117.589 61.3062 117.207 61.0822 116.684C60.8582 116.152 60.7462 115.447 60.7462 114.57C60.7462 113.693 60.8582 112.988 61.0822 112.456C61.3062 111.924 61.6655 111.541 62.1602 111.308C62.6642 111.075 63.3268 110.958 64.1482 110.958ZM64.1482 112.246C63.7375 112.246 63.4108 112.316 63.1682 112.456C62.9348 112.587 62.7668 112.82 62.6642 113.156C62.5615 113.492 62.5102 113.963 62.5102 114.57C62.5102 115.177 62.5615 115.648 62.6642 115.984C62.7668 116.32 62.9348 116.553 63.1682 116.684C63.4108 116.815 63.7375 116.88 64.1482 116.88C64.5682 116.88 64.8995 116.815 65.1422 116.684C65.3848 116.553 65.5528 116.32 65.6462 115.984C65.7488 115.648 65.8002 115.177 65.8002 114.57C65.8002 113.963 65.7488 113.492 65.6462 113.156C65.5528 112.82 65.3848 112.587 65.1422 112.456C64.8995 112.316 64.5682 112.246 64.1482 112.246ZM75.4919 111.126L73.1259 117.594C73.0792 117.715 73.0046 117.813 72.9019 117.888C72.8086 117.963 72.6919 118 72.5519 118H71.0679C70.9372 118 70.8206 117.963 70.7179 117.888C70.6152 117.813 70.5406 117.715 70.4939 117.594L68.1279 111.126H69.9339L71.3759 115.634C71.4412 115.839 71.5019 116.049 71.5579 116.264C71.6139 116.469 71.6652 116.67 71.7119 116.866H71.8939C71.9592 116.661 72.0199 116.455 72.0759 116.25C72.1412 116.045 72.2019 115.839 72.2579 115.634L73.6999 111.126H75.4919ZM79.8588 110.958C80.4095 110.958 80.8715 111.033 81.2448 111.182C81.6275 111.322 81.9168 111.565 82.1128 111.91C82.3088 112.255 82.4068 112.731 82.4068 113.338V118H81.0628L80.8248 116.516L80.6988 116.32V113.324C80.6988 112.96 80.6148 112.699 80.4468 112.54C80.2788 112.372 79.9568 112.288 79.4808 112.288C79.1261 112.288 78.6781 112.302 78.1368 112.33C77.6048 112.358 77.0681 112.395 76.5268 112.442L76.3728 111.28C76.6995 111.215 77.0681 111.159 77.4788 111.112C77.8895 111.065 78.3048 111.028 78.7248 111C79.1448 110.972 79.5228 110.958 79.8588 110.958ZM81.6788 113.772L81.6648 114.822H78.5148C78.2348 114.831 78.0341 114.906 77.9128 115.046C77.7915 115.186 77.7308 115.377 77.7308 115.62V115.998C77.7308 116.278 77.8055 116.493 77.9548 116.642C78.1041 116.782 78.3375 116.852 78.6548 116.852C78.9068 116.852 79.1868 116.801 79.4948 116.698C79.8028 116.595 80.1061 116.446 80.4048 116.25C80.7128 116.054 80.9881 115.821 81.2308 115.55V116.432C81.1375 116.572 81.0021 116.74 80.8248 116.936C80.6475 117.123 80.4281 117.309 80.1668 117.496C79.9148 117.683 79.6208 117.837 79.2848 117.958C78.9581 118.079 78.5941 118.14 78.1928 118.14C77.7821 118.14 77.4135 118.07 77.0868 117.93C76.7601 117.781 76.5035 117.566 76.3168 117.286C76.1301 116.997 76.0368 116.642 76.0368 116.222V115.494C76.0368 114.953 76.2141 114.533 76.5688 114.234C76.9328 113.926 77.4275 113.772 78.0528 113.772H81.6788ZM85.8164 108.2L85.8024 115.928C85.8024 116.189 85.8771 116.39 86.0264 116.53C86.1758 116.661 86.3904 116.726 86.6704 116.726H87.2724L87.4684 117.916C87.3658 117.963 87.2211 118.005 87.0344 118.042C86.8571 118.079 86.6704 118.103 86.4744 118.112C86.2878 118.131 86.1244 118.14 85.9844 118.14C85.4151 118.14 84.9624 117.986 84.6264 117.678C84.2904 117.37 84.1224 116.927 84.1224 116.348V108.2H85.8164ZM41.3133 129.126L38.9473 135.594C38.9006 135.715 38.826 135.813 38.7233 135.888C38.63 135.963 38.5133 136 38.3733 136H36.8893C36.7586 136 36.642 135.963 36.5393 135.888C36.4366 135.813 36.362 135.715 36.3153 135.594L33.9493 129.126H35.7553L37.1973 133.634C37.2626 133.839 37.3233 134.049 37.3793 134.264C37.4353 134.469 37.4866 134.67 37.5333 134.866H37.7153C37.7806 134.661 37.8413 134.455 37.8973 134.25C37.9626 134.045 38.0233 133.839 38.0793 133.634L39.5213 129.126H41.3133ZM44.0402 129.126V136H42.3602V129.126H44.0402ZM43.5782 126.144C43.9142 126.144 44.0822 126.312 44.0822 126.648V127.432C44.0822 127.768 43.9142 127.936 43.5782 127.936H42.8222C42.4862 127.936 42.3182 127.768 42.3182 127.432V126.648C42.3182 126.312 42.4862 126.144 42.8222 126.144H43.5782ZM48.9216 128.958C50.0323 128.958 50.8303 129.154 51.3156 129.546C51.801 129.929 52.0483 130.498 52.0576 131.254C52.067 131.879 51.9176 132.355 51.6096 132.682C51.311 132.999 50.8116 133.158 50.1116 133.158H46.1916V132.108H49.6496C49.967 132.108 50.1676 132.024 50.2516 131.856C50.345 131.688 50.3916 131.483 50.3916 131.24C50.3823 130.857 50.2703 130.591 50.0556 130.442C49.8503 130.293 49.4956 130.218 48.9916 130.218C48.553 130.218 48.2123 130.279 47.9696 130.4C47.727 130.521 47.5543 130.741 47.4516 131.058C47.3583 131.375 47.3116 131.833 47.3116 132.43C47.3116 133.065 47.3723 133.555 47.4936 133.9C47.615 134.245 47.8156 134.483 48.0956 134.614C48.3756 134.735 48.749 134.796 49.2156 134.796C49.561 134.796 49.9576 134.782 50.4056 134.754C50.863 134.726 51.3016 134.689 51.7216 134.642L51.8896 135.72C51.6376 135.823 51.3483 135.907 51.0216 135.972C50.695 136.037 50.3543 136.084 49.9996 136.112C49.6543 136.149 49.3276 136.168 49.0196 136.168C48.1796 136.168 47.503 136.047 46.9896 135.804C46.4856 135.552 46.117 135.16 45.8836 134.628C45.6596 134.096 45.5476 133.41 45.5476 132.57C45.5476 131.665 45.6596 130.951 45.8836 130.428C46.117 129.896 46.481 129.518 46.9756 129.294C47.4796 129.07 48.1283 128.958 48.9216 128.958ZM63.9406 129.126L62.1206 135.552C62.0832 135.683 62.0086 135.79 61.8966 135.874C61.7846 135.958 61.6539 136 61.5046 136H60.1466C59.9972 136 59.8619 135.953 59.7406 135.86C59.6192 135.767 59.5492 135.641 59.5306 135.482L58.6206 131.268C58.5832 131.081 58.5506 130.895 58.5226 130.708C58.5039 130.521 58.4759 130.335 58.4386 130.148H58.2566C58.2286 130.335 58.1959 130.521 58.1586 130.708C58.1306 130.895 58.0979 131.081 58.0606 131.268L57.1646 135.482C57.1366 135.641 57.0619 135.767 56.9406 135.86C56.8286 135.953 56.6932 136 56.5346 136H55.1906C55.0412 136 54.9106 135.958 54.7986 135.874C54.6866 135.79 54.6166 135.683 54.5886 135.552L52.7546 129.126H54.4766L55.6246 133.844C55.6619 134.021 55.6946 134.203 55.7226 134.39C55.7599 134.567 55.7926 134.745 55.8206 134.922H55.9886C56.0352 134.745 56.0726 134.567 56.1006 134.39C56.1379 134.203 56.1752 134.021 56.2126 133.844L57.1226 129.644C57.1506 129.495 57.2159 129.373 57.3186 129.28C57.4306 129.177 57.5706 129.126 57.7386 129.126H58.9706C59.1199 129.126 59.2506 129.177 59.3626 129.28C59.4746 129.373 59.5446 129.499 59.5726 129.658L60.4826 133.844C60.5106 134.021 60.5432 134.199 60.5806 134.376C60.6272 134.553 60.6646 134.735 60.6926 134.922H60.8606C60.8979 134.735 60.9306 134.558 60.9586 134.39C60.9866 134.213 61.0239 134.031 61.0706 133.844L62.2186 129.126H63.9406Z" fill="#333839"/>
<path d="M89.3995 52.6044L52.744 89.2499" stroke="white" stroke-width="6.29" stroke-miterlimit="10"/>
<path d="M89.3995 52.6044L52.744 89.2499" stroke="#CD7EAD" stroke-width="3.42" stroke-miterlimit="10"/>
<path d="M7.6601 51.6618L5 49.0017L44.9905 9.00134" stroke="white" stroke-width="6.29" stroke-miterlimit="10"/>
<path d="M7.6601 51.6618L5 49.0017L44.9905 9.00134" stroke="#CD7EAD" stroke-width="3.42" stroke-miterlimit="10"/>
<path d="M67.6359 86.9313H30.3154L11 67.6358V30.3153L30.3154 11H67.6359L86.9512 30.3153V67.6358L67.6359 86.9313Z" fill="#CD7EAD"/>
<path d="M52.7421 89.2507L49.0002 93.0026L7.65977 51.6622" stroke="white" stroke-width="6.29" stroke-miterlimit="10"/>
<path d="M52.7421 89.2507L49.0002 93.0026L7.65977 51.6622" stroke="#CD7EAD" stroke-width="3.42" stroke-miterlimit="10"/>
<path d="M44.9896 9.00004L48.9995 5L93 49.0004L89.397 52.6034" stroke="white" stroke-width="6.29" stroke-miterlimit="10"/>
<path d="M44.9896 9.00004L48.9995 5L93 49.0004L89.397 52.6034" stroke="#CD7EAD" stroke-width="3.42" stroke-miterlimit="10"/>
<g clip-path="url(#clip0_471_7659)">
<path d="M56.5 49C52.3575 49 49 52.3575 49 56.5C49 60.6425 52.3575 64 56.5 64C60.6425 64 64 60.6425 64 56.5C64 52.3575 60.6425 49 56.5 49ZM60.49 56.7525L57.7238 59.4075C57.1588 59.965 56.4088 60.2462 55.6575 60.2462C54.9063 60.2462 54.1538 59.965 53.5788 59.4037L52.1638 58.0175C51.67 57.5338 51.6638 56.7425 52.1463 56.25C52.6288 55.755 53.42 55.7487 53.9137 56.2325L55.3275 57.6175C55.5075 57.795 55.8012 57.7913 55.98 57.615L58.7587 54.9475C59.255 54.47 60.0475 54.4838 60.5263 54.9838C61.0038 55.4813 60.9875 56.2737 60.49 56.7525ZM46.5 56.5C46.5 53.5125 47.81 50.8325 49.8862 49H40.25C39.5588 49 39 48.4412 39 47.75C39 47.0588 39.5588 46.5 40.25 46.5H50.25C50.9412 46.5 51.5 47.0588 51.5 47.75C51.5 47.78 51.4987 47.81 51.4962 47.84C52.9675 46.9875 54.6763 46.5 56.5 46.5V40.25C56.5 36.8038 53.6962 34 50.25 34H40.25C36.8038 34 34 36.8038 34 40.25V57.75C34 61.1962 36.8038 64 40.25 64H49.8862C47.81 62.1675 46.5 59.4875 46.5 56.5ZM40.25 40.25H50.25C50.9412 40.25 51.5 40.8088 51.5 41.5C51.5 42.1912 50.9412 42.75 50.25 42.75H40.25C39.5588 42.75 39 42.1912 39 41.5C39 40.8088 39.5588 40.25 40.25 40.25ZM42.75 55.25H40.25C39.5588 55.25 39 54.6912 39 54C39 53.3088 39.5588 52.75 40.25 52.75H42.75C43.4412 52.75 44 53.3088 44 54C44 54.6912 43.4412 55.25 42.75 55.25Z" fill="white"/>
</g>
<defs>
<clipPath id="clip0_471_7659">
<rect width="30" height="30" fill="white" transform="translate(34 34)"/>
</clipPath>
</defs>
</svg>
