<svg width="98" height="150" viewBox="0 0 98 150" fill="none" xmlns="http://www.w3.org/2000/svg">
<path d="M25.4596 108.453C26.2809 108.453 26.9343 108.528 27.4196 108.677C27.9049 108.817 28.2549 109.069 28.4696 109.433C28.6936 109.797 28.8056 110.31 28.8056 110.973C28.8056 111.664 28.6749 112.191 28.4136 112.555C28.1523 112.919 27.7229 113.129 27.1256 113.185V113.241C27.8629 113.306 28.3763 113.558 28.6656 113.997C28.9643 114.436 29.1136 115.042 29.1136 115.817C29.1136 116.48 29.0016 116.993 28.7776 117.357C28.5629 117.721 28.2176 117.978 27.7416 118.127C27.2749 118.267 26.6636 118.337 25.9076 118.337C25.3196 118.337 24.8063 118.332 24.3676 118.323C23.9289 118.323 23.5276 118.314 23.1636 118.295C22.7996 118.276 22.4216 118.253 22.0296 118.225L22.2256 116.951C22.4496 116.96 22.8649 116.97 23.4716 116.979C24.0783 116.988 24.7923 116.993 25.6136 116.993C26.0523 116.993 26.3976 116.956 26.6496 116.881C26.9016 116.797 27.0789 116.648 27.1816 116.433C27.2936 116.209 27.3496 115.896 27.3496 115.495C27.3496 115.047 27.2936 114.706 27.1816 114.473C27.0696 114.23 26.8829 114.062 26.6216 113.969C26.3696 113.866 26.0103 113.815 25.5436 113.815H22.2116V112.625H25.5296C25.9309 112.625 26.2436 112.588 26.4676 112.513C26.7009 112.429 26.8689 112.284 26.9716 112.079C27.0743 111.874 27.1256 111.58 27.1256 111.197C27.1256 110.814 27.0696 110.52 26.9576 110.315C26.8549 110.11 26.6776 109.974 26.4256 109.909C26.1736 109.834 25.8236 109.797 25.3756 109.797C24.8809 109.797 24.4423 109.797 24.0596 109.797C23.6769 109.797 23.3363 109.802 23.0376 109.811C22.7389 109.811 22.4683 109.82 22.2256 109.839L22.0296 108.565C22.3843 108.528 22.7203 108.504 23.0376 108.495C23.3643 108.476 23.7189 108.467 24.1016 108.467C24.4936 108.458 24.9463 108.453 25.4596 108.453ZM23.7376 108.565V118.225H22.0296V108.565H23.7376ZM34.5603 108.565V118.225H32.8103V108.565H34.5603ZM37.5563 108.565V109.993H29.8143V108.565H37.5563ZM51.5055 108.565L48.7475 117.735C48.7008 117.875 48.6215 117.992 48.5095 118.085C48.3975 118.178 48.2622 118.225 48.1035 118.225H46.4515C46.2928 118.225 46.1575 118.178 46.0455 118.085C45.9335 117.992 45.8588 117.875 45.8215 117.735L43.0635 108.565H44.8695L46.8435 115.831C46.8902 116.008 46.9368 116.186 46.9835 116.363C47.0302 116.54 47.0675 116.718 47.0955 116.895H47.4595C47.5062 116.718 47.5482 116.54 47.5855 116.363C47.6322 116.176 47.6788 115.994 47.7255 115.817L49.6995 108.565H51.5055ZM54.2209 111.351V118.225H52.5409V111.351H54.2209ZM53.7589 108.369C54.0949 108.369 54.2629 108.537 54.2629 108.873V109.657C54.2629 109.993 54.0949 110.161 53.7589 110.161H53.0029C52.6669 110.161 52.4989 109.993 52.4989 109.657V108.873C52.4989 108.537 52.6669 108.369 53.0029 108.369H53.7589ZM59.1023 111.183C60.2129 111.183 61.0109 111.379 61.4963 111.771C61.9816 112.154 62.2289 112.723 62.2383 113.479C62.2476 114.104 62.0983 114.58 61.7903 114.907C61.4916 115.224 60.9923 115.383 60.2923 115.383H56.3723V114.333H59.8303C60.1476 114.333 60.3483 114.249 60.4323 114.081C60.5256 113.913 60.5723 113.708 60.5723 113.465C60.5629 113.082 60.4509 112.816 60.2363 112.667C60.0309 112.518 59.6763 112.443 59.1723 112.443C58.7336 112.443 58.3929 112.504 58.1503 112.625C57.9076 112.746 57.7349 112.966 57.6323 113.283C57.5389 113.6 57.4923 114.058 57.4923 114.655C57.4923 115.29 57.5529 115.78 57.6743 116.125C57.7956 116.47 57.9963 116.708 58.2763 116.839C58.5563 116.96 58.9296 117.021 59.3963 117.021C59.7416 117.021 60.1383 117.007 60.5863 116.979C61.0436 116.951 61.4823 116.914 61.9023 116.867L62.0703 117.945C61.8183 118.048 61.5289 118.132 61.2023 118.197C60.8756 118.262 60.5349 118.309 60.1803 118.337C59.8349 118.374 59.5083 118.393 59.2003 118.393C58.3603 118.393 57.6836 118.272 57.1703 118.029C56.6663 117.777 56.2976 117.385 56.0643 116.853C55.8403 116.321 55.7283 115.635 55.7283 114.795C55.7283 113.89 55.8403 113.176 56.0643 112.653C56.2976 112.121 56.6616 111.743 57.1563 111.519C57.6603 111.295 58.3089 111.183 59.1023 111.183ZM74.1212 111.351L72.3012 117.777C72.2639 117.908 72.1892 118.015 72.0772 118.099C71.9652 118.183 71.8345 118.225 71.6852 118.225H70.3272C70.1779 118.225 70.0425 118.178 69.9212 118.085C69.7999 117.992 69.7299 117.866 69.7112 117.707L68.8012 113.493C68.7639 113.306 68.7312 113.12 68.7032 112.933C68.6845 112.746 68.6565 112.56 68.6192 112.373H68.4372C68.4092 112.56 68.3765 112.746 68.3392 112.933C68.3112 113.12 68.2785 113.306 68.2412 113.493L67.3452 117.707C67.3172 117.866 67.2425 117.992 67.1212 118.085C67.0092 118.178 66.8739 118.225 66.7152 118.225H65.3712C65.2219 118.225 65.0912 118.183 64.9792 118.099C64.8672 118.015 64.7972 117.908 64.7692 117.777L62.9352 111.351H64.6572L65.8052 116.069C65.8425 116.246 65.8752 116.428 65.9032 116.615C65.9405 116.792 65.9732 116.97 66.0012 117.147H66.1692C66.2159 116.97 66.2532 116.792 66.2812 116.615C66.3185 116.428 66.3559 116.246 66.3932 116.069L67.3032 111.869C67.3312 111.72 67.3965 111.598 67.4992 111.505C67.6112 111.402 67.7512 111.351 67.9192 111.351H69.1512C69.3005 111.351 69.4312 111.402 69.5432 111.505C69.6552 111.598 69.7252 111.724 69.7532 111.883L70.6632 116.069C70.6912 116.246 70.7239 116.424 70.7612 116.601C70.8079 116.778 70.8452 116.96 70.8732 117.147H71.0412C71.0785 116.96 71.1112 116.783 71.1392 116.615C71.1672 116.438 71.2045 116.256 71.2512 116.069L72.3992 111.351H74.1212ZM25.7386 126.411C26.0373 126.411 26.3826 126.42 26.7746 126.439C27.1666 126.448 27.5726 126.49 27.9926 126.565L27.7966 127.783C27.6846 127.774 27.5493 127.769 27.3906 127.769C27.232 127.76 27.0546 127.755 26.8586 127.755C26.6626 127.746 26.462 127.741 26.2566 127.741C26.0606 127.741 25.8693 127.741 25.6826 127.741C25.2066 127.741 24.8286 127.778 24.5486 127.853C24.278 127.918 24.082 128.054 23.9606 128.259C23.8486 128.464 23.7926 128.777 23.7926 129.197C23.7926 129.58 23.8393 129.878 23.9326 130.093C24.026 130.298 24.1846 130.443 24.4086 130.527C24.642 130.602 24.95 130.639 25.3326 130.639H30.8486L30.8346 131.829H25.2486C24.8286 131.829 24.4926 131.88 24.2406 131.983C23.998 132.076 23.8253 132.24 23.7226 132.473C23.62 132.697 23.5686 133.024 23.5686 133.453C23.5686 133.845 23.6106 134.153 23.6946 134.377C23.788 134.592 23.9466 134.746 24.1706 134.839C24.3946 134.923 24.698 134.965 25.0806 134.965C25.6593 134.956 26.1773 134.872 26.6346 134.713C27.092 134.545 27.4886 134.298 27.8246 133.971L28.0206 134.951C27.7313 135.306 27.428 135.59 27.1106 135.805C26.7933 136.01 26.434 136.155 26.0326 136.239C25.6313 136.332 25.16 136.379 24.6186 136.379C23.9373 136.379 23.382 136.3 22.9526 136.141C22.5326 135.973 22.2246 135.702 22.0286 135.329C21.8326 134.946 21.7346 134.428 21.7346 133.775C21.7346 133.038 21.87 132.45 22.1406 132.011C22.4206 131.563 22.9153 131.306 23.6246 131.241V131.185C23.046 131.129 22.6306 130.914 22.3786 130.541C22.136 130.168 22.0146 129.631 22.0146 128.931C22.0146 128.371 22.0846 127.923 22.2246 127.587C22.3646 127.251 22.584 126.999 22.8826 126.831C23.1906 126.663 23.578 126.551 24.0446 126.495C24.5113 126.439 25.076 126.411 25.7386 126.411ZM29.2386 129.001V134.181C29.2386 134.47 29.2993 134.676 29.4206 134.797C29.542 134.918 29.738 134.979 30.0086 134.979H30.9466L31.1426 136.141C30.9933 136.188 30.8113 136.23 30.5966 136.267C30.3913 136.304 30.186 136.328 29.9806 136.337C29.7846 136.356 29.6166 136.365 29.4766 136.365C28.8886 136.365 28.436 136.216 28.1186 135.917C27.8013 135.618 27.6426 135.203 27.6426 134.671V131.171L27.8106 129.001H29.2386ZM39.1689 126.397C39.6075 126.397 39.9809 126.411 40.2889 126.439C40.5969 126.458 40.8815 126.49 41.1429 126.537C41.4042 126.574 41.6749 126.63 41.9549 126.705L41.8009 128.007C41.5115 127.988 41.2409 127.974 40.9889 127.965C40.7369 127.946 40.4662 127.932 40.1769 127.923C39.8969 127.914 39.5609 127.909 39.1689 127.909C38.6275 127.909 38.2029 128.016 37.8949 128.231C37.5869 128.446 37.3675 128.805 37.2369 129.309C37.1155 129.813 37.0549 130.508 37.0549 131.395C37.0549 132.282 37.1155 132.977 37.2369 133.481C37.3675 133.985 37.5869 134.344 37.8949 134.559C38.2029 134.774 38.6275 134.881 39.1689 134.881C39.7942 134.881 40.3169 134.872 40.7369 134.853C41.1662 134.825 41.5862 134.788 41.9969 134.741L42.1509 136.029C41.7309 136.16 41.2969 136.253 40.8489 136.309C40.4009 136.365 39.8409 136.393 39.1689 136.393C38.1982 136.393 37.4235 136.234 36.8449 135.917C36.2662 135.59 35.8462 135.063 35.5849 134.335C35.3329 133.607 35.2069 132.627 35.2069 131.395C35.2069 130.163 35.3329 129.183 35.5849 128.455C35.8462 127.727 36.2662 127.204 36.8449 126.887C37.4235 126.56 38.1982 126.397 39.1689 126.397ZM46.856 129.183C47.4066 129.183 47.8686 129.258 48.242 129.407C48.6246 129.547 48.914 129.79 49.11 130.135C49.306 130.48 49.404 130.956 49.404 131.563V136.225H48.06L47.822 134.741L47.696 134.545V131.549C47.696 131.185 47.612 130.924 47.444 130.765C47.276 130.597 46.954 130.513 46.478 130.513C46.1233 130.513 45.6753 130.527 45.134 130.555C44.602 130.583 44.0653 130.62 43.524 130.667L43.37 129.505C43.6966 129.44 44.0653 129.384 44.476 129.337C44.8866 129.29 45.302 129.253 45.722 129.225C46.142 129.197 46.52 129.183 46.856 129.183ZM48.676 131.997L48.662 133.047H45.512C45.232 133.056 45.0313 133.131 44.91 133.271C44.7886 133.411 44.728 133.602 44.728 133.845V134.223C44.728 134.503 44.8026 134.718 44.952 134.867C45.1013 135.007 45.3346 135.077 45.652 135.077C45.904 135.077 46.184 135.026 46.492 134.923C46.8 134.82 47.1033 134.671 47.402 134.475C47.71 134.279 47.9853 134.046 48.228 133.775V134.657C48.1346 134.797 47.9993 134.965 47.822 135.161C47.6446 135.348 47.4253 135.534 47.164 135.721C46.912 135.908 46.618 136.062 46.282 136.183C45.9553 136.304 45.5913 136.365 45.19 136.365C44.7793 136.365 44.4106 136.295 44.084 136.155C43.7573 136.006 43.5006 135.791 43.314 135.511C43.1273 135.222 43.034 134.867 43.034 134.447V133.719C43.034 133.178 43.2113 132.758 43.566 132.459C43.93 132.151 44.4246 131.997 45.05 131.997H48.676ZM55.6276 129.183C56.9063 129.183 57.5456 129.813 57.5456 131.073V136.225H55.8516V131.591C55.8516 131.218 55.7863 130.961 55.6556 130.821C55.525 130.681 55.3056 130.611 54.9976 130.611C54.6523 130.611 54.2976 130.69 53.9336 130.849C53.5696 130.998 53.131 131.218 52.6176 131.507L52.5476 130.485C53.0516 130.065 53.565 129.743 54.0876 129.519C54.6103 129.295 55.1236 129.183 55.6276 129.183ZM52.4916 129.351L52.6596 130.695L52.7996 130.891V136.225H51.1056V129.351H52.4916ZM62.3445 129.183C62.5778 129.183 62.8345 129.192 63.1145 129.211C63.3945 129.23 63.6791 129.267 63.9685 129.323C64.2578 129.379 64.5191 129.458 64.7525 129.561L64.5565 130.625C64.2111 130.606 63.8658 130.592 63.5205 130.583C63.1845 130.574 62.8905 130.569 62.6385 130.569C62.1625 130.569 61.7845 130.634 61.5045 130.765C61.2338 130.886 61.0378 131.11 60.9165 131.437C60.7951 131.754 60.7345 132.202 60.7345 132.781C60.7345 133.36 60.7951 133.812 60.9165 134.139C61.0378 134.456 61.2338 134.68 61.5045 134.811C61.7845 134.942 62.1625 135.007 62.6385 135.007C62.7785 135.007 62.9605 135.002 63.1845 134.993C63.4178 134.984 63.6651 134.97 63.9265 134.951C64.1971 134.932 64.4585 134.909 64.7105 134.881L64.8785 135.973C64.5145 136.122 64.1085 136.23 63.6605 136.295C63.2125 136.36 62.7691 136.393 62.3305 136.393C61.5091 136.393 60.8511 136.276 60.3565 136.043C59.8618 135.81 59.5025 135.432 59.2785 134.909C59.0638 134.377 58.9565 133.668 58.9565 132.781C58.9565 131.894 59.0685 131.19 59.2925 130.667C59.5165 130.135 59.8758 129.757 60.3705 129.533C60.8651 129.3 61.5231 129.183 62.3445 129.183ZM69.0948 129.183C70.2054 129.183 71.0034 129.379 71.4888 129.771C71.9741 130.154 72.2214 130.723 72.2308 131.479C72.2401 132.104 72.0908 132.58 71.7828 132.907C71.4841 133.224 70.9848 133.383 70.2848 133.383H66.3648V132.333H69.8228C70.1401 132.333 70.3408 132.249 70.4248 132.081C70.5181 131.913 70.5648 131.708 70.5648 131.465C70.5554 131.082 70.4434 130.816 70.2288 130.667C70.0234 130.518 69.6688 130.443 69.1648 130.443C68.7261 130.443 68.3854 130.504 68.1428 130.625C67.9001 130.746 67.7274 130.966 67.6248 131.283C67.5314 131.6 67.4848 132.058 67.4848 132.655C67.4848 133.29 67.5454 133.78 67.6668 134.125C67.7881 134.47 67.9888 134.708 68.2688 134.839C68.5488 134.96 68.9221 135.021 69.3888 135.021C69.7341 135.021 70.1308 135.007 70.5788 134.979C71.0361 134.951 71.4748 134.914 71.8948 134.867L72.0628 135.945C71.8108 136.048 71.5214 136.132 71.1948 136.197C70.8681 136.262 70.5274 136.309 70.1728 136.337C69.8274 136.374 69.5008 136.393 69.1928 136.393C68.3528 136.393 67.6761 136.272 67.1628 136.029C66.6588 135.777 66.2901 135.385 66.0568 134.853C65.8328 134.321 65.7208 133.635 65.7208 132.795C65.7208 131.89 65.8328 131.176 66.0568 130.653C66.2901 130.121 66.6541 129.743 67.1488 129.519C67.6528 129.295 68.3014 129.183 69.0948 129.183ZM75.3214 126.425L75.3074 134.153C75.3074 134.414 75.382 134.615 75.5314 134.755C75.6807 134.886 75.8954 134.951 76.1754 134.951H76.7774L76.9734 136.141C76.8707 136.188 76.726 136.23 76.5394 136.267C76.362 136.304 76.1754 136.328 75.9794 136.337C75.7927 136.356 75.6294 136.365 75.4894 136.365C74.92 136.365 74.4674 136.211 74.1314 135.903C73.7954 135.595 73.6274 135.152 73.6274 134.573V126.425H75.3214Z" fill="#333839"/>
<path d="M89.3995 52.8292L52.744 89.4748" stroke="white" stroke-width="6.29" stroke-miterlimit="10"/>
<path d="M89.3995 52.8292L52.744 89.4748" stroke="#CD967E" stroke-width="3.42" stroke-miterlimit="10"/>
<path d="M7.6601 51.8866L5 49.2266L44.9905 9.2262" stroke="white" stroke-width="6.29" stroke-miterlimit="10"/>
<path d="M7.6601 51.8866L5 49.2266L44.9905 9.2262" stroke="#CD967E" stroke-width="3.42" stroke-miterlimit="10"/>
<path d="M67.6359 87.1562H30.3154L11 67.8607V30.5402L30.3154 11.2249H67.6359L86.9512 30.5402V67.8607L67.6359 87.1562Z" fill="#CD967E"/>
<path d="M52.7421 89.4756L49.0001 93.2275L7.65977 51.8871" stroke="white" stroke-width="6.29" stroke-miterlimit="10"/>
<path d="M52.7421 89.4756L49.0001 93.2275L7.65977 51.8871" stroke="#CD967E" stroke-width="3.42" stroke-miterlimit="10"/>
<path d="M44.9896 9.22489L48.9995 5.22485L93 49.2253L89.397 52.8283" stroke="white" stroke-width="6.29" stroke-miterlimit="10"/>
<path d="M44.9896 9.22489L48.9995 5.22485L93 49.2253L89.397 52.8283" stroke="#CD967E" stroke-width="3.42" stroke-miterlimit="10"/>
<g clip-path="url(#clip0_480_7488)">
<path d="M39.6 34.2249H51.8963L52.3259 34.3133C53.7895 34.5478 55.1187 35.3008 56.0688 36.4336C57.0189 37.5665 57.5258 39.003 57.4963 40.4785C57.4963 42.5582 57.4963 44.6378 57.4963 46.7175V47.0125C56.3287 46.7967 55.1351 46.757 53.9556 46.8945C51.7323 47.1206 49.6067 47.9196 47.7882 49.2128C45.9697 50.506 44.5211 52.2487 43.5852 54.2691C43.1392 55.0868 42.8717 55.989 42.8003 56.9167C42.7288 57.8445 42.8549 58.7767 43.1704 59.6526C43.7719 61.2274 44.6836 62.6666 45.8519 63.8856L46.163 64.2249C44.1185 64.2249 42.163 64.2249 40.237 64.2249C39.422 64.2326 38.6135 64.0798 37.8581 63.7751C37.1027 63.4704 36.4153 63.0199 35.8356 62.4496C35.2558 61.8793 34.7952 61.2004 34.4801 60.452C34.1651 59.7036 34.0019 58.9006 34 58.0892C34 52.1895 34 46.2897 34 40.39C34.0056 39.0446 34.4553 37.7383 35.2798 36.6723C36.1043 35.6063 37.2579 34.8396 38.563 34.4903C38.9037 34.3576 39.2593 34.2986 39.6 34.2249ZM44.2815 38.9151C42.9037 38.9151 41.5407 38.9151 40.163 38.9151C39.9418 38.8988 39.7197 38.9283 39.5107 39.0019C39.3017 39.0756 39.1103 39.1916 38.9487 39.3428C38.7871 39.494 38.6588 39.6769 38.572 39.8801C38.4852 40.0832 38.4418 40.3021 38.4444 40.5228C38.4423 40.7402 38.4845 40.9558 38.5684 41.1565C38.6523 41.3573 38.7763 41.5389 38.9328 41.6906C39.0893 41.8423 39.2751 41.9608 39.4789 42.0389C39.6827 42.117 39.9003 42.1532 40.1185 42.1452H48.3852C48.6298 42.1587 48.8744 42.1165 49.1002 42.022C49.3261 41.9274 49.5274 41.783 49.6889 41.5995C49.9088 41.3787 50.053 41.0944 50.1009 40.7871C50.1488 40.4798 50.0979 40.1653 49.9556 39.8886C49.8448 39.5916 49.6409 39.3379 49.3741 39.1653C49.1073 38.9926 48.7917 38.9101 48.4741 38.9299C47.0815 38.9004 45.6889 38.9151 44.2815 38.9151ZM41.8667 45.4638C41.2593 45.4638 40.6667 45.4638 40.0741 45.4638C39.8551 45.4595 39.6376 45.5 39.435 45.5829C39.2324 45.6657 39.049 45.789 38.8962 45.9453C38.7435 46.1015 38.6245 46.2873 38.5468 46.4912C38.4691 46.6951 38.4343 46.9126 38.4444 47.1305C38.4501 47.3442 38.4986 47.5546 38.5869 47.7495C38.6753 47.9443 38.8018 48.1197 38.9591 48.2653C39.1164 48.4109 39.3012 48.5238 39.5028 48.5974C39.7045 48.6709 39.9188 48.7038 40.1333 48.6939H43.5704C43.7918 48.6948 44.0111 48.6509 44.2148 48.5646C44.4186 48.4784 44.6026 48.3518 44.7556 48.1924C44.9749 47.9784 45.1258 47.7045 45.189 47.4053C45.2523 47.1061 45.2252 46.7949 45.1111 46.511C45.0218 46.2168 44.8425 45.9578 44.5981 45.77C44.3537 45.5823 44.0566 45.4752 43.7481 45.4638C43.1259 45.4343 42.4889 45.4638 41.8667 45.4638Z" fill="white"/>
<path d="M55.3333 50.6555C57.1507 50.6578 58.9258 51.2011 60.4306 52.2156C61.9354 53.2302 63.1011 54.6695 63.7778 56.3487C63.9204 56.6848 63.9939 57.0459 63.9939 57.4107C63.9939 57.7755 63.9204 58.1366 63.7778 58.4726C63.0939 60.2384 61.8648 61.7425 60.2673 62.7683C58.6699 63.794 56.7867 64.2886 54.8889 64.1806C53.1364 64.113 51.4431 63.5308 50.0222 62.5073C48.6012 61.4837 47.5162 60.0645 46.9037 58.4284C46.7684 58.1163 46.6985 57.7801 46.6985 57.4402C46.6985 57.1003 46.7684 56.764 46.9037 56.452C47.4874 54.9102 48.4884 53.5595 49.7958 52.5494C51.1033 51.5393 52.6661 50.9093 54.3111 50.7293C54.5778 50.685 54.963 50.685 55.3333 50.6555ZM55.3333 53.8561C54.8528 53.8542 54.3766 53.9465 53.9319 54.1278C53.4872 54.3091 53.0827 54.5758 52.7415 54.9127C52.4003 55.2496 52.1292 55.6501 51.9435 56.0914C51.7578 56.5327 51.6612 57.006 51.6593 57.4844C51.6504 58.2132 51.8597 58.9282 52.2603 59.5382C52.6609 60.1483 53.2347 60.6259 53.9088 60.9102C54.5829 61.1946 55.3268 61.2728 56.0457 61.1349C56.7645 60.997 57.426 60.6493 57.9457 60.136C58.4655 59.6227 58.8201 58.9671 58.9644 58.2525C59.1087 57.5379 59.0362 56.7968 58.756 56.1234C58.4759 55.45 58.0009 54.8748 57.3913 54.4711C56.7818 54.0673 56.0654 53.8532 55.3333 53.8561Z" fill="white"/>
</g>
<defs>
<clipPath id="clip0_480_7488">
<rect width="30" height="30" fill="white" transform="translate(34 34.2249)"/>
</clipPath>
</defs>
</svg>
