<svg width="100" height="156" viewBox="0 0 100 156" fill="none" xmlns="http://www.w3.org/2000/svg">
<rect width="100" height="156" rx="19" fill="#F9FBFF"/>
<path d="M26.1689 109.231C26.9902 109.231 27.6435 109.305 28.1289 109.455C28.6142 109.595 28.9642 109.847 29.1789 110.211C29.4029 110.575 29.5149 111.088 29.5149 111.751C29.5149 112.441 29.3842 112.969 29.1229 113.333C28.8615 113.697 28.4322 113.907 27.8349 113.963V114.019C28.5722 114.084 29.0855 114.336 29.3749 114.775C29.6735 115.213 29.8229 115.82 29.8229 116.595C29.8229 117.257 29.7109 117.771 29.4869 118.135C29.2722 118.499 28.9269 118.755 28.4509 118.905C27.9842 119.045 27.3729 119.115 26.6169 119.115C26.0289 119.115 25.5155 119.11 25.0769 119.101C24.6382 119.101 24.2369 119.091 23.8729 119.073C23.5089 119.054 23.1309 119.031 22.7389 119.003L22.9349 117.729C23.1589 117.738 23.5742 117.747 24.1809 117.757C24.7875 117.766 25.5015 117.771 26.3229 117.771C26.7615 117.771 27.1069 117.733 27.3589 117.659C27.6109 117.575 27.7882 117.425 27.8909 117.211C28.0029 116.987 28.0589 116.674 28.0589 116.273C28.0589 115.825 28.0029 115.484 27.8909 115.251C27.7789 115.008 27.5922 114.84 27.3309 114.747C27.0789 114.644 26.7195 114.593 26.2529 114.593H22.9209V113.403H26.2389C26.6402 113.403 26.9529 113.365 27.1769 113.291C27.4102 113.207 27.5782 113.062 27.6809 112.857C27.7835 112.651 27.8349 112.357 27.8349 111.975C27.8349 111.592 27.7789 111.298 27.6669 111.093C27.5642 110.887 27.3869 110.752 27.1349 110.687C26.8829 110.612 26.5329 110.575 26.0849 110.575C25.5902 110.575 25.1515 110.575 24.7689 110.575C24.3862 110.575 24.0455 110.579 23.7469 110.589C23.4482 110.589 23.1775 110.598 22.9349 110.617L22.7389 109.343C23.0935 109.305 23.4295 109.282 23.7469 109.273C24.0735 109.254 24.4282 109.245 24.8109 109.245C25.2029 109.235 25.6555 109.231 26.1689 109.231ZM24.4469 109.343V119.003H22.7389V109.343H24.4469ZM33.3906 112.129V116.777C33.3812 117.122 33.4466 117.369 33.5866 117.519C33.7359 117.668 33.9739 117.743 34.3006 117.743C34.6272 117.743 34.9539 117.673 35.2806 117.533C35.6072 117.393 36.0039 117.183 36.4706 116.903L36.6386 117.911C36.1159 118.331 35.6119 118.648 35.1266 118.863C34.6412 119.077 34.1372 119.185 33.6146 119.185C32.3359 119.185 31.6966 118.555 31.6966 117.295V112.129H33.3906ZM37.9966 112.129V119.003H36.6526L36.4706 117.673L36.3026 117.477V112.129H37.9966ZM41.8887 109.203L41.8747 116.931C41.8747 117.192 41.9493 117.393 42.0987 117.533C42.248 117.663 42.4627 117.729 42.7427 117.729H43.3447L43.5407 118.919C43.438 118.965 43.2933 119.007 43.1067 119.045C42.9293 119.082 42.7427 119.105 42.5467 119.115C42.36 119.133 42.1967 119.143 42.0567 119.143C41.4873 119.143 41.0347 118.989 40.6987 118.681C40.3627 118.373 40.1947 117.929 40.1947 117.351V109.203H41.8887ZM51.0927 112.129L49.1327 114.579C49.058 114.691 48.9647 114.803 48.8527 114.915C48.7407 115.017 48.6427 115.097 48.5587 115.153V115.181C48.6427 115.237 48.7407 115.33 48.8527 115.461C48.9647 115.582 49.058 115.708 49.1327 115.839L51.3167 119.003H49.3987L46.8927 115.111L49.1747 112.129H51.0927ZM46.5707 109.203L46.5847 113.389C46.5847 113.697 46.566 113.991 46.5287 114.271C46.5007 114.551 46.4587 114.835 46.4027 115.125C46.4494 115.395 46.4867 115.675 46.5147 115.965C46.552 116.254 46.5707 116.525 46.5707 116.777V119.003H44.8767V109.203H46.5707ZM47.6207 114.607V115.699H46.0247V114.607H47.6207ZM59.6962 109.343V119.003H57.9462V109.343H59.6962ZM62.6922 109.343V110.771H54.9502V109.343H62.6922ZM66.4013 111.961C66.9519 111.961 67.4139 112.035 67.7873 112.185C68.1699 112.325 68.4593 112.567 68.6553 112.913C68.8513 113.258 68.9493 113.734 68.9493 114.341V119.003H67.6053L67.3673 117.519L67.2413 117.323V114.327C67.2413 113.963 67.1573 113.701 66.9893 113.543C66.8213 113.375 66.4993 113.291 66.0233 113.291C65.6686 113.291 65.2206 113.305 64.6793 113.333C64.1473 113.361 63.6106 113.398 63.0693 113.445L62.9153 112.283C63.2419 112.217 63.6106 112.161 64.0213 112.115C64.4319 112.068 64.8473 112.031 65.2673 112.003C65.6873 111.975 66.0653 111.961 66.4013 111.961ZM68.2213 114.775L68.2073 115.825H65.0573C64.7773 115.834 64.5766 115.909 64.4553 116.049C64.3339 116.189 64.2733 116.38 64.2733 116.623V117.001C64.2733 117.281 64.3479 117.495 64.4973 117.645C64.6466 117.785 64.8799 117.855 65.1973 117.855C65.4493 117.855 65.7293 117.803 66.0373 117.701C66.3453 117.598 66.6486 117.449 66.9473 117.253C67.2553 117.057 67.5306 116.823 67.7733 116.553V117.435C67.6799 117.575 67.5446 117.743 67.3673 117.939C67.1899 118.125 66.9706 118.312 66.7093 118.499C66.4573 118.685 66.1633 118.839 65.8273 118.961C65.5006 119.082 65.1366 119.143 64.7353 119.143C64.3246 119.143 63.9559 119.073 63.6293 118.933C63.3026 118.783 63.0459 118.569 62.8593 118.289C62.6726 117.999 62.5793 117.645 62.5793 117.225V116.497C62.5793 115.955 62.7566 115.535 63.1113 115.237C63.4753 114.929 63.9699 114.775 64.5953 114.775H68.2213ZM73.9829 111.961C74.7576 111.961 75.3689 112.035 75.8169 112.185C76.2742 112.325 76.6009 112.558 76.7969 112.885C76.9929 113.202 77.0909 113.622 77.0909 114.145C77.0909 114.649 76.9929 115.064 76.7969 115.391C76.6009 115.708 76.2742 115.941 75.8169 116.091C75.3596 116.24 74.7436 116.315 73.9689 116.315C73.1942 116.315 72.5782 116.24 72.1209 116.091C71.6729 115.941 71.3462 115.708 71.1409 115.391C70.9449 115.073 70.8469 114.658 70.8469 114.145C70.8469 113.622 70.9449 113.202 71.1409 112.885C71.3462 112.558 71.6776 112.325 72.1349 112.185C72.5922 112.035 73.2082 111.961 73.9829 111.961ZM73.9689 113.067C73.3809 113.067 72.9749 113.146 72.7509 113.305C72.5269 113.463 72.4149 113.743 72.4149 114.145C72.4149 114.527 72.5269 114.803 72.7509 114.971C72.9749 115.129 73.3809 115.209 73.9689 115.209C74.5569 115.209 74.9582 115.129 75.1729 114.971C75.3969 114.803 75.5089 114.527 75.5089 114.145C75.5089 113.743 75.3969 113.463 75.1729 113.305C74.9582 113.146 74.5569 113.067 73.9689 113.067ZM77.8889 112.129L77.7909 112.913L75.9989 113.109L75.4949 112.129H77.8889ZM71.9669 115.895L72.8349 116.021C72.6949 116.133 72.5969 116.277 72.5409 116.455C72.4942 116.623 72.5082 116.786 72.5829 116.945C72.6669 117.094 72.8442 117.187 73.1149 117.225L75.6629 117.561C76.3536 117.645 76.8389 117.85 77.1189 118.177C77.3989 118.494 77.5389 118.956 77.5389 119.563C77.5389 120.132 77.4269 120.575 77.2029 120.893C76.9789 121.21 76.6102 121.429 76.0969 121.551C75.5929 121.681 74.9116 121.747 74.0529 121.747C73.3716 121.747 72.8069 121.709 72.3589 121.635C71.9109 121.569 71.5516 121.453 71.2809 121.285C71.0196 121.126 70.8329 120.916 70.7209 120.655C70.6089 120.403 70.5529 120.085 70.5529 119.703C70.5529 119.404 70.5996 119.152 70.6929 118.947C70.7956 118.741 70.9589 118.559 71.1829 118.401C71.4069 118.233 71.7102 118.079 72.0929 117.939L73.0449 117.533L73.7029 117.771L73.0869 118.205C72.8722 118.363 72.6949 118.508 72.5549 118.639C72.4242 118.76 72.3262 118.881 72.2609 119.003C72.2049 119.133 72.1769 119.297 72.1769 119.493C72.1769 119.754 72.2282 119.955 72.3309 120.095C72.4429 120.235 72.6342 120.328 72.9049 120.375C73.1756 120.431 73.5536 120.459 74.0389 120.459C74.5336 120.459 74.9162 120.431 75.1869 120.375C75.4576 120.328 75.6442 120.235 75.7469 120.095C75.8589 119.964 75.9149 119.773 75.9149 119.521C75.9149 119.315 75.8822 119.161 75.8169 119.059C75.7516 118.965 75.6349 118.891 75.4669 118.835C75.2989 118.779 75.0656 118.732 74.7669 118.695L72.4709 118.415C72.1442 118.377 71.8829 118.284 71.6869 118.135C71.5002 117.976 71.3696 117.789 71.2949 117.575C71.2202 117.351 71.1969 117.131 71.2249 116.917C71.2622 116.693 71.3416 116.487 71.4629 116.301C71.5936 116.114 71.7616 115.979 71.9669 115.895ZM17.5452 127.161C17.9279 127.161 18.2825 127.17 18.6092 127.189C18.9452 127.207 19.2625 127.24 19.5612 127.287C19.8599 127.333 20.1539 127.399 20.4432 127.483L20.2892 128.771C19.9812 128.752 19.6779 128.738 19.3792 128.729C19.0805 128.71 18.7819 128.701 18.4832 128.701C18.1939 128.691 17.8999 128.687 17.6012 128.687C17.1532 128.687 16.7752 128.733 16.4672 128.827C16.1592 128.911 15.9119 129.079 15.7252 129.331C15.5479 129.583 15.4172 129.942 15.3332 130.409C15.2492 130.875 15.2072 131.477 15.2072 132.215C15.2072 133.083 15.2632 133.769 15.3752 134.273C15.4965 134.767 15.6925 135.127 15.9632 135.351C16.2339 135.565 16.5979 135.673 17.0552 135.673C17.3632 135.673 17.6479 135.635 17.9092 135.561C18.1705 135.486 18.4085 135.388 18.6232 135.267C18.8472 135.136 19.0572 135.005 19.2532 134.875L19.4632 135.785C19.3139 135.971 19.0945 136.177 18.8052 136.401C18.5252 136.615 18.1892 136.802 17.7972 136.961C17.4052 137.11 16.9619 137.185 16.4672 137.185C15.7392 137.185 15.1419 137.012 14.6752 136.667C14.2179 136.312 13.8819 135.766 13.6672 135.029C13.4619 134.282 13.3592 133.325 13.3592 132.159C13.3592 130.889 13.4945 129.891 13.7652 129.163C14.0359 128.435 14.4745 127.921 15.0812 127.623C15.6972 127.315 16.5185 127.161 17.5452 127.161ZM20.7512 131.431V137.003H19.4632L19.2112 135.561L19.0432 135.211V131.431H20.7512ZM25.8703 129.961C26.9809 129.961 27.7789 130.157 28.2643 130.549C28.7496 130.931 28.9969 131.501 29.0063 132.257C29.0156 132.882 28.8663 133.358 28.5583 133.685C28.2596 134.002 27.7603 134.161 27.0603 134.161H23.1403V133.111H26.5983C26.9156 133.111 27.1163 133.027 27.2003 132.859C27.2936 132.691 27.3403 132.485 27.3403 132.243C27.3309 131.86 27.2189 131.594 27.0043 131.445C26.7989 131.295 26.4443 131.221 25.9403 131.221C25.5016 131.221 25.1609 131.281 24.9183 131.403C24.6756 131.524 24.5029 131.743 24.4003 132.061C24.3069 132.378 24.2603 132.835 24.2603 133.433C24.2603 134.067 24.3209 134.557 24.4423 134.903C24.5636 135.248 24.7643 135.486 25.0443 135.617C25.3243 135.738 25.6976 135.799 26.1643 135.799C26.5096 135.799 26.9063 135.785 27.3543 135.757C27.8116 135.729 28.2503 135.691 28.6703 135.645L28.8383 136.723C28.5863 136.825 28.2969 136.909 27.9703 136.975C27.6436 137.04 27.3029 137.087 26.9483 137.115C26.6029 137.152 26.2763 137.171 25.9683 137.171C25.1283 137.171 24.4516 137.049 23.9383 136.807C23.4343 136.555 23.0656 136.163 22.8323 135.631C22.6083 135.099 22.4963 134.413 22.4963 133.573C22.4963 132.667 22.6083 131.953 22.8323 131.431C23.0656 130.899 23.4296 130.521 23.9243 130.297C24.4283 130.073 25.0769 129.961 25.8703 129.961ZM35.3309 129.961C36.6095 129.961 37.2489 130.591 37.2489 131.851V137.003H35.5549V132.369C35.5549 131.995 35.4895 131.739 35.3589 131.599C35.2282 131.459 35.0089 131.389 34.7009 131.389C34.3555 131.389 34.0009 131.468 33.6369 131.627C33.2729 131.776 32.8342 131.995 32.3209 132.285L32.2509 131.263C32.7549 130.843 33.2682 130.521 33.7909 130.297C34.3135 130.073 34.8269 129.961 35.3309 129.961ZM32.1949 130.129L32.3629 131.473L32.5029 131.669V137.003H30.8089V130.129H32.1949ZM42.4537 129.961C43.5644 129.961 44.3624 130.157 44.8477 130.549C45.333 130.931 45.5804 131.501 45.5897 132.257C45.599 132.882 45.4497 133.358 45.1417 133.685C44.843 134.002 44.3437 134.161 43.6437 134.161H39.7237V133.111H43.1817C43.499 133.111 43.6997 133.027 43.7837 132.859C43.877 132.691 43.9237 132.485 43.9237 132.243C43.9144 131.86 43.8024 131.594 43.5877 131.445C43.3824 131.295 43.0277 131.221 42.5237 131.221C42.085 131.221 41.7444 131.281 41.5017 131.403C41.259 131.524 41.0864 131.743 40.9837 132.061C40.8904 132.378 40.8437 132.835 40.8437 133.433C40.8437 134.067 40.9044 134.557 41.0257 134.903C41.147 135.248 41.3477 135.486 41.6277 135.617C41.9077 135.738 42.281 135.799 42.7477 135.799C43.093 135.799 43.4897 135.785 43.9377 135.757C44.395 135.729 44.8337 135.691 45.2537 135.645L45.4217 136.723C45.1697 136.825 44.8804 136.909 44.5537 136.975C44.227 137.04 43.8864 137.087 43.5317 137.115C43.1864 137.152 42.8597 137.171 42.5517 137.171C41.7117 137.171 41.035 137.049 40.5217 136.807C40.0177 136.555 39.649 136.163 39.4157 135.631C39.1917 135.099 39.0797 134.413 39.0797 133.573C39.0797 132.667 39.1917 131.953 39.4157 131.431C39.649 130.899 40.013 130.521 40.5077 130.297C41.0117 130.073 41.6604 129.961 42.4537 129.961ZM48.7083 130.129L48.9323 131.473L49.0863 131.669V137.003H47.3923V130.129H48.7083ZM52.0683 129.961L51.9003 131.529H51.4103C51.0463 131.529 50.6777 131.589 50.3043 131.711C49.931 131.832 49.4643 132.014 48.9043 132.257L48.7923 131.263C49.2777 130.852 49.7723 130.535 50.2763 130.311C50.7803 130.077 51.2657 129.961 51.7323 129.961H52.0683ZM56.9272 129.961C57.4779 129.961 57.9399 130.035 58.3132 130.185C58.6959 130.325 58.9852 130.567 59.1812 130.913C59.3772 131.258 59.4752 131.734 59.4752 132.341V137.003H58.1312L57.8932 135.519L57.7672 135.323V132.327C57.7672 131.963 57.6832 131.701 57.5152 131.543C57.3472 131.375 57.0252 131.291 56.5492 131.291C56.1945 131.291 55.7465 131.305 55.2052 131.333C54.6732 131.361 54.1365 131.398 53.5952 131.445L53.4412 130.283C53.7679 130.217 54.1365 130.161 54.5472 130.115C54.9579 130.068 55.3732 130.031 55.7932 130.003C56.2132 129.975 56.5912 129.961 56.9272 129.961ZM58.7472 132.775L58.7332 133.825H55.5832C55.3032 133.834 55.1025 133.909 54.9812 134.049C54.8599 134.189 54.7992 134.38 54.7992 134.623V135.001C54.7992 135.281 54.8739 135.495 55.0232 135.645C55.1725 135.785 55.4059 135.855 55.7232 135.855C55.9752 135.855 56.2552 135.803 56.5632 135.701C56.8712 135.598 57.1745 135.449 57.4732 135.253C57.7812 135.057 58.0565 134.823 58.2992 134.553V135.435C58.2059 135.575 58.0705 135.743 57.8932 135.939C57.7159 136.125 57.4965 136.312 57.2352 136.499C56.9832 136.685 56.6892 136.839 56.3532 136.961C56.0265 137.082 55.6625 137.143 55.2612 137.143C54.8505 137.143 54.4819 137.073 54.1552 136.933C53.8285 136.783 53.5719 136.569 53.3852 136.289C53.1985 135.999 53.1052 135.645 53.1052 135.225V134.497C53.1052 133.955 53.2825 133.535 53.6372 133.237C54.0012 132.929 54.4959 132.775 55.1212 132.775H58.7472ZM63.8649 128.169V134.931C63.8649 135.22 63.9255 135.425 64.0469 135.547C64.1775 135.668 64.3969 135.729 64.7049 135.729H65.6569L65.8389 136.919C65.6802 136.965 65.4889 137.007 65.2649 137.045C65.0409 137.082 64.8215 137.105 64.6069 137.115C64.3922 137.133 64.2102 137.143 64.0609 137.143C63.4635 137.143 62.9969 136.984 62.6609 136.667C62.3342 136.34 62.1709 135.873 62.1709 135.267V128.169H63.8649ZM65.9089 130.129V131.305H60.9529V130.199L62.2969 130.129H65.9089ZM69.1773 130.129V137.003H67.4973V130.129H69.1773ZM68.7153 127.147C69.0513 127.147 69.2193 127.315 69.2193 127.651V128.435C69.2193 128.771 69.0513 128.939 68.7153 128.939H67.9593C67.6233 128.939 67.4553 128.771 67.4553 128.435V127.651C67.4553 127.315 67.6233 127.147 67.9593 127.147H68.7153ZM74.5207 129.961C75.3607 129.961 76.028 130.077 76.5227 130.311C77.0267 130.544 77.386 130.927 77.6007 131.459C77.8247 131.991 77.9367 132.695 77.9367 133.573C77.9367 134.45 77.8247 135.155 77.6007 135.687C77.386 136.209 77.0267 136.592 76.5227 136.835C76.028 137.068 75.3607 137.185 74.5207 137.185C73.6994 137.185 73.0367 137.068 72.5327 136.835C72.038 136.592 71.6787 136.209 71.4547 135.687C71.2307 135.155 71.1187 134.45 71.1187 133.573C71.1187 132.695 71.2307 131.991 71.4547 131.459C71.6787 130.927 72.038 130.544 72.5327 130.311C73.0367 130.077 73.6994 129.961 74.5207 129.961ZM74.5207 131.249C74.11 131.249 73.7834 131.319 73.5407 131.459C73.3074 131.589 73.1394 131.823 73.0367 132.159C72.934 132.495 72.8827 132.966 72.8827 133.573C72.8827 134.179 72.934 134.651 73.0367 134.987C73.1394 135.323 73.3074 135.556 73.5407 135.687C73.7834 135.817 74.11 135.883 74.5207 135.883C74.9407 135.883 75.272 135.817 75.5147 135.687C75.7574 135.556 75.9254 135.323 76.0187 134.987C76.1214 134.651 76.1727 134.179 76.1727 133.573C76.1727 132.966 76.1214 132.495 76.0187 132.159C75.9254 131.823 75.7574 131.589 75.5147 131.459C75.272 131.319 74.9407 131.249 74.5207 131.249ZM84.3358 129.961C85.6145 129.961 86.2538 130.591 86.2538 131.851V137.003H84.5598V132.369C84.5598 131.995 84.4945 131.739 84.3638 131.599C84.2331 131.459 84.0138 131.389 83.7058 131.389C83.3605 131.389 83.0058 131.468 82.6418 131.627C82.2778 131.776 81.8391 131.995 81.3258 132.285L81.2558 131.263C81.7598 130.843 82.2731 130.521 82.7958 130.297C83.3185 130.073 83.8318 129.961 84.3358 129.961ZM81.1998 130.129L81.3678 131.473L81.5078 131.669V137.003H79.8138V130.129H81.1998Z" fill="#333839"/>
<path d="M90.3995 53.6044L53.744 90.2499" stroke="white" stroke-width="6.29" stroke-miterlimit="10"/>
<path d="M90.3995 53.6044L53.744 90.2499" stroke="#3074C9" stroke-width="3.42" stroke-miterlimit="10"/>
<path d="M8.6601 52.6618L6 50.0017L45.9905 10.0013" stroke="white" stroke-width="6.29" stroke-miterlimit="10"/>
<path d="M8.6601 52.6618L6 50.0017L45.9905 10.0013" stroke="#3074C9" stroke-width="3.42" stroke-miterlimit="10"/>
<path d="M68.6359 87.9313H31.3154L12.0001 68.6358V31.3153L31.3154 12H68.6359L87.9512 31.3153V68.6358L68.6359 87.9313Z" fill="#3074C9"/>
<path d="M53.7421 90.2507L50.0002 94.0026L8.65979 52.6622" stroke="white" stroke-width="6.29" stroke-miterlimit="10"/>
<path d="M53.7421 90.2507L50.0002 94.0026L8.65979 52.6622" stroke="#3074C9" stroke-width="3.42" stroke-miterlimit="10"/>
<path d="M45.9896 10L49.9995 6L94 50.0004L90.397 53.6034" stroke="white" stroke-width="6.29" stroke-miterlimit="10"/>
<path d="M45.9896 10L49.9995 6L94 50.0004L90.397 53.6034" stroke="#3074C9" stroke-width="3.42" stroke-miterlimit="10"/>
<path d="M58.5052 38.2002C59.2637 37.2787 59.7698 36.176 59.9738 35L60.9955 35.1386C60.5443 37.255 59.6663 39.0413 57.7188 40.1385C57.6484 40.1892 57.563 40.2146 57.4764 40.2106C57.3898 40.2067 57.307 40.1736 57.2416 40.1167C57.1336 40.0417 57.0116 39.9892 56.8829 39.9625C56.7541 39.9357 56.6213 39.9351 56.4924 39.9609C56.3634 39.9866 56.241 40.0381 56.1324 40.1122C56.0238 40.1863 55.9313 40.2816 55.8603 40.3923C55.7874 40.5015 55.7366 40.624 55.711 40.7528C55.6854 40.8817 55.6855 41.0143 55.7111 41.1431C55.7368 41.2719 55.7876 41.3944 55.8606 41.5036C55.9337 41.6128 56.0275 41.7065 56.1368 41.7794C56.5946 42.0869 57.1979 41.96 57.5331 41.5122C57.6489 41.3583 57.7972 41.2317 57.9675 41.1417C58.6886 40.776 59.3407 40.2879 59.8949 39.6991C59.9789 39.7764 60.0537 39.8411 60.1234 39.9134C60.9678 40.7888 61.8088 41.6677 62.6557 42.5398C63.5622 43.474 64 44.5873 64 45.8887C63.9961 51.1096 63.9961 56.3304 64 61.5513C64 63.2081 62.9472 64.2559 61.2845 64.2567H52.098C50.4605 64.2567 49.4019 63.1997 49.4019 61.5639C49.4019 56.333 49.4019 51.1017 49.4019 45.8702C49.3912 45.2556 49.5038 44.6451 49.7331 44.0748C49.9624 43.5045 50.3038 42.986 50.7369 42.5498C52.0619 41.177 53.407 39.8218 54.6925 38.412C55.7956 37.2013 57.4348 37.2029 58.4414 38.1666C58.4613 38.1802 58.4827 38.1915 58.5052 38.2002ZM58.6573 48.7966L53.2919 56.3103L54.1128 56.8984L59.4706 49.404L58.6573 48.7966ZM58.1691 53.4932C57.6828 53.4947 57.2167 53.6878 56.8718 54.0307C56.5269 54.3735 56.331 54.8385 56.3266 55.3248C56.3248 55.8175 56.5183 56.2908 56.8648 56.6412C57.2112 56.9915 57.6823 57.1904 58.175 57.1942C58.667 57.1917 59.1382 56.9956 59.4865 56.6482C59.8348 56.3008 60.0323 55.8301 60.036 55.3382C60.0356 55.0939 59.9867 54.8521 59.8923 54.6268C59.7978 54.4015 59.6597 54.1972 59.4857 54.0256C59.3118 53.854 59.1056 53.7186 58.8791 53.6272C58.6525 53.5358 58.4101 53.4903 58.1658 53.4932H58.1691ZM56.5862 50.3274C56.5862 49.3376 55.7503 48.4723 54.8135 48.4849C53.7296 48.4983 52.8811 49.32 52.8861 50.3534C52.891 50.8404 53.0879 51.3058 53.434 51.6485C53.7801 51.9912 54.2475 52.1834 54.7345 52.1833C54.9784 52.1852 55.2202 52.1385 55.4459 52.0458C55.6715 51.9531 55.8763 51.8164 56.0485 51.6435C56.2206 51.4707 56.3565 51.2653 56.4483 51.0393C56.54 50.8133 56.5858 50.5713 56.5829 50.3274H56.5862Z" fill="white"/>
<path d="M53.0432 38.7077C52.3958 39.3765 51.7483 40.0456 51.1008 40.7149C50.7 41.1291 50.2933 41.5383 49.901 41.9609C48.9155 43.0187 48.4013 44.2756 48.3987 45.7199C48.3903 51.0449 48.3903 56.37 48.3987 61.695C48.3987 62.1151 48.5004 62.5352 48.5575 62.9855C48.4618 62.9326 48.3576 62.8763 48.2551 62.8175C45.8606 61.4346 43.4666 60.0511 41.0732 58.667C40.1322 58.12 39.6785 57.29 39.7827 56.2053C39.822 55.8415 39.9364 55.4899 40.1188 55.1727C42.7788 50.5416 45.4494 45.9165 48.1307 41.2972C48.7189 40.2889 49.6002 39.6168 50.7218 39.2807C51.478 39.053 52.2476 38.8489 53.0113 38.6338L53.0432 38.7077Z" fill="white"/>
<path d="M48.2828 39.0337C48.2349 39.1236 48.1895 39.2152 48.1383 39.3034C45.2105 44.3608 42.2845 49.4172 39.3601 54.4729C39.0929 54.9375 38.9106 55.4508 38.6879 55.9457C38.6737 55.9331 38.6182 55.8886 38.5686 55.8382C37.9746 55.25 37.3773 54.6619 36.7891 54.0595C35.7372 52.9908 35.7347 51.4717 36.795 50.4098C39.3503 47.8517 41.9092 45.2967 44.4717 42.7448C45.6441 41.5753 46.8169 40.4063 47.9904 39.2379C48.0744 39.1539 48.1584 39.08 48.2425 39.001L48.2828 39.0337Z" fill="white"/>
<path d="M58.1902 54.5006C58.4124 54.5028 58.6247 54.593 58.7806 54.7514C58.9365 54.9098 59.0233 55.1235 59.0219 55.3458C59.0164 55.5677 58.9254 55.7789 58.7679 55.9355C58.6105 56.092 58.3987 56.1817 58.1767 56.186C57.9543 56.1832 57.7417 56.0939 57.5839 55.9371C57.4262 55.7803 57.3356 55.5682 57.3315 55.3458C57.3308 55.2335 57.3526 55.1221 57.3957 55.0184C57.4388 54.9146 57.5022 54.8206 57.5823 54.7418C57.6623 54.663 57.7574 54.601 57.8618 54.5596C57.9662 54.5182 58.0779 54.4981 58.1902 54.5006Z" fill="white"/>
<path d="M55.5747 50.3501C55.5772 50.46 55.5576 50.5693 55.517 50.6716C55.4765 50.7738 55.4158 50.8668 55.3386 50.9452C55.2615 51.0235 55.1693 51.0856 55.0677 51.1277C54.9661 51.1698 54.8571 51.1911 54.7471 51.1902C54.6344 51.1914 54.5226 51.17 54.4183 51.1274C54.314 51.0847 54.2192 51.0217 54.1395 50.9419C54.0599 50.8622 53.9969 50.7674 53.9544 50.663C53.9119 50.5586 53.8906 50.4468 53.8918 50.3341C53.8965 50.1121 53.9888 49.9011 54.1486 49.7469C54.3083 49.5928 54.5226 49.5082 54.7446 49.5116C54.8544 49.5113 54.9631 49.5329 55.0645 49.5751C55.1659 49.6173 55.2578 49.6791 55.3351 49.7572C55.4123 49.8352 55.4733 49.9278 55.5144 50.0296C55.5556 50.1313 55.576 50.2403 55.5747 50.3501Z" fill="white"/>
</svg>
