<svg width="98" height="150" viewBox="0 0 98 150" fill="none" xmlns="http://www.w3.org/2000/svg">
<path d="M18.5418 108.175C18.9804 108.175 19.3538 108.189 19.6618 108.217C19.9698 108.235 20.2544 108.268 20.5158 108.315C20.7771 108.352 21.0478 108.408 21.3278 108.483L21.1738 109.785C20.8844 109.766 20.6138 109.752 20.3618 109.743C20.1098 109.724 19.8391 109.71 19.5498 109.701C19.2698 109.691 18.9338 109.687 18.5418 109.687C18.0004 109.687 17.5758 109.794 17.2678 110.009C16.9598 110.223 16.7404 110.583 16.6098 111.087C16.4884 111.591 16.4278 112.286 16.4278 113.173C16.4278 114.059 16.4884 114.755 16.6098 115.259C16.7404 115.763 16.9598 116.122 17.2678 116.337C17.5758 116.551 18.0004 116.659 18.5418 116.659C19.1671 116.659 19.6898 116.649 20.1098 116.631C20.5391 116.603 20.9591 116.565 21.3698 116.519L21.5238 117.807C21.1038 117.937 20.6698 118.031 20.2218 118.087C19.7738 118.143 19.2138 118.171 18.5418 118.171C17.5711 118.171 16.7964 118.012 16.2178 117.695C15.6391 117.368 15.2191 116.841 14.9578 116.113C14.7058 115.385 14.5798 114.405 14.5798 113.173C14.5798 111.941 14.7058 110.961 14.9578 110.233C15.2191 109.505 15.6391 108.982 16.2178 108.665C16.7964 108.338 17.5711 108.175 18.5418 108.175ZM26.7889 110.961C27.3395 110.961 27.8015 111.035 28.1749 111.185C28.5575 111.325 28.8469 111.567 29.0429 111.913C29.2389 112.258 29.3369 112.734 29.3369 113.341V118.003H27.9929L27.7549 116.519L27.6289 116.323V113.327C27.6289 112.963 27.5449 112.701 27.3769 112.543C27.2089 112.375 26.8869 112.291 26.4109 112.291C26.0562 112.291 25.6082 112.305 25.0669 112.333C24.5349 112.361 23.9982 112.398 23.4569 112.445L23.3029 111.283C23.6295 111.217 23.9982 111.161 24.4089 111.115C24.8195 111.068 25.2349 111.031 25.6549 111.003C26.0749 110.975 26.4529 110.961 26.7889 110.961ZM28.6089 113.775L28.5949 114.825H25.4449C25.1649 114.834 24.9642 114.909 24.8429 115.049C24.7215 115.189 24.6609 115.38 24.6609 115.623V116.001C24.6609 116.281 24.7355 116.495 24.8849 116.645C25.0342 116.785 25.2675 116.855 25.5849 116.855C25.8369 116.855 26.1169 116.803 26.4249 116.701C26.7329 116.598 27.0362 116.449 27.3349 116.253C27.6429 116.057 27.9182 115.823 28.1609 115.553V116.435C28.0675 116.575 27.9322 116.743 27.7549 116.939C27.5775 117.125 27.3582 117.312 27.0969 117.499C26.8449 117.685 26.5509 117.839 26.2149 117.961C25.8882 118.082 25.5242 118.143 25.1229 118.143C24.7122 118.143 24.3435 118.073 24.0169 117.933C23.6902 117.783 23.4335 117.569 23.2469 117.289C23.0602 116.999 22.9669 116.645 22.9669 116.225V115.497C22.9669 114.955 23.1442 114.535 23.4989 114.237C23.8629 113.929 24.3575 113.775 24.9829 113.775H28.6089ZM32.9145 111.129L33.1385 112.473L33.2925 112.669V118.003H31.5985V111.129H32.9145ZM36.2745 110.961L36.1065 112.529H35.6165C35.2525 112.529 34.8839 112.589 34.5105 112.711C34.1372 112.832 33.6705 113.014 33.1105 113.257L32.9985 112.263C33.4839 111.852 33.9785 111.535 34.4825 111.311C34.9865 111.077 35.4719 110.961 35.9385 110.961H36.2745ZM40.1107 109.169V115.931C40.1107 116.22 40.1714 116.425 40.2927 116.547C40.4234 116.668 40.6427 116.729 40.9507 116.729H41.9027L42.0847 117.919C41.9261 117.965 41.7347 118.007 41.5107 118.045C41.2867 118.082 41.0674 118.105 40.8527 118.115C40.6381 118.133 40.4561 118.143 40.3067 118.143C39.7094 118.143 39.2427 117.984 38.9067 117.667C38.5801 117.34 38.4167 116.873 38.4167 116.267V109.169H40.1107ZM42.1547 111.129V112.305H37.1987V111.199L38.5427 111.129H42.1547ZM46.9352 110.961C47.7752 110.961 48.4425 111.077 48.9372 111.311C49.4412 111.544 49.8005 111.927 50.0152 112.459C50.2392 112.991 50.3512 113.695 50.3512 114.573C50.3512 115.45 50.2392 116.155 50.0152 116.687C49.8005 117.209 49.4412 117.592 48.9372 117.835C48.4425 118.068 47.7752 118.185 46.9352 118.185C46.1139 118.185 45.4512 118.068 44.9472 117.835C44.4525 117.592 44.0932 117.209 43.8692 116.687C43.6452 116.155 43.5332 115.45 43.5332 114.573C43.5332 113.695 43.6452 112.991 43.8692 112.459C44.0932 111.927 44.4525 111.544 44.9472 111.311C45.4512 111.077 46.1139 110.961 46.9352 110.961ZM46.9352 112.249C46.5245 112.249 46.1979 112.319 45.9552 112.459C45.7219 112.589 45.5539 112.823 45.4512 113.159C45.3485 113.495 45.2972 113.966 45.2972 114.573C45.2972 115.179 45.3485 115.651 45.4512 115.987C45.5539 116.323 45.7219 116.556 45.9552 116.687C46.1979 116.817 46.5245 116.883 46.9352 116.883C47.3552 116.883 47.6865 116.817 47.9292 116.687C48.1719 116.556 48.3399 116.323 48.4332 115.987C48.5359 115.651 48.5872 115.179 48.5872 114.573C48.5872 113.966 48.5359 113.495 48.4332 113.159C48.3399 112.823 48.1719 112.589 47.9292 112.459C47.6865 112.319 47.3552 112.249 46.9352 112.249ZM56.8903 110.961C58.169 110.961 58.8083 111.591 58.8083 112.851V118.003H57.1143V113.369C57.1143 112.995 57.049 112.739 56.9183 112.599C56.7876 112.459 56.5683 112.389 56.2603 112.389C55.915 112.389 55.5603 112.468 55.1963 112.627C54.8323 112.776 54.3936 112.995 53.8803 113.285L53.8103 112.263C54.3143 111.843 54.8276 111.521 55.3503 111.297C55.873 111.073 56.3863 110.961 56.8903 110.961ZM53.7543 111.129L53.9223 112.473L54.0623 112.669V118.003H52.3683V111.129H53.7543ZM69.0916 110.961C70.3703 110.961 71.0096 111.591 71.0096 112.851V118.003H69.3156V113.369C69.3156 112.995 69.2503 112.739 69.1196 112.599C68.989 112.459 68.7696 112.389 68.4616 112.389C68.1163 112.389 67.7616 112.468 67.3976 112.627C67.0336 112.776 66.595 112.995 66.0816 113.285L66.0116 112.263C66.5156 111.843 67.029 111.521 67.5516 111.297C68.0743 111.073 68.5876 110.961 69.0916 110.961ZM65.9556 111.129L66.1236 112.473L66.2636 112.669V118.003H64.5696V111.129H65.9556ZM76.3965 110.961C77.2365 110.961 77.9038 111.077 78.3985 111.311C78.9025 111.544 79.2618 111.927 79.4765 112.459C79.7005 112.991 79.8125 113.695 79.8125 114.573C79.8125 115.45 79.7005 116.155 79.4765 116.687C79.2618 117.209 78.9025 117.592 78.3985 117.835C77.9038 118.068 77.2365 118.185 76.3965 118.185C75.5751 118.185 74.9125 118.068 74.4085 117.835C73.9138 117.592 73.5545 117.209 73.3305 116.687C73.1065 116.155 72.9945 115.45 72.9945 114.573C72.9945 113.695 73.1065 112.991 73.3305 112.459C73.5545 111.927 73.9138 111.544 74.4085 111.311C74.9125 111.077 75.5751 110.961 76.3965 110.961ZM76.3965 112.249C75.9858 112.249 75.6591 112.319 75.4165 112.459C75.1831 112.589 75.0151 112.823 74.9125 113.159C74.8098 113.495 74.7585 113.966 74.7585 114.573C74.7585 115.179 74.8098 115.651 74.9125 115.987C75.0151 116.323 75.1831 116.556 75.4165 116.687C75.6591 116.817 75.9858 116.883 76.3965 116.883C76.8165 116.883 77.1478 116.817 77.3905 116.687C77.6331 116.556 77.8011 116.323 77.8945 115.987C77.9971 115.651 78.0485 115.179 78.0485 114.573C78.0485 113.966 77.9971 113.495 77.8945 113.159C77.8011 112.823 77.6331 112.589 77.3905 112.459C77.1478 112.319 76.8165 112.249 76.3965 112.249ZM22.5286 126.161C22.9112 126.161 23.2659 126.17 23.5926 126.189C23.9286 126.207 24.2459 126.24 24.5446 126.287C24.8432 126.333 25.1372 126.399 25.4266 126.483L25.2726 127.771C24.9646 127.752 24.6612 127.738 24.3626 127.729C24.0639 127.71 23.7652 127.701 23.4666 127.701C23.1772 127.691 22.8832 127.687 22.5846 127.687C22.1366 127.687 21.7586 127.733 21.4506 127.827C21.1426 127.911 20.8952 128.079 20.7086 128.331C20.5312 128.583 20.4006 128.942 20.3166 129.409C20.2326 129.875 20.1906 130.477 20.1906 131.215C20.1906 132.083 20.2466 132.769 20.3586 133.273C20.4799 133.767 20.6759 134.127 20.9466 134.351C21.2172 134.565 21.5812 134.673 22.0386 134.673C22.3466 134.673 22.6312 134.635 22.8926 134.561C23.1539 134.486 23.3919 134.388 23.6066 134.267C23.8306 134.136 24.0406 134.005 24.2366 133.875L24.4466 134.785C24.2972 134.971 24.0779 135.177 23.7886 135.401C23.5086 135.615 23.1726 135.802 22.7806 135.961C22.3886 136.11 21.9452 136.185 21.4506 136.185C20.7226 136.185 20.1252 136.012 19.6586 135.667C19.2012 135.312 18.8652 134.766 18.6506 134.029C18.4452 133.282 18.3426 132.325 18.3426 131.159C18.3426 129.889 18.4779 128.891 18.7486 128.163C19.0192 127.435 19.4579 126.921 20.0646 126.623C20.6806 126.315 21.5019 126.161 22.5286 126.161ZM25.7346 130.431V136.003H24.4466L24.1946 134.561L24.0266 134.211V130.431H25.7346ZM30.9936 128.961C32.1043 128.961 32.9023 129.157 33.3876 129.549C33.873 129.931 34.1203 130.501 34.1296 131.257C34.139 131.882 33.9896 132.358 33.6816 132.685C33.383 133.002 32.8836 133.161 32.1836 133.161H28.2636V132.111H31.7216C32.039 132.111 32.2396 132.027 32.3236 131.859C32.417 131.691 32.4636 131.485 32.4636 131.243C32.4543 130.86 32.3423 130.594 32.1276 130.445C31.9223 130.295 31.5676 130.221 31.0636 130.221C30.625 130.221 30.2843 130.281 30.0416 130.403C29.799 130.524 29.6263 130.743 29.5236 131.061C29.4303 131.378 29.3836 131.835 29.3836 132.433C29.3836 133.067 29.4443 133.557 29.5656 133.903C29.687 134.248 29.8876 134.486 30.1676 134.617C30.4476 134.738 30.821 134.799 31.2876 134.799C31.633 134.799 32.0296 134.785 32.4776 134.757C32.935 134.729 33.3736 134.691 33.7936 134.645L33.9616 135.723C33.7096 135.825 33.4203 135.909 33.0936 135.975C32.767 136.04 32.4263 136.087 32.0716 136.115C31.7263 136.152 31.3996 136.171 31.0916 136.171C30.2516 136.171 29.575 136.049 29.0616 135.807C28.5576 135.555 28.189 135.163 27.9556 134.631C27.7316 134.099 27.6196 133.413 27.6196 132.573C27.6196 131.667 27.7316 130.953 27.9556 130.431C28.189 129.899 28.553 129.521 29.0476 129.297C29.5516 129.073 30.2003 128.961 30.9936 128.961ZM40.5942 128.961C41.8729 128.961 42.5122 129.591 42.5122 130.851V136.003H40.8182V131.369C40.8182 130.995 40.7529 130.739 40.6222 130.599C40.4916 130.459 40.2722 130.389 39.9642 130.389C39.6189 130.389 39.2642 130.468 38.9002 130.627C38.5362 130.776 38.0976 130.995 37.5842 131.285L37.5142 130.263C38.0182 129.843 38.5316 129.521 39.0542 129.297C39.5769 129.073 40.0902 128.961 40.5942 128.961ZM37.4582 129.129L37.6262 130.473L37.7662 130.669V136.003H36.0722V129.129H37.4582ZM47.8571 128.961C48.9677 128.961 49.7657 129.157 50.2511 129.549C50.7364 129.931 50.9837 130.501 50.9931 131.257C51.0024 131.882 50.8531 132.358 50.5451 132.685C50.2464 133.002 49.7471 133.161 49.0471 133.161H45.1271V132.111H48.5851C48.9024 132.111 49.1031 132.027 49.1871 131.859C49.2804 131.691 49.3271 131.485 49.3271 131.243C49.3177 130.86 49.2057 130.594 48.9911 130.445C48.7857 130.295 48.4311 130.221 47.9271 130.221C47.4884 130.221 47.1477 130.281 46.9051 130.403C46.6624 130.524 46.4897 130.743 46.3871 131.061C46.2937 131.378 46.2471 131.835 46.2471 132.433C46.2471 133.067 46.3077 133.557 46.4291 133.903C46.5504 134.248 46.7511 134.486 47.0311 134.617C47.3111 134.738 47.6844 134.799 48.1511 134.799C48.4964 134.799 48.8931 134.785 49.3411 134.757C49.7984 134.729 50.2371 134.691 50.6571 134.645L50.8251 135.723C50.5731 135.825 50.2837 135.909 49.9571 135.975C49.6304 136.04 49.2897 136.087 48.9351 136.115C48.5897 136.152 48.2631 136.171 47.9551 136.171C47.1151 136.171 46.4384 136.049 45.9251 135.807C45.4211 135.555 45.0524 135.163 44.8191 134.631C44.5951 134.099 44.4831 133.413 44.4831 132.573C44.4831 131.667 44.5951 130.953 44.8191 130.431C45.0524 129.899 45.4164 129.521 45.9111 129.297C46.4151 129.073 47.0637 128.961 47.8571 128.961ZM54.2517 129.129L54.4757 130.473L54.6297 130.669V136.003H52.9357V129.129H54.2517ZM57.6117 128.961L57.4437 130.529H56.9537C56.5897 130.529 56.221 130.589 55.8477 130.711C55.4743 130.832 55.0077 131.014 54.4477 131.257L54.3357 130.263C54.821 129.852 55.3157 129.535 55.8197 129.311C56.3237 129.077 56.809 128.961 57.2757 128.961H57.6117ZM62.6106 128.961C63.1612 128.961 63.6232 129.035 63.9966 129.185C64.3792 129.325 64.6686 129.567 64.8646 129.913C65.0606 130.258 65.1586 130.734 65.1586 131.341V136.003H63.8146L63.5766 134.519L63.4506 134.323V131.327C63.4506 130.963 63.3666 130.701 63.1986 130.543C63.0306 130.375 62.7086 130.291 62.2326 130.291C61.8779 130.291 61.4299 130.305 60.8886 130.333C60.3566 130.361 59.8199 130.398 59.2786 130.445L59.1246 129.283C59.4512 129.217 59.8199 129.161 60.2306 129.115C60.6412 129.068 61.0566 129.031 61.4766 129.003C61.8966 128.975 62.2746 128.961 62.6106 128.961ZM64.4306 131.775L64.4166 132.825H61.2666C60.9866 132.834 60.7859 132.909 60.6646 133.049C60.5432 133.189 60.4826 133.38 60.4826 133.623V134.001C60.4826 134.281 60.5572 134.495 60.7066 134.645C60.8559 134.785 61.0892 134.855 61.4066 134.855C61.6586 134.855 61.9386 134.803 62.2466 134.701C62.5546 134.598 62.8579 134.449 63.1566 134.253C63.4646 134.057 63.7399 133.823 63.9826 133.553V134.435C63.8892 134.575 63.7539 134.743 63.5766 134.939C63.3992 135.125 63.1799 135.312 62.9186 135.499C62.6666 135.685 62.3726 135.839 62.0366 135.961C61.7099 136.082 61.3459 136.143 60.9446 136.143C60.5339 136.143 60.1652 136.073 59.8386 135.933C59.5119 135.783 59.2552 135.569 59.0686 135.289C58.8819 134.999 58.7886 134.645 58.7886 134.225V133.497C58.7886 132.955 58.9659 132.535 59.3206 132.237C59.6846 131.929 60.1792 131.775 60.8046 131.775H64.4306ZM69.6882 127.169V133.931C69.6882 134.22 69.7489 134.425 69.8702 134.547C70.0009 134.668 70.2202 134.729 70.5282 134.729H71.4802L71.6622 135.919C71.5035 135.965 71.3122 136.007 71.0882 136.045C70.8642 136.082 70.6449 136.105 70.4302 136.115C70.2155 136.133 70.0335 136.143 69.8842 136.143C69.2869 136.143 68.8202 135.984 68.4842 135.667C68.1575 135.34 67.9942 134.873 67.9942 134.267V127.169H69.6882ZM71.7322 129.129V130.305H66.7762V129.199L68.1202 129.129H71.7322ZM76.4707 128.961C77.5813 128.961 78.3793 129.157 78.8647 129.549C79.35 129.931 79.5973 130.501 79.6067 131.257C79.616 131.882 79.4667 132.358 79.1587 132.685C78.86 133.002 78.3607 133.161 77.6607 133.161H73.7407V132.111H77.1987C77.516 132.111 77.7167 132.027 77.8007 131.859C77.894 131.691 77.9407 131.485 77.9407 131.243C77.9313 130.86 77.8193 130.594 77.6047 130.445C77.3993 130.295 77.0447 130.221 76.5407 130.221C76.102 130.221 75.7613 130.281 75.5187 130.403C75.276 130.524 75.1033 130.743 75.0007 131.061C74.9073 131.378 74.8607 131.835 74.8607 132.433C74.8607 133.067 74.9213 133.557 75.0427 133.903C75.164 134.248 75.3647 134.486 75.6447 134.617C75.9247 134.738 76.298 134.799 76.7647 134.799C77.11 134.799 77.5067 134.785 77.9547 134.757C78.412 134.729 78.8507 134.691 79.2707 134.645L79.4387 135.723C79.1867 135.825 78.8973 135.909 78.5707 135.975C78.244 136.04 77.9033 136.087 77.5487 136.115C77.2033 136.152 76.8767 136.171 76.5687 136.171C75.7287 136.171 75.052 136.049 74.5387 135.807C74.0347 135.555 73.666 135.163 73.4327 134.631C73.2087 134.099 73.0967 133.413 73.0967 132.573C73.0967 131.667 73.2087 130.953 73.4327 130.431C73.666 129.899 74.03 129.521 74.5247 129.297C75.0287 129.073 75.6773 128.961 76.4707 128.961Z" fill="#333839"/>
<path d="M89.3995 52.6044L52.744 89.2499" stroke="white" stroke-width="6.29" stroke-miterlimit="10"/>
<path d="M89.3995 52.6044L52.744 89.2499" stroke="#250A9D" stroke-width="3.42" stroke-miterlimit="10"/>
<path d="M7.6601 51.6618L5 49.0017L44.9905 9.00134" stroke="white" stroke-width="6.29" stroke-miterlimit="10"/>
<path d="M7.6601 51.6618L5 49.0017L44.9905 9.00134" stroke="#250A9D" stroke-width="3.42" stroke-miterlimit="10"/>
<path d="M67.6359 86.9313H30.3154L11.0001 67.6358V30.3153L30.3154 11H67.6359L86.9512 30.3153V67.6358L67.6359 86.9313Z" fill="#250A9D"/>
<path d="M52.7421 89.2507L49.0002 93.0026L7.65979 51.6622" stroke="white" stroke-width="6.29" stroke-miterlimit="10"/>
<path d="M52.7421 89.2507L49.0002 93.0026L7.65979 51.6622" stroke="#250A9D" stroke-width="3.42" stroke-miterlimit="10"/>
<path d="M44.9896 9.00004L48.9995 5L93 49.0004L89.397 52.6034" stroke="white" stroke-width="6.29" stroke-miterlimit="10"/>
<path d="M44.9896 9.00004L48.9995 5L93 49.0004L89.397 52.6034" stroke="#250A9D" stroke-width="3.42" stroke-miterlimit="10"/>
<g clip-path="url(#clip0_488_8873)">
<path d="M49.081 39.2784C48.9048 39.6692 48.676 40.0299 48.5799 40.4207C48.2383 41.7877 49.081 43.1137 50.459 43.4369C51.1981 43.6106 51.9372 43.7876 52.6813 43.9379C53.4688 44.0983 53.9123 44.5626 54.0676 45.3475C54.2063 46.0506 54.3766 46.7487 54.5437 47.4468C55.0022 49.3674 56.9531 50.0956 58.5524 48.9558C58.5933 48.9274 58.6359 48.9023 58.6818 48.8723C59.6456 52.6216 58.5532 58.3108 53.6259 61.7721C48.9424 65.0622 42.5769 64.6781 38.169 60.8218C33.9165 57.1017 32.7623 50.8355 35.4248 45.7116C36.6813 43.291 38.6984 41.3502 41.1658 40.1879C43.6332 39.0255 46.4142 38.706 49.081 39.2784ZM47.4942 52.5005H47.865C49.3544 52.5005 50.8437 52.5005 52.3331 52.5005C52.4577 52.5059 52.5826 52.4978 52.7055 52.4763C52.9479 52.425 53.1624 52.2854 53.3074 52.0846C53.4524 51.8838 53.5175 51.6363 53.49 51.3901C53.4625 51.144 53.3444 50.9169 53.1586 50.7531C52.9728 50.5893 52.7327 50.5005 52.485 50.5039C50.9434 50.4981 49.4017 50.5039 47.8609 50.5039H47.4942V50.1407C47.4942 48.6409 47.4942 47.1415 47.4942 45.6423C47.4942 44.9567 47.0842 44.4983 46.4837 44.5041C45.8832 44.51 45.4949 44.9617 45.4949 45.6306C45.4949 47.1404 45.4949 48.6504 45.4949 50.1607V50.5039H45.1742C43.6434 50.5039 42.1126 50.5039 40.5809 50.5039C40.1183 50.5039 39.77 50.6868 39.5788 51.1119C39.2781 51.7866 39.7767 52.5005 40.5509 52.5039C42.0817 52.5089 43.6125 52.5039 45.1441 52.5039H45.4966V52.8813C45.4966 54.412 45.4966 55.9426 45.4966 57.4741C45.4885 57.7214 45.5726 57.9629 45.7327 58.1517C45.8928 58.3404 46.1173 58.4629 46.3627 58.4953C46.6081 58.5277 46.8567 58.4676 47.0603 58.3269C47.2639 58.1862 47.4078 57.9748 47.4642 57.7338C47.4897 57.601 47.4998 57.4656 47.4942 57.3305C47.4992 55.7339 47.4984 54.1414 47.4984 52.5005H47.4942Z" fill="white"/>
<path d="M56.989 47.9979C56.5063 47.9921 56.1304 47.6722 56.0077 47.1495C55.8356 46.4096 55.6736 45.6689 55.5066 44.9283C55.2132 43.6206 54.4148 42.8133 53.1114 42.5066C52.3723 42.3329 51.6307 42.1726 50.8899 42.0056C50.3312 41.8795 49.998 41.4987 50.0047 40.9943C50.0114 40.49 50.3387 40.1317 50.8832 40.0081C51.624 39.8411 52.3648 39.6741 53.1047 39.5071C54.4087 39.2015 55.2087 38.3943 55.5049 37.0855C55.672 36.3556 55.839 35.6255 56.006 34.8951C56.1313 34.3206 56.5071 33.9941 57.0132 34C57.5193 34.0058 57.8734 34.329 57.9995 34.8784C58.1665 35.6183 58.3336 36.3598 58.5048 37.0988C58.8088 38.4043 59.6161 39.2045 60.9267 39.4996C61.6574 39.6666 62.3882 39.8336 63.1173 40.0006C63.6893 40.1342 64.0092 40.5017 64.0025 41.0119C63.9958 41.5221 63.6801 41.8678 63.1239 41.9981C62.3951 42.1684 61.6649 42.3354 60.9334 42.4991C59.6255 42.7922 58.8146 43.5897 58.5114 44.894C58.3352 45.6456 58.1774 46.3971 57.9995 47.1487C57.8701 47.6806 57.4842 48.0037 56.989 47.9979Z" fill="white"/>
</g>
<defs>
<clipPath id="clip0_488_8873">
<rect width="30" height="30" fill="white" transform="translate(34 34)"/>
</clipPath>
</defs>
</svg>
