<svg width="100" height="156" viewBox="0 0 100 156" fill="none" xmlns="http://www.w3.org/2000/svg">
<rect width="100" height="156" rx="19" fill="#F9FBFF"/>
<path d="M24.1979 109.175C24.6365 109.175 25.0099 109.189 25.3179 109.217C25.6259 109.235 25.9105 109.268 26.1719 109.315C26.4332 109.352 26.7039 109.408 26.9839 109.483L26.8299 110.785C26.5405 110.766 26.2699 110.752 26.0179 110.743C25.7659 110.724 25.4952 110.71 25.2059 110.701C24.9259 110.691 24.5899 110.687 24.1979 110.687C23.6565 110.687 23.2319 110.794 22.9239 111.009C22.6159 111.223 22.3965 111.583 22.2659 112.087C22.1445 112.591 22.0839 113.286 22.0839 114.173C22.0839 115.059 22.1445 115.755 22.2659 116.259C22.3965 116.763 22.6159 117.122 22.9239 117.337C23.2319 117.551 23.6565 117.659 24.1979 117.659C24.8232 117.659 25.3459 117.649 25.7659 117.631C26.1952 117.603 26.6152 117.565 27.0259 117.519L27.1799 118.807C26.7599 118.937 26.3259 119.031 25.8779 119.087C25.4299 119.143 24.8699 119.171 24.1979 119.171C23.2272 119.171 22.4525 119.012 21.8739 118.695C21.2952 118.368 20.8752 117.841 20.6139 117.113C20.3619 116.385 20.2359 115.405 20.2359 114.173C20.2359 112.941 20.3619 111.961 20.6139 111.233C20.8752 110.505 21.2952 109.982 21.8739 109.665C22.4525 109.338 23.2272 109.175 24.1979 109.175ZM32.305 111.961C32.8556 111.961 33.3176 112.035 33.691 112.185C34.0736 112.325 34.363 112.567 34.559 112.913C34.755 113.258 34.853 113.734 34.853 114.341V119.003H33.509L33.271 117.519L33.145 117.323V114.327C33.145 113.963 33.061 113.701 32.893 113.543C32.725 113.375 32.403 113.291 31.927 113.291C31.5723 113.291 31.1243 113.305 30.583 113.333C30.051 113.361 29.5143 113.398 28.973 113.445L28.819 112.283C29.1456 112.217 29.5143 112.161 29.925 112.115C30.3356 112.068 30.751 112.031 31.171 112.003C31.591 111.975 31.969 111.961 32.305 111.961ZM34.125 114.775L34.111 115.825H30.961C30.681 115.834 30.4803 115.909 30.359 116.049C30.2376 116.189 30.177 116.38 30.177 116.623V117.001C30.177 117.281 30.2516 117.495 30.401 117.645C30.5503 117.785 30.7836 117.855 31.101 117.855C31.353 117.855 31.633 117.803 31.941 117.701C32.249 117.598 32.5523 117.449 32.851 117.253C33.159 117.057 33.4343 116.823 33.677 116.553V117.435C33.5836 117.575 33.4483 117.743 33.271 117.939C33.0936 118.125 32.8743 118.312 32.613 118.499C32.361 118.685 32.067 118.839 31.731 118.961C31.4043 119.082 31.0403 119.143 30.639 119.143C30.2283 119.143 29.8596 119.073 29.533 118.933C29.2063 118.783 28.9496 118.569 28.763 118.289C28.5763 117.999 28.483 117.645 28.483 117.225V116.497C28.483 115.955 28.6603 115.535 29.015 115.237C29.379 114.929 29.8736 114.775 30.499 114.775H34.125ZM39.2426 110.169V116.931C39.2426 117.22 39.3033 117.425 39.4246 117.547C39.5553 117.668 39.7746 117.729 40.0826 117.729H41.0346L41.2166 118.919C41.058 118.965 40.8666 119.007 40.6426 119.045C40.4186 119.082 40.1993 119.105 39.9846 119.115C39.77 119.133 39.588 119.143 39.4386 119.143C38.8413 119.143 38.3746 118.984 38.0386 118.667C37.712 118.34 37.5486 117.873 37.5486 117.267V110.169H39.2426ZM41.2866 112.129V113.305H36.3306V112.199L37.6746 112.129H41.2866ZM45.8851 111.961C46.9957 111.961 47.7937 112.157 48.2791 112.549C48.7644 112.931 49.0117 113.501 49.0211 114.257C49.0304 114.882 48.8811 115.358 48.5731 115.685C48.2744 116.002 47.7751 116.161 47.0751 116.161H43.1551V115.111H46.6131C46.9304 115.111 47.1311 115.027 47.2151 114.859C47.3084 114.691 47.3551 114.485 47.3551 114.243C47.3457 113.86 47.2337 113.594 47.0191 113.445C46.8137 113.295 46.4591 113.221 45.9551 113.221C45.5164 113.221 45.1757 113.281 44.9331 113.403C44.6904 113.524 44.5177 113.743 44.4151 114.061C44.3217 114.378 44.2751 114.835 44.2751 115.433C44.2751 116.067 44.3357 116.557 44.4571 116.903C44.5784 117.248 44.7791 117.486 45.0591 117.617C45.3391 117.738 45.7124 117.799 46.1791 117.799C46.5244 117.799 46.9211 117.785 47.3691 117.757C47.8264 117.729 48.2651 117.691 48.6851 117.645L48.8531 118.723C48.6011 118.825 48.3117 118.909 47.9851 118.975C47.6584 119.04 47.3177 119.087 46.9631 119.115C46.6177 119.152 46.2911 119.171 45.9831 119.171C45.1431 119.171 44.4664 119.049 43.9531 118.807C43.4491 118.555 43.0804 118.163 42.8471 117.631C42.6231 117.099 42.5111 116.413 42.5111 115.573C42.5111 114.667 42.6231 113.953 42.8471 113.431C43.0804 112.899 43.4444 112.521 43.9391 112.297C44.4431 112.073 45.0917 111.961 45.8851 111.961ZM53.7357 111.961C54.5104 111.961 55.1217 112.035 55.5697 112.185C56.027 112.325 56.3537 112.558 56.5497 112.885C56.7457 113.202 56.8437 113.622 56.8437 114.145C56.8437 114.649 56.7457 115.064 56.5497 115.391C56.3537 115.708 56.027 115.941 55.5697 116.091C55.1124 116.24 54.4964 116.315 53.7217 116.315C52.947 116.315 52.331 116.24 51.8737 116.091C51.4257 115.941 51.099 115.708 50.8937 115.391C50.6977 115.073 50.5997 114.658 50.5997 114.145C50.5997 113.622 50.6977 113.202 50.8937 112.885C51.099 112.558 51.4304 112.325 51.8877 112.185C52.345 112.035 52.961 111.961 53.7357 111.961ZM53.7217 113.067C53.1337 113.067 52.7277 113.146 52.5037 113.305C52.2797 113.463 52.1677 113.743 52.1677 114.145C52.1677 114.527 52.2797 114.803 52.5037 114.971C52.7277 115.129 53.1337 115.209 53.7217 115.209C54.3097 115.209 54.711 115.129 54.9257 114.971C55.1497 114.803 55.2617 114.527 55.2617 114.145C55.2617 113.743 55.1497 113.463 54.9257 113.305C54.711 113.146 54.3097 113.067 53.7217 113.067ZM57.6417 112.129L57.5437 112.913L55.7517 113.109L55.2477 112.129H57.6417ZM51.7197 115.895L52.5877 116.021C52.4477 116.133 52.3497 116.277 52.2937 116.455C52.247 116.623 52.261 116.786 52.3357 116.945C52.4197 117.094 52.597 117.187 52.8677 117.225L55.4157 117.561C56.1064 117.645 56.5917 117.85 56.8717 118.177C57.1517 118.494 57.2917 118.956 57.2917 119.563C57.2917 120.132 57.1797 120.575 56.9557 120.893C56.7317 121.21 56.363 121.429 55.8497 121.551C55.3457 121.681 54.6644 121.747 53.8057 121.747C53.1244 121.747 52.5597 121.709 52.1117 121.635C51.6637 121.569 51.3044 121.453 51.0337 121.285C50.7724 121.126 50.5857 120.916 50.4737 120.655C50.3617 120.403 50.3057 120.085 50.3057 119.703C50.3057 119.404 50.3524 119.152 50.4457 118.947C50.5484 118.741 50.7117 118.559 50.9357 118.401C51.1597 118.233 51.463 118.079 51.8457 117.939L52.7977 117.533L53.4557 117.771L52.8397 118.205C52.625 118.363 52.4477 118.508 52.3077 118.639C52.177 118.76 52.079 118.881 52.0137 119.003C51.9577 119.133 51.9297 119.297 51.9297 119.493C51.9297 119.754 51.981 119.955 52.0837 120.095C52.1957 120.235 52.387 120.328 52.6577 120.375C52.9284 120.431 53.3064 120.459 53.7917 120.459C54.2864 120.459 54.669 120.431 54.9397 120.375C55.2104 120.328 55.397 120.235 55.4997 120.095C55.6117 119.964 55.6677 119.773 55.6677 119.521C55.6677 119.315 55.635 119.161 55.5697 119.059C55.5044 118.965 55.3877 118.891 55.2197 118.835C55.0517 118.779 54.8184 118.732 54.5197 118.695L52.2237 118.415C51.897 118.377 51.6357 118.284 51.4397 118.135C51.253 117.976 51.1224 117.789 51.0477 117.575C50.973 117.351 50.9497 117.131 50.9777 116.917C51.015 116.693 51.0944 116.487 51.2157 116.301C51.3464 116.114 51.5144 115.979 51.7197 115.895ZM62.1414 111.961C62.9814 111.961 63.6487 112.077 64.1434 112.311C64.6474 112.544 65.0067 112.927 65.2214 113.459C65.4454 113.991 65.5574 114.695 65.5574 115.573C65.5574 116.45 65.4454 117.155 65.2214 117.687C65.0067 118.209 64.6474 118.592 64.1434 118.835C63.6487 119.068 62.9814 119.185 62.1414 119.185C61.32 119.185 60.6574 119.068 60.1534 118.835C59.6587 118.592 59.2994 118.209 59.0754 117.687C58.8514 117.155 58.7394 116.45 58.7394 115.573C58.7394 114.695 58.8514 113.991 59.0754 113.459C59.2994 112.927 59.6587 112.544 60.1534 112.311C60.6574 112.077 61.32 111.961 62.1414 111.961ZM62.1414 113.249C61.7307 113.249 61.404 113.319 61.1614 113.459C60.928 113.589 60.76 113.823 60.6574 114.159C60.5547 114.495 60.5034 114.966 60.5034 115.573C60.5034 116.179 60.5547 116.651 60.6574 116.987C60.76 117.323 60.928 117.556 61.1614 117.687C61.404 117.817 61.7307 117.883 62.1414 117.883C62.5614 117.883 62.8927 117.817 63.1354 117.687C63.378 117.556 63.546 117.323 63.6394 116.987C63.742 116.651 63.7934 116.179 63.7934 115.573C63.7934 114.966 63.742 114.495 63.6394 114.159C63.546 113.823 63.378 113.589 63.1354 113.459C62.8927 113.319 62.5614 113.249 62.1414 113.249ZM68.7505 112.129L68.9745 113.473L69.1285 113.669V119.003H67.4345V112.129H68.7505ZM72.1105 111.961L71.9425 113.529H71.4525C71.0885 113.529 70.7198 113.589 70.3465 113.711C69.9731 113.832 69.5065 114.014 68.9465 114.257L68.8345 113.263C69.3198 112.852 69.8145 112.535 70.3185 112.311C70.8225 112.077 71.3078 111.961 71.7745 111.961H72.1105ZM80.1047 112.129L77.5287 119.213C77.4074 119.539 77.2534 119.861 77.0667 120.179C76.8894 120.505 76.6607 120.799 76.3807 121.061C76.1007 121.322 75.7694 121.527 75.3867 121.677C75.004 121.826 74.5607 121.882 74.0567 121.845L73.9167 120.837C74.4767 120.678 74.9107 120.463 75.2187 120.193C75.536 119.922 75.7834 119.577 75.9607 119.157L76.3387 118.261C76.4227 118.055 76.502 117.822 76.5767 117.561C76.6607 117.29 76.7307 117.057 76.7867 116.861L78.2847 112.129H80.1047ZM74.5607 112.129L76.0867 116.861C76.1334 117.019 76.1754 117.183 76.2127 117.351C76.25 117.509 76.2827 117.668 76.3107 117.827H76.6607L76.1287 119.003H75.6807C75.55 119.003 75.4334 118.965 75.3307 118.891C75.228 118.816 75.158 118.713 75.1207 118.583L72.7547 112.129H74.5607ZM36.4022 127.343C36.8408 127.343 37.0648 127.567 37.0742 128.015L37.4522 137.003H35.7862L35.4502 128.729H35.1842L33.3782 135.211C33.2942 135.593 33.0562 135.785 32.6642 135.785H31.4322C31.0308 135.785 30.7835 135.593 30.6902 135.211L28.8842 128.729H28.6182L28.3102 137.003H26.6442L27.0222 128.015C27.0408 127.567 27.2648 127.343 27.6942 127.343H29.4442C29.8175 127.343 30.0508 127.534 30.1442 127.917L31.6282 133.209C31.6935 133.433 31.7448 133.657 31.7822 133.881C31.8288 134.105 31.8802 134.329 31.9362 134.553H32.1462C32.2022 134.329 32.2535 134.105 32.3002 133.881C32.3468 133.657 32.3982 133.428 32.4542 133.195L33.9382 127.917C34.0222 127.534 34.2602 127.343 34.6522 127.343H36.4022ZM43.0439 129.961C43.5946 129.961 44.0566 130.035 44.4299 130.185C44.8126 130.325 45.1019 130.567 45.2979 130.913C45.4939 131.258 45.5919 131.734 45.5919 132.341V137.003H44.2479L44.0099 135.519L43.8839 135.323V132.327C43.8839 131.963 43.7999 131.701 43.6319 131.543C43.4639 131.375 43.1419 131.291 42.6659 131.291C42.3113 131.291 41.8633 131.305 41.3219 131.333C40.7899 131.361 40.2533 131.398 39.7119 131.445L39.5579 130.283C39.8846 130.217 40.2533 130.161 40.6639 130.115C41.0746 130.068 41.4899 130.031 41.9099 130.003C42.3299 129.975 42.7079 129.961 43.0439 129.961ZM44.8639 132.775L44.8499 133.825H41.6999C41.4199 133.834 41.2193 133.909 41.0979 134.049C40.9766 134.189 40.9159 134.38 40.9159 134.623V135.001C40.9159 135.281 40.9906 135.495 41.1399 135.645C41.2893 135.785 41.5226 135.855 41.8399 135.855C42.0919 135.855 42.3719 135.803 42.6799 135.701C42.9879 135.598 43.2913 135.449 43.5899 135.253C43.8979 135.057 44.1733 134.823 44.4159 134.553V135.435C44.3226 135.575 44.1873 135.743 44.0099 135.939C43.8326 136.125 43.6133 136.312 43.3519 136.499C43.0999 136.685 42.8059 136.839 42.4699 136.961C42.1433 137.082 41.7793 137.143 41.3779 137.143C40.9673 137.143 40.5986 137.073 40.2719 136.933C39.9453 136.783 39.6886 136.569 39.5019 136.289C39.3153 135.999 39.2219 135.645 39.2219 135.225V134.497C39.2219 133.955 39.3993 133.535 39.7539 133.237C40.1179 132.929 40.6126 132.775 41.2379 132.775H44.8639ZM50.1916 129.961C50.5089 129.961 50.8496 129.97 51.2136 129.989C51.5869 130.007 51.9509 130.035 52.3056 130.073C52.6603 130.101 52.9776 130.143 53.2576 130.199L53.1456 131.305C52.6976 131.295 52.2496 131.286 51.8016 131.277C51.3629 131.258 50.9289 131.249 50.4996 131.249C50.1169 131.249 49.8136 131.258 49.5896 131.277C49.3749 131.295 49.2209 131.351 49.1276 131.445C49.0436 131.538 49.0016 131.697 49.0016 131.921C49.0016 132.191 49.0763 132.373 49.2256 132.467C49.3749 132.551 49.6176 132.635 49.9536 132.719L51.8296 133.153C52.3896 133.293 52.8049 133.507 53.0756 133.797C53.3463 134.077 53.4816 134.511 53.4816 135.099C53.4816 135.668 53.3743 136.102 53.1596 136.401C52.9543 136.69 52.6229 136.891 52.1656 137.003C51.7176 137.105 51.1436 137.157 50.4436 137.157C50.1729 137.157 49.7716 137.143 49.2396 137.115C48.7076 137.096 48.1243 137.035 47.4896 136.933L47.6016 135.827C47.7883 135.827 48.0076 135.831 48.2596 135.841C48.5209 135.85 48.7963 135.855 49.0856 135.855C49.3843 135.855 49.6876 135.855 49.9956 135.855C50.4903 135.855 50.8683 135.841 51.1296 135.813C51.4003 135.775 51.5869 135.705 51.6896 135.603C51.7923 135.491 51.8436 135.332 51.8436 135.127C51.8436 134.865 51.7549 134.693 51.5776 134.609C51.4096 134.515 51.1576 134.427 50.8216 134.343L48.9876 133.895C48.5676 133.783 48.2409 133.643 48.0076 133.475C47.7743 133.297 47.6063 133.083 47.5036 132.831C47.4009 132.569 47.3496 132.252 47.3496 131.879C47.3496 131.375 47.4429 130.983 47.6296 130.703C47.8256 130.423 48.1289 130.227 48.5396 130.115C48.9596 130.003 49.5103 129.951 50.1916 129.961ZM57.5624 128.169V134.931C57.5624 135.22 57.6231 135.425 57.7444 135.547C57.8751 135.668 58.0944 135.729 58.4024 135.729H59.3544L59.5364 136.919C59.3777 136.965 59.1864 137.007 58.9624 137.045C58.7384 137.082 58.5191 137.105 58.3044 137.115C58.0897 137.133 57.9077 137.143 57.7584 137.143C57.1611 137.143 56.6944 136.984 56.3584 136.667C56.0317 136.34 55.8684 135.873 55.8684 135.267V128.169H57.5624ZM59.6064 130.129V131.305H54.6504V130.199L55.9944 130.129H59.6064ZM64.2048 129.961C65.3155 129.961 66.1135 130.157 66.5988 130.549C67.0842 130.931 67.3315 131.501 67.3408 132.257C67.3502 132.882 67.2008 133.358 66.8928 133.685C66.5942 134.002 66.0948 134.161 65.3948 134.161H61.4748V133.111H64.9328C65.2502 133.111 65.4508 133.027 65.5348 132.859C65.6282 132.691 65.6748 132.485 65.6748 132.243C65.6655 131.86 65.5535 131.594 65.3388 131.445C65.1335 131.295 64.7788 131.221 64.2748 131.221C63.8362 131.221 63.4955 131.281 63.2528 131.403C63.0102 131.524 62.8375 131.743 62.7348 132.061C62.6415 132.378 62.5948 132.835 62.5948 133.433C62.5948 134.067 62.6555 134.557 62.7768 134.903C62.8982 135.248 63.0988 135.486 63.3788 135.617C63.6588 135.738 64.0322 135.799 64.4988 135.799C64.8442 135.799 65.2408 135.785 65.6888 135.757C66.1462 135.729 66.5848 135.691 67.0048 135.645L67.1728 136.723C66.9208 136.825 66.6315 136.909 66.3048 136.975C65.9782 137.04 65.6375 137.087 65.2828 137.115C64.9375 137.152 64.6108 137.171 64.3028 137.171C63.4628 137.171 62.7862 137.049 62.2728 136.807C61.7688 136.555 61.4002 136.163 61.1668 135.631C60.9428 135.099 60.8308 134.413 60.8308 133.573C60.8308 132.667 60.9428 131.953 61.1668 131.431C61.4002 130.899 61.7642 130.521 62.2588 130.297C62.7628 130.073 63.4115 129.961 64.2048 129.961ZM70.4595 130.129L70.6835 131.473L70.8375 131.669V137.003H69.1435V130.129H70.4595ZM73.8195 129.961L73.6515 131.529H73.1615C72.7975 131.529 72.4288 131.589 72.0555 131.711C71.6821 131.832 71.2155 132.014 70.6555 132.257L70.5435 131.263C71.0288 130.852 71.5235 130.535 72.0275 130.311C72.5315 130.077 73.0168 129.961 73.4835 129.961H73.8195Z" fill="#333839"/>
<path d="M90.3995 53.6044L53.744 90.2499" stroke="white" stroke-width="6.29" stroke-miterlimit="10"/>
<path d="M90.3995 53.6044L53.744 90.2499" stroke="#CB4968" stroke-width="3.42" stroke-miterlimit="10"/>
<path d="M8.6601 52.6618L6 50.0017L45.9905 10.0013" stroke="white" stroke-width="6.29" stroke-miterlimit="10"/>
<path d="M8.6601 52.6618L6 50.0017L45.9905 10.0013" stroke="#CB4968" stroke-width="3.42" stroke-miterlimit="10"/>
<path d="M68.6359 87.9313H31.3154L12.0001 68.6358V31.3153L31.3154 12H68.6359L87.9512 31.3153V68.6358L68.6359 87.9313Z" fill="#CB4968"/>
<path d="M53.7421 90.2507L50.0002 94.0026L8.65979 52.6622" stroke="white" stroke-width="6.29" stroke-miterlimit="10"/>
<path d="M53.7421 90.2507L50.0002 94.0026L8.65979 52.6622" stroke="#CB4968" stroke-width="3.42" stroke-miterlimit="10"/>
<path d="M45.9896 10L49.9995 6L94 50.0004L90.397 53.6034" stroke="white" stroke-width="6.29" stroke-miterlimit="10"/>
<path d="M45.9896 10L49.9995 6L94 50.0004L90.397 53.6034" stroke="#CB4968" stroke-width="3.42" stroke-miterlimit="10"/>
<path d="M57.0105 50.9908V59.9867C57.3634 59.9867 57.7055 60.0025 58.0434 59.9758C58.1268 59.9692 58.2269 59.8407 58.2753 59.7456C58.8443 58.6234 59.7454 58.0051 61.0095 57.9934C62.518 57.9801 63.7453 59.0923 63.9722 60.6316C64.1741 62.0016 63.2555 63.4217 61.8922 63.8472C61.2096 64.0602 60.4731 64.0213 59.8168 63.7374C59.1604 63.4535 58.6277 62.9436 58.3154 62.3003C58.2653 62.1985 58.2186 62.0951 58.166 61.9841C57.4727 61.9841 56.786 61.9841 56.0994 61.9841C55.4127 61.9841 54.9989 61.5769 54.9989 60.8744C54.9989 57.72 54.9989 54.5651 54.9989 51.4096V51.0025H53.0206V49H54.9997V39.189C54.9997 38.3747 55.3701 38.0017 56.1778 38.0009C56.7393 38.0009 57.3025 37.9884 57.864 38.0067C58.0934 38.0142 58.2052 37.9458 58.3045 37.7314C58.5877 37.1099 59.0772 36.6056 59.6899 36.304C60.3027 36.0024 61.0009 35.9222 61.6661 36.0769C62.3295 36.2327 62.9206 36.6087 63.3429 37.1436C63.7652 37.6785 63.9938 38.3406 63.9914 39.0221C63.9833 39.6938 63.7511 40.3435 63.3317 40.8682C62.9122 41.3929 62.3295 41.7624 61.6761 41.9181C61.0168 42.0738 60.324 41.9986 59.7134 41.705C59.1029 41.4115 58.6115 40.9175 58.3212 40.3053C58.2044 40.055 58.0776 39.9649 57.8114 39.9916C57.5453 40.0183 57.295 39.9975 57.0163 39.9975V48.9917C57.3659 48.9917 57.708 49.0067 58.0459 48.9809C58.1293 48.9742 58.2278 48.8432 58.277 48.7481C58.8469 47.6259 59.7479 47.0093 61.012 46.996C62.5205 46.9843 63.7478 48.099 63.9722 49.6375C64.1725 51.0075 63.253 52.4267 61.8864 52.8514C61.2044 53.0665 60.4677 53.0278 59.812 52.7425C59.1564 52.4571 58.626 51.9443 58.3187 51.2987C58.2019 51.0525 58.0793 50.9549 57.8106 50.9824C57.5442 50.9986 57.2771 51.0014 57.0105 50.9908Z" fill="#FFFEFE"/>
<path d="M43.5091 57.986C42.6989 57.6239 41.9339 57.281 41.1679 56.9397C39.6936 56.2831 38.226 55.6256 36.7509 54.9748C36.2445 54.7529 36 54.4 36 53.8393C36.0092 51.3212 36.0042 48.804 36.0042 46.286V46.0015C36.1285 46.0499 36.2319 46.0849 36.3304 46.1283C38.6276 47.1478 40.9251 48.1669 43.2229 49.1853C43.4315 49.2779 43.5074 49.3847 43.5058 49.6208C43.4957 52.2949 43.4999 54.9682 43.4999 57.6422L43.5091 57.986Z" fill="#FFFEFE"/>
<path d="M44.5195 57.9667C44.5128 57.8616 44.5045 57.7824 44.5045 57.7031C44.5045 54.9965 44.5045 52.2896 44.5045 49.5824C44.5045 49.4156 44.5228 49.3063 44.708 49.2245C47.0759 48.181 49.4399 47.1311 51.8 46.0748C51.855 46.0498 51.9134 46.0348 51.9994 46.0048V46.306C51.9994 48.8157 51.9944 51.3245 52.0035 53.8334C52.0035 54.3774 51.7858 54.7395 51.2885 54.9606C49.1042 55.9301 46.9213 56.9035 44.7397 57.8808C44.6772 57.9108 44.6079 57.9334 44.5195 57.9667Z" fill="#FFFEFE"/>
<path d="M51.4595 45.1321L49.4988 46.0031C47.7517 46.7807 46.0063 47.5608 44.255 48.3293C44.1196 48.3907 43.9662 48.3999 43.8245 48.3551C41.4457 47.3097 39.0737 46.2501 36.7 45.1938C36.6716 45.1813 36.6458 45.1646 36.5807 45.1304C36.6808 45.077 36.7559 45.0311 36.831 44.9969C39.0559 44.0374 41.2792 43.0782 43.5007 42.1193C43.6504 42.0472 43.814 42.0086 43.9802 42.0061C44.1463 42.0037 44.311 42.0374 44.4627 42.1051C46.7321 43.0879 49.0032 44.0669 51.276 45.042C51.3177 45.0578 51.3519 45.0787 51.4595 45.1321Z" fill="#FFFEFE"/>
</svg>
