<svg width="100" height="156" viewBox="0 0 100 156" fill="none" xmlns="http://www.w3.org/2000/svg">
<rect width="100" height="156" rx="19" fill="#F9FBFF"/>
<path d="M41.4258 109.175C41.8645 109.175 42.2378 109.189 42.5458 109.217C42.8538 109.235 43.1385 109.268 43.3998 109.315C43.6611 109.352 43.9318 109.408 44.2118 109.483L44.0578 110.785C43.7685 110.766 43.4978 110.752 43.2458 110.743C42.9938 110.724 42.7231 110.71 42.4338 110.701C42.1538 110.691 41.8178 110.687 41.4258 110.687C40.8845 110.687 40.4598 110.794 40.1518 111.009C39.8438 111.223 39.6245 111.583 39.4938 112.087C39.3725 112.591 39.3118 113.286 39.3118 114.173C39.3118 115.059 39.3725 115.755 39.4938 116.259C39.6245 116.763 39.8438 117.122 40.1518 117.337C40.4598 117.551 40.8845 117.659 41.4258 117.659C42.0511 117.659 42.5738 117.649 42.9938 117.631C43.4231 117.603 43.8431 117.565 44.2538 117.519L44.4078 118.807C43.9878 118.937 43.5538 119.031 43.1058 119.087C42.6578 119.143 42.0978 119.171 41.4258 119.171C40.4551 119.171 39.6805 119.012 39.1018 118.695C38.5231 118.368 38.1031 117.841 37.8418 117.113C37.5898 116.385 37.4638 115.405 37.4638 114.173C37.4638 112.941 37.5898 111.961 37.8418 111.233C38.1031 110.505 38.5231 109.982 39.1018 109.665C39.6805 109.338 40.4551 109.175 41.4258 109.175ZM47.9509 112.129V119.003H46.2709V112.129H47.9509ZM47.4889 109.147C47.8249 109.147 47.9929 109.315 47.9929 109.651V110.435C47.9929 110.771 47.8249 110.939 47.4889 110.939H46.7329C46.3969 110.939 46.2289 110.771 46.2289 110.435V109.651C46.2289 109.315 46.3969 109.147 46.7329 109.147H47.4889ZM52.5943 110.169V116.931C52.5943 117.22 52.655 117.425 52.7763 117.547C52.907 117.668 53.1263 117.729 53.4343 117.729H54.3863L54.5683 118.919C54.4096 118.965 54.2183 119.007 53.9943 119.045C53.7703 119.082 53.551 119.105 53.3363 119.115C53.1216 119.133 52.9396 119.143 52.7903 119.143C52.193 119.143 51.7263 118.984 51.3903 118.667C51.0636 118.34 50.9003 117.873 50.9003 117.267V110.169H52.5943ZM54.6383 112.129V113.305H49.6823V112.199L51.0263 112.129H54.6383ZM62.8768 112.129L60.3008 119.213C60.1794 119.539 60.0254 119.861 59.8388 120.179C59.6614 120.505 59.4328 120.799 59.1528 121.061C58.8728 121.322 58.5414 121.527 58.1588 121.677C57.7761 121.826 57.3328 121.882 56.8288 121.845L56.6888 120.837C57.2488 120.678 57.6828 120.463 57.9908 120.193C58.3081 119.922 58.5554 119.577 58.7328 119.157L59.1108 118.261C59.1948 118.055 59.2741 117.822 59.3488 117.561C59.4328 117.29 59.5028 117.057 59.5588 116.861L61.0568 112.129H62.8768ZM57.3328 112.129L58.8588 116.861C58.9054 117.019 58.9474 117.183 58.9848 117.351C59.0221 117.509 59.0548 117.668 59.0828 117.827H59.4328L58.9008 119.003H58.4528C58.3221 119.003 58.2054 118.965 58.1028 118.891C58.0001 118.816 57.9301 118.713 57.8928 118.583L55.5268 112.129H57.3328ZM36.0522 127.343C36.4908 127.343 36.7148 127.567 36.7242 128.015L37.1022 137.003H35.4362L35.1002 128.729H34.8342L33.0282 135.211C32.9442 135.593 32.7062 135.785 32.3142 135.785H31.0822C30.6808 135.785 30.4335 135.593 30.3402 135.211L28.5342 128.729H28.2682L27.9602 137.003H26.2942L26.6722 128.015C26.6908 127.567 26.9148 127.343 27.3442 127.343H29.0942C29.4675 127.343 29.7008 127.534 29.7942 127.917L31.2782 133.209C31.3435 133.433 31.3948 133.657 31.4322 133.881C31.4788 134.105 31.5302 134.329 31.5862 134.553H31.7962C31.8522 134.329 31.9035 134.105 31.9502 133.881C31.9968 133.657 32.0482 133.428 32.1042 133.195L33.5882 127.917C33.6722 127.534 33.9102 127.343 34.3022 127.343H36.0522ZM42.834 129.961C43.3846 129.961 43.8466 130.035 44.22 130.185C44.6026 130.325 44.892 130.567 45.088 130.913C45.284 131.258 45.382 131.734 45.382 132.341V137.003H44.038L43.8 135.519L43.674 135.323V132.327C43.674 131.963 43.59 131.701 43.422 131.543C43.254 131.375 42.932 131.291 42.456 131.291C42.1013 131.291 41.6533 131.305 41.112 131.333C40.58 131.361 40.0433 131.398 39.502 131.445L39.348 130.283C39.6746 130.217 40.0433 130.161 40.454 130.115C40.8646 130.068 41.28 130.031 41.7 130.003C42.12 129.975 42.498 129.961 42.834 129.961ZM44.654 132.775L44.64 133.825H41.49C41.21 133.834 41.0093 133.909 40.888 134.049C40.7666 134.189 40.706 134.38 40.706 134.623V135.001C40.706 135.281 40.7806 135.495 40.93 135.645C41.0793 135.785 41.3126 135.855 41.63 135.855C41.882 135.855 42.162 135.803 42.47 135.701C42.778 135.598 43.0813 135.449 43.38 135.253C43.688 135.057 43.9633 134.823 44.206 134.553V135.435C44.1126 135.575 43.9773 135.743 43.8 135.939C43.6226 136.125 43.4033 136.312 43.142 136.499C42.89 136.685 42.596 136.839 42.26 136.961C41.9333 137.082 41.5693 137.143 41.168 137.143C40.7573 137.143 40.3886 137.073 40.062 136.933C39.7353 136.783 39.4786 136.569 39.292 136.289C39.1053 135.999 39.012 135.645 39.012 135.225V134.497C39.012 133.955 39.1893 133.535 39.544 133.237C39.908 132.929 40.4026 132.775 41.028 132.775H44.654ZM50.1216 129.961C50.4389 129.961 50.7796 129.97 51.1436 129.989C51.5169 130.007 51.8809 130.035 52.2356 130.073C52.5903 130.101 52.9076 130.143 53.1876 130.199L53.0756 131.305C52.6276 131.295 52.1796 131.286 51.7316 131.277C51.2929 131.258 50.8589 131.249 50.4296 131.249C50.0469 131.249 49.7436 131.258 49.5196 131.277C49.3049 131.295 49.1509 131.351 49.0576 131.445C48.9736 131.538 48.9316 131.697 48.9316 131.921C48.9316 132.191 49.0063 132.373 49.1556 132.467C49.3049 132.551 49.5476 132.635 49.8836 132.719L51.7596 133.153C52.3196 133.293 52.7349 133.507 53.0056 133.797C53.2763 134.077 53.4116 134.511 53.4116 135.099C53.4116 135.668 53.3043 136.102 53.0896 136.401C52.8843 136.69 52.5529 136.891 52.0956 137.003C51.6476 137.105 51.0736 137.157 50.3736 137.157C50.1029 137.157 49.7016 137.143 49.1696 137.115C48.6376 137.096 48.0543 137.035 47.4196 136.933L47.5316 135.827C47.7183 135.827 47.9376 135.831 48.1896 135.841C48.4509 135.85 48.7263 135.855 49.0156 135.855C49.3143 135.855 49.6176 135.855 49.9256 135.855C50.4203 135.855 50.7983 135.841 51.0596 135.813C51.3303 135.775 51.5169 135.705 51.6196 135.603C51.7223 135.491 51.7736 135.332 51.7736 135.127C51.7736 134.865 51.6849 134.693 51.5076 134.609C51.3396 134.515 51.0876 134.427 50.7516 134.343L48.9176 133.895C48.4976 133.783 48.1709 133.643 47.9376 133.475C47.7043 133.297 47.5363 133.083 47.4336 132.831C47.3309 132.569 47.2796 132.252 47.2796 131.879C47.2796 131.375 47.3729 130.983 47.5596 130.703C47.7556 130.423 48.0589 130.227 48.4696 130.115C48.8896 130.003 49.4403 129.951 50.1216 129.961ZM57.6324 128.169V134.931C57.6324 135.22 57.6931 135.425 57.8144 135.547C57.9451 135.668 58.1644 135.729 58.4724 135.729H59.4244L59.6064 136.919C59.4477 136.965 59.2564 137.007 59.0324 137.045C58.8084 137.082 58.5891 137.105 58.3744 137.115C58.1597 137.133 57.9777 137.143 57.8284 137.143C57.2311 137.143 56.7644 136.984 56.4284 136.667C56.1017 136.34 55.9384 135.873 55.9384 135.267V128.169H57.6324ZM59.6764 130.129V131.305H54.7204V130.199L56.0644 130.129H59.6764ZM64.4148 129.961C65.5255 129.961 66.3235 130.157 66.8088 130.549C67.2942 130.931 67.5415 131.501 67.5508 132.257C67.5602 132.882 67.4108 133.358 67.1028 133.685C66.8042 134.002 66.3048 134.161 65.6048 134.161H61.6848V133.111H65.1428C65.4602 133.111 65.6608 133.027 65.7448 132.859C65.8382 132.691 65.8848 132.485 65.8848 132.243C65.8755 131.86 65.7635 131.594 65.5488 131.445C65.3435 131.295 64.9888 131.221 64.4848 131.221C64.0462 131.221 63.7055 131.281 63.4628 131.403C63.2202 131.524 63.0475 131.743 62.9448 132.061C62.8515 132.378 62.8048 132.835 62.8048 133.433C62.8048 134.067 62.8655 134.557 62.9868 134.903C63.1082 135.248 63.3088 135.486 63.5888 135.617C63.8688 135.738 64.2422 135.799 64.7088 135.799C65.0542 135.799 65.4508 135.785 65.8988 135.757C66.3562 135.729 66.7948 135.691 67.2148 135.645L67.3828 136.723C67.1308 136.825 66.8415 136.909 66.5148 136.975C66.1882 137.04 65.8475 137.087 65.4928 137.115C65.1475 137.152 64.8208 137.171 64.5128 137.171C63.6728 137.171 62.9962 137.049 62.4828 136.807C61.9788 136.555 61.6102 136.163 61.3768 135.631C61.1528 135.099 61.0408 134.413 61.0408 133.573C61.0408 132.667 61.1528 131.953 61.3768 131.431C61.6102 130.899 61.9742 130.521 62.4688 130.297C62.9728 130.073 63.6215 129.961 64.4148 129.961ZM70.8095 130.129L71.0335 131.473L71.1875 131.669V137.003H69.4935V130.129H70.8095ZM74.1695 129.961L74.0015 131.529H73.5115C73.1475 131.529 72.7788 131.589 72.4055 131.711C72.0321 131.832 71.5655 132.014 71.0055 132.257L70.8935 131.263C71.3788 130.852 71.8735 130.535 72.3775 130.311C72.8815 130.077 73.3668 129.961 73.8335 129.961H74.1695Z" fill="#333839"/>
<path d="M90.3995 53.6044L53.744 90.2499" stroke="white" stroke-width="6.29" stroke-miterlimit="10"/>
<path d="M90.3995 53.6044L53.744 90.2499" stroke="#469D79" stroke-width="3.42" stroke-miterlimit="10"/>
<path d="M8.6601 52.6618L6 50.0017L45.9905 10.0013" stroke="white" stroke-width="6.29" stroke-miterlimit="10"/>
<path d="M8.6601 52.6618L6 50.0017L45.9905 10.0013" stroke="#469D79" stroke-width="3.42" stroke-miterlimit="10"/>
<path d="M68.6358 87.9313H31.3153L12 68.6358V31.3153L31.3153 12H68.6358L87.9512 31.3153V68.6358L68.6358 87.9313Z" fill="#469D79"/>
<path d="M53.7421 90.2507L50.0002 94.0026L8.65979 52.6622" stroke="white" stroke-width="6.29" stroke-miterlimit="10"/>
<path d="M53.7421 90.2507L50.0002 94.0026L8.65979 52.6622" stroke="#469D79" stroke-width="3.42" stroke-miterlimit="10"/>
<path d="M45.9896 10L49.9996 6L94.0001 50.0004L90.397 53.6034" stroke="white" stroke-width="6.29" stroke-miterlimit="10"/>
<path d="M45.9896 10L49.9996 6L94.0001 50.0004L90.397 53.6034" stroke="#469D79" stroke-width="3.42" stroke-miterlimit="10"/>
<path d="M42.5945 65.7433C42.6038 65.4646 42.6185 65.1851 42.6224 64.9064C42.6341 63.9384 42.6061 62.9657 42.6574 62.0038C42.7886 59.5414 44.8908 57.0976 47.2577 56.6473C47.3563 56.8864 47.4596 57.1325 47.5605 57.3786C47.7817 57.915 48.0076 58.4491 48.2172 58.9894C48.2625 59.1135 48.2764 59.2469 48.2576 59.3776C47.9471 61.4622 47.6306 63.5456 47.3082 65.6276C47.3041 65.666 47.3022 65.7046 47.3028 65.7433H42.5945Z" fill="white"/>
<path d="M53.6972 65.7432C53.5151 64.5198 53.3319 63.2976 53.1476 62.0767C53.0094 61.1591 52.8643 60.2423 52.7261 59.3247C52.7104 59.2497 52.7144 59.1719 52.7377 59.0988C53.0653 58.2845 53.3991 57.4733 53.7625 56.5836C54.2795 56.8111 54.8066 56.9819 55.2716 57.2567C57.1634 58.3738 58.2215 60.0382 58.3504 62.2398C58.411 63.2916 58.369 64.349 58.376 65.4032C58.376 65.5181 58.3939 65.6361 58.4032 65.7471L53.6972 65.7432ZM54.8695 63.0261H56.5866V61.3299H54.8695V63.0261Z" fill="white"/>
<path d="M49.0471 65.7433C49.2795 64.2341 49.5124 62.725 49.7458 61.2159C49.8102 60.7974 49.8754 60.379 49.9422 59.9474H51.057C51.3574 61.8881 51.6555 63.8165 51.9544 65.7433H49.0471Z" fill="white"/>
<path d="M53.2935 54.6926H47.7135C47.6364 54.1497 47.5587 53.6063 47.4806 53.0623C47.4355 52.7363 47.4123 52.4064 47.3401 52.0865C47.3121 51.9584 47.1972 51.835 47.0932 51.7411C46.6569 51.3475 46.2098 51.3972 45.7021 51.651C45.0997 51.9515 44.4553 52.1696 43.7947 52.4366L41 47.6026C41.552 47.171 42.0697 46.7169 42.638 46.338C43.1038 46.0275 43.3452 45.6844 43.259 45.1091C43.2295 44.9096 43.1884 44.7745 43.0261 44.6534C42.3942 44.1729 41.7701 43.6815 41.1436 43.194C41.0994 43.1591 41.059 43.1164 41.0016 43.0682C41.9331 41.4628 42.8515 39.8652 43.7877 38.2435L45.1587 38.7978C45.3465 38.8754 45.5468 38.9282 45.7199 39.0307C46.1857 39.3109 46.615 39.3117 47.066 38.9678C47.2376 38.8374 47.33 38.7233 47.3571 38.516C47.4635 37.6815 47.583 36.8485 47.7003 36H53.2896C53.3673 36.5232 53.4449 37.0542 53.5171 37.5868C53.5645 37.9221 53.5885 38.2621 53.6599 38.5913C53.6879 38.7194 53.8028 38.8451 53.9084 38.936C54.3439 39.3133 54.7856 39.2907 55.2987 39.0307C55.9066 38.7202 56.5618 38.5075 57.2092 38.2466C58.1408 39.8598 59.0646 41.4582 60 43.0783C59.4418 43.5231 58.8922 43.947 58.3488 44.3771C57.6882 44.8925 57.682 44.8925 57.7565 45.7209C57.765 45.8226 57.8667 45.9367 57.9552 46.0073C58.5607 46.4902 59.1748 46.9629 59.7857 47.4396C59.8525 47.4916 59.9162 47.5483 59.9984 47.6166C59.0669 49.2243 58.147 50.8219 57.2115 52.4413C56.5501 52.1743 55.884 51.9421 55.2529 51.6371C54.7832 51.4104 54.3928 51.3723 53.9557 51.7069C53.7678 51.8505 53.6662 51.9724 53.6374 52.2022C53.5357 53.0235 53.4107 53.848 53.2935 54.6926ZM50.4864 47.4419C51.0399 47.4479 51.5732 47.234 51.9691 46.8471C52.365 46.4602 52.5912 45.932 52.598 45.3785C52.6034 44.1783 51.713 43.2631 50.5283 43.2514C49.322 43.2406 48.4083 44.1426 48.402 45.3513C48.4018 45.9048 48.6212 46.4357 49.0119 46.8276C49.4027 47.2196 49.933 47.4405 50.4864 47.4419Z" fill="white"/>
<path d="M49.0697 56.4517H51.9304C51.8209 56.7195 51.7239 56.9632 51.6199 57.2055C51.4863 57.5253 51.4335 57.9647 51.1929 58.1285C50.9522 58.2923 50.5222 58.1603 50.1783 58.1937C49.8677 58.224 49.7125 58.1238 49.6162 57.8234C49.4687 57.3685 49.2661 56.9314 49.0697 56.4517Z" fill="white"/>
</svg>
