<svg width="100" height="156" viewBox="0 0 100 156" fill="none" xmlns="http://www.w3.org/2000/svg">
<rect width="100" height="156" rx="19" fill="#F9FBFF"/>
<path d="M31.2047 109.175C31.6434 109.175 32.0167 109.189 32.3247 109.217C32.6327 109.235 32.9174 109.268 33.1787 109.315C33.44 109.352 33.7107 109.408 33.9907 109.483L33.8367 110.785C33.5474 110.766 33.2767 110.752 33.0247 110.743C32.7727 110.724 32.502 110.71 32.2127 110.701C31.9327 110.691 31.5967 110.687 31.2047 110.687C30.6634 110.687 30.2387 110.794 29.9307 111.009C29.6227 111.223 29.4034 111.583 29.2727 112.087C29.1514 112.591 29.0907 113.286 29.0907 114.173C29.0907 115.059 29.1514 115.755 29.2727 116.259C29.4034 116.763 29.6227 117.122 29.9307 117.337C30.2387 117.551 30.6634 117.659 31.2047 117.659C31.83 117.659 32.3527 117.649 32.7727 117.631C33.202 117.603 33.622 117.565 34.0327 117.519L34.1867 118.807C33.7667 118.937 33.3327 119.031 32.8847 119.087C32.4367 119.143 31.8767 119.171 31.2047 119.171C30.234 119.171 29.4594 119.012 28.8807 118.695C28.302 118.368 27.882 117.841 27.6207 117.113C27.3687 116.385 27.2427 115.405 27.2427 114.173C27.2427 112.941 27.3687 111.961 27.6207 111.233C27.882 110.505 28.302 109.982 28.8807 109.665C29.4594 109.338 30.234 109.175 31.2047 109.175ZM37.8418 111.961C38.6818 111.961 39.3491 112.077 39.8438 112.311C40.3478 112.544 40.7071 112.927 40.9218 113.459C41.1458 113.991 41.2578 114.695 41.2578 115.573C41.2578 116.45 41.1458 117.155 40.9218 117.687C40.7071 118.209 40.3478 118.592 39.8438 118.835C39.3491 119.068 38.6818 119.185 37.8418 119.185C37.0205 119.185 36.3578 119.068 35.8538 118.835C35.3591 118.592 34.9998 118.209 34.7758 117.687C34.5518 117.155 34.4398 116.45 34.4398 115.573C34.4398 114.695 34.5518 113.991 34.7758 113.459C34.9998 112.927 35.3591 112.544 35.8538 112.311C36.3578 112.077 37.0205 111.961 37.8418 111.961ZM37.8418 113.249C37.4311 113.249 37.1045 113.319 36.8618 113.459C36.6285 113.589 36.4605 113.823 36.3578 114.159C36.2551 114.495 36.2038 114.966 36.2038 115.573C36.2038 116.179 36.2551 116.651 36.3578 116.987C36.4605 117.323 36.6285 117.556 36.8618 117.687C37.1045 117.817 37.4311 117.883 37.8418 117.883C38.2618 117.883 38.5931 117.817 38.8358 117.687C39.0785 117.556 39.2465 117.323 39.3398 116.987C39.4425 116.651 39.4938 116.179 39.4938 115.573C39.4938 114.966 39.4425 114.495 39.3398 114.159C39.2465 113.823 39.0785 113.589 38.8358 113.459C38.5931 113.319 38.2618 113.249 37.8418 113.249ZM43.6669 112.129V116.777C43.6576 117.122 43.7229 117.369 43.8629 117.519C44.0122 117.668 44.2502 117.743 44.5769 117.743C44.9036 117.743 45.2302 117.673 45.5569 117.533C45.8836 117.393 46.2802 117.183 46.7469 116.903L46.9149 117.911C46.3922 118.331 45.8882 118.648 45.4029 118.863C44.9176 119.077 44.4136 119.185 43.8909 119.185C42.6122 119.185 41.9729 118.555 41.9729 117.295V112.129H43.6669ZM48.2729 112.129V119.003H46.9289L46.7469 117.673L46.5789 117.477V112.129H48.2729ZM53.859 111.961C55.1377 111.961 55.777 112.591 55.777 113.851V119.003H54.083V114.369C54.083 113.995 54.0177 113.739 53.887 113.599C53.7563 113.459 53.537 113.389 53.229 113.389C52.8837 113.389 52.529 113.468 52.165 113.627C51.801 113.776 51.3623 113.995 50.849 114.285L50.779 113.263C51.283 112.843 51.7963 112.521 52.319 112.297C52.8417 112.073 53.355 111.961 53.859 111.961ZM50.723 112.129L50.891 113.473L51.031 113.669V119.003H49.337V112.129H50.723ZM59.0638 110.169V116.931C59.0638 117.22 59.1245 117.425 59.2458 117.547C59.3765 117.668 59.5958 117.729 59.9038 117.729H60.8558L61.0378 118.919C60.8792 118.965 60.6878 119.007 60.4638 119.045C60.2398 119.082 60.0205 119.105 59.8058 119.115C59.5912 119.133 59.4092 119.143 59.2598 119.143C58.6625 119.143 58.1958 118.984 57.8598 118.667C57.5332 118.34 57.3698 117.873 57.3698 117.267V110.169H59.0638ZM61.1078 112.129V113.305H56.1518V112.199L57.4958 112.129H61.1078ZM64.5863 111.961C65.697 111.961 66.495 112.157 66.9803 112.549C67.4656 112.931 67.713 113.501 67.7223 114.257C67.7316 114.882 67.5823 115.358 67.2743 115.685C66.9756 116.002 66.4763 116.161 65.7763 116.161H61.8563V115.111H65.3143C65.6316 115.111 65.8323 115.027 65.9163 114.859C66.0096 114.691 66.0563 114.485 66.0563 114.243C66.047 113.86 65.935 113.594 65.7203 113.445C65.515 113.295 65.1603 113.221 64.6563 113.221C64.2176 113.221 63.877 113.281 63.6343 113.403C63.3916 113.524 63.219 113.743 63.1163 114.061C63.023 114.378 62.9763 114.835 62.9763 115.433C62.9763 116.067 63.037 116.557 63.1583 116.903C63.2796 117.248 63.4803 117.486 63.7603 117.617C64.0403 117.738 64.4136 117.799 64.8803 117.799C65.2256 117.799 65.6223 117.785 66.0703 117.757C66.5276 117.729 66.9663 117.691 67.3863 117.645L67.5543 118.723C67.3023 118.825 67.013 118.909 66.6863 118.975C66.3596 119.04 66.019 119.087 65.6643 119.115C65.319 119.152 64.9923 119.171 64.6843 119.171C63.8443 119.171 63.1676 119.049 62.6543 118.807C62.1503 118.555 61.7816 118.163 61.5483 117.631C61.3243 117.099 61.2123 116.413 61.2123 115.573C61.2123 114.667 61.3243 113.953 61.5483 113.431C61.7816 112.899 62.1456 112.521 62.6403 112.297C63.1443 112.073 63.793 111.961 64.5863 111.961ZM69.7209 112.129L69.9449 113.473L70.0989 113.669V119.003H68.4049V112.129H69.7209ZM73.0809 111.961L72.9129 113.529H72.4229C72.0589 113.529 71.6902 113.589 71.3169 113.711C70.9436 113.832 70.4769 114.014 69.9169 114.257L69.8049 113.263C70.2902 112.852 70.7849 112.535 71.2889 112.311C71.7929 112.077 72.2782 111.961 72.7449 111.961H73.0809ZM16.7942 127.161C17.2702 127.17 17.7695 127.198 18.2922 127.245C18.8242 127.291 19.3422 127.38 19.8462 127.511L19.7342 128.701C19.3328 128.691 18.8662 128.682 18.3342 128.673C17.8115 128.654 17.3075 128.645 16.8222 128.645C16.5235 128.645 16.2668 128.654 16.0522 128.673C15.8468 128.691 15.6788 128.738 15.5482 128.813C15.4175 128.887 15.3195 129.004 15.2542 129.163C15.1982 129.312 15.1702 129.522 15.1702 129.793C15.1702 130.213 15.2542 130.511 15.4222 130.689C15.5995 130.866 15.8842 131.006 16.2762 131.109L18.1802 131.669C18.9455 131.902 19.4728 132.243 19.7622 132.691C20.0515 133.129 20.1962 133.717 20.1962 134.455C20.1962 135.005 20.1308 135.458 20.0002 135.813C19.8695 136.167 19.6688 136.443 19.3982 136.639C19.1275 136.835 18.7728 136.975 18.3342 137.059C17.8955 137.143 17.3682 137.185 16.7522 137.185C16.4348 137.185 15.9962 137.166 15.4362 137.129C14.8855 137.091 14.2555 136.998 13.5462 136.849L13.6582 135.589C14.2088 135.607 14.6708 135.626 15.0442 135.645C15.4175 135.654 15.7395 135.659 16.0102 135.659C16.2808 135.659 16.5328 135.659 16.7662 135.659C17.1955 135.659 17.5315 135.631 17.7742 135.575C18.0168 135.519 18.1848 135.402 18.2782 135.225C18.3808 135.047 18.4322 134.791 18.4322 134.455C18.4322 134.165 18.3948 133.941 18.3202 133.783C18.2548 133.615 18.1428 133.484 17.9842 133.391C17.8255 133.297 17.6202 133.218 17.3682 133.153L15.3942 132.551C14.6662 132.327 14.1528 131.995 13.8542 131.557C13.5648 131.118 13.4202 130.53 13.4202 129.793C13.4202 129.242 13.4855 128.794 13.6162 128.449C13.7468 128.094 13.9475 127.828 14.2182 127.651C14.4888 127.464 14.8342 127.338 15.2542 127.273C15.6835 127.198 16.1968 127.161 16.7942 127.161ZM23.1262 128.169V134.931C23.1262 135.22 23.1869 135.425 23.3082 135.547C23.4389 135.668 23.6582 135.729 23.9662 135.729H24.9182L25.1002 136.919C24.9415 136.965 24.7502 137.007 24.5262 137.045C24.3022 137.082 24.0829 137.105 23.8682 137.115C23.6535 137.133 23.4715 137.143 23.3222 137.143C22.7249 137.143 22.2582 136.984 21.9222 136.667C21.5955 136.34 21.4322 135.873 21.4322 135.267V128.169H23.1262ZM25.1702 130.129V131.305H20.2142V130.199L21.5582 130.129H25.1702ZM28.6907 129.961C29.5307 129.961 30.198 130.077 30.6927 130.311C31.1967 130.544 31.556 130.927 31.7707 131.459C31.9947 131.991 32.1067 132.695 32.1067 133.573C32.1067 134.45 31.9947 135.155 31.7707 135.687C31.556 136.209 31.1967 136.592 30.6927 136.835C30.198 137.068 29.5307 137.185 28.6907 137.185C27.8693 137.185 27.2067 137.068 26.7027 136.835C26.208 136.592 25.8487 136.209 25.6247 135.687C25.4007 135.155 25.2887 134.45 25.2887 133.573C25.2887 132.695 25.4007 131.991 25.6247 131.459C25.8487 130.927 26.208 130.544 26.7027 130.311C27.2067 130.077 27.8693 129.961 28.6907 129.961ZM28.6907 131.249C28.28 131.249 27.9533 131.319 27.7107 131.459C27.4773 131.589 27.3093 131.823 27.2067 132.159C27.104 132.495 27.0527 132.966 27.0527 133.573C27.0527 134.179 27.104 134.651 27.2067 134.987C27.3093 135.323 27.4773 135.556 27.7107 135.687C27.9533 135.817 28.28 135.883 28.6907 135.883C29.1107 135.883 29.442 135.817 29.6847 135.687C29.9273 135.556 30.0953 135.323 30.1887 134.987C30.2913 134.651 30.3427 134.179 30.3427 133.573C30.3427 132.966 30.2913 132.495 30.1887 132.159C30.0953 131.823 29.9273 131.589 29.6847 131.459C29.442 131.319 29.1107 131.249 28.6907 131.249ZM35.9438 129.961C36.1771 129.961 36.4338 129.97 36.7138 129.989C36.9938 130.007 37.2784 130.045 37.5678 130.101C37.8571 130.157 38.1184 130.236 38.3518 130.339L38.1558 131.403C37.8104 131.384 37.4651 131.37 37.1198 131.361C36.7838 131.351 36.4898 131.347 36.2378 131.347C35.7618 131.347 35.3838 131.412 35.1038 131.543C34.8331 131.664 34.6371 131.888 34.5158 132.215C34.3944 132.532 34.3338 132.98 34.3338 133.559C34.3338 134.137 34.3944 134.59 34.5158 134.917C34.6371 135.234 34.8331 135.458 35.1038 135.589C35.3838 135.719 35.7618 135.785 36.2378 135.785C36.3778 135.785 36.5598 135.78 36.7838 135.771C37.0171 135.761 37.2644 135.747 37.5258 135.729C37.7964 135.71 38.0578 135.687 38.3098 135.659L38.4778 136.751C38.1138 136.9 37.7078 137.007 37.2598 137.073C36.8118 137.138 36.3684 137.171 35.9298 137.171C35.1084 137.171 34.4504 137.054 33.9558 136.821C33.4611 136.587 33.1018 136.209 32.8778 135.687C32.6631 135.155 32.5558 134.445 32.5558 133.559C32.5558 132.672 32.6678 131.967 32.8918 131.445C33.1158 130.913 33.4751 130.535 33.9698 130.311C34.4644 130.077 35.1224 129.961 35.9438 129.961ZM45.2398 130.129L43.2798 132.579C43.2051 132.691 43.1118 132.803 42.9998 132.915C42.8878 133.017 42.7898 133.097 42.7058 133.153V133.181C42.7898 133.237 42.8878 133.33 42.9998 133.461C43.1118 133.582 43.2051 133.708 43.2798 133.839L45.4638 137.003H43.5458L41.0398 133.111L43.3218 130.129H45.2398ZM40.7178 127.203L40.7318 131.389C40.7318 131.697 40.7131 131.991 40.6758 132.271C40.6478 132.551 40.6058 132.835 40.5498 133.125C40.5964 133.395 40.6338 133.675 40.6618 133.965C40.6991 134.254 40.7178 134.525 40.7178 134.777V137.003H39.0238V127.203H40.7178ZM41.7678 132.607V133.699H40.1718V132.607H41.7678ZM51.5258 127.217C52.3284 127.217 52.9771 127.301 53.4718 127.469C53.9758 127.637 54.3398 127.926 54.5638 128.337C54.7971 128.738 54.9138 129.307 54.9138 130.045C54.9138 130.53 54.8531 130.945 54.7318 131.291C54.6198 131.627 54.4284 131.897 54.1578 132.103C53.8964 132.299 53.5418 132.425 53.0938 132.481V132.551C53.2524 132.588 53.4158 132.663 53.5838 132.775C53.7611 132.877 53.9198 133.027 54.0598 133.223C54.2091 133.419 54.3211 133.671 54.3958 133.979L55.2778 137.003H53.4298L52.6318 134.021C52.5291 133.685 52.3891 133.451 52.2118 133.321C52.0344 133.181 51.7918 133.111 51.4838 133.111C50.8771 133.111 50.3591 133.111 49.9298 133.111C49.5004 133.101 49.1411 133.092 48.8518 133.083C48.5718 133.073 48.3244 133.069 48.1098 133.069L48.1518 131.739H51.4838C51.9038 131.729 52.2351 131.683 52.4778 131.599C52.7204 131.505 52.8931 131.347 52.9958 131.123C53.0984 130.889 53.1498 130.563 53.1498 130.143C53.1498 129.732 53.0984 129.415 52.9958 129.191C52.8931 128.967 52.7204 128.813 52.4778 128.729C52.2351 128.635 51.9038 128.589 51.4838 128.589C50.6624 128.589 49.9578 128.593 49.3698 128.603C48.7818 128.612 48.3804 128.621 48.1658 128.631L47.9698 127.343C48.3431 127.305 48.6931 127.277 49.0198 127.259C49.3558 127.24 49.7198 127.231 50.1118 127.231C50.5038 127.221 50.9751 127.217 51.5258 127.217ZM49.6918 127.343V137.003H47.9698V127.343H49.6918ZM58.8881 129.961C59.9988 129.961 60.7968 130.157 61.2821 130.549C61.7675 130.931 62.0148 131.501 62.0241 132.257C62.0335 132.882 61.8841 133.358 61.5761 133.685C61.2775 134.002 60.7781 134.161 60.0781 134.161H56.1581V133.111H59.6161C59.9335 133.111 60.1341 133.027 60.2181 132.859C60.3115 132.691 60.3581 132.485 60.3581 132.243C60.3488 131.86 60.2368 131.594 60.0221 131.445C59.8168 131.295 59.4621 131.221 58.9581 131.221C58.5195 131.221 58.1788 131.281 57.9361 131.403C57.6935 131.524 57.5208 131.743 57.4181 132.061C57.3248 132.378 57.2781 132.835 57.2781 133.433C57.2781 134.067 57.3388 134.557 57.4601 134.903C57.5815 135.248 57.7821 135.486 58.0621 135.617C58.3421 135.738 58.7155 135.799 59.1821 135.799C59.5275 135.799 59.9241 135.785 60.3721 135.757C60.8295 135.729 61.2681 135.691 61.6881 135.645L61.8561 136.723C61.6041 136.825 61.3148 136.909 60.9881 136.975C60.6615 137.04 60.3208 137.087 59.9661 137.115C59.6208 137.152 59.2941 137.171 58.9861 137.171C58.1461 137.171 57.4695 137.049 56.9561 136.807C56.4521 136.555 56.0835 136.163 55.8501 135.631C55.6261 135.099 55.5141 134.413 55.5141 133.573C55.5141 132.667 55.6261 131.953 55.8501 131.431C56.0835 130.899 56.4475 130.521 56.9421 130.297C57.4461 130.073 58.0948 129.961 58.8881 129.961ZM66.9767 129.961C67.8261 129.961 68.4374 130.273 68.8107 130.899C69.1841 131.524 69.3707 132.429 69.3707 133.615C69.3707 134.52 69.2727 135.234 69.0767 135.757C68.8901 136.27 68.6054 136.639 68.2227 136.863C67.8401 137.077 67.3547 137.185 66.7667 137.185C66.3001 137.185 65.8427 137.119 65.3947 136.989C64.9561 136.849 64.5501 136.634 64.1767 136.345L64.2887 135.505C64.6527 135.607 64.9794 135.696 65.2687 135.771C65.5581 135.845 65.8754 135.883 66.2207 135.883C66.5661 135.883 66.8367 135.827 67.0327 135.715C67.2381 135.593 67.3874 135.369 67.4807 135.043C67.5741 134.716 67.6207 134.245 67.6207 133.629C67.6207 133.022 67.5787 132.551 67.4947 132.215C67.4107 131.879 67.2707 131.645 67.0747 131.515C66.8881 131.375 66.6407 131.305 66.3327 131.305C65.9967 131.305 65.6794 131.379 65.3807 131.529C65.0821 131.669 64.7367 131.879 64.3447 132.159L64.1487 131.263C64.3634 131.011 64.6201 130.787 64.9187 130.591C65.2267 130.395 65.5581 130.241 65.9127 130.129C66.2674 130.017 66.6221 129.961 66.9767 129.961ZM64.0787 130.129L64.2467 131.459L64.4007 131.655V136.093L64.3307 136.261C64.3587 136.531 64.3774 136.802 64.3867 137.073C64.3961 137.353 64.4007 137.637 64.4007 137.927V139.733H62.7067V130.129H64.0787ZM73.2599 129.961C74.0999 129.961 74.7672 130.077 75.2619 130.311C75.7659 130.544 76.1252 130.927 76.3399 131.459C76.5639 131.991 76.6759 132.695 76.6759 133.573C76.6759 134.45 76.5639 135.155 76.3399 135.687C76.1252 136.209 75.7659 136.592 75.2619 136.835C74.7672 137.068 74.0999 137.185 73.2599 137.185C72.4386 137.185 71.7759 137.068 71.2719 136.835C70.7772 136.592 70.4179 136.209 70.1939 135.687C69.9699 135.155 69.8579 134.45 69.8579 133.573C69.8579 132.695 69.9699 131.991 70.1939 131.459C70.4179 130.927 70.7772 130.544 71.2719 130.311C71.7759 130.077 72.4386 129.961 73.2599 129.961ZM73.2599 131.249C72.8492 131.249 72.5226 131.319 72.2799 131.459C72.0466 131.589 71.8786 131.823 71.7759 132.159C71.6732 132.495 71.6219 132.966 71.6219 133.573C71.6219 134.179 71.6732 134.651 71.7759 134.987C71.8786 135.323 72.0466 135.556 72.2799 135.687C72.5226 135.817 72.8492 135.883 73.2599 135.883C73.6799 135.883 74.0112 135.817 74.2539 135.687C74.4966 135.556 74.6646 135.323 74.7579 134.987C74.8606 134.651 74.9119 134.179 74.9119 133.573C74.9119 132.966 74.8606 132.495 74.7579 132.159C74.6646 131.823 74.4966 131.589 74.2539 131.459C74.0112 131.319 73.6799 131.249 73.2599 131.249ZM78.749 130.129L78.973 131.473L79.127 131.669V137.003H77.433V130.129H78.749ZM82.109 129.961L81.941 131.529H81.451C81.087 131.529 80.7183 131.589 80.345 131.711C79.9716 131.832 79.505 132.014 78.945 132.257L78.833 131.263C79.3183 130.852 79.813 130.535 80.317 130.311C80.821 130.077 81.3063 129.961 81.773 129.961H82.109ZM84.6852 128.169V134.931C84.6852 135.22 84.7459 135.425 84.8672 135.547C84.9979 135.668 85.2172 135.729 85.5252 135.729H86.4772L86.6592 136.919C86.5005 136.965 86.3092 137.007 86.0852 137.045C85.8612 137.082 85.6419 137.105 85.4272 137.115C85.2125 137.133 85.0305 137.143 84.8812 137.143C84.2839 137.143 83.8172 136.984 83.4812 136.667C83.1545 136.34 82.9912 135.873 82.9912 135.267V128.169H84.6852ZM86.7292 130.129V131.305H81.7732V130.199L83.1172 130.129H86.7292Z" fill="#333839"/>
<path d="M90.3996 53.6044L53.7441 90.2499" stroke="white" stroke-width="6.29" stroke-miterlimit="10"/>
<path d="M90.3996 53.6044L53.7441 90.2499" stroke="#AA564A" stroke-width="3.42" stroke-miterlimit="10"/>
<path d="M8.6601 52.6618L6 50.0017L45.9905 10.0013" stroke="white" stroke-width="6.29" stroke-miterlimit="10"/>
<path d="M8.6601 52.6618L6 50.0017L45.9905 10.0013" stroke="#AA564A" stroke-width="3.42" stroke-miterlimit="10"/>
<path d="M68.6358 87.9313H31.3153L12 68.6358V31.3153L31.3153 12H68.6358L87.9512 31.3153V68.6358L68.6358 87.9313Z" fill="#AA564A"/>
<path d="M53.742 90.2507L50.0001 94.0026L8.65967 52.6622" stroke="white" stroke-width="6.29" stroke-miterlimit="10"/>
<path d="M53.742 90.2507L50.0001 94.0026L8.65967 52.6622" stroke="#AA564A" stroke-width="3.42" stroke-miterlimit="10"/>
<path d="M45.9897 10L49.9997 6L94.0002 50.0004L90.3972 53.6034" stroke="white" stroke-width="6.29" stroke-miterlimit="10"/>
<path d="M45.9897 10L49.9997 6L94.0002 50.0004L90.3972 53.6034" stroke="#AA564A" stroke-width="3.42" stroke-miterlimit="10"/>
<path d="M55.5609 62.9991C53.5892 62.9925 51.7008 62.2039 50.3103 60.8065C48.9198 59.4091 48.1409 57.5171 48.1445 55.546C48.1556 53.5803 48.9444 51.6988 50.3387 50.3127C51.733 48.9266 53.6194 48.1485 55.5857 48.1486C57.5571 48.1551 59.4454 48.9436 60.8359 50.3407C62.2264 51.7379 63.0054 53.6297 63.002 55.6006C62.9912 57.5665 62.2025 59.4483 60.8082 60.8346C59.4139 62.2209 57.5273 62.9991 55.5609 62.9991ZM55.5946 50.0054C55.1402 50.0054 54.6858 50.0004 54.2314 50.0054C53.8593 50.0113 53.6659 50.2514 53.7353 50.6184C54.1897 53.0366 54.6454 55.4548 55.1025 57.873C55.164 58.1983 55.3287 58.359 55.5807 58.3551C55.8327 58.3511 55.9855 58.1934 56.048 57.8591C56.5037 55.4508 56.9578 53.0422 57.4102 50.6332C57.4817 50.2484 57.2922 50.0113 56.9003 50.0064C56.4647 49.9994 56.0302 50.0044 55.5946 50.0044V50.0054ZM55.5589 61.1432C55.804 61.1462 56.0405 61.0529 56.2175 60.8834C56.3945 60.7138 56.4979 60.4816 56.5054 60.2367C56.5097 59.9913 56.4174 59.754 56.2483 59.5761C56.0792 59.3981 55.8469 59.2937 55.6015 59.2854C55.4781 59.282 55.3552 59.3032 55.24 59.3477C55.1248 59.3923 55.0196 59.4593 54.9306 59.5448C54.8416 59.6304 54.7705 59.7329 54.7215 59.8462C54.6725 59.9595 54.6465 60.0815 54.6451 60.2049C54.6445 60.4496 54.7399 60.6848 54.9107 60.86C55.0815 61.0352 55.3142 61.1365 55.5589 61.1423V61.1432Z" fill="#F9FBFF"/>
<path d="M51.5448 48.2568C50.1744 49.0241 49.0416 50.1538 48.2707 51.5221C48.1953 51.4576 48.1299 51.409 48.0723 51.3525C47.4899 50.7722 46.8817 50.2118 46.3331 49.6048C45.4401 48.6228 44.3696 48.3014 43.059 48.5077C41.7374 48.717 40.4437 48.5722 39.3235 47.747C38.2232 46.9366 37.363 45.9437 37.0892 44.5471C36.8979 43.6021 37.0162 42.6206 37.4265 41.748C37.625 41.3136 37.9564 41.2521 38.2957 41.5884C39.0309 42.3174 39.764 43.0464 40.4883 43.7854C40.5387 43.8476 40.6077 43.892 40.6852 43.9122C40.7627 43.9323 40.8446 43.9272 40.9189 43.8975C42.4574 43.4551 43.4476 42.4658 43.8894 40.9297C43.9194 40.8556 43.925 40.7738 43.9053 40.6962C43.8857 40.6186 43.8419 40.5493 43.7803 40.4983C43.054 39.7891 42.3397 39.068 41.6223 38.3489C41.2255 37.9521 41.281 37.6278 41.791 37.4155C43.5372 36.6904 45.1643 36.9076 46.6178 38.1197C47.6159 38.9519 48.3819 39.9636 48.5029 41.3027C48.5563 42.0144 48.5407 42.7295 48.4563 43.4382C48.3511 44.448 48.6041 45.3139 49.3135 46.037C50.0437 46.7739 50.7809 47.498 51.5448 48.2568Z" fill="#F9FBFF"/>
<path d="M54.7437 50.9478H56.4065C56.1396 52.3711 55.8757 53.7766 55.6128 55.1811H55.5423C55.2745 53.7766 55.0105 52.3721 54.7437 50.9478Z" fill="#F9FBFF"/>
</svg>
