<svg width="100" height="156" viewBox="0 0 100 156" fill="none" xmlns="http://www.w3.org/2000/svg">
<rect width="100" height="156" rx="19" fill="#F9FBFF"/>
<path d="M27.3583 109.175C27.7969 109.175 28.1703 109.189 28.4783 109.217C28.7863 109.236 29.0709 109.268 29.3323 109.315C29.5936 109.352 29.8643 109.408 30.1443 109.483L29.9903 110.785C29.7009 110.766 29.4303 110.752 29.1783 110.743C28.9263 110.724 28.6556 110.71 28.3663 110.701C28.0863 110.692 27.7503 110.687 27.3583 110.687C26.8169 110.687 26.3923 110.794 26.0843 111.009C25.7763 111.224 25.5569 111.583 25.4263 112.087C25.3049 112.591 25.2443 113.286 25.2443 114.173C25.2443 115.06 25.3049 115.755 25.4263 116.259C25.5569 116.763 25.7763 117.122 26.0843 117.337C26.3923 117.552 26.8169 117.659 27.3583 117.659C27.9836 117.659 28.5063 117.65 28.9263 117.631C29.3556 117.603 29.7756 117.566 30.1863 117.519L30.3403 118.807C29.9203 118.938 29.4863 119.031 29.0383 119.087C28.5903 119.143 28.0303 119.171 27.3583 119.171C26.3876 119.171 25.6129 119.012 25.0343 118.695C24.4556 118.368 24.0356 117.841 23.7743 117.113C23.5223 116.385 23.3963 115.405 23.3963 114.173C23.3963 112.941 23.5223 111.961 23.7743 111.233C24.0356 110.505 24.4556 109.982 25.0343 109.665C25.6129 109.338 26.3876 109.175 27.3583 109.175ZM35.2554 111.961C36.0954 111.961 36.7627 112.078 37.2574 112.311C37.7614 112.544 38.1207 112.927 38.3354 113.459C38.5594 113.991 38.6714 114.696 38.6714 115.573C38.6714 116.45 38.5594 117.155 38.3354 117.687C38.1207 118.21 37.7614 118.592 37.2574 118.835C36.7627 119.068 36.0954 119.185 35.2554 119.185C34.434 119.185 33.7714 119.068 33.2674 118.835C32.7727 118.592 32.4134 118.21 32.1894 117.687C31.9654 117.155 31.8534 116.45 31.8534 115.573C31.8534 114.696 31.9654 113.991 32.1894 113.459C32.4134 112.927 32.7727 112.544 33.2674 112.311C33.7714 112.078 34.434 111.961 35.2554 111.961ZM35.2554 113.249C34.8447 113.249 34.518 113.319 34.2754 113.459C34.042 113.59 33.874 113.823 33.7714 114.159C33.6687 114.495 33.6174 114.966 33.6174 115.573C33.6174 116.18 33.6687 116.651 33.7714 116.987C33.874 117.323 34.042 117.556 34.2754 117.687C34.518 117.818 34.8447 117.883 35.2554 117.883C35.6754 117.883 36.0067 117.818 36.2494 117.687C36.492 117.556 36.66 117.323 36.7534 116.987C36.856 116.651 36.9074 116.18 36.9074 115.573C36.9074 114.966 36.856 114.495 36.7534 114.159C36.66 113.823 36.492 113.59 36.2494 113.459C36.0067 113.319 35.6754 113.249 35.2554 113.249ZM42.3405 112.129V116.777C42.3311 117.122 42.3965 117.37 42.5365 117.519C42.6858 117.668 42.9238 117.743 43.2505 117.743C43.5771 117.743 43.9038 117.673 44.2305 117.533C44.5571 117.393 44.9538 117.183 45.4205 116.903L45.5885 117.911C45.0658 118.331 44.5618 118.648 44.0765 118.863C43.5911 119.078 43.0871 119.185 42.5645 119.185C41.2858 119.185 40.6465 118.555 40.6465 117.295V112.129H42.3405ZM46.9465 112.129V119.003H45.6025L45.4205 117.673L45.2525 117.477V112.129H46.9465ZM53.7926 111.961C55.0712 111.961 55.7106 112.591 55.7106 113.851V119.003H54.0166V114.369C54.0166 113.996 53.9512 113.739 53.8206 113.599C53.6899 113.459 53.4706 113.389 53.1626 113.389C52.8172 113.389 52.4626 113.468 52.0986 113.627C51.7346 113.776 51.2959 113.996 50.7826 114.285L50.7126 113.263C51.2166 112.843 51.7299 112.521 52.2526 112.297C52.7752 112.073 53.2886 111.961 53.7926 111.961ZM50.6566 112.129L50.8246 113.473L50.9646 113.669V119.003H49.2706V112.129H50.6566ZM60.2574 110.169V116.931C60.2574 117.22 60.3181 117.426 60.4394 117.547C60.5701 117.668 60.7894 117.729 61.0974 117.729H62.0494L62.2314 118.919C62.0727 118.966 61.8814 119.008 61.6574 119.045C61.4334 119.082 61.2141 119.106 60.9994 119.115C60.7847 119.134 60.6027 119.143 60.4534 119.143C59.8561 119.143 59.3894 118.984 59.0534 118.667C58.7267 118.34 58.5634 117.874 58.5634 117.267V110.169H60.2574ZM62.3014 112.129V113.305H57.3454V112.199L58.6894 112.129H62.3014ZM67.0398 111.961C68.1505 111.961 68.9485 112.157 69.4338 112.549C69.9192 112.932 70.1665 113.501 70.1758 114.257C70.1852 114.882 70.0358 115.358 69.7278 115.685C69.4292 116.002 68.9298 116.161 68.2298 116.161H64.3098V115.111H67.7678C68.0852 115.111 68.2858 115.027 68.3698 114.859C68.4632 114.691 68.5098 114.486 68.5098 114.243C68.5005 113.86 68.3885 113.594 68.1738 113.445C67.9685 113.296 67.6138 113.221 67.1098 113.221C66.6712 113.221 66.3305 113.282 66.0878 113.403C65.8452 113.524 65.6725 113.744 65.5698 114.061C65.4765 114.378 65.4298 114.836 65.4298 115.433C65.4298 116.068 65.4905 116.558 65.6118 116.903C65.7332 117.248 65.9338 117.486 66.2138 117.617C66.4938 117.738 66.8672 117.799 67.3338 117.799C67.6792 117.799 68.0758 117.785 68.5238 117.757C68.9812 117.729 69.4198 117.692 69.8398 117.645L70.0078 118.723C69.7558 118.826 69.4665 118.91 69.1398 118.975C68.8132 119.04 68.4725 119.087 68.1178 119.115C67.7725 119.152 67.4458 119.171 67.1378 119.171C66.2978 119.171 65.6212 119.05 65.1078 118.807C64.6038 118.555 64.2352 118.163 64.0018 117.631C63.7778 117.099 63.6658 116.413 63.6658 115.573C63.6658 114.668 63.7778 113.954 64.0018 113.431C64.2352 112.899 64.5992 112.521 65.0938 112.297C65.5978 112.073 66.2465 111.961 67.0398 111.961ZM73.4345 112.129L73.6585 113.473L73.8125 113.669V119.003H72.1185V112.129H73.4345ZM76.7945 111.961L76.6265 113.529H76.1365C75.7725 113.529 75.4038 113.59 75.0305 113.711C74.6571 113.832 74.1905 114.014 73.6305 114.257L73.5185 113.263C74.0038 112.852 74.4985 112.535 75.0025 112.311C75.5065 112.078 75.9918 111.961 76.4585 111.961H76.7945ZM36.0522 127.343C36.4908 127.343 36.7148 127.567 36.7242 128.015L37.1022 137.003H35.4362L35.1002 128.729H34.8342L33.0282 135.211C32.9442 135.594 32.7062 135.785 32.3142 135.785H31.0822C30.6808 135.785 30.4335 135.594 30.3402 135.211L28.5342 128.729H28.2682L27.9602 137.003H26.2942L26.6722 128.015C26.6908 127.567 26.9148 127.343 27.3442 127.343H29.0942C29.4675 127.343 29.7008 127.534 29.7942 127.917L31.2782 133.209C31.3435 133.433 31.3948 133.657 31.4322 133.881C31.4788 134.105 31.5302 134.329 31.5862 134.553H31.7962C31.8522 134.329 31.9035 134.105 31.9502 133.881C31.9968 133.657 32.0482 133.428 32.1042 133.195L33.5882 127.917C33.6722 127.534 33.9102 127.343 34.3022 127.343H36.0522ZM42.834 129.961C43.3846 129.961 43.8466 130.036 44.22 130.185C44.6026 130.325 44.892 130.568 45.088 130.913C45.284 131.258 45.382 131.734 45.382 132.341V137.003H44.038L43.8 135.519L43.674 135.323V132.327C43.674 131.963 43.59 131.702 43.422 131.543C43.254 131.375 42.932 131.291 42.456 131.291C42.1013 131.291 41.6533 131.305 41.112 131.333C40.58 131.361 40.0433 131.398 39.502 131.445L39.348 130.283C39.6746 130.218 40.0433 130.162 40.454 130.115C40.8646 130.068 41.28 130.031 41.7 130.003C42.12 129.975 42.498 129.961 42.834 129.961ZM44.654 132.775L44.64 133.825H41.49C41.21 133.834 41.0093 133.909 40.888 134.049C40.7666 134.189 40.706 134.38 40.706 134.623V135.001C40.706 135.281 40.7806 135.496 40.93 135.645C41.0793 135.785 41.3126 135.855 41.63 135.855C41.882 135.855 42.162 135.804 42.47 135.701C42.778 135.598 43.0813 135.449 43.38 135.253C43.688 135.057 43.9633 134.824 44.206 134.553V135.435C44.1126 135.575 43.9773 135.743 43.8 135.939C43.6226 136.126 43.4033 136.312 43.142 136.499C42.89 136.686 42.596 136.84 42.26 136.961C41.9333 137.082 41.5693 137.143 41.168 137.143C40.7573 137.143 40.3886 137.073 40.062 136.933C39.7353 136.784 39.4786 136.569 39.292 136.289C39.1053 136 39.012 135.645 39.012 135.225V134.497C39.012 133.956 39.1893 133.536 39.544 133.237C39.908 132.929 40.4026 132.775 41.028 132.775H44.654ZM50.1216 129.961C50.4389 129.961 50.7796 129.97 51.1436 129.989C51.5169 130.008 51.8809 130.036 52.2356 130.073C52.5903 130.101 52.9076 130.143 53.1876 130.199L53.0756 131.305C52.6276 131.296 52.1796 131.286 51.7316 131.277C51.2929 131.258 50.8589 131.249 50.4296 131.249C50.0469 131.249 49.7436 131.258 49.5196 131.277C49.3049 131.296 49.1509 131.352 49.0576 131.445C48.9736 131.538 48.9316 131.697 48.9316 131.921C48.9316 132.192 49.0063 132.374 49.1556 132.467C49.3049 132.551 49.5476 132.635 49.8836 132.719L51.7596 133.153C52.3196 133.293 52.7349 133.508 53.0056 133.797C53.2763 134.077 53.4116 134.511 53.4116 135.099C53.4116 135.668 53.3043 136.102 53.0896 136.401C52.8843 136.69 52.5529 136.891 52.0956 137.003C51.6476 137.106 51.0736 137.157 50.3736 137.157C50.1029 137.157 49.7016 137.143 49.1696 137.115C48.6376 137.096 48.0543 137.036 47.4196 136.933L47.5316 135.827C47.7183 135.827 47.9376 135.832 48.1896 135.841C48.4509 135.85 48.7263 135.855 49.0156 135.855C49.3143 135.855 49.6176 135.855 49.9256 135.855C50.4203 135.855 50.7983 135.841 51.0596 135.813C51.3303 135.776 51.5169 135.706 51.6196 135.603C51.7223 135.491 51.7736 135.332 51.7736 135.127C51.7736 134.866 51.6849 134.693 51.5076 134.609C51.3396 134.516 51.0876 134.427 50.7516 134.343L48.9176 133.895C48.4976 133.783 48.1709 133.643 47.9376 133.475C47.7043 133.298 47.5363 133.083 47.4336 132.831C47.3309 132.57 47.2796 132.252 47.2796 131.879C47.2796 131.375 47.3729 130.983 47.5596 130.703C47.7556 130.423 48.0589 130.227 48.4696 130.115C48.8896 130.003 49.4403 129.952 50.1216 129.961ZM57.6324 128.169V134.931C57.6324 135.22 57.6931 135.426 57.8144 135.547C57.9451 135.668 58.1644 135.729 58.4724 135.729H59.4244L59.6064 136.919C59.4477 136.966 59.2564 137.008 59.0324 137.045C58.8084 137.082 58.5891 137.106 58.3744 137.115C58.1597 137.134 57.9777 137.143 57.8284 137.143C57.2311 137.143 56.7644 136.984 56.4284 136.667C56.1017 136.34 55.9384 135.874 55.9384 135.267V128.169H57.6324ZM59.6764 130.129V131.305H54.7204V130.199L56.0644 130.129H59.6764ZM64.4148 129.961C65.5255 129.961 66.3235 130.157 66.8088 130.549C67.2942 130.932 67.5415 131.501 67.5508 132.257C67.5602 132.882 67.4108 133.358 67.1028 133.685C66.8042 134.002 66.3048 134.161 65.6048 134.161H61.6848V133.111H65.1428C65.4602 133.111 65.6608 133.027 65.7448 132.859C65.8382 132.691 65.8848 132.486 65.8848 132.243C65.8755 131.86 65.7635 131.594 65.5488 131.445C65.3435 131.296 64.9888 131.221 64.4848 131.221C64.0462 131.221 63.7055 131.282 63.4628 131.403C63.2202 131.524 63.0475 131.744 62.9448 132.061C62.8515 132.378 62.8048 132.836 62.8048 133.433C62.8048 134.068 62.8655 134.558 62.9868 134.903C63.1082 135.248 63.3088 135.486 63.5888 135.617C63.8688 135.738 64.2422 135.799 64.7088 135.799C65.0542 135.799 65.4508 135.785 65.8988 135.757C66.3562 135.729 66.7948 135.692 67.2148 135.645L67.3828 136.723C67.1308 136.826 66.8415 136.91 66.5148 136.975C66.1882 137.04 65.8475 137.087 65.4928 137.115C65.1475 137.152 64.8208 137.171 64.5128 137.171C63.6728 137.171 62.9962 137.05 62.4828 136.807C61.9788 136.555 61.6102 136.163 61.3768 135.631C61.1528 135.099 61.0408 134.413 61.0408 133.573C61.0408 132.668 61.1528 131.954 61.3768 131.431C61.6102 130.899 61.9742 130.521 62.4688 130.297C62.9728 130.073 63.6215 129.961 64.4148 129.961ZM70.8095 130.129L71.0335 131.473L71.1875 131.669V137.003H69.4935V130.129H70.8095ZM74.1695 129.961L74.0015 131.529H73.5115C73.1475 131.529 72.7788 131.59 72.4055 131.711C72.0321 131.832 71.5655 132.014 71.0055 132.257L70.8935 131.263C71.3788 130.852 71.8735 130.535 72.3775 130.311C72.8815 130.078 73.3668 129.961 73.8335 129.961H74.1695Z" fill="#333839"/>
<path d="M90.3996 53.6045L53.7441 90.2501" stroke="white" stroke-width="6.29" stroke-miterlimit="10"/>
<path d="M90.3996 53.6045L53.7441 90.2501" stroke="#70714E" stroke-width="3.42" stroke-miterlimit="10"/>
<path d="M8.6601 52.6614L6 50.0013L45.9905 10.001" stroke="white" stroke-width="6.29" stroke-miterlimit="10"/>
<path d="M8.6601 52.6614L6 50.0013L45.9905 10.001" stroke="#70714E" stroke-width="3.42" stroke-miterlimit="10"/>
<path d="M68.6358 87.9313H31.3153L12 68.6358V31.3153L31.3153 12H68.6358L87.9512 31.3153V68.6358L68.6358 87.9313Z" fill="#70714E"/>
<path d="M53.7425 90.2506L50.0005 94.0025L8.66016 52.6621" stroke="white" stroke-width="6.29" stroke-miterlimit="10"/>
<path d="M53.7425 90.2506L50.0005 94.0025L8.66016 52.6621" stroke="#70714E" stroke-width="3.42" stroke-miterlimit="10"/>
<path d="M45.9893 10L49.9992 6L93.9997 50.0004L90.3967 53.6034" stroke="white" stroke-width="6.29" stroke-miterlimit="10"/>
<path d="M45.9893 10L49.9992 6L93.9997 50.0004L90.3967 53.6034" stroke="#70714E" stroke-width="3.42" stroke-miterlimit="10"/>
<path d="M40.0109 46.0139C39.1904 46.0139 38.3708 46.0139 37.5521 46.0139C37.4744 46.0139 37.396 46.0299 37.2808 46.0424V59.2429H36V58.8689C36 54.6598 36 50.4506 36 46.2415C36 45.241 36.4905 44.7519 37.4903 44.7498C38.2068 44.7498 38.9237 44.7498 39.6411 44.7498H40.0623C40.0623 44.1586 40.054 43.6071 40.0623 43.0562C40.0852 41.8024 40.9067 40.7784 42.1104 40.5036C42.3138 40.4595 42.5213 40.4374 42.7293 40.4377C43.7118 40.4308 44.6949 40.4273 45.6774 40.4377C47.2128 40.4502 48.3395 41.5756 48.3638 43.1151C48.3721 43.6445 48.3638 44.1739 48.3638 44.7269H51.6296C51.6296 44.2114 51.6296 43.6945 51.6296 43.1783C51.6296 42.5323 51.7968 41.9426 52.2082 41.4375C52.7348 40.7895 53.4183 40.446 54.2557 40.4391C55.2846 40.4315 56.3142 40.4224 57.3425 40.4391C58.7842 40.4655 59.8992 41.5887 59.9325 43.0298C59.9429 43.4919 59.9478 43.9554 59.9325 44.4174C59.9228 44.6721 59.997 44.7643 60.2621 44.756C61.0593 44.7408 61.8578 44.7449 62.655 44.756C63.4522 44.7671 63.9934 45.2792 63.9948 46.0798C64.0017 50.4157 64.0017 54.7516 63.9948 59.0875C63.9916 59.1403 63.9855 59.1928 63.9768 59.245H62.7279V46.0326H48.3923C48.3839 46.152 48.368 46.2734 48.368 46.3941C48.368 46.9721 48.368 47.5507 48.368 48.1287C48.368 49.1902 47.9434 49.7085 46.8617 49.9104C46.8478 50.2046 46.8298 50.5112 46.8201 50.8186C46.7465 53.2567 46.6741 55.6947 46.6029 58.1328C46.5807 58.8606 46.17 59.2651 45.4512 59.2665C44.6306 59.2665 43.8096 59.2665 42.9881 59.2665C42.2471 59.2665 41.8405 58.8655 41.8183 58.1134C41.742 55.5134 41.6659 52.9134 41.5901 50.3135C41.5901 50.1872 41.5762 50.0609 41.5686 49.9215C41.4687 49.8979 41.3819 49.8771 41.291 49.8576C40.5278 49.6877 40.0713 49.1312 40.0623 48.3541C40.0533 47.6145 40.0553 46.8742 40.0519 46.1339C40.042 46.0927 40.0283 46.0525 40.0109 46.0139Z" fill="white"/>
<path d="M44.193 39.4236C42.6971 39.4236 41.4753 38.1913 41.4934 36.7059C41.495 35.9868 41.7822 35.2979 42.2916 34.7904C42.8011 34.283 43.4913 33.9987 44.2103 34C44.9294 33.9989 45.6195 34.2833 46.1291 34.7906C46.6387 35.298 46.926 35.9868 46.928 36.7059C46.9296 37.0647 46.8598 37.4202 46.7227 37.7518C46.5856 38.0834 46.3839 38.3844 46.1294 38.6373C45.8749 38.8902 45.5726 39.0899 45.2402 39.2249C44.9077 39.3599 44.5518 39.4274 44.193 39.4236Z" fill="white"/>
<path d="M55.8021 39.4231C55.4436 39.4261 55.088 39.3579 54.7562 39.2224C54.4243 39.0868 54.1226 38.8867 53.8687 38.6336C53.6148 38.3805 53.4138 38.0794 53.2772 37.7479C53.1407 37.4164 53.0713 37.0611 53.0733 36.7026C53.0767 35.99 53.3601 35.3072 53.8625 34.8016C54.3648 34.2961 55.0457 34.0082 55.7583 34.0002C56.117 33.9956 56.473 34.0622 56.8058 34.196C57.1385 34.3298 57.4415 34.5283 57.6971 34.7799C57.9527 35.0315 58.1559 35.3313 58.295 35.6619C58.434 35.9925 58.5062 36.3474 58.5072 36.7061C58.5087 37.0623 58.4398 37.4153 58.3045 37.7449C58.1693 38.0744 57.9702 38.374 57.7189 38.6264C57.4676 38.8788 57.1689 39.0791 56.8399 39.2159C56.511 39.3526 56.1583 39.423 55.8021 39.4231Z" fill="white"/>
</svg>
