<svg width="100" height="156" viewBox="0 0 100 156" fill="none" xmlns="http://www.w3.org/2000/svg">
<rect width="100" height="156" rx="19" fill="#F9FBFF"/>
<path d="M27.4384 109.175C27.877 109.175 28.2504 109.189 28.5584 109.217C28.8664 109.235 29.151 109.268 29.4124 109.315C29.6737 109.352 29.9444 109.408 30.2244 109.483L30.0704 110.785C29.781 110.766 29.5104 110.752 29.2584 110.743C29.0064 110.724 28.7357 110.71 28.4464 110.701C28.1664 110.691 27.8304 110.687 27.4384 110.687C26.897 110.687 26.4724 110.794 26.1644 111.009C25.8564 111.223 25.637 111.583 25.5064 112.087C25.385 112.591 25.3244 113.286 25.3244 114.173C25.3244 115.059 25.385 115.755 25.5064 116.259C25.637 116.763 25.8564 117.122 26.1644 117.337C26.4724 117.551 26.897 117.659 27.4384 117.659C28.0637 117.659 28.5864 117.649 29.0064 117.631C29.4357 117.603 29.8557 117.565 30.2664 117.519L30.4204 118.807C30.0004 118.937 29.5664 119.031 29.1184 119.087C28.6704 119.143 28.1104 119.171 27.4384 119.171C26.4677 119.171 25.693 119.012 25.1144 118.695C24.5357 118.368 24.1157 117.841 23.8544 117.113C23.6024 116.385 23.4764 115.405 23.4764 114.173C23.4764 112.941 23.6024 111.961 23.8544 111.233C24.1157 110.505 24.5357 109.982 25.1144 109.665C25.693 109.338 26.4677 109.175 27.4384 109.175ZM35.3355 111.961C36.1755 111.961 36.8428 112.077 37.3375 112.311C37.8415 112.544 38.2008 112.927 38.4155 113.459C38.6395 113.991 38.7515 114.695 38.7515 115.573C38.7515 116.45 38.6395 117.155 38.4155 117.687C38.2008 118.209 37.8415 118.592 37.3375 118.835C36.8428 119.068 36.1755 119.185 35.3355 119.185C34.5141 119.185 33.8515 119.068 33.3475 118.835C32.8528 118.592 32.4935 118.209 32.2695 117.687C32.0455 117.155 31.9335 116.45 31.9335 115.573C31.9335 114.695 32.0455 113.991 32.2695 113.459C32.4935 112.927 32.8528 112.544 33.3475 112.311C33.8515 112.077 34.5141 111.961 35.3355 111.961ZM35.3355 113.249C34.9248 113.249 34.5981 113.319 34.3555 113.459C34.1221 113.589 33.9541 113.823 33.8515 114.159C33.7488 114.495 33.6975 114.966 33.6975 115.573C33.6975 116.179 33.7488 116.651 33.8515 116.987C33.9541 117.323 34.1221 117.556 34.3555 117.687C34.5981 117.817 34.9248 117.883 35.3355 117.883C35.7555 117.883 36.0868 117.817 36.3295 117.687C36.5721 117.556 36.7401 117.323 36.8335 116.987C36.9361 116.651 36.9875 116.179 36.9875 115.573C36.9875 114.966 36.9361 114.495 36.8335 114.159C36.7401 113.823 36.5721 113.589 36.3295 113.459C36.0868 113.319 35.7555 113.249 35.3355 113.249ZM42.4206 112.129V116.777C42.4112 117.122 42.4766 117.369 42.6166 117.519C42.7659 117.668 43.0039 117.743 43.3306 117.743C43.6572 117.743 43.9839 117.673 44.3106 117.533C44.6372 117.393 45.0339 117.183 45.5006 116.903L45.6686 117.911C45.1459 118.331 44.6419 118.648 44.1566 118.863C43.6712 119.077 43.1672 119.185 42.6446 119.185C41.3659 119.185 40.7266 118.555 40.7266 117.295V112.129H42.4206ZM47.0266 112.129V119.003H45.6826L45.5006 117.673L45.3326 117.477V112.129H47.0266ZM53.8727 111.961C55.1513 111.961 55.7907 112.591 55.7907 113.851V119.003H54.0967V114.369C54.0967 113.995 54.0313 113.739 53.9007 113.599C53.77 113.459 53.5507 113.389 53.2427 113.389C52.8973 113.389 52.5427 113.468 52.1787 113.627C51.8147 113.776 51.376 113.995 50.8627 114.285L50.7927 113.263C51.2967 112.843 51.81 112.521 52.3327 112.297C52.8553 112.073 53.3687 111.961 53.8727 111.961ZM50.7367 112.129L50.9047 113.473L51.0447 113.669V119.003H49.3507V112.129H50.7367ZM60.3375 110.169V116.931C60.3375 117.22 60.3982 117.425 60.5195 117.547C60.6502 117.668 60.8695 117.729 61.1775 117.729H62.1295L62.3115 118.919C62.1528 118.965 61.9615 119.007 61.7375 119.045C61.5135 119.082 61.2942 119.105 61.0795 119.115C60.8648 119.133 60.6828 119.143 60.5335 119.143C59.9362 119.143 59.4695 118.984 59.1335 118.667C58.8068 118.34 58.6435 117.873 58.6435 117.267V110.169H60.3375ZM62.3815 112.129V113.305H57.4255V112.199L58.7695 112.129H62.3815ZM65.37 112.129L65.594 113.473L65.748 113.669V119.003H64.054V112.129H65.37ZM68.73 111.961L68.562 113.529H68.072C67.708 113.529 67.3393 113.589 66.966 113.711C66.5926 113.832 66.126 114.014 65.566 114.257L65.454 113.263C65.9393 112.852 66.434 112.535 66.938 112.311C67.442 112.077 67.9273 111.961 68.394 111.961H68.73ZM76.8642 112.129L74.2882 119.213C74.1668 119.539 74.0128 119.861 73.8262 120.179C73.6488 120.505 73.4202 120.799 73.1402 121.061C72.8602 121.322 72.5288 121.527 72.1462 121.677C71.7635 121.826 71.3202 121.882 70.8162 121.845L70.6762 120.837C71.2362 120.678 71.6702 120.463 71.9782 120.193C72.2955 119.922 72.5428 119.577 72.7202 119.157L73.0982 118.261C73.1822 118.055 73.2615 117.822 73.3362 117.561C73.4202 117.29 73.4902 117.057 73.5462 116.861L75.0442 112.129H76.8642ZM71.3202 112.129L72.8462 116.861C72.8928 117.019 72.9348 117.183 72.9722 117.351C73.0095 117.509 73.0422 117.668 73.0702 117.827H73.4202L72.8882 119.003H72.4402C72.3095 119.003 72.1928 118.965 72.0902 118.891C71.9875 118.816 71.9175 118.713 71.8802 118.583L69.5142 112.129H71.3202ZM36.0522 127.343C36.4908 127.343 36.7148 127.567 36.7242 128.015L37.1022 137.003H35.4362L35.1002 128.729H34.8342L33.0282 135.211C32.9442 135.593 32.7062 135.785 32.3142 135.785H31.0822C30.6808 135.785 30.4335 135.593 30.3402 135.211L28.5342 128.729H28.2682L27.9602 137.003H26.2942L26.6722 128.015C26.6908 127.567 26.9148 127.343 27.3442 127.343H29.0942C29.4675 127.343 29.7008 127.534 29.7942 127.917L31.2782 133.209C31.3435 133.433 31.3948 133.657 31.4322 133.881C31.4788 134.105 31.5302 134.329 31.5862 134.553H31.7962C31.8522 134.329 31.9035 134.105 31.9502 133.881C31.9968 133.657 32.0482 133.428 32.1042 133.195L33.5882 127.917C33.6722 127.534 33.9102 127.343 34.3022 127.343H36.0522ZM42.834 129.961C43.3846 129.961 43.8466 130.035 44.22 130.185C44.6026 130.325 44.892 130.567 45.088 130.913C45.284 131.258 45.382 131.734 45.382 132.341V137.003H44.038L43.8 135.519L43.674 135.323V132.327C43.674 131.963 43.59 131.701 43.422 131.543C43.254 131.375 42.932 131.291 42.456 131.291C42.1013 131.291 41.6533 131.305 41.112 131.333C40.58 131.361 40.0433 131.398 39.502 131.445L39.348 130.283C39.6746 130.217 40.0433 130.161 40.454 130.115C40.8646 130.068 41.28 130.031 41.7 130.003C42.12 129.975 42.498 129.961 42.834 129.961ZM44.654 132.775L44.64 133.825H41.49C41.21 133.834 41.0093 133.909 40.888 134.049C40.7666 134.189 40.706 134.38 40.706 134.623V135.001C40.706 135.281 40.7806 135.495 40.93 135.645C41.0793 135.785 41.3126 135.855 41.63 135.855C41.882 135.855 42.162 135.803 42.47 135.701C42.778 135.598 43.0813 135.449 43.38 135.253C43.688 135.057 43.9633 134.823 44.206 134.553V135.435C44.1126 135.575 43.9773 135.743 43.8 135.939C43.6226 136.125 43.4033 136.312 43.142 136.499C42.89 136.685 42.596 136.839 42.26 136.961C41.9333 137.082 41.5693 137.143 41.168 137.143C40.7573 137.143 40.3886 137.073 40.062 136.933C39.7353 136.783 39.4786 136.569 39.292 136.289C39.1053 135.999 39.012 135.645 39.012 135.225V134.497C39.012 133.955 39.1893 133.535 39.544 133.237C39.908 132.929 40.4026 132.775 41.028 132.775H44.654ZM50.1216 129.961C50.4389 129.961 50.7796 129.97 51.1436 129.989C51.5169 130.007 51.8809 130.035 52.2356 130.073C52.5903 130.101 52.9076 130.143 53.1876 130.199L53.0756 131.305C52.6276 131.295 52.1796 131.286 51.7316 131.277C51.2929 131.258 50.8589 131.249 50.4296 131.249C50.0469 131.249 49.7436 131.258 49.5196 131.277C49.3049 131.295 49.1509 131.351 49.0576 131.445C48.9736 131.538 48.9316 131.697 48.9316 131.921C48.9316 132.191 49.0063 132.373 49.1556 132.467C49.3049 132.551 49.5476 132.635 49.8836 132.719L51.7596 133.153C52.3196 133.293 52.7349 133.507 53.0056 133.797C53.2763 134.077 53.4116 134.511 53.4116 135.099C53.4116 135.668 53.3043 136.102 53.0896 136.401C52.8843 136.69 52.5529 136.891 52.0956 137.003C51.6476 137.105 51.0736 137.157 50.3736 137.157C50.1029 137.157 49.7016 137.143 49.1696 137.115C48.6376 137.096 48.0543 137.035 47.4196 136.933L47.5316 135.827C47.7183 135.827 47.9376 135.831 48.1896 135.841C48.4509 135.85 48.7263 135.855 49.0156 135.855C49.3143 135.855 49.6176 135.855 49.9256 135.855C50.4203 135.855 50.7983 135.841 51.0596 135.813C51.3303 135.775 51.5169 135.705 51.6196 135.603C51.7223 135.491 51.7736 135.332 51.7736 135.127C51.7736 134.865 51.6849 134.693 51.5076 134.609C51.3396 134.515 51.0876 134.427 50.7516 134.343L48.9176 133.895C48.4976 133.783 48.1709 133.643 47.9376 133.475C47.7043 133.297 47.5363 133.083 47.4336 132.831C47.3309 132.569 47.2796 132.252 47.2796 131.879C47.2796 131.375 47.3729 130.983 47.5596 130.703C47.7556 130.423 48.0589 130.227 48.4696 130.115C48.8896 130.003 49.4403 129.951 50.1216 129.961ZM57.6324 128.169V134.931C57.6324 135.22 57.6931 135.425 57.8144 135.547C57.9451 135.668 58.1644 135.729 58.4724 135.729H59.4244L59.6064 136.919C59.4477 136.965 59.2564 137.007 59.0324 137.045C58.8084 137.082 58.5891 137.105 58.3744 137.115C58.1597 137.133 57.9777 137.143 57.8284 137.143C57.2311 137.143 56.7644 136.984 56.4284 136.667C56.1017 136.34 55.9384 135.873 55.9384 135.267V128.169H57.6324ZM59.6764 130.129V131.305H54.7204V130.199L56.0644 130.129H59.6764ZM64.4148 129.961C65.5255 129.961 66.3235 130.157 66.8088 130.549C67.2942 130.931 67.5415 131.501 67.5508 132.257C67.5602 132.882 67.4108 133.358 67.1028 133.685C66.8042 134.002 66.3048 134.161 65.6048 134.161H61.6848V133.111H65.1428C65.4602 133.111 65.6608 133.027 65.7448 132.859C65.8382 132.691 65.8848 132.485 65.8848 132.243C65.8755 131.86 65.7635 131.594 65.5488 131.445C65.3435 131.295 64.9888 131.221 64.4848 131.221C64.0462 131.221 63.7055 131.281 63.4628 131.403C63.2202 131.524 63.0475 131.743 62.9448 132.061C62.8515 132.378 62.8048 132.835 62.8048 133.433C62.8048 134.067 62.8655 134.557 62.9868 134.903C63.1082 135.248 63.3088 135.486 63.5888 135.617C63.8688 135.738 64.2422 135.799 64.7088 135.799C65.0542 135.799 65.4508 135.785 65.8988 135.757C66.3562 135.729 66.7948 135.691 67.2148 135.645L67.3828 136.723C67.1308 136.825 66.8415 136.909 66.5148 136.975C66.1882 137.04 65.8475 137.087 65.4928 137.115C65.1475 137.152 64.8208 137.171 64.5128 137.171C63.6728 137.171 62.9962 137.049 62.4828 136.807C61.9788 136.555 61.6102 136.163 61.3768 135.631C61.1528 135.099 61.0408 134.413 61.0408 133.573C61.0408 132.667 61.1528 131.953 61.3768 131.431C61.6102 130.899 61.9742 130.521 62.4688 130.297C62.9728 130.073 63.6215 129.961 64.4148 129.961ZM70.8095 130.129L71.0335 131.473L71.1875 131.669V137.003H69.4935V130.129H70.8095ZM74.1695 129.961L74.0015 131.529H73.5115C73.1475 131.529 72.7788 131.589 72.4055 131.711C72.0321 131.832 71.5655 132.014 71.0055 132.257L70.8935 131.263C71.3788 130.852 71.8735 130.535 72.3775 130.311C72.8815 130.077 73.3668 129.961 73.8335 129.961H74.1695Z" fill="#333839"/>
<path d="M90.3994 53.6044L53.7439 90.2499" stroke="white" stroke-width="6.29" stroke-miterlimit="10"/>
<path d="M90.3994 53.6044L53.7439 90.2499" stroke="#3CAD99" stroke-width="3.42" stroke-miterlimit="10"/>
<path d="M8.6601 52.6618L6 50.0017L45.9905 10.0013" stroke="white" stroke-width="6.29" stroke-miterlimit="10"/>
<path d="M8.6601 52.6618L6 50.0017L45.9905 10.0013" stroke="#3CAD99" stroke-width="3.42" stroke-miterlimit="10"/>
<path d="M68.6358 87.9313H31.3153L12 68.6358V31.3153L31.3153 12H68.6358L87.9512 31.3153V68.6358L68.6358 87.9313Z" fill="#3CAD99"/>
<path d="M53.742 90.2507L50.0001 94.0026L8.65967 52.6622" stroke="white" stroke-width="6.29" stroke-miterlimit="10"/>
<path d="M53.742 90.2507L50.0001 94.0026L8.65967 52.6622" stroke="#3CAD99" stroke-width="3.42" stroke-miterlimit="10"/>
<path d="M45.9895 10L49.9995 6L93.9999 50.0004L90.3969 53.6034" stroke="white" stroke-width="6.29" stroke-miterlimit="10"/>
<path d="M45.9895 10L49.9995 6L93.9999 50.0004L90.3969 53.6034" stroke="#3CAD99" stroke-width="3.42" stroke-miterlimit="10"/>
<path d="M41.9159 47.3837C42.4453 47.2324 42.9747 47.0811 43.5797 46.9299C42.7478 48.2912 41.9159 49.6525 41.1596 50.9382C39.7983 50.1819 38.437 49.4257 37 48.6694C37.605 48.5181 38.1344 48.3668 38.5882 48.2156C37.605 42.1652 41.9159 36.9468 47.3612 36.1149C53.109 35.283 58.1762 39.0644 59.3106 44.3585C60.4451 49.6525 57.4199 54.4928 53.2603 56.2323C53.109 55.0222 52.5796 54.1147 51.6721 53.3584C55.7561 51.6945 57.193 47.1568 55.5292 43.6778C54.0166 40.3501 50.1595 38.6863 46.6806 39.8964C42.9747 41.0308 41.4621 44.661 41.9159 47.3837Z" fill="white"/>
<path d="M52.8823 62.0555C52.4286 61.9799 52.0504 61.9043 51.5966 61.8286C51.4454 62.2068 51.2941 62.5849 51.1429 63.0387C50.916 62.5849 50.6891 62.2824 50.4622 61.9043C50.1597 61.3749 49.7815 60.7698 49.479 60.2404C49.4034 60.0892 49.3278 60.0135 49.1765 60.0892C49.1009 60.0892 48.9496 60.1648 48.874 60.0892C48.4958 60.0135 48.4202 60.1648 48.269 60.4673C47.8152 61.2236 47.3614 62.0555 46.9076 62.8118C46.832 62.8874 46.832 62.9631 46.7564 63.1143C46.6051 62.7362 46.4539 62.358 46.3782 61.9043C46.0001 61.9799 45.5463 62.0555 45.0925 62.1311C45.6219 61.148 46.1513 60.2404 46.7564 59.2572C45.9245 58.5009 45.4707 57.5178 45.5463 56.3077C45.6219 55.3245 46.0757 54.5682 46.7564 53.9632C48.1177 52.8287 50.2353 52.9044 51.4454 54.1901C52.7311 55.4758 52.8067 57.7446 51.2185 59.2572C51.8235 60.0892 52.3529 61.0723 52.8823 62.0555ZM49.0253 54.2657C47.7396 54.2657 46.7564 55.2489 46.7564 56.5346C46.7564 57.7446 47.8152 58.8035 49.0253 58.8035C50.2353 58.8035 51.2941 57.8203 51.2941 56.5346C51.2941 55.3245 50.311 54.2657 49.0253 54.2657Z" fill="white"/>
<path d="M63.9999 55.4005C62.9411 56.535 61.8823 57.6694 60.7479 58.8038C60.7479 58.1988 60.7479 57.6694 60.7479 57.0644C58.2521 57.0644 55.7563 57.0644 53.3362 57.0644C53.3362 57.0644 53.3362 57.0644 53.3362 56.9887C53.5631 56.8375 53.8656 56.7618 54.0925 56.6106C55.4538 55.9299 56.6639 55.0224 57.6471 53.8879C57.7227 53.8123 57.8739 53.7367 58.0252 53.7367C58.8571 53.7367 59.689 53.7367 60.4453 53.7367C60.521 53.7367 60.6722 53.7367 60.7479 53.7367C60.7479 53.1316 60.7479 52.6022 60.7479 51.9972C61.8067 53.1316 62.8655 54.2661 63.9999 55.4005Z" fill="white"/>
<path d="M45.8486 53.7375C45.0167 54.7207 44.7142 55.7795 44.7898 56.9896C42.1428 56.9896 39.5714 56.9896 37 56.9896C37 55.9308 37 54.7964 37 53.7375C39.9495 53.7375 42.8991 53.7375 45.8486 53.7375Z" fill="white"/>
<path d="M53.2604 51.3157C52.5797 51.9207 51.7478 52.3745 50.8403 52.677C50.7646 52.677 50.6134 52.677 50.5378 52.677C49.3277 52.2233 48.1176 52.2989 46.9076 52.9039C46.8319 52.9795 46.7563 52.9795 46.6807 52.9795C45.7731 52.9795 44.8656 52.9795 43.958 52.9795C43.958 51.6182 45.8487 49.7275 47.6638 49.2737C49.9327 48.6687 52.2016 49.6519 53.2604 51.3157Z" fill="white"/>
<path d="M51.444 45.2662C51.444 46.6275 50.3852 47.6863 49.0239 47.6863C47.6626 47.6863 46.6038 46.5519 46.6038 45.2662C46.6038 43.9049 47.7382 42.8461 49.0239 42.8461C50.3852 42.8461 51.444 43.9049 51.444 45.2662Z" fill="white"/>
<path d="M47.5132 56.5339C47.5132 55.702 48.1938 55.0214 49.0258 55.0214C49.8577 55.0214 50.5384 55.702 50.5384 56.5339C50.5384 57.3659 49.8577 58.0465 49.0258 58.0465C48.1938 58.0465 47.5132 57.3659 47.5132 56.5339Z" fill="white"/>
</svg>
