<svg width="100" height="156" viewBox="0 0 100 156" fill="none" xmlns="http://www.w3.org/2000/svg">
<rect width="100" height="156" rx="19" fill="#F9FBFF"/>
<path d="M27.2153 109.217C27.9433 109.217 28.5593 109.301 29.0633 109.469C29.5766 109.627 29.9873 109.898 30.2953 110.281C30.6126 110.654 30.8413 111.163 30.9813 111.807C31.1213 112.441 31.1913 113.23 31.1913 114.173C31.1913 115.115 31.1213 115.909 30.9813 116.553C30.8413 117.187 30.6126 117.696 30.2953 118.079C29.9873 118.452 29.5766 118.723 29.0633 118.891C28.5593 119.049 27.9433 119.129 27.2153 119.129C26.5153 119.129 25.8666 119.115 25.2693 119.087C24.672 119.068 24.1073 119.04 23.5753 119.003L24.3033 117.659C24.6766 117.677 25.106 117.696 25.5913 117.715C26.0766 117.724 26.618 117.729 27.2153 117.729C27.7566 117.729 28.1813 117.626 28.4893 117.421C28.8066 117.206 29.0306 116.842 29.1613 116.329C29.292 115.806 29.3573 115.087 29.3573 114.173C29.3573 113.258 29.292 112.544 29.1613 112.031C29.0306 111.508 28.8066 111.139 28.4893 110.925C28.1813 110.71 27.7566 110.603 27.2153 110.603C26.6366 110.603 26.1186 110.607 25.6613 110.617C25.2133 110.626 24.7746 110.631 24.3453 110.631L23.5753 109.343C24.1073 109.305 24.6673 109.277 25.2553 109.259C25.8526 109.231 26.506 109.217 27.2153 109.217ZM25.3253 109.343V119.003H23.5753V109.343H25.3253ZM36.3546 111.961C36.9052 111.961 37.3672 112.035 37.7406 112.185C38.1232 112.325 38.4126 112.567 38.6086 112.913C38.8046 113.258 38.9026 113.734 38.9026 114.341V119.003H37.5586L37.3206 117.519L37.1946 117.323V114.327C37.1946 113.963 37.1106 113.701 36.9426 113.543C36.7746 113.375 36.4526 113.291 35.9766 113.291C35.6219 113.291 35.1739 113.305 34.6326 113.333C34.1006 113.361 33.5639 113.398 33.0226 113.445L32.8686 112.283C33.1952 112.217 33.5639 112.161 33.9746 112.115C34.3852 112.068 34.8006 112.031 35.2206 112.003C35.6406 111.975 36.0186 111.961 36.3546 111.961ZM38.1746 114.775L38.1606 115.825H35.0106C34.7306 115.834 34.5299 115.909 34.4086 116.049C34.2872 116.189 34.2266 116.38 34.2266 116.623V117.001C34.2266 117.281 34.3012 117.495 34.4506 117.645C34.5999 117.785 34.8332 117.855 35.1506 117.855C35.4026 117.855 35.6826 117.803 35.9906 117.701C36.2986 117.598 36.6019 117.449 36.9006 117.253C37.2086 117.057 37.4839 116.823 37.7266 116.553V117.435C37.6332 117.575 37.4979 117.743 37.3206 117.939C37.1432 118.125 36.9239 118.312 36.6626 118.499C36.4106 118.685 36.1166 118.839 35.7806 118.961C35.4539 119.082 35.0899 119.143 34.6886 119.143C34.2779 119.143 33.9092 119.073 33.5826 118.933C33.2559 118.783 32.9992 118.569 32.8126 118.289C32.6259 117.999 32.5326 117.645 32.5326 117.225V116.497C32.5326 115.955 32.7099 115.535 33.0646 115.237C33.4286 114.929 33.9232 114.775 34.5486 114.775H38.1746ZM47.2829 112.129L44.7069 119.213C44.5856 119.539 44.4316 119.861 44.2449 120.179C44.0676 120.505 43.8389 120.799 43.5589 121.061C43.2789 121.322 42.9476 121.527 42.5649 121.677C42.1822 121.826 41.7389 121.882 41.2349 121.845L41.0949 120.837C41.6549 120.678 42.0889 120.463 42.3969 120.193C42.7142 119.922 42.9616 119.577 43.1389 119.157L43.5169 118.261C43.6009 118.055 43.6802 117.822 43.7549 117.561C43.8389 117.29 43.9089 117.057 43.9649 116.861L45.4629 112.129H47.2829ZM41.7389 112.129L43.2649 116.861C43.3116 117.019 43.3536 117.183 43.3909 117.351C43.4282 117.509 43.4609 117.668 43.4889 117.827H43.8389L43.3069 119.003H42.8589C42.7282 119.003 42.6116 118.965 42.5089 118.891C42.4062 118.816 42.3362 118.713 42.2989 118.583L39.9329 112.129H41.7389ZM52.8702 109.203L52.8562 116.931C52.8562 117.192 52.9309 117.393 53.0802 117.533C53.2295 117.663 53.4442 117.729 53.7242 117.729H54.3262L54.5222 118.919C54.4195 118.965 54.2749 119.007 54.0882 119.045C53.9109 119.082 53.7242 119.105 53.5282 119.115C53.3415 119.133 53.1782 119.143 53.0382 119.143C52.4689 119.143 52.0162 118.989 51.6802 118.681C51.3442 118.373 51.1762 117.929 51.1762 117.351V109.203H52.8702ZM58.6862 111.961C59.5262 111.961 60.1936 112.077 60.6882 112.311C61.1922 112.544 61.5516 112.927 61.7662 113.459C61.9902 113.991 62.1022 114.695 62.1022 115.573C62.1022 116.45 61.9902 117.155 61.7662 117.687C61.5516 118.209 61.1922 118.592 60.6882 118.835C60.1936 119.068 59.5262 119.185 58.6862 119.185C57.8649 119.185 57.2022 119.068 56.6982 118.835C56.2036 118.592 55.8442 118.209 55.6202 117.687C55.3962 117.155 55.2842 116.45 55.2842 115.573C55.2842 114.695 55.3962 113.991 55.6202 113.459C55.8442 112.927 56.2036 112.544 56.6982 112.311C57.2022 112.077 57.8649 111.961 58.6862 111.961ZM58.6862 113.249C58.2756 113.249 57.9489 113.319 57.7062 113.459C57.4729 113.589 57.3049 113.823 57.2022 114.159C57.0996 114.495 57.0482 114.966 57.0482 115.573C57.0482 116.179 57.0996 116.651 57.2022 116.987C57.3049 117.323 57.4729 117.556 57.7062 117.687C57.9489 117.817 58.2756 117.883 58.6862 117.883C59.1062 117.883 59.4376 117.817 59.6802 117.687C59.9229 117.556 60.0909 117.323 60.1842 116.987C60.2869 116.651 60.3382 116.179 60.3382 115.573C60.3382 114.966 60.2869 114.495 60.1842 114.159C60.0909 113.823 59.9229 113.589 59.6802 113.459C59.4376 113.319 59.1062 113.249 58.6862 113.249ZM66.7793 111.961C67.0126 111.961 67.2693 111.97 67.5493 111.989C67.8293 112.007 68.114 112.045 68.4033 112.101C68.6926 112.157 68.954 112.236 69.1873 112.339L68.9913 113.403C68.646 113.384 68.3006 113.37 67.9553 113.361C67.6193 113.351 67.3253 113.347 67.0733 113.347C66.5973 113.347 66.2193 113.412 65.9393 113.543C65.6686 113.664 65.4726 113.888 65.3513 114.215C65.23 114.532 65.1693 114.98 65.1693 115.559C65.1693 116.137 65.23 116.59 65.3513 116.917C65.4726 117.234 65.6686 117.458 65.9393 117.589C66.2193 117.719 66.5973 117.785 67.0733 117.785C67.2133 117.785 67.3953 117.78 67.6193 117.771C67.8526 117.761 68.1 117.747 68.3613 117.729C68.632 117.71 68.8933 117.687 69.1453 117.659L69.3133 118.751C68.9493 118.9 68.5433 119.007 68.0953 119.073C67.6473 119.138 67.204 119.171 66.7653 119.171C65.944 119.171 65.286 119.054 64.7913 118.821C64.2966 118.587 63.9373 118.209 63.7133 117.687C63.4986 117.155 63.3913 116.445 63.3913 115.559C63.3913 114.672 63.5033 113.967 63.7273 113.445C63.9513 112.913 64.3106 112.535 64.8053 112.311C65.3 112.077 65.958 111.961 66.7793 111.961ZM76.9153 112.129L74.9553 114.579C74.8806 114.691 74.7873 114.803 74.6753 114.915C74.5633 115.017 74.4653 115.097 74.3813 115.153V115.181C74.4653 115.237 74.5633 115.33 74.6753 115.461C74.7873 115.582 74.8806 115.708 74.9553 115.839L77.1393 119.003H75.2213L72.7153 115.111L74.9973 112.129H76.9153ZM72.3933 109.203L72.4073 113.389C72.4073 113.697 72.3886 113.991 72.3513 114.271C72.3233 114.551 72.2813 114.835 72.2253 115.125C72.272 115.395 72.3093 115.675 72.3373 115.965C72.3746 116.254 72.3933 116.525 72.3933 116.777V119.003H70.6993V109.203H72.3933ZM73.4433 114.607V115.699H71.8473V114.607H73.4433Z" fill="#333839"/>
<path d="M90.3996 53.6044L53.7441 90.2499" stroke="white" stroke-width="6.29" stroke-miterlimit="10"/>
<path d="M90.3996 53.6044L53.7441 90.2499" stroke="#657AD0" stroke-width="3.42" stroke-miterlimit="10"/>
<path d="M8.6601 52.6618L6 50.0017L45.9905 10.0013" stroke="white" stroke-width="6.29" stroke-miterlimit="10"/>
<path d="M8.6601 52.6618L6 50.0017L45.9905 10.0013" stroke="#657AD0" stroke-width="3.42" stroke-miterlimit="10"/>
<path d="M68.6358 87.9313H31.3153L12 68.6358V31.3153L31.3153 12H68.6358L87.9512 31.3153V68.6358L68.6358 87.9313Z" fill="#657AD0"/>
<path d="M53.742 90.2507L50.0001 94.0026L8.65967 52.6622" stroke="white" stroke-width="6.29" stroke-miterlimit="10"/>
<path d="M53.742 90.2507L50.0001 94.0026L8.65967 52.6622" stroke="#657AD0" stroke-width="3.42" stroke-miterlimit="10"/>
<path d="M45.9897 10L49.9997 6L94.0002 50.0004L90.3972 53.6034" stroke="white" stroke-width="6.29" stroke-miterlimit="10"/>
<path d="M45.9897 10L49.9997 6L94.0002 50.0004L90.3972 53.6034" stroke="#657AD0" stroke-width="3.42" stroke-miterlimit="10"/>
<path d="M64 41.2506V57.2393C63.9804 57.2846 63.9643 57.3313 63.9519 57.379C63.8635 57.9068 63.6418 58.4032 63.3077 58.8213C62.4865 59.8492 61.3907 60.2649 60.1003 60.2642C54.0364 60.2611 47.9725 60.2586 41.9086 60.2568C41.5028 60.2614 41.0981 60.2159 40.7036 60.1212C39.0606 59.7021 37.9912 58.2754 38.0001 56.6731C38.0326 51.6661 38.0116 46.6591 38.0129 41.6521C38.0088 41.5172 38.0183 41.3822 38.0414 41.2493C38.1219 40.8787 38.321 40.5445 38.6083 40.2971C38.8957 40.0497 39.2558 39.9027 39.6342 39.8782C39.9855 39.8572 40.3388 39.8782 40.7151 39.8782C40.7151 39.691 40.7056 39.5473 40.7151 39.4035C40.7355 39.1458 40.9097 38.9885 41.145 39.0014C41.3681 39.0136 41.5112 39.1723 41.5214 39.4266C41.5268 39.5622 41.5214 39.7053 41.5214 39.8463H45.6658C45.6658 39.7032 45.6658 39.5785 45.6658 39.4537C45.674 39.1689 45.8252 39.0001 46.0673 39.0001C46.3093 39.0001 46.464 39.1696 46.4741 39.4523C46.4796 39.5839 46.4741 39.7148 46.4741 39.8436H50.582C50.6403 39.5113 50.4572 39.0299 50.9888 39.0157C51.5584 39.0028 51.3618 39.5168 51.4282 39.8497H55.5219C55.5259 39.7615 55.5307 39.687 55.5334 39.6124C55.5316 39.528 55.5345 39.4435 55.5422 39.3594C55.5519 39.257 55.601 39.1623 55.6792 39.0953C55.7574 39.0284 55.8585 38.9945 55.9613 39.0007C56.1762 39.0096 56.3288 39.1621 56.3417 39.3954C56.3505 39.5432 56.3417 39.6924 56.3417 39.8483H60.4841C60.4841 39.7005 60.4841 39.5669 60.4841 39.434C60.4929 39.1675 60.6448 39.0028 60.8781 39.0001C61.1113 38.9973 61.2748 39.1581 61.2917 39.4212C61.3005 39.5608 61.2917 39.7012 61.2917 39.8755C61.6742 39.8755 62.0213 39.8524 62.3645 39.8802C63.0161 39.9338 63.5118 40.2545 63.8223 40.837C63.8885 40.9718 63.9478 41.1098 64 41.2506ZM63.1809 44.5645H38.83C38.826 44.6234 38.8212 44.6648 38.8212 44.7062C38.8212 48.1997 38.8228 51.6932 38.826 55.1867C38.826 55.42 38.8938 55.6532 38.9277 55.8858C38.9609 56.1048 39.0762 56.1747 39.3067 56.1747C45.4136 56.1674 51.5209 56.1656 57.6287 56.1693H57.8999C57.9237 56.0757 57.9433 56.0106 57.9569 55.9448C58.1775 54.8341 58.3974 53.7234 58.6167 52.6127C58.6973 52.2058 58.8533 52.0973 59.2568 52.1801C60.0352 52.3387 60.8134 52.4981 61.5914 52.6581C62.1176 52.7653 62.6438 52.8704 63.1836 52.9789L63.1809 44.5645ZM39.6953 56.983C40.2947 57.5722 41.0148 57.7967 41.8231 57.7967C47.9463 57.794 54.0694 57.794 60.1925 57.7967C60.2854 57.7967 60.379 57.7967 60.4712 57.7906C62.4567 57.5993 63.4813 56.1869 63.1443 54.1967C63.0676 54.2387 62.9944 54.2767 62.9225 54.3188C61.4985 55.1487 60.0786 55.9848 58.6506 56.8033C58.4546 56.9133 58.2344 56.973 58.0098 56.9769C52.0051 56.9864 46.0004 56.9888 39.9957 56.9843L39.6953 56.983ZM38.9494 57.5112C39.1128 58.0977 39.4613 58.548 39.9516 58.8931C40.5429 59.3081 41.2094 59.441 41.918 59.4404C47.9756 59.4372 54.0314 59.4372 60.0854 59.4404C60.28 59.444 60.4745 59.4347 60.6679 59.4126C61.685 59.2715 62.475 58.784 62.9476 57.8455C62.9998 57.7417 63.0344 57.6285 63.0771 57.52C62.1617 58.35 61.0998 58.628 59.9064 58.6253C53.9609 58.6095 48.0163 58.6095 42.0727 58.6253C40.888 58.6246 39.8363 58.3405 38.9514 57.5112H38.9494ZM58.8126 55.7705L62.4316 53.6549L59.3551 53.0284L58.8126 55.7705ZM46.0103 42.4563H46.1269C46.1948 42.3525 46.31 42.2528 46.3304 42.1423C46.3582 41.9796 46.2307 41.8765 46.0693 41.8752C45.9079 41.8738 45.7832 41.9864 45.8076 42.1464C45.8211 42.2549 45.9384 42.3518 46.0103 42.4563ZM41.4325 42.2088L41.4359 42.101C41.3349 42.0237 41.242 41.9009 41.1308 41.8806C40.9769 41.8528 40.8596 41.9653 40.8562 42.1349C40.8528 42.3044 40.9545 42.4244 41.1132 42.4061C41.2257 42.3946 41.3268 42.2779 41.4325 42.2088ZM56.2549 42.2027V42.0949C56.1518 42.0196 56.0562 41.8989 55.9443 41.8806C55.7904 41.8555 55.6731 41.9708 55.6731 42.1403C55.6731 42.3098 55.7768 42.4285 55.9348 42.4054C56.0521 42.3891 56.1504 42.2739 56.2549 42.2027ZM60.9337 41.829L60.8232 41.8345C60.7553 41.9409 60.6441 42.0426 60.6306 42.1559C60.6116 42.3139 60.7323 42.421 60.9018 42.4122C61.0713 42.4034 61.1846 42.2962 61.1493 42.1355C61.1269 42.023 61.011 41.9308 60.9364 41.829H60.9337ZM50.6945 42.0949L50.6979 42.2169C50.8051 42.2847 50.9176 42.4075 51.018 42.3986C51.1184 42.3898 51.2357 42.2474 51.258 42.1444C51.2666 42.1087 51.2661 42.0714 51.2564 42.036C51.2467 42.0007 51.2281 41.9683 51.2025 41.942C51.1769 41.9157 51.1451 41.8964 51.11 41.8858C51.0748 41.8751 51.0376 41.8736 51.0017 41.8813C50.8932 41.8989 50.7983 42.0203 50.6966 42.0949H50.6945Z" fill="white"/>
<path d="M50.9942 54.6003C50.1059 54.6003 49.2176 54.6003 48.3293 54.6003C47.7143 54.6003 47.3908 54.2775 47.3901 53.6611C47.3901 52.4343 47.3901 51.2076 47.3901 49.9812C47.3901 49.3709 47.7034 49.0569 48.3062 49.0501C48.6853 49.0461 48.6615 49.0929 48.65 48.6887C48.6236 47.7326 48.9674 46.9664 49.7953 46.4605C51.3075 45.5363 53.2603 46.5771 53.3492 48.3476C53.36 48.5585 53.2861 48.8284 53.3905 48.9627C53.4807 49.0786 53.7709 49.0305 53.9703 49.0698C54.1507 49.1058 54.3131 49.203 54.43 49.345C54.5469 49.487 54.6111 49.665 54.6118 49.8489C54.6186 51.1599 54.6186 52.4709 54.6118 53.7818C54.6118 54.2619 54.2551 54.5955 53.7601 54.5955C52.8393 54.6044 51.9157 54.6003 50.9942 54.6003ZM49.4854 49.0156H52.5172C52.6453 48.1707 52.4087 47.5333 51.8391 47.1678C51.5856 47.005 51.2899 46.92 50.9886 46.9234C50.6873 46.9268 50.3937 47.0183 50.1439 47.1867C49.4902 47.6356 49.4047 48.2893 49.4854 49.0162V49.0156ZM51.3061 51.2851L51.3149 51.1624C51.2166 51.0858 51.1278 50.9671 51.0179 50.9427C50.9829 50.9321 50.9457 50.9308 50.91 50.9389C50.8743 50.9471 50.8414 50.9644 50.8145 50.9892C50.7876 51.014 50.7676 51.0454 50.7565 51.0803C50.7455 51.1152 50.7437 51.1524 50.7514 51.1882C50.7684 51.2899 50.887 51.435 50.9799 51.4465C51.0728 51.458 51.1962 51.3455 51.3061 51.2858V51.2851Z" fill="white"/>
</svg>
