<svg width="98" height="150" viewBox="0 0 98 150" fill="none" xmlns="http://www.w3.org/2000/svg">
<path d="M23.8689 108.217C24.5969 108.217 25.2129 108.301 25.7169 108.469C26.2303 108.627 26.6409 108.898 26.9489 109.281C27.2663 109.654 27.4949 110.163 27.6349 110.807C27.7749 111.441 27.8449 112.23 27.8449 113.173C27.8449 114.115 27.7749 114.909 27.6349 115.553C27.4949 116.187 27.2663 116.696 26.9489 117.079C26.6409 117.452 26.2303 117.723 25.7169 117.891C25.2129 118.049 24.5969 118.129 23.8689 118.129C23.1689 118.129 22.5203 118.115 21.9229 118.087C21.3256 118.068 20.7609 118.04 20.2289 118.003L20.9569 116.659C21.3303 116.677 21.7596 116.696 22.2449 116.715C22.7303 116.724 23.2716 116.729 23.8689 116.729C24.4103 116.729 24.8349 116.626 25.1429 116.421C25.4603 116.206 25.6843 115.842 25.8149 115.329C25.9456 114.806 26.0109 114.087 26.0109 113.173C26.0109 112.258 25.9456 111.544 25.8149 111.031C25.6843 110.508 25.4603 110.139 25.1429 109.925C24.8349 109.71 24.4103 109.603 23.8689 109.603C23.2903 109.603 22.7723 109.607 22.3149 109.617C21.8669 109.626 21.4283 109.631 20.9989 109.631L20.2289 108.343C20.7609 108.305 21.3209 108.277 21.9089 108.259C22.5063 108.231 23.1596 108.217 23.8689 108.217ZM21.9789 108.343V118.003H20.2289V108.343H21.9789ZM32.1962 110.961C33.3069 110.961 34.1049 111.157 34.5902 111.549C35.0755 111.931 35.3229 112.501 35.3322 113.257C35.3415 113.882 35.1922 114.358 34.8842 114.685C34.5855 115.002 34.0862 115.161 33.3862 115.161H29.4662V114.111H32.9242C33.2415 114.111 33.4422 114.027 33.5262 113.859C33.6195 113.691 33.6662 113.485 33.6662 113.243C33.6569 112.86 33.5449 112.594 33.3302 112.445C33.1249 112.295 32.7702 112.221 32.2662 112.221C31.8275 112.221 31.4869 112.281 31.2442 112.403C31.0015 112.524 30.8289 112.743 30.7262 113.061C30.6329 113.378 30.5862 113.835 30.5862 114.433C30.5862 115.067 30.6469 115.557 30.7682 115.903C30.8895 116.248 31.0902 116.486 31.3702 116.617C31.6502 116.738 32.0235 116.799 32.4902 116.799C32.8355 116.799 33.2322 116.785 33.6802 116.757C34.1375 116.729 34.5762 116.691 34.9962 116.645L35.1642 117.723C34.9122 117.825 34.6229 117.909 34.2962 117.975C33.9695 118.04 33.6289 118.087 33.2742 118.115C32.9289 118.152 32.6022 118.171 32.2942 118.171C31.4542 118.171 30.7775 118.049 30.2642 117.807C29.7602 117.555 29.3915 117.163 29.1582 116.631C28.9342 116.099 28.8222 115.413 28.8222 114.573C28.8222 113.667 28.9342 112.953 29.1582 112.431C29.3915 111.899 29.7555 111.521 30.2502 111.297C30.7542 111.073 31.4029 110.961 32.1962 110.961ZM40.7048 110.961C41.5542 110.961 42.1655 111.273 42.5388 111.899C42.9122 112.524 43.0988 113.429 43.0988 114.615C43.0988 115.52 43.0008 116.234 42.8048 116.757C42.6182 117.27 42.3335 117.639 41.9508 117.863C41.5682 118.077 41.0828 118.185 40.4948 118.185C40.0282 118.185 39.5708 118.119 39.1228 117.989C38.6842 117.849 38.2782 117.634 37.9048 117.345L38.0168 116.505C38.3808 116.607 38.7075 116.696 38.9968 116.771C39.2862 116.845 39.6035 116.883 39.9488 116.883C40.2942 116.883 40.5648 116.827 40.7608 116.715C40.9662 116.593 41.1155 116.369 41.2088 116.043C41.3022 115.716 41.3488 115.245 41.3488 114.629C41.3488 114.022 41.3068 113.551 41.2228 113.215C41.1388 112.879 40.9988 112.645 40.8028 112.515C40.6162 112.375 40.3688 112.305 40.0608 112.305C39.7248 112.305 39.4075 112.379 39.1088 112.529C38.8102 112.669 38.4648 112.879 38.0728 113.159L37.8768 112.263C38.0915 112.011 38.3482 111.787 38.6468 111.591C38.9548 111.395 39.2862 111.241 39.6408 111.129C39.9955 111.017 40.3502 110.961 40.7048 110.961ZM37.8068 111.129L37.9748 112.459L38.1288 112.655V117.093L38.0588 117.261C38.0868 117.531 38.1055 117.802 38.1148 118.073C38.1242 118.353 38.1288 118.637 38.1288 118.927V120.733H36.4348V111.129H37.8068ZM46.5543 109.169V115.931C46.5543 116.22 46.615 116.425 46.7363 116.547C46.867 116.668 47.0863 116.729 47.3943 116.729H48.3463L48.5283 117.919C48.3696 117.965 48.1783 118.007 47.9543 118.045C47.7303 118.082 47.511 118.105 47.2963 118.115C47.0816 118.133 46.8996 118.143 46.7503 118.143C46.153 118.143 45.6863 117.984 45.3503 117.667C45.0236 117.34 44.8603 116.873 44.8603 116.267V109.169H46.5543ZM48.5983 111.129V112.305H43.6423V111.199L44.9863 111.129H48.5983ZM55.8328 108.343V118.003H54.0828V108.343H55.8328ZM58.8288 108.343V109.771H51.0868V108.343H58.8288ZM59.7915 111.129L60.0155 112.473L60.1695 112.669V118.003H58.4755V111.129H59.7915ZM63.1515 110.961L62.9835 112.529H62.4935C62.1295 112.529 61.7609 112.589 61.3875 112.711C61.0142 112.832 60.5475 113.014 59.9875 113.257L59.8755 112.263C60.3609 111.852 60.8555 111.535 61.3595 111.311C61.8635 111.077 62.3489 110.961 62.8155 110.961H63.1515ZM67.3104 110.961C67.8611 110.961 68.3231 111.035 68.6964 111.185C69.0791 111.325 69.3684 111.567 69.5644 111.913C69.7604 112.258 69.8584 112.734 69.8584 113.341V118.003H68.5144L68.2764 116.519L68.1504 116.323V113.327C68.1504 112.963 68.0664 112.701 67.8984 112.543C67.7304 112.375 67.4084 112.291 66.9324 112.291C66.5777 112.291 66.1297 112.305 65.5884 112.333C65.0564 112.361 64.5197 112.398 63.9784 112.445L63.8244 111.283C64.1511 111.217 64.5197 111.161 64.9304 111.115C65.3411 111.068 65.7564 111.031 66.1764 111.003C66.5964 110.975 66.9744 110.961 67.3104 110.961ZM69.1304 113.775L69.1164 114.825H65.9664C65.6864 114.834 65.4857 114.909 65.3644 115.049C65.2431 115.189 65.1824 115.38 65.1824 115.623V116.001C65.1824 116.281 65.2571 116.495 65.4064 116.645C65.5557 116.785 65.7891 116.855 66.1064 116.855C66.3584 116.855 66.6384 116.803 66.9464 116.701C67.2544 116.598 67.5577 116.449 67.8564 116.253C68.1644 116.057 68.4397 115.823 68.6824 115.553V116.435C68.5891 116.575 68.4537 116.743 68.2764 116.939C68.0991 117.125 67.8797 117.312 67.6184 117.499C67.3664 117.685 67.0724 117.839 66.7364 117.961C66.4097 118.082 66.0457 118.143 65.6444 118.143C65.2337 118.143 64.8651 118.073 64.5384 117.933C64.2117 117.783 63.9551 117.569 63.7684 117.289C63.5817 116.999 63.4884 116.645 63.4884 116.225V115.497C63.4884 114.955 63.6657 114.535 64.0204 114.237C64.3844 113.929 64.8791 113.775 65.5044 113.775H69.1304ZM75.8021 110.961C77.0807 110.961 77.7201 111.591 77.7201 112.851V118.003H76.0261V113.369C76.0261 112.995 75.9607 112.739 75.8301 112.599C75.6994 112.459 75.4801 112.389 75.1721 112.389C74.8267 112.389 74.4721 112.468 74.1081 112.627C73.7441 112.776 73.3054 112.995 72.7921 113.285L72.7221 112.263C73.2261 111.843 73.7394 111.521 74.2621 111.297C74.7847 111.073 75.2981 110.961 75.8021 110.961ZM72.6661 111.129L72.8341 112.473L72.9741 112.669V118.003H71.2801V111.129H72.6661ZM42.167 126.343L39.409 135.513C39.3623 135.653 39.283 135.769 39.171 135.863C39.059 135.956 38.9237 136.003 38.765 136.003H37.113C36.9543 136.003 36.819 135.956 36.707 135.863C36.595 135.769 36.5203 135.653 36.483 135.513L33.725 126.343H35.531L37.505 133.609C37.5517 133.786 37.5983 133.963 37.645 134.141C37.6917 134.318 37.729 134.495 37.757 134.673H38.121C38.1677 134.495 38.2097 134.318 38.247 134.141C38.2937 133.954 38.3403 133.772 38.387 133.595L40.361 126.343H42.167ZM44.6023 129.129V136.003H42.9223V129.129H44.6023ZM44.1403 126.147C44.4763 126.147 44.6443 126.315 44.6443 126.651V127.435C44.6443 127.771 44.4763 127.939 44.1403 127.939H43.3843C43.0483 127.939 42.8803 127.771 42.8803 127.435V126.651C42.8803 126.315 43.0483 126.147 43.3843 126.147H44.1403ZM49.2037 128.961C50.3144 128.961 51.1124 129.157 51.5977 129.549C52.0831 129.931 52.3304 130.501 52.3397 131.257C52.3491 131.882 52.1997 132.358 51.8917 132.685C51.5931 133.002 51.0937 133.161 50.3937 133.161H46.4737V132.111H49.9317C50.2491 132.111 50.4497 132.027 50.5337 131.859C50.6271 131.691 50.6737 131.485 50.6737 131.243C50.6644 130.86 50.5524 130.594 50.3377 130.445C50.1324 130.295 49.7777 130.221 49.2737 130.221C48.8351 130.221 48.4944 130.281 48.2517 130.403C48.0091 130.524 47.8364 130.743 47.7337 131.061C47.6404 131.378 47.5937 131.835 47.5937 132.433C47.5937 133.067 47.6544 133.557 47.7757 133.903C47.8971 134.248 48.0977 134.486 48.3777 134.617C48.6577 134.738 49.0311 134.799 49.4977 134.799C49.8431 134.799 50.2397 134.785 50.6877 134.757C51.1451 134.729 51.5837 134.691 52.0037 134.645L52.1717 135.723C51.9197 135.825 51.6304 135.909 51.3037 135.975C50.9771 136.04 50.6364 136.087 50.2817 136.115C49.9364 136.152 49.6097 136.171 49.3017 136.171C48.4617 136.171 47.7851 136.049 47.2717 135.807C46.7677 135.555 46.3991 135.163 46.1657 134.631C45.9417 134.099 45.8297 133.413 45.8297 132.573C45.8297 131.667 45.9417 130.953 46.1657 130.431C46.3991 129.899 46.7631 129.521 47.2577 129.297C47.7617 129.073 48.4104 128.961 49.2037 128.961ZM63.9427 129.129L62.1227 135.555C62.0854 135.685 62.0107 135.793 61.8987 135.877C61.7867 135.961 61.656 136.003 61.5067 136.003H60.1487C59.9994 136.003 59.864 135.956 59.7427 135.863C59.6214 135.769 59.5514 135.643 59.5327 135.485L58.6227 131.271C58.5854 131.084 58.5527 130.897 58.5247 130.711C58.506 130.524 58.478 130.337 58.4407 130.151H58.2587C58.2307 130.337 58.198 130.524 58.1607 130.711C58.1327 130.897 58.1 131.084 58.0627 131.271L57.1667 135.485C57.1387 135.643 57.064 135.769 56.9427 135.863C56.8307 135.956 56.6954 136.003 56.5367 136.003H55.1927C55.0434 136.003 54.9127 135.961 54.8007 135.877C54.6887 135.793 54.6187 135.685 54.5907 135.555L52.7567 129.129H54.4787L55.6267 133.847C55.664 134.024 55.6967 134.206 55.7247 134.393C55.762 134.57 55.7947 134.747 55.8227 134.925H55.9907C56.0374 134.747 56.0747 134.57 56.1027 134.393C56.14 134.206 56.1774 134.024 56.2147 133.847L57.1247 129.647C57.1527 129.497 57.218 129.376 57.3207 129.283C57.4327 129.18 57.5727 129.129 57.7407 129.129H58.9727C59.122 129.129 59.2527 129.18 59.3647 129.283C59.4767 129.376 59.5467 129.502 59.5747 129.661L60.4847 133.847C60.5127 134.024 60.5454 134.201 60.5827 134.379C60.6294 134.556 60.6667 134.738 60.6947 134.925H60.8627C60.9 134.738 60.9327 134.561 60.9607 134.393C60.9887 134.215 61.026 134.033 61.0727 133.847L62.2207 129.129H63.9427Z" fill="#333839"/>
<path d="M89.3995 52.6044L52.744 89.2499" stroke="white" stroke-width="6.29" stroke-miterlimit="10"/>
<path d="M89.3995 52.6044L52.744 89.2499" stroke="#AA730D" stroke-width="3.42" stroke-miterlimit="10"/>
<path d="M7.6601 51.6618L5 49.0017L44.9905 9.00134" stroke="white" stroke-width="6.29" stroke-miterlimit="10"/>
<path d="M7.6601 51.6618L5 49.0017L44.9905 9.00134" stroke="#AA730D" stroke-width="3.42" stroke-miterlimit="10"/>
<path d="M67.6359 86.9313H30.3154L11.0001 67.6358V30.3153L30.3154 11H67.6359L86.9512 30.3153V67.6358L67.6359 86.9313Z" fill="#AA730D"/>
<path d="M52.7421 89.2507L49.0002 93.0026L7.65979 51.6622" stroke="white" stroke-width="6.29" stroke-miterlimit="10"/>
<path d="M52.7421 89.2507L49.0002 93.0026L7.65979 51.6622" stroke="#AA730D" stroke-width="3.42" stroke-miterlimit="10"/>
<path d="M44.9896 9.00004L48.9995 5L93 49.0004L89.397 52.6034" stroke="white" stroke-width="6.29" stroke-miterlimit="10"/>
<path d="M44.9896 9.00004L48.9995 5L93 49.0004L89.397 52.6034" stroke="#AA730D" stroke-width="3.42" stroke-miterlimit="10"/>
<g clip-path="url(#clip0_488_8824)">
<path d="M47.8209 34C49.8036 34.0213 51.6978 34.8116 53.0921 36.1993C54.4865 37.5869 55.2686 39.46 55.2686 41.4118C55.2686 43.3636 54.4865 45.2367 53.0921 46.6244C51.6978 48.012 49.8036 48.8023 47.8209 48.8236C43.6666 48.8316 40.2757 45.4875 40.2829 41.3893C40.2848 40.4168 40.4813 39.4543 40.8612 38.5566C41.241 37.6589 41.7969 36.8437 42.4969 36.1575C43.1969 35.4713 44.0273 34.9276 44.9409 34.5574C45.8544 34.1872 46.833 33.9978 47.8209 34Z" fill="white"/>
<path d="M49.0012 64H35.6947C34.0464 64 33.0045 62.9832 33 61.366C33 59.7347 33 58.1024 33 56.4711C33 55.4153 33.4779 54.6779 34.4273 54.1934C37.2605 52.7394 40.3313 51.787 43.4995 51.3799C45.3331 51.1414 47.187 51.0931 49.0309 51.2357C49.0497 51.2357 49.0668 51.2534 49.1207 51.2808C49.0354 51.3312 48.9689 51.3781 48.8961 51.4117C46.6216 52.4682 44.7225 54.1737 43.4456 56.3066C42.9004 57.2032 42.9067 58.1007 43.4528 58.9946C44.7109 61.0861 46.5674 62.7663 48.7901 63.825C48.8674 63.863 48.9428 63.9037 49.0192 63.9426L49.0012 64Z" fill="white"/>
<path d="M54.7571 51.6381C58.3555 51.776 61.546 53.4949 63.7656 56.9247C64.0871 57.4207 64.071 57.8699 63.7656 58.3704C59.454 65.3909 49.0345 65.3874 44.7319 58.3642C44.4238 57.8619 44.4283 57.4163 44.7319 56.9158C46.7359 53.6611 50.3701 51.6389 54.7571 51.6381ZM61.6736 57.6603C58.2728 52.5797 50.5148 52.4745 46.9784 57.419C46.8508 57.5958 46.8535 57.7081 46.9856 57.8752C49.1638 60.6445 52.0157 61.8727 55.5494 61.412C58.1444 61.0804 60.152 59.7488 61.6754 57.6603H61.6736Z" fill="white"/>
<path d="M54.1401 60.1069C53.6463 60.1015 53.1652 59.9524 52.7573 59.6784C52.3494 59.4044 52.033 59.0178 51.8479 58.5672C51.6628 58.1166 51.6172 57.6221 51.717 57.146C51.8168 56.67 52.0574 56.2336 52.4085 55.8919C52.7597 55.5501 53.2057 55.3183 53.6904 55.2256C54.1751 55.1328 54.6769 55.1833 55.1325 55.3707C55.5881 55.558 55.9773 55.8739 56.2509 56.2785C56.5246 56.6831 56.6705 57.1583 56.6704 57.6444C56.6705 57.9702 56.605 58.2928 56.4775 58.5935C56.35 58.8942 56.1632 59.1669 55.9278 59.396C55.6925 59.6251 55.4132 59.8059 55.1063 59.9279C54.7995 60.0499 54.471 60.1108 54.1401 60.1069Z" fill="white"/>
</g>
<defs>
<clipPath id="clip0_488_8824">
<rect width="31" height="30" fill="white" transform="translate(33 34)"/>
</clipPath>
</defs>
</svg>
