<svg width="100" height="156" viewBox="0 0 100 156" fill="none" xmlns="http://www.w3.org/2000/svg">
<rect width="100" height="156" rx="19" fill="#F9FBFF"/>
<path d="M38.502 109.343V119.003H36.752V109.343H38.502ZM42.534 113.165V114.537H38.39V113.165H42.534ZM44.13 109.343V119.003H42.38V109.343H44.13ZM49.6693 109.161C50.1453 109.17 50.6446 109.198 51.1673 109.245C51.6993 109.291 52.2173 109.38 52.7213 109.511L52.6093 110.701C52.208 110.691 51.7413 110.682 51.2093 110.673C50.6866 110.654 50.1826 110.645 49.6973 110.645C49.3986 110.645 49.142 110.654 48.9273 110.673C48.722 110.691 48.554 110.738 48.4233 110.813C48.2926 110.887 48.1946 111.004 48.1293 111.163C48.0733 111.312 48.0453 111.522 48.0453 111.793C48.0453 112.213 48.1293 112.511 48.2973 112.689C48.4746 112.866 48.7593 113.006 49.1513 113.109L51.0553 113.669C51.8206 113.902 52.348 114.243 52.6373 114.691C52.9266 115.129 53.0713 115.717 53.0713 116.455C53.0713 117.005 53.006 117.458 52.8753 117.813C52.7446 118.167 52.544 118.443 52.2733 118.639C52.0026 118.835 51.648 118.975 51.2093 119.059C50.7706 119.143 50.2433 119.185 49.6273 119.185C49.31 119.185 48.8713 119.166 48.3113 119.129C47.7606 119.091 47.1306 118.998 46.4213 118.849L46.5333 117.589C47.084 117.607 47.546 117.626 47.9193 117.645C48.2926 117.654 48.6146 117.659 48.8853 117.659C49.156 117.659 49.408 117.659 49.6413 117.659C50.0706 117.659 50.4066 117.631 50.6493 117.575C50.892 117.519 51.06 117.402 51.1533 117.225C51.256 117.047 51.3073 116.791 51.3073 116.455C51.3073 116.165 51.27 115.941 51.1953 115.783C51.13 115.615 51.018 115.484 50.8593 115.391C50.7006 115.297 50.4953 115.218 50.2433 115.153L48.2693 114.551C47.5413 114.327 47.028 113.995 46.7293 113.557C46.44 113.118 46.2953 112.53 46.2953 111.793C46.2953 111.242 46.3606 110.794 46.4913 110.449C46.622 110.094 46.8226 109.828 47.0933 109.651C47.364 109.464 47.7093 109.338 48.1293 109.273C48.5586 109.198 49.072 109.161 49.6693 109.161ZM63.028 109.343V118.345C63.028 118.783 62.8134 119.003 62.384 119.003H61.194C60.998 119.003 60.8487 118.961 60.746 118.877C60.6434 118.783 60.55 118.648 60.466 118.471L57.54 112.647C57.4374 112.441 57.33 112.217 57.218 111.975C57.1154 111.723 57.0314 111.485 56.966 111.261H56.784C56.8027 111.494 56.8167 111.732 56.826 111.975C56.8447 112.208 56.854 112.441 56.854 112.675V119.003H55.174V110.001C55.174 109.562 55.3887 109.343 55.818 109.343H56.98C57.176 109.343 57.3254 109.389 57.428 109.483C57.5307 109.567 57.624 109.697 57.708 109.875L60.55 115.545C60.662 115.75 60.774 115.983 60.886 116.245C61.0074 116.497 61.1194 116.753 61.222 117.015H61.432C61.4134 116.744 61.3947 116.483 61.376 116.231C61.3667 115.969 61.362 115.713 61.362 115.461V109.343H63.028ZM36.0522 127.343C36.4908 127.343 36.7148 127.567 36.7242 128.015L37.1022 137.003H35.4362L35.1002 128.729H34.8342L33.0282 135.211C32.9442 135.593 32.7062 135.785 32.3142 135.785H31.0822C30.6808 135.785 30.4335 135.593 30.3402 135.211L28.5342 128.729H28.2682L27.9602 137.003H26.2942L26.6722 128.015C26.6908 127.567 26.9148 127.343 27.3442 127.343H29.0942C29.4675 127.343 29.7008 127.534 29.7942 127.917L31.2782 133.209C31.3435 133.433 31.3948 133.657 31.4322 133.881C31.4788 134.105 31.5302 134.329 31.5862 134.553H31.7962C31.8522 134.329 31.9035 134.105 31.9502 133.881C31.9968 133.657 32.0482 133.428 32.1042 133.195L33.5882 127.917C33.6722 127.534 33.9102 127.343 34.3022 127.343H36.0522ZM42.834 129.961C43.3846 129.961 43.8466 130.035 44.22 130.185C44.6026 130.325 44.892 130.567 45.088 130.913C45.284 131.258 45.382 131.734 45.382 132.341V137.003H44.038L43.8 135.519L43.674 135.323V132.327C43.674 131.963 43.59 131.701 43.422 131.543C43.254 131.375 42.932 131.291 42.456 131.291C42.1013 131.291 41.6533 131.305 41.112 131.333C40.58 131.361 40.0433 131.398 39.502 131.445L39.348 130.283C39.6746 130.217 40.0433 130.161 40.454 130.115C40.8646 130.068 41.28 130.031 41.7 130.003C42.12 129.975 42.498 129.961 42.834 129.961ZM44.654 132.775L44.64 133.825H41.49C41.21 133.834 41.0093 133.909 40.888 134.049C40.7666 134.189 40.706 134.38 40.706 134.623V135.001C40.706 135.281 40.7806 135.495 40.93 135.645C41.0793 135.785 41.3126 135.855 41.63 135.855C41.882 135.855 42.162 135.803 42.47 135.701C42.778 135.598 43.0813 135.449 43.38 135.253C43.688 135.057 43.9633 134.823 44.206 134.553V135.435C44.1126 135.575 43.9773 135.743 43.8 135.939C43.6226 136.125 43.4033 136.312 43.142 136.499C42.89 136.685 42.596 136.839 42.26 136.961C41.9333 137.082 41.5693 137.143 41.168 137.143C40.7573 137.143 40.3886 137.073 40.062 136.933C39.7353 136.783 39.4786 136.569 39.292 136.289C39.1053 135.999 39.012 135.645 39.012 135.225V134.497C39.012 133.955 39.1893 133.535 39.544 133.237C39.908 132.929 40.4026 132.775 41.028 132.775H44.654ZM50.1216 129.961C50.4389 129.961 50.7796 129.97 51.1436 129.989C51.5169 130.007 51.8809 130.035 52.2356 130.073C52.5903 130.101 52.9076 130.143 53.1876 130.199L53.0756 131.305C52.6276 131.295 52.1796 131.286 51.7316 131.277C51.2929 131.258 50.8589 131.249 50.4296 131.249C50.0469 131.249 49.7436 131.258 49.5196 131.277C49.3049 131.295 49.1509 131.351 49.0576 131.445C48.9736 131.538 48.9316 131.697 48.9316 131.921C48.9316 132.191 49.0063 132.373 49.1556 132.467C49.3049 132.551 49.5476 132.635 49.8836 132.719L51.7596 133.153C52.3196 133.293 52.7349 133.507 53.0056 133.797C53.2763 134.077 53.4116 134.511 53.4116 135.099C53.4116 135.668 53.3043 136.102 53.0896 136.401C52.8843 136.69 52.5529 136.891 52.0956 137.003C51.6476 137.105 51.0736 137.157 50.3736 137.157C50.1029 137.157 49.7016 137.143 49.1696 137.115C48.6376 137.096 48.0543 137.035 47.4196 136.933L47.5316 135.827C47.7183 135.827 47.9376 135.831 48.1896 135.841C48.4509 135.85 48.7263 135.855 49.0156 135.855C49.3143 135.855 49.6176 135.855 49.9256 135.855C50.4203 135.855 50.7983 135.841 51.0596 135.813C51.3303 135.775 51.5169 135.705 51.6196 135.603C51.7223 135.491 51.7736 135.332 51.7736 135.127C51.7736 134.865 51.6849 134.693 51.5076 134.609C51.3396 134.515 51.0876 134.427 50.7516 134.343L48.9176 133.895C48.4976 133.783 48.1709 133.643 47.9376 133.475C47.7043 133.297 47.5363 133.083 47.4336 132.831C47.3309 132.569 47.2796 132.252 47.2796 131.879C47.2796 131.375 47.3729 130.983 47.5596 130.703C47.7556 130.423 48.0589 130.227 48.4696 130.115C48.8896 130.003 49.4403 129.951 50.1216 129.961ZM57.6324 128.169V134.931C57.6324 135.22 57.6931 135.425 57.8144 135.547C57.9451 135.668 58.1644 135.729 58.4724 135.729H59.4244L59.6064 136.919C59.4477 136.965 59.2564 137.007 59.0324 137.045C58.8084 137.082 58.5891 137.105 58.3744 137.115C58.1597 137.133 57.9777 137.143 57.8284 137.143C57.2311 137.143 56.7644 136.984 56.4284 136.667C56.1017 136.34 55.9384 135.873 55.9384 135.267V128.169H57.6324ZM59.6764 130.129V131.305H54.7204V130.199L56.0644 130.129H59.6764ZM64.4148 129.961C65.5255 129.961 66.3235 130.157 66.8088 130.549C67.2942 130.931 67.5415 131.501 67.5508 132.257C67.5602 132.882 67.4108 133.358 67.1028 133.685C66.8042 134.002 66.3048 134.161 65.6048 134.161H61.6848V133.111H65.1428C65.4602 133.111 65.6608 133.027 65.7448 132.859C65.8382 132.691 65.8848 132.485 65.8848 132.243C65.8755 131.86 65.7635 131.594 65.5488 131.445C65.3435 131.295 64.9888 131.221 64.4848 131.221C64.0462 131.221 63.7055 131.281 63.4628 131.403C63.2202 131.524 63.0475 131.743 62.9448 132.061C62.8515 132.378 62.8048 132.835 62.8048 133.433C62.8048 134.067 62.8655 134.557 62.9868 134.903C63.1082 135.248 63.3088 135.486 63.5888 135.617C63.8688 135.738 64.2422 135.799 64.7088 135.799C65.0542 135.799 65.4508 135.785 65.8988 135.757C66.3562 135.729 66.7948 135.691 67.2148 135.645L67.3828 136.723C67.1308 136.825 66.8415 136.909 66.5148 136.975C66.1882 137.04 65.8475 137.087 65.4928 137.115C65.1475 137.152 64.8208 137.171 64.5128 137.171C63.6728 137.171 62.9962 137.049 62.4828 136.807C61.9788 136.555 61.6102 136.163 61.3768 135.631C61.1528 135.099 61.0408 134.413 61.0408 133.573C61.0408 132.667 61.1528 131.953 61.3768 131.431C61.6102 130.899 61.9742 130.521 62.4688 130.297C62.9728 130.073 63.6215 129.961 64.4148 129.961ZM70.8095 130.129L71.0335 131.473L71.1875 131.669V137.003H69.4935V130.129H70.8095ZM74.1695 129.961L74.0015 131.529H73.5115C73.1475 131.529 72.7788 131.589 72.4055 131.711C72.0321 131.832 71.5655 132.014 71.0055 132.257L70.8935 131.263C71.3788 130.852 71.8735 130.535 72.3775 130.311C72.8815 130.077 73.3668 129.961 73.8335 129.961H74.1695Z" fill="#333839"/>
<path d="M90.3995 53.6044L53.744 90.2499" stroke="white" stroke-width="6.29" stroke-miterlimit="10"/>
<path d="M90.3995 53.6044L53.744 90.2499" stroke="#BF50AE" stroke-width="3.42" stroke-miterlimit="10"/>
<path d="M8.6601 52.6618L6 50.0017L45.9905 10.0013" stroke="white" stroke-width="6.29" stroke-miterlimit="10"/>
<path d="M8.6601 52.6618L6 50.0017L45.9905 10.0013" stroke="#BF50AE" stroke-width="3.42" stroke-miterlimit="10"/>
<path d="M68.6359 87.9313H31.3154L12.0001 68.6358V31.3153L31.3154 12H68.6359L87.9512 31.3153V68.6358L68.6359 87.9313Z" fill="#BF50AE"/>
<path d="M53.7421 90.2507L50.0002 94.0026L8.65979 52.6622" stroke="white" stroke-width="6.29" stroke-miterlimit="10"/>
<path d="M53.7421 90.2507L50.0002 94.0026L8.65979 52.6622" stroke="#BF50AE" stroke-width="3.42" stroke-miterlimit="10"/>
<path d="M45.9896 10L49.9995 6L94 50.0004L90.397 53.6034" stroke="white" stroke-width="6.29" stroke-miterlimit="10"/>
<path d="M45.9896 10L49.9995 6L94 50.0004L90.397 53.6034" stroke="#BF50AE" stroke-width="3.42" stroke-miterlimit="10"/>
<g clip-path="url(#clip0_245_8440)">
<path d="M58.5706 44.4829C58.4574 44.5829 58.3719 44.6709 58.2731 44.7419C58.1387 44.8449 57.971 44.8946 57.8023 44.8814C57.6335 44.8683 57.4755 44.7933 57.3587 44.6709C57.2391 44.5517 57.1658 44.3939 57.1521 44.2256C57.1384 44.0574 57.1852 43.8897 57.284 43.7528C57.3065 43.7145 57.3354 43.6802 57.3695 43.6516C57.8273 43.3468 57.896 42.9047 57.8514 42.3975C57.8189 41.9999 57.8514 41.5976 57.8514 41.1566C57.7418 41.206 57.6635 41.2337 57.5912 41.2771C56.5647 41.8614 55.5431 42.4505 54.513 43.03C54.4366 43.06 54.3724 43.1147 54.3307 43.1855C54.289 43.2562 54.2722 43.3389 54.2829 43.4203C54.3022 43.6528 54.2902 43.889 54.2829 44.1227C54.2733 44.966 53.7155 45.5901 52.8782 45.5997C50.9602 45.6222 49.0419 45.6222 47.1231 45.5997C46.2798 45.5901 45.6642 44.9612 45.7365 44.1251C45.8027 43.3685 45.5353 42.9673 44.8618 42.6517C44.0076 42.2505 43.2149 41.7204 42.3861 41.2626C41.8427 40.9614 41.5066 40.5301 41.5223 39.9013C41.5379 39.2724 41.9102 38.8495 42.4788 38.5688C44.7277 37.458 46.9685 36.3368 49.2013 35.2052C49.4452 35.0706 49.7191 35 49.9977 35C50.2762 35 50.5501 35.0706 50.794 35.2052C53.4709 36.5497 56.1515 37.8881 58.8357 39.2206C58.9838 39.2879 59.1077 39.3991 59.1905 39.5392C59.2732 39.6793 59.3109 39.8414 59.2983 40.0037C59.2887 40.9675 59.2802 41.9216 59.2983 42.8806C59.3225 43.0585 59.3908 43.2275 59.4971 43.3721C59.5881 43.4848 59.688 43.5899 59.7959 43.6866C59.9224 43.8226 59.9918 44.002 59.9895 44.1878C59.9873 44.3735 59.9136 44.5512 59.7838 44.6841C59.5067 44.96 59.1104 44.9636 58.7899 44.6841C58.7236 44.6215 58.6574 44.5588 58.5706 44.4829Z" fill="white"/>
<path d="M54.5456 52.3668C54.5453 50.894 54.729 49.4269 55.0925 47.9996C55.154 47.7478 55.2528 47.6382 55.5335 47.6213C57.8675 47.4382 60.1999 47.2414 62.5307 47.031C63.2113 46.9683 63.6981 47.2286 64.0511 47.7852C64.504 48.496 64.7004 49.2971 64.8185 50.1163C65.1028 52.068 65.0883 54.0089 64.5209 55.9148C64.3937 56.3174 64.2138 56.7014 63.986 57.0569C63.6583 57.5858 63.1595 57.7797 62.527 57.7291C60.185 57.5187 57.8414 57.3207 55.4961 57.1352C55.2552 57.1159 55.1492 57.0376 55.0938 56.8039C54.7316 55.3526 54.5475 53.8626 54.5456 52.3668ZM62.8584 56.1449C63.8583 54.4968 63.7017 49.6393 62.8282 48.6405C61.9283 50.0573 61.9367 54.8438 62.8584 56.1449Z" fill="white"/>
<path d="M45.2148 57.0606C44.4341 57.1292 43.6932 57.1955 42.9511 57.2594C41.1199 57.416 39.2874 57.5642 37.4562 57.7292C37.1788 57.7678 36.8961 57.7262 36.6416 57.6092C36.3871 57.4922 36.1715 57.3047 36.0202 57.069C35.5142 56.3462 35.3142 55.5125 35.1853 54.6595C34.8998 52.7668 34.9178 50.8814 35.4262 49.0237C35.553 48.5861 35.7347 48.1663 35.9672 47.7744C36.3033 47.1901 36.8286 46.966 37.5201 47.0335C39.2826 47.2057 41.0488 47.3419 42.8137 47.4925L45.2232 47.6961C44.4601 50.7706 44.4572 53.9847 45.2148 57.0606ZM37.1587 56.1438C38.1369 54.6451 38.0176 49.5984 37.1358 48.6406C36.2202 50.0489 36.225 54.786 37.1587 56.1438Z" fill="white"/>
<path d="M46.3147 47.7249C48.8844 48.1369 51.4349 48.0863 54.0624 47.6984C53.2778 50.7649 53.2749 53.9793 54.054 57.0472C51.4518 56.7075 48.8941 56.5966 46.3171 57.0472C45.5204 53.9909 45.5195 50.7815 46.3147 47.7249Z" fill="white"/>
<path d="M50.0025 62.5927C49.4555 63.0481 48.9242 63.4878 48.3966 63.9311C48.1556 64.1311 47.9038 64.2323 47.5966 64.1082C47.2894 63.9841 47.1605 63.7191 47.128 63.3974C46.9577 61.6787 46.7862 59.9591 46.6135 58.2387C46.6105 58.1853 46.6105 58.1318 46.6135 58.0785C48.861 57.7195 51.1512 57.7195 53.3987 58.0785C53.3304 58.7917 53.2609 59.5085 53.1902 60.2289C53.0878 61.2494 52.9782 62.2698 52.883 63.2902C52.8505 63.6432 52.7734 63.954 52.4084 64.1034C52.0433 64.2528 51.7891 64.0865 51.5301 63.8625C51.0289 63.442 50.5217 63.0264 50.0025 62.5927Z" fill="white"/>
</g>
<defs>
<clipPath id="clip0_245_8440">
<rect width="30" height="30" fill="white" transform="translate(35 35)"/>
</clipPath>
</defs>
</svg>
