<svg width="100" height="156" viewBox="0 0 100 156" fill="none" xmlns="http://www.w3.org/2000/svg">
<rect width="100" height="156" rx="19" fill="#F9FBFF"/>
<path d="M23.4603 109.34V119H21.7103V109.34H23.4603ZM29.8764 111.958C31.1551 111.958 31.7944 112.588 31.7944 113.848V119H30.1004V114.366C30.1004 113.993 30.0351 113.736 29.9044 113.596C29.7738 113.456 29.5544 113.386 29.2464 113.386C28.9011 113.386 28.5464 113.465 28.1824 113.624C27.8184 113.773 27.3798 113.993 26.8664 114.282L26.7964 113.26C27.3004 112.84 27.8138 112.518 28.3364 112.294C28.8591 112.07 29.3724 111.958 29.8764 111.958ZM26.7404 112.126L26.9084 113.47L27.0484 113.666V119H25.3544V112.126H26.7404ZM37.7832 111.958C38.6326 111.958 39.2439 112.271 39.6172 112.896C39.9906 113.521 40.1772 114.427 40.1772 115.612C40.1772 116.517 40.0792 117.231 39.8832 117.754C39.6966 118.267 39.4119 118.636 39.0292 118.86C38.6466 119.075 38.1612 119.182 37.5732 119.182C37.1066 119.182 36.6492 119.117 36.2012 118.986C35.7626 118.846 35.3566 118.631 34.9832 118.342L35.0952 117.502C35.4592 117.605 35.7859 117.693 36.0752 117.768C36.3646 117.843 36.6819 117.88 37.0272 117.88C37.3726 117.88 37.6432 117.824 37.8392 117.712C38.0446 117.591 38.1939 117.367 38.2872 117.04C38.3806 116.713 38.4272 116.242 38.4272 115.626C38.4272 115.019 38.3852 114.548 38.3012 114.212C38.2172 113.876 38.0772 113.643 37.8812 113.512C37.6946 113.372 37.4472 113.302 37.1392 113.302C36.8032 113.302 36.4859 113.377 36.1872 113.526C35.8886 113.666 35.5432 113.876 35.1512 114.156L34.9552 113.26C35.1699 113.008 35.4266 112.784 35.7252 112.588C36.0332 112.392 36.3646 112.238 36.7192 112.126C37.0739 112.014 37.4286 111.958 37.7832 111.958ZM34.8852 112.126L35.0532 113.456L35.2072 113.652V118.09L35.1372 118.258C35.1652 118.529 35.1839 118.799 35.1932 119.07C35.2026 119.35 35.2072 119.635 35.2072 119.924V121.73H33.5132V112.126H34.8852ZM43.3104 112.126V116.774C43.3011 117.119 43.3664 117.367 43.5064 117.516C43.6557 117.665 43.8937 117.74 44.2204 117.74C44.5471 117.74 44.8737 117.67 45.2004 117.53C45.5271 117.39 45.9237 117.18 46.3904 116.9L46.5584 117.908C46.0357 118.328 45.5317 118.645 45.0464 118.86C44.5611 119.075 44.0571 119.182 43.5344 119.182C42.2557 119.182 41.6164 118.552 41.6164 117.292V112.126H43.3104ZM47.9164 112.126V119H46.5724L46.3904 117.67L46.2224 117.474V112.126H47.9164ZM51.9485 110.166V116.928C51.9485 117.217 52.0092 117.423 52.1305 117.544C52.2612 117.665 52.4805 117.726 52.7885 117.726H53.7405L53.9225 118.916C53.7638 118.963 53.5725 119.005 53.3485 119.042C53.1245 119.079 52.9052 119.103 52.6905 119.112C52.4758 119.131 52.2938 119.14 52.1445 119.14C51.5472 119.14 51.0805 118.981 50.7445 118.664C50.4178 118.337 50.2545 117.871 50.2545 117.264V110.166H51.9485ZM53.9925 112.126V113.302H49.0365V112.196L50.3805 112.126H53.9925ZM61.787 109.34V119H60.037V109.34H61.787ZM64.783 109.34V110.768H57.041V109.34H64.783ZM68.072 111.958C68.6227 111.958 69.0847 112.033 69.458 112.182C69.8407 112.322 70.13 112.565 70.326 112.91C70.522 113.255 70.62 113.731 70.62 114.338V119H69.276L69.038 117.516L68.912 117.32V114.324C68.912 113.96 68.828 113.699 68.66 113.54C68.492 113.372 68.17 113.288 67.694 113.288C67.3394 113.288 66.8914 113.302 66.35 113.33C65.818 113.358 65.2814 113.395 64.74 113.442L64.586 112.28C64.9127 112.215 65.2814 112.159 65.692 112.112C66.1027 112.065 66.518 112.028 66.938 112C67.358 111.972 67.736 111.958 68.072 111.958ZM69.892 114.772L69.878 115.822H66.728C66.448 115.831 66.2474 115.906 66.126 116.046C66.0047 116.186 65.944 116.377 65.944 116.62V116.998C65.944 117.278 66.0187 117.493 66.168 117.642C66.3174 117.782 66.5507 117.852 66.868 117.852C67.12 117.852 67.4 117.801 67.708 117.698C68.016 117.595 68.3194 117.446 68.618 117.25C68.926 117.054 69.2014 116.821 69.444 116.55V117.432C69.3507 117.572 69.2154 117.74 69.038 117.936C68.8607 118.123 68.6414 118.309 68.38 118.496C68.128 118.683 67.834 118.837 67.498 118.958C67.1714 119.079 66.8074 119.14 66.406 119.14C65.9954 119.14 65.6267 119.07 65.3 118.93C64.9734 118.781 64.7167 118.566 64.53 118.286C64.3434 117.997 64.25 117.642 64.25 117.222V116.494C64.25 115.953 64.4274 115.533 64.782 115.234C65.146 114.926 65.6407 114.772 66.266 114.772H69.892ZM75.2337 111.958C76.0084 111.958 76.6197 112.033 77.0677 112.182C77.525 112.322 77.8517 112.555 78.0477 112.882C78.2437 113.199 78.3417 113.619 78.3417 114.142C78.3417 114.646 78.2437 115.061 78.0477 115.388C77.8517 115.705 77.525 115.939 77.0677 116.088C76.6104 116.237 75.9944 116.312 75.2197 116.312C74.445 116.312 73.829 116.237 73.3717 116.088C72.9237 115.939 72.597 115.705 72.3917 115.388C72.1957 115.071 72.0977 114.655 72.0977 114.142C72.0977 113.619 72.1957 113.199 72.3917 112.882C72.597 112.555 72.9284 112.322 73.3857 112.182C73.843 112.033 74.459 111.958 75.2337 111.958ZM75.2197 113.064C74.6317 113.064 74.2257 113.143 74.0017 113.302C73.7777 113.461 73.6657 113.741 73.6657 114.142C73.6657 114.525 73.7777 114.8 74.0017 114.968C74.2257 115.127 74.6317 115.206 75.2197 115.206C75.8077 115.206 76.209 115.127 76.4237 114.968C76.6477 114.8 76.7597 114.525 76.7597 114.142C76.7597 113.741 76.6477 113.461 76.4237 113.302C76.209 113.143 75.8077 113.064 75.2197 113.064ZM79.1397 112.126L79.0417 112.91L77.2497 113.106L76.7457 112.126H79.1397ZM73.2177 115.892L74.0857 116.018C73.9457 116.13 73.8477 116.275 73.7917 116.452C73.745 116.62 73.759 116.783 73.8337 116.942C73.9177 117.091 74.095 117.185 74.3657 117.222L76.9137 117.558C77.6044 117.642 78.0897 117.847 78.3697 118.174C78.6497 118.491 78.7897 118.953 78.7897 119.56C78.7897 120.129 78.6777 120.573 78.4537 120.89C78.2297 121.207 77.861 121.427 77.3477 121.548C76.8437 121.679 76.1624 121.744 75.3037 121.744C74.6224 121.744 74.0577 121.707 73.6097 121.632C73.1617 121.567 72.8024 121.45 72.5317 121.282C72.2704 121.123 72.0837 120.913 71.9717 120.652C71.8597 120.4 71.8037 120.083 71.8037 119.7C71.8037 119.401 71.8504 119.149 71.9437 118.944C72.0464 118.739 72.2097 118.557 72.4337 118.398C72.6577 118.23 72.961 118.076 73.3437 117.936L74.2957 117.53L74.9537 117.768L74.3377 118.202C74.123 118.361 73.9457 118.505 73.8057 118.636C73.675 118.757 73.577 118.879 73.5117 119C73.4557 119.131 73.4277 119.294 73.4277 119.49C73.4277 119.751 73.479 119.952 73.5817 120.092C73.6937 120.232 73.885 120.325 74.1557 120.372C74.4264 120.428 74.8044 120.456 75.2897 120.456C75.7844 120.456 76.167 120.428 76.4377 120.372C76.7084 120.325 76.895 120.232 76.9977 120.092C77.1097 119.961 77.1657 119.77 77.1657 119.518C77.1657 119.313 77.133 119.159 77.0677 119.056C77.0024 118.963 76.8857 118.888 76.7177 118.832C76.5497 118.776 76.3164 118.729 76.0177 118.692L73.7217 118.412C73.395 118.375 73.1337 118.281 72.9377 118.132C72.751 117.973 72.6204 117.787 72.5457 117.572C72.471 117.348 72.4477 117.129 72.4757 116.914C72.513 116.69 72.5924 116.485 72.7137 116.298C72.8444 116.111 73.0124 115.976 73.2177 115.892ZM27.8441 127.34V137H26.0941V127.34H27.8441ZM30.8401 127.34V128.768H23.0981V127.34H30.8401ZM32.0828 130.126L32.3068 131.47L32.4608 131.666V137H30.7668V130.126H32.0828ZM35.4428 129.958L35.2748 131.526H34.7848C34.4208 131.526 34.0522 131.587 33.6788 131.708C33.3055 131.829 32.8388 132.011 32.2788 132.254L32.1668 131.26C32.6522 130.849 33.1468 130.532 33.6508 130.308C34.1548 130.075 34.6402 129.958 35.1068 129.958H35.4428ZM39.8817 129.958C40.4324 129.958 40.8944 130.033 41.2677 130.182C41.6504 130.322 41.9397 130.565 42.1357 130.91C42.3317 131.255 42.4297 131.731 42.4297 132.338V137H41.0857L40.8477 135.516L40.7217 135.32V132.324C40.7217 131.96 40.6377 131.699 40.4697 131.54C40.3017 131.372 39.9797 131.288 39.5037 131.288C39.1491 131.288 38.7011 131.302 38.1597 131.33C37.6277 131.358 37.0911 131.395 36.5497 131.442L36.3957 130.28C36.7224 130.215 37.0911 130.159 37.5017 130.112C37.9124 130.065 38.3277 130.028 38.7477 130C39.1677 129.972 39.5457 129.958 39.8817 129.958ZM41.7017 132.772L41.6877 133.822H38.5377C38.2577 133.831 38.0571 133.906 37.9357 134.046C37.8144 134.186 37.7537 134.377 37.7537 134.62V134.998C37.7537 135.278 37.8284 135.493 37.9777 135.642C38.1271 135.782 38.3604 135.852 38.6777 135.852C38.9297 135.852 39.2097 135.801 39.5177 135.698C39.8257 135.595 40.1291 135.446 40.4277 135.25C40.7357 135.054 41.0111 134.821 41.2537 134.55V135.432C41.1604 135.572 41.0251 135.74 40.8477 135.936C40.6704 136.123 40.4511 136.309 40.1897 136.496C39.9377 136.683 39.6437 136.837 39.3077 136.958C38.9811 137.079 38.6171 137.14 38.2157 137.14C37.8051 137.14 37.4364 137.07 37.1097 136.93C36.7831 136.781 36.5264 136.566 36.3397 136.286C36.1531 135.997 36.0597 135.642 36.0597 135.222V134.494C36.0597 133.953 36.2371 133.533 36.5917 133.234C36.9557 132.926 37.4504 132.772 38.0757 132.772H41.7017ZM48.6534 129.958C49.932 129.958 50.5714 130.588 50.5714 131.848V137H48.8774V132.366C48.8774 131.993 48.812 131.736 48.6814 131.596C48.5507 131.456 48.3314 131.386 48.0234 131.386C47.678 131.386 47.3234 131.465 46.9594 131.624C46.5954 131.773 46.1567 131.993 45.6434 132.282L45.5734 131.26C46.0774 130.84 46.5907 130.518 47.1134 130.294C47.636 130.07 48.1494 129.958 48.6534 129.958ZM45.5174 130.126L45.6854 131.47L45.8254 131.666V137H44.1314V130.126H45.5174ZM54.7682 129.958C55.0855 129.958 55.4262 129.967 55.7902 129.986C56.1635 130.005 56.5275 130.033 56.8822 130.07C57.2369 130.098 57.5542 130.14 57.8342 130.196L57.7222 131.302C57.2742 131.293 56.8262 131.283 56.3782 131.274C55.9395 131.255 55.5055 131.246 55.0762 131.246C54.6935 131.246 54.3902 131.255 54.1662 131.274C53.9515 131.293 53.7975 131.349 53.7042 131.442C53.6202 131.535 53.5782 131.694 53.5782 131.918C53.5782 132.189 53.6529 132.371 53.8022 132.464C53.9515 132.548 54.1942 132.632 54.5302 132.716L56.4062 133.15C56.9662 133.29 57.3815 133.505 57.6522 133.794C57.9229 134.074 58.0582 134.508 58.0582 135.096C58.0582 135.665 57.9509 136.099 57.7362 136.398C57.5309 136.687 57.1995 136.888 56.7422 137C56.2942 137.103 55.7202 137.154 55.0202 137.154C54.7495 137.154 54.3482 137.14 53.8162 137.112C53.2842 137.093 52.7009 137.033 52.0662 136.93L52.1782 135.824C52.3649 135.824 52.5842 135.829 52.8362 135.838C53.0975 135.847 53.3729 135.852 53.6622 135.852C53.9609 135.852 54.2642 135.852 54.5722 135.852C55.0669 135.852 55.4449 135.838 55.7062 135.81C55.9769 135.773 56.1635 135.703 56.2662 135.6C56.3689 135.488 56.4202 135.329 56.4202 135.124C56.4202 134.863 56.3315 134.69 56.1542 134.606C55.9862 134.513 55.7342 134.424 55.3982 134.34L53.5642 133.892C53.1442 133.78 52.8175 133.64 52.5842 133.472C52.3509 133.295 52.1829 133.08 52.0802 132.828C51.9775 132.567 51.9262 132.249 51.9262 131.876C51.9262 131.372 52.0195 130.98 52.2062 130.7C52.4022 130.42 52.7055 130.224 53.1162 130.112C53.5362 130 54.0869 129.949 54.7682 129.958ZM62.181 126.934C62.3397 126.934 62.545 126.939 62.797 126.948C63.0583 126.957 63.3243 126.971 63.595 126.99C63.8657 126.999 64.0943 127.023 64.281 127.06L64.141 128.194H62.783C62.391 128.194 62.1157 128.273 61.957 128.432C61.7983 128.591 61.719 128.857 61.719 129.23V137H60.025V129.02C60.025 128.581 60.095 128.208 60.235 127.9C60.375 127.592 60.6037 127.354 60.921 127.186C61.2383 127.018 61.6583 126.934 62.181 126.934ZM63.763 130.126V131.302H58.807V130.196L60.081 130.126H63.763ZM67.791 129.958C68.9017 129.958 69.6997 130.154 70.185 130.546C70.6704 130.929 70.9177 131.498 70.927 132.254C70.9364 132.879 70.787 133.355 70.479 133.682C70.1804 133.999 69.681 134.158 68.981 134.158H65.061V133.108H68.519C68.8364 133.108 69.037 133.024 69.121 132.856C69.2144 132.688 69.261 132.483 69.261 132.24C69.2517 131.857 69.1397 131.591 68.925 131.442C68.7197 131.293 68.365 131.218 67.861 131.218C67.4224 131.218 67.0817 131.279 66.839 131.4C66.5964 131.521 66.4237 131.741 66.321 132.058C66.2277 132.375 66.181 132.833 66.181 133.43C66.181 134.065 66.2417 134.555 66.363 134.9C66.4844 135.245 66.685 135.483 66.965 135.614C67.245 135.735 67.6184 135.796 68.085 135.796C68.4304 135.796 68.827 135.782 69.275 135.754C69.7324 135.726 70.171 135.689 70.591 135.642L70.759 136.72C70.507 136.823 70.2177 136.907 69.891 136.972C69.5644 137.037 69.2237 137.084 68.869 137.112C68.5237 137.149 68.197 137.168 67.889 137.168C67.049 137.168 66.3724 137.047 65.859 136.804C65.355 136.552 64.9864 136.16 64.753 135.628C64.529 135.096 64.417 134.41 64.417 133.57C64.417 132.665 64.529 131.951 64.753 131.428C64.9864 130.896 65.3504 130.518 65.845 130.294C66.349 130.07 66.9977 129.958 67.791 129.958ZM73.6257 130.126L73.8497 131.47L74.0037 131.666V137H72.3097V130.126H73.6257ZM76.9857 129.958L76.8177 131.526H76.3277C75.9637 131.526 75.595 131.587 75.2217 131.708C74.8483 131.829 74.3817 132.011 73.8217 132.254L73.7097 131.26C74.195 130.849 74.6897 130.532 75.1937 130.308C75.6977 130.075 76.183 129.958 76.6497 129.958H76.9857Z" fill="#333839"/>
<path d="M90.3995 53.6044L53.744 90.2499" stroke="white" stroke-width="6.29" stroke-miterlimit="10"/>
<path d="M90.3995 53.6044L53.744 90.2499" stroke="#CD7EB7" stroke-width="3.42" stroke-miterlimit="10"/>
<path d="M8.6601 52.6618L6 50.0017L45.9905 10.0013" stroke="white" stroke-width="6.29" stroke-miterlimit="10"/>
<path d="M8.6601 52.6618L6 50.0017L45.9905 10.0013" stroke="#CD7EB7" stroke-width="3.42" stroke-miterlimit="10"/>
<path d="M68.6358 87.9313H31.3153L12 68.6358V31.3153L31.3153 12H68.6358L87.9512 31.3153V68.6358L68.6358 87.9313Z" fill="#CD7EB7"/>
<path d="M53.7421 90.2507L50.0002 94.0026L8.65979 52.6622" stroke="white" stroke-width="6.29" stroke-miterlimit="10"/>
<path d="M53.7421 90.2507L50.0002 94.0026L8.65979 52.6622" stroke="#CD7EB7" stroke-width="3.42" stroke-miterlimit="10"/>
<path d="M45.9896 10L49.9996 6L94.0001 50.0004L90.397 53.6034" stroke="white" stroke-width="6.29" stroke-miterlimit="10"/>
<path d="M45.9896 10L49.9996 6L94.0001 50.0004L90.397 53.6034" stroke="#CD7EB7" stroke-width="3.42" stroke-miterlimit="10"/>
<path d="M53.8273 52.8212C55.0024 51.5557 55.5656 50.0823 55.3731 48.3639C55.2384 47.0134 54.5831 45.7684 53.5462 44.8928C51.4744 43.1003 48.4697 43.1383 46.3997 44.929C44.6325 46.4584 43.5297 50 46.1556 52.8348C41.8547 54.4881 39.2197 57.5632 38.239 62.0965C38.182 62.0505 38.1291 61.9997 38.0808 61.9446C37.4019 61.0307 37.0178 60.003 37.0141 58.8712C37.0006 54.442 36.9906 50.0127 37.0141 45.578C37.0304 42.7396 39.4376 40.3596 42.2787 40.3207C43.4963 40.3044 44.7139 40.3207 45.9315 40.3062C46.0164 40.3009 46.0995 40.2784 46.1756 40.2402C46.2517 40.202 46.3193 40.1488 46.3744 40.0839C47.2666 38.9214 48.1389 37.7454 49.0193 36.5739C49.5942 35.8092 50.4123 35.8083 50.9881 36.5739C51.8619 37.7357 52.7327 38.8997 53.6004 40.0658C53.6534 40.1492 53.7278 40.2169 53.8159 40.2616C53.9041 40.3063 54.0026 40.3264 54.1012 40.3198C55.251 40.3071 56.4017 40.3107 57.5515 40.3198C60.5924 40.3324 62.9869 42.7125 62.9932 45.7488C63.0023 50.0666 63.0023 54.3847 62.9932 58.7031C62.9977 59.8155 62.6587 60.9021 62.0224 61.8145C61.9546 61.9148 61.8778 62.0088 61.7729 62.1489C60.7949 57.5795 58.159 54.4899 53.8273 52.8212Z" fill="white"/>
<path d="M50.0037 64.1295C47.5133 64.1295 45.0221 64.1539 42.5327 64.1141C41.8574 64.1033 41.1858 63.9008 40.5133 63.7824C40.3081 63.7462 40.2638 63.6215 40.2819 63.4163C40.6895 58.7267 44.1227 55.12 48.8033 54.4728C53.8978 53.7686 58.8532 57.482 59.6143 62.5756C59.6487 62.8088 59.6487 63.0502 59.7047 63.278C59.7951 63.6215 59.6514 63.7869 59.3332 63.8393C58.714 63.9406 58.0939 64.1105 57.4729 64.1168C54.9853 64.1467 52.4949 64.1295 50.0037 64.1295Z" fill="white"/>
<path d="M50.0046 52.2201C49.144 52.2186 48.3191 51.8764 47.7103 51.2682C47.1014 50.6601 46.7582 49.8355 46.7559 48.9749C46.7573 48.1144 47.0995 47.2894 47.7077 46.6806C48.3159 46.0717 49.1404 45.7286 50.001 45.7262C50.8614 45.7279 51.6861 46.0702 52.2948 46.6784C52.9034 47.2865 53.2464 48.1109 53.2488 48.9713C53.2474 49.8317 52.9053 50.6565 52.2973 51.2654C51.6893 51.8742 50.865 52.2174 50.0046 52.2201Z" fill="white"/>
</svg>
