<svg width="100" height="156" viewBox="0 0 100 156" fill="none" xmlns="http://www.w3.org/2000/svg">
<rect width="100" height="156" rx="19" fill="#F9FBFF"/>
<path d="M15.6087 109.343V119.003H13.8587V109.343H15.6087ZM22.3049 111.961C23.5835 111.961 24.2229 112.591 24.2229 113.851V119.003H22.5289V114.369C22.5289 113.995 22.4635 113.739 22.3329 113.599C22.2022 113.459 21.9829 113.389 21.6749 113.389C21.3295 113.389 20.9749 113.468 20.6109 113.627C20.2469 113.776 19.8082 113.995 19.2949 114.285L19.2249 113.263C19.7289 112.843 20.2422 112.521 20.7649 112.297C21.2875 112.073 21.8009 111.961 22.3049 111.961ZM19.1689 112.129L19.3369 113.473L19.4769 113.669V119.003H17.7829V112.129H19.1689ZM28.4897 110.169V116.931C28.4897 117.22 28.5504 117.425 28.6717 117.547C28.8024 117.668 29.0217 117.729 29.3297 117.729H30.2817L30.4637 118.919C30.305 118.965 30.1137 119.007 29.8897 119.045C29.6657 119.082 29.4464 119.105 29.2317 119.115C29.017 119.133 28.835 119.143 28.6857 119.143C28.0884 119.143 27.6217 118.984 27.2857 118.667C26.959 118.34 26.7957 117.873 26.7957 117.267V110.169H28.4897ZM30.5337 112.129V113.305H25.5777V112.199L26.9217 112.129H30.5337ZM34.9921 111.961C36.1028 111.961 36.9008 112.157 37.3861 112.549C37.8715 112.931 38.1188 113.501 38.1281 114.257C38.1375 114.882 37.9881 115.358 37.6801 115.685C37.3815 116.002 36.8821 116.161 36.1821 116.161H32.2621V115.111H35.7201C36.0375 115.111 36.2381 115.027 36.3221 114.859C36.4155 114.691 36.4621 114.485 36.4621 114.243C36.4528 113.86 36.3408 113.594 36.1261 113.445C35.9208 113.295 35.5661 113.221 35.0621 113.221C34.6235 113.221 34.2828 113.281 34.0401 113.403C33.7975 113.524 33.6248 113.743 33.5221 114.061C33.4288 114.378 33.3821 114.835 33.3821 115.433C33.3821 116.067 33.4428 116.557 33.5641 116.903C33.6855 117.248 33.8861 117.486 34.1661 117.617C34.4461 117.738 34.8195 117.799 35.2861 117.799C35.6315 117.799 36.0281 117.785 36.4761 117.757C36.9335 117.729 37.3721 117.691 37.7921 117.645L37.9601 118.723C37.7081 118.825 37.4188 118.909 37.0921 118.975C36.7655 119.04 36.4248 119.087 36.0701 119.115C35.7248 119.152 35.3981 119.171 35.0901 119.171C34.2501 119.171 33.5735 119.049 33.0601 118.807C32.5561 118.555 32.1875 118.163 31.9541 117.631C31.7301 117.099 31.6181 116.413 31.6181 115.573C31.6181 114.667 31.7301 113.953 31.9541 113.431C32.1875 112.899 32.5515 112.521 33.0461 112.297C33.5501 112.073 34.1988 111.961 34.9921 111.961ZM42.7028 111.961C43.4774 111.961 44.0888 112.035 44.5368 112.185C44.9941 112.325 45.3208 112.558 45.5168 112.885C45.7128 113.202 45.8108 113.622 45.8108 114.145C45.8108 114.649 45.7128 115.064 45.5168 115.391C45.3208 115.708 44.9941 115.941 44.5368 116.091C44.0794 116.24 43.4634 116.315 42.6888 116.315C41.9141 116.315 41.2981 116.24 40.8408 116.091C40.3928 115.941 40.0661 115.708 39.8608 115.391C39.6648 115.073 39.5668 114.658 39.5668 114.145C39.5668 113.622 39.6648 113.202 39.8608 112.885C40.0661 112.558 40.3974 112.325 40.8548 112.185C41.3121 112.035 41.9281 111.961 42.7028 111.961ZM42.6888 113.067C42.1008 113.067 41.6948 113.146 41.4708 113.305C41.2468 113.463 41.1348 113.743 41.1348 114.145C41.1348 114.527 41.2468 114.803 41.4708 114.971C41.6948 115.129 42.1008 115.209 42.6888 115.209C43.2768 115.209 43.6781 115.129 43.8928 114.971C44.1168 114.803 44.2288 114.527 44.2288 114.145C44.2288 113.743 44.1168 113.463 43.8928 113.305C43.6781 113.146 43.2768 113.067 42.6888 113.067ZM46.6088 112.129L46.5108 112.913L44.7188 113.109L44.2148 112.129H46.6088ZM40.6868 115.895L41.5548 116.021C41.4148 116.133 41.3168 116.277 41.2608 116.455C41.2141 116.623 41.2281 116.786 41.3028 116.945C41.3868 117.094 41.5641 117.187 41.8348 117.225L44.3828 117.561C45.0734 117.645 45.5588 117.85 45.8388 118.177C46.1188 118.494 46.2588 118.956 46.2588 119.563C46.2588 120.132 46.1468 120.575 45.9228 120.893C45.6988 121.21 45.3301 121.429 44.8168 121.551C44.3128 121.681 43.6314 121.747 42.7728 121.747C42.0914 121.747 41.5268 121.709 41.0788 121.635C40.6308 121.569 40.2714 121.453 40.0008 121.285C39.7394 121.126 39.5528 120.916 39.4408 120.655C39.3288 120.403 39.2728 120.085 39.2728 119.703C39.2728 119.404 39.3194 119.152 39.4128 118.947C39.5154 118.741 39.6788 118.559 39.9028 118.401C40.1268 118.233 40.4301 118.079 40.8128 117.939L41.7648 117.533L42.4228 117.771L41.8068 118.205C41.5921 118.363 41.4148 118.508 41.2748 118.639C41.1441 118.76 41.0461 118.881 40.9808 119.003C40.9248 119.133 40.8968 119.297 40.8968 119.493C40.8968 119.754 40.9481 119.955 41.0508 120.095C41.1628 120.235 41.3541 120.328 41.6248 120.375C41.8954 120.431 42.2734 120.459 42.7588 120.459C43.2534 120.459 43.6361 120.431 43.9068 120.375C44.1774 120.328 44.3641 120.235 44.4668 120.095C44.5788 119.964 44.6348 119.773 44.6348 119.521C44.6348 119.315 44.6021 119.161 44.5368 119.059C44.4714 118.965 44.3548 118.891 44.1868 118.835C44.0188 118.779 43.7854 118.732 43.4868 118.695L41.1908 118.415C40.8641 118.377 40.6028 118.284 40.4068 118.135C40.2201 117.976 40.0894 117.789 40.0148 117.575C39.9401 117.351 39.9168 117.131 39.9448 116.917C39.9821 116.693 40.0614 116.487 40.1828 116.301C40.3134 116.114 40.4814 115.979 40.6868 115.895ZM49.2448 112.129L49.4688 113.473L49.6228 113.669V119.003H47.9288V112.129H49.2448ZM52.6048 111.961L52.4368 113.529H51.9468C51.5828 113.529 51.2141 113.589 50.8408 113.711C50.4675 113.832 50.0008 114.014 49.4408 114.257L49.3288 113.263C49.8141 112.852 50.3088 112.535 50.8128 112.311C51.3168 112.077 51.8021 111.961 52.2688 111.961H52.6048ZM57.3237 111.961C57.8743 111.961 58.3363 112.035 58.7097 112.185C59.0923 112.325 59.3817 112.567 59.5777 112.913C59.7737 113.258 59.8717 113.734 59.8717 114.341V119.003H58.5277L58.2897 117.519L58.1637 117.323V114.327C58.1637 113.963 58.0797 113.701 57.9117 113.543C57.7437 113.375 57.4217 113.291 56.9457 113.291C56.591 113.291 56.143 113.305 55.6017 113.333C55.0697 113.361 54.533 113.398 53.9917 113.445L53.8377 112.283C54.1643 112.217 54.533 112.161 54.9437 112.115C55.3543 112.068 55.7697 112.031 56.1897 112.003C56.6097 111.975 56.9877 111.961 57.3237 111.961ZM59.1437 114.775L59.1297 115.825H55.9797C55.6997 115.834 55.499 115.909 55.3777 116.049C55.2563 116.189 55.1957 116.38 55.1957 116.623V117.001C55.1957 117.281 55.2703 117.495 55.4197 117.645C55.569 117.785 55.8023 117.855 56.1197 117.855C56.3717 117.855 56.6517 117.803 56.9597 117.701C57.2677 117.598 57.571 117.449 57.8697 117.253C58.1777 117.057 58.453 116.823 58.6957 116.553V117.435C58.6023 117.575 58.467 117.743 58.2897 117.939C58.1123 118.125 57.893 118.312 57.6317 118.499C57.3797 118.685 57.0857 118.839 56.7497 118.961C56.423 119.082 56.059 119.143 55.6577 119.143C55.247 119.143 54.8783 119.073 54.5517 118.933C54.225 118.783 53.9683 118.569 53.7817 118.289C53.595 117.999 53.5017 117.645 53.5017 117.225V116.497C53.5017 115.955 53.679 115.535 54.0337 115.237C54.3977 114.929 54.8923 114.775 55.5177 114.775H59.1437ZM64.1213 110.169V116.931C64.1213 117.22 64.182 117.425 64.3033 117.547C64.434 117.668 64.6533 117.729 64.9613 117.729H65.9133L66.0953 118.919C65.9367 118.965 65.7453 119.007 65.5213 119.045C65.2973 119.082 65.078 119.105 64.8633 119.115C64.6487 119.133 64.4667 119.143 64.3173 119.143C63.72 119.143 63.2533 118.984 62.9173 118.667C62.5907 118.34 62.4273 117.873 62.4273 117.267V110.169H64.1213ZM66.1653 112.129V113.305H61.2093V112.199L62.5533 112.129H66.1653ZM69.2938 112.129V119.003H67.6138V112.129H69.2938ZM68.8318 109.147C69.1678 109.147 69.3358 109.315 69.3358 109.651V110.435C69.3358 110.771 69.1678 110.939 68.8318 110.939H68.0758C67.7398 110.939 67.5718 110.771 67.5718 110.435V109.651C67.5718 109.315 67.7398 109.147 68.0758 109.147H68.8318ZM74.4972 111.961C75.3372 111.961 76.0045 112.077 76.4992 112.311C77.0032 112.544 77.3625 112.927 77.5772 113.459C77.8012 113.991 77.9132 114.695 77.9132 115.573C77.9132 116.45 77.8012 117.155 77.5772 117.687C77.3625 118.209 77.0032 118.592 76.4992 118.835C76.0045 119.068 75.3372 119.185 74.4972 119.185C73.6759 119.185 73.0132 119.068 72.5092 118.835C72.0145 118.592 71.6552 118.209 71.4312 117.687C71.2072 117.155 71.0952 116.45 71.0952 115.573C71.0952 114.695 71.2072 113.991 71.4312 113.459C71.6552 112.927 72.0145 112.544 72.5092 112.311C73.0132 112.077 73.6759 111.961 74.4972 111.961ZM74.4972 113.249C74.0865 113.249 73.7599 113.319 73.5172 113.459C73.2839 113.589 73.1159 113.823 73.0132 114.159C72.9105 114.495 72.8592 114.966 72.8592 115.573C72.8592 116.179 72.9105 116.651 73.0132 116.987C73.1159 117.323 73.2839 117.556 73.5172 117.687C73.7599 117.817 74.0865 117.883 74.4972 117.883C74.9172 117.883 75.2485 117.817 75.4912 117.687C75.7339 117.556 75.9019 117.323 75.9952 116.987C76.0979 116.651 76.1492 116.179 76.1492 115.573C76.1492 114.966 76.0979 114.495 75.9952 114.159C75.9019 113.823 75.7339 113.589 75.4912 113.459C75.2485 113.319 74.9172 113.249 74.4972 113.249ZM84.1723 111.961C85.451 111.961 86.0903 112.591 86.0903 113.851V119.003H84.3963V114.369C84.3963 113.995 84.331 113.739 84.2003 113.599C84.0696 113.459 83.8503 113.389 83.5423 113.389C83.197 113.389 82.8423 113.468 82.4783 113.627C82.1143 113.776 81.6756 113.995 81.1623 114.285L81.0923 113.263C81.5963 112.843 82.1096 112.521 82.6323 112.297C83.155 112.073 83.6683 111.961 84.1723 111.961ZM81.0363 112.129L81.2043 113.473L81.3443 113.669V119.003H79.6503V112.129H81.0363ZM36.7522 127.343C37.1908 127.343 37.4148 127.567 37.4242 128.015L37.8022 137.003H36.1362L35.8002 128.729H35.5342L33.7282 135.211C33.6442 135.593 33.4062 135.785 33.0142 135.785H31.7822C31.3808 135.785 31.1335 135.593 31.0402 135.211L29.2342 128.729H28.9682L28.6602 137.003H26.9942L27.3722 128.015C27.3908 127.567 27.6148 127.343 28.0442 127.343H29.7942C30.1675 127.343 30.4008 127.534 30.4942 127.917L31.9782 133.209C32.0435 133.433 32.0948 133.657 32.1322 133.881C32.1788 134.105 32.2302 134.329 32.2862 134.553H32.4962C32.5522 134.329 32.6035 134.105 32.6502 133.881C32.6968 133.657 32.7482 133.428 32.8042 133.195L34.2882 127.917C34.3722 127.534 34.6102 127.343 35.0022 127.343H36.7522ZM43.254 129.961C43.8046 129.961 44.2666 130.035 44.64 130.185C45.0226 130.325 45.312 130.567 45.508 130.913C45.704 131.258 45.802 131.734 45.802 132.341V137.003H44.458L44.22 135.519L44.094 135.323V132.327C44.094 131.963 44.01 131.701 43.842 131.543C43.674 131.375 43.352 131.291 42.876 131.291C42.5213 131.291 42.0733 131.305 41.532 131.333C41 131.361 40.4633 131.398 39.922 131.445L39.768 130.283C40.0946 130.217 40.4633 130.161 40.874 130.115C41.2846 130.068 41.7 130.031 42.12 130.003C42.54 129.975 42.918 129.961 43.254 129.961ZM45.074 132.775L45.06 133.825H41.91C41.63 133.834 41.4293 133.909 41.308 134.049C41.1866 134.189 41.126 134.38 41.126 134.623V135.001C41.126 135.281 41.2006 135.495 41.35 135.645C41.4993 135.785 41.7326 135.855 42.05 135.855C42.302 135.855 42.582 135.803 42.89 135.701C43.198 135.598 43.5013 135.449 43.8 135.253C44.108 135.057 44.3833 134.823 44.626 134.553V135.435C44.5326 135.575 44.3973 135.743 44.22 135.939C44.0426 136.125 43.8233 136.312 43.562 136.499C43.31 136.685 43.016 136.839 42.68 136.961C42.3533 137.082 41.9893 137.143 41.588 137.143C41.1773 137.143 40.8086 137.073 40.482 136.933C40.1553 136.783 39.8986 136.569 39.712 136.289C39.5253 135.999 39.432 135.645 39.432 135.225V134.497C39.432 133.955 39.6093 133.535 39.964 133.237C40.328 132.929 40.8226 132.775 41.448 132.775H45.074ZM50.2616 129.961C50.5789 129.961 50.9196 129.97 51.2836 129.989C51.6569 130.007 52.0209 130.035 52.3756 130.073C52.7303 130.101 53.0476 130.143 53.3276 130.199L53.2156 131.305C52.7676 131.295 52.3196 131.286 51.8716 131.277C51.4329 131.258 50.9989 131.249 50.5696 131.249C50.1869 131.249 49.8836 131.258 49.6596 131.277C49.4449 131.295 49.2909 131.351 49.1976 131.445C49.1136 131.538 49.0716 131.697 49.0716 131.921C49.0716 132.191 49.1463 132.373 49.2956 132.467C49.4449 132.551 49.6876 132.635 50.0236 132.719L51.8996 133.153C52.4596 133.293 52.8749 133.507 53.1456 133.797C53.4163 134.077 53.5516 134.511 53.5516 135.099C53.5516 135.668 53.4443 136.102 53.2296 136.401C53.0243 136.69 52.6929 136.891 52.2356 137.003C51.7876 137.105 51.2136 137.157 50.5136 137.157C50.2429 137.157 49.8416 137.143 49.3096 137.115C48.7776 137.096 48.1943 137.035 47.5596 136.933L47.6716 135.827C47.8583 135.827 48.0776 135.831 48.3296 135.841C48.5909 135.85 48.8663 135.855 49.1556 135.855C49.4543 135.855 49.7576 135.855 50.0656 135.855C50.5603 135.855 50.9383 135.841 51.1996 135.813C51.4703 135.775 51.6569 135.705 51.7596 135.603C51.8623 135.491 51.9136 135.332 51.9136 135.127C51.9136 134.865 51.8249 134.693 51.6476 134.609C51.4796 134.515 51.2276 134.427 50.8916 134.343L49.0576 133.895C48.6376 133.783 48.3109 133.643 48.0776 133.475C47.8443 133.297 47.6763 133.083 47.5736 132.831C47.4709 132.569 47.4196 132.252 47.4196 131.879C47.4196 131.375 47.5129 130.983 47.6996 130.703C47.8956 130.423 48.1989 130.227 48.6096 130.115C49.0296 130.003 49.5803 129.951 50.2616 129.961ZM57.4924 128.169V134.931C57.4924 135.22 57.5531 135.425 57.6744 135.547C57.8051 135.668 58.0244 135.729 58.3324 135.729H59.2844L59.4664 136.919C59.3077 136.965 59.1164 137.007 58.8924 137.045C58.6684 137.082 58.4491 137.105 58.2344 137.115C58.0197 137.133 57.8377 137.143 57.6884 137.143C57.0911 137.143 56.6244 136.984 56.2884 136.667C55.9617 136.34 55.7984 135.873 55.7984 135.267V128.169H57.4924ZM59.5364 130.129V131.305H54.5804V130.199L55.9244 130.129H59.5364ZM63.9948 129.961C65.1055 129.961 65.9035 130.157 66.3888 130.549C66.8742 130.931 67.1215 131.501 67.1308 132.257C67.1402 132.882 66.9908 133.358 66.6828 133.685C66.3842 134.002 65.8848 134.161 65.1848 134.161H61.2648V133.111H64.7228C65.0402 133.111 65.2408 133.027 65.3248 132.859C65.4182 132.691 65.4648 132.485 65.4648 132.243C65.4555 131.86 65.3435 131.594 65.1288 131.445C64.9235 131.295 64.5688 131.221 64.0648 131.221C63.6262 131.221 63.2855 131.281 63.0428 131.403C62.8002 131.524 62.6275 131.743 62.5248 132.061C62.4315 132.378 62.3848 132.835 62.3848 133.433C62.3848 134.067 62.4455 134.557 62.5668 134.903C62.6882 135.248 62.8888 135.486 63.1688 135.617C63.4488 135.738 63.8222 135.799 64.2888 135.799C64.6342 135.799 65.0308 135.785 65.4788 135.757C65.9362 135.729 66.3748 135.691 66.7948 135.645L66.9628 136.723C66.7108 136.825 66.4215 136.909 66.0948 136.975C65.7682 137.04 65.4275 137.087 65.0728 137.115C64.7275 137.152 64.4008 137.171 64.0928 137.171C63.2528 137.171 62.5762 137.049 62.0628 136.807C61.5588 136.555 61.1902 136.163 60.9568 135.631C60.7328 135.099 60.6208 134.413 60.6208 133.573C60.6208 132.667 60.7328 131.953 60.9568 131.431C61.1902 130.899 61.5542 130.521 62.0488 130.297C62.5528 130.073 63.2015 129.961 63.9948 129.961ZM70.1095 130.129L70.3335 131.473L70.4875 131.669V137.003H68.7935V130.129H70.1095ZM73.4695 129.961L73.3015 131.529H72.8115C72.4475 131.529 72.0788 131.589 71.7055 131.711C71.3321 131.832 70.8655 132.014 70.3055 132.257L70.1935 131.263C70.6788 130.852 71.1735 130.535 71.6775 130.311C72.1815 130.077 72.6668 129.961 73.1335 129.961H73.4695Z" fill="#333839"/>
<path d="M90.3995 53.6044L53.744 90.2499" stroke="white" stroke-width="6.29" stroke-miterlimit="10"/>
<path d="M90.3995 53.6044L53.744 90.2499" stroke="#9D8A46" stroke-width="3.42" stroke-miterlimit="10"/>
<path d="M8.6601 52.6618L6 50.0017L45.9905 10.0013" stroke="white" stroke-width="6.29" stroke-miterlimit="10"/>
<path d="M8.6601 52.6618L6 50.0017L45.9905 10.0013" stroke="#9D8A46" stroke-width="3.42" stroke-miterlimit="10"/>
<path d="M68.6359 87.9313H31.3154L12 68.6358V31.3153L31.3154 12H68.6359L87.9512 31.3153V68.6358L68.6359 87.9313Z" fill="#9D8A46"/>
<path d="M53.7421 90.2507L50.0001 94.0026L8.65977 52.6622" stroke="white" stroke-width="6.29" stroke-miterlimit="10"/>
<path d="M53.7421 90.2507L50.0001 94.0026L8.65977 52.6622" stroke="#9D8A46" stroke-width="3.42" stroke-miterlimit="10"/>
<path d="M45.9896 10L49.9995 6L94 50.0004L90.397 53.6034" stroke="white" stroke-width="6.29" stroke-miterlimit="10"/>
<path d="M45.9896 10L49.9995 6L94 50.0004L90.397 53.6034" stroke="#9D8A46" stroke-width="3.42" stroke-miterlimit="10"/>
<path d="M45.7213 64.1685C45.3504 64.0933 44.981 64.0108 44.6082 63.9475C44.4201 63.9152 44.368 63.8155 44.3574 63.6387C44.3027 62.7579 44.2288 61.8783 44.176 60.9995C44.1404 60.4057 43.8639 59.9524 43.3842 59.6198C42.3088 58.8721 41.2311 58.1296 40.1512 57.3924C39.3595 56.852 38.7445 56.1592 38.4463 55.2467C38.2681 54.701 38.2028 54.1178 38.0966 53.5497C37.735 51.6204 37.3765 49.6907 37.0211 47.7606C37.0104 47.6873 37.0033 47.6135 37 47.5395C37.4777 47.5296 37.861 47.8371 38.0253 48.3729C38.3176 49.3243 38.598 50.2797 38.8831 51.2331C38.9345 51.4053 38.9906 51.5769 39.0394 51.7497C39.0929 51.9351 39.1714 52.1014 39.021 52.3073C38.9015 52.4749 39.0104 52.6636 39.1688 52.8054C39.5798 53.1723 39.9981 53.5312 40.3868 53.9211C40.9423 54.478 41.4774 55.0553 42.0145 55.6307C42.2177 55.8491 42.4143 55.9032 42.6083 55.7587C42.8023 55.6142 42.8148 55.3747 42.6327 55.1325C42.6163 55.1093 42.5982 55.0872 42.5786 55.0666C41.8308 54.3109 41.0842 53.5558 40.3386 52.8015C40.239 52.7012 40.1294 52.6101 39.9935 52.4867C40.4745 52.2228 40.9357 52.2122 41.393 52.4313C41.5867 52.5304 41.7635 52.6596 41.9168 52.814C42.4882 53.3702 43.051 53.9357 43.6106 54.5044C44.0256 54.9392 44.5431 55.2629 45.1156 55.4459C46.897 55.9975 47.9468 57.5877 47.96 59.2866C47.9672 60.2328 48.1183 61.1763 48.1784 62.1238C48.2107 62.6351 48.1817 63.1491 48.1922 63.6618C48.1962 63.8327 48.15 63.9217 47.9705 63.9541C47.6182 64.0201 47.2692 64.0986 46.9195 64.1725L45.7213 64.1685Z" fill="white"/>
<path d="M55.297 64.1685C54.8687 64.0933 54.4392 64.0148 54.011 63.9449C53.85 63.9185 53.7992 63.8406 53.7985 63.6763C53.7886 62.3369 53.8065 61.0002 54.0077 59.6707C54.077 59.2128 54.0559 58.7357 54.1647 58.289C54.4841 56.9833 55.2864 56.0457 56.54 55.5839C57.3919 55.2838 58.1577 54.7803 58.7708 54.1171C59.2142 53.6361 59.6886 53.1822 60.1564 52.7256C60.6526 52.2433 61.315 52.1509 62.048 52.564C61.9537 52.6082 61.8376 52.6299 61.7683 52.6959C60.9805 53.4767 60.1971 54.2621 59.4181 55.0521C59.3716 55.0996 59.3306 55.1523 59.296 55.2091C59.1733 55.407 59.1858 55.5938 59.3666 55.7435C59.5474 55.8933 59.7625 55.8814 59.8997 55.7013C60.7469 54.5882 61.8395 53.7252 62.8457 52.7744C63.0213 52.6082 63.0437 52.4267 62.9289 52.2096C62.8848 52.1216 62.8734 52.0209 62.8965 51.9253C63.2436 50.7433 63.5968 49.563 63.9562 48.3841C64.1192 47.8497 64.484 47.5475 65 47.5264C64.9136 48.006 64.8324 48.4778 64.744 48.9496C64.3745 50.9349 64.0149 52.9229 63.6263 54.9049C63.4356 55.8821 62.8596 56.6389 62.0705 57.2109C60.9726 58.0073 59.8489 58.77 58.724 59.5282C58.1361 59.924 57.8266 60.4393 57.7884 61.1559C57.7435 61.9892 57.6333 62.8192 57.5621 63.6513C57.5462 63.8353 57.4684 63.9152 57.2909 63.9455C56.8521 64.0115 56.4147 64.094 55.9765 64.1692L55.297 64.1685Z" fill="white"/>
<path d="M52.6353 42.655C52.6294 42.752 52.6208 42.8351 52.6208 42.9189C52.6208 44.6377 52.6208 46.3565 52.6162 48.0746C52.6162 48.2574 52.6637 48.3735 52.8214 48.4705C53.0064 48.5856 53.1828 48.7139 53.3492 48.8545C53.5716 49.0379 53.5835 49.257 53.3868 49.4695C53.2133 49.6568 53.0292 49.8343 52.828 50.0375C53.0002 50.1853 53.1744 50.3285 53.3406 50.4803C53.5881 50.7059 53.5841 50.9349 53.336 51.1572C53.3293 51.1641 53.3218 51.17 53.3136 51.175C52.6907 51.4937 52.5218 52.0123 52.603 52.6767C52.6201 52.8226 52.4895 53.0396 52.3615 53.1386C52.0197 53.4078 51.6397 53.6282 51.2794 53.8743C51.0815 54.0062 50.9 54.0062 50.7021 53.871C50.3669 53.6387 50.0304 53.4091 49.6814 53.1953C49.4406 53.0502 49.3601 52.8615 49.3607 52.585C49.3678 49.3951 49.3693 46.2048 49.3653 43.014V42.6596C48.8566 42.6135 48.3671 42.5758 47.8795 42.5231C47.4176 42.4736 46.9557 42.4129 46.4939 42.3495C45.9298 42.2717 45.6592 41.9273 45.7259 41.3631C45.8176 40.5813 45.9192 39.8001 46.0175 39.0189C46.1495 37.983 46.2814 36.9484 46.4048 35.9125C46.4741 35.3424 46.7235 35.0205 47.1636 35C47.372 35.0014 47.5798 35.0235 47.7838 35.066C49.3066 35.3022 50.8314 35.5008 52.376 35.3259C53.082 35.2461 53.786 35.1386 54.4874 35.0323C55.1142 34.938 55.4771 35.188 55.5582 35.8155C55.7027 36.9161 55.8347 38.0186 55.9719 39.1198C56.0597 39.8264 56.1415 40.5331 56.2359 41.2378C56.3309 41.9266 56.1039 42.2697 55.4078 42.3594C54.5613 42.4683 53.7095 42.5396 52.8603 42.6273C52.795 42.6359 52.7218 42.6451 52.6353 42.655ZM48.8368 37.1127C48.3169 37.0889 48.1711 37.1892 48.1262 37.5244C48.0741 37.9091 48.0378 38.2964 47.9864 38.6817C47.9481 38.9634 48.0589 39.129 48.3321 39.2095C49.1476 39.4576 49.9585 39.7196 50.7734 39.9637C50.9087 40.0072 51.0535 40.0125 51.1917 39.9789C52.0263 39.7295 52.8564 39.4636 53.6877 39.2029C53.945 39.1224 54.046 38.9502 54.007 38.681C53.9562 38.3247 53.9153 37.9665 53.8751 37.6089C53.8282 37.1905 53.7075 37.0711 53.2852 37.1081C51.7578 37.238 50.233 37.2585 48.8368 37.1094V37.1127Z" fill="white"/>
<path d="M40.3439 51.5088L39.8431 51.6573C39.5759 50.7679 39.3106 49.887 39.0434 48.9983C39.3911 49.0154 39.6372 49.1804 39.7369 49.4879C39.9421 50.1483 40.1341 50.8121 40.3439 51.5088Z" fill="white"/>
<path d="M62.1543 51.6573L61.6555 51.5201C61.7003 51.3591 61.7399 51.208 61.7841 51.0582C61.9359 50.5502 62.0881 50.0426 62.2407 49.5354C62.341 49.1995 62.5884 49.0458 62.9605 48.9574C62.6867 49.8758 62.4254 50.7474 62.1543 51.6573Z" fill="white"/>
<path d="M61.158 50.3727C61.0478 50.7435 60.96 51.0727 60.8466 51.3901C60.8169 51.4712 60.6928 51.528 60.6011 51.5742C60.4969 51.6187 60.3897 51.6562 60.2804 51.6863C60.2402 51.1763 60.5971 50.6214 61.158 50.3727Z" fill="white"/>
<path d="M40.8275 50.3523C41.4424 50.6446 41.6516 51.1144 41.746 51.6719C41.3197 51.6501 41.0749 51.4621 41.0202 51.0345C40.9944 50.8214 40.9054 50.6189 40.8275 50.3523Z" fill="white"/>
<path d="M53.1143 37.9612C53.1368 38.1255 53.1618 38.3102 53.1915 38.5247C52.4697 38.751 51.7584 38.976 51.0459 39.1963C50.9995 39.2051 50.9515 39.201 50.9073 39.1845C50.2112 38.9674 49.5164 38.7483 48.8025 38.5247C48.8263 38.3267 48.8481 38.1433 48.8685 37.9618L53.1143 37.9612Z" fill="white"/>
</svg>
