<svg width="100" height="156" viewBox="0 0 100 156" fill="none" xmlns="http://www.w3.org/2000/svg">
<rect width="100" height="156" rx="19" fill="#F9FBFF"/>
<path d="M34.6997 109.343V117.043C34.6997 117.733 34.5177 118.256 34.1537 118.611C33.799 118.965 33.2903 119.143 32.6277 119.143C32.4877 119.143 32.315 119.133 32.1097 119.115C31.9043 119.105 31.7083 119.082 31.5217 119.045C31.335 119.007 31.181 118.965 31.0597 118.919L31.2557 117.743H31.9417C32.623 117.743 32.9637 117.444 32.9637 116.847V109.343H34.6997ZM40.1793 111.961C41.2899 111.961 42.0879 112.157 42.5733 112.549C43.0586 112.931 43.3059 113.501 43.3153 114.257C43.3246 114.882 43.1753 115.358 42.8673 115.685C42.5686 116.002 42.0693 116.161 41.3693 116.161H37.4493V115.111H40.9073C41.2246 115.111 41.4253 115.027 41.5093 114.859C41.6026 114.691 41.6493 114.485 41.6493 114.243C41.6399 113.86 41.5279 113.594 41.3133 113.445C41.1079 113.295 40.7533 113.221 40.2493 113.221C39.8106 113.221 39.4699 113.281 39.2273 113.403C38.9846 113.524 38.8119 113.743 38.7093 114.061C38.6159 114.378 38.5693 114.835 38.5693 115.433C38.5693 116.067 38.6299 116.557 38.7513 116.903C38.8726 117.248 39.0733 117.486 39.3533 117.617C39.6333 117.738 40.0066 117.799 40.4733 117.799C40.8186 117.799 41.2153 117.785 41.6633 117.757C42.1206 117.729 42.5593 117.691 42.9793 117.645L43.1473 118.723C42.8953 118.825 42.6059 118.909 42.2793 118.975C41.9526 119.04 41.6119 119.087 41.2573 119.115C40.9119 119.152 40.5853 119.171 40.2773 119.171C39.4373 119.171 38.7606 119.049 38.2473 118.807C37.7433 118.555 37.3746 118.163 37.1413 117.631C36.9173 117.099 36.8053 116.413 36.8053 115.573C36.8053 114.667 36.9173 113.953 37.1413 113.431C37.3746 112.899 37.7386 112.521 38.2333 112.297C38.7373 112.073 39.3859 111.961 40.1793 111.961ZM55.7582 112.129L53.9382 118.555C53.9009 118.685 53.8262 118.793 53.7142 118.877C53.6022 118.961 53.4715 119.003 53.3222 119.003H51.9642C51.8149 119.003 51.6795 118.956 51.5582 118.863C51.4369 118.769 51.3669 118.643 51.3482 118.485L50.4382 114.271C50.4009 114.084 50.3682 113.897 50.3402 113.711C50.3215 113.524 50.2935 113.337 50.2562 113.151H50.0742C50.0462 113.337 50.0135 113.524 49.9762 113.711C49.9482 113.897 49.9155 114.084 49.8782 114.271L48.9822 118.485C48.9542 118.643 48.8795 118.769 48.7582 118.863C48.6462 118.956 48.5109 119.003 48.3522 119.003H47.0082C46.8589 119.003 46.7282 118.961 46.6162 118.877C46.5042 118.793 46.4342 118.685 46.4062 118.555L44.5722 112.129H46.2942L47.4422 116.847C47.4795 117.024 47.5122 117.206 47.5402 117.393C47.5775 117.57 47.6102 117.747 47.6382 117.925H47.8062C47.8529 117.747 47.8902 117.57 47.9182 117.393C47.9555 117.206 47.9929 117.024 48.0302 116.847L48.9402 112.647C48.9682 112.497 49.0335 112.376 49.1362 112.283C49.2482 112.18 49.3882 112.129 49.5562 112.129H50.7882C50.9375 112.129 51.0682 112.18 51.1802 112.283C51.2922 112.376 51.3622 112.502 51.3902 112.661L52.3002 116.847C52.3282 117.024 52.3609 117.201 52.3982 117.379C52.4449 117.556 52.4822 117.738 52.5102 117.925H52.6782C52.7155 117.738 52.7482 117.561 52.7762 117.393C52.8042 117.215 52.8415 117.033 52.8882 116.847L54.0362 112.129H55.7582ZM60.4196 111.961C61.5303 111.961 62.3283 112.157 62.8136 112.549C63.299 112.931 63.5463 113.501 63.5556 114.257C63.565 114.882 63.4156 115.358 63.1076 115.685C62.809 116.002 62.3096 116.161 61.6096 116.161H57.6896V115.111H61.1476C61.465 115.111 61.6656 115.027 61.7496 114.859C61.843 114.691 61.8896 114.485 61.8896 114.243C61.8803 113.86 61.7683 113.594 61.5536 113.445C61.3483 113.295 60.9936 113.221 60.4896 113.221C60.051 113.221 59.7103 113.281 59.4676 113.403C59.225 113.524 59.0523 113.743 58.9496 114.061C58.8563 114.378 58.8096 114.835 58.8096 115.433C58.8096 116.067 58.8703 116.557 58.9916 116.903C59.113 117.248 59.3136 117.486 59.5936 117.617C59.8736 117.738 60.247 117.799 60.7136 117.799C61.059 117.799 61.4556 117.785 61.9036 117.757C62.361 117.729 62.7996 117.691 63.2196 117.645L63.3876 118.723C63.1356 118.825 62.8463 118.909 62.5196 118.975C62.193 119.04 61.8523 119.087 61.4976 119.115C61.1523 119.152 60.8256 119.171 60.5176 119.171C59.6776 119.171 59.001 119.049 58.4876 118.807C57.9836 118.555 57.615 118.163 57.3816 117.631C57.1576 117.099 57.0456 116.413 57.0456 115.573C57.0456 114.667 57.1576 113.953 57.3816 113.431C57.615 112.899 57.979 112.521 58.4736 112.297C58.9776 112.073 59.6263 111.961 60.4196 111.961ZM67.2063 109.203L67.1923 116.931C67.1923 117.192 67.2669 117.393 67.4163 117.533C67.5656 117.663 67.7803 117.729 68.0603 117.729H68.6623L68.8583 118.919C68.7556 118.965 68.6109 119.007 68.4243 119.045C68.2469 119.082 68.0603 119.105 67.8643 119.115C67.6776 119.133 67.5143 119.143 67.3743 119.143C66.8049 119.143 66.3523 118.989 66.0163 118.681C65.6803 118.373 65.5123 117.929 65.5123 117.351V109.203H67.2063ZM28.1224 129.961C28.9717 129.961 29.583 130.273 29.9564 130.899C30.3297 131.524 30.5164 132.429 30.5164 133.615C30.5164 134.52 30.4184 135.234 30.2224 135.757C30.0357 136.27 29.751 136.639 29.3684 136.863C28.9857 137.077 28.5004 137.185 27.9124 137.185C27.4457 137.185 26.9884 137.119 26.5404 136.989C26.1017 136.849 25.6957 136.634 25.3224 136.345L25.4344 135.505C25.7984 135.607 26.125 135.696 26.4144 135.771C26.7037 135.845 27.021 135.883 27.3664 135.883C27.7117 135.883 27.9824 135.827 28.1784 135.715C28.3837 135.593 28.533 135.369 28.6264 135.043C28.7197 134.716 28.7664 134.245 28.7664 133.629C28.7664 133.022 28.7244 132.551 28.6404 132.215C28.5564 131.879 28.4164 131.645 28.2204 131.515C28.0337 131.375 27.7864 131.305 27.4784 131.305C27.1424 131.305 26.825 131.379 26.5264 131.529C26.2277 131.669 25.8824 131.879 25.4904 132.159L25.2944 131.263C25.509 131.011 25.7657 130.787 26.0644 130.591C26.3724 130.395 26.7037 130.241 27.0584 130.129C27.413 130.017 27.7677 129.961 28.1224 129.961ZM25.2244 130.129L25.3924 131.459L25.5464 131.655V136.093L25.4764 136.261C25.5044 136.531 25.523 136.802 25.5324 137.073C25.5417 137.353 25.5464 137.637 25.5464 137.927V139.733H23.8524V130.129H25.2244ZM33.8735 130.129L34.0975 131.473L34.2515 131.669V137.003H32.5575V130.129H33.8735ZM37.2335 129.961L37.0655 131.529H36.5755C36.2115 131.529 35.8428 131.589 35.4695 131.711C35.0962 131.832 34.6295 132.014 34.0695 132.257L33.9575 131.263C34.4428 130.852 34.9375 130.535 35.4415 130.311C35.9455 130.077 36.4308 129.961 36.8975 129.961H37.2335ZM41.773 129.961C42.613 129.961 43.2803 130.077 43.775 130.311C44.279 130.544 44.6383 130.927 44.853 131.459C45.077 131.991 45.189 132.695 45.189 133.573C45.189 134.45 45.077 135.155 44.853 135.687C44.6383 136.209 44.279 136.592 43.775 136.835C43.2803 137.068 42.613 137.185 41.773 137.185C40.9517 137.185 40.289 137.068 39.785 136.835C39.2903 136.592 38.931 136.209 38.707 135.687C38.483 135.155 38.371 134.45 38.371 133.573C38.371 132.695 38.483 131.991 38.707 131.459C38.931 130.927 39.2903 130.544 39.785 130.311C40.289 130.077 40.9517 129.961 41.773 129.961ZM41.773 131.249C41.3623 131.249 41.0357 131.319 40.793 131.459C40.5597 131.589 40.3917 131.823 40.289 132.159C40.1863 132.495 40.135 132.966 40.135 133.573C40.135 134.179 40.1863 134.651 40.289 134.987C40.3917 135.323 40.5597 135.556 40.793 135.687C41.0357 135.817 41.3623 135.883 41.773 135.883C42.193 135.883 42.5243 135.817 42.767 135.687C43.0097 135.556 43.1777 135.323 43.271 134.987C43.3737 134.651 43.425 134.179 43.425 133.573C43.425 132.966 43.3737 132.495 43.271 132.159C43.1777 131.823 43.0097 131.589 42.767 131.459C42.5243 131.319 42.193 131.249 41.773 131.249ZM49.5301 129.961C49.9968 129.961 50.4541 130.026 50.9021 130.157C51.3501 130.278 51.7561 130.483 52.1201 130.773L52.0081 131.627C51.6441 131.524 51.3174 131.435 51.0281 131.361C50.7388 131.286 50.4168 131.249 50.0621 131.249C49.7261 131.249 49.4554 131.309 49.2501 131.431C49.0541 131.543 48.9048 131.762 48.8021 132.089C48.7088 132.415 48.6621 132.891 48.6621 133.517C48.6621 134.114 48.7088 134.576 48.8021 134.903C48.8954 135.22 49.0401 135.444 49.2361 135.575C49.4321 135.696 49.6888 135.757 50.0061 135.757C50.2581 135.757 50.4821 135.729 50.6781 135.673C50.8741 135.607 51.0748 135.514 51.2801 135.393C51.4854 135.262 51.7234 135.099 51.9941 134.903L52.1341 135.855C51.8168 136.219 51.4248 136.531 50.9581 136.793C50.5008 137.045 49.9688 137.171 49.3621 137.171C48.4848 137.171 47.8594 136.863 47.4861 136.247C47.1128 135.621 46.9261 134.716 46.9261 133.531C46.9261 132.625 47.0194 131.916 47.2061 131.403C47.4021 130.88 47.6914 130.511 48.0741 130.297C48.4661 130.073 48.9514 129.961 49.5301 129.961ZM53.5061 127.203V137.003H52.1761L51.9941 135.771L51.8121 135.631V131.039L51.8961 130.843C51.8588 130.572 51.8354 130.301 51.8261 130.031C51.8168 129.751 51.8121 129.466 51.8121 129.177V127.203H53.5061ZM57.4949 130.129V134.777C57.4856 135.122 57.5509 135.369 57.6909 135.519C57.8402 135.668 58.0782 135.743 58.4049 135.743C58.7316 135.743 59.0582 135.673 59.3849 135.533C59.7116 135.393 60.1082 135.183 60.5749 134.903L60.7429 135.911C60.2202 136.331 59.7162 136.648 59.2309 136.863C58.7456 137.077 58.2416 137.185 57.7189 137.185C56.4402 137.185 55.8009 136.555 55.8009 135.295V130.129H57.4949ZM62.1009 130.129V137.003H60.7569L60.5749 135.673L60.4069 135.477V130.129H62.1009ZM67.505 129.961C67.7383 129.961 67.995 129.97 68.275 129.989C68.555 130.007 68.8397 130.045 69.129 130.101C69.4183 130.157 69.6797 130.236 69.913 130.339L69.717 131.403C69.3717 131.384 69.0263 131.37 68.681 131.361C68.345 131.351 68.051 131.347 67.799 131.347C67.323 131.347 66.945 131.412 66.665 131.543C66.3943 131.664 66.1983 131.888 66.077 132.215C65.9557 132.532 65.895 132.98 65.895 133.559C65.895 134.137 65.9557 134.59 66.077 134.917C66.1983 135.234 66.3943 135.458 66.665 135.589C66.945 135.719 67.323 135.785 67.799 135.785C67.939 135.785 68.121 135.78 68.345 135.771C68.5783 135.761 68.8257 135.747 69.087 135.729C69.3577 135.71 69.619 135.687 69.871 135.659L70.039 136.751C69.675 136.9 69.269 137.007 68.821 137.073C68.373 137.138 67.9297 137.171 67.491 137.171C66.6697 137.171 66.0117 137.054 65.517 136.821C65.0223 136.587 64.663 136.209 64.439 135.687C64.2243 135.155 64.117 134.445 64.117 133.559C64.117 132.672 64.229 131.967 64.453 131.445C64.677 130.913 65.0363 130.535 65.531 130.311C66.0257 130.077 66.6837 129.961 67.505 129.961ZM74.113 128.169V134.931C74.113 135.22 74.1737 135.425 74.295 135.547C74.4257 135.668 74.645 135.729 74.953 135.729H75.905L76.087 136.919C75.9283 136.965 75.737 137.007 75.513 137.045C75.289 137.082 75.0697 137.105 74.855 137.115C74.6403 137.133 74.4583 137.143 74.309 137.143C73.7117 137.143 73.245 136.984 72.909 136.667C72.5823 136.34 72.419 135.873 72.419 135.267V128.169H74.113ZM76.157 130.129V131.305H71.201V130.199L72.545 130.129H76.157Z" fill="#333839"/>
<path d="M90.3995 53.6044L53.744 90.2499" stroke="white" stroke-width="6.29" stroke-miterlimit="10"/>
<path d="M90.3995 53.6044L53.744 90.2499" stroke="#5577AB" stroke-width="3.42" stroke-miterlimit="10"/>
<path d="M8.6601 52.6618L6 50.0017L45.9905 10.0013" stroke="white" stroke-width="6.29" stroke-miterlimit="10"/>
<path d="M8.6601 52.6618L6 50.0017L45.9905 10.0013" stroke="#5577AB" stroke-width="3.42" stroke-miterlimit="10"/>
<path d="M68.6359 87.9313H31.3154L12 68.6358V31.3153L31.3154 12H68.6359L87.9512 31.3153V68.6358L68.6359 87.9313Z" fill="#5577AB"/>
<path d="M53.7421 90.2507L50.0001 94.0026L8.65976 52.6622" stroke="white" stroke-width="6.29" stroke-miterlimit="10"/>
<path d="M53.7421 90.2507L50.0001 94.0026L8.65976 52.6622" stroke="#5577AB" stroke-width="3.42" stroke-miterlimit="10"/>
<path d="M45.9896 10L49.9995 6L94 50.0004L90.397 53.6034" stroke="white" stroke-width="6.29" stroke-miterlimit="10"/>
<path d="M45.9896 10L49.9995 6L94 50.0004L90.397 53.6034" stroke="#5577AB" stroke-width="3.42" stroke-miterlimit="10"/>
<path d="M52.1828 43.3878C53.3672 42.2603 54.5232 41.1619 55.6842 40.0544C54.8868 39.0581 54.1086 38.081 53.3204 37.1105C53.2469 37.0432 53.1501 37.0069 53.0504 37.0094C51.0165 37.0033 48.9826 37.0033 46.9487 37.0094C46.8392 37.0111 46.7349 37.0562 46.6586 37.1348C45.8763 38.0969 45.1039 39.0664 44.3182 40.0536L47.813 43.382C47.619 43.4706 47.451 43.5433 47.2855 43.6227C45.3057 44.5789 44.0847 46.1322 43.6228 48.2826C43.586 48.4548 43.5334 48.5275 43.3445 48.5259C42.5328 48.5158 41.7204 48.5208 40.867 48.5208C40.826 47.9199 40.7834 47.3206 40.7433 46.7212C40.5611 43.9122 40.3791 41.1029 40.1975 38.2933C40.1724 37.9079 40.1398 37.5235 40.1247 37.1381C40.0763 35.9387 40.9606 35.0067 42.1617 35.0042C44.8526 34.9986 47.5433 34.9986 50.2336 35.0042C52.7261 35.0042 55.2187 35.0042 57.7112 35.0042C59.1129 35.0033 59.9705 35.9562 59.8652 37.3521C59.7097 39.4735 59.5852 41.5974 59.4473 43.7197C59.3445 45.3078 59.2416 46.9018 59.1363 48.5217H56.9715C56.4457 48.5217 56.4524 48.5217 56.3203 48.0126C55.7631 45.8862 54.4767 44.385 52.4612 43.509L52.1828 43.3878Z" fill="white"/>
<path d="M52.9702 63.2687L53.6732 62.5649C52.8596 61.753 52.0488 60.945 51.2408 60.1409L51.2843 60.0682H61.9942V64.5292H38V60.0607H48.6823L46.2583 62.4679L47.0423 63.1709L49.9536 60.2454L52.9702 63.2687Z" fill="white"/>
<path d="M61.9883 53.5142H38.0134C38.0527 53.4181 38.0819 53.332 38.122 53.2518C38.54 52.4159 38.9579 51.575 39.3758 50.7358C39.7829 49.915 40.4399 49.5205 41.356 49.5205C47.1128 49.525 52.8694 49.525 58.6256 49.5205C59.5551 49.5205 60.2138 49.9209 60.6317 50.7534C61.0496 51.5859 61.4592 52.4117 61.8729 53.2409C61.9131 53.322 61.944 53.4081 61.9883 53.5142Z" fill="white"/>
<path d="M62 54.5516V59.021H54.1697C54.5358 58.6331 54.8024 58.2219 54.8902 57.7145C54.9931 57.1607 54.886 56.5884 54.5897 56.1093C54.2934 55.6302 53.8293 55.2787 53.2878 55.1234C52.7513 54.9689 52.1765 55.0188 51.6745 55.2635C51.1726 55.5082 50.7793 55.9303 50.5705 56.4482C50.3724 56.9355 50.2094 57.4379 49.9987 58.023C49.8107 57.4939 49.656 57.0483 49.4972 56.602C49.1503 55.655 48.3488 55.0423 47.4076 55.0339C46.4422 55.0247 45.7141 55.4519 45.2954 56.3237C44.8766 57.1955 45.0145 58.0255 45.6197 58.7769C45.6774 58.8488 45.7426 58.9157 45.8286 59.0126H38.0109V54.5516H62Z" fill="white"/>
<path d="M55.38 48.5092H44.6334C44.6192 46.4195 47.2312 44.1184 49.7246 44.0198C52.9753 43.8919 55.0841 46.371 55.38 48.5092Z" fill="white"/>
<path d="M46.3043 40.52H53.6999C53.6595 40.5787 53.6151 40.6345 53.567 40.6872C52.783 41.4344 52.0006 42.185 51.2057 42.9214C51.0898 43.0133 50.9466 43.0642 50.7987 43.066C50.2595 43.0828 49.7196 43.0794 49.1796 43.066C49.0603 43.0712 48.9427 43.0365 48.8453 42.9674C48.0144 42.1926 47.1936 41.4069 46.3711 40.627C46.3456 40.5934 46.3233 40.5576 46.3043 40.52Z" fill="white"/>
<path d="M53.9515 39.4927H46.051C46.4472 38.9962 46.8108 38.5332 47.1877 38.081C47.2345 38.025 47.3549 38.0091 47.4385 38.0091C49.147 38.0046 50.8549 38.0046 52.5623 38.0091C52.6806 38.0152 52.792 38.0667 52.8732 38.1528C53.2302 38.5775 53.5678 39.0155 53.9515 39.4927Z" fill="white"/>
<path d="M49.2423 58.9023C48.4791 58.7736 47.7912 58.6674 47.1083 58.5395C46.8127 58.4902 46.5446 58.3366 46.3524 58.1066C46.1603 57.8766 46.0569 57.5854 46.061 57.2857C46.0658 56.9919 46.1715 56.7087 46.3604 56.4837C46.5493 56.2586 46.8098 56.1053 47.0983 56.0495C47.3873 55.9939 47.6867 56.0421 47.9436 56.1857C48.2006 56.3293 48.3985 56.559 48.5025 56.8344C48.7591 57.4997 48.984 58.1768 49.2423 58.9023Z" fill="white"/>
<path d="M50.7443 58.9088C51.0369 58.1173 51.2726 57.375 51.586 56.6679C51.8167 56.1472 52.4394 55.934 52.9961 56.0886C53.2639 56.1631 53.5 56.3229 53.6687 56.5437C53.8373 56.7646 53.9293 57.0344 53.9306 57.3123C53.9317 57.5962 53.8352 57.8718 53.6573 58.0931C53.4794 58.3143 53.231 58.4677 52.9535 58.5277C52.2514 58.6664 51.5426 58.7726 50.7443 58.9088Z" fill="white"/>
</svg>
