<svg width="98" height="150" viewBox="0 0 98 150" fill="none" xmlns="http://www.w3.org/2000/svg">
<path d="M22.6575 108.565V115.985C22.6575 116.256 22.7275 116.461 22.8675 116.601C23.0169 116.732 23.2269 116.797 23.4975 116.797H26.9135L26.9975 118.127C26.3629 118.183 25.7002 118.216 25.0095 118.225C24.3282 118.244 23.6515 118.253 22.9795 118.253C22.2702 118.253 21.7475 118.071 21.4115 117.707C21.0849 117.343 20.9215 116.881 20.9215 116.321V108.565H22.6575ZM31.147 111.183C31.987 111.183 32.6543 111.3 33.149 111.533C33.653 111.766 34.0123 112.149 34.227 112.681C34.451 113.213 34.563 113.918 34.563 114.795C34.563 115.672 34.451 116.377 34.227 116.909C34.0123 117.432 33.653 117.814 33.149 118.057C32.6543 118.29 31.987 118.407 31.147 118.407C30.3257 118.407 29.663 118.29 29.159 118.057C28.6643 117.814 28.305 117.432 28.081 116.909C27.857 116.377 27.745 115.672 27.745 114.795C27.745 113.918 27.857 113.213 28.081 112.681C28.305 112.149 28.6643 111.766 29.159 111.533C29.663 111.3 30.3257 111.183 31.147 111.183ZM31.147 112.471C30.7363 112.471 30.4097 112.541 30.167 112.681C29.9337 112.812 29.7657 113.045 29.663 113.381C29.5603 113.717 29.509 114.188 29.509 114.795C29.509 115.402 29.5603 115.873 29.663 116.209C29.7657 116.545 29.9337 116.778 30.167 116.909C30.4097 117.04 30.7363 117.105 31.147 117.105C31.567 117.105 31.8983 117.04 32.141 116.909C32.3837 116.778 32.5517 116.545 32.645 116.209C32.7477 115.873 32.799 115.402 32.799 114.795C32.799 114.188 32.7477 113.717 32.645 113.381C32.5517 113.045 32.3837 112.812 32.141 112.681C31.8983 112.541 31.567 112.471 31.147 112.471ZM38.2607 109.391V116.153C38.2607 116.442 38.3214 116.648 38.4427 116.769C38.5734 116.89 38.7927 116.951 39.1007 116.951H40.0527L40.2347 118.141C40.0761 118.188 39.8847 118.23 39.6607 118.267C39.4367 118.304 39.2174 118.328 39.0027 118.337C38.7881 118.356 38.6061 118.365 38.4567 118.365C37.8594 118.365 37.3927 118.206 37.0567 117.889C36.7301 117.562 36.5667 117.096 36.5667 116.489V109.391H38.2607ZM40.3047 111.351V112.527H35.3487V111.421L36.6927 111.351H40.3047ZM48.4977 114.095V115.243H44.2837V114.095H48.4977ZM56.8901 108.439C57.6181 108.439 58.2341 108.523 58.7381 108.691C59.2515 108.85 59.6622 109.12 59.9702 109.503C60.2875 109.876 60.5161 110.385 60.6561 111.029C60.7962 111.664 60.8662 112.452 60.8662 113.395C60.8662 114.338 60.7962 115.131 60.6561 115.775C60.5161 116.41 60.2875 116.918 59.9702 117.301C59.6622 117.674 59.2515 117.945 58.7381 118.113C58.2341 118.272 57.6181 118.351 56.8901 118.351C56.1901 118.351 55.5415 118.337 54.9441 118.309C54.3468 118.29 53.7821 118.262 53.2501 118.225L53.9781 116.881C54.3515 116.9 54.7808 116.918 55.2661 116.937C55.7515 116.946 56.2928 116.951 56.8901 116.951C57.4315 116.951 57.8561 116.848 58.1642 116.643C58.4815 116.428 58.7055 116.064 58.8361 115.551C58.9668 115.028 59.0321 114.31 59.0321 113.395C59.0321 112.48 58.9668 111.766 58.8361 111.253C58.7055 110.73 58.4815 110.362 58.1642 110.147C57.8561 109.932 57.4315 109.825 56.8901 109.825C56.3115 109.825 55.7935 109.83 55.3361 109.839C54.8881 109.848 54.4495 109.853 54.0201 109.853L53.2501 108.565C53.7821 108.528 54.3421 108.5 54.9301 108.481C55.5275 108.453 56.1808 108.439 56.8901 108.439ZM55.0001 108.565V118.225H53.2501V108.565H55.0001ZM66.0994 108.439C66.9487 108.439 67.6161 108.532 68.1014 108.719C68.5867 108.896 68.9321 109.209 69.1374 109.657C69.3521 110.096 69.4594 110.721 69.4594 111.533C69.4594 112.345 69.3567 112.975 69.1514 113.423C68.9554 113.871 68.6241 114.184 68.1574 114.361C67.7001 114.538 67.0887 114.627 66.3234 114.627C65.9034 114.627 65.4974 114.613 65.1054 114.585C64.7227 114.557 64.3634 114.52 64.0274 114.473C63.7007 114.426 63.4207 114.38 63.1874 114.333C62.9541 114.277 62.7907 114.23 62.6974 114.193L62.7394 113.255C63.2714 113.255 63.8174 113.255 64.3774 113.255C64.9467 113.255 65.5114 113.255 66.0714 113.255C66.4821 113.246 66.8041 113.194 67.0374 113.101C67.2801 113.008 67.4481 112.84 67.5414 112.597C67.6441 112.345 67.6954 111.99 67.6954 111.533C67.6954 111.076 67.6441 110.726 67.5414 110.483C67.4481 110.231 67.2801 110.058 67.0374 109.965C66.8041 109.862 66.4821 109.811 66.0714 109.811C65.2501 109.811 64.5454 109.816 63.9574 109.825C63.3694 109.834 62.9681 109.848 62.7534 109.867L62.5574 108.565C62.9307 108.528 63.2807 108.5 63.6074 108.481C63.9434 108.462 64.3027 108.453 64.6854 108.453C65.0774 108.444 65.5487 108.439 66.0994 108.439ZM64.3074 108.565V118.225H62.5574V108.565H64.3074ZM74.8557 108.565V118.225H73.1057V108.565H74.8557ZM77.8517 108.565V109.993H70.1097V108.565H77.8517ZM26.8441 126.565V136.225H25.0941V126.565H26.8441ZM29.8401 126.565V127.993H22.0981V126.565H29.8401ZM31.0828 129.351L31.3068 130.695L31.4608 130.891V136.225H29.7668V129.351H31.0828ZM34.4428 129.183L34.2748 130.751H33.7848C33.4208 130.751 33.0522 130.812 32.6788 130.933C32.3055 131.054 31.8388 131.236 31.2788 131.479L31.1668 130.485C31.6522 130.074 32.1468 129.757 32.6508 129.533C33.1548 129.3 33.6402 129.183 34.1068 129.183H34.4428ZM38.8817 129.183C39.4324 129.183 39.8944 129.258 40.2677 129.407C40.6504 129.547 40.9397 129.79 41.1357 130.135C41.3317 130.48 41.4297 130.956 41.4297 131.563V136.225H40.0857L39.8477 134.741L39.7217 134.545V131.549C39.7217 131.185 39.6377 130.924 39.4697 130.765C39.3017 130.597 38.9797 130.513 38.5037 130.513C38.1491 130.513 37.7011 130.527 37.1597 130.555C36.6277 130.583 36.0911 130.62 35.5497 130.667L35.3957 129.505C35.7224 129.44 36.0911 129.384 36.5017 129.337C36.9124 129.29 37.3277 129.253 37.7477 129.225C38.1677 129.197 38.5457 129.183 38.8817 129.183ZM40.7017 131.997L40.6877 133.047H37.5377C37.2577 133.056 37.0571 133.131 36.9357 133.271C36.8144 133.411 36.7537 133.602 36.7537 133.845V134.223C36.7537 134.503 36.8284 134.718 36.9777 134.867C37.1271 135.007 37.3604 135.077 37.6777 135.077C37.9297 135.077 38.2097 135.026 38.5177 134.923C38.8257 134.82 39.1291 134.671 39.4277 134.475C39.7357 134.279 40.0111 134.046 40.2537 133.775V134.657C40.1604 134.797 40.0251 134.965 39.8477 135.161C39.6704 135.348 39.4511 135.534 39.1897 135.721C38.9377 135.908 38.6437 136.062 38.3077 136.183C37.9811 136.304 37.6171 136.365 37.2157 136.365C36.8051 136.365 36.4364 136.295 36.1097 136.155C35.7831 136.006 35.5264 135.791 35.3397 135.511C35.1531 135.222 35.0597 134.867 35.0597 134.447V133.719C35.0597 133.178 35.2371 132.758 35.5917 132.459C35.9557 132.151 36.4504 131.997 37.0757 131.997H40.7017ZM47.6534 129.183C48.932 129.183 49.5714 129.813 49.5714 131.073V136.225H47.8774V131.591C47.8774 131.218 47.812 130.961 47.6814 130.821C47.5507 130.681 47.3314 130.611 47.0234 130.611C46.678 130.611 46.3234 130.69 45.9594 130.849C45.5954 130.998 45.1567 131.218 44.6434 131.507L44.5734 130.485C45.0774 130.065 45.5907 129.743 46.1134 129.519C46.636 129.295 47.1494 129.183 47.6534 129.183ZM44.5174 129.351L44.6854 130.695L44.8254 130.891V136.225H43.1314V129.351H44.5174ZM53.7682 129.183C54.0855 129.183 54.4262 129.192 54.7902 129.211C55.1635 129.23 55.5275 129.258 55.8822 129.295C56.2369 129.323 56.5542 129.365 56.8342 129.421L56.7222 130.527C56.2742 130.518 55.8262 130.508 55.3782 130.499C54.9395 130.48 54.5055 130.471 54.0762 130.471C53.6935 130.471 53.3902 130.48 53.1662 130.499C52.9515 130.518 52.7975 130.574 52.7042 130.667C52.6202 130.76 52.5782 130.919 52.5782 131.143C52.5782 131.414 52.6529 131.596 52.8022 131.689C52.9515 131.773 53.1942 131.857 53.5302 131.941L55.4062 132.375C55.9662 132.515 56.3815 132.73 56.6522 133.019C56.9229 133.299 57.0582 133.733 57.0582 134.321C57.0582 134.89 56.9509 135.324 56.7362 135.623C56.5309 135.912 56.1995 136.113 55.7422 136.225C55.2942 136.328 54.7202 136.379 54.0202 136.379C53.7495 136.379 53.3482 136.365 52.8162 136.337C52.2842 136.318 51.7009 136.258 51.0662 136.155L51.1782 135.049C51.3649 135.049 51.5842 135.054 51.8362 135.063C52.0975 135.072 52.3729 135.077 52.6622 135.077C52.9609 135.077 53.2642 135.077 53.5722 135.077C54.0669 135.077 54.4449 135.063 54.7062 135.035C54.9769 134.998 55.1635 134.928 55.2662 134.825C55.3689 134.713 55.4202 134.554 55.4202 134.349C55.4202 134.088 55.3315 133.915 55.1542 133.831C54.9862 133.738 54.7342 133.649 54.3982 133.565L52.5642 133.117C52.1442 133.005 51.8175 132.865 51.5842 132.697C51.3509 132.52 51.1829 132.305 51.0802 132.053C50.9775 131.792 50.9262 131.474 50.9262 131.101C50.9262 130.597 51.0195 130.205 51.2062 129.925C51.4022 129.645 51.7055 129.449 52.1162 129.337C52.5362 129.225 53.0869 129.174 53.7682 129.183ZM61.181 126.159C61.3397 126.159 61.545 126.164 61.797 126.173C62.0583 126.182 62.3243 126.196 62.595 126.215C62.8657 126.224 63.0943 126.248 63.281 126.285L63.141 127.419H61.783C61.391 127.419 61.1157 127.498 60.957 127.657C60.7983 127.816 60.719 128.082 60.719 128.455V136.225H59.025V128.245C59.025 127.806 59.095 127.433 59.235 127.125C59.375 126.817 59.6037 126.579 59.921 126.411C60.2383 126.243 60.6583 126.159 61.181 126.159ZM62.763 129.351V130.527H57.807V129.421L59.081 129.351H62.763ZM66.791 129.183C67.9017 129.183 68.6997 129.379 69.185 129.771C69.6704 130.154 69.9177 130.723 69.927 131.479C69.9364 132.104 69.787 132.58 69.479 132.907C69.1804 133.224 68.681 133.383 67.981 133.383H64.061V132.333H67.519C67.8364 132.333 68.037 132.249 68.121 132.081C68.2144 131.913 68.261 131.708 68.261 131.465C68.2517 131.082 68.1397 130.816 67.925 130.667C67.7197 130.518 67.365 130.443 66.861 130.443C66.4224 130.443 66.0817 130.504 65.839 130.625C65.5964 130.746 65.4237 130.966 65.321 131.283C65.2277 131.6 65.181 132.058 65.181 132.655C65.181 133.29 65.2417 133.78 65.363 134.125C65.4844 134.47 65.685 134.708 65.965 134.839C66.245 134.96 66.6184 135.021 67.085 135.021C67.4304 135.021 67.827 135.007 68.275 134.979C68.7324 134.951 69.171 134.914 69.591 134.867L69.759 135.945C69.507 136.048 69.2177 136.132 68.891 136.197C68.5644 136.262 68.2237 136.309 67.869 136.337C67.5237 136.374 67.197 136.393 66.889 136.393C66.049 136.393 65.3724 136.272 64.859 136.029C64.355 135.777 63.9864 135.385 63.753 134.853C63.529 134.321 63.417 133.635 63.417 132.795C63.417 131.89 63.529 131.176 63.753 130.653C63.9864 130.121 64.3504 129.743 64.845 129.519C65.349 129.295 65.9977 129.183 66.791 129.183ZM72.6257 129.351L72.8497 130.695L73.0037 130.891V136.225H71.3097V129.351H72.6257ZM75.9857 129.183L75.8177 130.751H75.3277C74.9637 130.751 74.595 130.812 74.2217 130.933C73.8483 131.054 73.3817 131.236 72.8217 131.479L72.7097 130.485C73.195 130.074 73.6897 129.757 74.1937 129.533C74.6977 129.3 75.183 129.183 75.6497 129.183H75.9857Z" fill="#333839"/>
<path d="M89.3995 52.8292L52.744 89.4748" stroke="white" stroke-width="6.29" stroke-miterlimit="10"/>
<path d="M89.3995 52.8292L52.744 89.4748" stroke="#9B7ECD" stroke-width="3.42" stroke-miterlimit="10"/>
<path d="M7.6601 51.8866L5 49.2266L44.9905 9.2262" stroke="white" stroke-width="6.29" stroke-miterlimit="10"/>
<path d="M7.6601 51.8866L5 49.2266L44.9905 9.2262" stroke="#9B7ECD" stroke-width="3.42" stroke-miterlimit="10"/>
<path d="M67.6359 87.1562H30.3154L11 67.8607V30.5402L30.3154 11.2249H67.6359L86.9512 30.5402V67.8607L67.6359 87.1562Z" fill="#9B7ECD"/>
<path d="M52.7421 89.4756L49.0001 93.2275L7.65977 51.8871" stroke="white" stroke-width="6.29" stroke-miterlimit="10"/>
<path d="M52.7421 89.4756L49.0001 93.2275L7.65977 51.8871" stroke="#9B7ECD" stroke-width="3.42" stroke-miterlimit="10"/>
<path d="M44.9896 9.22489L48.9995 5.22485L93 49.2253L89.397 52.8283" stroke="white" stroke-width="6.29" stroke-miterlimit="10"/>
<path d="M44.9896 9.22489L48.9995 5.22485L93 49.2253L89.397 52.8283" stroke="#9B7ECD" stroke-width="3.42" stroke-miterlimit="10"/>
<g clip-path="url(#clip0_393_7113)">
<path d="M49 37.9749V45.4749H42.75V47.9749H45.25V50.4749H37.75V47.9749H40.25V45.4749H34V37.9749C34 36.9803 34.3951 36.0265 35.0983 35.3232C35.8016 34.6199 36.7554 34.2249 37.75 34.2249H45.25C46.2446 34.2249 47.1984 34.6199 47.9017 35.3232C48.6049 36.0265 49 36.9803 49 37.9749ZM56.5 41.7249V45.4749H59V41.7249C59 40.7303 58.6049 39.7765 57.9017 39.0732C57.1984 38.3699 56.2446 37.9749 55.25 37.9749H51.5V40.4749H55.25C55.5815 40.4749 55.8995 40.6065 56.1339 40.841C56.3683 41.0754 56.5 41.3933 56.5 41.7249ZM42.75 56.7249V52.9749H40.25V56.7249C40.25 57.7194 40.6451 58.6732 41.3483 59.3765C42.0516 60.0798 43.0054 60.4749 44 60.4749H49V57.9749H44C43.6685 57.9749 43.3505 57.8432 43.1161 57.6087C42.8817 57.3743 42.75 57.0564 42.75 56.7249ZM64 51.7249V64.2249H51.5V51.7249C51.5 50.7303 51.8951 49.7765 52.5983 49.0732C53.3016 48.3699 54.2554 47.9749 55.25 47.9749H60.25C61.2446 47.9749 62.1984 48.3699 62.9017 49.0732C63.6049 49.7765 64 50.7303 64 51.7249ZM59 59.2249C59 58.9776 58.9267 58.736 58.7893 58.5304C58.652 58.3248 58.4568 58.1646 58.2284 58.07C57.9999 57.9754 57.7486 57.9506 57.5061 57.9989C57.2637 58.0471 57.0409 58.1662 56.8661 58.341C56.6913 58.5158 56.5722 58.7385 56.524 58.981C56.4758 59.2235 56.5005 59.4748 56.5952 59.7032C56.6898 59.9316 56.85 60.1268 57.0555 60.2642C57.2611 60.4015 57.5028 60.4749 57.75 60.4749C58.0815 60.4749 58.3995 60.3432 58.6339 60.1087C58.8683 59.8743 59 59.5564 59 59.2249Z" fill="white"/>
</g>
<defs>
<clipPath id="clip0_393_7113">
<rect width="30" height="30" fill="white" transform="translate(34 34.2249)"/>
</clipPath>
</defs>
</svg>
