<svg width="100" height="156" viewBox="0 0 100 156" fill="none" xmlns="http://www.w3.org/2000/svg">
<rect width="100" height="156" rx="19" fill="#F9FBFF"/>
<path d="M34.8627 109.343C35.3014 109.343 35.5254 109.567 35.5347 110.015L35.9127 119.003H34.2467L33.9107 110.729H33.6447L31.8387 117.211C31.7547 117.593 31.5167 117.785 31.1247 117.785H29.8927C29.4914 117.785 29.244 117.593 29.1507 117.211L27.3447 110.729H27.0787L26.7707 119.003H25.1047L25.4827 110.015C25.5014 109.567 25.7254 109.343 26.1547 109.343H27.9047C28.278 109.343 28.5114 109.534 28.6047 109.917L30.0887 115.209C30.154 115.433 30.2054 115.657 30.2427 115.881C30.2894 116.105 30.3407 116.329 30.3967 116.553H30.6067C30.6627 116.329 30.714 116.105 30.7607 115.881C30.8074 115.657 30.8587 115.428 30.9147 115.195L32.3987 109.917C32.4827 109.534 32.7207 109.343 33.1127 109.343H34.8627ZM41.2945 111.961C42.1345 111.961 42.8018 112.077 43.2965 112.311C43.8005 112.544 44.1598 112.927 44.3745 113.459C44.5985 113.991 44.7105 114.695 44.7105 115.573C44.7105 116.45 44.5985 117.155 44.3745 117.687C44.1598 118.209 43.8005 118.592 43.2965 118.835C42.8018 119.068 42.1345 119.185 41.2945 119.185C40.4732 119.185 39.8105 119.068 39.3065 118.835C38.8118 118.592 38.4525 118.209 38.2285 117.687C38.0045 117.155 37.8925 116.45 37.8925 115.573C37.8925 114.695 38.0045 113.991 38.2285 113.459C38.4525 112.927 38.8118 112.544 39.3065 112.311C39.8105 112.077 40.4732 111.961 41.2945 111.961ZM41.2945 113.249C40.8838 113.249 40.5572 113.319 40.3145 113.459C40.0812 113.589 39.9132 113.823 39.8105 114.159C39.7078 114.495 39.6565 114.966 39.6565 115.573C39.6565 116.179 39.7078 116.651 39.8105 116.987C39.9132 117.323 40.0812 117.556 40.3145 117.687C40.5572 117.817 40.8838 117.883 41.2945 117.883C41.7145 117.883 42.0458 117.817 42.2885 117.687C42.5312 117.556 42.6992 117.323 42.7925 116.987C42.8952 116.651 42.9465 116.179 42.9465 115.573C42.9465 114.966 42.8952 114.495 42.7925 114.159C42.6992 113.823 42.5312 113.589 42.2885 113.459C42.0458 113.319 41.7145 113.249 41.2945 113.249ZM49.0516 111.961C49.5183 111.961 49.9756 112.026 50.4236 112.157C50.8716 112.278 51.2776 112.483 51.6416 112.773L51.5296 113.627C51.1656 113.524 50.8389 113.435 50.5496 113.361C50.2603 113.286 49.9383 113.249 49.5836 113.249C49.2476 113.249 48.9769 113.309 48.7716 113.431C48.5756 113.543 48.4263 113.762 48.3236 114.089C48.2303 114.415 48.1836 114.891 48.1836 115.517C48.1836 116.114 48.2303 116.576 48.3236 116.903C48.4169 117.22 48.5616 117.444 48.7576 117.575C48.9536 117.696 49.2103 117.757 49.5276 117.757C49.7796 117.757 50.0036 117.729 50.1996 117.673C50.3956 117.607 50.5963 117.514 50.8016 117.393C51.0069 117.262 51.2449 117.099 51.5156 116.903L51.6556 117.855C51.3383 118.219 50.9463 118.531 50.4796 118.793C50.0223 119.045 49.4903 119.171 48.8836 119.171C48.0063 119.171 47.3809 118.863 47.0076 118.247C46.6343 117.621 46.4476 116.716 46.4476 115.531C46.4476 114.625 46.5409 113.916 46.7276 113.403C46.9236 112.88 47.2129 112.511 47.5956 112.297C47.9876 112.073 48.4729 111.961 49.0516 111.961ZM53.0276 109.203V119.003H51.6976L51.5156 117.771L51.3336 117.631V113.039L51.4176 112.843C51.3803 112.572 51.3569 112.301 51.3476 112.031C51.3383 111.751 51.3336 111.466 51.3336 111.177V109.203H53.0276ZM57.0164 112.129V116.777C57.0071 117.122 57.0724 117.369 57.2124 117.519C57.3617 117.668 57.5997 117.743 57.9264 117.743C58.2531 117.743 58.5797 117.673 58.9064 117.533C59.2331 117.393 59.6297 117.183 60.0964 116.903L60.2644 117.911C59.7417 118.331 59.2377 118.648 58.7524 118.863C58.2671 119.077 57.7631 119.185 57.2404 119.185C55.9617 119.185 55.3224 118.555 55.3224 117.295V112.129H57.0164ZM61.6224 112.129V119.003H60.2784L60.0964 117.673L59.9284 117.477V112.129H61.6224ZM65.6545 109.203L65.6405 116.931C65.6405 117.192 65.7152 117.393 65.8645 117.533C66.0138 117.663 66.2285 117.729 66.5085 117.729H67.1105L67.3065 118.919C67.2038 118.965 67.0592 119.007 66.8725 119.045C66.6952 119.082 66.5085 119.105 66.3125 119.115C66.1258 119.133 65.9625 119.143 65.8225 119.143C65.2532 119.143 64.8005 118.989 64.4645 118.681C64.1285 118.373 63.9605 117.929 63.9605 117.351V109.203H65.6545ZM71.8485 111.961C72.9592 111.961 73.7572 112.157 74.2425 112.549C74.7278 112.931 74.9752 113.501 74.9845 114.257C74.9938 114.882 74.8445 115.358 74.5365 115.685C74.2378 116.002 73.7385 116.161 73.0385 116.161H69.1185V115.111H72.5765C72.8938 115.111 73.0945 115.027 73.1785 114.859C73.2718 114.691 73.3185 114.485 73.3185 114.243C73.3092 113.86 73.1972 113.594 72.9825 113.445C72.7772 113.295 72.4225 113.221 71.9185 113.221C71.4798 113.221 71.1392 113.281 70.8965 113.403C70.6538 113.524 70.4812 113.743 70.3785 114.061C70.2852 114.378 70.2385 114.835 70.2385 115.433C70.2385 116.067 70.2992 116.557 70.4205 116.903C70.5418 117.248 70.7425 117.486 71.0225 117.617C71.3025 117.738 71.6758 117.799 72.1425 117.799C72.4878 117.799 72.8845 117.785 73.3325 117.757C73.7898 117.729 74.2285 117.691 74.6485 117.645L74.8165 118.723C74.5645 118.825 74.2752 118.909 73.9485 118.975C73.6218 119.04 73.2812 119.087 72.9265 119.115C72.5812 119.152 72.2545 119.171 71.9465 119.171C71.1065 119.171 70.4298 119.049 69.9165 118.807C69.4125 118.555 69.0438 118.163 68.8105 117.631C68.5865 117.099 68.4745 116.413 68.4745 115.573C68.4745 114.667 68.5865 113.953 68.8105 113.431C69.0438 112.899 69.4078 112.521 69.9025 112.297C70.4065 112.073 71.0552 111.961 71.8485 111.961ZM32.6028 127.217C33.4055 127.217 34.0541 127.301 34.5488 127.469C35.0528 127.637 35.4168 127.926 35.6408 128.337C35.8741 128.738 35.9908 129.307 35.9908 130.045C35.9908 130.53 35.9301 130.945 35.8088 131.291C35.6968 131.627 35.5055 131.897 35.2348 132.103C34.9735 132.299 34.6188 132.425 34.1708 132.481V132.551C34.3295 132.588 34.4928 132.663 34.6608 132.775C34.8381 132.877 34.9968 133.027 35.1368 133.223C35.2861 133.419 35.3981 133.671 35.4728 133.979L36.3548 137.003H34.5068L33.7088 134.021C33.6061 133.685 33.4661 133.451 33.2888 133.321C33.1115 133.181 32.8688 133.111 32.5608 133.111C31.9541 133.111 31.4361 133.111 31.0068 133.111C30.5775 133.101 30.2181 133.092 29.9288 133.083C29.6488 133.073 29.4015 133.069 29.1868 133.069L29.2288 131.739H32.5608C32.9808 131.729 33.3121 131.683 33.5548 131.599C33.7975 131.505 33.9701 131.347 34.0728 131.123C34.1755 130.889 34.2268 130.563 34.2268 130.143C34.2268 129.732 34.1755 129.415 34.0728 129.191C33.9701 128.967 33.7975 128.813 33.5548 128.729C33.3121 128.635 32.9808 128.589 32.5608 128.589C31.7395 128.589 31.0348 128.593 30.4468 128.603C29.8588 128.612 29.4575 128.621 29.2428 128.631L29.0468 127.343C29.4201 127.305 29.7701 127.277 30.0968 127.259C30.4328 127.24 30.7968 127.231 31.1888 127.231C31.5808 127.221 32.0521 127.217 32.6028 127.217ZM30.7688 127.343V137.003H29.0468V127.343H30.7688ZM39.9635 130.129V137.003H38.2835V130.129H39.9635ZM39.5015 127.147C39.8375 127.147 40.0055 127.315 40.0055 127.651V128.435C40.0055 128.771 39.8375 128.939 39.5015 128.939H38.7455C38.4095 128.939 38.2415 128.771 38.2415 128.435V127.651C38.2415 127.315 38.4095 127.147 38.7455 127.147H39.5015ZM45.2509 129.961C46.0256 129.961 46.6369 130.035 47.0849 130.185C47.5423 130.325 47.8689 130.558 48.0649 130.885C48.2609 131.202 48.3589 131.622 48.3589 132.145C48.3589 132.649 48.2609 133.064 48.0649 133.391C47.8689 133.708 47.5423 133.941 47.0849 134.091C46.6276 134.24 46.0116 134.315 45.2369 134.315C44.4623 134.315 43.8463 134.24 43.3889 134.091C42.9409 133.941 42.6143 133.708 42.4089 133.391C42.2129 133.073 42.1149 132.658 42.1149 132.145C42.1149 131.622 42.2129 131.202 42.4089 130.885C42.6143 130.558 42.9456 130.325 43.4029 130.185C43.8603 130.035 44.4763 129.961 45.2509 129.961ZM45.2369 131.067C44.6489 131.067 44.2429 131.146 44.0189 131.305C43.7949 131.463 43.6829 131.743 43.6829 132.145C43.6829 132.527 43.7949 132.803 44.0189 132.971C44.2429 133.129 44.6489 133.209 45.2369 133.209C45.8249 133.209 46.2263 133.129 46.4409 132.971C46.6649 132.803 46.7769 132.527 46.7769 132.145C46.7769 131.743 46.6649 131.463 46.4409 131.305C46.2263 131.146 45.8249 131.067 45.2369 131.067ZM49.1569 130.129L49.0589 130.913L47.2669 131.109L46.7629 130.129H49.1569ZM43.2349 133.895L44.1029 134.021C43.9629 134.133 43.8649 134.277 43.8089 134.455C43.7623 134.623 43.7763 134.786 43.8509 134.945C43.9349 135.094 44.1123 135.187 44.3829 135.225L46.9309 135.561C47.6216 135.645 48.1069 135.85 48.3869 136.177C48.6669 136.494 48.8069 136.956 48.8069 137.563C48.8069 138.132 48.6949 138.575 48.4709 138.893C48.2469 139.21 47.8783 139.429 47.3649 139.551C46.8609 139.681 46.1796 139.747 45.3209 139.747C44.6396 139.747 44.0749 139.709 43.6269 139.635C43.1789 139.569 42.8196 139.453 42.5489 139.285C42.2876 139.126 42.1009 138.916 41.9889 138.655C41.8769 138.403 41.8209 138.085 41.8209 137.703C41.8209 137.404 41.8676 137.152 41.9609 136.947C42.0636 136.741 42.2269 136.559 42.4509 136.401C42.6749 136.233 42.9783 136.079 43.3609 135.939L44.3129 135.533L44.9709 135.771L44.3549 136.205C44.1403 136.363 43.9629 136.508 43.8229 136.639C43.6923 136.76 43.5943 136.881 43.5289 137.003C43.4729 137.133 43.4449 137.297 43.4449 137.493C43.4449 137.754 43.4963 137.955 43.5989 138.095C43.7109 138.235 43.9023 138.328 44.1729 138.375C44.4436 138.431 44.8216 138.459 45.3069 138.459C45.8016 138.459 46.1843 138.431 46.4549 138.375C46.7256 138.328 46.9123 138.235 47.0149 138.095C47.1269 137.964 47.1829 137.773 47.1829 137.521C47.1829 137.315 47.1503 137.161 47.0849 137.059C47.0196 136.965 46.9029 136.891 46.7349 136.835C46.5669 136.779 46.3336 136.732 46.0349 136.695L43.7389 136.415C43.4123 136.377 43.1509 136.284 42.9549 136.135C42.7683 135.976 42.6376 135.789 42.5629 135.575C42.4883 135.351 42.4649 135.131 42.4929 134.917C42.5303 134.693 42.6096 134.487 42.7309 134.301C42.8616 134.114 43.0296 133.979 43.2349 133.895ZM55.279 129.961C56.5576 129.961 57.197 130.591 57.197 131.851V137.003H55.489V132.369C55.489 131.995 55.4236 131.739 55.293 131.599C55.1716 131.459 54.957 131.389 54.649 131.389C54.3036 131.389 53.949 131.463 53.585 131.613C53.221 131.762 52.7823 131.986 52.269 132.285L52.143 131.305C52.6656 130.875 53.1883 130.544 53.711 130.311C54.243 130.077 54.7656 129.961 55.279 129.961ZM52.451 127.203L52.465 129.723C52.465 130.068 52.4463 130.395 52.409 130.703C52.381 131.001 52.339 131.258 52.283 131.473L52.451 131.669V137.003H50.757V127.203H52.451ZM61.7438 128.169V134.931C61.7438 135.22 61.8045 135.425 61.9258 135.547C62.0565 135.668 62.2758 135.729 62.5838 135.729H63.5358L63.7178 136.919C63.5591 136.965 63.3678 137.007 63.1438 137.045C62.9198 137.082 62.7005 137.105 62.4858 137.115C62.2711 137.133 62.0891 137.143 61.9398 137.143C61.3425 137.143 60.8758 136.984 60.5398 136.667C60.2131 136.34 60.0498 135.873 60.0498 135.267V128.169H61.7438ZM63.7878 130.129V131.305H58.8318V130.199L60.1758 130.129H63.7878ZM67.9382 129.961C68.2556 129.961 68.5962 129.97 68.9602 129.989C69.3336 130.007 69.6976 130.035 70.0522 130.073C70.4069 130.101 70.7242 130.143 71.0042 130.199L70.8922 131.305C70.4442 131.295 69.9962 131.286 69.5482 131.277C69.1096 131.258 68.6756 131.249 68.2462 131.249C67.8636 131.249 67.5602 131.258 67.3362 131.277C67.1216 131.295 66.9676 131.351 66.8742 131.445C66.7902 131.538 66.7482 131.697 66.7482 131.921C66.7482 132.191 66.8229 132.373 66.9722 132.467C67.1216 132.551 67.3642 132.635 67.7002 132.719L69.5762 133.153C70.1362 133.293 70.5516 133.507 70.8222 133.797C71.0929 134.077 71.2282 134.511 71.2282 135.099C71.2282 135.668 71.1209 136.102 70.9062 136.401C70.7009 136.69 70.3696 136.891 69.9122 137.003C69.4642 137.105 68.8902 137.157 68.1902 137.157C67.9196 137.157 67.5182 137.143 66.9862 137.115C66.4542 137.096 65.8709 137.035 65.2362 136.933L65.3482 135.827C65.5349 135.827 65.7542 135.831 66.0062 135.841C66.2676 135.85 66.5429 135.855 66.8322 135.855C67.1309 135.855 67.4342 135.855 67.7422 135.855C68.2369 135.855 68.6149 135.841 68.8762 135.813C69.1469 135.775 69.3336 135.705 69.4362 135.603C69.5389 135.491 69.5902 135.332 69.5902 135.127C69.5902 134.865 69.5016 134.693 69.3242 134.609C69.1562 134.515 68.9042 134.427 68.5682 134.343L66.7342 133.895C66.3142 133.783 65.9876 133.643 65.7542 133.475C65.5209 133.297 65.3529 133.083 65.2502 132.831C65.1476 132.569 65.0962 132.252 65.0962 131.879C65.0962 131.375 65.1896 130.983 65.3762 130.703C65.5722 130.423 65.8756 130.227 66.2862 130.115C66.7062 130.003 67.2569 129.951 67.9382 129.961Z" fill="#333839"/>
<path d="M90.3995 53.6044L53.744 90.2499" stroke="white" stroke-width="6.29" stroke-miterlimit="10"/>
<path d="M90.3995 53.6044L53.744 90.2499" stroke="#CA9E7D" stroke-width="3.42" stroke-miterlimit="10"/>
<path d="M8.6601 52.6618L6 50.0017L45.9905 10.0013" stroke="white" stroke-width="6.29" stroke-miterlimit="10"/>
<path d="M8.6601 52.6618L6 50.0017L45.9905 10.0013" stroke="#CA9E7D" stroke-width="3.42" stroke-miterlimit="10"/>
<path d="M68.6358 87.9313H31.3153L12 68.6358V31.3153L31.3153 12H68.6358L87.9512 31.3153V68.6358L68.6358 87.9313Z" fill="#CA9E7D"/>
<path d="M53.7421 90.2507L50.0002 94.0026L8.65979 52.6622" stroke="white" stroke-width="6.29" stroke-miterlimit="10"/>
<path d="M53.7421 90.2507L50.0002 94.0026L8.65979 52.6622" stroke="#CA9E7D" stroke-width="3.42" stroke-miterlimit="10"/>
<path d="M45.9896 10L49.9996 6L94.0001 50.0004L90.397 53.6034" stroke="white" stroke-width="6.29" stroke-miterlimit="10"/>
<path d="M45.9896 10L49.9996 6L94.0001 50.0004L90.397 53.6034" stroke="#CA9E7D" stroke-width="3.42" stroke-miterlimit="10"/>
<path d="M64 60.0559C63.8432 60.3825 63.5638 60.5667 63.257 60.7372C61.4123 61.7643 59.5731 62.7976 57.7311 63.8288C57.6469 63.8761 57.5586 63.9172 57.4394 63.9781V63.6762C57.4394 61.0075 57.438 58.3388 57.4353 55.6701C57.4353 55.4941 57.4791 55.3962 57.6448 55.3147C59.6904 54.2999 61.7332 53.2808 63.7733 52.2573C63.8469 52.2269 63.9227 52.2022 64 52.1833V60.0559Z" fill="white"/>
<path d="M50.2215 36L54.3929 38.133L56.5437 39.2286C56.4369 39.2909 56.3671 39.3368 56.2924 39.3744C54.2669 40.3874 52.2401 41.3979 50.2119 42.4058C50.1551 42.4342 50.0932 42.4509 50.0298 42.4552C49.9664 42.4594 49.9029 42.451 49.8428 42.4305C47.7557 41.3988 45.672 40.3596 43.5917 39.3128C43.5602 39.2964 43.5315 39.2751 43.4698 39.2361C43.5801 39.1745 43.6705 39.1204 43.765 39.0725L49.7729 36.024C49.7791 36.024 49.7805 36.0082 49.7846 36H50.2215Z" fill="white"/>
<path d="M42.5476 63.9706C42.4448 63.9171 42.3647 63.8781 42.2873 63.8336C40.3974 62.775 38.5117 61.7109 36.6163 60.6625C36.1821 60.4229 36 60.1031 36 59.608C36.0137 57.2299 36.0062 54.8525 36.0062 52.4743V52.1724C36.0784 52.1946 36.1495 52.2204 36.2191 52.2497C38.2702 53.2741 40.3208 54.299 42.3709 55.3243C42.4893 55.3831 42.5722 55.4359 42.5715 55.5982C42.5647 58.3586 42.5624 61.119 42.5647 63.8795C42.561 63.9102 42.5553 63.9406 42.5476 63.9706Z" fill="white"/>
<path d="M42.6359 40.6837C42.7482 40.7344 42.8413 40.7714 42.9242 40.8152C44.9328 41.8195 46.9414 42.8238 48.95 43.8281C49.0828 43.8966 49.1855 43.9459 49.1848 44.139C49.1752 46.1329 49.1787 48.1276 49.1787 50.1216C49.1787 50.1661 49.1725 50.2099 49.167 50.2846C49.0794 50.2483 49.0054 50.2222 48.9363 50.188L42.8413 47.1388C42.7188 47.0779 42.6174 47.0327 42.6188 46.8478C42.6277 44.8442 42.6243 42.8407 42.625 40.8371C42.6229 40.7953 42.6311 40.7536 42.6359 40.6837Z" fill="white"/>
<path d="M50.8234 50.2935V45.4626C50.8234 45.0161 50.8158 44.5724 50.8295 44.1239C50.8334 44.0748 50.848 44.0272 50.8724 43.9845C50.8968 43.9418 50.9303 43.905 50.9706 43.8767C53.0732 42.8167 55.179 41.7622 57.2881 40.7131C57.3129 40.707 57.3385 40.7047 57.3641 40.7063C57.3739 40.7723 57.3803 40.8389 57.3832 40.9056C57.3832 42.8722 57.3844 44.8392 57.3867 46.8067C57.3867 46.958 57.3538 47.0484 57.2052 47.1224C55.145 48.1459 53.0867 49.173 51.0301 50.2037C50.9761 50.2332 50.9213 50.2537 50.8234 50.2935Z" fill="white"/>
<path d="M49.1827 52.9811V54.4149C49.1827 56.5815 49.1827 58.748 49.1766 60.9146C49.1766 61.0275 49.1149 61.1939 49.0287 61.2439C47.4893 62.143 45.9425 63.0284 44.3963 63.9144C44.3573 63.9334 44.3171 63.9496 44.2758 63.9631C44.2703 63.8768 44.2628 63.8083 44.2628 63.7405C44.2628 61.0472 44.2628 58.3525 44.2628 55.6564C44.2628 55.5126 44.2758 55.4126 44.4333 55.3346C45.9658 54.5813 47.4928 53.8103 49.0211 53.0468C49.0581 53.0283 49.0999 53.0146 49.1827 52.9811Z" fill="white"/>
<path d="M55.7241 63.9706C55.6399 63.9275 55.5755 63.8973 55.5139 63.8624C54.0161 63.0019 52.5179 62.1414 51.0192 61.2809C50.8919 61.2083 50.8186 61.1378 50.8186 60.9701C50.8255 58.3575 50.8273 55.745 50.8241 53.1324C50.8241 53.0961 50.8296 53.0605 50.8344 52.9955C50.9041 53.0161 50.9727 53.0405 51.0398 53.0688C52.5462 53.8201 54.0506 54.5718 55.5529 55.3236C55.6728 55.3839 55.7515 55.4387 55.7508 55.6016C55.744 58.3607 55.7419 61.1191 55.7447 63.8768C55.7399 63.9085 55.733 63.9398 55.7241 63.9706Z" fill="white"/>
<path d="M36.9011 50.7131C37.0703 50.6269 37.1976 50.5604 37.3264 50.4961C38.6849 49.8168 40.0427 49.1355 41.4054 48.4651C41.4623 48.438 41.5241 48.4225 41.5871 48.4193C41.65 48.4161 41.713 48.4254 41.7724 48.4466C43.8358 49.4669 45.8953 50.494 47.9509 51.528C48.0043 51.5547 48.0543 51.5883 48.1365 51.6369C48.0303 51.6978 47.9564 51.7444 47.879 51.7834C46.4712 52.4873 45.0624 53.1885 43.6527 53.887C43.548 53.9383 43.3788 53.9609 43.2837 53.913C41.1965 52.8808 39.1129 51.8416 37.0326 50.7953C37.0004 50.7789 36.9717 50.7549 36.9011 50.7131Z" fill="white"/>
<path d="M63.1099 50.7268L58.6768 52.9461C58.0345 53.2673 57.3936 53.5932 56.7465 53.9048C56.6466 53.9537 56.5314 53.9611 56.4261 53.9253C54.9491 53.1981 53.4775 52.4599 52.0053 51.7232C51.9598 51.6967 51.9157 51.6679 51.8732 51.6369C51.9773 51.578 52.0512 51.5307 52.1286 51.4917C54.1468 50.4828 56.1656 49.4763 58.1852 48.472C58.2886 48.4206 58.4556 48.3973 58.5522 48.4446C60.0217 49.167 61.4843 49.9024 62.9483 50.6358C62.9873 50.6522 63.0243 50.6769 63.1099 50.7268Z" fill="white"/>
</svg>
