<svg width="98" height="150" viewBox="0 0 98 150" fill="none" xmlns="http://www.w3.org/2000/svg">
<path d="M46.688 108.343C47.1267 108.343 47.3507 108.567 47.36 109.015L47.738 118.003H46.072L45.736 109.729H45.47L43.664 116.211C43.58 116.593 43.342 116.785 42.95 116.785H41.718C41.3167 116.785 41.0693 116.593 40.976 116.211L39.17 109.729H38.904L38.596 118.003H36.93L37.308 109.015C37.3267 108.567 37.5507 108.343 37.98 108.343H39.73C40.1033 108.343 40.3367 108.534 40.43 108.917L41.914 114.209C41.9793 114.433 42.0307 114.657 42.068 114.881C42.1147 115.105 42.166 115.329 42.222 115.553H42.432C42.488 115.329 42.5393 115.105 42.586 114.881C42.6327 114.657 42.684 114.428 42.74 114.195L44.224 108.917C44.308 108.534 44.546 108.343 44.938 108.343H46.688ZM51.5238 111.129V115.777C51.5145 116.122 51.5798 116.369 51.7198 116.519C51.8691 116.668 52.1071 116.743 52.4338 116.743C52.7605 116.743 53.0871 116.673 53.4138 116.533C53.7405 116.393 54.1371 116.183 54.6038 115.903L54.7718 116.911C54.2491 117.331 53.7451 117.648 53.2598 117.863C52.7745 118.077 52.2705 118.185 51.7478 118.185C50.4691 118.185 49.8298 117.555 49.8298 116.295V111.129H51.5238ZM56.1298 111.129V118.003H54.7858L54.6038 116.673L54.4358 116.477V111.129H56.1298ZM60.0219 108.203L60.0079 115.931C60.0079 116.192 60.0826 116.393 60.2319 116.533C60.3813 116.663 60.5959 116.729 60.8759 116.729H61.4779L61.6739 117.919C61.5713 117.965 61.4266 118.007 61.2399 118.045C61.0626 118.082 60.8759 118.105 60.6799 118.115C60.4933 118.133 60.3299 118.143 60.1899 118.143C59.6206 118.143 59.1679 117.989 58.8319 117.681C58.4959 117.373 58.3279 116.929 58.3279 116.351V108.203H60.0219ZM28.5879 126.175C29.0265 126.175 29.3999 126.189 29.7079 126.217C30.0159 126.235 30.3005 126.268 30.5619 126.315C30.8232 126.352 31.0939 126.408 31.3739 126.483L31.2199 127.785C30.9305 127.766 30.6599 127.752 30.4079 127.743C30.1559 127.724 29.8852 127.71 29.5959 127.701C29.3159 127.691 28.9799 127.687 28.5879 127.687C28.0465 127.687 27.6219 127.794 27.3139 128.009C27.0059 128.223 26.7865 128.583 26.6559 129.087C26.5345 129.591 26.4739 130.286 26.4739 131.173C26.4739 132.059 26.5345 132.755 26.6559 133.259C26.7865 133.763 27.0059 134.122 27.3139 134.337C27.6219 134.551 28.0465 134.659 28.5879 134.659C29.2132 134.659 29.7359 134.649 30.1559 134.631C30.5852 134.603 31.0052 134.565 31.4159 134.519L31.5699 135.807C31.1499 135.937 30.7159 136.031 30.2679 136.087C29.8199 136.143 29.2599 136.171 28.5879 136.171C27.6172 136.171 26.8425 136.012 26.2639 135.695C25.6852 135.368 25.2652 134.841 25.0039 134.113C24.7519 133.385 24.6259 132.405 24.6259 131.173C24.6259 129.941 24.7519 128.961 25.0039 128.233C25.2652 127.505 25.6852 126.982 26.2639 126.665C26.8425 126.338 27.6172 126.175 28.5879 126.175ZM36.345 128.961C37.185 128.961 37.8523 129.077 38.347 129.311C38.851 129.544 39.2103 129.927 39.425 130.459C39.649 130.991 39.761 131.695 39.761 132.573C39.761 133.45 39.649 134.155 39.425 134.687C39.2103 135.209 38.851 135.592 38.347 135.835C37.8523 136.068 37.185 136.185 36.345 136.185C35.5236 136.185 34.861 136.068 34.357 135.835C33.8623 135.592 33.503 135.209 33.279 134.687C33.055 134.155 32.943 133.45 32.943 132.573C32.943 131.695 33.055 130.991 33.279 130.459C33.503 129.927 33.8623 129.544 34.357 129.311C34.861 129.077 35.5236 128.961 36.345 128.961ZM36.345 130.249C35.9343 130.249 35.6076 130.319 35.365 130.459C35.1316 130.589 34.9636 130.823 34.861 131.159C34.7583 131.495 34.707 131.966 34.707 132.573C34.707 133.179 34.7583 133.651 34.861 133.987C34.9636 134.323 35.1316 134.556 35.365 134.687C35.6076 134.817 35.9343 134.883 36.345 134.883C36.765 134.883 37.0963 134.817 37.339 134.687C37.5816 134.556 37.7496 134.323 37.843 133.987C37.9456 133.651 37.997 133.179 37.997 132.573C37.997 131.966 37.9456 131.495 37.843 131.159C37.7496 130.823 37.5816 130.589 37.339 130.459C37.0963 130.319 36.765 130.249 36.345 130.249ZM46.1601 128.961C47.4387 128.961 48.0781 129.591 48.0781 130.851V136.003H46.3841V131.369C46.3841 130.995 46.3187 130.739 46.1881 130.599C46.0574 130.459 45.8381 130.389 45.5301 130.389C45.1847 130.389 44.8301 130.468 44.4661 130.627C44.1021 130.776 43.6634 130.995 43.1501 131.285L43.0801 130.263C43.5841 129.843 44.0974 129.521 44.6201 129.297C45.1427 129.073 45.6561 128.961 46.1601 128.961ZM43.0241 129.129L43.1921 130.473L43.3321 130.669V136.003H41.6381V129.129H43.0241ZM52.4849 127.169V133.931C52.4849 134.22 52.5456 134.425 52.6669 134.547C52.7976 134.668 53.0169 134.729 53.3249 134.729H54.2769L54.4589 135.919C54.3002 135.965 54.1089 136.007 53.8849 136.045C53.6609 136.082 53.4416 136.105 53.2269 136.115C53.0122 136.133 52.8302 136.143 52.6809 136.143C52.0836 136.143 51.6169 135.984 51.2809 135.667C50.9542 135.34 50.7909 134.873 50.7909 134.267V127.169H52.4849ZM54.5289 129.129V130.305H49.5729V129.199L50.9169 129.129H54.5289ZM57.3773 129.129L57.6013 130.473L57.7553 130.669V136.003H56.0613V129.129H57.3773ZM60.7373 128.961L60.5693 130.529H60.0793C59.7153 130.529 59.3467 130.589 58.9733 130.711C58.6 130.832 58.1333 131.014 57.5733 131.257L57.4613 130.263C57.9467 129.852 58.4413 129.535 58.9453 129.311C59.4493 129.077 59.9347 128.961 60.4013 128.961H60.7373ZM65.1368 128.961C65.9768 128.961 66.6442 129.077 67.1388 129.311C67.6428 129.544 68.0022 129.927 68.2168 130.459C68.4408 130.991 68.5528 131.695 68.5528 132.573C68.5528 133.45 68.4408 134.155 68.2168 134.687C68.0022 135.209 67.6428 135.592 67.1388 135.835C66.6442 136.068 65.9768 136.185 65.1368 136.185C64.3155 136.185 63.6528 136.068 63.1488 135.835C62.6542 135.592 62.2948 135.209 62.0708 134.687C61.8468 134.155 61.7348 133.45 61.7348 132.573C61.7348 131.695 61.8468 130.991 62.0708 130.459C62.2948 129.927 62.6542 129.544 63.1488 129.311C63.6528 129.077 64.3155 128.961 65.1368 128.961ZM65.1368 130.249C64.7262 130.249 64.3995 130.319 64.1568 130.459C63.9235 130.589 63.7555 130.823 63.6528 131.159C63.5502 131.495 63.4988 131.966 63.4988 132.573C63.4988 133.179 63.5502 133.651 63.6528 133.987C63.7555 134.323 63.9235 134.556 64.1568 134.687C64.3995 134.817 64.7262 134.883 65.1368 134.883C65.5568 134.883 65.8882 134.817 66.1308 134.687C66.3735 134.556 66.5415 134.323 66.6348 133.987C66.7375 133.651 66.7888 133.179 66.7888 132.573C66.7888 131.966 66.7375 131.495 66.6348 131.159C66.5415 130.823 66.3735 130.589 66.1308 130.459C65.8882 130.319 65.5568 130.249 65.1368 130.249ZM72.1379 126.203L72.1239 133.931C72.1239 134.192 72.1986 134.393 72.3479 134.533C72.4973 134.663 72.7119 134.729 72.9919 134.729H73.5939L73.7899 135.919C73.6873 135.965 73.5426 136.007 73.3559 136.045C73.1786 136.082 72.9919 136.105 72.7959 136.115C72.6093 136.133 72.4459 136.143 72.3059 136.143C71.7366 136.143 71.2839 135.989 70.9479 135.681C70.6119 135.373 70.4439 134.929 70.4439 134.351V126.203H72.1379Z" fill="#333839"/>
<path d="M89.3995 52.6044L52.744 89.2499" stroke="white" stroke-width="6.29" stroke-miterlimit="10"/>
<path d="M89.3995 52.6044L52.744 89.2499" stroke="#C93044" stroke-width="3.42" stroke-miterlimit="10"/>
<path d="M7.6601 51.6618L5 49.0017L44.9905 9.00134" stroke="white" stroke-width="6.29" stroke-miterlimit="10"/>
<path d="M7.6601 51.6618L5 49.0017L44.9905 9.00134" stroke="#C93044" stroke-width="3.42" stroke-miterlimit="10"/>
<path d="M67.6359 86.9313H30.3154L11.0001 67.6358V30.3153L30.3154 11H67.6359L86.9512 30.3153V67.6358L67.6359 86.9313Z" fill="#C93044"/>
<path d="M52.7421 89.2507L49.0002 93.0026L7.65979 51.6622" stroke="white" stroke-width="6.29" stroke-miterlimit="10"/>
<path d="M52.7421 89.2507L49.0002 93.0026L7.65979 51.6622" stroke="#C93044" stroke-width="3.42" stroke-miterlimit="10"/>
<path d="M44.9896 9.00004L48.9995 5L93 49.0004L89.397 52.6034" stroke="white" stroke-width="6.29" stroke-miterlimit="10"/>
<path d="M44.9896 9.00004L48.9995 5L93 49.0004L89.397 52.6034" stroke="#C93044" stroke-width="3.42" stroke-miterlimit="10"/>
<g clip-path="url(#clip0_488_8765)">
<path d="M53.4131 40.855H54.1131C54.2944 40.8514 54.4744 40.8864 54.6412 40.958C54.808 41.0295 54.9578 41.1358 55.0808 41.2699C55.1185 41.3211 55.1732 41.3569 55.235 41.3708C55.2968 41.3847 55.3614 41.3756 55.4171 41.3454C56.009 41.1189 56.6058 40.9078 57.1913 40.6732C57.32 40.6224 57.4291 40.5313 57.5025 40.4134C57.9461 39.6427 58.3786 38.8661 58.8001 38.0835C58.8245 38.0291 58.838 37.9704 58.8398 37.9108C58.8416 37.8512 58.8317 37.7918 58.8106 37.736C58.5952 37.2286 58.6856 36.7009 59.0735 36.3429C59.2518 36.1786 59.4767 36.0746 59.7167 36.0453C59.9567 36.016 60.1998 36.063 60.412 36.1796C60.6242 36.2963 60.7949 36.4768 60.9002 36.6958C61.0054 36.9149 61.0401 37.1617 60.9992 37.4015C60.9592 37.654 60.8364 37.8858 60.6504 38.0599C60.4643 38.2339 60.2257 38.3403 59.9726 38.3619C59.8991 38.3634 59.8275 38.3861 59.7664 38.4274C59.7053 38.4687 59.6574 38.5269 59.6283 38.5949C59.171 39.427 58.7162 40.2616 58.2348 41.0791C58.1206 41.2635 57.9536 41.4087 57.7558 41.4955C57.1106 41.7675 56.4461 42.011 55.7808 42.2384C55.5486 42.3195 55.4542 42.4259 55.4832 42.6694C55.4935 42.8487 55.4935 43.0284 55.4832 43.2077C55.6058 43.215 55.7026 43.2263 55.7986 43.2263C56.6235 43.2263 57.4493 43.2345 58.2735 43.219C58.427 43.2103 58.5736 43.1516 58.6912 43.0518C59.0021 42.7778 59.2982 42.4873 59.5783 42.1815C59.6613 42.083 59.7027 41.9556 59.6936 41.8268C59.6575 41.5795 59.6987 41.3271 59.8114 41.1044C59.9241 40.8818 60.1027 40.6999 60.3226 40.5839C60.539 40.4721 60.7851 40.4323 61.0254 40.4704C61.2657 40.5085 61.4878 40.6224 61.6597 40.7958C61.8314 40.9689 61.945 41.1918 61.9844 41.4332C62.0239 41.6746 61.9873 41.9223 61.8798 42.1418C61.772 42.3672 61.593 42.5504 61.3707 42.6625C61.1485 42.7746 60.8956 42.8093 60.6516 42.7612C60.5756 42.7423 60.4958 42.7455 60.4214 42.7703C60.3471 42.7952 60.2812 42.8407 60.2315 42.9016C59.8879 43.258 59.546 43.6185 59.1702 43.9383C58.9982 44.0835 58.7852 44.1707 58.5614 44.1875C57.6558 44.2143 56.7501 44.1997 55.8437 44.1997H55.5058V45.9711H57.9074C58.4614 45.9711 59.0146 45.9792 59.5678 45.9638C59.6879 45.9523 59.7987 45.8941 59.8767 45.8014C60.221 45.3574 60.7113 45.182 61.2097 45.3509C61.4395 45.4283 61.6394 45.5764 61.781 45.7744C61.9225 45.9724 61.9987 46.2102 61.9987 46.4541C61.9987 46.6981 61.9225 46.9359 61.781 47.1339C61.6394 47.3319 61.4395 47.48 61.2097 47.5574C60.7137 47.7255 60.2178 47.5501 59.8775 47.1036C59.818 47.0202 59.7281 46.9639 59.6275 46.9469C58.2791 46.938 56.9308 46.942 55.5824 46.9469C55.556 46.9518 55.5303 46.96 55.5058 46.9713V48.7151H56.6889C57.3227 48.7151 57.9582 48.6972 58.5904 48.7256C58.7957 48.7402 58.9912 48.8194 59.1493 48.9521C59.5355 49.2898 59.8815 49.6754 60.2597 50.0237C60.3601 50.1087 60.4892 50.1515 60.6202 50.1431C61.1653 50.0724 61.646 50.2997 61.8798 50.7706C61.9887 50.9895 62.0263 51.2374 61.9872 51.479C61.9481 51.7207 61.8343 51.9438 61.6621 52.1166C61.4898 52.2894 61.2678 52.4031 61.0276 52.4416C60.7874 52.4801 60.5413 52.4413 60.3242 52.3309C59.8597 52.0939 59.6283 51.6051 59.7025 51.0596C59.7084 51.0091 59.7044 50.9579 59.6905 50.909C59.6767 50.8601 59.6533 50.8144 59.6218 50.7746C59.2993 50.4394 58.967 50.1154 58.6307 49.8005C58.5669 49.7398 58.4844 49.7031 58.3969 49.6966C57.4412 49.6892 56.4856 49.6917 55.4865 49.6917C55.4865 49.9994 55.472 50.2916 55.4978 50.5798C55.5042 50.648 55.6405 50.73 55.7324 50.76C56.3894 50.9808 57.0493 51.1938 57.7122 51.3989C57.8276 51.4314 57.9351 51.4879 58.0276 51.5646C58.1201 51.6414 58.1956 51.7367 58.2493 51.8446C58.6985 52.6702 59.1654 53.4853 59.6202 54.3085C59.6504 54.3808 59.7007 54.4427 59.7651 54.4868C59.8295 54.5308 59.9052 54.5552 59.9831 54.5569C60.4928 54.5975 60.8879 54.9856 60.9911 55.4994C61.0345 55.7402 61.0016 55.9887 60.8971 56.2096C60.7926 56.4306 60.6219 56.613 60.4089 56.731C60.1992 56.8438 59.9605 56.8902 59.7242 56.864C59.4879 56.8378 59.265 56.7402 59.0847 56.584C58.8974 56.4193 58.7685 56.1976 58.7177 55.9525C58.6669 55.7073 58.697 55.4522 58.8033 55.2259C58.843 55.159 58.8628 55.082 58.8602 55.0041C58.8576 54.9262 58.8328 54.8507 58.7888 54.7867C58.3614 54.0422 57.9533 53.2864 57.5235 52.5428C57.4495 52.4165 57.3361 52.3183 57.2009 52.2635C56.5934 52.0503 55.9811 51.853 55.3639 51.6717C55.2368 51.6462 55.1048 51.6725 54.997 51.7448C54.7321 51.9498 54.4077 52.0616 54.0736 52.063C53.751 52.0573 53.4285 52.0589 53.1059 52.063C52.6656 52.0679 52.2374 52.0792 51.8229 51.8446C51.5995 51.7172 51.3011 51.722 51.0027 51.6603V51.347C51.0027 50.2526 50.9971 49.1591 51.0027 48.0648C51.0199 47.523 50.8366 46.9941 50.4882 46.5808C50.4609 46.5404 50.4431 46.4942 50.4359 46.4459C50.4288 46.3975 50.4326 46.3482 50.4471 46.3015C50.7906 45.4775 50.6084 44.6633 49.9633 44.1729C49.6627 43.9469 49.296 43.8278 48.9209 43.8343C48.5458 43.8408 48.1835 43.9724 47.8907 44.2086C47.2512 44.7347 47.1045 45.5555 47.502 46.3786C47.5109 46.3965 47.5157 46.4152 47.5303 46.455C46.9867 46.9802 46.8666 47.6548 46.8811 48.392C46.9029 49.496 46.8867 50.6001 46.8867 51.7042V52.05C46.7811 52.0565 46.7037 52.0654 46.6263 52.0654C45.7102 52.0654 44.7949 52.0654 43.8788 52.0654C43.5241 52.0713 43.1782 51.9544 42.899 51.7342C42.8527 51.7048 42.8009 51.6851 42.7468 51.6765C42.6928 51.6678 42.6375 51.6703 42.5845 51.6839C41.9834 51.8652 41.3834 52.0592 40.7845 52.266C40.6663 52.31 40.5659 52.3922 40.499 52.4998C40.056 53.271 39.6233 54.0476 39.2007 54.8297C39.1512 54.9396 39.1469 55.0648 39.1886 55.178C39.4031 55.687 39.3136 56.2163 38.9273 56.571C38.7472 56.7358 38.5201 56.8392 38.2783 56.8666C38.0365 56.8941 37.7922 56.8441 37.5802 56.7239C37.3682 56.6036 37.1992 56.4192 37.0972 56.1968C36.9952 55.9744 36.9654 55.7253 37.012 55.4848C37.1257 54.9555 37.5177 54.6162 38.0604 54.5366C38.123 54.5221 38.1822 54.4953 38.2345 54.4577C38.2869 54.42 38.3313 54.3724 38.3652 54.3174C38.8434 53.4853 39.2958 52.6386 39.7821 51.8113C39.8931 51.637 40.0564 51.5028 40.2482 51.4282C40.8893 51.1919 41.5385 50.989 42.1958 50.7884C42.3691 50.7349 42.4377 50.6602 42.4288 50.4735C42.4127 50.2234 42.4288 49.9726 42.4288 49.6901C41.7651 49.6901 41.1289 49.7428 40.5047 49.6763C39.7547 49.5951 39.1789 49.8126 38.7354 50.4166C38.6847 50.4798 38.6271 50.537 38.5636 50.5871C38.3701 50.756 38.2588 50.9118 38.2999 51.2244C38.3878 51.8941 37.8161 52.4714 37.1507 52.4649C36.9888 52.4634 36.8289 52.4278 36.6814 52.3605C36.5339 52.2931 36.4021 52.1954 36.2943 52.0737C36.1865 51.952 36.1053 51.809 36.0557 51.6537C36.0061 51.4985 35.9893 51.3346 36.0064 51.1724C36.021 51.0136 36.0685 50.8596 36.1457 50.7203C36.223 50.581 36.3284 50.4596 36.4551 50.3638C36.5818 50.268 36.727 50.1999 36.8814 50.164C37.0358 50.1281 37.1959 50.1251 37.3515 50.1552C37.4283 50.1738 37.5088 50.1701 37.5836 50.1445C37.6584 50.119 37.7245 50.0726 37.7741 50.0107C38.1185 49.656 38.4596 49.2939 38.8346 48.974C39.0075 48.8308 39.2207 48.7456 39.4442 48.7305C40.3184 48.7037 41.195 48.7191 42.07 48.7191H42.4086V46.9453H42.1288C40.9111 46.9453 39.6934 46.9453 38.4757 46.9412C38.3985 46.9346 38.3209 46.9501 38.2521 46.9859C38.1832 47.0216 38.1257 47.0762 38.0862 47.1434C37.943 47.3494 37.736 47.5018 37.4975 47.5767C37.2591 47.6517 37.0027 47.6449 36.7685 47.5574C36.5403 47.475 36.3436 47.3226 36.2061 47.1216C36.0686 46.9206 35.9973 46.6813 36.0022 46.4373C36.0071 46.1933 36.088 45.957 36.2334 45.7618C36.3789 45.5666 36.5816 45.4223 36.8129 45.3493C37.2911 45.1966 37.7806 45.3679 38.1031 45.7787C38.1677 45.8599 38.2765 45.9662 38.366 45.967C39.6136 45.9792 40.866 45.9752 42.1095 45.9752H42.403V44.1997H42.0893C41.224 44.1997 40.3587 44.1908 39.4934 44.1997C39.359 44.2076 39.2245 44.1851 39.0998 44.134C38.975 44.0829 38.8632 44.0044 38.7725 43.9042C38.4386 43.5527 38.0935 43.2117 37.7362 42.8854C37.6344 42.7997 37.5033 42.7574 37.3709 42.7677C36.8201 42.8334 36.3459 42.6053 36.1145 42.1336C36.0092 41.9138 35.9748 41.6663 36.0161 41.4258C36.0575 41.1853 36.1725 40.9639 36.3451 40.7925C36.5176 40.6197 36.7401 40.5066 36.9806 40.4695C37.2211 40.4325 37.4671 40.4734 37.683 40.5863C38.1451 40.8299 38.3693 41.308 38.2959 41.8617C38.2868 41.9637 38.3181 42.0652 38.383 42.1442C38.6967 42.4689 39.0233 42.7888 39.3507 43.1029C39.4111 43.1674 39.4917 43.2089 39.5789 43.2207C40.5127 43.2288 41.4466 43.2263 42.4216 43.2263C42.432 42.9595 42.4285 42.6923 42.4111 42.4259C42.403 42.352 42.2772 42.2635 42.1877 42.2319C41.5571 41.9899 40.9256 41.7559 40.2934 41.5296C40.0536 41.4524 39.854 41.2825 39.7386 41.0572C39.2918 40.2307 38.8225 39.4157 38.3725 38.5917C38.343 38.5244 38.2949 38.467 38.2341 38.4263C38.1732 38.3856 38.102 38.3632 38.0289 38.3619C37.776 38.3392 37.5378 38.2322 37.3521 38.0578C37.1665 37.8834 37.0439 37.6516 37.004 37.3991C36.9644 37.1598 36.9999 36.914 37.1054 36.696C37.211 36.4779 37.3814 36.2983 37.5931 36.1823C37.8047 36.0662 38.0469 36.0194 38.2862 36.0483C38.5255 36.0773 38.7498 36.1805 38.9281 36.3437C39.1145 36.5099 39.241 36.7334 39.2881 36.9795C39.3352 37.2255 39.3002 37.4804 39.1886 37.7043C39.1518 37.7675 39.1341 37.8401 39.1376 37.9132C39.1412 37.9863 39.1659 38.0568 39.2087 38.1159C39.6418 38.8807 40.0628 39.6527 40.499 40.415C40.5642 40.5235 40.6615 40.6087 40.7772 40.6586C41.3474 40.8834 41.924 41.0937 42.5022 41.2966C42.5901 41.3275 42.7441 41.3348 42.7933 41.2828C43.1651 40.8997 43.6264 40.8022 44.1239 40.8518C44.4408 40.8826 44.5102 40.7706 44.5054 40.4645C44.4916 39.6649 44.4796 38.8628 44.5304 38.0656C44.6707 35.8956 46.5569 34.0852 48.7318 34C51.0253 33.9188 53.0527 35.5287 53.3382 37.7433C53.4511 38.6217 53.3946 39.522 53.414 40.4118C53.4188 40.5425 53.4131 40.6732 53.4131 40.855ZM46.6642 40.8282H51.2955C51.2955 40.0253 51.3043 39.246 51.2955 38.4675C51.2753 37.227 50.3544 36.2569 49.1012 36.1489C47.9778 36.0507 46.8311 36.8722 46.6867 38.0315C46.573 38.9456 46.6642 39.8857 46.6642 40.8282Z" fill="white"/>
<path d="M47.8609 56.3008V55.976C47.8609 53.363 47.8609 50.7501 47.8609 48.1371C47.8573 47.9856 47.8708 47.8341 47.9012 47.6857C47.959 47.4317 48.1053 47.207 48.3137 47.0523C48.522 46.8977 48.7786 46.8235 49.0367 46.843C49.5955 46.8999 50.0133 47.3228 50.0318 47.8814C50.0479 48.3563 50.0383 48.8328 50.0383 49.3094C50.0383 50.6757 50.0383 52.0428 50.0383 53.491C50.3866 52.8416 50.8568 52.5347 51.5181 52.7775C52.2753 53.0567 52.2487 53.7297 52.2334 54.4011C52.5463 53.8328 52.9995 53.5341 53.6228 53.72C54.4236 53.9578 54.4293 54.6511 54.4293 55.3436C54.6389 55.0035 54.8865 54.7372 55.2784 54.6649C55.9824 54.535 56.5687 55.0229 56.584 55.7739C56.598 56.3909 56.5951 57.0087 56.5752 57.6273C56.5316 59.0293 56.3647 60.4078 55.8397 61.7261C55.7083 62.0557 55.5478 62.1767 55.1833 62.1743C52.7688 62.1548 50.3536 62.1605 47.9391 62.1702C47.6932 62.1702 47.6222 62.089 47.5359 61.8601C47.2628 61.1449 46.9508 60.4454 46.6013 59.7648C45.7795 58.2012 44.9134 56.662 44.0852 55.1017C43.9574 54.8498 43.8866 54.5726 43.878 54.2899C43.853 53.5203 44.5465 53.047 45.2368 53.3782C45.5284 53.5328 45.7843 53.7478 45.9876 54.009C46.6085 54.764 47.1972 55.5466 47.7988 56.3178L47.8609 56.3008Z" fill="white"/>
<path d="M55.3292 63.1614V64H47.7037V63.1614H55.3292Z" fill="white"/>
</g>
<defs>
<clipPath id="clip0_488_8765">
<rect width="26" height="30" fill="white" transform="translate(36 34)"/>
</clipPath>
</defs>
</svg>
