<svg width="100" height="156" viewBox="0 0 100 156" fill="none" xmlns="http://www.w3.org/2000/svg">
<rect width="100" height="156" rx="19" fill="#F9FBFF"/>
<path d="M26.4755 109.161C27.2222 109.161 27.8522 109.245 28.3655 109.413C28.8788 109.572 29.2895 109.842 29.5975 110.225C29.9055 110.608 30.1295 111.121 30.2695 111.765C30.4188 112.409 30.4935 113.212 30.4935 114.173C30.4935 115.125 30.4188 115.928 30.2695 116.581C30.1295 117.225 29.9055 117.738 29.5975 118.121C29.2895 118.504 28.8788 118.779 28.3655 118.947C27.8522 119.106 27.2222 119.185 26.4755 119.185C25.7475 119.185 25.1268 119.106 24.6135 118.947C24.1002 118.779 23.6848 118.504 23.3675 118.121C23.0502 117.738 22.8215 117.225 22.6815 116.581C22.5415 115.928 22.4715 115.125 22.4715 114.173C22.4715 113.212 22.5415 112.409 22.6815 111.765C22.8215 111.121 23.0502 110.608 23.3675 110.225C23.6848 109.842 24.1002 109.572 24.6135 109.413C25.1268 109.245 25.7475 109.161 26.4755 109.161ZM26.4755 110.589C25.9248 110.589 25.4908 110.701 25.1735 110.925C24.8655 111.14 24.6462 111.508 24.5155 112.031C24.3848 112.544 24.3195 113.258 24.3195 114.173C24.3195 115.088 24.3848 115.806 24.5155 116.329C24.6462 116.842 24.8655 117.211 25.1735 117.435C25.4908 117.65 25.9248 117.757 26.4755 117.757C27.0355 117.757 27.4695 117.65 27.7775 117.435C28.0948 117.211 28.3188 116.842 28.4495 116.329C28.5802 115.806 28.6455 115.088 28.6455 114.173C28.6455 113.258 28.5802 112.544 28.4495 112.031C28.3188 111.508 28.0948 111.14 27.7775 110.925C27.4695 110.701 27.0355 110.589 26.4755 110.589ZM36.8735 111.961C37.7228 111.961 38.3341 112.274 38.7075 112.899C39.0808 113.524 39.2675 114.43 39.2675 115.615C39.2675 116.52 39.1695 117.234 38.9735 117.757C38.7868 118.27 38.5021 118.639 38.1195 118.863C37.7368 119.078 37.2515 119.185 36.6635 119.185C36.1968 119.185 35.7395 119.12 35.2915 118.989C34.8528 118.849 34.4468 118.634 34.0735 118.345L34.1855 117.505C34.5495 117.608 34.8761 117.696 35.1655 117.771C35.4548 117.846 35.7721 117.883 36.1175 117.883C36.4628 117.883 36.7335 117.827 36.9295 117.715C37.1348 117.594 37.2841 117.37 37.3775 117.043C37.4708 116.716 37.5175 116.245 37.5175 115.629C37.5175 115.022 37.4755 114.551 37.3915 114.215C37.3075 113.879 37.1675 113.646 36.9715 113.515C36.7848 113.375 36.5375 113.305 36.2295 113.305C35.8935 113.305 35.5761 113.38 35.2775 113.529C34.9788 113.669 34.6335 113.879 34.2415 114.159L34.0455 113.263C34.2601 113.011 34.5168 112.787 34.8155 112.591C35.1235 112.395 35.4548 112.241 35.8095 112.129C36.1641 112.017 36.5188 111.961 36.8735 111.961ZM33.9755 112.129L34.1435 113.459L34.2975 113.655V118.093L34.2275 118.261C34.2555 118.532 34.2741 118.802 34.2835 119.073C34.2928 119.353 34.2975 119.638 34.2975 119.927V121.733H32.6035V112.129H33.9755ZM44.3746 111.961C45.4853 111.961 46.2833 112.157 46.7686 112.549C47.2539 112.932 47.5013 113.501 47.5106 114.257C47.5199 114.882 47.3706 115.358 47.0626 115.685C46.7639 116.002 46.2646 116.161 45.5646 116.161H41.6446V115.111H45.1026C45.4199 115.111 45.6206 115.027 45.7046 114.859C45.7979 114.691 45.8446 114.486 45.8446 114.243C45.8353 113.86 45.7233 113.594 45.5086 113.445C45.3033 113.296 44.9486 113.221 44.4446 113.221C44.0059 113.221 43.6653 113.282 43.4226 113.403C43.1799 113.524 43.0073 113.744 42.9046 114.061C42.8113 114.378 42.7646 114.836 42.7646 115.433C42.7646 116.068 42.8253 116.558 42.9466 116.903C43.0679 117.248 43.2686 117.486 43.5486 117.617C43.8286 117.738 44.2019 117.799 44.6686 117.799C45.0139 117.799 45.4106 117.785 45.8586 117.757C46.3159 117.729 46.7546 117.692 47.1746 117.645L47.3426 118.723C47.0906 118.826 46.8013 118.91 46.4746 118.975C46.1479 119.04 45.8073 119.087 45.4526 119.115C45.1073 119.152 44.7806 119.171 44.4726 119.171C43.6326 119.171 42.9559 119.05 42.4426 118.807C41.9386 118.555 41.5699 118.163 41.3366 117.631C41.1126 117.099 41.0006 116.413 41.0006 115.573C41.0006 114.668 41.1126 113.954 41.3366 113.431C41.5699 112.899 41.9339 112.521 42.4286 112.297C42.9326 112.073 43.5813 111.961 44.3746 111.961ZM53.9752 111.961C55.2539 111.961 55.8932 112.591 55.8932 113.851V119.003H54.1992V114.369C54.1992 113.996 54.1339 113.739 54.0032 113.599C53.8726 113.459 53.6532 113.389 53.3452 113.389C52.9999 113.389 52.6452 113.468 52.2812 113.627C51.9172 113.776 51.4786 113.996 50.9652 114.285L50.8952 113.263C51.3992 112.843 51.9126 112.521 52.4352 112.297C52.9579 112.073 53.4712 111.961 53.9752 111.961ZM50.8392 112.129L51.0072 113.473L51.1472 113.669V119.003H49.4532V112.129H50.8392ZM59.908 112.129V119.003H58.228V112.129H59.908ZM59.446 109.147C59.782 109.147 59.95 109.315 59.95 109.651V110.435C59.95 110.771 59.782 110.939 59.446 110.939H58.69C58.354 110.939 58.186 110.771 58.186 110.435V109.651C58.186 109.315 58.354 109.147 58.69 109.147H59.446ZM66.8055 111.961C68.0841 111.961 68.7235 112.591 68.7235 113.851V119.003H67.0295V114.369C67.0295 113.996 66.9641 113.739 66.8335 113.599C66.7028 113.459 66.4835 113.389 66.1755 113.389C65.8301 113.389 65.4755 113.468 65.1115 113.627C64.7475 113.776 64.3088 113.996 63.7955 114.285L63.7255 113.263C64.2295 112.843 64.7428 112.521 65.2655 112.297C65.7881 112.073 66.3015 111.961 66.8055 111.961ZM63.6695 112.129L63.8375 113.473L63.9775 113.669V119.003H62.2835V112.129H63.6695ZM73.9143 111.961C74.6889 111.961 75.3003 112.036 75.7483 112.185C76.2056 112.325 76.5323 112.558 76.7283 112.885C76.9243 113.202 77.0223 113.622 77.0223 114.145C77.0223 114.649 76.9243 115.064 76.7283 115.391C76.5323 115.708 76.2056 115.942 75.7483 116.091C75.2909 116.24 74.6749 116.315 73.9003 116.315C73.1256 116.315 72.5096 116.24 72.0523 116.091C71.6043 115.942 71.2776 115.708 71.0723 115.391C70.8763 115.074 70.7783 114.658 70.7783 114.145C70.7783 113.622 70.8763 113.202 71.0723 112.885C71.2776 112.558 71.6089 112.325 72.0663 112.185C72.5236 112.036 73.1396 111.961 73.9143 111.961ZM73.9003 113.067C73.3123 113.067 72.9063 113.146 72.6823 113.305C72.4583 113.464 72.3463 113.744 72.3463 114.145C72.3463 114.528 72.4583 114.803 72.6823 114.971C72.9063 115.13 73.3123 115.209 73.9003 115.209C74.4883 115.209 74.8896 115.13 75.1043 114.971C75.3283 114.803 75.4403 114.528 75.4403 114.145C75.4403 113.744 75.3283 113.464 75.1043 113.305C74.8896 113.146 74.4883 113.067 73.9003 113.067ZM77.8203 112.129L77.7223 112.913L75.9303 113.109L75.4263 112.129H77.8203ZM71.8983 115.895L72.7663 116.021C72.6263 116.133 72.5283 116.278 72.4723 116.455C72.4256 116.623 72.4396 116.786 72.5143 116.945C72.5983 117.094 72.7756 117.188 73.0463 117.225L75.5943 117.561C76.2849 117.645 76.7703 117.85 77.0503 118.177C77.3303 118.494 77.4703 118.956 77.4703 119.563C77.4703 120.132 77.3583 120.576 77.1343 120.893C76.9103 121.21 76.5416 121.43 76.0283 121.551C75.5243 121.682 74.8429 121.747 73.9843 121.747C73.3029 121.747 72.7383 121.71 72.2903 121.635C71.8423 121.57 71.4829 121.453 71.2123 121.285C70.9509 121.126 70.7643 120.916 70.6523 120.655C70.5403 120.403 70.4843 120.086 70.4843 119.703C70.4843 119.404 70.5309 119.152 70.6243 118.947C70.7269 118.742 70.8903 118.56 71.1143 118.401C71.3383 118.233 71.6416 118.079 72.0243 117.939L72.9763 117.533L73.6343 117.771L73.0183 118.205C72.8036 118.364 72.6263 118.508 72.4863 118.639C72.3556 118.76 72.2576 118.882 72.1923 119.003C72.1363 119.134 72.1083 119.297 72.1083 119.493C72.1083 119.754 72.1596 119.955 72.2623 120.095C72.3743 120.235 72.5656 120.328 72.8363 120.375C73.1069 120.431 73.4849 120.459 73.9703 120.459C74.4649 120.459 74.8476 120.431 75.1183 120.375C75.3889 120.328 75.5756 120.235 75.6783 120.095C75.7903 119.964 75.8463 119.773 75.8463 119.521C75.8463 119.316 75.8136 119.162 75.7483 119.059C75.6829 118.966 75.5663 118.891 75.3983 118.835C75.2303 118.779 74.9969 118.732 74.6983 118.695L72.4023 118.415C72.0756 118.378 71.8143 118.284 71.6183 118.135C71.4316 117.976 71.3009 117.79 71.2263 117.575C71.1516 117.351 71.1283 117.132 71.1563 116.917C71.1936 116.693 71.2729 116.488 71.3943 116.301C71.5249 116.114 71.6929 115.979 71.8983 115.895ZM34.3463 127.315C34.8317 127.315 35.3263 127.315 35.8303 127.315C36.3437 127.315 36.8477 127.324 37.3423 127.343C37.837 127.362 38.3037 127.39 38.7423 127.427L38.6583 128.729H34.8783C34.617 128.729 34.421 128.794 34.2903 128.925C34.169 129.056 34.1083 129.261 34.1083 129.541V134.805C34.1083 135.085 34.169 135.29 34.2903 135.421C34.421 135.552 34.617 135.617 34.8783 135.617H38.6583L38.7423 136.919C38.3037 136.956 37.837 136.984 37.3423 137.003C36.8477 137.012 36.3437 137.017 35.8303 137.017C35.3263 137.026 34.8317 137.031 34.3463 137.031C33.749 137.031 33.2683 136.868 32.9043 136.541C32.5497 136.205 32.3677 135.757 32.3583 135.197V129.149C32.3677 128.589 32.5497 128.146 32.9043 127.819C33.2683 127.483 33.749 127.315 34.3463 127.315ZM32.6103 131.305H38.1263V132.593H32.6103V131.305ZM45.2427 129.961C46.5214 129.961 47.1607 130.591 47.1607 131.851V137.003H45.4667V132.369C45.4667 131.996 45.4014 131.739 45.2707 131.599C45.1401 131.459 44.9207 131.389 44.6127 131.389C44.2674 131.389 43.9127 131.468 43.5487 131.627C43.1847 131.776 42.7461 131.996 42.2327 132.285L42.1627 131.263C42.6667 130.843 43.1801 130.521 43.7027 130.297C44.2254 130.073 44.7387 129.961 45.2427 129.961ZM42.1067 130.129L42.2747 131.473L42.4147 131.669V137.003H40.7207V130.129H42.1067ZM51.7075 128.169V134.931C51.7075 135.22 51.7682 135.426 51.8895 135.547C52.0202 135.668 52.2395 135.729 52.5475 135.729H53.4995L53.6815 136.919C53.5229 136.966 53.3315 137.008 53.1075 137.045C52.8835 137.082 52.6642 137.106 52.4495 137.115C52.2349 137.134 52.0529 137.143 51.9035 137.143C51.3062 137.143 50.8395 136.984 50.5035 136.667C50.1769 136.34 50.0135 135.874 50.0135 135.267V128.169H51.7075ZM53.7515 130.129V131.305H48.7955V130.199L50.1395 130.129H53.7515ZM56.74 130.129L56.964 131.473L57.118 131.669V137.003H55.424V130.129H56.74ZM60.1 129.961L59.932 131.529H59.442C59.078 131.529 58.7093 131.59 58.336 131.711C57.9627 131.832 57.496 132.014 56.936 132.257L56.824 131.263C57.3093 130.852 57.804 130.535 58.308 130.311C58.812 130.078 59.2973 129.961 59.764 129.961H60.1ZM68.2342 130.129L65.6582 137.213C65.5369 137.54 65.3829 137.862 65.1962 138.179C65.0189 138.506 64.7902 138.8 64.5102 139.061C64.2302 139.322 63.8989 139.528 63.5162 139.677C63.1336 139.826 62.6902 139.882 62.1862 139.845L62.0462 138.837C62.6062 138.678 63.0402 138.464 63.3482 138.193C63.6656 137.922 63.9129 137.577 64.0902 137.157L64.4682 136.261C64.5522 136.056 64.6316 135.822 64.7062 135.561C64.7902 135.29 64.8602 135.057 64.9162 134.861L66.4142 130.129H68.2342ZM62.6902 130.129L64.2162 134.861C64.2629 135.02 64.3049 135.183 64.3422 135.351C64.3796 135.51 64.4122 135.668 64.4402 135.827H64.7902L64.2582 137.003H63.8102C63.6796 137.003 63.5629 136.966 63.4602 136.891C63.3576 136.816 63.2876 136.714 63.2502 136.583L60.8842 130.129H62.6902Z" fill="#333839"/>
<path d="M90.3996 53.6045L53.7441 90.2501" stroke="white" stroke-width="6.29" stroke-miterlimit="10"/>
<path d="M90.3996 53.6045L53.7441 90.2501" stroke="#924956" stroke-width="3.42" stroke-miterlimit="10"/>
<path d="M8.6601 52.6614L6 50.0013L45.9905 10.001" stroke="white" stroke-width="6.29" stroke-miterlimit="10"/>
<path d="M8.6601 52.6614L6 50.0013L45.9905 10.001" stroke="#924956" stroke-width="3.42" stroke-miterlimit="10"/>
<path d="M68.6358 87.9313H31.3153L12 68.6358V31.3153L31.3153 12H68.6358L87.9512 31.3153V68.6358L68.6358 87.9313Z" fill="#924956"/>
<path d="M53.7425 90.2506L50.0005 94.0025L8.66016 52.6621" stroke="white" stroke-width="6.29" stroke-miterlimit="10"/>
<path d="M53.7425 90.2506L50.0005 94.0025L8.66016 52.6621" stroke="#924956" stroke-width="3.42" stroke-miterlimit="10"/>
<path d="M45.9893 10L49.9992 6L93.9997 50.0004L90.3967 53.6034" stroke="white" stroke-width="6.29" stroke-miterlimit="10"/>
<path d="M45.9893 10L49.9992 6L93.9997 50.0004L90.3967 53.6034" stroke="#924956" stroke-width="3.42" stroke-miterlimit="10"/>
<path d="M52.4408 62.614V64.295C52.8377 64.3417 53.2296 64.3498 53.6021 64.4381C54.3363 64.6065 54.9882 65.0271 55.4443 65.6266C55.9004 66.226 56.1318 66.9665 56.0983 67.719C56.0881 68.0428 55.9166 68.2266 55.5958 68.2459C55.5278 68.2459 55.4598 68.2459 55.3928 68.2459H43.5717C42.9809 68.2459 42.8408 68.1048 42.854 67.5251C42.8956 65.7243 44.2335 64.3661 46.0415 64.291C46.143 64.291 46.2506 64.2808 46.3694 64.2747V62.5703H36.8272C35.6497 62.5703 35 61.9227 35 60.7431C35 54.7661 35 48.7894 35 42.813C35 41.6558 35.6578 41 36.815 41H62.1504C63.3097 41 64 41.6964 64 42.8617C64 48.8388 64 54.8155 64 60.7918C64 61.9684 63.3534 62.6109 62.1677 62.6109H52.4439L52.4408 62.614ZM35.9004 57.3232H63.0509V42.882C63.0509 42.1451 62.8275 41.9207 62.0946 41.9207C53.6806 41.9207 45.2659 41.9207 36.8506 41.9207C36.1329 41.9207 35.9014 42.1491 35.9014 42.8587C35.9014 47.5682 35.9014 52.2766 35.9014 56.9841L35.9004 57.3232ZM49.4716 61.2436C49.8411 61.2449 50.1963 61.1005 50.4601 60.8417C50.7239 60.5829 50.875 60.2305 50.8806 59.861C50.8822 59.4865 50.736 59.1265 50.4737 58.8592C50.2113 58.592 49.8541 58.439 49.4797 58.4337C49.1049 58.4369 48.7465 58.5881 48.4826 58.8542C48.2187 59.1204 48.0707 59.4801 48.0707 59.8549C48.0747 60.224 48.224 60.5768 48.4862 60.8367C48.7484 61.0966 49.1024 61.2428 49.4716 61.2436ZM45.8547 61.2436C46.2282 61.232 46.5826 61.0757 46.8431 60.8076C47.1035 60.5396 47.2496 60.1809 47.2505 59.8072C47.2454 59.0631 46.5825 58.4235 45.8293 58.4337C45.461 58.4432 45.1108 58.5953 44.8525 58.8579C44.5942 59.1206 44.448 59.4733 44.4447 59.8417C44.4444 60.0265 44.4808 60.2096 44.5516 60.3804C44.6225 60.5511 44.7265 60.7061 44.8576 60.8364C44.9887 60.9668 45.1443 61.0699 45.3154 61.1397C45.4866 61.2096 45.6698 61.2449 45.8547 61.2436ZM52.8682 61.2436C53.2423 61.2412 53.6003 61.0913 53.8647 60.8266C54.129 60.5619 54.2783 60.2036 54.2802 59.8295C54.2763 59.4607 54.1281 59.1081 53.8674 58.8472C53.6067 58.5864 53.2542 58.4379 52.8854 58.4337C52.511 58.4356 52.1524 58.5851 51.8876 58.8499C51.6228 59.1147 51.4732 59.4733 51.4714 59.8478C51.4759 60.2171 51.6248 60.57 51.8862 60.8308C52.1477 61.0917 52.5009 61.2399 52.8702 61.2436H52.8682Z" fill="white"/>
<path d="M42.4238 55.7544H37.7725C37.2649 55.7544 37.1289 55.6224 37.1289 55.1199C37.1289 54.3982 37.1289 53.6764 37.1289 52.9557C37.1401 51.1417 38.5003 49.7773 40.3144 49.7692C41.7477 49.7631 43.1811 49.7631 44.6144 49.7692C46.4071 49.7773 47.7562 51.1092 47.7887 52.9029C47.8019 53.6541 47.7887 54.4043 47.7887 55.1555C47.7887 55.594 47.6293 55.7534 47.1898 55.7544C45.6028 55.7557 44.0141 55.7557 42.4238 55.7544Z" fill="white"/>
<path d="M55.3061 48.9988H49.4539C48.9464 48.9988 48.7911 48.8415 48.79 48.3339C48.79 47.3107 48.79 46.2867 48.79 45.2621C48.79 44.78 48.9382 44.6338 49.4225 44.6338C53.3334 44.6338 57.244 44.6338 61.1542 44.6338C61.6405 44.6338 61.8222 44.8196 61.8222 45.3078C61.8222 46.323 61.8222 47.3381 61.8222 48.3532C61.8222 48.8689 61.6851 49.0029 61.1573 49.0029L55.3061 48.9988ZM55.3193 46.4184C55.232 46.4184 55.1437 46.4184 55.0564 46.4184C54.7985 46.4377 54.6727 46.5909 54.6564 46.8376C54.6489 46.9509 54.6853 47.0627 54.7581 47.1499C54.8309 47.237 54.9344 47.2928 55.0473 47.3056C55.1332 47.3146 55.2197 47.3176 55.3061 47.3147C55.7873 47.3147 56.0167 47.1665 56.0076 46.8539C55.9984 46.5412 55.7893 46.4123 55.3193 46.4184ZM51.2588 46.4184C51.1908 46.4184 51.1228 46.4184 51.0558 46.4184C50.7513 46.4336 50.5787 46.594 50.5767 46.8528C50.5746 47.1117 50.7736 47.3036 51.068 47.3168C51.1695 47.3218 51.2811 47.3168 51.3877 47.3168C51.7176 47.3097 51.9217 47.1432 51.9288 46.8742C51.9359 46.6052 51.7258 46.4275 51.405 46.4163C51.3542 46.4113 51.3065 46.4133 51.2578 46.4133L51.2588 46.4184ZM53.2941 46.4184C53.2068 46.4184 53.1185 46.4113 53.0322 46.4184C52.9242 46.4191 52.8207 46.462 52.7438 46.5378C52.6668 46.6136 52.6225 46.7164 52.6201 46.8244C52.614 46.9369 52.6496 47.0478 52.72 47.1357C52.7904 47.2237 52.8907 47.2827 53.0018 47.3015C53.0981 47.3127 53.1952 47.3158 53.2921 47.3107C53.7469 47.3107 53.9692 47.1645 53.9712 46.861C53.9733 46.5574 53.7489 46.4133 53.2931 46.4174L53.2941 46.4184Z" fill="white"/>
<path d="M55.3284 55.491H49.4783C48.9382 55.491 48.79 55.3408 48.79 54.7916C48.79 53.788 48.79 52.784 48.79 51.7798C48.79 51.2894 48.9525 51.125 49.4357 51.125H61.1349C61.6425 51.125 61.8222 51.3047 61.8222 51.8082C61.8222 52.8314 61.8222 53.855 61.8222 54.8789C61.8222 55.3388 61.6709 55.488 61.208 55.488L55.3284 55.491ZM55.1356 53.7552C55.1934 53.7552 55.2523 53.7552 55.3102 53.7552C55.6066 53.741 55.7863 53.5745 55.7863 53.3156C55.7863 53.0568 55.5995 52.8761 55.3183 52.8609C55.1918 52.8538 55.0651 52.8538 54.9386 52.8609C54.8163 52.8631 54.6995 52.9124 54.6124 52.9983C54.5253 53.0843 54.4745 53.2004 54.4707 53.3227C54.4757 53.5623 54.6605 53.7369 54.9315 53.7542C55.0016 53.7582 55.0676 53.7552 55.1356 53.7552ZM57.0643 53.7491V53.7552C57.1323 53.7552 57.2003 53.7552 57.2673 53.7552C57.5556 53.74 57.716 53.5928 57.7251 53.3349C57.7301 53.2743 57.7223 53.2132 57.7023 53.1557C57.6823 53.0983 57.6504 53.0456 57.6089 53.0011C57.5673 52.9567 57.5169 52.9214 57.4608 52.8976C57.4048 52.8738 57.3444 52.862 57.2836 52.8629C57.1288 52.8487 56.973 52.8507 56.8186 52.869C56.7111 52.879 56.6113 52.9296 56.5397 53.0105C56.468 53.0913 56.4298 53.1965 56.4329 53.3045C56.4258 53.5522 56.5659 53.7024 56.8075 53.7471C56.8942 53.7554 56.9815 53.756 57.0684 53.7491H57.0643ZM53.1449 53.7491C53.2129 53.7491 53.2809 53.7491 53.3479 53.7491C53.6525 53.7359 53.8179 53.5857 53.821 53.3136C53.824 53.0415 53.6494 52.87 53.3632 52.8548C53.2177 52.8453 53.0718 52.847 52.9267 52.8598C52.8149 52.8728 52.7116 52.9258 52.6358 53.009C52.56 53.0922 52.517 53.2001 52.5145 53.3126C52.5175 53.4252 52.563 53.5326 52.6419 53.613C52.7208 53.6934 52.8273 53.741 52.9399 53.746C53.0129 53.7582 53.081 53.7532 53.149 53.7532L53.1449 53.7491ZM51.2162 53.7491C51.274 53.7491 51.3319 53.7491 51.3908 53.7491C51.6953 53.7379 51.8679 53.5877 51.874 53.3258C51.8801 53.0639 51.6811 52.8669 51.3918 52.8548C51.2467 52.8443 51.1009 52.847 50.9563 52.8629C50.8447 52.8786 50.7432 52.936 50.6724 53.0236C50.6015 53.1113 50.5666 53.2225 50.5746 53.3349C50.5772 53.4418 50.6208 53.5436 50.6964 53.6192C50.772 53.6948 50.8738 53.7384 50.9807 53.741C51.0596 53.7495 51.1389 53.7532 51.2182 53.7521L51.2162 53.7491ZM58.7352 53.812V53.8019C58.793 53.8019 58.8509 53.8019 58.9098 53.8019C59.192 53.7836 59.4173 53.5765 59.4113 53.3339C59.4113 53.1075 59.192 52.9136 58.9138 52.9015C58.7689 52.8908 58.6232 52.8959 58.4794 52.9167C58.3765 52.9295 58.2819 52.9794 58.2132 53.0569C58.1444 53.1344 58.1062 53.2343 58.1058 53.338C58.0967 53.4364 58.1232 53.5349 58.1806 53.6154C58.238 53.6959 58.3224 53.7531 58.4185 53.7765C58.5232 53.7994 58.63 53.8113 58.7372 53.812H58.7352Z" fill="white"/>
<path d="M44.9301 46.269C44.9317 46.613 44.8655 46.954 44.7352 47.2725C44.6049 47.5909 44.4132 47.8805 44.1709 48.1248C43.9286 48.3691 43.6405 48.5632 43.3231 48.6961C43.0058 48.8289 42.6653 48.898 42.3213 48.8991C41.9749 48.9014 41.6316 48.8353 41.3108 48.7045C40.9901 48.5737 40.6984 48.3809 40.4524 48.1371C40.2065 47.8932 40.011 47.6032 39.8774 47.2837C39.7438 46.9642 39.6746 46.6214 39.6738 46.2751C39.6762 45.5758 39.9551 44.9059 40.4495 44.4114C40.944 43.917 41.6139 43.6382 42.3131 43.6357C43.0082 43.6416 43.6729 43.9215 44.1629 44.4145C44.6528 44.9075 44.9285 45.5739 44.9301 46.269Z" fill="white"/>
</svg>
