<svg width="100" height="156" viewBox="0 0 100 156" fill="none" xmlns="http://www.w3.org/2000/svg">
<rect width="100" height="156" rx="19" fill="#F9FBFF"/>
<path d="M37.8454 109.214C38.6948 109.214 39.3621 109.307 39.8474 109.494C40.3328 109.671 40.6781 109.984 40.8834 110.432C41.0981 110.871 41.2054 111.496 41.2054 112.308C41.2054 113.12 41.1028 113.75 40.8974 114.198C40.7014 114.646 40.3701 114.959 39.9034 115.136C39.4461 115.313 38.8348 115.402 38.0694 115.402C37.6494 115.402 37.2434 115.388 36.8514 115.36C36.4688 115.332 36.1094 115.295 35.7734 115.248C35.4468 115.201 35.1668 115.155 34.9334 115.108C34.7001 115.052 34.5368 115.005 34.4434 114.968L34.4854 114.03C35.0174 114.03 35.5634 114.03 36.1234 114.03C36.6928 114.03 37.2574 114.03 37.8174 114.03C38.2281 114.021 38.5501 113.969 38.7834 113.876C39.0261 113.783 39.1941 113.615 39.2874 113.372C39.3901 113.12 39.4414 112.765 39.4414 112.308C39.4414 111.851 39.3901 111.501 39.2874 111.258C39.1941 111.006 39.0261 110.833 38.7834 110.74C38.5501 110.637 38.2281 110.586 37.8174 110.586C36.9961 110.586 36.2914 110.591 35.7034 110.6C35.1154 110.609 34.7141 110.623 34.4994 110.642L34.3034 109.34C34.6768 109.303 35.0268 109.275 35.3534 109.256C35.6894 109.237 36.0488 109.228 36.4314 109.228C36.8234 109.219 37.2948 109.214 37.8454 109.214ZM36.0534 109.34V119H34.3034V109.34H36.0534ZM44.4037 112.126L44.6277 113.47L44.7817 113.666V119H43.0877V112.126H44.4037ZM47.7637 111.958L47.5957 113.526H47.1057C46.7417 113.526 46.373 113.587 45.9997 113.708C45.6263 113.829 45.1597 114.011 44.5997 114.254L44.4877 113.26C44.973 112.849 45.4677 112.532 45.9717 112.308C46.4757 112.075 46.961 111.958 47.4277 111.958H47.7637ZM51.0679 112.126V119H49.3879V112.126H51.0679ZM50.6059 109.144C50.9419 109.144 51.1099 109.312 51.1099 109.648V110.432C51.1099 110.768 50.9419 110.936 50.6059 110.936H49.8499C49.5139 110.936 49.3459 110.768 49.3459 110.432V109.648C49.3459 109.312 49.5139 109.144 49.8499 109.144H50.6059ZM57.9653 111.958C59.244 111.958 59.8833 112.588 59.8833 113.848V119H58.1893V114.366C58.1893 113.993 58.124 113.736 57.9933 113.596C57.8626 113.456 57.6433 113.386 57.3353 113.386C56.99 113.386 56.6353 113.465 56.2713 113.624C55.9073 113.773 55.4686 113.993 54.9553 114.282L54.8853 113.26C55.3893 112.84 55.9026 112.518 56.4253 112.294C56.948 112.07 57.4613 111.958 57.9653 111.958ZM54.8293 112.126L54.9973 113.47L55.1373 113.666V119H53.4433V112.126H54.8293ZM64.4301 110.166V116.928C64.4301 117.217 64.4908 117.423 64.6121 117.544C64.7428 117.665 64.9621 117.726 65.2701 117.726H66.2221L66.4041 118.916C66.2455 118.963 66.0541 119.005 65.8301 119.042C65.6061 119.079 65.3868 119.103 65.1721 119.112C64.9575 119.131 64.7755 119.14 64.6261 119.14C64.0288 119.14 63.5621 118.981 63.2261 118.664C62.8995 118.337 62.7361 117.871 62.7361 117.264V110.166H64.4301ZM66.4741 112.126V113.302H61.5181V112.196L62.8621 112.126H66.4741ZM36.1632 127.34C36.6019 127.34 36.8259 127.564 36.8352 128.012L37.2132 137H35.5472L35.2112 128.726H34.9452L33.1392 135.208C33.0552 135.591 32.8172 135.782 32.4252 135.782H31.1932C30.7919 135.782 30.5446 135.591 30.4512 135.208L28.6452 128.726H28.3792L28.0712 137H26.4052L26.7832 128.012C26.8019 127.564 27.0259 127.34 27.4552 127.34H29.2052C29.5786 127.34 29.8119 127.531 29.9052 127.914L31.3892 133.206C31.4546 133.43 31.5059 133.654 31.5432 133.878C31.5899 134.102 31.6412 134.326 31.6972 134.55H31.9072C31.9632 134.326 32.0146 134.102 32.0612 133.878C32.1079 133.654 32.1592 133.425 32.2152 133.192L33.6992 127.914C33.7832 127.531 34.0212 127.34 34.4132 127.34H36.1632ZM42.945 129.958C43.4957 129.958 43.9577 130.033 44.331 130.182C44.7137 130.322 45.003 130.565 45.199 130.91C45.395 131.255 45.493 131.731 45.493 132.338V137H44.149L43.911 135.516L43.785 135.32V132.324C43.785 131.96 43.701 131.699 43.533 131.54C43.365 131.372 43.043 131.288 42.567 131.288C42.2124 131.288 41.7644 131.302 41.223 131.33C40.691 131.358 40.1544 131.395 39.613 131.442L39.459 130.28C39.7857 130.215 40.1544 130.159 40.565 130.112C40.9757 130.065 41.391 130.028 41.811 130C42.231 129.972 42.609 129.958 42.945 129.958ZM44.765 132.772L44.751 133.822H41.601C41.321 133.831 41.1204 133.906 40.999 134.046C40.8777 134.186 40.817 134.377 40.817 134.62V134.998C40.817 135.278 40.8917 135.493 41.041 135.642C41.1904 135.782 41.4237 135.852 41.741 135.852C41.993 135.852 42.273 135.801 42.581 135.698C42.889 135.595 43.1924 135.446 43.491 135.25C43.799 135.054 44.0744 134.821 44.317 134.55V135.432C44.2237 135.572 44.0884 135.74 43.911 135.936C43.7337 136.123 43.5144 136.309 43.253 136.496C43.001 136.683 42.707 136.837 42.371 136.958C42.0444 137.079 41.6804 137.14 41.279 137.14C40.8684 137.14 40.4997 137.07 40.173 136.93C39.8464 136.781 39.5897 136.566 39.403 136.286C39.2164 135.997 39.123 135.642 39.123 135.222V134.494C39.123 133.953 39.3004 133.533 39.655 133.234C40.019 132.926 40.5137 132.772 41.139 132.772H44.765ZM50.2327 129.958C50.55 129.958 50.8907 129.967 51.2547 129.986C51.628 130.005 51.992 130.033 52.3467 130.07C52.7014 130.098 53.0187 130.14 53.2987 130.196L53.1867 131.302C52.7387 131.293 52.2907 131.283 51.8427 131.274C51.404 131.255 50.97 131.246 50.5407 131.246C50.158 131.246 49.8547 131.255 49.6307 131.274C49.416 131.293 49.262 131.349 49.1687 131.442C49.0847 131.535 49.0427 131.694 49.0427 131.918C49.0427 132.189 49.1174 132.371 49.2667 132.464C49.416 132.548 49.6587 132.632 49.9947 132.716L51.8707 133.15C52.4307 133.29 52.846 133.505 53.1167 133.794C53.3874 134.074 53.5227 134.508 53.5227 135.096C53.5227 135.665 53.4154 136.099 53.2007 136.398C52.9954 136.687 52.664 136.888 52.2067 137C51.7587 137.103 51.1847 137.154 50.4847 137.154C50.214 137.154 49.8127 137.14 49.2807 137.112C48.7487 137.093 48.1654 137.033 47.5307 136.93L47.6427 135.824C47.8294 135.824 48.0487 135.829 48.3007 135.838C48.562 135.847 48.8374 135.852 49.1267 135.852C49.4254 135.852 49.7287 135.852 50.0367 135.852C50.5314 135.852 50.9094 135.838 51.1707 135.81C51.4414 135.773 51.628 135.703 51.7307 135.6C51.8334 135.488 51.8847 135.329 51.8847 135.124C51.8847 134.863 51.796 134.69 51.6187 134.606C51.4507 134.513 51.1987 134.424 50.8627 134.34L49.0287 133.892C48.6087 133.78 48.282 133.64 48.0487 133.472C47.8154 133.295 47.6474 133.08 47.5447 132.828C47.442 132.567 47.3907 132.249 47.3907 131.876C47.3907 131.372 47.484 130.98 47.6707 130.7C47.8667 130.42 48.17 130.224 48.5807 130.112C49.0007 130 49.5514 129.949 50.2327 129.958ZM57.7435 128.166V134.928C57.7435 135.217 57.8041 135.423 57.9255 135.544C58.0561 135.665 58.2755 135.726 58.5835 135.726H59.5355L59.7175 136.916C59.5588 136.963 59.3675 137.005 59.1435 137.042C58.9195 137.079 58.7001 137.103 58.4855 137.112C58.2708 137.131 58.0888 137.14 57.9395 137.14C57.3421 137.14 56.8755 136.981 56.5395 136.664C56.2128 136.337 56.0495 135.871 56.0495 135.264V128.166H57.7435ZM59.7875 130.126V131.302H54.8315V130.196L56.1755 130.126H59.7875ZM64.5259 129.958C65.6366 129.958 66.4346 130.154 66.9199 130.546C67.4053 130.929 67.6526 131.498 67.6619 132.254C67.6713 132.879 67.5219 133.355 67.2139 133.682C66.9153 133.999 66.4159 134.158 65.7159 134.158H61.7959V133.108H65.2539C65.5713 133.108 65.7719 133.024 65.8559 132.856C65.9493 132.688 65.9959 132.483 65.9959 132.24C65.9866 131.857 65.8746 131.591 65.6599 131.442C65.4546 131.293 65.0999 131.218 64.5959 131.218C64.1573 131.218 63.8166 131.279 63.5739 131.4C63.3313 131.521 63.1586 131.741 63.0559 132.058C62.9626 132.375 62.9159 132.833 62.9159 133.43C62.9159 134.065 62.9766 134.555 63.0979 134.9C63.2193 135.245 63.4199 135.483 63.6999 135.614C63.9799 135.735 64.3533 135.796 64.8199 135.796C65.1653 135.796 65.5619 135.782 66.0099 135.754C66.4673 135.726 66.9059 135.689 67.3259 135.642L67.4939 136.72C67.2419 136.823 66.9526 136.907 66.6259 136.972C66.2993 137.037 65.9586 137.084 65.6039 137.112C65.2586 137.149 64.9319 137.168 64.6239 137.168C63.7839 137.168 63.1073 137.047 62.5939 136.804C62.0899 136.552 61.7213 136.16 61.4879 135.628C61.2639 135.096 61.1519 134.41 61.1519 133.57C61.1519 132.665 61.2639 131.951 61.4879 131.428C61.7213 130.896 62.0853 130.518 62.5799 130.294C63.0839 130.07 63.7326 129.958 64.5259 129.958ZM70.9205 130.126L71.1445 131.47L71.2985 131.666V137H69.6045V130.126H70.9205ZM74.2805 129.958L74.1125 131.526H73.6225C73.2585 131.526 72.8899 131.587 72.5165 131.708C72.1432 131.829 71.6765 132.011 71.1165 132.254L71.0045 131.26C71.4899 130.849 71.9845 130.532 72.4885 130.308C72.9925 130.075 73.4779 129.958 73.9445 129.958H74.2805Z" fill="#333839"/>
<path d="M90.3994 53.6045L53.7439 90.2501" stroke="white" stroke-width="6.29" stroke-miterlimit="10"/>
<path d="M90.3994 53.6045L53.7439 90.2501" stroke="#E66978" stroke-width="3.42" stroke-miterlimit="10"/>
<path d="M8.6601 52.6616L6 50.0016L45.9905 10.0012" stroke="white" stroke-width="6.29" stroke-miterlimit="10"/>
<path d="M8.6601 52.6616L6 50.0016L45.9905 10.0012" stroke="#E66978" stroke-width="3.42" stroke-miterlimit="10"/>
<path d="M68.6358 87.9313H31.3153L12 68.6358V31.3153L31.3153 12H68.6358L87.9512 31.3153V68.6358L68.6358 87.9313Z" fill="#E66978"/>
<path d="M53.742 90.2506L50.0001 94.0025L8.65967 52.6621" stroke="white" stroke-width="6.29" stroke-miterlimit="10"/>
<path d="M53.742 90.2506L50.0001 94.0025L8.65967 52.6621" stroke="#E66978" stroke-width="3.42" stroke-miterlimit="10"/>
<path d="M45.9895 10L49.9995 6L93.9999 50.0004L90.3969 53.6034" stroke="white" stroke-width="6.29" stroke-miterlimit="10"/>
<path d="M45.9895 10L49.9995 6L93.9999 50.0004L90.3969 53.6034" stroke="#E66978" stroke-width="3.42" stroke-miterlimit="10"/>
<path d="M63.9956 58.5813C63.962 58.6734 63.9262 58.7647 63.8948 58.8582C63.7708 59.2328 63.5336 59.5598 63.216 59.794C62.8983 60.0281 62.5158 60.158 62.1213 60.1657C61.9306 60.1701 61.7385 60.1657 61.5471 60.1657H38.0396C37.0849 60.1657 36.3596 59.6683 36.0995 58.8275C36.0384 58.6182 36.0072 58.4013 36.0068 58.1832C35.9973 57.135 35.9995 56.0876 36.0031 55.0423C36.0075 53.886 36.8293 53.062 37.9856 53.0613C45.9953 53.0613 54.0059 53.0613 62.0175 53.0613C62.992 53.0613 63.6881 53.6047 63.9511 54.5536C63.9643 54.586 63.9807 54.6171 64 54.6464L63.9956 58.5813ZM57.6867 57.1613C58.3872 57.1613 59.0877 57.1613 59.7882 57.1613C60.3419 57.1613 60.7137 56.8304 60.7159 56.3432C60.7181 55.856 60.3441 55.5222 59.7926 55.5215C58.4003 55.5215 57.0086 55.5215 55.6173 55.5215C55.0709 55.5215 54.6962 55.8655 54.7028 56.3527C54.7101 56.8282 55.0797 57.1562 55.6122 57.1606C56.3039 57.1613 56.9949 57.1613 57.6867 57.1613ZM40.0988 57.4338C40.3142 57.4325 40.5207 57.3474 40.6744 57.1964C40.828 57.0454 40.9169 56.8405 40.922 56.6252C40.9227 56.4094 40.839 56.2019 40.689 56.0469C40.5389 55.8919 40.3342 55.8017 40.1185 55.7954C40.0096 55.7942 39.9015 55.8146 39.8004 55.8553C39.6994 55.896 39.6074 55.9562 39.5297 56.0326C39.452 56.1089 39.3901 56.1999 39.3476 56.3002C39.3052 56.4005 39.2829 56.5082 39.2821 56.6171C39.2855 56.8325 39.3727 57.0381 39.5252 57.1903C39.6776 57.3425 39.8834 57.4293 40.0988 57.4323V57.4338ZM44.2032 56.6113C44.2 56.396 44.1131 56.1904 43.9609 56.0381C43.8088 55.8858 43.6033 55.7988 43.388 55.7954C43.1726 55.7968 42.9663 55.882 42.8126 56.033C42.659 56.1839 42.5701 56.3887 42.5648 56.604C42.5648 56.7131 42.5863 56.8211 42.6282 56.9218C42.6701 57.0226 42.7314 57.114 42.8087 57.191C42.886 57.268 42.9778 57.3289 43.0787 57.3703C43.1796 57.4117 43.2877 57.4328 43.3968 57.4323C43.6111 57.4259 43.8146 57.3366 43.9645 57.1832C44.1143 57.0298 44.1989 56.8243 44.2003 56.6098L44.2032 56.6113ZM47.4837 56.6237C47.484 56.4082 47.4002 56.2011 47.2501 56.0464C47.1001 55.8917 46.8956 55.8017 46.6802 55.7954C46.4648 55.7937 46.2572 55.8758 46.1013 56.0244C45.9453 56.173 45.8533 56.3764 45.8445 56.5916C45.8428 56.7005 45.8625 56.8087 45.9027 56.91C45.9428 57.0113 46.0025 57.1037 46.0783 57.1819C46.1541 57.2602 46.2447 57.3227 46.3447 57.3659C46.4447 57.4091 46.5522 57.4322 46.6612 57.4338C46.8776 57.4331 47.0851 57.3478 47.2394 57.1962C47.3938 57.0445 47.4828 56.8386 47.4873 56.6222L47.4837 56.6237Z" fill="white"/>
<path d="M40.4312 36C40.5152 36.0307 40.5978 36.0643 40.6825 36.092C41.0637 36.2124 41.3975 36.4495 41.6367 36.7699C41.8759 37.0902 42.0084 37.4776 42.0156 37.8773C42.0156 38.0044 42.0156 38.1315 42.0156 38.2885H43.6956V39.932H42.0295V51.4009H38.1902V38.1198C38.1902 36.9898 38.6526 36.3667 39.7358 36.0343C39.7512 36.0292 39.7629 36.0117 39.776 36H40.4312Z" fill="white"/>
<path d="M60.2243 36C60.2625 36.0204 60.3023 36.0375 60.3434 36.0511C61.2499 36.3017 61.8043 37.0139 61.8043 37.9503C61.8087 39.7268 61.8043 41.504 61.8043 43.2826V51.3973H57.9847V39.9481H56.3047V38.3039H57.9643C57.9661 38.088 57.98 37.8724 58.0059 37.6581C58.1454 36.8335 58.6253 36.3031 59.4252 36.0599C59.4748 36.0429 59.5236 36.0234 59.5713 36.0015L60.2243 36Z" fill="white"/>
<path d="M38.1895 61.8171H61.7919C61.7919 62.3285 61.8248 62.8398 61.7817 63.3394C61.7488 63.7185 61.4011 63.9712 61.0147 63.9968C60.9417 63.9968 60.8686 63.9968 60.7956 63.9968H39.207C38.4882 63.9968 38.1902 63.7046 38.1895 62.9924V61.8171Z" fill="white"/>
<path d="M49.9709 41.0299C48.9146 41.0299 47.8591 41.0299 46.8029 41.0299C45.9263 41.0299 45.3559 40.4528 45.3529 39.5726C45.3529 39.2359 45.3471 38.8991 45.3529 38.5624C45.3526 38.3841 45.3874 38.2076 45.4554 38.0428C45.5234 37.8781 45.6233 37.7284 45.7494 37.6024C45.8754 37.4763 46.0251 37.3764 46.1898 37.3084C46.3546 37.2404 46.5311 37.2055 46.7094 37.2059C48.9037 37.1996 51.098 37.1996 53.2923 37.2059C54.0519 37.2059 54.6304 37.8012 54.6451 38.5646C54.6516 38.9196 54.6502 39.2746 54.6451 39.6296C54.6356 40.4396 54.0563 41.024 53.247 41.0284C52.1564 41.0342 51.0666 41.0299 49.9709 41.0299Z" fill="white"/>
<path d="M44.2608 51.401C44.2608 50.9174 44.2455 50.4514 44.2652 49.9905C44.2849 49.5522 44.6465 49.2366 45.1111 49.233C45.8306 49.2279 46.5501 49.233 47.2696 49.233H54.7553C55.4324 49.233 55.7399 49.539 55.7406 50.2133C55.7406 50.6033 55.7406 50.9941 55.7406 51.4017L44.2608 51.401Z" fill="white"/>
<path d="M48.0864 42.6814H51.8979C51.8979 43.1299 51.9461 43.5799 51.8775 44.0116C51.8439 44.227 51.6386 44.4878 51.4392 44.5901C50.9279 44.8545 50.7263 45.2168 50.811 45.7858C50.8577 46.0985 50.8241 46.4228 50.8183 46.7413C50.8095 47.2285 50.4596 47.5886 50.0024 47.5901C49.5451 47.5915 49.1872 47.2321 49.1806 46.7478C49.174 46.2467 49.1894 45.7449 49.1718 45.2446C49.1681 45.1819 49.1517 45.1206 49.1236 45.0645C49.0955 45.0084 49.0562 44.9585 49.0082 44.918C47.9987 44.2475 48.0864 44.3052 48.0864 43.1482V42.6814Z" fill="white"/>
</svg>
