<svg width="100" height="156" viewBox="0 0 100 156" fill="none" xmlns="http://www.w3.org/2000/svg">
<rect width="100" height="156" rx="19" fill="#F9FBFF"/>
<path d="M28.0478 109.217C28.8972 109.217 29.5645 109.31 30.0498 109.497C30.5352 109.674 30.8805 109.987 31.0858 110.435C31.3005 110.873 31.4078 111.499 31.4078 112.311C31.4078 113.123 31.3052 113.753 31.0998 114.201C30.9038 114.649 30.5725 114.961 30.1058 115.139C29.6485 115.316 29.0372 115.405 28.2718 115.405C27.8518 115.405 27.4458 115.391 27.0538 115.363C26.6712 115.335 26.3118 115.297 25.9758 115.251C25.6492 115.204 25.3692 115.157 25.1358 115.111C24.9025 115.055 24.7392 115.008 24.6458 114.971L24.6878 114.033C25.2198 114.033 25.7658 114.033 26.3258 114.033C26.8952 114.033 27.4598 114.033 28.0198 114.033C28.4305 114.023 28.7525 113.972 28.9858 113.879C29.2285 113.785 29.3965 113.617 29.4898 113.375C29.5925 113.123 29.6438 112.768 29.6438 112.311C29.6438 111.853 29.5925 111.503 29.4898 111.261C29.3965 111.009 29.2285 110.836 28.9858 110.743C28.7525 110.64 28.4305 110.589 28.0198 110.589C27.1985 110.589 26.4938 110.593 25.9058 110.603C25.3178 110.612 24.9165 110.626 24.7018 110.645L24.5058 109.343C24.8792 109.305 25.2292 109.277 25.5558 109.259C25.8918 109.24 26.2512 109.231 26.6338 109.231C27.0258 109.221 27.4972 109.217 28.0478 109.217ZM26.2558 109.343V119.003H24.5058V109.343H26.2558ZM34.4661 112.129L34.6901 113.473L34.8441 113.669V119.003H33.1501V112.129H34.4661ZM37.8261 111.961L37.6581 113.529H37.1681C36.8041 113.529 36.4354 113.589 36.0621 113.711C35.6887 113.832 35.2221 114.014 34.6621 114.257L34.5501 113.263C35.0354 112.852 35.5301 112.535 36.0341 112.311C36.5381 112.077 37.0234 111.961 37.4901 111.961H37.8261ZM42.2256 111.961C43.0656 111.961 43.7329 112.077 44.2276 112.311C44.7316 112.544 45.0909 112.927 45.3056 113.459C45.5296 113.991 45.6416 114.695 45.6416 115.573C45.6416 116.45 45.5296 117.155 45.3056 117.687C45.0909 118.209 44.7316 118.592 44.2276 118.835C43.7329 119.068 43.0656 119.185 42.2256 119.185C41.4042 119.185 40.7416 119.068 40.2376 118.835C39.7429 118.592 39.3836 118.209 39.1596 117.687C38.9356 117.155 38.8236 116.45 38.8236 115.573C38.8236 114.695 38.9356 113.991 39.1596 113.459C39.3836 112.927 39.7429 112.544 40.2376 112.311C40.7416 112.077 41.4042 111.961 42.2256 111.961ZM42.2256 113.249C41.8149 113.249 41.4882 113.319 41.2456 113.459C41.0122 113.589 40.8442 113.823 40.7416 114.159C40.6389 114.495 40.5876 114.966 40.5876 115.573C40.5876 116.179 40.6389 116.651 40.7416 116.987C40.8442 117.323 41.0122 117.556 41.2456 117.687C41.4882 117.817 41.8149 117.883 42.2256 117.883C42.6456 117.883 42.9769 117.817 43.2196 117.687C43.4622 117.556 43.6302 117.323 43.7236 116.987C43.8262 116.651 43.8776 116.179 43.8776 115.573C43.8776 114.966 43.8262 114.495 43.7236 114.159C43.6302 113.823 43.4622 113.589 43.2196 113.459C42.9769 113.319 42.6456 113.249 42.2256 113.249ZM49.8426 111.961C50.3093 111.961 50.7666 112.026 51.2146 112.157C51.6626 112.278 52.0686 112.483 52.4326 112.773L52.3206 113.627C51.9566 113.524 51.63 113.435 51.3406 113.361C51.0513 113.286 50.7293 113.249 50.3746 113.249C50.0386 113.249 49.768 113.309 49.5626 113.431C49.3666 113.543 49.2173 113.762 49.1146 114.089C49.0213 114.415 48.9746 114.891 48.9746 115.517C48.9746 116.114 49.0213 116.576 49.1146 116.903C49.208 117.22 49.3526 117.444 49.5486 117.575C49.7446 117.696 50.0013 117.757 50.3186 117.757C50.5706 117.757 50.7946 117.729 50.9906 117.673C51.1866 117.607 51.3873 117.514 51.5926 117.393C51.798 117.262 52.036 117.099 52.3066 116.903L52.4466 117.855C52.1293 118.219 51.7373 118.531 51.2706 118.793C50.8133 119.045 50.2813 119.171 49.6746 119.171C48.7973 119.171 48.172 118.863 47.7986 118.247C47.4253 117.621 47.2386 116.716 47.2386 115.531C47.2386 114.625 47.332 113.916 47.5186 113.403C47.7146 112.88 48.004 112.511 48.3866 112.297C48.7786 112.073 49.264 111.961 49.8426 111.961ZM53.8186 109.203V119.003H52.4886L52.3066 117.771L52.1246 117.631V113.039L52.2086 112.843C52.1713 112.572 52.148 112.301 52.1386 112.031C52.1293 111.751 52.1246 111.466 52.1246 111.177V109.203H53.8186ZM57.6674 112.129V116.777C57.6581 117.122 57.7234 117.369 57.8634 117.519C58.0128 117.668 58.2508 117.743 58.5774 117.743C58.9041 117.743 59.2308 117.673 59.5574 117.533C59.8841 117.393 60.2808 117.183 60.7474 116.903L60.9154 117.911C60.3928 118.331 59.8888 118.648 59.4034 118.863C58.9181 119.077 58.4141 119.185 57.8914 119.185C56.6128 119.185 55.9734 118.555 55.9734 117.295V112.129H57.6674ZM62.2734 112.129V119.003H60.9294L60.7474 117.673L60.5794 117.477V112.129H62.2734ZM67.5376 111.961C67.7709 111.961 68.0276 111.97 68.3076 111.989C68.5876 112.007 68.8722 112.045 69.1616 112.101C69.4509 112.157 69.7122 112.236 69.9456 112.339L69.7496 113.403C69.4042 113.384 69.0589 113.37 68.7136 113.361C68.3776 113.351 68.0836 113.347 67.8316 113.347C67.3556 113.347 66.9776 113.412 66.6976 113.543C66.4269 113.664 66.2309 113.888 66.1096 114.215C65.9882 114.532 65.9276 114.98 65.9276 115.559C65.9276 116.137 65.9882 116.59 66.1096 116.917C66.2309 117.234 66.4269 117.458 66.6976 117.589C66.9776 117.719 67.3556 117.785 67.8316 117.785C67.9716 117.785 68.1536 117.78 68.3776 117.771C68.6109 117.761 68.8582 117.747 69.1196 117.729C69.3902 117.71 69.6516 117.687 69.9036 117.659L70.0716 118.751C69.7076 118.9 69.3016 119.007 68.8536 119.073C68.4056 119.138 67.9622 119.171 67.5236 119.171C66.7022 119.171 66.0442 119.054 65.5496 118.821C65.0549 118.587 64.6956 118.209 64.4716 117.687C64.2569 117.155 64.1496 116.445 64.1496 115.559C64.1496 114.672 64.2616 113.967 64.4856 113.445C64.7096 112.913 65.0689 112.535 65.5636 112.311C66.0582 112.077 66.7162 111.961 67.5376 111.961ZM74.0056 110.169V116.931C74.0056 117.22 74.0662 117.425 74.1876 117.547C74.3182 117.668 74.5376 117.729 74.8456 117.729H75.7976L75.9796 118.919C75.8209 118.965 75.6296 119.007 75.4056 119.045C75.1816 119.082 74.9622 119.105 74.7476 119.115C74.5329 119.133 74.3509 119.143 74.2016 119.143C73.6042 119.143 73.1376 118.984 72.8016 118.667C72.4749 118.34 72.3116 117.873 72.3116 117.267V110.169H74.0056ZM76.0496 112.129V113.305H71.0936V112.199L72.4376 112.129H76.0496ZM36.4022 127.343C36.8408 127.343 37.0648 127.567 37.0742 128.015L37.4522 137.003H35.7862L35.4502 128.729H35.1842L33.3782 135.211C33.2942 135.593 33.0562 135.785 32.6642 135.785H31.4322C31.0308 135.785 30.7835 135.593 30.6902 135.211L28.8842 128.729H28.6182L28.3102 137.003H26.6442L27.0222 128.015C27.0408 127.567 27.2648 127.343 27.6942 127.343H29.4442C29.8175 127.343 30.0508 127.534 30.1442 127.917L31.6282 133.209C31.6935 133.433 31.7448 133.657 31.7822 133.881C31.8288 134.105 31.8802 134.329 31.9362 134.553H32.1462C32.2022 134.329 32.2535 134.105 32.3002 133.881C32.3468 133.657 32.3982 133.428 32.4542 133.195L33.9382 127.917C34.0222 127.534 34.2602 127.343 34.6522 127.343H36.4022ZM43.0439 129.961C43.5946 129.961 44.0566 130.035 44.4299 130.185C44.8126 130.325 45.1019 130.567 45.2979 130.913C45.4939 131.258 45.5919 131.734 45.5919 132.341V137.003H44.2479L44.0099 135.519L43.8839 135.323V132.327C43.8839 131.963 43.7999 131.701 43.6319 131.543C43.4639 131.375 43.1419 131.291 42.6659 131.291C42.3113 131.291 41.8633 131.305 41.3219 131.333C40.7899 131.361 40.2533 131.398 39.7119 131.445L39.5579 130.283C39.8846 130.217 40.2533 130.161 40.6639 130.115C41.0746 130.068 41.4899 130.031 41.9099 130.003C42.3299 129.975 42.7079 129.961 43.0439 129.961ZM44.8639 132.775L44.8499 133.825H41.6999C41.4199 133.834 41.2193 133.909 41.0979 134.049C40.9766 134.189 40.9159 134.38 40.9159 134.623V135.001C40.9159 135.281 40.9906 135.495 41.1399 135.645C41.2893 135.785 41.5226 135.855 41.8399 135.855C42.0919 135.855 42.3719 135.803 42.6799 135.701C42.9879 135.598 43.2913 135.449 43.5899 135.253C43.8979 135.057 44.1733 134.823 44.4159 134.553V135.435C44.3226 135.575 44.1873 135.743 44.0099 135.939C43.8326 136.125 43.6133 136.312 43.3519 136.499C43.0999 136.685 42.8059 136.839 42.4699 136.961C42.1433 137.082 41.7793 137.143 41.3779 137.143C40.9673 137.143 40.5986 137.073 40.2719 136.933C39.9453 136.783 39.6886 136.569 39.5019 136.289C39.3153 135.999 39.2219 135.645 39.2219 135.225V134.497C39.2219 133.955 39.3993 133.535 39.7539 133.237C40.1179 132.929 40.6126 132.775 41.2379 132.775H44.8639ZM50.1916 129.961C50.5089 129.961 50.8496 129.97 51.2136 129.989C51.5869 130.007 51.9509 130.035 52.3056 130.073C52.6603 130.101 52.9776 130.143 53.2576 130.199L53.1456 131.305C52.6976 131.295 52.2496 131.286 51.8016 131.277C51.3629 131.258 50.9289 131.249 50.4996 131.249C50.1169 131.249 49.8136 131.258 49.5896 131.277C49.3749 131.295 49.2209 131.351 49.1276 131.445C49.0436 131.538 49.0016 131.697 49.0016 131.921C49.0016 132.191 49.0763 132.373 49.2256 132.467C49.3749 132.551 49.6176 132.635 49.9536 132.719L51.8296 133.153C52.3896 133.293 52.8049 133.507 53.0756 133.797C53.3463 134.077 53.4816 134.511 53.4816 135.099C53.4816 135.668 53.3743 136.102 53.1596 136.401C52.9543 136.69 52.6229 136.891 52.1656 137.003C51.7176 137.105 51.1436 137.157 50.4436 137.157C50.1729 137.157 49.7716 137.143 49.2396 137.115C48.7076 137.096 48.1243 137.035 47.4896 136.933L47.6016 135.827C47.7883 135.827 48.0076 135.831 48.2596 135.841C48.5209 135.85 48.7963 135.855 49.0856 135.855C49.3843 135.855 49.6876 135.855 49.9956 135.855C50.4903 135.855 50.8683 135.841 51.1296 135.813C51.4003 135.775 51.5869 135.705 51.6896 135.603C51.7923 135.491 51.8436 135.332 51.8436 135.127C51.8436 134.865 51.7549 134.693 51.5776 134.609C51.4096 134.515 51.1576 134.427 50.8216 134.343L48.9876 133.895C48.5676 133.783 48.2409 133.643 48.0076 133.475C47.7743 133.297 47.6063 133.083 47.5036 132.831C47.4009 132.569 47.3496 132.252 47.3496 131.879C47.3496 131.375 47.4429 130.983 47.6296 130.703C47.8256 130.423 48.1289 130.227 48.5396 130.115C48.9596 130.003 49.5103 129.951 50.1916 129.961ZM57.5624 128.169V134.931C57.5624 135.22 57.6231 135.425 57.7444 135.547C57.8751 135.668 58.0944 135.729 58.4024 135.729H59.3544L59.5364 136.919C59.3777 136.965 59.1864 137.007 58.9624 137.045C58.7384 137.082 58.5191 137.105 58.3044 137.115C58.0897 137.133 57.9077 137.143 57.7584 137.143C57.1611 137.143 56.6944 136.984 56.3584 136.667C56.0317 136.34 55.8684 135.873 55.8684 135.267V128.169H57.5624ZM59.6064 130.129V131.305H54.6504V130.199L55.9944 130.129H59.6064ZM64.2048 129.961C65.3155 129.961 66.1135 130.157 66.5988 130.549C67.0842 130.931 67.3315 131.501 67.3408 132.257C67.3502 132.882 67.2008 133.358 66.8928 133.685C66.5942 134.002 66.0948 134.161 65.3948 134.161H61.4748V133.111H64.9328C65.2502 133.111 65.4508 133.027 65.5348 132.859C65.6282 132.691 65.6748 132.485 65.6748 132.243C65.6655 131.86 65.5535 131.594 65.3388 131.445C65.1335 131.295 64.7788 131.221 64.2748 131.221C63.8362 131.221 63.4955 131.281 63.2528 131.403C63.0102 131.524 62.8375 131.743 62.7348 132.061C62.6415 132.378 62.5948 132.835 62.5948 133.433C62.5948 134.067 62.6555 134.557 62.7768 134.903C62.8982 135.248 63.0988 135.486 63.3788 135.617C63.6588 135.738 64.0322 135.799 64.4988 135.799C64.8442 135.799 65.2408 135.785 65.6888 135.757C66.1462 135.729 66.5848 135.691 67.0048 135.645L67.1728 136.723C66.9208 136.825 66.6315 136.909 66.3048 136.975C65.9782 137.04 65.6375 137.087 65.2828 137.115C64.9375 137.152 64.6108 137.171 64.3028 137.171C63.4628 137.171 62.7862 137.049 62.2728 136.807C61.7688 136.555 61.4002 136.163 61.1668 135.631C60.9428 135.099 60.8308 134.413 60.8308 133.573C60.8308 132.667 60.9428 131.953 61.1668 131.431C61.4002 130.899 61.7642 130.521 62.2588 130.297C62.7628 130.073 63.4115 129.961 64.2048 129.961ZM70.4595 130.129L70.6835 131.473L70.8375 131.669V137.003H69.1435V130.129H70.4595ZM73.8195 129.961L73.6515 131.529H73.1615C72.7975 131.529 72.4288 131.589 72.0555 131.711C71.6821 131.832 71.2155 132.014 70.6555 132.257L70.5435 131.263C71.0288 130.852 71.5235 130.535 72.0275 130.311C72.5315 130.077 73.0168 129.961 73.4835 129.961H73.8195Z" fill="#333839"/>
<path d="M90.3995 53.6044L53.744 90.2499" stroke="white" stroke-width="6.29" stroke-miterlimit="10"/>
<path d="M90.3995 53.6044L53.744 90.2499" stroke="#9130C9" stroke-width="3.42" stroke-miterlimit="10"/>
<path d="M8.6601 52.6618L6 50.0017L45.9905 10.0013" stroke="white" stroke-width="6.29" stroke-miterlimit="10"/>
<path d="M8.6601 52.6618L6 50.0017L45.9905 10.0013" stroke="#9130C9" stroke-width="3.42" stroke-miterlimit="10"/>
<path d="M68.6358 87.9313H31.3153L12 68.6358V31.3153L31.3153 12H68.6358L87.9512 31.3153V68.6358L68.6358 87.9313Z" fill="#9130C9"/>
<path d="M53.7421 90.2507L50.0002 94.0026L8.65979 52.6622" stroke="white" stroke-width="6.29" stroke-miterlimit="10"/>
<path d="M53.7421 90.2507L50.0002 94.0026L8.65979 52.6622" stroke="#9130C9" stroke-width="3.42" stroke-miterlimit="10"/>
<path d="M45.9896 10L49.9996 6L94.0001 50.0004L90.397 53.6034" stroke="white" stroke-width="6.29" stroke-miterlimit="10"/>
<path d="M45.9896 10L49.9996 6L94.0001 50.0004L90.397 53.6034" stroke="#9130C9" stroke-width="3.42" stroke-miterlimit="10"/>
<path d="M62.4084 45.9076C62.4084 46.8542 62.4084 47.8004 62.4084 48.746C62.4084 48.8319 62.3854 48.9324 62.4214 49.0007C62.4782 49.1096 62.5657 49.2608 62.6593 49.2761C62.7258 49.2807 62.7925 49.2698 62.854 49.2441C62.9155 49.2184 62.9702 49.1786 63.0137 49.1281C63.2085 48.835 63.3543 48.509 63.533 48.2075C63.6523 47.9975 63.841 47.8355 64.0666 47.7493C64.2922 47.6631 64.5407 47.658 64.7697 47.7349C64.9868 47.8116 65.0635 47.9229 64.943 48.143C64.3477 49.2332 63.7731 50.3355 63.1571 51.4149C62.7283 52.1675 62.0448 52.5656 61.1748 52.5848C60.3049 52.604 59.4104 52.6147 58.5343 52.5848C57.2808 52.5411 56.4185 51.6297 56.4139 50.3747C56.4063 48.5082 56.4139 46.6425 56.4139 44.7745C56.4123 44.7172 56.4141 44.6598 56.4193 44.6027C56.4274 44.4672 56.4881 44.3403 56.5884 44.2489C56.6887 44.1575 56.8207 44.1088 56.9563 44.1132C57.2248 44.1232 57.4166 44.3242 57.4212 44.6303C57.4289 45.3 57.4212 45.9697 57.4212 46.6394C57.4212 46.7353 57.3974 46.8504 57.4419 46.921C57.5048 47.0199 57.623 47.1511 57.7127 47.1511C57.8216 47.1511 57.9482 47.0337 58.0249 46.9356C58.074 46.8734 58.0503 46.7514 58.051 46.6556C58.0597 45.2788 58.0674 43.9012 58.074 42.5229C58.0703 42.4275 58.0762 42.3318 58.0917 42.2376C58.1161 42.1149 58.1838 42.0051 58.2823 41.9281C58.3809 41.8511 58.5038 41.812 58.6287 41.8179C58.8818 41.8402 59.0675 42.0427 59.0713 42.3281C59.079 42.816 59.0713 43.3039 59.0713 43.7918C59.0713 44.7492 59.0713 45.7058 59.0713 46.6625C59.0713 46.7668 59.0567 46.898 59.1112 46.9693C59.1478 47.0184 59.1937 47.0596 59.2464 47.0907C59.2991 47.1218 59.3575 47.1421 59.4181 47.1504C59.5078 47.1504 59.6145 47.0291 59.6766 46.9371C59.7173 46.875 59.6973 46.7699 59.6973 46.6839C59.7045 45.1343 59.7101 43.5842 59.7142 42.0335C59.7142 41.9292 59.6988 41.8241 59.6958 41.719C59.6904 41.5563 59.6789 41.3929 59.6889 41.2311C59.7157 40.8084 59.9229 40.5514 60.2136 40.5637C60.5304 40.5775 60.7399 40.846 60.7406 41.2618C60.7437 43.0313 60.7437 44.8016 60.7406 46.5727C60.7406 46.6586 60.7406 46.7445 60.7406 46.8305C60.7498 47.0291 60.8373 47.1634 61.0529 47.1642C61.2684 47.1649 61.3597 47.0322 61.3658 46.8328C61.372 46.5259 61.3658 46.219 61.3658 45.9122C61.3658 44.9456 61.3658 43.979 61.3658 43.0124C61.3609 42.9171 61.3676 42.8215 61.3858 42.7278C61.4502 42.4807 61.606 42.3273 61.8737 42.3227C62.1414 42.3181 62.2972 42.4807 62.3624 42.7232C62.3869 42.8451 62.3957 42.9696 62.3885 43.0937C62.4099 44.0319 62.4084 44.9694 62.4084 45.9076Z" fill="white"/>
<path d="M54.3365 61.6686C53.3699 61.6686 52.4025 61.6686 51.4359 61.6686C51.238 61.6686 51.0363 61.6686 50.9718 61.9056C50.9028 62.1603 51.0884 62.2593 51.271 62.3605C51.5779 62.5324 51.9001 62.6889 52.1847 62.8975C52.3624 63.0232 52.4925 63.2052 52.5539 63.4141C52.6153 63.6229 52.6044 63.8464 52.523 64.0483C52.4463 64.2554 52.3327 64.3137 52.1294 64.2017C51.0386 63.6064 49.9339 63.0349 48.856 62.4173C48.0835 61.9754 47.6938 61.2735 47.6854 60.3775C47.6777 59.5336 47.6792 58.6898 47.6854 57.8505C47.6892 56.6484 48.586 55.6917 49.7843 55.6764C51.7075 55.6519 53.6323 55.6664 55.5563 55.6703C55.8892 55.6703 56.1301 55.8651 56.1631 56.1306C56.2014 56.4328 55.9613 56.6814 55.6123 56.6837C54.9326 56.6883 54.2529 56.6837 53.5732 56.6837C53.2418 56.6837 53.0853 56.7888 53.106 57.0082C53.1329 57.2882 53.3362 57.3189 53.5663 57.3196C54.9359 57.3196 56.305 57.3227 57.6736 57.3288C57.7595 57.3288 57.8462 57.325 57.9314 57.3288C58.2436 57.3542 58.4584 57.5812 58.4492 57.8704C58.44 58.1597 58.2351 58.3346 57.9068 58.3392C57.4764 58.3445 57.0453 58.3392 56.6149 58.3392C55.6192 58.3392 54.6234 58.3392 53.6277 58.3392C53.5325 58.3392 53.4152 58.3138 53.3461 58.3583C53.2472 58.4228 53.1244 58.5386 53.1206 58.6376C53.1168 58.7365 53.2257 58.8677 53.3208 58.936C53.3975 58.9874 53.5233 58.9682 53.6277 58.969L58.9693 58.9851C59.0648 58.9812 59.1604 58.9843 59.2554 58.9943C59.3759 59.0081 59.4877 59.0634 59.5718 59.1508C59.6558 59.2382 59.7067 59.3521 59.7157 59.473C59.7195 59.594 59.6789 59.7122 59.6014 59.8052C59.5239 59.8982 59.415 59.9596 59.2953 59.9778C59.1826 59.9974 59.0683 60.0059 58.954 60.0031C57.2402 60.0031 55.5269 60.0031 53.8141 60.0031H53.607C53.2525 60.0031 53.0822 60.1074 53.1068 60.3253C53.1398 60.6214 53.3661 60.6322 53.5993 60.6322C54.7101 60.6322 55.8207 60.6322 56.931 60.6322C57.1128 60.6322 57.2954 60.6322 57.4764 60.6452C57.5974 60.649 57.7128 60.6972 57.8004 60.7808C57.888 60.8643 57.9417 60.9772 57.9513 61.0978C57.9569 61.2233 57.9166 61.3466 57.838 61.4446C57.7594 61.5425 57.6477 61.6085 57.524 61.6302C57.3917 61.652 57.2576 61.6615 57.1235 61.6586C56.1938 61.6701 55.2655 61.6686 54.3365 61.6686Z" fill="white"/>
<path d="M46.6543 37.5909C47.6209 37.5909 48.5875 37.5909 49.5541 37.5909C49.7544 37.5909 49.9492 37.5871 50.0144 37.3478C50.0796 37.1084 49.9147 37.0064 49.7352 36.9128C49.4636 36.7724 49.1913 36.632 48.9289 36.4755C48.7153 36.3534 48.5518 36.1596 48.4673 35.9285C48.3827 35.6975 48.3827 35.4439 48.4671 35.2128C48.5438 35.0156 48.6435 34.9382 48.856 35.0548C49.9369 35.6478 51.0294 36.22 52.1034 36.8261C52.9004 37.2764 53.297 37.9906 53.3078 38.9058C53.3177 39.7382 53.3162 40.5705 53.3124 41.4029C53.3001 42.6226 52.3795 43.5823 51.1567 43.5931C49.2526 43.6092 47.3478 43.5992 45.443 43.5931C45.0648 43.5931 44.8063 43.3629 44.8155 43.0668C44.8247 42.7707 45.0594 42.5812 45.4376 42.5804C46.0882 42.5804 46.739 42.5804 47.39 42.5804C47.6202 42.5804 47.8503 42.5804 47.8741 42.2736C47.8887 42.0519 47.7207 41.9468 47.3731 41.946C45.9923 41.9422 44.6168 41.946 43.2382 41.9299C43.0741 41.9299 42.8784 41.8985 42.7557 41.8041C42.633 41.7097 42.5256 41.5126 42.5424 41.3799C42.5629 41.2962 42.6016 41.2182 42.6557 41.1512C42.7098 41.0842 42.778 41.03 42.8554 40.9925C43.0595 40.9104 43.3042 40.9073 43.5313 40.9073C44.794 40.9073 46.0567 40.9242 47.3202 40.9326C47.4245 40.9326 47.5542 40.9572 47.6271 40.9065C47.7291 40.8367 47.8442 40.7101 47.8511 40.5997C47.8572 40.5092 47.7306 40.3864 47.634 40.3204C47.5657 40.2744 47.4483 40.2936 47.3532 40.2944C45.5929 40.2979 43.8323 40.302 42.0714 40.3066C41.9279 40.309 41.7847 40.2907 41.6464 40.2522C41.4163 40.1816 41.2628 40.022 41.269 39.7696C41.268 39.6576 41.3055 39.5486 41.3754 39.461C41.4452 39.3735 41.5431 39.3126 41.6525 39.2886C41.7731 39.2596 41.8969 39.2467 42.0208 39.2503C43.7811 39.2503 45.542 39.2503 47.3033 39.2503C47.4084 39.2503 47.5335 39.2779 47.614 39.2334C47.7176 39.1782 47.8572 39.0623 47.8564 38.9726C47.8564 38.8621 47.7475 38.7309 47.6501 38.6488C47.591 38.599 47.4675 38.6204 47.3724 38.6204C46.138 38.6204 44.9029 38.6204 43.6686 38.6204C43.4331 38.6204 43.2298 38.5729 43.1017 38.3596C43.0631 38.293 43.0407 38.2183 43.036 38.1414C43.0314 38.0646 43.0447 37.9877 43.0749 37.9169C43.1051 37.8461 43.1514 37.7833 43.2101 37.7335C43.2689 37.6837 43.3384 37.6483 43.4131 37.6301C43.5436 37.6001 43.6774 37.5869 43.8113 37.5909C44.7595 37.5894 45.7054 37.5909 46.6543 37.5909Z" fill="white"/>
<path d="M38.6009 53.6434C38.6009 52.6668 38.6009 51.6902 38.6009 50.7144C38.6009 50.5127 38.5901 50.3217 38.3516 50.2588C38.113 50.1958 38.0079 50.3531 37.9127 50.5342C37.7708 50.8042 37.6266 51.0712 37.4686 51.3366C37.1962 51.7884 36.7114 51.9695 36.2342 51.8145C36.0179 51.7447 35.935 51.6266 36.0555 51.4064C36.6554 50.3071 37.2331 49.1955 37.8583 48.1077C38.284 47.3674 38.9653 46.9815 39.826 46.9677C40.7159 46.9524 41.6065 46.9501 42.4964 46.9677C43.0501 46.9732 43.5794 47.1965 43.9697 47.5893C44.3599 47.9821 44.5797 48.5129 44.5815 49.0666C44.5999 50.9898 44.5884 52.9138 44.5884 54.8378C44.5903 54.9048 44.5843 54.9717 44.5708 55.0373C44.5422 55.1592 44.4704 55.2665 44.3687 55.3394C44.267 55.4124 44.1423 55.4459 44.0177 55.4339C43.8968 55.4243 43.7844 55.368 43.7044 55.2769C43.6243 55.1858 43.5829 55.0671 43.5888 54.946C43.5812 54.2955 43.5888 53.6419 43.5888 52.9936C43.5888 52.9077 43.5888 52.821 43.5888 52.7351C43.5773 52.5272 43.4891 52.3814 43.2582 52.3883C43.0419 52.3953 42.9629 52.5356 42.9598 52.7336C42.9567 52.9315 42.9521 53.1171 42.9521 53.3074C42.9521 54.475 42.9567 55.6426 42.9521 56.8102C42.9534 56.9823 42.9349 57.154 42.8969 57.3219C42.8278 57.6149 42.6153 57.7622 42.3599 57.7238C42.1044 57.6855 41.9372 57.4891 41.9333 57.1991C41.9287 56.8831 41.9333 56.5678 41.9333 56.2517C41.9333 55.1317 41.9333 54.0119 41.9333 52.8924C41.9333 52.7972 41.9548 52.6753 41.9057 52.6139C41.829 52.5149 41.6932 52.3914 41.5912 52.3983C41.4892 52.4052 41.3802 52.5518 41.3158 52.6584C41.2736 52.7297 41.3028 52.8448 41.3028 52.9407C41.2971 54.6729 41.2912 56.4051 41.2851 58.1373C41.2868 58.2715 41.2789 58.4056 41.2613 58.5385C41.2199 58.8155 41.0312 58.9889 40.7888 58.9912C40.6685 58.9856 40.5535 58.9398 40.4624 58.861C40.3712 58.7823 40.3092 58.6752 40.2863 58.557C40.2703 58.4431 40.2646 58.3281 40.2694 58.2133C40.2694 56.4524 40.2694 54.6913 40.2694 52.93C40.2694 52.8256 40.2932 52.6952 40.2418 52.6231C40.1697 52.5211 40.0331 52.3968 39.9311 52.4022C39.8291 52.4075 39.7217 52.5556 39.6511 52.6576C39.6112 52.7182 39.6388 52.8256 39.6381 52.9115V56.5002C39.6424 56.5862 39.6399 56.6724 39.6304 56.758C39.6157 56.8878 39.5532 57.0074 39.455 57.0935C39.3568 57.1796 39.2301 57.226 39.0995 57.2237C38.8525 57.2168 38.6515 57.0188 38.6177 56.7411C38.6095 56.6457 38.6067 56.5499 38.6093 56.4542L38.6009 53.6434Z" fill="white"/>
<path d="M43.8711 42.5796V44.4254H38.5709V40.5513C39.1148 40.5513 39.6564 40.5513 40.198 40.5513C40.5816 40.5513 40.9652 40.5137 41.315 40.7761C41.4822 40.9004 41.7477 40.8934 41.9824 40.9487C41.796 41.4719 41.9149 41.9383 42.3599 42.3119C42.8048 42.6855 43.3441 42.5305 43.8711 42.5796Z" fill="white"/>
<path d="M59.0645 41.2656C58.5559 41.1006 58.1224 41.1766 57.755 41.5479C57.3875 41.9192 57.4381 42.3864 57.4328 42.8643H55.8463V37.5825H59.7189V38.2254C59.7189 38.7624 59.7189 39.2994 59.7189 39.8326C59.7189 39.9093 59.7104 40.0343 59.6598 40.0673C59.2317 40.3465 59.0975 40.77 59.0645 41.2656Z" fill="white"/>
<path d="M62.4291 58.9943C61.7272 58.9943 61.0483 58.9943 60.3701 58.9943C60.3388 58.9957 60.3076 58.9907 60.2783 58.9796C60.249 58.9685 60.2223 58.9516 60.1998 58.9298C59.9167 58.5071 59.5048 58.3529 58.9931 58.3514C59.1949 57.7914 59.0806 57.325 58.6287 56.9552C58.1769 56.5854 57.6437 56.7419 57.1121 56.6921C57.1121 56.2563 57.1121 55.8375 57.1121 55.4194C57.1121 55.3265 57.1197 55.2337 57.1251 55.124H62.4291V58.9943Z" fill="white"/>
<path d="M41.9272 58.2763C42.5003 58.468 42.956 58.3422 43.3173 57.8996C43.6786 57.4569 43.5259 56.9307 43.5835 56.4152H45.1439V61.6947H41.2805C41.2805 60.9904 41.2805 60.3031 41.2805 59.6157C41.2806 59.5879 41.2863 59.5605 41.2974 59.535C41.3085 59.5095 41.3247 59.4866 41.345 59.4676C41.7677 59.193 41.9042 58.7826 41.9272 58.2763Z" fill="white"/>
<path d="M53.9683 36.8483C54.3304 36.8483 54.6917 36.8376 55.0507 36.8598C55.1044 36.8636 55.1888 37.0217 55.1903 37.1099C55.2018 37.788 55.1965 38.4662 55.1965 39.1451C55.1965 40.5214 55.1919 41.8976 55.2018 43.2731C55.2018 43.5163 55.1474 43.6268 54.8835 43.6022C54.6536 43.5864 54.4229 43.5864 54.193 43.6022C54.0166 43.6107 53.9353 43.5646 53.936 43.366C53.9414 41.254 53.936 39.1421 53.9406 37.0301C53.9463 36.969 53.9556 36.9083 53.9683 36.8483Z" fill="white"/>
<path d="M45.7914 59.0533C45.7914 58.0307 45.7998 57.0074 45.7845 55.9848C45.7845 55.7224 45.8681 55.6465 46.1136 55.6672C46.3234 55.684 46.5343 55.684 46.7442 55.6672C46.9827 55.648 47.0556 55.7354 47.051 55.974C47.0418 57.5705 47.0456 59.1669 47.0456 60.7641C47.0456 61.2244 47.0334 61.6846 47.051 62.1403C47.0602 62.3774 46.9743 62.4426 46.7518 62.4288C46.5219 62.4141 46.2913 62.4141 46.0614 62.4288C45.8489 62.4418 45.7799 62.3659 45.7822 62.1503C45.7975 61.1185 45.7921 60.0859 45.7914 59.0533Z" fill="white"/>
<path d="M56.4124 53.2353C56.5444 53.2261 56.6464 53.2138 56.7492 53.2138C58.766 53.2138 60.7829 53.2176 62.7997 53.2069C63.0728 53.2069 63.1833 53.276 63.1526 53.5583C63.1219 53.8406 63.2239 54.2349 63.072 54.4021C62.9416 54.5494 62.535 54.4597 62.2512 54.4597C60.4062 54.4597 58.5612 54.4597 56.7162 54.4658C56.4861 54.4658 56.3902 54.4129 56.4094 54.1658C56.4278 53.8667 56.4124 53.5621 56.4124 53.2353Z" fill="white"/>
<path d="M37.8499 46.3049C37.8499 45.9382 37.8499 45.5953 37.8499 45.2532C37.8499 45.0545 37.9833 45.0798 38.1061 45.0798H41.0312C42.1213 45.0798 43.2114 45.0852 44.3008 45.0752C44.5248 45.0752 44.6076 45.135 44.5915 45.3659C44.5723 45.6728 44.5869 45.9751 44.5869 46.3057L37.8499 46.3049Z" fill="white"/>
</svg>
