<svg width="100" height="156" viewBox="0 0 100 156" fill="none" xmlns="http://www.w3.org/2000/svg">
<rect width="100" height="156" rx="19" fill="#F9FBFF"/>
<path d="M22.7831 109.217C23.6324 109.217 24.2997 109.31 24.7851 109.497C25.2704 109.674 25.6157 109.987 25.8211 110.435C26.0357 110.873 26.1431 111.499 26.1431 112.311C26.1431 113.123 26.0404 113.753 25.8351 114.201C25.6391 114.649 25.3077 114.961 24.8411 115.139C24.3837 115.316 23.7724 115.405 23.0071 115.405C22.5871 115.405 22.1811 115.391 21.7891 115.363C21.4064 115.335 21.0471 115.297 20.7111 115.251C20.3844 115.204 20.1044 115.157 19.8711 115.111C19.6377 115.055 19.4744 115.008 19.3811 114.971L19.4231 114.033C19.9551 114.033 20.5011 114.033 21.0611 114.033C21.6304 114.033 22.1951 114.033 22.7551 114.033C23.1657 114.023 23.4877 113.972 23.7211 113.879C23.9637 113.785 24.1317 113.617 24.2251 113.375C24.3277 113.123 24.3791 112.768 24.3791 112.311C24.3791 111.853 24.3277 111.503 24.2251 111.261C24.1317 111.009 23.9637 110.836 23.7211 110.743C23.4877 110.64 23.1657 110.589 22.7551 110.589C21.9337 110.589 21.2291 110.593 20.6411 110.603C20.0531 110.612 19.6517 110.626 19.4371 110.645L19.2411 109.343C19.6144 109.305 19.9644 109.277 20.2911 109.259C20.6271 109.24 20.9864 109.231 21.3691 109.231C21.7611 109.221 22.2324 109.217 22.7831 109.217ZM20.9911 109.343V119.003H19.2411V109.343H20.9911ZM29.6773 112.129V116.777C29.668 117.122 29.7333 117.369 29.8733 117.519C30.0226 117.668 30.2606 117.743 30.5873 117.743C30.914 117.743 31.2406 117.673 31.5673 117.533C31.894 117.393 32.2906 117.183 32.7573 116.903L32.9253 117.911C32.4026 118.331 31.8986 118.648 31.4133 118.863C30.928 119.077 30.424 119.185 29.9013 119.185C28.6226 119.185 27.9833 118.555 27.9833 117.295V112.129H29.6773ZM34.2833 112.129V119.003H32.9393L32.7573 117.673L32.5893 117.477V112.129H34.2833ZM37.9234 112.129L38.1474 113.473L38.3014 113.669V119.003H36.6074V112.129H37.9234ZM41.2834 111.961L41.1154 113.529H40.6254C40.2614 113.529 39.8927 113.589 39.5194 113.711C39.1461 113.832 38.6794 114.014 38.1194 114.257L38.0074 113.263C38.4927 112.852 38.9874 112.535 39.4914 112.311C39.9954 112.077 40.4807 111.961 40.9474 111.961H41.2834ZM45.7949 111.961C46.0282 111.961 46.2849 111.97 46.5649 111.989C46.8449 112.007 47.1296 112.045 47.4189 112.101C47.7082 112.157 47.9696 112.236 48.2029 112.339L48.0069 113.403C47.6616 113.384 47.3162 113.37 46.9709 113.361C46.6349 113.351 46.3409 113.347 46.0889 113.347C45.6129 113.347 45.2349 113.412 44.9549 113.543C44.6842 113.664 44.4882 113.888 44.3669 114.215C44.2456 114.532 44.1849 114.98 44.1849 115.559C44.1849 116.137 44.2456 116.59 44.3669 116.917C44.4882 117.234 44.6842 117.458 44.9549 117.589C45.2349 117.719 45.6129 117.785 46.0889 117.785C46.2289 117.785 46.4109 117.78 46.6349 117.771C46.8682 117.761 47.1156 117.747 47.3769 117.729C47.6476 117.71 47.9089 117.687 48.1609 117.659L48.3289 118.751C47.9649 118.9 47.5589 119.007 47.1109 119.073C46.6629 119.138 46.2196 119.171 45.7809 119.171C44.9596 119.171 44.3016 119.054 43.8069 118.821C43.3122 118.587 42.9529 118.209 42.7289 117.687C42.5142 117.155 42.4069 116.445 42.4069 115.559C42.4069 114.672 42.5189 113.967 42.7429 113.445C42.9669 112.913 43.3262 112.535 43.8209 112.311C44.3156 112.077 44.9736 111.961 45.7949 111.961ZM54.6569 111.961C55.9356 111.961 56.5749 112.591 56.5749 113.851V119.003H54.8669V114.369C54.8669 113.995 54.8016 113.739 54.6709 113.599C54.5496 113.459 54.3349 113.389 54.0269 113.389C53.6816 113.389 53.3269 113.463 52.9629 113.613C52.5989 113.762 52.1602 113.986 51.6469 114.285L51.5209 113.305C52.0436 112.875 52.5662 112.544 53.0889 112.311C53.6209 112.077 54.1436 111.961 54.6569 111.961ZM51.8289 109.203L51.8429 111.723C51.8429 112.068 51.8242 112.395 51.7869 112.703C51.7589 113.001 51.7169 113.258 51.6609 113.473L51.8289 113.669V119.003H50.1349V109.203H51.8289ZM62.3117 111.961C62.8624 111.961 63.3244 112.035 63.6977 112.185C64.0804 112.325 64.3697 112.567 64.5657 112.913C64.7617 113.258 64.8597 113.734 64.8597 114.341V119.003H63.5157L63.2777 117.519L63.1517 117.323V114.327C63.1517 113.963 63.0677 113.701 62.8997 113.543C62.7317 113.375 62.4097 113.291 61.9337 113.291C61.5791 113.291 61.1311 113.305 60.5897 113.333C60.0577 113.361 59.5211 113.398 58.9797 113.445L58.8257 112.283C59.1524 112.217 59.5211 112.161 59.9317 112.115C60.3424 112.068 60.7577 112.031 61.1777 112.003C61.5977 111.975 61.9757 111.961 62.3117 111.961ZM64.1317 114.775L64.1177 115.825H60.9677C60.6877 115.834 60.4871 115.909 60.3657 116.049C60.2444 116.189 60.1837 116.38 60.1837 116.623V117.001C60.1837 117.281 60.2584 117.495 60.4077 117.645C60.5571 117.785 60.7904 117.855 61.1077 117.855C61.3597 117.855 61.6397 117.803 61.9477 117.701C62.2557 117.598 62.5591 117.449 62.8577 117.253C63.1657 117.057 63.4411 116.823 63.6837 116.553V117.435C63.5904 117.575 63.4551 117.743 63.2777 117.939C63.1004 118.125 62.8811 118.312 62.6197 118.499C62.3677 118.685 62.0737 118.839 61.7377 118.961C61.4111 119.082 61.0471 119.143 60.6457 119.143C60.2351 119.143 59.8664 119.073 59.5397 118.933C59.2131 118.783 58.9564 118.569 58.7697 118.289C58.5831 117.999 58.4897 117.645 58.4897 117.225V116.497C58.4897 115.955 58.6671 115.535 59.0217 115.237C59.3857 114.929 59.8804 114.775 60.5057 114.775H64.1317ZM69.5994 111.961C69.9167 111.961 70.2574 111.97 70.6214 111.989C70.9947 112.007 71.3587 112.035 71.7134 112.073C72.068 112.101 72.3854 112.143 72.6654 112.199L72.5534 113.305C72.1054 113.295 71.6574 113.286 71.2094 113.277C70.7707 113.258 70.3367 113.249 69.9074 113.249C69.5247 113.249 69.2214 113.258 68.9974 113.277C68.7827 113.295 68.6287 113.351 68.5354 113.445C68.4514 113.538 68.4094 113.697 68.4094 113.921C68.4094 114.191 68.484 114.373 68.6334 114.467C68.7827 114.551 69.0254 114.635 69.3614 114.719L71.2374 115.153C71.7974 115.293 72.2127 115.507 72.4834 115.797C72.754 116.077 72.8894 116.511 72.8894 117.099C72.8894 117.668 72.782 118.102 72.5674 118.401C72.362 118.69 72.0307 118.891 71.5734 119.003C71.1254 119.105 70.5514 119.157 69.8514 119.157C69.5807 119.157 69.1794 119.143 68.6474 119.115C68.1154 119.096 67.532 119.035 66.8974 118.933L67.0094 117.827C67.196 117.827 67.4154 117.831 67.6674 117.841C67.9287 117.85 68.204 117.855 68.4934 117.855C68.792 117.855 69.0954 117.855 69.4034 117.855C69.898 117.855 70.276 117.841 70.5374 117.813C70.808 117.775 70.9947 117.705 71.0974 117.603C71.2 117.491 71.2514 117.332 71.2514 117.127C71.2514 116.865 71.1627 116.693 70.9854 116.609C70.8174 116.515 70.5654 116.427 70.2294 116.343L68.3954 115.895C67.9754 115.783 67.6487 115.643 67.4154 115.475C67.182 115.297 67.014 115.083 66.9114 114.831C66.8087 114.569 66.7574 114.252 66.7574 113.879C66.7574 113.375 66.8507 112.983 67.0374 112.703C67.2334 112.423 67.5367 112.227 67.9474 112.115C68.3674 112.003 68.918 111.951 69.5994 111.961ZM77.9082 111.961C79.0188 111.961 79.8168 112.157 80.3022 112.549C80.7875 112.931 81.0348 113.501 81.0442 114.257C81.0535 114.882 80.9042 115.358 80.5962 115.685C80.2975 116.002 79.7982 116.161 79.0982 116.161H75.1782V115.111H78.6362C78.9535 115.111 79.1542 115.027 79.2382 114.859C79.3315 114.691 79.3782 114.485 79.3782 114.243C79.3688 113.86 79.2568 113.594 79.0422 113.445C78.8368 113.295 78.4822 113.221 77.9782 113.221C77.5395 113.221 77.1988 113.281 76.9562 113.403C76.7135 113.524 76.5408 113.743 76.4382 114.061C76.3448 114.378 76.2982 114.835 76.2982 115.433C76.2982 116.067 76.3588 116.557 76.4802 116.903C76.6015 117.248 76.8022 117.486 77.0822 117.617C77.3622 117.738 77.7355 117.799 78.2022 117.799C78.5475 117.799 78.9442 117.785 79.3922 117.757C79.8495 117.729 80.2882 117.691 80.7082 117.645L80.8762 118.723C80.6242 118.825 80.3348 118.909 80.0082 118.975C79.6815 119.04 79.3408 119.087 78.9862 119.115C78.6408 119.152 78.3142 119.171 78.0062 119.171C77.1662 119.171 76.4895 119.049 75.9762 118.807C75.4722 118.555 75.1035 118.163 74.8702 117.631C74.6462 117.099 74.5342 116.413 74.5342 115.573C74.5342 114.667 74.6462 113.953 74.8702 113.431C75.1035 112.899 75.4675 112.521 75.9622 112.297C76.4662 112.073 77.1148 111.961 77.9082 111.961ZM34.3463 127.315C34.8317 127.315 35.3263 127.315 35.8303 127.315C36.3437 127.315 36.8477 127.324 37.3423 127.343C37.837 127.361 38.3037 127.389 38.7423 127.427L38.6583 128.729H34.8783C34.617 128.729 34.421 128.794 34.2903 128.925C34.169 129.055 34.1083 129.261 34.1083 129.541V134.805C34.1083 135.085 34.169 135.29 34.2903 135.421C34.421 135.551 34.617 135.617 34.8783 135.617H38.6583L38.7423 136.919C38.3037 136.956 37.837 136.984 37.3423 137.003C36.8477 137.012 36.3437 137.017 35.8303 137.017C35.3263 137.026 34.8317 137.031 34.3463 137.031C33.749 137.031 33.2683 136.867 32.9043 136.541C32.5497 136.205 32.3677 135.757 32.3583 135.197V129.149C32.3677 128.589 32.5497 128.145 32.9043 127.819C33.2683 127.483 33.749 127.315 34.3463 127.315ZM32.6103 131.305H38.1263V132.593H32.6103V131.305ZM45.2427 129.961C46.5214 129.961 47.1607 130.591 47.1607 131.851V137.003H45.4667V132.369C45.4667 131.995 45.4014 131.739 45.2707 131.599C45.1401 131.459 44.9207 131.389 44.6127 131.389C44.2674 131.389 43.9127 131.468 43.5487 131.627C43.1847 131.776 42.7461 131.995 42.2327 132.285L42.1627 131.263C42.6667 130.843 43.1801 130.521 43.7027 130.297C44.2254 130.073 44.7387 129.961 45.2427 129.961ZM42.1067 130.129L42.2747 131.473L42.4147 131.669V137.003H40.7207V130.129H42.1067ZM51.7075 128.169V134.931C51.7075 135.22 51.7682 135.425 51.8895 135.547C52.0202 135.668 52.2395 135.729 52.5475 135.729H53.4995L53.6815 136.919C53.5229 136.965 53.3315 137.007 53.1075 137.045C52.8835 137.082 52.6642 137.105 52.4495 137.115C52.2349 137.133 52.0529 137.143 51.9035 137.143C51.3062 137.143 50.8395 136.984 50.5035 136.667C50.1769 136.34 50.0135 135.873 50.0135 135.267V128.169H51.7075ZM53.7515 130.129V131.305H48.7955V130.199L50.1395 130.129H53.7515ZM56.74 130.129L56.964 131.473L57.118 131.669V137.003H55.424V130.129H56.74ZM60.1 129.961L59.932 131.529H59.442C59.078 131.529 58.7093 131.589 58.336 131.711C57.9627 131.832 57.496 132.014 56.936 132.257L56.824 131.263C57.3093 130.852 57.804 130.535 58.308 130.311C58.812 130.077 59.2973 129.961 59.764 129.961H60.1ZM68.2342 130.129L65.6582 137.213C65.5369 137.539 65.3829 137.861 65.1962 138.179C65.0189 138.505 64.7902 138.799 64.5102 139.061C64.2302 139.322 63.8989 139.527 63.5162 139.677C63.1336 139.826 62.6902 139.882 62.1862 139.845L62.0462 138.837C62.6062 138.678 63.0402 138.463 63.3482 138.193C63.6656 137.922 63.9129 137.577 64.0902 137.157L64.4682 136.261C64.5522 136.055 64.6316 135.822 64.7062 135.561C64.7902 135.29 64.8602 135.057 64.9162 134.861L66.4142 130.129H68.2342ZM62.6902 130.129L64.2162 134.861C64.2629 135.019 64.3049 135.183 64.3422 135.351C64.3796 135.509 64.4122 135.668 64.4402 135.827H64.7902L64.2582 137.003H63.8102C63.6796 137.003 63.5629 136.965 63.4602 136.891C63.3576 136.816 63.2876 136.713 63.2502 136.583L60.8842 130.129H62.6902Z" fill="#333839"/>
<path d="M90.3995 53.6044L53.744 90.2499" stroke="white" stroke-width="6.29" stroke-miterlimit="10"/>
<path d="M90.3995 53.6044L53.744 90.2499" stroke="#B94E68" stroke-width="3.42" stroke-miterlimit="10"/>
<path d="M8.6601 52.6618L6 50.0017L45.9905 10.0013" stroke="white" stroke-width="6.29" stroke-miterlimit="10"/>
<path d="M8.6601 52.6618L6 50.0017L45.9905 10.0013" stroke="#B94E68" stroke-width="3.42" stroke-miterlimit="10"/>
<path d="M68.6358 87.9313H31.3153L12 68.6358V31.3153L31.3153 12H68.6358L87.9512 31.3153V68.6358L68.6358 87.9313Z" fill="#B94E68"/>
<path d="M53.7421 90.2507L50.0002 94.0026L8.65979 52.6622" stroke="white" stroke-width="6.29" stroke-miterlimit="10"/>
<path d="M53.7421 90.2507L50.0002 94.0026L8.65979 52.6622" stroke="#B94E68" stroke-width="3.42" stroke-miterlimit="10"/>
<path d="M45.9896 10L49.9996 6L94.0001 50.0004L90.397 53.6034" stroke="white" stroke-width="6.29" stroke-miterlimit="10"/>
<path d="M45.9896 10L49.9996 6L94.0001 50.0004L90.397 53.6034" stroke="#B94E68" stroke-width="3.42" stroke-miterlimit="10"/>
<path d="M46.5424 58.8818C44.1448 58.8818 41.7471 58.8857 39.3495 58.8818C37.9448 58.8818 36.888 58.2788 36.2941 56.9871C36.1329 56.6198 36.0414 56.2258 36.0242 55.8251C35.9829 55.0123 36.0061 54.1956 36.01 53.3803C36.01 52.8832 36.2857 52.6095 36.7918 52.5785C37.9086 52.5101 38.6988 51.7935 38.8576 50.7025C39.0306 49.5302 38.0926 48.3836 36.9041 48.3139C36.2237 48.2745 36.0061 48.0454 36.0055 47.3643C36.0048 46.6832 36.0055 46.0028 36.0055 45.3217C36.0106 43.3941 37.3347 42.0164 39.2591 42.01C44.208 41.9932 49.1569 42.0029 54.1071 42.0061C54.8327 42.0061 55.2388 42.4302 55.2446 43.1572C55.2446 43.4063 55.2388 43.6562 55.2446 43.9054C55.2601 44.3811 55.5564 44.6936 55.9825 44.6936C56.384 44.6936 56.6887 44.3805 56.7119 43.9228C56.7268 43.6355 56.7119 43.3476 56.7184 43.0597C56.732 42.4787 57.109 42.0268 57.6938 42.021C58.8817 42.0016 60.0753 41.9719 61.258 42.0591C62.7099 42.1662 63.9313 43.5316 63.9745 44.9893C63.9991 45.8233 63.9875 46.658 63.9829 47.4921C63.9829 47.9989 63.6937 48.2823 63.1792 48.3113C62.0372 48.3759 61.1844 49.2203 61.1173 50.3533C61.0527 51.3971 61.8184 52.3474 62.8855 52.5482C63.0146 52.5727 63.1527 52.5682 63.2857 52.583C63.6479 52.6231 63.9616 52.8722 63.9668 53.215C63.9816 54.2015 64.052 55.2008 63.9274 56.173C63.7195 57.8005 62.4336 58.845 60.7512 58.8799C59.7829 58.8999 58.8145 58.8902 57.8462 58.8799C57.1361 58.8741 56.7255 58.4531 56.7184 57.7482C56.7184 57.5945 56.7268 57.4403 56.7119 57.2879C56.6745 56.8973 56.3892 56.6191 56.0244 56.5991C55.8449 56.5875 55.6676 56.6445 55.5285 56.7586C55.3894 56.8727 55.2988 57.0353 55.2749 57.2137C55.2388 57.4189 55.251 57.6333 55.2433 57.8431C55.2226 58.3989 54.8605 58.7985 54.3072 58.8676C54.1833 58.8801 54.0586 58.8848 53.9341 58.8818C51.471 58.8827 49.0071 58.8827 46.5424 58.8818ZM56.7178 53.1905C56.7178 52.8942 56.7249 52.5972 56.7178 52.3003C56.7036 51.8258 56.4059 51.5172 55.9779 51.5204C55.5616 51.5204 55.2594 51.8245 55.2497 52.2822C55.2377 52.8847 55.2377 53.4872 55.2497 54.0898C55.2588 54.5417 55.5674 54.8561 55.9741 54.8645C56.3808 54.8728 56.7036 54.5462 56.7178 54.0814C56.7274 53.7844 56.7178 53.4875 56.7178 53.1905ZM55.2446 48.1035C55.2446 48.4004 55.2375 48.6974 55.2446 48.9937C55.2588 49.4643 55.5616 49.7787 55.985 49.7761C56.3982 49.7729 56.7029 49.4669 56.7126 49.0118C56.7246 48.4092 56.7246 47.8067 56.7126 47.2042C56.7036 46.7523 56.3943 46.436 55.9883 46.4295C55.5822 46.4231 55.2588 46.7523 55.2446 47.2139C55.2401 47.5095 55.2472 47.8072 55.2472 48.1035H55.2446Z" fill="white"/>
</svg>
