<svg width="100" height="156" viewBox="0 0 100 156" fill="none" xmlns="http://www.w3.org/2000/svg">
<rect width="100" height="156" rx="19" fill="#F9FBFF"/>
<path d="M24.8541 109.214C25.7035 109.214 26.3708 109.307 26.8561 109.494C27.3415 109.671 27.6868 109.984 27.8921 110.432C28.1068 110.871 28.2141 111.496 28.2141 112.308C28.2141 113.12 28.1115 113.75 27.9061 114.198C27.7101 114.646 27.3788 114.959 26.9121 115.136C26.4548 115.313 25.8435 115.402 25.0781 115.402C24.6581 115.402 24.2521 115.388 23.8601 115.36C23.4775 115.332 23.1181 115.295 22.7821 115.248C22.4555 115.201 22.1755 115.155 21.9421 115.108C21.7088 115.052 21.5455 115.005 21.4521 114.968L21.4941 114.03C22.0261 114.03 22.5721 114.03 23.1321 114.03C23.7015 114.03 24.2661 114.03 24.8261 114.03C25.2368 114.021 25.5588 113.969 25.7921 113.876C26.0348 113.783 26.2028 113.615 26.2961 113.372C26.3988 113.12 26.4501 112.765 26.4501 112.308C26.4501 111.851 26.3988 111.501 26.2961 111.258C26.2028 111.006 26.0348 110.833 25.7921 110.74C25.5588 110.637 25.2368 110.586 24.8261 110.586C24.0048 110.586 23.3001 110.591 22.7121 110.6C22.1241 110.609 21.7228 110.623 21.5081 110.642L21.3121 109.34C21.6855 109.303 22.0355 109.275 22.3621 109.256C22.6981 109.237 23.0575 109.228 23.4401 109.228C23.8321 109.219 24.3035 109.214 24.8541 109.214ZM23.0621 109.34V119H21.3121V109.34H23.0621ZM31.1884 112.126V116.774C31.179 117.119 31.2444 117.367 31.3844 117.516C31.5337 117.665 31.7717 117.74 32.0984 117.74C32.425 117.74 32.7517 117.67 33.0784 117.53C33.405 117.39 33.8017 117.18 34.2684 116.9L34.4364 117.908C33.9137 118.328 33.4097 118.645 32.9244 118.86C32.439 119.075 31.935 119.182 31.4124 119.182C30.1337 119.182 29.4944 118.552 29.4944 117.292V112.126H31.1884ZM35.7944 112.126V119H34.4504L34.2684 117.67L34.1004 117.474V112.126H35.7944ZM38.8745 112.126L39.0985 113.47L39.2525 113.666V119H37.5585V112.126H38.8745ZM42.2345 111.958L42.0665 113.526H41.5765C41.2125 113.526 40.8438 113.587 40.4705 113.708C40.0972 113.829 39.6305 114.011 39.0705 114.254L38.9585 113.26C39.4438 112.849 39.9385 112.532 40.4425 112.308C40.9465 112.075 41.4318 111.958 41.8985 111.958H42.2345ZM46.186 111.958C46.4193 111.958 46.676 111.967 46.956 111.986C47.236 112.005 47.5207 112.042 47.81 112.098C48.0993 112.154 48.3607 112.233 48.594 112.336L48.398 113.4C48.0527 113.381 47.7073 113.367 47.362 113.358C47.026 113.349 46.732 113.344 46.48 113.344C46.004 113.344 45.626 113.409 45.346 113.54C45.0753 113.661 44.8793 113.885 44.758 114.212C44.6367 114.529 44.576 114.977 44.576 115.556C44.576 116.135 44.6367 116.587 44.758 116.914C44.8793 117.231 45.0753 117.455 45.346 117.586C45.626 117.717 46.004 117.782 46.48 117.782C46.62 117.782 46.802 117.777 47.026 117.768C47.2593 117.759 47.5067 117.745 47.768 117.726C48.0387 117.707 48.3 117.684 48.552 117.656L48.72 118.748C48.356 118.897 47.95 119.005 47.502 119.07C47.054 119.135 46.6107 119.168 46.172 119.168C45.3507 119.168 44.6927 119.051 44.198 118.818C43.7033 118.585 43.344 118.207 43.12 117.684C42.9053 117.152 42.798 116.443 42.798 115.556C42.798 114.669 42.91 113.965 43.134 113.442C43.358 112.91 43.7173 112.532 44.212 112.308C44.7067 112.075 45.3647 111.958 46.186 111.958ZM54.488 111.958C55.7667 111.958 56.406 112.588 56.406 113.848V119H54.698V114.366C54.698 113.993 54.6327 113.736 54.502 113.596C54.3807 113.456 54.166 113.386 53.858 113.386C53.5127 113.386 53.158 113.461 52.794 113.61C52.43 113.759 51.9913 113.983 51.478 114.282L51.352 113.302C51.8747 112.873 52.3973 112.541 52.92 112.308C53.452 112.075 53.9747 111.958 54.488 111.958ZM51.66 109.2L51.674 111.72C51.674 112.065 51.6553 112.392 51.618 112.7C51.59 112.999 51.548 113.255 51.492 113.47L51.66 113.666V119H49.966V109.2H51.66ZM61.5828 111.958C62.1335 111.958 62.5955 112.033 62.9688 112.182C63.3515 112.322 63.6408 112.565 63.8368 112.91C64.0328 113.255 64.1308 113.731 64.1308 114.338V119H62.7868L62.5488 117.516L62.4228 117.32V114.324C62.4228 113.96 62.3388 113.699 62.1708 113.54C62.0028 113.372 61.6808 113.288 61.2048 113.288C60.8501 113.288 60.4021 113.302 59.8608 113.33C59.3288 113.358 58.7921 113.395 58.2508 113.442L58.0968 112.28C58.4235 112.215 58.7921 112.159 59.2028 112.112C59.6135 112.065 60.0288 112.028 60.4488 112C60.8688 111.972 61.2468 111.958 61.5828 111.958ZM63.4028 114.772L63.3888 115.822H60.2388C59.9588 115.831 59.7581 115.906 59.6368 116.046C59.5155 116.186 59.4548 116.377 59.4548 116.62V116.998C59.4548 117.278 59.5295 117.493 59.6788 117.642C59.8281 117.782 60.0615 117.852 60.3788 117.852C60.6308 117.852 60.9108 117.801 61.2188 117.698C61.5268 117.595 61.8301 117.446 62.1288 117.25C62.4368 117.054 62.7121 116.821 62.9548 116.55V117.432C62.8615 117.572 62.7261 117.74 62.5488 117.936C62.3715 118.123 62.1521 118.309 61.8908 118.496C61.6388 118.683 61.3448 118.837 61.0088 118.958C60.6821 119.079 60.3181 119.14 59.9168 119.14C59.5061 119.14 59.1375 119.07 58.8108 118.93C58.4841 118.781 58.2275 118.566 58.0408 118.286C57.8541 117.997 57.7608 117.642 57.7608 117.222V116.494C57.7608 115.953 57.9381 115.533 58.2928 115.234C58.6568 114.926 59.1515 114.772 59.7768 114.772H63.4028ZM68.3105 111.958C68.6278 111.958 68.9685 111.967 69.3325 111.986C69.7058 112.005 70.0698 112.033 70.4245 112.07C70.7791 112.098 71.0965 112.14 71.3765 112.196L71.2645 113.302C70.8165 113.293 70.3685 113.283 69.9205 113.274C69.4818 113.255 69.0478 113.246 68.6185 113.246C68.2358 113.246 67.9325 113.255 67.7085 113.274C67.4938 113.293 67.3398 113.349 67.2465 113.442C67.1625 113.535 67.1205 113.694 67.1205 113.918C67.1205 114.189 67.1951 114.371 67.3445 114.464C67.4938 114.548 67.7365 114.632 68.0725 114.716L69.9485 115.15C70.5085 115.29 70.9238 115.505 71.1945 115.794C71.4651 116.074 71.6005 116.508 71.6005 117.096C71.6005 117.665 71.4931 118.099 71.2785 118.398C71.0731 118.687 70.7418 118.888 70.2845 119C69.8365 119.103 69.2625 119.154 68.5625 119.154C68.2918 119.154 67.8905 119.14 67.3585 119.112C66.8265 119.093 66.2431 119.033 65.6085 118.93L65.7205 117.824C65.9071 117.824 66.1265 117.829 66.3785 117.838C66.6398 117.847 66.9151 117.852 67.2045 117.852C67.5031 117.852 67.8065 117.852 68.1145 117.852C68.6091 117.852 68.9871 117.838 69.2485 117.81C69.5191 117.773 69.7058 117.703 69.8085 117.6C69.9111 117.488 69.9625 117.329 69.9625 117.124C69.9625 116.863 69.8738 116.69 69.6965 116.606C69.5285 116.513 69.2765 116.424 68.9405 116.34L67.1065 115.892C66.6865 115.78 66.3598 115.64 66.1265 115.472C65.8931 115.295 65.7251 115.08 65.6225 114.828C65.5198 114.567 65.4685 114.249 65.4685 113.876C65.4685 113.372 65.5618 112.98 65.7485 112.7C65.9445 112.42 66.2478 112.224 66.6585 112.112C67.0785 112 67.6291 111.949 68.3105 111.958ZM76.0593 111.958C77.1699 111.958 77.9679 112.154 78.4533 112.546C78.9386 112.929 79.1859 113.498 79.1953 114.254C79.2046 114.879 79.0553 115.355 78.7473 115.682C78.4486 115.999 77.9493 116.158 77.2493 116.158H73.3293V115.108H76.7873C77.1046 115.108 77.3053 115.024 77.3893 114.856C77.4826 114.688 77.5293 114.483 77.5293 114.24C77.5199 113.857 77.4079 113.591 77.1933 113.442C76.9879 113.293 76.6333 113.218 76.1293 113.218C75.6906 113.218 75.3499 113.279 75.1073 113.4C74.8646 113.521 74.6919 113.741 74.5893 114.058C74.4959 114.375 74.4493 114.833 74.4493 115.43C74.4493 116.065 74.5099 116.555 74.6313 116.9C74.7526 117.245 74.9533 117.483 75.2333 117.614C75.5133 117.735 75.8866 117.796 76.3533 117.796C76.6986 117.796 77.0953 117.782 77.5433 117.754C78.0006 117.726 78.4393 117.689 78.8593 117.642L79.0273 118.72C78.7753 118.823 78.4859 118.907 78.1593 118.972C77.8326 119.037 77.4919 119.084 77.1373 119.112C76.7919 119.149 76.4653 119.168 76.1573 119.168C75.3173 119.168 74.6406 119.047 74.1273 118.804C73.6233 118.552 73.2546 118.16 73.0213 117.628C72.7973 117.096 72.6853 116.41 72.6853 115.57C72.6853 114.665 72.7973 113.951 73.0213 113.428C73.2546 112.896 73.6186 112.518 74.1133 112.294C74.6173 112.07 75.2659 111.958 76.0593 111.958ZM32.8151 127.214C33.6177 127.214 34.2664 127.298 34.7611 127.466C35.2651 127.634 35.6291 127.923 35.8531 128.334C36.0864 128.735 36.2031 129.305 36.2031 130.042C36.2031 130.527 36.1424 130.943 36.0211 131.288C35.9091 131.624 35.7177 131.895 35.4471 132.1C35.1857 132.296 34.8311 132.422 34.3831 132.478V132.548C34.5417 132.585 34.7051 132.66 34.8731 132.772C35.0504 132.875 35.2091 133.024 35.3491 133.22C35.4984 133.416 35.6104 133.668 35.6851 133.976L36.5671 137H34.7191L33.9211 134.018C33.8184 133.682 33.6784 133.449 33.5011 133.318C33.3237 133.178 33.0811 133.108 32.7731 133.108C32.1664 133.108 31.6484 133.108 31.2191 133.108C30.7897 133.099 30.4304 133.089 30.1411 133.08C29.8611 133.071 29.6137 133.066 29.3991 133.066L29.4411 131.736H32.7731C33.1931 131.727 33.5244 131.68 33.7671 131.596C34.0097 131.503 34.1824 131.344 34.2851 131.12C34.3877 130.887 34.4391 130.56 34.4391 130.14C34.4391 129.729 34.3877 129.412 34.2851 129.188C34.1824 128.964 34.0097 128.81 33.7671 128.726C33.5244 128.633 33.1931 128.586 32.7731 128.586C31.9517 128.586 31.2471 128.591 30.6591 128.6C30.0711 128.609 29.6697 128.619 29.4551 128.628L29.2591 127.34C29.6324 127.303 29.9824 127.275 30.3091 127.256C30.6451 127.237 31.0091 127.228 31.4011 127.228C31.7931 127.219 32.2644 127.214 32.8151 127.214ZM30.9811 127.34V137H29.2591V127.34H30.9811ZM40.8774 129.958C41.9881 129.958 42.7861 130.154 43.2714 130.546C43.7567 130.929 44.0041 131.498 44.0134 132.254C44.0227 132.879 43.8734 133.355 43.5654 133.682C43.2667 133.999 42.7674 134.158 42.0674 134.158H38.1474V133.108H41.6054C41.9227 133.108 42.1234 133.024 42.2074 132.856C42.3007 132.688 42.3474 132.483 42.3474 132.24C42.3381 131.857 42.2261 131.591 42.0114 131.442C41.8061 131.293 41.4514 131.218 40.9474 131.218C40.5087 131.218 40.1681 131.279 39.9254 131.4C39.6827 131.521 39.5101 131.741 39.4074 132.058C39.3141 132.375 39.2674 132.833 39.2674 133.43C39.2674 134.065 39.3281 134.555 39.4494 134.9C39.5707 135.245 39.7714 135.483 40.0514 135.614C40.3314 135.735 40.7047 135.796 41.1714 135.796C41.5167 135.796 41.9134 135.782 42.3614 135.754C42.8187 135.726 43.2574 135.689 43.6774 135.642L43.8454 136.72C43.5934 136.823 43.3041 136.907 42.9774 136.972C42.6507 137.037 42.3101 137.084 41.9554 137.112C41.6101 137.149 41.2834 137.168 40.9754 137.168C40.1354 137.168 39.4587 137.047 38.9454 136.804C38.4414 136.552 38.0727 136.16 37.8394 135.628C37.6154 135.096 37.5034 134.41 37.5034 133.57C37.5034 132.665 37.6154 131.951 37.8394 131.428C38.0727 130.896 38.4367 130.518 38.9314 130.294C39.4354 130.07 40.0841 129.958 40.8774 129.958ZM49.666 129.958C50.5154 129.958 51.1267 130.271 51.5 130.896C51.8734 131.521 52.06 132.427 52.06 133.612C52.06 134.517 51.962 135.231 51.766 135.754C51.5794 136.267 51.2947 136.636 50.912 136.86C50.5294 137.075 50.044 137.182 49.456 137.182C48.9894 137.182 48.532 137.117 48.084 136.986C47.6454 136.846 47.2394 136.631 46.866 136.342L46.978 135.502C47.342 135.605 47.6687 135.693 47.958 135.768C48.2474 135.843 48.5647 135.88 48.91 135.88C49.2554 135.88 49.526 135.824 49.722 135.712C49.9274 135.591 50.0767 135.367 50.17 135.04C50.2634 134.713 50.31 134.242 50.31 133.626C50.31 133.019 50.268 132.548 50.184 132.212C50.1 131.876 49.96 131.643 49.764 131.512C49.5774 131.372 49.33 131.302 49.022 131.302C48.686 131.302 48.3687 131.377 48.07 131.526C47.7714 131.666 47.426 131.876 47.034 132.156L46.838 131.26C47.0527 131.008 47.3094 130.784 47.608 130.588C47.916 130.392 48.2474 130.238 48.602 130.126C48.9567 130.014 49.3114 129.958 49.666 129.958ZM46.768 130.126L46.936 131.456L47.09 131.652V136.09L47.02 136.258C47.048 136.529 47.0667 136.799 47.076 137.07C47.0854 137.35 47.09 137.635 47.09 137.924V139.73H45.396V130.126H46.768ZM56.6492 129.958C57.4892 129.958 58.1565 130.075 58.6512 130.308C59.1552 130.541 59.5145 130.924 59.7292 131.456C59.9532 131.988 60.0652 132.693 60.0652 133.57C60.0652 134.447 59.9532 135.152 59.7292 135.684C59.5145 136.207 59.1552 136.589 58.6512 136.832C58.1565 137.065 57.4892 137.182 56.6492 137.182C55.8278 137.182 55.1652 137.065 54.6612 136.832C54.1665 136.589 53.8072 136.207 53.5832 135.684C53.3592 135.152 53.2472 134.447 53.2472 133.57C53.2472 132.693 53.3592 131.988 53.5832 131.456C53.8072 130.924 54.1665 130.541 54.6612 130.308C55.1652 130.075 55.8278 129.958 56.6492 129.958ZM56.6492 131.246C56.2385 131.246 55.9118 131.316 55.6692 131.456C55.4358 131.587 55.2678 131.82 55.1652 132.156C55.0625 132.492 55.0112 132.963 55.0112 133.57C55.0112 134.177 55.0625 134.648 55.1652 134.984C55.2678 135.32 55.4358 135.553 55.6692 135.684C55.9118 135.815 56.2385 135.88 56.6492 135.88C57.0692 135.88 57.4005 135.815 57.6432 135.684C57.8858 135.553 58.0538 135.32 58.1472 134.984C58.2498 134.648 58.3012 134.177 58.3012 133.57C58.3012 132.963 58.2498 132.492 58.1472 132.156C58.0538 131.82 57.8858 131.587 57.6432 131.456C57.4005 131.316 57.0692 131.246 56.6492 131.246ZM62.8383 130.126L63.0623 131.47L63.2163 131.666V137H61.5223V130.126H62.8383ZM66.1983 129.958L66.0303 131.526H65.5403C65.1763 131.526 64.8076 131.587 64.4343 131.708C64.0609 131.829 63.5943 132.011 63.0343 132.254L62.9223 131.26C63.4076 130.849 63.9023 130.532 64.4063 130.308C64.9103 130.075 65.3956 129.958 65.8623 129.958H66.1983ZM69.4745 128.166V134.928C69.4745 135.217 69.5352 135.423 69.6565 135.544C69.7872 135.665 70.0065 135.726 70.3145 135.726H71.2665L71.4485 136.916C71.2898 136.963 71.0985 137.005 70.8745 137.042C70.6505 137.079 70.4312 137.103 70.2165 137.112C70.0018 137.131 69.8198 137.14 69.6705 137.14C69.0732 137.14 68.6065 136.981 68.2705 136.664C67.9438 136.337 67.7805 135.871 67.7805 135.264V128.166H69.4745ZM71.5185 130.126V131.302H66.5625V130.196L67.9065 130.126H71.5185Z" fill="#333839"/>
<path d="M90.3994 53.6045L53.7439 90.2501" stroke="white" stroke-width="6.29" stroke-miterlimit="10"/>
<path d="M90.3994 53.6045L53.7439 90.2501" stroke="#D2BF79" stroke-width="3.42" stroke-miterlimit="10"/>
<path d="M8.6601 52.6616L6 50.0016L45.9905 10.0012" stroke="white" stroke-width="6.29" stroke-miterlimit="10"/>
<path d="M8.6601 52.6616L6 50.0016L45.9905 10.0012" stroke="#D2BF79" stroke-width="3.42" stroke-miterlimit="10"/>
<path d="M68.6358 87.9313H31.3153L12 68.6358V31.3153L31.3153 12H68.6358L87.9512 31.3153V68.6358L68.6358 87.9313Z" fill="#D2BF79"/>
<path d="M53.7421 90.2506L50.0002 94.0025L8.65979 52.6621" stroke="white" stroke-width="6.29" stroke-miterlimit="10"/>
<path d="M53.7421 90.2506L50.0002 94.0025L8.65979 52.6621" stroke="#D2BF79" stroke-width="3.42" stroke-miterlimit="10"/>
<path d="M45.9896 10L49.9996 6L94.0001 50.0004L90.397 53.6034" stroke="white" stroke-width="6.29" stroke-miterlimit="10"/>
<path d="M45.9896 10L49.9996 6L94.0001 50.0004L90.397 53.6034" stroke="#D2BF79" stroke-width="3.42" stroke-miterlimit="10"/>
<path d="M49.2914 40.8943H55.1339C55.3855 40.8703 55.6394 40.9019 55.8775 40.9869C56.1156 41.0718 56.3321 41.2081 56.5117 41.386C56.6914 41.5639 56.8297 41.7791 56.917 42.0163C57.0042 42.2536 57.0383 42.5071 57.0168 42.759V45.1808L57.5798 44.6359C57.6949 44.5208 57.8038 44.4058 57.9249 44.2968C57.955 44.2622 57.9923 44.2344 58.034 44.2154C58.0758 44.1963 58.1212 44.1865 58.1671 44.1865C58.213 44.1865 58.2584 44.1963 58.3002 44.2154C58.3419 44.2344 58.3792 44.2622 58.4093 44.2968C58.4439 44.3269 58.4717 44.3641 58.4907 44.4059C58.5098 44.4477 58.5196 44.4931 58.5196 44.539C58.5196 44.5849 58.5098 44.6303 58.4907 44.6721C58.4717 44.7138 58.4439 44.7511 58.4093 44.7812L56.9441 46.2463C56.9091 46.2873 56.865 46.3197 56.8154 46.3409C56.7658 46.3622 56.712 46.3717 56.6581 46.3688C56.6043 46.3659 56.5518 46.3506 56.5048 46.3241C56.4578 46.2976 56.4175 46.2606 56.3871 46.216L54.9886 44.8114C54.819 44.648 54.7706 44.4603 54.9886 44.2908C55.0223 44.2563 55.0631 44.2297 55.1083 44.2129C55.1535 44.1961 55.2018 44.1895 55.2498 44.1935C55.2978 44.1976 55.3444 44.2122 55.3861 44.2363C55.4278 44.2605 55.4636 44.2935 55.4911 44.3331C55.7575 44.6056 56.0118 44.8841 56.2903 45.1747C56.3326 45.1081 56.3629 45.0839 56.3629 45.0657C56.3629 44.2302 56.3629 43.4008 56.3629 42.5653C56.3607 42.4343 56.332 42.3052 56.2785 42.1857C56.225 42.0662 56.1478 41.9587 56.0516 41.8699C55.9554 41.7811 55.8421 41.7126 55.7188 41.6688C55.5954 41.6249 55.4644 41.6065 55.3337 41.6147C54.5345 41.6147 53.7293 41.6147 52.9119 41.6147H49.3278V42.0264C49.3278 45.0536 49.3278 48.0808 49.3278 51.108C49.335 51.2786 49.3207 51.4494 49.2854 51.6165C49.2225 51.805 49.0983 51.967 48.9326 52.0767C48.7669 52.1865 48.5693 52.2376 48.3712 52.2219H36.9648C36.8363 52.2299 36.7076 52.2105 36.5872 52.1649C36.4668 52.1194 36.3574 52.0487 36.2664 51.9577C36.1754 51.8667 36.1047 51.7573 36.0592 51.6369C36.0136 51.5165 35.9942 51.3878 36.0021 51.2593V36.9711C35.9933 36.8421 36.012 36.7127 36.0572 36.5915C36.1024 36.4704 36.1729 36.3603 36.264 36.2686C36.3551 36.1769 36.4648 36.1057 36.5856 36.0598C36.7065 36.0139 36.8357 35.9943 36.9648 36.0024H48.3651C48.4966 35.9928 48.6286 36.0122 48.7518 36.0592C48.875 36.1061 48.9864 36.1795 49.0782 36.2742C49.1699 36.3688 49.2398 36.4824 49.283 36.607C49.3261 36.7316 49.3414 36.8641 49.3278 36.9953C49.3278 38.1638 49.3278 39.3383 49.3278 40.5128L49.2914 40.8943ZM43.3703 40.8156C43.3703 40.1496 43.3703 39.4776 43.3703 38.8055C43.3703 38.5452 43.2674 38.4423 43.0131 38.4483H41.9354C41.7053 38.4483 41.6085 38.5391 41.6085 38.7753C41.6085 40.1112 41.6085 41.4533 41.6085 42.8014C41.6085 43.0436 41.7114 43.1465 41.9475 43.1465C42.2987 43.1465 42.6498 43.1465 43.001 43.1465C43.3521 43.1465 43.3763 43.0436 43.3703 42.7711C43.3582 42.1233 43.3703 41.4694 43.3703 40.8156ZM42.6256 45.211H38.2362C38.1575 45.211 38.0546 45.1808 38.0001 45.211C37.9456 45.2413 37.7276 45.4229 37.7276 45.538C37.7276 45.653 37.879 45.7801 37.994 45.8588C38.1091 45.9376 38.1878 45.8588 38.2907 45.8588H47.1603C47.4025 45.8588 47.5659 45.7499 47.5599 45.5077C47.5538 45.2655 47.354 45.1808 47.1119 45.1808L42.6256 45.211ZM38.1514 41.76V42.7893C38.1514 43.0133 38.2422 43.1283 38.4723 43.1283H39.5863C39.8285 43.1283 39.9254 43.0133 39.9254 42.7772C39.9254 42.087 39.9254 41.3907 39.9254 40.7005C39.9254 40.4523 39.8224 40.3252 39.5681 40.3312H38.5147C38.2423 40.3312 38.1393 40.4523 38.1454 40.7187C38.1514 40.9851 38.1514 41.4149 38.1514 41.76ZM39.1565 49.7457H39.9072C39.9555 49.7503 40.0042 49.7442 40.05 49.728C40.0957 49.7117 40.1373 49.6857 40.1719 49.6516C40.2065 49.6176 40.2333 49.5764 40.2503 49.531C40.2673 49.4855 40.2742 49.4369 40.2705 49.3885C40.2705 48.8921 40.2705 48.3896 40.2705 47.8871C40.2751 47.8366 40.2686 47.7857 40.2514 47.7381C40.2342 47.6904 40.2067 47.6471 40.1708 47.6113C40.135 47.5755 40.0917 47.548 40.0441 47.5307C39.9964 47.5135 39.9455 47.507 39.8951 47.5117H38.4178C38.3671 47.5059 38.3158 47.5116 38.2676 47.5284C38.2194 47.5452 38.1756 47.5727 38.1396 47.6088C38.1035 47.6449 38.076 47.6886 38.0592 47.7368C38.0424 47.785 38.0367 47.8364 38.0425 47.8871C38.0425 48.3835 38.0425 48.886 38.0425 49.3885C38.0376 49.4364 38.0435 49.4847 38.0598 49.5299C38.0762 49.5752 38.1024 49.6162 38.1367 49.6499C38.171 49.6836 38.2125 49.7092 38.258 49.7247C38.3035 49.7403 38.3519 49.7454 38.3997 49.7397L39.1565 49.7457ZM44.6054 48.0445H47.1603C47.3904 48.0445 47.5417 47.9415 47.5478 47.7175C47.5538 47.4935 47.4085 47.3724 47.1785 47.3724C45.4711 47.3724 43.7699 47.3724 42.0686 47.3724C41.9951 47.3844 41.9252 47.413 41.8644 47.456C41.8035 47.499 41.7533 47.5553 41.7174 47.6207C41.6145 47.8386 41.8083 48.0324 42.111 48.0324L44.6054 48.0445ZM44.6054 49.8971H46.9302C47.0271 49.8971 47.1542 49.9334 47.2269 49.8971C47.2996 49.8608 47.5054 49.6912 47.5296 49.558C47.5538 49.4248 47.4146 49.2493 47.2148 49.2372H42.2563C42.1534 49.2372 42.0323 49.2069 41.9596 49.2372C41.887 49.2674 41.7174 49.437 41.7053 49.552C41.6932 49.667 41.8204 49.7881 41.9172 49.8608C42.0141 49.9334 42.111 49.8971 42.2078 49.8971H44.6054ZM45.0292 42.1899C45.0292 42.4018 45.0292 42.6137 45.0292 42.7953C45.0292 42.977 45.12 43.1162 45.3319 43.1162H46.5004C46.5402 43.1222 46.5808 43.1188 46.6191 43.1064C46.6574 43.094 46.6923 43.0729 46.721 43.0447C46.7497 43.0165 46.7716 42.9821 46.7848 42.9441C46.798 42.9061 46.8022 42.8655 46.797 42.8256C46.797 42.4018 46.797 41.9841 46.797 41.5663C46.8044 41.5217 46.801 41.476 46.7871 41.433C46.7733 41.39 46.7494 41.3509 46.7175 41.319C46.6855 41.287 46.6464 41.2631 46.6034 41.2493C46.5604 41.2354 46.5147 41.232 46.4701 41.2394H45.3561C45.1381 41.2394 45.0231 41.3363 45.0292 41.5663C45.0352 41.7964 45.0594 41.9901 45.0594 42.1839L45.0292 42.1899Z" fill="#FFFCFC"/>
<path d="M51.2894 59.911H45.447C45.1925 59.9357 44.9358 59.9036 44.6953 59.8169C44.4548 59.7302 44.2365 59.5911 44.0564 59.4098C43.8762 59.2285 43.7385 59.0094 43.6534 58.7683C43.5683 58.5273 43.5377 58.2703 43.5641 58.016V55.6791C43.4934 55.7284 43.4267 55.7831 43.3643 55.8425C43.1281 56.0726 42.8981 56.3087 42.6559 56.5388C42.6263 56.5733 42.5897 56.601 42.5484 56.62C42.5071 56.639 42.4622 56.6488 42.4168 56.6488C42.3713 56.6488 42.3264 56.639 42.2851 56.62C42.2438 56.601 42.2072 56.5733 42.1776 56.5388C42.1445 56.5109 42.1179 56.4762 42.0996 56.437C42.0814 56.3977 42.0719 56.355 42.0719 56.3117C42.0719 56.2685 42.0814 56.2257 42.0996 56.1865C42.1179 56.1473 42.1445 56.1125 42.1776 56.0847C42.6862 55.564 43.1887 55.0494 43.7215 54.559C43.7888 54.5208 43.865 54.5007 43.9424 54.5007C44.0199 54.5007 44.096 54.5208 44.1634 54.559C44.6841 55.0312 45.1685 55.5338 45.6649 56.0363C45.6996 56.0664 45.7273 56.1036 45.7464 56.1454C45.7654 56.1871 45.7753 56.2325 45.7753 56.2784C45.7753 56.3243 45.7654 56.3697 45.7464 56.4115C45.7273 56.4533 45.6996 56.4905 45.6649 56.5206C45.636 56.5561 45.5995 56.5846 45.5581 56.6043C45.5167 56.6239 45.4715 56.6341 45.4258 56.6341C45.38 56.6341 45.3348 56.6239 45.2934 56.6043C45.2521 56.5846 45.2156 56.5561 45.1866 56.5206C44.9021 56.2421 44.6357 55.9515 44.3572 55.6669L44.2785 55.7093V56.8354C44.2785 57.2956 44.2785 57.7557 44.2785 58.2219C44.2768 58.3527 44.3014 58.4826 44.3507 58.6038C44.4001 58.725 44.4731 58.8351 44.5657 58.9276C44.6582 59.0201 44.7683 59.0932 44.8895 59.1425C45.0107 59.1918 45.1405 59.2164 45.2714 59.2148C47.2451 59.2148 49.2249 59.2148 51.1986 59.2148L51.3076 59.1845V49.6005C51.3076 48.771 51.6163 48.4623 52.4518 48.4623H63.5494C63.6974 48.4369 63.8494 48.4473 63.9925 48.4928C64.1356 48.5383 64.2657 48.6174 64.3719 48.7236C64.478 48.8298 64.5572 48.9599 64.6026 49.103C64.6481 49.2461 64.6586 49.398 64.6332 49.546V63.5679C64.6572 63.7156 64.6457 63.8669 64.5997 64.0094C64.5538 64.1519 64.4746 64.2813 64.3688 64.3872C64.2629 64.493 64.1334 64.5722 63.991 64.6182C63.8485 64.6641 63.6972 64.6756 63.5494 64.6516H52.3792C51.6405 64.6516 51.3015 64.3126 51.3015 63.5679C51.3015 62.472 51.3015 61.3822 51.3015 60.2864L51.2894 59.911ZM60.4375 54.3955H60.1045C59.4991 54.3955 58.9239 54.3955 58.3306 54.3955C58.1971 54.4056 58.063 54.3866 57.9376 54.3399C57.8121 54.2932 57.6983 54.2198 57.6039 54.1248C57.5096 54.0299 57.4369 53.9156 57.3909 53.7899C57.345 53.6642 57.3268 53.53 57.3377 53.3966V51.3018C56.7709 51.4515 56.2746 51.7953 55.935 52.2731C55.5954 52.751 55.4341 53.3327 55.479 53.9172C55.531 54.5435 55.8126 55.1285 56.2697 55.5598C56.7267 55.9912 57.327 56.2385 57.9552 56.2542C58.5188 56.2733 59.072 56.0995 59.5233 55.7616C59.9747 55.4236 60.2972 54.9417 60.4375 54.3955ZM59.5838 53.6872C59.9895 53.6872 60.4012 53.6872 60.7947 53.6872C61.0066 53.6872 61.1095 53.6024 61.0974 53.3784C61.0182 52.6767 60.7062 52.0218 60.2113 51.5181C59.7164 51.0145 59.0671 50.691 58.3669 50.5995C58.1066 50.5995 57.9916 50.6782 57.9976 50.9325V53.3542C57.9976 53.6085 58.1066 53.7053 58.3609 53.6993C58.7786 53.6872 59.1782 53.6872 59.5838 53.6872ZM57.931 58.6033H62.3204C62.401 58.6094 62.482 58.6094 62.5626 58.6033C62.6053 58.6018 62.6472 58.5917 62.686 58.5738C62.7247 58.5558 62.7595 58.5303 62.7882 58.4987C62.817 58.4671 62.8392 58.4301 62.8534 58.3899C62.8677 58.3496 62.8738 58.3069 62.8714 58.2643C62.8748 58.2212 62.8691 58.1779 62.8547 58.1372C62.8403 58.0965 62.8176 58.0592 62.7879 58.0278C62.7582 57.9965 62.7223 57.9716 62.6825 57.955C62.6426 57.9384 62.5997 57.9303 62.5565 57.9313H53.59C53.4992 57.9313 53.3842 57.9313 53.3237 57.9313C53.2631 57.9313 53.033 58.1311 53.033 58.24C53.033 58.349 53.1844 58.4883 53.2994 58.5791C53.4145 58.6699 53.469 58.5791 53.5598 58.5791L57.931 58.6033ZM53.36 61.134V61.8848C53.3517 61.9322 53.3548 61.9809 53.3692 62.0268C53.3835 62.0728 53.4085 62.1147 53.4423 62.149C53.476 62.1834 53.5175 62.2092 53.5632 62.2243C53.6089 62.2394 53.6575 62.2434 53.7051 62.2359H55.2368C55.4729 62.2359 55.588 62.1269 55.588 61.8908V60.3591C55.596 60.3114 55.5927 60.2626 55.5784 60.2164C55.564 60.1703 55.5391 60.1281 55.5055 60.0934C55.472 60.0587 55.4307 60.0323 55.3851 60.0164C55.3395 60.0005 55.2908 59.9955 55.2429 60.0018H53.7111C53.475 60.0018 53.3539 60.1169 53.36 60.353V61.134ZM59.9653 61.7031H57.4406C57.1137 61.7031 56.9078 61.9514 57.0652 62.1693C57.122 62.2339 57.1918 62.2856 57.2701 62.3211C57.3484 62.3566 57.4334 62.3751 57.5193 62.3752C59.1338 62.3752 60.7483 62.3752 62.3628 62.3752C62.6958 62.3752 62.8653 62.2601 62.8471 62.024C62.829 61.7879 62.5868 61.691 62.3446 61.691C61.5697 61.7334 60.7705 61.7273 59.9653 61.7273V61.7031ZM59.9653 60.5346H62.4899C62.7079 60.5346 62.8653 60.4438 62.8714 60.2077C62.8774 59.9716 62.7321 59.8626 62.5081 59.8626H57.3982C57.3552 59.8567 57.3115 59.8593 57.2696 59.8705C57.2276 59.8816 57.1883 59.901 57.1539 59.9275C57.1196 59.954 57.0908 59.987 57.0693 60.0247C57.0479 60.0625 57.0341 60.1041 57.0289 60.1472C56.9926 60.3772 57.1561 60.5346 57.4406 60.5346H59.9653Z" fill="#FFFCFC"/>
</svg>
