<svg width="100" height="156" viewBox="0 0 100 156" fill="none" xmlns="http://www.w3.org/2000/svg">
<rect width="100" height="156" rx="19" fill="#F9FBFF"/>
<path d="M32.919 109.214C33.7216 109.214 34.3703 109.298 34.865 109.466C35.369 109.634 35.733 109.923 35.957 110.334C36.1903 110.735 36.307 111.305 36.307 112.042C36.307 112.527 36.2463 112.943 36.125 113.288C36.013 113.624 35.8216 113.895 35.551 114.1C35.2896 114.296 34.935 114.422 34.487 114.478V114.548C34.6456 114.585 34.809 114.66 34.977 114.772C35.1543 114.875 35.313 115.024 35.453 115.22C35.6023 115.416 35.7143 115.668 35.789 115.976L36.671 119H34.823L34.025 116.018C33.9223 115.682 33.7823 115.449 33.605 115.318C33.4276 115.178 33.185 115.108 32.877 115.108C32.2703 115.108 31.7523 115.108 31.323 115.108C30.8936 115.099 30.5343 115.089 30.245 115.08C29.965 115.071 29.7176 115.066 29.503 115.066L29.545 113.736H32.877C33.297 113.727 33.6283 113.68 33.871 113.596C34.1136 113.503 34.2863 113.344 34.389 113.12C34.4916 112.887 34.543 112.56 34.543 112.14C34.543 111.729 34.4916 111.412 34.389 111.188C34.2863 110.964 34.1136 110.81 33.871 110.726C33.6283 110.633 33.297 110.586 32.877 110.586C32.0556 110.586 31.351 110.591 30.763 110.6C30.175 110.609 29.7736 110.619 29.559 110.628L29.363 109.34C29.7363 109.303 30.0863 109.275 30.413 109.256C30.749 109.237 31.113 109.228 31.505 109.228C31.897 109.219 32.3683 109.214 32.919 109.214ZM31.085 109.34V119H29.363V109.34H31.085ZM41.5413 111.958C42.652 111.958 43.45 112.154 43.9353 112.546C44.4207 112.929 44.668 113.498 44.6773 114.254C44.6867 114.879 44.5373 115.355 44.2293 115.682C43.9307 115.999 43.4313 116.158 42.7313 116.158H38.8113V115.108H42.2693C42.5867 115.108 42.7873 115.024 42.8713 114.856C42.9647 114.688 43.0113 114.483 43.0113 114.24C43.002 113.857 42.89 113.591 42.6753 113.442C42.47 113.293 42.1153 113.218 41.6113 113.218C41.1727 113.218 40.832 113.279 40.5893 113.4C40.3467 113.521 40.174 113.741 40.0713 114.058C39.978 114.375 39.9313 114.833 39.9313 115.43C39.9313 116.065 39.992 116.555 40.1133 116.9C40.2347 117.245 40.4353 117.483 40.7153 117.614C40.9953 117.735 41.3687 117.796 41.8353 117.796C42.1807 117.796 42.5773 117.782 43.0253 117.754C43.4827 117.726 43.9213 117.689 44.3413 117.642L44.5093 118.72C44.2573 118.823 43.968 118.907 43.6413 118.972C43.3147 119.037 42.974 119.084 42.6193 119.112C42.274 119.149 41.9473 119.168 41.6393 119.168C40.7993 119.168 40.1227 119.047 39.6093 118.804C39.1053 118.552 38.7367 118.16 38.5033 117.628C38.2793 117.096 38.1673 116.41 38.1673 115.57C38.1673 114.665 38.2793 113.951 38.5033 113.428C38.7367 112.896 39.1007 112.518 39.5953 112.294C40.0993 112.07 40.748 111.958 41.5413 111.958ZM48.8879 110.166V116.928C48.8879 117.217 48.9486 117.423 49.0699 117.544C49.2006 117.665 49.4199 117.726 49.7279 117.726H50.6799L50.8619 118.916C50.7033 118.963 50.5119 119.005 50.2879 119.042C50.0639 119.079 49.8446 119.103 49.6299 119.112C49.4153 119.131 49.2333 119.14 49.0839 119.14C48.4866 119.14 48.0199 118.981 47.6839 118.664C47.3573 118.337 47.1939 117.871 47.1939 117.264V110.166H48.8879ZM50.9319 112.126V113.302H45.9759V112.196L47.3199 112.126H50.9319ZM54.2564 112.126V116.774C54.247 117.119 54.3124 117.367 54.4524 117.516C54.6017 117.665 54.8397 117.74 55.1664 117.74C55.493 117.74 55.8197 117.67 56.1464 117.53C56.473 117.39 56.8697 117.18 57.3364 116.9L57.5044 117.908C56.9817 118.328 56.4777 118.645 55.9924 118.86C55.507 119.075 55.003 119.182 54.4804 119.182C53.2017 119.182 52.5624 118.552 52.5624 117.292V112.126H54.2564ZM58.8624 112.126V119H57.5184L57.3364 117.67L57.1684 117.474V112.126H58.8624ZM62.5025 112.126L62.7265 113.47L62.8805 113.666V119H61.1865V112.126H62.5025ZM65.8625 111.958L65.6945 113.526H65.2045C64.8405 113.526 64.4718 113.587 64.0985 113.708C63.7252 113.829 63.2585 114.011 62.6985 114.254L62.5865 113.26C63.0718 112.849 63.5665 112.532 64.0705 112.308C64.5745 112.075 65.0598 111.958 65.5265 111.958H65.8625ZM71.9527 111.958C73.2314 111.958 73.8707 112.588 73.8707 113.848V119H72.1767V114.366C72.1767 113.993 72.1114 113.736 71.9807 113.596C71.85 113.456 71.6307 113.386 71.3227 113.386C70.9774 113.386 70.6227 113.465 70.2587 113.624C69.8947 113.773 69.456 113.993 68.9427 114.282L68.8727 113.26C69.3767 112.84 69.89 112.518 70.4127 112.294C70.9354 112.07 71.4487 111.958 71.9527 111.958ZM68.8167 112.126L68.9847 113.47L69.1247 113.666V119H67.4307V112.126H68.8167ZM34.4574 127.312C34.9428 127.312 35.4374 127.312 35.9414 127.312C36.4548 127.312 36.9588 127.321 37.4534 127.34C37.9481 127.359 38.4148 127.387 38.8534 127.424L38.7694 128.726H34.9894C34.7281 128.726 34.5321 128.791 34.4014 128.922C34.2801 129.053 34.2194 129.258 34.2194 129.538V134.802C34.2194 135.082 34.2801 135.287 34.4014 135.418C34.5321 135.549 34.7281 135.614 34.9894 135.614H38.7694L38.8534 136.916C38.4148 136.953 37.9481 136.981 37.4534 137C36.9588 137.009 36.4548 137.014 35.9414 137.014C35.4374 137.023 34.9428 137.028 34.4574 137.028C33.8601 137.028 33.3794 136.865 33.0154 136.538C32.6608 136.202 32.4788 135.754 32.4694 135.194V129.146C32.4788 128.586 32.6608 128.143 33.0154 127.816C33.3794 127.48 33.8601 127.312 34.4574 127.312ZM32.7214 131.302H38.2374V132.59H32.7214V131.302ZM45.3538 129.958C46.6325 129.958 47.2718 130.588 47.2718 131.848V137H45.5778V132.366C45.5778 131.993 45.5125 131.736 45.3818 131.596C45.2511 131.456 45.0318 131.386 44.7238 131.386C44.3785 131.386 44.0238 131.465 43.6598 131.624C43.2958 131.773 42.8571 131.993 42.3438 132.282L42.2738 131.26C42.7778 130.84 43.2911 130.518 43.8138 130.294C44.3365 130.07 44.8498 129.958 45.3538 129.958ZM42.2178 130.126L42.3858 131.47L42.5258 131.666V137H40.8318V130.126H42.2178ZM51.8186 128.166V134.928C51.8186 135.217 51.8793 135.423 52.0006 135.544C52.1313 135.665 52.3506 135.726 52.6586 135.726H53.6106L53.7926 136.916C53.634 136.963 53.4426 137.005 53.2186 137.042C52.9946 137.079 52.7753 137.103 52.5606 137.112C52.346 137.131 52.164 137.14 52.0146 137.14C51.4173 137.14 50.9506 136.981 50.6146 136.664C50.288 136.337 50.1246 135.871 50.1246 135.264V128.166H51.8186ZM53.8626 130.126V131.302H48.9066V130.196L50.2506 130.126H53.8626ZM56.8511 130.126L57.0751 131.47L57.2291 131.666V137H55.5351V130.126H56.8511ZM60.2111 129.958L60.0431 131.526H59.5531C59.1891 131.526 58.8204 131.587 58.4471 131.708C58.0738 131.829 57.6071 132.011 57.0471 132.254L56.9351 131.26C57.4204 130.849 57.9151 130.532 58.4191 130.308C58.9231 130.075 59.4084 129.958 59.8751 129.958H60.2111ZM68.3453 130.126L65.7693 137.21C65.648 137.537 65.494 137.859 65.3073 138.176C65.13 138.503 64.9013 138.797 64.6213 139.058C64.3413 139.319 64.01 139.525 63.6273 139.674C63.2446 139.823 62.8013 139.879 62.2973 139.842L62.1573 138.834C62.7173 138.675 63.1513 138.461 63.4593 138.19C63.7766 137.919 64.024 137.574 64.2013 137.154L64.5793 136.258C64.6633 136.053 64.7426 135.819 64.8173 135.558C64.9013 135.287 64.9713 135.054 65.0273 134.858L66.5253 130.126H68.3453ZM62.8013 130.126L64.3273 134.858C64.374 135.017 64.416 135.18 64.4533 135.348C64.4906 135.507 64.5233 135.665 64.5513 135.824H64.9013L64.3693 137H63.9213C63.7906 137 63.674 136.963 63.5713 136.888C63.4686 136.813 63.3986 136.711 63.3613 136.58L60.9953 130.126H62.8013Z" fill="#333839"/>
<path d="M90.3995 53.6044L53.744 90.2499" stroke="white" stroke-width="6.29" stroke-miterlimit="10"/>
<path d="M90.3995 53.6044L53.744 90.2499" stroke="#799945" stroke-width="3.42" stroke-miterlimit="10"/>
<path d="M8.6601 52.6618L6 50.0017L45.9905 10.0013" stroke="white" stroke-width="6.29" stroke-miterlimit="10"/>
<path d="M8.6601 52.6618L6 50.0017L45.9905 10.0013" stroke="#799945" stroke-width="3.42" stroke-miterlimit="10"/>
<path d="M68.6359 87.9313H31.3154L12 68.6358V31.3153L31.3154 12H68.6359L87.9512 31.3153V68.6358L68.6359 87.9313Z" fill="#799945"/>
<path d="M53.7421 90.2507L50.0001 94.0026L8.65977 52.6622" stroke="white" stroke-width="6.29" stroke-miterlimit="10"/>
<path d="M53.7421 90.2507L50.0001 94.0026L8.65977 52.6622" stroke="#799945" stroke-width="3.42" stroke-miterlimit="10"/>
<path d="M45.9896 10L49.9995 6L94 50.0004L90.397 53.6034" stroke="white" stroke-width="6.29" stroke-miterlimit="10"/>
<path d="M45.9896 10L49.9995 6L94 50.0004L90.397 53.6034" stroke="#799945" stroke-width="3.42" stroke-miterlimit="10"/>
<path d="M50.507 64.0562C46.4247 64.0562 42.3434 64.0647 38.2611 64.0448C37.8277 64.0415 37.3998 63.9474 37.005 63.7686C36.2653 63.4253 35.8908 62.5863 36.0279 61.7464C36.4643 59.0829 36.9057 56.42 37.3521 53.7578C37.8364 50.8521 38.332 47.9474 38.8031 45.0389C38.8503 44.7476 38.9695 44.7136 39.2135 44.7145C43.4144 44.7196 47.6146 44.7196 51.8141 44.7145C55.129 44.7145 58.4439 44.7123 61.7588 44.7079C62.0605 44.7079 62.1712 44.7779 62.2232 45.0985C62.9118 49.3208 63.6202 53.5402 64.3239 57.7596C64.5405 59.0621 64.7656 60.3626 64.969 61.6669C65.1771 62.9911 64.3183 64.0231 62.9695 64.0477C61.86 64.0675 60.7515 64.0477 59.642 64.0477L50.507 64.0562ZM43.275 60.4336H43.6354C46.7387 60.4336 49.842 60.4336 52.9454 60.4279C53.3463 60.4284 53.7462 60.3859 54.1381 60.3011C56.3902 59.8027 57.8761 57.7398 57.7323 55.3383C57.6027 53.1732 55.7962 51.2796 53.5829 51.1113C52.2587 51.0101 50.9184 51.0687 49.5857 51.0555H49.179L49.1251 50.9514L50.4994 49.7105L49.1752 48.3863C48.305 49.2584 47.4131 50.1484 46.5269 51.0432C45.9404 51.6343 45.9461 52.3144 46.5401 52.9122C47.2466 53.6244 47.9589 54.3309 48.6664 55.0413C48.8461 55.2229 49.0154 55.4196 49.1525 55.5624L50.524 54.2156L49.1714 52.8914C50.5514 52.8914 51.9324 52.8479 53.3105 52.9027C54.9184 52.967 56.148 54.5353 55.9135 56.1186C55.6883 57.6178 54.5335 58.6213 53.005 58.6242C49.902 58.6298 46.7986 58.6298 43.695 58.6242H43.2769L43.275 60.4336Z" fill="white"/>
<path d="M57.7011 42.2789H55.3516C55.2826 40.6331 54.6176 39.2967 53.2708 38.3357C52.4007 37.7095 51.3416 37.4018 50.2715 37.4646C47.8369 37.5762 45.7163 39.5454 45.6482 42.2714H43.2485C43.327 39.71 44.359 37.6556 46.4919 36.2728C49.0863 34.5901 51.7886 34.5835 54.4219 36.2075C56.5301 37.5052 58.0265 40.3589 57.7011 42.2789Z" fill="white"/>
</svg>
