<svg width="100" height="156" viewBox="0 0 100 156" fill="none" xmlns="http://www.w3.org/2000/svg">
<rect width="100" height="156" rx="19" fill="#F9FBFF"/>
<path d="M35.424 109.161C35.9 109.17 36.3993 109.198 36.922 109.245C37.454 109.291 37.972 109.38 38.476 109.511L38.364 110.701C37.9627 110.691 37.496 110.682 36.964 110.673C36.4413 110.654 35.9373 110.645 35.452 110.645C35.1533 110.645 34.8967 110.654 34.682 110.673C34.4767 110.691 34.3087 110.738 34.178 110.813C34.0473 110.887 33.9493 111.004 33.884 111.163C33.828 111.312 33.8 111.522 33.8 111.793C33.8 112.213 33.884 112.511 34.052 112.689C34.2293 112.866 34.514 113.006 34.906 113.109L36.81 113.669C37.5753 113.902 38.1027 114.243 38.392 114.691C38.6813 115.129 38.826 115.717 38.826 116.455C38.826 117.005 38.7607 117.458 38.63 117.813C38.4993 118.167 38.2987 118.443 38.028 118.639C37.7573 118.835 37.4027 118.975 36.964 119.059C36.5253 119.143 35.998 119.185 35.382 119.185C35.0647 119.185 34.626 119.166 34.066 119.129C33.5153 119.091 32.8853 118.998 32.176 118.849L32.288 117.589C32.8387 117.607 33.3007 117.626 33.674 117.645C34.0473 117.654 34.3693 117.659 34.64 117.659C34.9107 117.659 35.1627 117.659 35.396 117.659C35.8253 117.659 36.1613 117.631 36.404 117.575C36.6467 117.519 36.8147 117.402 36.908 117.225C37.0107 117.047 37.062 116.791 37.062 116.455C37.062 116.165 37.0247 115.941 36.95 115.783C36.8847 115.615 36.7727 115.484 36.614 115.391C36.4553 115.297 36.25 115.218 35.998 115.153L34.024 114.551C33.296 114.327 32.7827 113.995 32.484 113.557C32.1947 113.118 32.05 112.53 32.05 111.793C32.05 111.242 32.1153 110.794 32.246 110.449C32.3767 110.094 32.5773 109.828 32.848 109.651C33.1187 109.464 33.464 109.338 33.884 109.273C34.3133 109.198 34.8267 109.161 35.424 109.161ZM44.2607 111.961C44.8114 111.961 45.2734 112.035 45.6467 112.185C46.0294 112.325 46.3187 112.567 46.5147 112.913C46.7107 113.258 46.8087 113.734 46.8087 114.341V119.003H45.4647L45.2267 117.519L45.1007 117.323V114.327C45.1007 113.963 45.0167 113.701 44.8487 113.543C44.6807 113.375 44.3587 113.291 43.8827 113.291C43.5281 113.291 43.0801 113.305 42.5387 113.333C42.0067 113.361 41.4701 113.398 40.9287 113.445L40.7747 112.283C41.1014 112.217 41.4701 112.161 41.8807 112.115C42.2914 112.068 42.7067 112.031 43.1267 112.003C43.5467 111.975 43.9247 111.961 44.2607 111.961ZM46.0807 114.775L46.0667 115.825H42.9167C42.6367 115.834 42.4361 115.909 42.3147 116.049C42.1934 116.189 42.1327 116.38 42.1327 116.623V117.001C42.1327 117.281 42.2074 117.495 42.3567 117.645C42.5061 117.785 42.7394 117.855 43.0567 117.855C43.3087 117.855 43.5887 117.803 43.8967 117.701C44.2047 117.598 44.5081 117.449 44.8067 117.253C45.1147 117.057 45.3901 116.823 45.6327 116.553V117.435C45.5394 117.575 45.4041 117.743 45.2267 117.939C45.0494 118.125 44.8301 118.312 44.5687 118.499C44.3167 118.685 44.0227 118.839 43.6867 118.961C43.3601 119.082 42.9961 119.143 42.5947 119.143C42.1841 119.143 41.8154 119.073 41.4887 118.933C41.1621 118.783 40.9054 118.569 40.7187 118.289C40.5321 117.999 40.4387 117.645 40.4387 117.225V116.497C40.4387 115.955 40.6161 115.535 40.9707 115.237C41.3347 114.929 41.8294 114.775 42.4547 114.775H46.0807ZM50.7784 109.203L50.7644 116.931C50.7644 117.192 50.8391 117.393 50.9884 117.533C51.1377 117.663 51.3524 117.729 51.6324 117.729H52.2344L52.4304 118.919C52.3277 118.965 52.1831 119.007 51.9964 119.045C51.8191 119.082 51.6324 119.105 51.4364 119.115C51.2497 119.133 51.0864 119.143 50.9464 119.143C50.3771 119.143 49.9244 118.989 49.5884 118.681C49.2524 118.373 49.0844 117.929 49.0844 117.351V109.203H50.7784ZM56.9724 111.961C58.0831 111.961 58.8811 112.157 59.3664 112.549C59.8518 112.931 60.0991 113.501 60.1084 114.257C60.1178 114.882 59.9684 115.358 59.6604 115.685C59.3618 116.002 58.8624 116.161 58.1624 116.161H54.2424V115.111H57.7004C58.0178 115.111 58.2184 115.027 58.3024 114.859C58.3958 114.691 58.4424 114.485 58.4424 114.243C58.4331 113.86 58.3211 113.594 58.1064 113.445C57.9011 113.295 57.5464 113.221 57.0424 113.221C56.6038 113.221 56.2631 113.281 56.0204 113.403C55.7778 113.524 55.6051 113.743 55.5024 114.061C55.4091 114.378 55.3624 114.835 55.3624 115.433C55.3624 116.067 55.4231 116.557 55.5444 116.903C55.6658 117.248 55.8664 117.486 56.1464 117.617C56.4264 117.738 56.7998 117.799 57.2664 117.799C57.6118 117.799 58.0084 117.785 58.4564 117.757C58.9138 117.729 59.3524 117.691 59.7724 117.645L59.9404 118.723C59.6884 118.825 59.3991 118.909 59.0724 118.975C58.7458 119.04 58.4051 119.087 58.0504 119.115C57.7051 119.152 57.3784 119.171 57.0704 119.171C56.2304 119.171 55.5538 119.049 55.0404 118.807C54.5364 118.555 54.1678 118.163 53.9344 117.631C53.7104 117.099 53.5984 116.413 53.5984 115.573C53.5984 114.667 53.7104 113.953 53.9344 113.431C54.1678 112.899 54.5318 112.521 55.0264 112.297C55.5304 112.073 56.1791 111.961 56.9724 111.961ZM64.529 111.961C64.8464 111.961 65.187 111.97 65.551 111.989C65.9244 112.007 66.2884 112.035 66.643 112.073C66.9977 112.101 67.315 112.143 67.595 112.199L67.483 113.305C67.035 113.295 66.587 113.286 66.139 113.277C65.7004 113.258 65.2664 113.249 64.837 113.249C64.4544 113.249 64.151 113.258 63.927 113.277C63.7124 113.295 63.5584 113.351 63.465 113.445C63.381 113.538 63.339 113.697 63.339 113.921C63.339 114.191 63.4137 114.373 63.563 114.467C63.7124 114.551 63.955 114.635 64.291 114.719L66.167 115.153C66.727 115.293 67.1424 115.507 67.413 115.797C67.6837 116.077 67.819 116.511 67.819 117.099C67.819 117.668 67.7117 118.102 67.497 118.401C67.2917 118.69 66.9604 118.891 66.503 119.003C66.055 119.105 65.481 119.157 64.781 119.157C64.5104 119.157 64.109 119.143 63.577 119.115C63.045 119.096 62.4617 119.035 61.827 118.933L61.939 117.827C62.1257 117.827 62.345 117.831 62.597 117.841C62.8584 117.85 63.1337 117.855 63.423 117.855C63.7217 117.855 64.025 117.855 64.333 117.855C64.8277 117.855 65.2057 117.841 65.467 117.813C65.7377 117.775 65.9244 117.705 66.027 117.603C66.1297 117.491 66.181 117.332 66.181 117.127C66.181 116.865 66.0924 116.693 65.915 116.609C65.747 116.515 65.495 116.427 65.159 116.343L63.325 115.895C62.905 115.783 62.5784 115.643 62.345 115.475C62.1117 115.297 61.9437 115.083 61.841 114.831C61.7384 114.569 61.687 114.252 61.687 113.879C61.687 113.375 61.7804 112.983 61.967 112.703C62.163 112.423 62.4664 112.227 62.877 112.115C63.297 112.003 63.8477 111.951 64.529 111.961ZM34.3463 127.315C34.8317 127.315 35.3263 127.315 35.8303 127.315C36.3437 127.315 36.8477 127.324 37.3423 127.343C37.837 127.361 38.3037 127.389 38.7423 127.427L38.6583 128.729H34.8783C34.617 128.729 34.421 128.794 34.2903 128.925C34.169 129.055 34.1083 129.261 34.1083 129.541V134.805C34.1083 135.085 34.169 135.29 34.2903 135.421C34.421 135.551 34.617 135.617 34.8783 135.617H38.6583L38.7423 136.919C38.3037 136.956 37.837 136.984 37.3423 137.003C36.8477 137.012 36.3437 137.017 35.8303 137.017C35.3263 137.026 34.8317 137.031 34.3463 137.031C33.749 137.031 33.2683 136.867 32.9043 136.541C32.5497 136.205 32.3677 135.757 32.3583 135.197V129.149C32.3677 128.589 32.5497 128.145 32.9043 127.819C33.2683 127.483 33.749 127.315 34.3463 127.315ZM32.6103 131.305H38.1263V132.593H32.6103V131.305ZM45.2427 129.961C46.5214 129.961 47.1607 130.591 47.1607 131.851V137.003H45.4667V132.369C45.4667 131.995 45.4014 131.739 45.2707 131.599C45.1401 131.459 44.9207 131.389 44.6127 131.389C44.2674 131.389 43.9127 131.468 43.5487 131.627C43.1847 131.776 42.7461 131.995 42.2327 132.285L42.1627 131.263C42.6667 130.843 43.1801 130.521 43.7027 130.297C44.2254 130.073 44.7387 129.961 45.2427 129.961ZM42.1067 130.129L42.2747 131.473L42.4147 131.669V137.003H40.7207V130.129H42.1067ZM51.7075 128.169V134.931C51.7075 135.22 51.7682 135.425 51.8895 135.547C52.0202 135.668 52.2395 135.729 52.5475 135.729H53.4995L53.6815 136.919C53.5229 136.965 53.3315 137.007 53.1075 137.045C52.8835 137.082 52.6642 137.105 52.4495 137.115C52.2349 137.133 52.0529 137.143 51.9035 137.143C51.3062 137.143 50.8395 136.984 50.5035 136.667C50.1769 136.34 50.0135 135.873 50.0135 135.267V128.169H51.7075ZM53.7515 130.129V131.305H48.7955V130.199L50.1395 130.129H53.7515ZM56.74 130.129L56.964 131.473L57.118 131.669V137.003H55.424V130.129H56.74ZM60.1 129.961L59.932 131.529H59.442C59.078 131.529 58.7093 131.589 58.336 131.711C57.9627 131.832 57.496 132.014 56.936 132.257L56.824 131.263C57.3093 130.852 57.804 130.535 58.308 130.311C58.812 130.077 59.2973 129.961 59.764 129.961H60.1ZM68.2342 130.129L65.6582 137.213C65.5369 137.539 65.3829 137.861 65.1962 138.179C65.0189 138.505 64.7902 138.799 64.5102 139.061C64.2302 139.322 63.8989 139.527 63.5162 139.677C63.1336 139.826 62.6902 139.882 62.1862 139.845L62.0462 138.837C62.6062 138.678 63.0402 138.463 63.3482 138.193C63.6656 137.922 63.9129 137.577 64.0902 137.157L64.4682 136.261C64.5522 136.055 64.6316 135.822 64.7062 135.561C64.7902 135.29 64.8602 135.057 64.9162 134.861L66.4142 130.129H68.2342ZM62.6902 130.129L64.2162 134.861C64.2629 135.019 64.3049 135.183 64.3422 135.351C64.3796 135.509 64.4122 135.668 64.4402 135.827H64.7902L64.2582 137.003H63.8102C63.6796 137.003 63.5629 136.965 63.4602 136.891C63.3576 136.816 63.2876 136.713 63.2502 136.583L60.8842 130.129H62.6902Z" fill="#333839"/>
<path d="M90.3995 53.6044L53.744 90.2499" stroke="white" stroke-width="6.29" stroke-miterlimit="10"/>
<path d="M90.3995 53.6044L53.744 90.2499" stroke="#B0B34A" stroke-width="3.42" stroke-miterlimit="10"/>
<path d="M8.6601 52.6618L6 50.0017L45.9905 10.0013" stroke="white" stroke-width="6.29" stroke-miterlimit="10"/>
<path d="M8.6601 52.6618L6 50.0017L45.9905 10.0013" stroke="#B0B34A" stroke-width="3.42" stroke-miterlimit="10"/>
<path d="M68.6359 87.9313H31.3154L12 68.6358V31.3153L31.3154 12H68.6359L87.9512 31.3153V68.6358L68.6359 87.9313Z" fill="#B0B34A"/>
<path d="M53.7421 90.2507L50.0001 94.0026L8.65976 52.6622" stroke="white" stroke-width="6.29" stroke-miterlimit="10"/>
<path d="M53.7421 90.2507L50.0001 94.0026L8.65976 52.6622" stroke="#B0B34A" stroke-width="3.42" stroke-miterlimit="10"/>
<path d="M45.9896 10L49.9995 6L94 50.0004L90.397 53.6034" stroke="white" stroke-width="6.29" stroke-miterlimit="10"/>
<path d="M45.9896 10L49.9995 6L94 50.0004L90.397 53.6034" stroke="#B0B34A" stroke-width="3.42" stroke-miterlimit="10"/>
<path d="M55.4354 63.987V46.2193C55.4354 44.8179 56.2634 43.994 57.6699 43.9932C58.4295 43.9932 59.1891 43.9932 59.9487 43.9932C61.1356 43.9998 61.9962 44.8563 61.997 46.0465C62.0009 51.3436 62.0009 56.641 61.997 61.9386C61.997 63.1072 61.1365 63.9778 59.9729 63.9836C58.4712 63.9928 56.9738 63.987 55.4354 63.987Z" fill="white"/>
<path d="M53.4212 63.9728H46.4931V63.6247C46.4931 59.1582 46.5148 54.6933 46.4798 50.2251C46.4697 48.8829 47.468 47.9255 48.7201 47.9848C49.5924 48.0257 50.4688 47.9848 51.3436 47.9931C52.5406 48.0006 53.4304 48.8662 53.4304 50.0557C53.4371 54.6266 53.4371 59.1974 53.4304 63.7683C53.4321 63.8284 53.4254 63.8893 53.4212 63.9728Z" fill="white"/>
<path d="M44.474 51.0056V63.9628C42.8697 63.9628 41.2771 64.0263 39.6936 63.9394C38.692 63.8843 38.0067 62.9904 38.0042 61.977C37.9986 58.9899 37.9986 56.0027 38.0042 53.0156C38.0042 51.8654 38.8731 50.9998 40.02 50.9931C41.4248 50.9856 42.8305 50.9931 44.2353 50.9931C44.3062 50.9923 44.378 50.9998 44.474 51.0056Z" fill="white"/>
<path d="M52.9313 39.7204C52.6375 40.0935 52.3554 40.4775 52.0482 40.8397C50.1242 43.1035 47.7286 44.727 45.0366 45.9198C44.1552 46.3096 43.2337 46.6092 42.3238 46.9306C42.1462 46.9874 41.9568 46.9966 41.7746 46.9573C41.5586 46.9115 41.3645 46.7936 41.2244 46.6229C41.0842 46.4523 41.0063 46.2391 41.0033 46.0183C40.9933 45.5692 41.2754 45.1986 41.7237 45.0341C42.6585 44.6911 43.6134 44.3889 44.5191 43.9782C47.0349 42.8338 49.2394 41.2663 50.9322 39.0451C51.1709 38.7321 51.3846 38.4007 51.6617 38.0034H51.2619C50.731 38.0034 50.2001 38.0034 49.6701 37.9925C49.4068 37.9912 49.1548 37.8854 48.9695 37.6983C48.7842 37.5113 48.6807 37.2583 48.6818 36.995C48.6801 36.864 48.7047 36.7339 48.754 36.6125C48.8034 36.4911 48.8766 36.3808 48.9692 36.288C49.0618 36.1953 49.1721 36.1221 49.2935 36.0726C49.4148 36.0232 49.5449 35.9985 49.6759 36.0001C51.1122 36.0034 52.5482 36.0179 53.9839 36.0435C54.5348 36.0535 54.9388 36.4425 54.9496 36.9875C54.978 38.4021 54.9925 39.8175 54.9931 41.2337C54.9924 41.3644 54.9657 41.4936 54.9144 41.6137C54.863 41.7339 54.7882 41.8425 54.6942 41.9333C54.6003 42.0241 54.4891 42.0951 54.3672 42.1423C54.2454 42.1894 54.1153 42.2117 53.9847 42.2078C53.726 42.2063 53.4781 42.1035 53.2943 41.9214C53.1105 41.7393 53.0054 41.4924 53.0014 41.2337C52.9881 40.7329 53.0014 40.2387 53.0014 39.7404L52.9313 39.7204Z" fill="white"/>
</svg>
