<svg width="100" height="156" viewBox="0 0 100 156" fill="none" xmlns="http://www.w3.org/2000/svg">
<rect width="100" height="156" rx="19" fill="#F9FBFF"/>
<path d="M37.6176 109.158C38.0936 109.167 38.5929 109.195 39.1156 109.242C39.6476 109.289 40.1656 109.377 40.6696 109.508L40.5576 110.698C40.1563 110.689 39.6896 110.679 39.1576 110.67C38.6349 110.651 38.1309 110.642 37.6456 110.642C37.3469 110.642 37.0903 110.651 36.8756 110.67C36.6703 110.689 36.5023 110.735 36.3716 110.81C36.2409 110.885 36.1429 111.001 36.0776 111.16C36.0216 111.309 35.9936 111.519 35.9936 111.79C35.9936 112.21 36.0776 112.509 36.2456 112.686C36.4229 112.863 36.7076 113.003 37.0996 113.106L39.0036 113.666C39.7689 113.899 40.2963 114.24 40.5856 114.688C40.8749 115.127 41.0196 115.715 41.0196 116.452C41.0196 117.003 40.9543 117.455 40.8236 117.81C40.6929 118.165 40.4923 118.44 40.2216 118.636C39.9509 118.832 39.5963 118.972 39.1576 119.056C38.7189 119.14 38.1916 119.182 37.5756 119.182C37.2583 119.182 36.8196 119.163 36.2596 119.126C35.7089 119.089 35.0789 118.995 34.3696 118.846L34.4816 117.586C35.0323 117.605 35.4943 117.623 35.8676 117.642C36.2409 117.651 36.5629 117.656 36.8336 117.656C37.1043 117.656 37.3563 117.656 37.5896 117.656C38.0189 117.656 38.3549 117.628 38.5976 117.572C38.8403 117.516 39.0083 117.399 39.1016 117.222C39.2043 117.045 39.2556 116.788 39.2556 116.452C39.2556 116.163 39.2183 115.939 39.1436 115.78C39.0783 115.612 38.9663 115.481 38.8076 115.388C38.6489 115.295 38.4436 115.215 38.1916 115.15L36.2176 114.548C35.4896 114.324 34.9763 113.993 34.6776 113.554C34.3883 113.115 34.2436 112.527 34.2436 111.79C34.2436 111.239 34.3089 110.791 34.4396 110.446C34.5703 110.091 34.7709 109.825 35.0416 109.648C35.3123 109.461 35.6576 109.335 36.0776 109.27C36.5069 109.195 37.0203 109.158 37.6176 109.158ZM43.9496 110.166V116.928C43.9496 117.217 44.0103 117.423 44.1316 117.544C44.2623 117.665 44.4816 117.726 44.7896 117.726H45.7416L45.9236 118.916C45.765 118.963 45.5736 119.005 45.3496 119.042C45.1256 119.079 44.9063 119.103 44.6916 119.112C44.477 119.131 44.295 119.14 44.1456 119.14C43.5483 119.14 43.0816 118.981 42.7456 118.664C42.419 118.337 42.2556 117.871 42.2556 117.264V110.166H43.9496ZM45.9936 112.126V113.302H41.0376V112.196L42.3816 112.126H45.9936ZM49.5141 111.958C50.3541 111.958 51.0214 112.075 51.5161 112.308C52.0201 112.541 52.3794 112.924 52.5941 113.456C52.8181 113.988 52.9301 114.693 52.9301 115.57C52.9301 116.447 52.8181 117.152 52.5941 117.684C52.3794 118.207 52.0201 118.589 51.5161 118.832C51.0214 119.065 50.3541 119.182 49.5141 119.182C48.6928 119.182 48.0301 119.065 47.5261 118.832C47.0314 118.589 46.6721 118.207 46.4481 117.684C46.2241 117.152 46.1121 116.447 46.1121 115.57C46.1121 114.693 46.2241 113.988 46.4481 113.456C46.6721 112.924 47.0314 112.541 47.5261 112.308C48.0301 112.075 48.6928 111.958 49.5141 111.958ZM49.5141 113.246C49.1034 113.246 48.7768 113.316 48.5341 113.456C48.3008 113.587 48.1328 113.82 48.0301 114.156C47.9274 114.492 47.8761 114.963 47.8761 115.57C47.8761 116.177 47.9274 116.648 48.0301 116.984C48.1328 117.32 48.3008 117.553 48.5341 117.684C48.7768 117.815 49.1034 117.88 49.5141 117.88C49.9341 117.88 50.2654 117.815 50.5081 117.684C50.7508 117.553 50.9188 117.32 51.0121 116.984C51.1148 116.648 51.1661 116.177 51.1661 115.57C51.1661 114.963 51.1148 114.492 51.0121 114.156C50.9188 113.82 50.7508 113.587 50.5081 113.456C50.2654 113.316 49.9341 113.246 49.5141 113.246ZM56.7672 111.958C57.0005 111.958 57.2572 111.967 57.5372 111.986C57.8172 112.005 58.1019 112.042 58.3912 112.098C58.6805 112.154 58.9419 112.233 59.1752 112.336L58.9792 113.4C58.6339 113.381 58.2885 113.367 57.9432 113.358C57.6072 113.349 57.3132 113.344 57.0612 113.344C56.5852 113.344 56.2072 113.409 55.9272 113.54C55.6565 113.661 55.4605 113.885 55.3392 114.212C55.2179 114.529 55.1572 114.977 55.1572 115.556C55.1572 116.135 55.2179 116.587 55.3392 116.914C55.4605 117.231 55.6565 117.455 55.9272 117.586C56.2072 117.717 56.5852 117.782 57.0612 117.782C57.2012 117.782 57.3832 117.777 57.6072 117.768C57.8405 117.759 58.0879 117.745 58.3492 117.726C58.6199 117.707 58.8812 117.684 59.1332 117.656L59.3012 118.748C58.9372 118.897 58.5312 119.005 58.0832 119.07C57.6352 119.135 57.1919 119.168 56.7532 119.168C55.9319 119.168 55.2739 119.051 54.7792 118.818C54.2845 118.585 53.9252 118.207 53.7012 117.684C53.4865 117.152 53.3792 116.443 53.3792 115.556C53.3792 114.669 53.4912 113.965 53.7152 113.442C53.9392 112.91 54.2985 112.532 54.7932 112.308C55.2879 112.075 55.9459 111.958 56.7672 111.958ZM66.0632 112.126L64.1032 114.576C64.0285 114.688 63.9352 114.8 63.8232 114.912C63.7112 115.015 63.6132 115.094 63.5292 115.15V115.178C63.6132 115.234 63.7112 115.327 63.8232 115.458C63.9352 115.579 64.0285 115.705 64.1032 115.836L66.2872 119H64.3692L61.8632 115.108L64.1452 112.126H66.0632ZM61.5412 109.2L61.5552 113.386C61.5552 113.694 61.5365 113.988 61.4992 114.268C61.4712 114.548 61.4292 114.833 61.3732 115.122C61.4199 115.393 61.4572 115.673 61.4852 115.962C61.5225 116.251 61.5412 116.522 61.5412 116.774V119H59.8472V109.2H61.5412ZM62.5912 114.604V115.696H60.9952V114.604H62.5912ZM24.5789 127.214C25.3069 127.214 25.9229 127.298 26.4269 127.466C26.9402 127.625 27.3509 127.895 27.6589 128.278C27.9762 128.651 28.2049 129.16 28.3449 129.804C28.4849 130.439 28.5549 131.227 28.5549 132.17C28.5549 133.113 28.4849 133.906 28.3449 134.55C28.2049 135.185 27.9762 135.693 27.6589 136.076C27.3509 136.449 26.9402 136.72 26.4269 136.888C25.9229 137.047 25.3069 137.126 24.5789 137.126C23.8789 137.126 23.2302 137.112 22.6329 137.084C22.0356 137.065 21.4709 137.037 20.9389 137L21.6669 135.656C22.0402 135.675 22.4696 135.693 22.9549 135.712C23.4402 135.721 23.9816 135.726 24.5789 135.726C25.1202 135.726 25.5449 135.623 25.8529 135.418C26.1702 135.203 26.3942 134.839 26.5249 134.326C26.6556 133.803 26.7209 133.085 26.7209 132.17C26.7209 131.255 26.6556 130.541 26.5249 130.028C26.3942 129.505 26.1702 129.137 25.8529 128.922C25.5449 128.707 25.1202 128.6 24.5789 128.6C24.0002 128.6 23.4822 128.605 23.0249 128.614C22.5769 128.623 22.1382 128.628 21.7089 128.628L20.9389 127.34C21.4709 127.303 22.0309 127.275 22.6189 127.256C23.2162 127.228 23.8696 127.214 24.5789 127.214ZM22.6889 127.34V137H20.9389V127.34H22.6889ZM32.5282 129.958C33.3682 129.958 34.0355 130.075 34.5302 130.308C35.0342 130.541 35.3935 130.924 35.6082 131.456C35.8322 131.988 35.9442 132.693 35.9442 133.57C35.9442 134.447 35.8322 135.152 35.6082 135.684C35.3935 136.207 35.0342 136.589 34.5302 136.832C34.0355 137.065 33.3682 137.182 32.5282 137.182C31.7068 137.182 31.0442 137.065 30.5402 136.832C30.0455 136.589 29.6862 136.207 29.4622 135.684C29.2382 135.152 29.1262 134.447 29.1262 133.57C29.1262 132.693 29.2382 131.988 29.4622 131.456C29.6862 130.924 30.0455 130.541 30.5402 130.308C31.0442 130.075 31.7068 129.958 32.5282 129.958ZM32.5282 131.246C32.1175 131.246 31.7908 131.316 31.5482 131.456C31.3148 131.587 31.1468 131.82 31.0442 132.156C30.9415 132.492 30.8902 132.963 30.8902 133.57C30.8902 134.177 30.9415 134.648 31.0442 134.984C31.1468 135.32 31.3148 135.553 31.5482 135.684C31.7908 135.815 32.1175 135.88 32.5282 135.88C32.9482 135.88 33.2795 135.815 33.5222 135.684C33.7648 135.553 33.9328 135.32 34.0262 134.984C34.1288 134.648 34.1802 134.177 34.1802 133.57C34.1802 132.963 34.1288 132.492 34.0262 132.156C33.9328 131.82 33.7648 131.587 33.5222 131.456C33.2795 131.316 32.9482 131.246 32.5282 131.246ZM47.1606 130.126L45.3406 136.552C45.3032 136.683 45.2286 136.79 45.1166 136.874C45.0046 136.958 44.8739 137 44.7246 137H43.3666C43.2172 137 43.0819 136.953 42.9606 136.86C42.8392 136.767 42.7692 136.641 42.7506 136.482L41.8406 132.268C41.8032 132.081 41.7706 131.895 41.7426 131.708C41.7239 131.521 41.6959 131.335 41.6586 131.148H41.4766C41.4486 131.335 41.4159 131.521 41.3786 131.708C41.3506 131.895 41.3179 132.081 41.2806 132.268L40.3846 136.482C40.3566 136.641 40.2819 136.767 40.1606 136.86C40.0486 136.953 39.9132 137 39.7546 137H38.4106C38.2612 137 38.1306 136.958 38.0186 136.874C37.9066 136.79 37.8366 136.683 37.8086 136.552L35.9746 130.126H37.6966L38.8446 134.844C38.8819 135.021 38.9146 135.203 38.9426 135.39C38.9799 135.567 39.0126 135.745 39.0406 135.922H39.2086C39.2552 135.745 39.2926 135.567 39.3206 135.39C39.3579 135.203 39.3952 135.021 39.4326 134.844L40.3426 130.644C40.3706 130.495 40.4359 130.373 40.5386 130.28C40.6506 130.177 40.7906 130.126 40.9586 130.126H42.1906C42.3399 130.126 42.4706 130.177 42.5826 130.28C42.6946 130.373 42.7646 130.499 42.7926 130.658L43.7026 134.844C43.7306 135.021 43.7632 135.199 43.8006 135.376C43.8472 135.553 43.8846 135.735 43.9126 135.922H44.0806C44.1179 135.735 44.1506 135.558 44.1786 135.39C44.2066 135.213 44.2439 135.031 44.2906 134.844L45.4386 130.126H47.1606ZM52.0727 129.958C53.3514 129.958 53.9907 130.588 53.9907 131.848V137H52.2967V132.366C52.2967 131.993 52.2314 131.736 52.1007 131.596C51.97 131.456 51.7507 131.386 51.4427 131.386C51.0974 131.386 50.7427 131.465 50.3787 131.624C50.0147 131.773 49.576 131.993 49.0627 132.282L48.9927 131.26C49.4967 130.84 50.01 130.518 50.5327 130.294C51.0554 130.07 51.5687 129.958 52.0727 129.958ZM48.9367 130.126L49.1047 131.47L49.2447 131.666V137H47.5507V130.126H48.9367ZM56.7175 127.2L56.7035 134.928C56.7035 135.189 56.7782 135.39 56.9275 135.53C57.0769 135.661 57.2915 135.726 57.5715 135.726H58.1735L58.3695 136.916C58.2669 136.963 58.1222 137.005 57.9355 137.042C57.7582 137.079 57.5715 137.103 57.3755 137.112C57.1889 137.131 57.0255 137.14 56.8855 137.14C56.3162 137.14 55.8635 136.986 55.5275 136.678C55.1915 136.37 55.0235 135.927 55.0235 135.348V127.2H56.7175ZM61.6936 129.958C62.5336 129.958 63.2009 130.075 63.6956 130.308C64.1996 130.541 64.5589 130.924 64.7736 131.456C64.9976 131.988 65.1096 132.693 65.1096 133.57C65.1096 134.447 64.9976 135.152 64.7736 135.684C64.5589 136.207 64.1996 136.589 63.6956 136.832C63.2009 137.065 62.5336 137.182 61.6936 137.182C60.8722 137.182 60.2096 137.065 59.7056 136.832C59.2109 136.589 58.8516 136.207 58.6276 135.684C58.4036 135.152 58.2916 134.447 58.2916 133.57C58.2916 132.693 58.4036 131.988 58.6276 131.456C58.8516 130.924 59.2109 130.541 59.7056 130.308C60.2096 130.075 60.8722 129.958 61.6936 129.958ZM61.6936 131.246C61.2829 131.246 60.9562 131.316 60.7136 131.456C60.4802 131.587 60.3122 131.82 60.2096 132.156C60.1069 132.492 60.0556 132.963 60.0556 133.57C60.0556 134.177 60.1069 134.648 60.2096 134.984C60.3122 135.32 60.4802 135.553 60.7136 135.684C60.9562 135.815 61.2829 135.88 61.6936 135.88C62.1136 135.88 62.4449 135.815 62.6876 135.684C62.9302 135.553 63.0982 135.32 63.1916 134.984C63.2942 134.648 63.3456 134.177 63.3456 133.57C63.3456 132.963 63.2942 132.492 63.1916 132.156C63.0982 131.82 62.9302 131.587 62.6876 131.456C62.4449 131.316 62.1136 131.246 61.6936 131.246ZM69.3247 129.958C69.8753 129.958 70.3373 130.033 70.7107 130.182C71.0933 130.322 71.3827 130.565 71.5787 130.91C71.7747 131.255 71.8727 131.731 71.8727 132.338V137H70.5287L70.2907 135.516L70.1647 135.32V132.324C70.1647 131.96 70.0807 131.699 69.9127 131.54C69.7447 131.372 69.4227 131.288 68.9467 131.288C68.592 131.288 68.144 131.302 67.6026 131.33C67.0707 131.358 66.534 131.395 65.9927 131.442L65.8386 130.28C66.1653 130.215 66.534 130.159 66.9447 130.112C67.3553 130.065 67.7707 130.028 68.1907 130C68.6107 129.972 68.9887 129.958 69.3247 129.958ZM71.1447 132.772L71.1307 133.822H67.9807C67.7007 133.831 67.5 133.906 67.3787 134.046C67.2573 134.186 67.1966 134.377 67.1966 134.62V134.998C67.1966 135.278 67.2713 135.493 67.4207 135.642C67.57 135.782 67.8033 135.852 68.1207 135.852C68.3727 135.852 68.6527 135.801 68.9607 135.698C69.2687 135.595 69.572 135.446 69.8706 135.25C70.1787 135.054 70.454 134.821 70.6967 134.55V135.432C70.6033 135.572 70.468 135.74 70.2907 135.936C70.1133 136.123 69.894 136.309 69.6327 136.496C69.3807 136.683 69.0867 136.837 68.7507 136.958C68.424 137.079 68.06 137.14 67.6587 137.14C67.248 137.14 66.8793 137.07 66.5527 136.93C66.226 136.781 65.9693 136.566 65.7827 136.286C65.596 135.997 65.5027 135.642 65.5027 135.222V134.494C65.5027 133.953 65.68 133.533 66.0347 133.234C66.3987 132.926 66.8933 132.772 67.5187 132.772H71.1447ZM75.1983 129.958C75.665 129.958 76.1223 130.023 76.5703 130.154C77.0183 130.275 77.4243 130.481 77.7883 130.77L77.6763 131.624C77.3123 131.521 76.9856 131.433 76.6963 131.358C76.407 131.283 76.085 131.246 75.7303 131.246C75.3943 131.246 75.1236 131.307 74.9183 131.428C74.7223 131.54 74.573 131.759 74.4703 132.086C74.377 132.413 74.3303 132.889 74.3303 133.514C74.3303 134.111 74.377 134.573 74.4703 134.9C74.5636 135.217 74.7083 135.441 74.9043 135.572C75.1003 135.693 75.357 135.754 75.6743 135.754C75.9263 135.754 76.1503 135.726 76.3463 135.67C76.5423 135.605 76.743 135.511 76.9483 135.39C77.1536 135.259 77.3916 135.096 77.6623 134.9L77.8023 135.852C77.485 136.216 77.093 136.529 76.6263 136.79C76.169 137.042 75.637 137.168 75.0303 137.168C74.153 137.168 73.5276 136.86 73.1543 136.244C72.781 135.619 72.5943 134.713 72.5943 133.528C72.5943 132.623 72.6876 131.913 72.8743 131.4C73.0703 130.877 73.3596 130.509 73.7423 130.294C74.1343 130.07 74.6196 129.958 75.1983 129.958ZM79.1743 127.2V137H77.8443L77.6623 135.768L77.4803 135.628V131.036L77.5643 130.84C77.527 130.569 77.5036 130.299 77.4943 130.028C77.485 129.748 77.4803 129.463 77.4803 129.174V127.2H79.1743Z" fill="#333839"/>
<path d="M90.3994 53.6045L53.7439 90.2501" stroke="white" stroke-width="6.29" stroke-miterlimit="10"/>
<path d="M90.3994 53.6045L53.7439 90.2501" stroke="#79D2C8" stroke-width="3.42" stroke-miterlimit="10"/>
<path d="M8.6601 52.6616L6 50.0016L45.9905 10.0012" stroke="white" stroke-width="6.29" stroke-miterlimit="10"/>
<path d="M8.6601 52.6616L6 50.0016L45.9905 10.0012" stroke="#79D2C8" stroke-width="3.42" stroke-miterlimit="10"/>
<path d="M68.6358 87.9313H31.3153L12 68.6358V31.3153L31.3153 12H68.6358L87.9512 31.3153V68.6358L68.6358 87.9313Z" fill="#79D2C8"/>
<path d="M53.742 90.2506L50.0001 94.0025L8.65967 52.6621" stroke="white" stroke-width="6.29" stroke-miterlimit="10"/>
<path d="M53.742 90.2506L50.0001 94.0025L8.65967 52.6621" stroke="#79D2C8" stroke-width="3.42" stroke-miterlimit="10"/>
<path d="M45.9895 10L49.9995 6L93.9999 50.0004L90.3969 53.6034" stroke="white" stroke-width="6.29" stroke-miterlimit="10"/>
<path d="M45.9895 10L49.9995 6L93.9999 50.0004L90.3969 53.6034" stroke="#79D2C8" stroke-width="3.42" stroke-miterlimit="10"/>
<path d="M48.2019 62.6824L44.8369 61.1914C42.2291 60.0341 39.6213 58.8713 37.0027 57.723C36.3291 57.4262 35.9991 56.9344 36 56.2042C36 51.648 36 47.0936 36 42.5409C36 42.4627 36.0072 42.3845 36.0135 42.2505C36.143 42.2981 36.2536 42.3314 36.3579 42.3782C40.2085 44.0832 44.0588 45.7881 47.9088 47.4931C48.1102 47.583 48.2235 47.673 48.2235 47.9275C48.2133 52.7522 48.2106 57.5761 48.2154 62.3991C48.2163 62.4755 48.2091 62.5511 48.2019 62.6824Z" fill="white"/>
<path d="M57.5874 50.875C59.2944 50.8822 60.9287 51.5667 62.1311 52.7783C63.3335 53.9898 64.0057 55.6292 64 57.3361C63.9784 60.9242 61.0882 63.8107 57.5389 63.7928C56.6876 63.7905 55.8452 63.6204 55.0597 63.2923C54.2743 62.9641 53.5613 62.4842 52.9615 61.8802C52.3617 61.2761 51.8869 60.5597 51.5643 59.772C51.2417 58.9843 51.0776 58.1406 51.0814 57.2894C51.0859 53.7445 54.0093 50.8651 57.5874 50.875ZM56.8159 58.4845C56.4004 58.0582 56.0219 57.6617 55.6334 57.275C55.2665 56.9108 54.842 56.8838 54.5354 57.1905C54.2287 57.4971 54.2548 57.9207 54.6172 58.2875C55.1442 58.8217 55.6747 59.3526 56.2089 59.8801C56.6495 60.3172 57.011 60.3154 57.4535 59.8747C58.2148 59.1158 58.9753 58.3556 59.7349 57.5942C60.1386 57.1896 60.5514 56.7939 60.9407 56.3757C61.0063 56.3101 61.0579 56.2319 61.0925 56.1458C61.1271 56.0598 61.1441 55.9676 61.1423 55.8749C61.1405 55.7822 61.1201 55.6907 61.0822 55.6061C61.0444 55.5214 60.9898 55.4452 60.9219 55.3821C60.7885 55.2512 60.6092 55.1779 60.4223 55.1779C60.2355 55.1779 60.0561 55.2512 59.9228 55.3821C59.7483 55.5394 59.5865 55.7112 59.4201 55.8776L56.8159 58.4845Z" fill="white"/>
<path d="M61.8273 50.6728C59.3228 49.2052 56.7429 48.9642 54.1342 50.2232C51.5254 51.4821 50.1028 53.6188 49.6739 56.4991C49.6622 56.4091 49.6523 56.3606 49.6496 56.3084C49.6496 56.2419 49.6496 56.1744 49.6496 56.107C49.6496 53.3921 49.6496 50.6773 49.6433 47.9634C49.6433 47.7152 49.7099 47.5965 49.9455 47.4931C53.7991 45.7971 57.6493 44.0936 61.4963 42.3826C61.5962 42.3386 61.6978 42.3008 61.8291 42.2468L61.8273 50.6728Z" fill="white"/>
<path d="M60.8022 41.1173L59.3481 41.763C56.0023 43.2473 52.6568 44.7335 49.3116 46.2214C49.1953 46.2809 49.0667 46.3119 48.9361 46.3119C48.8056 46.3119 48.6769 46.2809 48.5607 46.2214C46.8989 45.4706 45.229 44.7359 43.5105 43.9733C43.6328 43.9077 43.7128 43.8582 43.7983 43.8204C47.5643 42.1496 51.3313 40.4812 55.0991 38.8152C55.2106 38.7657 55.3689 38.7208 55.4687 38.7639C57.2232 39.5292 58.9722 40.3071 60.8022 41.1173Z" fill="white"/>
<path d="M53.5353 37.9295C52.5974 38.3476 51.6928 38.7523 50.7863 39.1543C47.8583 40.451 44.931 41.7492 42.0042 43.0489C41.9116 43.0959 41.8091 43.1204 41.7052 43.1204C41.6013 43.1204 41.4989 43.0959 41.4062 43.0489C40.069 42.4464 38.7256 41.8574 37.3839 41.263C37.3038 41.2279 37.2274 41.1839 37.0952 41.1173C37.3425 41.0022 37.5448 40.9042 37.7508 40.8134C41.2417 39.2649 44.7323 37.717 48.2225 36.1697C48.6542 35.9772 49.084 35.9305 49.5229 36.1238C50.8136 36.6921 52.1025 37.2617 53.3896 37.8324C53.4404 37.8613 53.4891 37.8937 53.5353 37.9295Z" fill="white"/>
<path d="M51.1839 62.0079L49.6597 62.6823V58.178C49.8406 59.5617 50.3645 60.8783 51.1839 62.0079Z" fill="white"/>
</svg>
