<svg width="100" height="156" viewBox="0 0 100 156" fill="none" xmlns="http://www.w3.org/2000/svg">
<rect width="100" height="156" rx="19" fill="#F9FBFF"/>
<path d="M34.8244 109.161C35.3004 109.17 35.7997 109.198 36.3224 109.245C36.8544 109.291 37.3724 109.38 37.8764 109.511L37.7644 110.701C37.363 110.691 36.8964 110.682 36.3644 110.673C35.8417 110.654 35.3377 110.645 34.8524 110.645C34.5537 110.645 34.297 110.654 34.0824 110.673C33.877 110.691 33.709 110.738 33.5784 110.813C33.4477 110.887 33.3497 111.004 33.2844 111.163C33.2284 111.312 33.2004 111.522 33.2004 111.793C33.2004 112.213 33.2844 112.511 33.4524 112.689C33.6297 112.866 33.9144 113.006 34.3064 113.109L36.2104 113.669C36.9757 113.902 37.503 114.243 37.7924 114.691C38.0817 115.129 38.2264 115.717 38.2264 116.455C38.2264 117.005 38.161 117.458 38.0304 117.813C37.8997 118.167 37.699 118.443 37.4284 118.639C37.1577 118.835 36.803 118.975 36.3644 119.059C35.9257 119.143 35.3984 119.185 34.7824 119.185C34.465 119.185 34.0264 119.166 33.4664 119.129C32.9157 119.091 32.2857 118.998 31.5764 118.849L31.6884 117.589C32.239 117.607 32.701 117.626 33.0744 117.645C33.4477 117.654 33.7697 117.659 34.0404 117.659C34.311 117.659 34.563 117.659 34.7964 117.659C35.2257 117.659 35.5617 117.631 35.8044 117.575C36.047 117.519 36.215 117.402 36.3084 117.225C36.411 117.047 36.4624 116.791 36.4624 116.455C36.4624 116.165 36.425 115.941 36.3504 115.783C36.285 115.615 36.173 115.484 36.0144 115.391C35.8557 115.297 35.6504 115.218 35.3984 115.153L33.4244 114.551C32.6964 114.327 32.183 113.995 31.8844 113.557C31.595 113.118 31.4504 112.53 31.4504 111.793C31.4504 111.242 31.5157 110.794 31.6464 110.449C31.777 110.094 31.9777 109.828 32.2484 109.651C32.519 109.464 32.8644 109.338 33.2844 109.273C33.7137 109.198 34.227 109.161 34.8244 109.161ZM42.4164 110.169V116.931C42.4164 117.22 42.4771 117.425 42.5984 117.547C42.7291 117.668 42.9484 117.729 43.2564 117.729H44.2084L44.3904 118.919C44.2317 118.965 44.0404 119.007 43.8164 119.045C43.5924 119.082 43.3731 119.105 43.1584 119.115C42.9437 119.133 42.7617 119.143 42.6124 119.143C42.0151 119.143 41.5484 118.984 41.2124 118.667C40.8857 118.34 40.7224 117.873 40.7224 117.267V110.169H42.4164ZM44.4604 112.129V113.305H39.5044V112.199L40.8484 112.129H44.4604ZM49.2409 111.961C50.0809 111.961 50.7482 112.077 51.2429 112.311C51.7469 112.544 52.1062 112.927 52.3209 113.459C52.5449 113.991 52.6569 114.695 52.6569 115.573C52.6569 116.45 52.5449 117.155 52.3209 117.687C52.1062 118.209 51.7469 118.592 51.2429 118.835C50.7482 119.068 50.0809 119.185 49.2409 119.185C48.4195 119.185 47.7569 119.068 47.2529 118.835C46.7582 118.592 46.3989 118.209 46.1749 117.687C45.9509 117.155 45.8389 116.45 45.8389 115.573C45.8389 114.695 45.9509 113.991 46.1749 113.459C46.3989 112.927 46.7582 112.544 47.2529 112.311C47.7569 112.077 48.4195 111.961 49.2409 111.961ZM49.2409 113.249C48.8302 113.249 48.5035 113.319 48.2609 113.459C48.0275 113.589 47.8595 113.823 47.7569 114.159C47.6542 114.495 47.6029 114.966 47.6029 115.573C47.6029 116.179 47.6542 116.651 47.7569 116.987C47.8595 117.323 48.0275 117.556 48.2609 117.687C48.5035 117.817 48.8302 117.883 49.2409 117.883C49.6609 117.883 49.9922 117.817 50.2349 117.687C50.4775 117.556 50.6455 117.323 50.7389 116.987C50.8415 116.651 50.8929 116.179 50.8929 115.573C50.8929 114.966 50.8415 114.495 50.7389 114.159C50.6455 113.823 50.4775 113.589 50.2349 113.459C49.9922 113.319 49.6609 113.249 49.2409 113.249ZM57.754 111.961C57.9873 111.961 58.244 111.97 58.524 111.989C58.804 112.007 59.0886 112.045 59.378 112.101C59.6673 112.157 59.9286 112.236 60.162 112.339L59.966 113.403C59.6206 113.384 59.2753 113.37 58.93 113.361C58.594 113.351 58.3 113.347 58.048 113.347C57.572 113.347 57.194 113.412 56.914 113.543C56.6433 113.664 56.4473 113.888 56.326 114.215C56.2046 114.532 56.144 114.98 56.144 115.559C56.144 116.137 56.2046 116.59 56.326 116.917C56.4473 117.234 56.6433 117.458 56.914 117.589C57.194 117.719 57.572 117.785 58.048 117.785C58.188 117.785 58.37 117.78 58.594 117.771C58.8273 117.761 59.0746 117.747 59.336 117.729C59.6066 117.71 59.868 117.687 60.12 117.659L60.288 118.751C59.924 118.9 59.518 119.007 59.07 119.073C58.622 119.138 58.1786 119.171 57.74 119.171C56.9186 119.171 56.2606 119.054 55.766 118.821C55.2713 118.587 54.912 118.209 54.688 117.687C54.4733 117.155 54.366 116.445 54.366 115.559C54.366 114.672 54.478 113.967 54.702 113.445C54.926 112.913 55.2853 112.535 55.78 112.311C56.2746 112.077 56.9326 111.961 57.754 111.961ZM68.31 112.129L66.35 114.579C66.2753 114.691 66.182 114.803 66.07 114.915C65.958 115.017 65.86 115.097 65.776 115.153V115.181C65.86 115.237 65.958 115.33 66.07 115.461C66.182 115.582 66.2753 115.708 66.35 115.839L68.534 119.003H66.616L64.11 115.111L66.392 112.129H68.31ZM63.788 109.203L63.802 113.389C63.802 113.697 63.7833 113.991 63.746 114.271C63.718 114.551 63.676 114.835 63.62 115.125C63.6666 115.395 63.704 115.675 63.732 115.965C63.7693 116.254 63.788 116.525 63.788 116.777V119.003H62.094V109.203H63.788ZM64.838 114.607V115.699H63.242V114.607H64.838ZM31.304 127.217C32.1066 127.217 32.7553 127.301 33.25 127.469C33.754 127.637 34.118 127.926 34.342 128.337C34.5753 128.738 34.692 129.307 34.692 130.045C34.692 130.53 34.6313 130.945 34.51 131.291C34.398 131.627 34.2066 131.897 33.936 132.103C33.6746 132.299 33.32 132.425 32.872 132.481V132.551C33.0306 132.588 33.194 132.663 33.362 132.775C33.5393 132.877 33.698 133.027 33.838 133.223C33.9873 133.419 34.0993 133.671 34.174 133.979L35.056 137.003H33.208L32.41 134.021C32.3073 133.685 32.1673 133.451 31.99 133.321C31.8126 133.181 31.57 133.111 31.262 133.111C30.6553 133.111 30.1373 133.111 29.708 133.111C29.2786 133.101 28.9193 133.092 28.63 133.083C28.35 133.073 28.1026 133.069 27.888 133.069L27.93 131.739H31.262C31.682 131.729 32.0133 131.683 32.256 131.599C32.4986 131.505 32.6713 131.347 32.774 131.123C32.8766 130.889 32.928 130.563 32.928 130.143C32.928 129.732 32.8766 129.415 32.774 129.191C32.6713 128.967 32.4986 128.813 32.256 128.729C32.0133 128.635 31.682 128.589 31.262 128.589C30.4406 128.589 29.736 128.593 29.148 128.603C28.56 128.612 28.1586 128.621 27.944 128.631L27.748 127.343C28.1213 127.305 28.4713 127.277 28.798 127.259C29.134 127.24 29.498 127.231 29.89 127.231C30.282 127.221 30.7533 127.217 31.304 127.217ZM29.47 127.343V137.003H27.748V127.343H29.47ZM39.9263 129.961C41.037 129.961 41.835 130.157 42.3203 130.549C42.8057 130.931 43.053 131.501 43.0623 132.257C43.0717 132.882 42.9223 133.358 42.6143 133.685C42.3157 134.002 41.8163 134.161 41.1163 134.161H37.1963V133.111H40.6543C40.9717 133.111 41.1723 133.027 41.2563 132.859C41.3497 132.691 41.3963 132.485 41.3963 132.243C41.387 131.86 41.275 131.594 41.0603 131.445C40.855 131.295 40.5003 131.221 39.9963 131.221C39.5577 131.221 39.217 131.281 38.9743 131.403C38.7317 131.524 38.559 131.743 38.4563 132.061C38.363 132.378 38.3163 132.835 38.3163 133.433C38.3163 134.067 38.377 134.557 38.4983 134.903C38.6197 135.248 38.8203 135.486 39.1003 135.617C39.3803 135.738 39.7537 135.799 40.2203 135.799C40.5657 135.799 40.9623 135.785 41.4103 135.757C41.8677 135.729 42.3063 135.691 42.7263 135.645L42.8943 136.723C42.6423 136.825 42.353 136.909 42.0263 136.975C41.6997 137.04 41.359 137.087 41.0043 137.115C40.659 137.152 40.3323 137.171 40.0243 137.171C39.1843 137.171 38.5077 137.049 37.9943 136.807C37.4903 136.555 37.1217 136.163 36.8883 135.631C36.6643 135.099 36.5523 134.413 36.5523 133.573C36.5523 132.667 36.6643 131.953 36.8883 131.431C37.1217 130.899 37.4857 130.521 37.9803 130.297C38.4843 130.073 39.133 129.961 39.9263 129.961ZM49.2749 129.961C50.1243 129.961 50.7356 130.273 51.1089 130.899C51.4823 131.524 51.6689 132.429 51.6689 133.615C51.6689 134.52 51.5709 135.234 51.3749 135.757C51.1883 136.27 50.9036 136.639 50.5209 136.863C50.1383 137.077 49.6529 137.185 49.0649 137.185C48.5983 137.185 48.1409 137.119 47.6929 136.989C47.2543 136.849 46.8483 136.634 46.4749 136.345L46.5869 135.505C46.9509 135.607 47.2776 135.696 47.5669 135.771C47.8563 135.845 48.1736 135.883 48.5189 135.883C48.8643 135.883 49.1349 135.827 49.3309 135.715C49.5363 135.593 49.6856 135.369 49.7789 135.043C49.8723 134.716 49.9189 134.245 49.9189 133.629C49.9189 133.022 49.8769 132.551 49.7929 132.215C49.7089 131.879 49.5689 131.645 49.3729 131.515C49.1863 131.375 48.9389 131.305 48.6309 131.305C48.2949 131.305 47.9776 131.379 47.6789 131.529C47.3803 131.669 47.0349 131.879 46.6429 132.159L46.4469 131.263C46.6616 131.011 46.9183 130.787 47.2169 130.591C47.5249 130.395 47.8563 130.241 48.2109 130.129C48.5656 130.017 48.9203 129.961 49.2749 129.961ZM46.3769 130.129L46.5449 131.459L46.6989 131.655V136.093L46.6289 136.261C46.6569 136.531 46.6756 136.802 46.6849 137.073C46.6943 137.353 46.6989 137.637 46.6989 137.927V139.733H45.0049V130.129H46.3769ZM56.8181 129.961C57.6581 129.961 58.3254 130.077 58.8201 130.311C59.3241 130.544 59.6834 130.927 59.8981 131.459C60.1221 131.991 60.2341 132.695 60.2341 133.573C60.2341 134.45 60.1221 135.155 59.8981 135.687C59.6834 136.209 59.3241 136.592 58.8201 136.835C58.3254 137.068 57.6581 137.185 56.8181 137.185C55.9968 137.185 55.3341 137.068 54.8301 136.835C54.3354 136.592 53.9761 136.209 53.7521 135.687C53.5281 135.155 53.4161 134.45 53.4161 133.573C53.4161 132.695 53.5281 131.991 53.7521 131.459C53.9761 130.927 54.3354 130.544 54.8301 130.311C55.3341 130.077 55.9968 129.961 56.8181 129.961ZM56.8181 131.249C56.4074 131.249 56.0808 131.319 55.8381 131.459C55.6048 131.589 55.4368 131.823 55.3341 132.159C55.2314 132.495 55.1801 132.966 55.1801 133.573C55.1801 134.179 55.2314 134.651 55.3341 134.987C55.4368 135.323 55.6048 135.556 55.8381 135.687C56.0808 135.817 56.4074 135.883 56.8181 135.883C57.2381 135.883 57.5694 135.817 57.8121 135.687C58.0548 135.556 58.2228 135.323 58.3161 134.987C58.4188 134.651 58.4701 134.179 58.4701 133.573C58.4701 132.966 58.4188 132.495 58.3161 132.159C58.2228 131.823 58.0548 131.589 57.8121 131.459C57.5694 131.319 57.2381 131.249 56.8181 131.249ZM63.5672 130.129L63.7912 131.473L63.9452 131.669V137.003H62.2512V130.129H63.5672ZM66.9272 129.961L66.7592 131.529H66.2692C65.9052 131.529 65.5365 131.589 65.1632 131.711C64.7899 131.832 64.3232 132.014 63.7632 132.257L63.6512 131.263C64.1365 130.852 64.6312 130.535 65.1352 130.311C65.6392 130.077 66.1245 129.961 66.5912 129.961H66.9272ZM70.7634 128.169V134.931C70.7634 135.22 70.8241 135.425 70.9454 135.547C71.0761 135.668 71.2954 135.729 71.6034 135.729H72.5554L72.7374 136.919C72.5787 136.965 72.3874 137.007 72.1634 137.045C71.9394 137.082 71.7201 137.105 71.5054 137.115C71.2907 137.133 71.1087 137.143 70.9594 137.143C70.3621 137.143 69.8954 136.984 69.5594 136.667C69.2327 136.34 69.0694 135.873 69.0694 135.267V128.169H70.7634ZM72.8074 130.129V131.305H67.8514V130.199L69.1954 130.129H72.8074Z" fill="#333839"/>
<path d="M90.3994 53.6045L53.7439 90.2501" stroke="white" stroke-width="6.29" stroke-miterlimit="10"/>
<path d="M90.3994 53.6045L53.7439 90.2501" stroke="#64AFC1" stroke-width="3.42" stroke-miterlimit="10"/>
<path d="M8.6601 52.6616L6 50.0016L45.9905 10.0012" stroke="white" stroke-width="6.29" stroke-miterlimit="10"/>
<path d="M8.6601 52.6616L6 50.0016L45.9905 10.0012" stroke="#64AFC1" stroke-width="3.42" stroke-miterlimit="10"/>
<path d="M68.6358 87.9313H31.3153L12 68.6358V31.3153L31.3153 12H68.6358L87.9512 31.3153V68.6358L68.6358 87.9313Z" fill="#64AFC1"/>
<path d="M53.742 90.2506L50.0001 94.0025L8.65967 52.6621" stroke="white" stroke-width="6.29" stroke-miterlimit="10"/>
<path d="M53.742 90.2506L50.0001 94.0025L8.65967 52.6621" stroke="#64AFC1" stroke-width="3.42" stroke-miterlimit="10"/>
<path d="M45.9895 10L49.9995 6L93.9999 50.0004L90.3969 53.6034" stroke="white" stroke-width="6.29" stroke-miterlimit="10"/>
<path d="M45.9895 10L49.9995 6L93.9999 50.0004L90.3969 53.6034" stroke="#64AFC1" stroke-width="3.42" stroke-miterlimit="10"/>
<path d="M36 47.7404C37.1239 48.4268 38.1935 49.0948 39.2707 49.7361C40.0748 50.2154 40.8981 50.6621 41.7064 51.1339C41.9076 51.2508 42.0746 51.2641 42.2817 51.1397C44.2164 49.9782 46.1628 48.8351 48.0916 47.6628C48.7145 47.2837 48.9967 46.675 48.9993 45.9469C49.0034 44.6459 48.9993 43.345 48.9993 41.9973H62.8394C63.6192 41.9973 64 42.3822 64 43.1722C64 49.723 64 56.2736 64 62.8238C64 63.6146 63.6209 63.9978 62.8368 63.9978H37.1565C36.3899 63.9978 36.0008 63.6104 36 62.8489V47.7354V47.7404ZM56.5092 44.0013C55.0545 43.9991 53.658 44.573 52.6252 45.5976C51.5925 46.6222 51.0075 48.0141 50.9982 49.4689C50.9949 50.1919 51.1341 50.9085 51.4079 51.5778C51.6816 52.247 52.0845 52.8558 52.5936 53.3692C53.1026 53.8827 53.7079 54.2909 54.3747 54.5704C55.0416 54.8499 55.757 54.9953 56.48 54.9982C57.9396 55.0027 59.3411 54.4272 60.3764 53.3985C61.4118 52.3697 61.9962 50.9718 62.001 49.5123C62.0023 48.7898 61.8613 48.0742 61.586 47.4062C61.3107 46.7382 60.9066 46.131 60.3966 45.6193C59.8866 45.1075 59.2809 44.7013 58.6139 44.4236C57.9469 44.146 57.2317 44.0025 56.5092 44.0013ZM49.0009 61.9872V51.8002C49.0009 51.7275 49.0009 51.6549 49.0009 51.5823C48.9917 51.1906 48.8147 51.0069 48.4298 50.9978C48.1901 50.9928 47.9505 50.9978 47.7117 50.9978C47.1531 50.9978 47.0019 51.1464 47.0019 51.6933C47.0019 55.0233 47.0019 58.3538 47.0019 61.6849C47.0019 61.7843 47.0111 61.8836 47.0153 61.9838L49.0009 61.9872ZM46.0008 61.9872V60.3172C46.0008 58.1011 46.0008 55.8847 46.0008 53.6681C46.0008 53.1738 45.8338 53.0076 45.3528 53.0051C45.134 53.0051 44.9153 53.0051 44.6973 53.0051C44.1496 53.0051 44.0018 53.1562 44.0018 53.714C44.0018 56.3676 44.0018 59.021 44.0018 61.6741V61.9905L46.0008 61.9872ZM42.9998 61.9872C42.9998 59.8087 42.9998 57.6661 42.9998 55.5235C42.9998 55.1945 42.8002 55.0124 42.4654 55.0016C42.2057 54.9941 41.9452 55.0016 41.6855 55.0016C41.1578 55.0016 41.0041 55.1586 41.0041 55.693C41.0041 57.6903 41.0041 59.6879 41.0041 61.6857C41.0041 61.7851 41.0133 61.8853 41.0183 61.9888L42.9998 61.9872ZM52.0011 61.9872V55.7088C52.0011 55.6462 52.0011 55.5836 52.0011 55.5218C51.981 55.1928 51.7982 55.0108 51.4633 54.9999C51.2037 54.9924 50.9431 54.9999 50.6834 54.9999C50.1566 54.9999 50.0029 55.1569 50.0029 55.6921C50.0029 57.6894 50.0029 59.6868 50.0029 61.6841C50.0029 61.7843 50.0121 61.8845 50.0171 61.9863L52.0011 61.9872ZM39.9963 61.9872C39.9963 60.4675 40.0038 58.9628 39.9896 57.4581C39.9896 57.1726 39.7784 57.0139 39.4886 57.0047C39.2181 56.9956 38.9475 57.0047 38.6778 57.0047C38.1626 57.0047 38.0007 57.1642 38.0007 57.6727C38.0007 59.0243 38.0007 60.3762 38.0007 61.7283C38.0007 61.8177 38.0123 61.907 38.0182 61.9939L39.9963 61.9872ZM54.9996 61.9872C54.9996 60.4675 55.0037 58.9812 54.9996 57.4949C54.9996 57.1993 54.8 57.0148 54.4986 57.0022C54.218 56.9897 53.9374 56.9972 53.656 57.0022C53.1667 57.0022 53.0014 57.1692 53.0014 57.6569C53.0014 59.0085 53.0014 60.3603 53.0014 61.7125C53.0014 61.8018 53.0123 61.892 53.0189 61.9905L54.9996 61.9872Z" fill="white"/>
<path d="M47.5856 39.2309L44.1763 41.1798C43.5175 41.5564 42.8612 41.938 42.1966 42.3045C42.1461 42.3328 42.0902 42.3498 42.0326 42.3546C41.9749 42.3593 41.917 42.3517 41.8626 42.3321C40.0523 41.3109 38.2495 40.278 36.415 39.2301C36.4985 39.1683 36.5545 39.1174 36.6188 39.0781C38.212 38.1162 39.8049 37.1537 41.3975 36.1907C41.7791 35.9594 42.1556 35.926 42.5439 36.1598C44.1917 37.1523 45.8386 38.146 47.4846 39.1407C47.5203 39.1685 47.554 39.1986 47.5856 39.2309Z" fill="white"/>
<path d="M41.5002 49.9932C41.0543 49.716 40.6594 49.4705 40.2644 49.2233C39.0386 48.456 37.8162 47.6819 36.5854 46.9221C36.1838 46.6716 35.9942 46.3376 36.0009 45.8658C36.0101 44.0639 36.0009 42.262 36.0009 40.4592V40.1653C36.1287 40.2287 36.228 40.2722 36.3224 40.3264C37.9673 41.265 39.6095 42.2063 41.2489 43.1504C41.3558 43.2114 41.4868 43.3516 41.4877 43.456C41.501 45.5185 41.4977 47.5809 41.4977 49.6434L41.5002 49.9932Z" fill="white"/>
<path d="M42.5138 49.9698C42.5088 49.8588 42.5013 49.7794 42.5005 49.7001C42.5005 47.6477 42.5005 45.5961 42.508 43.5437C42.5094 43.4775 42.525 43.4125 42.5538 43.353C42.5826 43.2935 42.624 43.2409 42.675 43.1988C44.3943 42.2027 46.1227 41.2199 47.852 40.2354C47.8854 40.217 47.923 40.2045 48.0031 40.1694V40.435C48.0031 42.2578 48.0031 44.0806 48.0031 45.9034C48.0031 46.325 47.8461 46.6482 47.4879 46.8728C45.8825 47.8793 44.2774 48.8851 42.6725 49.8905C42.6307 49.9164 42.5848 49.9339 42.5138 49.9698Z" fill="white"/>
<path d="M56.0007 45.0708V45.4106C56.0007 46.7221 56.0007 48.0339 56.0007 49.346C56.0007 49.8328 56.1677 49.9973 56.6604 49.9973C57.9619 49.9973 59.2633 49.9973 60.5648 49.9973H60.9055C61.0658 51.7934 58.9307 53.86 56.8015 53.9903C54.3007 54.1431 52.1197 52.2109 52.0061 49.7501C51.8792 47.0314 54.0301 45.2161 56.0007 45.0708Z" fill="white"/>
<path d="M57.012 48.9803V45.0925C58.56 45.1092 60.7118 46.5955 60.9289 48.9803H57.012Z" fill="white"/>
</svg>
