<svg width="100" height="156" viewBox="0 0 100 156" fill="none" xmlns="http://www.w3.org/2000/svg">
<rect width="100" height="156" rx="19" fill="#F9FBFF"/>
<path d="M43.1951 109.343V119.003H41.4451V109.343H43.1951ZM46.1911 109.343V110.771H38.4491V109.343H46.1911ZM50.0401 111.961C50.5908 111.961 51.0528 112.035 51.4261 112.185C51.8088 112.325 52.0981 112.567 52.2941 112.913C52.4901 113.258 52.5881 113.734 52.5881 114.341V119.003H51.2441L51.0061 117.519L50.8801 117.323V114.327C50.8801 113.963 50.7961 113.701 50.6281 113.543C50.4601 113.375 50.1381 113.291 49.6621 113.291C49.3075 113.291 48.8595 113.305 48.3181 113.333C47.7861 113.361 47.2495 113.398 46.7081 113.445L46.5541 112.283C46.8808 112.217 47.2495 112.161 47.6601 112.115C48.0708 112.068 48.4861 112.031 48.9061 112.003C49.3261 111.975 49.7041 111.961 50.0401 111.961ZM51.8601 114.775L51.8461 115.825H48.6961C48.4161 115.834 48.2155 115.909 48.0941 116.049C47.9728 116.189 47.9121 116.38 47.9121 116.623V117.001C47.9121 117.281 47.9868 117.495 48.1361 117.645C48.2855 117.785 48.5188 117.855 48.8361 117.855C49.0881 117.855 49.3681 117.803 49.6761 117.701C49.9841 117.598 50.2875 117.449 50.5861 117.253C50.8941 117.057 51.1695 116.823 51.4121 116.553V117.435C51.3188 117.575 51.1835 117.743 51.0061 117.939C50.8288 118.125 50.6095 118.312 50.3481 118.499C50.0961 118.685 49.8021 118.839 49.4661 118.961C49.1395 119.082 48.7755 119.143 48.3741 119.143C47.9635 119.143 47.5948 119.073 47.2681 118.933C46.9415 118.783 46.6848 118.569 46.4981 118.289C46.3115 117.999 46.2181 117.645 46.2181 117.225V116.497C46.2181 115.955 46.3955 115.535 46.7501 115.237C47.1141 114.929 47.6088 114.775 48.2341 114.775H51.8601ZM61.2198 112.129L59.1758 115.475L61.3878 119.003H59.6378L57.5098 115.475L59.4698 112.129H61.2198ZM56.0258 112.129L57.9858 115.475L55.8858 119.003H54.1078L56.3198 115.475L54.2758 112.129H56.0258ZM58.6998 114.873V116.007H56.8238V114.873H58.6998ZM36.0522 127.343C36.4908 127.343 36.7148 127.567 36.7242 128.015L37.1022 137.003H35.4362L35.1002 128.729H34.8342L33.0282 135.211C32.9442 135.593 32.7062 135.785 32.3142 135.785H31.0822C30.6808 135.785 30.4335 135.593 30.3402 135.211L28.5342 128.729H28.2682L27.9602 137.003H26.2942L26.6722 128.015C26.6908 127.567 26.9148 127.343 27.3442 127.343H29.0942C29.4675 127.343 29.7008 127.534 29.7942 127.917L31.2782 133.209C31.3435 133.433 31.3948 133.657 31.4322 133.881C31.4788 134.105 31.5302 134.329 31.5862 134.553H31.7962C31.8522 134.329 31.9035 134.105 31.9502 133.881C31.9968 133.657 32.0482 133.428 32.1042 133.195L33.5882 127.917C33.6722 127.534 33.9102 127.343 34.3022 127.343H36.0522ZM42.834 129.961C43.3846 129.961 43.8466 130.035 44.22 130.185C44.6026 130.325 44.892 130.567 45.088 130.913C45.284 131.258 45.382 131.734 45.382 132.341V137.003H44.038L43.8 135.519L43.674 135.323V132.327C43.674 131.963 43.59 131.701 43.422 131.543C43.254 131.375 42.932 131.291 42.456 131.291C42.1013 131.291 41.6533 131.305 41.112 131.333C40.58 131.361 40.0433 131.398 39.502 131.445L39.348 130.283C39.6746 130.217 40.0433 130.161 40.454 130.115C40.8646 130.068 41.28 130.031 41.7 130.003C42.12 129.975 42.498 129.961 42.834 129.961ZM44.654 132.775L44.64 133.825H41.49C41.21 133.834 41.0093 133.909 40.888 134.049C40.7666 134.189 40.706 134.38 40.706 134.623V135.001C40.706 135.281 40.7806 135.495 40.93 135.645C41.0793 135.785 41.3126 135.855 41.63 135.855C41.882 135.855 42.162 135.803 42.47 135.701C42.778 135.598 43.0813 135.449 43.38 135.253C43.688 135.057 43.9633 134.823 44.206 134.553V135.435C44.1126 135.575 43.9773 135.743 43.8 135.939C43.6226 136.125 43.4033 136.312 43.142 136.499C42.89 136.685 42.596 136.839 42.26 136.961C41.9333 137.082 41.5693 137.143 41.168 137.143C40.7573 137.143 40.3886 137.073 40.062 136.933C39.7353 136.783 39.4786 136.569 39.292 136.289C39.1053 135.999 39.012 135.645 39.012 135.225V134.497C39.012 133.955 39.1893 133.535 39.544 133.237C39.908 132.929 40.4026 132.775 41.028 132.775H44.654ZM50.1216 129.961C50.4389 129.961 50.7796 129.97 51.1436 129.989C51.5169 130.007 51.8809 130.035 52.2356 130.073C52.5903 130.101 52.9076 130.143 53.1876 130.199L53.0756 131.305C52.6276 131.295 52.1796 131.286 51.7316 131.277C51.2929 131.258 50.8589 131.249 50.4296 131.249C50.0469 131.249 49.7436 131.258 49.5196 131.277C49.3049 131.295 49.1509 131.351 49.0576 131.445C48.9736 131.538 48.9316 131.697 48.9316 131.921C48.9316 132.191 49.0063 132.373 49.1556 132.467C49.3049 132.551 49.5476 132.635 49.8836 132.719L51.7596 133.153C52.3196 133.293 52.7349 133.507 53.0056 133.797C53.2763 134.077 53.4116 134.511 53.4116 135.099C53.4116 135.668 53.3043 136.102 53.0896 136.401C52.8843 136.69 52.5529 136.891 52.0956 137.003C51.6476 137.105 51.0736 137.157 50.3736 137.157C50.1029 137.157 49.7016 137.143 49.1696 137.115C48.6376 137.096 48.0543 137.035 47.4196 136.933L47.5316 135.827C47.7183 135.827 47.9376 135.831 48.1896 135.841C48.4509 135.85 48.7263 135.855 49.0156 135.855C49.3143 135.855 49.6176 135.855 49.9256 135.855C50.4203 135.855 50.7983 135.841 51.0596 135.813C51.3303 135.775 51.5169 135.705 51.6196 135.603C51.7223 135.491 51.7736 135.332 51.7736 135.127C51.7736 134.865 51.6849 134.693 51.5076 134.609C51.3396 134.515 51.0876 134.427 50.7516 134.343L48.9176 133.895C48.4976 133.783 48.1709 133.643 47.9376 133.475C47.7043 133.297 47.5363 133.083 47.4336 132.831C47.3309 132.569 47.2796 132.252 47.2796 131.879C47.2796 131.375 47.3729 130.983 47.5596 130.703C47.7556 130.423 48.0589 130.227 48.4696 130.115C48.8896 130.003 49.4403 129.951 50.1216 129.961ZM57.6324 128.169V134.931C57.6324 135.22 57.6931 135.425 57.8144 135.547C57.9451 135.668 58.1644 135.729 58.4724 135.729H59.4244L59.6064 136.919C59.4477 136.965 59.2564 137.007 59.0324 137.045C58.8084 137.082 58.5891 137.105 58.3744 137.115C58.1597 137.133 57.9777 137.143 57.8284 137.143C57.2311 137.143 56.7644 136.984 56.4284 136.667C56.1017 136.34 55.9384 135.873 55.9384 135.267V128.169H57.6324ZM59.6764 130.129V131.305H54.7204V130.199L56.0644 130.129H59.6764ZM64.4148 129.961C65.5255 129.961 66.3235 130.157 66.8088 130.549C67.2942 130.931 67.5415 131.501 67.5508 132.257C67.5602 132.882 67.4108 133.358 67.1028 133.685C66.8042 134.002 66.3048 134.161 65.6048 134.161H61.6848V133.111H65.1428C65.4602 133.111 65.6608 133.027 65.7448 132.859C65.8382 132.691 65.8848 132.485 65.8848 132.243C65.8755 131.86 65.7635 131.594 65.5488 131.445C65.3435 131.295 64.9888 131.221 64.4848 131.221C64.0462 131.221 63.7055 131.281 63.4628 131.403C63.2202 131.524 63.0475 131.743 62.9448 132.061C62.8515 132.378 62.8048 132.835 62.8048 133.433C62.8048 134.067 62.8655 134.557 62.9868 134.903C63.1082 135.248 63.3088 135.486 63.5888 135.617C63.8688 135.738 64.2422 135.799 64.7088 135.799C65.0542 135.799 65.4508 135.785 65.8988 135.757C66.3562 135.729 66.7948 135.691 67.2148 135.645L67.3828 136.723C67.1308 136.825 66.8415 136.909 66.5148 136.975C66.1882 137.04 65.8475 137.087 65.4928 137.115C65.1475 137.152 64.8208 137.171 64.5128 137.171C63.6728 137.171 62.9962 137.049 62.4828 136.807C61.9788 136.555 61.6102 136.163 61.3768 135.631C61.1528 135.099 61.0408 134.413 61.0408 133.573C61.0408 132.667 61.1528 131.953 61.3768 131.431C61.6102 130.899 61.9742 130.521 62.4688 130.297C62.9728 130.073 63.6215 129.961 64.4148 129.961ZM70.8095 130.129L71.0335 131.473L71.1875 131.669V137.003H69.4935V130.129H70.8095ZM74.1695 129.961L74.0015 131.529H73.5115C73.1475 131.529 72.7788 131.589 72.4055 131.711C72.0321 131.832 71.5655 132.014 71.0055 132.257L70.8935 131.263C71.3788 130.852 71.8735 130.535 72.3775 130.311C72.8815 130.077 73.3668 129.961 73.8335 129.961H74.1695Z" fill="#333839"/>
<path d="M90.3995 53.6044L53.744 90.2499" stroke="white" stroke-width="6.29" stroke-miterlimit="10"/>
<path d="M90.3995 53.6044L53.744 90.2499" stroke="#BB803D" stroke-width="3.42" stroke-miterlimit="10"/>
<path d="M8.6601 52.6618L6 50.0017L45.9905 10.0013" stroke="white" stroke-width="6.29" stroke-miterlimit="10"/>
<path d="M8.6601 52.6618L6 50.0017L45.9905 10.0013" stroke="#BB803D" stroke-width="3.42" stroke-miterlimit="10"/>
<path d="M68.6359 87.9313H31.3154L12.0001 68.6358V31.3153L31.3154 12H68.6359L87.9512 31.3153V68.6358L68.6359 87.9313Z" fill="#BB803D"/>
<path d="M53.7421 90.2507L50.0002 94.0026L8.65979 52.6622" stroke="white" stroke-width="6.29" stroke-miterlimit="10"/>
<path d="M53.7421 90.2507L50.0002 94.0026L8.65979 52.6622" stroke="#BB803D" stroke-width="3.42" stroke-miterlimit="10"/>
<path d="M45.9896 10L49.9995 6L94 50.0004L90.397 53.6034" stroke="white" stroke-width="6.29" stroke-miterlimit="10"/>
<path d="M45.9896 10L49.9995 6L94 50.0004L90.397 53.6034" stroke="#BB803D" stroke-width="3.42" stroke-miterlimit="10"/>
<path d="M43.3846 65C42.8917 64.8594 42.3692 64.7782 41.91 64.5666C40.2972 63.8277 39.3951 62.532 39.1202 60.7887C38.7898 58.6979 39.1748 56.6891 39.8575 54.7248C40.9259 51.6499 42.6121 48.9249 44.6272 46.3913C44.7043 46.3117 44.8093 46.2652 44.9201 46.2616C45.4067 46.2484 45.894 46.2577 46.3814 46.2546C46.7719 46.2546 47.0109 46.05 47.0117 45.7212C47.0124 45.3924 46.7836 45.1932 46.3829 45.1908C45.7011 45.1908 45.0193 45.1908 44.3374 45.1908C44.2302 45.1936 44.123 45.1889 44.0164 45.1768C43.572 45.1127 43.2526 44.7496 43.2744 44.3395C43.2971 43.917 43.6306 43.6022 44.0875 43.5749C44.1851 43.5687 44.2828 43.5749 44.3796 43.5749C48.1697 43.5749 51.9595 43.5765 55.749 43.5796C56.0215 43.5861 56.2882 43.4996 56.505 43.3343C57.2923 42.7494 57.7437 41.9761 57.8328 40.9913C57.8328 40.9522 57.8367 40.9132 57.8429 40.8749C57.8937 40.5492 58.1225 40.3493 58.417 40.3711C58.7247 40.3938 58.9254 40.6367 58.9051 40.9819C58.8812 41.5441 58.7401 42.0951 58.4911 42.5997C58.242 43.1043 57.8904 43.5514 57.4587 43.9123C57.3634 43.9946 57.2684 44.0768 57.1736 44.1591C57.1673 44.1646 57.1673 44.1771 57.1548 44.2153L57.4743 44.3177C58.5951 44.6762 59.4019 45.3892 59.8838 46.4647C60.0517 46.8388 59.9564 47.1512 59.6494 47.2793C59.3425 47.4074 59.0785 47.2653 58.9145 46.9021C58.4037 45.7774 57.5368 45.1893 56.2988 45.1838C54.1362 45.1784 51.9735 45.1838 49.8109 45.1838C49.3844 45.1838 49.1579 45.376 49.1642 45.7227C49.1704 46.0695 49.4024 46.2476 49.8296 46.2476C51.7103 46.2476 53.5902 46.2476 55.4702 46.2554C55.6086 46.2568 55.7409 46.313 55.838 46.4116C57.8109 48.8898 59.4581 51.5578 60.5343 54.5554C61.1076 56.1533 61.4817 57.7935 61.4427 59.5039C61.4153 60.7372 61.2248 61.9353 60.4781 62.9701C59.6737 64.0862 58.5935 64.7517 57.229 64.9461C57.1729 64.9586 57.1178 64.9753 57.0643 64.9961L43.3846 65ZM52.9022 60.1459C52.8764 60.0678 52.8498 59.9663 52.8069 59.8695C52.1222 58.3199 51.4357 56.7706 50.7473 55.2216C50.6427 54.9873 50.4794 54.8311 50.2162 54.8357C49.953 54.8404 49.7968 54.9974 49.6929 55.2325C49.0095 56.7828 48.3191 58.3308 47.6349 59.8804C47.4787 60.2373 47.5763 60.5372 47.877 60.6677C48.1777 60.7981 48.4417 60.6677 48.6026 60.3248C48.7541 59.9976 48.9111 59.6719 49.0392 59.336C49.1118 59.1454 49.2188 59.0947 49.411 59.1017C49.9577 59.1134 50.5044 59.115 51.0464 59.1017C51.2479 59.0962 51.3385 59.1712 51.4096 59.3509C51.5549 59.7125 51.715 60.0678 51.886 60.4177C51.936 60.5308 52.0257 60.6217 52.138 60.6732C52.2504 60.7247 52.3777 60.7333 52.496 60.6973C52.753 60.6161 52.8756 60.4341 52.9022 60.1459ZM56.1122 56.7875C56.0923 56.7666 56.0735 56.7448 56.0559 56.7219C55.7467 56.2601 55.4382 55.7982 55.1304 55.3364C55.0765 55.2583 55.025 55.1724 54.9672 55.0935C54.7594 54.81 54.4673 54.742 54.2073 54.9138C53.9472 55.0857 53.8878 55.3879 54.0807 55.6847C54.49 56.3137 54.9065 56.9385 55.3304 57.5592C55.4335 57.7099 55.4413 57.8154 55.3343 57.97C54.9037 58.5948 54.4824 59.2275 54.0706 59.8679C53.8902 60.1475 53.9542 60.4459 54.2034 60.6146C54.4525 60.7833 54.7501 60.7348 54.9461 60.4654C55.1625 60.1655 55.3585 59.8507 55.5647 59.543C55.7396 59.2821 55.9154 59.0228 56.1114 58.737C56.4925 59.311 56.8463 59.8476 57.2048 60.3771C57.4274 60.7091 57.7187 60.7973 57.9945 60.6232C58.2702 60.449 58.3209 60.1264 58.0921 59.7796C57.7063 59.1939 57.3251 58.6081 56.9205 58.0309C56.7815 57.8325 56.7807 57.6951 56.9205 57.4959C57.3353 56.9062 57.7305 56.3025 58.1225 55.6996C58.3756 55.309 58.1757 54.8514 57.7476 54.8248C57.5133 54.81 57.3478 54.9349 57.2197 55.1294C56.8542 55.6855 56.4847 56.2322 56.1122 56.7914V56.7875ZM43.8055 55.8964V56.2986C43.8055 57.5576 43.8055 58.8166 43.8055 60.0757C43.8055 60.4662 44.0258 60.7122 44.3429 60.7122C44.66 60.7122 44.8685 60.4662 44.8802 60.0749C44.8802 59.9968 44.8802 59.9187 44.8802 59.8406V55.8964C45.4129 55.8964 45.9073 55.9042 46.4017 55.8964C46.7844 55.8886 47.0054 55.6855 47.0101 55.3661C47.0148 55.0466 46.7797 54.8256 46.3853 54.8193C46.0252 54.8123 45.6644 54.8193 45.3043 54.8193C44.3101 54.8193 43.3166 54.8193 42.3232 54.8193C41.9053 54.8193 41.671 55.0263 41.6749 55.3661C41.6796 55.6855 41.9006 55.8886 42.2818 55.8956C42.7808 55.9073 43.276 55.9003 43.8055 55.9003V55.8964Z" fill="white"/>
<path d="M53.3817 35.0086C54.2151 35.3788 54.4103 35.8724 54.0581 36.7183C53.5301 37.9866 52.9998 39.2535 52.4789 40.5242C52.4134 40.6748 52.3827 40.8381 52.389 41.0022C52.407 41.242 52.5796 41.3833 52.8116 41.4216C52.9283 41.4469 53.0502 41.4292 53.155 41.3718C53.2597 41.3144 53.3402 41.2212 53.3817 41.1092C53.5457 40.7452 53.6941 40.3742 53.8503 40.0056C54.1424 39.3027 54.4392 38.6044 54.722 37.8968C54.7868 37.7344 54.8711 37.675 55.043 37.6836C55.3155 37.6969 55.5897 37.6836 55.8615 37.6891C56.7206 37.7125 57.2064 38.5794 56.7573 39.3245C56.32 40.0509 55.8529 40.7585 55.396 41.4739C55.1812 41.8098 55.0328 42.276 54.7243 42.4416C54.4158 42.6072 53.9284 42.4994 53.5208 42.5002C51.0066 42.5002 48.4933 42.5002 45.9792 42.5057C45.8941 42.5125 45.809 42.4939 45.7345 42.4522C45.6601 42.4104 45.5998 42.3475 45.5613 42.2714C44.9667 41.3211 44.3653 40.3748 43.7571 39.4323C43.5119 39.0504 43.4322 38.6591 43.654 38.2467C43.8759 37.8343 44.257 37.6617 44.7256 37.6828C45.0263 37.6961 45.3965 37.5938 45.6097 37.7344C45.823 37.875 45.8776 38.2522 45.994 38.5295C46.34 39.3558 46.6797 40.1852 47.0257 41.0123C47.1593 41.331 47.3866 41.47 47.6552 41.413C48.0262 41.3349 48.1746 40.9936 48.0051 40.582C47.5699 39.5281 47.1325 38.4756 46.693 37.4243C46.5727 37.1361 46.4501 36.8495 46.3337 36.5605C46.0705 35.9099 46.29 35.3569 46.9242 35.0625C46.9555 35.0445 46.9851 35.0236 47.0125 35L53.3817 35.0086Z" fill="white"/>
<path d="M49.6335 58.0173C49.8241 57.5854 50.0077 57.1715 50.224 56.6818C50.4364 57.1582 50.6215 57.5745 50.8184 58.0173H49.6335Z" fill="white"/>
</svg>
