<svg width="100" height="156" viewBox="0 0 100 156" fill="none" xmlns="http://www.w3.org/2000/svg">
<rect width="100" height="156" rx="19" fill="#F9FBFF"/>
<path d="M17.1628 109.343V119.003H15.4128V109.343H17.1628ZM20.1588 109.343V110.771H12.4168V109.343H20.1588ZM21.4015 112.129L21.6255 113.473L21.7795 113.669V119.003H20.0855V112.129H21.4015ZM24.7615 111.961L24.5935 113.529H24.1035C23.7395 113.529 23.3708 113.589 22.9975 113.711C22.6242 113.832 22.1575 114.014 21.5975 114.257L21.4855 113.263C21.9708 112.852 22.4655 112.535 22.9695 112.311C23.4735 112.077 23.9588 111.961 24.4255 111.961H24.7615ZM29.2004 111.961C29.751 111.961 30.213 112.035 30.5864 112.185C30.969 112.325 31.2584 112.567 31.4544 112.913C31.6504 113.258 31.7484 113.734 31.7484 114.341V119.003H30.4044L30.1664 117.519L30.0404 117.323V114.327C30.0404 113.963 29.9564 113.701 29.7884 113.543C29.6204 113.375 29.2984 113.291 28.8224 113.291C28.4677 113.291 28.0197 113.305 27.4784 113.333C26.9464 113.361 26.4097 113.398 25.8684 113.445L25.7144 112.283C26.041 112.217 26.4097 112.161 26.8204 112.115C27.231 112.068 27.6464 112.031 28.0664 112.003C28.4864 111.975 28.8644 111.961 29.2004 111.961ZM31.0204 114.775L31.0064 115.825H27.8564C27.5764 115.834 27.3757 115.909 27.2544 116.049C27.133 116.189 27.0724 116.38 27.0724 116.623V117.001C27.0724 117.281 27.147 117.495 27.2964 117.645C27.4457 117.785 27.679 117.855 27.9964 117.855C28.2484 117.855 28.5284 117.803 28.8364 117.701C29.1444 117.598 29.4477 117.449 29.7464 117.253C30.0544 117.057 30.3297 116.823 30.5724 116.553V117.435C30.479 117.575 30.3437 117.743 30.1664 117.939C29.989 118.125 29.7697 118.312 29.5084 118.499C29.2564 118.685 28.9624 118.839 28.6264 118.961C28.2997 119.082 27.9357 119.143 27.5344 119.143C27.1237 119.143 26.755 119.073 26.4284 118.933C26.1017 118.783 25.845 118.569 25.6584 118.289C25.4717 117.999 25.3784 117.645 25.3784 117.225V116.497C25.3784 115.955 25.5557 115.535 25.9104 115.237C26.2744 114.929 26.769 114.775 27.3944 114.775H31.0204ZM37.972 111.961C39.2507 111.961 39.89 112.591 39.89 113.851V119.003H38.196V114.369C38.196 113.995 38.1307 113.739 38 113.599C37.8693 113.459 37.65 113.389 37.342 113.389C36.9967 113.389 36.642 113.468 36.278 113.627C35.914 113.776 35.4753 113.995 34.962 114.285L34.892 113.263C35.396 112.843 35.9093 112.521 36.432 112.297C36.9547 112.073 37.468 111.961 37.972 111.961ZM34.836 112.129L35.004 113.473L35.144 113.669V119.003H33.45V112.129H34.836ZM44.0868 111.961C44.4042 111.961 44.7448 111.97 45.1088 111.989C45.4822 112.007 45.8462 112.035 46.2008 112.073C46.5555 112.101 46.8728 112.143 47.1528 112.199L47.0408 113.305C46.5928 113.295 46.1448 113.286 45.6968 113.277C45.2582 113.258 44.8242 113.249 44.3948 113.249C44.0122 113.249 43.7088 113.258 43.4848 113.277C43.2702 113.295 43.1162 113.351 43.0228 113.445C42.9388 113.538 42.8968 113.697 42.8968 113.921C42.8968 114.191 42.9715 114.373 43.1208 114.467C43.2702 114.551 43.5128 114.635 43.8488 114.719L45.7248 115.153C46.2848 115.293 46.7002 115.507 46.9708 115.797C47.2415 116.077 47.3768 116.511 47.3768 117.099C47.3768 117.668 47.2695 118.102 47.0548 118.401C46.8495 118.69 46.5182 118.891 46.0608 119.003C45.6128 119.105 45.0388 119.157 44.3388 119.157C44.0682 119.157 43.6668 119.143 43.1348 119.115C42.6028 119.096 42.0195 119.035 41.3848 118.933L41.4968 117.827C41.6835 117.827 41.9028 117.831 42.1548 117.841C42.4162 117.85 42.6915 117.855 42.9808 117.855C43.2795 117.855 43.5828 117.855 43.8908 117.855C44.3855 117.855 44.7635 117.841 45.0248 117.813C45.2955 117.775 45.4822 117.705 45.5848 117.603C45.6875 117.491 45.7388 117.332 45.7388 117.127C45.7388 116.865 45.6502 116.693 45.4728 116.609C45.3048 116.515 45.0528 116.427 44.7168 116.343L42.8828 115.895C42.4628 115.783 42.1362 115.643 41.9028 115.475C41.6695 115.297 41.5015 115.083 41.3988 114.831C41.2962 114.569 41.2448 114.252 41.2448 113.879C41.2448 113.375 41.3382 112.983 41.5248 112.703C41.7208 112.423 42.0242 112.227 42.4348 112.115C42.8548 112.003 43.4055 111.951 44.0868 111.961ZM52.2276 111.961C52.7783 111.961 53.2403 112.035 53.6136 112.185C53.9963 112.325 54.2856 112.567 54.4816 112.913C54.6776 113.258 54.7756 113.734 54.7756 114.341V119.003H53.4316L53.1936 117.519L53.0676 117.323V114.327C53.0676 113.963 52.9836 113.701 52.8156 113.543C52.6476 113.375 52.3256 113.291 51.8496 113.291C51.495 113.291 51.047 113.305 50.5056 113.333C49.9736 113.361 49.437 113.398 48.8956 113.445L48.7416 112.283C49.0683 112.217 49.437 112.161 49.8476 112.115C50.2583 112.068 50.6736 112.031 51.0936 112.003C51.5136 111.975 51.8916 111.961 52.2276 111.961ZM54.0476 114.775L54.0336 115.825H50.8836C50.6036 115.834 50.403 115.909 50.2816 116.049C50.1603 116.189 50.0996 116.38 50.0996 116.623V117.001C50.0996 117.281 50.1743 117.495 50.3236 117.645C50.473 117.785 50.7063 117.855 51.0236 117.855C51.2756 117.855 51.5556 117.803 51.8636 117.701C52.1716 117.598 52.475 117.449 52.7736 117.253C53.0816 117.057 53.357 116.823 53.5996 116.553V117.435C53.5063 117.575 53.371 117.743 53.1936 117.939C53.0163 118.125 52.797 118.312 52.5356 118.499C52.2836 118.685 51.9896 118.839 51.6536 118.961C51.327 119.082 50.963 119.143 50.5616 119.143C50.151 119.143 49.7823 119.073 49.4556 118.933C49.129 118.783 48.8723 118.569 48.6856 118.289C48.499 117.999 48.4056 117.645 48.4056 117.225V116.497C48.4056 115.955 48.583 115.535 48.9376 115.237C49.3016 114.929 49.7963 114.775 50.4216 114.775H54.0476ZM59.5573 111.961C59.7906 111.961 60.0473 111.97 60.3273 111.989C60.6073 112.007 60.8919 112.045 61.1813 112.101C61.4706 112.157 61.7319 112.236 61.9653 112.339L61.7693 113.403C61.4239 113.384 61.0786 113.37 60.7333 113.361C60.3973 113.351 60.1033 113.347 59.8513 113.347C59.3753 113.347 58.9973 113.412 58.7173 113.543C58.4466 113.664 58.2506 113.888 58.1293 114.215C58.0079 114.532 57.9473 114.98 57.9473 115.559C57.9473 116.137 58.0079 116.59 58.1293 116.917C58.2506 117.234 58.4466 117.458 58.7173 117.589C58.9973 117.719 59.3753 117.785 59.8513 117.785C59.9913 117.785 60.1733 117.78 60.3973 117.771C60.6306 117.761 60.8779 117.747 61.1393 117.729C61.4099 117.71 61.6713 117.687 61.9233 117.659L62.0913 118.751C61.7273 118.9 61.3213 119.007 60.8733 119.073C60.4253 119.138 59.9819 119.171 59.5433 119.171C58.7219 119.171 58.0639 119.054 57.5693 118.821C57.0746 118.587 56.7153 118.209 56.4913 117.687C56.2766 117.155 56.1693 116.445 56.1693 115.559C56.1693 114.672 56.2813 113.967 56.5053 113.445C56.7293 112.913 57.0886 112.535 57.5833 112.311C58.0779 112.077 58.7359 111.961 59.5573 111.961ZM65.6053 110.169V116.931C65.6053 117.22 65.6659 117.425 65.7873 117.547C65.9179 117.668 66.1373 117.729 66.4453 117.729H67.3973L67.5793 118.919C67.4206 118.965 67.2293 119.007 67.0053 119.045C66.7813 119.082 66.5619 119.105 66.3473 119.115C66.1326 119.133 65.9506 119.143 65.8013 119.143C65.2039 119.143 64.7373 118.984 64.4013 118.667C64.0746 118.34 63.9113 117.873 63.9113 117.267V110.169H65.6053ZM67.6493 112.129V113.305H62.6933V112.199L64.0373 112.129H67.6493ZM70.4977 112.129V119.003H68.8177V112.129H70.4977ZM70.0357 109.147C70.3717 109.147 70.5397 109.315 70.5397 109.651V110.435C70.5397 110.771 70.3717 110.939 70.0357 110.939H69.2797C68.9437 110.939 68.7757 110.771 68.7757 110.435V109.651C68.7757 109.315 68.9437 109.147 69.2797 109.147H70.0357ZM75.4211 111.961C76.2611 111.961 76.9285 112.077 77.4231 112.311C77.9271 112.544 78.2865 112.927 78.5011 113.459C78.7251 113.991 78.8371 114.695 78.8371 115.573C78.8371 116.45 78.7251 117.155 78.5011 117.687C78.2865 118.209 77.9271 118.592 77.4231 118.835C76.9285 119.068 76.2611 119.185 75.4211 119.185C74.5998 119.185 73.9371 119.068 73.4331 118.835C72.9385 118.592 72.5791 118.209 72.3551 117.687C72.1311 117.155 72.0191 116.45 72.0191 115.573C72.0191 114.695 72.1311 113.991 72.3551 113.459C72.5791 112.927 72.9385 112.544 73.4331 112.311C73.9371 112.077 74.5998 111.961 75.4211 111.961ZM75.4211 113.249C75.0105 113.249 74.6838 113.319 74.4411 113.459C74.2078 113.589 74.0398 113.823 73.9371 114.159C73.8345 114.495 73.7831 114.966 73.7831 115.573C73.7831 116.179 73.8345 116.651 73.9371 116.987C74.0398 117.323 74.2078 117.556 74.4411 117.687C74.6838 117.817 75.0105 117.883 75.4211 117.883C75.8411 117.883 76.1725 117.817 76.4151 117.687C76.6578 117.556 76.8258 117.323 76.9191 116.987C77.0218 116.651 77.0731 116.179 77.0731 115.573C77.0731 114.966 77.0218 114.495 76.9191 114.159C76.8258 113.823 76.6578 113.589 76.4151 113.459C76.1725 113.319 75.8411 113.249 75.4211 113.249ZM84.8162 111.961C86.0949 111.961 86.7342 112.591 86.7342 113.851V119.003H85.0402V114.369C85.0402 113.995 84.9749 113.739 84.8442 113.599C84.7136 113.459 84.4942 113.389 84.1862 113.389C83.8409 113.389 83.4862 113.468 83.1222 113.627C82.7582 113.776 82.3196 113.995 81.8062 114.285L81.7362 113.263C82.2402 112.843 82.7536 112.521 83.2762 112.297C83.7989 112.073 84.3122 111.961 84.8162 111.961ZM81.6802 112.129L81.8482 113.473L81.9882 113.669V119.003H80.2942V112.129H81.6802ZM25.3277 127.175C25.7664 127.175 26.1397 127.189 26.4477 127.217C26.7557 127.235 27.0404 127.268 27.3017 127.315C27.563 127.352 27.8337 127.408 28.1137 127.483L27.9597 128.785C27.6704 128.766 27.3997 128.752 27.1477 128.743C26.8957 128.724 26.625 128.71 26.3357 128.701C26.0557 128.691 25.7197 128.687 25.3277 128.687C24.7864 128.687 24.3617 128.794 24.0537 129.009C23.7457 129.223 23.5264 129.583 23.3957 130.087C23.2744 130.591 23.2137 131.286 23.2137 132.173C23.2137 133.059 23.2744 133.755 23.3957 134.259C23.5264 134.763 23.7457 135.122 24.0537 135.337C24.3617 135.551 24.7864 135.659 25.3277 135.659C25.9531 135.659 26.4757 135.649 26.8957 135.631C27.325 135.603 27.7451 135.565 28.1557 135.519L28.3097 136.807C27.8897 136.937 27.4557 137.031 27.0077 137.087C26.5597 137.143 25.9997 137.171 25.3277 137.171C24.357 137.171 23.5824 137.012 23.0037 136.695C22.425 136.368 22.005 135.841 21.7437 135.113C21.4917 134.385 21.3657 133.405 21.3657 132.173C21.3657 130.941 21.4917 129.961 21.7437 129.233C22.005 128.505 22.425 127.982 23.0037 127.665C23.5824 127.338 24.357 127.175 25.3277 127.175ZM34.0788 129.961C35.3575 129.961 35.9968 130.591 35.9968 131.851V137.003H34.2888V132.369C34.2888 131.995 34.2235 131.739 34.0928 131.599C33.9715 131.459 33.7568 131.389 33.4488 131.389C33.1035 131.389 32.7488 131.463 32.3848 131.613C32.0208 131.762 31.5821 131.986 31.0688 132.285L30.9428 131.305C31.4655 130.875 31.9881 130.544 32.5108 130.311C33.0428 130.077 33.5655 129.961 34.0788 129.961ZM31.2508 127.203L31.2648 129.723C31.2648 130.068 31.2461 130.395 31.2088 130.703C31.1808 131.001 31.1388 131.258 31.0828 131.473L31.2508 131.669V137.003H29.5568V127.203H31.2508ZM40.7816 129.961C41.8923 129.961 42.6903 130.157 43.1756 130.549C43.661 130.931 43.9083 131.501 43.9176 132.257C43.927 132.882 43.7776 133.358 43.4696 133.685C43.171 134.002 42.6716 134.161 41.9716 134.161H38.0516V133.111H41.5096C41.827 133.111 42.0276 133.027 42.1116 132.859C42.205 132.691 42.2516 132.485 42.2516 132.243C42.2423 131.86 42.1303 131.594 41.9156 131.445C41.7103 131.295 41.3556 131.221 40.8516 131.221C40.413 131.221 40.0723 131.281 39.8296 131.403C39.587 131.524 39.4143 131.743 39.3116 132.061C39.2183 132.378 39.1716 132.835 39.1716 133.433C39.1716 134.067 39.2323 134.557 39.3536 134.903C39.475 135.248 39.6756 135.486 39.9556 135.617C40.2356 135.738 40.609 135.799 41.0756 135.799C41.421 135.799 41.8176 135.785 42.2656 135.757C42.723 135.729 43.1616 135.691 43.5816 135.645L43.7496 136.723C43.4976 136.825 43.2083 136.909 42.8816 136.975C42.555 137.04 42.2143 137.087 41.8596 137.115C41.5143 137.152 41.1876 137.171 40.8796 137.171C40.0396 137.171 39.363 137.049 38.8496 136.807C38.3456 136.555 37.977 136.163 37.7436 135.631C37.5196 135.099 37.4076 134.413 37.4076 133.573C37.4076 132.667 37.5196 131.953 37.7436 131.431C37.977 130.899 38.341 130.521 38.8356 130.297C39.3396 130.073 39.9883 129.961 40.7816 129.961ZM48.3802 129.961C48.6136 129.961 48.8702 129.97 49.1502 129.989C49.4302 130.007 49.7149 130.045 50.0042 130.101C50.2936 130.157 50.5549 130.236 50.7882 130.339L50.5922 131.403C50.2469 131.384 49.9016 131.37 49.5562 131.361C49.2202 131.351 48.9262 131.347 48.6742 131.347C48.1982 131.347 47.8202 131.412 47.5402 131.543C47.2696 131.664 47.0736 131.888 46.9522 132.215C46.8309 132.532 46.7702 132.98 46.7702 133.559C46.7702 134.137 46.8309 134.59 46.9522 134.917C47.0736 135.234 47.2696 135.458 47.5402 135.589C47.8202 135.719 48.1982 135.785 48.6742 135.785C48.8142 135.785 48.9962 135.78 49.2202 135.771C49.4536 135.761 49.7009 135.747 49.9622 135.729C50.2329 135.71 50.4942 135.687 50.7462 135.659L50.9142 136.751C50.5502 136.9 50.1442 137.007 49.6962 137.073C49.2482 137.138 48.8049 137.171 48.3662 137.171C47.5449 137.171 46.8869 137.054 46.3922 136.821C45.8976 136.587 45.5382 136.209 45.3142 135.687C45.0996 135.155 44.9922 134.445 44.9922 133.559C44.9922 132.672 45.1042 131.967 45.3282 131.445C45.5522 130.913 45.9116 130.535 46.4062 130.311C46.9009 130.077 47.5589 129.961 48.3802 129.961ZM58.3762 130.129L56.4162 132.579C56.3416 132.691 56.2482 132.803 56.1362 132.915C56.0242 133.017 55.9262 133.097 55.8422 133.153V133.181C55.9262 133.237 56.0242 133.33 56.1362 133.461C56.2482 133.582 56.3416 133.708 56.4162 133.839L58.6002 137.003H56.6822L54.1762 133.111L56.4582 130.129H58.3762ZM53.8542 127.203L53.8682 131.389C53.8682 131.697 53.8496 131.991 53.8122 132.271C53.7842 132.551 53.7422 132.835 53.6862 133.125C53.7329 133.395 53.7702 133.675 53.7982 133.965C53.8356 134.254 53.8542 134.525 53.8542 134.777V137.003H52.1602V127.203H53.8542ZM54.9042 132.607V133.699H53.3082V132.607H54.9042ZM61.2614 127.203L61.2474 134.931C61.2474 135.192 61.3221 135.393 61.4714 135.533C61.6208 135.663 61.8354 135.729 62.1154 135.729H62.7174L62.9134 136.919C62.8108 136.965 62.6661 137.007 62.4794 137.045C62.3021 137.082 62.1154 137.105 61.9194 137.115C61.7328 137.133 61.5694 137.143 61.4294 137.143C60.8601 137.143 60.4074 136.989 60.0714 136.681C59.7354 136.373 59.5674 135.929 59.5674 135.351V127.203H61.2614ZM65.5655 130.129V137.003H63.8855V130.129H65.5655ZM65.1035 127.147C65.4395 127.147 65.6075 127.315 65.6075 127.651V128.435C65.6075 128.771 65.4395 128.939 65.1035 128.939H64.3475C64.0115 128.939 63.8435 128.771 63.8435 128.435V127.651C63.8435 127.315 64.0115 127.147 64.3475 127.147H65.1035ZM69.8589 129.961C70.1762 129.961 70.5169 129.97 70.8809 129.989C71.2542 130.007 71.6182 130.035 71.9729 130.073C72.3275 130.101 72.6449 130.143 72.9249 130.199L72.8129 131.305C72.3649 131.295 71.9169 131.286 71.4689 131.277C71.0302 131.258 70.5962 131.249 70.1669 131.249C69.7842 131.249 69.4809 131.258 69.2569 131.277C69.0422 131.295 68.8882 131.351 68.7949 131.445C68.7109 131.538 68.6689 131.697 68.6689 131.921C68.6689 132.191 68.7435 132.373 68.8929 132.467C69.0422 132.551 69.2849 132.635 69.6209 132.719L71.4969 133.153C72.0569 133.293 72.4722 133.507 72.7429 133.797C73.0135 134.077 73.1489 134.511 73.1489 135.099C73.1489 135.668 73.0415 136.102 72.8269 136.401C72.6215 136.69 72.2902 136.891 71.8329 137.003C71.3849 137.105 70.8109 137.157 70.1109 137.157C69.8402 137.157 69.4389 137.143 68.9069 137.115C68.3749 137.096 67.7915 137.035 67.1569 136.933L67.2689 135.827C67.4555 135.827 67.6749 135.831 67.9269 135.841C68.1882 135.85 68.4635 135.855 68.7529 135.855C69.0515 135.855 69.3549 135.855 69.6629 135.855C70.1575 135.855 70.5355 135.841 70.7969 135.813C71.0675 135.775 71.2542 135.705 71.3569 135.603C71.4595 135.491 71.5109 135.332 71.5109 135.127C71.5109 134.865 71.4222 134.693 71.2449 134.609C71.0769 134.515 70.8249 134.427 70.4889 134.343L68.6549 133.895C68.2349 133.783 67.9082 133.643 67.6749 133.475C67.4415 133.297 67.2735 133.083 67.1709 132.831C67.0682 132.569 67.0169 132.252 67.0169 131.879C67.0169 131.375 67.1102 130.983 67.2969 130.703C67.4929 130.423 67.7962 130.227 68.2069 130.115C68.6269 130.003 69.1775 129.951 69.8589 129.961ZM76.8097 128.169V134.931C76.8097 135.22 76.8703 135.425 76.9917 135.547C77.1223 135.668 77.3417 135.729 77.6497 135.729H78.6017L78.7837 136.919C78.625 136.965 78.4337 137.007 78.2097 137.045C77.9857 137.082 77.7663 137.105 77.5517 137.115C77.337 137.133 77.155 137.143 77.0057 137.143C76.4083 137.143 75.9417 136.984 75.6057 136.667C75.279 136.34 75.1157 135.873 75.1157 135.267V128.169H76.8097ZM78.8537 130.129V131.305H73.8977V130.199L75.2417 130.129H78.8537Z" fill="#333839"/>
<path d="M90.3996 53.6044L53.7441 90.2499" stroke="white" stroke-width="6.29" stroke-miterlimit="10"/>
<path d="M90.3996 53.6044L53.7441 90.2499" stroke="#3F8E78" stroke-width="3.42" stroke-miterlimit="10"/>
<path d="M8.6601 52.6618L6 50.0017L45.9905 10.0013" stroke="white" stroke-width="6.29" stroke-miterlimit="10"/>
<path d="M8.6601 52.6618L6 50.0017L45.9905 10.0013" stroke="#3F8E78" stroke-width="3.42" stroke-miterlimit="10"/>
<path d="M68.6358 87.9313H31.3153L12 68.6358V31.3153L31.3153 12H68.6358L87.9512 31.3153V68.6358L68.6358 87.9313Z" fill="#3F8E78"/>
<path d="M53.742 90.2507L50.0001 94.0026L8.65967 52.6622" stroke="white" stroke-width="6.29" stroke-miterlimit="10"/>
<path d="M53.742 90.2507L50.0001 94.0026L8.65967 52.6622" stroke="#3F8E78" stroke-width="3.42" stroke-miterlimit="10"/>
<path d="M45.9897 10L49.9997 6L94.0002 50.0004L90.3972 53.6034" stroke="white" stroke-width="6.29" stroke-miterlimit="10"/>
<path d="M45.9897 10L49.9997 6L94.0002 50.0004L90.3972 53.6034" stroke="#3F8E78" stroke-width="3.42" stroke-miterlimit="10"/>
<path d="M55.2705 58.7496C54.9947 57.1894 54.233 55.951 52.9311 55.0865C51.9901 54.46 50.9488 54.198 49.8232 54.2423C47.7067 54.3263 45.4018 55.8911 44.9022 58.7449C44.4187 58.7449 43.9306 58.7644 43.4463 58.7395C43.0226 58.7177 42.7092 58.3601 42.6847 57.9295C42.6801 57.8424 42.6847 57.7545 42.6847 57.6675V41.3687C42.6847 40.575 42.9735 40.2843 43.762 40.2804H45.5451C45.562 40.3581 45.5727 40.4149 45.585 40.4701C45.6823 40.9132 45.942 41.1379 46.3949 41.1386C48.8663 41.1417 51.3373 41.1417 53.8077 41.1386C54.305 41.1386 54.4874 40.9489 54.669 40.2921C55.3717 40.2921 56.0789 40.2711 56.7846 40.3006C57.2015 40.3177 57.4896 40.6738 57.5157 41.1013C57.521 41.1892 57.5157 41.2762 57.5157 41.3641V57.6659C57.5157 58.4542 57.2222 58.7488 56.4375 58.7496H55.2705ZM50.1281 53.1656H44.9283C44.8422 53.1613 44.7559 53.1629 44.67 53.1703C44.4317 53.2045 44.2785 53.3335 44.2793 53.5908C44.28 53.8482 44.4363 53.9741 44.6723 54.0099C44.7487 54.0172 44.8256 54.019 44.9022 54.0153H55.305C55.4005 54.0207 55.4964 54.0155 55.5908 53.9998C55.8023 53.9516 55.9272 53.8132 55.9272 53.5885C55.9272 53.3638 55.8008 53.2263 55.5885 53.1804C55.4939 53.1659 55.3982 53.1613 55.3027 53.1664L50.1281 53.1656ZM50.0676 42.6522H44.8969C44.8012 42.6462 44.7051 42.6503 44.6103 42.6646C44.4003 42.7128 44.2731 42.8497 44.2739 43.0751C44.267 43.1738 44.2981 43.2713 44.3607 43.3472C44.4233 43.423 44.5125 43.4713 44.6095 43.4817C44.7041 43.496 44.7997 43.5017 44.8953 43.4988C48.3619 43.4988 51.8282 43.4988 55.2943 43.4988C55.3898 43.5017 55.4855 43.496 55.5801 43.4817C55.6723 43.4725 55.7579 43.4289 55.8203 43.3594C55.8827 43.2899 55.9175 43.1994 55.918 43.1054C55.9305 43.0124 55.9088 42.918 55.857 42.8402C55.8053 42.7623 55.7272 42.7065 55.6375 42.6833C55.5357 42.6571 55.4305 42.6469 55.3257 42.653C53.575 42.6514 51.8223 42.6512 50.0676 42.6522ZM50.0676 48.7563H55.2981C55.3936 48.761 55.4893 48.7563 55.5839 48.7423C55.6809 48.7309 55.77 48.6825 55.8329 48.6068C55.8958 48.531 55.9279 48.4338 55.9226 48.3349C55.9226 48.1103 55.7977 47.9727 55.5877 47.9229C55.493 47.9077 55.3969 47.903 55.3012 47.9089C51.8341 47.9089 48.3665 47.9089 44.8984 47.9089C44.7838 47.9034 44.6691 47.9141 44.5574 47.9408C44.3597 47.9991 44.231 48.16 44.2854 48.3567C44.3252 48.499 44.4624 48.6311 44.5865 48.7267C44.657 48.7804 44.7896 48.7547 44.893 48.7555L50.0676 48.7563ZM50.0676 46.1023H55.269C55.3743 46.1076 55.4799 46.104 55.5847 46.0914C55.6818 46.0815 55.7713 46.0336 55.8341 45.9578C55.8969 45.882 55.9281 45.7843 55.9211 45.6856C55.9282 45.5869 55.8972 45.4893 55.8348 45.4133C55.7723 45.3373 55.6832 45.2888 55.5862 45.2782C55.4909 45.2659 55.3947 45.2625 55.2989 45.2681H44.8976C44.8017 45.2625 44.7055 45.2659 44.6103 45.2782C44.5133 45.2887 44.4241 45.3369 44.3615 45.4127C44.2989 45.4886 44.2678 45.5861 44.2747 45.6848C44.267 45.7835 44.2977 45.8812 44.3603 45.9571C44.423 46.033 44.5124 46.0809 44.6095 46.0906C44.714 46.1038 44.8193 46.1077 44.9244 46.1023H50.0676ZM50.1021 51.3566H55.2705C55.3661 51.3604 55.4618 51.3583 55.5571 51.3504C55.6546 51.3468 55.7468 51.3044 55.8137 51.2324C55.8807 51.1604 55.917 51.0646 55.9149 50.9656C55.9272 50.7269 55.8023 50.5816 55.5762 50.5318C55.5001 50.5214 55.4231 50.5188 55.3464 50.524H44.8386C44.7717 50.5196 44.7045 50.5214 44.6379 50.5295C44.408 50.5699 44.277 50.7067 44.28 50.9462C44.2831 51.1856 44.4126 51.3248 44.6478 51.3512C44.7432 51.3581 44.8389 51.3599 44.9344 51.3566H50.1021Z" fill="white"/>
<path d="M54.4842 59.5526C54.4811 60.7321 54.0175 61.8624 53.1949 62.696C52.3723 63.5295 51.2577 63.9984 50.095 64.0001C49.5146 63.9998 48.94 63.8832 48.4041 63.657C47.8682 63.4309 47.3817 63.0996 46.9723 62.6822C46.5629 62.2648 46.2388 61.7695 46.0186 61.2247C45.7984 60.6799 45.6864 60.0963 45.689 59.5075C45.6989 58.3233 46.1717 57.1915 47.0036 56.3606C47.8355 55.5298 48.9584 55.0679 50.1257 55.0764C51.2884 55.0846 52.4004 55.5606 53.2176 56.3998C54.0348 57.2391 54.4903 58.373 54.4842 59.5526ZM50.4996 60.1807C50.4996 59.7058 50.5034 59.23 50.4996 58.755C50.4996 58.4728 50.3333 58.2886 50.0958 58.2886C49.8582 58.2886 49.6835 58.4573 49.682 58.7426C49.6759 59.6832 49.6759 60.6241 49.682 61.5653C49.682 61.8653 49.8353 62.0239 50.0828 62.0278C50.3303 62.0317 50.4973 61.8576 50.5011 61.5497C50.5065 61.0926 50.5027 60.6355 50.5027 60.1807H50.4996ZM50.4996 57.4715C50.5022 57.4161 50.4936 57.3607 50.4742 57.3087C50.4549 57.2568 50.4252 57.2095 50.387 57.1697C50.3489 57.1298 50.3031 57.0984 50.2524 57.0773C50.2018 57.0563 50.1474 57.046 50.0927 57.0471C50.0404 57.0446 49.988 57.0527 49.9388 57.071C49.8896 57.0893 49.8445 57.1173 49.8061 57.1535C49.7677 57.1897 49.7368 57.2333 49.7152 57.2818C49.6937 57.3303 49.6818 57.3826 49.6805 57.4358C49.676 57.4912 49.6826 57.5469 49.7 57.5996C49.7174 57.6523 49.7452 57.7008 49.7817 57.7423C49.8182 57.7837 49.8626 57.8172 49.9123 57.8407C49.9619 57.8642 50.0157 57.8772 50.0705 57.8789C50.1252 57.8811 50.1797 57.8722 50.231 57.8529C50.2822 57.8336 50.3292 57.8041 50.3692 57.7662C50.4092 57.7283 50.4414 57.6828 50.4639 57.6322C50.4864 57.5816 50.4988 57.527 50.5004 57.4715H50.4996Z" fill="white"/>
<path d="M54.645 39.4414V38.5707H55.7438C56.3377 38.5707 56.9315 38.5707 57.5254 38.5707C58.5568 38.5707 59.1951 39.212 59.1958 40.2576C59.1989 44.1446 59.1989 48.0315 59.1958 51.9184C59.1958 54.2117 59.1958 56.5053 59.1958 58.7991C59.1958 59.627 58.7476 60.2326 58.0097 60.4075C57.8311 60.4414 57.6495 60.4555 57.4679 60.4495C56.7415 60.4534 56.012 60.4495 55.2573 60.4495C55.2825 60.1541 55.3055 59.8882 55.3339 59.5765C55.8067 59.5765 56.2718 59.5866 56.7361 59.5765C57.0985 59.5705 57.4485 59.442 57.7307 59.2113C58.0128 58.9807 58.2111 58.661 58.294 58.3031C58.3334 58.1131 58.3506 57.9189 58.3453 57.7248C58.3453 52.2535 58.3453 46.7817 58.3453 41.3094C58.3453 40.1278 57.6687 39.4437 56.5109 39.4437L54.645 39.4414Z" fill="white"/>
<path d="M45.5516 38.6012V39.4415C44.9462 39.4415 44.3455 39.4368 43.7455 39.4415C43.5355 39.4381 43.3256 39.4571 43.1195 39.4983C42.7812 39.5781 42.4769 39.7657 42.2512 40.0336C42.0256 40.3014 41.8902 40.6355 41.8651 40.987C41.8567 41.0935 41.8536 41.2007 41.8536 41.3072C41.8536 46.7801 41.8536 52.2531 41.8536 57.7265C41.8536 58.5132 42.1425 59.111 42.8612 59.4367C43.0911 59.5393 43.3601 59.5627 43.6137 59.5767C44.0221 59.5984 44.4329 59.5829 44.8505 59.5829C44.878 59.8822 44.9026 60.1488 44.9271 60.4536H43.9126C43.4628 60.4536 43.0122 60.4598 42.5616 60.4536C41.6506 60.438 41.0207 59.7943 41 58.8669C41 58.828 41 58.7892 41 58.7503C41 52.5965 41 46.4429 41 40.2896C41 39.7991 41.1165 39.3684 41.4682 39.0202C41.7329 38.745 42.0938 38.5866 42.4728 38.5794C43.4689 38.5669 44.465 38.5747 45.4612 38.5755C45.4922 38.5803 45.5226 38.5889 45.5516 38.6012Z" fill="white"/>
<path d="M46.4165 40.2889V37.8098H47.0678C47.3552 37.8098 47.6433 37.8098 47.9306 37.8098C48.2946 37.8059 48.4325 37.6667 48.4417 37.3021C48.4655 36.3747 48.8425 36 49.752 36C50.0394 36 50.3267 36 50.6141 36C51.2838 36.0062 51.7267 36.4454 51.7504 37.1272C51.7504 37.1948 51.7504 37.2633 51.7504 37.3309C51.7627 37.6597 51.9037 37.8051 52.2332 37.8082C52.7389 37.8136 53.2447 37.8082 53.7657 37.8082V40.2873L46.4165 40.2889Z" fill="white"/>
</svg>
