<svg width="100" height="156" viewBox="0 0 100 156" fill="none" xmlns="http://www.w3.org/2000/svg">
<rect width="100" height="156" rx="19" fill="#F9FBFF"/>
<path d="M34.6952 109.34L31.9372 118.51C31.8905 118.65 31.8112 118.767 31.6992 118.86C31.5872 118.953 31.4518 119 31.2932 119H29.6412C29.4825 119 29.3472 118.953 29.2352 118.86C29.1232 118.767 29.0485 118.65 29.0112 118.51L26.2532 109.34H28.0592L30.0332 116.606C30.0798 116.783 30.1265 116.961 30.1732 117.138C30.2198 117.315 30.2572 117.493 30.2852 117.67H30.6492C30.6958 117.493 30.7378 117.315 30.7752 117.138C30.8218 116.951 30.8685 116.769 30.9152 116.592L32.8892 109.34H34.6952ZM38.6273 111.958C39.738 111.958 40.536 112.154 41.0213 112.546C41.5066 112.929 41.754 113.498 41.7633 114.254C41.7726 114.879 41.6233 115.355 41.3153 115.682C41.0166 115.999 40.5173 116.158 39.8173 116.158H35.8973V115.108H39.3553C39.6726 115.108 39.8733 115.024 39.9573 114.856C40.0506 114.688 40.0973 114.483 40.0973 114.24C40.088 113.857 39.976 113.591 39.7613 113.442C39.556 113.293 39.2013 113.218 38.6973 113.218C38.2586 113.218 37.918 113.279 37.6753 113.4C37.4326 113.521 37.26 113.741 37.1573 114.058C37.064 114.375 37.0173 114.833 37.0173 115.43C37.0173 116.065 37.078 116.555 37.1993 116.9C37.3206 117.245 37.5213 117.483 37.8013 117.614C38.0813 117.735 38.4546 117.796 38.9213 117.796C39.2666 117.796 39.6633 117.782 40.1113 117.754C40.5686 117.726 41.0073 117.689 41.4273 117.642L41.5953 118.72C41.3433 118.823 41.054 118.907 40.7273 118.972C40.4006 119.037 40.06 119.084 39.7053 119.112C39.36 119.149 39.0333 119.168 38.7253 119.168C37.8853 119.168 37.2086 119.047 36.6953 118.804C36.1913 118.552 35.8226 118.16 35.5893 117.628C35.3653 117.096 35.2533 116.41 35.2533 115.57C35.2533 114.665 35.3653 113.951 35.5893 113.428C35.8226 112.896 36.1866 112.518 36.6813 112.294C37.1853 112.07 37.834 111.958 38.6273 111.958ZM48.0879 111.958C49.3666 111.958 50.0059 112.588 50.0059 113.848V119H48.3119V114.366C48.3119 113.993 48.2466 113.736 48.1159 113.596C47.9852 113.456 47.7659 113.386 47.4579 113.386C47.1126 113.386 46.7579 113.465 46.3939 113.624C46.0299 113.773 45.5912 113.993 45.0779 114.282L45.0079 113.26C45.5119 112.84 46.0252 112.518 46.5479 112.294C47.0706 112.07 47.5839 111.958 48.0879 111.958ZM44.9519 112.126L45.1199 113.47L45.2599 113.666V119H43.5659V112.126H44.9519ZM54.4687 111.958C54.9354 111.958 55.3927 112.023 55.8407 112.154C56.2887 112.275 56.6947 112.481 57.0587 112.77L56.9467 113.624C56.5827 113.521 56.2561 113.433 55.9667 113.358C55.6774 113.283 55.3554 113.246 55.0007 113.246C54.6647 113.246 54.3941 113.307 54.1887 113.428C53.9927 113.54 53.8434 113.759 53.7407 114.086C53.6474 114.413 53.6007 114.889 53.6007 115.514C53.6007 116.111 53.6474 116.573 53.7407 116.9C53.8341 117.217 53.9787 117.441 54.1747 117.572C54.3707 117.693 54.6274 117.754 54.9447 117.754C55.1967 117.754 55.4207 117.726 55.6167 117.67C55.8127 117.605 56.0134 117.511 56.2187 117.39C56.4241 117.259 56.6621 117.096 56.9327 116.9L57.0727 117.852C56.7554 118.216 56.3634 118.529 55.8967 118.79C55.4394 119.042 54.9074 119.168 54.3007 119.168C53.4234 119.168 52.7981 118.86 52.4247 118.244C52.0514 117.619 51.8647 116.713 51.8647 115.528C51.8647 114.623 51.9581 113.913 52.1447 113.4C52.3407 112.877 52.6301 112.509 53.0127 112.294C53.4047 112.07 53.8901 111.958 54.4687 111.958ZM58.4447 109.2V119H57.1147L56.9327 117.768L56.7507 117.628V113.036L56.8347 112.84C56.7974 112.569 56.7741 112.299 56.7647 112.028C56.7554 111.748 56.7507 111.463 56.7507 111.174V109.2H58.4447ZM63.7495 111.958C64.5895 111.958 65.2569 112.075 65.7515 112.308C66.2555 112.541 66.6149 112.924 66.8295 113.456C67.0535 113.988 67.1655 114.693 67.1655 115.57C67.1655 116.447 67.0535 117.152 66.8295 117.684C66.6149 118.207 66.2555 118.589 65.7515 118.832C65.2569 119.065 64.5895 119.182 63.7495 119.182C62.9282 119.182 62.2655 119.065 61.7615 118.832C61.2669 118.589 60.9075 118.207 60.6835 117.684C60.4595 117.152 60.3475 116.447 60.3475 115.57C60.3475 114.693 60.4595 113.988 60.6835 113.456C60.9075 112.924 61.2669 112.541 61.7615 112.308C62.2655 112.075 62.9282 111.958 63.7495 111.958ZM63.7495 113.246C63.3389 113.246 63.0122 113.316 62.7695 113.456C62.5362 113.587 62.3682 113.82 62.2655 114.156C62.1629 114.492 62.1115 114.963 62.1115 115.57C62.1115 116.177 62.1629 116.648 62.2655 116.984C62.3682 117.32 62.5362 117.553 62.7695 117.684C63.0122 117.815 63.3389 117.88 63.7495 117.88C64.1695 117.88 64.5009 117.815 64.7435 117.684C64.9862 117.553 65.1542 117.32 65.2475 116.984C65.3502 116.648 65.4015 116.177 65.4015 115.57C65.4015 114.963 65.3502 114.492 65.2475 114.156C65.1542 113.82 64.9862 113.587 64.7435 113.456C64.5009 113.316 64.1695 113.246 63.7495 113.246ZM70.3586 112.126L70.5826 113.47L70.7366 113.666V119H69.0426V112.126H70.3586ZM73.7186 111.958L73.5506 113.526H73.0606C72.6966 113.526 72.328 113.587 71.9546 113.708C71.5813 113.829 71.1146 114.011 70.5546 114.254L70.4426 113.26C70.928 112.849 71.4226 112.532 71.9266 112.308C72.4306 112.075 72.916 111.958 73.3826 111.958H73.7186ZM37.9709 127.34V137H36.2209V127.34H37.9709ZM40.9669 127.34V128.768H33.2249V127.34H40.9669ZM49.3678 127.186C49.6664 127.186 50.0118 127.195 50.4038 127.214C50.7958 127.223 51.2018 127.265 51.6218 127.34L51.4258 128.558C51.3138 128.549 51.1784 128.544 51.0198 128.544C50.8611 128.535 50.6838 128.53 50.4878 128.53C50.2918 128.521 50.0911 128.516 49.8858 128.516C49.6898 128.516 49.4984 128.516 49.3118 128.516C48.8358 128.516 48.4578 128.553 48.1778 128.628C47.9071 128.693 47.7111 128.829 47.5898 129.034C47.4778 129.239 47.4218 129.552 47.4218 129.972C47.4218 130.355 47.4684 130.653 47.5618 130.868C47.6551 131.073 47.8138 131.218 48.0378 131.302C48.2711 131.377 48.5791 131.414 48.9618 131.414H54.4778L54.4638 132.604H48.8778C48.4578 132.604 48.1218 132.655 47.8698 132.758C47.6271 132.851 47.4544 133.015 47.3518 133.248C47.2491 133.472 47.1978 133.799 47.1978 134.228C47.1978 134.62 47.2398 134.928 47.3238 135.152C47.4171 135.367 47.5758 135.521 47.7998 135.614C48.0238 135.698 48.3271 135.74 48.7098 135.74C49.2884 135.731 49.8064 135.647 50.2638 135.488C50.7211 135.32 51.1178 135.073 51.4538 134.746L51.6498 135.726C51.3604 136.081 51.0571 136.365 50.7398 136.58C50.4224 136.785 50.0631 136.93 49.6618 137.014C49.2604 137.107 48.7891 137.154 48.2478 137.154C47.5664 137.154 47.0111 137.075 46.5818 136.916C46.1618 136.748 45.8538 136.477 45.6578 136.104C45.4618 135.721 45.3638 135.203 45.3638 134.55C45.3638 133.813 45.4991 133.225 45.7698 132.786C46.0498 132.338 46.5444 132.081 47.2538 132.016V131.96C46.6751 131.904 46.2598 131.689 46.0078 131.316C45.7651 130.943 45.6438 130.406 45.6438 129.706C45.6438 129.146 45.7138 128.698 45.8538 128.362C45.9938 128.026 46.2131 127.774 46.5118 127.606C46.8198 127.438 47.2071 127.326 47.6738 127.27C48.1404 127.214 48.7051 127.186 49.3678 127.186ZM52.8678 129.776V134.956C52.8678 135.245 52.9284 135.451 53.0498 135.572C53.1711 135.693 53.3671 135.754 53.6378 135.754H54.5758L54.7718 136.916C54.6224 136.963 54.4404 137.005 54.2258 137.042C54.0204 137.079 53.8151 137.103 53.6098 137.112C53.4138 137.131 53.2458 137.14 53.1058 137.14C52.5178 137.14 52.0651 136.991 51.7478 136.692C51.4304 136.393 51.2718 135.978 51.2718 135.446V131.946L51.4398 129.776H52.8678ZM63.638 127.172C64.0767 127.172 64.45 127.186 64.758 127.214C65.066 127.233 65.3507 127.265 65.612 127.312C65.8734 127.349 66.144 127.405 66.424 127.48L66.27 128.782C65.9807 128.763 65.71 128.749 65.458 128.74C65.206 128.721 64.9354 128.707 64.646 128.698C64.366 128.689 64.03 128.684 63.638 128.684C63.0967 128.684 62.672 128.791 62.364 129.006C62.056 129.221 61.8367 129.58 61.706 130.084C61.5847 130.588 61.524 131.283 61.524 132.17C61.524 133.057 61.5847 133.752 61.706 134.256C61.8367 134.76 62.056 135.119 62.364 135.334C62.672 135.549 63.0967 135.656 63.638 135.656C64.2634 135.656 64.786 135.647 65.206 135.628C65.6354 135.6 66.0554 135.563 66.466 135.516L66.62 136.804C66.2 136.935 65.766 137.028 65.318 137.084C64.87 137.14 64.31 137.168 63.638 137.168C62.6674 137.168 61.8927 137.009 61.314 136.692C60.7354 136.365 60.3154 135.838 60.054 135.11C59.802 134.382 59.676 133.402 59.676 132.17C59.676 130.938 59.802 129.958 60.054 129.23C60.3154 128.502 60.7354 127.979 61.314 127.662C61.8927 127.335 62.6674 127.172 63.638 127.172Z" fill="#333839"/>
<path d="M90.3994 53.6045L53.7439 90.2501" stroke="white" stroke-width="6.29" stroke-miterlimit="10"/>
<path d="M90.3994 53.6045L53.7439 90.2501" stroke="#57BDB8" stroke-width="3.42" stroke-miterlimit="10"/>
<path d="M8.6601 52.6616L6 50.0016L45.9905 10.0012" stroke="white" stroke-width="6.29" stroke-miterlimit="10"/>
<path d="M8.6601 52.6616L6 50.0016L45.9905 10.0012" stroke="#57BDB8" stroke-width="3.42" stroke-miterlimit="10"/>
<path d="M68.6358 87.9313H31.3153L12 68.6358V31.3153L31.3153 12H68.6358L87.9512 31.3153V68.6358L68.6358 87.9313Z" fill="#57BDB8"/>
<path d="M53.742 90.2506L50.0001 94.0025L8.65967 52.6621" stroke="white" stroke-width="6.29" stroke-miterlimit="10"/>
<path d="M53.742 90.2506L50.0001 94.0025L8.65967 52.6621" stroke="#57BDB8" stroke-width="3.42" stroke-miterlimit="10"/>
<path d="M45.9895 10L49.9995 6L93.9999 50.0004L90.3969 53.6034" stroke="white" stroke-width="6.29" stroke-miterlimit="10"/>
<path d="M45.9895 10L49.9995 6L93.9999 50.0004L90.3969 53.6034" stroke="#57BDB8" stroke-width="3.42" stroke-miterlimit="10"/>
<path d="M49.4883 56.9605H52.2161C53.0364 56.9605 53.5392 56.4658 53.5463 55.6546C53.5463 54.6968 53.5809 53.737 53.5372 52.7813C53.4659 51.2231 52.7138 50.0617 51.353 49.3035C51.2951 49.2789 51.2328 49.2669 51.17 49.2681C51.1072 49.2693 51.0454 49.2838 50.9886 49.3106C49.9932 49.8276 49.0018 49.8399 48.0176 49.3014C47.9492 49.2576 47.8692 49.2352 47.7879 49.2372C47.7066 49.2392 47.6278 49.2655 47.5616 49.3126C46.1855 50.1055 45.4629 51.2953 45.4242 52.8801C45.3998 53.7961 45.412 54.7182 45.4242 55.6363C45.4334 56.478 45.928 56.9594 46.7677 56.9594C47.6705 56.9625 48.5794 56.9605 49.4883 56.9605Z" fill="#F9FBFF"/>
<path d="M49.4723 44.0375C49.1223 44.0395 48.7762 44.1111 48.4542 44.2483C48.1322 44.3855 47.8408 44.5855 47.597 44.8367C47.3532 45.0878 47.1618 45.385 47.0342 45.7109C46.9065 46.0368 46.8451 46.3848 46.8535 46.7347C46.8596 47.0823 46.9343 47.4253 47.0734 47.7439C47.2124 48.0626 47.4131 48.3506 47.6638 48.5914C47.9146 48.8322 48.2105 49.0211 48.5344 49.1471C48.8584 49.2732 49.2041 49.334 49.5517 49.3261C51.0041 49.3108 52.1522 48.1139 52.142 46.6279C52.1292 45.9311 51.8413 45.2677 51.3411 44.7824C50.8409 44.2971 50.1692 44.0294 49.4723 44.0375Z" fill="#F9FBFF"/>
<path d="M53.052 50.2808C53.4964 50.882 53.777 51.5884 53.8662 52.3307C53.9131 52.7765 53.9039 53.2284 53.907 53.6783C53.9131 54.3816 53.907 55.0839 53.907 55.8065C53.9869 55.8191 54.0674 55.8276 54.1482 55.832C54.9797 55.832 55.8103 55.832 56.6418 55.832C57.2342 55.832 57.5894 55.4737 57.5924 54.8813C57.5924 54.1862 57.6108 53.492 57.5924 52.7979C57.5568 51.6783 57.0418 50.8244 56.0922 50.23C56.0314 50.1846 55.9586 50.1583 55.8829 50.1543C55.8071 50.1503 55.7319 50.1688 55.6667 50.2076C55.3427 50.3831 54.9799 50.4751 54.6113 50.4751C54.2427 50.4751 53.8799 50.3831 53.5558 50.2076C53.3726 50.116 53.2321 50.1007 53.052 50.2808Z" fill="#F9FBFF"/>
<path d="M45.0458 55.816V55.4873C45.0458 54.6364 45.0458 53.7855 45.0458 52.9336C45.0458 51.984 45.2351 51.4069 45.8977 50.2598C45.7715 50.1224 45.6534 50.101 45.4692 50.1977C45.1431 50.3803 44.776 50.4772 44.4022 50.4795C44.0285 50.4818 43.6602 50.3894 43.3318 50.2109C43.2667 50.1705 43.1908 50.1506 43.1142 50.1539C43.0376 50.1571 42.9638 50.1834 42.9023 50.2293C41.9313 50.84 41.4193 51.7081 41.398 52.8552C41.3858 53.53 41.398 54.2048 41.398 54.8807C41.398 55.473 41.7583 55.8313 42.3476 55.8333C43.1618 55.8333 43.9761 55.8333 44.7832 55.8333C44.8595 55.8323 44.9359 55.8231 45.0458 55.816Z" fill="#F9FBFF"/>
<path d="M50.8933 38.5132V39.6826C56.135 40.731 59.2587 43.8557 60.3131 49.0994H61.4785C61.1386 46.4073 60.0536 44.0847 58.1879 42.1437C56.1971 40.0776 53.7625 38.8867 50.8933 38.5132Z" fill="#F9FBFF"/>
<path d="M37.5393 49.1073H38.6843C39.7205 43.8716 42.8421 40.7429 48.094 39.6874V38.5505C42.8625 39.0065 38.0889 43.4859 37.5393 49.1073Z" fill="#F9FBFF"/>
<path d="M61.4822 51.8926H60.3127C60.1336 52.5888 60.0145 53.287 59.7753 53.9414C58.3066 57.9557 55.4649 60.3852 51.2624 61.1923C50.9417 61.2534 50.8328 61.3582 50.8695 61.6717C50.8851 61.9058 50.8885 62.1405 50.8797 62.375C50.8859 62.4096 50.8951 62.4437 50.9071 62.4768C53.3743 62.1714 55.5585 61.2228 57.4282 59.577C59.7377 57.5465 61.0689 54.9816 61.4822 51.8926Z" fill="#F9FBFF"/>
<path d="M48.1008 62.4604V61.3123C42.8642 60.2639 39.7436 57.1515 38.6851 51.9016H37.5492C37.9645 56.952 42.3136 61.87 48.1008 62.4604Z" fill="#F9FBFF"/>
<path d="M54.6237 50.0988C54.8783 50.0982 55.1302 50.047 55.3649 49.9484C55.5997 49.8497 55.8125 49.7055 55.9911 49.524C56.1697 49.3426 56.3106 49.1275 56.4055 48.8913C56.5005 48.655 56.5476 48.4023 56.5443 48.1477C56.5431 47.8928 56.4915 47.6406 56.3925 47.4057C56.2935 47.1708 56.149 46.9578 55.9674 46.7789C55.7858 46.6001 55.5706 46.4589 55.3343 46.3635C55.0979 46.2681 54.845 46.2203 54.5901 46.223C54.0758 46.2286 53.5848 46.4381 53.2249 46.8055C52.865 47.1729 52.6656 47.668 52.6705 48.1823C52.6717 48.4367 52.7233 48.6884 52.8223 48.9228C52.9213 49.1572 53.0658 49.3696 53.2474 49.5478C53.4291 49.726 53.6442 49.8665 53.8804 49.9611C54.1166 50.0556 54.3692 50.1025 54.6237 50.0988Z" fill="#F9FBFF"/>
<path d="M44.405 50.1021C44.6595 50.1004 44.9112 50.0484 45.1457 49.9492C45.3801 49.8499 45.5926 49.7054 45.7711 49.5238C45.9495 49.3423 46.0904 49.1273 46.1855 48.8911C46.2807 48.655 46.3283 48.4024 46.3256 48.1479C46.3205 47.6335 46.1118 47.142 45.7451 46.7811C45.3785 46.4202 44.8838 46.2192 44.3693 46.2222C43.8554 46.2286 43.3649 46.4386 43.0054 46.8061C42.646 47.1735 42.4469 47.6685 42.4518 48.1825C42.4537 48.4369 42.5057 48.6884 42.6049 48.9227C42.7041 49.1569 42.8486 49.3693 43.0301 49.5476C43.2115 49.7259 43.4263 49.8667 43.6623 49.9618C43.8982 50.057 44.1506 50.1046 44.405 50.1021Z" fill="#F9FBFF"/>
<path d="M48.8972 61.9777C48.8972 62.7241 48.8972 63.4674 48.8972 64.2077C48.8948 64.2858 48.8965 64.3639 48.9023 64.4418C48.9135 64.5949 48.9831 64.7379 49.0968 64.8412C49.2104 64.9444 49.3594 65 49.513 64.9965C49.5892 64.9977 49.665 64.9836 49.7357 64.955C49.8064 64.9264 49.8706 64.8839 49.9245 64.8299C49.9784 64.776 50.021 64.7118 50.0496 64.6411C50.0782 64.5704 50.0923 64.4946 50.0911 64.4184C50.0985 62.7756 50.0985 61.1329 50.0911 59.4902C50.0919 59.3363 50.0318 59.1883 49.9238 59.0787C49.8159 58.969 49.6689 58.9065 49.515 58.9049C49.4363 58.9006 49.3576 58.9124 49.2837 58.9396C49.2097 58.9668 49.1421 59.0088 49.0849 59.063C49.0278 59.1172 48.9823 59.1825 48.9512 59.2549C48.9202 59.3273 48.9042 59.4053 48.9043 59.484C48.8921 60.3156 48.9043 61.1471 48.9043 61.9777H48.8972Z" fill="#F9FBFF"/>
<path d="M38.0488 51.0964C38.8315 51.0964 39.6142 51.0964 40.3959 51.0964C40.8173 51.0964 41.0849 50.8653 41.0931 50.5101C41.1012 50.1549 40.8305 49.8994 40.3898 49.8994C38.8244 49.8994 37.2593 49.8994 35.6946 49.8994C35.2732 49.8994 35.0066 50.1315 35.0005 50.4867C34.9934 50.8582 35.261 51.0974 35.7017 51.0974C36.4844 51.0984 37.2661 51.0964 38.0488 51.0964Z" fill="#F9FBFF"/>
<path d="M48.9003 39.0496C48.9003 39.8638 48.9003 40.6754 48.9003 41.4842C48.894 41.5973 48.9223 41.7097 48.9814 41.8064C49.0404 41.9031 49.1275 41.9796 49.2311 42.0257C49.4438 42.1274 49.6718 42.1386 49.8336 41.9738C49.9712 41.8429 50.0592 41.6685 50.083 41.4801C50.1013 39.8567 50.0982 38.2343 50.0911 36.6109C50.0944 36.5324 50.0818 36.454 50.0542 36.3805C50.0266 36.3069 49.9845 36.2396 49.9304 36.1827C49.8763 36.1257 49.8113 36.0802 49.7392 36.0489C49.6672 36.0175 49.5895 36.001 49.511 36.0002C49.4302 35.998 49.3497 36.0122 49.2746 36.0421C49.1995 36.072 49.1313 36.1169 49.0741 36.1741C49.017 36.2313 48.9721 36.2995 48.9422 36.3746C48.9123 36.4497 48.898 36.5301 48.9003 36.6109C48.8901 37.4252 48.9003 38.2394 48.9003 39.0455V39.0496Z" fill="#F9FBFF"/>
<path d="M60.9461 49.9024C60.1319 49.9024 59.3203 49.9024 58.5115 49.9024C58.3983 49.8978 58.2862 49.927 58.1896 49.9862C58.093 50.0455 58.0162 50.1322 57.969 50.2352C57.8591 50.448 57.8673 50.677 58.025 50.8378C58.1558 50.9758 58.3308 51.0636 58.5197 51.0861C60.1421 51.1044 61.7655 51.1004 63.3889 51.0953C63.4678 51.0993 63.5467 51.0872 63.6208 51.0596C63.6949 51.0321 63.7626 50.9898 63.8198 50.9352C63.8769 50.8806 63.9224 50.8149 63.9533 50.7422C63.9842 50.6694 63.9999 50.5911 63.9996 50.5121C64.0027 50.431 63.9891 50.3502 63.9595 50.2747C63.9299 50.1992 63.885 50.1306 63.8277 50.0733C63.7703 50.0159 63.7018 49.971 63.6262 49.9415C63.5507 49.9119 63.4699 49.8983 63.3889 49.9014C62.5695 49.8953 61.7583 49.9024 60.9461 49.9024Z" fill="#F9FBFF"/>
</svg>
