<svg width="100" height="156" viewBox="0 0 100 156" fill="none" xmlns="http://www.w3.org/2000/svg">
<rect width="100" height="156" rx="19" fill="#F9FBFF"/>
<path d="M34.1676 109.343L31.4096 118.513C31.363 118.653 31.2836 118.77 31.1716 118.863C31.0596 118.956 30.9243 119.003 30.7656 119.003H29.1136C28.955 119.003 28.8196 118.956 28.7076 118.863C28.5956 118.77 28.521 118.653 28.4836 118.513L25.7256 109.343H27.5316L29.5056 116.609C29.5523 116.786 29.599 116.964 29.6456 117.141C29.6923 117.318 29.7296 117.496 29.7576 117.673H30.1216C30.1683 117.496 30.2103 117.318 30.2476 117.141C30.2943 116.954 30.341 116.772 30.3876 116.595L32.3616 109.343H34.1676ZM38.2398 111.961C39.3504 111.961 40.1484 112.157 40.6338 112.549C41.1191 112.932 41.3664 113.501 41.3758 114.257C41.3851 114.882 41.2358 115.358 40.9278 115.685C40.6291 116.002 40.1298 116.161 39.4298 116.161H35.5098V115.111H38.9678C39.2851 115.111 39.4858 115.027 39.5698 114.859C39.6631 114.691 39.7098 114.486 39.7098 114.243C39.7004 113.86 39.5884 113.594 39.3738 113.445C39.1684 113.296 38.8138 113.221 38.3098 113.221C37.8711 113.221 37.5304 113.282 37.2878 113.403C37.0451 113.524 36.8724 113.744 36.7698 114.061C36.6764 114.378 36.6298 114.836 36.6298 115.433C36.6298 116.068 36.6904 116.558 36.8118 116.903C36.9331 117.248 37.1338 117.486 37.4138 117.617C37.6938 117.738 38.0671 117.799 38.5338 117.799C38.8791 117.799 39.2758 117.785 39.7238 117.757C40.1811 117.729 40.6198 117.692 41.0398 117.645L41.2078 118.723C40.9558 118.826 40.6664 118.91 40.3398 118.975C40.0131 119.04 39.6724 119.087 39.3178 119.115C38.9724 119.152 38.6458 119.171 38.3378 119.171C37.4978 119.171 36.8211 119.05 36.3078 118.807C35.8038 118.555 35.4351 118.163 35.2018 117.631C34.9778 117.099 34.8658 116.413 34.8658 115.573C34.8658 114.668 34.9778 113.954 35.2018 113.431C35.4351 112.899 35.7991 112.521 36.2938 112.297C36.7978 112.073 37.4464 111.961 38.2398 111.961ZM47.8404 111.961C49.119 111.961 49.7584 112.591 49.7584 113.851V119.003H48.0644V114.369C48.0644 113.996 47.999 113.739 47.8684 113.599C47.7377 113.459 47.5184 113.389 47.2104 113.389C46.865 113.389 46.5104 113.468 46.1464 113.627C45.7824 113.776 45.3437 113.996 44.8304 114.285L44.7604 113.263C45.2644 112.843 45.7777 112.521 46.3004 112.297C46.823 112.073 47.3364 111.961 47.8404 111.961ZM44.7044 112.129L44.8724 113.473L45.0124 113.669V119.003H43.3184V112.129H44.7044ZM54.3612 111.961C54.8279 111.961 55.2852 112.026 55.7332 112.157C56.1812 112.278 56.5872 112.484 56.9512 112.773L56.8392 113.627C56.4752 113.524 56.1485 113.436 55.8592 113.361C55.5699 113.286 55.2479 113.249 54.8932 113.249C54.5572 113.249 54.2865 113.31 54.0812 113.431C53.8852 113.543 53.7359 113.762 53.6332 114.089C53.5399 114.416 53.4932 114.892 53.4932 115.517C53.4932 116.114 53.5399 116.576 53.6332 116.903C53.7265 117.22 53.8712 117.444 54.0672 117.575C54.2632 117.696 54.5199 117.757 54.8372 117.757C55.0892 117.757 55.3132 117.729 55.5092 117.673C55.7052 117.608 55.9059 117.514 56.1112 117.393C56.3165 117.262 56.5545 117.099 56.8252 116.903L56.9652 117.855C56.6479 118.219 56.2559 118.532 55.7892 118.793C55.3319 119.045 54.7999 119.171 54.1932 119.171C53.3159 119.171 52.6905 118.863 52.3172 118.247C51.9439 117.622 51.7572 116.716 51.7572 115.531C51.7572 114.626 51.8505 113.916 52.0372 113.403C52.2332 112.88 52.5225 112.512 52.9052 112.297C53.2972 112.073 53.7825 111.961 54.3612 111.961ZM58.3372 109.203V119.003H57.0072L56.8252 117.771L56.6432 117.631V113.039L56.7272 112.843C56.6899 112.572 56.6665 112.302 56.6572 112.031C56.6479 111.751 56.6432 111.466 56.6432 111.177V109.203H58.3372ZM63.782 111.961C64.622 111.961 65.2893 112.078 65.784 112.311C66.288 112.544 66.6473 112.927 66.862 113.459C67.086 113.991 67.198 114.696 67.198 115.573C67.198 116.45 67.086 117.155 66.862 117.687C66.6473 118.21 66.288 118.592 65.784 118.835C65.2893 119.068 64.622 119.185 63.782 119.185C62.9607 119.185 62.298 119.068 61.794 118.835C61.2993 118.592 60.94 118.21 60.716 117.687C60.492 117.155 60.38 116.45 60.38 115.573C60.38 114.696 60.492 113.991 60.716 113.459C60.94 112.927 61.2993 112.544 61.794 112.311C62.298 112.078 62.9607 111.961 63.782 111.961ZM63.782 113.249C63.3713 113.249 63.0447 113.319 62.802 113.459C62.5687 113.59 62.4007 113.823 62.298 114.159C62.1953 114.495 62.144 114.966 62.144 115.573C62.144 116.18 62.1953 116.651 62.298 116.987C62.4007 117.323 62.5687 117.556 62.802 117.687C63.0447 117.818 63.3713 117.883 63.782 117.883C64.202 117.883 64.5333 117.818 64.776 117.687C65.0187 117.556 65.1867 117.323 65.28 116.987C65.3827 116.651 65.434 116.18 65.434 115.573C65.434 114.966 65.3827 114.495 65.28 114.159C65.1867 113.823 65.0187 113.59 64.776 113.459C64.5333 113.319 64.202 113.249 63.782 113.249ZM70.5311 112.129L70.7551 113.473L70.9091 113.669V119.003H69.2151V112.129H70.5311ZM73.8911 111.961L73.7231 113.529H73.2331C72.8691 113.529 72.5004 113.59 72.1271 113.711C71.7538 113.832 71.2871 114.014 70.7271 114.257L70.6151 113.263C71.1004 112.852 71.5951 112.535 72.0991 112.311C72.6031 112.078 73.0884 111.961 73.5551 111.961H73.8911ZM22.8537 127.217C23.6563 127.217 24.305 127.301 24.7997 127.469C25.3037 127.637 25.6677 127.926 25.8917 128.337C26.125 128.738 26.2417 129.308 26.2417 130.045C26.2417 130.53 26.181 130.946 26.0597 131.291C25.9477 131.627 25.7563 131.898 25.4857 132.103C25.2243 132.299 24.8697 132.425 24.4217 132.481V132.551C24.5803 132.588 24.7437 132.663 24.9117 132.775C25.089 132.878 25.2477 133.027 25.3877 133.223C25.537 133.419 25.649 133.671 25.7237 133.979L26.6057 137.003H24.7577L23.9597 134.021C23.857 133.685 23.717 133.452 23.5397 133.321C23.3623 133.181 23.1197 133.111 22.8117 133.111C22.205 133.111 21.687 133.111 21.2577 133.111C20.8283 133.102 20.469 133.092 20.1797 133.083C19.8997 133.074 19.6523 133.069 19.4377 133.069L19.4797 131.739H22.8117C23.2317 131.73 23.563 131.683 23.8057 131.599C24.0483 131.506 24.221 131.347 24.3237 131.123C24.4263 130.89 24.4777 130.563 24.4777 130.143C24.4777 129.732 24.4263 129.415 24.3237 129.191C24.221 128.967 24.0483 128.813 23.8057 128.729C23.563 128.636 23.2317 128.589 22.8117 128.589C21.9903 128.589 21.2857 128.594 20.6977 128.603C20.1097 128.612 19.7083 128.622 19.4937 128.631L19.2977 127.343C19.671 127.306 20.021 127.278 20.3477 127.259C20.6837 127.24 21.0477 127.231 21.4397 127.231C21.8317 127.222 22.303 127.217 22.8537 127.217ZM21.0197 127.343V137.003H19.2977V127.343H21.0197ZM31.9364 129.961C32.487 129.961 32.949 130.036 33.3224 130.185C33.705 130.325 33.9944 130.568 34.1904 130.913C34.3864 131.258 34.4844 131.734 34.4844 132.341V137.003H33.1404L32.9024 135.519L32.7764 135.323V132.327C32.7764 131.963 32.6924 131.702 32.5244 131.543C32.3564 131.375 32.0344 131.291 31.5584 131.291C31.2037 131.291 30.7557 131.305 30.2144 131.333C29.6824 131.361 29.1457 131.398 28.6044 131.445L28.4504 130.283C28.777 130.218 29.1457 130.162 29.5564 130.115C29.967 130.068 30.3824 130.031 30.8024 130.003C31.2224 129.975 31.6004 129.961 31.9364 129.961ZM33.7564 132.775L33.7424 133.825H30.5924C30.3124 133.834 30.1117 133.909 29.9904 134.049C29.869 134.189 29.8084 134.38 29.8084 134.623V135.001C29.8084 135.281 29.883 135.496 30.0324 135.645C30.1817 135.785 30.415 135.855 30.7324 135.855C30.9844 135.855 31.2644 135.804 31.5724 135.701C31.8804 135.598 32.1837 135.449 32.4824 135.253C32.7904 135.057 33.0657 134.824 33.3084 134.553V135.435C33.215 135.575 33.0797 135.743 32.9024 135.939C32.725 136.126 32.5057 136.312 32.2444 136.499C31.9924 136.686 31.6984 136.84 31.3624 136.961C31.0357 137.082 30.6717 137.143 30.2704 137.143C29.8597 137.143 29.491 137.073 29.1644 136.933C28.8377 136.784 28.581 136.569 28.3944 136.289C28.2077 136 28.1144 135.645 28.1144 135.225V134.497C28.1144 133.956 28.2917 133.536 28.6464 133.237C29.0104 132.929 29.505 132.775 30.1304 132.775H33.7564ZM39.014 128.169V134.931C39.014 135.22 39.0747 135.426 39.196 135.547C39.3267 135.668 39.546 135.729 39.854 135.729H40.806L40.988 136.919C40.8294 136.966 40.638 137.008 40.414 137.045C40.19 137.082 39.9707 137.106 39.756 137.115C39.5414 137.134 39.3594 137.143 39.21 137.143C38.6127 137.143 38.146 136.984 37.81 136.667C37.4834 136.34 37.32 135.874 37.32 135.267V128.169H39.014ZM41.058 130.129V131.305H36.102V130.199L37.446 130.129H41.058ZM45.7965 129.961C46.9071 129.961 47.7051 130.157 48.1905 130.549C48.6758 130.932 48.9231 131.501 48.9325 132.257C48.9418 132.882 48.7925 133.358 48.4845 133.685C48.1858 134.002 47.6865 134.161 46.9865 134.161H43.0665V133.111H46.5245C46.8418 133.111 47.0425 133.027 47.1265 132.859C47.2198 132.691 47.2665 132.486 47.2665 132.243C47.2571 131.86 47.1451 131.594 46.9305 131.445C46.7251 131.296 46.3705 131.221 45.8665 131.221C45.4278 131.221 45.0871 131.282 44.8445 131.403C44.6018 131.524 44.4291 131.744 44.3265 132.061C44.2331 132.378 44.1865 132.836 44.1865 133.433C44.1865 134.068 44.2471 134.558 44.3685 134.903C44.4898 135.248 44.6905 135.486 44.9705 135.617C45.2505 135.738 45.6238 135.799 46.0905 135.799C46.4358 135.799 46.8325 135.785 47.2805 135.757C47.7378 135.729 48.1765 135.692 48.5965 135.645L48.7645 136.723C48.5125 136.826 48.2231 136.91 47.8965 136.975C47.5698 137.04 47.2291 137.087 46.8745 137.115C46.5291 137.152 46.2025 137.171 45.8945 137.171C45.0545 137.171 44.3778 137.05 43.8645 136.807C43.3605 136.555 42.9918 136.163 42.7585 135.631C42.5345 135.099 42.4225 134.413 42.4225 133.573C42.4225 132.668 42.5345 131.954 42.7585 131.431C42.9918 130.899 43.3558 130.521 43.8505 130.297C44.3545 130.073 45.0031 129.961 45.7965 129.961ZM56.1916 127.343V134.763C56.1916 135.034 56.2616 135.239 56.4016 135.379C56.5509 135.51 56.7609 135.575 57.0316 135.575H60.4476L60.5316 136.905C59.8969 136.961 59.2343 136.994 58.5436 137.003C57.8623 137.022 57.1856 137.031 56.5136 137.031C55.8043 137.031 55.2816 136.849 54.9456 136.485C54.6189 136.121 54.4556 135.659 54.4556 135.099V127.343H56.1916ZM63.8827 130.129V137.003H62.2027V130.129H63.8827ZM63.4207 127.147C63.7567 127.147 63.9247 127.315 63.9247 127.651V128.435C63.9247 128.771 63.7567 128.939 63.4207 128.939H62.6647C62.3287 128.939 62.1607 128.771 62.1607 128.435V127.651C62.1607 127.315 62.3287 127.147 62.6647 127.147H63.4207ZM70.7801 129.961C72.0588 129.961 72.6981 130.591 72.6981 131.851V137.003H71.0041V132.369C71.0041 131.996 70.9388 131.739 70.8081 131.599C70.6775 131.459 70.4581 131.389 70.1501 131.389C69.8048 131.389 69.4501 131.468 69.0861 131.627C68.7221 131.776 68.2835 131.996 67.7701 132.285L67.7001 131.263C68.2041 130.843 68.7175 130.521 69.2401 130.297C69.7628 130.073 70.2761 129.961 70.7801 129.961ZM67.6441 130.129L67.8121 131.473L67.9521 131.669V137.003H66.2581V130.129H67.6441ZM81.193 130.129L79.233 132.579C79.1583 132.691 79.065 132.803 78.953 132.915C78.841 133.018 78.743 133.097 78.659 133.153V133.181C78.743 133.237 78.841 133.33 78.953 133.461C79.065 133.582 79.1583 133.708 79.233 133.839L81.417 137.003H79.499L76.993 133.111L79.275 130.129H81.193ZM76.671 127.203L76.685 131.389C76.685 131.697 76.6663 131.991 76.629 132.271C76.601 132.551 76.559 132.836 76.503 133.125C76.5496 133.396 76.587 133.676 76.615 133.965C76.6523 134.254 76.671 134.525 76.671 134.777V137.003H74.977V127.203H76.671ZM77.721 132.607V133.699H76.125V132.607H77.721Z" fill="#682953"/>
<path d="M90.3996 53.6045L53.7441 90.2501" stroke="white" stroke-width="6.29" stroke-miterlimit="10"/>
<path d="M90.3996 53.6045L53.7441 90.2501" stroke="#682953" stroke-width="3.42" stroke-miterlimit="10"/>
<path d="M8.6601 52.6614L6 50.0013L45.9905 10.001" stroke="white" stroke-width="6.29" stroke-miterlimit="10"/>
<path d="M8.6601 52.6614L6 50.0013L45.9905 10.001" stroke="#682953" stroke-width="3.42" stroke-miterlimit="10"/>
<path d="M68.6358 87.9313H31.3153L12 68.6358V31.3153L31.3153 12H68.6358L87.9512 31.3153V68.6358L68.6358 87.9313Z" fill="#682953"/>
<path d="M53.7425 90.2506L50.0005 94.0025L8.66016 52.6621" stroke="white" stroke-width="6.29" stroke-miterlimit="10"/>
<path d="M53.7425 90.2506L50.0005 94.0025L8.66016 52.6621" stroke="#682953" stroke-width="3.42" stroke-miterlimit="10"/>
<path d="M45.9893 10L49.9992 6L93.9997 50.0004L90.3967 53.6034" stroke="white" stroke-width="6.29" stroke-miterlimit="10"/>
<path d="M45.9893 10L49.9992 6L93.9997 50.0004L90.3967 53.6034" stroke="#682953" stroke-width="3.42" stroke-miterlimit="10"/>
<g clip-path="url(#clip0_1554_3513)">
<g clip-path="url(#clip1_1554_3513)">
<path d="M47.5854 60.344V58.9407C47.5854 58.8706 47.5854 58.7999 47.5854 58.7292C47.5814 58.5681 47.4917 58.4726 47.3383 58.4709C47.1848 58.4692 47.09 58.5732 47.0844 58.727C47.0754 58.9803 47.0805 59.2358 47.0805 59.4886C47.0805 59.7713 47.0805 60.0506 47.0805 60.3457H45.4196C45.4128 60.3321 45.3959 60.314 45.3959 60.2959C45.3993 59.5491 45.3744 58.7999 45.4162 58.0547C45.4726 57.037 45.995 56.276 46.852 55.7479C47.6598 55.2504 48.5574 55.0785 49.4933 55.0587C50.4186 55.0395 51.3207 55.1497 52.1607 55.5676C53.3454 56.1533 53.9598 57.1009 53.953 58.4375C53.9496 59.0702 53.953 59.7034 53.953 60.3491H52.2634V58.9232C52.2634 58.5992 52.1934 58.4709 52.0146 58.4675C51.8357 58.4641 51.7562 58.5913 51.7562 58.9124V60.344H47.5854Z" fill="white"/>
<path d="M59.3398 60.3497H57.8787V60.0885C57.8787 59.7148 57.8787 59.3405 57.8787 58.9668C57.8787 58.7632 57.7749 58.6485 57.6113 58.662C57.424 58.6767 57.3715 58.8017 57.3726 58.9713C57.3726 59.4236 57.3726 59.8731 57.3726 60.3418H54.4616C54.4616 60.1897 54.4616 60.0371 54.4616 59.8838C54.4525 59.2286 54.4683 58.5721 54.426 57.9185C54.3815 57.2242 54.0915 56.6181 53.6469 56.0821C53.6204 56.0505 53.5984 56.0149 53.5674 55.9691C54.0706 55.7576 54.5879 55.67 55.116 55.6389C56.0124 55.5857 56.8891 55.6762 57.7111 56.0686C58.792 56.5848 59.3551 57.4402 59.3528 58.6524C59.3528 59.146 59.3528 59.6396 59.3528 60.1332C59.3506 60.2039 59.3432 60.2723 59.3398 60.3497Z" fill="white"/>
<path d="M45.785 55.9792C45.3901 56.4286 45.108 56.9273 44.9901 57.5057C44.9298 57.8096 44.8959 58.1181 44.8886 58.4279C44.8733 59.0617 44.8841 59.696 44.8841 60.3451H41.9781V59.2737C41.9781 59.1538 41.9815 59.0334 41.9741 58.9141C41.9645 58.7592 41.8844 58.6602 41.7214 58.6619C41.5584 58.6636 41.4777 58.766 41.4754 58.9203C41.4698 59.3082 41.4726 59.696 41.4715 60.0845V60.3468H40.0024C40.0024 60.1088 40.0024 59.8781 40.0024 59.648C40.0097 59.1391 39.9736 58.6263 40.0396 58.1265C40.1739 57.1133 40.7849 56.4349 41.6977 56.0453C42.9953 55.4912 44.3233 55.498 45.6581 55.9198C45.7016 55.9369 45.744 55.9567 45.785 55.9792Z" fill="white"/>
<path d="M51.847 52.294C51.8478 52.7254 51.7209 53.1473 51.4823 53.5064C51.2438 53.8655 50.9043 54.1456 50.5069 54.3113C50.1095 54.477 49.6719 54.5209 49.2496 54.4373C48.8273 54.3538 48.4392 54.1466 48.1344 53.8419C47.8297 53.5373 47.6219 53.1489 47.5374 52.7258C47.453 52.3028 47.4956 51.8642 47.6599 51.4655C47.8242 51.0667 48.1028 50.7258 48.4605 50.4858C48.8182 50.2458 49.2389 50.1175 49.6694 50.1172C50.2461 50.1166 50.7995 50.3456 51.2079 50.7537C51.6162 51.1619 51.8461 51.7159 51.847 52.294Z" fill="white"/>
<path d="M41.8955 53.1257C41.8955 52.7424 42.0089 52.3677 42.2214 52.0489C42.4339 51.7302 42.7359 51.4818 43.0892 51.3351C43.4426 51.1884 43.8314 51.15 44.2065 51.2247C44.5816 51.2994 44.9262 51.484 45.1967 51.755C45.4672 52.026 45.6515 52.3713 45.7261 52.7472C45.8008 53.1231 45.7626 53.5128 45.6163 53.867C45.47 54.2211 45.2222 54.5239 44.9043 54.7369C44.5863 54.95 44.2125 55.0637 43.83 55.0638C43.3176 55.062 42.8267 54.8573 42.4643 54.4942C42.1019 54.1311 41.8974 53.6392 41.8955 53.1257Z" fill="white"/>
<path d="M57.455 53.1172C57.4555 53.5016 57.3421 53.8775 57.1293 54.1973C56.9165 54.5171 56.6138 54.7664 56.2595 54.9138C55.9053 55.0611 55.5154 55.0998 55.1392 55.025C54.7629 54.9501 54.4173 54.7651 54.1461 54.4933C53.8748 54.2216 53.6901 53.8753 53.6153 53.4982C53.5405 53.1212 53.579 52.7304 53.726 52.3754C53.8729 52.0203 54.1216 51.7169 54.4406 51.5035C54.7597 51.2901 55.1347 51.1764 55.5183 51.1768C56.0305 51.181 56.5206 51.3868 56.8828 51.7498C57.2451 52.1128 57.4506 52.6038 57.455 53.1172Z" fill="white"/>
<path d="M44.8919 43.2744L46.4659 43.8992C46.3209 44.8824 46.1753 45.8735 46.0264 46.8856H43.5379C43.4911 45.8283 44.0518 44.2079 44.8919 43.2744Z" fill="white"/>
<path d="M54.4671 43.2705C55.2982 44.2959 55.776 45.5633 55.829 46.8834H53.3162C53.1712 45.8883 53.028 44.9045 52.8818 43.8992L54.4671 43.2705Z" fill="white"/>
<path d="M52.8818 50.4075C53.0274 49.4107 53.1707 48.4252 53.3168 47.4199H55.8267C55.8098 48.1863 55.6354 48.941 55.3145 49.6368C55.1437 49.9919 54.9515 50.3363 54.739 50.6681C54.5399 50.9887 54.3831 51.0107 54.0389 50.8643C53.6401 50.6935 53.2316 50.5443 52.8818 50.4075Z" fill="white"/>
<path d="M43.525 47.4189H46.0287C46.1731 48.4123 46.3176 49.4035 46.4648 50.4155C46.198 50.5139 45.8764 50.6304 45.5565 50.7514C45.4437 50.7938 45.3365 50.8447 45.2282 50.8961C45.0239 50.9928 44.809 50.9526 44.6764 50.7678C43.9867 49.8236 43.5849 48.6992 43.5199 47.5309C43.5182 47.4981 43.5227 47.4642 43.525 47.4189Z" fill="white"/>
<path d="M47.0175 44.0615L49.4101 44.3482V46.8885H46.6006C46.6113 45.9316 46.7516 44.9806 47.0175 44.0615Z" fill="white"/>
<path d="M52.7404 46.8871H49.9473V44.3474L52.3286 44.0596C52.5957 44.9784 52.7343 45.93 52.7404 46.8871Z" fill="white"/>
<path d="M47.0429 50.2778C46.806 49.7006 46.5612 48.0462 46.6176 47.4209H49.4096C49.4135 47.4774 49.422 47.5402 49.422 47.6007C49.422 48.2068 49.418 48.8123 49.4259 49.4179C49.4259 49.5637 49.3927 49.6265 49.2386 49.6525C49.0327 49.6876 48.8076 49.7215 48.6373 49.8289C48.1476 50.1376 47.5862 50.1472 47.0429 50.2778Z" fill="white"/>
<path d="M52.3217 50.2681L51.2667 50.0945C51.2388 50.0904 51.2115 50.0828 51.1855 50.0719C50.7833 49.8983 50.381 49.7236 49.9297 49.528V47.4219H52.7403C52.7326 48.3854 52.5917 49.3433 52.3217 50.2681Z" fill="white"/>
<path d="M49.4085 43.8345L47.2207 43.5795C47.3189 42.5415 48.6142 41.0454 49.4085 41.0273V43.8345Z" fill="white"/>
<path d="M52.1676 43.572L49.9482 43.8349V41C50.0583 41.0328 50.1626 41.0565 50.2625 41.095C50.6258 41.2341 50.9152 41.4778 51.1651 41.7678C51.6136 42.2829 51.9171 42.8788 52.1676 43.572Z" fill="white"/>
<path d="M46.6567 43.4209L45.2305 42.8769C45.9722 42.1 46.9038 41.531 47.9328 41.2266C47.6924 41.5737 47.4358 41.9005 47.2281 42.2556C47.0205 42.6106 46.8614 42.9962 46.6567 43.4209Z" fill="white"/>
<path d="M54.1176 42.874L52.6637 43.4309C52.3546 42.6043 51.9755 41.8642 51.3955 41.2383C52.4375 41.5289 53.3238 42.0671 54.1176 42.874Z" fill="white"/>
<path d="M53.8118 51.2946C53.6211 51.5954 53.4609 51.8742 53.273 52.1331C53.194 52.2405 53.0614 52.3135 52.9441 52.387C52.7607 52.5 52.5701 52.6024 52.3641 52.72C52.3213 52.0794 52.2615 51.4671 52.7088 50.8994L53.8118 51.2946Z" fill="white"/>
<path d="M45.5156 51.304L46.6377 50.8975C47.0891 51.4527 47.014 52.0746 46.9875 52.7175C46.6219 52.48 46.1723 52.3782 45.9545 51.9259C45.8502 51.7111 45.6764 51.5279 45.5156 51.304Z" fill="white"/>
<path d="M51.8389 50.7002L52.1542 50.7692L52.0499 51.0383L51.8389 50.7002Z" fill="white"/>
<path d="M47.1875 50.7696L47.5029 50.708L47.2986 51.0359L47.1875 50.7696Z" fill="white"/>
</g>
</g>
<defs>
<clipPath id="clip0_1554_3513">
<rect width="19.3488" height="24.78" fill="white" transform="translate(40 38)"/>
</clipPath>
<clipPath id="clip1_1554_3513">
<rect width="19.35" height="19.35" fill="white" transform="translate(40 41)"/>
</clipPath>
</defs>
</svg>
