<svg width="100" height="156" viewBox="0 0 100 156" fill="none" xmlns="http://www.w3.org/2000/svg">
    <rect width="100" height="156" rx="19" fill="#F9FBFF"/>
    <path d="M33.8964 109.343L31.1384 118.513C31.0917 118.653 31.0124 118.769 30.9004 118.863C30.7884 118.956 30.653 119.003 30.4944 119.003H28.8424C28.6837 119.003 28.5484 118.956 28.4364 118.863C28.3244 118.769 28.2497 118.653 28.2124 118.513L25.4544 109.343H27.2604L29.2344 116.609C29.281 116.786 29.3277 116.963 29.3744 117.141C29.421 117.318 29.4584 117.495 29.4864 117.673H29.8504C29.897 117.495 29.939 117.318 29.9764 117.141C30.023 116.954 30.0697 116.772 30.1164 116.595L32.0904 109.343H33.8964ZM37.5485 111.961C38.6592 111.961 39.4572 112.157 39.9425 112.549C40.4278 112.931 40.6752 113.501 40.6845 114.257C40.6938 114.882 40.5445 115.358 40.2365 115.685C39.9378 116.002 39.4385 116.161 38.7385 116.161H34.8185V115.111H38.2765C38.5938 115.111 38.7945 115.027 38.8785 114.859C38.9718 114.691 39.0185 114.485 39.0185 114.243C39.0092 113.86 38.8972 113.594 38.6825 113.445C38.4772 113.295 38.1225 113.221 37.6185 113.221C37.1798 113.221 36.8392 113.281 36.5965 113.403C36.3538 113.524 36.1812 113.743 36.0785 114.061C35.9852 114.378 35.9385 114.835 35.9385 115.433C35.9385 116.067 35.9992 116.557 36.1205 116.903C36.2418 117.248 36.4425 117.486 36.7225 117.617C37.0025 117.738 37.3758 117.799 37.8425 117.799C38.1878 117.799 38.5845 117.785 39.0325 117.757C39.4898 117.729 39.9285 117.691 40.3485 117.645L40.5165 118.723C40.2645 118.825 39.9752 118.909 39.6485 118.975C39.3218 119.04 38.9812 119.087 38.6265 119.115C38.2812 119.152 37.9545 119.171 37.6465 119.171C36.8065 119.171 36.1298 119.049 35.6165 118.807C35.1125 118.555 34.7438 118.163 34.5105 117.631C34.2865 117.099 34.1745 116.413 34.1745 115.573C34.1745 114.667 34.2865 113.953 34.5105 113.431C34.7438 112.899 35.1078 112.521 35.6025 112.297C36.1065 112.073 36.7552 111.961 37.5485 111.961ZM43.5231 112.129L43.7471 113.473L43.9011 113.669V119.003H42.2071V112.129H43.5231ZM46.8831 111.961L46.7151 113.529H46.2251C45.8611 113.529 45.4925 113.589 45.1191 113.711C44.7458 113.832 44.2791 114.014 43.7191 114.257L43.6071 113.263C44.0925 112.852 44.5871 112.535 45.0911 112.311C45.5951 112.077 46.0805 111.961 46.5471 111.961H46.8831ZM50.5093 111.961C50.8267 111.961 51.1673 111.97 51.5313 111.989C51.9047 112.007 52.2687 112.035 52.6233 112.073C52.978 112.101 53.2953 112.143 53.5753 112.199L53.4633 113.305C53.0153 113.295 52.5673 113.286 52.1193 113.277C51.6807 113.258 51.2467 113.249 50.8173 113.249C50.4347 113.249 50.1313 113.258 49.9073 113.277C49.6927 113.295 49.5387 113.351 49.4453 113.445C49.3613 113.538 49.3193 113.697 49.3193 113.921C49.3193 114.191 49.394 114.373 49.5433 114.467C49.6927 114.551 49.9353 114.635 50.2713 114.719L52.1473 115.153C52.7073 115.293 53.1227 115.507 53.3933 115.797C53.664 116.077 53.7993 116.511 53.7993 117.099C53.7993 117.668 53.692 118.102 53.4773 118.401C53.272 118.69 52.9407 118.891 52.4833 119.003C52.0353 119.105 51.4613 119.157 50.7613 119.157C50.4907 119.157 50.0893 119.143 49.5573 119.115C49.0253 119.096 48.442 119.035 47.8073 118.933L47.9193 117.827C48.106 117.827 48.3253 117.831 48.5773 117.841C48.8387 117.85 49.114 117.855 49.4033 117.855C49.702 117.855 50.0053 117.855 50.3133 117.855C50.808 117.855 51.186 117.841 51.4473 117.813C51.718 117.775 51.9047 117.705 52.0073 117.603C52.11 117.491 52.1613 117.332 52.1613 117.127C52.1613 116.865 52.0727 116.693 51.8953 116.609C51.7273 116.515 51.4753 116.427 51.1393 116.343L49.3053 115.895C48.8853 115.783 48.5587 115.643 48.3253 115.475C48.092 115.297 47.924 115.083 47.8213 114.831C47.7187 114.569 47.6673 114.252 47.6673 113.879C47.6673 113.375 47.7607 112.983 47.9473 112.703C48.1433 112.423 48.4467 112.227 48.8573 112.115C49.2773 112.003 49.828 111.951 50.5093 111.961ZM57.0681 112.129V119.003H55.3881V112.129H57.0681ZM56.6061 109.147C56.9421 109.147 57.1101 109.315 57.1101 109.651V110.435C57.1101 110.771 56.9421 110.939 56.6061 110.939H55.8501C55.5141 110.939 55.3461 110.771 55.3461 110.435V109.651C55.3461 109.315 55.5141 109.147 55.8501 109.147H56.6061ZM62.1315 111.961C62.9715 111.961 63.6389 112.077 64.1335 112.311C64.6375 112.544 64.9969 112.927 65.2115 113.459C65.4355 113.991 65.5475 114.695 65.5475 115.573C65.5475 116.45 65.4355 117.155 65.2115 117.687C64.9969 118.209 64.6375 118.592 64.1335 118.835C63.6389 119.068 62.9715 119.185 62.1315 119.185C61.3102 119.185 60.6475 119.068 60.1435 118.835C59.6489 118.592 59.2895 118.209 59.0655 117.687C58.8415 117.155 58.7295 116.45 58.7295 115.573C58.7295 114.695 58.8415 113.991 59.0655 113.459C59.2895 112.927 59.6489 112.544 60.1435 112.311C60.6475 112.077 61.3102 111.961 62.1315 111.961ZM62.1315 113.249C61.7209 113.249 61.3942 113.319 61.1515 113.459C60.9182 113.589 60.7502 113.823 60.6475 114.159C60.5449 114.495 60.4935 114.966 60.4935 115.573C60.4935 116.179 60.5449 116.651 60.6475 116.987C60.7502 117.323 60.9182 117.556 61.1515 117.687C61.3942 117.817 61.7209 117.883 62.1315 117.883C62.5515 117.883 62.8829 117.817 63.1255 117.687C63.3682 117.556 63.5362 117.323 63.6295 116.987C63.7322 116.651 63.7835 116.179 63.7835 115.573C63.7835 114.966 63.7322 114.495 63.6295 114.159C63.5362 113.823 63.3682 113.589 63.1255 113.459C62.8829 113.319 62.5515 113.249 62.1315 113.249ZM71.6666 111.961C72.9453 111.961 73.5846 112.591 73.5846 113.851V119.003H71.8906V114.369C71.8906 113.995 71.8253 113.739 71.6946 113.599C71.564 113.459 71.3446 113.389 71.0366 113.389C70.6913 113.389 70.3366 113.468 69.9726 113.627C69.6086 113.776 69.17 113.995 68.6566 114.285L68.5866 113.263C69.0906 112.843 69.604 112.521 70.1266 112.297C70.6493 112.073 71.1626 111.961 71.6666 111.961ZM68.5306 112.129L68.6986 113.473L68.8386 113.669V119.003H67.1446V112.129H68.5306ZM30.687 127.343V133.223C30.687 134.184 30.5704 134.954 30.337 135.533C30.1037 136.111 29.721 136.531 29.189 136.793C28.657 137.054 27.943 137.185 27.047 137.185C26.1137 137.185 25.367 137.054 24.807 136.793C24.247 136.531 23.841 136.111 23.589 135.533C23.3464 134.954 23.225 134.184 23.225 133.223V127.343H24.975V133.223C24.975 133.857 25.0357 134.361 25.157 134.735C25.2877 135.108 25.4977 135.374 25.787 135.533C26.0764 135.682 26.4684 135.757 26.963 135.757C27.4577 135.757 27.845 135.682 28.125 135.533C28.4144 135.374 28.6197 135.108 28.741 134.735C28.8717 134.361 28.937 133.857 28.937 133.223V127.343H30.687ZM36.9136 129.961C37.763 129.961 38.3743 130.273 38.7476 130.899C39.121 131.524 39.3076 132.429 39.3076 133.615C39.3076 134.52 39.2096 135.234 39.0136 135.757C38.827 136.27 38.5423 136.639 38.1596 136.863C37.777 137.077 37.2916 137.185 36.7036 137.185C36.237 137.185 35.7796 137.119 35.3316 136.989C34.893 136.849 34.487 136.634 34.1136 136.345L34.2256 135.505C34.5896 135.607 34.9163 135.696 35.2056 135.771C35.495 135.845 35.8123 135.883 36.1576 135.883C36.503 135.883 36.7736 135.827 36.9696 135.715C37.175 135.593 37.3243 135.369 37.4176 135.043C37.511 134.716 37.5576 134.245 37.5576 133.629C37.5576 133.022 37.5156 132.551 37.4316 132.215C37.3476 131.879 37.2076 131.645 37.0116 131.515C36.825 131.375 36.5776 131.305 36.2696 131.305C35.9336 131.305 35.6163 131.379 35.3176 131.529C35.019 131.669 34.6736 131.879 34.2816 132.159L34.0856 131.263C34.3003 131.011 34.557 130.787 34.8556 130.591C35.1636 130.395 35.495 130.241 35.8496 130.129C36.2043 130.017 36.559 129.961 36.9136 129.961ZM34.0156 130.129L34.1836 131.459L34.3376 131.655V136.093L34.2676 136.261C34.2956 136.531 34.3143 136.802 34.3236 137.073C34.333 137.353 34.3376 137.637 34.3376 137.927V139.733H32.6436V130.129H34.0156ZM43.8408 129.961C44.6155 129.961 45.2268 130.035 45.6748 130.185C46.1321 130.325 46.4588 130.558 46.6548 130.885C46.8508 131.202 46.9488 131.622 46.9488 132.145C46.9488 132.649 46.8508 133.064 46.6548 133.391C46.4588 133.708 46.1321 133.941 45.6748 134.091C45.2175 134.24 44.6015 134.315 43.8268 134.315C43.0521 134.315 42.4361 134.24 41.9788 134.091C41.5308 133.941 41.2041 133.708 40.9988 133.391C40.8028 133.073 40.7048 132.658 40.7048 132.145C40.7048 131.622 40.8028 131.202 40.9988 130.885C41.2041 130.558 41.5355 130.325 41.9928 130.185C42.4501 130.035 43.0661 129.961 43.8408 129.961ZM43.8268 131.067C43.2388 131.067 42.8328 131.146 42.6088 131.305C42.3848 131.463 42.2728 131.743 42.2728 132.145C42.2728 132.527 42.3848 132.803 42.6088 132.971C42.8328 133.129 43.2388 133.209 43.8268 133.209C44.4148 133.209 44.8161 133.129 45.0308 132.971C45.2548 132.803 45.3668 132.527 45.3668 132.145C45.3668 131.743 45.2548 131.463 45.0308 131.305C44.8161 131.146 44.4148 131.067 43.8268 131.067ZM47.7468 130.129L47.6488 130.913L45.8568 131.109L45.3528 130.129H47.7468ZM41.8248 133.895L42.6928 134.021C42.5528 134.133 42.4548 134.277 42.3988 134.455C42.3521 134.623 42.3661 134.786 42.4408 134.945C42.5248 135.094 42.7021 135.187 42.9728 135.225L45.5208 135.561C46.2115 135.645 46.6968 135.85 46.9768 136.177C47.2568 136.494 47.3968 136.956 47.3968 137.563C47.3968 138.132 47.2848 138.575 47.0608 138.893C46.8368 139.21 46.4681 139.429 45.9548 139.551C45.4508 139.681 44.7695 139.747 43.9108 139.747C43.2295 139.747 42.6648 139.709 42.2168 139.635C41.7688 139.569 41.4095 139.453 41.1388 139.285C40.8775 139.126 40.6908 138.916 40.5788 138.655C40.4668 138.403 40.4108 138.085 40.4108 137.703C40.4108 137.404 40.4575 137.152 40.5508 136.947C40.6535 136.741 40.8168 136.559 41.0408 136.401C41.2648 136.233 41.5681 136.079 41.9508 135.939L42.9028 135.533L43.5608 135.771L42.9448 136.205C42.7301 136.363 42.5528 136.508 42.4128 136.639C42.2821 136.76 42.1841 136.881 42.1188 137.003C42.0628 137.133 42.0348 137.297 42.0348 137.493C42.0348 137.754 42.0861 137.955 42.1888 138.095C42.3008 138.235 42.4921 138.328 42.7628 138.375C43.0335 138.431 43.4115 138.459 43.8968 138.459C44.3915 138.459 44.7741 138.431 45.0448 138.375C45.3155 138.328 45.5021 138.235 45.6048 138.095C45.7168 137.964 45.7728 137.773 45.7728 137.521C45.7728 137.315 45.7401 137.161 45.6748 137.059C45.6095 136.965 45.4928 136.891 45.3248 136.835C45.1568 136.779 44.9235 136.732 44.6248 136.695L42.3288 136.415C42.0021 136.377 41.7408 136.284 41.5448 136.135C41.3581 135.976 41.2275 135.789 41.1528 135.575C41.0781 135.351 41.0548 135.131 41.0828 134.917C41.1201 134.693 41.1995 134.487 41.3208 134.301C41.4515 134.114 41.6195 133.979 41.8248 133.895ZM50.2428 130.129L50.4668 131.473L50.6208 131.669V137.003H48.9268V130.129H50.2428ZM53.6028 129.961L53.4348 131.529H52.9448C52.5808 131.529 52.2122 131.589 51.8389 131.711C51.4655 131.832 50.9988 132.014 50.4388 132.257L50.3268 131.263C50.8122 130.852 51.3068 130.535 51.8108 130.311C52.3148 130.077 52.8002 129.961 53.2668 129.961H53.6028ZM58.1817 129.961C58.7324 129.961 59.1944 130.035 59.5677 130.185C59.9504 130.325 60.2397 130.567 60.4357 130.913C60.6317 131.258 60.7297 131.734 60.7297 132.341V137.003H59.3857L59.1477 135.519L59.0217 135.323V132.327C59.0217 131.963 58.9377 131.701 58.7697 131.543C58.6017 131.375 58.2797 131.291 57.8037 131.291C57.4491 131.291 57.0011 131.305 56.4597 131.333C55.9277 131.361 55.3911 131.398 54.8497 131.445L54.6957 130.283C55.0224 130.217 55.3911 130.161 55.8017 130.115C56.2124 130.068 56.6277 130.031 57.0477 130.003C57.4677 129.975 57.8457 129.961 58.1817 129.961ZM60.0017 132.775L59.9877 133.825H56.8377C56.5577 133.834 56.3571 133.909 56.2357 134.049C56.1144 134.189 56.0537 134.38 56.0537 134.623V135.001C56.0537 135.281 56.1284 135.495 56.2777 135.645C56.4271 135.785 56.6604 135.855 56.9777 135.855C57.2297 135.855 57.5097 135.803 57.8177 135.701C58.1257 135.598 58.4291 135.449 58.7277 135.253C59.0357 135.057 59.3111 134.823 59.5537 134.553V135.435C59.4604 135.575 59.3251 135.743 59.1477 135.939C58.9704 136.125 58.7511 136.312 58.4897 136.499C58.2377 136.685 57.9437 136.839 57.6077 136.961C57.2811 137.082 56.9171 137.143 56.5157 137.143C56.1051 137.143 55.7364 137.073 55.4097 136.933C55.0831 136.783 54.8264 136.569 54.6397 136.289C54.4531 135.999 54.3597 135.645 54.3597 135.225V134.497C54.3597 133.955 54.5371 133.535 54.8917 133.237C55.2557 132.929 55.7504 132.775 56.3757 132.775H60.0017ZM64.8954 129.961C65.362 129.961 65.8194 130.026 66.2674 130.157C66.7154 130.278 67.1214 130.483 67.4854 130.773L67.3734 131.627C67.0094 131.524 66.6827 131.435 66.3934 131.361C66.104 131.286 65.782 131.249 65.4274 131.249C65.0914 131.249 64.8207 131.309 64.6154 131.431C64.4194 131.543 64.27 131.762 64.1674 132.089C64.074 132.415 64.0274 132.891 64.0274 133.517C64.0274 134.114 64.074 134.576 64.1674 134.903C64.2607 135.22 64.4054 135.444 64.6014 135.575C64.7974 135.696 65.054 135.757 65.3714 135.757C65.6234 135.757 65.8474 135.729 66.0434 135.673C66.2394 135.607 66.44 135.514 66.6454 135.393C66.8507 135.262 67.0887 135.099 67.3594 134.903L67.4994 135.855C67.182 136.219 66.79 136.531 66.3234 136.793C65.866 137.045 65.334 137.171 64.7274 137.171C63.85 137.171 63.2247 136.863 62.8514 136.247C62.478 135.621 62.2914 134.716 62.2914 133.531C62.2914 132.625 62.3847 131.916 62.5714 131.403C62.7674 130.88 63.0567 130.511 63.4394 130.297C63.8314 130.073 64.3167 129.961 64.8954 129.961ZM68.8714 127.203V137.003H67.5414L67.3594 135.771L67.1774 135.631V131.039L67.2614 130.843C67.224 130.572 67.2007 130.301 67.1914 130.031C67.182 129.751 67.1774 129.466 67.1774 129.177V127.203H68.8714ZM73.8542 129.961C74.9648 129.961 75.7628 130.157 76.2482 130.549C76.7335 130.931 76.9808 131.501 76.9902 132.257C76.9995 132.882 76.8502 133.358 76.5422 133.685C76.2435 134.002 75.7442 134.161 75.0442 134.161H71.1242V133.111H74.5822C74.8995 133.111 75.1002 133.027 75.1842 132.859C75.2775 132.691 75.3242 132.485 75.3242 132.243C75.3148 131.86 75.2028 131.594 74.9882 131.445C74.7828 131.295 74.4282 131.221 73.9242 131.221C73.4855 131.221 73.1448 131.281 72.9022 131.403C72.6595 131.524 72.4868 131.743 72.3842 132.061C72.2908 132.378 72.2442 132.835 72.2442 133.433C72.2442 134.067 72.3048 134.557 72.4262 134.903C72.5475 135.248 72.7482 135.486 73.0282 135.617C73.3082 135.738 73.6815 135.799 74.1482 135.799C74.4935 135.799 74.8902 135.785 75.3382 135.757C75.7955 135.729 76.2342 135.691 76.6542 135.645L76.8222 136.723C76.5702 136.825 76.2808 136.909 75.9542 136.975C75.6275 137.04 75.2868 137.087 74.9322 137.115C74.5868 137.152 74.2602 137.171 73.9522 137.171C73.1122 137.171 72.4355 137.049 71.9222 136.807C71.4182 136.555 71.0495 136.163 70.8162 135.631C70.5922 135.099 70.4802 134.413 70.4802 133.573C70.4802 132.667 70.5922 131.953 70.8162 131.431C71.0495 130.899 71.4135 130.521 71.9082 130.297C72.4122 130.073 73.0608 129.961 73.8542 129.961Z"
          fill="#333839"/>
    <path d="M90.3996 53.6044L53.7441 90.2499" stroke="white" stroke-width="6.29" stroke-miterlimit="10"/>
    <path d="M90.3996 53.6044L53.7441 90.2499" stroke="#2E988D" stroke-width="3.42" stroke-miterlimit="10"/>
    <path d="M8.6601 52.6618L6 50.0017L45.9905 10.0013" stroke="white" stroke-width="6.29" stroke-miterlimit="10"/>
    <path d="M8.6601 52.6618L6 50.0017L45.9905 10.0013" stroke="#2E988D" stroke-width="3.42" stroke-miterlimit="10"/>
    <path d="M68.6358 87.9313H31.3153L12 68.6358V31.3153L31.3153 12H68.6358L87.9512 31.3153V68.6358L68.6358 87.9313Z"
          fill="#2E988D"/>
    <path d="M53.742 90.2507L50.0001 94.0026L8.65967 52.6622" stroke="white" stroke-width="6.29"
          stroke-miterlimit="10"/>
    <path d="M53.742 90.2507L50.0001 94.0026L8.65967 52.6622" stroke="#2E988D" stroke-width="3.42"
          stroke-miterlimit="10"/>
    <path d="M45.9897 10L49.9997 6L94.0002 50.0004L90.3972 53.6034" stroke="white" stroke-width="6.29"
          stroke-miterlimit="10"/>
    <path d="M45.9897 10L49.9997 6L94.0002 50.0004L90.3972 53.6034" stroke="#2E988D" stroke-width="3.42"
          stroke-miterlimit="10"/>
    <path d="M37 54.4957V39.6005C37.0679 39.3134 37.1576 39.0319 37.2683 38.7585C37.8545 37.5552 38.8389 37 40.1701 37C46.4926 37 52.8137 37 59.1333 37C59.2819 37 59.4305 37 59.5771 37.0186C60.3113 37.0725 60.999 37.3986 61.5052 37.9331C62.0115 38.4677 62.2998 39.172 62.3138 39.9081C62.3221 44.655 62.3221 49.402 62.3138 54.149C62.3145 54.6598 62.1714 55.1604 61.901 55.5937C61.2819 56.5947 60.3634 57.055 59.187 57.0529C53.7479 57.0529 48.3088 57.0529 42.8697 57.0529C41.8894 57.0529 40.909 57.0529 39.9287 57.0529C39.3016 57.0497 38.692 56.8457 38.1891 56.471C37.6863 56.0963 37.3166 55.5704 37.1341 54.9704C37.0887 54.8198 37.0433 54.6505 37 54.4957ZM37.8895 51.953H61.4181C61.4181 51.8849 61.4181 51.8374 61.4181 51.7879C61.4181 47.8582 61.4181 43.9279 61.4181 39.9968C61.4167 39.807 61.3904 39.6183 61.3396 39.4354C61.0775 38.4716 60.2685 37.904 59.156 37.904H40.1454C39.9313 37.8994 39.7174 37.9188 39.5076 37.9618C39.0318 38.065 38.6078 38.3331 38.3106 38.7187C38.0134 39.1044 37.8621 39.5826 37.8834 40.069C37.8834 43.9437 37.8834 47.8169 37.8834 51.6888L37.8895 51.953ZM55.8703 54.9643C55.9851 54.9705 56.1001 54.9705 56.215 54.9643C56.3307 54.9568 56.4388 54.9042 56.5161 54.8177C56.5933 54.7312 56.6334 54.6178 56.6277 54.5019C56.628 54.4443 56.6162 54.3872 56.593 54.3344C56.5699 54.2815 56.5359 54.2342 56.4933 54.1953C56.4508 54.1564 56.4005 54.1268 56.3458 54.1086C56.2911 54.0903 56.2332 54.0837 56.1757 54.0892C55.9694 54.0892 55.7485 54.0892 55.5359 54.0892C55.4797 54.0867 55.4235 54.0954 55.3707 54.1149C55.3179 54.1344 55.2695 54.1643 55.2283 54.2027C55.1872 54.2412 55.1542 54.2874 55.1311 54.3388C55.1081 54.3902 55.0956 54.4457 55.0943 54.5019C55.0857 54.6178 55.1231 54.7324 55.1985 54.8209C55.2738 54.9094 55.3809 54.9646 55.4967 54.9746C55.6213 54.9785 55.7461 54.9751 55.8703 54.9643ZM52.9808 54.083C52.8673 54.083 52.7517 54.083 52.6362 54.083C52.5322 54.0826 52.4319 54.1216 52.3554 54.192C52.2788 54.2624 52.2317 54.3591 52.2234 54.4627C52.2053 54.5693 52.2297 54.6788 52.2915 54.7676C52.3532 54.8563 52.4473 54.9173 52.5536 54.9374C52.8458 54.9694 53.1406 54.9694 53.4328 54.9374C53.5342 54.9155 53.6237 54.8562 53.6834 54.7713C53.7431 54.6864 53.7685 54.5821 53.7548 54.4792C53.7457 54.3749 53.6987 54.2776 53.6226 54.2057C53.5465 54.1338 53.4467 54.0923 53.342 54.0892C53.2285 54.083 53.1047 54.083 52.9808 54.083ZM58.7598 54.083C58.6359 54.083 58.5142 54.083 58.3903 54.083C58.2825 54.088 58.1804 54.1331 58.104 54.2094C58.0277 54.2858 57.9826 54.3879 57.9775 54.4957C57.9671 54.5993 57.9961 54.703 58.0589 54.7861C58.1217 54.8691 58.2135 54.9254 58.316 54.9436C58.6 54.9746 58.8865 54.9746 59.1705 54.9436C59.2774 54.9259 59.373 54.8668 59.4367 54.7791C59.5004 54.6915 59.5271 54.5823 59.511 54.4751C59.5026 54.368 59.4538 54.2681 59.3745 54.1956C59.2952 54.1232 59.1912 54.0837 59.0838 54.085C58.9662 54.083 58.865 54.083 58.7598 54.083Z"
          fill="white"/>
    <path d="M53.3605 57.9818V58.9147H55.8041C56.1735 58.9147 56.3737 59.0674 56.382 59.344C56.3902 59.6205 56.1756 59.8022 55.8041 59.8042C53.3907 59.8042 50.978 59.8091 48.566 59.8187C46.8942 59.8187 45.2225 59.8187 43.5507 59.8042C43.4929 59.8042 43.4351 59.8042 43.3773 59.8042C43.3173 59.8043 43.2578 59.7922 43.2026 59.7686C43.1474 59.745 43.0975 59.7105 43.056 59.6671C43.0145 59.6236 42.9823 59.5723 42.9612 59.516C42.9402 59.4598 42.9308 59.3998 42.9336 59.3399C42.9351 59.2822 42.9483 59.2254 42.9724 59.173C42.9966 59.1206 43.0312 59.0737 43.074 59.0351C43.1169 58.9965 43.1671 58.967 43.2218 58.9484C43.2764 58.9298 43.3342 58.9226 43.3918 58.9271C43.7633 58.9271 44.1327 58.9271 44.5042 58.9271H45.9489V57.9942L53.3605 57.9818Z"
          fill="white"/>
    <path d="M53.4633 48.692C52.9606 49.1259 52.3848 49.4669 51.7626 49.6992C51.7274 49.7214 51.6979 49.7517 51.6768 49.7876C51.6556 49.8235 51.6433 49.8639 51.6408 49.9055C51.6615 50.1759 51.7172 50.4442 51.744 50.7146C51.7619 50.7836 51.7625 50.856 51.7459 50.9254C51.7292 50.9947 51.6957 51.0589 51.6485 51.1123C51.6012 51.1657 51.5415 51.2067 51.4747 51.2316C51.4078 51.2566 51.3359 51.2647 51.2652 51.2553C50.4396 51.2553 49.6327 51.2553 48.8174 51.2553C48.4624 51.2553 48.2932 51.0489 48.3241 50.6981C48.3386 50.5433 48.3675 50.3885 48.3881 50.2337C48.4088 50.0789 48.4356 49.9262 48.4501 49.8209L46.5471 48.727C46.3531 48.8777 46.1075 49.0697 45.8598 49.2575C45.5668 49.4804 45.3046 49.4329 45.1189 49.113C44.7061 48.4016 44.2968 47.6875 43.8909 46.9707C43.8504 46.9168 43.8238 46.8539 43.8132 46.7875C43.8027 46.721 43.8085 46.6529 43.8303 46.5892C43.8521 46.5255 43.8891 46.4681 43.9382 46.422C43.9872 46.3759 44.0468 46.3425 44.1117 46.3247C44.3532 46.2215 44.5967 46.1183 44.8444 46.0295C44.9806 45.98 45.0384 45.9139 45.0075 45.7591C44.8877 45.1763 44.8877 44.5753 45.0075 43.9924C45.0183 43.9642 45.0227 43.9339 45.0205 43.9038C45.0183 43.8736 45.0095 43.8443 44.9948 43.8179C44.98 43.7916 44.9596 43.7687 44.9351 43.7511C44.9105 43.7335 44.8824 43.7214 44.8527 43.7159C44.6091 43.6375 44.3738 43.5405 44.1365 43.4434C44.068 43.4247 44.0051 43.3896 43.9532 43.3412C43.9013 43.2927 43.862 43.2324 43.8386 43.1654C43.8152 43.0983 43.8085 43.0266 43.8191 42.9564C43.8296 42.8862 43.8571 42.8196 43.8991 42.7624C44.3119 42.0469 44.7247 41.3334 45.1375 40.6221C45.1647 40.5562 45.2077 40.4981 45.2628 40.453C45.3179 40.4079 45.3833 40.3771 45.4533 40.3634C45.5232 40.3497 45.5954 40.3535 45.6634 40.3745C45.7315 40.3955 45.7933 40.4331 45.8433 40.4838C45.9754 40.5808 46.1034 40.6902 46.2355 40.7851L46.5967 41.0617C46.8959 40.8553 47.1746 40.6303 47.478 40.4549C47.7814 40.2795 48.1116 40.1474 48.4624 39.9823C48.4253 39.7346 48.3881 39.4601 48.3448 39.1856C48.2664 38.6903 48.417 38.5066 48.9124 38.5045H51.2363C51.6367 38.5045 51.7915 38.6779 51.7461 39.0762C51.7151 39.3693 51.6718 39.6624 51.6346 39.9575C51.6346 39.972 51.6346 39.9885 51.6759 39.9575L53.5458 41.0307C53.7336 40.8821 53.9751 40.6881 54.2207 40.4982C54.5097 40.2753 54.7801 40.3187 54.9658 40.6345C55.3786 41.33 55.779 42.0297 56.1794 42.7314C56.224 42.7919 56.253 42.8624 56.2641 42.9367C56.2751 43.011 56.2679 43.0869 56.2428 43.1578C56.2178 43.2286 56.1757 43.2923 56.1204 43.3432C56.0651 43.394 55.9982 43.4306 55.9255 43.4496C55.682 43.5508 55.4384 43.656 55.1887 43.7365C55.0483 43.784 55.0483 43.8624 55.071 43.9821C55.1897 44.5734 55.1897 45.1823 55.071 45.7736C55.0611 45.7979 55.0567 45.824 55.058 45.8502C55.0594 45.8764 55.0666 45.902 55.079 45.9251C55.0914 45.9482 55.1088 45.9682 55.1299 45.9838C55.151 45.9993 55.1754 46.01 55.2011 46.0151C55.4467 46.1038 55.6902 46.205 55.9317 46.3102C56.2599 46.4506 56.3445 46.7024 56.1835 47.0058C55.7872 47.7102 55.3861 48.4106 54.9802 49.1068C54.951 49.1782 54.9043 49.2412 54.8446 49.2901C54.7848 49.339 54.7139 49.3722 54.6381 49.3867C54.5623 49.4013 54.484 49.3967 54.4104 49.3734C54.3369 49.3501 54.2702 49.3089 54.2166 49.2533C53.9875 49.0779 53.7625 48.8963 53.5355 48.7188C53.5128 48.7065 53.4885 48.6975 53.4633 48.692ZM52.7491 44.8758C52.7475 44.3402 52.5873 43.8171 52.2888 43.3724C51.9903 42.9278 51.5667 42.5815 51.0717 42.3772C50.5766 42.1729 50.0321 42.1197 49.5068 42.2245C48.9816 42.3292 48.4991 42.5871 48.1203 42.9657C47.7414 43.3443 47.4831 43.8265 47.378 44.3517C47.2729 44.8769 47.3256 45.4214 47.5295 45.9166C47.7334 46.4119 48.0794 46.8357 48.5239 47.1345C48.9683 47.4334 49.4913 47.594 50.0269 47.596C50.3846 47.5977 50.7392 47.5284 51.0701 47.3923C51.401 47.2562 51.7017 47.056 51.9548 46.8031C52.2079 46.5502 52.4083 46.2497 52.5447 45.9189C52.681 45.5881 52.7505 45.2336 52.7491 44.8758Z"
          fill="white"/>
    <path d="M40.3088 43.4002V47.6024C40.3088 47.6849 40.3088 47.7675 40.3088 47.85C40.3118 47.912 40.3017 47.9739 40.2793 48.0317C40.2569 48.0895 40.2226 48.142 40.1787 48.1857C40.1347 48.2295 40.0821 48.2636 40.0241 48.2857C39.9662 48.3079 39.9043 48.3176 39.8424 48.3144C39.7828 48.3131 39.7241 48.2994 39.6702 48.274C39.6162 48.2486 39.5683 48.2121 39.5293 48.1669C39.4904 48.1218 39.4614 48.069 39.4442 48.0119C39.427 47.9548 39.4221 47.8947 39.4296 47.8356C39.4296 46.4589 39.4296 45.0844 39.4296 43.7078V43.3321C39.2996 43.5138 39.2067 43.6376 39.1159 43.7656C38.9343 44.0153 38.6701 44.0896 38.4575 43.9492C38.2449 43.8089 38.1912 43.5365 38.377 43.2558C38.7444 42.7191 39.1131 42.1832 39.4833 41.648C39.5223 41.5789 39.5789 41.5213 39.6475 41.4813C39.716 41.4413 39.794 41.4202 39.8733 41.4202C39.9527 41.4202 40.0307 41.4413 40.0992 41.4813C40.1678 41.5213 40.2244 41.5789 40.2634 41.648C40.637 42.1825 41.0023 42.7192 41.3676 43.2578C41.5513 43.5282 41.5142 43.8006 41.2851 43.9513C41.056 44.102 40.8248 44.0173 40.637 43.7449L40.3686 43.3693L40.3088 43.4002Z"
          fill="white"/>
    <path d="M58.9535 43.3775C58.8503 43.5241 58.7471 43.6768 58.6418 43.8213C58.5734 43.9203 58.4684 43.9881 58.35 44.0098C58.2316 44.0315 58.1094 44.0052 58.0103 43.9368C57.963 43.9027 57.9229 43.8595 57.8926 43.8097C57.8622 43.7599 57.8421 43.7045 57.8335 43.6468C57.8248 43.5891 57.8278 43.5303 57.8422 43.4738C57.8566 43.4172 57.8822 43.3642 57.9174 43.3177C58.3034 42.746 58.6914 42.1743 59.0918 41.6108C59.1317 41.5496 59.1864 41.4996 59.2509 41.4653C59.3154 41.4311 59.3875 41.4137 59.4605 41.415C59.5335 41.4162 59.6051 41.436 59.6684 41.4724C59.7316 41.5088 59.7846 41.5607 59.8224 41.6232C60.2083 42.1763 60.586 42.7336 60.9617 43.295C61.001 43.3427 61.0299 43.3982 61.0465 43.4578C61.0631 43.5174 61.0671 43.5798 61.0581 43.641C61.0492 43.7023 61.0275 43.7609 60.9946 43.8133C60.9616 43.8657 60.9181 43.9106 60.8667 43.9451C60.7645 44.0051 60.6431 44.0233 60.5278 43.996C60.4124 43.9688 60.312 43.898 60.2476 43.7986C60.1508 43.6474 60.0357 43.5087 59.905 43.3858V47.6849C59.9112 47.7666 59.9112 47.8487 59.905 47.9305C59.8909 48.0374 59.8382 48.1354 59.7568 48.2061C59.6755 48.2768 59.5711 48.3153 59.4633 48.3144C59.3584 48.3198 59.2554 48.285 59.1753 48.2171C59.0951 48.1493 59.0439 48.0534 59.0319 47.9491C59.0213 47.8677 59.0178 47.7855 59.0216 47.7035V43.392L58.9535 43.3775Z"
          fill="white"/>
</svg>
