<svg width="15" height="14" viewBox="0 0 15 14" fill="none" xmlns="http://www.w3.org/2000/svg">
<path d="M0.838867 4.8999C5.23887 4.8999 9.53887 4.8999 13.9389 4.8999C13.9389 4.9999 13.9389 4.9999 13.9389 5.0999C13.9389 7.4999 13.9389 9.8999 13.9389 12.3999C13.9389 13.1999 13.3389 13.7999 12.5389 13.7999C9.13887 13.7999 5.63887 13.7999 2.23887 13.7999C1.53887 13.7999 1.03887 13.3999 0.838867 12.6999C0.838867 12.5999 0.838867 12.4999 0.838867 12.3999C0.838867 9.9999 0.838867 7.4999 0.838867 5.0999C0.838867 4.9999 0.838867 4.9999 0.838867 4.8999ZM2.83887 11.0999C2.83887 11.1999 2.83887 11.2999 2.83887 11.3999C2.83887 11.7999 3.13887 12.0999 3.43887 12.0999C3.63887 12.0999 3.93887 12.0999 4.13887 12.0999C4.53887 12.0999 4.73887 11.7999 4.73887 11.4999C4.73887 11.2999 4.73887 10.9999 4.73887 10.7999C4.73887 10.3999 4.43887 10.1999 4.03887 10.1999C3.83887 10.1999 3.53887 10.1999 3.33887 10.1999C3.03887 10.1999 2.73887 10.4999 2.73887 10.7999C2.83887 10.8999 2.83887 10.9999 2.83887 11.0999ZM7.43887 10.1999C7.33887 10.1999 7.23887 10.1999 7.03887 10.1999C6.63887 10.1999 6.43887 10.4999 6.43887 10.7999C6.43887 10.9999 6.43887 11.1999 6.43887 11.3999C6.43887 11.7999 6.73887 12.0999 7.03887 12.0999C7.23887 12.0999 7.53887 12.0999 7.73887 12.0999C8.13887 12.0999 8.33887 11.7999 8.33887 11.4999C8.33887 11.2999 8.33887 10.9999 8.33887 10.7999C8.33887 10.4999 8.03887 10.1999 7.73887 10.1999C7.63887 10.1999 7.53887 10.1999 7.43887 10.1999ZM11.0389 8.4999C11.1389 8.4999 11.2389 8.4999 11.3389 8.4999C11.7389 8.4999 11.9389 8.1999 11.9389 7.8999C11.9389 7.6999 11.9389 7.4999 11.9389 7.1999C11.9389 6.7999 11.6389 6.5999 11.3389 6.4999C11.1389 6.4999 10.8389 6.4999 10.6389 6.4999C10.2389 6.4999 10.0389 6.7999 10.0389 7.0999C10.0389 7.2999 10.0389 7.5999 10.0389 7.7999C10.0389 8.1999 10.3389 8.3999 10.7389 8.3999C10.8389 8.4999 10.9389 8.4999 11.0389 8.4999ZM7.43887 8.4999C7.53887 8.4999 7.63887 8.4999 7.73887 8.4999C8.13887 8.4999 8.43887 8.1999 8.43887 7.7999C8.43887 7.5999 8.43887 7.3999 8.43887 7.1999C8.43887 6.7999 8.13887 6.4999 7.83887 6.4999C7.63887 6.4999 7.33887 6.4999 7.13887 6.4999C6.73887 6.4999 6.53887 6.7999 6.53887 7.1999C6.53887 7.3999 6.53887 7.5999 6.53887 7.7999C6.53887 8.0999 6.83887 8.3999 7.13887 8.3999C7.13887 8.4999 7.23887 8.4999 7.43887 8.4999ZM3.83887 8.4999C3.93887 8.4999 4.03887 8.4999 4.13887 8.4999C4.53887 8.4999 4.73887 8.1999 4.83887 7.8999C4.83887 7.6999 4.83887 7.3999 4.83887 7.1999C4.83887 6.7999 4.53887 6.5999 4.23887 6.5999C4.03887 6.5999 3.73887 6.5999 3.53887 6.5999C3.03887 6.5999 2.83887 6.7999 2.83887 7.1999C2.83887 7.3999 2.83887 7.5999 2.83887 7.8999C2.83887 8.2999 3.13887 8.4999 3.43887 8.4999C3.53887 8.4999 3.63887 8.4999 3.83887 8.4999ZM11.0389 10.1999C10.9389 10.1999 10.8389 10.1999 10.7389 10.1999C10.3389 10.1999 10.0389 10.4999 10.0389 10.8999C10.0389 11.0999 10.0389 11.2999 10.0389 11.5999C10.0389 11.9999 10.3389 12.1999 10.6389 12.2999C10.8389 12.2999 11.1389 12.2999 11.3389 12.2999C11.7389 12.2999 11.9389 11.9999 11.9389 11.5999C11.9389 11.3999 11.9389 11.0999 11.9389 10.8999C11.9389 10.5999 11.6389 10.2999 11.3389 10.2999C11.2389 10.1999 11.1389 10.1999 11.0389 10.1999Z" fill="white"/>
<path d="M9.73887 0.999902C9.73887 1.4999 9.73887 1.9999 10.2389 2.2999C10.4389 2.4999 10.7389 2.5999 11.1389 2.5999C11.4389 2.5999 11.6389 2.4999 11.8389 2.3999C12.0389 2.1999 12.2389 1.9999 12.3389 1.7999C12.4389 1.5999 12.4389 1.2999 12.4389 0.999902C13.3389 0.899902 14.0389 1.4999 14.0389 2.3999C14.0389 2.9999 14.0389 3.5999 14.0389 4.1999V4.2999C9.63887 4.2999 5.33887 4.2999 0.938867 4.2999C0.838867 4.0999 0.838867 3.9999 0.838867 3.8999C0.838867 3.3999 0.838867 2.8999 0.838867 2.2999C0.838867 1.5999 1.43887 0.899902 2.23887 0.999902C2.33887 0.999902 2.33887 0.999902 2.43887 0.999902C2.43887 1.0999 2.43887 1.1999 2.43887 1.2999C2.43887 1.9999 2.93887 2.4999 3.63887 2.5999C4.33887 2.6999 4.93887 2.1999 5.03887 1.4999C5.03887 1.2999 5.03887 1.0999 5.03887 0.899902C6.63887 0.999902 8.13887 0.999902 9.73887 0.999902Z" fill="white"/>
<path d="M4.43867 1C4.43867 1.1 4.43867 1.2 4.43867 1.4C4.43867 1.7 4.13867 1.9 3.83867 2C3.53867 2 3.23867 1.8 3.13867 1.4C3.13867 1.1 3.13867 0.8 3.13867 0.5C3.23867 0.2 3.53867 0 3.83867 0C4.13867 0 4.43867 0.3 4.43867 0.6C4.43867 0.7 4.43867 0.9 4.43867 1Z" fill="white"/>
<path d="M10.3389 1C10.3389 0.9 10.3389 0.8 10.3389 0.6C10.3389 0.3 10.6389 0 10.9389 0C11.2389 0 11.6389 0.2 11.6389 0.5C11.6389 0.8 11.6389 1.1 11.6389 1.4C11.6389 1.7 11.2389 2 10.9389 1.9C10.6389 1.9 10.3389 1.6 10.3389 1.3C10.3389 1.2 10.3389 1.1 10.3389 1Z" fill="white"/>
</svg>
