<svg width="15" height="13" viewBox="0 0 15 13" fill="none" xmlns="http://www.w3.org/2000/svg">
<path d="M0.799805 4.57325C0.799805 4.57325 0.890281 4.48277 0.890281 4.39229C1.07123 3.75896 1.79504 3.48753 2.3379 3.75896C2.42838 3.75896 2.51885 3.75896 2.51885 3.75896C3.15219 3.30658 3.78552 2.76372 4.41885 2.31134C4.50933 2.22086 4.50933 2.22086 4.50933 2.13039C4.41885 1.67801 4.50933 1.3161 4.87123 0.954198C5.23314 0.682769 5.59504 0.592293 6.04742 0.773246C6.49981 0.954198 6.68076 1.3161 6.68076 1.76848C6.68076 1.94944 6.77123 1.94944 6.86171 2.03991C7.31409 2.31134 7.76647 2.49229 8.30933 2.76372C8.49028 2.40182 8.76171 2.22086 9.12361 2.22086C9.48552 2.13039 9.84742 2.31134 10.1189 2.58277C10.7522 2.22086 11.3855 1.85896 11.9284 1.49706C11.8379 1.04467 11.9284 0.682769 12.1998 0.320865C12.5617 -0.0410402 13.195 -0.131516 13.6474 0.230388C14.0998 0.592293 14.1903 1.22563 13.9189 1.67801C13.6474 2.13039 13.0141 2.31134 12.4712 2.03991C12.3808 2.03991 12.2903 2.03991 12.2903 2.03991C11.6569 2.40182 11.1141 2.76372 10.4808 3.12563C10.3903 3.12563 10.3903 3.2161 10.3903 3.30658C10.3903 3.84944 10.0284 4.30182 9.48552 4.39229C8.94266 4.48277 8.49028 4.12086 8.30933 3.66848C8.30933 3.57801 8.21885 3.57801 8.21885 3.48753C7.58552 3.2161 7.04266 2.94467 6.49981 2.67325C6.40933 2.67325 6.40933 2.67325 6.31885 2.67325C5.95695 2.94467 5.59504 3.03515 5.14266 2.8542C5.14266 2.8542 5.05219 2.8542 4.96171 2.8542C4.32838 3.30658 3.69504 3.84944 3.06171 4.30182L2.97123 4.39229C3.15219 5.02563 2.79028 5.65896 2.15695 5.74944C1.52361 6.02087 0.980757 5.65896 0.799805 5.02563C0.799805 4.84467 0.799805 4.7542 0.799805 4.57325Z" fill="white"/>
<path d="M0.799805 8.37324C0.890281 8.19228 1.07123 8.10181 1.25219 8.10181C1.70457 8.10181 2.15695 8.10181 2.60933 8.10181C2.97123 8.10181 3.06171 8.19228 3.06171 8.55419C3.06171 9.73038 3.06171 10.9066 3.06171 12.0828C3.06171 12.4447 2.97123 12.5351 2.60933 12.5351C2.15695 12.5351 1.79504 12.5351 1.34266 12.5351C1.07123 12.5351 0.980757 12.4447 0.890281 12.2637C0.799805 10.997 0.799805 9.73038 0.799805 8.37324Z" fill="white"/>
<path d="M11.9289 8.46376C11.9289 7.28757 11.9289 6.02091 11.9289 4.84471C11.9289 4.48281 12.0193 4.39233 12.3812 4.39233C12.8336 4.39233 13.286 4.39233 13.6479 4.39233C14.0098 4.39233 14.1003 4.57329 14.1003 4.84471C14.1003 7.28757 14.1003 9.63995 14.1003 12.0828C14.1003 12.4447 14.0098 12.5352 13.6479 12.5352C13.1955 12.5352 12.7431 12.5352 12.2908 12.5352C12.0193 12.5352 11.8384 12.3542 11.8384 12.0828C11.9289 10.9066 11.9289 9.73043 11.9289 8.46376Z" fill="white"/>
<path d="M6.77153 8.82574C6.77153 9.91145 6.77153 10.9972 6.77153 12.0829C6.77153 12.2638 6.77153 12.3543 6.68105 12.4448C6.59057 12.5353 6.5001 12.5353 6.40962 12.5353C5.95724 12.5353 5.50486 12.5353 5.05248 12.5353C4.78105 12.5353 4.6001 12.3543 4.6001 12.0829C4.6001 10.9067 4.6001 9.64002 4.6001 8.46383C4.6001 7.46859 4.6001 6.56383 4.6001 5.56859C4.6001 5.20669 4.69057 5.11621 5.05248 5.11621C5.50486 5.11621 5.95724 5.11621 6.31915 5.11621C6.68105 5.11621 6.77153 5.20669 6.77153 5.56859C6.77153 6.65431 6.77153 7.74002 6.77153 8.82574Z" fill="white"/>
<path d="M8.21889 9.54944C8.21889 8.73515 8.21889 7.92086 8.21889 7.10658C8.21889 7.0161 8.21889 7.0161 8.21889 6.92563C8.21889 6.74467 8.39985 6.56372 8.5808 6.56372C9.03318 6.56372 9.57604 6.56372 10.0284 6.56372C10.2094 6.56372 10.3903 6.74467 10.3903 6.92563V7.0161C10.3903 8.64467 10.3903 10.3637 10.3903 11.9923C10.3903 12.0828 10.3903 12.0828 10.3903 12.1732C10.3903 12.3542 10.2094 12.4447 10.0284 12.4447C9.48556 12.4447 9.03318 12.4447 8.49032 12.4447C8.30937 12.4447 8.12842 12.3542 8.12842 12.0828C8.12842 11.9923 8.12842 11.9923 8.12842 11.9018C8.21889 11.2685 8.21889 10.4542 8.21889 9.54944Z" fill="white"/>
</svg>
