<svg width="18" height="20" viewBox="0 0 18 20" fill="none" xmlns="http://www.w3.org/2000/svg">
<path d="M9.40387 0H9.50387C10.0039 0.2 10.3039 0.7 10.3039 1.2C10.3039 1.3 10.3039 1.3 10.4039 1.4C12.2039 2.5 14.1039 3.5 15.9039 4.6C16.0039 4.6 16.0039 4.6 16.1039 4.6C16.7039 4.2 17.4039 4.3 17.7039 4.9C18.0039 5.5 17.8039 6.2 17.1039 6.5C17.1039 6.5 17.1039 6.5 17.0039 6.5C17.0039 8.7 17.0039 10.9 17.0039 13.1C17.4039 13.3 17.7039 13.6 17.8039 14C17.9039 14.5 17.7039 14.8 17.3039 15.1C16.9039 15.3 16.5039 15.3 16.1039 15.1C16.0039 15 15.9039 15 15.8039 15.1C14.0039 16.1 12.2039 17.2 10.4039 18.2C10.3039 18.3 10.3039 18.3 10.3039 18.5C10.4039 19 10.1039 19.5 9.60387 19.6C9.50387 19.6 9.50387 19.6 9.40387 19.7C9.30387 19.7 9.10387 19.7 9.00387 19.7C8.80387 19.6 8.60387 19.5 8.50387 19.4C8.20387 19.2 8.10387 18.8 8.10387 18.5C8.10387 18.4 8.10387 18.3 8.00387 18.3C6.30387 17.3 4.60387 16.4 3.00387 15.4C3.00387 15.4 2.90387 15.4 2.90387 15.3C2.70387 15.1 2.50387 15.1 2.10387 15.2C1.60387 15.5 0.903867 15.2 0.703867 14.7C0.403867 14.2 0.703867 13.5 1.20387 13.2C1.30387 13.2 1.30387 13.1 1.40387 13.1C1.40387 10.9 1.40387 8.7 1.40387 6.5C1.30387 6.5 1.30387 6.4 1.20387 6.4C0.503867 6.2 0.303867 5.5 0.703867 4.9C1.00387 4.4 1.70387 4.2 2.30387 4.5C2.40387 4.6 2.50387 4.6 2.60387 4.5C4.40387 3.5 6.20387 2.4 8.00387 1.4C8.10387 1.3 8.20387 1.3 8.10387 1.1C8.00387 0.7 8.30387 0.2 8.80387 0.1C8.90387 0 8.90387 0 9.00387 0C9.10387 0 9.30387 0 9.40387 0ZM8.90387 5.6C8.90387 4.6 8.90387 3.6 8.90387 2.6C8.90387 2.3 8.90387 2.1 8.60387 2.1C8.50387 1.9 8.40387 1.9 8.30387 2C6.50387 3 4.80387 4 3.00387 5C2.80387 5.2 2.70387 5.3 2.70387 5.6C2.70387 5.8 2.80387 5.8 2.90387 5.9C3.70387 6.3 4.50387 6.8 5.40387 7.3L5.50387 7.4C5.50387 7.6 5.50387 7.8 5.50387 8C5.40387 8 5.30387 8 5.30387 8C4.40387 7.5 3.60387 7 2.80387 6.5C2.50387 6.4 2.30387 6.3 2.10387 6.5C2.00387 6.6 1.90387 6.6 1.90387 6.7C1.90387 8.7 1.90387 10.7 1.90387 12.7C1.90387 13 1.90387 13.2 2.20387 13.3C2.30387 13.3 2.40387 13.4 2.50387 13.3C3.40387 12.8 4.30387 12.2 5.20387 11.7C5.30387 11.7 5.30387 11.6 5.40387 11.6C5.40387 11.8 5.40387 12 5.40387 12.1C5.40387 12.2 5.40387 12.3 5.30387 12.4C4.50387 12.8 3.80387 13.3 3.00387 13.7C2.80387 13.8 2.60387 13.9 2.60387 14.3C2.60387 14.4 2.60387 14.5 2.80387 14.6C4.50387 15.6 6.30387 16.6 8.00387 17.6C8.20387 17.7 8.40387 17.9 8.70387 17.6C8.80387 17.5 8.90387 17.5 8.90387 17.3C8.90387 16.3 8.90387 15.3 8.90387 14.3C8.90387 14.2 8.90387 14.2 8.90387 14.1C9.10387 14.1 9.30387 14.1 9.50387 14.1C9.50387 14.2 9.50387 14.3 9.50387 14.3C9.50387 15.3 9.50387 16.3 9.50387 17.3C9.50387 17.4 9.50387 17.5 9.60387 17.5C9.70387 17.6 9.80387 17.6 10.0039 17.7C10.1039 17.7 10.1039 17.6 10.2039 17.6C11.9039 16.6 13.6039 15.6 15.4039 14.6C15.6039 14.5 15.8039 14.4 15.8039 14C15.8039 13.9 15.8039 13.8 15.6039 13.7C14.8039 13.2 13.9039 12.7 13.1039 12.3C13.0039 12.3 13.0039 12.2 13.0039 12.2C13.0039 12 13.0039 11.8 13.0039 11.6C13.1039 11.6 13.1039 11.7 13.2039 11.7C14.0039 12.2 14.9039 12.7 15.7039 13.2C15.9039 13.3 16.1039 13.4 16.4039 13.2C16.5039 13.1 16.6039 13.1 16.6039 12.9C16.6039 10.9 16.6039 8.9 16.6039 6.9C16.6039 6.6 16.6039 6.4 16.3039 6.3C16.2039 6.3 16.1039 6.2 16.0039 6.3C15.1039 6.8 14.3039 7.3 13.4039 7.8C13.3039 7.9 13.2039 7.9 13.0039 8C13.0039 7.8 13.0039 7.7 13.0039 7.5C13.0039 7.3 13.0039 7.2 13.2039 7.1C13.9039 6.7 14.7039 6.2 15.4039 5.8C15.6039 5.7 15.8039 5.5 15.8039 5.2C15.8039 5.1 15.8039 5 15.7039 4.9C14.0039 3.9 12.2039 2.9 10.5039 1.9C10.1039 2 9.90387 1.9 9.70387 2.1C9.60387 2.2 9.50387 2.2 9.50387 2.4C9.50387 3.4 9.50387 4.4 9.50387 5.4C9.50387 5.5 9.50387 5.5 9.50387 5.6C9.30387 5.6 9.10387 5.6 8.90387 5.6Z" fill="white"/>
<path d="M9.304 9.20005C8.404 9.20005 7.604 9.10005 6.904 8.70005C6.704 8.60005 6.504 8.40005 6.404 8.30005C6.004 7.90005 6.004 7.50005 6.404 7.10005C6.804 6.70005 7.204 6.50005 7.704 6.40005C8.904 6.10005 10.204 6.10005 11.304 6.60005C11.604 6.70005 11.804 6.90005 12.004 7.10005C12.404 7.40005 12.304 7.90005 12.004 8.30005C11.604 8.70005 11.204 8.90005 10.704 9.00005C10.504 9.00005 10.204 9.10005 10.004 9.10005C9.704 9.20005 9.504 9.20005 9.304 9.20005Z" fill="white"/>
<path d="M6.104 9C8.204 10.2 10.204 10.2 12.304 9C12.304 9.3 12.304 9.7 12.304 10C12.304 10.3 12.104 10.5 11.904 10.6C11.504 10.9 11.004 11.1 10.404 11.2C9.304 11.4 8.204 11.4 7.104 10.9C6.904 10.8 6.704 10.7 6.604 10.6C6.304 10.4 6.104 10.1 6.104 9.7C6.104 9.5 6.104 9.2 6.104 9Z" fill="white"/>
<path d="M6.104 11.2C8.204 12.3 10.204 12.3 12.304 11.2C12.304 11.5 12.304 11.8 12.304 12.2C12.304 12.5 12.104 12.7 11.804 12.9C11.404 13.2 10.904 13.4 10.404 13.5C9.304 13.7 8.204 13.7 7.104 13.2C6.904 13.1 6.704 13 6.604 12.9C6.304 12.7 6.104 12.4 6.104 12C6.104 11.6 6.104 11.4 6.104 11.2Z" fill="white"/>
</svg>
