<svg width="13" height="15" viewBox="0 0 13 15" fill="none" xmlns="http://www.w3.org/2000/svg">
<path d="M6.4001 8.5C4.9001 8.5 3.3001 8.5 1.8001 8.5C1.2001 8.5 0.800098 8.3 0.500098 8L0.400098 7.9C0.200098 7.6 0.100098 7.3 0.100098 7C0.100098 5.2 0.100098 3.3 0.100098 1.5C0.100098 1.1 0.200098 0.8 0.400098 0.6C0.700098 0.2 1.1001 0 1.6001 0C1.7001 0 1.7001 0 1.8001 0C4.8001 0 7.9001 0 10.9001 0C11.4001 0 11.8001 0.1 12.2001 0.5C12.4001 0.8 12.6001 1.1 12.6001 1.4C12.6001 2.2 12.6001 3.1 12.6001 3.9C12.6001 4.9 12.6001 6 12.6001 7C12.6001 7.4 12.5001 7.7 12.2001 7.9C11.9001 8.2 11.5001 8.4 11.0001 8.4C10.3001 8.4 9.6001 8.4 8.9001 8.4C8.1001 8.5 7.2001 8.5 6.4001 8.5ZM7.8001 5C8.1001 5 8.4001 5 8.6001 5C9.1001 4.9 9.5001 4.6 9.7001 4.2C10.0001 3.7 9.9001 3.2 9.5001 2.7C9.3001 2.4 9.0001 2.2 8.6001 2.2C8.1001 2.2 7.7001 2.2 7.2001 2.2C6.9001 2.2 6.7001 2.4 6.7001 2.7C6.7001 3.8 6.7001 4.8 6.7001 5.9C6.7001 6.2 6.9001 6.4 7.2001 6.4C7.5001 6.4 7.7001 6.2 7.7001 5.9C7.8001 5.6 7.8001 5.3 7.8001 5ZM4.7001 3.1C4.8001 3.1 4.9001 3.1 5.0001 3.1C5.2001 3.1 5.4001 3 5.5001 2.8C5.6001 2.5 5.3001 2.2 5.1001 2.2C4.5001 2.2 4.0001 2.2 3.4001 2.2C3.1001 2.1 2.9001 2.3 2.9001 2.6C2.8001 2.8 3.0001 3 3.2001 3C3.3001 3 3.5001 3 3.6001 3C3.6001 3.8 3.6001 4.6 3.6001 5.3C3.5001 5.3 3.4001 5.3 3.3001 5.3C3.2001 5.5 3.1001 5.5 3.0001 5.6C2.8001 5.7 2.8001 5.9 2.9001 6.1C3.0001 6.3 3.1001 6.4 3.3001 6.4C3.9001 6.4 4.4001 6.4 5.0001 6.4C5.2001 6.4 5.4001 6.3 5.4001 6.1C5.5001 5.8 5.2001 5.5 5.0001 5.5C4.9001 5.5 4.8001 5.5 4.7001 5.5C4.7001 4.6 4.7001 3.9 4.7001 3.1Z" fill="white"/>
<path d="M6.4001 14.2001C4.8001 14.2001 3.2001 14.2001 1.6001 14.2001C1.2001 14.2001 0.800098 14.1001 0.600098 13.8001L0.500098 13.7001C0.200098 13.4001 0.100098 13.2001 0.100098 12.9001C0.100098 12.8001 0.100098 12.7001 0.100098 12.6001C0.100098 12.2001 0.300098 11.9001 0.500098 11.6001C0.700098 11.4001 0.800098 11.2001 0.900098 11.0001C1.2001 10.5001 1.6001 10.3001 2.1001 10.3001C2.4001 10.3001 2.7001 10.3001 3.0001 10.3001C3.2001 10.3001 3.3001 10.4001 3.4001 10.5001C3.5001 10.7001 3.6001 11.0001 3.8001 11.2001C4.0001 11.5001 4.1001 11.8001 4.3001 12.0001C4.6001 12.5001 5.1001 12.8001 5.7001 13.0001C6.4001 13.2001 7.0001 13.1001 7.7001 12.7001C7.8001 12.6001 8.0001 12.5001 8.1001 12.4001C8.3001 12.2001 8.5001 12.0001 8.6001 11.8001C8.8001 11.4001 9.1001 10.9001 9.3001 10.5001C9.3001 10.4001 9.4001 10.3001 9.5001 10.2001L9.6001 10.1001C10.1001 10.1001 10.5001 10.1001 11.0001 10.1001C11.3001 10.1001 11.6001 10.3001 11.8001 10.6001C12.1001 11.0001 12.4001 11.4001 12.7001 11.8001C12.8001 11.9001 12.8001 12.0001 12.8001 12.1001C12.8001 12.3001 12.8001 12.5001 12.8001 12.7001C12.8001 13.3001 12.3001 13.8001 11.8001 13.9001C11.7001 13.9001 11.6001 13.9001 11.4001 13.9001C9.6001 14.2001 8.0001 14.2001 6.4001 14.2001Z" fill="white"/>
<path d="M3.8999 9.5C5.4999 9.5 7.0999 9.5 8.6999 9.5C8.6999 9.6 8.5999 9.7 8.5999 9.8C8.4999 10 8.3999 10.2 8.2999 10.4C8.0999 10.7 7.9999 11.1 7.7999 11.4C7.6999 11.6 7.5999 11.9 7.2999 12C6.8999 12.3 6.3999 12.4 5.8999 12.2C5.5999 12.1 5.2999 11.9 5.1999 11.5C4.9999 11.1 4.7999 10.7 4.4999 10.3C4.2999 10 4.0999 9.8 3.8999 9.5Z" fill="white"/>
<path d="M7.80029 4C7.80029 3.7 7.80029 3.4 7.80029 3C8.10029 3.1 8.30029 3 8.60029 3.2C8.80029 3.3 8.80029 3.4 8.80029 3.6C8.80029 3.8 8.70029 3.9 8.60029 4C8.30029 4.1 8.10029 4 7.80029 4Z" fill="white"/>
</svg>
