<svg width="11" height="14" viewBox="0 0 11 14" fill="none" xmlns="http://www.w3.org/2000/svg">
<path d="M5.4 13.4999C4 13.4999 2.6 13.4999 1.1 13.4999C0.5 13.4999 0 12.9999 0 12.3999C0 11.6999 0 11.0999 0.1 10.3999C0.6 8.19994 2.5 6.39994 4.8 6.09994C7.6 5.79994 10.2 7.59994 10.7 10.3999C10.8 11.0999 10.8 11.7999 10.8 12.4999C10.8 13.0999 10.3 13.3999 9.7 13.3999C8.3 13.4999 6.9 13.4999 5.4 13.4999Z" fill="white"/>
<path d="M5.4002 5.4C3.9002 5.4 2.7002 4.2 2.7002 2.7C2.7002 1.2 3.9002 0 5.4002 0C6.9002 0 8.1002 1.2 8.1002 2.7C8.1002 4.2 6.9002 5.4 5.4002 5.4Z" fill="white"/>
</svg>
