<svg width="16" height="20" viewBox="0 0 16 20" fill="none" xmlns="http://www.w3.org/2000/svg">
<path d="M5.7998 17.8377C5.7998 17.2377 5.7998 16.6377 5.7998 16.0377C5.6998 16.0377 5.5998 16.0377 5.5998 16.0377C4.3998 16.0377 3.1998 16.0377 1.9998 16.0377C1.2998 16.0377 0.799805 15.6377 0.799805 14.8377C0.799805 12.3377 0.799805 9.73774 0.799805 7.23774C0.799805 6.43774 1.2998 6.03774 1.9998 6.03774C3.0998 6.03774 4.0998 6.03774 5.1998 6.03774C5.1998 6.13774 5.1998 6.13774 5.0998 6.13774C5.0998 6.33774 4.9998 6.63774 4.8998 6.83774C4.8998 6.93774 4.7998 7.03774 4.6998 7.03774C3.7998 7.03774 2.9998 7.03774 2.0998 7.03774C1.7998 6.93774 1.6998 7.03774 1.6998 7.33774C1.6998 9.53774 1.6998 11.7377 1.6998 13.9377C1.6998 14.0377 1.6998 14.0377 1.6998 14.1377C5.9998 14.1377 10.1998 14.1377 14.4998 14.1377C14.4998 14.0377 14.4998 14.0377 14.4998 13.9377C14.4998 11.7377 14.4998 9.43774 14.4998 7.23774C14.4998 6.93774 14.4998 6.93774 14.1998 6.93774C13.2998 6.93774 12.3998 6.93774 11.5998 6.93774C11.4998 6.93774 11.3998 6.93774 11.3998 6.73774C11.2998 6.43774 11.1998 6.23774 11.0998 5.93774C11.1998 5.93774 11.1998 5.93774 11.2998 5.93774C12.2998 5.93774 13.2998 5.93774 14.2998 5.93774C14.9998 5.93774 15.4998 6.43774 15.4998 7.13774C15.4998 9.63774 15.4998 12.2377 15.4998 14.7377C15.4998 15.4377 14.9998 15.9377 14.2998 15.9377C13.0998 15.9377 11.8998 15.9377 10.6998 15.9377C10.5998 15.9377 10.5998 15.9377 10.4998 15.9377C10.4998 16.5377 10.4998 17.1377 10.4998 17.7377C10.5998 17.7377 10.5998 17.7377 10.6998 17.7377C11.1998 17.7377 11.6998 17.7377 12.1998 17.7377C12.2998 17.7377 12.3998 17.7377 12.4998 17.7377C12.9998 17.8377 13.1998 18.1377 13.1998 18.6377C13.1998 19.2377 13.1998 19.2377 12.5998 19.2377C9.5998 19.2377 6.5998 19.2377 3.5998 19.2377C3.1998 19.2377 3.1998 19.2377 3.1998 18.8377C3.1998 18.7377 3.1998 18.7377 3.1998 18.6377C3.1998 18.0377 3.4998 17.7377 4.0998 17.7377C4.5998 17.7377 5.0998 17.7377 5.5998 17.7377C5.6998 17.8377 5.7998 17.8377 5.7998 17.8377Z" fill="white"/>
<path d="M10.7997 5.33783C10.5997 5.33783 10.3997 5.23783 10.1997 5.03783C8.89971 4.13783 7.19971 4.23783 5.99971 5.13783C5.89971 5.23783 5.79971 5.23783 5.69971 5.33783C5.49971 5.33783 5.19971 5.33783 4.99971 5.33783C4.39971 5.13783 3.89971 4.63783 3.79971 4.03783C3.69971 3.43783 3.99971 2.83783 4.59971 2.53783C4.69971 2.43783 4.79971 2.43783 4.79971 2.23783C4.79971 1.23783 5.29971 0.537829 6.19971 0.137829C6.99971 -0.162171 7.79971 0.0378293 8.49971 0.637829C8.59971 0.637829 8.69971 0.737829 8.69971 0.637829C9.89971 0.337829 11.0997 1.03783 11.2997 2.23783C11.2997 2.33783 11.3997 2.43783 11.4997 2.43783C12.1997 2.73783 12.4997 3.33783 12.3997 4.03783C12.2997 4.73783 11.6997 5.23783 10.9997 5.23783C10.9997 5.33783 10.8997 5.33783 10.7997 5.33783Z" fill="white"/>
<path d="M8.1998 12.2378C7.2998 11.2378 6.3998 10.2378 5.7998 9.03784C4.7998 7.13784 6.1998 5.03784 8.1998 5.03784C10.0998 5.13784 11.3998 7.03784 10.5998 8.73784C10.2998 9.43784 9.7998 10.0378 9.2998 10.6378C8.9998 11.2378 8.5998 11.7378 8.1998 12.2378ZM8.1998 9.43784C8.9998 9.43784 9.7998 8.73784 9.7998 7.83784C9.7998 6.93784 9.0998 6.23784 8.1998 6.23784C7.2998 6.23784 6.5998 6.93784 6.5998 7.83784C6.4998 8.63784 7.2998 9.43784 8.1998 9.43784Z" fill="white"/>
<path d="M7.0998 11.9378C6.9998 12.0378 6.8998 12.1378 6.7998 12.2378C6.8998 12.3378 6.9998 12.4378 7.0998 12.4378C7.7998 12.6378 8.4998 12.6378 9.1998 12.4378C9.1998 12.4378 9.2998 12.4378 9.2998 12.3378C9.3998 12.2378 9.4998 12.2378 9.4998 12.1378C9.4998 12.0378 9.3998 12.0378 9.2998 11.9378C9.2998 11.9378 9.1998 11.9378 9.1998 11.8378C9.2998 11.7378 9.39981 11.5378 9.5998 11.4378C9.5998 11.4378 9.6998 11.3378 9.7998 11.4378C10.1998 11.5378 10.4998 11.6378 10.7998 11.7378C10.8998 11.8378 11.0998 11.9378 11.0998 12.1378C11.0998 12.3378 10.9998 12.4378 10.7998 12.5378C10.3998 12.6378 9.9998 12.8378 9.5998 12.8378C8.4998 13.0378 7.2998 13.0378 6.1998 12.7378C5.8998 12.6378 5.5998 12.5378 5.3998 12.4378C5.0998 12.2378 5.0998 12.0378 5.3998 11.8378C5.7998 11.6378 6.19981 11.5378 6.5998 11.4378C6.5998 11.4378 6.6998 11.4378 6.6998 11.5378C6.8998 11.6378 6.9998 11.8378 7.0998 11.9378Z" fill="white"/>
</svg>
