<svg width="100" height="156" viewBox="0 0 100 156" fill="none" xmlns="http://www.w3.org/2000/svg">
<g opacity="0.2">
<rect width="100" height="156" rx="19" fill="#F9FBFF"/>
<path d="M24.1484 109.343C24.2977 109.343 24.4284 109.385 24.5404 109.469C24.6524 109.553 24.7317 109.665 24.7784 109.805L27.7044 119.003H25.9124L23.7004 111.555C23.663 111.406 23.6257 111.256 23.5884 111.107C23.551 110.958 23.5184 110.813 23.4904 110.673H23.0984C23.0704 110.813 23.0377 110.958 23.0004 111.107C22.963 111.256 22.921 111.406 22.8744 111.555L20.6764 119.003H18.8844L21.8104 109.805C21.8477 109.665 21.9224 109.553 22.0344 109.469C22.1557 109.385 22.291 109.343 22.4404 109.343H24.1484ZM25.7724 114.873V116.245H20.8024V114.873H25.7724ZM33.4115 111.961C34.2608 111.961 34.8721 112.274 35.2455 112.899C35.6188 113.524 35.8055 114.43 35.8055 115.615C35.8055 116.52 35.7075 117.234 35.5115 117.757C35.3248 118.27 35.0401 118.639 34.6575 118.863C34.2748 119.078 33.7895 119.185 33.2015 119.185C32.7348 119.185 32.2775 119.12 31.8295 118.989C31.3908 118.849 30.9848 118.634 30.6115 118.345L30.7235 117.505C31.0875 117.608 31.4141 117.696 31.7035 117.771C31.9928 117.846 32.3101 117.883 32.6555 117.883C33.0008 117.883 33.2715 117.827 33.4675 117.715C33.6728 117.594 33.8221 117.37 33.9155 117.043C34.0088 116.716 34.0555 116.245 34.0555 115.629C34.0555 115.022 34.0135 114.551 33.9295 114.215C33.8455 113.879 33.7055 113.646 33.5095 113.515C33.3228 113.375 33.0755 113.305 32.7675 113.305C32.4315 113.305 32.1141 113.38 31.8155 113.529C31.5168 113.669 31.1715 113.879 30.7795 114.159L30.5835 113.263C30.7981 113.011 31.0548 112.787 31.3535 112.591C31.6615 112.395 31.9928 112.241 32.3475 112.129C32.7021 112.017 33.0568 111.961 33.4115 111.961ZM30.5135 112.129L30.6815 113.459L30.8355 113.655V118.093L30.7655 118.261C30.7935 118.532 30.8121 118.802 30.8215 119.073C30.8308 119.353 30.8355 119.638 30.8355 119.927V121.733H29.1415V112.129H30.5135ZM42.1166 111.961C42.9659 111.961 43.5773 112.274 43.9506 112.899C44.3239 113.524 44.5106 114.43 44.5106 115.615C44.5106 116.52 44.4126 117.234 44.2166 117.757C44.0299 118.27 43.7453 118.639 43.3626 118.863C42.9799 119.078 42.4946 119.185 41.9066 119.185C41.4399 119.185 40.9826 119.12 40.5346 118.989C40.0959 118.849 39.6899 118.634 39.3166 118.345L39.4286 117.505C39.7926 117.608 40.1193 117.696 40.4086 117.771C40.6979 117.846 41.0153 117.883 41.3606 117.883C41.7059 117.883 41.9766 117.827 42.1726 117.715C42.3779 117.594 42.5273 117.37 42.6206 117.043C42.7139 116.716 42.7606 116.245 42.7606 115.629C42.7606 115.022 42.7186 114.551 42.6346 114.215C42.5506 113.879 42.4106 113.646 42.2146 113.515C42.0279 113.375 41.7806 113.305 41.4726 113.305C41.1366 113.305 40.8193 113.38 40.5206 113.529C40.2219 113.669 39.8766 113.879 39.4846 114.159L39.2886 113.263C39.5033 113.011 39.7599 112.787 40.0586 112.591C40.3666 112.395 40.6979 112.241 41.0526 112.129C41.4073 112.017 41.7619 111.961 42.1166 111.961ZM39.2186 112.129L39.3866 113.459L39.5406 113.655V118.093L39.4706 118.261C39.4986 118.532 39.5173 118.802 39.5266 119.073C39.5359 119.353 39.5406 119.638 39.5406 119.927V121.733H37.8466V112.129H39.2186ZM47.8678 112.129L48.0918 113.473L48.2458 113.669V119.003H46.5518V112.129H47.8678ZM51.2278 111.961L51.0598 113.529H50.5698C50.2058 113.529 49.8371 113.59 49.4638 113.711C49.0904 113.832 48.6238 114.014 48.0638 114.257L47.9518 113.263C48.4371 112.852 48.9318 112.535 49.4358 112.311C49.9398 112.078 50.4251 111.961 50.8918 111.961H51.2278ZM55.7673 111.961C56.6073 111.961 57.2746 112.078 57.7693 112.311C58.2733 112.544 58.6326 112.927 58.8473 113.459C59.0713 113.991 59.1833 114.696 59.1833 115.573C59.1833 116.45 59.0713 117.155 58.8473 117.687C58.6326 118.21 58.2733 118.592 57.7693 118.835C57.2746 119.068 56.6073 119.185 55.7673 119.185C54.9459 119.185 54.2833 119.068 53.7793 118.835C53.2846 118.592 52.9253 118.21 52.7013 117.687C52.4773 117.155 52.3653 116.45 52.3653 115.573C52.3653 114.696 52.4773 113.991 52.7013 113.459C52.9253 112.927 53.2846 112.544 53.7793 112.311C54.2833 112.078 54.9459 111.961 55.7673 111.961ZM55.7673 113.249C55.3566 113.249 55.0299 113.319 54.7873 113.459C54.5539 113.59 54.3859 113.823 54.2833 114.159C54.1806 114.495 54.1293 114.966 54.1293 115.573C54.1293 116.18 54.1806 116.651 54.2833 116.987C54.3859 117.323 54.5539 117.556 54.7873 117.687C55.0299 117.818 55.3566 117.883 55.7673 117.883C56.1873 117.883 56.5186 117.818 56.7613 117.687C57.0039 117.556 57.1719 117.323 57.2653 116.987C57.3679 116.651 57.4193 116.18 57.4193 115.573C57.4193 114.966 57.3679 114.495 57.2653 114.159C57.1719 113.823 57.0039 113.59 56.7613 113.459C56.5186 113.319 56.1873 113.249 55.7673 113.249ZM67.671 112.129L65.305 118.597C65.2583 118.718 65.1837 118.816 65.081 118.891C64.9877 118.966 64.871 119.003 64.731 119.003H63.247C63.1163 119.003 62.9997 118.966 62.897 118.891C62.7943 118.816 62.7197 118.718 62.673 118.597L60.307 112.129H62.113L63.555 116.637C63.6203 116.842 63.681 117.052 63.737 117.267C63.793 117.472 63.8443 117.673 63.891 117.869H64.073C64.1383 117.664 64.199 117.458 64.255 117.253C64.3203 117.048 64.381 116.842 64.437 116.637L65.879 112.129H67.671ZM72.5979 111.961C73.1486 111.961 73.6106 112.036 73.9839 112.185C74.3666 112.325 74.6559 112.568 74.8519 112.913C75.0479 113.258 75.1459 113.734 75.1459 114.341V119.003H73.8019L73.5639 117.519L73.4379 117.323V114.327C73.4379 113.963 73.3539 113.702 73.1859 113.543C73.0179 113.375 72.6959 113.291 72.2199 113.291C71.8652 113.291 71.4172 113.305 70.8759 113.333C70.3439 113.361 69.8072 113.398 69.2659 113.445L69.1119 112.283C69.4386 112.218 69.8072 112.162 70.2179 112.115C70.6286 112.068 71.0439 112.031 71.4639 112.003C71.8839 111.975 72.2619 111.961 72.5979 111.961ZM74.4179 114.775L74.4039 115.825H71.2539C70.9739 115.834 70.7732 115.909 70.6519 116.049C70.5306 116.189 70.4699 116.38 70.4699 116.623V117.001C70.4699 117.281 70.5446 117.496 70.6939 117.645C70.8432 117.785 71.0766 117.855 71.3939 117.855C71.6459 117.855 71.9259 117.804 72.2339 117.701C72.5419 117.598 72.8452 117.449 73.1439 117.253C73.4519 117.057 73.7272 116.824 73.9699 116.553V117.435C73.8766 117.575 73.7412 117.743 73.5639 117.939C73.3866 118.126 73.1672 118.312 72.9059 118.499C72.6539 118.686 72.3599 118.84 72.0239 118.961C71.6972 119.082 71.3332 119.143 70.9319 119.143C70.5212 119.143 70.1526 119.073 69.8259 118.933C69.4992 118.784 69.2426 118.569 69.0559 118.289C68.8692 118 68.7759 117.645 68.7759 117.225V116.497C68.7759 115.956 68.9532 115.536 69.3079 115.237C69.6719 114.929 70.1666 114.775 70.7919 114.775H74.4179ZM79.1156 109.203L79.1016 116.931C79.1016 117.192 79.1762 117.393 79.3256 117.533C79.4749 117.664 79.6896 117.729 79.9696 117.729H80.5716L80.7676 118.919C80.6649 118.966 80.5202 119.008 80.3336 119.045C80.1562 119.082 79.9696 119.106 79.7736 119.115C79.5869 119.134 79.4236 119.143 79.2836 119.143C78.7142 119.143 78.2616 118.989 77.9256 118.681C77.5896 118.373 77.4216 117.93 77.4216 117.351V109.203H79.1156ZM28.9133 127.217C29.716 127.217 30.3646 127.301 30.8593 127.469C31.3633 127.637 31.7273 127.926 31.9513 128.337C32.1846 128.738 32.3013 129.308 32.3013 130.045C32.3013 130.53 32.2406 130.946 32.1193 131.291C32.0073 131.627 31.816 131.898 31.5453 132.103C31.284 132.299 30.9293 132.425 30.4813 132.481V132.551C30.64 132.588 30.8033 132.663 30.9713 132.775C31.1486 132.878 31.3073 133.027 31.4473 133.223C31.5966 133.419 31.7086 133.671 31.7833 133.979L32.6653 137.003H30.8173L30.0193 134.021C29.9166 133.685 29.7766 133.452 29.5993 133.321C29.422 133.181 29.1793 133.111 28.8713 133.111C28.2646 133.111 27.7466 133.111 27.3173 133.111C26.888 133.102 26.5286 133.092 26.2393 133.083C25.9593 133.074 25.712 133.069 25.4973 133.069L25.5393 131.739H28.8713C29.2913 131.73 29.6226 131.683 29.8653 131.599C30.108 131.506 30.2806 131.347 30.3833 131.123C30.486 130.89 30.5373 130.563 30.5373 130.143C30.5373 129.732 30.486 129.415 30.3833 129.191C30.2806 128.967 30.108 128.813 29.8653 128.729C29.6226 128.636 29.2913 128.589 28.8713 128.589C28.05 128.589 27.3453 128.594 26.7573 128.603C26.1693 128.612 25.768 128.622 25.5533 128.631L25.3573 127.343C25.7306 127.306 26.0806 127.278 26.4073 127.259C26.7433 127.24 27.1073 127.231 27.4993 127.231C27.8913 127.222 28.3626 127.217 28.9133 127.217ZM27.0793 127.343V137.003H25.3573V127.343H27.0793ZM37.5357 129.961C38.6463 129.961 39.4443 130.157 39.9297 130.549C40.415 130.932 40.6623 131.501 40.6717 132.257C40.681 132.882 40.5317 133.358 40.2237 133.685C39.925 134.002 39.4257 134.161 38.7257 134.161H34.8057V133.111H38.2637C38.581 133.111 38.7817 133.027 38.8657 132.859C38.959 132.691 39.0057 132.486 39.0057 132.243C38.9963 131.86 38.8843 131.594 38.6697 131.445C38.4643 131.296 38.1097 131.221 37.6057 131.221C37.167 131.221 36.8263 131.282 36.5837 131.403C36.341 131.524 36.1683 131.744 36.0657 132.061C35.9723 132.378 35.9257 132.836 35.9257 133.433C35.9257 134.068 35.9863 134.558 36.1077 134.903C36.229 135.248 36.4297 135.486 36.7097 135.617C36.9897 135.738 37.363 135.799 37.8297 135.799C38.175 135.799 38.5717 135.785 39.0197 135.757C39.477 135.729 39.9157 135.692 40.3357 135.645L40.5037 136.723C40.2517 136.826 39.9623 136.91 39.6357 136.975C39.309 137.04 38.9683 137.087 38.6137 137.115C38.2683 137.152 37.9417 137.171 37.6337 137.171C36.7937 137.171 36.117 137.05 35.6037 136.807C35.0997 136.555 34.731 136.163 34.4977 135.631C34.2737 135.099 34.1617 134.413 34.1617 133.573C34.1617 132.668 34.2737 131.954 34.4977 131.431C34.731 130.899 35.095 130.521 35.5897 130.297C36.0937 130.073 36.7423 129.961 37.5357 129.961ZM45.6943 129.961C45.9276 129.961 46.1843 129.97 46.4643 129.989C46.7443 130.008 47.0289 130.045 47.3183 130.101C47.6076 130.157 47.8689 130.236 48.1023 130.339L47.9063 131.403C47.5609 131.384 47.2156 131.37 46.8703 131.361C46.5343 131.352 46.2403 131.347 45.9883 131.347C45.5123 131.347 45.1343 131.412 44.8543 131.543C44.5836 131.664 44.3876 131.888 44.2663 132.215C44.1449 132.532 44.0843 132.98 44.0843 133.559C44.0843 134.138 44.1449 134.59 44.2663 134.917C44.3876 135.234 44.5836 135.458 44.8543 135.589C45.1343 135.72 45.5123 135.785 45.9883 135.785C46.1283 135.785 46.3103 135.78 46.5343 135.771C46.7676 135.762 47.0149 135.748 47.2763 135.729C47.5469 135.71 47.8083 135.687 48.0603 135.659L48.2283 136.751C47.8643 136.9 47.4583 137.008 47.0103 137.073C46.5623 137.138 46.1189 137.171 45.6803 137.171C44.8589 137.171 44.2009 137.054 43.7063 136.821C43.2116 136.588 42.8523 136.21 42.6283 135.687C42.4136 135.155 42.3063 134.446 42.3063 133.559C42.3063 132.672 42.4183 131.968 42.6423 131.445C42.8663 130.913 43.2256 130.535 43.7203 130.311C44.2149 130.078 44.8729 129.961 45.6943 129.961ZM53.0046 129.961C54.1152 129.961 54.9132 130.157 55.3986 130.549C55.8839 130.932 56.1312 131.501 56.1406 132.257C56.1499 132.882 56.0006 133.358 55.6926 133.685C55.3939 134.002 54.8946 134.161 54.1946 134.161H50.2746V133.111H53.7326C54.0499 133.111 54.2506 133.027 54.3346 132.859C54.4279 132.691 54.4746 132.486 54.4746 132.243C54.4652 131.86 54.3532 131.594 54.1386 131.445C53.9332 131.296 53.5786 131.221 53.0746 131.221C52.6359 131.221 52.2952 131.282 52.0526 131.403C51.8099 131.524 51.6372 131.744 51.5346 132.061C51.4412 132.378 51.3946 132.836 51.3946 133.433C51.3946 134.068 51.4552 134.558 51.5766 134.903C51.6979 135.248 51.8986 135.486 52.1786 135.617C52.4586 135.738 52.8319 135.799 53.2986 135.799C53.6439 135.799 54.0406 135.785 54.4886 135.757C54.9459 135.729 55.3846 135.692 55.8046 135.645L55.9726 136.723C55.7206 136.826 55.4312 136.91 55.1046 136.975C54.7779 137.04 54.4372 137.087 54.0826 137.115C53.7372 137.152 53.4106 137.171 53.1026 137.171C52.2626 137.171 51.5859 137.05 51.0726 136.807C50.5686 136.555 50.1999 136.163 49.9666 135.631C49.7426 135.099 49.6306 134.413 49.6306 133.573C49.6306 132.668 49.7426 131.954 49.9666 131.431C50.1999 130.899 50.5639 130.521 51.0586 130.297C51.5626 130.073 52.2112 129.961 53.0046 129.961ZM59.8192 130.129V137.003H58.1392V130.129H59.8192ZM59.3572 127.147C59.6932 127.147 59.8612 127.315 59.8612 127.651V128.435C59.8612 128.771 59.6932 128.939 59.3572 128.939H58.6012C58.2652 128.939 58.0972 128.771 58.0972 128.435V127.651C58.0972 127.315 58.2652 127.147 58.6012 127.147H59.3572ZM66.4646 129.961C67.3139 129.961 67.9253 130.274 68.2986 130.899C68.6719 131.524 68.8586 132.43 68.8586 133.615C68.8586 134.52 68.7606 135.234 68.5646 135.757C68.3779 136.27 68.0933 136.639 67.7106 136.863C67.3279 137.078 66.8426 137.185 66.2546 137.185C65.7879 137.185 65.3306 137.12 64.8826 136.989C64.4439 136.849 64.0379 136.634 63.6646 136.345L63.7766 135.505C64.1406 135.608 64.4673 135.696 64.7566 135.771C65.0459 135.846 65.3633 135.883 65.7086 135.883C66.0539 135.883 66.3246 135.827 66.5206 135.715C66.7259 135.594 66.8753 135.37 66.9686 135.043C67.0619 134.716 67.1086 134.245 67.1086 133.629C67.1086 133.022 67.0666 132.551 66.9826 132.215C66.8986 131.879 66.7586 131.646 66.5626 131.515C66.3759 131.375 66.1286 131.305 65.8206 131.305C65.4846 131.305 65.1673 131.38 64.8686 131.529C64.5699 131.669 64.2246 131.879 63.8326 132.159L63.6366 131.263C63.8513 131.011 64.1079 130.787 64.4066 130.591C64.7146 130.395 65.0459 130.241 65.4006 130.129C65.7553 130.017 66.1099 129.961 66.4646 129.961ZM63.5666 130.129L63.7346 131.459L63.8886 131.655V136.093L63.8186 136.261C63.8466 136.532 63.8653 136.802 63.8746 137.073C63.8839 137.353 63.8886 137.638 63.8886 137.927V139.733H62.1946V130.129H63.5666ZM73.1541 128.169V134.931C73.1541 135.22 73.2147 135.426 73.3361 135.547C73.4667 135.668 73.6861 135.729 73.9941 135.729H74.9461L75.1281 136.919C74.9694 136.966 74.7781 137.008 74.5541 137.045C74.3301 137.082 74.1107 137.106 73.8961 137.115C73.6814 137.134 73.4994 137.143 73.3501 137.143C72.7527 137.143 72.2861 136.984 71.9501 136.667C71.6234 136.34 71.4601 135.874 71.4601 135.267V128.169H73.1541ZM75.1981 130.129V131.305H70.2421V130.199L71.5861 130.129H75.1981Z" fill="#333839"/>
<path d="M90.3996 53.6045L53.7441 90.2501" stroke="white" stroke-width="6.29" stroke-miterlimit="10"/>
<path d="M90.3996 53.6045L53.7441 90.2501" stroke="#563F64" stroke-width="3.42" stroke-miterlimit="10"/>
<path d="M8.6601 52.6614L6 50.0013L45.9905 10.001" stroke="white" stroke-width="6.29" stroke-miterlimit="10"/>
<path d="M8.6601 52.6614L6 50.0013L45.9905 10.001" stroke="#563F64" stroke-width="3.42" stroke-miterlimit="10"/>
<path d="M68.6358 87.9313H31.3153L12 68.6358V31.3153L31.3153 12H68.6358L87.9512 31.3153V68.6358L68.6358 87.9313Z" fill="#563F64"/>
<path d="M53.7425 90.2506L50.0005 94.0025L8.66016 52.6621" stroke="white" stroke-width="6.29" stroke-miterlimit="10"/>
<path d="M53.7425 90.2506L50.0005 94.0025L8.66016 52.6621" stroke="#563F64" stroke-width="3.42" stroke-miterlimit="10"/>
<path d="M45.9893 10L49.9992 6L93.9997 50.0004L90.3967 53.6034" stroke="white" stroke-width="6.29" stroke-miterlimit="10"/>
<path d="M45.9893 10L49.9992 6L93.9997 50.0004L90.3967 53.6034" stroke="#563F64" stroke-width="3.42" stroke-miterlimit="10"/>
<path d="M55.3392 54.658C54.9907 54.3675 54.6402 54.065 54.2783 53.7757C53.8298 53.4172 53.3194 53.3199 52.7783 53.5038C52.5563 53.5728 52.3541 53.6939 52.1885 53.857C51.7 54.3902 51.2436 54.9486 50.7671 55.507L51.1909 55.8716L51.0117 56.0895C50.5452 56.6552 50.6012 57.313 51.1596 57.7834C52.1001 58.5756 53.0419 59.3666 53.9851 60.1565C54.4689 60.563 54.9541 60.9675 55.4365 61.3753C56.0276 61.8744 56.4068 61.9084 57.1098 61.4719C57.0752 61.9164 57.1845 62.3343 57.0212 62.7381C56.974 62.8593 56.8944 62.9653 56.7911 63.0443C56.6878 63.1234 56.5648 63.1726 56.4355 63.1866C56.3201 63.2014 56.2039 63.2078 56.0876 63.2059C50.9257 63.2059 45.7638 63.2059 40.6019 63.2059C40.4856 63.208 40.3694 63.2018 40.254 63.1872C40.0797 63.1626 39.9192 63.0789 39.7992 62.9501C39.6792 62.8213 39.6071 62.6551 39.595 62.4795C39.5876 62.3889 39.589 62.2969 39.589 62.2056V40.9969C39.589 40.9056 39.589 40.8137 39.5956 40.7224C39.6123 40.5389 39.6934 40.3672 39.8245 40.2376C39.9556 40.1081 40.1283 40.0292 40.312 40.0147C40.4113 40.0073 40.5119 40.0093 40.6112 40.0093C45.7645 40.0093 50.9184 40.0173 56.0716 40C56.8553 40 57.1158 40.4465 57.1125 41.0416C57.0952 44.127 57.1058 47.2117 57.0998 50.2972C57.0998 50.4371 57.0332 50.579 56.9899 50.7163C56.85 51.1481 56.67 51.57 56.5707 52.0105C56.3661 52.9214 56.0596 53.7797 55.4825 54.5248C55.4572 54.5574 55.4319 54.5914 55.4039 54.6214C55.3939 54.6334 55.3752 54.6374 55.3392 54.658ZM48.3341 41.3035C47.8153 41.3049 47.302 41.4085 46.8233 41.6084C46.3447 41.8084 45.9101 42.1007 45.5445 42.4687C45.179 42.8367 44.8895 43.2732 44.6927 43.7531C44.4959 44.2331 44.3957 44.7471 44.3977 45.2659C44.4066 46.3094 44.827 47.3073 45.5674 48.0427C46.3078 48.7781 47.3085 49.1917 48.3521 49.1936C48.8711 49.1917 49.3846 49.0874 49.8632 48.8868C50.3418 48.6861 50.7762 48.393 51.1414 48.0243C51.5066 47.6556 51.7955 47.2184 51.9915 46.7379C52.1876 46.2573 52.2869 45.7429 52.2838 45.2239C52.2823 44.707 52.1789 44.1955 51.9796 43.7186C51.7802 43.2417 51.4887 42.8088 51.1219 42.4447C50.755 42.0805 50.32 41.7923 49.8416 41.5965C49.3632 41.4007 48.851 41.3011 48.3341 41.3035ZM45.6825 57.6682C46.8944 57.6682 48.1068 57.6682 49.3197 57.6682C49.5269 57.6682 49.7355 57.6762 49.9421 57.6642C50.2086 57.6482 50.3559 57.4856 50.3419 57.2523C50.3279 57.0191 50.1667 56.8905 49.8934 56.8891C48.9798 56.8891 48.0662 56.8891 47.1532 56.8891C45.2682 56.8891 43.3832 56.8891 41.4982 56.8891C41.1996 56.8891 41.017 57.0397 41.0164 57.2756C41.0157 57.5116 41.1956 57.6582 41.4962 57.6682C41.5542 57.6682 41.6121 57.6682 41.6708 57.6682H45.6825ZM45.6685 53.6491H49.7582C50.1653 53.6491 50.3393 53.5392 50.3466 53.2779C50.3546 53.0027 50.1753 52.8821 49.7562 52.8821H41.5981C41.5069 52.8773 41.4154 52.8815 41.3249 52.8948C41.2368 52.907 41.1565 52.9522 41.1003 53.0211C41.0441 53.0901 41.016 53.1778 41.0217 53.2666C41.0171 53.3555 41.0458 53.443 41.1023 53.5119C41.1587 53.5808 41.2388 53.6261 41.3269 53.6391C41.4092 53.6506 41.4925 53.6537 41.5755 53.6485L45.6685 53.6491ZM45.7091 54.8866H41.6161C41.2023 54.8866 41.0117 55.0119 41.0164 55.2791C41.021 55.5464 41.2036 55.6576 41.6075 55.6576H49.7628C49.8541 55.6618 49.9456 55.6576 50.036 55.645C50.1243 55.6344 50.2051 55.5905 50.262 55.5222C50.3189 55.4539 50.3475 55.3665 50.3419 55.2778C50.3483 55.1892 50.3213 55.1014 50.2663 55.0317C50.2114 54.9619 50.1323 54.9152 50.0447 54.9006C49.9628 54.8871 49.8796 54.8833 49.7968 54.8893L45.7091 54.8866ZM45.6685 51.6466H49.8088C49.8835 51.6523 49.9586 51.6497 50.0327 51.6386C50.2326 51.5906 50.3519 51.462 50.3453 51.2481C50.3486 51.1593 50.3178 51.0726 50.2594 51.0058C50.2009 50.9389 50.1191 50.8968 50.0307 50.8882C49.9483 50.8774 49.8652 50.8736 49.7822 50.8769C47.0553 50.8769 44.3286 50.8769 41.6021 50.8769C41.5108 50.8731 41.4193 50.878 41.3289 50.8916C41.0377 50.9496 40.9091 51.3087 41.125 51.506C41.2409 51.5945 41.3831 51.6414 41.5288 51.6393C42.9056 51.6499 44.2857 51.6466 45.6685 51.6466ZM43.0942 58.8923C42.5458 58.8923 41.9973 58.8877 41.4489 58.8923C41.1896 58.8923 41.0177 59.0603 41.0184 59.2808C41.0186 59.3332 41.0294 59.385 41.0502 59.4331C41.0709 59.4812 41.1012 59.5245 41.1392 59.5606C41.1772 59.5966 41.2221 59.6246 41.2712 59.6429C41.3203 59.6611 41.3726 59.6692 41.4249 59.6667C42.5382 59.6729 43.652 59.6729 44.7662 59.6667C44.8547 59.6724 44.9424 59.6463 45.0135 59.5932C45.0846 59.5401 45.1344 59.4633 45.154 59.3768C45.2287 59.1102 45.0374 58.8937 44.7155 58.891C44.1751 58.8883 43.6347 58.8923 43.0942 58.8923ZM43.0942 60.9008C42.5611 60.9008 42.028 60.9008 41.4989 60.9008C41.1963 60.9008 41.0177 61.0514 41.0184 61.288C41.019 61.5246 41.201 61.6739 41.4995 61.6745C42.5658 61.6745 43.6295 61.6745 44.6909 61.6745C44.9888 61.6745 45.172 61.5233 45.172 61.2874C45.172 61.0514 44.9928 60.9028 44.6902 60.9008C44.1584 60.8988 43.6267 60.9008 43.0942 60.9008Z" fill="white"/>
<path d="M55.5069 63.973C55.4923 64.4394 55.1864 64.7547 54.7586 64.7726C54.6839 64.7766 54.6093 64.7726 54.5347 64.7726C49.3548 64.7726 44.1749 64.7653 38.9956 64.782C38.2999 64.782 37.996 64.3468 38 63.7977C38.012 56.7028 38.0147 49.6079 38.008 42.513C38.008 41.9459 38.2646 41.64 38.8077 41.5947V41.9073C38.8077 48.6947 38.8077 55.482 38.8077 62.269C38.8077 63.164 39.3088 63.8017 40.1272 63.949C40.2672 63.9679 40.4085 63.9748 40.5497 63.9696C45.4366 63.9696 50.3253 63.9696 55.2157 63.9696L55.5069 63.973Z" fill="white"/>
<path d="M57.2532 56.2667L55.957 55.1784C56.7507 54.2115 57.1612 53.1039 57.3691 51.9058C57.5604 50.8062 58.3907 50.0765 59.4736 50.0312C59.9719 50.0104 60.4622 50.1613 60.8625 50.4588C61.2628 50.7562 61.5488 51.1821 61.6727 51.6652C61.8109 52.1756 61.7587 52.7189 61.5257 53.1936C61.2927 53.6683 60.8949 54.0419 60.4066 54.2448C59.5522 54.6013 58.7246 54.9972 58.0075 55.5903C57.7556 55.7962 57.5237 56.0221 57.2532 56.2667Z" fill="white"/>
<path d="M57.7297 60.3345L51.8594 55.4092C52.1479 55.0707 52.4145 54.7295 52.7117 54.4183C53.0089 54.1071 53.4721 54.1064 53.8386 54.4103C54.6962 55.122 55.5472 55.8403 56.4009 56.5561C57.0508 57.1007 57.7001 57.6454 58.3487 58.1901C58.8086 58.5799 58.8472 59.037 58.4647 59.4955C58.2408 59.7621 58.0135 60.0286 57.7876 60.2952C57.7698 60.3104 57.7504 60.3236 57.7297 60.3345Z" fill="white"/>
<path d="M56.8176 60.5892C56.7543 60.6699 56.7056 60.7358 56.653 60.7978C56.4431 61.0457 56.2651 61.0644 56.0146 60.8525C55.2762 60.2327 54.5376 59.6119 53.7988 58.9899C53.1364 58.4337 52.4742 57.8783 51.8123 57.3239C51.3538 56.9401 51.3458 56.8314 51.8003 56.377L56.8176 60.5892Z" fill="white"/>
<path d="M45.1787 45.2423C45.1814 44.4016 45.517 43.5962 46.1121 43.0024C46.7073 42.4087 47.5134 42.0749 48.3541 42.0742C50.0927 42.0809 51.5275 43.5296 51.5155 45.2656C51.5076 46.1022 51.1702 46.9019 50.5765 47.4913C49.9828 48.0808 49.1807 48.4124 48.3441 48.4143C47.9277 48.4149 47.5153 48.3333 47.1305 48.174C46.7457 48.0147 46.3963 47.781 46.1021 47.4862C45.808 47.1914 45.575 46.8415 45.4165 46.4564C45.258 46.0713 45.1772 45.6587 45.1787 45.2423ZM47.711 45.7661C47.5191 45.5661 47.3498 45.3855 47.1726 45.2123C46.978 45.0224 46.7661 45.0124 46.6008 45.1663C46.4356 45.3202 46.4389 45.5601 46.6321 45.7581C46.8754 46.008 47.1226 46.2539 47.3705 46.4984C47.6184 46.743 47.8203 46.745 48.0742 46.4924C48.6273 45.942 49.1789 45.3904 49.7289 44.8378C49.8622 44.7045 50.0061 44.5712 50.1287 44.4266C50.1606 44.3905 50.1849 44.3484 50.2003 44.3028C50.2158 44.2572 50.2219 44.209 50.2185 44.161C50.2151 44.113 50.2022 44.0662 50.1805 44.0232C50.1588 43.9802 50.1287 43.942 50.0921 43.9108C50.0265 43.8451 49.9386 43.8067 49.8458 43.8032C49.7531 43.7998 49.6625 43.8315 49.5923 43.8921C49.5278 43.9443 49.4677 44.0016 49.4123 44.0634L47.711 45.7661Z" fill="white"/>
</g>
</svg>
