<svg width="100" height="156" viewBox="0 0 100 156" fill="none" xmlns="http://www.w3.org/2000/svg">
<g opacity="0.2">
<rect width="100" height="156" rx="19" fill="#F9FBFF"/>
<path d="M39.8215 109.343C39.9709 109.343 40.1015 109.385 40.2135 109.469C40.3255 109.553 40.4049 109.665 40.4515 109.805L43.3775 119.003H41.5855L39.3735 111.555C39.3362 111.405 39.2989 111.256 39.2615 111.107C39.2242 110.957 39.1915 110.813 39.1635 110.673H38.7715C38.7435 110.813 38.7109 110.957 38.6735 111.107C38.6362 111.256 38.5942 111.405 38.5475 111.555L36.3495 119.003H34.5575L37.4835 109.805C37.5209 109.665 37.5955 109.553 37.7075 109.469C37.8289 109.385 37.9642 109.343 38.1135 109.343H39.8215ZM41.4455 114.873V116.245H36.4755V114.873H41.4455ZM46.0466 112.129V116.777C46.0373 117.122 46.1026 117.369 46.2426 117.519C46.392 117.668 46.63 117.743 46.9566 117.743C47.2833 117.743 47.61 117.673 47.9366 117.533C48.2633 117.393 48.66 117.183 49.1266 116.903L49.2946 117.911C48.772 118.331 48.268 118.648 47.7826 118.863C47.2973 119.077 46.7933 119.185 46.2706 119.185C44.992 119.185 44.3526 118.555 44.3526 117.295V112.129H46.0466ZM50.6526 112.129V119.003H49.3086L49.1266 117.673L48.9586 117.477V112.129H50.6526ZM54.8247 110.169V116.931C54.8247 117.22 54.8854 117.425 55.0067 117.547C55.1374 117.668 55.3567 117.729 55.6647 117.729H56.6167L56.7987 118.919C56.6401 118.965 56.4487 119.007 56.2247 119.045C56.0007 119.082 55.7814 119.105 55.5667 119.115C55.3521 119.133 55.1701 119.143 55.0207 119.143C54.4234 119.143 53.9567 118.984 53.6207 118.667C53.2941 118.34 53.1307 117.873 53.1307 117.267V110.169H54.8247ZM56.8687 112.129V113.305H51.9127V112.199L53.2567 112.129H56.8687ZM61.2292 111.961C62.0692 111.961 62.7365 112.077 63.2312 112.311C63.7352 112.544 64.0945 112.927 64.3092 113.459C64.5332 113.991 64.6452 114.695 64.6452 115.573C64.6452 116.45 64.5332 117.155 64.3092 117.687C64.0945 118.209 63.7352 118.592 63.2312 118.835C62.7365 119.068 62.0692 119.185 61.2292 119.185C60.4079 119.185 59.7452 119.068 59.2412 118.835C58.7465 118.592 58.3872 118.209 58.1632 117.687C57.9392 117.155 57.8272 116.45 57.8272 115.573C57.8272 114.695 57.9392 113.991 58.1632 113.459C58.3872 112.927 58.7465 112.544 59.2412 112.311C59.7452 112.077 60.4079 111.961 61.2292 111.961ZM61.2292 113.249C60.8185 113.249 60.4919 113.319 60.2492 113.459C60.0159 113.589 59.8479 113.823 59.7452 114.159C59.6425 114.495 59.5912 114.966 59.5912 115.573C59.5912 116.179 59.6425 116.651 59.7452 116.987C59.8479 117.323 60.0159 117.556 60.2492 117.687C60.4919 117.817 60.8185 117.883 61.2292 117.883C61.6492 117.883 61.9805 117.817 62.2232 117.687C62.4659 117.556 62.6339 117.323 62.7272 116.987C62.8299 116.651 62.8812 116.179 62.8812 115.573C62.8812 114.966 62.8299 114.495 62.7272 114.159C62.6339 113.823 62.4659 113.589 62.2232 113.459C61.9805 113.319 61.6492 113.249 61.2292 113.249ZM27.243 127.343V137.003H25.493V127.343H27.243ZM30.239 127.343V128.771H22.497V127.343H30.239ZM31.6218 130.129L31.8458 131.473L31.9998 131.669V137.003H30.3058V130.129H31.6218ZM34.9818 129.961L34.8138 131.529H34.3238C33.9598 131.529 33.5911 131.589 33.2178 131.711C32.8444 131.832 32.3778 132.014 31.8178 132.257L31.7058 131.263C32.1911 130.852 32.6858 130.535 33.1898 130.311C33.6938 130.077 34.1791 129.961 34.6458 129.961H34.9818ZM39.5606 129.961C40.1113 129.961 40.5733 130.035 40.9466 130.185C41.3293 130.325 41.6186 130.567 41.8146 130.913C42.0106 131.258 42.1086 131.734 42.1086 132.341V137.003H40.7646L40.5266 135.519L40.4006 135.323V132.327C40.4006 131.963 40.3166 131.701 40.1486 131.543C39.9806 131.375 39.6586 131.291 39.1826 131.291C38.828 131.291 38.38 131.305 37.8386 131.333C37.3066 131.361 36.77 131.398 36.2286 131.445L36.0746 130.283C36.4013 130.217 36.77 130.161 37.1806 130.115C37.5913 130.068 38.0066 130.031 38.4266 130.003C38.8466 129.975 39.2246 129.961 39.5606 129.961ZM41.3806 132.775L41.3666 133.825H38.2166C37.9366 133.834 37.736 133.909 37.6146 134.049C37.4933 134.189 37.4326 134.38 37.4326 134.623V135.001C37.4326 135.281 37.5073 135.495 37.6566 135.645C37.806 135.785 38.0393 135.855 38.3566 135.855C38.6086 135.855 38.8886 135.803 39.1966 135.701C39.5046 135.598 39.808 135.449 40.1066 135.253C40.4146 135.057 40.69 134.823 40.9326 134.553V135.435C40.8393 135.575 40.704 135.743 40.5266 135.939C40.3493 136.125 40.13 136.312 39.8686 136.499C39.6166 136.685 39.3226 136.839 38.9866 136.961C38.66 137.082 38.296 137.143 37.8946 137.143C37.484 137.143 37.1153 137.073 36.7886 136.933C36.462 136.783 36.2053 136.569 36.0186 136.289C35.832 135.999 35.7386 135.645 35.7386 135.225V134.497C35.7386 133.955 35.916 133.535 36.2706 133.237C36.6346 132.929 37.1293 132.775 37.7546 132.775H41.3806ZM48.4723 129.961C49.751 129.961 50.3903 130.591 50.3903 131.851V137.003H48.6963V132.369C48.6963 131.995 48.631 131.739 48.5003 131.599C48.3696 131.459 48.1503 131.389 47.8423 131.389C47.497 131.389 47.1423 131.468 46.7783 131.627C46.4143 131.776 45.9756 131.995 45.4623 132.285L45.3923 131.263C45.8963 130.843 46.4096 130.521 46.9323 130.297C47.455 130.073 47.9683 129.961 48.4723 129.961ZM45.3363 130.129L45.5043 131.473L45.6443 131.669V137.003H43.9503V130.129H45.3363ZM54.7271 129.961C55.0444 129.961 55.3851 129.97 55.7491 129.989C56.1224 130.007 56.4864 130.035 56.8411 130.073C57.1958 130.101 57.5131 130.143 57.7931 130.199L57.6811 131.305C57.2331 131.295 56.7851 131.286 56.3371 131.277C55.8984 131.258 55.4644 131.249 55.0351 131.249C54.6524 131.249 54.3491 131.258 54.1251 131.277C53.9104 131.295 53.7564 131.351 53.6631 131.445C53.5791 131.538 53.5371 131.697 53.5371 131.921C53.5371 132.191 53.6118 132.373 53.7611 132.467C53.9104 132.551 54.1531 132.635 54.4891 132.719L56.3651 133.153C56.9251 133.293 57.3404 133.507 57.6111 133.797C57.8818 134.077 58.0171 134.511 58.0171 135.099C58.0171 135.668 57.9098 136.102 57.6951 136.401C57.4898 136.69 57.1584 136.891 56.7011 137.003C56.2531 137.105 55.6791 137.157 54.9791 137.157C54.7084 137.157 54.3071 137.143 53.7751 137.115C53.2431 137.096 52.6598 137.035 52.0251 136.933L52.1371 135.827C52.3238 135.827 52.5431 135.831 52.7951 135.841C53.0564 135.85 53.3318 135.855 53.6211 135.855C53.9198 135.855 54.2231 135.855 54.5311 135.855C55.0258 135.855 55.4038 135.841 55.6651 135.813C55.9358 135.775 56.1224 135.705 56.2251 135.603C56.3278 135.491 56.3791 135.332 56.3791 135.127C56.3791 134.865 56.2904 134.693 56.1131 134.609C55.9451 134.515 55.6931 134.427 55.3571 134.343L53.5231 133.895C53.1031 133.783 52.7764 133.643 52.5431 133.475C52.3098 133.297 52.1418 133.083 52.0391 132.831C51.9364 132.569 51.8851 132.252 51.8851 131.879C51.8851 131.375 51.9784 130.983 52.1651 130.703C52.3611 130.423 52.6644 130.227 53.0751 130.115C53.4951 130.003 54.0458 129.951 54.7271 129.961ZM62.2799 126.937C62.4386 126.937 62.6439 126.941 62.8959 126.951C63.1572 126.96 63.4232 126.974 63.6939 126.993C63.9646 127.002 64.1932 127.025 64.3799 127.063L64.2399 128.197H62.8819C62.4899 128.197 62.2146 128.276 62.0559 128.435C61.8972 128.593 61.8179 128.859 61.8179 129.233V137.003H60.1239V129.023C60.1239 128.584 60.1939 128.211 60.3339 127.903C60.4739 127.595 60.7026 127.357 61.0199 127.189C61.3372 127.021 61.7572 126.937 62.2799 126.937ZM63.8619 130.129V131.305H58.9059V130.199L60.1799 130.129H63.8619ZM68.03 129.961C69.1406 129.961 69.9386 130.157 70.424 130.549C70.9093 130.931 71.1566 131.501 71.166 132.257C71.1753 132.882 71.026 133.358 70.718 133.685C70.4193 134.002 69.92 134.161 69.22 134.161H65.3V133.111H68.758C69.0753 133.111 69.276 133.027 69.36 132.859C69.4533 132.691 69.5 132.485 69.5 132.243C69.4906 131.86 69.3786 131.594 69.164 131.445C68.9586 131.295 68.604 131.221 68.1 131.221C67.6613 131.221 67.3206 131.281 67.078 131.403C66.8353 131.524 66.6626 131.743 66.56 132.061C66.4666 132.378 66.42 132.835 66.42 133.433C66.42 134.067 66.4806 134.557 66.602 134.903C66.7233 135.248 66.924 135.486 67.204 135.617C67.484 135.738 67.8573 135.799 68.324 135.799C68.6693 135.799 69.066 135.785 69.514 135.757C69.9713 135.729 70.41 135.691 70.83 135.645L70.998 136.723C70.746 136.825 70.4566 136.909 70.13 136.975C69.8033 137.04 69.4626 137.087 69.108 137.115C68.7626 137.152 68.436 137.171 68.128 137.171C67.288 137.171 66.6113 137.049 66.098 136.807C65.594 136.555 65.2253 136.163 64.992 135.631C64.768 135.099 64.656 134.413 64.656 133.573C64.656 132.667 64.768 131.953 64.992 131.431C65.2253 130.899 65.5893 130.521 66.084 130.297C66.588 130.073 67.2366 129.961 68.03 129.961ZM74.0046 130.129L74.2286 131.473L74.3826 131.669V137.003H72.6886V130.129H74.0046ZM77.3646 129.961L77.1966 131.529H76.7066C76.3426 131.529 75.9739 131.589 75.6006 131.711C75.2272 131.832 74.7606 132.014 74.2006 132.257L74.0886 131.263C74.5739 130.852 75.0686 130.535 75.5726 130.311C76.0766 130.077 76.5619 129.961 77.0286 129.961H77.3646Z" fill="#333839"/>
<path d="M90.3996 53.6044L53.7441 90.2499" stroke="white" stroke-width="6.29" stroke-miterlimit="10"/>
<path d="M90.3996 53.6044L53.7441 90.2499" stroke="#657AD0" stroke-width="3.42" stroke-miterlimit="10"/>
<path d="M8.6601 52.6618L6 50.0017L45.9905 10.0013" stroke="white" stroke-width="6.29" stroke-miterlimit="10"/>
<path d="M8.6601 52.6618L6 50.0017L45.9905 10.0013" stroke="#657AD0" stroke-width="3.42" stroke-miterlimit="10"/>
<path d="M68.6358 87.9313H31.3153L12 68.6358V31.3153L31.3153 12H68.6358L87.9512 31.3153V68.6358L68.6358 87.9313Z" fill="#657AD0"/>
<path d="M53.742 90.2507L50.0001 94.0026L8.65967 52.6622" stroke="white" stroke-width="6.29" stroke-miterlimit="10"/>
<path d="M53.742 90.2507L50.0001 94.0026L8.65967 52.6622" stroke="#657AD0" stroke-width="3.42" stroke-miterlimit="10"/>
<path d="M45.9897 10L49.9997 6L94.0002 50.0004L90.3972 53.6034" stroke="white" stroke-width="6.29" stroke-miterlimit="10"/>
<path d="M45.9897 10L49.9997 6L94.0002 50.0004L90.3972 53.6034" stroke="#657AD0" stroke-width="3.42" stroke-miterlimit="10"/>
<path d="M49.9726 59.3805C46.8184 59.3805 43.6641 59.3805 40.5099 59.3805C40.0468 59.3986 39.5849 59.3222 39.1522 59.156C38.7196 58.9898 38.3253 58.7373 37.9935 58.4138C37.6685 58.0958 37.4126 57.7142 37.2419 57.2929C37.0711 56.8715 36.9892 56.4194 37.0011 55.9649C37.0011 50.7713 37.0011 45.5757 37.0011 40.382C37.0011 38.434 38.443 37.0158 40.3929 37.0049C42.3429 36.9939 44.2836 37.0049 46.2299 37.0049C46.7991 36.9895 47.3627 37.1205 47.8667 37.3855C48.3707 37.6504 48.7982 38.0404 49.1082 38.518C49.4097 38.953 49.7259 39.3769 50.011 39.821C50.3764 40.4003 50.9009 40.6397 51.5844 40.6379C54.2178 40.6251 56.853 40.6379 59.4882 40.6379C60.6816 40.6379 61.6575 41.06 62.372 42.0323C62.7981 42.6281 63.0182 43.3467 62.9988 44.079C62.9988 48.0355 62.9988 51.992 62.9988 55.9576C62.9988 57.7084 61.9133 59.0241 60.2576 59.3403C59.9877 59.3842 59.7141 59.4026 59.4407 59.3951C56.2792 59.3878 53.1231 59.3829 49.9726 59.3805ZM48.2675 53.3261H48.655C49.7515 53.3261 50.8479 53.3261 51.9444 53.3261C52.1137 53.33 52.2826 53.3078 52.4452 53.2603C52.6419 53.1882 52.8069 53.049 52.9109 52.867C53.0149 52.6851 53.0513 52.4723 53.0135 52.2661C52.9774 52.0649 52.8729 51.8822 52.7178 51.7491C52.5626 51.6159 52.3663 51.5403 52.1619 51.5351C50.9832 51.5351 49.8026 51.5351 48.6239 51.5351H48.326C48.3352 51.484 48.326 51.4712 48.3388 51.4657C48.4064 51.3889 48.4777 51.314 48.5453 51.2354C48.7029 51.0643 48.7894 50.8396 48.787 50.607C48.7846 50.3744 48.6936 50.1514 48.5325 49.9836C48.3694 49.8153 48.1461 49.7187 47.9117 49.7149C47.6773 49.7111 47.451 49.8005 47.2825 49.9635C46.6502 50.5727 46.0301 51.1934 45.4222 51.8257C45.2625 51.9854 45.1728 52.202 45.1728 52.4279C45.1728 52.6537 45.2625 52.8703 45.4222 53.03C46.0313 53.6696 46.6581 54.2971 47.3026 54.9123C47.4715 55.0674 47.6939 55.1511 47.9231 55.146C48.1523 55.1409 48.3707 55.0473 48.5325 54.8849C48.6925 54.7223 48.7859 54.5058 48.7943 54.2779C48.8028 54.05 48.7257 53.8272 48.5782 53.6532C48.4814 53.5545 48.3973 53.4704 48.2621 53.3261H48.2675ZM51.7489 48.4851C51.6191 48.6221 51.5479 48.6952 51.4784 48.772C51.3176 48.9401 51.2269 49.1631 51.2249 49.3957C51.2228 49.6283 51.3096 49.853 51.4674 50.0238C51.5486 50.1115 51.6465 50.1819 51.7555 50.2308C51.8645 50.2798 51.9822 50.3062 52.1016 50.3086C52.2211 50.311 52.3397 50.2893 52.4506 50.2448C52.5614 50.2002 52.6621 50.1338 52.7467 50.0494C53.3717 49.4463 53.9857 48.8323 54.5888 48.2073C54.6727 48.126 54.7392 48.0285 54.7844 47.9207C54.8295 47.813 54.8523 47.6972 54.8515 47.5803C54.8506 47.4635 54.8261 47.3481 54.7794 47.241C54.7327 47.1339 54.6647 47.0374 54.5796 46.9573C53.9827 46.3408 53.3735 45.7317 52.7522 45.1298C52.669 45.0443 52.5696 44.9763 52.4598 44.9298C52.3499 44.8834 52.2318 44.8595 52.1125 44.8595C51.9933 44.8595 51.8752 44.8834 51.7653 44.9298C51.6555 44.9763 51.556 45.0443 51.4729 45.1298C51.3067 45.3018 51.2146 45.5321 51.2163 45.7713C51.218 46.0105 51.3134 46.2395 51.4821 46.4091L51.7251 46.6759H51.3596C50.2266 46.6759 49.0954 46.6759 47.9624 46.6759C47.3648 46.6759 46.9828 47.0414 46.9847 47.5768C46.9865 48.1123 47.3794 48.4705 47.9678 48.4705H51.7416L51.7489 48.4851Z" fill="white"/>
</g>
</svg>
