<svg width="100" height="156" viewBox="0 0 100 156" fill="none" xmlns="http://www.w3.org/2000/svg">
<g opacity="0.2">
<rect width="100" height="156" rx="19" fill="#F9FBFF"/>
<path d="M24.6212 109.231C25.4425 109.231 26.0959 109.305 26.5812 109.455C27.0665 109.595 27.4165 109.847 27.6312 110.211C27.8552 110.575 27.9672 111.088 27.9672 111.751C27.9672 112.441 27.8365 112.969 27.5752 113.333C27.3139 113.697 26.8845 113.907 26.2872 113.963V114.019C27.0245 114.084 27.5379 114.336 27.8272 114.775C28.1259 115.213 28.2752 115.82 28.2752 116.595C28.2752 117.257 28.1632 117.771 27.9392 118.135C27.7245 118.499 27.3792 118.755 26.9032 118.905C26.4365 119.045 25.8252 119.115 25.0692 119.115C24.4812 119.115 23.9679 119.11 23.5292 119.101C23.0905 119.101 22.6892 119.091 22.3252 119.073C21.9612 119.054 21.5832 119.031 21.1912 119.003L21.3872 117.729C21.6112 117.738 22.0265 117.747 22.6332 117.757C23.2399 117.766 23.9539 117.771 24.7752 117.771C25.2139 117.771 25.5592 117.733 25.8112 117.659C26.0632 117.575 26.2405 117.425 26.3432 117.211C26.4552 116.987 26.5112 116.674 26.5112 116.273C26.5112 115.825 26.4552 115.484 26.3432 115.251C26.2312 115.008 26.0445 114.84 25.7832 114.747C25.5312 114.644 25.1719 114.593 24.7052 114.593H21.3732V113.403H24.6912C25.0925 113.403 25.4052 113.365 25.6292 113.291C25.8625 113.207 26.0305 113.062 26.1332 112.857C26.2359 112.651 26.2872 112.357 26.2872 111.975C26.2872 111.592 26.2312 111.298 26.1192 111.093C26.0165 110.887 25.8392 110.752 25.5872 110.687C25.3352 110.612 24.9852 110.575 24.5372 110.575C24.0425 110.575 23.6039 110.575 23.2212 110.575C22.8385 110.575 22.4979 110.579 22.1992 110.589C21.9005 110.589 21.6299 110.598 21.3872 110.617L21.1912 109.343C21.5459 109.305 21.8819 109.282 22.1992 109.273C22.5259 109.254 22.8805 109.245 23.2632 109.245C23.6552 109.235 24.1079 109.231 24.6212 109.231ZM22.8992 109.343V119.003H21.1912V109.343H22.8992ZM32.0669 112.129V119.003H30.3869V112.129H32.0669ZM31.6049 109.147C31.9409 109.147 32.1089 109.315 32.1089 109.651V110.435C32.1089 110.771 31.9409 110.939 31.6049 110.939H30.8489C30.5129 110.939 30.3449 110.771 30.3449 110.435V109.651C30.3449 109.315 30.5129 109.147 30.8489 109.147H31.6049ZM36.1503 109.203L36.1363 116.931C36.1363 117.192 36.211 117.393 36.3603 117.533C36.5097 117.663 36.7243 117.729 37.0043 117.729H37.6063L37.8023 118.919C37.6997 118.965 37.555 119.007 37.3683 119.045C37.191 119.082 37.0043 119.105 36.8083 119.115C36.6217 119.133 36.4583 119.143 36.3183 119.143C35.749 119.143 35.2963 118.989 34.9603 118.681C34.6243 118.373 34.4563 117.929 34.4563 117.351V109.203H36.1503ZM40.9863 109.203L40.9723 116.931C40.9723 117.192 41.047 117.393 41.1963 117.533C41.3457 117.663 41.5603 117.729 41.8403 117.729H42.4423L42.6383 118.919C42.5357 118.965 42.391 119.007 42.2043 119.045C42.027 119.082 41.8403 119.105 41.6443 119.115C41.4577 119.133 41.2943 119.143 41.1543 119.143C40.585 119.143 40.1323 118.989 39.7963 118.681C39.4603 118.373 39.2923 117.929 39.2923 117.351V109.203H40.9863ZM59.2977 109.343L57.5617 118.513C57.5243 118.653 57.445 118.769 57.3237 118.863C57.2117 118.956 57.0717 119.003 56.9037 119.003H55.1677C55.009 119.003 54.869 118.956 54.7477 118.863C54.6263 118.769 54.5563 118.648 54.5377 118.499L53.2637 111.793C53.2263 111.587 53.1937 111.387 53.1657 111.191C53.1377 110.995 53.1097 110.799 53.0817 110.603H52.8017C52.7737 110.799 52.741 110.999 52.7037 111.205C52.6757 111.401 52.6477 111.597 52.6197 111.793L51.3597 118.499C51.3317 118.648 51.257 118.769 51.1357 118.863C51.0143 118.956 50.8743 119.003 50.7157 119.003H48.9657C48.7977 119.003 48.653 118.956 48.5317 118.863C48.4197 118.769 48.3497 118.653 48.3217 118.513L46.5857 109.343H48.3777L49.5957 116.413C49.6237 116.599 49.647 116.805 49.6657 117.029C49.6937 117.253 49.7217 117.481 49.7497 117.715H50.0437C50.081 117.5 50.1183 117.281 50.1557 117.057C50.193 116.823 50.2303 116.604 50.2677 116.399L51.5137 109.889C51.5323 109.721 51.6023 109.59 51.7237 109.497C51.845 109.394 51.985 109.343 52.1437 109.343H53.7257C53.8937 109.343 54.0337 109.394 54.1457 109.497C54.2577 109.59 54.3323 109.721 54.3697 109.889L55.6157 116.413C55.6623 116.627 55.6997 116.847 55.7277 117.071C55.765 117.295 55.7977 117.509 55.8257 117.715H56.1337C56.1523 117.5 56.1757 117.281 56.2037 117.057C56.2317 116.833 56.2597 116.623 56.2877 116.427L57.5057 109.343H59.2977ZM62.7958 112.129V119.003H61.1158V112.129H62.7958ZM62.3338 109.147C62.6698 109.147 62.8378 109.315 62.8378 109.651V110.435C62.8378 110.771 62.6698 110.939 62.3338 110.939H61.5778C61.2418 110.939 61.0738 110.771 61.0738 110.435V109.651C61.0738 109.315 61.2418 109.147 61.5778 109.147H62.3338ZM67.6492 111.961C67.9666 111.961 68.3072 111.97 68.6712 111.989C69.0446 112.007 69.4086 112.035 69.7632 112.073C70.1179 112.101 70.4352 112.143 70.7152 112.199L70.6032 113.305C70.1552 113.295 69.7072 113.286 69.2592 113.277C68.8206 113.258 68.3866 113.249 67.9572 113.249C67.5746 113.249 67.2712 113.258 67.0472 113.277C66.8326 113.295 66.6786 113.351 66.5852 113.445C66.5012 113.538 66.4592 113.697 66.4592 113.921C66.4592 114.191 66.5339 114.373 66.6832 114.467C66.8326 114.551 67.0752 114.635 67.4112 114.719L69.2872 115.153C69.8472 115.293 70.2626 115.507 70.5332 115.797C70.8039 116.077 70.9392 116.511 70.9392 117.099C70.9392 117.668 70.8319 118.102 70.6172 118.401C70.4119 118.69 70.0806 118.891 69.6232 119.003C69.1752 119.105 68.6012 119.157 67.9012 119.157C67.6306 119.157 67.2292 119.143 66.6972 119.115C66.1652 119.096 65.5819 119.035 64.9472 118.933L65.0592 117.827C65.2459 117.827 65.4652 117.831 65.7172 117.841C65.9786 117.85 66.2539 117.855 66.5432 117.855C66.8419 117.855 67.1452 117.855 67.4532 117.855C67.9479 117.855 68.3259 117.841 68.5872 117.813C68.8579 117.775 69.0446 117.705 69.1472 117.603C69.2499 117.491 69.3012 117.332 69.3012 117.127C69.3012 116.865 69.2126 116.693 69.0352 116.609C68.8672 116.515 68.6152 116.427 68.2792 116.343L66.4452 115.895C66.0252 115.783 65.6986 115.643 65.4652 115.475C65.2319 115.297 65.0639 115.083 64.9612 114.831C64.8586 114.569 64.8072 114.252 64.8072 113.879C64.8072 113.375 64.9006 112.983 65.0872 112.703C65.2832 112.423 65.5866 112.227 65.9972 112.115C66.4172 112.003 66.9679 111.951 67.6492 111.961ZM75.958 111.961C77.0687 111.961 77.8667 112.157 78.352 112.549C78.8373 112.931 79.0847 113.501 79.094 114.257C79.1033 114.882 78.954 115.358 78.646 115.685C78.3473 116.002 77.848 116.161 77.148 116.161H73.228V115.111H76.686C77.0033 115.111 77.204 115.027 77.288 114.859C77.3813 114.691 77.428 114.485 77.428 114.243C77.4187 113.86 77.3067 113.594 77.092 113.445C76.8867 113.295 76.532 113.221 76.028 113.221C75.5893 113.221 75.2487 113.281 75.006 113.403C74.7633 113.524 74.5907 113.743 74.488 114.061C74.3947 114.378 74.348 114.835 74.348 115.433C74.348 116.067 74.4087 116.557 74.53 116.903C74.6513 117.248 74.852 117.486 75.132 117.617C75.412 117.738 75.7853 117.799 76.252 117.799C76.5973 117.799 76.994 117.785 77.442 117.757C77.8993 117.729 78.338 117.691 78.758 117.645L78.926 118.723C78.674 118.825 78.3847 118.909 78.058 118.975C77.7313 119.04 77.3907 119.087 77.036 119.115C76.6907 119.152 76.364 119.171 76.056 119.171C75.216 119.171 74.5393 119.049 74.026 118.807C73.522 118.555 73.1533 118.163 72.92 117.631C72.696 117.099 72.584 116.413 72.584 115.573C72.584 114.667 72.696 113.953 72.92 113.431C73.1533 112.899 73.5173 112.521 74.012 112.297C74.516 112.073 75.1647 111.961 75.958 111.961ZM31.304 127.217C32.1066 127.217 32.7553 127.301 33.25 127.469C33.754 127.637 34.118 127.926 34.342 128.337C34.5753 128.738 34.692 129.307 34.692 130.045C34.692 130.53 34.6313 130.945 34.51 131.291C34.398 131.627 34.2066 131.897 33.936 132.103C33.6746 132.299 33.32 132.425 32.872 132.481V132.551C33.0306 132.588 33.194 132.663 33.362 132.775C33.5393 132.877 33.698 133.027 33.838 133.223C33.9873 133.419 34.0993 133.671 34.174 133.979L35.056 137.003H33.208L32.41 134.021C32.3073 133.685 32.1673 133.451 31.99 133.321C31.8126 133.181 31.57 133.111 31.262 133.111C30.6553 133.111 30.1373 133.111 29.708 133.111C29.2786 133.101 28.9193 133.092 28.63 133.083C28.35 133.073 28.1026 133.069 27.888 133.069L27.93 131.739H31.262C31.682 131.729 32.0133 131.683 32.256 131.599C32.4986 131.505 32.6713 131.347 32.774 131.123C32.8766 130.889 32.928 130.563 32.928 130.143C32.928 129.732 32.8766 129.415 32.774 129.191C32.6713 128.967 32.4986 128.813 32.256 128.729C32.0133 128.635 31.682 128.589 31.262 128.589C30.4406 128.589 29.736 128.593 29.148 128.603C28.56 128.612 28.1586 128.621 27.944 128.631L27.748 127.343C28.1213 127.305 28.4713 127.277 28.798 127.259C29.134 127.24 29.498 127.231 29.89 127.231C30.282 127.221 30.7533 127.217 31.304 127.217ZM29.47 127.343V137.003H27.748V127.343H29.47ZM39.9263 129.961C41.037 129.961 41.835 130.157 42.3203 130.549C42.8057 130.931 43.053 131.501 43.0623 132.257C43.0717 132.882 42.9223 133.358 42.6143 133.685C42.3157 134.002 41.8163 134.161 41.1163 134.161H37.1963V133.111H40.6543C40.9717 133.111 41.1723 133.027 41.2563 132.859C41.3497 132.691 41.3963 132.485 41.3963 132.243C41.387 131.86 41.275 131.594 41.0603 131.445C40.855 131.295 40.5003 131.221 39.9963 131.221C39.5577 131.221 39.217 131.281 38.9743 131.403C38.7317 131.524 38.559 131.743 38.4563 132.061C38.363 132.378 38.3163 132.835 38.3163 133.433C38.3163 134.067 38.377 134.557 38.4983 134.903C38.6197 135.248 38.8203 135.486 39.1003 135.617C39.3803 135.738 39.7537 135.799 40.2203 135.799C40.5657 135.799 40.9623 135.785 41.4103 135.757C41.8677 135.729 42.3063 135.691 42.7263 135.645L42.8943 136.723C42.6423 136.825 42.353 136.909 42.0263 136.975C41.6997 137.04 41.359 137.087 41.0043 137.115C40.659 137.152 40.3323 137.171 40.0243 137.171C39.1843 137.171 38.5077 137.049 37.9943 136.807C37.4903 136.555 37.1217 136.163 36.8883 135.631C36.6643 135.099 36.5523 134.413 36.5523 133.573C36.5523 132.667 36.6643 131.953 36.8883 131.431C37.1217 130.899 37.4857 130.521 37.9803 130.297C38.4843 130.073 39.133 129.961 39.9263 129.961ZM49.2749 129.961C50.1243 129.961 50.7356 130.273 51.1089 130.899C51.4823 131.524 51.6689 132.429 51.6689 133.615C51.6689 134.52 51.5709 135.234 51.3749 135.757C51.1883 136.27 50.9036 136.639 50.5209 136.863C50.1383 137.077 49.6529 137.185 49.0649 137.185C48.5983 137.185 48.1409 137.119 47.6929 136.989C47.2543 136.849 46.8483 136.634 46.4749 136.345L46.5869 135.505C46.9509 135.607 47.2776 135.696 47.5669 135.771C47.8563 135.845 48.1736 135.883 48.5189 135.883C48.8643 135.883 49.1349 135.827 49.3309 135.715C49.5363 135.593 49.6856 135.369 49.7789 135.043C49.8723 134.716 49.9189 134.245 49.9189 133.629C49.9189 133.022 49.8769 132.551 49.7929 132.215C49.7089 131.879 49.5689 131.645 49.3729 131.515C49.1863 131.375 48.9389 131.305 48.6309 131.305C48.2949 131.305 47.9776 131.379 47.6789 131.529C47.3803 131.669 47.0349 131.879 46.6429 132.159L46.4469 131.263C46.6616 131.011 46.9183 130.787 47.2169 130.591C47.5249 130.395 47.8563 130.241 48.2109 130.129C48.5656 130.017 48.9203 129.961 49.2749 129.961ZM46.3769 130.129L46.5449 131.459L46.6989 131.655V136.093L46.6289 136.261C46.6569 136.531 46.6756 136.802 46.6849 137.073C46.6943 137.353 46.6989 137.637 46.6989 137.927V139.733H45.0049V130.129H46.3769ZM56.8181 129.961C57.6581 129.961 58.3254 130.077 58.8201 130.311C59.3241 130.544 59.6834 130.927 59.8981 131.459C60.1221 131.991 60.2341 132.695 60.2341 133.573C60.2341 134.45 60.1221 135.155 59.8981 135.687C59.6834 136.209 59.3241 136.592 58.8201 136.835C58.3254 137.068 57.6581 137.185 56.8181 137.185C55.9968 137.185 55.3341 137.068 54.8301 136.835C54.3354 136.592 53.9761 136.209 53.7521 135.687C53.5281 135.155 53.4161 134.45 53.4161 133.573C53.4161 132.695 53.5281 131.991 53.7521 131.459C53.9761 130.927 54.3354 130.544 54.8301 130.311C55.3341 130.077 55.9968 129.961 56.8181 129.961ZM56.8181 131.249C56.4074 131.249 56.0808 131.319 55.8381 131.459C55.6048 131.589 55.4368 131.823 55.3341 132.159C55.2314 132.495 55.1801 132.966 55.1801 133.573C55.1801 134.179 55.2314 134.651 55.3341 134.987C55.4368 135.323 55.6048 135.556 55.8381 135.687C56.0808 135.817 56.4074 135.883 56.8181 135.883C57.2381 135.883 57.5694 135.817 57.8121 135.687C58.0548 135.556 58.2228 135.323 58.3161 134.987C58.4188 134.651 58.4701 134.179 58.4701 133.573C58.4701 132.966 58.4188 132.495 58.3161 132.159C58.2228 131.823 58.0548 131.589 57.8121 131.459C57.5694 131.319 57.2381 131.249 56.8181 131.249ZM63.5672 130.129L63.7912 131.473L63.9452 131.669V137.003H62.2512V130.129H63.5672ZM66.9272 129.961L66.7592 131.529H66.2692C65.9052 131.529 65.5365 131.589 65.1632 131.711C64.7899 131.832 64.3232 132.014 63.7632 132.257L63.6512 131.263C64.1365 130.852 64.6312 130.535 65.1352 130.311C65.6392 130.077 66.1245 129.961 66.5912 129.961H66.9272ZM70.7634 128.169V134.931C70.7634 135.22 70.8241 135.425 70.9454 135.547C71.0761 135.668 71.2954 135.729 71.6034 135.729H72.5554L72.7374 136.919C72.5787 136.965 72.3874 137.007 72.1634 137.045C71.9394 137.082 71.7201 137.105 71.5054 137.115C71.2907 137.133 71.1087 137.143 70.9594 137.143C70.3621 137.143 69.8954 136.984 69.5594 136.667C69.2327 136.34 69.0694 135.873 69.0694 135.267V128.169H70.7634ZM72.8074 130.129V131.305H67.8514V130.199L69.1954 130.129H72.8074Z" fill="#333839"/>
<path d="M90.3996 53.6044L53.7441 90.2499" stroke="white" stroke-width="6.29" stroke-miterlimit="10"/>
<path d="M90.3996 53.6044L53.7441 90.2499" stroke="#326589" stroke-width="3.42" stroke-miterlimit="10"/>
<path d="M8.6601 52.6618L6 50.0017L45.9905 10.0013" stroke="white" stroke-width="6.29" stroke-miterlimit="10"/>
<path d="M8.6601 52.6618L6 50.0017L45.9905 10.0013" stroke="#326589" stroke-width="3.42" stroke-miterlimit="10"/>
<path d="M68.6358 87.9313H31.3153L12 68.6358V31.3153L31.3153 12H68.6358L87.9512 31.3153V68.6358L68.6358 87.9313Z" fill="#326589"/>
<path d="M53.742 90.2507L50.0001 94.0026L8.65967 52.6622" stroke="white" stroke-width="6.29" stroke-miterlimit="10"/>
<path d="M53.742 90.2507L50.0001 94.0026L8.65967 52.6622" stroke="#326589" stroke-width="3.42" stroke-miterlimit="10"/>
<path d="M45.9897 10L49.9997 6L94.0002 50.0004L90.3972 53.6034" stroke="white" stroke-width="6.29" stroke-miterlimit="10"/>
<path d="M45.9897 10L49.9997 6L94.0002 50.0004L90.3972 53.6034" stroke="#326589" stroke-width="3.42" stroke-miterlimit="10"/>
</g>
<g opacity="0.2">
<path d="M44.3917 48.2247V51.1813H39.3159C37.5697 51.1813 36.6471 49.952 37.1256 48.2637C37.3548 47.4476 37.8133 46.7708 38.4351 46.2058C38.6907 45.9725 38.7279 45.7444 38.607 45.4293C38.1766 44.3066 38.0912 43.1811 38.8116 42.1444C39.5537 41.0738 40.6512 40.6589 41.9171 40.6641C42.2984 40.6736 42.6776 40.7233 43.0484 40.8125C43.6048 40.9352 43.7573 40.8486 43.908 40.291C44.3573 38.6428 45.3883 37.5448 47.0554 37.1265C48.8319 36.6818 50.6434 37.4365 51.64 38.9706C52.044 39.5919 52.1518 39.601 52.7449 39.1856C53.7191 38.5024 54.769 38.3357 55.8447 38.8847C56.9204 39.4337 57.3845 40.3701 57.3805 41.5541C57.3777 42.1524 57.4917 42.263 58.0929 42.2991C60.0115 42.4137 61.5612 43.1805 62.4574 44.9433C63.6609 47.3107 62.3039 50.2099 59.6602 50.987C59.3345 51.0899 58.9968 51.1503 58.6556 51.1669C57.6505 51.1921 56.6441 51.179 55.6384 51.1801C55.5958 51.1768 55.5534 51.1705 55.5117 51.1612V48.2247H56.7725C57.0441 48.2247 57.3158 48.2328 57.5868 48.2196C57.6473 48.2196 57.7071 48.2076 57.763 48.1844C57.8188 48.1612 57.8694 48.1272 57.912 48.0843C57.9547 48.0414 57.9884 47.9905 58.0112 47.9346C58.0341 47.8786 58.0457 47.8187 58.0453 47.7583C58.0516 47.4998 57.882 47.3027 57.6138 47.2654C57.5336 47.258 57.453 47.2561 57.3725 47.2597H42.5297C42.4799 47.2597 42.4295 47.2597 42.379 47.2597C42.0484 47.2757 41.8501 47.466 41.8581 47.7583C41.865 48.0362 42.0598 48.2167 42.3785 48.2219C42.9315 48.2282 43.4845 48.2219 44.0375 48.2219L44.3917 48.2247Z" fill="white"/>
<path d="M54.5118 63.5759L53.8304 63.114C53.4058 62.8274 53.2894 62.8274 52.9026 63.1501C52.6241 63.3793 52.3444 63.6085 52.0745 63.8297C51.8453 63.6131 51.6235 63.4131 51.4126 63.1993C51.0114 62.7982 50.7908 62.7982 50.4223 63.2194L49.9507 63.7587C49.7564 63.5357 49.5839 63.3306 49.4034 63.1317C49.1312 62.8309 48.8664 62.8257 48.5787 63.1117C48.4578 63.2326 48.3409 63.3569 48.2211 63.479C48.1013 63.6011 47.9953 63.7082 47.8572 63.8469L46.9563 63.1122C46.6245 62.8417 46.4749 62.8349 46.1236 63.0744C45.9082 63.2217 45.6933 63.3707 45.4766 63.5168C45.4623 63.5266 45.4394 63.5231 45.397 63.5294V48.2443H54.5118V63.5759Z" fill="white"/>
</g>
</svg>
