<svg width="98" height="150" viewBox="0 0 98 150" fill="none" xmlns="http://www.w3.org/2000/svg">
<g opacity="0.35">
<path d="M27.7154 108.34C27.8647 108.34 27.9954 108.382 28.1074 108.466C28.2194 108.55 28.2987 108.662 28.3454 108.802L31.2714 118H29.4794L27.2674 110.552C27.2301 110.403 27.1927 110.253 27.1554 110.104C27.1181 109.955 27.0854 109.81 27.0574 109.67H26.6654C26.6374 109.81 26.6047 109.955 26.5674 110.104C26.5301 110.253 26.4881 110.403 26.4414 110.552L24.2434 118H22.4514L25.3774 108.802C25.4147 108.662 25.4894 108.55 25.6014 108.466C25.7227 108.382 25.8581 108.34 26.0074 108.34H27.7154ZM29.3394 113.87V115.242H24.3694V113.87H29.3394ZM35.7185 110.958C36.5678 110.958 37.1792 111.271 37.5525 111.896C37.9258 112.521 38.1125 113.427 38.1125 114.612C38.1125 115.517 38.0145 116.231 37.8185 116.754C37.6318 117.267 37.3472 117.636 36.9645 117.86C36.5818 118.075 36.0965 118.182 35.5085 118.182C35.0418 118.182 34.5845 118.117 34.1365 117.986C33.6978 117.846 33.2918 117.631 32.9185 117.342L33.0305 116.502C33.3945 116.605 33.7212 116.693 34.0105 116.768C34.2998 116.843 34.6172 116.88 34.9625 116.88C35.3078 116.88 35.5785 116.824 35.7745 116.712C35.9798 116.591 36.1292 116.367 36.2225 116.04C36.3158 115.713 36.3625 115.242 36.3625 114.626C36.3625 114.019 36.3205 113.548 36.2365 113.212C36.1525 112.876 36.0125 112.643 35.8165 112.512C35.6298 112.372 35.3825 112.302 35.0745 112.302C34.7385 112.302 34.4212 112.377 34.1225 112.526C33.8238 112.666 33.4785 112.876 33.0865 113.156L32.8905 112.26C33.1052 112.008 33.3618 111.784 33.6605 111.588C33.9685 111.392 34.2998 111.238 34.6545 111.126C35.0092 111.014 35.3638 110.958 35.7185 110.958ZM32.8205 111.126L32.9885 112.456L33.1425 112.652V117.09L33.0725 117.258C33.1005 117.529 33.1192 117.799 33.1285 118.07C33.1378 118.35 33.1425 118.635 33.1425 118.924V120.73H31.4485V111.126H32.8205ZM43.1636 110.958C44.013 110.958 44.6243 111.271 44.9976 111.896C45.371 112.521 45.5576 113.427 45.5576 114.612C45.5576 115.517 45.4596 116.231 45.2636 116.754C45.077 117.267 44.7923 117.636 44.4096 117.86C44.027 118.075 43.5416 118.182 42.9536 118.182C42.487 118.182 42.0296 118.117 41.5816 117.986C41.143 117.846 40.737 117.631 40.3636 117.342L40.4756 116.502C40.8396 116.605 41.1663 116.693 41.4556 116.768C41.745 116.843 42.0623 116.88 42.4076 116.88C42.753 116.88 43.0236 116.824 43.2196 116.712C43.425 116.591 43.5743 116.367 43.6676 116.04C43.761 115.713 43.8076 115.242 43.8076 114.626C43.8076 114.019 43.7656 113.548 43.6816 113.212C43.5976 112.876 43.4576 112.643 43.2616 112.512C43.075 112.372 42.8276 112.302 42.5196 112.302C42.1836 112.302 41.8663 112.377 41.5676 112.526C41.269 112.666 40.9236 112.876 40.5316 113.156L40.3356 112.26C40.5503 112.008 40.807 111.784 41.1056 111.588C41.4136 111.392 41.745 111.238 42.0996 111.126C42.4543 111.014 42.809 110.958 43.1636 110.958ZM40.2656 111.126L40.4336 112.456L40.5876 112.652V117.09L40.5176 117.258C40.5456 117.529 40.5643 117.799 40.5736 118.07C40.583 118.35 40.5876 118.635 40.5876 118.924V120.73H38.8936V111.126H40.2656ZM47.6548 111.126L47.8788 112.47L48.0328 112.666V118H46.3388V111.126H47.6548ZM51.0148 110.958L50.8468 112.526H50.3568C49.9928 112.526 49.6241 112.587 49.2508 112.708C48.8775 112.829 48.4108 113.011 47.8508 113.254L47.7388 112.26C48.2241 111.849 48.7188 111.532 49.2228 111.308C49.7268 111.075 50.2121 110.958 50.6788 110.958H51.0148ZM54.2943 110.958C55.1343 110.958 55.8016 111.075 56.2963 111.308C56.8003 111.541 57.1596 111.924 57.3743 112.456C57.5983 112.988 57.7103 113.693 57.7103 114.57C57.7103 115.447 57.5983 116.152 57.3743 116.684C57.1596 117.207 56.8003 117.589 56.2963 117.832C55.8016 118.065 55.1343 118.182 54.2943 118.182C53.473 118.182 52.8103 118.065 52.3063 117.832C51.8116 117.589 51.4523 117.207 51.2283 116.684C51.0043 116.152 50.8923 115.447 50.8923 114.57C50.8923 113.693 51.0043 112.988 51.2283 112.456C51.4523 111.924 51.8116 111.541 52.3063 111.308C52.8103 111.075 53.473 110.958 54.2943 110.958ZM54.2943 112.246C53.8836 112.246 53.557 112.316 53.3143 112.456C53.081 112.587 52.913 112.82 52.8103 113.156C52.7076 113.492 52.6563 113.963 52.6563 114.57C52.6563 115.177 52.7076 115.648 52.8103 115.984C52.913 116.32 53.081 116.553 53.3143 116.684C53.557 116.815 53.8836 116.88 54.2943 116.88C54.7143 116.88 55.0456 116.815 55.2883 116.684C55.531 116.553 55.699 116.32 55.7923 115.984C55.895 115.648 55.9463 115.177 55.9463 114.57C55.9463 113.963 55.895 113.492 55.7923 113.156C55.699 112.82 55.531 112.587 55.2883 112.456C55.0456 112.316 54.7143 112.246 54.2943 112.246ZM64.938 111.126L62.572 117.594C62.5253 117.715 62.4507 117.813 62.348 117.888C62.2547 117.963 62.138 118 61.998 118H60.514C60.3833 118 60.2667 117.963 60.164 117.888C60.0613 117.813 59.9867 117.715 59.94 117.594L57.574 111.126H59.38L60.822 115.634C60.8873 115.839 60.948 116.049 61.004 116.264C61.06 116.469 61.1113 116.67 61.158 116.866H61.34C61.4053 116.661 61.466 116.455 61.522 116.25C61.5873 116.045 61.648 115.839 61.704 115.634L63.146 111.126H64.938ZM68.6049 110.958C69.1556 110.958 69.6176 111.033 69.9909 111.182C70.3736 111.322 70.6629 111.565 70.8589 111.91C71.0549 112.255 71.1529 112.731 71.1529 113.338V118H69.8089L69.5709 116.516L69.4449 116.32V113.324C69.4449 112.96 69.3609 112.699 69.1929 112.54C69.0249 112.372 68.7029 112.288 68.2269 112.288C67.8723 112.288 67.4243 112.302 66.8829 112.33C66.3509 112.358 65.8143 112.395 65.2729 112.442L65.1189 111.28C65.4456 111.215 65.8143 111.159 66.2249 111.112C66.6356 111.065 67.0509 111.028 67.4709 111C67.8909 110.972 68.2689 110.958 68.6049 110.958ZM70.4249 113.772L70.4109 114.822H67.2609C66.9809 114.831 66.7803 114.906 66.6589 115.046C66.5376 115.186 66.4769 115.377 66.4769 115.62V115.998C66.4769 116.278 66.5516 116.493 66.7009 116.642C66.8503 116.782 67.0836 116.852 67.4009 116.852C67.6529 116.852 67.9329 116.801 68.2409 116.698C68.5489 116.595 68.8523 116.446 69.1509 116.25C69.4589 116.054 69.7343 115.821 69.9769 115.55V116.432C69.8836 116.572 69.7483 116.74 69.5709 116.936C69.3936 117.123 69.1743 117.309 68.9129 117.496C68.6609 117.683 68.3669 117.837 68.0309 117.958C67.7043 118.079 67.3403 118.14 66.9389 118.14C66.5283 118.14 66.1596 118.07 65.8329 117.93C65.5063 117.781 65.2496 117.566 65.0629 117.286C64.8763 116.997 64.7829 116.642 64.7829 116.222V115.494C64.7829 114.953 64.9603 114.533 65.3149 114.234C65.6789 113.926 66.1736 113.772 66.7989 113.772H70.4249ZM73.8626 108.2L73.8486 115.928C73.8486 116.189 73.9232 116.39 74.0726 116.53C74.2219 116.661 74.4366 116.726 74.7166 116.726H75.3186L75.5146 117.916C75.4119 117.963 75.2672 118.005 75.0806 118.042C74.9032 118.079 74.7166 118.103 74.5206 118.112C74.3339 118.131 74.1706 118.14 74.0306 118.14C73.4612 118.14 73.0086 117.986 72.6726 117.678C72.3366 117.37 72.1686 116.927 72.1686 116.348V108.2H73.8626ZM16.7262 126.34L13.9682 135.51C13.9215 135.65 13.8422 135.767 13.7302 135.86C13.6182 135.953 13.4828 136 13.3242 136H11.6722C11.5135 136 11.3782 135.953 11.2662 135.86C11.1542 135.767 11.0795 135.65 11.0422 135.51L8.28417 126.34H10.0902L12.0642 133.606C12.1108 133.783 12.1575 133.961 12.2042 134.138C12.2508 134.315 12.2882 134.493 12.3162 134.67H12.6802C12.7268 134.493 12.7688 134.315 12.8062 134.138C12.8528 133.951 12.8995 133.769 12.9462 133.592L14.9202 126.34H16.7262ZM18.7415 129.126V136H17.0615V129.126H18.7415ZM18.2795 126.144C18.6155 126.144 18.7835 126.312 18.7835 126.648V127.432C18.7835 127.768 18.6155 127.936 18.2795 127.936H17.5235C17.1875 127.936 17.0195 127.768 17.0195 127.432V126.648C17.0195 126.312 17.1875 126.144 17.5235 126.144H18.2795ZM22.9229 128.958C24.0336 128.958 24.8316 129.154 25.3169 129.546C25.8023 129.929 26.0496 130.498 26.0589 131.254C26.0683 131.879 25.9189 132.355 25.6109 132.682C25.3123 132.999 24.8129 133.158 24.1129 133.158H20.1929V132.108H23.6509C23.9683 132.108 24.1689 132.024 24.2529 131.856C24.3463 131.688 24.3929 131.483 24.3929 131.24C24.3836 130.857 24.2716 130.591 24.0569 130.442C23.8516 130.293 23.4969 130.218 22.9929 130.218C22.5543 130.218 22.2136 130.279 21.9709 130.4C21.7283 130.521 21.5556 130.741 21.4529 131.058C21.3596 131.375 21.3129 131.833 21.3129 132.43C21.3129 133.065 21.3736 133.555 21.4949 133.9C21.6163 134.245 21.8169 134.483 22.0969 134.614C22.3769 134.735 22.7503 134.796 23.2169 134.796C23.5623 134.796 23.9589 134.782 24.4069 134.754C24.8643 134.726 25.3029 134.689 25.7229 134.642L25.8909 135.72C25.6389 135.823 25.3496 135.907 25.0229 135.972C24.6963 136.037 24.3556 136.084 24.0009 136.112C23.6556 136.149 23.3289 136.168 23.0209 136.168C22.1809 136.168 21.5043 136.047 20.9909 135.804C20.4869 135.552 20.1183 135.16 19.8849 134.628C19.6609 134.096 19.5489 133.41 19.5489 132.57C19.5489 131.665 19.6609 130.951 19.8849 130.428C20.1183 129.896 20.4823 129.518 20.9769 129.294C21.4809 129.07 22.1296 128.958 22.9229 128.958ZM37.2419 129.126L35.4219 135.552C35.3845 135.683 35.3099 135.79 35.1979 135.874C35.0859 135.958 34.9552 136 34.8059 136H33.4479C33.2985 136 33.1632 135.953 33.0419 135.86C32.9205 135.767 32.8505 135.641 32.8319 135.482L31.9219 131.268C31.8845 131.081 31.8519 130.895 31.8239 130.708C31.8052 130.521 31.7772 130.335 31.7399 130.148H31.5579C31.5299 130.335 31.4972 130.521 31.4599 130.708C31.4319 130.895 31.3992 131.081 31.3619 131.268L30.4659 135.482C30.4379 135.641 30.3632 135.767 30.2419 135.86C30.1299 135.953 29.9945 136 29.8359 136H28.4919C28.3425 136 28.2119 135.958 28.0999 135.874C27.9879 135.79 27.9179 135.683 27.8899 135.552L26.0559 129.126H27.7779L28.9259 133.844C28.9632 134.021 28.9959 134.203 29.0239 134.39C29.0612 134.567 29.0939 134.745 29.1219 134.922H29.2899C29.3365 134.745 29.3739 134.567 29.4019 134.39C29.4392 134.203 29.4765 134.021 29.5139 133.844L30.4239 129.644C30.4519 129.495 30.5172 129.373 30.6199 129.28C30.7319 129.177 30.8719 129.126 31.0399 129.126H32.2719C32.4212 129.126 32.5519 129.177 32.6639 129.28C32.7759 129.373 32.8459 129.499 32.8739 129.658L33.7839 133.844C33.8119 134.021 33.8445 134.199 33.8819 134.376C33.9285 134.553 33.9659 134.735 33.9939 134.922H34.1619C34.1992 134.735 34.2319 134.558 34.2599 134.39C34.2879 134.213 34.3252 134.031 34.3719 133.844L35.5199 129.126H37.2419ZM43.4451 126.186C43.7437 126.186 44.0891 126.195 44.4811 126.214C44.8731 126.223 45.2791 126.265 45.6991 126.34L45.5031 127.558C45.3911 127.549 45.2557 127.544 45.0971 127.544C44.9384 127.535 44.7611 127.53 44.5651 127.53C44.3691 127.521 44.1684 127.516 43.9631 127.516C43.7671 127.516 43.5757 127.516 43.3891 127.516C42.9131 127.516 42.5351 127.553 42.2551 127.628C41.9844 127.693 41.7884 127.829 41.6671 128.034C41.5551 128.239 41.4991 128.552 41.4991 128.972C41.4991 129.355 41.5457 129.653 41.6391 129.868C41.7324 130.073 41.8911 130.218 42.1151 130.302C42.3484 130.377 42.6564 130.414 43.0391 130.414H48.5551L48.5411 131.604H42.9551C42.5351 131.604 42.1991 131.655 41.9471 131.758C41.7044 131.851 41.5317 132.015 41.4291 132.248C41.3264 132.472 41.2751 132.799 41.2751 133.228C41.2751 133.62 41.3171 133.928 41.4011 134.152C41.4944 134.367 41.6531 134.521 41.8771 134.614C42.1011 134.698 42.4044 134.74 42.7871 134.74C43.3657 134.731 43.8837 134.647 44.3411 134.488C44.7984 134.32 45.1951 134.073 45.5311 133.746L45.7271 134.726C45.4377 135.081 45.1344 135.365 44.8171 135.58C44.4997 135.785 44.1404 135.93 43.7391 136.014C43.3377 136.107 42.8664 136.154 42.3251 136.154C41.6437 136.154 41.0884 136.075 40.6591 135.916C40.2391 135.748 39.9311 135.477 39.7351 135.104C39.5391 134.721 39.4411 134.203 39.4411 133.55C39.4411 132.813 39.5764 132.225 39.8471 131.786C40.1271 131.338 40.6217 131.081 41.3311 131.016V130.96C40.7524 130.904 40.3371 130.689 40.0851 130.316C39.8424 129.943 39.7211 129.406 39.7211 128.706C39.7211 128.146 39.7911 127.698 39.9311 127.362C40.0711 127.026 40.2904 126.774 40.5891 126.606C40.8971 126.438 41.2844 126.326 41.7511 126.27C42.2177 126.214 42.7824 126.186 43.4451 126.186ZM46.9451 128.776V133.956C46.9451 134.245 47.0057 134.451 47.1271 134.572C47.2484 134.693 47.4444 134.754 47.7151 134.754H48.6531L48.8491 135.916C48.6997 135.963 48.5177 136.005 48.3031 136.042C48.0977 136.079 47.8924 136.103 47.6871 136.112C47.4911 136.131 47.3231 136.14 47.1831 136.14C46.5951 136.14 46.1424 135.991 45.8251 135.692C45.5077 135.393 45.3491 134.978 45.3491 134.446V130.946L45.5171 128.776H46.9451ZM55.4753 126.172C55.914 126.172 56.2873 126.186 56.5953 126.214C56.9033 126.233 57.188 126.265 57.4493 126.312C57.7107 126.349 57.9813 126.405 58.2613 126.48L58.1073 127.782C57.818 127.763 57.5473 127.749 57.2953 127.74C57.0433 127.721 56.7727 127.707 56.4833 127.698C56.2033 127.689 55.8673 127.684 55.4753 127.684C54.934 127.684 54.5093 127.791 54.2013 128.006C53.8933 128.221 53.674 128.58 53.5433 129.084C53.422 129.588 53.3613 130.283 53.3613 131.17C53.3613 132.057 53.422 132.752 53.5433 133.256C53.674 133.76 53.8933 134.119 54.2013 134.334C54.5093 134.549 54.934 134.656 55.4753 134.656C56.1007 134.656 56.6233 134.647 57.0433 134.628C57.4727 134.6 57.8927 134.563 58.3033 134.516L58.4573 135.804C58.0373 135.935 57.6033 136.028 57.1553 136.084C56.7073 136.14 56.1473 136.168 55.4753 136.168C54.5047 136.168 53.73 136.009 53.1513 135.692C52.5727 135.365 52.1527 134.838 51.8913 134.11C51.6393 133.382 51.5133 132.402 51.5133 131.17C51.5133 129.938 51.6393 128.958 51.8913 128.23C52.1527 127.502 52.5727 126.979 53.1513 126.662C53.73 126.335 54.5047 126.172 55.4753 126.172ZM62.4624 128.958C63.0131 128.958 63.4751 129.033 63.8484 129.182C64.2311 129.322 64.5204 129.565 64.7164 129.91C64.9124 130.255 65.0104 130.731 65.0104 131.338V136H63.6664L63.4284 134.516L63.3024 134.32V131.324C63.3024 130.96 63.2184 130.699 63.0504 130.54C62.8824 130.372 62.5604 130.288 62.0844 130.288C61.7298 130.288 61.2818 130.302 60.7404 130.33C60.2084 130.358 59.6718 130.395 59.1304 130.442L58.9764 129.28C59.3031 129.215 59.6718 129.159 60.0824 129.112C60.4931 129.065 60.9084 129.028 61.3284 129C61.7484 128.972 62.1264 128.958 62.4624 128.958ZM64.2824 131.772L64.2684 132.822H61.1184C60.8384 132.831 60.6378 132.906 60.5164 133.046C60.3951 133.186 60.3344 133.377 60.3344 133.62V133.998C60.3344 134.278 60.4091 134.493 60.5584 134.642C60.7078 134.782 60.9411 134.852 61.2584 134.852C61.5104 134.852 61.7904 134.801 62.0984 134.698C62.4064 134.595 62.7098 134.446 63.0084 134.25C63.3164 134.054 63.5918 133.821 63.8344 133.55V134.432C63.7411 134.572 63.6058 134.74 63.4284 134.936C63.2511 135.123 63.0318 135.309 62.7704 135.496C62.5184 135.683 62.2244 135.837 61.8884 135.958C61.5618 136.079 61.1978 136.14 60.7964 136.14C60.3858 136.14 60.0171 136.07 59.6904 135.93C59.3638 135.781 59.1071 135.566 58.9204 135.286C58.7338 134.997 58.6404 134.642 58.6404 134.222V133.494C58.6404 132.953 58.8178 132.533 59.1724 132.234C59.5364 131.926 60.0311 131.772 60.6564 131.772H64.2824ZM70.5341 128.958C71.8127 128.958 72.4521 129.588 72.4521 130.848V136H70.7581V131.366C70.7581 130.993 70.6927 130.736 70.5621 130.596C70.4314 130.456 70.2121 130.386 69.9041 130.386C69.5587 130.386 69.2041 130.465 68.8401 130.624C68.4761 130.773 68.0374 130.993 67.5241 131.282L67.4541 130.26C67.9581 129.84 68.4714 129.518 68.9941 129.294C69.5167 129.07 70.0301 128.958 70.5341 128.958ZM67.3981 129.126L67.5661 130.47L67.7061 130.666V136H66.0121V129.126H67.3981ZM76.5509 128.958C76.7842 128.958 77.0409 128.967 77.3209 128.986C77.6009 129.005 77.8856 129.042 78.1749 129.098C78.4642 129.154 78.7256 129.233 78.9589 129.336L78.7629 130.4C78.4176 130.381 78.0722 130.367 77.7269 130.358C77.3909 130.349 77.0969 130.344 76.8449 130.344C76.3689 130.344 75.9909 130.409 75.7109 130.54C75.4402 130.661 75.2442 130.885 75.1229 131.212C75.0016 131.529 74.9409 131.977 74.9409 132.556C74.9409 133.135 75.0016 133.587 75.1229 133.914C75.2442 134.231 75.4402 134.455 75.7109 134.586C75.9909 134.717 76.3689 134.782 76.8449 134.782C76.9849 134.782 77.1669 134.777 77.3909 134.768C77.6242 134.759 77.8716 134.745 78.1329 134.726C78.4036 134.707 78.6649 134.684 78.9169 134.656L79.0849 135.748C78.7209 135.897 78.3149 136.005 77.8669 136.07C77.4189 136.135 76.9756 136.168 76.5369 136.168C75.7156 136.168 75.0576 136.051 74.5629 135.818C74.0682 135.585 73.7089 135.207 73.4849 134.684C73.2702 134.152 73.1629 133.443 73.1629 132.556C73.1629 131.669 73.2749 130.965 73.4989 130.442C73.7229 129.91 74.0822 129.532 74.5769 129.308C75.0716 129.075 75.7296 128.958 76.5509 128.958ZM82.6012 128.958C83.7119 128.958 84.5099 129.154 84.9952 129.546C85.4805 129.929 85.7279 130.498 85.7372 131.254C85.7465 131.879 85.5972 132.355 85.2892 132.682C84.9905 132.999 84.4912 133.158 83.7912 133.158H79.8712V132.108H83.3292C83.6465 132.108 83.8472 132.024 83.9312 131.856C84.0245 131.688 84.0712 131.483 84.0712 131.24C84.0619 130.857 83.9499 130.591 83.7352 130.442C83.5299 130.293 83.1752 130.218 82.6712 130.218C82.2325 130.218 81.8919 130.279 81.6492 130.4C81.4065 130.521 81.2339 130.741 81.1312 131.058C81.0379 131.375 80.9912 131.833 80.9912 132.43C80.9912 133.065 81.0519 133.555 81.1732 133.9C81.2945 134.245 81.4952 134.483 81.7752 134.614C82.0552 134.735 82.4285 134.796 82.8952 134.796C83.2405 134.796 83.6372 134.782 84.0852 134.754C84.5425 134.726 84.9812 134.689 85.4012 134.642L85.5692 135.72C85.3172 135.823 85.0279 135.907 84.7012 135.972C84.3745 136.037 84.0339 136.084 83.6792 136.112C83.3339 136.149 83.0072 136.168 82.6992 136.168C81.8592 136.168 81.1825 136.047 80.6692 135.804C80.1652 135.552 79.7965 135.16 79.5632 134.628C79.3392 134.096 79.2272 133.41 79.2272 132.57C79.2272 131.665 79.3392 130.951 79.5632 130.428C79.7965 129.896 80.1605 129.518 80.6552 129.294C81.1592 129.07 81.8079 128.958 82.6012 128.958ZM88.1278 126.2L88.1138 133.928C88.1138 134.189 88.1885 134.39 88.3378 134.53C88.4871 134.661 88.7018 134.726 88.9818 134.726H89.5838L89.7798 135.916C89.6771 135.963 89.5325 136.005 89.3458 136.042C89.1685 136.079 88.9818 136.103 88.7858 136.112C88.5991 136.131 88.4358 136.14 88.2958 136.14C87.7265 136.14 87.2738 135.986 86.9378 135.678C86.6018 135.37 86.4338 134.927 86.4338 134.348V126.2H88.1278Z" fill="#333839"/>
<path d="M89.3995 52.6044L52.744 89.25" stroke="white" stroke-width="6.29" stroke-miterlimit="10"/>
<path d="M89.3995 52.6044L52.744 89.25" stroke="#CD7E8F" stroke-width="3.42" stroke-miterlimit="10"/>
<path d="M7.6601 51.6617L5 49.0016L44.9905 9.00128" stroke="white" stroke-width="6.29" stroke-miterlimit="10"/>
<path d="M7.6601 51.6617L5 49.0016L44.9905 9.00128" stroke="#CD7E8F" stroke-width="3.42" stroke-miterlimit="10"/>
<path d="M67.6359 86.9313H30.3154L11 67.6358V30.3153L30.3154 11H67.6359L86.9512 30.3153V67.6358L67.6359 86.9313Z" fill="#CD7E8F"/>
<path d="M52.7421 89.2507L49.0001 93.0026L7.65976 51.6622" stroke="white" stroke-width="6.29" stroke-miterlimit="10"/>
<path d="M52.7421 89.2507L49.0001 93.0026L7.65976 51.6622" stroke="#CD7E8F" stroke-width="3.42" stroke-miterlimit="10"/>
<path d="M44.9896 9.00004L48.9995 5L93 49.0004L89.397 52.6034" stroke="white" stroke-width="6.29" stroke-miterlimit="10"/>
<path d="M44.9896 9.00004L48.9995 5L93 49.0004L89.397 52.6034" stroke="#CD7E8F" stroke-width="3.42" stroke-miterlimit="10"/>
<g clip-path="url(#clip0_482_8080)">
<path d="M59.8402 55.4504C59.8863 56.1112 59.8863 56.7744 59.8402 57.4351C59.7605 57.8977 59.5326 58.3219 59.1908 58.644C58.849 58.9661 58.4118 59.1687 57.9449 59.2214C57.772 59.2366 57.5981 59.2366 57.4252 59.2214H40.2144C39.6785 59.2675 39.1435 59.1226 38.7043 58.8124C38.265 58.5023 37.9499 58.0468 37.8147 57.5267C37.7458 57.2627 37.7149 56.9903 37.723 56.7176C37.723 49.9593 37.723 43.201 37.723 36.4428C37.7021 36.1126 37.7527 35.7819 37.8712 35.473C37.9896 35.1641 38.1733 34.8842 38.4096 34.6525C38.646 34.4208 38.9295 34.2426 39.2409 34.13C39.5523 34.0174 39.8843 33.9731 40.2144 34H57.4252C57.7533 33.9731 58.0833 34.017 58.3929 34.1288C58.7025 34.2406 58.9843 34.4177 59.2192 34.648C59.4542 34.8783 59.6367 35.1565 59.7544 35.4635C59.8721 35.7706 59.9222 36.0994 59.9014 36.4275C59.9014 37.6336 59.9014 38.8397 59.9014 40.0458C59.9014 40.1527 59.9014 40.2443 59.9014 40.3817C58.6656 40.2016 57.4043 40.3304 56.2306 40.7567C55.0569 41.183 54.0073 41.8935 53.176 42.8245C52.4826 43.5764 51.9534 44.4642 51.6218 45.4314C51.2903 46.3986 51.1637 47.4241 51.2501 48.4428C51.3268 49.4765 51.6135 50.4838 52.0927 51.4032C52.5719 52.3226 53.2336 53.135 54.0373 53.7907C54.8411 54.4463 55.7701 54.9317 56.7678 55.217C57.7654 55.5024 58.8108 55.5818 59.8402 55.4504ZM47.0926 51.8321C45.931 51.8321 44.7693 51.8321 43.623 51.8321C43.3434 51.8294 43.0685 51.9033 42.8281 52.0458C42.651 52.1636 42.5195 52.3384 42.4556 52.5412C42.3916 52.7439 42.3991 52.9624 42.4766 53.1603C42.5437 53.3721 42.679 53.5557 42.8615 53.6827C43.0439 53.8098 43.2633 53.873 43.4854 53.8626H50.6999C50.9156 53.8716 51.1286 53.8112 51.3075 53.6903C51.4863 53.5694 51.6216 53.3943 51.6934 53.1909C51.751 53.0338 51.7691 52.865 51.7462 52.6992C51.7232 52.5335 51.66 52.3759 51.5619 52.2403C51.4639 52.1047 51.334 51.9952 51.1837 51.9213C51.0334 51.8475 50.8673 51.8116 50.6999 51.8168L47.0926 51.8321ZM46.6341 45.5878H49.6911C49.8371 45.6056 49.9852 45.5922 50.1257 45.5486C50.2662 45.5049 50.3958 45.4319 50.5059 45.3345C50.616 45.2371 50.7042 45.1175 50.7646 44.9835C50.825 44.8495 50.8562 44.7042 50.8562 44.5573C50.8562 44.4103 50.825 44.2651 50.7646 44.1311C50.7042 43.9971 50.616 43.8774 50.5059 43.78C50.3958 43.6826 50.2662 43.6097 50.1257 43.566C49.9852 43.5223 49.8371 43.509 49.6911 43.5267H43.5771C43.3524 43.5283 43.1317 43.586 42.9351 43.6947C42.747 43.8002 42.6006 43.9666 42.52 44.1664C42.4394 44.3663 42.4295 44.5877 42.4919 44.7939C42.5376 45.0107 42.6569 45.2051 42.8296 45.3442C43.0023 45.4832 43.2177 45.5585 43.4395 45.5573L46.6341 45.5878ZM46.2978 49.7252H49.0185C49.1949 49.7299 49.3707 49.7041 49.5382 49.6489C49.7526 49.5712 49.9342 49.4232 50.0536 49.2291C50.173 49.035 50.223 48.8063 50.1955 48.5802C50.1672 48.357 50.0615 48.1507 49.8967 47.9973C49.732 47.8439 49.5186 47.753 49.2937 47.7405H43.302C43.2013 47.7181 43.0969 47.7181 42.9963 47.7405C42.796 47.8374 42.6335 47.9978 42.5339 48.1966C42.4344 48.3954 42.4035 48.6215 42.446 48.8397C42.479 49.0718 42.5944 49.2843 42.7712 49.4384C42.948 49.5925 43.1743 49.6781 43.409 49.6794L46.2978 49.7252ZM44.7693 41.4351H46.0533C46.3174 41.4437 46.5746 41.3501 46.7711 41.1736C46.9677 40.9972 47.0883 40.7518 47.1079 40.4886C47.125 40.3542 47.1139 40.2177 47.0753 40.0878C47.0367 39.9579 46.9715 39.8375 46.8838 39.7341C46.7961 39.6307 46.6879 39.5467 46.566 39.4873C46.444 39.428 46.3111 39.3946 46.1755 39.3893C45.2279 39.3893 44.2802 39.3893 43.3325 39.3893C43.2 39.3971 43.0703 39.431 42.9508 39.4889C42.8314 39.5469 42.7246 39.6278 42.6365 39.7271C42.5485 39.8264 42.4809 39.9421 42.4378 40.0675C42.3946 40.193 42.3766 40.3257 42.3849 40.458C42.4044 40.7266 42.5261 40.9776 42.7251 41.1593C42.9241 41.341 43.1852 41.4397 43.4548 41.4351H44.7693Z" fill="white"/>
<path d="M35.6595 38.7787V56.9008C35.6306 57.7529 35.8565 58.5944 36.3084 59.3177C36.7603 60.041 37.4178 60.6134 38.1968 60.9619C38.8306 61.2451 39.5205 61.3808 40.2144 61.3588H55.1019C55.1588 61.6777 55.1469 62.0051 55.067 62.319C54.987 62.6329 54.8408 62.9262 54.6382 63.1791C54.4356 63.4321 54.1813 63.6389 53.8922 63.7857C53.6032 63.9326 53.286 64.016 52.962 64.0306H35.415C34.8383 64.0721 34.267 63.8959 33.8141 63.5369C33.3613 63.1778 33.0598 62.6621 32.9694 62.0917C32.9542 61.9241 32.9542 61.7554 32.9694 61.5878V41.1298C32.955 40.7875 33.0177 40.4463 33.1529 40.1314C33.288 39.8165 33.4922 39.5359 33.7503 39.3103C34.0085 39.0847 34.314 38.9198 34.6445 38.8278C34.9749 38.7358 35.3218 38.719 35.6595 38.7787Z" fill="white"/>
<path d="M62.0107 52.4886C60.9989 53.1849 59.7834 53.5239 58.5568 53.452C57.3302 53.3801 56.1628 52.9014 55.2395 52.0916C54.3784 51.4107 53.751 50.4789 53.4442 49.4256C53.1374 48.3723 53.1666 47.2498 53.5276 46.2138C53.8039 45.1812 54.3926 44.259 55.2133 43.5732C56.0341 42.8873 57.0467 42.4712 58.113 42.3817C59.1425 42.223 60.1959 42.3751 61.1382 42.8185C62.0804 43.2619 62.8686 43.9764 63.4016 44.8703C64.0071 45.7339 64.3432 46.7572 64.3677 47.8113C64.3922 48.8654 64.1039 49.9031 63.5392 50.7939C63.5026 50.8282 63.4735 50.8696 63.4536 50.9155C63.4336 50.9615 63.4234 51.011 63.4234 51.0611C63.4234 51.1112 63.4336 51.1607 63.4536 51.2067C63.4735 51.2526 63.5026 51.294 63.5392 51.3283C64.2117 51.9797 64.8842 52.6514 65.5568 53.3435C65.6695 53.434 65.7617 53.5473 65.8274 53.6759C65.8931 53.8045 65.9308 53.9456 65.938 54.0898C65.9453 54.234 65.9218 54.3781 65.8693 54.5126C65.8167 54.6471 65.7363 54.769 65.6332 54.8703C65.54 54.9824 65.4232 55.0726 65.2911 55.1345C65.159 55.1964 65.0149 55.2285 64.869 55.2285C64.723 55.2285 64.5789 55.1964 64.4468 55.1345C64.3148 55.0726 64.1979 54.9824 64.1047 54.8703L62.0107 52.4886ZM58.8773 51.3588C59.3339 51.3691 59.7879 51.2876 60.2123 51.1191C60.6367 50.9507 61.023 50.6988 61.348 50.3784C61.6731 50.058 61.9304 49.6756 62.1046 49.2539C62.2788 48.8322 62.3664 48.3799 62.3622 47.9237C62.3622 47.4666 62.2721 47.0139 62.097 46.5916C61.9218 46.1693 61.6651 45.7856 61.3415 45.4623C61.0179 45.1391 60.6337 44.8827 60.2109 44.7078C59.7881 44.5328 59.3349 44.4428 58.8773 44.4428C58.4196 44.4428 57.9665 44.5328 57.5436 44.7078C57.1208 44.8827 56.7366 45.1391 56.413 45.4623C56.0894 45.7856 55.8327 46.1693 55.6576 46.5916C55.4825 47.0139 55.3923 47.4666 55.3923 47.9237C55.3883 48.3734 55.4735 48.8194 55.643 49.236C55.8124 49.6525 56.0629 50.0315 56.3798 50.3509C56.6967 50.6702 57.0738 50.9238 57.4894 51.0968C57.9049 51.2698 58.3507 51.3588 58.8008 51.3588H58.8773Z" fill="white"/>
</g>
</g>
<defs>
<clipPath id="clip0_482_8080">
<rect width="33.0612" height="30" fill="white" transform="translate(32.9694 34)"/>
</clipPath>
</defs>
</svg>
