<svg width="98" height="150" viewBox="0 0 98 150" fill="none" xmlns="http://www.w3.org/2000/svg">
<g opacity="0.35">
<path d="M25.4596 108.228C26.2809 108.228 26.9343 108.303 27.4196 108.452C27.9049 108.592 28.2549 108.844 28.4696 109.208C28.6936 109.572 28.8056 110.085 28.8056 110.748C28.8056 111.439 28.6749 111.966 28.4136 112.33C28.1523 112.694 27.7229 112.904 27.1256 112.96V113.016C27.8629 113.081 28.3763 113.333 28.6656 113.772C28.9643 114.211 29.1136 114.817 29.1136 115.592C29.1136 116.255 29.0016 116.768 28.7776 117.132C28.5629 117.496 28.2176 117.753 27.7416 117.902C27.2749 118.042 26.6636 118.112 25.9076 118.112C25.3196 118.112 24.8063 118.107 24.3676 118.098C23.9289 118.098 23.5276 118.089 23.1636 118.07C22.7996 118.051 22.4216 118.028 22.0296 118L22.2256 116.726C22.4496 116.735 22.8649 116.745 23.4716 116.754C24.0783 116.763 24.7923 116.768 25.6136 116.768C26.0523 116.768 26.3976 116.731 26.6496 116.656C26.9016 116.572 27.0789 116.423 27.1816 116.208C27.2936 115.984 27.3496 115.671 27.3496 115.27C27.3496 114.822 27.2936 114.481 27.1816 114.248C27.0696 114.005 26.8829 113.837 26.6216 113.744C26.3696 113.641 26.0103 113.59 25.5436 113.59H22.2116V112.4H25.5296C25.9309 112.4 26.2436 112.363 26.4676 112.288C26.7009 112.204 26.8689 112.059 26.9716 111.854C27.0743 111.649 27.1256 111.355 27.1256 110.972C27.1256 110.589 27.0696 110.295 26.9576 110.09C26.8549 109.885 26.6776 109.749 26.4256 109.684C26.1736 109.609 25.8236 109.572 25.3756 109.572C24.8809 109.572 24.4423 109.572 24.0596 109.572C23.6769 109.572 23.3363 109.577 23.0376 109.586C22.7389 109.586 22.4683 109.595 22.2256 109.614L22.0296 108.34C22.3843 108.303 22.7203 108.279 23.0376 108.27C23.3643 108.251 23.7189 108.242 24.1016 108.242C24.4936 108.233 24.9463 108.228 25.4596 108.228ZM23.7376 108.34V118H22.0296V108.34H23.7376ZM34.5603 108.34V118H32.8103V108.34H34.5603ZM37.5563 108.34V109.768H29.8143V108.34H37.5563ZM51.5055 108.34L48.7475 117.51C48.7008 117.65 48.6215 117.767 48.5095 117.86C48.3975 117.953 48.2622 118 48.1035 118H46.4515C46.2928 118 46.1575 117.953 46.0455 117.86C45.9335 117.767 45.8588 117.65 45.8215 117.51L43.0635 108.34H44.8695L46.8435 115.606C46.8902 115.783 46.9368 115.961 46.9835 116.138C47.0302 116.315 47.0675 116.493 47.0955 116.67H47.4595C47.5062 116.493 47.5482 116.315 47.5855 116.138C47.6322 115.951 47.6788 115.769 47.7255 115.592L49.6995 108.34H51.5055ZM54.2209 111.126V118H52.5409V111.126H54.2209ZM53.7589 108.144C54.0949 108.144 54.2629 108.312 54.2629 108.648V109.432C54.2629 109.768 54.0949 109.936 53.7589 109.936H53.0029C52.6669 109.936 52.4989 109.768 52.4989 109.432V108.648C52.4989 108.312 52.6669 108.144 53.0029 108.144H53.7589ZM59.1023 110.958C60.2129 110.958 61.0109 111.154 61.4963 111.546C61.9816 111.929 62.2289 112.498 62.2383 113.254C62.2476 113.879 62.0983 114.355 61.7903 114.682C61.4916 114.999 60.9923 115.158 60.2923 115.158H56.3723V114.108H59.8303C60.1476 114.108 60.3483 114.024 60.4323 113.856C60.5256 113.688 60.5723 113.483 60.5723 113.24C60.5629 112.857 60.4509 112.591 60.2363 112.442C60.0309 112.293 59.6763 112.218 59.1723 112.218C58.7336 112.218 58.3929 112.279 58.1503 112.4C57.9076 112.521 57.7349 112.741 57.6323 113.058C57.5389 113.375 57.4923 113.833 57.4923 114.43C57.4923 115.065 57.5529 115.555 57.6743 115.9C57.7956 116.245 57.9963 116.483 58.2763 116.614C58.5563 116.735 58.9296 116.796 59.3963 116.796C59.7416 116.796 60.1383 116.782 60.5863 116.754C61.0436 116.726 61.4823 116.689 61.9023 116.642L62.0703 117.72C61.8183 117.823 61.5289 117.907 61.2023 117.972C60.8756 118.037 60.5349 118.084 60.1803 118.112C59.8349 118.149 59.5083 118.168 59.2003 118.168C58.3603 118.168 57.6836 118.047 57.1703 117.804C56.6663 117.552 56.2976 117.16 56.0643 116.628C55.8403 116.096 55.7283 115.41 55.7283 114.57C55.7283 113.665 55.8403 112.951 56.0643 112.428C56.2976 111.896 56.6616 111.518 57.1563 111.294C57.6603 111.07 58.3089 110.958 59.1023 110.958ZM74.1212 111.126L72.3012 117.552C72.2639 117.683 72.1892 117.79 72.0772 117.874C71.9652 117.958 71.8345 118 71.6852 118H70.3272C70.1779 118 70.0425 117.953 69.9212 117.86C69.7999 117.767 69.7299 117.641 69.7112 117.482L68.8012 113.268C68.7639 113.081 68.7312 112.895 68.7032 112.708C68.6845 112.521 68.6565 112.335 68.6192 112.148H68.4372C68.4092 112.335 68.3765 112.521 68.3392 112.708C68.3112 112.895 68.2785 113.081 68.2412 113.268L67.3452 117.482C67.3172 117.641 67.2425 117.767 67.1212 117.86C67.0092 117.953 66.8739 118 66.7152 118H65.3712C65.2219 118 65.0912 117.958 64.9792 117.874C64.8672 117.79 64.7972 117.683 64.7692 117.552L62.9352 111.126H64.6572L65.8052 115.844C65.8425 116.021 65.8752 116.203 65.9032 116.39C65.9405 116.567 65.9732 116.745 66.0012 116.922H66.1692C66.2159 116.745 66.2532 116.567 66.2812 116.39C66.3185 116.203 66.3559 116.021 66.3932 115.844L67.3032 111.644C67.3312 111.495 67.3965 111.373 67.4992 111.28C67.6112 111.177 67.7512 111.126 67.9192 111.126H69.1512C69.3005 111.126 69.4312 111.177 69.5432 111.28C69.6552 111.373 69.7252 111.499 69.7532 111.658L70.6632 115.844C70.6912 116.021 70.7239 116.199 70.7612 116.376C70.8079 116.553 70.8452 116.735 70.8732 116.922H71.0412C71.0785 116.735 71.1112 116.558 71.1392 116.39C71.1672 116.213 71.2045 116.031 71.2512 115.844L72.3992 111.126H74.1212ZM25.7386 126.186C26.0373 126.186 26.3826 126.195 26.7746 126.214C27.1666 126.223 27.5726 126.265 27.9926 126.34L27.7966 127.558C27.6846 127.549 27.5493 127.544 27.3906 127.544C27.232 127.535 27.0546 127.53 26.8586 127.53C26.6626 127.521 26.462 127.516 26.2566 127.516C26.0606 127.516 25.8693 127.516 25.6826 127.516C25.2066 127.516 24.8286 127.553 24.5486 127.628C24.278 127.693 24.082 127.829 23.9606 128.034C23.8486 128.239 23.7926 128.552 23.7926 128.972C23.7926 129.355 23.8393 129.653 23.9326 129.868C24.026 130.073 24.1846 130.218 24.4086 130.302C24.642 130.377 24.95 130.414 25.3326 130.414H30.8486L30.8346 131.604H25.2486C24.8286 131.604 24.4926 131.655 24.2406 131.758C23.998 131.851 23.8253 132.015 23.7226 132.248C23.62 132.472 23.5686 132.799 23.5686 133.228C23.5686 133.62 23.6106 133.928 23.6946 134.152C23.788 134.367 23.9466 134.521 24.1706 134.614C24.3946 134.698 24.698 134.74 25.0806 134.74C25.6593 134.731 26.1773 134.647 26.6346 134.488C27.092 134.32 27.4886 134.073 27.8246 133.746L28.0206 134.726C27.7313 135.081 27.428 135.365 27.1106 135.58C26.7933 135.785 26.434 135.93 26.0326 136.014C25.6313 136.107 25.16 136.154 24.6186 136.154C23.9373 136.154 23.382 136.075 22.9526 135.916C22.5326 135.748 22.2246 135.477 22.0286 135.104C21.8326 134.721 21.7346 134.203 21.7346 133.55C21.7346 132.813 21.87 132.225 22.1406 131.786C22.4206 131.338 22.9153 131.081 23.6246 131.016V130.96C23.046 130.904 22.6306 130.689 22.3786 130.316C22.136 129.943 22.0146 129.406 22.0146 128.706C22.0146 128.146 22.0846 127.698 22.2246 127.362C22.3646 127.026 22.584 126.774 22.8826 126.606C23.1906 126.438 23.578 126.326 24.0446 126.27C24.5113 126.214 25.076 126.186 25.7386 126.186ZM29.2386 128.776V133.956C29.2386 134.245 29.2993 134.451 29.4206 134.572C29.542 134.693 29.738 134.754 30.0086 134.754H30.9466L31.1426 135.916C30.9933 135.963 30.8113 136.005 30.5966 136.042C30.3913 136.079 30.186 136.103 29.9806 136.112C29.7846 136.131 29.6166 136.14 29.4766 136.14C28.8886 136.14 28.436 135.991 28.1186 135.692C27.8013 135.393 27.6426 134.978 27.6426 134.446V130.946L27.8106 128.776H29.2386ZM39.1689 126.172C39.6075 126.172 39.9809 126.186 40.2889 126.214C40.5969 126.233 40.8815 126.265 41.1429 126.312C41.4042 126.349 41.6749 126.405 41.9549 126.48L41.8009 127.782C41.5115 127.763 41.2409 127.749 40.9889 127.74C40.7369 127.721 40.4662 127.707 40.1769 127.698C39.8969 127.689 39.5609 127.684 39.1689 127.684C38.6275 127.684 38.2029 127.791 37.8949 128.006C37.5869 128.221 37.3675 128.58 37.2369 129.084C37.1155 129.588 37.0549 130.283 37.0549 131.17C37.0549 132.057 37.1155 132.752 37.2369 133.256C37.3675 133.76 37.5869 134.119 37.8949 134.334C38.2029 134.549 38.6275 134.656 39.1689 134.656C39.7942 134.656 40.3169 134.647 40.7369 134.628C41.1662 134.6 41.5862 134.563 41.9969 134.516L42.1509 135.804C41.7309 135.935 41.2969 136.028 40.8489 136.084C40.4009 136.14 39.8409 136.168 39.1689 136.168C38.1982 136.168 37.4235 136.009 36.8449 135.692C36.2662 135.365 35.8462 134.838 35.5849 134.11C35.3329 133.382 35.2069 132.402 35.2069 131.17C35.2069 129.938 35.3329 128.958 35.5849 128.23C35.8462 127.502 36.2662 126.979 36.8449 126.662C37.4235 126.335 38.1982 126.172 39.1689 126.172ZM46.856 128.958C47.4066 128.958 47.8686 129.033 48.242 129.182C48.6246 129.322 48.914 129.565 49.11 129.91C49.306 130.255 49.404 130.731 49.404 131.338V136H48.06L47.822 134.516L47.696 134.32V131.324C47.696 130.96 47.612 130.699 47.444 130.54C47.276 130.372 46.954 130.288 46.478 130.288C46.1233 130.288 45.6753 130.302 45.134 130.33C44.602 130.358 44.0653 130.395 43.524 130.442L43.37 129.28C43.6966 129.215 44.0653 129.159 44.476 129.112C44.8866 129.065 45.302 129.028 45.722 129C46.142 128.972 46.52 128.958 46.856 128.958ZM48.676 131.772L48.662 132.822H45.512C45.232 132.831 45.0313 132.906 44.91 133.046C44.7886 133.186 44.728 133.377 44.728 133.62V133.998C44.728 134.278 44.8026 134.493 44.952 134.642C45.1013 134.782 45.3346 134.852 45.652 134.852C45.904 134.852 46.184 134.801 46.492 134.698C46.8 134.595 47.1033 134.446 47.402 134.25C47.71 134.054 47.9853 133.821 48.228 133.55V134.432C48.1346 134.572 47.9993 134.74 47.822 134.936C47.6446 135.123 47.4253 135.309 47.164 135.496C46.912 135.683 46.618 135.837 46.282 135.958C45.9553 136.079 45.5913 136.14 45.19 136.14C44.7793 136.14 44.4106 136.07 44.084 135.93C43.7573 135.781 43.5006 135.566 43.314 135.286C43.1273 134.997 43.034 134.642 43.034 134.222V133.494C43.034 132.953 43.2113 132.533 43.566 132.234C43.93 131.926 44.4246 131.772 45.05 131.772H48.676ZM55.6276 128.958C56.9063 128.958 57.5456 129.588 57.5456 130.848V136H55.8516V131.366C55.8516 130.993 55.7863 130.736 55.6556 130.596C55.525 130.456 55.3056 130.386 54.9976 130.386C54.6523 130.386 54.2976 130.465 53.9336 130.624C53.5696 130.773 53.131 130.993 52.6176 131.282L52.5476 130.26C53.0516 129.84 53.565 129.518 54.0876 129.294C54.6103 129.07 55.1236 128.958 55.6276 128.958ZM52.4916 129.126L52.6596 130.47L52.7996 130.666V136H51.1056V129.126H52.4916ZM62.3445 128.958C62.5778 128.958 62.8345 128.967 63.1145 128.986C63.3945 129.005 63.6791 129.042 63.9685 129.098C64.2578 129.154 64.5191 129.233 64.7525 129.336L64.5565 130.4C64.2111 130.381 63.8658 130.367 63.5205 130.358C63.1845 130.349 62.8905 130.344 62.6385 130.344C62.1625 130.344 61.7845 130.409 61.5045 130.54C61.2338 130.661 61.0378 130.885 60.9165 131.212C60.7951 131.529 60.7345 131.977 60.7345 132.556C60.7345 133.135 60.7951 133.587 60.9165 133.914C61.0378 134.231 61.2338 134.455 61.5045 134.586C61.7845 134.717 62.1625 134.782 62.6385 134.782C62.7785 134.782 62.9605 134.777 63.1845 134.768C63.4178 134.759 63.6651 134.745 63.9265 134.726C64.1971 134.707 64.4585 134.684 64.7105 134.656L64.8785 135.748C64.5145 135.897 64.1085 136.005 63.6605 136.07C63.2125 136.135 62.7691 136.168 62.3305 136.168C61.5091 136.168 60.8511 136.051 60.3565 135.818C59.8618 135.585 59.5025 135.207 59.2785 134.684C59.0638 134.152 58.9565 133.443 58.9565 132.556C58.9565 131.669 59.0685 130.965 59.2925 130.442C59.5165 129.91 59.8758 129.532 60.3705 129.308C60.8651 129.075 61.5231 128.958 62.3445 128.958ZM69.0948 128.958C70.2054 128.958 71.0034 129.154 71.4888 129.546C71.9741 129.929 72.2214 130.498 72.2308 131.254C72.2401 131.879 72.0908 132.355 71.7828 132.682C71.4841 132.999 70.9848 133.158 70.2848 133.158H66.3648V132.108H69.8228C70.1401 132.108 70.3408 132.024 70.4248 131.856C70.5181 131.688 70.5648 131.483 70.5648 131.24C70.5554 130.857 70.4434 130.591 70.2288 130.442C70.0234 130.293 69.6688 130.218 69.1648 130.218C68.7261 130.218 68.3854 130.279 68.1428 130.4C67.9001 130.521 67.7274 130.741 67.6248 131.058C67.5314 131.375 67.4848 131.833 67.4848 132.43C67.4848 133.065 67.5454 133.555 67.6668 133.9C67.7881 134.245 67.9888 134.483 68.2688 134.614C68.5488 134.735 68.9221 134.796 69.3888 134.796C69.7341 134.796 70.1308 134.782 70.5788 134.754C71.0361 134.726 71.4748 134.689 71.8948 134.642L72.0628 135.72C71.8108 135.823 71.5214 135.907 71.1948 135.972C70.8681 136.037 70.5274 136.084 70.1728 136.112C69.8274 136.149 69.5008 136.168 69.1928 136.168C68.3528 136.168 67.6761 136.047 67.1628 135.804C66.6588 135.552 66.2901 135.16 66.0568 134.628C65.8328 134.096 65.7208 133.41 65.7208 132.57C65.7208 131.665 65.8328 130.951 66.0568 130.428C66.2901 129.896 66.6541 129.518 67.1488 129.294C67.6528 129.07 68.3014 128.958 69.0948 128.958ZM75.3214 126.2L75.3074 133.928C75.3074 134.189 75.382 134.39 75.5314 134.53C75.6807 134.661 75.8954 134.726 76.1754 134.726H76.7774L76.9734 135.916C76.8707 135.963 76.726 136.005 76.5394 136.042C76.362 136.079 76.1754 136.103 75.9794 136.112C75.7927 136.131 75.6294 136.14 75.4894 136.14C74.92 136.14 74.4674 135.986 74.1314 135.678C73.7954 135.37 73.6274 134.927 73.6274 134.348V126.2H75.3214Z" fill="#333839"/>
<path d="M89.3995 52.6044L52.744 89.25" stroke="white" stroke-width="6.29" stroke-miterlimit="10"/>
<path d="M89.3995 52.6044L52.744 89.25" stroke="#CD967E" stroke-width="3.42" stroke-miterlimit="10"/>
<path d="M7.6601 51.6617L5 49.0016L44.9905 9.00128" stroke="white" stroke-width="6.29" stroke-miterlimit="10"/>
<path d="M7.6601 51.6617L5 49.0016L44.9905 9.00128" stroke="#CD967E" stroke-width="3.42" stroke-miterlimit="10"/>
<path d="M67.6359 86.9313H30.3154L11 67.6358V30.3153L30.3154 11H67.6359L86.9512 30.3153V67.6358L67.6359 86.9313Z" fill="#CD967E"/>
<path d="M52.7421 89.2507L49.0001 93.0026L7.65977 51.6622" stroke="white" stroke-width="6.29" stroke-miterlimit="10"/>
<path d="M52.7421 89.2507L49.0001 93.0026L7.65977 51.6622" stroke="#CD967E" stroke-width="3.42" stroke-miterlimit="10"/>
<path d="M44.9896 9.00004L48.9995 5L93 49.0004L89.397 52.6034" stroke="white" stroke-width="6.29" stroke-miterlimit="10"/>
<path d="M44.9896 9.00004L48.9995 5L93 49.0004L89.397 52.6034" stroke="#CD967E" stroke-width="3.42" stroke-miterlimit="10"/>
<g clip-path="url(#clip0_480_7522)">
<path d="M39.6 34H51.8963L52.3259 34.0885C53.7895 34.3229 55.1187 35.0759 56.0688 36.2088C57.0189 37.3417 57.5258 38.7781 57.4963 40.2537C57.4963 42.3333 57.4963 44.413 57.4963 46.4926V46.7876C56.3287 46.5719 55.1351 46.5321 53.9556 46.6696C51.7323 46.8957 49.6067 47.6948 47.7882 48.988C45.9697 50.2812 44.5211 52.0239 43.5852 54.0442C43.1392 54.8619 42.8717 55.7642 42.8003 56.6919C42.7288 57.6196 42.8549 58.5519 43.1704 59.4277C43.7719 61.0026 44.6836 62.4418 45.8519 63.6608L46.163 64C44.1185 64 42.163 64 40.237 64C39.422 64.0078 38.6135 63.8549 37.8581 63.5503C37.1027 63.2456 36.4153 62.7951 35.8356 62.2248C35.2558 61.6544 34.7952 60.9755 34.4801 60.2271C34.1651 59.4788 34.0019 58.6757 34 57.8643C34 51.9646 34 46.0649 34 40.1652C34.0056 38.8198 34.4553 37.5135 35.2798 36.4475C36.1043 35.3814 37.2579 34.6148 38.563 34.2655C38.9037 34.1327 39.2593 34.0737 39.6 34ZM44.2815 38.6903C42.9037 38.6903 41.5407 38.6903 40.163 38.6903C39.9418 38.6739 39.7197 38.7035 39.5107 38.7771C39.3017 38.8507 39.1103 38.9668 38.9487 39.118C38.7871 39.2691 38.6588 39.4521 38.572 39.6552C38.4852 39.8583 38.4418 40.0772 38.4444 40.2979C38.4423 40.5154 38.4845 40.7309 38.5684 40.9317C38.6523 41.1324 38.7763 41.3141 38.9328 41.4658C39.0893 41.6174 39.2751 41.7359 39.4789 41.814C39.6827 41.8922 39.9003 41.9283 40.1185 41.9204H48.3852C48.6298 41.9338 48.8744 41.8917 49.1002 41.7971C49.3261 41.7026 49.5274 41.5581 49.6889 41.3746C49.9088 41.1538 50.053 40.8695 50.1009 40.5622C50.1488 40.255 50.0979 39.9405 49.9556 39.6637C49.8448 39.3667 49.6409 39.1131 49.3741 38.9404C49.1073 38.7677 48.7917 38.6852 48.4741 38.705C47.0815 38.6755 45.6889 38.6903 44.2815 38.6903ZM41.8667 45.2389C41.2593 45.2389 40.6667 45.2389 40.0741 45.2389C39.8551 45.2347 39.6376 45.2752 39.435 45.358C39.2324 45.4408 39.049 45.5642 38.8962 45.7204C38.7435 45.8767 38.6245 46.0625 38.5468 46.2664C38.4691 46.4702 38.4343 46.6878 38.4444 46.9056C38.4501 47.1193 38.4986 47.3298 38.5869 47.5246C38.6753 47.7195 38.8018 47.8948 38.9591 48.0404C39.1164 48.186 39.3012 48.2989 39.5028 48.3725C39.7045 48.4461 39.9188 48.4789 40.1333 48.469H43.5704C43.7918 48.47 44.0111 48.426 44.2148 48.3398C44.4186 48.2536 44.6026 48.1269 44.7556 47.9676C44.9749 47.7535 45.1258 47.4797 45.189 47.1804C45.2523 46.8812 45.2252 46.57 45.1111 46.2861C45.0218 45.992 44.8425 45.7329 44.5981 45.5452C44.3537 45.3575 44.0566 45.2504 43.7481 45.2389C43.1259 45.2094 42.4889 45.2389 41.8667 45.2389Z" fill="white"/>
<path d="M55.3333 50.4307C57.1507 50.4329 58.9258 50.9763 60.4306 51.9908C61.9354 53.0053 63.1011 54.4447 63.7778 56.1239C63.9204 56.4599 63.9939 56.821 63.9939 57.1858C63.9939 57.5506 63.9204 57.9117 63.7778 58.2478C63.0939 60.0135 61.8648 61.5176 60.2673 62.5434C58.6699 63.5692 56.7867 64.0637 54.8889 63.9557C53.1364 63.8882 51.4431 63.306 50.0222 62.2824C48.6012 61.2588 47.5162 59.8397 46.9037 58.2035C46.7684 57.8915 46.6985 57.5552 46.6985 57.2153C46.6985 56.8754 46.7684 56.5392 46.9037 56.2271C47.4874 54.6854 48.4884 53.3346 49.7958 52.3246C51.1033 51.3145 52.6661 50.6845 54.3111 50.5044C54.5778 50.4602 54.963 50.4602 55.3333 50.4307ZM55.3333 53.6313C54.8528 53.6293 54.3766 53.7216 53.9319 53.9029C53.4872 54.0842 53.0827 54.3509 52.7415 54.6878C52.4003 55.0248 52.1292 55.4253 51.9435 55.8665C51.7578 56.3078 51.6612 56.7812 51.6593 57.2596C51.6504 57.9884 51.8597 58.7033 52.2603 59.3134C52.6609 59.9235 53.2347 60.4011 53.9088 60.6854C54.5829 60.9697 55.3268 61.0479 56.0457 60.9101C56.7645 60.7722 57.426 60.4245 57.9457 59.9112C58.4655 59.3979 58.8201 58.7422 58.9644 58.0277C59.1087 57.3131 59.0362 56.5719 58.756 55.8985C58.4759 55.2251 58.0009 54.65 57.3913 54.2462C56.7818 53.8424 56.0654 53.6284 55.3333 53.6313Z" fill="white"/>
</g>
</g>
<defs>
<clipPath id="clip0_480_7522">
<rect width="30" height="30" fill="white" transform="translate(34 34)"/>
</clipPath>
</defs>
</svg>
