<svg width="98" height="149" viewBox="0 0 98 149" fill="none" xmlns="http://www.w3.org/2000/svg">
<g opacity="0.35">
<path d="M18.5418 107.624C18.9804 107.624 19.3538 107.638 19.6618 107.666C19.9698 107.685 20.2544 107.718 20.5158 107.764C20.7771 107.802 21.0478 107.858 21.3278 107.932L21.1738 109.234C20.8844 109.216 20.6138 109.202 20.3618 109.192C20.1098 109.174 19.8391 109.16 19.5498 109.15C19.2698 109.141 18.9338 109.136 18.5418 109.136C18.0004 109.136 17.5758 109.244 17.2678 109.458C16.9598 109.673 16.7404 110.032 16.6098 110.536C16.4884 111.04 16.4278 111.736 16.4278 112.622C16.4278 113.509 16.4884 114.204 16.6098 114.708C16.7404 115.212 16.9598 115.572 17.2678 115.786C17.5758 116.001 18.0004 116.108 18.5418 116.108C19.1671 116.108 19.6898 116.099 20.1098 116.08C20.5391 116.052 20.9591 116.015 21.3698 115.968L21.5238 117.256C21.1038 117.387 20.6698 117.48 20.2218 117.536C19.7738 117.592 19.2138 117.62 18.5418 117.62C17.5711 117.62 16.7964 117.462 16.2178 117.144C15.6391 116.818 15.2191 116.29 14.9578 115.562C14.7058 114.834 14.5798 113.854 14.5798 112.622C14.5798 111.39 14.7058 110.41 14.9578 109.682C15.2191 108.954 15.6391 108.432 16.2178 108.114C16.7964 107.788 17.5711 107.624 18.5418 107.624ZM26.7889 110.41C27.3395 110.41 27.8015 110.485 28.1749 110.634C28.5575 110.774 28.8469 111.017 29.0429 111.362C29.2389 111.708 29.3369 112.184 29.3369 112.79V117.452H27.9929L27.7549 115.968L27.6289 115.772V112.776C27.6289 112.412 27.5449 112.151 27.3769 111.992C27.2089 111.824 26.8869 111.74 26.4109 111.74C26.0562 111.74 25.6082 111.754 25.0669 111.782C24.5349 111.81 23.9982 111.848 23.4569 111.894L23.3029 110.732C23.6295 110.667 23.9982 110.611 24.4089 110.564C24.8195 110.518 25.2349 110.48 25.6549 110.452C26.0749 110.424 26.4529 110.41 26.7889 110.41ZM28.6089 113.224L28.5949 114.274H25.4449C25.1649 114.284 24.9642 114.358 24.8429 114.498C24.7215 114.638 24.6609 114.83 24.6609 115.072V115.45C24.6609 115.73 24.7355 115.945 24.8849 116.094C25.0342 116.234 25.2675 116.304 25.5849 116.304C25.8369 116.304 26.1169 116.253 26.4249 116.15C26.7329 116.048 27.0362 115.898 27.3349 115.702C27.6429 115.506 27.9182 115.273 28.1609 115.002V115.884C28.0675 116.024 27.9322 116.192 27.7549 116.388C27.5775 116.575 27.3582 116.762 27.0969 116.948C26.8449 117.135 26.5509 117.289 26.2149 117.41C25.8882 117.532 25.5242 117.592 25.1229 117.592C24.7122 117.592 24.3435 117.522 24.0169 117.382C23.6902 117.233 23.4335 117.018 23.2469 116.738C23.0602 116.449 22.9669 116.094 22.9669 115.674V114.946C22.9669 114.405 23.1442 113.985 23.4989 113.686C23.8629 113.378 24.3575 113.224 24.9829 113.224H28.6089ZM32.9145 110.578L33.1385 111.922L33.2925 112.118V117.452H31.5985V110.578H32.9145ZM36.2745 110.41L36.1065 111.978H35.6165C35.2525 111.978 34.8839 112.039 34.5105 112.16C34.1372 112.282 33.6705 112.464 33.1105 112.706L32.9985 111.712C33.4839 111.302 33.9785 110.984 34.4825 110.76C34.9865 110.527 35.4719 110.41 35.9385 110.41H36.2745ZM40.1107 108.618V115.38C40.1107 115.67 40.1714 115.875 40.2927 115.996C40.4234 116.118 40.6427 116.178 40.9507 116.178H41.9027L42.0847 117.368C41.9261 117.415 41.7347 117.457 41.5107 117.494C41.2867 117.532 41.0674 117.555 40.8527 117.564C40.6381 117.583 40.4561 117.592 40.3067 117.592C39.7094 117.592 39.2427 117.434 38.9067 117.116C38.5801 116.79 38.4167 116.323 38.4167 115.716V108.618H40.1107ZM42.1547 110.578V111.754H37.1987V110.648L38.5427 110.578H42.1547ZM46.9352 110.41C47.7752 110.41 48.4425 110.527 48.9372 110.76C49.4412 110.994 49.8005 111.376 50.0152 111.908C50.2392 112.44 50.3512 113.145 50.3512 114.022C50.3512 114.9 50.2392 115.604 50.0152 116.136C49.8005 116.659 49.4412 117.042 48.9372 117.284C48.4425 117.518 47.7752 117.634 46.9352 117.634C46.1139 117.634 45.4512 117.518 44.9472 117.284C44.4525 117.042 44.0932 116.659 43.8692 116.136C43.6452 115.604 43.5332 114.9 43.5332 114.022C43.5332 113.145 43.6452 112.44 43.8692 111.908C44.0932 111.376 44.4525 110.994 44.9472 110.76C45.4512 110.527 46.1139 110.41 46.9352 110.41ZM46.9352 111.698C46.5245 111.698 46.1979 111.768 45.9552 111.908C45.7219 112.039 45.5539 112.272 45.4512 112.608C45.3485 112.944 45.2972 113.416 45.2972 114.022C45.2972 114.629 45.3485 115.1 45.4512 115.436C45.5539 115.772 45.7219 116.006 45.9552 116.136C46.1979 116.267 46.5245 116.332 46.9352 116.332C47.3552 116.332 47.6865 116.267 47.9292 116.136C48.1719 116.006 48.3399 115.772 48.4332 115.436C48.5359 115.1 48.5872 114.629 48.5872 114.022C48.5872 113.416 48.5359 112.944 48.4332 112.608C48.3399 112.272 48.1719 112.039 47.9292 111.908C47.6865 111.768 47.3552 111.698 46.9352 111.698ZM56.8903 110.41C58.169 110.41 58.8083 111.04 58.8083 112.3V117.452H57.1143V112.818C57.1143 112.445 57.049 112.188 56.9183 112.048C56.7876 111.908 56.5683 111.838 56.2603 111.838C55.915 111.838 55.5603 111.918 55.1963 112.076C54.8323 112.226 54.3936 112.445 53.8803 112.734L53.8103 111.712C54.3143 111.292 54.8276 110.97 55.3503 110.746C55.873 110.522 56.3863 110.41 56.8903 110.41ZM53.7543 110.578L53.9223 111.922L54.0623 112.118V117.452H52.3683V110.578H53.7543ZM69.0916 110.41C70.3703 110.41 71.0096 111.04 71.0096 112.3V117.452H69.3156V112.818C69.3156 112.445 69.2503 112.188 69.1196 112.048C68.989 111.908 68.7696 111.838 68.4616 111.838C68.1163 111.838 67.7616 111.918 67.3976 112.076C67.0336 112.226 66.595 112.445 66.0816 112.734L66.0116 111.712C66.5156 111.292 67.029 110.97 67.5516 110.746C68.0743 110.522 68.5876 110.41 69.0916 110.41ZM65.9556 110.578L66.1236 111.922L66.2636 112.118V117.452H64.5696V110.578H65.9556ZM76.3965 110.41C77.2365 110.41 77.9038 110.527 78.3985 110.76C78.9025 110.994 79.2618 111.376 79.4765 111.908C79.7005 112.44 79.8125 113.145 79.8125 114.022C79.8125 114.9 79.7005 115.604 79.4765 116.136C79.2618 116.659 78.9025 117.042 78.3985 117.284C77.9038 117.518 77.2365 117.634 76.3965 117.634C75.5751 117.634 74.9125 117.518 74.4085 117.284C73.9138 117.042 73.5545 116.659 73.3305 116.136C73.1065 115.604 72.9945 114.9 72.9945 114.022C72.9945 113.145 73.1065 112.44 73.3305 111.908C73.5545 111.376 73.9138 110.994 74.4085 110.76C74.9125 110.527 75.5751 110.41 76.3965 110.41ZM76.3965 111.698C75.9858 111.698 75.6591 111.768 75.4165 111.908C75.1831 112.039 75.0151 112.272 74.9125 112.608C74.8098 112.944 74.7585 113.416 74.7585 114.022C74.7585 114.629 74.8098 115.1 74.9125 115.436C75.0151 115.772 75.1831 116.006 75.4165 116.136C75.6591 116.267 75.9858 116.332 76.3965 116.332C76.8165 116.332 77.1478 116.267 77.3905 116.136C77.6331 116.006 77.8011 115.772 77.8945 115.436C77.9971 115.1 78.0485 114.629 78.0485 114.022C78.0485 113.416 77.9971 112.944 77.8945 112.608C77.8011 112.272 77.6331 112.039 77.3905 111.908C77.1478 111.768 76.8165 111.698 76.3965 111.698ZM22.5286 125.61C22.9112 125.61 23.2659 125.62 23.5926 125.638C23.9286 125.657 24.2459 125.69 24.5446 125.736C24.8432 125.783 25.1372 125.848 25.4266 125.932L25.2726 127.22C24.9646 127.202 24.6612 127.188 24.3626 127.178C24.0639 127.16 23.7652 127.15 23.4666 127.15C23.1772 127.141 22.8832 127.136 22.5846 127.136C22.1366 127.136 21.7586 127.183 21.4506 127.276C21.1426 127.36 20.8952 127.528 20.7086 127.78C20.5312 128.032 20.4006 128.392 20.3166 128.858C20.2326 129.325 20.1906 129.927 20.1906 130.664C20.1906 131.532 20.2466 132.218 20.3586 132.722C20.4799 133.217 20.6759 133.576 20.9466 133.8C21.2172 134.015 21.5812 134.122 22.0386 134.122C22.3466 134.122 22.6312 134.085 22.8926 134.01C23.1539 133.936 23.3919 133.838 23.6066 133.716C23.8306 133.586 24.0406 133.455 24.2366 133.324L24.4466 134.234C24.2972 134.421 24.0779 134.626 23.7886 134.85C23.5086 135.065 23.1726 135.252 22.7806 135.41C22.3886 135.56 21.9452 135.634 21.4506 135.634C20.7226 135.634 20.1252 135.462 19.6586 135.116C19.2012 134.762 18.8652 134.216 18.6506 133.478C18.4452 132.732 18.3426 131.775 18.3426 130.608C18.3426 129.339 18.4779 128.34 18.7486 127.612C19.0192 126.884 19.4579 126.371 20.0646 126.072C20.6806 125.764 21.5019 125.61 22.5286 125.61ZM25.7346 129.88V135.452H24.4466L24.1946 134.01L24.0266 133.66V129.88H25.7346ZM30.9936 128.41C32.1043 128.41 32.9023 128.606 33.3876 128.998C33.873 129.381 34.1203 129.95 34.1296 130.706C34.139 131.332 33.9896 131.808 33.6816 132.134C33.383 132.452 32.8836 132.61 32.1836 132.61H28.2636V131.56H31.7216C32.039 131.56 32.2396 131.476 32.3236 131.308C32.417 131.14 32.4636 130.935 32.4636 130.692C32.4543 130.31 32.3423 130.044 32.1276 129.894C31.9223 129.745 31.5676 129.67 31.0636 129.67C30.625 129.67 30.2843 129.731 30.0416 129.852C29.799 129.974 29.6263 130.193 29.5236 130.51C29.4303 130.828 29.3836 131.285 29.3836 131.882C29.3836 132.517 29.4443 133.007 29.5656 133.352C29.687 133.698 29.8876 133.936 30.1676 134.066C30.4476 134.188 30.821 134.248 31.2876 134.248C31.633 134.248 32.0296 134.234 32.4776 134.206C32.935 134.178 33.3736 134.141 33.7936 134.094L33.9616 135.172C33.7096 135.275 33.4203 135.359 33.0936 135.424C32.767 135.49 32.4263 135.536 32.0716 135.564C31.7263 135.602 31.3996 135.62 31.0916 135.62C30.2516 135.62 29.575 135.499 29.0616 135.256C28.5576 135.004 28.189 134.612 27.9556 134.08C27.7316 133.548 27.6196 132.862 27.6196 132.022C27.6196 131.117 27.7316 130.403 27.9556 129.88C28.189 129.348 28.553 128.97 29.0476 128.746C29.5516 128.522 30.2003 128.41 30.9936 128.41ZM40.5942 128.41C41.8729 128.41 42.5122 129.04 42.5122 130.3V135.452H40.8182V130.818C40.8182 130.445 40.7529 130.188 40.6222 130.048C40.4916 129.908 40.2722 129.838 39.9642 129.838C39.6189 129.838 39.2642 129.918 38.9002 130.076C38.5362 130.226 38.0976 130.445 37.5842 130.734L37.5142 129.712C38.0182 129.292 38.5316 128.97 39.0542 128.746C39.5769 128.522 40.0902 128.41 40.5942 128.41ZM37.4582 128.578L37.6262 129.922L37.7662 130.118V135.452H36.0722V128.578H37.4582ZM47.8571 128.41C48.9677 128.41 49.7657 128.606 50.2511 128.998C50.7364 129.381 50.9837 129.95 50.9931 130.706C51.0024 131.332 50.8531 131.808 50.5451 132.134C50.2464 132.452 49.7471 132.61 49.0471 132.61H45.1271V131.56H48.5851C48.9024 131.56 49.1031 131.476 49.1871 131.308C49.2804 131.14 49.3271 130.935 49.3271 130.692C49.3177 130.31 49.2057 130.044 48.9911 129.894C48.7857 129.745 48.4311 129.67 47.9271 129.67C47.4884 129.67 47.1477 129.731 46.9051 129.852C46.6624 129.974 46.4897 130.193 46.3871 130.51C46.2937 130.828 46.2471 131.285 46.2471 131.882C46.2471 132.517 46.3077 133.007 46.4291 133.352C46.5504 133.698 46.7511 133.936 47.0311 134.066C47.3111 134.188 47.6844 134.248 48.1511 134.248C48.4964 134.248 48.8931 134.234 49.3411 134.206C49.7984 134.178 50.2371 134.141 50.6571 134.094L50.8251 135.172C50.5731 135.275 50.2837 135.359 49.9571 135.424C49.6304 135.49 49.2897 135.536 48.9351 135.564C48.5897 135.602 48.2631 135.62 47.9551 135.62C47.1151 135.62 46.4384 135.499 45.9251 135.256C45.4211 135.004 45.0524 134.612 44.8191 134.08C44.5951 133.548 44.4831 132.862 44.4831 132.022C44.4831 131.117 44.5951 130.403 44.8191 129.88C45.0524 129.348 45.4164 128.97 45.9111 128.746C46.4151 128.522 47.0637 128.41 47.8571 128.41ZM54.2517 128.578L54.4757 129.922L54.6297 130.118V135.452H52.9357V128.578H54.2517ZM57.6117 128.41L57.4437 129.978H56.9537C56.5897 129.978 56.221 130.039 55.8477 130.16C55.4743 130.282 55.0077 130.464 54.4477 130.706L54.3357 129.712C54.821 129.302 55.3157 128.984 55.8197 128.76C56.3237 128.527 56.809 128.41 57.2757 128.41H57.6117ZM62.6106 128.41C63.1612 128.41 63.6232 128.485 63.9966 128.634C64.3792 128.774 64.6686 129.017 64.8646 129.362C65.0606 129.708 65.1586 130.184 65.1586 130.79V135.452H63.8146L63.5766 133.968L63.4506 133.772V130.776C63.4506 130.412 63.3666 130.151 63.1986 129.992C63.0306 129.824 62.7086 129.74 62.2326 129.74C61.8779 129.74 61.4299 129.754 60.8886 129.782C60.3566 129.81 59.8199 129.848 59.2786 129.894L59.1246 128.732C59.4512 128.667 59.8199 128.611 60.2306 128.564C60.6412 128.518 61.0566 128.48 61.4766 128.452C61.8966 128.424 62.2746 128.41 62.6106 128.41ZM64.4306 131.224L64.4166 132.274H61.2666C60.9866 132.284 60.7859 132.358 60.6646 132.498C60.5432 132.638 60.4826 132.83 60.4826 133.072V133.45C60.4826 133.73 60.5572 133.945 60.7066 134.094C60.8559 134.234 61.0892 134.304 61.4066 134.304C61.6586 134.304 61.9386 134.253 62.2466 134.15C62.5546 134.048 62.8579 133.898 63.1566 133.702C63.4646 133.506 63.7399 133.273 63.9826 133.002V133.884C63.8892 134.024 63.7539 134.192 63.5766 134.388C63.3992 134.575 63.1799 134.762 62.9186 134.948C62.6666 135.135 62.3726 135.289 62.0366 135.41C61.7099 135.532 61.3459 135.592 60.9446 135.592C60.5339 135.592 60.1652 135.522 59.8386 135.382C59.5119 135.233 59.2552 135.018 59.0686 134.738C58.8819 134.449 58.7886 134.094 58.7886 133.674V132.946C58.7886 132.405 58.9659 131.985 59.3206 131.686C59.6846 131.378 60.1792 131.224 60.8046 131.224H64.4306ZM69.6882 126.618V133.38C69.6882 133.67 69.7489 133.875 69.8702 133.996C70.0009 134.118 70.2202 134.178 70.5282 134.178H71.4802L71.6622 135.368C71.5035 135.415 71.3122 135.457 71.0882 135.494C70.8642 135.532 70.6449 135.555 70.4302 135.564C70.2155 135.583 70.0335 135.592 69.8842 135.592C69.2869 135.592 68.8202 135.434 68.4842 135.116C68.1575 134.79 67.9942 134.323 67.9942 133.716V126.618H69.6882ZM71.7322 128.578V129.754H66.7762V128.648L68.1202 128.578H71.7322ZM76.4707 128.41C77.5813 128.41 78.3793 128.606 78.8647 128.998C79.35 129.381 79.5973 129.95 79.6067 130.706C79.616 131.332 79.4667 131.808 79.1587 132.134C78.86 132.452 78.3607 132.61 77.6607 132.61H73.7407V131.56H77.1987C77.516 131.56 77.7167 131.476 77.8007 131.308C77.894 131.14 77.9407 130.935 77.9407 130.692C77.9313 130.31 77.8193 130.044 77.6047 129.894C77.3993 129.745 77.0447 129.67 76.5407 129.67C76.102 129.67 75.7613 129.731 75.5187 129.852C75.276 129.974 75.1033 130.193 75.0007 130.51C74.9073 130.828 74.8607 131.285 74.8607 131.882C74.8607 132.517 74.9213 133.007 75.0427 133.352C75.164 133.698 75.3647 133.936 75.6447 134.066C75.9247 134.188 76.298 134.248 76.7647 134.248C77.11 134.248 77.5067 134.234 77.9547 134.206C78.412 134.178 78.8507 134.141 79.2707 134.094L79.4387 135.172C79.1867 135.275 78.8973 135.359 78.5707 135.424C78.244 135.49 77.9033 135.536 77.5487 135.564C77.2033 135.602 76.8767 135.62 76.5687 135.62C75.7287 135.62 75.052 135.499 74.5387 135.256C74.0347 135.004 73.666 134.612 73.4327 134.08C73.2087 133.548 73.0967 132.862 73.0967 132.022C73.0967 131.117 73.2087 130.403 73.4327 129.88C73.666 129.348 74.03 128.97 74.5247 128.746C75.0287 128.522 75.6773 128.41 76.4707 128.41Z" fill="#333839"/>
<path d="M89.3995 52.0541L52.744 88.6996" stroke="white" stroke-width="6.29" stroke-miterlimit="10"/>
<path d="M89.3995 52.0541L52.744 88.6996" stroke="#250A9D" stroke-width="3.42" stroke-miterlimit="10"/>
<path d="M7.6601 51.1115L5 48.4514L44.9905 8.45105" stroke="white" stroke-width="6.29" stroke-miterlimit="10"/>
<path d="M7.6601 51.1115L5 48.4514L44.9905 8.45105" stroke="#250A9D" stroke-width="3.42" stroke-miterlimit="10"/>
<path d="M67.6359 86.381H30.3154L11.0001 67.0855V29.765L30.3154 10.4497H67.6359L86.9512 29.765V67.0855L67.6359 86.381Z" fill="#250A9D"/>
<path d="M52.7421 88.7004L49.0002 92.4523L7.65979 51.1119" stroke="white" stroke-width="6.29" stroke-miterlimit="10"/>
<path d="M52.7421 88.7004L49.0002 92.4523L7.65979 51.1119" stroke="#250A9D" stroke-width="3.42" stroke-miterlimit="10"/>
<path d="M44.9896 8.44974L48.9995 4.44971L93 48.4501L89.397 52.0531" stroke="white" stroke-width="6.29" stroke-miterlimit="10"/>
<path d="M44.9896 8.44974L48.9995 4.44971L93 48.4501L89.397 52.0531" stroke="#250A9D" stroke-width="3.42" stroke-miterlimit="10"/>
<g clip-path="url(#clip0_488_9053)">
<path d="M49.081 38.7281C48.9048 39.1189 48.676 39.4796 48.5799 39.8704C48.2383 41.2374 49.081 42.5635 50.459 42.8866C51.1981 43.0603 51.9372 43.2373 52.6813 43.3876C53.4688 43.548 53.9123 44.0123 54.0676 44.7972C54.2063 45.5003 54.3766 46.1984 54.5437 46.8965C55.0022 48.8171 56.9531 49.5453 58.5524 48.4055C58.5933 48.3771 58.6359 48.352 58.6818 48.322C59.6456 52.0713 58.5532 57.7605 53.6259 61.2218C48.9424 64.5119 42.5769 64.1278 38.169 60.2715C33.9165 56.5514 32.7623 50.2852 35.4248 45.1613C36.6813 42.7407 38.6984 40.7999 41.1658 39.6376C43.6332 38.4752 46.4142 38.1557 49.081 38.7281ZM47.4942 51.9502H47.865C49.3544 51.9502 50.8437 51.9502 52.3331 51.9502C52.4577 51.9556 52.5826 51.9475 52.7055 51.926C52.9479 51.8747 53.1624 51.7351 53.3074 51.5343C53.4524 51.3335 53.5175 51.086 53.49 50.8398C53.4625 50.5937 53.3444 50.3666 53.1586 50.2028C52.9728 50.039 52.7327 49.9502 52.485 49.9536C50.9434 49.9478 49.4017 49.9536 47.8609 49.9536H47.4942V49.5904C47.4942 48.0906 47.4942 46.5912 47.4942 45.092C47.4942 44.4064 47.0842 43.948 46.4837 43.9538C45.8832 43.9597 45.4949 44.4114 45.4949 45.0803C45.4949 46.5901 45.4949 48.1001 45.4949 49.6104V49.9536H45.1742C43.6434 49.9536 42.1126 49.9536 40.5809 49.9536C40.1183 49.9536 39.77 50.1365 39.5788 50.5616C39.2781 51.2363 39.7767 51.9502 40.5509 51.9536C42.0817 51.9586 43.6125 51.9536 45.1441 51.9536H45.4966V52.331C45.4966 53.8617 45.4966 55.3923 45.4966 56.9238C45.4885 57.1711 45.5726 57.4127 45.7327 57.6014C45.8928 57.7901 46.1173 57.9126 46.3627 57.945C46.6081 57.9774 46.8567 57.9174 47.0603 57.7766C47.2639 57.6359 47.4078 57.4245 47.4642 57.1835C47.4897 57.0507 47.4998 56.9153 47.4942 56.7802C47.4992 55.1836 47.4984 53.5911 47.4984 51.9502H47.4942Z" fill="white"/>
<path d="M56.989 47.4476C56.5063 47.4418 56.1304 47.1219 56.0077 46.5992C55.8356 45.8593 55.6736 45.1186 55.5066 44.378C55.2132 43.0703 54.4148 42.2631 53.1114 41.9563C52.3723 41.7826 51.6307 41.6223 50.8899 41.4553C50.3312 41.3292 49.998 40.9484 50.0047 40.444C50.0114 39.9397 50.3387 39.5814 50.8832 39.4578C51.624 39.2908 52.3648 39.1238 53.1047 38.9568C54.4087 38.6512 55.2087 37.844 55.5049 36.5352C55.672 35.8053 55.839 35.0752 56.006 34.3448C56.1313 33.7703 56.5071 33.4438 57.0132 33.4497C57.5193 33.4555 57.8734 33.7787 57.9995 34.3281C58.1665 35.068 58.3336 35.8095 58.5048 36.5485C58.8088 37.854 59.6161 38.6542 60.9267 38.9493C61.6574 39.1163 62.3882 39.2833 63.1173 39.4503C63.6893 39.5839 64.0092 39.9514 64.0025 40.4616C63.9958 40.9718 63.6801 41.3175 63.1239 41.4478C62.3951 41.6181 61.6649 41.7851 60.9334 41.9488C59.6255 42.2419 58.8146 43.0394 58.5114 44.3437C58.3352 45.0953 58.1774 45.8468 57.9995 46.5984C57.8701 47.1303 57.4842 47.4534 56.989 47.4476Z" fill="white"/>
</g>
</g>
<defs>
<clipPath id="clip0_488_9053">
<rect width="30" height="30" fill="white" transform="translate(34 33.4497)"/>
</clipPath>
</defs>
</svg>
