<svg width="100" height="156" viewBox="0 0 100 156" fill="none" xmlns="http://www.w3.org/2000/svg">
    <g opacity="0.2">
        <rect width="100" height="156" rx="19" fill="#F9FBFF"/>
        <path d="M30.4826 109.175C30.9212 109.175 31.2946 109.189 31.6026 109.217C31.9106 109.235 32.1952 109.268 32.4566 109.315C32.7179 109.352 32.9886 109.408 33.2686 109.483L33.1146 110.785C32.8252 110.766 32.5546 110.752 32.3026 110.743C32.0506 110.724 31.7799 110.71 31.4906 110.701C31.2106 110.691 30.8746 110.687 30.4826 110.687C29.9412 110.687 29.5166 110.794 29.2086 111.009C28.9006 111.223 28.6812 111.583 28.5506 112.087C28.4292 112.591 28.3686 113.286 28.3686 114.173C28.3686 115.059 28.4292 115.755 28.5506 116.259C28.6812 116.763 28.9006 117.122 29.2086 117.337C29.5166 117.551 29.9412 117.659 30.4826 117.659C31.1079 117.659 31.6306 117.649 32.0506 117.631C32.4799 117.603 32.8999 117.565 33.3106 117.519L33.4646 118.807C33.0446 118.937 32.6106 119.031 32.1626 119.087C31.7146 119.143 31.1546 119.171 30.4826 119.171C29.5119 119.171 28.7372 119.012 28.1586 118.695C27.5799 118.368 27.1599 117.841 26.8986 117.113C26.6466 116.385 26.5206 115.405 26.5206 114.173C26.5206 112.941 26.6466 111.961 26.8986 111.233C27.1599 110.505 27.5799 109.982 28.1586 109.665C28.7372 109.338 29.5119 109.175 30.4826 109.175ZM39.3737 111.961C40.6523 111.961 41.2917 112.591 41.2917 113.851V119.003H39.5837V114.369C39.5837 113.995 39.5183 113.739 39.3877 113.599C39.2663 113.459 39.0517 113.389 38.7437 113.389C38.3983 113.389 38.0437 113.463 37.6797 113.613C37.3157 113.762 36.877 113.986 36.3637 114.285L36.2377 113.305C36.7603 112.875 37.283 112.544 37.8057 112.311C38.3377 112.077 38.8603 111.961 39.3737 111.961ZM36.5457 109.203L36.5597 111.723C36.5597 112.068 36.541 112.395 36.5037 112.703C36.4757 113.001 36.4337 113.258 36.3777 113.473L36.5457 113.669V119.003H34.8517V109.203H36.5457ZM46.6085 111.961C47.1591 111.961 47.6211 112.035 47.9945 112.185C48.3771 112.325 48.6665 112.567 48.8625 112.913C49.0585 113.258 49.1565 113.734 49.1565 114.341V119.003H47.8125L47.5745 117.519L47.4485 117.323V114.327C47.4485 113.963 47.3645 113.701 47.1965 113.543C47.0285 113.375 46.7065 113.291 46.2305 113.291C45.8758 113.291 45.4278 113.305 44.8865 113.333C44.3545 113.361 43.8178 113.398 43.2765 113.445L43.1225 112.283C43.4491 112.217 43.8178 112.161 44.2285 112.115C44.6391 112.068 45.0545 112.031 45.4745 112.003C45.8945 111.975 46.2725 111.961 46.6085 111.961ZM48.4285 114.775L48.4145 115.825H45.2645C44.9845 115.834 44.7838 115.909 44.6625 116.049C44.5411 116.189 44.4805 116.38 44.4805 116.623V117.001C44.4805 117.281 44.5551 117.495 44.7045 117.645C44.8538 117.785 45.0871 117.855 45.4045 117.855C45.6565 117.855 45.9365 117.803 46.2445 117.701C46.5525 117.598 46.8558 117.449 47.1545 117.253C47.4625 117.057 47.7378 116.823 47.9805 116.553V117.435C47.8871 117.575 47.7518 117.743 47.5745 117.939C47.3971 118.125 47.1778 118.312 46.9165 118.499C46.6645 118.685 46.3705 118.839 46.0345 118.961C45.7078 119.082 45.3438 119.143 44.9425 119.143C44.5318 119.143 44.1631 119.073 43.8365 118.933C43.5098 118.783 43.2531 118.569 43.0665 118.289C42.8798 117.999 42.7865 117.645 42.7865 117.225V116.497C42.7865 115.955 42.9638 115.535 43.3185 115.237C43.6825 114.929 44.1771 114.775 44.8025 114.775H48.4285ZM55.5201 111.961C56.7988 111.961 57.4381 112.591 57.4381 113.851V119.003H55.7441V114.369C55.7441 113.995 55.6788 113.739 55.5481 113.599C55.4175 113.459 55.1981 113.389 54.8901 113.389C54.5448 113.389 54.1901 113.468 53.8261 113.627C53.4621 113.776 53.0235 113.995 52.5101 114.285L52.4401 113.263C52.9441 112.843 53.4575 112.521 53.9801 112.297C54.5028 112.073 55.0161 111.961 55.5201 111.961ZM52.3841 112.129L52.5521 113.473L52.6921 113.669V119.003H50.9981V112.129H52.3841ZM62.209 111.961C62.9836 111.961 63.595 112.035 64.043 112.185C64.5003 112.325 64.827 112.558 65.023 112.885C65.219 113.202 65.317 113.622 65.317 114.145C65.317 114.649 65.219 115.064 65.023 115.391C64.827 115.708 64.5003 115.941 64.043 116.091C63.5856 116.24 62.9696 116.315 62.195 116.315C61.4203 116.315 60.8043 116.24 60.347 116.091C59.899 115.941 59.5723 115.708 59.367 115.391C59.171 115.073 59.073 114.658 59.073 114.145C59.073 113.622 59.171 113.202 59.367 112.885C59.5723 112.558 59.9036 112.325 60.361 112.185C60.8183 112.035 61.4343 111.961 62.209 111.961ZM62.195 113.067C61.607 113.067 61.201 113.146 60.977 113.305C60.753 113.463 60.641 113.743 60.641 114.145C60.641 114.527 60.753 114.803 60.977 114.971C61.201 115.129 61.607 115.209 62.195 115.209C62.783 115.209 63.1843 115.129 63.399 114.971C63.623 114.803 63.735 114.527 63.735 114.145C63.735 113.743 63.623 113.463 63.399 113.305C63.1843 113.146 62.783 113.067 62.195 113.067ZM66.115 112.129L66.017 112.913L64.225 113.109L63.721 112.129H66.115ZM60.193 115.895L61.061 116.021C60.921 116.133 60.823 116.277 60.767 116.455C60.7203 116.623 60.7343 116.786 60.809 116.945C60.893 117.094 61.0703 117.187 61.341 117.225L63.889 117.561C64.5796 117.645 65.065 117.85 65.345 118.177C65.625 118.494 65.765 118.956 65.765 119.563C65.765 120.132 65.653 120.575 65.429 120.893C65.205 121.21 64.8363 121.429 64.323 121.551C63.819 121.681 63.1376 121.747 62.279 121.747C61.5976 121.747 61.033 121.709 60.585 121.635C60.137 121.569 59.7776 121.453 59.507 121.285C59.2456 121.126 59.059 120.916 58.947 120.655C58.835 120.403 58.779 120.085 58.779 119.703C58.779 119.404 58.8256 119.152 58.919 118.947C59.0216 118.741 59.185 118.559 59.409 118.401C59.633 118.233 59.9363 118.079 60.319 117.939L61.271 117.533L61.929 117.771L61.313 118.205C61.0983 118.363 60.921 118.508 60.781 118.639C60.6503 118.76 60.5523 118.881 60.487 119.003C60.431 119.133 60.403 119.297 60.403 119.493C60.403 119.754 60.4543 119.955 60.557 120.095C60.669 120.235 60.8603 120.328 61.131 120.375C61.4016 120.431 61.7796 120.459 62.265 120.459C62.7596 120.459 63.1423 120.431 63.413 120.375C63.6836 120.328 63.8703 120.235 63.973 120.095C64.085 119.964 64.141 119.773 64.141 119.521C64.141 119.315 64.1083 119.161 64.043 119.059C63.9776 118.965 63.861 118.891 63.693 118.835C63.525 118.779 63.2916 118.732 62.993 118.695L60.697 118.415C60.3703 118.377 60.109 118.284 59.913 118.135C59.7263 117.976 59.5956 117.789 59.521 117.575C59.4463 117.351 59.423 117.131 59.451 116.917C59.4883 116.693 59.5676 116.487 59.689 116.301C59.8196 116.114 59.9876 115.979 60.193 115.895ZM70.2927 111.961C71.4033 111.961 72.2013 112.157 72.6867 112.549C73.172 112.931 73.4193 113.501 73.4287 114.257C73.438 114.882 73.2887 115.358 72.9807 115.685C72.682 116.002 72.1827 116.161 71.4827 116.161H67.5627V115.111H71.0207C71.338 115.111 71.5387 115.027 71.6227 114.859C71.716 114.691 71.7627 114.485 71.7627 114.243C71.7533 113.86 71.6413 113.594 71.4267 113.445C71.2213 113.295 70.8667 113.221 70.3627 113.221C69.924 113.221 69.5833 113.281 69.3407 113.403C69.098 113.524 68.9253 113.743 68.8227 114.061C68.7293 114.378 68.6827 114.835 68.6827 115.433C68.6827 116.067 68.7433 116.557 68.8647 116.903C68.986 117.248 69.1867 117.486 69.4667 117.617C69.7467 117.738 70.12 117.799 70.5867 117.799C70.932 117.799 71.3287 117.785 71.7767 117.757C72.234 117.729 72.6727 117.691 73.0927 117.645L73.2607 118.723C73.0087 118.825 72.7193 118.909 72.3927 118.975C72.066 119.04 71.7253 119.087 71.3707 119.115C71.0253 119.152 70.6987 119.171 70.3907 119.171C69.5507 119.171 68.874 119.049 68.3607 118.807C67.8567 118.555 67.488 118.163 67.2547 117.631C67.0307 117.099 66.9187 116.413 66.9187 115.573C66.9187 114.667 67.0307 113.953 67.2547 113.431C67.488 112.899 67.852 112.521 68.3467 112.297C68.8507 112.073 69.4993 111.961 70.2927 111.961ZM43.7654 127.343L40.5034 133.839H38.8794L35.6034 127.343H37.4374L39.2294 131.123C39.3134 131.3 39.3834 131.491 39.4394 131.697C39.5048 131.902 39.5701 132.098 39.6354 132.285H39.7474C39.8034 132.098 39.8641 131.902 39.9294 131.697C39.9948 131.491 40.0648 131.3 40.1394 131.123L41.9314 127.343H43.7654ZM40.5594 132.733V137.003H38.8094V132.733H40.5594ZM46.8659 129.961C47.9766 129.961 48.7746 130.157 49.2599 130.549C49.7452 130.931 49.9926 131.501 50.0019 132.257C50.0112 132.882 49.8619 133.358 49.5539 133.685C49.2552 134.002 48.7559 134.161 48.0559 134.161H44.1359V133.111H47.5939C47.9112 133.111 48.1119 133.027 48.1959 132.859C48.2892 132.691 48.3359 132.485 48.3359 132.243C48.3266 131.86 48.2146 131.594 47.9999 131.445C47.7946 131.295 47.4399 131.221 46.9359 131.221C46.4972 131.221 46.1566 131.281 45.9139 131.403C45.6712 131.524 45.4986 131.743 45.3959 132.061C45.3026 132.378 45.2559 132.835 45.2559 133.433C45.2559 134.067 45.3166 134.557 45.4379 134.903C45.5592 135.248 45.7599 135.486 46.0399 135.617C46.3199 135.738 46.6932 135.799 47.1599 135.799C47.5052 135.799 47.9019 135.785 48.3499 135.757C48.8072 135.729 49.2459 135.691 49.6659 135.645L49.8339 136.723C49.5819 136.825 49.2926 136.909 48.9659 136.975C48.6392 137.04 48.2986 137.087 47.9439 137.115C47.5986 137.152 47.2719 137.171 46.9639 137.171C46.1239 137.171 45.4472 137.049 44.9339 136.807C44.4299 136.555 44.0612 136.163 43.8279 135.631C43.6039 135.099 43.4919 134.413 43.4919 133.573C43.4919 132.667 43.6039 131.953 43.8279 131.431C44.0612 130.899 44.4252 130.521 44.9199 130.297C45.4239 130.073 46.0726 129.961 46.8659 129.961ZM54.9825 129.961C55.5332 129.961 55.9952 130.035 56.3685 130.185C56.7512 130.325 57.0405 130.567 57.2365 130.913C57.4325 131.258 57.5305 131.734 57.5305 132.341V137.003H56.1865L55.9485 135.519L55.8225 135.323V132.327C55.8225 131.963 55.7385 131.701 55.5705 131.543C55.4025 131.375 55.0805 131.291 54.6045 131.291C54.2498 131.291 53.8018 131.305 53.2605 131.333C52.7285 131.361 52.1918 131.398 51.6505 131.445L51.4965 130.283C51.8232 130.217 52.1918 130.161 52.6025 130.115C53.0132 130.068 53.4285 130.031 53.8485 130.003C54.2685 129.975 54.6465 129.961 54.9825 129.961ZM56.8025 132.775L56.7885 133.825H53.6385C53.3585 133.834 53.1578 133.909 53.0365 134.049C52.9152 134.189 52.8545 134.38 52.8545 134.623V135.001C52.8545 135.281 52.9292 135.495 53.0785 135.645C53.2278 135.785 53.4612 135.855 53.7785 135.855C54.0305 135.855 54.3105 135.803 54.6185 135.701C54.9265 135.598 55.2298 135.449 55.5285 135.253C55.8365 135.057 56.1118 134.823 56.3545 134.553V135.435C56.2612 135.575 56.1258 135.743 55.9485 135.939C55.7712 136.125 55.5518 136.312 55.2905 136.499C55.0385 136.685 54.7445 136.839 54.4085 136.961C54.0818 137.082 53.7178 137.143 53.3165 137.143C52.9058 137.143 52.5372 137.073 52.2105 136.933C51.8838 136.783 51.6272 136.569 51.4405 136.289C51.2538 135.999 51.1605 135.645 51.1605 135.225V134.497C51.1605 133.955 51.3378 133.535 51.6925 133.237C52.0565 132.929 52.5512 132.775 53.1765 132.775H56.8025ZM60.6882 130.129L60.9122 131.473L61.0662 131.669V137.003H59.3722V130.129H60.6882ZM64.0482 129.961L63.8802 131.529H63.3902C63.0262 131.529 62.6575 131.589 62.2842 131.711C61.9108 131.832 61.4442 132.014 60.8842 132.257L60.7722 131.263C61.2575 130.852 61.7522 130.535 62.2562 130.311C62.7602 130.077 63.2455 129.961 63.7122 129.961H64.0482Z"
              fill="#333839"/>
        <path d="M90.3996 53.6044L53.7441 90.2499" stroke="white" stroke-width="6.29" stroke-miterlimit="10"/>
        <path d="M90.3996 53.6044L53.7441 90.2499" stroke="#98832E" stroke-width="3.42" stroke-miterlimit="10"/>
        <path d="M8.6601 52.6618L6 50.0017L45.9905 10.0013" stroke="white" stroke-width="6.29" stroke-miterlimit="10"/>
        <path d="M8.6601 52.6618L6 50.0017L45.9905 10.0013" stroke="#98832E" stroke-width="3.42"
              stroke-miterlimit="10"/>
        <path d="M68.6358 87.9313H31.3153L12 68.6358V31.3153L31.3153 12H68.6358L87.9512 31.3153V68.6358L68.6358 87.9313Z"
              fill="#98832E"/>
        <path d="M53.742 90.2507L50.0001 94.0026L8.65967 52.6622" stroke="white" stroke-width="6.29"
              stroke-miterlimit="10"/>
        <path d="M53.742 90.2507L50.0001 94.0026L8.65967 52.6622" stroke="#98832E" stroke-width="3.42"
              stroke-miterlimit="10"/>
        <path d="M45.9897 10L49.9997 6L94.0002 50.0004L90.3972 53.6034" stroke="white" stroke-width="6.29"
              stroke-miterlimit="10"/>
        <path d="M45.9897 10L49.9997 6L94.0002 50.0004L90.3972 53.6034" stroke="#98832E" stroke-width="3.42"
              stroke-miterlimit="10"/>
        <path d="M65.1633 44.1508C65.1853 44.4137 65.2142 44.6752 65.228 44.938C65.3105 46.3564 64.9705 47.7673 64.2509 48.9923C64.2358 49.0171 64.222 49.0432 64.2083 49.0694C64.2031 49.0832 64.1995 49.0975 64.1973 49.112L64.9528 49.5813C65.228 49.7547 65.5128 49.924 65.7881 50.1043C65.8417 50.1401 65.9051 50.2171 65.8995 50.2681C65.894 50.319 65.8197 50.3892 65.7619 50.4139C64.3638 50.9754 62.9642 51.5346 61.5633 52.0915C61.4409 52.1411 61.3197 52.1934 61.1945 52.2374C61.0693 52.2814 60.9881 52.2525 60.9757 52.0998C60.9427 51.6869 60.9138 51.2741 60.8835 50.8695C60.811 49.9327 60.7386 48.996 60.6661 48.0592C60.6441 47.7757 60.6152 47.4936 60.6028 47.2101C60.6011 47.1734 60.6072 47.1368 60.6208 47.1026C60.6343 47.0685 60.6549 47.0376 60.6812 47.012C60.7198 46.9844 60.8188 47.012 60.8766 47.0464C61.4023 47.3684 61.9252 47.6987 62.4482 48.0262C63.256 46.8386 63.5725 44.8293 62.6904 43.0058C62.417 42.4366 62.0441 41.9207 61.5895 41.4824C61.1327 41.0423 60.5991 40.6897 60.0152 40.442C59.4318 40.1946 58.8084 40.0547 58.1753 40.0291C57.5387 40.0122 56.9036 40.1001 56.2955 40.2892L56.1372 38.2428C56.3491 38.1933 56.5501 38.1327 56.7647 38.0983C58.346 37.8357 59.9696 38.1027 61.3836 38.8577C62.7975 39.6127 63.9226 40.8136 64.584 42.2737C64.6982 42.5269 64.7862 42.7925 64.8881 43.0526C64.9046 43.0925 64.9252 43.1311 64.9445 43.1696L65.1633 44.1508Z"
              fill="white"/>
        <path d="M48.4495 59.0134C48.6022 59.7291 48.7495 60.4254 48.9022 61.1397C47.9942 61.5189 47.0197 61.713 46.0357 61.7108C44.3515 61.7126 42.713 61.1626 41.3709 60.1448C40.0289 59.1271 39.0572 57.6976 38.6046 56.0753C38.1124 54.3594 38.2361 52.5254 38.9541 50.8911L37.8023 50.3709C37.5766 50.2691 37.3468 50.1714 37.1252 50.0613C37.0688 50.0324 37 49.9635 37 49.9112C37.0057 49.8774 37.0188 49.8452 37.0383 49.8169C37.0578 49.7886 37.0832 49.7649 37.1128 49.7475C38.5633 48.9291 40.0142 48.113 41.4656 47.2992C41.5289 47.2634 41.5908 47.2263 41.6555 47.1932C41.7931 47.1231 41.8702 47.152 41.9032 47.3075C41.9954 47.7313 42.0821 48.1566 42.1784 48.5818L42.7977 51.4939C42.8596 51.7884 42.9353 52.0801 42.9821 52.3747C42.9887 52.4127 42.9872 52.4518 42.9777 52.4892C42.9682 52.5267 42.951 52.5617 42.927 52.5921C42.8913 52.6265 42.7798 52.6114 42.7179 52.5838C42.1206 52.3196 41.5275 52.0485 40.9289 51.7801C40.2188 53.199 40.2298 55.3583 41.394 57.0936C41.8836 57.8357 42.5444 58.4493 43.3206 58.8827C44.1014 59.3187 44.9778 59.555 45.872 59.5708C46.7625 59.5846 47.6442 59.3939 48.4495 59.0134Z"
              fill="white"/>
        <path d="M44.5999 47.7285H59.0494V55.4063C59.0494 56.3545 58.3875 57.0124 57.4352 57.0137H46.21C45.2605 57.0137 44.5972 56.3518 44.5972 55.4036V47.7285H44.5999ZM48.2123 50.302C48.0458 50.302 47.8806 50.302 47.7141 50.302C47.6443 50.2979 47.5743 50.308 47.5085 50.3318C47.4426 50.3555 47.3823 50.3924 47.3312 50.4402C47.2801 50.488 47.2392 50.5457 47.2111 50.6098C47.183 50.6739 47.1682 50.7431 47.1676 50.8131C47.1671 50.883 47.1808 50.9524 47.2079 51.0169C47.2349 51.0815 47.2749 51.1398 47.3252 51.1884C47.3756 51.2371 47.4353 51.2749 47.5007 51.2997C47.5661 51.3245 47.6359 51.3358 47.7059 51.3328C48.043 51.3328 48.3815 51.3328 48.7187 51.3328C48.7886 51.3364 48.8585 51.3258 48.9242 51.3015C48.9899 51.2772 49.0499 51.2398 49.1007 51.1916C49.1515 51.1434 49.1919 51.0854 49.2195 51.021C49.2472 50.9567 49.2614 50.8874 49.2614 50.8174C49.2614 50.7474 49.2472 50.6781 49.2195 50.6138C49.1919 50.5494 49.1515 50.4914 49.1007 50.4432C49.0499 50.395 48.9899 50.3576 48.9242 50.3333C48.8585 50.3091 48.7886 50.2984 48.7187 50.302C48.5453 50.2938 48.3788 50.2965 48.2123 50.2965V50.302ZM51.804 51.3355C51.976 51.3355 52.148 51.3355 52.3187 51.3355C52.4555 51.3355 52.5868 51.2812 52.6836 51.1844C52.7804 51.0876 52.8347 50.9563 52.8347 50.8195C52.8347 50.6826 52.7804 50.5513 52.6836 50.4545C52.5868 50.3578 52.4555 50.3034 52.3187 50.3034C51.987 50.3034 51.654 50.3034 51.3224 50.3034C51.2524 50.2998 51.1825 50.3104 51.1168 50.3347C51.0512 50.359 50.9911 50.3963 50.9404 50.4446C50.8896 50.4928 50.8492 50.5508 50.8215 50.6151C50.7939 50.6795 50.7797 50.7488 50.7797 50.8188C50.7797 50.8888 50.7939 50.9581 50.8215 51.0224C50.8492 51.0867 50.8896 51.1448 50.9404 51.193C50.9911 51.2412 51.0512 51.2786 51.1168 51.3029C51.1825 51.3271 51.2524 51.3378 51.3224 51.3342C51.482 51.3342 51.643 51.33 51.804 51.33V51.3355ZM55.4466 50.302C55.276 50.302 55.104 50.302 54.932 50.302C54.8621 50.2984 54.7921 50.3091 54.7265 50.3333C54.6608 50.3576 54.6007 50.395 54.55 50.4432C54.4992 50.4914 54.4588 50.5494 54.4312 50.6138C54.4035 50.6781 54.3893 50.7474 54.3893 50.8174C54.3893 50.8874 54.4035 50.9567 54.4312 51.021C54.4588 51.0854 54.4992 51.1434 54.55 51.1916C54.6007 51.2398 54.6608 51.2772 54.7265 51.3015C54.7921 51.3258 54.8621 51.3364 54.932 51.3328C55.2746 51.3328 55.62 51.3328 55.9613 51.3328C56.0312 51.3358 56.101 51.3245 56.1665 51.2997C56.2319 51.2749 56.2916 51.2371 56.342 51.1884C56.3923 51.1398 56.4323 51.0815 56.4593 51.0169C56.4864 50.9524 56.5001 50.883 56.4995 50.8131C56.499 50.7431 56.4842 50.6739 56.4561 50.6098C56.428 50.5457 56.3871 50.488 56.336 50.4402C56.2849 50.3924 56.2246 50.3555 56.1587 50.3318C56.0929 50.308 56.0229 50.2979 55.9531 50.302C55.7797 50.2924 55.6132 50.2965 55.4466 50.2965V50.302ZM48.2288 52.8838C48.0568 52.8838 47.8861 52.8838 47.7141 52.8838C47.6443 52.8796 47.5743 52.8898 47.5085 52.9135C47.4426 52.9373 47.3823 52.9742 47.3312 53.022C47.2801 53.0698 47.2392 53.1275 47.2111 53.1916C47.183 53.2557 47.1682 53.3248 47.1676 53.3948C47.1671 53.4648 47.1808 53.5342 47.2079 53.5987C47.2349 53.6632 47.2749 53.7216 47.3252 53.7702C47.3756 53.8188 47.4353 53.8567 47.5007 53.8815C47.5661 53.9063 47.6359 53.9176 47.7059 53.9145C48.043 53.9145 48.3815 53.9145 48.7187 53.9145C48.7872 53.9153 48.8553 53.9024 48.9188 53.8768C48.9824 53.8511 49.0403 53.8132 49.0891 53.7651C49.138 53.717 49.1768 53.6598 49.2035 53.5966C49.2301 53.5334 49.244 53.4656 49.2444 53.3971C49.2411 53.2586 49.1834 53.127 49.0836 53.0309C48.9839 52.9348 48.8503 52.8819 48.7118 52.8838C48.5508 52.8741 48.3898 52.8783 48.2288 52.8783V52.8838ZM51.8219 53.9173C51.9939 53.9173 52.1659 53.9173 52.3366 53.9173C52.4065 53.9209 52.4764 53.9103 52.5421 53.886C52.6078 53.8617 52.6678 53.8243 52.7186 53.7761C52.7693 53.7279 52.8098 53.6699 52.8374 53.6055C52.865 53.5412 52.8793 53.4719 52.8793 53.4019C52.8793 53.3319 52.865 53.2626 52.8374 53.1983C52.8098 53.1339 52.7693 53.0759 52.7186 53.0277C52.6678 52.9795 52.6078 52.9421 52.5421 52.9178C52.4764 52.8936 52.4065 52.8829 52.3366 52.8865C51.998 52.8796 51.6609 52.8865 51.3224 52.8865C51.2524 52.8829 51.1825 52.8936 51.1168 52.9178C51.0512 52.9421 50.9911 52.9795 50.9404 53.0277C50.8896 53.0759 50.8492 53.1339 50.8215 53.1983C50.7939 53.2626 50.7797 53.3319 50.7797 53.4019C50.7797 53.4719 50.7939 53.5412 50.8215 53.6055C50.8492 53.6699 50.8896 53.7279 50.9404 53.7761C50.9911 53.8243 51.0512 53.8617 51.1168 53.886C51.1825 53.9103 51.2524 53.9209 51.3224 53.9173C51.4944 53.9214 51.6568 53.9118 51.8219 53.9118V53.9173ZM55.4384 53.9173C55.609 53.9173 55.7811 53.9173 55.9531 53.9173C56.023 53.9209 56.0929 53.9103 56.1586 53.886C56.2243 53.8617 56.2843 53.8243 56.3351 53.7761C56.3858 53.7279 56.4263 53.6699 56.4539 53.6055C56.4815 53.5412 56.4958 53.4719 56.4958 53.4019C56.4958 53.3319 56.4815 53.2626 56.4539 53.1983C56.4263 53.1339 56.3858 53.0759 56.3351 53.0277C56.2843 52.9795 56.2243 52.9421 56.1586 52.9178C56.0929 52.8936 56.023 52.8829 55.9531 52.8865C55.6159 52.8796 55.2774 52.8865 54.9402 52.8865C54.8703 52.8829 54.8004 52.8936 54.7347 52.9178C54.669 52.9421 54.609 52.9795 54.5582 53.0277C54.5075 53.0759 54.467 53.1339 54.4394 53.1983C54.4118 53.2626 54.3975 53.3319 54.3975 53.4019C54.3975 53.4719 54.4118 53.5412 54.4394 53.6055C54.467 53.6699 54.5075 53.7279 54.5582 53.7761C54.609 53.8243 54.669 53.8617 54.7347 53.886C54.8004 53.9103 54.8703 53.9209 54.9402 53.9173C55.1054 53.9214 55.2719 53.9118 55.4384 53.9118V53.9173Z"
              fill="white"/>
        <path d="M53.8847 43.5839H55.9489V43.1077C55.9434 43.0367 55.9527 42.9653 55.9764 42.8981C56 42.8308 56.0375 42.7693 56.0864 42.7175C56.1352 42.6657 56.1944 42.6246 56.2601 42.597C56.3258 42.5694 56.3965 42.5558 56.4677 42.5572C56.7705 42.5572 56.9797 42.7857 56.981 43.1077V43.5825H57.4476C57.659 43.5742 57.8699 43.6097 58.067 43.6866C58.2641 43.7635 58.4433 43.8803 58.5932 44.0296C58.7432 44.1789 58.8607 44.3576 58.9385 44.5544C59.0162 44.7512 59.0526 44.9619 59.0453 45.1734C59.0453 45.6674 59.0453 46.1615 59.0453 46.6665H44.6082C44.6024 46.6269 44.5987 46.5869 44.5972 46.5468C44.5972 46.0624 44.5972 45.5835 44.5972 45.0949C44.6042 44.6956 44.766 44.3147 45.0483 44.0323C45.3307 43.7499 45.7117 43.5882 46.1109 43.5811C46.2871 43.5811 46.4632 43.5811 46.6614 43.5811C46.6614 43.4049 46.6614 43.2412 46.6614 43.076C46.6583 43.0061 46.6694 42.9363 46.6941 42.8708C46.7188 42.8053 46.7566 42.7455 46.8052 42.6951C46.8537 42.6447 46.912 42.6047 46.9765 42.5775C47.041 42.5503 47.1104 42.5365 47.1804 42.537C47.2503 42.5375 47.3195 42.5522 47.3836 42.5802C47.4478 42.6082 47.5055 42.649 47.5534 42.7001C47.6013 42.7512 47.6383 42.8114 47.6621 42.8773C47.6859 42.9431 47.6962 43.013 47.6921 43.0829C47.6921 43.2426 47.6921 43.4036 47.6921 43.5811H49.7563V43.1008C49.7507 43.0298 49.7601 42.9584 49.7837 42.8912C49.8074 42.824 49.8449 42.7625 49.8938 42.7106C49.9426 42.6588 50.0018 42.6177 50.0675 42.5901C50.1332 42.5625 50.2039 42.549 50.2751 42.5503C50.5765 42.5503 50.7857 42.7788 50.787 43.1091C50.787 43.2591 50.787 43.4091 50.787 43.5701H52.8512C52.8512 43.4063 52.8512 43.2426 52.8512 43.0774C52.8481 43.0075 52.8593 42.9377 52.884 42.8722C52.9087 42.8067 52.9465 42.7469 52.995 42.6965C53.0436 42.6461 53.1019 42.606 53.1664 42.5789C53.2309 42.5517 53.3002 42.5379 53.3702 42.5384C53.4402 42.5388 53.5094 42.5535 53.5735 42.5816C53.6377 42.6096 53.6954 42.6504 53.7433 42.7015C53.7911 42.7526 53.8281 42.8128 53.852 42.8786C53.8758 42.9444 53.886 43.0144 53.882 43.0843C53.8861 43.2494 53.8847 43.4105 53.8847 43.5839Z"
              fill="white"/>
    </g>
</svg>
