<svg width="100" height="156" viewBox="0 0 100 156" fill="none" xmlns="http://www.w3.org/2000/svg">
<g opacity="0.2">
<rect width="100" height="156" rx="19" fill="#F9FBFF"/>
<path d="M39.4092 109.175C39.8479 109.175 40.2212 109.189 40.5292 109.217C40.8372 109.236 41.1219 109.268 41.3832 109.315C41.6445 109.352 41.9152 109.408 42.1952 109.483L42.0412 110.785C41.7519 110.766 41.4812 110.752 41.2292 110.743C40.9772 110.724 40.7065 110.71 40.4172 110.701C40.1372 110.692 39.8012 110.687 39.4092 110.687C38.8679 110.687 38.4432 110.794 38.1352 111.009C37.8272 111.224 37.6079 111.583 37.4772 112.087C37.3559 112.591 37.2952 113.286 37.2952 114.173C37.2952 115.06 37.3559 115.755 37.4772 116.259C37.6079 116.763 37.8272 117.122 38.1352 117.337C38.4432 117.552 38.8679 117.659 39.4092 117.659C40.0345 117.659 40.5572 117.65 40.9772 117.631C41.4065 117.603 41.8265 117.566 42.2372 117.519L42.3912 118.807C41.9712 118.938 41.5372 119.031 41.0892 119.087C40.6412 119.143 40.0812 119.171 39.4092 119.171C38.4385 119.171 37.6639 119.012 37.0852 118.695C36.5065 118.368 36.0865 117.841 35.8252 117.113C35.5732 116.385 35.4472 115.405 35.4472 114.173C35.4472 112.941 35.5732 111.961 35.8252 111.233C36.0865 110.505 36.5065 109.982 37.0852 109.665C37.6639 109.338 38.4385 109.175 39.4092 109.175ZM47.3063 111.961C48.1463 111.961 48.8136 112.078 49.3083 112.311C49.8123 112.544 50.1716 112.927 50.3863 113.459C50.6103 113.991 50.7223 114.696 50.7223 115.573C50.7223 116.45 50.6103 117.155 50.3863 117.687C50.1716 118.21 49.8123 118.592 49.3083 118.835C48.8136 119.068 48.1463 119.185 47.3063 119.185C46.485 119.185 45.8223 119.068 45.3183 118.835C44.8236 118.592 44.4643 118.21 44.2403 117.687C44.0163 117.155 43.9043 116.45 43.9043 115.573C43.9043 114.696 44.0163 113.991 44.2403 113.459C44.4643 112.927 44.8236 112.544 45.3183 112.311C45.8223 112.078 46.485 111.961 47.3063 111.961ZM47.3063 113.249C46.8956 113.249 46.569 113.319 46.3263 113.459C46.093 113.59 45.925 113.823 45.8223 114.159C45.7196 114.495 45.6683 114.966 45.6683 115.573C45.6683 116.18 45.7196 116.651 45.8223 116.987C45.925 117.323 46.093 117.556 46.3263 117.687C46.569 117.818 46.8956 117.883 47.3063 117.883C47.7263 117.883 48.0576 117.818 48.3003 117.687C48.543 117.556 48.711 117.323 48.8043 116.987C48.907 116.651 48.9583 116.18 48.9583 115.573C48.9583 114.966 48.907 114.495 48.8043 114.159C48.711 113.823 48.543 113.59 48.3003 113.459C48.0576 113.319 47.7263 113.249 47.3063 113.249ZM55.2174 111.961C55.5347 111.961 55.8754 111.97 56.2394 111.989C56.6127 112.008 56.9767 112.036 57.3314 112.073C57.6861 112.101 58.0034 112.143 58.2834 112.199L58.1714 113.305C57.7234 113.296 57.2754 113.286 56.8274 113.277C56.3887 113.258 55.9547 113.249 55.5254 113.249C55.1427 113.249 54.8394 113.258 54.6154 113.277C54.4007 113.296 54.2467 113.352 54.1534 113.445C54.0694 113.538 54.0274 113.697 54.0274 113.921C54.0274 114.192 54.1021 114.374 54.2514 114.467C54.4007 114.551 54.6434 114.635 54.9794 114.719L56.8554 115.153C57.4154 115.293 57.8307 115.508 58.1014 115.797C58.3721 116.077 58.5074 116.511 58.5074 117.099C58.5074 117.668 58.4001 118.102 58.1854 118.401C57.9801 118.69 57.6487 118.891 57.1914 119.003C56.7434 119.106 56.1694 119.157 55.4694 119.157C55.1987 119.157 54.7974 119.143 54.2654 119.115C53.7334 119.096 53.1501 119.036 52.5154 118.933L52.6274 117.827C52.8141 117.827 53.0334 117.832 53.2854 117.841C53.5467 117.85 53.8221 117.855 54.1114 117.855C54.4101 117.855 54.7134 117.855 55.0214 117.855C55.5161 117.855 55.8941 117.841 56.1554 117.813C56.4261 117.776 56.6127 117.706 56.7154 117.603C56.8181 117.491 56.8694 117.332 56.8694 117.127C56.8694 116.866 56.7807 116.693 56.6034 116.609C56.4354 116.516 56.1834 116.427 55.8474 116.343L54.0134 115.895C53.5934 115.783 53.2667 115.643 53.0334 115.475C52.8001 115.298 52.6321 115.083 52.5294 114.831C52.4267 114.57 52.3754 114.252 52.3754 113.879C52.3754 113.375 52.4687 112.983 52.6554 112.703C52.8514 112.423 53.1547 112.227 53.5654 112.115C53.9854 112.003 54.5361 111.952 55.2174 111.961ZM62.7282 110.169V116.931C62.7282 117.22 62.7888 117.426 62.9102 117.547C63.0408 117.668 63.2602 117.729 63.5682 117.729H64.5202L64.7022 118.919C64.5435 118.966 64.3522 119.008 64.1282 119.045C63.9042 119.082 63.6848 119.106 63.4702 119.115C63.2555 119.134 63.0735 119.143 62.9242 119.143C62.3268 119.143 61.8602 118.984 61.5242 118.667C61.1975 118.34 61.0342 117.874 61.0342 117.267V110.169H62.7282ZM64.7722 112.129V113.305H59.8162V112.199L61.1602 112.129H64.7722ZM31.8476 127.175C32.2862 127.175 32.6596 127.189 32.9676 127.217C33.2756 127.236 33.5602 127.268 33.8216 127.315C34.0829 127.352 34.3536 127.408 34.6336 127.483L34.4796 128.785C34.1902 128.766 33.9196 128.752 33.6676 128.743C33.4156 128.724 33.1449 128.71 32.8556 128.701C32.5756 128.692 32.2396 128.687 31.8476 128.687C31.3062 128.687 30.8816 128.794 30.5736 129.009C30.2656 129.224 30.0462 129.583 29.9156 130.087C29.7942 130.591 29.7336 131.286 29.7336 132.173C29.7336 133.06 29.7942 133.755 29.9156 134.259C30.0462 134.763 30.2656 135.122 30.5736 135.337C30.8816 135.552 31.3062 135.659 31.8476 135.659C32.4729 135.659 32.9956 135.65 33.4156 135.631C33.8449 135.603 34.2649 135.566 34.6756 135.519L34.8296 136.807C34.4096 136.938 33.9756 137.031 33.5276 137.087C33.0796 137.143 32.5196 137.171 31.8476 137.171C30.8769 137.171 30.1022 137.012 29.5236 136.695C28.9449 136.368 28.5249 135.841 28.2636 135.113C28.0116 134.385 27.8856 133.405 27.8856 132.173C27.8856 130.941 28.0116 129.961 28.2636 129.233C28.5249 128.505 28.9449 127.982 29.5236 127.665C30.1022 127.338 30.8769 127.175 31.8476 127.175ZM39.7027 129.961C40.8133 129.961 41.6113 130.157 42.0967 130.549C42.582 130.932 42.8293 131.501 42.8387 132.257C42.848 132.882 42.6987 133.358 42.3907 133.685C42.092 134.002 41.5927 134.161 40.8927 134.161H36.9727V133.111H40.4307C40.748 133.111 40.9487 133.027 41.0327 132.859C41.126 132.691 41.1727 132.486 41.1727 132.243C41.1633 131.86 41.0513 131.594 40.8367 131.445C40.6313 131.296 40.2767 131.221 39.7727 131.221C39.334 131.221 38.9933 131.282 38.7507 131.403C38.508 131.524 38.3353 131.744 38.2327 132.061C38.1393 132.378 38.0927 132.836 38.0927 133.433C38.0927 134.068 38.1533 134.558 38.2747 134.903C38.396 135.248 38.5967 135.486 38.8767 135.617C39.1567 135.738 39.53 135.799 39.9967 135.799C40.342 135.799 40.7387 135.785 41.1867 135.757C41.644 135.729 42.0827 135.692 42.5027 135.645L42.6707 136.723C42.4187 136.826 42.1293 136.91 41.8027 136.975C41.476 137.04 41.1353 137.087 40.7807 137.115C40.4353 137.152 40.1087 137.171 39.8007 137.171C38.9607 137.171 38.284 137.05 37.7707 136.807C37.2667 136.555 36.898 136.163 36.6647 135.631C36.4407 135.099 36.3287 134.413 36.3287 133.573C36.3287 132.668 36.4407 131.954 36.6647 131.431C36.898 130.899 37.262 130.521 37.7567 130.297C38.2607 130.073 38.9093 129.961 39.7027 129.961ZM49.3033 129.961C50.5819 129.961 51.2213 130.591 51.2213 131.851V137.003H49.5273V132.369C49.5273 131.996 49.4619 131.739 49.3313 131.599C49.2006 131.459 48.9813 131.389 48.6733 131.389C48.3279 131.389 47.9733 131.468 47.6093 131.627C47.2453 131.776 46.8066 131.996 46.2933 132.285L46.2233 131.263C46.7273 130.843 47.2406 130.521 47.7633 130.297C48.2859 130.073 48.7993 129.961 49.3033 129.961ZM46.1673 130.129L46.3353 131.473L46.4753 131.669V137.003H44.7813V130.129H46.1673ZM55.7681 128.169V134.931C55.7681 135.22 55.8288 135.426 55.9501 135.547C56.0808 135.668 56.3001 135.729 56.6081 135.729H57.5601L57.7421 136.919C57.5834 136.966 57.3921 137.008 57.1681 137.045C56.9441 137.082 56.7248 137.106 56.5101 137.115C56.2954 137.134 56.1134 137.143 55.9641 137.143C55.3668 137.143 54.9001 136.984 54.5641 136.667C54.2374 136.34 54.0741 135.874 54.0741 135.267V128.169H55.7681ZM57.8121 130.129V131.305H52.8561V130.199L54.2001 130.129H57.8121ZM62.5505 129.961C63.6612 129.961 64.4592 130.157 64.9445 130.549C65.4299 130.932 65.6772 131.501 65.6865 132.257C65.6959 132.882 65.5465 133.358 65.2385 133.685C64.9399 134.002 64.4405 134.161 63.7405 134.161H59.8205V133.111H63.2785C63.5959 133.111 63.7965 133.027 63.8805 132.859C63.9739 132.691 64.0205 132.486 64.0205 132.243C64.0112 131.86 63.8992 131.594 63.6845 131.445C63.4792 131.296 63.1245 131.221 62.6205 131.221C62.1819 131.221 61.8412 131.282 61.5985 131.403C61.3559 131.524 61.1832 131.744 61.0805 132.061C60.9872 132.378 60.9405 132.836 60.9405 133.433C60.9405 134.068 61.0012 134.558 61.1225 134.903C61.2439 135.248 61.4445 135.486 61.7245 135.617C62.0045 135.738 62.3779 135.799 62.8445 135.799C63.1899 135.799 63.5865 135.785 64.0345 135.757C64.4919 135.729 64.9305 135.692 65.3505 135.645L65.5185 136.723C65.2665 136.826 64.9772 136.91 64.6505 136.975C64.3239 137.04 63.9832 137.087 63.6285 137.115C63.2832 137.152 62.9565 137.171 62.6485 137.171C61.8085 137.171 61.1319 137.05 60.6185 136.807C60.1145 136.555 59.7459 136.163 59.5125 135.631C59.2885 135.099 59.1765 134.413 59.1765 133.573C59.1765 132.668 59.2885 131.954 59.5125 131.431C59.7459 130.899 60.1099 130.521 60.6045 130.297C61.1085 130.073 61.7572 129.961 62.5505 129.961ZM68.9452 130.129L69.1692 131.473L69.3232 131.669V137.003H67.6292V130.129H68.9452ZM72.3052 129.961L72.1372 131.529H71.6472C71.2832 131.529 70.9145 131.59 70.5412 131.711C70.1678 131.832 69.7012 132.014 69.1412 132.257L69.0292 131.263C69.5145 130.852 70.0092 130.535 70.5132 130.311C71.0172 130.078 71.5025 129.961 71.9692 129.961H72.3052Z" fill="#40337A"/>
<path d="M90.3996 53.6045L53.7441 90.2501" stroke="white" stroke-width="6.29" stroke-miterlimit="10"/>
<path d="M90.3996 53.6045L53.7441 90.2501" stroke="#40337A" stroke-width="3.42" stroke-miterlimit="10"/>
<path d="M8.6601 52.6614L6 50.0013L45.9905 10.001" stroke="white" stroke-width="6.29" stroke-miterlimit="10"/>
<path d="M8.6601 52.6614L6 50.0013L45.9905 10.001" stroke="#40337A" stroke-width="3.42" stroke-miterlimit="10"/>
<path d="M68.6358 87.9313H31.3153L12 68.6358V31.3153L31.3153 12H68.6358L87.9512 31.3153V68.6358L68.6358 87.9313Z" fill="#40337A"/>
<path d="M53.7425 90.2506L50.0005 94.0025L8.66016 52.6621" stroke="white" stroke-width="6.29" stroke-miterlimit="10"/>
<path d="M53.7425 90.2506L50.0005 94.0025L8.66016 52.6621" stroke="#40337A" stroke-width="3.42" stroke-miterlimit="10"/>
<path d="M45.9893 10L49.9992 6L93.9997 50.0004L90.3967 53.6034" stroke="white" stroke-width="6.29" stroke-miterlimit="10"/>
<path d="M45.9893 10L49.9992 6L93.9997 50.0004L90.3967 53.6034" stroke="#40337A" stroke-width="3.42" stroke-miterlimit="10"/>
<g clip-path="url(#clip0_1554_3461)">
<g clip-path="url(#clip1_1554_3461)">
<path d="M47.9892 54.7875C47.8331 55.6884 47.9372 56.5862 48.2933 57.4813C48.2131 57.486 48.1527 57.4928 48.0928 57.4928C46.0197 57.4928 43.9465 57.4928 41.8733 57.4928C40.7425 57.4928 39.999 56.7407 39.999 55.6062C39.9994 51.3653 39.9995 47.1242 39.9995 42.883C39.9995 41.7552 40.7529 41 41.8796 41H51.8237C52.9395 41 53.6881 41.7526 53.6923 42.8736C53.6923 43.1338 53.6923 43.3914 53.6923 43.6626C53.1956 43.7797 52.8327 44.0592 52.6286 44.4901L51.7378 44.4157C51.7378 44.2975 51.7404 44.1429 51.7378 43.9894C51.7326 43.7141 51.5785 43.5564 51.3047 43.5413C51.2594 43.5413 51.2141 43.5413 51.1683 43.5413H42.5298C42.0821 43.5403 41.9535 43.6693 41.9535 44.1226C41.9535 44.5645 41.9535 45.0074 41.9535 45.4477C41.9535 45.812 42.0982 45.9551 42.4622 45.9551C45.107 45.9551 47.752 45.9551 50.3972 45.9551C50.5565 45.9551 50.633 45.9785 50.6575 46.1633C50.7044 46.5115 50.9137 46.7805 51.1688 47.0137C51.2651 47.1011 51.3593 47.1901 51.4369 47.2625C51.2557 47.4706 51.0917 47.6689 50.9163 47.8558C50.8709 47.888 50.8155 47.9031 50.7601 47.8984C50.3378 47.9016 49.9151 47.8984 49.4928 47.8984C49.1883 47.8984 49.0331 48.0457 49.0217 48.3445C49.0161 48.4937 49.0161 48.643 49.0217 48.7926C49.0326 49.0866 49.1779 49.2329 49.4736 49.2381C49.8313 49.2443 50.19 49.2599 50.5456 49.2339C50.8408 49.212 51.0438 49.2995 51.162 49.5878C50.8496 49.9521 50.5331 50.3273 50.2082 50.6974C50.1642 50.7331 50.1087 50.7516 50.052 50.7494C49.8573 50.7557 49.662 50.7494 49.4673 50.7536C49.1877 50.7619 49.0352 50.9097 49.0222 51.1897C49.009 51.3456 49.0102 51.5024 49.0258 51.6581C49.0451 51.7919 49.1086 51.9183 49.1685 52.0974C48.6999 52.7838 48.2579 53.5484 48.0148 54.4269C48.0148 54.3103 48.0179 54.1937 48.0148 54.0776C48.0049 53.7706 47.8617 53.6191 47.5582 53.6155C47.084 53.6092 46.6096 53.6092 46.1347 53.6155C45.8223 53.6197 45.6844 53.7654 45.6787 54.073C45.6755 54.2421 45.6729 54.4112 45.6833 54.5794C45.6847 54.6786 45.7251 54.7733 45.7957 54.843C45.8663 54.9127 45.9615 54.9519 46.0608 54.952C46.5814 54.9608 47.1021 54.965 47.6201 54.9478C47.744 54.939 47.8612 54.8437 47.9892 54.7875ZM43.4982 52.0984C43.745 52.0984 43.9913 52.1041 44.2375 52.0984C44.4978 52.0906 44.6582 51.9329 44.6702 51.6706C44.6788 51.5023 44.6788 51.3336 44.6702 51.1653C44.6566 50.9217 44.5046 50.7598 44.262 50.7551C43.7563 50.7458 43.2504 50.7458 42.7443 50.7551C42.4918 50.7598 42.3435 50.9269 42.3367 51.1814C42.332 51.3375 42.333 51.4937 42.3367 51.6498C42.3419 51.9381 42.4929 52.0948 42.7813 52.1015C43.0192 52.1031 43.2587 52.0989 43.4982 52.0984ZM46.849 52.0984C47.0953 52.0984 47.3421 52.1047 47.5878 52.0984C47.8435 52.0906 47.9986 51.9423 48.0137 51.6862C48.0244 51.5115 48.0244 51.3363 48.0137 51.1616C47.9986 50.916 47.8481 50.7593 47.604 50.7551C47.0986 50.7458 46.5929 50.7458 46.0868 50.7551C45.8427 50.7598 45.6938 50.9222 45.6833 51.1658C45.6766 51.3271 45.6776 51.4895 45.6833 51.6513C45.6911 51.9407 45.8421 52.0932 46.1316 52.0994C46.369 52.1031 46.6116 52.0989 46.849 52.0984ZM43.5076 49.2386C43.7601 49.2386 44.0137 49.2464 44.2656 49.2386C44.502 49.2287 44.652 49.0825 44.6676 48.8456C44.6788 48.6645 44.6788 48.4829 44.6676 48.3018C44.653 48.0671 44.4968 47.9078 44.2693 47.9047C43.7577 47.8981 43.2455 47.8981 42.7329 47.9047C42.6807 47.9036 42.6288 47.9131 42.5804 47.9325C42.5319 47.9519 42.4878 47.9808 42.4508 48.0175C42.4137 48.0543 42.3844 48.0981 42.3646 48.1464C42.3449 48.1947 42.335 48.2465 42.3356 48.2987C42.3289 48.4668 42.3304 48.6359 42.3356 48.804C42.3414 49.0851 42.4856 49.2339 42.7693 49.2417C43.0146 49.2443 43.2608 49.2386 43.5076 49.2386ZM43.4904 54.952C43.7367 54.952 43.9835 54.9551 44.2297 54.952C44.4942 54.9473 44.6561 54.7959 44.6697 54.5356C44.678 54.3675 44.6775 54.1984 44.6697 54.0303C44.6577 53.7904 44.5135 53.6254 44.2865 53.6207C43.7617 53.6099 43.2367 53.6099 42.7115 53.6207C42.484 53.6254 42.3471 53.7841 42.3362 54.0115C42.3294 54.1802 42.331 54.3488 42.3362 54.5169C42.3419 54.7933 42.496 54.9489 42.7725 54.9535C43.0104 54.9556 43.2504 54.952 43.4904 54.952ZM46.8475 47.8979C46.6012 47.8979 46.355 47.8943 46.1087 47.8979C45.8484 47.9021 45.6922 48.0499 45.6833 48.3039C45.6761 48.4782 45.6761 48.6536 45.6833 48.8285C45.6938 49.0788 45.8348 49.2287 46.0879 49.2334C46.5929 49.2421 47.0984 49.2421 47.6045 49.2334C47.8523 49.2292 47.9976 49.0772 48.0137 48.829C48.0233 48.6609 48.0233 48.4923 48.0137 48.3242C48.0007 48.0473 47.8429 47.9 47.5654 47.8969C47.327 47.8953 47.0875 47.8974 46.8475 47.8979Z" fill="white"/>
<path d="M53.9364 60.3505C52.412 60.3223 51.0532 59.8732 49.9478 58.8001C48.3766 57.2746 48.1032 55.1294 49.2153 53.2017C49.8921 52.0255 50.7616 50.9903 51.6659 49.9848C51.717 49.9437 51.7816 49.9231 51.8471 49.9271C52.0153 49.9302 52.1829 49.9598 52.3511 49.9604C53.4361 49.9635 54.5213 49.9635 55.6067 49.9604C55.6978 49.9604 55.7972 49.9781 55.8779 49.9474C56.1054 49.861 56.2273 49.9775 56.3647 50.1347C57.1936 51.0856 58.0037 52.0505 58.6362 53.1475C59.4594 54.5741 59.6197 56.0511 58.8622 57.551C58.2229 58.8167 57.166 59.6093 55.8336 60.0491C55.5689 60.1369 55.2972 60.2022 55.0215 60.2443C54.6622 60.2984 54.2983 60.3166 53.9364 60.3505ZM55.6712 55.9106C55.6573 55.7978 55.6365 55.6861 55.6087 55.5759C55.44 54.992 54.9897 54.7208 54.4477 54.5657C54.1244 54.4731 53.7896 54.4164 53.47 54.3139C53.2378 54.2389 53.0654 54.0802 53.0534 53.8064C53.0399 53.5181 53.1857 53.3276 53.4288 53.2001C53.55 53.1339 53.6832 53.0927 53.8205 53.0787C53.9579 53.0647 54.0967 53.0783 54.2287 53.1187C54.3607 53.1591 54.4834 53.2254 54.5894 53.3139C54.6954 53.4023 54.7826 53.511 54.846 53.6336C54.9694 53.8621 55.162 53.9428 55.3552 53.847C55.5483 53.7513 55.6009 53.541 55.4921 53.3115C55.4024 53.1088 55.27 52.9278 55.1038 52.781C54.9377 52.6343 54.7417 52.5251 54.5295 52.4611C54.3478 52.4054 54.265 52.3393 54.279 52.1332C54.2856 52.0844 54.2813 52.0348 54.2665 51.9878C54.2518 51.9409 54.2269 51.8977 54.1936 51.8614C54.1603 51.8252 54.1195 51.7966 54.074 51.7778C54.0285 51.7591 53.9794 51.7505 53.9302 51.7528C53.7147 51.7528 53.5595 51.9037 53.5715 52.1447C53.5809 52.3299 53.534 52.4356 53.3377 52.46C53.2614 52.4761 53.1885 52.5053 53.1222 52.5464C52.6135 52.8124 52.3173 53.2194 52.3287 53.8059C52.3402 54.3924 52.6656 54.762 53.18 54.9738C53.4231 55.0742 53.6928 55.1091 53.9453 55.1892C54.1978 55.2694 54.4659 55.3282 54.6836 55.4677C55.0782 55.7222 55.0313 56.253 54.5982 56.4279C54.3409 56.5301 54.0653 56.5781 53.7886 56.5689C53.3841 56.5528 53.054 56.3649 52.9077 55.9486C52.8155 55.6883 52.6416 55.5806 52.4261 55.653C52.2105 55.7253 52.1413 55.9241 52.2288 56.1864C52.399 56.699 52.7577 57.0332 53.2627 57.1883C53.4856 57.257 53.6032 57.3257 53.5751 57.5838C53.5564 57.7613 53.7199 57.8992 53.8943 57.9132C54.0687 57.9273 54.2801 57.8091 54.2618 57.6452C54.2218 57.2934 54.4425 57.2512 54.6909 57.1716C54.8864 57.1034 55.0692 57.0031 55.2318 56.8749C55.5233 56.6543 55.6572 56.342 55.6712 55.9106Z" fill="white"/>
<path d="M53.9342 47.1213C53.4016 47.1213 52.869 47.1275 52.3363 47.1156C52.2257 47.1062 52.121 47.0617 52.0375 46.9886C51.8511 46.8278 51.6824 46.6461 51.5101 46.4681C51.1977 46.146 51.1576 45.7088 51.4106 45.3721C51.6569 45.0447 52.0875 44.9599 52.4764 45.1639C52.8039 45.3325 53.0382 45.2342 53.1496 44.8808C53.2678 44.5082 53.5723 44.274 53.9399 44.2734C54.3075 44.2729 54.6167 44.5066 54.7323 44.8777C54.8448 45.2331 55.078 45.3331 55.4034 45.1655C55.7944 44.9641 56.225 45.0468 56.4707 45.3737C56.7253 45.7093 56.691 46.1465 56.376 46.4707C56.1635 46.6893 55.9766 46.9771 55.7158 47.0916C55.4701 47.1994 55.1431 47.1229 54.85 47.1244C54.5449 47.1223 54.2398 47.1213 53.9342 47.1213Z" fill="white"/>
<path d="M53.9397 49.3377C53.367 49.3377 52.7969 49.3377 52.2253 49.3377C51.7281 49.3377 51.3761 49.0067 51.374 48.5456C51.372 48.0845 51.7239 47.7462 52.218 47.7457C53.3676 47.7436 54.5169 47.7436 55.6662 47.7457C56.1576 47.7457 56.5127 48.0876 56.5091 48.5477C56.5054 49.0078 56.1545 49.3351 55.6735 49.3377C55.0976 49.3398 54.5176 49.3377 53.9397 49.3377Z" fill="white"/>
</g>
</g>
</g>
<defs>
<clipPath id="clip0_1554_3461">
<rect width="19.3488" height="24.78" fill="white" transform="translate(40 38)"/>
</clipPath>
<clipPath id="clip1_1554_3461">
<rect width="19.35" height="19.35" fill="white" transform="translate(40 41)"/>
</clipPath>
</defs>
</svg>
