<svg width="100" height="156" viewBox="0 0 100 156" fill="none" xmlns="http://www.w3.org/2000/svg">
<g opacity="0.2">
<rect width="100" height="156" rx="19" fill="#F9FBFF"/>
<path d="M25.827 109.175C26.2657 109.175 26.639 109.189 26.947 109.217C27.255 109.235 27.5397 109.268 27.801 109.315C28.0623 109.352 28.333 109.408 28.613 109.483L28.459 110.785C28.1697 110.766 27.899 110.752 27.647 110.743C27.395 110.724 27.1243 110.71 26.835 110.701C26.555 110.691 26.219 110.687 25.827 110.687C25.2857 110.687 24.861 110.794 24.553 111.009C24.245 111.223 24.0257 111.583 23.895 112.087C23.7737 112.591 23.713 113.286 23.713 114.173C23.713 115.059 23.7737 115.755 23.895 116.259C24.0257 116.763 24.245 117.122 24.553 117.337C24.861 117.551 25.2857 117.659 25.827 117.659C26.4523 117.659 26.975 117.649 27.395 117.631C27.8243 117.603 28.2443 117.565 28.655 117.519L28.809 118.807C28.389 118.937 27.955 119.031 27.507 119.087C27.059 119.143 26.499 119.171 25.827 119.171C24.8563 119.171 24.0817 119.012 23.503 118.695C22.9243 118.368 22.5043 117.841 22.243 117.113C21.991 116.385 21.865 115.405 21.865 114.173C21.865 112.941 21.991 111.961 22.243 111.233C22.5043 110.505 22.9243 109.982 23.503 109.665C24.0817 109.338 24.8563 109.175 25.827 109.175ZM33.7241 111.961C34.5641 111.961 35.2314 112.077 35.7261 112.311C36.2301 112.544 36.5894 112.927 36.8041 113.459C37.0281 113.991 37.1401 114.695 37.1401 115.573C37.1401 116.45 37.0281 117.155 36.8041 117.687C36.5894 118.209 36.2301 118.592 35.7261 118.835C35.2314 119.068 34.5641 119.185 33.7241 119.185C32.9028 119.185 32.2401 119.068 31.7361 118.835C31.2414 118.592 30.8821 118.209 30.6581 117.687C30.4341 117.155 30.3221 116.45 30.3221 115.573C30.3221 114.695 30.4341 113.991 30.6581 113.459C30.8821 112.927 31.2414 112.544 31.7361 112.311C32.2401 112.077 32.9028 111.961 33.7241 111.961ZM33.7241 113.249C33.3134 113.249 32.9868 113.319 32.7441 113.459C32.5108 113.589 32.3428 113.823 32.2401 114.159C32.1374 114.495 32.0861 114.966 32.0861 115.573C32.0861 116.179 32.1374 116.651 32.2401 116.987C32.3428 117.323 32.5108 117.556 32.7441 117.687C32.9868 117.817 33.3134 117.883 33.7241 117.883C34.1441 117.883 34.4754 117.817 34.7181 117.687C34.9608 117.556 35.1288 117.323 35.2221 116.987C35.3248 116.651 35.3761 116.179 35.3761 115.573C35.3761 114.966 35.3248 114.495 35.2221 114.159C35.1288 113.823 34.9608 113.589 34.7181 113.459C34.4754 113.319 34.1441 113.249 33.7241 113.249ZM40.8092 112.129V116.777C40.7999 117.122 40.8652 117.369 41.0052 117.519C41.1545 117.668 41.3925 117.743 41.7192 117.743C42.0459 117.743 42.3725 117.673 42.6992 117.533C43.0259 117.393 43.4225 117.183 43.8892 116.903L44.0572 117.911C43.5345 118.331 43.0305 118.648 42.5452 118.863C42.0599 119.077 41.5559 119.185 41.0332 119.185C39.7545 119.185 39.1152 118.555 39.1152 117.295V112.129H40.8092ZM45.4152 112.129V119.003H44.0712L43.8892 117.673L43.7212 117.477V112.129H45.4152ZM52.2613 111.961C53.54 111.961 54.1793 112.591 54.1793 113.851V119.003H52.4853V114.369C52.4853 113.995 52.42 113.739 52.2893 113.599C52.1586 113.459 51.9393 113.389 51.6313 113.389C51.286 113.389 50.9313 113.468 50.5673 113.627C50.2033 113.776 49.7646 113.995 49.2513 114.285L49.1813 113.263C49.6853 112.843 50.1986 112.521 50.7213 112.297C51.244 112.073 51.7573 111.961 52.2613 111.961ZM49.1253 112.129L49.2933 113.473L49.4333 113.669V119.003H47.7393V112.129H49.1253ZM58.7261 110.169V116.931C58.7261 117.22 58.7868 117.425 58.9081 117.547C59.0388 117.668 59.2581 117.729 59.5661 117.729H60.5181L60.7001 118.919C60.5415 118.965 60.3501 119.007 60.1261 119.045C59.9021 119.082 59.6828 119.105 59.4681 119.115C59.2535 119.133 59.0715 119.143 58.9221 119.143C58.3248 119.143 57.8581 118.984 57.5221 118.667C57.1955 118.34 57.0321 117.873 57.0321 117.267V110.169H58.7261ZM60.7701 112.129V113.305H55.8141V112.199L57.1581 112.129H60.7701ZM65.5086 111.961C66.6193 111.961 67.4173 112.157 67.9026 112.549C68.3879 112.931 68.6353 113.501 68.6446 114.257C68.6539 114.882 68.5046 115.358 68.1966 115.685C67.8979 116.002 67.3986 116.161 66.6986 116.161H62.7786V115.111H66.2366C66.5539 115.111 66.7546 115.027 66.8386 114.859C66.9319 114.691 66.9786 114.485 66.9786 114.243C66.9693 113.86 66.8573 113.594 66.6426 113.445C66.4373 113.295 66.0826 113.221 65.5786 113.221C65.1399 113.221 64.7993 113.281 64.5566 113.403C64.3139 113.524 64.1413 113.743 64.0386 114.061C63.9453 114.378 63.8986 114.835 63.8986 115.433C63.8986 116.067 63.9593 116.557 64.0806 116.903C64.2019 117.248 64.4026 117.486 64.6826 117.617C64.9626 117.738 65.3359 117.799 65.8026 117.799C66.1479 117.799 66.5446 117.785 66.9926 117.757C67.4499 117.729 67.8886 117.691 68.3086 117.645L68.4766 118.723C68.2246 118.825 67.9353 118.909 67.6086 118.975C67.2819 119.04 66.9413 119.087 66.5866 119.115C66.2413 119.152 65.9146 119.171 65.6066 119.171C64.7666 119.171 64.0899 119.049 63.5766 118.807C63.0726 118.555 62.7039 118.163 62.4706 117.631C62.2466 117.099 62.1346 116.413 62.1346 115.573C62.1346 114.667 62.2466 113.953 62.4706 113.431C62.7039 112.899 63.0679 112.521 63.5626 112.297C64.0666 112.073 64.7153 111.961 65.5086 111.961ZM71.9032 112.129L72.1272 113.473L72.2812 113.669V119.003H70.5872V112.129H71.9032ZM75.2632 111.961L75.0952 113.529H74.6052C74.2412 113.529 73.8725 113.589 73.4992 113.711C73.1259 113.832 72.6592 114.014 72.0992 114.257L71.9872 113.263C72.4725 112.852 72.9672 112.535 73.4712 112.311C73.9752 112.077 74.4605 111.961 74.9272 111.961H75.2632ZM34.6777 127.343V137.003H32.9277V127.343H34.6777ZM39.6098 129.961C39.9272 129.961 40.2678 129.97 40.6318 129.989C41.0052 130.007 41.3692 130.035 41.7239 130.073C42.0785 130.101 42.3958 130.143 42.6758 130.199L42.5639 131.305C42.1158 131.295 41.6678 131.286 41.2198 131.277C40.7812 131.258 40.3472 131.249 39.9178 131.249C39.5352 131.249 39.2318 131.258 39.0078 131.277C38.7932 131.295 38.6392 131.351 38.5458 131.445C38.4618 131.538 38.4198 131.697 38.4198 131.921C38.4198 132.191 38.4945 132.373 38.6438 132.467C38.7932 132.551 39.0358 132.635 39.3718 132.719L41.2478 133.153C41.8078 133.293 42.2232 133.507 42.4939 133.797C42.7645 134.077 42.8998 134.511 42.8998 135.099C42.8998 135.668 42.7925 136.102 42.5778 136.401C42.3725 136.69 42.0412 136.891 41.5838 137.003C41.1358 137.105 40.5618 137.157 39.8618 137.157C39.5912 137.157 39.1898 137.143 38.6578 137.115C38.1258 137.096 37.5425 137.035 36.9078 136.933L37.0198 135.827C37.2065 135.827 37.4258 135.831 37.6778 135.841C37.9392 135.85 38.2145 135.855 38.5038 135.855C38.8025 135.855 39.1058 135.855 39.4138 135.855C39.9085 135.855 40.2865 135.841 40.5478 135.813C40.8185 135.775 41.0052 135.705 41.1079 135.603C41.2105 135.491 41.2618 135.332 41.2618 135.127C41.2618 134.865 41.1732 134.693 40.9958 134.609C40.8278 134.515 40.5758 134.427 40.2398 134.343L38.4058 133.895C37.9858 133.783 37.6592 133.643 37.4258 133.475C37.1925 133.297 37.0245 133.083 36.9218 132.831C36.8192 132.569 36.7678 132.252 36.7678 131.879C36.7678 131.375 36.8612 130.983 37.0478 130.703C37.2438 130.423 37.5472 130.227 37.9578 130.115C38.3778 130.003 38.9285 129.951 39.6098 129.961ZM47.3306 129.961C47.648 129.961 47.9886 129.97 48.3526 129.989C48.726 130.007 49.09 130.035 49.4446 130.073C49.7993 130.101 50.1166 130.143 50.3966 130.199L50.2846 131.305C49.8366 131.295 49.3886 131.286 48.9406 131.277C48.502 131.258 48.068 131.249 47.6386 131.249C47.256 131.249 46.9526 131.258 46.7286 131.277C46.514 131.295 46.36 131.351 46.2666 131.445C46.1826 131.538 46.1406 131.697 46.1406 131.921C46.1406 132.191 46.2153 132.373 46.3646 132.467C46.514 132.551 46.7566 132.635 47.0926 132.719L48.9686 133.153C49.5286 133.293 49.944 133.507 50.2146 133.797C50.4853 134.077 50.6206 134.511 50.6206 135.099C50.6206 135.668 50.5133 136.102 50.2986 136.401C50.0933 136.69 49.762 136.891 49.3046 137.003C48.8566 137.105 48.2826 137.157 47.5826 137.157C47.312 137.157 46.9106 137.143 46.3786 137.115C45.8466 137.096 45.2633 137.035 44.6286 136.933L44.7406 135.827C44.9273 135.827 45.1466 135.831 45.3986 135.841C45.66 135.85 45.9353 135.855 46.2246 135.855C46.5233 135.855 46.8266 135.855 47.1346 135.855C47.6293 135.855 48.0073 135.841 48.2686 135.813C48.5393 135.775 48.726 135.705 48.8286 135.603C48.9313 135.491 48.9826 135.332 48.9826 135.127C48.9826 134.865 48.894 134.693 48.7166 134.609C48.5486 134.515 48.2966 134.427 47.9606 134.343L46.1266 133.895C45.7066 133.783 45.38 133.643 45.1466 133.475C44.9133 133.297 44.7453 133.083 44.6426 132.831C44.54 132.569 44.4886 132.252 44.4886 131.879C44.4886 131.375 44.582 130.983 44.7686 130.703C44.9646 130.423 45.268 130.227 45.6786 130.115C46.0986 130.003 46.6493 129.951 47.3306 129.961ZM54.2254 130.129V134.777C54.2161 135.122 54.2814 135.369 54.4214 135.519C54.5707 135.668 54.8087 135.743 55.1354 135.743C55.4621 135.743 55.7887 135.673 56.1154 135.533C56.4421 135.393 56.8387 135.183 57.3054 134.903L57.4734 135.911C56.9507 136.331 56.4467 136.648 55.9614 136.863C55.4761 137.077 54.9721 137.185 54.4494 137.185C53.1707 137.185 52.5314 136.555 52.5314 135.295V130.129H54.2254ZM58.8314 130.129V137.003H57.4874L57.3054 135.673L57.1374 135.477V130.129H58.8314ZM64.2215 129.961C65.3322 129.961 66.1302 130.157 66.6155 130.549C67.1009 130.931 67.3482 131.501 67.3575 132.257C67.3669 132.882 67.2175 133.358 66.9095 133.685C66.6109 134.002 66.1115 134.161 65.4115 134.161H61.4915V133.111H64.9495C65.2669 133.111 65.4675 133.027 65.5515 132.859C65.6449 132.691 65.6915 132.485 65.6915 132.243C65.6822 131.86 65.5702 131.594 65.3555 131.445C65.1502 131.295 64.7955 131.221 64.2915 131.221C63.8529 131.221 63.5122 131.281 63.2695 131.403C63.0269 131.524 62.8542 131.743 62.7515 132.061C62.6582 132.378 62.6115 132.835 62.6115 133.433C62.6115 134.067 62.6722 134.557 62.7935 134.903C62.9149 135.248 63.1155 135.486 63.3955 135.617C63.6755 135.738 64.0489 135.799 64.5155 135.799C64.8609 135.799 65.2575 135.785 65.7055 135.757C66.1629 135.729 66.6015 135.691 67.0215 135.645L67.1895 136.723C66.9375 136.825 66.6482 136.909 66.3215 136.975C65.9949 137.04 65.6542 137.087 65.2995 137.115C64.9542 137.152 64.6275 137.171 64.3195 137.171C63.4795 137.171 62.8029 137.049 62.2895 136.807C61.7855 136.555 61.4169 136.163 61.1835 135.631C60.9595 135.099 60.8475 134.413 60.8475 133.573C60.8475 132.667 60.9595 131.953 61.1835 131.431C61.4169 130.899 61.7809 130.521 62.2755 130.297C62.7795 130.073 63.4282 129.961 64.2215 129.961Z" fill="#333839"/>
<path d="M90.3996 53.6044L53.7441 90.2499" stroke="white" stroke-width="6.29" stroke-miterlimit="10"/>
<path d="M90.3996 53.6044L53.7441 90.2499" stroke="#723C4D" stroke-width="3.42" stroke-miterlimit="10"/>
<path d="M8.6601 52.6618L6 50.0017L45.9905 10.0013" stroke="white" stroke-width="6.29" stroke-miterlimit="10"/>
<path d="M8.6601 52.6618L6 50.0017L45.9905 10.0013" stroke="#723C4D" stroke-width="3.42" stroke-miterlimit="10"/>
<path d="M68.6358 87.9313H31.3153L12 68.6358V31.3153L31.3153 12H68.6358L87.9512 31.3153V68.6358L68.6358 87.9313Z" fill="#723C4D"/>
<path d="M53.742 90.2507L50.0001 94.0026L8.65967 52.6622" stroke="white" stroke-width="6.29" stroke-miterlimit="10"/>
<path d="M53.742 90.2507L50.0001 94.0026L8.65967 52.6622" stroke="#723C4D" stroke-width="3.42" stroke-miterlimit="10"/>
<path d="M45.9897 10L49.9997 6L94.0002 50.0004L90.3972 53.6034" stroke="white" stroke-width="6.29" stroke-miterlimit="10"/>
<path d="M45.9897 10L49.9997 6L94.0002 50.0004L90.3972 53.6034" stroke="#723C4D" stroke-width="3.42" stroke-miterlimit="10"/>
<path d="M62.7634 52.6849H64V55.1615H61.1505V55.5344C61.1505 58.6557 61.1505 61.7771 61.1505 64.8987C61.1546 65.0991 61.1406 65.2994 61.1086 65.4972C60.9941 66.109 60.4895 66.5139 59.8674 66.5093C59.5734 66.5147 59.2875 66.4132 59.0627 66.2235C58.838 66.0339 58.6898 65.7691 58.6457 65.4783C58.6198 65.3185 58.6075 65.1568 58.6091 64.9949C58.6068 61.8538 58.6068 58.7131 58.6091 55.5728V55.1902H58.1274V55.5339C58.1274 58.7032 58.1274 61.8725 58.1274 65.0419C58.1294 65.1952 58.1193 65.3484 58.097 65.5001C57.9905 66.1342 57.5174 66.5466 56.897 66.5563C56.5981 66.5665 56.3052 66.4699 56.0709 66.284C55.8366 66.098 55.6761 65.8348 55.618 65.5413C55.5848 65.3633 55.5693 65.1823 55.5716 65.0012C55.5686 61.8609 55.5686 58.7204 55.5716 55.5797V55.1833H36V52.6918H55.5499V47.1467C55.4399 47.2693 55.358 47.3558 55.2813 47.4463C54.0166 48.9393 52.7519 50.4324 51.4872 51.9254C51.0656 52.422 50.4917 52.4867 50.0209 52.1041C49.5501 51.7215 49.4968 51.1166 49.9149 50.6091C50.6676 49.6927 51.4282 48.7883 52.1854 47.8787C52.8155 47.1233 53.4512 46.3746 54.0698 45.6106C54.4582 45.1312 54.9445 44.8929 55.559 44.8935C57.3633 44.8935 59.1675 44.8814 60.9712 44.9032C61.3038 44.9156 61.6302 44.9968 61.93 45.1415C62.4867 45.4009 62.7645 45.8706 62.764 46.4966C62.764 48.4341 62.764 50.372 62.764 52.3103L62.7634 52.6849Z" fill="white"/>
<path d="M39.6949 52.1638C40.0758 50.7484 40.4493 49.3618 40.8238 47.9722C40.3656 47.9149 40.3685 47.9149 40.2585 48.3159C39.9298 49.5187 39.5964 50.7215 39.2745 51.9312C39.2252 52.1151 39.1599 52.197 38.9509 52.1907C38.4079 52.1735 37.8626 52.185 37.2812 52.185C37.3082 52.0647 37.3265 51.9679 37.3523 51.8734C37.788 50.2635 38.225 48.6534 38.6634 47.0432C38.9698 45.9188 40.2368 44.9188 41.4012 44.9039C42.4605 44.8901 43.5197 44.8901 44.5789 44.9039C45.878 44.9222 47.027 45.8003 47.4216 47.0546C47.5184 47.3622 47.6049 47.6726 47.708 48.0318C48.1714 47.4802 48.605 46.9659 49.0363 46.4492C49.2654 46.1754 49.5432 46.0099 49.9097 46.0695C50.6377 46.1875 50.9195 46.9401 50.4441 47.5272C49.6635 48.4906 48.8679 49.4425 48.0752 50.3968C48.0016 50.4844 47.9175 50.5627 47.8249 50.6299C47.4239 50.9254 46.9657 50.8664 46.6696 50.4609C46.5507 50.2888 46.4585 50.0997 46.3958 49.9002C46.2188 49.3767 46.0624 48.8457 45.8963 48.3187C45.768 47.9126 45.7669 47.9132 45.2869 47.9671L46.4995 52.1615L39.6949 52.1638Z" fill="white"/>
<path d="M56.1797 42.2502C56.1789 41.9607 56.2352 41.674 56.3455 41.4064C56.4558 41.1388 56.6179 40.8956 56.8224 40.6909C57.0269 40.4861 57.2699 40.3237 57.5373 40.213C57.8048 40.1024 58.0914 40.0457 58.3809 40.0461C58.9606 40.0477 59.5161 40.279 59.9255 40.6895C60.3349 41.1 60.5648 41.6561 60.5648 42.2359C60.5662 42.5252 60.5103 42.812 60.4004 43.0798C60.2905 43.3475 60.1287 43.5908 59.9244 43.7957C59.7201 44.0007 59.4773 44.1632 59.2099 44.274C58.9426 44.3847 58.6559 44.4415 58.3665 44.441C57.7872 44.4368 57.2328 44.2045 56.8234 43.7945C56.4141 43.3844 56.1828 42.8296 56.1797 42.2502Z" fill="white"/>
<path d="M43.0172 44.4072C42.7278 44.4095 42.4409 44.3542 42.1732 44.2444C41.9055 44.1345 41.6624 43.9724 41.458 43.7675C41.2537 43.5626 41.0923 43.319 40.9833 43.051C40.8742 42.783 40.8197 42.4959 40.8229 42.2066C40.8247 41.6273 41.0562 41.0724 41.4666 40.6637C41.877 40.2549 42.4328 40.0256 43.012 40.026C43.2989 40.0247 43.5833 40.0799 43.8488 40.1886C44.1143 40.2974 44.3558 40.4574 44.5594 40.6596C44.7629 40.8618 44.9246 41.1021 45.0351 41.3669C45.1457 41.6317 45.2029 41.9156 45.2035 42.2026C45.2081 42.4918 45.1549 42.7791 45.0469 43.0475C44.9389 43.3158 44.7784 43.5599 44.5746 43.7653C44.3709 43.9707 44.1282 44.1333 43.8607 44.2436C43.5933 44.3538 43.3065 44.4094 43.0172 44.4072Z" fill="white"/>
<path d="M53.1643 40.0656C53.1636 40.4672 53.0837 40.8648 52.9292 41.2356C52.7748 41.6063 52.5487 41.943 52.264 42.2263C51.9792 42.5095 51.6414 42.7339 51.2699 42.8865C50.8984 43.0391 50.5004 43.117 50.0988 43.1156C49.6972 43.113 49.3 43.0312 48.93 42.875C48.56 42.7187 48.2244 42.4911 47.9425 42.205C47.6605 41.919 47.4377 41.5802 47.2868 41.208C47.136 40.8358 47.0599 40.4374 47.0631 40.0358C47.0653 39.6341 47.1468 39.2367 47.303 38.8666C47.4591 38.4964 47.6867 38.1607 47.9728 37.8787C48.2589 37.5966 48.5979 37.3739 48.9703 37.2231C49.3427 37.0723 49.7412 36.9966 50.1429 37.0001C50.949 37.0092 51.7189 37.3365 52.2849 37.9106C52.8508 38.4848 53.1669 39.2594 53.1643 40.0656ZM52.4145 40.0656C52.4165 39.4573 52.1781 38.8729 51.7513 38.4395C51.3245 38.0061 50.7437 37.7588 50.1354 37.7516C49.8317 37.7493 49.5305 37.807 49.2492 37.9215C48.9679 38.036 48.712 38.205 48.4962 38.4188C48.2805 38.6326 48.1091 38.8869 47.992 39.1672C47.8749 39.4475 47.8144 39.7481 47.814 40.0519C47.8131 40.3552 47.872 40.6557 47.9874 40.9362C48.1028 41.2167 48.2725 41.4716 48.4866 41.6865C48.7007 41.9013 48.955 42.0718 49.2351 42.1882C49.5152 42.3046 49.8155 42.3646 50.1188 42.3647C50.727 42.3608 51.3091 42.1171 51.7386 41.6865C52.1681 41.2559 52.4104 40.6732 52.4128 40.065L52.4145 40.0656Z" fill="white"/>
<path d="M50.5262 41.7541C49.742 41.8446 49.6928 41.8017 49.6934 41.0725V39.4035C49.9041 39.4035 50.1058 39.3771 50.2936 39.4149C50.3841 39.4327 50.5141 39.5707 50.5164 39.6578C50.5342 40.352 50.5262 41.0473 50.5262 41.7541Z" fill="white"/>
<path d="M50.5294 38.7626C50.5297 38.8726 50.4864 38.9783 50.409 39.0565C50.3317 39.1348 50.2264 39.1792 50.1164 39.1801C50.0595 39.1808 50.003 39.1699 49.9505 39.1479C49.898 39.126 49.8505 39.0935 49.811 39.0525C49.7715 39.0115 49.7408 38.9628 49.7209 38.9095C49.7009 38.8562 49.692 38.7994 49.6948 38.7425C49.699 38.6326 49.7461 38.5286 49.8259 38.4529C49.9058 38.3773 50.0121 38.3359 50.1221 38.3376C50.2322 38.3407 50.3367 38.3871 50.4129 38.4666C50.4891 38.5461 50.5309 38.6524 50.5294 38.7626Z" fill="white"/>
</g>
</svg>
