<svg width="100" height="156" viewBox="0 0 100 156" fill="none" xmlns="http://www.w3.org/2000/svg">
    <g opacity="0.2">
        <rect width="100" height="156" rx="19" fill="#F9FBFF"/>
        <path d="M18.3833 109.217C19.1113 109.217 19.7273 109.301 20.2313 109.469C20.7446 109.627 21.1553 109.898 21.4633 110.281C21.7806 110.654 22.0093 111.163 22.1493 111.807C22.2893 112.441 22.3593 113.23 22.3593 114.173C22.3593 115.115 22.2893 115.909 22.1493 116.553C22.0093 117.187 21.7806 117.696 21.4633 118.079C21.1553 118.452 20.7446 118.723 20.2313 118.891C19.7273 119.049 19.1113 119.129 18.3833 119.129C17.6833 119.129 17.0346 119.115 16.4373 119.087C15.8399 119.068 15.2753 119.04 14.7433 119.003L15.4713 117.659C15.8446 117.677 16.2739 117.696 16.7593 117.715C17.2446 117.724 17.7859 117.729 18.3833 117.729C18.9246 117.729 19.3493 117.626 19.6573 117.421C19.9746 117.206 20.1986 116.842 20.3293 116.329C20.4599 115.806 20.5253 115.087 20.5253 114.173C20.5253 113.258 20.4599 112.544 20.3293 112.031C20.1986 111.508 19.9746 111.139 19.6573 110.925C19.3493 110.71 18.9246 110.603 18.3833 110.603C17.8046 110.603 17.2866 110.607 16.8293 110.617C16.3813 110.626 15.9426 110.631 15.5133 110.631L14.7433 109.343C15.2753 109.305 15.8353 109.277 16.4233 109.259C17.0206 109.231 17.6739 109.217 18.3833 109.217ZM16.4933 109.343V119.003H14.7433V109.343H16.4933ZM27.5225 111.961C28.0732 111.961 28.5352 112.035 28.9085 112.185C29.2912 112.325 29.5805 112.567 29.7765 112.913C29.9725 113.258 30.0705 113.734 30.0705 114.341V119.003H28.7265L28.4885 117.519L28.3625 117.323V114.327C28.3625 113.963 28.2785 113.701 28.1105 113.543C27.9425 113.375 27.6205 113.291 27.1445 113.291C26.7899 113.291 26.3419 113.305 25.8005 113.333C25.2685 113.361 24.7319 113.398 24.1905 113.445L24.0365 112.283C24.3632 112.217 24.7319 112.161 25.1425 112.115C25.5532 112.068 25.9685 112.031 26.3885 112.003C26.8085 111.975 27.1865 111.961 27.5225 111.961ZM29.3425 114.775L29.3285 115.825H26.1785C25.8985 115.834 25.6979 115.909 25.5765 116.049C25.4552 116.189 25.3945 116.38 25.3945 116.623V117.001C25.3945 117.281 25.4692 117.495 25.6185 117.645C25.7679 117.785 26.0012 117.855 26.3185 117.855C26.5705 117.855 26.8505 117.803 27.1585 117.701C27.4665 117.598 27.7699 117.449 28.0685 117.253C28.3765 117.057 28.6519 116.823 28.8945 116.553V117.435C28.8012 117.575 28.6659 117.743 28.4885 117.939C28.3112 118.125 28.0919 118.312 27.8305 118.499C27.5785 118.685 27.2845 118.839 26.9485 118.961C26.6219 119.082 26.2579 119.143 25.8565 119.143C25.4459 119.143 25.0772 119.073 24.7505 118.933C24.4239 118.783 24.1672 118.569 23.9805 118.289C23.7939 117.999 23.7005 117.645 23.7005 117.225V116.497C23.7005 115.955 23.8779 115.535 24.2325 115.237C24.5965 114.929 25.0912 114.775 25.7165 114.775H29.3425ZM34.1802 110.169V116.931C34.1802 117.22 34.2409 117.425 34.3622 117.547C34.4929 117.668 34.7122 117.729 35.0202 117.729H35.9722L36.1542 118.919C35.9955 118.965 35.8042 119.007 35.5802 119.045C35.3562 119.082 35.1369 119.105 34.9222 119.115C34.7075 119.133 34.5255 119.143 34.3762 119.143C33.7789 119.143 33.3122 118.984 32.9762 118.667C32.6495 118.34 32.4862 117.873 32.4862 117.267V110.169H34.1802ZM36.2242 112.129V113.305H31.2682V112.199L32.6122 112.129H36.2242ZM40.9347 111.961C41.4853 111.961 41.9473 112.035 42.3207 112.185C42.7033 112.325 42.9927 112.567 43.1887 112.913C43.3847 113.258 43.4827 113.734 43.4827 114.341V119.003H42.1387L41.9007 117.519L41.7747 117.323V114.327C41.7747 113.963 41.6907 113.701 41.5227 113.543C41.3547 113.375 41.0327 113.291 40.5567 113.291C40.202 113.291 39.754 113.305 39.2127 113.333C38.6807 113.361 38.144 113.398 37.6027 113.445L37.4487 112.283C37.7753 112.217 38.144 112.161 38.5547 112.115C38.9653 112.068 39.3807 112.031 39.8007 112.003C40.2207 111.975 40.5987 111.961 40.9347 111.961ZM42.7547 114.775L42.7407 115.825H39.5907C39.3107 115.834 39.11 115.909 38.9887 116.049C38.8673 116.189 38.8067 116.38 38.8067 116.623V117.001C38.8067 117.281 38.8813 117.495 39.0307 117.645C39.18 117.785 39.4133 117.855 39.7307 117.855C39.9827 117.855 40.2627 117.803 40.5707 117.701C40.8787 117.598 41.182 117.449 41.4807 117.253C41.7887 117.057 42.064 116.823 42.3067 116.553V117.435C42.2133 117.575 42.078 117.743 41.9007 117.939C41.7233 118.125 41.504 118.312 41.2427 118.499C40.9907 118.685 40.6967 118.839 40.3607 118.961C40.034 119.082 39.67 119.143 39.2687 119.143C38.858 119.143 38.4893 119.073 38.1627 118.933C37.836 118.783 37.5793 118.569 37.3927 118.289C37.206 117.999 37.1127 117.645 37.1127 117.225V116.497C37.1127 115.955 37.29 115.535 37.6447 115.237C38.0087 114.929 38.5033 114.775 39.1287 114.775H42.7547ZM52.1388 109.175C52.5775 109.175 52.9508 109.189 53.2588 109.217C53.5668 109.235 53.8515 109.268 54.1128 109.315C54.3741 109.352 54.6448 109.408 54.9248 109.483L54.7708 110.785C54.4815 110.766 54.2108 110.752 53.9588 110.743C53.7068 110.724 53.4361 110.71 53.1468 110.701C52.8668 110.691 52.5308 110.687 52.1388 110.687C51.5975 110.687 51.1728 110.794 50.8648 111.009C50.5568 111.223 50.3375 111.583 50.2068 112.087C50.0855 112.591 50.0248 113.286 50.0248 114.173C50.0248 115.059 50.0855 115.755 50.2068 116.259C50.3375 116.763 50.5568 117.122 50.8648 117.337C51.1728 117.551 51.5975 117.659 52.1388 117.659C52.7641 117.659 53.2868 117.649 53.7068 117.631C54.1361 117.603 54.5561 117.565 54.9668 117.519L55.1208 118.807C54.7008 118.937 54.2668 119.031 53.8188 119.087C53.3708 119.143 52.8108 119.171 52.1388 119.171C51.1681 119.171 50.3935 119.012 49.8148 118.695C49.2361 118.368 48.8161 117.841 48.5548 117.113C48.3028 116.385 48.1768 115.405 48.1768 114.173C48.1768 112.941 48.3028 111.961 48.5548 111.233C48.8161 110.505 49.2361 109.982 49.8148 109.665C50.3935 109.338 51.1681 109.175 52.1388 109.175ZM61.0299 111.961C62.3086 111.961 62.9479 112.591 62.9479 113.851V119.003H61.2399V114.369C61.2399 113.995 61.1746 113.739 61.0439 113.599C60.9226 113.459 60.7079 113.389 60.3999 113.389C60.0546 113.389 59.6999 113.463 59.3359 113.613C58.9719 113.762 58.5332 113.986 58.0199 114.285L57.8939 113.305C58.4166 112.875 58.9392 112.544 59.4619 112.311C59.9939 112.077 60.5166 111.961 61.0299 111.961ZM58.2019 109.203L58.2159 111.723C58.2159 112.068 58.1972 112.395 58.1599 112.703C58.1319 113.001 58.0899 113.258 58.0339 113.473L58.2019 113.669V119.003H56.5079V109.203H58.2019ZM67.8727 111.961C68.9834 111.961 69.7814 112.157 70.2667 112.549C70.7521 112.931 70.9994 113.501 71.0087 114.257C71.0181 114.882 70.8687 115.358 70.5607 115.685C70.2621 116.002 69.7627 116.161 69.0627 116.161H65.1427V115.111H68.6007C68.9181 115.111 69.1187 115.027 69.2027 114.859C69.2961 114.691 69.3427 114.485 69.3427 114.243C69.3334 113.86 69.2214 113.594 69.0067 113.445C68.8014 113.295 68.4467 113.221 67.9427 113.221C67.5041 113.221 67.1634 113.281 66.9207 113.403C66.6781 113.524 66.5054 113.743 66.4027 114.061C66.3094 114.378 66.2627 114.835 66.2627 115.433C66.2627 116.067 66.3234 116.557 66.4447 116.903C66.5661 117.248 66.7667 117.486 67.0467 117.617C67.3267 117.738 67.7001 117.799 68.1667 117.799C68.5121 117.799 68.9087 117.785 69.3567 117.757C69.8141 117.729 70.2527 117.691 70.6727 117.645L70.8407 118.723C70.5887 118.825 70.2994 118.909 69.9727 118.975C69.6461 119.04 69.3054 119.087 68.9507 119.115C68.6054 119.152 68.2787 119.171 67.9707 119.171C67.1307 119.171 66.4541 119.049 65.9407 118.807C65.4367 118.555 65.0681 118.163 64.8347 117.631C64.6107 117.099 64.4987 116.413 64.4987 115.573C64.4987 114.667 64.6107 113.953 64.8347 113.431C65.0681 112.899 65.4321 112.521 65.9267 112.297C66.4307 112.073 67.0794 111.961 67.8727 111.961ZM75.6113 111.961C75.8447 111.961 76.1013 111.97 76.3813 111.989C76.6613 112.007 76.946 112.045 77.2353 112.101C77.5247 112.157 77.786 112.236 78.0193 112.339L77.8233 113.403C77.478 113.384 77.1327 113.37 76.7873 113.361C76.4513 113.351 76.1573 113.347 75.9053 113.347C75.4293 113.347 75.0513 113.412 74.7713 113.543C74.5007 113.664 74.3047 113.888 74.1833 114.215C74.062 114.532 74.0013 114.98 74.0013 115.559C74.0013 116.137 74.062 116.59 74.1833 116.917C74.3047 117.234 74.5007 117.458 74.7713 117.589C75.0513 117.719 75.4293 117.785 75.9053 117.785C76.0453 117.785 76.2273 117.78 76.4513 117.771C76.6847 117.761 76.932 117.747 77.1933 117.729C77.464 117.71 77.7253 117.687 77.9773 117.659L78.1453 118.751C77.7813 118.9 77.3753 119.007 76.9273 119.073C76.4793 119.138 76.036 119.171 75.5973 119.171C74.776 119.171 74.118 119.054 73.6233 118.821C73.1287 118.587 72.7693 118.209 72.5453 117.687C72.3307 117.155 72.2233 116.445 72.2233 115.559C72.2233 114.672 72.3353 113.967 72.5593 113.445C72.7833 112.913 73.1427 112.535 73.6373 112.311C74.132 112.077 74.79 111.961 75.6113 111.961ZM85.7473 112.129L83.7873 114.579C83.7127 114.691 83.6193 114.803 83.5073 114.915C83.3953 115.017 83.2973 115.097 83.2133 115.153V115.181C83.2973 115.237 83.3953 115.33 83.5073 115.461C83.6193 115.582 83.7127 115.708 83.7873 115.839L85.9713 119.003H84.0533L81.5473 115.111L83.8293 112.129H85.7473ZM81.2253 109.203L81.2393 113.389C81.2393 113.697 81.2207 113.991 81.1833 114.271C81.1553 114.551 81.1133 114.835 81.0573 115.125C81.104 115.395 81.1413 115.675 81.1693 115.965C81.2067 116.254 81.2253 116.525 81.2253 116.777V119.003H79.5313V109.203H81.2253ZM82.2753 114.607V115.699H80.6793V114.607H82.2753ZM40.712 127.343V134.763C40.712 135.033 40.782 135.239 40.922 135.379C41.0714 135.509 41.2814 135.575 41.552 135.575H44.968L45.052 136.905C44.4174 136.961 43.7547 136.993 43.064 137.003C42.3827 137.021 41.706 137.031 41.034 137.031C40.3247 137.031 39.802 136.849 39.466 136.485C39.1394 136.121 38.976 135.659 38.976 135.099V127.343H40.712ZM47.9832 130.129V137.003H46.3032V130.129H47.9832ZM47.5212 127.147C47.8572 127.147 48.0252 127.315 48.0252 127.651V128.435C48.0252 128.771 47.8572 128.939 47.5212 128.939H46.7652C46.4292 128.939 46.2612 128.771 46.2612 128.435V127.651C46.2612 127.315 46.4292 127.147 46.7652 127.147H47.5212ZM52.4166 129.961C52.7339 129.961 53.0746 129.97 53.4386 129.989C53.8119 130.007 54.1759 130.035 54.5306 130.073C54.8852 130.101 55.2026 130.143 55.4826 130.199L55.3706 131.305C54.9226 131.295 54.4746 131.286 54.0266 131.277C53.5879 131.258 53.1539 131.249 52.7246 131.249C52.3419 131.249 52.0386 131.258 51.8146 131.277C51.5999 131.295 51.4459 131.351 51.3526 131.445C51.2686 131.538 51.2266 131.697 51.2266 131.921C51.2266 132.191 51.3012 132.373 51.4506 132.467C51.5999 132.551 51.8426 132.635 52.1786 132.719L54.0546 133.153C54.6146 133.293 55.0299 133.507 55.3006 133.797C55.5712 134.077 55.7066 134.511 55.7066 135.099C55.7066 135.668 55.5992 136.102 55.3846 136.401C55.1792 136.69 54.8479 136.891 54.3906 137.003C53.9426 137.105 53.3686 137.157 52.6686 137.157C52.3979 137.157 51.9966 137.143 51.4646 137.115C50.9326 137.096 50.3492 137.035 49.7146 136.933L49.8266 135.827C50.0132 135.827 50.2326 135.831 50.4846 135.841C50.7459 135.85 51.0212 135.855 51.3106 135.855C51.6092 135.855 51.9126 135.855 52.2206 135.855C52.7152 135.855 53.0932 135.841 53.3546 135.813C53.6252 135.775 53.8119 135.705 53.9146 135.603C54.0172 135.491 54.0686 135.332 54.0686 135.127C54.0686 134.865 53.9799 134.693 53.8026 134.609C53.6346 134.515 53.3826 134.427 53.0466 134.343L51.2126 133.895C50.7926 133.783 50.4659 133.643 50.2326 133.475C49.9992 133.297 49.8312 133.083 49.7286 132.831C49.6259 132.569 49.5746 132.252 49.5746 131.879C49.5746 131.375 49.6679 130.983 49.8546 130.703C50.0506 130.423 50.3539 130.227 50.7646 130.115C51.1846 130.003 51.7352 129.951 52.4166 129.961ZM59.5073 128.169V134.931C59.5073 135.22 59.568 135.425 59.6893 135.547C59.82 135.668 60.0393 135.729 60.3474 135.729H61.2993L61.4814 136.919C61.3227 136.965 61.1313 137.007 60.9073 137.045C60.6833 137.082 60.464 137.105 60.2494 137.115C60.0347 137.133 59.8527 137.143 59.7033 137.143C59.106 137.143 58.6393 136.984 58.3033 136.667C57.9767 136.34 57.8133 135.873 57.8133 135.267V128.169H59.5073ZM61.5513 130.129V131.305H56.5953V130.199L57.9393 130.129H61.5513Z"
              fill="#333839"/>
        <path d="M90.3996 53.6044L53.7441 90.2499" stroke="white" stroke-width="6.29" stroke-miterlimit="10"/>
        <path d="M90.3996 53.6044L53.7441 90.2499" stroke="#2E984E" stroke-width="3.42" stroke-miterlimit="10"/>
        <path d="M8.6601 52.6618L6 50.0017L45.9905 10.0013" stroke="white" stroke-width="6.29" stroke-miterlimit="10"/>
        <path d="M8.6601 52.6618L6 50.0017L45.9905 10.0013" stroke="#2E984E" stroke-width="3.42"
              stroke-miterlimit="10"/>
        <path d="M68.6358 87.9313H31.3153L12 68.6358V31.3153L31.3153 12H68.6358L87.9512 31.3153V68.6358L68.6358 87.9313Z"
              fill="#2E984E"/>
        <path d="M53.742 90.2507L50.0001 94.0026L8.65967 52.6622" stroke="white" stroke-width="6.29"
              stroke-miterlimit="10"/>
        <path d="M53.742 90.2507L50.0001 94.0026L8.65967 52.6622" stroke="#2E984E" stroke-width="3.42"
              stroke-miterlimit="10"/>
        <path d="M45.9897 10L49.9997 6L94.0002 50.0004L90.3972 53.6034" stroke="white" stroke-width="6.29"
              stroke-miterlimit="10"/>
        <path d="M45.9897 10L49.9997 6L94.0002 50.0004L90.3972 53.6034" stroke="#2E984E" stroke-width="3.42"
              stroke-miterlimit="10"/>
        <path d="M54.5557 43.8953C54.5557 43.999 54.5557 44.1027 54.5557 44.2095C54.5518 45.5907 54.5298 46.9726 54.5495 48.3546C54.5605 49.1701 54.247 49.8182 53.6633 50.3533C52.7912 51.1531 51.7306 51.5671 50.5938 51.802C48.6399 52.2058 46.7183 52.1029 44.8485 51.3707C44.1414 51.0949 44.1477 51.0871 44.1509 50.325C44.1571 48.7961 44.1632 47.2675 44.1689 45.7392V45.4249C44.7385 45.619 45.2688 45.8484 45.8274 45.9819C48.2259 46.5602 50.5687 46.44 52.8085 45.3196C53.4877 44.9777 54.084 44.4916 54.5557 43.8953Z"
              fill="white"/>
        <path d="M39.0066 50.4583C40.4333 52.7948 42.6621 53.7532 45.1204 54.2781C48.3721 54.9726 51.5712 54.7746 54.643 53.4193C56.01 52.816 57.1955 51.9659 57.9497 50.6225C57.9576 50.6083 57.9788 50.602 58.0322 50.5667C58.0204 51.3751 58.1186 52.1662 57.7462 52.9071C56.9912 52.6148 56.5356 52.717 55.9864 53.3243C55.5017 53.8601 55.2008 54.4753 55.3045 55.2216C55.3296 55.4062 55.2338 55.4573 55.1097 55.5264C53.8901 56.179 52.567 56.6162 51.1988 56.8188C48.6934 57.2117 46.2171 57.0938 43.7958 56.3019C42.3817 55.8407 41.0838 55.1753 40.0601 54.0597C39.3405 53.274 38.9547 52.3627 39.0042 51.2824C39.016 51.0286 39.0066 50.7733 39.0066 50.4583Z"
              fill="white"/>
        <path d="M54.9165 44.8593C56.1217 45.5145 57.1406 46.2734 57.7204 47.4857C58.3647 48.8354 58.0198 50.3572 56.8319 51.531C55.7878 52.5625 54.5229 53.2138 53.1394 53.6223C49.5892 54.668 46.0798 54.5651 42.6497 53.1156C41.5365 52.6442 40.5552 51.9654 39.8073 50.9944C38.7702 49.6462 38.76 48.0953 39.7782 46.7354C40.3454 45.9772 41.0839 45.4249 41.945 44.9488C41.945 45.4139 41.9552 45.8397 41.9363 46.264C41.9324 46.3504 41.8295 46.4408 41.7572 46.5146C41.0227 47.2641 40.5835 48.1299 40.7147 49.2094C40.8176 50.0461 41.2505 50.7131 41.8468 51.2803C42.718 52.11 43.77 52.6277 44.9107 52.9569C47.6604 53.7504 50.3874 53.6923 53.0664 52.6513C54.1018 52.2498 55.0257 51.6637 55.7155 50.7657C56.6677 49.5244 56.6025 47.9767 55.5545 46.8132C55.5097 46.7629 55.4759 46.7047 55.4256 46.656C55.2583 46.4808 54.9833 46.3284 54.9424 46.1281C54.8576 45.7407 54.9165 45.3299 54.9165 44.8593Z"
              fill="white"/>
        <path d="M64.5313 55.9885C62.96 56.4787 61.6755 58.6008 62.0102 60.143C61.9167 60.1013 61.8413 60.0746 61.7745 60.0361C60.38 59.2615 58.9879 58.4821 57.5926 57.7106C57.4386 57.6326 57.3083 57.5149 57.2152 57.3695C57.1221 57.2242 57.0696 57.0566 57.0631 56.8841C56.99 55.7897 57.4622 54.9114 58.1897 54.1469C58.5314 53.7887 58.9243 53.4839 59.4341 53.421C59.6449 53.3882 59.8606 53.4177 60.0548 53.5059C61.5388 54.3104 63.0142 55.1408 64.5313 55.9885Z"
              fill="white"/>
        <path d="M54.5488 42.3082H52.5973C51.3042 42.3082 50.0102 42.3082 48.7163 42.3082C48.6005 42.3155 48.4847 42.2939 48.3793 42.2454C47.0437 41.4833 45.716 40.7126 44.3223 39.9081C44.6106 39.7832 44.8471 39.6598 45.0969 39.5757C47.5536 38.7532 49.9851 38.7862 52.371 39.8421C53.0687 40.1508 53.6807 40.5892 54.1316 41.2225C54.367 41.5396 54.5112 41.9151 54.5488 42.3082Z"
              fill="white"/>
        <path d="M54.5389 42.6838C54.4996 43.1921 54.2788 43.6117 53.9638 43.9825C53.3895 44.6581 52.6455 45.0879 51.8222 45.3747C49.4582 46.1996 47.1021 46.1744 44.7656 45.2513C44.6572 45.2089 44.5527 45.1547 44.4474 45.1036C44.4317 45.0958 44.4239 45.073 44.3979 45.0376L46.3715 43.8898C47.0141 43.5166 47.6552 43.1403 48.301 42.7718C48.3991 42.7106 48.5108 42.6745 48.6262 42.6665C50.5455 42.6595 52.4648 42.661 54.3841 42.661C54.4361 42.6653 54.4878 42.6729 54.5389 42.6838Z"
              fill="white"/>
        <path d="M48.0401 42.5101L45.464 44.0083C45.0578 44.244 44.6422 44.4656 44.2502 44.7225C44.0475 44.8545 43.9076 44.8222 43.7293 44.695C43.221 44.3312 42.7716 43.9188 42.5053 43.3389C42.3632 43.0471 42.2943 42.725 42.3047 42.4006C42.3151 42.0761 42.4045 41.7591 42.565 41.477C42.8588 40.927 43.3082 40.5232 43.8306 40.1987C43.8703 40.178 43.9142 40.1665 43.9589 40.165C44.0036 40.1635 44.0481 40.1721 44.0891 40.1901C45.3891 40.9317 46.6856 41.6786 47.9788 42.4307C47.9937 42.4394 48.0031 42.4598 48.0401 42.5101Z"
              fill="white"/>
        <path d="M63.5308 60.0325C63.6785 58.8926 64.2622 57.8084 65.4948 57.1673C66.3433 56.7258 67.0449 57.1673 66.9977 58.1242C66.9286 59.496 66.2655 60.5503 65.0541 61.2008C64.1875 61.6636 63.5339 61.2228 63.5308 60.0325Z"
              fill="white"/>
        <path d="M42.2978 43.8969C42.7621 44.2936 43.2358 44.6935 43.7017 45.102C43.7643 45.1582 43.8033 45.2359 43.8109 45.3197C43.8078 47.1141 43.7997 48.908 43.7866 50.7013C43.7866 50.7178 43.7716 50.7343 43.7465 50.7854C43.0009 50.2724 42.3473 49.6658 42.3135 48.7215C42.2562 47.0968 42.2978 45.4697 42.2978 43.8969Z"
              fill="white"/>
        <path d="M65.7327 56.6854C64.1316 57.1874 63.1542 59.0738 63.1802 60.2318C63.1864 60.3147 63.1621 60.397 63.1119 60.4633C63.0617 60.5296 62.989 60.5752 62.9075 60.5916C62.8235 60.6168 62.6428 60.5264 62.6019 60.4424C62.4786 60.1839 62.3364 59.9073 62.3199 59.6308C62.25 58.4476 63.2438 56.9156 64.3437 56.4521C64.8583 56.2337 65.1631 56.2816 65.7327 56.6854Z"
              fill="white"/>
        <path d="M56.7512 56.0209C56.4464 55.852 56.1455 55.7216 55.8917 55.5299C55.7563 55.4093 55.6697 55.2433 55.6482 55.0632C55.5696 54.3758 56.1588 53.4267 56.7952 53.1565C57.023 53.0598 57.2422 53.0441 57.4661 53.1855C57.7018 53.3356 57.954 53.4629 58.2211 53.6129C57.4826 54.2815 56.9845 55.0593 56.7512 56.0209Z"
              fill="white"/>
        <path d="M55.8814 49.7035C55.5915 49.4678 55.2851 49.2251 54.9873 48.9729C54.9322 48.9223 54.8984 48.8526 54.893 48.778C54.8867 48.0969 54.8891 47.4149 54.8891 46.7118C55.868 47.3623 56.3307 48.8888 55.8814 49.7035Z"
              fill="white"/>
        <path d="M41.9639 46.8556C41.9639 47.5949 41.9639 48.2698 41.9639 48.9423C41.9578 49.0075 41.9302 49.0689 41.8854 49.1167C41.6835 49.3406 41.4737 49.5582 41.2687 49.7766C40.7902 49.0664 41.066 47.6279 41.9639 46.8556Z"
              fill="white"/>
    </g>
</svg>
