<svg width="100" height="156" viewBox="0 0 100 156" fill="none" xmlns="http://www.w3.org/2000/svg">
<g opacity="0.2">
<rect width="100" height="156" rx="19" fill="#F9FBFF"/>
<path d="M19.0939 109.217C19.8219 109.217 20.4379 109.301 20.9419 109.469C21.4553 109.627 21.8659 109.898 22.1739 110.281C22.4913 110.654 22.7199 111.163 22.8599 111.807C22.9999 112.441 23.0699 113.23 23.0699 114.173C23.0699 115.115 22.9999 115.909 22.8599 116.553C22.7199 117.187 22.4913 117.696 22.1739 118.079C21.8659 118.452 21.4553 118.723 20.9419 118.891C20.4379 119.049 19.8219 119.129 19.0939 119.129C18.3939 119.129 17.7453 119.115 17.1479 119.087C16.5506 119.068 15.9859 119.04 15.4539 119.003L16.1819 117.659C16.5553 117.677 16.9846 117.696 17.4699 117.715C17.9553 117.724 18.4966 117.729 19.0939 117.729C19.6353 117.729 20.0599 117.626 20.3679 117.421C20.6853 117.206 20.9093 116.842 21.0399 116.329C21.1706 115.806 21.2359 115.087 21.2359 114.173C21.2359 113.258 21.1706 112.544 21.0399 112.031C20.9093 111.508 20.6853 111.139 20.3679 110.925C20.0599 110.71 19.6353 110.603 19.0939 110.603C18.5153 110.603 17.9973 110.607 17.5399 110.617C17.0919 110.626 16.6533 110.631 16.2239 110.631L15.4539 109.343C15.9859 109.305 16.5459 109.277 17.1339 109.259C17.7313 109.231 18.3846 109.217 19.0939 109.217ZM17.2039 109.343V119.003H15.4539V109.343H17.2039ZM27.0012 111.961C28.1119 111.961 28.9099 112.157 29.3952 112.549C29.8805 112.931 30.1279 113.501 30.1372 114.257C30.1465 114.882 29.9972 115.358 29.6892 115.685C29.3905 116.002 28.8912 116.161 28.1912 116.161H24.2712V115.111H27.7292C28.0465 115.111 28.2472 115.027 28.3312 114.859C28.4245 114.691 28.4712 114.485 28.4712 114.243C28.4619 113.86 28.3499 113.594 28.1352 113.445C27.9299 113.295 27.5752 113.221 27.0712 113.221C26.6325 113.221 26.2919 113.281 26.0492 113.403C25.8065 113.524 25.6339 113.743 25.5312 114.061C25.4379 114.378 25.3912 114.835 25.3912 115.433C25.3912 116.067 25.4519 116.557 25.5732 116.903C25.6945 117.248 25.8952 117.486 26.1752 117.617C26.4552 117.738 26.8285 117.799 27.2952 117.799C27.6405 117.799 28.0372 117.785 28.4852 117.757C28.9425 117.729 29.3812 117.691 29.8012 117.645L29.9692 118.723C29.7172 118.825 29.4279 118.909 29.1012 118.975C28.7745 119.04 28.4339 119.087 28.0792 119.115C27.7339 119.152 27.4072 119.171 27.0992 119.171C26.2592 119.171 25.5825 119.049 25.0692 118.807C24.5652 118.555 24.1965 118.163 23.9632 117.631C23.7392 117.099 23.6272 116.413 23.6272 115.573C23.6272 114.667 23.7392 113.953 23.9632 113.431C24.1965 112.899 24.5605 112.521 25.0552 112.297C25.5592 112.073 26.2079 111.961 27.0012 111.961ZM35.0898 111.961C35.9392 111.961 36.5505 112.273 36.9238 112.899C37.2972 113.524 37.4838 114.429 37.4838 115.615C37.4838 116.52 37.3858 117.234 37.1898 117.757C37.0032 118.27 36.7185 118.639 36.3358 118.863C35.9532 119.077 35.4678 119.185 34.8798 119.185C34.4132 119.185 33.9558 119.119 33.5078 118.989C33.0692 118.849 32.6632 118.634 32.2898 118.345L32.4018 117.505C32.7658 117.607 33.0925 117.696 33.3818 117.771C33.6712 117.845 33.9885 117.883 34.3338 117.883C34.6792 117.883 34.9498 117.827 35.1458 117.715C35.3512 117.593 35.5005 117.369 35.5938 117.043C35.6872 116.716 35.7338 116.245 35.7338 115.629C35.7338 115.022 35.6918 114.551 35.6078 114.215C35.5238 113.879 35.3838 113.645 35.1878 113.515C35.0012 113.375 34.7538 113.305 34.4458 113.305C34.1098 113.305 33.7925 113.379 33.4938 113.529C33.1952 113.669 32.8498 113.879 32.4578 114.159L32.2618 113.263C32.4765 113.011 32.7332 112.787 33.0318 112.591C33.3398 112.395 33.6712 112.241 34.0258 112.129C34.3805 112.017 34.7352 111.961 35.0898 111.961ZM32.1918 112.129L32.3598 113.459L32.5138 113.655V118.093L32.4438 118.261C32.4718 118.531 32.4905 118.802 32.4998 119.073C32.5092 119.353 32.5138 119.637 32.5138 119.927V121.733H30.8198V112.129H32.1918ZM41.723 111.961C42.2736 111.961 42.7356 112.035 43.109 112.185C43.4916 112.325 43.781 112.567 43.977 112.913C44.173 113.258 44.271 113.734 44.271 114.341V119.003H42.927L42.689 117.519L42.563 117.323V114.327C42.563 113.963 42.479 113.701 42.311 113.543C42.143 113.375 41.821 113.291 41.345 113.291C40.9903 113.291 40.5423 113.305 40.001 113.333C39.469 113.361 38.9323 113.398 38.391 113.445L38.237 112.283C38.5636 112.217 38.9323 112.161 39.343 112.115C39.7536 112.068 40.169 112.031 40.589 112.003C41.009 111.975 41.387 111.961 41.723 111.961ZM43.543 114.775L43.529 115.825H40.379C40.099 115.834 39.8983 115.909 39.777 116.049C39.6556 116.189 39.595 116.38 39.595 116.623V117.001C39.595 117.281 39.6696 117.495 39.819 117.645C39.9683 117.785 40.2016 117.855 40.519 117.855C40.771 117.855 41.051 117.803 41.359 117.701C41.667 117.598 41.9703 117.449 42.269 117.253C42.577 117.057 42.8523 116.823 43.095 116.553V117.435C43.0016 117.575 42.8663 117.743 42.689 117.939C42.5116 118.125 42.2923 118.312 42.031 118.499C41.779 118.685 41.485 118.839 41.149 118.961C40.8223 119.082 40.4583 119.143 40.057 119.143C39.6463 119.143 39.2776 119.073 38.951 118.933C38.6243 118.783 38.3676 118.569 38.181 118.289C37.9943 117.999 37.901 117.645 37.901 117.225V116.497C37.901 115.955 38.0783 115.535 38.433 115.237C38.797 114.929 39.2916 114.775 39.917 114.775H43.543ZM46.5886 112.129L46.8126 113.473L46.9666 113.669V119.003H45.2726V112.129H46.5886ZM49.9486 111.961L49.7806 113.529H49.2906C48.9266 113.529 48.558 113.589 48.1846 113.711C47.8113 113.832 47.3446 114.014 46.7846 114.257L46.6726 113.263C47.158 112.852 47.6526 112.535 48.1566 112.311C48.6606 112.077 49.146 111.961 49.6126 111.961H49.9486ZM52.5248 110.169V116.931C52.5248 117.22 52.5855 117.425 52.7068 117.547C52.8375 117.668 53.0568 117.729 53.3648 117.729H54.3168L54.4988 118.919C54.3402 118.965 54.1488 119.007 53.9248 119.045C53.7008 119.082 53.4815 119.105 53.2668 119.115C53.0522 119.133 52.8702 119.143 52.7208 119.143C52.1235 119.143 51.6568 118.984 51.3208 118.667C50.9942 118.34 50.8308 117.873 50.8308 117.267V110.169H52.5248ZM54.5688 112.129V113.305H49.6128V112.199L50.9568 112.129H54.5688ZM63.5493 111.961C64.156 111.961 64.618 112.124 64.9353 112.451C65.262 112.768 65.4253 113.235 65.4253 113.851V119.003H63.7453V114.369C63.736 114.023 63.666 113.776 63.5353 113.627C63.4046 113.468 63.176 113.389 62.8493 113.389C62.6533 113.389 62.462 113.421 62.2753 113.487C62.098 113.543 61.8973 113.636 61.6733 113.767C61.4493 113.897 61.1786 114.07 60.8613 114.285L60.7633 113.263C61.2393 112.824 61.6966 112.497 62.1353 112.283C62.5833 112.068 63.0546 111.961 63.5493 111.961ZM56.3393 112.129L56.5073 113.473L56.6753 113.669V119.003H54.9813V112.129H56.3393ZM59.1673 111.961C59.7646 111.961 60.222 112.119 60.5393 112.437C60.8566 112.754 61.0153 113.225 61.0153 113.851V119.003H59.3913V114.369C59.3913 114.005 59.3166 113.753 59.1673 113.613C59.018 113.463 58.794 113.389 58.4953 113.389C58.3086 113.389 58.122 113.417 57.9353 113.473C57.7486 113.529 57.5433 113.622 57.3193 113.753C57.0953 113.883 56.8153 114.061 56.4793 114.285L56.3813 113.263C56.848 112.824 57.3053 112.497 57.7533 112.283C58.2013 112.068 58.6726 111.961 59.1673 111.961ZM69.512 111.961C70.6227 111.961 71.4207 112.157 71.906 112.549C72.3913 112.931 72.6387 113.501 72.648 114.257C72.6573 114.882 72.508 115.358 72.2 115.685C71.9013 116.002 71.402 116.161 70.702 116.161H66.782V115.111H70.24C70.5573 115.111 70.758 115.027 70.842 114.859C70.9353 114.691 70.982 114.485 70.982 114.243C70.9727 113.86 70.8607 113.594 70.646 113.445C70.4407 113.295 70.086 113.221 69.582 113.221C69.1433 113.221 68.8027 113.281 68.56 113.403C68.3173 113.524 68.1447 113.743 68.042 114.061C67.9487 114.378 67.902 114.835 67.902 115.433C67.902 116.067 67.9627 116.557 68.084 116.903C68.2053 117.248 68.406 117.486 68.686 117.617C68.966 117.738 69.3393 117.799 69.806 117.799C70.1513 117.799 70.548 117.785 70.996 117.757C71.4533 117.729 71.892 117.691 72.312 117.645L72.48 118.723C72.228 118.825 71.9387 118.909 71.612 118.975C71.2853 119.04 70.9447 119.087 70.59 119.115C70.2447 119.152 69.918 119.171 69.61 119.171C68.77 119.171 68.0933 119.049 67.58 118.807C67.076 118.555 66.7073 118.163 66.474 117.631C66.25 117.099 66.138 116.413 66.138 115.573C66.138 114.667 66.25 113.953 66.474 113.431C66.7073 112.899 67.0713 112.521 67.566 112.297C68.07 112.073 68.7187 111.961 69.512 111.961ZM77.8526 111.961C79.1313 111.961 79.7706 112.591 79.7706 113.851V119.003H78.0766V114.369C78.0766 113.995 78.0113 113.739 77.8806 113.599C77.7499 113.459 77.5306 113.389 77.2226 113.389C76.8773 113.389 76.5226 113.468 76.1586 113.627C75.7946 113.776 75.3559 113.995 74.8426 114.285L74.7726 113.263C75.2766 112.843 75.7899 112.521 76.3126 112.297C76.8353 112.073 77.3486 111.961 77.8526 111.961ZM74.7166 112.129L74.8846 113.473L75.0246 113.669V119.003H73.3306V112.129H74.7166ZM83.0574 110.169V116.931C83.0574 117.22 83.1181 117.425 83.2394 117.547C83.3701 117.668 83.5894 117.729 83.8974 117.729H84.8494L85.0314 118.919C84.8728 118.965 84.6814 119.007 84.4574 119.045C84.2334 119.082 84.0141 119.105 83.7994 119.115C83.5848 119.133 83.4028 119.143 83.2534 119.143C82.6561 119.143 82.1894 118.984 81.8534 118.667C81.5268 118.34 81.3634 117.873 81.3634 117.267V110.169H83.0574ZM85.1014 112.129V113.305H80.1454V112.199L81.4894 112.129H85.1014ZM16.7942 127.161C17.2702 127.17 17.7695 127.198 18.2922 127.245C18.8242 127.291 19.3422 127.38 19.8462 127.511L19.7342 128.701C19.3328 128.691 18.8662 128.682 18.3342 128.673C17.8115 128.654 17.3075 128.645 16.8222 128.645C16.5235 128.645 16.2668 128.654 16.0522 128.673C15.8468 128.691 15.6788 128.738 15.5482 128.813C15.4175 128.887 15.3195 129.004 15.2542 129.163C15.1982 129.312 15.1702 129.522 15.1702 129.793C15.1702 130.213 15.2542 130.511 15.4222 130.689C15.5995 130.866 15.8842 131.006 16.2762 131.109L18.1802 131.669C18.9455 131.902 19.4728 132.243 19.7622 132.691C20.0515 133.129 20.1962 133.717 20.1962 134.455C20.1962 135.005 20.1308 135.458 20.0002 135.813C19.8695 136.167 19.6688 136.443 19.3982 136.639C19.1275 136.835 18.7728 136.975 18.3342 137.059C17.8955 137.143 17.3682 137.185 16.7522 137.185C16.4348 137.185 15.9962 137.166 15.4362 137.129C14.8855 137.091 14.2555 136.998 13.5462 136.849L13.6582 135.589C14.2088 135.607 14.6708 135.626 15.0442 135.645C15.4175 135.654 15.7395 135.659 16.0102 135.659C16.2808 135.659 16.5328 135.659 16.7662 135.659C17.1955 135.659 17.5315 135.631 17.7742 135.575C18.0168 135.519 18.1848 135.402 18.2782 135.225C18.3808 135.047 18.4322 134.791 18.4322 134.455C18.4322 134.165 18.3948 133.941 18.3202 133.783C18.2548 133.615 18.1428 133.484 17.9842 133.391C17.8255 133.297 17.6202 133.218 17.3682 133.153L15.3942 132.551C14.6662 132.327 14.1528 131.995 13.8542 131.557C13.5648 131.118 13.4202 130.53 13.4202 129.793C13.4202 129.242 13.4855 128.794 13.6162 128.449C13.7468 128.094 13.9475 127.828 14.2182 127.651C14.4888 127.464 14.8342 127.338 15.2542 127.273C15.6835 127.198 16.1968 127.161 16.7942 127.161ZM23.1262 128.169V134.931C23.1262 135.22 23.1869 135.425 23.3082 135.547C23.4389 135.668 23.6582 135.729 23.9662 135.729H24.9182L25.1002 136.919C24.9415 136.965 24.7502 137.007 24.5262 137.045C24.3022 137.082 24.0829 137.105 23.8682 137.115C23.6535 137.133 23.4715 137.143 23.3222 137.143C22.7249 137.143 22.2582 136.984 21.9222 136.667C21.5955 136.34 21.4322 135.873 21.4322 135.267V128.169H23.1262ZM25.1702 130.129V131.305H20.2142V130.199L21.5582 130.129H25.1702ZM28.6907 129.961C29.5307 129.961 30.198 130.077 30.6927 130.311C31.1967 130.544 31.556 130.927 31.7707 131.459C31.9947 131.991 32.1067 132.695 32.1067 133.573C32.1067 134.45 31.9947 135.155 31.7707 135.687C31.556 136.209 31.1967 136.592 30.6927 136.835C30.198 137.068 29.5307 137.185 28.6907 137.185C27.8693 137.185 27.2067 137.068 26.7027 136.835C26.208 136.592 25.8487 136.209 25.6247 135.687C25.4007 135.155 25.2887 134.45 25.2887 133.573C25.2887 132.695 25.4007 131.991 25.6247 131.459C25.8487 130.927 26.208 130.544 26.7027 130.311C27.2067 130.077 27.8693 129.961 28.6907 129.961ZM28.6907 131.249C28.28 131.249 27.9533 131.319 27.7107 131.459C27.4773 131.589 27.3093 131.823 27.2067 132.159C27.104 132.495 27.0527 132.966 27.0527 133.573C27.0527 134.179 27.104 134.651 27.2067 134.987C27.3093 135.323 27.4773 135.556 27.7107 135.687C27.9533 135.817 28.28 135.883 28.6907 135.883C29.1107 135.883 29.442 135.817 29.6847 135.687C29.9273 135.556 30.0953 135.323 30.1887 134.987C30.2913 134.651 30.3427 134.179 30.3427 133.573C30.3427 132.966 30.2913 132.495 30.1887 132.159C30.0953 131.823 29.9273 131.589 29.6847 131.459C29.442 131.319 29.1107 131.249 28.6907 131.249ZM35.9438 129.961C36.1771 129.961 36.4338 129.97 36.7138 129.989C36.9938 130.007 37.2784 130.045 37.5678 130.101C37.8571 130.157 38.1184 130.236 38.3518 130.339L38.1558 131.403C37.8104 131.384 37.4651 131.37 37.1198 131.361C36.7838 131.351 36.4898 131.347 36.2378 131.347C35.7618 131.347 35.3838 131.412 35.1038 131.543C34.8331 131.664 34.6371 131.888 34.5158 132.215C34.3944 132.532 34.3338 132.98 34.3338 133.559C34.3338 134.137 34.3944 134.59 34.5158 134.917C34.6371 135.234 34.8331 135.458 35.1038 135.589C35.3838 135.719 35.7618 135.785 36.2378 135.785C36.3778 135.785 36.5598 135.78 36.7838 135.771C37.0171 135.761 37.2644 135.747 37.5258 135.729C37.7964 135.71 38.0578 135.687 38.3098 135.659L38.4778 136.751C38.1138 136.9 37.7078 137.007 37.2598 137.073C36.8118 137.138 36.3684 137.171 35.9298 137.171C35.1084 137.171 34.4504 137.054 33.9558 136.821C33.4611 136.587 33.1018 136.209 32.8778 135.687C32.6631 135.155 32.5558 134.445 32.5558 133.559C32.5558 132.672 32.6678 131.967 32.8918 131.445C33.1158 130.913 33.4751 130.535 33.9698 130.311C34.4644 130.077 35.1224 129.961 35.9438 129.961ZM45.2398 130.129L43.2798 132.579C43.2051 132.691 43.1118 132.803 42.9998 132.915C42.8878 133.017 42.7898 133.097 42.7058 133.153V133.181C42.7898 133.237 42.8878 133.33 42.9998 133.461C43.1118 133.582 43.2051 133.708 43.2798 133.839L45.4638 137.003H43.5458L41.0398 133.111L43.3218 130.129H45.2398ZM40.7178 127.203L40.7318 131.389C40.7318 131.697 40.7131 131.991 40.6758 132.271C40.6478 132.551 40.6058 132.835 40.5498 133.125C40.5964 133.395 40.6338 133.675 40.6618 133.965C40.6991 134.254 40.7178 134.525 40.7178 134.777V137.003H39.0238V127.203H40.7178ZM41.7678 132.607V133.699H40.1718V132.607H41.7678ZM51.5258 127.217C52.3284 127.217 52.9771 127.301 53.4718 127.469C53.9758 127.637 54.3398 127.926 54.5638 128.337C54.7971 128.738 54.9138 129.307 54.9138 130.045C54.9138 130.53 54.8531 130.945 54.7318 131.291C54.6198 131.627 54.4284 131.897 54.1578 132.103C53.8964 132.299 53.5418 132.425 53.0938 132.481V132.551C53.2524 132.588 53.4158 132.663 53.5838 132.775C53.7611 132.877 53.9198 133.027 54.0598 133.223C54.2091 133.419 54.3211 133.671 54.3958 133.979L55.2778 137.003H53.4298L52.6318 134.021C52.5291 133.685 52.3891 133.451 52.2118 133.321C52.0344 133.181 51.7918 133.111 51.4838 133.111C50.8771 133.111 50.3591 133.111 49.9298 133.111C49.5004 133.101 49.1411 133.092 48.8518 133.083C48.5718 133.073 48.3244 133.069 48.1098 133.069L48.1518 131.739H51.4838C51.9038 131.729 52.2351 131.683 52.4778 131.599C52.7204 131.505 52.8931 131.347 52.9958 131.123C53.0984 130.889 53.1498 130.563 53.1498 130.143C53.1498 129.732 53.0984 129.415 52.9958 129.191C52.8931 128.967 52.7204 128.813 52.4778 128.729C52.2351 128.635 51.9038 128.589 51.4838 128.589C50.6624 128.589 49.9578 128.593 49.3698 128.603C48.7818 128.612 48.3804 128.621 48.1658 128.631L47.9698 127.343C48.3431 127.305 48.6931 127.277 49.0198 127.259C49.3558 127.24 49.7198 127.231 50.1118 127.231C50.5038 127.221 50.9751 127.217 51.5258 127.217ZM49.6918 127.343V137.003H47.9698V127.343H49.6918ZM58.8881 129.961C59.9988 129.961 60.7968 130.157 61.2821 130.549C61.7675 130.931 62.0148 131.501 62.0241 132.257C62.0335 132.882 61.8841 133.358 61.5761 133.685C61.2775 134.002 60.7781 134.161 60.0781 134.161H56.1581V133.111H59.6161C59.9335 133.111 60.1341 133.027 60.2181 132.859C60.3115 132.691 60.3581 132.485 60.3581 132.243C60.3488 131.86 60.2368 131.594 60.0221 131.445C59.8168 131.295 59.4621 131.221 58.9581 131.221C58.5195 131.221 58.1788 131.281 57.9361 131.403C57.6935 131.524 57.5208 131.743 57.4181 132.061C57.3248 132.378 57.2781 132.835 57.2781 133.433C57.2781 134.067 57.3388 134.557 57.4601 134.903C57.5815 135.248 57.7821 135.486 58.0621 135.617C58.3421 135.738 58.7155 135.799 59.1821 135.799C59.5275 135.799 59.9241 135.785 60.3721 135.757C60.8295 135.729 61.2681 135.691 61.6881 135.645L61.8561 136.723C61.6041 136.825 61.3148 136.909 60.9881 136.975C60.6615 137.04 60.3208 137.087 59.9661 137.115C59.6208 137.152 59.2941 137.171 58.9861 137.171C58.1461 137.171 57.4695 137.049 56.9561 136.807C56.4521 136.555 56.0835 136.163 55.8501 135.631C55.6261 135.099 55.5141 134.413 55.5141 133.573C55.5141 132.667 55.6261 131.953 55.8501 131.431C56.0835 130.899 56.4475 130.521 56.9421 130.297C57.4461 130.073 58.0948 129.961 58.8881 129.961ZM66.9767 129.961C67.8261 129.961 68.4374 130.273 68.8107 130.899C69.1841 131.524 69.3707 132.429 69.3707 133.615C69.3707 134.52 69.2727 135.234 69.0767 135.757C68.8901 136.27 68.6054 136.639 68.2227 136.863C67.8401 137.077 67.3547 137.185 66.7667 137.185C66.3001 137.185 65.8427 137.119 65.3947 136.989C64.9561 136.849 64.5501 136.634 64.1767 136.345L64.2887 135.505C64.6527 135.607 64.9794 135.696 65.2687 135.771C65.5581 135.845 65.8754 135.883 66.2207 135.883C66.5661 135.883 66.8367 135.827 67.0327 135.715C67.2381 135.593 67.3874 135.369 67.4807 135.043C67.5741 134.716 67.6207 134.245 67.6207 133.629C67.6207 133.022 67.5787 132.551 67.4947 132.215C67.4107 131.879 67.2707 131.645 67.0747 131.515C66.8881 131.375 66.6407 131.305 66.3327 131.305C65.9967 131.305 65.6794 131.379 65.3807 131.529C65.0821 131.669 64.7367 131.879 64.3447 132.159L64.1487 131.263C64.3634 131.011 64.6201 130.787 64.9187 130.591C65.2267 130.395 65.5581 130.241 65.9127 130.129C66.2674 130.017 66.6221 129.961 66.9767 129.961ZM64.0787 130.129L64.2467 131.459L64.4007 131.655V136.093L64.3307 136.261C64.3587 136.531 64.3774 136.802 64.3867 137.073C64.3961 137.353 64.4007 137.637 64.4007 137.927V139.733H62.7067V130.129H64.0787ZM73.2599 129.961C74.0999 129.961 74.7672 130.077 75.2619 130.311C75.7659 130.544 76.1252 130.927 76.3399 131.459C76.5639 131.991 76.6759 132.695 76.6759 133.573C76.6759 134.45 76.5639 135.155 76.3399 135.687C76.1252 136.209 75.7659 136.592 75.2619 136.835C74.7672 137.068 74.0999 137.185 73.2599 137.185C72.4386 137.185 71.7759 137.068 71.2719 136.835C70.7772 136.592 70.4179 136.209 70.1939 135.687C69.9699 135.155 69.8579 134.45 69.8579 133.573C69.8579 132.695 69.9699 131.991 70.1939 131.459C70.4179 130.927 70.7772 130.544 71.2719 130.311C71.7759 130.077 72.4386 129.961 73.2599 129.961ZM73.2599 131.249C72.8492 131.249 72.5226 131.319 72.2799 131.459C72.0466 131.589 71.8786 131.823 71.7759 132.159C71.6732 132.495 71.6219 132.966 71.6219 133.573C71.6219 134.179 71.6732 134.651 71.7759 134.987C71.8786 135.323 72.0466 135.556 72.2799 135.687C72.5226 135.817 72.8492 135.883 73.2599 135.883C73.6799 135.883 74.0112 135.817 74.2539 135.687C74.4966 135.556 74.6646 135.323 74.7579 134.987C74.8606 134.651 74.9119 134.179 74.9119 133.573C74.9119 132.966 74.8606 132.495 74.7579 132.159C74.6646 131.823 74.4966 131.589 74.2539 131.459C74.0112 131.319 73.6799 131.249 73.2599 131.249ZM78.749 130.129L78.973 131.473L79.127 131.669V137.003H77.433V130.129H78.749ZM82.109 129.961L81.941 131.529H81.451C81.087 131.529 80.7183 131.589 80.345 131.711C79.9716 131.832 79.505 132.014 78.945 132.257L78.833 131.263C79.3183 130.852 79.813 130.535 80.317 130.311C80.821 130.077 81.3063 129.961 81.773 129.961H82.109ZM84.6852 128.169V134.931C84.6852 135.22 84.7459 135.425 84.8672 135.547C84.9979 135.668 85.2172 135.729 85.5252 135.729H86.4772L86.6592 136.919C86.5005 136.965 86.3092 137.007 86.0852 137.045C85.8612 137.082 85.6419 137.105 85.4272 137.115C85.2125 137.133 85.0305 137.143 84.8812 137.143C84.2839 137.143 83.8172 136.984 83.4812 136.667C83.1545 136.34 82.9912 135.873 82.9912 135.267V128.169H84.6852ZM86.7292 130.129V131.305H81.7732V130.199L83.1172 130.129H86.7292Z" fill="#333839"/>
<path d="M90.3996 53.6044L53.7441 90.2499" stroke="white" stroke-width="6.29" stroke-miterlimit="10"/>
<path d="M90.3996 53.6044L53.7441 90.2499" stroke="#C8725C" stroke-width="3.42" stroke-miterlimit="10"/>
<path d="M8.6601 52.6618L6 50.0017L45.9905 10.0013" stroke="white" stroke-width="6.29" stroke-miterlimit="10"/>
<path d="M8.6601 52.6618L6 50.0017L45.9905 10.0013" stroke="#C8725C" stroke-width="3.42" stroke-miterlimit="10"/>
<path d="M68.6358 87.9313H31.3153L12 68.6358V31.3153L31.3153 12H68.6358L87.9512 31.3153V68.6358L68.6358 87.9313Z" fill="#C8725C"/>
<path d="M53.742 90.2507L50.0001 94.0026L8.65967 52.6622" stroke="white" stroke-width="6.29" stroke-miterlimit="10"/>
<path d="M53.742 90.2507L50.0001 94.0026L8.65967 52.6622" stroke="#C8725C" stroke-width="3.42" stroke-miterlimit="10"/>
<path d="M45.9897 10L49.9997 6L94.0002 50.0004L90.3972 53.6034" stroke="white" stroke-width="6.29" stroke-miterlimit="10"/>
<path d="M45.9897 10L49.9997 6L94.0002 50.0004L90.3972 53.6034" stroke="#C8725C" stroke-width="3.42" stroke-miterlimit="10"/>
<path d="M41.001 58.9972H38.7515C38.5821 58.9289 38.4283 58.8271 38.2992 58.698C38.17 58.5689 38.0683 58.415 38 58.2457V43.2987C38.114 43.0884 38.2776 42.9091 38.4766 42.7764C42.1206 40.2713 45.7623 37.7638 49.4017 35.2537C49.8908 34.9168 50.1037 34.9155 50.5885 35.2493C54.2379 37.7627 57.8871 40.274 61.5361 42.7833C61.8555 43.0031 62.0008 43.2699 62.0002 43.66C61.9927 48.3532 61.9927 53.0466 62.0002 57.7403C62.0002 58.3615 61.796 58.7886 61.1967 58.9928H58.9942V47.1427C58.9942 46.3912 58.6077 46.0054 57.8569 46.0047H42.1377C41.3862 46.0047 41.001 46.3918 41.001 47.1427V58.9972Z" fill="white"/>
<path d="M43.8096 58.9972C43.5296 58.8125 43.4858 58.5413 43.4889 58.2282C43.5002 57.042 43.4933 55.8559 43.4933 54.6697C43.4933 54.1687 43.6643 53.9953 44.1672 53.9946C44.635 53.9946 45.1034 53.999 45.5719 53.9946C45.7009 53.9946 45.7535 54.0259 45.746 54.1631C45.7347 54.351 45.7384 54.5389 45.746 54.7267C45.761 55.1833 46.0829 55.5039 46.5131 55.4977C46.934 55.4908 47.2346 55.172 47.2434 54.7198C47.2471 54.5251 47.2477 54.3297 47.2434 54.1349C47.2434 54.0347 47.2747 53.9965 47.378 53.9978C47.9166 54.0015 48.4552 53.9909 48.9931 54.004C49.3063 54.0122 49.4941 54.2144 49.4941 54.5345C49.4985 55.8459 49.4941 57.1566 49.4985 58.4674C49.4985 58.7292 49.3507 58.8751 49.1566 59.0016L43.8096 58.9972Z" fill="white"/>
<path d="M50.8417 58.9972C50.5768 58.8487 50.4935 58.6214 50.4967 58.3227C50.5092 57.0977 50.501 55.8727 50.5017 54.6478C50.5017 54.1555 50.6658 53.9952 51.1655 53.9946C51.634 53.9946 52.1049 54.0002 52.5702 53.9915C52.7143 53.9915 52.7625 54.0303 52.7543 54.1756C52.7431 54.3779 52.7462 54.5814 52.7543 54.7843C52.7601 54.9652 52.8328 55.1375 52.9583 55.2679C53.0838 55.3983 53.2533 55.4775 53.4338 55.4901C53.6182 55.5087 53.8027 55.4567 53.9503 55.3447C54.0978 55.2327 54.1975 55.0689 54.2292 54.8864C54.2762 54.6465 54.2492 54.4035 54.2473 54.1624C54.2473 54.029 54.2874 53.9902 54.4202 53.9921C54.9268 53.999 55.4341 53.9921 55.9414 53.9965C56.2971 54.0015 56.4969 54.1956 56.4981 54.5501C56.5038 55.8452 56.4981 57.1403 56.5019 58.4329C56.5019 58.7053 56.361 58.8713 56.1368 58.9965L50.8417 58.9972Z" fill="white"/>
<path d="M49.9988 52.9982C49.203 52.9982 48.4073 52.9982 47.6115 52.9982C47.1788 52.9982 46.9996 52.8191 46.999 52.3876C46.999 51.1238 46.999 49.8598 46.999 48.5956C46.999 48.196 47.1869 48.0006 47.5789 47.9975C48.08 47.9931 48.5778 48.0031 49.077 47.9925C49.2335 47.9887 49.2573 48.0488 49.2511 48.1804C49.241 48.3745 49.2435 48.5705 49.2511 48.7653C49.2554 48.9581 49.3345 49.1418 49.4717 49.2774C49.6089 49.4131 49.7934 49.4901 49.9863 49.4924C50.0839 49.4949 50.1811 49.4781 50.2722 49.443C50.3633 49.4078 50.4466 49.3551 50.5173 49.2877C50.588 49.2203 50.6447 49.1397 50.6841 49.0503C50.7236 48.961 50.745 48.8648 50.7472 48.7672C50.7547 48.5567 50.7547 48.3457 50.7472 48.1353C50.7434 48.02 50.7854 47.9912 50.8956 47.9925C51.4179 47.9969 51.9408 47.9881 52.4613 47.9969C52.8007 48.0031 52.9948 48.206 52.9955 48.5448C52.9984 49.8483 52.9984 51.1513 52.9955 52.454C52.9955 52.8015 52.7907 52.9944 52.4318 52.9957C51.6221 53.0001 50.8104 52.9982 49.9988 52.9982Z" fill="white"/>
</g>
</svg>
