<svg width="100" height="156" viewBox="0 0 100 156" fill="none" xmlns="http://www.w3.org/2000/svg">
<g opacity="0.2">
<rect width="100" height="156" rx="19" fill="#F9FBFF"/>
<path d="M17.2039 109.217C17.9319 109.217 18.5479 109.301 19.0519 109.469C19.5653 109.627 19.9759 109.898 20.2839 110.281C20.6013 110.654 20.8299 111.163 20.9699 111.807C21.1099 112.441 21.1799 113.23 21.1799 114.173C21.1799 115.115 21.1099 115.909 20.9699 116.553C20.8299 117.187 20.6013 117.696 20.2839 118.079C19.9759 118.452 19.5653 118.723 19.0519 118.891C18.5479 119.049 17.9319 119.129 17.2039 119.129C16.5039 119.129 15.8553 119.115 15.2579 119.087C14.6606 119.068 14.0959 119.04 13.5639 119.003L14.2919 117.659C14.6653 117.677 15.0946 117.696 15.5799 117.715C16.0653 117.724 16.6066 117.729 17.2039 117.729C17.7453 117.729 18.1699 117.626 18.4779 117.421C18.7953 117.206 19.0193 116.842 19.1499 116.329C19.2806 115.806 19.3459 115.087 19.3459 114.173C19.3459 113.258 19.2806 112.544 19.1499 112.031C19.0193 111.508 18.7953 111.139 18.4779 110.925C18.1699 110.71 17.7453 110.603 17.2039 110.603C16.6253 110.603 16.1073 110.607 15.6499 110.617C15.2019 110.626 14.7633 110.631 14.3339 110.631L13.5639 109.343C14.0959 109.305 14.6559 109.277 15.2439 109.259C15.8413 109.231 16.4946 109.217 17.2039 109.217ZM15.3139 109.343V119.003H13.5639V109.343H15.3139ZM25.5312 111.961C26.6419 111.961 27.4399 112.157 27.9252 112.549C28.4105 112.931 28.6579 113.501 28.6672 114.257C28.6765 114.882 28.5272 115.358 28.2192 115.685C27.9205 116.002 27.4212 116.161 26.7212 116.161H22.8012V115.111H26.2592C26.5765 115.111 26.7772 115.027 26.8612 114.859C26.9545 114.691 27.0012 114.485 27.0012 114.243C26.9919 113.86 26.8799 113.594 26.6652 113.445C26.4599 113.295 26.1052 113.221 25.6012 113.221C25.1625 113.221 24.8219 113.281 24.5792 113.403C24.3365 113.524 24.1639 113.743 24.0612 114.061C23.9679 114.378 23.9212 114.835 23.9212 115.433C23.9212 116.067 23.9819 116.557 24.1032 116.903C24.2245 117.248 24.4252 117.486 24.7052 117.617C24.9852 117.738 25.3585 117.799 25.8252 117.799C26.1705 117.799 26.5672 117.785 27.0152 117.757C27.4725 117.729 27.9112 117.691 28.3312 117.645L28.4992 118.723C28.2472 118.825 27.9579 118.909 27.6312 118.975C27.3045 119.04 26.9639 119.087 26.6092 119.115C26.2639 119.152 25.9372 119.171 25.6292 119.171C24.7892 119.171 24.1125 119.049 23.5992 118.807C23.0952 118.555 22.7265 118.163 22.4932 117.631C22.2692 117.099 22.1572 116.413 22.1572 115.573C22.1572 114.667 22.2692 113.953 22.4932 113.431C22.7265 112.899 23.0905 112.521 23.5852 112.297C24.0892 112.073 24.7379 111.961 25.5312 111.961ZM34.0398 111.961C34.8892 111.961 35.5005 112.273 35.8738 112.899C36.2472 113.524 36.4338 114.429 36.4338 115.615C36.4338 116.52 36.3358 117.234 36.1398 117.757C35.9532 118.27 35.6685 118.639 35.2858 118.863C34.9032 119.077 34.4178 119.185 33.8298 119.185C33.3632 119.185 32.9058 119.119 32.4578 118.989C32.0192 118.849 31.6132 118.634 31.2398 118.345L31.3518 117.505C31.7158 117.607 32.0425 117.696 32.3318 117.771C32.6212 117.845 32.9385 117.883 33.2838 117.883C33.6292 117.883 33.8998 117.827 34.0958 117.715C34.3012 117.593 34.4505 117.369 34.5438 117.043C34.6372 116.716 34.6838 116.245 34.6838 115.629C34.6838 115.022 34.6418 114.551 34.5578 114.215C34.4738 113.879 34.3338 113.645 34.1378 113.515C33.9512 113.375 33.7038 113.305 33.3958 113.305C33.0598 113.305 32.7425 113.379 32.4438 113.529C32.1452 113.669 31.7998 113.879 31.4078 114.159L31.2118 113.263C31.4265 113.011 31.6832 112.787 31.9818 112.591C32.2898 112.395 32.6212 112.241 32.9758 112.129C33.3305 112.017 33.6852 111.961 34.0398 111.961ZM31.1418 112.129L31.3098 113.459L31.4638 113.655V118.093L31.3938 118.261C31.4218 118.531 31.4405 118.802 31.4498 119.073C31.4592 119.353 31.4638 119.637 31.4638 119.927V121.733H29.7698V112.129H31.1418ZM41.093 111.961C41.6436 111.961 42.1056 112.035 42.479 112.185C42.8616 112.325 43.151 112.567 43.347 112.913C43.543 113.258 43.641 113.734 43.641 114.341V119.003H42.297L42.059 117.519L41.933 117.323V114.327C41.933 113.963 41.849 113.701 41.681 113.543C41.513 113.375 41.191 113.291 40.715 113.291C40.3603 113.291 39.9123 113.305 39.371 113.333C38.839 113.361 38.3023 113.398 37.761 113.445L37.607 112.283C37.9336 112.217 38.3023 112.161 38.713 112.115C39.1236 112.068 39.539 112.031 39.959 112.003C40.379 111.975 40.757 111.961 41.093 111.961ZM42.913 114.775L42.899 115.825H39.749C39.469 115.834 39.2683 115.909 39.147 116.049C39.0256 116.189 38.965 116.38 38.965 116.623V117.001C38.965 117.281 39.0396 117.495 39.189 117.645C39.3383 117.785 39.5716 117.855 39.889 117.855C40.141 117.855 40.421 117.803 40.729 117.701C41.037 117.598 41.3403 117.449 41.639 117.253C41.947 117.057 42.2223 116.823 42.465 116.553V117.435C42.3716 117.575 42.2363 117.743 42.059 117.939C41.8816 118.125 41.6623 118.312 41.401 118.499C41.149 118.685 40.855 118.839 40.519 118.961C40.1923 119.082 39.8283 119.143 39.427 119.143C39.0163 119.143 38.6476 119.073 38.321 118.933C37.9943 118.783 37.7376 118.569 37.551 118.289C37.3643 117.999 37.271 117.645 37.271 117.225V116.497C37.271 115.955 37.4483 115.535 37.803 115.237C38.167 114.929 38.6616 114.775 39.287 114.775H42.913ZM46.3786 112.129L46.6026 113.473L46.7566 113.669V119.003H45.0626V112.129H46.3786ZM49.7386 111.961L49.5706 113.529H49.0806C48.7166 113.529 48.348 113.589 47.9746 113.711C47.6013 113.832 47.1346 114.014 46.5746 114.257L46.4626 113.263C46.948 112.852 47.4426 112.535 47.9466 112.311C48.4506 112.077 48.936 111.961 49.4026 111.961H49.7386ZM52.7349 110.169V116.931C52.7349 117.22 52.7955 117.425 52.9169 117.547C53.0475 117.668 53.2669 117.729 53.5749 117.729H54.5269L54.7089 118.919C54.5502 118.965 54.3589 119.007 54.1349 119.045C53.9109 119.082 53.6915 119.105 53.4769 119.115C53.2622 119.133 53.0802 119.143 52.9309 119.143C52.3335 119.143 51.8669 118.984 51.5309 118.667C51.2042 118.34 51.0409 117.873 51.0409 117.267V110.169H52.7349ZM54.7789 112.129V113.305H49.8229V112.199L51.1669 112.129H54.7789ZM64.1793 111.961C64.786 111.961 65.248 112.124 65.5653 112.451C65.892 112.768 66.0553 113.235 66.0553 113.851V119.003H64.3753V114.369C64.366 114.023 64.296 113.776 64.1653 113.627C64.0346 113.468 63.806 113.389 63.4793 113.389C63.2833 113.389 63.092 113.421 62.9053 113.487C62.728 113.543 62.5273 113.636 62.3033 113.767C62.0793 113.897 61.8086 114.07 61.4913 114.285L61.3933 113.263C61.8693 112.824 62.3266 112.497 62.7653 112.283C63.2133 112.068 63.6846 111.961 64.1793 111.961ZM56.9693 112.129L57.1373 113.473L57.3053 113.669V119.003H55.6113V112.129H56.9693ZM59.7973 111.961C60.3946 111.961 60.852 112.119 61.1693 112.437C61.4866 112.754 61.6453 113.225 61.6453 113.851V119.003H60.0213V114.369C60.0213 114.005 59.9466 113.753 59.7973 113.613C59.648 113.463 59.424 113.389 59.1253 113.389C58.9386 113.389 58.752 113.417 58.5653 113.473C58.3786 113.529 58.1733 113.622 57.9493 113.753C57.7253 113.883 57.4453 114.061 57.1093 114.285L57.0113 113.263C57.478 112.824 57.9353 112.497 58.3833 112.283C58.8313 112.068 59.3026 111.961 59.7973 111.961ZM70.562 111.961C71.6727 111.961 72.4707 112.157 72.956 112.549C73.4413 112.931 73.6887 113.501 73.698 114.257C73.7073 114.882 73.558 115.358 73.25 115.685C72.9513 116.002 72.452 116.161 71.752 116.161H67.832V115.111H71.29C71.6073 115.111 71.808 115.027 71.892 114.859C71.9853 114.691 72.032 114.485 72.032 114.243C72.0227 113.86 71.9107 113.594 71.696 113.445C71.4907 113.295 71.136 113.221 70.632 113.221C70.1933 113.221 69.8527 113.281 69.61 113.403C69.3673 113.524 69.1947 113.743 69.092 114.061C68.9987 114.378 68.952 114.835 68.952 115.433C68.952 116.067 69.0127 116.557 69.134 116.903C69.2553 117.248 69.456 117.486 69.736 117.617C70.016 117.738 70.3893 117.799 70.856 117.799C71.2013 117.799 71.598 117.785 72.046 117.757C72.5033 117.729 72.942 117.691 73.362 117.645L73.53 118.723C73.278 118.825 72.9887 118.909 72.662 118.975C72.3353 119.04 71.9947 119.087 71.64 119.115C71.2947 119.152 70.968 119.171 70.66 119.171C69.82 119.171 69.1433 119.049 68.63 118.807C68.126 118.555 67.7573 118.163 67.524 117.631C67.3 117.099 67.188 116.413 67.188 115.573C67.188 114.667 67.3 113.953 67.524 113.431C67.7573 112.899 68.1213 112.521 68.616 112.297C69.12 112.073 69.7687 111.961 70.562 111.961ZM79.3226 111.961C80.6013 111.961 81.2406 112.591 81.2406 113.851V119.003H79.5466V114.369C79.5466 113.995 79.4813 113.739 79.3506 113.599C79.2199 113.459 79.0006 113.389 78.6926 113.389C78.3473 113.389 77.9926 113.468 77.6286 113.627C77.2646 113.776 76.8259 113.995 76.3126 114.285L76.2426 113.263C76.7466 112.843 77.2599 112.521 77.7826 112.297C78.3053 112.073 78.8186 111.961 79.3226 111.961ZM76.1866 112.129L76.3546 113.473L76.4946 113.669V119.003H74.8006V112.129H76.1866ZM84.9474 110.169V116.931C84.9474 117.22 85.0081 117.425 85.1294 117.547C85.2601 117.668 85.4794 117.729 85.7874 117.729H86.7394L86.9214 118.919C86.7628 118.965 86.5714 119.007 86.3474 119.045C86.1234 119.082 85.9041 119.105 85.6894 119.115C85.4748 119.133 85.2928 119.143 85.1434 119.143C84.5461 119.143 84.0794 118.984 83.7434 118.667C83.4168 118.34 83.2534 117.873 83.2534 117.267V110.169H84.9474ZM86.9914 112.129V113.305H82.0354V112.199L83.3794 112.129H86.9914ZM29.0666 127.343V137.003H27.3166V127.343H29.0666ZM32.0626 127.343V128.771H24.3206V127.343H32.0626ZM33.0253 130.129L33.2493 131.473L33.4033 131.669V137.003H31.7093V130.129H33.0253ZM36.3853 129.961L36.2173 131.529H35.7273C35.3633 131.529 34.9946 131.589 34.6213 131.711C34.248 131.832 33.7813 132.014 33.2213 132.257L33.1093 131.263C33.5946 130.852 34.0893 130.535 34.5933 130.311C35.0973 130.077 35.5826 129.961 36.0493 129.961H36.3853ZM40.5442 129.961C41.0949 129.961 41.5569 130.035 41.9302 130.185C42.3129 130.325 42.6022 130.567 42.7982 130.913C42.9942 131.258 43.0922 131.734 43.0922 132.341V137.003H41.7482L41.5102 135.519L41.3842 135.323V132.327C41.3842 131.963 41.3002 131.701 41.1322 131.543C40.9642 131.375 40.6422 131.291 40.1662 131.291C39.8115 131.291 39.3635 131.305 38.8222 131.333C38.2902 131.361 37.7535 131.398 37.2122 131.445L37.0582 130.283C37.3849 130.217 37.7535 130.161 38.1642 130.115C38.5749 130.068 38.9902 130.031 39.4102 130.003C39.8302 129.975 40.2082 129.961 40.5442 129.961ZM42.3642 132.775L42.3502 133.825H39.2002C38.9202 133.834 38.7195 133.909 38.5982 134.049C38.4769 134.189 38.4162 134.38 38.4162 134.623V135.001C38.4162 135.281 38.4909 135.495 38.6402 135.645C38.7895 135.785 39.0229 135.855 39.3402 135.855C39.5922 135.855 39.8722 135.803 40.1802 135.701C40.4882 135.598 40.7915 135.449 41.0902 135.253C41.3982 135.057 41.6735 134.823 41.9162 134.553V135.435C41.8229 135.575 41.6875 135.743 41.5102 135.939C41.3329 136.125 41.1135 136.312 40.8522 136.499C40.6002 136.685 40.3062 136.839 39.9702 136.961C39.6435 137.082 39.2795 137.143 38.8782 137.143C38.4675 137.143 38.0989 137.073 37.7722 136.933C37.4455 136.783 37.1889 136.569 37.0022 136.289C36.8155 135.999 36.7222 135.645 36.7222 135.225V134.497C36.7222 133.955 36.8995 133.535 37.2542 133.237C37.6182 132.929 38.1129 132.775 38.7382 132.775H42.3642ZM49.0358 129.961C50.3145 129.961 50.9538 130.591 50.9538 131.851V137.003H49.2598V132.369C49.2598 131.995 49.1945 131.739 49.0638 131.599C48.9332 131.459 48.7138 131.389 48.4058 131.389C48.0605 131.389 47.7058 131.468 47.3418 131.627C46.9778 131.776 46.5392 131.995 46.0258 132.285L45.9558 131.263C46.4598 130.843 46.9732 130.521 47.4958 130.297C48.0185 130.073 48.5318 129.961 49.0358 129.961ZM45.8998 130.129L46.0678 131.473L46.2078 131.669V137.003H44.5138V130.129H45.8998ZM54.8707 129.961C55.188 129.961 55.5287 129.97 55.8927 129.989C56.266 130.007 56.63 130.035 56.9847 130.073C57.3393 130.101 57.6567 130.143 57.9367 130.199L57.8247 131.305C57.3767 131.295 56.9287 131.286 56.4807 131.277C56.042 131.258 55.608 131.249 55.1787 131.249C54.796 131.249 54.4927 131.258 54.2687 131.277C54.054 131.295 53.9 131.351 53.8067 131.445C53.7227 131.538 53.6807 131.697 53.6807 131.921C53.6807 132.191 53.7553 132.373 53.9047 132.467C54.054 132.551 54.2967 132.635 54.6327 132.719L56.5087 133.153C57.0687 133.293 57.484 133.507 57.7547 133.797C58.0253 134.077 58.1607 134.511 58.1607 135.099C58.1607 135.668 58.0533 136.102 57.8387 136.401C57.6333 136.69 57.302 136.891 56.8447 137.003C56.3967 137.105 55.8227 137.157 55.1227 137.157C54.852 137.157 54.4507 137.143 53.9187 137.115C53.3867 137.096 52.8033 137.035 52.1687 136.933L52.2807 135.827C52.4673 135.827 52.6867 135.831 52.9387 135.841C53.2 135.85 53.4753 135.855 53.7647 135.855C54.0633 135.855 54.3667 135.855 54.6747 135.855C55.1693 135.855 55.5473 135.841 55.8087 135.813C56.0793 135.775 56.266 135.705 56.3687 135.603C56.4713 135.491 56.5227 135.332 56.5227 135.127C56.5227 134.865 56.434 134.693 56.2567 134.609C56.0887 134.515 55.8367 134.427 55.5007 134.343L53.6667 133.895C53.2467 133.783 52.92 133.643 52.6867 133.475C52.4533 133.297 52.2853 133.083 52.1827 132.831C52.08 132.569 52.0287 132.252 52.0287 131.879C52.0287 131.375 52.122 130.983 52.3087 130.703C52.5047 130.423 52.808 130.227 53.2187 130.115C53.6387 130.003 54.1893 129.951 54.8707 129.961ZM62.0035 126.937C62.1621 126.937 62.3675 126.941 62.6195 126.951C62.8808 126.96 63.1468 126.974 63.4175 126.993C63.6881 127.002 63.9168 127.025 64.1035 127.063L63.9635 128.197H62.6055C62.2135 128.197 61.9381 128.276 61.7795 128.435C61.6208 128.593 61.5415 128.859 61.5415 129.233V137.003H59.8475V129.023C59.8475 128.584 59.9175 128.211 60.0575 127.903C60.1975 127.595 60.4261 127.357 60.7435 127.189C61.0608 127.021 61.4808 126.937 62.0035 126.937ZM63.5855 130.129V131.305H58.6295V130.199L59.9035 130.129H63.5855ZM67.3335 129.961C68.4442 129.961 69.2422 130.157 69.7275 130.549C70.2128 130.931 70.4602 131.501 70.4695 132.257C70.4788 132.882 70.3295 133.358 70.0215 133.685C69.7228 134.002 69.2235 134.161 68.5235 134.161H64.6035V133.111H68.0615C68.3788 133.111 68.5795 133.027 68.6635 132.859C68.7568 132.691 68.8035 132.485 68.8035 132.243C68.7942 131.86 68.6822 131.594 68.4675 131.445C68.2622 131.295 67.9075 131.221 67.4035 131.221C66.9648 131.221 66.6242 131.281 66.3815 131.403C66.1388 131.524 65.9662 131.743 65.8635 132.061C65.7702 132.378 65.7235 132.835 65.7235 133.433C65.7235 134.067 65.7842 134.557 65.9055 134.903C66.0268 135.248 66.2275 135.486 66.5075 135.617C66.7875 135.738 67.1608 135.799 67.6275 135.799C67.9728 135.799 68.3695 135.785 68.8175 135.757C69.2748 135.729 69.7135 135.691 70.1335 135.645L70.3015 136.723C70.0495 136.825 69.7602 136.909 69.4335 136.975C69.1068 137.04 68.7662 137.087 68.4115 137.115C68.0662 137.152 67.7395 137.171 67.4315 137.171C66.5915 137.171 65.9148 137.049 65.4015 136.807C64.8975 136.555 64.5288 136.163 64.2955 135.631C64.0715 135.099 63.9595 134.413 63.9595 133.573C63.9595 132.667 64.0715 131.953 64.2955 131.431C64.5288 130.899 64.8928 130.521 65.3875 130.297C65.8915 130.073 66.5402 129.961 67.3335 129.961ZM72.8881 130.129L73.1121 131.473L73.2661 131.669V137.003H71.5721V130.129H72.8881ZM76.2481 129.961L76.0801 131.529H75.5901C75.2261 131.529 74.8575 131.589 74.4841 131.711C74.1108 131.832 73.6441 132.014 73.0841 132.257L72.9721 131.263C73.4575 130.852 73.9521 130.535 74.4561 130.311C74.9601 130.077 75.4455 129.961 75.9121 129.961H76.2481Z" fill="#333839"/>
<path d="M90.3995 53.6045L53.744 90.2501" stroke="white" stroke-width="6.29" stroke-miterlimit="10"/>
<path d="M90.3995 53.6045L53.744 90.2501" stroke="#DE5798" stroke-width="3.42" stroke-miterlimit="10"/>
<path d="M8.6601 52.6616L6 50.0016L45.9905 10.0012" stroke="white" stroke-width="6.29" stroke-miterlimit="10"/>
<path d="M8.6601 52.6616L6 50.0016L45.9905 10.0012" stroke="#DE5798" stroke-width="3.42" stroke-miterlimit="10"/>
<path d="M68.6359 87.9313H31.3154L12.0001 68.6358V31.3153L31.3154 12H68.6359L87.9512 31.3153V68.6358L68.6359 87.9313Z" fill="#DE5798"/>
<path d="M53.7421 90.2506L50.0002 94.0025L8.65979 52.6621" stroke="white" stroke-width="6.29" stroke-miterlimit="10"/>
<path d="M53.7421 90.2506L50.0002 94.0025L8.65979 52.6621" stroke="#DE5798" stroke-width="3.42" stroke-miterlimit="10"/>
<path d="M45.9896 10L49.9995 6L94 50.0004L90.397 53.6034" stroke="white" stroke-width="6.29" stroke-miterlimit="10"/>
<path d="M45.9896 10L49.9995 6L94 50.0004L90.397 53.6034" stroke="#DE5798" stroke-width="3.42" stroke-miterlimit="10"/>
<path d="M63.8868 53.3236C63.8868 53.6383 63.8914 53.9197 63.8868 54.2011C63.88 54.5583 63.7405 54.6933 63.381 54.7001C63.1944 54.7001 63.0078 54.7001 62.8053 54.7001V59.1861C63.0215 59.1861 63.2263 59.1861 63.4303 59.1861C63.7389 59.1929 63.8792 59.3264 63.8853 59.6412C63.8937 60.0568 63.8944 60.4754 63.8853 60.8895C63.8785 61.2073 63.7283 61.3446 63.4007 61.3506C62.7181 61.3552 62.0355 61.3506 61.3575 61.3506H52.1072C51.5831 61.3506 51.4777 61.2445 51.4769 60.7196C51.4769 60.37 51.4731 60.0196 51.4769 59.67C51.4807 59.3204 51.6172 59.1907 51.9593 59.1854C52.1481 59.1854 52.3385 59.1854 52.5486 59.1854V54.7009C52.3665 54.7009 52.1891 54.7009 52.0116 54.7009C51.6157 54.6963 51.4807 54.5651 51.4754 54.1745C51.4716 53.9197 51.4716 53.6641 51.4678 53.4085C51.4678 53.3918 51.4534 53.3752 51.4299 53.3228C51.2418 53.3228 51.0363 53.3228 50.8315 53.3228C50.6267 53.3228 50.4523 53.2652 50.3833 53.0506C50.3143 52.8359 50.4045 52.6873 50.5752 52.5629C52.8443 50.9096 55.113 49.2552 57.3812 47.5998C57.5852 47.4482 57.774 47.4482 57.9773 47.5998C60.2379 49.2496 62.4994 50.8982 64.762 52.5455C64.938 52.6736 65.0495 52.8253 64.9782 53.0498C64.9069 53.2743 64.718 53.3274 64.5042 53.3259C64.3093 53.3221 64.1136 53.3236 63.8868 53.3236ZM56.396 59.1717V54.7198H55.1234V59.1717H56.396ZM60.2472 59.1717V54.7191H58.9731V59.1717H60.2472ZM57.6853 51.3601C57.8475 51.3533 58.0005 51.2828 58.1109 51.1637C58.2213 51.0447 58.2801 50.8868 58.2746 50.7245C58.2697 50.5673 58.2054 50.4178 58.0946 50.3062C57.9838 50.1946 57.8348 50.1292 57.6777 50.1231C57.5156 50.1308 57.3629 50.202 57.2529 50.3214C57.1429 50.4408 57.0844 50.5987 57.0899 50.7609C57.0932 50.9181 57.1568 51.0681 57.2677 51.1796C57.3785 51.2912 57.5281 51.3558 57.6853 51.3601Z" fill="white"/>
<path d="M38.1903 46.4304C37.9772 46.4304 37.7807 46.4342 37.5835 46.4304C37.2597 46.4236 37.1217 46.2878 37.1141 45.9602C37.1073 45.6697 37.1141 45.3792 37.1141 45.0607C36.8866 45.0607 36.6901 45.0569 36.4937 45.0607C36.2776 45.066 36.0933 45.0144 36.022 44.7854C35.9507 44.5563 36.0607 44.413 36.2396 44.2826C38.2737 42.8032 40.3062 41.3215 42.3373 39.8375C42.5436 39.6858 42.7499 39.5341 42.9561 39.3863C43.2777 39.1527 43.3619 39.1504 43.6865 39.3863L48.6162 42.9804C49.2039 43.4096 49.7902 43.8419 50.3818 44.2659C50.5683 44.3994 50.6927 44.5518 50.6161 44.7892C50.5395 45.0266 50.3347 45.0668 50.1125 45.0599C49.9343 45.0546 49.7553 45.0599 49.5278 45.0599V45.653C49.5278 46.3849 49.483 46.4296 48.7694 46.4311H48.4599V50.9141C48.6374 50.9141 48.8141 50.9141 48.9908 50.9141C49.3875 50.9187 49.5263 51.0514 49.5301 51.4382C49.5339 51.825 49.5339 52.1966 49.5301 52.5758C49.5263 52.955 49.3928 53.0839 49.0121 53.0847C47.6211 53.0847 46.2307 53.0847 44.8408 53.0847H37.7451C37.2142 53.0847 37.1217 52.9876 37.1209 52.4537C37.1209 52.1033 37.1156 51.7529 37.1209 51.4033C37.1262 51.0537 37.2726 50.9247 37.6101 50.9164C37.7989 50.9118 37.9893 50.9164 38.1963 50.9164L38.1903 46.4304ZM42.0316 50.905V46.4524H40.7537V50.9012L42.0316 50.905ZM45.8882 46.4554H44.6057V50.8906H45.8882V46.4554ZM43.9087 42.4942C43.9134 42.3374 43.8572 42.1849 43.7518 42.0687C43.6465 41.9524 43.5002 41.8815 43.3437 41.8708C43.2635 41.868 43.1836 41.8812 43.1086 41.9098C43.0337 41.9384 42.9652 41.9817 42.9073 42.0372C42.8494 42.0928 42.8032 42.1593 42.7715 42.233C42.7397 42.3067 42.7231 42.3859 42.7226 42.4662C42.7177 42.6231 42.7738 42.7758 42.8792 42.8922C42.9845 43.0086 43.1309 43.0796 43.2876 43.0903C43.368 43.0935 43.4482 43.0804 43.5235 43.0519C43.5988 43.0234 43.6675 42.9801 43.7257 42.9245C43.7839 42.8689 43.8302 42.8021 43.8621 42.7282C43.8939 42.6543 43.9105 42.5747 43.911 42.4942H43.9087Z" fill="white"/>
<path d="M56.478 43.7594V41.312H54.3711C53.6036 41.312 53.571 41.2794 53.571 40.5164C53.571 40.1661 53.5657 39.8164 53.571 39.466C53.577 39.1581 53.7166 39.0057 54.026 39.0042C55.4923 38.9986 56.9585 38.9986 58.4248 39.0042C58.7479 39.0042 58.867 39.1596 58.8677 39.5298C58.8677 40.817 58.8677 42.1038 58.8677 43.3901V43.7587C59.2636 43.7587 59.6299 43.7625 59.9955 43.7587C60.2147 43.7587 60.424 43.7746 60.5264 44.0029C60.6288 44.2312 60.5013 44.3957 60.3436 44.552C59.5852 45.3051 58.8306 46.0635 58.0737 46.8181C57.7657 47.1215 57.5989 47.1215 57.2872 46.8113C56.5288 46.0529 55.7772 45.2944 55.018 44.5444C54.8663 44.3927 54.7511 44.2357 54.8352 44.0196C54.9255 43.792 55.1287 43.7549 55.3517 43.7587C55.7173 43.764 56.0859 43.7594 56.478 43.7594Z" fill="white"/>
<path d="M44.5229 56.8051V59.2503H46.6328C46.7557 59.2503 46.8793 59.2503 47.0021 59.2503C47.2623 59.2563 47.417 59.3974 47.4238 59.6515C47.4367 60.152 47.4375 60.6541 47.4238 61.1554C47.4162 61.4413 47.2448 61.5604 46.8876 61.5611C45.7808 61.5611 44.6741 61.5611 43.5673 61.5611C43.2639 61.5611 42.9606 61.5611 42.6572 61.5611C42.2552 61.5566 42.1263 61.4345 42.1263 61.0302C42.1233 59.7339 42.1233 58.4377 42.1263 57.1419V56.8013C41.7221 56.8013 41.3467 56.7975 40.9712 56.8013C40.7589 56.8013 40.5655 56.7672 40.473 56.5549C40.3804 56.3425 40.4851 56.1756 40.6383 56.024C41.4104 55.2572 42.1771 54.4851 42.9477 53.7169C43.2275 53.4378 43.4027 53.4401 43.6924 53.726C44.4564 54.4874 45.2196 55.2494 45.9821 56.0118C46.1338 56.1635 46.249 56.3205 46.1641 56.5374C46.0731 56.7649 45.8698 56.8013 45.6469 56.7975C45.2813 56.8006 44.9142 56.8051 44.5229 56.8051Z" fill="white"/>
</g>
</svg>
