<svg width="98" height="149" viewBox="0 0 98 149" fill="none" xmlns="http://www.w3.org/2000/svg">
<g opacity="0.35">
<path d="M23.8689 107.666C24.5969 107.666 25.2129 107.75 25.7169 107.918C26.2303 108.077 26.6409 108.348 26.9489 108.73C27.2663 109.104 27.4949 109.612 27.6349 110.256C27.7749 110.891 27.8449 111.68 27.8449 112.622C27.8449 113.565 27.7749 114.358 27.6349 115.002C27.4949 115.637 27.2663 116.146 26.9489 116.528C26.6409 116.902 26.2303 117.172 25.7169 117.34C25.2129 117.499 24.5969 117.578 23.8689 117.578C23.1689 117.578 22.5203 117.564 21.9229 117.536C21.3256 117.518 20.7609 117.49 20.2289 117.452L20.9569 116.108C21.3303 116.127 21.7596 116.146 22.2449 116.164C22.7303 116.174 23.2716 116.178 23.8689 116.178C24.4103 116.178 24.8349 116.076 25.1429 115.87C25.4603 115.656 25.6843 115.292 25.8149 114.778C25.9456 114.256 26.0109 113.537 26.0109 112.622C26.0109 111.708 25.9456 110.994 25.8149 110.48C25.6843 109.958 25.4603 109.589 25.1429 109.374C24.8349 109.16 24.4103 109.052 23.8689 109.052C23.2903 109.052 22.7723 109.057 22.3149 109.066C21.8669 109.076 21.4283 109.08 20.9989 109.08L20.2289 107.792C20.7609 107.755 21.3209 107.727 21.9089 107.708C22.5063 107.68 23.1596 107.666 23.8689 107.666ZM21.9789 107.792V117.452H20.2289V107.792H21.9789ZM32.1962 110.41C33.3069 110.41 34.1049 110.606 34.5902 110.998C35.0755 111.381 35.3229 111.95 35.3322 112.706C35.3415 113.332 35.1922 113.808 34.8842 114.134C34.5855 114.452 34.0862 114.61 33.3862 114.61H29.4662V113.56H32.9242C33.2415 113.56 33.4422 113.476 33.5262 113.308C33.6195 113.14 33.6662 112.935 33.6662 112.692C33.6569 112.31 33.5449 112.044 33.3302 111.894C33.1249 111.745 32.7702 111.67 32.2662 111.67C31.8275 111.67 31.4869 111.731 31.2442 111.852C31.0015 111.974 30.8289 112.193 30.7262 112.51C30.6329 112.828 30.5862 113.285 30.5862 113.882C30.5862 114.517 30.6469 115.007 30.7682 115.352C30.8895 115.698 31.0902 115.936 31.3702 116.066C31.6502 116.188 32.0235 116.248 32.4902 116.248C32.8355 116.248 33.2322 116.234 33.6802 116.206C34.1375 116.178 34.5762 116.141 34.9962 116.094L35.1642 117.172C34.9122 117.275 34.6229 117.359 34.2962 117.424C33.9695 117.49 33.6289 117.536 33.2742 117.564C32.9289 117.602 32.6022 117.62 32.2942 117.62C31.4542 117.62 30.7775 117.499 30.2642 117.256C29.7602 117.004 29.3915 116.612 29.1582 116.08C28.9342 115.548 28.8222 114.862 28.8222 114.022C28.8222 113.117 28.9342 112.403 29.1582 111.88C29.3915 111.348 29.7555 110.97 30.2502 110.746C30.7542 110.522 31.4029 110.41 32.1962 110.41ZM40.7048 110.41C41.5542 110.41 42.1655 110.723 42.5388 111.348C42.9122 111.974 43.0988 112.879 43.0988 114.064C43.0988 114.97 43.0008 115.684 42.8048 116.206C42.6182 116.72 42.3335 117.088 41.9508 117.312C41.5682 117.527 41.0828 117.634 40.4948 117.634C40.0282 117.634 39.5708 117.569 39.1228 117.438C38.6842 117.298 38.2782 117.084 37.9048 116.794L38.0168 115.954C38.3808 116.057 38.7075 116.146 38.9968 116.22C39.2862 116.295 39.6035 116.332 39.9488 116.332C40.2942 116.332 40.5648 116.276 40.7608 116.164C40.9662 116.043 41.1155 115.819 41.2088 115.492C41.3022 115.166 41.3488 114.694 41.3488 114.078C41.3488 113.472 41.3068 113 41.2228 112.664C41.1388 112.328 40.9988 112.095 40.8028 111.964C40.6162 111.824 40.3688 111.754 40.0608 111.754C39.7248 111.754 39.4075 111.829 39.1088 111.978C38.8102 112.118 38.4648 112.328 38.0728 112.608L37.8768 111.712C38.0915 111.46 38.3482 111.236 38.6468 111.04C38.9548 110.844 39.2862 110.69 39.6408 110.578C39.9955 110.466 40.3502 110.41 40.7048 110.41ZM37.8068 110.578L37.9748 111.908L38.1288 112.104V116.542L38.0588 116.71C38.0868 116.981 38.1055 117.252 38.1148 117.522C38.1242 117.802 38.1288 118.087 38.1288 118.376V120.182H36.4348V110.578H37.8068ZM46.5543 108.618V115.38C46.5543 115.67 46.615 115.875 46.7363 115.996C46.867 116.118 47.0863 116.178 47.3943 116.178H48.3463L48.5283 117.368C48.3696 117.415 48.1783 117.457 47.9543 117.494C47.7303 117.532 47.511 117.555 47.2963 117.564C47.0816 117.583 46.8996 117.592 46.7503 117.592C46.153 117.592 45.6863 117.434 45.3503 117.116C45.0236 116.79 44.8603 116.323 44.8603 115.716V108.618H46.5543ZM48.5983 110.578V111.754H43.6423V110.648L44.9863 110.578H48.5983ZM55.8328 107.792V117.452H54.0828V107.792H55.8328ZM58.8288 107.792V109.22H51.0868V107.792H58.8288ZM59.7915 110.578L60.0155 111.922L60.1695 112.118V117.452H58.4755V110.578H59.7915ZM63.1515 110.41L62.9835 111.978H62.4935C62.1295 111.978 61.7609 112.039 61.3875 112.16C61.0142 112.282 60.5475 112.464 59.9875 112.706L59.8755 111.712C60.3609 111.302 60.8555 110.984 61.3595 110.76C61.8635 110.527 62.3489 110.41 62.8155 110.41H63.1515ZM67.3104 110.41C67.8611 110.41 68.3231 110.485 68.6964 110.634C69.0791 110.774 69.3684 111.017 69.5644 111.362C69.7604 111.708 69.8584 112.184 69.8584 112.79V117.452H68.5144L68.2764 115.968L68.1504 115.772V112.776C68.1504 112.412 68.0664 112.151 67.8984 111.992C67.7304 111.824 67.4084 111.74 66.9324 111.74C66.5777 111.74 66.1297 111.754 65.5884 111.782C65.0564 111.81 64.5197 111.848 63.9784 111.894L63.8244 110.732C64.1511 110.667 64.5197 110.611 64.9304 110.564C65.3411 110.518 65.7564 110.48 66.1764 110.452C66.5964 110.424 66.9744 110.41 67.3104 110.41ZM69.1304 113.224L69.1164 114.274H65.9664C65.6864 114.284 65.4857 114.358 65.3644 114.498C65.2431 114.638 65.1824 114.83 65.1824 115.072V115.45C65.1824 115.73 65.2571 115.945 65.4064 116.094C65.5557 116.234 65.7891 116.304 66.1064 116.304C66.3584 116.304 66.6384 116.253 66.9464 116.15C67.2544 116.048 67.5577 115.898 67.8564 115.702C68.1644 115.506 68.4397 115.273 68.6824 115.002V115.884C68.5891 116.024 68.4537 116.192 68.2764 116.388C68.0991 116.575 67.8797 116.762 67.6184 116.948C67.3664 117.135 67.0724 117.289 66.7364 117.41C66.4097 117.532 66.0457 117.592 65.6444 117.592C65.2337 117.592 64.8651 117.522 64.5384 117.382C64.2117 117.233 63.9551 117.018 63.7684 116.738C63.5817 116.449 63.4884 116.094 63.4884 115.674V114.946C63.4884 114.405 63.6657 113.985 64.0204 113.686C64.3844 113.378 64.8791 113.224 65.5044 113.224H69.1304ZM75.8021 110.41C77.0807 110.41 77.7201 111.04 77.7201 112.3V117.452H76.0261V112.818C76.0261 112.445 75.9607 112.188 75.8301 112.048C75.6994 111.908 75.4801 111.838 75.1721 111.838C74.8267 111.838 74.4721 111.918 74.1081 112.076C73.7441 112.226 73.3054 112.445 72.7921 112.734L72.7221 111.712C73.2261 111.292 73.7394 110.97 74.2621 110.746C74.7847 110.522 75.2981 110.41 75.8021 110.41ZM72.6661 110.578L72.8341 111.922L72.9741 112.118V117.452H71.2801V110.578H72.6661ZM42.167 125.792L39.409 134.962C39.3623 135.102 39.283 135.219 39.171 135.312C39.059 135.406 38.9237 135.452 38.765 135.452H37.113C36.9543 135.452 36.819 135.406 36.707 135.312C36.595 135.219 36.5203 135.102 36.483 134.962L33.725 125.792H35.531L37.505 133.058C37.5517 133.236 37.5983 133.413 37.645 133.59C37.6917 133.768 37.729 133.945 37.757 134.122H38.121C38.1677 133.945 38.2097 133.768 38.247 133.59C38.2937 133.404 38.3403 133.222 38.387 133.044L40.361 125.792H42.167ZM44.6023 128.578V135.452H42.9223V128.578H44.6023ZM44.1403 125.596C44.4763 125.596 44.6443 125.764 44.6443 126.1V126.884C44.6443 127.22 44.4763 127.388 44.1403 127.388H43.3843C43.0483 127.388 42.8803 127.22 42.8803 126.884V126.1C42.8803 125.764 43.0483 125.596 43.3843 125.596H44.1403ZM49.2037 128.41C50.3144 128.41 51.1124 128.606 51.5977 128.998C52.0831 129.381 52.3304 129.95 52.3397 130.706C52.3491 131.332 52.1997 131.808 51.8917 132.134C51.5931 132.452 51.0937 132.61 50.3937 132.61H46.4737V131.56H49.9317C50.2491 131.56 50.4497 131.476 50.5337 131.308C50.6271 131.14 50.6737 130.935 50.6737 130.692C50.6644 130.31 50.5524 130.044 50.3377 129.894C50.1324 129.745 49.7777 129.67 49.2737 129.67C48.8351 129.67 48.4944 129.731 48.2517 129.852C48.0091 129.974 47.8364 130.193 47.7337 130.51C47.6404 130.828 47.5937 131.285 47.5937 131.882C47.5937 132.517 47.6544 133.007 47.7757 133.352C47.8971 133.698 48.0977 133.936 48.3777 134.066C48.6577 134.188 49.0311 134.248 49.4977 134.248C49.8431 134.248 50.2397 134.234 50.6877 134.206C51.1451 134.178 51.5837 134.141 52.0037 134.094L52.1717 135.172C51.9197 135.275 51.6304 135.359 51.3037 135.424C50.9771 135.49 50.6364 135.536 50.2817 135.564C49.9364 135.602 49.6097 135.62 49.3017 135.62C48.4617 135.62 47.7851 135.499 47.2717 135.256C46.7677 135.004 46.3991 134.612 46.1657 134.08C45.9417 133.548 45.8297 132.862 45.8297 132.022C45.8297 131.117 45.9417 130.403 46.1657 129.88C46.3991 129.348 46.7631 128.97 47.2577 128.746C47.7617 128.522 48.4104 128.41 49.2037 128.41ZM63.9427 128.578L62.1227 135.004C62.0854 135.135 62.0107 135.242 61.8987 135.326C61.7867 135.41 61.656 135.452 61.5067 135.452H60.1487C59.9994 135.452 59.864 135.406 59.7427 135.312C59.6214 135.219 59.5514 135.093 59.5327 134.934L58.6227 130.72C58.5854 130.534 58.5527 130.347 58.5247 130.16C58.506 129.974 58.478 129.787 58.4407 129.6H58.2587C58.2307 129.787 58.198 129.974 58.1607 130.16C58.1327 130.347 58.1 130.534 58.0627 130.72L57.1667 134.934C57.1387 135.093 57.064 135.219 56.9427 135.312C56.8307 135.406 56.6954 135.452 56.5367 135.452H55.1927C55.0434 135.452 54.9127 135.41 54.8007 135.326C54.6887 135.242 54.6187 135.135 54.5907 135.004L52.7567 128.578H54.4787L55.6267 133.296C55.664 133.474 55.6967 133.656 55.7247 133.842C55.762 134.02 55.7947 134.197 55.8227 134.374H55.9907C56.0374 134.197 56.0747 134.02 56.1027 133.842C56.14 133.656 56.1774 133.474 56.2147 133.296L57.1247 129.096C57.1527 128.947 57.218 128.826 57.3207 128.732C57.4327 128.63 57.5727 128.578 57.7407 128.578H58.9727C59.122 128.578 59.2527 128.63 59.3647 128.732C59.4767 128.826 59.5467 128.952 59.5747 129.11L60.4847 133.296C60.5127 133.474 60.5454 133.651 60.5827 133.828C60.6294 134.006 60.6667 134.188 60.6947 134.374H60.8627C60.9 134.188 60.9327 134.01 60.9607 133.842C60.9887 133.665 61.026 133.483 61.0727 133.296L62.2207 128.578H63.9427Z" fill="#333839"/>
<path d="M89.3995 52.0541L52.744 88.6996" stroke="white" stroke-width="6.29" stroke-miterlimit="10"/>
<path d="M89.3995 52.0541L52.744 88.6996" stroke="#AA730D" stroke-width="3.42" stroke-miterlimit="10"/>
<path d="M7.6601 51.1115L5 48.4514L44.9905 8.45105" stroke="white" stroke-width="6.29" stroke-miterlimit="10"/>
<path d="M7.6601 51.1115L5 48.4514L44.9905 8.45105" stroke="#AA730D" stroke-width="3.42" stroke-miterlimit="10"/>
<path d="M67.6359 86.381H30.3154L11.0001 67.0855V29.765L30.3154 10.4497H67.6359L86.9512 29.765V67.0855L67.6359 86.381Z" fill="#AA730D"/>
<path d="M52.7421 88.7004L49.0002 92.4523L7.65979 51.1119" stroke="white" stroke-width="6.29" stroke-miterlimit="10"/>
<path d="M52.7421 88.7004L49.0002 92.4523L7.65979 51.1119" stroke="#AA730D" stroke-width="3.42" stroke-miterlimit="10"/>
<path d="M44.9896 8.44974L48.9995 4.44971L93 48.4501L89.397 52.0531" stroke="white" stroke-width="6.29" stroke-miterlimit="10"/>
<path d="M44.9896 8.44974L48.9995 4.44971L93 48.4501L89.397 52.0531" stroke="#AA730D" stroke-width="3.42" stroke-miterlimit="10"/>
<g clip-path="url(#clip0_488_9031)">
<path d="M47.8209 33.4497C49.8036 33.471 51.6978 34.2613 53.0921 35.649C54.4865 37.0366 55.2686 38.9097 55.2686 40.8615C55.2686 42.8134 54.4865 44.6864 53.0921 46.0741C51.6978 47.4617 49.8036 48.252 47.8209 48.2733C43.6666 48.2813 40.2757 44.9372 40.2829 40.839C40.2848 39.8665 40.4813 38.904 40.8612 38.0063C41.241 37.1086 41.7969 36.2934 42.4969 35.6072C43.1969 34.921 44.0273 34.3773 44.9409 34.0071C45.8544 33.6369 46.833 33.4475 47.8209 33.4497Z" fill="white"/>
<path d="M49.0012 63.4497H35.6947C34.0464 63.4497 33.0045 62.4329 33 60.8157C33 59.1844 33 57.5521 33 55.9208C33 54.865 33.4779 54.1276 34.4273 53.6431C37.2605 52.1891 40.3313 51.2367 43.4995 50.8296C45.3331 50.5911 47.187 50.5428 49.0309 50.6854C49.0497 50.6854 49.0668 50.7031 49.1207 50.7305C49.0354 50.7809 48.9689 50.8278 48.8961 50.8614C46.6216 51.9179 44.7225 53.6234 43.4456 55.7563C42.9004 56.6529 42.9067 57.5504 43.4528 58.4443C44.7109 60.5358 46.5674 62.216 48.7901 63.2747C48.8674 63.3127 48.9428 63.3534 49.0192 63.3923L49.0012 63.4497Z" fill="white"/>
<path d="M54.7571 51.0878C58.3555 51.2257 61.546 52.9446 63.7656 56.3744C64.0871 56.8704 64.071 57.3196 63.7656 57.8201C59.454 64.8406 49.0345 64.8371 44.7319 57.8139C44.4238 57.3116 44.4283 56.866 44.7319 56.3656C46.7359 53.1108 50.3701 51.0887 54.7571 51.0878ZM61.6736 57.1101C58.2728 52.0294 50.5148 51.9242 46.9784 56.8687C46.8508 57.0455 46.8535 57.1578 46.9856 57.3249C49.1638 60.0942 52.0157 61.3224 55.5494 60.8617C58.1444 60.5301 60.152 59.1985 61.6754 57.1101H61.6736Z" fill="white"/>
<path d="M54.1401 59.5566C53.6463 59.5512 53.1652 59.4021 52.7573 59.1281C52.3494 58.8542 52.033 58.4675 51.8479 58.0169C51.6628 57.5663 51.6172 57.0718 51.717 56.5957C51.8168 56.1197 52.0574 55.6833 52.4085 55.3416C52.7597 54.9999 53.2057 54.768 53.6904 54.6753C54.1751 54.5825 54.6769 54.633 55.1325 54.8204C55.5881 55.0077 55.9773 55.3236 56.2509 55.7282C56.5246 56.1328 56.6705 56.608 56.6704 57.0941C56.6705 57.4199 56.605 57.7425 56.4775 58.0432C56.35 58.3439 56.1632 58.6166 55.9278 58.8457C55.6925 59.0748 55.4132 59.2556 55.1063 59.3776C54.7995 59.4996 54.471 59.5605 54.1401 59.5566Z" fill="white"/>
</g>
</g>
<defs>
<clipPath id="clip0_488_9031">
<rect width="31" height="30" fill="white" transform="translate(33 33.4497)"/>
</clipPath>
</defs>
</svg>
