<svg width="100" height="156" viewBox="0 0 100 156" fill="none" xmlns="http://www.w3.org/2000/svg">
<g opacity="0.2">
<rect width="100" height="156" rx="19" fill="#F9FBFF"/>
<path d="M23.5376 109.217C24.2656 109.217 24.8816 109.301 25.3856 109.469C25.8989 109.627 26.3096 109.898 26.6176 110.281C26.9349 110.654 27.1636 111.163 27.3036 111.807C27.4436 112.441 27.5136 113.23 27.5136 114.173C27.5136 115.115 27.4436 115.909 27.3036 116.553C27.1636 117.187 26.9349 117.696 26.6176 118.079C26.3096 118.452 25.8989 118.723 25.3856 118.891C24.8816 119.049 24.2656 119.129 23.5376 119.129C22.8376 119.129 22.1889 119.115 21.5916 119.087C20.9942 119.068 20.4296 119.04 19.8976 119.003L20.6256 117.659C20.9989 117.677 21.4282 117.696 21.9136 117.715C22.3989 117.724 22.9402 117.729 23.5376 117.729C24.0789 117.729 24.5036 117.626 24.8116 117.421C25.1289 117.206 25.3529 116.842 25.4836 116.329C25.6142 115.806 25.6796 115.087 25.6796 114.173C25.6796 113.258 25.6142 112.544 25.4836 112.031C25.3529 111.508 25.1289 111.139 24.8116 110.925C24.5036 110.71 24.0789 110.603 23.5376 110.603C22.9589 110.603 22.4409 110.607 21.9836 110.617C21.5356 110.626 21.0969 110.631 20.6676 110.631L19.8976 109.343C20.4296 109.305 20.9896 109.277 21.5776 109.259C22.1749 109.231 22.8282 109.217 23.5376 109.217ZM21.6476 109.343V119.003H19.8976V109.343H21.6476ZM30.8708 112.129V116.777C30.8615 117.122 30.9268 117.369 31.0668 117.519C31.2162 117.668 31.4542 117.743 31.7808 117.743C32.1075 117.743 32.4342 117.673 32.7608 117.533C33.0875 117.393 33.4842 117.183 33.9508 116.903L34.1188 117.911C33.5962 118.331 33.0922 118.648 32.6068 118.863C32.1215 119.077 31.6175 119.185 31.0948 119.185C29.8162 119.185 29.1768 118.555 29.1768 117.295V112.129H30.8708ZM35.4768 112.129V119.003H34.1328L33.9508 117.673L33.7828 117.477V112.129H35.4768ZM41.651 111.961C42.5003 111.961 43.1116 112.273 43.485 112.899C43.8583 113.524 44.045 114.429 44.045 115.615C44.045 116.52 43.947 117.234 43.751 117.757C43.5643 118.27 43.2796 118.639 42.897 118.863C42.5143 119.077 42.029 119.185 41.441 119.185C40.9743 119.185 40.517 119.119 40.069 118.989C39.6303 118.849 39.2243 118.634 38.851 118.345L38.963 117.505C39.327 117.607 39.6536 117.696 39.943 117.771C40.2323 117.845 40.5496 117.883 40.895 117.883C41.2403 117.883 41.511 117.827 41.707 117.715C41.9123 117.593 42.0616 117.369 42.155 117.043C42.2483 116.716 42.295 116.245 42.295 115.629C42.295 115.022 42.253 114.551 42.169 114.215C42.085 113.879 41.945 113.645 41.749 113.515C41.5623 113.375 41.315 113.305 41.007 113.305C40.671 113.305 40.3536 113.379 40.055 113.529C39.7563 113.669 39.411 113.879 39.019 114.159L38.823 113.263C39.0376 113.011 39.2943 112.787 39.593 112.591C39.901 112.395 40.2323 112.241 40.587 112.129C40.9416 112.017 41.2963 111.961 41.651 111.961ZM38.753 112.129L38.921 113.459L39.075 113.655V118.093L39.005 118.261C39.033 118.531 39.0516 118.802 39.061 119.073C39.0703 119.353 39.075 119.637 39.075 119.927V121.733H37.381V112.129H38.753ZM47.3741 109.203L47.3601 116.931C47.3601 117.192 47.4348 117.393 47.5841 117.533C47.7334 117.663 47.9481 117.729 48.2281 117.729H48.8301L49.0261 118.919C48.9234 118.965 48.7788 119.007 48.5921 119.045C48.4148 119.082 48.2281 119.105 48.0321 119.115C47.8454 119.133 47.6821 119.143 47.5421 119.143C46.9728 119.143 46.5201 118.989 46.1841 118.681C45.8481 118.373 45.6801 117.929 45.6801 117.351V109.203H47.3741ZM51.8181 112.129V119.003H50.1381V112.129H51.8181ZM51.3561 109.147C51.6921 109.147 51.8601 109.315 51.8601 109.651V110.435C51.8601 110.771 51.6921 110.939 51.3561 110.939H50.6001C50.2641 110.939 50.0961 110.771 50.0961 110.435V109.651C50.0961 109.315 50.2641 109.147 50.6001 109.147H51.3561ZM56.8535 111.961C57.0869 111.961 57.3435 111.97 57.6235 111.989C57.9035 112.007 58.1882 112.045 58.4775 112.101C58.7669 112.157 59.0282 112.236 59.2615 112.339L59.0655 113.403C58.7202 113.384 58.3749 113.37 58.0295 113.361C57.6935 113.351 57.3995 113.347 57.1475 113.347C56.6715 113.347 56.2935 113.412 56.0135 113.543C55.7429 113.664 55.5469 113.888 55.4255 114.215C55.3042 114.532 55.2435 114.98 55.2435 115.559C55.2435 116.137 55.3042 116.59 55.4255 116.917C55.5469 117.234 55.7429 117.458 56.0135 117.589C56.2935 117.719 56.6715 117.785 57.1475 117.785C57.2875 117.785 57.4695 117.78 57.6935 117.771C57.9269 117.761 58.1742 117.747 58.4355 117.729C58.7062 117.71 58.9675 117.687 59.2195 117.659L59.3875 118.751C59.0235 118.9 58.6175 119.007 58.1695 119.073C57.7215 119.138 57.2782 119.171 56.8395 119.171C56.0182 119.171 55.3602 119.054 54.8655 118.821C54.3709 118.587 54.0115 118.209 53.7875 117.687C53.5729 117.155 53.4655 116.445 53.4655 115.559C53.4655 114.672 53.5775 113.967 53.8015 113.445C54.0255 112.913 54.3849 112.535 54.8795 112.311C55.3742 112.077 56.0322 111.961 56.8535 111.961ZM64.2315 111.961C64.7822 111.961 65.2442 112.035 65.6175 112.185C66.0002 112.325 66.2895 112.567 66.4855 112.913C66.6815 113.258 66.7795 113.734 66.7795 114.341V119.003H65.4355L65.1975 117.519L65.0715 117.323V114.327C65.0715 113.963 64.9875 113.701 64.8195 113.543C64.6515 113.375 64.3295 113.291 63.8535 113.291C63.4989 113.291 63.0509 113.305 62.5095 113.333C61.9775 113.361 61.4409 113.398 60.8995 113.445L60.7455 112.283C61.0722 112.217 61.4409 112.161 61.8515 112.115C62.2622 112.068 62.6775 112.031 63.0975 112.003C63.5175 111.975 63.8955 111.961 64.2315 111.961ZM66.0515 114.775L66.0375 115.825H62.8875C62.6075 115.834 62.4069 115.909 62.2855 116.049C62.1642 116.189 62.1035 116.38 62.1035 116.623V117.001C62.1035 117.281 62.1782 117.495 62.3275 117.645C62.4769 117.785 62.7102 117.855 63.0275 117.855C63.2795 117.855 63.5595 117.803 63.8675 117.701C64.1755 117.598 64.4789 117.449 64.7775 117.253C65.0855 117.057 65.3609 116.823 65.6035 116.553V117.435C65.5102 117.575 65.3749 117.743 65.1975 117.939C65.0202 118.125 64.8009 118.312 64.5395 118.499C64.2875 118.685 63.9935 118.839 63.6575 118.961C63.3309 119.082 62.9669 119.143 62.5655 119.143C62.1549 119.143 61.7862 119.073 61.4595 118.933C61.1329 118.783 60.8762 118.569 60.6895 118.289C60.5029 117.999 60.4095 117.645 60.4095 117.225V116.497C60.4095 115.955 60.5869 115.535 60.9415 115.237C61.3055 114.929 61.8002 114.775 62.4255 114.775H66.0515ZM70.8892 110.169V116.931C70.8892 117.22 70.9499 117.425 71.0712 117.547C71.2019 117.668 71.4212 117.729 71.7292 117.729H72.6812L72.8632 118.919C72.7045 118.965 72.5132 119.007 72.2892 119.045C72.0652 119.082 71.8459 119.105 71.6312 119.115C71.4165 119.133 71.2345 119.143 71.0852 119.143C70.4879 119.143 70.0212 118.984 69.6852 118.667C69.3585 118.34 69.1952 117.873 69.1952 117.267V110.169H70.8892ZM72.9332 112.129V113.305H67.9772V112.199L69.3212 112.129H72.9332ZM77.2516 111.961C78.3623 111.961 79.1603 112.157 79.6456 112.549C80.131 112.931 80.3783 113.501 80.3876 114.257C80.397 114.882 80.2476 115.358 79.9396 115.685C79.641 116.002 79.1416 116.161 78.4416 116.161H74.5216V115.111H77.9796C78.297 115.111 78.4976 115.027 78.5816 114.859C78.675 114.691 78.7216 114.485 78.7216 114.243C78.7123 113.86 78.6003 113.594 78.3856 113.445C78.1803 113.295 77.8256 113.221 77.3216 113.221C76.883 113.221 76.5423 113.281 76.2996 113.403C76.057 113.524 75.8843 113.743 75.7816 114.061C75.6883 114.378 75.6416 114.835 75.6416 115.433C75.6416 116.067 75.7023 116.557 75.8236 116.903C75.945 117.248 76.1456 117.486 76.4256 117.617C76.7056 117.738 77.079 117.799 77.5456 117.799C77.891 117.799 78.2876 117.785 78.7356 117.757C79.193 117.729 79.6316 117.691 80.0516 117.645L80.2196 118.723C79.9676 118.825 79.6783 118.909 79.3516 118.975C79.025 119.04 78.6843 119.087 78.3296 119.115C77.9843 119.152 77.6576 119.171 77.3496 119.171C76.5096 119.171 75.833 119.049 75.3196 118.807C74.8156 118.555 74.447 118.163 74.2136 117.631C73.9896 117.099 73.8776 116.413 73.8776 115.573C73.8776 114.667 73.9896 113.953 74.2136 113.431C74.447 112.899 74.811 112.521 75.3056 112.297C75.8096 112.073 76.4583 111.961 77.2516 111.961ZM43.4716 127.343V137.003H41.7216V127.343H43.4716ZM46.4676 127.343V128.771H38.7256V127.343H46.4676ZM49.8966 129.961C50.4472 129.961 50.9092 130.035 51.2826 130.185C51.6652 130.325 51.9546 130.567 52.1506 130.913C52.3466 131.258 52.4446 131.734 52.4446 132.341V137.003H51.1006L50.8626 135.519L50.7366 135.323V132.327C50.7366 131.963 50.6526 131.701 50.4846 131.543C50.3166 131.375 49.9946 131.291 49.5186 131.291C49.1639 131.291 48.7159 131.305 48.1746 131.333C47.6426 131.361 47.1059 131.398 46.5646 131.445L46.4106 130.283C46.7372 130.217 47.1059 130.161 47.5166 130.115C47.9272 130.068 48.3426 130.031 48.7626 130.003C49.1826 129.975 49.5606 129.961 49.8966 129.961ZM51.7166 132.775L51.7026 133.825H48.5526C48.2726 133.834 48.0719 133.909 47.9506 134.049C47.8292 134.189 47.7686 134.38 47.7686 134.623V135.001C47.7686 135.281 47.8432 135.495 47.9926 135.645C48.1419 135.785 48.3752 135.855 48.6926 135.855C48.9446 135.855 49.2246 135.803 49.5326 135.701C49.8406 135.598 50.1439 135.449 50.4426 135.253C50.7506 135.057 51.0259 134.823 51.2686 134.553V135.435C51.1752 135.575 51.0399 135.743 50.8626 135.939C50.6852 136.125 50.4659 136.312 50.2046 136.499C49.9526 136.685 49.6586 136.839 49.3226 136.961C48.9959 137.082 48.6319 137.143 48.2306 137.143C47.8199 137.143 47.4512 137.073 47.1246 136.933C46.7979 136.783 46.5412 136.569 46.3546 136.289C46.1679 135.999 46.0746 135.645 46.0746 135.225V134.497C46.0746 133.955 46.2519 133.535 46.6066 133.237C46.9706 132.929 47.4652 132.775 48.0906 132.775H51.7166ZM57.1982 129.961C57.9729 129.961 58.5842 130.035 59.0322 130.185C59.4896 130.325 59.8162 130.558 60.0122 130.885C60.2082 131.202 60.3062 131.622 60.3062 132.145C60.3062 132.649 60.2082 133.064 60.0122 133.391C59.8162 133.708 59.4896 133.941 59.0322 134.091C58.5749 134.24 57.9589 134.315 57.1842 134.315C56.4096 134.315 55.7936 134.24 55.3362 134.091C54.8882 133.941 54.5616 133.708 54.3562 133.391C54.1602 133.073 54.0622 132.658 54.0622 132.145C54.0622 131.622 54.1602 131.202 54.3562 130.885C54.5616 130.558 54.8929 130.325 55.3502 130.185C55.8076 130.035 56.4236 129.961 57.1982 129.961ZM57.1842 131.067C56.5962 131.067 56.1902 131.146 55.9662 131.305C55.7422 131.463 55.6302 131.743 55.6302 132.145C55.6302 132.527 55.7422 132.803 55.9662 132.971C56.1902 133.129 56.5962 133.209 57.1842 133.209C57.7722 133.209 58.1736 133.129 58.3882 132.971C58.6122 132.803 58.7242 132.527 58.7242 132.145C58.7242 131.743 58.6122 131.463 58.3882 131.305C58.1736 131.146 57.7722 131.067 57.1842 131.067ZM61.1042 130.129L61.0062 130.913L59.2142 131.109L58.7102 130.129H61.1042ZM55.1822 133.895L56.0502 134.021C55.9102 134.133 55.8122 134.277 55.7562 134.455C55.7096 134.623 55.7236 134.786 55.7982 134.945C55.8822 135.094 56.0596 135.187 56.3302 135.225L58.8782 135.561C59.5689 135.645 60.0542 135.85 60.3342 136.177C60.6142 136.494 60.7542 136.956 60.7542 137.563C60.7542 138.132 60.6422 138.575 60.4182 138.893C60.1942 139.21 59.8256 139.429 59.3122 139.551C58.8082 139.681 58.1269 139.747 57.2682 139.747C56.5869 139.747 56.0222 139.709 55.5742 139.635C55.1262 139.569 54.7669 139.453 54.4962 139.285C54.2349 139.126 54.0482 138.916 53.9362 138.655C53.8242 138.403 53.7682 138.085 53.7682 137.703C53.7682 137.404 53.8149 137.152 53.9082 136.947C54.0109 136.741 54.1742 136.559 54.3982 136.401C54.6222 136.233 54.9256 136.079 55.3082 135.939L56.2602 135.533L56.9182 135.771L56.3022 136.205C56.0876 136.363 55.9102 136.508 55.7702 136.639C55.6396 136.76 55.5416 136.881 55.4762 137.003C55.4202 137.133 55.3922 137.297 55.3922 137.493C55.3922 137.754 55.4436 137.955 55.5462 138.095C55.6582 138.235 55.8496 138.328 56.1202 138.375C56.3909 138.431 56.7689 138.459 57.2542 138.459C57.7489 138.459 58.1316 138.431 58.4022 138.375C58.6729 138.328 58.8596 138.235 58.9622 138.095C59.0742 137.964 59.1302 137.773 59.1302 137.521C59.1302 137.315 59.0976 137.161 59.0322 137.059C58.9669 136.965 58.8502 136.891 58.6822 136.835C58.5142 136.779 58.2809 136.732 57.9822 136.695L55.6862 136.415C55.3596 136.377 55.0982 136.284 54.9022 136.135C54.7156 135.976 54.5849 135.789 54.5102 135.575C54.4356 135.351 54.4122 135.131 54.4402 134.917C54.4776 134.693 54.5569 134.487 54.6782 134.301C54.8089 134.114 54.9769 133.979 55.1822 133.895Z" fill="#333839"/>
<path d="M90.3996 53.6044L53.7441 90.2499" stroke="white" stroke-width="6.29" stroke-miterlimit="10"/>
<path d="M90.3996 53.6044L53.7441 90.2499" stroke="#875CC8" stroke-width="3.42" stroke-miterlimit="10"/>
<path d="M8.6601 52.6618L6 50.0017L45.9905 10.0013" stroke="white" stroke-width="6.29" stroke-miterlimit="10"/>
<path d="M8.6601 52.6618L6 50.0017L45.9905 10.0013" stroke="#875CC8" stroke-width="3.42" stroke-miterlimit="10"/>
<path d="M68.6358 87.9313H31.3153L12 68.6358V31.3153L31.3153 12H68.6358L87.9512 31.3153V68.6358L68.6358 87.9313Z" fill="#875CC8"/>
<path d="M53.742 90.2507L50.0001 94.0026L8.65967 52.6622" stroke="white" stroke-width="6.29" stroke-miterlimit="10"/>
<path d="M53.742 90.2507L50.0001 94.0026L8.65967 52.6622" stroke="#875CC8" stroke-width="3.42" stroke-miterlimit="10"/>
<path d="M45.9897 10L49.9997 6L94.0002 50.0004L90.3972 53.6034" stroke="white" stroke-width="6.29" stroke-miterlimit="10"/>
<path d="M45.9897 10L49.9997 6L94.0002 50.0004L90.3972 53.6034" stroke="#875CC8" stroke-width="3.42" stroke-miterlimit="10"/>
<path d="M42.8713 35C42.9894 35.1384 43.0988 35.2852 43.1989 35.4395C44.2625 37.3082 45.3232 39.179 46.3812 41.0519C46.4297 41.1321 46.4729 41.216 46.5105 41.3029C46.5522 41.4038 46.5585 41.5179 46.5281 41.6235C46.4977 41.7292 46.4328 41.819 46.3457 41.876C46.2594 41.9352 46.1563 41.958 46.0556 41.9403C45.955 41.9225 45.8638 41.8654 45.799 41.7797C45.7588 41.7252 45.7225 41.6674 45.6905 41.6067C44.6049 39.6907 43.5196 37.7744 42.4345 35.8579C42.2038 35.4508 42.2348 35.2728 42.5792 35H42.8713Z" fill="#FFF3F8"/>
<path d="M49.7051 35C50.045 35.2975 50.0689 35.4494 49.8344 35.8643C49.2218 36.9451 48.6066 38.0238 47.9993 39.1082C47.9114 39.265 47.8267 39.3234 47.6529 39.284C47.421 39.2443 47.1875 39.2173 46.9531 39.2031C47.0048 39.1047 47.0442 39.0224 47.0895 38.9429C47.7602 37.7573 48.4296 36.571 49.1068 35.3896C49.1888 35.2454 49.311 35.1287 49.415 35H49.7051Z" fill="#FFF3F8"/>
<path d="M46.9246 40.149C47.5907 40.1538 48.2522 40.2688 48.8864 40.4901C49.4356 40.6914 49.9748 40.9238 50.5018 41.1863C51.0271 41.438 51.2688 41.9015 51.2675 42.528C51.2636 44.4928 51.2675 46.4576 51.2675 48.4224C51.2675 52.0791 51.2597 55.7358 51.2739 59.396C51.2739 60.1464 50.9935 60.6253 50.379 60.953C48.7429 61.8249 47.0112 62.0584 45.2188 61.9241C44.0557 61.8362 42.9572 61.4916 41.8988 60.9516C41.2804 60.6344 40.9987 60.1429 41 59.3953C41.0099 53.8165 41.0099 48.2377 41 42.6588C41 41.938 41.2417 41.405 41.8587 41.135C42.4758 40.8649 43.1285 40.635 43.7643 40.3874C43.9058 40.3326 44.0008 40.3706 44.0809 40.5225C44.2747 40.8874 44.477 41.2454 44.6863 41.5991C44.7212 41.6449 44.7407 41.7022 44.7415 41.7617C44.7424 41.8212 44.7245 41.8792 44.6909 41.9261C44.2974 42.6293 44.3478 43.4422 44.8065 44.0631C45.0247 44.3545 45.3183 44.5678 45.6492 44.6754C45.9801 44.783 46.333 44.7799 46.6623 44.6665C46.9951 44.5506 47.2872 44.3263 47.4989 44.0237C47.7106 43.7212 47.8318 43.3552 47.8461 42.9753C47.8669 42.5592 47.7525 42.1485 47.523 41.815C47.4855 41.7587 47.4241 41.6947 47.428 41.6392C47.4668 41.1054 47.1909 40.7067 46.9531 40.2904C46.9374 40.2603 46.9238 40.2291 46.9124 40.1969C46.9104 40.1905 46.9169 40.18 46.9246 40.149ZM46.1447 51.7303H47.3078C47.6063 51.7303 47.9049 51.7345 48.2027 51.7303C48.5187 51.7247 48.7022 51.5439 48.6984 51.2542C48.6945 50.9729 48.5136 50.8042 48.2118 50.7957C48.1556 50.7957 48.0987 50.7957 48.0425 50.7957H44.4382C44.2851 50.7957 44.1313 50.7873 43.9794 50.8006C43.8734 50.8057 43.773 50.8543 43.6984 50.9366C43.6239 51.0189 43.5807 51.1289 43.5775 51.2444C43.573 51.3596 43.6084 51.4725 43.6767 51.5607C43.745 51.6489 43.8413 51.7059 43.9465 51.7204C44.0185 51.7307 44.0911 51.7342 44.1636 51.731L46.1447 51.7303ZM46.1073 53.584C46.526 53.584 46.9473 53.584 47.364 53.584C47.6555 53.5805 47.848 53.392 47.848 53.1206C47.848 52.8491 47.658 52.6578 47.3634 52.6557C46.5501 52.6501 45.7368 52.6501 44.9235 52.6557C44.6153 52.6557 44.4188 52.8568 44.4272 53.1346C44.4356 53.4124 44.6282 53.5819 44.9235 53.5847C45.3183 53.5854 45.7124 53.5826 46.1073 53.5826V53.584ZM46.1396 55.4376C46.5512 55.4376 46.9628 55.4376 47.375 55.4376C47.6567 55.4376 47.8415 55.2534 47.848 54.9904C47.8545 54.7274 47.6632 54.5221 47.3705 54.5207C46.5469 54.516 45.7232 54.516 44.8996 54.5207C44.6172 54.5207 44.4337 54.7063 44.4272 54.9686C44.4208 55.2422 44.6101 55.4341 44.9041 55.4376C45.3183 55.4398 45.7273 55.4362 46.1396 55.4362V55.4376Z" fill="#FFF3F8"/>
<path d="M50.5754 61.8874C50.6736 61.8312 50.7693 61.7742 50.8694 61.72C51.7152 61.2538 52.1268 60.5049 52.1268 59.4754C52.1268 54.2997 52.1268 49.1243 52.1268 43.9491C52.1268 43.4407 52.1391 42.9315 52.1236 42.4231C52.0978 41.5392 51.7301 40.8662 51.0206 40.4239C50.8326 40.3072 50.6329 40.2066 50.3887 40.0674C50.9056 40.0674 51.367 40.0505 51.8257 40.073C52.0978 40.0863 52.3679 40.1581 52.638 40.208C53.2247 40.317 53.5775 40.6911 53.7403 41.312C54.5075 44.2337 55.2786 47.1544 56.0536 50.0741C56.7094 52.5572 57.3601 55.0416 58.0231 57.5219C58.202 58.1906 58.0747 58.7293 57.5966 59.2061C56.2157 60.5815 54.5745 61.3684 52.7536 61.7299C52.0428 61.8705 51.3178 61.9127 50.5987 61.9999L50.5754 61.8874Z" fill="#FFF3F8"/>
</g>
</svg>
