<svg width="100" height="156" viewBox="0 0 100 156" fill="none" xmlns="http://www.w3.org/2000/svg">
<g opacity="0.2">
<rect width="100" height="156" rx="19" fill="#F9FBFF"/>
<path d="M16.11 109.343V117.043C16.11 117.733 15.928 118.256 15.564 118.611C15.2094 118.965 14.7007 119.143 14.038 119.143C13.898 119.143 13.7254 119.133 13.52 119.115C13.3147 119.105 13.1187 119.082 12.932 119.045C12.7454 119.007 12.5914 118.965 12.47 118.919L12.666 117.743H13.352C14.0334 117.743 14.374 117.444 14.374 116.847V109.343H16.11ZM21.1696 111.961C22.2803 111.961 23.0783 112.157 23.5636 112.549C24.0489 112.931 24.2963 113.501 24.3056 114.257C24.3149 114.882 24.1656 115.358 23.8576 115.685C23.5589 116.002 23.0596 116.161 22.3596 116.161H18.4396V115.111H21.8976C22.2149 115.111 22.4156 115.027 22.4996 114.859C22.5929 114.691 22.6396 114.485 22.6396 114.243C22.6303 113.86 22.5183 113.594 22.3036 113.445C22.0983 113.295 21.7436 113.221 21.2396 113.221C20.8009 113.221 20.4603 113.281 20.2176 113.403C19.9749 113.524 19.8023 113.743 19.6996 114.061C19.6063 114.378 19.5596 114.835 19.5596 115.433C19.5596 116.067 19.6203 116.557 19.7416 116.903C19.8629 117.248 20.0636 117.486 20.3436 117.617C20.6236 117.738 20.9969 117.799 21.4636 117.799C21.8089 117.799 22.2056 117.785 22.6536 117.757C23.1109 117.729 23.5496 117.691 23.9696 117.645L24.1376 118.723C23.8856 118.825 23.5963 118.909 23.2696 118.975C22.9429 119.04 22.6023 119.087 22.2476 119.115C21.9023 119.152 21.5756 119.171 21.2676 119.171C20.4276 119.171 19.7509 119.049 19.2376 118.807C18.7336 118.555 18.3649 118.163 18.1316 117.631C17.9076 117.099 17.7956 116.413 17.7956 115.573C17.7956 114.667 17.9076 113.953 18.1316 113.431C18.3649 112.899 18.7289 112.521 19.2236 112.297C19.7276 112.073 20.3763 111.961 21.1696 111.961ZM36.3285 112.129L34.5085 118.555C34.4712 118.685 34.3965 118.793 34.2845 118.877C34.1725 118.961 34.0419 119.003 33.8925 119.003H32.5345C32.3852 119.003 32.2499 118.956 32.1285 118.863C32.0072 118.769 31.9372 118.643 31.9185 118.485L31.0085 114.271C30.9712 114.084 30.9385 113.897 30.9105 113.711C30.8919 113.524 30.8639 113.337 30.8265 113.151H30.6445C30.6165 113.337 30.5839 113.524 30.5465 113.711C30.5185 113.897 30.4859 114.084 30.4485 114.271L29.5525 118.485C29.5245 118.643 29.4499 118.769 29.3285 118.863C29.2165 118.956 29.0812 119.003 28.9225 119.003H27.5785C27.4292 119.003 27.2985 118.961 27.1865 118.877C27.0745 118.793 27.0045 118.685 26.9765 118.555L25.1425 112.129H26.8645L28.0125 116.847C28.0499 117.024 28.0825 117.206 28.1105 117.393C28.1479 117.57 28.1805 117.747 28.2085 117.925H28.3765C28.4232 117.747 28.4605 117.57 28.4885 117.393C28.5259 117.206 28.5632 117.024 28.6005 116.847L29.5105 112.647C29.5385 112.497 29.6039 112.376 29.7065 112.283C29.8185 112.18 29.9585 112.129 30.1265 112.129H31.3585C31.5079 112.129 31.6385 112.18 31.7505 112.283C31.8625 112.376 31.9325 112.502 31.9605 112.661L32.8705 116.847C32.8985 117.024 32.9312 117.201 32.9685 117.379C33.0152 117.556 33.0525 117.738 33.0805 117.925H33.2485C33.2859 117.738 33.3185 117.561 33.3465 117.393C33.3745 117.215 33.4119 117.033 33.4585 116.847L34.6065 112.129H36.3285ZM40.57 111.961C41.6807 111.961 42.4787 112.157 42.964 112.549C43.4493 112.931 43.6967 113.501 43.706 114.257C43.7153 114.882 43.566 115.358 43.258 115.685C42.9593 116.002 42.46 116.161 41.76 116.161H37.84V115.111H41.298C41.6153 115.111 41.816 115.027 41.9 114.859C41.9933 114.691 42.04 114.485 42.04 114.243C42.0307 113.86 41.9187 113.594 41.704 113.445C41.4987 113.295 41.144 113.221 40.64 113.221C40.2013 113.221 39.8607 113.281 39.618 113.403C39.3753 113.524 39.2027 113.743 39.1 114.061C39.0067 114.378 38.96 114.835 38.96 115.433C38.96 116.067 39.0207 116.557 39.142 116.903C39.2633 117.248 39.464 117.486 39.744 117.617C40.024 117.738 40.3973 117.799 40.864 117.799C41.2093 117.799 41.606 117.785 42.054 117.757C42.5113 117.729 42.95 117.691 43.37 117.645L43.538 118.723C43.286 118.825 42.9967 118.909 42.67 118.975C42.3433 119.04 42.0027 119.087 41.648 119.115C41.3027 119.152 40.976 119.171 40.668 119.171C39.828 119.171 39.1513 119.049 38.638 118.807C38.134 118.555 37.7653 118.163 37.532 117.631C37.308 117.099 37.196 116.413 37.196 115.573C37.196 114.667 37.308 113.953 37.532 113.431C37.7653 112.899 38.1293 112.521 38.624 112.297C39.128 112.073 39.7767 111.961 40.57 111.961ZM46.9366 109.203L46.9226 116.931C46.9226 117.192 46.9973 117.393 47.1466 117.533C47.2959 117.663 47.5106 117.729 47.7906 117.729H48.3926L48.5886 118.919C48.4859 118.965 48.3413 119.007 48.1546 119.045C47.9773 119.082 47.7906 119.105 47.5946 119.115C47.4079 119.133 47.2446 119.143 47.1046 119.143C46.5353 119.143 46.0826 118.989 45.7466 118.681C45.4106 118.373 45.2426 117.929 45.2426 117.351V109.203H46.9366ZM55.473 109.161C55.949 109.17 56.4483 109.198 56.971 109.245C57.503 109.291 58.021 109.38 58.525 109.511L58.413 110.701C58.0117 110.691 57.545 110.682 57.013 110.673C56.4903 110.654 55.9863 110.645 55.501 110.645C55.2023 110.645 54.9457 110.654 54.731 110.673C54.5257 110.691 54.3577 110.738 54.227 110.813C54.0963 110.887 53.9983 111.004 53.933 111.163C53.877 111.312 53.849 111.522 53.849 111.793C53.849 112.213 53.933 112.511 54.101 112.689C54.2783 112.866 54.563 113.006 54.955 113.109L56.859 113.669C57.6243 113.902 58.1517 114.243 58.441 114.691C58.7303 115.129 58.875 115.717 58.875 116.455C58.875 117.005 58.8097 117.458 58.679 117.813C58.5483 118.167 58.3477 118.443 58.077 118.639C57.8063 118.835 57.4517 118.975 57.013 119.059C56.5743 119.143 56.047 119.185 55.431 119.185C55.1137 119.185 54.675 119.166 54.115 119.129C53.5643 119.091 52.9343 118.998 52.225 118.849L52.337 117.589C52.8877 117.607 53.3497 117.626 53.723 117.645C54.0963 117.654 54.4183 117.659 54.689 117.659C54.9597 117.659 55.2117 117.659 55.445 117.659C55.8743 117.659 56.2103 117.631 56.453 117.575C56.6957 117.519 56.8637 117.402 56.957 117.225C57.0597 117.047 57.111 116.791 57.111 116.455C57.111 116.165 57.0737 115.941 56.999 115.783C56.9337 115.615 56.8217 115.484 56.663 115.391C56.5043 115.297 56.299 115.218 56.047 115.153L54.073 114.551C53.345 114.327 52.8317 113.995 52.533 113.557C52.2437 113.118 52.099 112.53 52.099 111.793C52.099 111.242 52.1643 110.794 52.295 110.449C52.4257 110.094 52.6263 109.828 52.897 109.651C53.1677 109.464 53.513 109.338 53.933 109.273C54.3623 109.198 54.8757 109.161 55.473 109.161ZM62.645 110.169V116.931C62.645 117.22 62.7057 117.425 62.827 117.547C62.9577 117.668 63.177 117.729 63.485 117.729H64.437L64.619 118.919C64.4604 118.965 64.269 119.007 64.045 119.045C63.821 119.082 63.6017 119.105 63.387 119.115C63.1724 119.133 62.9904 119.143 62.841 119.143C62.2437 119.143 61.777 118.984 61.441 118.667C61.1144 118.34 60.951 117.873 60.951 117.267V110.169H62.645ZM64.689 112.129V113.305H59.733V112.199L61.077 112.129H64.689ZM69.0495 111.961C69.8895 111.961 70.5568 112.077 71.0515 112.311C71.5555 112.544 71.9148 112.927 72.1295 113.459C72.3535 113.991 72.4655 114.695 72.4655 115.573C72.4655 116.45 72.3535 117.155 72.1295 117.687C71.9148 118.209 71.5555 118.592 71.0515 118.835C70.5568 119.068 69.8895 119.185 69.0495 119.185C68.2282 119.185 67.5655 119.068 67.0615 118.835C66.5668 118.592 66.2075 118.209 65.9835 117.687C65.7595 117.155 65.6475 116.45 65.6475 115.573C65.6475 114.695 65.7595 113.991 65.9835 113.459C66.2075 112.927 66.5668 112.544 67.0615 112.311C67.5655 112.077 68.2282 111.961 69.0495 111.961ZM69.0495 113.249C68.6388 113.249 68.3122 113.319 68.0695 113.459C67.8362 113.589 67.6682 113.823 67.5655 114.159C67.4628 114.495 67.4115 114.966 67.4115 115.573C67.4115 116.179 67.4628 116.651 67.5655 116.987C67.6682 117.323 67.8362 117.556 68.0695 117.687C68.3122 117.817 68.6388 117.883 69.0495 117.883C69.4695 117.883 69.8008 117.817 70.0435 117.687C70.2862 117.556 70.4542 117.323 70.5475 116.987C70.6502 116.651 70.7015 116.179 70.7015 115.573C70.7015 114.966 70.6502 114.495 70.5475 114.159C70.4542 113.823 70.2862 113.589 70.0435 113.459C69.8008 113.319 69.4695 113.249 69.0495 113.249ZM77.1426 111.961C77.3759 111.961 77.6326 111.97 77.9126 111.989C78.1926 112.007 78.4773 112.045 78.7666 112.101C79.0559 112.157 79.3173 112.236 79.5506 112.339L79.3546 113.403C79.0093 113.384 78.6639 113.37 78.3186 113.361C77.9826 113.351 77.6886 113.347 77.4366 113.347C76.9606 113.347 76.5826 113.412 76.3026 113.543C76.0319 113.664 75.8359 113.888 75.7146 114.215C75.5933 114.532 75.5326 114.98 75.5326 115.559C75.5326 116.137 75.5933 116.59 75.7146 116.917C75.8359 117.234 76.0319 117.458 76.3026 117.589C76.5826 117.719 76.9606 117.785 77.4366 117.785C77.5766 117.785 77.7586 117.78 77.9826 117.771C78.2159 117.761 78.4633 117.747 78.7246 117.729C78.9953 117.71 79.2566 117.687 79.5086 117.659L79.6766 118.751C79.3126 118.9 78.9066 119.007 78.4586 119.073C78.0106 119.138 77.5673 119.171 77.1286 119.171C76.3073 119.171 75.6493 119.054 75.1546 118.821C74.6599 118.587 74.3006 118.209 74.0766 117.687C73.8619 117.155 73.7546 116.445 73.7546 115.559C73.7546 114.672 73.8666 113.967 74.0906 113.445C74.3146 112.913 74.6739 112.535 75.1686 112.311C75.6633 112.077 76.3213 111.961 77.1426 111.961ZM87.2786 112.129L85.3186 114.579C85.2439 114.691 85.1506 114.803 85.0386 114.915C84.9266 115.017 84.8286 115.097 84.7446 115.153V115.181C84.8286 115.237 84.9266 115.33 85.0386 115.461C85.1506 115.582 85.2439 115.708 85.3186 115.839L87.5026 119.003H85.5846L83.0786 115.111L85.3606 112.129H87.2786ZM82.7566 109.203L82.7706 113.389C82.7706 113.697 82.7519 113.991 82.7146 114.271C82.6866 114.551 82.6446 114.835 82.5886 115.125C82.6353 115.395 82.6726 115.675 82.7006 115.965C82.7379 116.254 82.7566 116.525 82.7566 116.777V119.003H81.0626V109.203H82.7566ZM83.8066 114.607V115.699H82.2106V114.607H83.8066ZM27.6536 127.343C27.8029 127.343 27.9336 127.385 28.0456 127.469C28.1576 127.553 28.2369 127.665 28.2836 127.805L31.2096 137.003H29.4176L27.2056 129.555C27.1682 129.405 27.1309 129.256 27.0936 129.107C27.0562 128.957 27.0236 128.813 26.9956 128.673H26.6036C26.5756 128.813 26.5429 128.957 26.5056 129.107C26.4682 129.256 26.4262 129.405 26.3796 129.555L24.1816 137.003H22.3896L25.3156 127.805C25.3529 127.665 25.4276 127.553 25.5396 127.469C25.6609 127.385 25.7962 127.343 25.9456 127.343H27.6536ZM29.2776 132.873V134.245H24.3076V132.873H29.2776ZM36.7487 129.961C38.0273 129.961 38.6667 130.591 38.6667 131.851V137.003H36.9727V132.369C36.9727 131.995 36.9073 131.739 36.7767 131.599C36.646 131.459 36.4267 131.389 36.1187 131.389C35.7733 131.389 35.4187 131.468 35.0547 131.627C34.6907 131.776 34.252 131.995 33.7387 132.285L33.6687 131.263C34.1727 130.843 34.686 130.521 35.2087 130.297C35.7313 130.073 36.2447 129.961 36.7487 129.961ZM33.6127 130.129L33.7807 131.473L33.9207 131.669V137.003H32.2267V130.129H33.6127ZM43.9835 129.961C44.5341 129.961 44.9961 130.035 45.3695 130.185C45.7521 130.325 46.0415 130.567 46.2375 130.913C46.4335 131.258 46.5315 131.734 46.5315 132.341V137.003H45.1875L44.9495 135.519L44.8235 135.323V132.327C44.8235 131.963 44.7395 131.701 44.5715 131.543C44.4035 131.375 44.0815 131.291 43.6055 131.291C43.2508 131.291 42.8028 131.305 42.2615 131.333C41.7295 131.361 41.1928 131.398 40.6515 131.445L40.4975 130.283C40.8241 130.217 41.1928 130.161 41.6035 130.115C42.0141 130.068 42.4295 130.031 42.8495 130.003C43.2695 129.975 43.6475 129.961 43.9835 129.961ZM45.8035 132.775L45.7895 133.825H42.6395C42.3595 133.834 42.1588 133.909 42.0375 134.049C41.9161 134.189 41.8555 134.38 41.8555 134.623V135.001C41.8555 135.281 41.9301 135.495 42.0795 135.645C42.2288 135.785 42.4621 135.855 42.7795 135.855C43.0315 135.855 43.3115 135.803 43.6195 135.701C43.9275 135.598 44.2308 135.449 44.5295 135.253C44.8375 135.057 45.1128 134.823 45.3555 134.553V135.435C45.2621 135.575 45.1268 135.743 44.9495 135.939C44.7721 136.125 44.5528 136.312 44.2915 136.499C44.0395 136.685 43.7455 136.839 43.4095 136.961C43.0828 137.082 42.7188 137.143 42.3175 137.143C41.9068 137.143 41.5381 137.073 41.2115 136.933C40.8848 136.783 40.6281 136.569 40.4415 136.289C40.2548 135.999 40.1615 135.645 40.1615 135.225V134.497C40.1615 133.955 40.3388 133.535 40.6935 133.237C41.0575 132.929 41.5521 132.775 42.1775 132.775H45.8035ZM50.0811 127.203L50.0671 134.931C50.0671 135.192 50.1418 135.393 50.2911 135.533C50.4405 135.663 50.6551 135.729 50.9351 135.729H51.5371L51.7331 136.919C51.6305 136.965 51.4858 137.007 51.2991 137.045C51.1218 137.082 50.9351 137.105 50.7391 137.115C50.5525 137.133 50.3891 137.143 50.2491 137.143C49.6798 137.143 49.2271 136.989 48.8911 136.681C48.5551 136.373 48.3871 135.929 48.3871 135.351V127.203H50.0811ZM59.0134 130.129L56.4374 137.213C56.316 137.539 56.162 137.861 55.9754 138.179C55.798 138.505 55.5694 138.799 55.2894 139.061C55.0094 139.322 54.678 139.527 54.2954 139.677C53.9127 139.826 53.4694 139.882 52.9654 139.845L52.8254 138.837C53.3854 138.678 53.8194 138.463 54.1274 138.193C54.4447 137.922 54.692 137.577 54.8694 137.157L55.2474 136.261C55.3314 136.055 55.4107 135.822 55.4854 135.561C55.5694 135.29 55.6394 135.057 55.6954 134.861L57.1934 130.129H59.0134ZM53.4694 130.129L54.9954 134.861C55.042 135.019 55.084 135.183 55.1214 135.351C55.1587 135.509 55.1914 135.668 55.2194 135.827H55.5694L55.0374 137.003H54.5894C54.4587 137.003 54.342 136.965 54.2394 136.891C54.1367 136.816 54.0667 136.713 54.0294 136.583L51.6634 130.129H53.4694ZM62.5953 129.961C62.9126 129.961 63.2533 129.97 63.6173 129.989C63.9906 130.007 64.3546 130.035 64.7093 130.073C65.0639 130.101 65.3813 130.143 65.6613 130.199L65.5493 131.305C65.1013 131.295 64.6533 131.286 64.2053 131.277C63.7666 131.258 63.3326 131.249 62.9033 131.249C62.5206 131.249 62.2173 131.258 61.9933 131.277C61.7786 131.295 61.6246 131.351 61.5313 131.445C61.4473 131.538 61.4053 131.697 61.4053 131.921C61.4053 132.191 61.4799 132.373 61.6293 132.467C61.7786 132.551 62.0213 132.635 62.3573 132.719L64.2333 133.153C64.7933 133.293 65.2086 133.507 65.4793 133.797C65.7499 134.077 65.8853 134.511 65.8853 135.099C65.8853 135.668 65.7779 136.102 65.5633 136.401C65.3579 136.69 65.0266 136.891 64.5693 137.003C64.1213 137.105 63.5473 137.157 62.8473 137.157C62.5766 137.157 62.1753 137.143 61.6433 137.115C61.1113 137.096 60.5279 137.035 59.8933 136.933L60.0053 135.827C60.1919 135.827 60.4113 135.831 60.6633 135.841C60.9246 135.85 61.1999 135.855 61.4893 135.855C61.7879 135.855 62.0913 135.855 62.3993 135.855C62.8939 135.855 63.2719 135.841 63.5333 135.813C63.8039 135.775 63.9906 135.705 64.0933 135.603C64.1959 135.491 64.2473 135.332 64.2473 135.127C64.2473 134.865 64.1586 134.693 63.9813 134.609C63.8133 134.515 63.5613 134.427 63.2253 134.343L61.3913 133.895C60.9713 133.783 60.6446 133.643 60.4113 133.475C60.1779 133.297 60.0099 133.083 59.9073 132.831C59.8046 132.569 59.7533 132.252 59.7533 131.879C59.7533 131.375 59.8466 130.983 60.0333 130.703C60.2293 130.423 60.5326 130.227 60.9433 130.115C61.3633 130.003 61.9139 129.951 62.5953 129.961ZM69.1541 130.129V137.003H67.4741V130.129H69.1541ZM68.6921 127.147C69.0281 127.147 69.1961 127.315 69.1961 127.651V128.435C69.1961 128.771 69.0281 128.939 68.6921 128.939H67.9361C67.6001 128.939 67.4321 128.771 67.4321 128.435V127.651C67.4321 127.315 67.6001 127.147 67.9361 127.147H68.6921ZM73.5875 129.961C73.9048 129.961 74.2455 129.97 74.6095 129.989C74.9828 130.007 75.3468 130.035 75.7015 130.073C76.0561 130.101 76.3735 130.143 76.6535 130.199L76.5415 131.305C76.0935 131.295 75.6455 131.286 75.1975 131.277C74.7588 131.258 74.3248 131.249 73.8955 131.249C73.5128 131.249 73.2095 131.258 72.9855 131.277C72.7708 131.295 72.6168 131.351 72.5235 131.445C72.4395 131.538 72.3975 131.697 72.3975 131.921C72.3975 132.191 72.4721 132.373 72.6215 132.467C72.7708 132.551 73.0135 132.635 73.3495 132.719L75.2255 133.153C75.7855 133.293 76.2008 133.507 76.4715 133.797C76.7421 134.077 76.8775 134.511 76.8775 135.099C76.8775 135.668 76.7701 136.102 76.5555 136.401C76.3501 136.69 76.0188 136.891 75.5615 137.003C75.1135 137.105 74.5395 137.157 73.8395 137.157C73.5688 137.157 73.1675 137.143 72.6355 137.115C72.1035 137.096 71.5201 137.035 70.8855 136.933L70.9975 135.827C71.1841 135.827 71.4035 135.831 71.6555 135.841C71.9168 135.85 72.1921 135.855 72.4815 135.855C72.7801 135.855 73.0835 135.855 73.3915 135.855C73.8861 135.855 74.2641 135.841 74.5255 135.813C74.7961 135.775 74.9828 135.705 75.0855 135.603C75.1881 135.491 75.2395 135.332 75.2395 135.127C75.2395 134.865 75.1508 134.693 74.9735 134.609C74.8055 134.515 74.5535 134.427 74.2175 134.343L72.3835 133.895C71.9635 133.783 71.6368 133.643 71.4035 133.475C71.1701 133.297 71.0021 133.083 70.8995 132.831C70.7968 132.569 70.7455 132.252 70.7455 131.879C70.7455 131.375 70.8388 130.983 71.0255 130.703C71.2215 130.423 71.5248 130.227 71.9355 130.115C72.3555 130.003 72.9061 129.951 73.5875 129.961Z" fill="#333839"/>
<path d="M90.3996 53.6044L53.7441 90.2499" stroke="white" stroke-width="6.29" stroke-miterlimit="10"/>
<path d="M90.3996 53.6044L53.7441 90.2499" stroke="#6965D0" stroke-width="3.42" stroke-miterlimit="10"/>
<path d="M8.6601 52.6618L6 50.0017L45.9905 10.0013" stroke="white" stroke-width="6.29" stroke-miterlimit="10"/>
<path d="M8.6601 52.6618L6 50.0017L45.9905 10.0013" stroke="#6965D0" stroke-width="3.42" stroke-miterlimit="10"/>
<path d="M68.6358 87.9313H31.3153L12 68.6358V31.3153L31.3153 12H68.6358L87.9512 31.3153V68.6358L68.6358 87.9313Z" fill="#6965D0"/>
<path d="M53.742 90.2507L50.0001 94.0026L8.65967 52.6622" stroke="white" stroke-width="6.29" stroke-miterlimit="10"/>
<path d="M53.742 90.2507L50.0001 94.0026L8.65967 52.6622" stroke="#6965D0" stroke-width="3.42" stroke-miterlimit="10"/>
<path d="M45.9897 10L49.9997 6L94.0002 50.0004L90.3972 53.6034" stroke="white" stroke-width="6.29" stroke-miterlimit="10"/>
<path d="M45.9897 10L49.9997 6L94.0002 50.0004L90.3972 53.6034" stroke="#6965D0" stroke-width="3.42" stroke-miterlimit="10"/>
<path d="M55.5901 46.1916C55.4003 45.7782 55.2453 45.3636 55.0299 44.9833C53.7848 42.7845 51.8911 41.5196 49.3892 41.2214C45.7313 40.7856 42.366 43.1001 41.421 46.656C40.3578 50.6576 42.8528 54.7649 46.9297 55.7168C50.1587 56.4707 53.5283 54.9 55.1077 51.8976C55.1861 51.7495 55.2708 51.6791 55.4395 51.6691C55.8153 51.6438 56.1692 51.483 56.4355 51.2166C56.7766 50.8891 57.0935 50.5362 57.4203 50.1931C57.5551 50.0456 57.6981 49.9057 57.8486 49.7742C57.7348 50.8988 57.394 51.9886 56.847 52.9777C55.3996 55.5829 53.2239 57.2245 50.295 57.8284C45.9641 58.7223 41.4553 56.3231 39.7477 52.2207C37.488 46.801 40.5862 41.0041 45.8726 39.3862C50.4363 37.9899 55.2428 40.5067 57.0985 44.4392C57.129 44.5014 57.1502 44.6228 57.1159 44.6583C56.6129 45.1756 56.1 45.6824 55.5901 46.1916Z" fill="white"/>
<path d="M54.0376 57.9249C55.6518 56.9357 56.9771 55.6645 57.9507 54.0186C58.013 54.0746 58.0672 54.1175 58.1145 54.1648C59.1248 55.1746 60.1383 56.1812 61.143 57.1959C62.3096 58.3743 62.2803 60.1747 61.0851 61.261C60.0349 62.2153 58.3317 62.1947 57.271 61.1744C56.1977 60.141 55.1588 59.0716 54.1055 58.0176C54.0808 57.9883 54.0581 57.9573 54.0376 57.9249Z" fill="white"/>
<path d="M48.4319 45.7555C49.1025 45.7555 49.7731 45.7578 50.4437 45.7555C50.4968 45.7531 50.5497 45.7626 50.5987 45.7833C50.6476 45.804 50.6913 45.8355 50.7265 45.8753C51.1878 46.3622 51.6532 46.845 52.1164 47.3296C52.2787 47.4993 52.2798 47.5847 52.1194 47.7514C50.9552 48.959 49.7908 50.1655 48.6264 51.3709C48.4752 51.5276 48.3676 51.5284 48.2197 51.3742C47.0518 50.1649 45.8844 48.9552 44.7175 47.7451C44.5666 47.5887 44.5659 47.4974 44.713 47.3433C45.1855 46.8487 45.6568 46.3526 46.1359 45.8646C46.2024 45.8024 46.2889 45.7661 46.3799 45.7622C47.0638 45.7522 47.7477 45.7555 48.4319 45.7555ZM46.8486 47.7599L48.4212 50.8042C48.9521 49.7761 49.4681 48.7761 49.993 47.7599H46.8486ZM46.9451 46.1851C46.7943 46.1851 46.6693 46.191 46.5451 46.1829C46.5034 46.1791 46.4613 46.1856 46.4226 46.2018C46.3839 46.218 46.3498 46.2435 46.3233 46.276C46.0276 46.5914 45.7248 46.9023 45.4254 47.215C45.3991 47.2424 45.377 47.273 45.3363 47.3222C45.6771 47.3222 45.9925 47.3222 46.3082 47.32C46.3246 47.3176 46.3402 47.3115 46.354 47.3022C46.3678 47.2929 46.3793 47.2807 46.3876 47.2664C46.5725 46.9156 46.7518 46.5625 46.9451 46.1862V46.1851ZM49.8966 46.1851C50.0903 46.5629 50.2692 46.9167 50.4548 47.2664C50.4714 47.2974 50.5328 47.3196 50.5734 47.3204C50.8459 47.3252 51.1183 47.3233 51.3908 47.3204C51.4289 47.3176 51.4667 47.3126 51.5043 47.3056C51.1486 46.9359 50.8093 46.5806 50.4692 46.228C50.4448 46.2036 50.4126 46.1886 50.3782 46.1855C50.2256 46.1829 50.074 46.1862 49.8966 46.1862V46.1851Z" fill="white"/>
<path d="M48.6359 42.7113C48.6359 42.8628 48.6381 43.0144 48.6359 43.166C48.6337 43.3175 48.5494 43.4022 48.4197 43.4011C48.2899 43.4 48.2089 43.3109 48.2082 43.1615C48.206 42.854 48.206 42.5459 48.2082 42.2373C48.2082 42.0895 48.298 41.9985 48.4241 42C48.5502 42.0015 48.6337 42.0943 48.6359 42.2418C48.6378 42.4 48.6359 42.556 48.6359 42.7113Z" fill="white"/>
<path d="M48.2075 54.142C48.2075 53.9904 48.2053 53.8385 48.2075 53.6869C48.2097 53.5353 48.294 53.4507 48.423 53.4514C48.5521 53.4522 48.6341 53.5405 48.6352 53.6906C48.6375 53.9984 48.6375 54.3065 48.6352 54.6148C48.6352 54.7601 48.5447 54.8543 48.4194 54.8532C48.294 54.8521 48.2097 54.7575 48.2072 54.6111C48.2075 54.4543 48.2075 54.298 48.2075 54.142Z" fill="white"/>
<path d="M42.7014 48.6399C42.5454 48.6399 42.3894 48.6429 42.2334 48.6399C42.0889 48.6363 42.0046 48.559 42.0002 48.4359C41.9957 48.3065 42.0808 48.2167 42.2297 48.2141C42.5417 48.2094 42.8536 48.2094 43.1654 48.2141C43.311 48.2159 43.4045 48.3098 43.4016 48.4322C43.3986 48.5546 43.3051 48.637 43.1558 48.6403C43.0064 48.6436 42.853 48.6399 42.7014 48.6399Z" fill="white"/>
<path d="M54.1407 48.6397C53.9847 48.6397 53.8287 48.6434 53.6731 48.6397C53.5337 48.636 53.4439 48.551 53.4409 48.432C53.4405 48.4029 53.4459 48.3741 53.457 48.3472C53.468 48.3204 53.4844 48.296 53.5052 48.2757C53.5259 48.2554 53.5506 48.2396 53.5777 48.2291C53.6048 48.2187 53.6337 48.2138 53.6627 48.215C53.9833 48.2098 54.3045 48.2094 54.6239 48.215C54.764 48.2175 54.8457 48.3107 54.8398 48.4368C54.8339 48.5628 54.7548 48.6353 54.618 48.6397C54.462 48.6438 54.3012 48.6397 54.1407 48.6397Z" fill="white"/>
<path d="M44.0039 53.0493C43.9536 53.009 43.8716 52.9754 43.849 52.917C43.8242 52.8534 43.8242 52.7406 43.8645 52.6952C44.1004 52.4404 44.3473 52.195 44.6002 51.9558C44.6793 51.8819 44.785 51.8967 44.8667 51.975C44.9484 52.0534 44.9695 52.1662 44.8885 52.2512C44.6494 52.5033 44.4002 52.7465 44.1514 52.9905C44.1229 53.0194 44.0716 53.0253 44.0039 53.0493Z" fill="white"/>
<path d="M44.0127 43.7953C44.0866 43.8371 44.1498 43.8567 44.1916 43.8969C44.4156 44.1143 44.6352 44.3354 44.8548 44.5579C44.9579 44.6629 44.9594 44.7886 44.8681 44.8773C44.7768 44.966 44.6544 44.9583 44.5483 44.8537C44.3291 44.6381 44.1129 44.4193 43.8951 44.2019C43.8212 44.128 43.7842 44.0393 43.8397 43.9491C43.8774 43.8881 43.9502 43.8489 44.0127 43.7953Z" fill="white"/>
<path d="M53.0549 44.0224C53.0083 44.0985 52.9832 44.1621 52.9392 44.2072C52.7281 44.425 52.513 44.6386 52.2967 44.8512C52.1858 44.9621 52.0572 44.9654 51.9674 44.8708C51.8775 44.7761 51.8871 44.6597 51.9936 44.5518C52.2095 44.3325 52.4283 44.1163 52.6457 43.8985C52.7196 43.8246 52.8098 43.791 52.8989 43.846C52.9599 43.8838 52.9991 43.9573 53.0549 44.0224Z" fill="white"/>
<path d="M53.0432 52.8403C53.0025 52.8928 52.9693 52.9752 52.9116 52.9993C52.8539 53.0233 52.7349 53.027 52.692 52.9874C52.4369 52.7516 52.1915 52.5047 51.9527 52.2518C51.8721 52.1668 51.8924 52.0577 51.9782 51.976C52.0639 51.8943 52.166 51.8854 52.2451 51.9609C52.4972 52.2 52.7404 52.4488 52.9844 52.6976C53.0125 52.7253 53.0177 52.776 53.0432 52.8403Z" fill="white"/>
</g>
</svg>
