<svg width="98" height="150" viewBox="0 0 98 150" fill="none" xmlns="http://www.w3.org/2000/svg">
<g opacity="0.35">
<path d="M22.6575 108.34V115.76C22.6575 116.031 22.7275 116.236 22.8675 116.376C23.0169 116.507 23.2269 116.572 23.4975 116.572H26.9135L26.9975 117.902C26.3629 117.958 25.7002 117.991 25.0095 118C24.3282 118.019 23.6515 118.028 22.9795 118.028C22.2702 118.028 21.7475 117.846 21.4115 117.482C21.0849 117.118 20.9215 116.656 20.9215 116.096V108.34H22.6575ZM31.147 110.958C31.987 110.958 32.6543 111.075 33.149 111.308C33.653 111.541 34.0123 111.924 34.227 112.456C34.451 112.988 34.563 113.693 34.563 114.57C34.563 115.447 34.451 116.152 34.227 116.684C34.0123 117.207 33.653 117.589 33.149 117.832C32.6543 118.065 31.987 118.182 31.147 118.182C30.3257 118.182 29.663 118.065 29.159 117.832C28.6643 117.589 28.305 117.207 28.081 116.684C27.857 116.152 27.745 115.447 27.745 114.57C27.745 113.693 27.857 112.988 28.081 112.456C28.305 111.924 28.6643 111.541 29.159 111.308C29.663 111.075 30.3257 110.958 31.147 110.958ZM31.147 112.246C30.7363 112.246 30.4097 112.316 30.167 112.456C29.9337 112.587 29.7657 112.82 29.663 113.156C29.5603 113.492 29.509 113.963 29.509 114.57C29.509 115.177 29.5603 115.648 29.663 115.984C29.7657 116.32 29.9337 116.553 30.167 116.684C30.4097 116.815 30.7363 116.88 31.147 116.88C31.567 116.88 31.8983 116.815 32.141 116.684C32.3837 116.553 32.5517 116.32 32.645 115.984C32.7477 115.648 32.799 115.177 32.799 114.57C32.799 113.963 32.7477 113.492 32.645 113.156C32.5517 112.82 32.3837 112.587 32.141 112.456C31.8983 112.316 31.567 112.246 31.147 112.246ZM38.2607 109.166V115.928C38.2607 116.217 38.3214 116.423 38.4427 116.544C38.5734 116.665 38.7927 116.726 39.1007 116.726H40.0527L40.2347 117.916C40.0761 117.963 39.8847 118.005 39.6607 118.042C39.4367 118.079 39.2174 118.103 39.0027 118.112C38.7881 118.131 38.6061 118.14 38.4567 118.14C37.8594 118.14 37.3927 117.981 37.0567 117.664C36.7301 117.337 36.5667 116.871 36.5667 116.264V109.166H38.2607ZM40.3047 111.126V112.302H35.3487V111.196L36.6927 111.126H40.3047ZM48.4977 113.87V115.018H44.2837V113.87H48.4977ZM56.8901 108.214C57.6181 108.214 58.2341 108.298 58.7381 108.466C59.2515 108.625 59.6622 108.895 59.9702 109.278C60.2875 109.651 60.5161 110.16 60.6561 110.804C60.7962 111.439 60.8662 112.227 60.8662 113.17C60.8662 114.113 60.7962 114.906 60.6561 115.55C60.5161 116.185 60.2875 116.693 59.9702 117.076C59.6622 117.449 59.2515 117.72 58.7381 117.888C58.2341 118.047 57.6181 118.126 56.8901 118.126C56.1901 118.126 55.5415 118.112 54.9441 118.084C54.3468 118.065 53.7821 118.037 53.2501 118L53.9781 116.656C54.3515 116.675 54.7808 116.693 55.2661 116.712C55.7515 116.721 56.2928 116.726 56.8901 116.726C57.4315 116.726 57.8561 116.623 58.1642 116.418C58.4815 116.203 58.7055 115.839 58.8361 115.326C58.9668 114.803 59.0321 114.085 59.0321 113.17C59.0321 112.255 58.9668 111.541 58.8361 111.028C58.7055 110.505 58.4815 110.137 58.1642 109.922C57.8561 109.707 57.4315 109.6 56.8901 109.6C56.3115 109.6 55.7935 109.605 55.3361 109.614C54.8881 109.623 54.4495 109.628 54.0201 109.628L53.2501 108.34C53.7821 108.303 54.3421 108.275 54.9301 108.256C55.5275 108.228 56.1808 108.214 56.8901 108.214ZM55.0001 108.34V118H53.2501V108.34H55.0001ZM66.0994 108.214C66.9487 108.214 67.6161 108.307 68.1014 108.494C68.5867 108.671 68.9321 108.984 69.1374 109.432C69.3521 109.871 69.4594 110.496 69.4594 111.308C69.4594 112.12 69.3567 112.75 69.1514 113.198C68.9554 113.646 68.6241 113.959 68.1574 114.136C67.7001 114.313 67.0887 114.402 66.3234 114.402C65.9034 114.402 65.4974 114.388 65.1054 114.36C64.7227 114.332 64.3634 114.295 64.0274 114.248C63.7007 114.201 63.4207 114.155 63.1874 114.108C62.9541 114.052 62.7907 114.005 62.6974 113.968L62.7394 113.03C63.2714 113.03 63.8174 113.03 64.3774 113.03C64.9467 113.03 65.5114 113.03 66.0714 113.03C66.4821 113.021 66.8041 112.969 67.0374 112.876C67.2801 112.783 67.4481 112.615 67.5414 112.372C67.6441 112.12 67.6954 111.765 67.6954 111.308C67.6954 110.851 67.6441 110.501 67.5414 110.258C67.4481 110.006 67.2801 109.833 67.0374 109.74C66.8041 109.637 66.4821 109.586 66.0714 109.586C65.2501 109.586 64.5454 109.591 63.9574 109.6C63.3694 109.609 62.9681 109.623 62.7534 109.642L62.5574 108.34C62.9307 108.303 63.2807 108.275 63.6074 108.256C63.9434 108.237 64.3027 108.228 64.6854 108.228C65.0774 108.219 65.5487 108.214 66.0994 108.214ZM64.3074 108.34V118H62.5574V108.34H64.3074ZM74.8557 108.34V118H73.1057V108.34H74.8557ZM77.8517 108.34V109.768H70.1097V108.34H77.8517ZM26.8441 126.34V136H25.0941V126.34H26.8441ZM29.8401 126.34V127.768H22.0981V126.34H29.8401ZM31.0828 129.126L31.3068 130.47L31.4608 130.666V136H29.7668V129.126H31.0828ZM34.4428 128.958L34.2748 130.526H33.7848C33.4208 130.526 33.0522 130.587 32.6788 130.708C32.3055 130.829 31.8388 131.011 31.2788 131.254L31.1668 130.26C31.6522 129.849 32.1468 129.532 32.6508 129.308C33.1548 129.075 33.6402 128.958 34.1068 128.958H34.4428ZM38.8817 128.958C39.4324 128.958 39.8944 129.033 40.2677 129.182C40.6504 129.322 40.9397 129.565 41.1357 129.91C41.3317 130.255 41.4297 130.731 41.4297 131.338V136H40.0857L39.8477 134.516L39.7217 134.32V131.324C39.7217 130.96 39.6377 130.699 39.4697 130.54C39.3017 130.372 38.9797 130.288 38.5037 130.288C38.1491 130.288 37.7011 130.302 37.1597 130.33C36.6277 130.358 36.0911 130.395 35.5497 130.442L35.3957 129.28C35.7224 129.215 36.0911 129.159 36.5017 129.112C36.9124 129.065 37.3277 129.028 37.7477 129C38.1677 128.972 38.5457 128.958 38.8817 128.958ZM40.7017 131.772L40.6877 132.822H37.5377C37.2577 132.831 37.0571 132.906 36.9357 133.046C36.8144 133.186 36.7537 133.377 36.7537 133.62V133.998C36.7537 134.278 36.8284 134.493 36.9777 134.642C37.1271 134.782 37.3604 134.852 37.6777 134.852C37.9297 134.852 38.2097 134.801 38.5177 134.698C38.8257 134.595 39.1291 134.446 39.4277 134.25C39.7357 134.054 40.0111 133.821 40.2537 133.55V134.432C40.1604 134.572 40.0251 134.74 39.8477 134.936C39.6704 135.123 39.4511 135.309 39.1897 135.496C38.9377 135.683 38.6437 135.837 38.3077 135.958C37.9811 136.079 37.6171 136.14 37.2157 136.14C36.8051 136.14 36.4364 136.07 36.1097 135.93C35.7831 135.781 35.5264 135.566 35.3397 135.286C35.1531 134.997 35.0597 134.642 35.0597 134.222V133.494C35.0597 132.953 35.2371 132.533 35.5917 132.234C35.9557 131.926 36.4504 131.772 37.0757 131.772H40.7017ZM47.6534 128.958C48.932 128.958 49.5714 129.588 49.5714 130.848V136H47.8774V131.366C47.8774 130.993 47.812 130.736 47.6814 130.596C47.5507 130.456 47.3314 130.386 47.0234 130.386C46.678 130.386 46.3234 130.465 45.9594 130.624C45.5954 130.773 45.1567 130.993 44.6434 131.282L44.5734 130.26C45.0774 129.84 45.5907 129.518 46.1134 129.294C46.636 129.07 47.1494 128.958 47.6534 128.958ZM44.5174 129.126L44.6854 130.47L44.8254 130.666V136H43.1314V129.126H44.5174ZM53.7682 128.958C54.0855 128.958 54.4262 128.967 54.7902 128.986C55.1635 129.005 55.5275 129.033 55.8822 129.07C56.2369 129.098 56.5542 129.14 56.8342 129.196L56.7222 130.302C56.2742 130.293 55.8262 130.283 55.3782 130.274C54.9395 130.255 54.5055 130.246 54.0762 130.246C53.6935 130.246 53.3902 130.255 53.1662 130.274C52.9515 130.293 52.7975 130.349 52.7042 130.442C52.6202 130.535 52.5782 130.694 52.5782 130.918C52.5782 131.189 52.6529 131.371 52.8022 131.464C52.9515 131.548 53.1942 131.632 53.5302 131.716L55.4062 132.15C55.9662 132.29 56.3815 132.505 56.6522 132.794C56.9229 133.074 57.0582 133.508 57.0582 134.096C57.0582 134.665 56.9509 135.099 56.7362 135.398C56.5309 135.687 56.1995 135.888 55.7422 136C55.2942 136.103 54.7202 136.154 54.0202 136.154C53.7495 136.154 53.3482 136.14 52.8162 136.112C52.2842 136.093 51.7009 136.033 51.0662 135.93L51.1782 134.824C51.3649 134.824 51.5842 134.829 51.8362 134.838C52.0975 134.847 52.3729 134.852 52.6622 134.852C52.9609 134.852 53.2642 134.852 53.5722 134.852C54.0669 134.852 54.4449 134.838 54.7062 134.81C54.9769 134.773 55.1635 134.703 55.2662 134.6C55.3689 134.488 55.4202 134.329 55.4202 134.124C55.4202 133.863 55.3315 133.69 55.1542 133.606C54.9862 133.513 54.7342 133.424 54.3982 133.34L52.5642 132.892C52.1442 132.78 51.8175 132.64 51.5842 132.472C51.3509 132.295 51.1829 132.08 51.0802 131.828C50.9775 131.567 50.9262 131.249 50.9262 130.876C50.9262 130.372 51.0195 129.98 51.2062 129.7C51.4022 129.42 51.7055 129.224 52.1162 129.112C52.5362 129 53.0869 128.949 53.7682 128.958ZM61.181 125.934C61.3397 125.934 61.545 125.939 61.797 125.948C62.0583 125.957 62.3243 125.971 62.595 125.99C62.8657 125.999 63.0943 126.023 63.281 126.06L63.141 127.194H61.783C61.391 127.194 61.1157 127.273 60.957 127.432C60.7983 127.591 60.719 127.857 60.719 128.23V136H59.025V128.02C59.025 127.581 59.095 127.208 59.235 126.9C59.375 126.592 59.6037 126.354 59.921 126.186C60.2383 126.018 60.6583 125.934 61.181 125.934ZM62.763 129.126V130.302H57.807V129.196L59.081 129.126H62.763ZM66.791 128.958C67.9017 128.958 68.6997 129.154 69.185 129.546C69.6704 129.929 69.9177 130.498 69.927 131.254C69.9364 131.879 69.787 132.355 69.479 132.682C69.1804 132.999 68.681 133.158 67.981 133.158H64.061V132.108H67.519C67.8364 132.108 68.037 132.024 68.121 131.856C68.2144 131.688 68.261 131.483 68.261 131.24C68.2517 130.857 68.1397 130.591 67.925 130.442C67.7197 130.293 67.365 130.218 66.861 130.218C66.4224 130.218 66.0817 130.279 65.839 130.4C65.5964 130.521 65.4237 130.741 65.321 131.058C65.2277 131.375 65.181 131.833 65.181 132.43C65.181 133.065 65.2417 133.555 65.363 133.9C65.4844 134.245 65.685 134.483 65.965 134.614C66.245 134.735 66.6184 134.796 67.085 134.796C67.4304 134.796 67.827 134.782 68.275 134.754C68.7324 134.726 69.171 134.689 69.591 134.642L69.759 135.72C69.507 135.823 69.2177 135.907 68.891 135.972C68.5644 136.037 68.2237 136.084 67.869 136.112C67.5237 136.149 67.197 136.168 66.889 136.168C66.049 136.168 65.3724 136.047 64.859 135.804C64.355 135.552 63.9864 135.16 63.753 134.628C63.529 134.096 63.417 133.41 63.417 132.57C63.417 131.665 63.529 130.951 63.753 130.428C63.9864 129.896 64.3504 129.518 64.845 129.294C65.349 129.07 65.9977 128.958 66.791 128.958ZM72.6257 129.126L72.8497 130.47L73.0037 130.666V136H71.3097V129.126H72.6257ZM75.9857 128.958L75.8177 130.526H75.3277C74.9637 130.526 74.595 130.587 74.2217 130.708C73.8483 130.829 73.3817 131.011 72.8217 131.254L72.7097 130.26C73.195 129.849 73.6897 129.532 74.1937 129.308C74.6977 129.075 75.183 128.958 75.6497 128.958H75.9857Z" fill="#333839"/>
<path d="M89.3995 52.6044L52.744 89.2499" stroke="white" stroke-width="6.29" stroke-miterlimit="10"/>
<path d="M89.3995 52.6044L52.744 89.2499" stroke="#9B7ECD" stroke-width="3.42" stroke-miterlimit="10"/>
<path d="M7.6601 51.6618L5 49.0017L44.9905 9.00134" stroke="white" stroke-width="6.29" stroke-miterlimit="10"/>
<path d="M7.6601 51.6618L5 49.0017L44.9905 9.00134" stroke="#9B7ECD" stroke-width="3.42" stroke-miterlimit="10"/>
<path d="M67.6359 86.9313H30.3154L11 67.6358V30.3153L30.3154 11H67.6359L86.9512 30.3153V67.6358L67.6359 86.9313Z" fill="#9B7ECD"/>
<path d="M52.7421 89.2507L49.0001 93.0026L7.65977 51.6622" stroke="white" stroke-width="6.29" stroke-miterlimit="10"/>
<path d="M52.7421 89.2507L49.0001 93.0026L7.65977 51.6622" stroke="#9B7ECD" stroke-width="3.42" stroke-miterlimit="10"/>
<path d="M44.9896 9.00004L48.9995 5L93 49.0004L89.397 52.6034" stroke="white" stroke-width="6.29" stroke-miterlimit="10"/>
<path d="M44.9896 9.00004L48.9995 5L93 49.0004L89.397 52.6034" stroke="#9B7ECD" stroke-width="3.42" stroke-miterlimit="10"/>
<g clip-path="url(#clip0_393_7153)">
<path d="M49 37.75V45.25H42.75V47.75H45.25V50.25H37.75V47.75H40.25V45.25H34V37.75C34 36.7554 34.3951 35.8016 35.0983 35.0983C35.8016 34.3951 36.7554 34 37.75 34H45.25C46.2446 34 47.1984 34.3951 47.9017 35.0983C48.6049 35.8016 49 36.7554 49 37.75ZM56.5 41.5V45.25H59V41.5C59 40.5054 58.6049 39.5516 57.9017 38.8483C57.1984 38.1451 56.2446 37.75 55.25 37.75H51.5V40.25H55.25C55.5815 40.25 55.8995 40.3817 56.1339 40.6161C56.3683 40.8505 56.5 41.1685 56.5 41.5ZM42.75 56.5V52.75H40.25V56.5C40.25 57.4946 40.6451 58.4484 41.3483 59.1517C42.0516 59.8549 43.0054 60.25 44 60.25H49V57.75H44C43.6685 57.75 43.3505 57.6183 43.1161 57.3839C42.8817 57.1495 42.75 56.8315 42.75 56.5ZM64 51.5V64H51.5V51.5C51.5 50.5054 51.8951 49.5516 52.5983 48.8483C53.3016 48.1451 54.2554 47.75 55.25 47.75H60.25C61.2446 47.75 62.1984 48.1451 62.9017 48.8483C63.6049 49.5516 64 50.5054 64 51.5ZM59 59C59 58.7528 58.9267 58.5111 58.7893 58.3055C58.652 58.1 58.4568 57.9398 58.2284 57.8452C57.9999 57.7505 57.7486 57.7258 57.5061 57.774C57.2637 57.8222 57.0409 57.9413 56.8661 58.1161C56.6913 58.2909 56.5722 58.5137 56.524 58.7561C56.4758 58.9986 56.5005 59.2499 56.5952 59.4784C56.6898 59.7068 56.85 59.902 57.0555 60.0393C57.2611 60.1767 57.5028 60.25 57.75 60.25C58.0815 60.25 58.3995 60.1183 58.6339 59.8839C58.8683 59.6495 59 59.3315 59 59Z" fill="white"/>
</g>
</g>
<defs>
<clipPath id="clip0_393_7153">
<rect width="30" height="30" fill="white" transform="translate(34 34)"/>
</clipPath>
</defs>
</svg>
