<svg width="100" height="156" viewBox="0 0 100 156" fill="none" xmlns="http://www.w3.org/2000/svg">
<g opacity="0.3">
<rect width="100" height="156" rx="19" fill="#F9FBFF"/>
<path d="M41.3002 109.343C41.7389 109.343 41.9629 109.567 41.9722 110.015L42.3502 119.003H40.6842L40.3482 110.729H40.0822L38.2762 117.211C38.1922 117.593 37.9542 117.785 37.5622 117.785H36.3302C35.9289 117.785 35.6816 117.593 35.5882 117.211L33.7822 110.729H33.5162L33.2082 119.003H31.5422L31.9202 110.015C31.9389 109.567 32.1629 109.343 32.5922 109.343H34.3422C34.7156 109.343 34.9489 109.534 35.0422 109.917L36.5262 115.209C36.5916 115.433 36.6429 115.657 36.6802 115.881C36.7269 116.105 36.7782 116.329 36.8342 116.553H37.0442C37.1002 116.329 37.1516 116.105 37.1982 115.881C37.2449 115.657 37.2962 115.428 37.3522 115.195L38.8362 109.917C38.9202 109.534 39.1582 109.343 39.5502 109.343H41.3002ZM47.69 111.961C48.8007 111.961 49.5987 112.157 50.084 112.549C50.5694 112.931 50.8167 113.501 50.826 114.257C50.8354 114.882 50.686 115.358 50.378 115.685C50.0794 116.002 49.58 116.161 48.88 116.161H44.96V115.111H48.418C48.7354 115.111 48.936 115.027 49.02 114.859C49.1134 114.691 49.16 114.485 49.16 114.243C49.1507 113.86 49.0387 113.594 48.824 113.445C48.6187 113.295 48.264 113.221 47.76 113.221C47.3214 113.221 46.9807 113.281 46.738 113.403C46.4954 113.524 46.3227 113.743 46.22 114.061C46.1267 114.378 46.08 114.835 46.08 115.433C46.08 116.067 46.1407 116.557 46.262 116.903C46.3834 117.248 46.584 117.486 46.864 117.617C47.144 117.738 47.5174 117.799 47.984 117.799C48.3294 117.799 48.726 117.785 49.174 117.757C49.6314 117.729 50.07 117.691 50.49 117.645L50.658 118.723C50.406 118.825 50.1167 118.909 49.79 118.975C49.4634 119.04 49.1227 119.087 48.768 119.115C48.4227 119.152 48.096 119.171 47.788 119.171C46.948 119.171 46.2714 119.049 45.758 118.807C45.254 118.555 44.8854 118.163 44.652 117.631C44.428 117.099 44.316 116.413 44.316 115.573C44.316 114.667 44.428 113.953 44.652 113.431C44.8854 112.899 45.2494 112.521 45.744 112.297C46.248 112.073 46.8967 111.961 47.69 111.961ZM57.2906 111.961C58.5693 111.961 59.2086 112.591 59.2086 113.851V119.003H57.5146V114.369C57.5146 113.995 57.4493 113.739 57.3186 113.599C57.188 113.459 56.9686 113.389 56.6606 113.389C56.3153 113.389 55.9606 113.468 55.5966 113.627C55.2326 113.776 54.794 113.995 54.2806 114.285L54.2106 113.263C54.7146 112.843 55.228 112.521 55.7506 112.297C56.2733 112.073 56.7866 111.961 57.2906 111.961ZM54.1546 112.129L54.3226 113.473L54.4626 113.669V119.003H52.7686V112.129H54.1546ZM63.1395 112.129V116.777C63.1301 117.122 63.1955 117.369 63.3355 117.519C63.4848 117.668 63.7228 117.743 64.0495 117.743C64.3761 117.743 64.7028 117.673 65.0295 117.533C65.3561 117.393 65.7528 117.183 66.2195 116.903L66.3875 117.911C65.8648 118.331 65.3608 118.648 64.8755 118.863C64.3901 119.077 63.8861 119.185 63.3635 119.185C62.0848 119.185 61.4455 118.555 61.4455 117.295V112.129H63.1395ZM67.7455 112.129V119.003H66.4015L66.2195 117.673L66.0515 117.477V112.129H67.7455ZM32.6028 127.217C33.4055 127.217 34.0541 127.301 34.5488 127.469C35.0528 127.637 35.4168 127.926 35.6408 128.337C35.8741 128.738 35.9908 129.307 35.9908 130.045C35.9908 130.53 35.9301 130.945 35.8088 131.291C35.6968 131.627 35.5055 131.897 35.2348 132.103C34.9735 132.299 34.6188 132.425 34.1708 132.481V132.551C34.3295 132.588 34.4928 132.663 34.6608 132.775C34.8381 132.877 34.9968 133.027 35.1368 133.223C35.2861 133.419 35.3981 133.671 35.4728 133.979L36.3548 137.003H34.5068L33.7088 134.021C33.6061 133.685 33.4661 133.451 33.2888 133.321C33.1115 133.181 32.8688 133.111 32.5608 133.111C31.9541 133.111 31.4361 133.111 31.0068 133.111C30.5775 133.101 30.2181 133.092 29.9288 133.083C29.6488 133.073 29.4015 133.069 29.1868 133.069L29.2288 131.739H32.5608C32.9808 131.729 33.3121 131.683 33.5548 131.599C33.7975 131.505 33.9701 131.347 34.0728 131.123C34.1755 130.889 34.2268 130.563 34.2268 130.143C34.2268 129.732 34.1755 129.415 34.0728 129.191C33.9701 128.967 33.7975 128.813 33.5548 128.729C33.3121 128.635 32.9808 128.589 32.5608 128.589C31.7395 128.589 31.0348 128.593 30.4468 128.603C29.8588 128.612 29.4575 128.621 29.2428 128.631L29.0468 127.343C29.4201 127.305 29.7701 127.277 30.0968 127.259C30.4328 127.24 30.7968 127.231 31.1888 127.231C31.5808 127.221 32.0521 127.217 32.6028 127.217ZM30.7688 127.343V137.003H29.0468V127.343H30.7688ZM39.9635 130.129V137.003H38.2835V130.129H39.9635ZM39.5015 127.147C39.8375 127.147 40.0055 127.315 40.0055 127.651V128.435C40.0055 128.771 39.8375 128.939 39.5015 128.939H38.7455C38.4095 128.939 38.2415 128.771 38.2415 128.435V127.651C38.2415 127.315 38.4095 127.147 38.7455 127.147H39.5015ZM45.2509 129.961C46.0256 129.961 46.6369 130.035 47.0849 130.185C47.5423 130.325 47.8689 130.558 48.0649 130.885C48.2609 131.202 48.3589 131.622 48.3589 132.145C48.3589 132.649 48.2609 133.064 48.0649 133.391C47.8689 133.708 47.5423 133.941 47.0849 134.091C46.6276 134.24 46.0116 134.315 45.2369 134.315C44.4623 134.315 43.8463 134.24 43.3889 134.091C42.9409 133.941 42.6143 133.708 42.4089 133.391C42.2129 133.073 42.1149 132.658 42.1149 132.145C42.1149 131.622 42.2129 131.202 42.4089 130.885C42.6143 130.558 42.9456 130.325 43.4029 130.185C43.8603 130.035 44.4763 129.961 45.2509 129.961ZM45.2369 131.067C44.6489 131.067 44.2429 131.146 44.0189 131.305C43.7949 131.463 43.6829 131.743 43.6829 132.145C43.6829 132.527 43.7949 132.803 44.0189 132.971C44.2429 133.129 44.6489 133.209 45.2369 133.209C45.8249 133.209 46.2263 133.129 46.4409 132.971C46.6649 132.803 46.7769 132.527 46.7769 132.145C46.7769 131.743 46.6649 131.463 46.4409 131.305C46.2263 131.146 45.8249 131.067 45.2369 131.067ZM49.1569 130.129L49.0589 130.913L47.2669 131.109L46.7629 130.129H49.1569ZM43.2349 133.895L44.1029 134.021C43.9629 134.133 43.8649 134.277 43.8089 134.455C43.7623 134.623 43.7763 134.786 43.8509 134.945C43.9349 135.094 44.1123 135.187 44.3829 135.225L46.9309 135.561C47.6216 135.645 48.1069 135.85 48.3869 136.177C48.6669 136.494 48.8069 136.956 48.8069 137.563C48.8069 138.132 48.6949 138.575 48.4709 138.893C48.2469 139.21 47.8783 139.429 47.3649 139.551C46.8609 139.681 46.1796 139.747 45.3209 139.747C44.6396 139.747 44.0749 139.709 43.6269 139.635C43.1789 139.569 42.8196 139.453 42.5489 139.285C42.2876 139.126 42.1009 138.916 41.9889 138.655C41.8769 138.403 41.8209 138.085 41.8209 137.703C41.8209 137.404 41.8676 137.152 41.9609 136.947C42.0636 136.741 42.2269 136.559 42.4509 136.401C42.6749 136.233 42.9783 136.079 43.3609 135.939L44.3129 135.533L44.9709 135.771L44.3549 136.205C44.1403 136.363 43.9629 136.508 43.8229 136.639C43.6923 136.76 43.5943 136.881 43.5289 137.003C43.4729 137.133 43.4449 137.297 43.4449 137.493C43.4449 137.754 43.4963 137.955 43.5989 138.095C43.7109 138.235 43.9023 138.328 44.1729 138.375C44.4436 138.431 44.8216 138.459 45.3069 138.459C45.8016 138.459 46.1843 138.431 46.4549 138.375C46.7256 138.328 46.9123 138.235 47.0149 138.095C47.1269 137.964 47.1829 137.773 47.1829 137.521C47.1829 137.315 47.1503 137.161 47.0849 137.059C47.0196 136.965 46.9029 136.891 46.7349 136.835C46.5669 136.779 46.3336 136.732 46.0349 136.695L43.7389 136.415C43.4123 136.377 43.1509 136.284 42.9549 136.135C42.7683 135.976 42.6376 135.789 42.5629 135.575C42.4883 135.351 42.4649 135.131 42.4929 134.917C42.5303 134.693 42.6096 134.487 42.7309 134.301C42.8616 134.114 43.0296 133.979 43.2349 133.895ZM55.279 129.961C56.5576 129.961 57.197 130.591 57.197 131.851V137.003H55.489V132.369C55.489 131.995 55.4236 131.739 55.293 131.599C55.1716 131.459 54.957 131.389 54.649 131.389C54.3036 131.389 53.949 131.463 53.585 131.613C53.221 131.762 52.7823 131.986 52.269 132.285L52.143 131.305C52.6656 130.875 53.1883 130.544 53.711 130.311C54.243 130.077 54.7656 129.961 55.279 129.961ZM52.451 127.203L52.465 129.723C52.465 130.068 52.4463 130.395 52.409 130.703C52.381 131.001 52.339 131.258 52.283 131.473L52.451 131.669V137.003H50.757V127.203H52.451ZM61.7438 128.169V134.931C61.7438 135.22 61.8045 135.425 61.9258 135.547C62.0565 135.668 62.2758 135.729 62.5838 135.729H63.5358L63.7178 136.919C63.5591 136.965 63.3678 137.007 63.1438 137.045C62.9198 137.082 62.7005 137.105 62.4858 137.115C62.2711 137.133 62.0891 137.143 61.9398 137.143C61.3425 137.143 60.8758 136.984 60.5398 136.667C60.2131 136.34 60.0498 135.873 60.0498 135.267V128.169H61.7438ZM63.7878 130.129V131.305H58.8318V130.199L60.1758 130.129H63.7878ZM67.9382 129.961C68.2556 129.961 68.5962 129.97 68.9602 129.989C69.3336 130.007 69.6976 130.035 70.0522 130.073C70.4069 130.101 70.7242 130.143 71.0042 130.199L70.8922 131.305C70.4442 131.295 69.9962 131.286 69.5482 131.277C69.1096 131.258 68.6756 131.249 68.2462 131.249C67.8636 131.249 67.5602 131.258 67.3362 131.277C67.1216 131.295 66.9676 131.351 66.8742 131.445C66.7902 131.538 66.7482 131.697 66.7482 131.921C66.7482 132.191 66.8229 132.373 66.9722 132.467C67.1216 132.551 67.3642 132.635 67.7002 132.719L69.5762 133.153C70.1362 133.293 70.5516 133.507 70.8222 133.797C71.0929 134.077 71.2282 134.511 71.2282 135.099C71.2282 135.668 71.1209 136.102 70.9062 136.401C70.7009 136.69 70.3696 136.891 69.9122 137.003C69.4642 137.105 68.8902 137.157 68.1902 137.157C67.9196 137.157 67.5182 137.143 66.9862 137.115C66.4542 137.096 65.8709 137.035 65.2362 136.933L65.3482 135.827C65.5349 135.827 65.7542 135.831 66.0062 135.841C66.2676 135.85 66.5429 135.855 66.8322 135.855C67.1309 135.855 67.4342 135.855 67.7422 135.855C68.2369 135.855 68.6149 135.841 68.8762 135.813C69.1469 135.775 69.3336 135.705 69.4362 135.603C69.5389 135.491 69.5902 135.332 69.5902 135.127C69.5902 134.865 69.5016 134.693 69.3242 134.609C69.1562 134.515 68.9042 134.427 68.5682 134.343L66.7342 133.895C66.3142 133.783 65.9876 133.643 65.7542 133.475C65.5209 133.297 65.3529 133.083 65.2502 132.831C65.1476 132.569 65.0962 132.252 65.0962 131.879C65.0962 131.375 65.1896 130.983 65.3762 130.703C65.5722 130.423 65.8756 130.227 66.2862 130.115C66.7062 130.003 67.2569 129.951 67.9382 129.961Z" fill="#333839"/>
<path d="M90.3994 53.6044L53.7439 90.2499" stroke="white" stroke-width="6.29" stroke-miterlimit="10"/>
<path d="M90.3994 53.6044L53.7439 90.2499" stroke="#4DA7C4" stroke-width="3.42" stroke-miterlimit="10"/>
<path d="M8.6601 52.6618L6 50.0017L45.9905 10.0013" stroke="white" stroke-width="6.29" stroke-miterlimit="10"/>
<path d="M8.6601 52.6618L6 50.0017L45.9905 10.0013" stroke="#4DA7C4" stroke-width="3.42" stroke-miterlimit="10"/>
<path d="M68.6358 87.9313H31.3153L12 68.6358V31.3153L31.3153 12H68.6358L87.9512 31.3153V68.6358L68.6358 87.9313Z" fill="#4DA7C4"/>
<path d="M53.742 90.2507L50.0001 94.0026L8.65967 52.6622" stroke="white" stroke-width="6.29" stroke-miterlimit="10"/>
<path d="M53.742 90.2507L50.0001 94.0026L8.65967 52.6622" stroke="#4DA7C4" stroke-width="3.42" stroke-miterlimit="10"/>
<path d="M45.9895 10L49.9995 6L93.9999 50.0004L90.3969 53.6034" stroke="white" stroke-width="6.29" stroke-miterlimit="10"/>
<path d="M45.9895 10L49.9995 6L93.9999 50.0004L90.3969 53.6034" stroke="#4DA7C4" stroke-width="3.42" stroke-miterlimit="10"/>
<path d="M48.228 38H59.651C59.6712 38.0117 59.6914 38.032 59.7162 38.0346C60.8451 38.165 62.0079 39.2176 62.004 40.8257C61.9876 47.2768 61.9974 53.7278 61.9968 60.1782C61.9968 61.847 60.8451 62.9928 59.171 62.9935H48.245V51.2431H56.4366C56.3622 51.3246 56.3114 51.3833 56.2572 51.4388C55.9357 51.7616 55.609 52.0785 55.2927 52.4065C54.9875 52.7222 54.9869 53.1669 55.2777 53.4565C55.5686 53.7461 56.014 53.748 56.3277 53.4376C57.1324 52.6433 57.9322 51.844 58.7269 51.0397C59.053 50.7064 59.0478 50.2936 58.7269 49.9538C58.5593 49.7764 58.3832 49.6075 58.2104 49.4321C57.5891 48.8113 56.9674 48.1904 56.3453 47.5696C56.1346 47.3602 55.8888 47.2689 55.5894 47.3576C55.4626 47.391 55.3478 47.4595 55.2583 47.5552C55.1687 47.651 55.1081 47.7702 55.0834 47.8989C55.0182 48.1872 55.1245 48.4206 55.3286 48.6254C55.6951 48.988 56.0596 49.3532 56.4561 49.7478H48.228V38Z" fill="white"/>
<path d="M37 60.6517V40.3478C37.0163 40.295 37.0372 40.2428 37.0483 40.1893C37.2035 39.4374 37.5869 38.8276 38.2495 38.4396C38.5847 38.244 38.9773 38.1468 39.3432 38.0046H46.7633V62.9727C46.7376 62.9814 46.7112 62.9879 46.6844 62.9922C44.3092 62.9922 41.9335 63.0151 39.5584 62.9799C38.5371 62.9649 37.7715 62.4281 37.2993 61.5191C37.1585 61.2504 37.0978 60.9419 37 60.6517ZM41.897 42.3916C42.5145 42.3916 43.1315 42.3916 43.7491 42.3916C44.2375 42.3916 44.5714 42.0858 44.5655 41.6508C44.5597 41.2158 44.231 40.9289 43.7549 40.9282C42.5041 40.9282 41.2533 40.9282 40.0025 40.9282C39.5303 40.9282 39.1997 41.2321 39.1977 41.6567C39.1958 42.0812 39.5271 42.3897 39.9966 42.3916C40.6298 42.3968 41.267 42.3949 41.897 42.3949V42.3916ZM41.8539 45.3237C42.4956 45.3237 43.1367 45.3237 43.7784 45.3237C44.2349 45.3237 44.561 45.0172 44.561 44.5991C44.561 44.1811 44.2349 43.8616 43.7667 43.8609C42.5058 43.8609 41.247 43.8609 39.9901 43.8609C39.5212 43.8609 39.1899 44.1713 39.1932 44.5972C39.1964 45.023 39.5271 45.3224 39.9999 45.3237C40.622 45.3256 41.2389 45.3237 41.8539 45.3237ZM41.8813 48.2525C42.4989 48.2525 43.1158 48.2525 43.7334 48.2525C44.229 48.2525 44.5603 47.959 44.5629 47.524C44.5655 47.089 44.2323 46.789 43.7406 46.7884H40.0129C39.5245 46.7884 39.1899 47.0942 39.1951 47.5286C39.2003 47.9629 39.5303 48.2505 40.0051 48.2525C40.6331 48.2544 41.2585 48.2525 41.8839 48.2525H41.8813Z" fill="white"/>
</g>
</svg>
