<svg width="98" height="149" viewBox="0 0 98 149" fill="none" xmlns="http://www.w3.org/2000/svg">
<g opacity="0.35">
<path d="M46.688 107.792C47.1267 107.792 47.3507 108.016 47.36 108.464L47.738 117.452H46.072L45.736 109.178H45.47L43.664 115.66C43.58 116.043 43.342 116.234 42.95 116.234H41.718C41.3167 116.234 41.0693 116.043 40.976 115.66L39.17 109.178H38.904L38.596 117.452H36.93L37.308 108.464C37.3267 108.016 37.5507 107.792 37.98 107.792H39.73C40.1033 107.792 40.3367 107.984 40.43 108.366L41.914 113.658C41.9793 113.882 42.0307 114.106 42.068 114.33C42.1147 114.554 42.166 114.778 42.222 115.002H42.432C42.488 114.778 42.5393 114.554 42.586 114.33C42.6327 114.106 42.684 113.878 42.74 113.644L44.224 108.366C44.308 107.984 44.546 107.792 44.938 107.792H46.688ZM51.5238 110.578V115.226C51.5145 115.572 51.5798 115.819 51.7198 115.968C51.8691 116.118 52.1071 116.192 52.4338 116.192C52.7605 116.192 53.0871 116.122 53.4138 115.982C53.7405 115.842 54.1371 115.632 54.6038 115.352L54.7718 116.36C54.2491 116.78 53.7451 117.098 53.2598 117.312C52.7745 117.527 52.2705 117.634 51.7478 117.634C50.4691 117.634 49.8298 117.004 49.8298 115.744V110.578H51.5238ZM56.1298 110.578V117.452H54.7858L54.6038 116.122L54.4358 115.926V110.578H56.1298ZM60.0219 107.652L60.0079 115.38C60.0079 115.642 60.0826 115.842 60.2319 115.982C60.3813 116.113 60.5959 116.178 60.8759 116.178H61.4779L61.6739 117.368C61.5713 117.415 61.4266 117.457 61.2399 117.494C61.0626 117.532 60.8759 117.555 60.6799 117.564C60.4933 117.583 60.3299 117.592 60.1899 117.592C59.6206 117.592 59.1679 117.438 58.8319 117.13C58.4959 116.822 58.3279 116.379 58.3279 115.8V107.652H60.0219ZM28.5879 125.624C29.0265 125.624 29.3999 125.638 29.7079 125.666C30.0159 125.685 30.3005 125.718 30.5619 125.764C30.8232 125.802 31.0939 125.858 31.3739 125.932L31.2199 127.234C30.9305 127.216 30.6599 127.202 30.4079 127.192C30.1559 127.174 29.8852 127.16 29.5959 127.15C29.3159 127.141 28.9799 127.136 28.5879 127.136C28.0465 127.136 27.6219 127.244 27.3139 127.458C27.0059 127.673 26.7865 128.032 26.6559 128.536C26.5345 129.04 26.4739 129.736 26.4739 130.622C26.4739 131.509 26.5345 132.204 26.6559 132.708C26.7865 133.212 27.0059 133.572 27.3139 133.786C27.6219 134.001 28.0465 134.108 28.5879 134.108C29.2132 134.108 29.7359 134.099 30.1559 134.08C30.5852 134.052 31.0052 134.015 31.4159 133.968L31.5699 135.256C31.1499 135.387 30.7159 135.48 30.2679 135.536C29.8199 135.592 29.2599 135.62 28.5879 135.62C27.6172 135.62 26.8425 135.462 26.2639 135.144C25.6852 134.818 25.2652 134.29 25.0039 133.562C24.7519 132.834 24.6259 131.854 24.6259 130.622C24.6259 129.39 24.7519 128.41 25.0039 127.682C25.2652 126.954 25.6852 126.432 26.2639 126.114C26.8425 125.788 27.6172 125.624 28.5879 125.624ZM36.345 128.41C37.185 128.41 37.8523 128.527 38.347 128.76C38.851 128.994 39.2103 129.376 39.425 129.908C39.649 130.44 39.761 131.145 39.761 132.022C39.761 132.9 39.649 133.604 39.425 134.136C39.2103 134.659 38.851 135.042 38.347 135.284C37.8523 135.518 37.185 135.634 36.345 135.634C35.5236 135.634 34.861 135.518 34.357 135.284C33.8623 135.042 33.503 134.659 33.279 134.136C33.055 133.604 32.943 132.9 32.943 132.022C32.943 131.145 33.055 130.44 33.279 129.908C33.503 129.376 33.8623 128.994 34.357 128.76C34.861 128.527 35.5236 128.41 36.345 128.41ZM36.345 129.698C35.9343 129.698 35.6076 129.768 35.365 129.908C35.1316 130.039 34.9636 130.272 34.861 130.608C34.7583 130.944 34.707 131.416 34.707 132.022C34.707 132.629 34.7583 133.1 34.861 133.436C34.9636 133.772 35.1316 134.006 35.365 134.136C35.6076 134.267 35.9343 134.332 36.345 134.332C36.765 134.332 37.0963 134.267 37.339 134.136C37.5816 134.006 37.7496 133.772 37.843 133.436C37.9456 133.1 37.997 132.629 37.997 132.022C37.997 131.416 37.9456 130.944 37.843 130.608C37.7496 130.272 37.5816 130.039 37.339 129.908C37.0963 129.768 36.765 129.698 36.345 129.698ZM46.1601 128.41C47.4387 128.41 48.0781 129.04 48.0781 130.3V135.452H46.3841V130.818C46.3841 130.445 46.3187 130.188 46.1881 130.048C46.0574 129.908 45.8381 129.838 45.5301 129.838C45.1847 129.838 44.8301 129.918 44.4661 130.076C44.1021 130.226 43.6634 130.445 43.1501 130.734L43.0801 129.712C43.5841 129.292 44.0974 128.97 44.6201 128.746C45.1427 128.522 45.6561 128.41 46.1601 128.41ZM43.0241 128.578L43.1921 129.922L43.3321 130.118V135.452H41.6381V128.578H43.0241ZM52.4849 126.618V133.38C52.4849 133.67 52.5456 133.875 52.6669 133.996C52.7976 134.118 53.0169 134.178 53.3249 134.178H54.2769L54.4589 135.368C54.3002 135.415 54.1089 135.457 53.8849 135.494C53.6609 135.532 53.4416 135.555 53.2269 135.564C53.0122 135.583 52.8302 135.592 52.6809 135.592C52.0836 135.592 51.6169 135.434 51.2809 135.116C50.9542 134.79 50.7909 134.323 50.7909 133.716V126.618H52.4849ZM54.5289 128.578V129.754H49.5729V128.648L50.9169 128.578H54.5289ZM57.3773 128.578L57.6013 129.922L57.7553 130.118V135.452H56.0613V128.578H57.3773ZM60.7373 128.41L60.5693 129.978H60.0793C59.7153 129.978 59.3467 130.039 58.9733 130.16C58.6 130.282 58.1333 130.464 57.5733 130.706L57.4613 129.712C57.9467 129.302 58.4413 128.984 58.9453 128.76C59.4493 128.527 59.9347 128.41 60.4013 128.41H60.7373ZM65.1368 128.41C65.9768 128.41 66.6442 128.527 67.1388 128.76C67.6428 128.994 68.0022 129.376 68.2168 129.908C68.4408 130.44 68.5528 131.145 68.5528 132.022C68.5528 132.9 68.4408 133.604 68.2168 134.136C68.0022 134.659 67.6428 135.042 67.1388 135.284C66.6442 135.518 65.9768 135.634 65.1368 135.634C64.3155 135.634 63.6528 135.518 63.1488 135.284C62.6542 135.042 62.2948 134.659 62.0708 134.136C61.8468 133.604 61.7348 132.9 61.7348 132.022C61.7348 131.145 61.8468 130.44 62.0708 129.908C62.2948 129.376 62.6542 128.994 63.1488 128.76C63.6528 128.527 64.3155 128.41 65.1368 128.41ZM65.1368 129.698C64.7262 129.698 64.3995 129.768 64.1568 129.908C63.9235 130.039 63.7555 130.272 63.6528 130.608C63.5502 130.944 63.4988 131.416 63.4988 132.022C63.4988 132.629 63.5502 133.1 63.6528 133.436C63.7555 133.772 63.9235 134.006 64.1568 134.136C64.3995 134.267 64.7262 134.332 65.1368 134.332C65.5568 134.332 65.8882 134.267 66.1308 134.136C66.3735 134.006 66.5415 133.772 66.6348 133.436C66.7375 133.1 66.7888 132.629 66.7888 132.022C66.7888 131.416 66.7375 130.944 66.6348 130.608C66.5415 130.272 66.3735 130.039 66.1308 129.908C65.8882 129.768 65.5568 129.698 65.1368 129.698ZM72.1379 125.652L72.1239 133.38C72.1239 133.642 72.1986 133.842 72.3479 133.982C72.4973 134.113 72.7119 134.178 72.9919 134.178H73.5939L73.7899 135.368C73.6873 135.415 73.5426 135.457 73.3559 135.494C73.1786 135.532 72.9919 135.555 72.7959 135.564C72.6093 135.583 72.4459 135.592 72.3059 135.592C71.7366 135.592 71.2839 135.438 70.9479 135.13C70.6119 134.822 70.4439 134.379 70.4439 133.8V125.652H72.1379Z" fill="#333839"/>
<path d="M89.3995 52.0541L52.744 88.6996" stroke="white" stroke-width="6.29" stroke-miterlimit="10"/>
<path d="M89.3995 52.0541L52.744 88.6996" stroke="#C93044" stroke-width="3.42" stroke-miterlimit="10"/>
<path d="M7.6601 51.1115L5 48.4514L44.9905 8.45105" stroke="white" stroke-width="6.29" stroke-miterlimit="10"/>
<path d="M7.6601 51.1115L5 48.4514L44.9905 8.45105" stroke="#C93044" stroke-width="3.42" stroke-miterlimit="10"/>
<path d="M67.6359 86.381H30.3154L11.0001 67.0855V29.765L30.3154 10.4497H67.6359L86.9512 29.765V67.0855L67.6359 86.381Z" fill="#C93044"/>
<path d="M52.7421 88.7004L49.0002 92.4523L7.65979 51.1119" stroke="white" stroke-width="6.29" stroke-miterlimit="10"/>
<path d="M52.7421 88.7004L49.0002 92.4523L7.65979 51.1119" stroke="#C93044" stroke-width="3.42" stroke-miterlimit="10"/>
<path d="M44.9896 8.44974L48.9995 4.44971L93 48.4501L89.397 52.0531" stroke="white" stroke-width="6.29" stroke-miterlimit="10"/>
<path d="M44.9896 8.44974L48.9995 4.44971L93 48.4501L89.397 52.0531" stroke="#C93044" stroke-width="3.42" stroke-miterlimit="10"/>
<g clip-path="url(#clip0_488_9010)">
<path d="M53.4131 40.3047H54.1131C54.2944 40.3011 54.4744 40.3362 54.6412 40.4077C54.808 40.4792 54.9578 40.5855 55.0808 40.7196C55.1185 40.7708 55.1732 40.8066 55.235 40.8205C55.2968 40.8344 55.3614 40.8253 55.4171 40.7951C56.009 40.5686 56.6058 40.3575 57.1913 40.1229C57.32 40.0721 57.4291 39.981 57.5025 39.8631C57.9461 39.0924 58.3786 38.3158 58.8001 37.5332C58.8245 37.4788 58.838 37.4201 58.8398 37.3605C58.8416 37.3009 58.8317 37.2415 58.8106 37.1857C58.5952 36.6783 58.6856 36.1506 59.0735 35.7926C59.2518 35.6283 59.4767 35.5243 59.7167 35.495C59.9567 35.4657 60.1998 35.5127 60.412 35.6293C60.6242 35.746 60.7949 35.9265 60.9002 36.1455C61.0054 36.3646 61.0401 36.6114 60.9992 36.8512C60.9592 37.1037 60.8364 37.3355 60.6504 37.5096C60.4643 37.6836 60.2257 37.79 59.9726 37.8116C59.8991 37.8131 59.8275 37.8358 59.7664 37.8771C59.7053 37.9184 59.6574 37.9766 59.6283 38.0446C59.171 38.8767 58.7162 39.7113 58.2348 40.5288C58.1206 40.7132 57.9536 40.8584 57.7558 40.9453C57.1106 41.2172 56.4461 41.4608 55.7808 41.6881C55.5486 41.7692 55.4542 41.8756 55.4832 42.1191C55.4935 42.2984 55.4935 42.4781 55.4832 42.6574C55.6058 42.6647 55.7026 42.6761 55.7986 42.6761C56.6235 42.6761 57.4493 42.6842 58.2735 42.6687C58.427 42.66 58.5736 42.6014 58.6912 42.5015C59.0021 42.2275 59.2982 41.937 59.5783 41.6312C59.6613 41.5327 59.7027 41.4054 59.6936 41.2765C59.6575 41.0292 59.6987 40.7768 59.8114 40.5541C59.9241 40.3315 60.1027 40.1496 60.3226 40.0336C60.539 39.9218 60.7851 39.8821 61.0254 39.9201C61.2657 39.9582 61.4878 40.0721 61.6597 40.2455C61.8314 40.4186 61.945 40.6415 61.9844 40.8829C62.0239 41.1243 61.9873 41.3721 61.8798 41.5915C61.772 41.817 61.593 42.0001 61.3707 42.1122C61.1485 42.2243 60.8956 42.259 60.6516 42.2109C60.5756 42.192 60.4958 42.1952 60.4214 42.22C60.3471 42.2449 60.2812 42.2904 60.2315 42.3513C59.8879 42.7077 59.546 43.0682 59.1702 43.388C58.9982 43.5332 58.7852 43.6204 58.5614 43.6372C57.6558 43.664 56.7501 43.6494 55.8437 43.6494H55.5058V45.4208H57.9074C58.4614 45.4208 59.0146 45.4289 59.5678 45.4135C59.6879 45.402 59.7987 45.3438 59.8767 45.2511C60.221 44.8071 60.7113 44.6317 61.2097 44.8006C61.4395 44.878 61.6394 45.0261 61.781 45.2241C61.9225 45.4221 61.9987 45.6599 61.9987 45.9038C61.9987 46.1478 61.9225 46.3856 61.781 46.5836C61.6394 46.7816 61.4395 46.9297 61.2097 47.0071C60.7137 47.1752 60.2178 46.9998 59.8775 46.5533C59.818 46.4699 59.7281 46.4136 59.6275 46.3966C58.2791 46.3877 56.9308 46.3918 55.5824 46.3966C55.556 46.4015 55.5303 46.4097 55.5058 46.421V48.1648H56.6889C57.3227 48.1648 57.9582 48.1469 58.5904 48.1753C58.7957 48.1899 58.9912 48.2692 59.1493 48.4018C59.5355 48.7395 59.8815 49.1252 60.2597 49.4734C60.3601 49.5584 60.4892 49.6012 60.6202 49.5928C61.1653 49.5221 61.646 49.7494 61.8798 50.2203C61.9887 50.4392 62.0263 50.6871 61.9872 50.9288C61.9481 51.1704 61.8343 51.3935 61.6621 51.5663C61.4898 51.7391 61.2678 51.8528 61.0276 51.8913C60.7874 51.9298 60.5413 51.891 60.3242 51.7806C59.8597 51.5436 59.6283 51.0548 59.7025 50.5093C59.7084 50.4588 59.7044 50.4076 59.6905 50.3587C59.6767 50.3098 59.6533 50.2641 59.6218 50.2244C59.2993 49.8891 58.967 49.5652 58.6307 49.2502C58.5669 49.1895 58.4844 49.1529 58.3969 49.1463C57.4412 49.139 56.4856 49.1414 55.4865 49.1414C55.4865 49.4491 55.472 49.7413 55.4978 50.0295C55.5042 50.0977 55.6405 50.1797 55.7324 50.2097C56.3894 50.4306 57.0493 50.6435 57.7122 50.8486C57.8276 50.8811 57.9351 50.9376 58.0276 51.0143C58.1201 51.0911 58.1956 51.1865 58.2493 51.2943C58.6985 52.12 59.1654 52.935 59.6202 53.7582C59.6504 53.8305 59.7007 53.8924 59.7651 53.9365C59.8295 53.9806 59.9052 54.0049 59.9831 54.0066C60.4928 54.0472 60.8879 54.4353 60.9911 54.9491C61.0345 55.1899 61.0016 55.4384 60.8971 55.6593C60.7926 55.8803 60.6219 56.0627 60.4089 56.1807C60.1992 56.2936 59.9605 56.3399 59.7242 56.3137C59.4879 56.2875 59.265 56.1899 59.0847 56.0337C58.8974 55.869 58.7685 55.6473 58.7177 55.4022C58.6669 55.1571 58.697 54.9019 58.8033 54.6756C58.843 54.6087 58.8628 54.5317 58.8602 54.4538C58.8576 54.3759 58.8328 54.3004 58.7888 54.2364C58.3614 53.4919 57.9533 52.7361 57.5235 51.9925C57.4495 51.8662 57.3361 51.768 57.2009 51.7132C56.5934 51.5 55.9811 51.3027 55.3639 51.1214C55.2368 51.0959 55.1048 51.1222 54.997 51.1945C54.7321 51.3995 54.4077 51.5113 54.0736 51.5127C53.751 51.507 53.4285 51.5087 53.1059 51.5127C52.6656 51.5176 52.2374 51.5289 51.8229 51.2943C51.5995 51.1669 51.3011 51.1717 51.0027 51.11V50.7967C51.0027 49.7024 50.9971 48.6088 51.0027 47.5145C51.0199 46.9727 50.8366 46.4438 50.4882 46.0305C50.4609 45.9901 50.4431 45.9439 50.4359 45.8956C50.4288 45.8472 50.4326 45.7979 50.4471 45.7512C50.7906 44.9272 50.6084 44.113 49.9633 43.6226C49.6627 43.3966 49.296 43.2775 48.9209 43.284C48.5458 43.2905 48.1835 43.4221 47.8907 43.6584C47.2512 44.1844 47.1045 45.0052 47.502 45.8283C47.5109 45.8462 47.5157 45.8649 47.5303 45.9047C46.9867 46.4299 46.8666 47.1045 46.8811 47.8417C46.9029 48.9457 46.8867 50.0498 46.8867 51.1539V51.4997C46.7811 51.5062 46.7037 51.5151 46.6263 51.5151C45.7102 51.5151 44.7949 51.5151 43.8788 51.5151C43.5241 51.521 43.1782 51.4041 42.899 51.1839C42.8527 51.1545 42.8009 51.1348 42.7468 51.1262C42.6928 51.1175 42.6375 51.12 42.5845 51.1336C41.9834 51.3149 41.3834 51.5089 40.7845 51.7157C40.6663 51.7597 40.5659 51.842 40.499 51.9495C40.056 52.7207 39.6233 53.4973 39.2007 54.2794C39.1512 54.3893 39.1469 54.5145 39.1886 54.6277C39.4031 55.1367 39.3136 55.666 38.9273 56.0207C38.7472 56.1855 38.5201 56.2889 38.2783 56.3163C38.0365 56.3438 37.7922 56.2938 37.5802 56.1736C37.3682 56.0533 37.1992 55.8689 37.0972 55.6465C36.9952 55.4241 36.9654 55.175 37.012 54.9345C37.1257 54.4052 37.5177 54.0659 38.0604 53.9863C38.123 53.9718 38.1822 53.945 38.2345 53.9074C38.2869 53.8697 38.3313 53.8221 38.3652 53.7671C38.8434 52.935 39.2958 52.0883 39.7821 51.261C39.8931 51.0867 40.0564 50.9525 40.2482 50.8779C40.8893 50.6416 41.5385 50.4387 42.1958 50.2382C42.3691 50.1846 42.4377 50.1099 42.4288 49.9232C42.4127 49.6731 42.4288 49.4223 42.4288 49.1398C41.7651 49.1398 41.1289 49.1925 40.5047 49.126C39.7547 49.0448 39.1789 49.2623 38.7354 49.8663C38.6847 49.9295 38.6271 49.9867 38.5636 50.0368C38.3701 50.2057 38.2588 50.3616 38.2999 50.6741C38.3878 51.3439 37.8161 51.9211 37.1507 51.9146C36.9888 51.9131 36.8289 51.8775 36.6814 51.8102C36.5339 51.7428 36.4021 51.6451 36.2943 51.5234C36.1865 51.4017 36.1053 51.2587 36.0557 51.1034C36.0061 50.9482 35.9893 50.7843 36.0064 50.6221C36.021 50.4633 36.0685 50.3093 36.1457 50.17C36.223 50.0307 36.3284 49.9093 36.4551 49.8135C36.5818 49.7177 36.727 49.6496 36.8814 49.6137C37.0358 49.5778 37.1959 49.5748 37.3515 49.6049C37.4283 49.6235 37.5088 49.6198 37.5836 49.5943C37.6584 49.5687 37.7245 49.5223 37.7741 49.4604C38.1185 49.1057 38.4596 48.7436 38.8346 48.4237C39.0075 48.2805 39.2207 48.1953 39.4442 48.1802C40.3184 48.1534 41.195 48.1688 42.07 48.1688H42.4086V46.395H42.1288C40.9111 46.395 39.6934 46.395 38.4757 46.3909C38.3985 46.3843 38.3209 46.3998 38.2521 46.4356C38.1832 46.4713 38.1257 46.5259 38.0862 46.5931C37.943 46.7991 37.736 46.9515 37.4975 47.0264C37.2591 47.1014 37.0027 47.0946 36.7685 47.0071C36.5403 46.9247 36.3436 46.7723 36.2061 46.5713C36.0686 46.3703 35.9973 46.131 36.0022 45.887C36.0071 45.643 36.088 45.4067 36.2334 45.2115C36.3789 45.0163 36.5816 44.872 36.8129 44.799C37.2911 44.6463 37.7806 44.8176 38.1031 45.2284C38.1677 45.3096 38.2765 45.4159 38.366 45.4168C39.6136 45.4289 40.866 45.4249 42.1095 45.4249H42.403V43.6494H42.0893C41.224 43.6494 40.3587 43.6405 39.4934 43.6494C39.359 43.6573 39.2245 43.6348 39.0998 43.5837C38.975 43.5326 38.8632 43.4541 38.7725 43.3539C38.4386 43.0024 38.0935 42.6614 37.7362 42.3351C37.6344 42.2494 37.5033 42.2071 37.3709 42.2174C36.8201 42.2831 36.3459 42.055 36.1145 41.5833C36.0092 41.3635 35.9748 41.116 36.0161 40.8755C36.0575 40.635 36.1725 40.4136 36.3451 40.2422C36.5176 40.0694 36.7401 39.9563 36.9806 39.9192C37.2211 39.8822 37.4671 39.9231 37.683 40.036C38.1451 40.2796 38.3693 40.7577 38.2959 41.3114C38.2868 41.4134 38.3181 41.515 38.383 41.5939C38.6967 41.9186 39.0233 42.2385 39.3507 42.5527C39.4111 42.6171 39.4917 42.6586 39.5789 42.6704C40.5127 42.6785 41.4466 42.6761 42.4216 42.6761C42.432 42.4092 42.4285 42.142 42.4111 41.8756C42.403 41.8017 42.2772 41.7132 42.1877 41.6816C41.5571 41.4396 40.9256 41.2056 40.2934 40.9793C40.0536 40.9021 39.854 40.7322 39.7386 40.5069C39.2918 39.6804 38.8225 38.8654 38.3725 38.0414C38.343 37.9741 38.2949 37.9167 38.2341 37.876C38.1732 37.8353 38.102 37.8129 38.0289 37.8116C37.776 37.789 37.5378 37.6819 37.3521 37.5075C37.1665 37.3331 37.0439 37.1013 37.004 36.8488C36.9644 36.6095 36.9999 36.3637 37.1054 36.1457C37.211 35.9276 37.3814 35.748 37.5931 35.632C37.8047 35.5159 38.0469 35.4691 38.2862 35.498C38.5255 35.527 38.7498 35.6302 38.9281 35.7934C39.1145 35.9596 39.241 36.1831 39.2881 36.4292C39.3352 36.6752 39.3002 36.9301 39.1886 37.1541C39.1518 37.2172 39.1341 37.2898 39.1376 37.3629C39.1412 37.436 39.1659 37.5065 39.2087 37.5656C39.6418 38.3304 40.0628 39.1024 40.499 39.8647C40.5642 39.9732 40.6615 40.0584 40.7772 40.1083C41.3474 40.3331 41.924 40.5434 42.5022 40.7464C42.5901 40.7772 42.7441 40.7845 42.7933 40.7326C43.1651 40.3494 43.6264 40.252 44.1239 40.3015C44.4408 40.3323 44.5102 40.2203 44.5054 39.9142C44.4916 39.1146 44.4796 38.3125 44.5304 37.5153C44.6707 35.3453 46.5569 33.535 48.7318 33.4497C51.0253 33.3685 53.0527 34.9784 53.3382 37.193C53.4511 38.0714 53.3946 38.9717 53.414 39.8615C53.4188 39.9922 53.4131 40.1229 53.4131 40.3047ZM46.6642 40.2779H51.2955C51.2955 39.475 51.3043 38.6957 51.2955 37.9172C51.2753 36.6767 50.3544 35.7066 49.1012 35.5986C47.9778 35.5004 46.8311 36.3219 46.6867 37.4812C46.573 38.3953 46.6642 39.3354 46.6642 40.2779Z" fill="white"/>
<path d="M47.8609 55.7505V55.4257C47.8609 52.8128 47.8609 50.1998 47.8609 47.5868C47.8573 47.4353 47.8708 47.2839 47.9012 47.1354C47.959 46.8814 48.1053 46.6567 48.3137 46.5021C48.522 46.3474 48.7786 46.2732 49.0367 46.2928C49.5955 46.3496 50.0133 46.7725 50.0318 47.3311C50.0479 47.806 50.0383 48.2825 50.0383 48.7591C50.0383 50.1254 50.0383 51.4925 50.0383 52.9407C50.3866 52.2913 50.8568 51.9844 51.5181 52.2272C52.2753 52.5064 52.2487 53.1794 52.2334 53.8508C52.5463 53.2825 52.9995 52.9838 53.6228 53.1697C54.4236 53.4075 54.4293 54.1008 54.4293 54.7933C54.6389 54.4532 54.8865 54.1869 55.2784 54.1146C55.9824 53.9848 56.5687 54.4727 56.584 55.2236C56.598 55.8406 56.5951 56.4584 56.5752 57.077C56.5316 58.479 56.3647 59.8575 55.8397 61.1759C55.7083 61.5055 55.5478 61.6264 55.1833 61.624C52.7688 61.6045 50.3536 61.6102 47.9391 61.6199C47.6932 61.6199 47.6222 61.5387 47.5359 61.3098C47.2628 60.5946 46.9508 59.8951 46.6013 59.2145C45.7795 57.6509 44.9134 56.1117 44.0852 54.5514C43.9574 54.2995 43.8866 54.0223 43.878 53.7396C43.853 52.97 44.5465 52.4967 45.2368 52.8279C45.5284 52.9826 45.7843 53.1975 45.9876 53.4587C46.6085 54.2137 47.1972 54.9963 47.7988 55.7675L47.8609 55.7505Z" fill="white"/>
<path d="M55.3292 62.6111V63.4497H47.7037V62.6111H55.3292Z" fill="white"/>
</g>
</g>
<defs>
<clipPath id="clip0_488_9010">
<rect width="26" height="30" fill="white" transform="translate(36 33.4497)"/>
</clipPath>
</defs>
</svg>
