<svg width="100" height="156" viewBox="0 0 100 156" fill="none" xmlns="http://www.w3.org/2000/svg">
<g opacity="0.2">
<rect width="100" height="156" rx="19" fill="#F9FBFF"/>
<path d="M17.7654 109.161C18.5121 109.161 19.1421 109.245 19.6554 109.413C20.1688 109.572 20.5794 109.842 20.8874 110.225C21.1954 110.608 21.4194 111.121 21.5594 111.765C21.7088 112.409 21.7834 113.212 21.7834 114.173C21.7834 115.125 21.7088 115.928 21.5594 116.581C21.4194 117.225 21.1954 117.738 20.8874 118.121C20.5794 118.504 20.1688 118.779 19.6554 118.947C19.1421 119.106 18.5121 119.185 17.7654 119.185C17.0374 119.185 16.4168 119.106 15.9034 118.947C15.3901 118.779 14.9748 118.504 14.6574 118.121C14.3401 117.738 14.1114 117.225 13.9714 116.581C13.8314 115.928 13.7614 115.125 13.7614 114.173C13.7614 113.212 13.8314 112.409 13.9714 111.765C14.1114 111.121 14.3401 110.608 14.6574 110.225C14.9748 109.842 15.3901 109.572 15.9034 109.413C16.4168 109.245 17.0374 109.161 17.7654 109.161ZM17.7654 110.589C17.2148 110.589 16.7808 110.701 16.4634 110.925C16.1554 111.14 15.9361 111.508 15.8054 112.031C15.6748 112.544 15.6094 113.258 15.6094 114.173C15.6094 115.088 15.6748 115.806 15.8054 116.329C15.9361 116.842 16.1554 117.211 16.4634 117.435C16.7808 117.65 17.2148 117.757 17.7654 117.757C18.3254 117.757 18.7594 117.65 19.0674 117.435C19.3848 117.211 19.6088 116.842 19.7394 116.329C19.8701 115.806 19.9354 115.088 19.9354 114.173C19.9354 113.258 19.8701 112.544 19.7394 112.031C19.6088 111.508 19.3848 111.14 19.0674 110.925C18.7594 110.701 18.3254 110.589 17.7654 110.589ZM25.2094 112.129L25.4334 113.473L25.5874 113.669V119.003H23.8934V112.129H25.2094ZM28.5694 111.961L28.4014 113.529H27.9114C27.5474 113.529 27.1787 113.59 26.8054 113.711C26.432 113.832 25.9654 114.014 25.4054 114.257L25.2934 113.263C25.7787 112.852 26.2734 112.535 26.7774 112.311C27.2814 112.078 27.7667 111.961 28.2334 111.961H28.5694ZM32.3659 111.961C32.8326 111.961 33.2899 112.026 33.7379 112.157C34.1859 112.278 34.5919 112.484 34.9559 112.773L34.8439 113.627C34.4799 113.524 34.1532 113.436 33.8639 113.361C33.5746 113.286 33.2526 113.249 32.8979 113.249C32.5619 113.249 32.2912 113.31 32.0859 113.431C31.8899 113.543 31.7406 113.762 31.6379 114.089C31.5446 114.416 31.4979 114.892 31.4979 115.517C31.4979 116.114 31.5446 116.576 31.6379 116.903C31.7312 117.22 31.8759 117.444 32.0719 117.575C32.2679 117.696 32.5246 117.757 32.8419 117.757C33.0939 117.757 33.3179 117.729 33.5139 117.673C33.7099 117.608 33.9106 117.514 34.1159 117.393C34.3212 117.262 34.5592 117.099 34.8299 116.903L34.9699 117.855C34.6526 118.219 34.2606 118.532 33.7939 118.793C33.3366 119.045 32.8046 119.171 32.1979 119.171C31.3206 119.171 30.6952 118.863 30.3219 118.247C29.9486 117.622 29.7619 116.716 29.7619 115.531C29.7619 114.626 29.8552 113.916 30.0419 113.403C30.2379 112.88 30.5272 112.512 30.9099 112.297C31.3019 112.073 31.7872 111.961 32.3659 111.961ZM36.3419 109.203V119.003H35.0119L34.8299 117.771L34.6479 117.631V113.039L34.7319 112.843C34.6946 112.572 34.6712 112.302 34.6619 112.031C34.6526 111.751 34.6479 111.466 34.6479 111.177V109.203H36.3419ZM41.7447 111.961C42.8554 111.961 43.6534 112.157 44.1387 112.549C44.624 112.932 44.8714 113.501 44.8807 114.257C44.89 114.882 44.7407 115.358 44.4327 115.685C44.134 116.002 43.6347 116.161 42.9347 116.161H39.0147V115.111H42.4727C42.79 115.111 42.9907 115.027 43.0747 114.859C43.168 114.691 43.2147 114.486 43.2147 114.243C43.2054 113.86 43.0934 113.594 42.8787 113.445C42.6734 113.296 42.3187 113.221 41.8147 113.221C41.376 113.221 41.0354 113.282 40.7927 113.403C40.55 113.524 40.3774 113.744 40.2747 114.061C40.1814 114.378 40.1347 114.836 40.1347 115.433C40.1347 116.068 40.1954 116.558 40.3167 116.903C40.438 117.248 40.6387 117.486 40.9187 117.617C41.1987 117.738 41.572 117.799 42.0387 117.799C42.384 117.799 42.7807 117.785 43.2287 117.757C43.686 117.729 44.1247 117.692 44.5447 117.645L44.7127 118.723C44.4607 118.826 44.1714 118.91 43.8447 118.975C43.518 119.04 43.1774 119.087 42.8227 119.115C42.4774 119.152 42.1507 119.171 41.8427 119.171C41.0027 119.171 40.326 119.05 39.8127 118.807C39.3087 118.555 38.94 118.163 38.7067 117.631C38.4827 117.099 38.3707 116.413 38.3707 115.573C38.3707 114.668 38.4827 113.954 38.7067 113.431C38.94 112.899 39.304 112.521 39.7987 112.297C40.3027 112.073 40.9514 111.961 41.7447 111.961ZM48.1393 112.129L48.3633 113.473L48.5173 113.669V119.003H46.8233V112.129H48.1393ZM51.4993 111.961L51.3313 113.529H50.8413C50.4773 113.529 50.1086 113.59 49.7353 113.711C49.362 113.832 48.8953 114.014 48.3353 114.257L48.2233 113.263C48.7086 112.852 49.2033 112.535 49.7073 112.311C50.2113 112.078 50.6966 111.961 51.1633 111.961H51.4993ZM66.5035 112.129L64.6835 118.555C64.6461 118.686 64.5715 118.793 64.4595 118.877C64.3475 118.961 64.2168 119.003 64.0675 119.003H62.7095C62.5601 119.003 62.4248 118.956 62.3035 118.863C62.1821 118.77 62.1121 118.644 62.0935 118.485L61.1835 114.271C61.1461 114.084 61.1135 113.898 61.0855 113.711C61.0668 113.524 61.0388 113.338 61.0015 113.151H60.8195C60.7915 113.338 60.7588 113.524 60.7215 113.711C60.6935 113.898 60.6608 114.084 60.6235 114.271L59.7275 118.485C59.6995 118.644 59.6248 118.77 59.5035 118.863C59.3915 118.956 59.2561 119.003 59.0975 119.003H57.7535C57.6041 119.003 57.4735 118.961 57.3615 118.877C57.2495 118.793 57.1795 118.686 57.1515 118.555L55.3175 112.129H57.0395L58.1875 116.847C58.2248 117.024 58.2575 117.206 58.2855 117.393C58.3228 117.57 58.3555 117.748 58.3835 117.925H58.5515C58.5981 117.748 58.6355 117.57 58.6635 117.393C58.7008 117.206 58.7381 117.024 58.7755 116.847L59.6855 112.647C59.7135 112.498 59.7788 112.376 59.8815 112.283C59.9935 112.18 60.1335 112.129 60.3015 112.129H61.5335C61.6828 112.129 61.8135 112.18 61.9255 112.283C62.0375 112.376 62.1075 112.502 62.1355 112.661L63.0455 116.847C63.0735 117.024 63.1061 117.202 63.1435 117.379C63.1901 117.556 63.2275 117.738 63.2555 117.925H63.4235C63.4608 117.738 63.4935 117.561 63.5215 117.393C63.5495 117.216 63.5868 117.034 63.6335 116.847L64.7815 112.129H66.5035ZM69.8896 112.129V119.003H68.2096V112.129H69.8896ZM69.4276 109.147C69.7636 109.147 69.9316 109.315 69.9316 109.651V110.435C69.9316 110.771 69.7636 110.939 69.4276 110.939H68.6716C68.3356 110.939 68.1676 110.771 68.1676 110.435V109.651C68.1676 109.315 68.3356 109.147 68.6716 109.147H69.4276ZM74.743 111.961C75.0603 111.961 75.401 111.97 75.765 111.989C76.1383 112.008 76.5023 112.036 76.857 112.073C77.2117 112.101 77.529 112.143 77.809 112.199L77.697 113.305C77.249 113.296 76.801 113.286 76.353 113.277C75.9143 113.258 75.4803 113.249 75.051 113.249C74.6683 113.249 74.365 113.258 74.141 113.277C73.9263 113.296 73.7723 113.352 73.679 113.445C73.595 113.538 73.553 113.697 73.553 113.921C73.553 114.192 73.6277 114.374 73.777 114.467C73.9263 114.551 74.169 114.635 74.505 114.719L76.381 115.153C76.941 115.293 77.3563 115.508 77.627 115.797C77.8977 116.077 78.033 116.511 78.033 117.099C78.033 117.668 77.9257 118.102 77.711 118.401C77.5057 118.69 77.1743 118.891 76.717 119.003C76.269 119.106 75.695 119.157 74.995 119.157C74.7243 119.157 74.323 119.143 73.791 119.115C73.259 119.096 72.6757 119.036 72.041 118.933L72.153 117.827C72.3397 117.827 72.559 117.832 72.811 117.841C73.0723 117.85 73.3477 117.855 73.637 117.855C73.9357 117.855 74.239 117.855 74.547 117.855C75.0417 117.855 75.4197 117.841 75.681 117.813C75.9517 117.776 76.1383 117.706 76.241 117.603C76.3437 117.491 76.395 117.332 76.395 117.127C76.395 116.866 76.3063 116.693 76.129 116.609C75.961 116.516 75.709 116.427 75.373 116.343L73.539 115.895C73.119 115.783 72.7923 115.643 72.559 115.475C72.3257 115.298 72.1577 115.083 72.055 114.831C71.9523 114.57 71.901 114.252 71.901 113.879C71.901 113.375 71.9943 112.983 72.181 112.703C72.377 112.423 72.6803 112.227 73.091 112.115C73.511 112.003 74.0617 111.952 74.743 111.961ZM83.0518 111.961C84.1625 111.961 84.9605 112.157 85.4458 112.549C85.9311 112.932 86.1785 113.501 86.1878 114.257C86.1971 114.882 86.0478 115.358 85.7398 115.685C85.4411 116.002 84.9418 116.161 84.2418 116.161H80.3218V115.111H83.7798C84.0971 115.111 84.2978 115.027 84.3818 114.859C84.4751 114.691 84.5218 114.486 84.5218 114.243C84.5125 113.86 84.4005 113.594 84.1858 113.445C83.9805 113.296 83.6258 113.221 83.1218 113.221C82.6831 113.221 82.3425 113.282 82.0998 113.403C81.8571 113.524 81.6845 113.744 81.5818 114.061C81.4885 114.378 81.4418 114.836 81.4418 115.433C81.4418 116.068 81.5025 116.558 81.6238 116.903C81.7451 117.248 81.9458 117.486 82.2258 117.617C82.5058 117.738 82.8791 117.799 83.3458 117.799C83.6911 117.799 84.0878 117.785 84.5358 117.757C84.9931 117.729 85.4318 117.692 85.8518 117.645L86.0198 118.723C85.7678 118.826 85.4785 118.91 85.1518 118.975C84.8251 119.04 84.4845 119.087 84.1298 119.115C83.7845 119.152 83.4578 119.171 83.1498 119.171C82.3098 119.171 81.6331 119.05 81.1198 118.807C80.6158 118.555 80.2471 118.163 80.0138 117.631C79.7898 117.099 79.6778 116.413 79.6778 115.573C79.6778 114.668 79.7898 113.954 80.0138 113.431C80.2471 112.899 80.6111 112.521 81.1058 112.297C81.6098 112.073 82.2585 111.961 83.0518 111.961ZM31.304 127.217C32.1066 127.217 32.7553 127.301 33.25 127.469C33.754 127.637 34.118 127.926 34.342 128.337C34.5753 128.738 34.692 129.308 34.692 130.045C34.692 130.53 34.6313 130.946 34.51 131.291C34.398 131.627 34.2066 131.898 33.936 132.103C33.6746 132.299 33.32 132.425 32.872 132.481V132.551C33.0306 132.588 33.194 132.663 33.362 132.775C33.5393 132.878 33.698 133.027 33.838 133.223C33.9873 133.419 34.0993 133.671 34.174 133.979L35.056 137.003H33.208L32.41 134.021C32.3073 133.685 32.1673 133.452 31.99 133.321C31.8126 133.181 31.57 133.111 31.262 133.111C30.6553 133.111 30.1373 133.111 29.708 133.111C29.2786 133.102 28.9193 133.092 28.63 133.083C28.35 133.074 28.1026 133.069 27.888 133.069L27.93 131.739H31.262C31.682 131.73 32.0133 131.683 32.256 131.599C32.4986 131.506 32.6713 131.347 32.774 131.123C32.8766 130.89 32.928 130.563 32.928 130.143C32.928 129.732 32.8766 129.415 32.774 129.191C32.6713 128.967 32.4986 128.813 32.256 128.729C32.0133 128.636 31.682 128.589 31.262 128.589C30.4406 128.589 29.736 128.594 29.148 128.603C28.56 128.612 28.1586 128.622 27.944 128.631L27.748 127.343C28.1213 127.306 28.4713 127.278 28.798 127.259C29.134 127.24 29.498 127.231 29.89 127.231C30.282 127.222 30.7533 127.217 31.304 127.217ZM29.47 127.343V137.003H27.748V127.343H29.47ZM39.9263 129.961C41.037 129.961 41.835 130.157 42.3203 130.549C42.8057 130.932 43.053 131.501 43.0623 132.257C43.0717 132.882 42.9223 133.358 42.6143 133.685C42.3157 134.002 41.8163 134.161 41.1163 134.161H37.1963V133.111H40.6543C40.9717 133.111 41.1723 133.027 41.2563 132.859C41.3497 132.691 41.3963 132.486 41.3963 132.243C41.387 131.86 41.275 131.594 41.0603 131.445C40.855 131.296 40.5003 131.221 39.9963 131.221C39.5577 131.221 39.217 131.282 38.9743 131.403C38.7317 131.524 38.559 131.744 38.4563 132.061C38.363 132.378 38.3163 132.836 38.3163 133.433C38.3163 134.068 38.377 134.558 38.4983 134.903C38.6197 135.248 38.8203 135.486 39.1003 135.617C39.3803 135.738 39.7537 135.799 40.2203 135.799C40.5657 135.799 40.9623 135.785 41.4103 135.757C41.8677 135.729 42.3063 135.692 42.7263 135.645L42.8943 136.723C42.6423 136.826 42.353 136.91 42.0263 136.975C41.6997 137.04 41.359 137.087 41.0043 137.115C40.659 137.152 40.3323 137.171 40.0243 137.171C39.1843 137.171 38.5077 137.05 37.9943 136.807C37.4903 136.555 37.1217 136.163 36.8883 135.631C36.6643 135.099 36.5523 134.413 36.5523 133.573C36.5523 132.668 36.6643 131.954 36.8883 131.431C37.1217 130.899 37.4857 130.521 37.9803 130.297C38.4843 130.073 39.133 129.961 39.9263 129.961ZM49.2749 129.961C50.1243 129.961 50.7356 130.274 51.1089 130.899C51.4823 131.524 51.6689 132.43 51.6689 133.615C51.6689 134.52 51.5709 135.234 51.3749 135.757C51.1883 136.27 50.9036 136.639 50.5209 136.863C50.1383 137.078 49.6529 137.185 49.0649 137.185C48.5983 137.185 48.1409 137.12 47.6929 136.989C47.2543 136.849 46.8483 136.634 46.4749 136.345L46.5869 135.505C46.9509 135.608 47.2776 135.696 47.5669 135.771C47.8563 135.846 48.1736 135.883 48.5189 135.883C48.8643 135.883 49.1349 135.827 49.3309 135.715C49.5363 135.594 49.6856 135.37 49.7789 135.043C49.8723 134.716 49.9189 134.245 49.9189 133.629C49.9189 133.022 49.8769 132.551 49.7929 132.215C49.7089 131.879 49.5689 131.646 49.3729 131.515C49.1863 131.375 48.9389 131.305 48.6309 131.305C48.2949 131.305 47.9776 131.38 47.6789 131.529C47.3803 131.669 47.0349 131.879 46.6429 132.159L46.4469 131.263C46.6616 131.011 46.9183 130.787 47.2169 130.591C47.5249 130.395 47.8563 130.241 48.2109 130.129C48.5656 130.017 48.9203 129.961 49.2749 129.961ZM46.3769 130.129L46.5449 131.459L46.6989 131.655V136.093L46.6289 136.261C46.6569 136.532 46.6756 136.802 46.6849 137.073C46.6943 137.353 46.6989 137.638 46.6989 137.927V139.733H45.0049V130.129H46.3769ZM56.8181 129.961C57.6581 129.961 58.3254 130.078 58.8201 130.311C59.3241 130.544 59.6834 130.927 59.8981 131.459C60.1221 131.991 60.2341 132.696 60.2341 133.573C60.2341 134.45 60.1221 135.155 59.8981 135.687C59.6834 136.21 59.3241 136.592 58.8201 136.835C58.3254 137.068 57.6581 137.185 56.8181 137.185C55.9968 137.185 55.3341 137.068 54.8301 136.835C54.3354 136.592 53.9761 136.21 53.7521 135.687C53.5281 135.155 53.4161 134.45 53.4161 133.573C53.4161 132.696 53.5281 131.991 53.7521 131.459C53.9761 130.927 54.3354 130.544 54.8301 130.311C55.3341 130.078 55.9968 129.961 56.8181 129.961ZM56.8181 131.249C56.4074 131.249 56.0808 131.319 55.8381 131.459C55.6048 131.59 55.4368 131.823 55.3341 132.159C55.2314 132.495 55.1801 132.966 55.1801 133.573C55.1801 134.18 55.2314 134.651 55.3341 134.987C55.4368 135.323 55.6048 135.556 55.8381 135.687C56.0808 135.818 56.4074 135.883 56.8181 135.883C57.2381 135.883 57.5694 135.818 57.8121 135.687C58.0548 135.556 58.2228 135.323 58.3161 134.987C58.4188 134.651 58.4701 134.18 58.4701 133.573C58.4701 132.966 58.4188 132.495 58.3161 132.159C58.2228 131.823 58.0548 131.59 57.8121 131.459C57.5694 131.319 57.2381 131.249 56.8181 131.249ZM63.5672 130.129L63.7912 131.473L63.9452 131.669V137.003H62.2512V130.129H63.5672ZM66.9272 129.961L66.7592 131.529H66.2692C65.9052 131.529 65.5365 131.59 65.1632 131.711C64.7899 131.832 64.3232 132.014 63.7632 132.257L63.6512 131.263C64.1365 130.852 64.6312 130.535 65.1352 130.311C65.6392 130.078 66.1245 129.961 66.5912 129.961H66.9272ZM70.7634 128.169V134.931C70.7634 135.22 70.8241 135.426 70.9454 135.547C71.0761 135.668 71.2954 135.729 71.6034 135.729H72.5554L72.7374 136.919C72.5787 136.966 72.3874 137.008 72.1634 137.045C71.9394 137.082 71.7201 137.106 71.5054 137.115C71.2907 137.134 71.1087 137.143 70.9594 137.143C70.3621 137.143 69.8954 136.984 69.5594 136.667C69.2327 136.34 69.0694 135.874 69.0694 135.267V128.169H70.7634ZM72.8074 130.129V131.305H67.8514V130.199L69.1954 130.129H72.8074Z" fill="#3F5264"/>
<path d="M90.3996 53.6045L53.7441 90.2501" stroke="white" stroke-width="6.29" stroke-miterlimit="10"/>
<path d="M90.3996 53.6045L53.7441 90.2501" stroke="#3F5264" stroke-width="3.42" stroke-miterlimit="10"/>
<path d="M8.6601 52.6614L6 50.0013L45.9905 10.001" stroke="white" stroke-width="6.29" stroke-miterlimit="10"/>
<path d="M8.6601 52.6614L6 50.0013L45.9905 10.001" stroke="#3F5264" stroke-width="3.42" stroke-miterlimit="10"/>
<path d="M68.6358 87.9313H31.3153L12 68.6358V31.3153L31.3153 12H68.6358L87.9512 31.3153V68.6358L68.6358 87.9313Z" fill="#3F5264"/>
<path d="M53.7425 90.2506L50.0005 94.0025L8.66016 52.6621" stroke="white" stroke-width="6.29" stroke-miterlimit="10"/>
<path d="M53.7425 90.2506L50.0005 94.0025L8.66016 52.6621" stroke="#3F5264" stroke-width="3.42" stroke-miterlimit="10"/>
<path d="M45.9893 10L49.9992 6L93.9997 50.0004L90.3967 53.6034" stroke="white" stroke-width="6.29" stroke-miterlimit="10"/>
<path d="M45.9893 10L49.9992 6L93.9997 50.0004L90.3967 53.6034" stroke="#3F5264" stroke-width="3.42" stroke-miterlimit="10"/>
<g clip-path="url(#clip0_1434_1204)">
<path d="M40.039 42.7432H59.3372C59.3421 42.8392 59.3505 42.9324 59.3505 43.0236C59.3505 48.7848 59.3505 54.5465 59.3505 60.3087C59.3505 61.5818 58.6333 62.5044 57.4661 62.7357C57.2847 62.7667 57.1008 62.7799 56.9169 62.775C52.1021 62.775 47.2876 62.775 42.4733 62.775C41.0066 62.7785 40.0285 61.8124 40.0271 60.3486C40.0238 54.5692 40.0235 48.79 40.0264 43.011C40.0264 42.9254 40.0341 42.8371 40.039 42.7432ZM52.6255 47.6084C53.572 47.6084 54.5177 47.6084 55.4642 47.6084C55.5945 47.612 55.7245 47.5916 55.8474 47.5482C55.9772 47.4919 56.0836 47.3926 56.1484 47.2672C56.2132 47.1417 56.2326 46.9978 56.2032 46.8597C56.1329 46.5457 55.8776 46.3536 55.5 46.3529C53.5903 46.3529 51.6805 46.3529 49.7707 46.3529C49.3418 46.3529 49.0549 46.62 49.0591 46.9929C49.0633 47.3659 49.3467 47.6099 49.7869 47.6106C50.731 47.6101 51.6763 47.6094 52.6227 47.6084H52.6255ZM52.6255 53.0633C53.5804 53.0633 54.5353 53.0633 55.4902 53.0633C55.929 53.0633 56.2123 52.8194 56.2172 52.445C56.2222 52.0706 55.9297 51.8077 55.4803 51.8049C54.9987 51.8049 54.517 51.8049 54.0354 51.8049C52.6248 51.8049 51.2143 51.8049 49.8038 51.8049C49.5422 51.8049 49.3172 51.8701 49.1709 52.098C49.1065 52.1875 49.0689 52.2934 49.0627 52.4034C49.0565 52.5134 49.0818 52.6229 49.1358 52.7191C49.1912 52.8292 49.2777 52.9207 49.3846 52.9824C49.4916 53.0441 49.6143 53.0732 49.7377 53.0661C50.6925 53.0619 51.6566 53.0633 52.6199 53.0633H52.6255ZM52.6382 57.2598C51.6833 57.2598 50.7284 57.2598 49.7735 57.2598C49.3446 57.2598 49.0577 57.5248 49.0633 57.8978C49.069 58.2707 49.3502 58.514 49.7665 58.5168C50.2221 58.5203 50.6806 58.5168 51.1334 58.5168C52.5876 58.5168 54.0417 58.5168 55.493 58.5168C55.7806 58.5168 56.0105 58.4284 56.1462 58.1663C56.3712 57.733 56.0527 57.2605 55.5275 57.2549C54.5599 57.2556 53.5959 57.2598 52.6326 57.2598H52.6382ZM45.1285 58.0253C44.8915 57.7765 44.6742 57.5381 44.4457 57.3117C44.1532 57.0221 43.7679 57.006 43.5098 57.2598C43.2517 57.5136 43.2567 57.8956 43.5471 58.1915C43.9155 58.5654 44.2875 58.936 44.663 59.3034C44.9766 59.609 45.3176 59.6048 45.6361 59.2949C45.9244 59.0145 46.2071 58.7278 46.4919 58.4432C46.8639 58.0723 47.24 57.7057 47.6043 57.3278C47.7043 57.2337 47.7692 57.1084 47.7884 56.9726C47.8076 56.8368 47.7798 56.6985 47.7098 56.5805C47.5818 56.3526 47.3202 56.2047 47.0685 56.2734C46.9029 56.3239 46.752 56.4134 46.6283 56.5342C46.1305 57.0123 45.6481 57.5059 45.1285 58.0253ZM45.1334 52.5719C44.8697 52.2964 44.6412 52.0426 44.393 51.8105C44.2766 51.695 44.1195 51.6295 43.9553 51.6282C43.7911 51.6269 43.6329 51.6898 43.5147 51.8035C43.4532 51.8603 43.4041 51.9291 43.3702 52.0055C43.3363 52.082 43.3185 52.1645 43.3178 52.2481C43.317 52.3317 43.3335 52.4145 43.366 52.4915C43.3985 52.5685 43.4465 52.6381 43.507 52.696C43.9012 53.1054 44.3046 53.5064 44.7171 53.899C44.7725 53.9563 44.8389 54.0019 44.9123 54.0331C44.9858 54.0642 45.0648 54.0803 45.1446 54.0803C45.2245 54.0803 45.3035 54.0642 45.3769 54.0331C45.4504 54.0019 45.5168 53.9563 45.5722 53.899C46.2641 53.2264 46.9457 52.5464 47.6169 51.8589C47.7121 51.7659 47.7733 51.6437 47.7907 51.512C47.8082 51.3802 47.7809 51.2464 47.7133 51.1319C47.5023 50.7485 47.0263 50.6875 46.6874 51.0184C46.1748 51.5189 45.6741 52.0321 45.1334 52.5719ZM45.1334 47.1135C44.888 46.859 44.6686 46.6228 44.4373 46.3942C44.1462 46.1096 43.7559 46.0991 43.5014 46.3571C43.2468 46.6151 43.2595 46.988 43.5527 47.2888C43.8283 47.5692 44.123 47.8335 44.3866 48.1251C44.9829 48.7855 45.3085 48.7638 45.9076 48.1251C46.4455 47.5503 47.0235 47.0133 47.5733 46.4503C47.92 46.0963 47.8356 45.5908 47.4151 45.4043C47.1529 45.288 46.9053 45.3448 46.6557 45.5922C46.16 46.0851 45.6671 46.5814 45.1334 47.1135Z" fill="white"/>
<path d="M59.3368 41.4569H40C40.0295 40.896 39.9944 40.3352 40.0991 39.8045C40.3171 38.701 41.2558 38 42.4273 38C46.5389 38 50.6519 38 54.7663 38C55.5025 38 56.2429 38 56.9756 38C58.2891 38.007 59.2595 38.9114 59.3396 40.2146C59.3607 40.624 59.3368 41.0341 59.3368 41.4569Z" fill="white"/>
</g>
</g>
<defs>
<clipPath id="clip0_1434_1204">
<rect width="19.3488" height="24.78" fill="white" transform="translate(40 38)"/>
</clipPath>
</defs>
</svg>
