<svg width="100" height="156" viewBox="0 0 100 156" fill="none" xmlns="http://www.w3.org/2000/svg">
<g opacity="0.2">
<rect width="100" height="156" rx="19" fill="#F9FBFF"/>
<path d="M27.6131 109.217C28.4624 109.217 29.1297 109.31 29.6151 109.497C30.1004 109.674 30.4457 109.987 30.6511 110.435C30.8657 110.873 30.9731 111.499 30.9731 112.311C30.9731 113.123 30.8704 113.753 30.6651 114.201C30.4691 114.649 30.1377 114.961 29.6711 115.139C29.2137 115.316 28.6024 115.405 27.8371 115.405C27.4171 115.405 27.0111 115.391 26.6191 115.363C26.2364 115.335 25.8771 115.297 25.5411 115.251C25.2144 115.204 24.9344 115.157 24.7011 115.111C24.4677 115.055 24.3044 115.008 24.2111 114.971L24.2531 114.033C24.7851 114.033 25.3311 114.033 25.8911 114.033C26.4604 114.033 27.0251 114.033 27.5851 114.033C27.9957 114.023 28.3177 113.972 28.5511 113.879C28.7937 113.785 28.9617 113.617 29.0551 113.375C29.1577 113.123 29.2091 112.768 29.2091 112.311C29.2091 111.853 29.1577 111.503 29.0551 111.261C28.9617 111.009 28.7937 110.836 28.5511 110.743C28.3177 110.64 27.9957 110.589 27.5851 110.589C26.7637 110.589 26.0591 110.593 25.4711 110.603C24.8831 110.612 24.4817 110.626 24.2671 110.645L24.0711 109.343C24.4444 109.305 24.7944 109.277 25.1211 109.259C25.4571 109.24 25.8164 109.231 26.1991 109.231C26.5911 109.221 27.0624 109.217 27.6131 109.217ZM25.8211 109.343V119.003H24.0711V109.343H25.8211ZM33.2473 112.129V116.777C33.238 117.122 33.3033 117.369 33.4433 117.519C33.5926 117.668 33.8306 117.743 34.1573 117.743C34.484 117.743 34.8106 117.673 35.1373 117.533C35.464 117.393 35.8606 117.183 36.3273 116.903L36.4953 117.911C35.9726 118.331 35.4686 118.648 34.9833 118.863C34.498 119.077 33.994 119.185 33.4713 119.185C32.1926 119.185 31.5533 118.555 31.5533 117.295V112.129H33.2473ZM37.8533 112.129V119.003H36.5093L36.3273 117.673L36.1593 117.477V112.129H37.8533ZM40.2334 112.129L40.4574 113.473L40.6114 113.669V119.003H38.9174V112.129H40.2334ZM43.5934 111.961L43.4254 113.529H42.9354C42.5714 113.529 42.2027 113.589 41.8294 113.711C41.4561 113.832 40.9894 114.014 40.4294 114.257L40.3174 113.263C40.8027 112.852 41.2974 112.535 41.8014 112.311C42.3054 112.077 42.7907 111.961 43.2574 111.961H43.5934ZM46.8449 111.961C47.0782 111.961 47.3349 111.97 47.6149 111.989C47.8949 112.007 48.1796 112.045 48.4689 112.101C48.7582 112.157 49.0196 112.236 49.2529 112.339L49.0569 113.403C48.7116 113.384 48.3662 113.37 48.0209 113.361C47.6849 113.351 47.3909 113.347 47.1389 113.347C46.6629 113.347 46.2849 113.412 46.0049 113.543C45.7342 113.664 45.5382 113.888 45.4169 114.215C45.2956 114.532 45.2349 114.98 45.2349 115.559C45.2349 116.137 45.2956 116.59 45.4169 116.917C45.5382 117.234 45.7342 117.458 46.0049 117.589C46.2849 117.719 46.6629 117.785 47.1389 117.785C47.2789 117.785 47.4609 117.78 47.6849 117.771C47.9182 117.761 48.1656 117.747 48.4269 117.729C48.6976 117.71 48.9589 117.687 49.2109 117.659L49.3789 118.751C49.0149 118.9 48.6089 119.007 48.1609 119.073C47.7129 119.138 47.2696 119.171 46.8309 119.171C46.0096 119.171 45.3516 119.054 44.8569 118.821C44.3622 118.587 44.0029 118.209 43.7789 117.687C43.5642 117.155 43.4569 116.445 43.4569 115.559C43.4569 114.672 43.5689 113.967 43.7929 113.445C44.0169 112.913 44.3762 112.535 44.8709 112.311C45.3656 112.077 46.0236 111.961 46.8449 111.961ZM54.4469 111.961C55.7256 111.961 56.3649 112.591 56.3649 113.851V119.003H54.6569V114.369C54.6569 113.995 54.5916 113.739 54.4609 113.599C54.3396 113.459 54.1249 113.389 53.8169 113.389C53.4716 113.389 53.1169 113.463 52.7529 113.613C52.3889 113.762 51.9502 113.986 51.4369 114.285L51.3109 113.305C51.8336 112.875 52.3562 112.544 52.8789 112.311C53.4109 112.077 53.9336 111.961 54.4469 111.961ZM51.6189 109.203L51.6329 111.723C51.6329 112.068 51.6142 112.395 51.5769 112.703C51.5489 113.001 51.5069 113.258 51.4509 113.473L51.6189 113.669V119.003H49.9249V109.203H51.6189ZM60.8417 111.961C61.3924 111.961 61.8544 112.035 62.2277 112.185C62.6104 112.325 62.8997 112.567 63.0957 112.913C63.2917 113.258 63.3897 113.734 63.3897 114.341V119.003H62.0457L61.8077 117.519L61.6817 117.323V114.327C61.6817 113.963 61.5977 113.701 61.4297 113.543C61.2617 113.375 60.9397 113.291 60.4637 113.291C60.1091 113.291 59.6611 113.305 59.1197 113.333C58.5877 113.361 58.0511 113.398 57.5097 113.445L57.3557 112.283C57.6824 112.217 58.0511 112.161 58.4617 112.115C58.8724 112.068 59.2877 112.031 59.7077 112.003C60.1277 111.975 60.5057 111.961 60.8417 111.961ZM62.6617 114.775L62.6477 115.825H59.4977C59.2177 115.834 59.0171 115.909 58.8957 116.049C58.7744 116.189 58.7137 116.38 58.7137 116.623V117.001C58.7137 117.281 58.7884 117.495 58.9377 117.645C59.0871 117.785 59.3204 117.855 59.6377 117.855C59.8897 117.855 60.1697 117.803 60.4777 117.701C60.7857 117.598 61.0891 117.449 61.3877 117.253C61.6957 117.057 61.9711 116.823 62.2137 116.553V117.435C62.1204 117.575 61.9851 117.743 61.8077 117.939C61.6304 118.125 61.4111 118.312 61.1497 118.499C60.8977 118.685 60.6037 118.839 60.2677 118.961C59.9411 119.082 59.5771 119.143 59.1757 119.143C58.7651 119.143 58.3964 119.073 58.0697 118.933C57.7431 118.783 57.4864 118.569 57.2997 118.289C57.1131 117.999 57.0197 117.645 57.0197 117.225V116.497C57.0197 115.955 57.1971 115.535 57.5517 115.237C57.9157 114.929 58.4104 114.775 59.0357 114.775H62.6617ZM66.8694 111.961C67.1867 111.961 67.5274 111.97 67.8914 111.989C68.2647 112.007 68.6287 112.035 68.9834 112.073C69.338 112.101 69.6554 112.143 69.9354 112.199L69.8234 113.305C69.3754 113.295 68.9274 113.286 68.4794 113.277C68.0407 113.258 67.6067 113.249 67.1774 113.249C66.7947 113.249 66.4914 113.258 66.2674 113.277C66.0527 113.295 65.8987 113.351 65.8054 113.445C65.7214 113.538 65.6794 113.697 65.6794 113.921C65.6794 114.191 65.754 114.373 65.9034 114.467C66.0527 114.551 66.2954 114.635 66.6314 114.719L68.5074 115.153C69.0674 115.293 69.4827 115.507 69.7534 115.797C70.024 116.077 70.1594 116.511 70.1594 117.099C70.1594 117.668 70.052 118.102 69.8374 118.401C69.632 118.69 69.3007 118.891 68.8434 119.003C68.3954 119.105 67.8214 119.157 67.1214 119.157C66.8507 119.157 66.4494 119.143 65.9174 119.115C65.3854 119.096 64.802 119.035 64.1674 118.933L64.2794 117.827C64.466 117.827 64.6854 117.831 64.9374 117.841C65.1987 117.85 65.474 117.855 65.7634 117.855C66.062 117.855 66.3654 117.855 66.6734 117.855C67.168 117.855 67.546 117.841 67.8074 117.813C68.078 117.775 68.2647 117.705 68.3674 117.603C68.47 117.491 68.5214 117.332 68.5214 117.127C68.5214 116.865 68.4327 116.693 68.2554 116.609C68.0874 116.515 67.8354 116.427 67.4994 116.343L65.6654 115.895C65.2454 115.783 64.9187 115.643 64.6854 115.475C64.452 115.297 64.284 115.083 64.1814 114.831C64.0787 114.569 64.0274 114.252 64.0274 113.879C64.0274 113.375 64.1207 112.983 64.3074 112.703C64.5034 112.423 64.8067 112.227 65.2174 112.115C65.6374 112.003 66.188 111.951 66.8694 111.961ZM73.9182 111.961C75.0288 111.961 75.8268 112.157 76.3122 112.549C76.7975 112.931 77.0448 113.501 77.0542 114.257C77.0635 114.882 76.9142 115.358 76.6062 115.685C76.3075 116.002 75.8082 116.161 75.1082 116.161H71.1882V115.111H74.6462C74.9635 115.111 75.1642 115.027 75.2482 114.859C75.3415 114.691 75.3882 114.485 75.3882 114.243C75.3788 113.86 75.2668 113.594 75.0522 113.445C74.8468 113.295 74.4922 113.221 73.9882 113.221C73.5495 113.221 73.2088 113.281 72.9662 113.403C72.7235 113.524 72.5508 113.743 72.4482 114.061C72.3548 114.378 72.3082 114.835 72.3082 115.433C72.3082 116.067 72.3688 116.557 72.4902 116.903C72.6115 117.248 72.8122 117.486 73.0922 117.617C73.3722 117.738 73.7455 117.799 74.2122 117.799C74.5575 117.799 74.9542 117.785 75.4022 117.757C75.8595 117.729 76.2982 117.691 76.7182 117.645L76.8862 118.723C76.6342 118.825 76.3448 118.909 76.0182 118.975C75.6915 119.04 75.3508 119.087 74.9962 119.115C74.6508 119.152 74.3242 119.171 74.0162 119.171C73.1762 119.171 72.4995 119.049 71.9862 118.807C71.4822 118.555 71.1135 118.163 70.8802 117.631C70.6562 117.099 70.5442 116.413 70.5442 115.573C70.5442 114.667 70.6562 113.953 70.8802 113.431C71.1135 112.899 71.4775 112.521 71.9722 112.297C72.4762 112.073 73.1248 111.961 73.9182 111.961ZM16.7651 127.217C17.4931 127.217 18.1091 127.301 18.6131 127.469C19.1264 127.627 19.5371 127.898 19.8451 128.281C20.1624 128.654 20.3911 129.163 20.5311 129.807C20.6711 130.441 20.7411 131.23 20.7411 132.173C20.7411 133.115 20.6711 133.909 20.5311 134.553C20.3911 135.187 20.1624 135.696 19.8451 136.079C19.5371 136.452 19.1264 136.723 18.6131 136.891C18.1091 137.049 17.4931 137.129 16.7651 137.129C16.0651 137.129 15.4164 137.115 14.8191 137.087C14.2217 137.068 13.6571 137.04 13.1251 137.003L13.8531 135.659C14.2264 135.677 14.6557 135.696 15.1411 135.715C15.6264 135.724 16.1677 135.729 16.7651 135.729C17.3064 135.729 17.7311 135.626 18.0391 135.421C18.3564 135.206 18.5804 134.842 18.7111 134.329C18.8417 133.806 18.9071 133.087 18.9071 132.173C18.9071 131.258 18.8417 130.544 18.7111 130.031C18.5804 129.508 18.3564 129.139 18.0391 128.925C17.7311 128.71 17.3064 128.603 16.7651 128.603C16.1864 128.603 15.6684 128.607 15.2111 128.617C14.7631 128.626 14.3244 128.631 13.8951 128.631L13.1251 127.343C13.6571 127.305 14.2171 127.277 14.8051 127.259C15.4024 127.231 16.0557 127.217 16.7651 127.217ZM14.8751 127.343V137.003H13.1251V127.343H14.8751ZM24.6723 129.961C25.783 129.961 26.581 130.157 27.0663 130.549C27.5517 130.931 27.799 131.501 27.8083 132.257C27.8177 132.882 27.6683 133.358 27.3603 133.685C27.0617 134.002 26.5623 134.161 25.8623 134.161H21.9423V133.111H25.4003C25.7177 133.111 25.9183 133.027 26.0023 132.859C26.0957 132.691 26.1423 132.485 26.1423 132.243C26.133 131.86 26.021 131.594 25.8063 131.445C25.601 131.295 25.2463 131.221 24.7423 131.221C24.3037 131.221 23.963 131.281 23.7203 131.403C23.4777 131.524 23.305 131.743 23.2023 132.061C23.109 132.378 23.0623 132.835 23.0623 133.433C23.0623 134.067 23.123 134.557 23.2443 134.903C23.3657 135.248 23.5663 135.486 23.8463 135.617C24.1263 135.738 24.4997 135.799 24.9663 135.799C25.3117 135.799 25.7083 135.785 26.1563 135.757C26.6137 135.729 27.0523 135.691 27.4723 135.645L27.6403 136.723C27.3883 136.825 27.099 136.909 26.7723 136.975C26.4457 137.04 26.105 137.087 25.7503 137.115C25.405 137.152 25.0783 137.171 24.7703 137.171C23.9303 137.171 23.2537 137.049 22.7403 136.807C22.2363 136.555 21.8677 136.163 21.6343 135.631C21.4103 135.099 21.2983 134.413 21.2983 133.573C21.2983 132.667 21.4103 131.953 21.6343 131.431C21.8677 130.899 22.2317 130.521 22.7263 130.297C23.2303 130.073 23.879 129.961 24.6723 129.961ZM30.759 128.169V134.931C30.759 135.22 30.8196 135.425 30.941 135.547C31.0716 135.668 31.291 135.729 31.599 135.729H32.551L32.733 136.919C32.5743 136.965 32.383 137.007 32.159 137.045C31.935 137.082 31.7156 137.105 31.501 137.115C31.2863 137.133 31.1043 137.143 30.955 137.143C30.3576 137.143 29.891 136.984 29.555 136.667C29.2283 136.34 29.065 135.873 29.065 135.267V128.169H30.759ZM32.803 130.129V131.305H27.847V130.199L29.191 130.129H32.803ZM36.6734 129.961C37.2241 129.961 37.6861 130.035 38.0594 130.185C38.4421 130.325 38.7314 130.567 38.9274 130.913C39.1234 131.258 39.2214 131.734 39.2214 132.341V137.003H37.8774L37.6394 135.519L37.5134 135.323V132.327C37.5134 131.963 37.4294 131.701 37.2614 131.543C37.0934 131.375 36.7714 131.291 36.2954 131.291C35.9407 131.291 35.4927 131.305 34.9514 131.333C34.4194 131.361 33.8827 131.398 33.3414 131.445L33.1874 130.283C33.5141 130.217 33.8827 130.161 34.2934 130.115C34.7041 130.068 35.1194 130.031 35.5394 130.003C35.9594 129.975 36.3374 129.961 36.6734 129.961ZM38.4934 132.775L38.4794 133.825H35.3294C35.0494 133.834 34.8487 133.909 34.7274 134.049C34.6061 134.189 34.5454 134.38 34.5454 134.623V135.001C34.5454 135.281 34.6201 135.495 34.7694 135.645C34.9187 135.785 35.1521 135.855 35.4694 135.855C35.7214 135.855 36.0014 135.803 36.3094 135.701C36.6174 135.598 36.9207 135.449 37.2194 135.253C37.5274 135.057 37.8027 134.823 38.0454 134.553V135.435C37.9521 135.575 37.8167 135.743 37.6394 135.939C37.4621 136.125 37.2427 136.312 36.9814 136.499C36.7294 136.685 36.4354 136.839 36.0994 136.961C35.7727 137.082 35.4087 137.143 35.0074 137.143C34.5967 137.143 34.2281 137.073 33.9014 136.933C33.5747 136.783 33.3181 136.569 33.1314 136.289C32.9447 135.999 32.8514 135.645 32.8514 135.225V134.497C32.8514 133.955 33.0287 133.535 33.3834 133.237C33.7474 132.929 34.2421 132.775 34.8674 132.775H38.4934ZM41.9591 130.129V137.003H40.2791V130.129H41.9591ZM41.4971 127.147C41.8331 127.147 42.0011 127.315 42.0011 127.651V128.435C42.0011 128.771 41.8331 128.939 41.4971 128.939H40.7411C40.4051 128.939 40.2371 128.771 40.2371 128.435V127.651C40.2371 127.315 40.4051 127.147 40.7411 127.147H41.4971ZM44.7825 127.203L44.7685 134.931C44.7685 135.192 44.8431 135.393 44.9925 135.533C45.1418 135.663 45.3565 135.729 45.6365 135.729H46.2385L46.4345 136.919C46.3318 136.965 46.1871 137.007 46.0005 137.045C45.8231 137.082 45.6365 137.105 45.4405 137.115C45.2538 137.133 45.0905 137.143 44.9505 137.143C44.3811 137.143 43.9285 136.989 43.5925 136.681C43.2565 136.373 43.0885 135.929 43.0885 135.351V127.203H44.7825ZM52.2269 127.217C53.0295 127.217 53.6782 127.301 54.1729 127.469C54.6769 127.637 55.0409 127.926 55.2649 128.337C55.4982 128.738 55.6149 129.307 55.6149 130.045C55.6149 130.53 55.5542 130.945 55.4329 131.291C55.3209 131.627 55.1295 131.897 54.8589 132.103C54.5975 132.299 54.2429 132.425 53.7949 132.481V132.551C53.9535 132.588 54.1169 132.663 54.2849 132.775C54.4622 132.877 54.6209 133.027 54.7609 133.223C54.9102 133.419 55.0222 133.671 55.0969 133.979L55.9789 137.003H54.1309L53.3329 134.021C53.2302 133.685 53.0902 133.451 52.9129 133.321C52.7355 133.181 52.4929 133.111 52.1849 133.111C51.5782 133.111 51.0602 133.111 50.6309 133.111C50.2015 133.101 49.8422 133.092 49.5529 133.083C49.2729 133.073 49.0255 133.069 48.8109 133.069L48.8529 131.739H52.1849C52.6049 131.729 52.9362 131.683 53.1789 131.599C53.4215 131.505 53.5942 131.347 53.6969 131.123C53.7995 130.889 53.8509 130.563 53.8509 130.143C53.8509 129.732 53.7995 129.415 53.6969 129.191C53.5942 128.967 53.4215 128.813 53.1789 128.729C52.9362 128.635 52.6049 128.589 52.1849 128.589C51.3635 128.589 50.6589 128.593 50.0709 128.603C49.4829 128.612 49.0815 128.621 48.8669 128.631L48.6709 127.343C49.0442 127.305 49.3942 127.277 49.7209 127.259C50.0569 127.24 50.4209 127.231 50.8129 127.231C51.2049 127.221 51.6762 127.217 52.2269 127.217ZM50.3929 127.343V137.003H48.6709V127.343H50.3929ZM59.5892 129.961C60.6999 129.961 61.4979 130.157 61.9832 130.549C62.4686 130.931 62.7159 131.501 62.7252 132.257C62.7346 132.882 62.5852 133.358 62.2772 133.685C61.9786 134.002 61.4792 134.161 60.7792 134.161H56.8592V133.111H60.3172C60.6346 133.111 60.8352 133.027 60.9192 132.859C61.0126 132.691 61.0592 132.485 61.0592 132.243C61.0499 131.86 60.9379 131.594 60.7232 131.445C60.5179 131.295 60.1632 131.221 59.6592 131.221C59.2206 131.221 58.8799 131.281 58.6372 131.403C58.3946 131.524 58.2219 131.743 58.1192 132.061C58.0259 132.378 57.9792 132.835 57.9792 133.433C57.9792 134.067 58.0399 134.557 58.1612 134.903C58.2826 135.248 58.4832 135.486 58.7632 135.617C59.0432 135.738 59.4166 135.799 59.8832 135.799C60.2286 135.799 60.6252 135.785 61.0732 135.757C61.5306 135.729 61.9692 135.691 62.3892 135.645L62.5572 136.723C62.3052 136.825 62.0159 136.909 61.6892 136.975C61.3626 137.04 61.0219 137.087 60.6672 137.115C60.3219 137.152 59.9952 137.171 59.6872 137.171C58.8472 137.171 58.1706 137.049 57.6572 136.807C57.1532 136.555 56.7845 136.163 56.5512 135.631C56.3272 135.099 56.2152 134.413 56.2152 133.573C56.2152 132.667 56.3272 131.953 56.5512 131.431C56.7845 130.899 57.1485 130.521 57.6432 130.297C58.1472 130.073 58.7959 129.961 59.5892 129.961ZM67.6778 129.961C68.5272 129.961 69.1385 130.273 69.5118 130.899C69.8852 131.524 70.0718 132.429 70.0718 133.615C70.0718 134.52 69.9738 135.234 69.7778 135.757C69.5912 136.27 69.3065 136.639 68.9238 136.863C68.5412 137.077 68.0558 137.185 67.4678 137.185C67.0012 137.185 66.5438 137.119 66.0958 136.989C65.6572 136.849 65.2512 136.634 64.8778 136.345L64.9898 135.505C65.3538 135.607 65.6805 135.696 65.9698 135.771C66.2592 135.845 66.5765 135.883 66.9218 135.883C67.2672 135.883 67.5378 135.827 67.7338 135.715C67.9392 135.593 68.0885 135.369 68.1818 135.043C68.2752 134.716 68.3218 134.245 68.3218 133.629C68.3218 133.022 68.2798 132.551 68.1958 132.215C68.1118 131.879 67.9718 131.645 67.7758 131.515C67.5892 131.375 67.3418 131.305 67.0338 131.305C66.6978 131.305 66.3805 131.379 66.0818 131.529C65.7832 131.669 65.4378 131.879 65.0458 132.159L64.8498 131.263C65.0645 131.011 65.3212 130.787 65.6198 130.591C65.9278 130.395 66.2592 130.241 66.6138 130.129C66.9685 130.017 67.3232 129.961 67.6778 129.961ZM64.7798 130.129L64.9478 131.459L65.1018 131.655V136.093L65.0318 136.261C65.0598 136.531 65.0785 136.802 65.0878 137.073C65.0972 137.353 65.1018 137.637 65.1018 137.927V139.733H63.4078V130.129H64.7798ZM73.961 129.961C74.801 129.961 75.4683 130.077 75.963 130.311C76.467 130.544 76.8263 130.927 77.041 131.459C77.265 131.991 77.377 132.695 77.377 133.573C77.377 134.45 77.265 135.155 77.041 135.687C76.8263 136.209 76.467 136.592 75.963 136.835C75.4683 137.068 74.801 137.185 73.961 137.185C73.1396 137.185 72.477 137.068 71.973 136.835C71.4783 136.592 71.119 136.209 70.895 135.687C70.671 135.155 70.559 134.45 70.559 133.573C70.559 132.695 70.671 131.991 70.895 131.459C71.119 130.927 71.4783 130.544 71.973 130.311C72.477 130.077 73.1396 129.961 73.961 129.961ZM73.961 131.249C73.5503 131.249 73.2236 131.319 72.981 131.459C72.7476 131.589 72.5796 131.823 72.477 132.159C72.3743 132.495 72.323 132.966 72.323 133.573C72.323 134.179 72.3743 134.651 72.477 134.987C72.5796 135.323 72.7476 135.556 72.981 135.687C73.2236 135.817 73.5503 135.883 73.961 135.883C74.381 135.883 74.7123 135.817 74.955 135.687C75.1976 135.556 75.3656 135.323 75.459 134.987C75.5616 134.651 75.613 134.179 75.613 133.573C75.613 132.966 75.5616 132.495 75.459 132.159C75.3656 131.823 75.1976 131.589 74.955 131.459C74.7123 131.319 74.381 131.249 73.961 131.249ZM79.4501 130.129L79.6741 131.473L79.8281 131.669V137.003H78.1341V130.129H79.4501ZM82.8101 129.961L82.6421 131.529H82.1521C81.7881 131.529 81.4194 131.589 81.0461 131.711C80.6728 131.832 80.2061 132.014 79.6461 132.257L79.5341 131.263C80.0194 130.852 80.5141 130.535 81.0181 130.311C81.5221 130.077 82.0074 129.961 82.4741 129.961H82.8101ZM85.3863 128.169V134.931C85.3863 135.22 85.447 135.425 85.5683 135.547C85.699 135.668 85.9183 135.729 86.2263 135.729H87.1783L87.3603 136.919C87.2016 136.965 87.0103 137.007 86.7863 137.045C86.5623 137.082 86.343 137.105 86.1283 137.115C85.9136 137.133 85.7316 137.143 85.5823 137.143C84.985 137.143 84.5183 136.984 84.1823 136.667C83.8556 136.34 83.6923 135.873 83.6923 135.267V128.169H85.3863ZM87.4303 130.129V131.305H82.4743V130.199L83.8183 130.129H87.4303Z" fill="#333839"/>
<path d="M90.3996 53.6044L53.7441 90.2499" stroke="white" stroke-width="6.29" stroke-miterlimit="10"/>
<path d="M90.3996 53.6044L53.7441 90.2499" stroke="#3F498E" stroke-width="3.42" stroke-miterlimit="10"/>
<path d="M8.6601 52.6618L6 50.0017L45.9905 10.0013" stroke="white" stroke-width="6.29" stroke-miterlimit="10"/>
<path d="M8.6601 52.6618L6 50.0017L45.9905 10.0013" stroke="#3F498E" stroke-width="3.42" stroke-miterlimit="10"/>
<path d="M68.6358 87.9313H31.3153L12 68.6358V31.3153L31.3153 12H68.6358L87.9512 31.3153V68.6358L68.6358 87.9313Z" fill="#3F498E"/>
<path d="M53.742 90.2507L50.0001 94.0026L8.65967 52.6622" stroke="white" stroke-width="6.29" stroke-miterlimit="10"/>
<path d="M53.742 90.2507L50.0001 94.0026L8.65967 52.6622" stroke="#3F498E" stroke-width="3.42" stroke-miterlimit="10"/>
<path d="M45.9897 10L49.9997 6L94.0002 50.0004L90.3972 53.6034" stroke="white" stroke-width="6.29" stroke-miterlimit="10"/>
<path d="M45.9897 10L49.9997 6L94.0002 50.0004L90.3972 53.6034" stroke="#3F498E" stroke-width="3.42" stroke-miterlimit="10"/>
<path d="M55.2705 58.7496C54.9947 57.1894 54.233 55.951 52.9311 55.0865C51.9901 54.46 50.9488 54.198 49.8232 54.2423C47.7067 54.3263 45.4018 55.8911 44.9022 58.7449C44.4187 58.7449 43.9306 58.7644 43.4463 58.7395C43.0226 58.7177 42.7092 58.3601 42.6847 57.9295C42.6801 57.8424 42.6847 57.7545 42.6847 57.6675V41.3687C42.6847 40.575 42.9735 40.2843 43.762 40.2804H45.5451C45.562 40.3581 45.5727 40.4149 45.585 40.4701C45.6823 40.9132 45.942 41.1379 46.3949 41.1386C48.8663 41.1417 51.3373 41.1417 53.8077 41.1386C54.305 41.1386 54.4874 40.9489 54.669 40.2921C55.3717 40.2921 56.0789 40.2711 56.7846 40.3006C57.2015 40.3177 57.4896 40.6738 57.5157 41.1013C57.521 41.1892 57.5157 41.2762 57.5157 41.3641V57.6659C57.5157 58.4542 57.2222 58.7488 56.4375 58.7496H55.2705ZM50.1281 53.1656H44.9283C44.8422 53.1613 44.7559 53.1629 44.67 53.1703C44.4317 53.2045 44.2785 53.3335 44.2793 53.5908C44.28 53.8482 44.4363 53.9741 44.6723 54.0099C44.7487 54.0172 44.8256 54.019 44.9022 54.0153H55.305C55.4005 54.0207 55.4964 54.0155 55.5908 53.9998C55.8023 53.9516 55.9272 53.8132 55.9272 53.5885C55.9272 53.3638 55.8008 53.2263 55.5885 53.1804C55.4939 53.1659 55.3982 53.1613 55.3027 53.1664L50.1281 53.1656ZM50.0676 42.6522H44.8969C44.8012 42.6462 44.7051 42.6503 44.6103 42.6646C44.4003 42.7128 44.2731 42.8497 44.2739 43.0751C44.267 43.1738 44.2981 43.2713 44.3607 43.3472C44.4233 43.423 44.5125 43.4713 44.6095 43.4817C44.7041 43.496 44.7997 43.5017 44.8953 43.4988C48.3619 43.4988 51.8282 43.4988 55.2943 43.4988C55.3898 43.5017 55.4855 43.496 55.5801 43.4817C55.6723 43.4725 55.7579 43.4289 55.8203 43.3594C55.8827 43.2899 55.9175 43.1994 55.918 43.1054C55.9305 43.0124 55.9088 42.918 55.857 42.8402C55.8053 42.7623 55.7272 42.7065 55.6375 42.6833C55.5357 42.6571 55.4305 42.6469 55.3257 42.653C53.575 42.6514 51.8223 42.6512 50.0676 42.6522ZM50.0676 48.7563H55.2981C55.3936 48.761 55.4893 48.7563 55.5839 48.7423C55.6809 48.7309 55.77 48.6825 55.8329 48.6068C55.8958 48.531 55.9279 48.4338 55.9226 48.3349C55.9226 48.1103 55.7977 47.9727 55.5877 47.9229C55.493 47.9077 55.3969 47.903 55.3012 47.9089C51.8341 47.9089 48.3665 47.9089 44.8984 47.9089C44.7838 47.9034 44.6691 47.9141 44.5574 47.9408C44.3597 47.9991 44.231 48.16 44.2854 48.3567C44.3252 48.499 44.4624 48.6311 44.5865 48.7267C44.657 48.7804 44.7896 48.7547 44.893 48.7555L50.0676 48.7563ZM50.0676 46.1023H55.269C55.3743 46.1076 55.4799 46.104 55.5847 46.0914C55.6818 46.0815 55.7713 46.0336 55.8341 45.9578C55.8969 45.882 55.9281 45.7843 55.9211 45.6856C55.9282 45.5869 55.8972 45.4893 55.8348 45.4133C55.7723 45.3373 55.6832 45.2888 55.5862 45.2782C55.4909 45.2659 55.3947 45.2625 55.2989 45.2681H44.8976C44.8017 45.2625 44.7055 45.2659 44.6103 45.2782C44.5133 45.2887 44.4241 45.3369 44.3615 45.4127C44.2989 45.4886 44.2678 45.5861 44.2747 45.6848C44.267 45.7835 44.2977 45.8812 44.3603 45.9571C44.423 46.033 44.5124 46.0809 44.6095 46.0906C44.714 46.1038 44.8193 46.1077 44.9244 46.1023H50.0676ZM50.1021 51.3566H55.2705C55.3661 51.3604 55.4618 51.3583 55.5571 51.3504C55.6546 51.3468 55.7468 51.3044 55.8137 51.2324C55.8807 51.1604 55.917 51.0646 55.9149 50.9656C55.9272 50.7269 55.8023 50.5816 55.5762 50.5318C55.5001 50.5214 55.4231 50.5188 55.3464 50.524H44.8386C44.7717 50.5196 44.7045 50.5214 44.6379 50.5295C44.408 50.5699 44.277 50.7067 44.28 50.9462C44.2831 51.1856 44.4126 51.3248 44.6478 51.3512C44.7432 51.3581 44.8389 51.3599 44.9344 51.3566H50.1021Z" fill="white"/>
<path d="M54.4842 59.5526C54.4811 60.7321 54.0175 61.8624 53.1949 62.696C52.3723 63.5295 51.2577 63.9984 50.095 64.0001C49.5146 63.9998 48.94 63.8832 48.4041 63.657C47.8682 63.4309 47.3817 63.0996 46.9723 62.6822C46.5629 62.2648 46.2388 61.7695 46.0186 61.2247C45.7984 60.6799 45.6864 60.0963 45.689 59.5075C45.6989 58.3233 46.1717 57.1915 47.0036 56.3606C47.8355 55.5298 48.9584 55.0679 50.1257 55.0764C51.2884 55.0846 52.4004 55.5606 53.2176 56.3998C54.0348 57.2391 54.4903 58.373 54.4842 59.5526ZM50.4996 60.1807C50.4996 59.7058 50.5034 59.23 50.4996 58.755C50.4996 58.4728 50.3333 58.2886 50.0958 58.2886C49.8582 58.2886 49.6835 58.4573 49.682 58.7426C49.6759 59.6832 49.6759 60.6241 49.682 61.5653C49.682 61.8653 49.8353 62.0239 50.0828 62.0278C50.3303 62.0317 50.4973 61.8576 50.5011 61.5497C50.5065 61.0926 50.5027 60.6355 50.5027 60.1807H50.4996ZM50.4996 57.4715C50.5022 57.4161 50.4936 57.3607 50.4742 57.3087C50.4549 57.2568 50.4252 57.2095 50.387 57.1697C50.3489 57.1298 50.3031 57.0984 50.2524 57.0773C50.2018 57.0563 50.1474 57.046 50.0927 57.0471C50.0404 57.0446 49.988 57.0527 49.9388 57.071C49.8896 57.0893 49.8445 57.1173 49.8061 57.1535C49.7677 57.1897 49.7368 57.2333 49.7152 57.2818C49.6937 57.3303 49.6818 57.3826 49.6805 57.4358C49.676 57.4912 49.6826 57.5469 49.7 57.5996C49.7174 57.6523 49.7452 57.7008 49.7817 57.7423C49.8182 57.7837 49.8626 57.8172 49.9123 57.8407C49.9619 57.8642 50.0157 57.8772 50.0705 57.8789C50.1252 57.8811 50.1797 57.8722 50.231 57.8529C50.2822 57.8336 50.3292 57.8041 50.3692 57.7662C50.4092 57.7283 50.4414 57.6828 50.4639 57.6322C50.4864 57.5816 50.4988 57.527 50.5004 57.4715H50.4996Z" fill="white"/>
<path d="M54.645 39.4414V38.5707H55.7438C56.3377 38.5707 56.9315 38.5707 57.5254 38.5707C58.5568 38.5707 59.1951 39.212 59.1958 40.2576C59.1989 44.1446 59.1989 48.0315 59.1958 51.9184C59.1958 54.2117 59.1958 56.5053 59.1958 58.7991C59.1958 59.627 58.7476 60.2326 58.0097 60.4075C57.8311 60.4414 57.6495 60.4555 57.4679 60.4495C56.7415 60.4534 56.012 60.4495 55.2573 60.4495C55.2825 60.1541 55.3055 59.8882 55.3339 59.5765C55.8067 59.5765 56.2718 59.5866 56.7361 59.5765C57.0985 59.5705 57.4485 59.442 57.7307 59.2113C58.0128 58.9807 58.2111 58.661 58.294 58.3031C58.3334 58.1131 58.3506 57.9189 58.3453 57.7248C58.3453 52.2535 58.3453 46.7817 58.3453 41.3094C58.3453 40.1278 57.6687 39.4437 56.5109 39.4437L54.645 39.4414Z" fill="white"/>
<path d="M45.5516 38.6012V39.4415C44.9462 39.4415 44.3455 39.4368 43.7455 39.4415C43.5355 39.4381 43.3256 39.4571 43.1195 39.4983C42.7812 39.5781 42.4769 39.7657 42.2512 40.0336C42.0256 40.3014 41.8902 40.6355 41.8651 40.987C41.8567 41.0935 41.8536 41.2007 41.8536 41.3072C41.8536 46.7801 41.8536 52.2531 41.8536 57.7265C41.8536 58.5132 42.1425 59.111 42.8612 59.4367C43.0911 59.5393 43.3601 59.5627 43.6137 59.5767C44.0221 59.5984 44.4329 59.5829 44.8505 59.5829C44.878 59.8822 44.9026 60.1488 44.9271 60.4536H43.9126C43.4628 60.4536 43.0122 60.4598 42.5616 60.4536C41.6506 60.438 41.0207 59.7943 41 58.8669C41 58.828 41 58.7892 41 58.7503C41 52.5965 41 46.4429 41 40.2896C41 39.7991 41.1165 39.3684 41.4682 39.0202C41.7329 38.745 42.0938 38.5866 42.4728 38.5794C43.4689 38.5669 44.465 38.5747 45.4612 38.5755C45.4922 38.5803 45.5226 38.5889 45.5516 38.6012Z" fill="white"/>
<path d="M46.4165 40.2889V37.8098H47.0678C47.3552 37.8098 47.6433 37.8098 47.9306 37.8098C48.2946 37.8059 48.4325 37.6667 48.4417 37.3021C48.4655 36.3747 48.8425 36 49.752 36C50.0394 36 50.3267 36 50.6141 36C51.2838 36.0062 51.7267 36.4454 51.7504 37.1272C51.7504 37.1948 51.7504 37.2633 51.7504 37.3309C51.7627 37.6597 51.9037 37.8051 52.2332 37.8082C52.7389 37.8136 53.2447 37.8082 53.7657 37.8082V40.2873L46.4165 40.2889Z" fill="white"/>
</g>
</svg>
