<svg width="100" height="156" viewBox="0 0 100 156" fill="none" xmlns="http://www.w3.org/2000/svg">
<g opacity="0.3">
<rect width="100" height="156" rx="19" fill="#F9FBFF"/>
<path d="M37.5243 109.217C38.3737 109.217 39.041 109.31 39.5263 109.497C40.0117 109.674 40.357 109.987 40.5623 110.435C40.777 110.873 40.8843 111.499 40.8843 112.311C40.8843 113.123 40.7817 113.753 40.5763 114.201C40.3803 114.649 40.049 114.961 39.5823 115.139C39.125 115.316 38.5137 115.405 37.7483 115.405C37.3283 115.405 36.9223 115.391 36.5303 115.363C36.1477 115.335 35.7883 115.297 35.4523 115.251C35.1257 115.204 34.8457 115.157 34.6123 115.111C34.379 115.055 34.2157 115.008 34.1223 114.971L34.1643 114.033C34.6963 114.033 35.2423 114.033 35.8023 114.033C36.3717 114.033 36.9363 114.033 37.4963 114.033C37.907 114.023 38.229 113.972 38.4623 113.879C38.705 113.785 38.873 113.617 38.9663 113.375C39.069 113.123 39.1203 112.768 39.1203 112.311C39.1203 111.853 39.069 111.503 38.9663 111.261C38.873 111.009 38.705 110.836 38.4623 110.743C38.229 110.64 37.907 110.589 37.4963 110.589C36.675 110.589 35.9703 110.593 35.3823 110.603C34.7943 110.612 34.393 110.626 34.1783 110.645L33.9823 109.343C34.3557 109.305 34.7057 109.277 35.0323 109.259C35.3683 109.24 35.7277 109.231 36.1103 109.231C36.5023 109.221 36.9737 109.217 37.5243 109.217ZM35.7323 109.343V119.003H33.9823V109.343H35.7323ZM44.0826 112.129L44.3066 113.473L44.4606 113.669V119.003H42.7666V112.129H44.0826ZM47.4426 111.961L47.2746 113.529H46.7846C46.4206 113.529 46.0519 113.589 45.6786 113.711C45.3052 113.832 44.8386 114.014 44.2786 114.257L44.1666 113.263C44.6519 112.852 45.1466 112.535 45.6506 112.311C46.1546 112.077 46.6399 111.961 47.1066 111.961H47.4426ZM50.7468 112.129V119.003H49.0668V112.129H50.7468ZM50.2848 109.147C50.6208 109.147 50.7888 109.315 50.7888 109.651V110.435C50.7888 110.771 50.6208 110.939 50.2848 110.939H49.5288C49.1928 110.939 49.0248 110.771 49.0248 110.435V109.651C49.0248 109.315 49.1928 109.147 49.5288 109.147H50.2848ZM57.6442 111.961C58.9229 111.961 59.5622 112.591 59.5622 113.851V119.003H57.8682V114.369C57.8682 113.995 57.8029 113.739 57.6722 113.599C57.5415 113.459 57.3222 113.389 57.0142 113.389C56.6689 113.389 56.3142 113.468 55.9502 113.627C55.5862 113.776 55.1475 113.995 54.6342 114.285L54.5642 113.263C55.0682 112.843 55.5815 112.521 56.1042 112.297C56.6269 112.073 57.1402 111.961 57.6442 111.961ZM54.5082 112.129L54.6762 113.473L54.8162 113.669V119.003H53.1222V112.129H54.5082ZM64.109 110.169V116.931C64.109 117.22 64.1697 117.425 64.291 117.547C64.4217 117.668 64.641 117.729 64.949 117.729H65.901L66.083 118.919C65.9244 118.965 65.733 119.007 65.509 119.045C65.285 119.082 65.0657 119.105 64.851 119.115C64.6364 119.133 64.4544 119.143 64.305 119.143C63.7077 119.143 63.241 118.984 62.905 118.667C62.5784 118.34 62.415 117.873 62.415 117.267V110.169H64.109ZM66.153 112.129V113.305H61.197V112.199L62.541 112.129H66.153ZM29.1679 127.175C29.6065 127.175 29.9799 127.189 30.2879 127.217C30.5959 127.235 30.8805 127.268 31.1419 127.315C31.4032 127.352 31.6739 127.408 31.9539 127.483L31.7999 128.785C31.5105 128.766 31.2399 128.752 30.9879 128.743C30.7359 128.724 30.4652 128.71 30.1759 128.701C29.8959 128.691 29.5599 128.687 29.1679 128.687C28.6265 128.687 28.2019 128.794 27.8939 129.009C27.5859 129.223 27.3665 129.583 27.2359 130.087C27.1145 130.591 27.0539 131.286 27.0539 132.173C27.0539 133.059 27.1145 133.755 27.2359 134.259C27.3665 134.763 27.5859 135.122 27.8939 135.337C28.2019 135.551 28.6265 135.659 29.1679 135.659C29.7932 135.659 30.3159 135.649 30.7359 135.631C31.1652 135.603 31.5852 135.565 31.9959 135.519L32.1499 136.807C31.7299 136.937 31.2959 137.031 30.8479 137.087C30.3999 137.143 29.8399 137.171 29.1679 137.171C28.1972 137.171 27.4225 137.012 26.8439 136.695C26.2652 136.368 25.8452 135.841 25.5839 135.113C25.3319 134.385 25.2059 133.405 25.2059 132.173C25.2059 130.941 25.3319 129.961 25.5839 129.233C25.8452 128.505 26.2652 127.982 26.8439 127.665C27.4225 127.338 28.1972 127.175 29.1679 127.175ZM37.065 129.961C37.905 129.961 38.5723 130.077 39.067 130.311C39.571 130.544 39.9303 130.927 40.145 131.459C40.369 131.991 40.481 132.695 40.481 133.573C40.481 134.45 40.369 135.155 40.145 135.687C39.9303 136.209 39.571 136.592 39.067 136.835C38.5723 137.068 37.905 137.185 37.065 137.185C36.2436 137.185 35.581 137.068 35.077 136.835C34.5823 136.592 34.223 136.209 33.999 135.687C33.775 135.155 33.663 134.45 33.663 133.573C33.663 132.695 33.775 131.991 33.999 131.459C34.223 130.927 34.5823 130.544 35.077 130.311C35.581 130.077 36.2436 129.961 37.065 129.961ZM37.065 131.249C36.6543 131.249 36.3276 131.319 36.085 131.459C35.8516 131.589 35.6836 131.823 35.581 132.159C35.4783 132.495 35.427 132.966 35.427 133.573C35.427 134.179 35.4783 134.651 35.581 134.987C35.6836 135.323 35.8516 135.556 36.085 135.687C36.3276 135.817 36.6543 135.883 37.065 135.883C37.485 135.883 37.8163 135.817 38.059 135.687C38.3016 135.556 38.4696 135.323 38.563 134.987C38.6656 134.651 38.717 134.179 38.717 133.573C38.717 132.966 38.6656 132.495 38.563 132.159C38.4696 131.823 38.3016 131.589 38.059 131.459C37.8163 131.319 37.485 131.249 37.065 131.249ZM47.0201 129.961C48.2987 129.961 48.9381 130.591 48.9381 131.851V137.003H47.2441V132.369C47.2441 131.995 47.1787 131.739 47.0481 131.599C46.9174 131.459 46.6981 131.389 46.3901 131.389C46.0447 131.389 45.6901 131.468 45.3261 131.627C44.9621 131.776 44.5234 131.995 44.0101 132.285L43.9401 131.263C44.4441 130.843 44.9574 130.521 45.4801 130.297C46.0027 130.073 46.5161 129.961 47.0201 129.961ZM43.8841 130.129L44.0521 131.473L44.1921 131.669V137.003H42.4981V130.129H43.8841ZM53.4849 128.169V134.931C53.4849 135.22 53.5456 135.425 53.6669 135.547C53.7976 135.668 54.0169 135.729 54.3249 135.729H55.2769L55.4589 136.919C55.3002 136.965 55.1089 137.007 54.8849 137.045C54.6609 137.082 54.4416 137.105 54.2269 137.115C54.0122 137.133 53.8302 137.143 53.6809 137.143C53.0836 137.143 52.6169 136.984 52.2809 136.667C51.9542 136.34 51.7909 135.873 51.7909 135.267V128.169H53.4849ZM55.5289 130.129V131.305H50.5729V130.199L51.9169 130.129H55.5289ZM58.5173 130.129L58.7413 131.473L58.8953 131.669V137.003H57.2013V130.129H58.5173ZM61.8773 129.961L61.7093 131.529H61.2193C60.8553 131.529 60.4867 131.589 60.1133 131.711C59.74 131.832 59.2733 132.014 58.7133 132.257L58.6013 131.263C59.0867 130.852 59.5813 130.535 60.0853 130.311C60.5893 130.077 61.0747 129.961 61.5413 129.961H61.8773ZM66.4168 129.961C67.2568 129.961 67.9242 130.077 68.4188 130.311C68.9228 130.544 69.2822 130.927 69.4968 131.459C69.7208 131.991 69.8328 132.695 69.8328 133.573C69.8328 134.45 69.7208 135.155 69.4968 135.687C69.2822 136.209 68.9228 136.592 68.4188 136.835C67.9242 137.068 67.2568 137.185 66.4168 137.185C65.5955 137.185 64.9328 137.068 64.4288 136.835C63.9342 136.592 63.5748 136.209 63.3508 135.687C63.1268 135.155 63.0148 134.45 63.0148 133.573C63.0148 132.695 63.1268 131.991 63.3508 131.459C63.5748 130.927 63.9342 130.544 64.4288 130.311C64.9328 130.077 65.5955 129.961 66.4168 129.961ZM66.4168 131.249C66.0062 131.249 65.6795 131.319 65.4368 131.459C65.2035 131.589 65.0355 131.823 64.9328 132.159C64.8302 132.495 64.7788 132.966 64.7788 133.573C64.7788 134.179 64.8302 134.651 64.9328 134.987C65.0355 135.323 65.2035 135.556 65.4368 135.687C65.6795 135.817 66.0062 135.883 66.4168 135.883C66.8368 135.883 67.1682 135.817 67.4108 135.687C67.6535 135.556 67.8215 135.323 67.9148 134.987C68.0175 134.651 68.0688 134.179 68.0688 133.573C68.0688 132.966 68.0175 132.495 67.9148 132.159C67.8215 131.823 67.6535 131.589 67.4108 131.459C67.1682 131.319 66.8368 131.249 66.4168 131.249ZM73.5579 127.203L73.5439 134.931C73.5439 135.192 73.6186 135.393 73.7679 135.533C73.9173 135.663 74.1319 135.729 74.4119 135.729H75.0139L75.2099 136.919C75.1073 136.965 74.9626 137.007 74.7759 137.045C74.5986 137.082 74.4119 137.105 74.2159 137.115C74.0293 137.133 73.8659 137.143 73.7259 137.143C73.1566 137.143 72.7039 136.989 72.3679 136.681C72.0319 136.373 71.8639 135.929 71.8639 135.351V127.203H73.5579Z" fill="#333839"/>
<path d="M90.3994 53.6045L53.7439 90.2501" stroke="white" stroke-width="6.29" stroke-miterlimit="10"/>
<path d="M90.3994 53.6045L53.7439 90.2501" stroke="#A446A4" stroke-width="3.42" stroke-miterlimit="10"/>
<path d="M8.6601 52.6616L6 50.0016L45.9905 10.0012" stroke="white" stroke-width="6.29" stroke-miterlimit="10"/>
<path d="M8.6601 52.6616L6 50.0016L45.9905 10.0012" stroke="#A446A4" stroke-width="3.42" stroke-miterlimit="10"/>
<path d="M68.6358 87.9313H31.3153L12 68.6358V31.3153L31.3153 12H68.6358L87.9512 31.3153V68.6358L68.6358 87.9313Z" fill="#A446A4"/>
<path d="M53.742 90.2506L50.0001 94.0025L8.65967 52.6621" stroke="white" stroke-width="6.29" stroke-miterlimit="10"/>
<path d="M53.742 90.2506L50.0001 94.0025L8.65967 52.6621" stroke="#A446A4" stroke-width="3.42" stroke-miterlimit="10"/>
<path d="M45.9895 10L49.9995 6L93.9999 50.0004L90.3969 53.6034" stroke="white" stroke-width="6.29" stroke-miterlimit="10"/>
<path d="M45.9895 10L49.9995 6L93.9999 50.0004L90.3969 53.6034" stroke="#A446A4" stroke-width="3.42" stroke-miterlimit="10"/>
<path d="M60.4865 60.1155C60.4865 59.6417 60.4904 59.1843 60.4865 58.7261C60.4779 57.8488 59.8915 57.2562 59.015 57.2562C53.0081 57.2562 47.0009 57.2562 40.9935 57.2562C40.1147 57.2562 39.5267 57.8465 39.5189 58.723C39.5142 59.1882 39.5189 59.6534 39.5189 60.1139C37.6424 60.3962 36.0692 59.0811 36.0332 57.3688C35.9824 54.9903 35.9973 52.6095 36.0286 50.2302C36.0481 48.772 37.2796 47.557 38.7385 47.4655C38.8746 47.4569 39.0114 47.4514 39.1475 47.4514C46.3835 47.4514 53.6195 47.4514 60.8556 47.4514C62.1722 47.4514 63.1551 47.9909 63.7188 49.1911C63.8778 49.5254 63.9655 49.8891 63.976 50.2591C63.9979 52.6189 64.0167 54.9793 63.976 57.3391C63.9487 59.0068 62.4443 60.3962 60.4865 60.1155ZM42.2445 53.4852C43.1306 53.4852 44.0168 53.4852 44.9029 53.4852C45.0098 53.4877 45.1166 53.4796 45.2219 53.4609C45.3528 53.4382 45.4715 53.3701 45.5573 53.2686C45.6431 53.1671 45.6904 53.0387 45.691 52.9058C45.6974 52.7676 45.6533 52.6318 45.567 52.5236C45.4807 52.4155 45.3581 52.3423 45.2219 52.3178C45.1165 52.2981 45.0093 52.2897 44.9021 52.2928C43.1179 52.2928 41.3333 52.2928 39.5486 52.2928C39.4123 52.2867 39.276 52.3031 39.1451 52.3413C39.0265 52.3765 38.9235 52.4512 38.8532 52.553C38.783 52.6549 38.7497 52.7777 38.7589 52.9011C38.7558 53.0245 38.7945 53.1454 38.8687 53.244C38.9429 53.3427 39.0483 53.4133 39.1678 53.4445C39.2906 53.4756 39.4173 53.4888 39.5439 53.4836C40.4493 53.486 41.3469 53.4852 42.2445 53.4852ZM61.0096 52.8988C61.0116 52.7871 60.9913 52.6761 60.9498 52.5724C60.9084 52.4686 60.8468 52.3742 60.7684 52.2945C60.6901 52.2149 60.5967 52.1517 60.4936 52.1085C60.3906 52.0654 60.28 52.0433 60.1683 52.0434C59.9474 52.0464 59.7363 52.135 59.5795 52.2907C59.4226 52.4463 59.3324 52.6568 59.3278 52.8777C59.3276 53.1038 59.4171 53.3207 59.5768 53.4808C59.7364 53.6409 59.9531 53.7311 60.1792 53.7315C60.3996 53.7298 60.6106 53.6416 60.7665 53.4858C60.9224 53.33 61.0109 53.1192 61.0127 52.8988H61.0096Z" fill="white"/>
<path d="M43.2749 46.7876V46.4686C43.2749 43.7481 43.2749 41.028 43.2749 38.3081C43.2749 37.4371 43.7128 37.001 44.5885 37C48.2153 37 51.8422 37 55.4691 37C55.9335 37 56.3041 37.1486 56.5684 37.563C56.0211 38.14 55.6122 38.7983 55.4347 39.5771C55.0852 41.1174 55.4441 42.47 56.5293 43.6225C56.5952 43.684 56.6472 43.7588 56.6819 43.842C56.7165 43.9252 56.733 44.0149 56.7303 44.1049C56.7185 44.9916 56.7248 45.8782 56.7248 46.7907L43.2749 46.7876Z" fill="white"/>
<path d="M56.7281 57.9811C56.7281 59.426 56.7359 60.8482 56.7234 62.2712C56.7195 62.7114 56.3982 62.9827 55.9275 62.9843C54.7546 62.9882 53.5873 62.9843 52.4176 62.9843H44.1985C43.5386 62.9843 43.2759 62.7232 43.2759 62.0679C43.2759 60.7129 43.2759 59.3587 43.2759 57.9795L56.7281 57.9811ZM49.986 59.4111H54.4614C54.5488 59.417 54.6366 59.4139 54.7234 59.4017C54.9188 59.3595 55.0643 59.2227 55.0119 59.0327C54.9767 58.9068 54.8164 58.8044 54.6937 58.7199C54.6413 58.6832 54.542 58.7113 54.4638 58.7113H45.5425C45.4644 58.7113 45.3862 58.7113 45.308 58.7152C45.1008 58.734 44.9561 58.8661 44.9905 59.0554C45.014 59.1851 45.1633 59.3063 45.2814 59.3994C45.3369 59.4424 45.4511 59.4135 45.5386 59.4135L49.986 59.4111ZM50.0016 61.5417C51.5226 61.5417 53.0431 61.5417 54.5631 61.5417C54.8055 61.5417 54.9955 61.4807 55.0244 61.2087C55.0478 60.9897 54.8633 60.8498 54.5639 60.8388C54.5248 60.8388 54.4857 60.8388 54.4466 60.8388C51.4833 60.8388 48.5202 60.8388 45.5574 60.8388C45.4417 60.8388 45.3041 60.8247 45.2157 60.8795C45.1133 60.9428 44.9976 61.0734 44.9929 61.1797C44.9882 61.2861 45.0898 61.4307 45.1868 61.4987C45.2697 61.5566 45.412 61.5378 45.5277 61.5386C47.0185 61.5417 48.5098 61.5428 50.0016 61.5417Z" fill="white"/>
<path d="M56.0096 40.596C56.0362 38.5998 57.6453 36.9993 59.6117 37.0158C61.6196 37.0322 63.242 38.6835 63.2013 40.6703C63.195 41.1438 63.0951 41.6114 62.9073 42.0462C62.7194 42.4809 62.4474 42.8742 62.1069 43.2034C61.7664 43.5325 61.3642 43.7911 60.9233 43.9641C60.4824 44.1371 60.0117 44.2211 59.5382 44.2114C58.5925 44.1947 57.6916 43.8057 57.0309 43.1288C56.3703 42.4519 56.0033 41.5418 56.0096 40.596ZM59.6062 38.6256C58.2771 38.6256 57.069 39.4669 56.6414 40.6953C56.5632 40.922 56.5546 41.123 56.804 41.2426C57.0073 41.3395 57.1949 41.2223 57.306 40.9392C57.7196 39.9165 58.5718 39.3223 59.618 39.3278C60.6641 39.3332 61.5179 39.9392 61.9175 40.9595C62.0309 41.2481 62.1997 41.3544 62.414 41.2723C62.6282 41.1902 62.6728 40.9916 62.5703 40.7015C62.3515 40.0915 61.949 39.5642 61.4182 39.1923C60.8874 38.8204 60.2544 38.6222 59.6062 38.6249V38.6256ZM61.457 41.6828C61.4254 41.5608 61.3862 41.441 61.3397 41.3239C60.9878 40.603 60.4139 40.2035 59.6062 40.2027C58.8134 40.2027 58.2364 40.5842 57.8861 41.2973C57.718 41.6359 57.7594 41.8493 57.9909 41.951C58.2051 42.0456 58.3521 41.951 58.5187 41.6007C58.5226 41.5919 58.527 41.5832 58.5319 41.5749C58.7618 41.1402 59.1199 40.9064 59.6125 40.9087C60.1051 40.9111 60.4608 41.1511 60.6868 41.5866C60.7267 41.6648 60.7392 41.7774 60.801 41.8165C60.9143 41.8884 61.0652 41.9729 61.1794 41.9471C61.2935 41.9213 61.3709 41.7688 61.457 41.682V41.6828ZM59.955 42.2504C59.9339 42.0409 59.8283 41.9048 59.6062 41.9025C59.3842 41.9001 59.2693 42.0338 59.2544 42.2473C59.2509 42.2959 59.2578 42.3447 59.2745 42.3905C59.2913 42.4363 59.3176 42.478 59.3517 42.5129C59.3857 42.5477 59.4268 42.575 59.4722 42.5928C59.5175 42.6107 59.5662 42.6187 59.6148 42.6163C59.833 42.5991 59.9378 42.4654 59.955 42.2496V42.2504Z" fill="white"/>
<path d="M39.8127 46.7907C39.8127 45.5905 39.8073 44.413 39.8127 43.2347C39.8127 42.8758 39.8127 42.5091 39.8815 42.1604C40.1271 40.9665 41.2975 40.1119 42.4938 40.237V46.7907H39.8127Z" fill="white"/>
<path d="M57.3887 46.7884V44.3442C58.1956 44.8006 59.1255 44.992 60.0471 44.8916V46.7907L57.3887 46.7884Z" fill="white"/>
<path d="M40.1662 60.1358C40.1662 59.6034 40.1521 59.0967 40.1709 58.5916C40.1842 58.2359 40.4774 57.9716 40.8566 57.9661C41.3922 57.9528 41.9278 57.9661 42.4892 57.9661V60.1429L40.1662 60.1358Z" fill="white"/>
<path d="M57.3879 60.1349V57.966C57.9759 57.966 58.5498 57.9464 59.1206 57.9738C59.2794 57.9845 59.4286 58.0542 59.5386 58.1692C59.6487 58.2842 59.7119 58.4362 59.7156 58.5954C59.7328 59.1005 59.7203 59.6072 59.7203 60.1349H57.3879Z" fill="white"/>
</g>
</svg>
