<svg width="100" height="156" viewBox="0 0 100 156" fill="none" xmlns="http://www.w3.org/2000/svg">
<g opacity="0.2">
<rect width="100" height="156" rx="19" fill="#F9FBFF"/>
<path d="M22.7831 109.217C23.6324 109.217 24.2997 109.31 24.7851 109.497C25.2704 109.674 25.6157 109.987 25.8211 110.435C26.0357 110.873 26.1431 111.499 26.1431 112.311C26.1431 113.123 26.0404 113.753 25.8351 114.201C25.6391 114.649 25.3077 114.961 24.8411 115.139C24.3837 115.316 23.7724 115.405 23.0071 115.405C22.5871 115.405 22.1811 115.391 21.7891 115.363C21.4064 115.335 21.0471 115.297 20.7111 115.251C20.3844 115.204 20.1044 115.157 19.8711 115.111C19.6377 115.055 19.4744 115.008 19.3811 114.971L19.4231 114.033C19.9551 114.033 20.5011 114.033 21.0611 114.033C21.6304 114.033 22.1951 114.033 22.7551 114.033C23.1657 114.023 23.4877 113.972 23.7211 113.879C23.9637 113.785 24.1317 113.617 24.2251 113.375C24.3277 113.123 24.3791 112.768 24.3791 112.311C24.3791 111.853 24.3277 111.503 24.2251 111.261C24.1317 111.009 23.9637 110.836 23.7211 110.743C23.4877 110.64 23.1657 110.589 22.7551 110.589C21.9337 110.589 21.2291 110.593 20.6411 110.603C20.0531 110.612 19.6517 110.626 19.4371 110.645L19.2411 109.343C19.6144 109.305 19.9644 109.277 20.2911 109.259C20.6271 109.24 20.9864 109.231 21.3691 109.231C21.7611 109.221 22.2324 109.217 22.7831 109.217ZM20.9911 109.343V119.003H19.2411V109.343H20.9911ZM29.6773 112.129V116.777C29.668 117.122 29.7333 117.369 29.8733 117.519C30.0226 117.668 30.2606 117.743 30.5873 117.743C30.914 117.743 31.2406 117.673 31.5673 117.533C31.894 117.393 32.2906 117.183 32.7573 116.903L32.9253 117.911C32.4026 118.331 31.8986 118.648 31.4133 118.863C30.928 119.077 30.424 119.185 29.9013 119.185C28.6226 119.185 27.9833 118.555 27.9833 117.295V112.129H29.6773ZM34.2833 112.129V119.003H32.9393L32.7573 117.673L32.5893 117.477V112.129H34.2833ZM37.9234 112.129L38.1474 113.473L38.3014 113.669V119.003H36.6074V112.129H37.9234ZM41.2834 111.961L41.1154 113.529H40.6254C40.2614 113.529 39.8927 113.589 39.5194 113.711C39.1461 113.832 38.6794 114.014 38.1194 114.257L38.0074 113.263C38.4927 112.852 38.9874 112.535 39.4914 112.311C39.9954 112.077 40.4807 111.961 40.9474 111.961H41.2834ZM45.7949 111.961C46.0282 111.961 46.2849 111.97 46.5649 111.989C46.8449 112.007 47.1296 112.045 47.4189 112.101C47.7082 112.157 47.9696 112.236 48.2029 112.339L48.0069 113.403C47.6616 113.384 47.3162 113.37 46.9709 113.361C46.6349 113.351 46.3409 113.347 46.0889 113.347C45.6129 113.347 45.2349 113.412 44.9549 113.543C44.6842 113.664 44.4882 113.888 44.3669 114.215C44.2456 114.532 44.1849 114.98 44.1849 115.559C44.1849 116.137 44.2456 116.59 44.3669 116.917C44.4882 117.234 44.6842 117.458 44.9549 117.589C45.2349 117.719 45.6129 117.785 46.0889 117.785C46.2289 117.785 46.4109 117.78 46.6349 117.771C46.8682 117.761 47.1156 117.747 47.3769 117.729C47.6476 117.71 47.9089 117.687 48.1609 117.659L48.3289 118.751C47.9649 118.9 47.5589 119.007 47.1109 119.073C46.6629 119.138 46.2196 119.171 45.7809 119.171C44.9596 119.171 44.3016 119.054 43.8069 118.821C43.3122 118.587 42.9529 118.209 42.7289 117.687C42.5142 117.155 42.4069 116.445 42.4069 115.559C42.4069 114.672 42.5189 113.967 42.7429 113.445C42.9669 112.913 43.3262 112.535 43.8209 112.311C44.3156 112.077 44.9736 111.961 45.7949 111.961ZM54.6569 111.961C55.9356 111.961 56.5749 112.591 56.5749 113.851V119.003H54.8669V114.369C54.8669 113.995 54.8016 113.739 54.6709 113.599C54.5496 113.459 54.3349 113.389 54.0269 113.389C53.6816 113.389 53.3269 113.463 52.9629 113.613C52.5989 113.762 52.1602 113.986 51.6469 114.285L51.5209 113.305C52.0436 112.875 52.5662 112.544 53.0889 112.311C53.6209 112.077 54.1436 111.961 54.6569 111.961ZM51.8289 109.203L51.8429 111.723C51.8429 112.068 51.8242 112.395 51.7869 112.703C51.7589 113.001 51.7169 113.258 51.6609 113.473L51.8289 113.669V119.003H50.1349V109.203H51.8289ZM62.3117 111.961C62.8624 111.961 63.3244 112.035 63.6977 112.185C64.0804 112.325 64.3697 112.567 64.5657 112.913C64.7617 113.258 64.8597 113.734 64.8597 114.341V119.003H63.5157L63.2777 117.519L63.1517 117.323V114.327C63.1517 113.963 63.0677 113.701 62.8997 113.543C62.7317 113.375 62.4097 113.291 61.9337 113.291C61.5791 113.291 61.1311 113.305 60.5897 113.333C60.0577 113.361 59.5211 113.398 58.9797 113.445L58.8257 112.283C59.1524 112.217 59.5211 112.161 59.9317 112.115C60.3424 112.068 60.7577 112.031 61.1777 112.003C61.5977 111.975 61.9757 111.961 62.3117 111.961ZM64.1317 114.775L64.1177 115.825H60.9677C60.6877 115.834 60.4871 115.909 60.3657 116.049C60.2444 116.189 60.1837 116.38 60.1837 116.623V117.001C60.1837 117.281 60.2584 117.495 60.4077 117.645C60.5571 117.785 60.7904 117.855 61.1077 117.855C61.3597 117.855 61.6397 117.803 61.9477 117.701C62.2557 117.598 62.5591 117.449 62.8577 117.253C63.1657 117.057 63.4411 116.823 63.6837 116.553V117.435C63.5904 117.575 63.4551 117.743 63.2777 117.939C63.1004 118.125 62.8811 118.312 62.6197 118.499C62.3677 118.685 62.0737 118.839 61.7377 118.961C61.4111 119.082 61.0471 119.143 60.6457 119.143C60.2351 119.143 59.8664 119.073 59.5397 118.933C59.2131 118.783 58.9564 118.569 58.7697 118.289C58.5831 117.999 58.4897 117.645 58.4897 117.225V116.497C58.4897 115.955 58.6671 115.535 59.0217 115.237C59.3857 114.929 59.8804 114.775 60.5057 114.775H64.1317ZM69.5994 111.961C69.9167 111.961 70.2574 111.97 70.6214 111.989C70.9947 112.007 71.3587 112.035 71.7134 112.073C72.068 112.101 72.3854 112.143 72.6654 112.199L72.5534 113.305C72.1054 113.295 71.6574 113.286 71.2094 113.277C70.7707 113.258 70.3367 113.249 69.9074 113.249C69.5247 113.249 69.2214 113.258 68.9974 113.277C68.7827 113.295 68.6287 113.351 68.5354 113.445C68.4514 113.538 68.4094 113.697 68.4094 113.921C68.4094 114.191 68.484 114.373 68.6334 114.467C68.7827 114.551 69.0254 114.635 69.3614 114.719L71.2374 115.153C71.7974 115.293 72.2127 115.507 72.4834 115.797C72.754 116.077 72.8894 116.511 72.8894 117.099C72.8894 117.668 72.782 118.102 72.5674 118.401C72.362 118.69 72.0307 118.891 71.5734 119.003C71.1254 119.105 70.5514 119.157 69.8514 119.157C69.5807 119.157 69.1794 119.143 68.6474 119.115C68.1154 119.096 67.532 119.035 66.8974 118.933L67.0094 117.827C67.196 117.827 67.4154 117.831 67.6674 117.841C67.9287 117.85 68.204 117.855 68.4934 117.855C68.792 117.855 69.0954 117.855 69.4034 117.855C69.898 117.855 70.276 117.841 70.5374 117.813C70.808 117.775 70.9947 117.705 71.0974 117.603C71.2 117.491 71.2514 117.332 71.2514 117.127C71.2514 116.865 71.1627 116.693 70.9854 116.609C70.8174 116.515 70.5654 116.427 70.2294 116.343L68.3954 115.895C67.9754 115.783 67.6487 115.643 67.4154 115.475C67.182 115.297 67.014 115.083 66.9114 114.831C66.8087 114.569 66.7574 114.252 66.7574 113.879C66.7574 113.375 66.8507 112.983 67.0374 112.703C67.2334 112.423 67.5367 112.227 67.9474 112.115C68.3674 112.003 68.918 111.951 69.5994 111.961ZM77.9082 111.961C79.0188 111.961 79.8168 112.157 80.3022 112.549C80.7875 112.931 81.0348 113.501 81.0442 114.257C81.0535 114.882 80.9042 115.358 80.5962 115.685C80.2975 116.002 79.7982 116.161 79.0982 116.161H75.1782V115.111H78.6362C78.9535 115.111 79.1542 115.027 79.2382 114.859C79.3315 114.691 79.3782 114.485 79.3782 114.243C79.3688 113.86 79.2568 113.594 79.0422 113.445C78.8368 113.295 78.4822 113.221 77.9782 113.221C77.5395 113.221 77.1988 113.281 76.9562 113.403C76.7135 113.524 76.5408 113.743 76.4382 114.061C76.3448 114.378 76.2982 114.835 76.2982 115.433C76.2982 116.067 76.3588 116.557 76.4802 116.903C76.6015 117.248 76.8022 117.486 77.0822 117.617C77.3622 117.738 77.7355 117.799 78.2022 117.799C78.5475 117.799 78.9442 117.785 79.3922 117.757C79.8495 117.729 80.2882 117.691 80.7082 117.645L80.8762 118.723C80.6242 118.825 80.3348 118.909 80.0082 118.975C79.6815 119.04 79.3408 119.087 78.9862 119.115C78.6408 119.152 78.3142 119.171 78.0062 119.171C77.1662 119.171 76.4895 119.049 75.9762 118.807C75.4722 118.555 75.1035 118.163 74.8702 117.631C74.6462 117.099 74.5342 116.413 74.5342 115.573C74.5342 114.667 74.6462 113.953 74.8702 113.431C75.1035 112.899 75.4675 112.521 75.9622 112.297C76.4662 112.073 77.1148 111.961 77.9082 111.961ZM17.0613 127.161C17.808 127.161 18.438 127.245 18.9513 127.413C19.4647 127.571 19.8753 127.842 20.1833 128.225C20.4913 128.607 20.7153 129.121 20.8553 129.765C21.0047 130.409 21.0793 131.211 21.0793 132.173C21.0793 133.125 21.0047 133.927 20.8553 134.581C20.7153 135.225 20.4913 135.738 20.1833 136.121C19.8753 136.503 19.4647 136.779 18.9513 136.947C18.438 137.105 17.808 137.185 17.0613 137.185C16.3333 137.185 15.7127 137.105 15.1993 136.947C14.686 136.779 14.2707 136.503 13.9533 136.121C13.636 135.738 13.4073 135.225 13.2673 134.581C13.1273 133.927 13.0573 133.125 13.0573 132.173C13.0573 131.211 13.1273 130.409 13.2673 129.765C13.4073 129.121 13.636 128.607 13.9533 128.225C14.2707 127.842 14.686 127.571 15.1993 127.413C15.7127 127.245 16.3333 127.161 17.0613 127.161ZM17.0613 128.589C16.5107 128.589 16.0767 128.701 15.7593 128.925C15.4513 129.139 15.232 129.508 15.1013 130.031C14.9707 130.544 14.9053 131.258 14.9053 132.173C14.9053 133.087 14.9707 133.806 15.1013 134.329C15.232 134.842 15.4513 135.211 15.7593 135.435C16.0767 135.649 16.5107 135.757 17.0613 135.757C17.6213 135.757 18.0553 135.649 18.3633 135.435C18.6807 135.211 18.9047 134.842 19.0353 134.329C19.166 133.806 19.2313 133.087 19.2313 132.173C19.2313 131.258 19.166 130.544 19.0353 130.031C18.9047 129.508 18.6807 129.139 18.3633 128.925C18.0553 128.701 17.6213 128.589 17.0613 128.589ZM24.5053 130.129L24.7293 131.473L24.8833 131.669V137.003H23.1893V130.129H24.5053ZM27.8653 129.961L27.6973 131.529H27.2073C26.8433 131.529 26.4746 131.589 26.1013 131.711C25.7279 131.832 25.2613 132.014 24.7013 132.257L24.5893 131.263C25.0746 130.852 25.5693 130.535 26.0733 130.311C26.5773 130.077 27.0626 129.961 27.5293 129.961H27.8653ZM31.6618 129.961C32.1285 129.961 32.5858 130.026 33.0338 130.157C33.4818 130.278 33.8878 130.483 34.2518 130.773L34.1398 131.627C33.7758 131.524 33.4491 131.435 33.1598 131.361C32.8705 131.286 32.5485 131.249 32.1938 131.249C31.8578 131.249 31.5871 131.309 31.3818 131.431C31.1858 131.543 31.0365 131.762 30.9338 132.089C30.8405 132.415 30.7938 132.891 30.7938 133.517C30.7938 134.114 30.8405 134.576 30.9338 134.903C31.0271 135.22 31.1718 135.444 31.3678 135.575C31.5638 135.696 31.8205 135.757 32.1378 135.757C32.3898 135.757 32.6138 135.729 32.8098 135.673C33.0058 135.607 33.2065 135.514 33.4118 135.393C33.6171 135.262 33.8551 135.099 34.1258 134.903L34.2658 135.855C33.9485 136.219 33.5565 136.531 33.0898 136.793C32.6325 137.045 32.1005 137.171 31.4938 137.171C30.6165 137.171 29.9911 136.863 29.6178 136.247C29.2445 135.621 29.0578 134.716 29.0578 133.531C29.0578 132.625 29.1511 131.916 29.3378 131.403C29.5338 130.88 29.8231 130.511 30.2058 130.297C30.5978 130.073 31.0831 129.961 31.6618 129.961ZM35.6378 127.203V137.003H34.3078L34.1258 135.771L33.9438 135.631V131.039L34.0278 130.843C33.9905 130.572 33.9671 130.301 33.9578 130.031C33.9485 129.751 33.9438 129.466 33.9438 129.177V127.203H35.6378ZM41.0406 129.961C42.1513 129.961 42.9493 130.157 43.4346 130.549C43.9199 130.931 44.1673 131.501 44.1766 132.257C44.1859 132.882 44.0366 133.358 43.7286 133.685C43.4299 134.002 42.9306 134.161 42.2306 134.161H38.3106V133.111H41.7686C42.0859 133.111 42.2866 133.027 42.3706 132.859C42.4639 132.691 42.5106 132.485 42.5106 132.243C42.5013 131.86 42.3893 131.594 42.1746 131.445C41.9693 131.295 41.6146 131.221 41.1106 131.221C40.6719 131.221 40.3313 131.281 40.0886 131.403C39.8459 131.524 39.6733 131.743 39.5706 132.061C39.4773 132.378 39.4306 132.835 39.4306 133.433C39.4306 134.067 39.4913 134.557 39.6126 134.903C39.7339 135.248 39.9346 135.486 40.2146 135.617C40.4946 135.738 40.8679 135.799 41.3346 135.799C41.6799 135.799 42.0766 135.785 42.5246 135.757C42.9819 135.729 43.4206 135.691 43.8406 135.645L44.0086 136.723C43.7566 136.825 43.4673 136.909 43.1406 136.975C42.8139 137.04 42.4733 137.087 42.1186 137.115C41.7733 137.152 41.4466 137.171 41.1386 137.171C40.2986 137.171 39.6219 137.049 39.1086 136.807C38.6046 136.555 38.2359 136.163 38.0026 135.631C37.7786 135.099 37.6666 134.413 37.6666 133.573C37.6666 132.667 37.7786 131.953 38.0026 131.431C38.2359 130.899 38.5999 130.521 39.0946 130.297C39.5986 130.073 40.2473 129.961 41.0406 129.961ZM47.4352 130.129L47.6592 131.473L47.8132 131.669V137.003H46.1192V130.129H47.4352ZM50.7952 129.961L50.6272 131.529H50.1372C49.7732 131.529 49.4045 131.589 49.0312 131.711C48.6579 131.832 48.1912 132.014 47.6312 132.257L47.5192 131.263C48.0045 130.852 48.4992 130.535 49.0032 130.311C49.5072 130.077 49.9925 129.961 50.4592 129.961H50.7952ZM62.8887 127.343L60.1307 136.513C60.084 136.653 60.0047 136.769 59.8927 136.863C59.7807 136.956 59.6453 137.003 59.4867 137.003H57.8347C57.676 137.003 57.5407 136.956 57.4287 136.863C57.3167 136.769 57.242 136.653 57.2047 136.513L54.4467 127.343H56.2527L58.2267 134.609C58.2733 134.786 58.32 134.963 58.3667 135.141C58.4133 135.318 58.4507 135.495 58.4787 135.673H58.8427C58.8893 135.495 58.9313 135.318 58.9687 135.141C59.0153 134.954 59.062 134.772 59.1087 134.595L61.0827 127.343H62.8887ZM66.164 130.129V137.003H64.484V130.129H66.164ZM65.702 127.147C66.038 127.147 66.206 127.315 66.206 127.651V128.435C66.206 128.771 66.038 128.939 65.702 128.939H64.946C64.61 128.939 64.442 128.771 64.442 128.435V127.651C64.442 127.315 64.61 127.147 64.946 127.147H65.702ZM71.6054 129.961C72.7161 129.961 73.5141 130.157 73.9994 130.549C74.4848 130.931 74.7321 131.501 74.7414 132.257C74.7508 132.882 74.6014 133.358 74.2934 133.685C73.9948 134.002 73.4954 134.161 72.7954 134.161H68.8754V133.111H72.3334C72.6508 133.111 72.8514 133.027 72.9354 132.859C73.0288 132.691 73.0754 132.485 73.0754 132.243C73.0661 131.86 72.9541 131.594 72.7394 131.445C72.5341 131.295 72.1794 131.221 71.6754 131.221C71.2368 131.221 70.8961 131.281 70.6534 131.403C70.4108 131.524 70.2381 131.743 70.1354 132.061C70.0421 132.378 69.9954 132.835 69.9954 133.433C69.9954 134.067 70.0561 134.557 70.1774 134.903C70.2988 135.248 70.4994 135.486 70.7794 135.617C71.0594 135.738 71.4328 135.799 71.8994 135.799C72.2448 135.799 72.6414 135.785 73.0894 135.757C73.5468 135.729 73.9854 135.691 74.4054 135.645L74.5734 136.723C74.3214 136.825 74.0321 136.909 73.7054 136.975C73.3788 137.04 73.0381 137.087 72.6834 137.115C72.3381 137.152 72.0114 137.171 71.7034 137.171C70.8634 137.171 70.1868 137.049 69.6734 136.807C69.1694 136.555 68.8008 136.163 68.5674 135.631C68.3434 135.099 68.2314 134.413 68.2314 133.573C68.2314 132.667 68.3434 131.953 68.5674 131.431C68.8008 130.899 69.1648 130.521 69.6594 130.297C70.1634 130.073 70.8121 129.961 71.6054 129.961ZM87.1844 130.129L85.3644 136.555C85.327 136.685 85.2524 136.793 85.1404 136.877C85.0284 136.961 84.8977 137.003 84.7484 137.003H83.3904C83.241 137.003 83.1057 136.956 82.9844 136.863C82.863 136.769 82.793 136.643 82.7744 136.485L81.8644 132.271C81.827 132.084 81.7944 131.897 81.7664 131.711C81.7477 131.524 81.7197 131.337 81.6824 131.151H81.5004C81.4724 131.337 81.4397 131.524 81.4024 131.711C81.3744 131.897 81.3417 132.084 81.3044 132.271L80.4084 136.485C80.3804 136.643 80.3057 136.769 80.1844 136.863C80.0724 136.956 79.937 137.003 79.7784 137.003H78.4344C78.285 137.003 78.1544 136.961 78.0424 136.877C77.9304 136.793 77.8604 136.685 77.8324 136.555L75.9984 130.129H77.7204L78.8684 134.847C78.9057 135.024 78.9384 135.206 78.9664 135.393C79.0037 135.57 79.0364 135.747 79.0644 135.925H79.2324C79.279 135.747 79.3164 135.57 79.3444 135.393C79.3817 135.206 79.419 135.024 79.4564 134.847L80.3664 130.647C80.3944 130.497 80.4597 130.376 80.5624 130.283C80.6744 130.18 80.8144 130.129 80.9824 130.129H82.2144C82.3637 130.129 82.4944 130.18 82.6064 130.283C82.7184 130.376 82.7884 130.502 82.8164 130.661L83.7264 134.847C83.7544 135.024 83.787 135.201 83.8244 135.379C83.871 135.556 83.9084 135.738 83.9364 135.925H84.1044C84.1417 135.738 84.1744 135.561 84.2024 135.393C84.2304 135.215 84.2677 135.033 84.3144 134.847L85.4624 130.129H87.1844Z" fill="#333839"/>
<path d="M90.3996 53.6044L53.7441 90.2499" stroke="white" stroke-width="6.29" stroke-miterlimit="10"/>
<path d="M90.3996 53.6044L53.7441 90.2499" stroke="#645993" stroke-width="3.42" stroke-miterlimit="10"/>
<path d="M8.6601 52.6618L6 50.0017L45.9905 10.0013" stroke="white" stroke-width="6.29" stroke-miterlimit="10"/>
<path d="M8.6601 52.6618L6 50.0017L45.9905 10.0013" stroke="#645993" stroke-width="3.42" stroke-miterlimit="10"/>
<path d="M68.6358 87.9313H31.3153L12 68.6358V31.3153L31.3153 12H68.6358L87.9512 31.3153V68.6358L68.6358 87.9313Z" fill="#645993"/>
<path d="M53.742 90.2507L50.0001 94.0026L8.65967 52.6622" stroke="white" stroke-width="6.29" stroke-miterlimit="10"/>
<path d="M53.742 90.2507L50.0001 94.0026L8.65967 52.6622" stroke="#645993" stroke-width="3.42" stroke-miterlimit="10"/>
<path d="M45.9897 10L49.9997 6L94.0002 50.0004L90.3972 53.6034" stroke="white" stroke-width="6.29" stroke-miterlimit="10"/>
<path d="M45.9897 10L49.9997 6L94.0002 50.0004L90.3972 53.6034" stroke="#645993" stroke-width="3.42" stroke-miterlimit="10"/>
<path d="M57.5039 57.7584H47.6234C46.8698 57.7584 46.5376 58.082 46.5057 58.8355C46.4333 60.6677 44.9493 62.2321 43.157 62.3645C41.175 62.5093 39.4202 61.2237 39.0756 59.3625C39.0284 59.1141 39.0042 58.8618 39.0033 58.609C38.9989 53.9036 38.9989 49.1983 39.0033 44.493C39.0033 42.739 40.1673 41.3629 41.8909 41.048C42.1229 41.0116 42.3576 40.9959 42.5923 41.0009C46.3566 41.0009 50.1235 41.0009 53.8931 41.0009C56.0184 41.0009 57.4974 42.4892 57.4981 44.6204V57.7584H57.5039ZM46.8336 52.8685C48.8497 53.9999 50.8694 53.2355 51.8553 51.8912C52.3725 51.1884 52.629 50.3274 52.5806 49.4561C52.5322 48.5848 52.1821 47.7575 51.5902 47.1162C50.9984 46.475 50.2017 46.0597 49.3371 45.9418C48.4724 45.8239 47.5937 46.0106 46.8517 46.4699C46.1017 46.9227 45.5401 47.6308 45.27 48.4643C44.9081 49.5697 45.0427 50.636 45.6269 51.6494C45.1549 52.12 44.6858 52.5738 44.2378 53.0408C44.1167 53.1607 44.0222 53.3047 43.9605 53.4635C43.9004 53.6453 43.9039 53.8422 43.9705 54.0218C44.0371 54.2013 44.1627 54.3529 44.3268 54.4516C44.4933 54.5555 44.6903 54.5994 44.8852 54.5759C45.08 54.5525 45.261 54.4632 45.3982 54.3228C45.8788 53.845 46.3494 53.3585 46.8336 52.8685Z" fill="#F9FBFF"/>
<path d="M44.3657 64.1166C45.7882 63.7952 46.8994 63.0583 47.6233 61.7958C47.8236 61.423 47.9856 61.0308 48.1068 60.6253C48.3652 59.8391 48.8112 59.4967 49.6422 59.4967C53.3712 59.4967 57.1 59.4982 60.8286 59.501C61.044 59.4988 61.2578 59.5381 61.4584 59.6169C61.9079 59.8058 62.0896 60.238 61.9586 60.7107C61.3896 62.7586 59.6074 64.113 57.4444 64.113C53.1637 64.1188 48.8838 64.1188 44.6046 64.113L44.3657 64.1166Z" fill="#F9FBFF"/>
<path d="M50.8446 49.6558C50.8449 50.0551 50.7267 50.4455 50.505 50.7775C50.2833 51.1096 49.968 51.3684 49.5991 51.5212C49.2303 51.674 48.8243 51.7139 48.4328 51.6359C48.0412 51.5578 47.6816 51.3654 47.3995 51.0828C47.1173 50.8003 46.9254 50.4404 46.8479 50.0487C46.7704 49.6571 46.8109 49.2512 46.9643 48.8825C47.1176 48.5139 47.3768 48.199 47.7092 47.9778C48.0416 47.7565 48.4321 47.6389 48.8314 47.6398C49.3656 47.6405 49.8776 47.8533 50.2551 48.2313C50.6326 48.6093 50.8446 49.1216 50.8446 49.6558Z" fill="#F9FBFF"/>
</g>
</svg>
