<svg width="100" height="156" viewBox="0 0 100 156" fill="none" xmlns="http://www.w3.org/2000/svg">
<g opacity="0.2">
<rect width="100" height="156" rx="19" fill="#F9FBFF"/>
<path d="M22.7831 109.217C23.6324 109.217 24.2997 109.31 24.7851 109.497C25.2704 109.674 25.6157 109.987 25.8211 110.435C26.0357 110.873 26.1431 111.499 26.1431 112.311C26.1431 113.123 26.0404 113.753 25.8351 114.201C25.6391 114.649 25.3077 114.961 24.8411 115.139C24.3837 115.316 23.7724 115.405 23.0071 115.405C22.5871 115.405 22.1811 115.391 21.7891 115.363C21.4064 115.335 21.0471 115.297 20.7111 115.251C20.3844 115.204 20.1044 115.157 19.8711 115.111C19.6377 115.055 19.4744 115.008 19.3811 114.971L19.4231 114.033C19.9551 114.033 20.5011 114.033 21.0611 114.033C21.6304 114.033 22.1951 114.033 22.7551 114.033C23.1657 114.023 23.4877 113.972 23.7211 113.879C23.9637 113.785 24.1317 113.617 24.2251 113.375C24.3277 113.123 24.3791 112.768 24.3791 112.311C24.3791 111.853 24.3277 111.503 24.2251 111.261C24.1317 111.009 23.9637 110.836 23.7211 110.743C23.4877 110.64 23.1657 110.589 22.7551 110.589C21.9337 110.589 21.2291 110.593 20.6411 110.603C20.0531 110.612 19.6517 110.626 19.4371 110.645L19.2411 109.343C19.6144 109.305 19.9644 109.277 20.2911 109.259C20.6271 109.24 20.9864 109.231 21.3691 109.231C21.7611 109.221 22.2324 109.217 22.7831 109.217ZM20.9911 109.343V119.003H19.2411V109.343H20.9911ZM29.6773 112.129V116.777C29.668 117.122 29.7333 117.369 29.8733 117.519C30.0226 117.668 30.2606 117.743 30.5873 117.743C30.914 117.743 31.2406 117.673 31.5673 117.533C31.894 117.393 32.2906 117.183 32.7573 116.903L32.9253 117.911C32.4026 118.331 31.8986 118.648 31.4133 118.863C30.928 119.077 30.424 119.185 29.9013 119.185C28.6226 119.185 27.9833 118.555 27.9833 117.295V112.129H29.6773ZM34.2833 112.129V119.003H32.9393L32.7573 117.673L32.5893 117.477V112.129H34.2833ZM37.9234 112.129L38.1474 113.473L38.3014 113.669V119.003H36.6074V112.129H37.9234ZM41.2834 111.961L41.1154 113.529H40.6254C40.2614 113.529 39.8927 113.589 39.5194 113.711C39.1461 113.832 38.6794 114.014 38.1194 114.257L38.0074 113.263C38.4927 112.852 38.9874 112.535 39.4914 112.311C39.9954 112.077 40.4807 111.961 40.9474 111.961H41.2834ZM45.7949 111.961C46.0282 111.961 46.2849 111.97 46.5649 111.989C46.8449 112.007 47.1296 112.045 47.4189 112.101C47.7082 112.157 47.9696 112.236 48.2029 112.339L48.0069 113.403C47.6616 113.384 47.3162 113.37 46.9709 113.361C46.6349 113.351 46.3409 113.347 46.0889 113.347C45.6129 113.347 45.2349 113.412 44.9549 113.543C44.6842 113.664 44.4882 113.888 44.3669 114.215C44.2456 114.532 44.1849 114.98 44.1849 115.559C44.1849 116.137 44.2456 116.59 44.3669 116.917C44.4882 117.234 44.6842 117.458 44.9549 117.589C45.2349 117.719 45.6129 117.785 46.0889 117.785C46.2289 117.785 46.4109 117.78 46.6349 117.771C46.8682 117.761 47.1156 117.747 47.3769 117.729C47.6476 117.71 47.9089 117.687 48.1609 117.659L48.3289 118.751C47.9649 118.9 47.5589 119.007 47.1109 119.073C46.6629 119.138 46.2196 119.171 45.7809 119.171C44.9596 119.171 44.3016 119.054 43.8069 118.821C43.3122 118.587 42.9529 118.209 42.7289 117.687C42.5142 117.155 42.4069 116.445 42.4069 115.559C42.4069 114.672 42.5189 113.967 42.7429 113.445C42.9669 112.913 43.3262 112.535 43.8209 112.311C44.3156 112.077 44.9736 111.961 45.7949 111.961ZM54.6569 111.961C55.9356 111.961 56.5749 112.591 56.5749 113.851V119.003H54.8669V114.369C54.8669 113.995 54.8016 113.739 54.6709 113.599C54.5496 113.459 54.3349 113.389 54.0269 113.389C53.6816 113.389 53.3269 113.463 52.9629 113.613C52.5989 113.762 52.1602 113.986 51.6469 114.285L51.5209 113.305C52.0436 112.875 52.5662 112.544 53.0889 112.311C53.6209 112.077 54.1436 111.961 54.6569 111.961ZM51.8289 109.203L51.8429 111.723C51.8429 112.068 51.8242 112.395 51.7869 112.703C51.7589 113.001 51.7169 113.258 51.6609 113.473L51.8289 113.669V119.003H50.1349V109.203H51.8289ZM62.3117 111.961C62.8624 111.961 63.3244 112.035 63.6977 112.185C64.0804 112.325 64.3697 112.567 64.5657 112.913C64.7617 113.258 64.8597 113.734 64.8597 114.341V119.003H63.5157L63.2777 117.519L63.1517 117.323V114.327C63.1517 113.963 63.0677 113.701 62.8997 113.543C62.7317 113.375 62.4097 113.291 61.9337 113.291C61.5791 113.291 61.1311 113.305 60.5897 113.333C60.0577 113.361 59.5211 113.398 58.9797 113.445L58.8257 112.283C59.1524 112.217 59.5211 112.161 59.9317 112.115C60.3424 112.068 60.7577 112.031 61.1777 112.003C61.5977 111.975 61.9757 111.961 62.3117 111.961ZM64.1317 114.775L64.1177 115.825H60.9677C60.6877 115.834 60.4871 115.909 60.3657 116.049C60.2444 116.189 60.1837 116.38 60.1837 116.623V117.001C60.1837 117.281 60.2584 117.495 60.4077 117.645C60.5571 117.785 60.7904 117.855 61.1077 117.855C61.3597 117.855 61.6397 117.803 61.9477 117.701C62.2557 117.598 62.5591 117.449 62.8577 117.253C63.1657 117.057 63.4411 116.823 63.6837 116.553V117.435C63.5904 117.575 63.4551 117.743 63.2777 117.939C63.1004 118.125 62.8811 118.312 62.6197 118.499C62.3677 118.685 62.0737 118.839 61.7377 118.961C61.4111 119.082 61.0471 119.143 60.6457 119.143C60.2351 119.143 59.8664 119.073 59.5397 118.933C59.2131 118.783 58.9564 118.569 58.7697 118.289C58.5831 117.999 58.4897 117.645 58.4897 117.225V116.497C58.4897 115.955 58.6671 115.535 59.0217 115.237C59.3857 114.929 59.8804 114.775 60.5057 114.775H64.1317ZM69.5994 111.961C69.9167 111.961 70.2574 111.97 70.6214 111.989C70.9947 112.007 71.3587 112.035 71.7134 112.073C72.068 112.101 72.3854 112.143 72.6654 112.199L72.5534 113.305C72.1054 113.295 71.6574 113.286 71.2094 113.277C70.7707 113.258 70.3367 113.249 69.9074 113.249C69.5247 113.249 69.2214 113.258 68.9974 113.277C68.7827 113.295 68.6287 113.351 68.5354 113.445C68.4514 113.538 68.4094 113.697 68.4094 113.921C68.4094 114.191 68.484 114.373 68.6334 114.467C68.7827 114.551 69.0254 114.635 69.3614 114.719L71.2374 115.153C71.7974 115.293 72.2127 115.507 72.4834 115.797C72.754 116.077 72.8894 116.511 72.8894 117.099C72.8894 117.668 72.782 118.102 72.5674 118.401C72.362 118.69 72.0307 118.891 71.5734 119.003C71.1254 119.105 70.5514 119.157 69.8514 119.157C69.5807 119.157 69.1794 119.143 68.6474 119.115C68.1154 119.096 67.532 119.035 66.8974 118.933L67.0094 117.827C67.196 117.827 67.4154 117.831 67.6674 117.841C67.9287 117.85 68.204 117.855 68.4934 117.855C68.792 117.855 69.0954 117.855 69.4034 117.855C69.898 117.855 70.276 117.841 70.5374 117.813C70.808 117.775 70.9947 117.705 71.0974 117.603C71.2 117.491 71.2514 117.332 71.2514 117.127C71.2514 116.865 71.1627 116.693 70.9854 116.609C70.8174 116.515 70.5654 116.427 70.2294 116.343L68.3954 115.895C67.9754 115.783 67.6487 115.643 67.4154 115.475C67.182 115.297 67.014 115.083 66.9114 114.831C66.8087 114.569 66.7574 114.252 66.7574 113.879C66.7574 113.375 66.8507 112.983 67.0374 112.703C67.2334 112.423 67.5367 112.227 67.9474 112.115C68.3674 112.003 68.918 111.951 69.5994 111.961ZM77.9082 111.961C79.0188 111.961 79.8168 112.157 80.3022 112.549C80.7875 112.931 81.0348 113.501 81.0442 114.257C81.0535 114.882 80.9042 115.358 80.5962 115.685C80.2975 116.002 79.7982 116.161 79.0982 116.161H75.1782V115.111H78.6362C78.9535 115.111 79.1542 115.027 79.2382 114.859C79.3315 114.691 79.3782 114.485 79.3782 114.243C79.3688 113.86 79.2568 113.594 79.0422 113.445C78.8368 113.295 78.4822 113.221 77.9782 113.221C77.5395 113.221 77.1988 113.281 76.9562 113.403C76.7135 113.524 76.5408 113.743 76.4382 114.061C76.3448 114.378 76.2982 114.835 76.2982 115.433C76.2982 116.067 76.3588 116.557 76.4802 116.903C76.6015 117.248 76.8022 117.486 77.0822 117.617C77.3622 117.738 77.7355 117.799 78.2022 117.799C78.5475 117.799 78.9442 117.785 79.3922 117.757C79.8495 117.729 80.2882 117.691 80.7082 117.645L80.8762 118.723C80.6242 118.825 80.3348 118.909 80.0082 118.975C79.6815 119.04 79.3408 119.087 78.9862 119.115C78.6408 119.152 78.3142 119.171 78.0062 119.171C77.1662 119.171 76.4895 119.049 75.9762 118.807C75.4722 118.555 75.1035 118.163 74.8702 117.631C74.6462 117.099 74.5342 116.413 74.5342 115.573C74.5342 114.667 74.6462 113.953 74.8702 113.431C75.1035 112.899 75.4675 112.521 75.9622 112.297C76.4662 112.073 77.1148 111.961 77.9082 111.961ZM35.2969 127.161C36.0435 127.161 36.6735 127.245 37.1869 127.413C37.7002 127.571 38.1109 127.842 38.4189 128.225C38.7269 128.607 38.9509 129.121 39.0909 129.765C39.2402 130.409 39.3149 131.211 39.3149 132.173C39.3149 133.125 39.2402 133.927 39.0909 134.581C38.9509 135.225 38.7269 135.738 38.4189 136.121C38.1109 136.503 37.7002 136.779 37.1869 136.947C36.6735 137.105 36.0435 137.185 35.2969 137.185C34.5689 137.185 33.9482 137.105 33.4349 136.947C32.9215 136.779 32.5062 136.503 32.1889 136.121C31.8715 135.738 31.6429 135.225 31.5029 134.581C31.3629 133.927 31.2929 133.125 31.2929 132.173C31.2929 131.211 31.3629 130.409 31.5029 129.765C31.6429 129.121 31.8715 128.607 32.1889 128.225C32.5062 127.842 32.9215 127.571 33.4349 127.413C33.9482 127.245 34.5689 127.161 35.2969 127.161ZM35.2969 128.589C34.7462 128.589 34.3122 128.701 33.9949 128.925C33.6869 129.139 33.4675 129.508 33.3369 130.031C33.2062 130.544 33.1409 131.258 33.1409 132.173C33.1409 133.087 33.2062 133.806 33.3369 134.329C33.4675 134.842 33.6869 135.211 33.9949 135.435C34.3122 135.649 34.7462 135.757 35.2969 135.757C35.8569 135.757 36.2909 135.649 36.5989 135.435C36.9162 135.211 37.1402 134.842 37.2709 134.329C37.4015 133.806 37.4669 133.087 37.4669 132.173C37.4669 131.258 37.4015 130.544 37.2709 130.031C37.1402 129.508 36.9162 129.139 36.5989 128.925C36.2909 128.701 35.8569 128.589 35.2969 128.589ZM42.7408 130.129L42.9648 131.473L43.1188 131.669V137.003H41.4248V130.129H42.7408ZM46.1008 129.961L45.9328 131.529H45.4428C45.0788 131.529 44.7102 131.589 44.3368 131.711C43.9635 131.832 43.4968 132.014 42.9368 132.257L42.8248 131.263C43.3102 130.852 43.8048 130.535 44.3088 130.311C44.8128 130.077 45.2982 129.961 45.7648 129.961H46.1008ZM49.8973 129.961C50.364 129.961 50.8213 130.026 51.2693 130.157C51.7173 130.278 52.1233 130.483 52.4873 130.773L52.3753 131.627C52.0113 131.524 51.6847 131.435 51.3953 131.361C51.106 131.286 50.784 131.249 50.4293 131.249C50.0933 131.249 49.8227 131.309 49.6173 131.431C49.4213 131.543 49.272 131.762 49.1693 132.089C49.076 132.415 49.0293 132.891 49.0293 133.517C49.0293 134.114 49.076 134.576 49.1693 134.903C49.2627 135.22 49.4073 135.444 49.6033 135.575C49.7993 135.696 50.056 135.757 50.3733 135.757C50.6253 135.757 50.8493 135.729 51.0453 135.673C51.2413 135.607 51.442 135.514 51.6473 135.393C51.8527 135.262 52.0907 135.099 52.3613 134.903L52.5013 135.855C52.184 136.219 51.792 136.531 51.3253 136.793C50.868 137.045 50.336 137.171 49.7293 137.171C48.852 137.171 48.2267 136.863 47.8533 136.247C47.48 135.621 47.2933 134.716 47.2933 133.531C47.2933 132.625 47.3867 131.916 47.5733 131.403C47.7693 130.88 48.0587 130.511 48.4413 130.297C48.8333 130.073 49.3187 129.961 49.8973 129.961ZM53.8733 127.203V137.003H52.5433L52.3613 135.771L52.1793 135.631V131.039L52.2633 130.843C52.226 130.572 52.2027 130.301 52.1933 130.031C52.184 129.751 52.1793 129.466 52.1793 129.177V127.203H53.8733ZM59.2761 129.961C60.3868 129.961 61.1848 130.157 61.6701 130.549C62.1555 130.931 62.4028 131.501 62.4121 132.257C62.4215 132.882 62.2721 133.358 61.9641 133.685C61.6655 134.002 61.1661 134.161 60.4661 134.161H56.5461V133.111H60.0041C60.3215 133.111 60.5221 133.027 60.6061 132.859C60.6995 132.691 60.7461 132.485 60.7461 132.243C60.7368 131.86 60.6248 131.594 60.4101 131.445C60.2048 131.295 59.8501 131.221 59.3461 131.221C58.9075 131.221 58.5668 131.281 58.3241 131.403C58.0815 131.524 57.9088 131.743 57.8061 132.061C57.7128 132.378 57.6661 132.835 57.6661 133.433C57.6661 134.067 57.7268 134.557 57.8481 134.903C57.9695 135.248 58.1701 135.486 58.4501 135.617C58.7301 135.738 59.1035 135.799 59.5701 135.799C59.9155 135.799 60.3121 135.785 60.7601 135.757C61.2175 135.729 61.6561 135.691 62.0761 135.645L62.2441 136.723C61.9921 136.825 61.7028 136.909 61.3761 136.975C61.0495 137.04 60.7088 137.087 60.3541 137.115C60.0088 137.152 59.6821 137.171 59.3741 137.171C58.5341 137.171 57.8575 137.049 57.3441 136.807C56.8401 136.555 56.4715 136.163 56.2381 135.631C56.0141 135.099 55.9021 134.413 55.9021 133.573C55.9021 132.667 56.0141 131.953 56.2381 131.431C56.4715 130.899 56.8355 130.521 57.3301 130.297C57.8341 130.073 58.4828 129.961 59.2761 129.961ZM65.6707 130.129L65.8947 131.473L66.0487 131.669V137.003H64.3547V130.129H65.6707ZM69.0307 129.961L68.8627 131.529H68.3727C68.0087 131.529 67.6401 131.589 67.2667 131.711C66.8934 131.832 66.4267 132.014 65.8667 132.257L65.7547 131.263C66.2401 130.852 66.7347 130.535 67.2387 130.311C67.7427 130.077 68.2281 129.961 68.6947 129.961H69.0307Z" fill="#333839"/>
<path d="M90.3995 53.6045L53.744 90.2501" stroke="white" stroke-width="6.29" stroke-miterlimit="10"/>
<path d="M90.3995 53.6045L53.744 90.2501" stroke="#6655AB" stroke-width="3.42" stroke-miterlimit="10"/>
<path d="M8.6601 52.6616L6 50.0016L45.9905 10.0012" stroke="white" stroke-width="6.29" stroke-miterlimit="10"/>
<path d="M8.6601 52.6616L6 50.0016L45.9905 10.0012" stroke="#6655AB" stroke-width="3.42" stroke-miterlimit="10"/>
<path d="M68.6358 87.9313H31.3153L12 68.6358V31.3153L31.3153 12H68.6358L87.9512 31.3153V68.6358L68.6358 87.9313Z" fill="#6655AB"/>
<path d="M53.7421 90.2506L50.0002 94.0025L8.65979 52.6621" stroke="white" stroke-width="6.29" stroke-miterlimit="10"/>
<path d="M53.7421 90.2506L50.0002 94.0025L8.65979 52.6621" stroke="#6655AB" stroke-width="3.42" stroke-miterlimit="10"/>
<path d="M45.9896 10L49.9996 6L94.0001 50.0004L90.397 53.6034" stroke="white" stroke-width="6.29" stroke-miterlimit="10"/>
<path d="M45.9896 10L49.9996 6L94.0001 50.0004L90.397 53.6034" stroke="#6655AB" stroke-width="3.42" stroke-miterlimit="10"/>
<g clip-path="url(#clip0_245_9639)">
<path d="M57.2231 65.2465C56.648 65.0942 56.0501 65.0013 55.5025 64.782C54.2803 64.2907 53.2476 63.4205 52.5562 62.2992C51.8648 61.1779 51.551 59.8646 51.6609 58.5518C51.7748 57.1816 52.3412 55.8882 53.271 54.8752C54.2008 53.8623 55.441 53.1874 56.7965 52.9569C57.6757 52.8105 58.5761 52.8557 59.4361 53.0895C60.2961 53.3233 61.0955 53.7401 61.7795 54.3115C62.4634 54.8829 63.0159 55.5953 63.399 56.4C63.7822 57.2046 63.9869 58.0826 63.9993 58.9738C64.048 62.0964 61.6877 64.82 58.6092 65.194C58.5454 65.2066 58.4827 65.2244 58.4219 65.2473L57.2231 65.2465ZM54.1164 58.941L56.894 62.0873L61.3115 57.5053L60.169 56.222L56.9489 59.5617L55.3951 57.81L54.1164 58.941Z" fill="white"/>
<path d="M41.9447 42.6894C41.9775 41.8082 41.9158 40.911 42.062 40.0488C42.417 37.949 44.1314 36.3587 46.2327 36.0526C46.285 36.0398 46.336 36.0222 46.385 36H47.4688C47.871 36.1021 48.2861 36.1691 48.673 36.313C50.6768 37.0594 51.9297 38.8873 51.9541 41.0633C51.9609 41.6048 51.9647 42.1463 51.9701 42.6879L51.9769 42.6802H50.2587L50.2678 42.6894C50.2602 42.5569 50.2488 42.4251 50.2457 42.2926C50.232 41.732 50.2579 41.1677 50.2031 40.6117C50.0454 39.0077 48.6425 37.7472 47.0195 37.7175C45.3744 37.6862 43.9059 38.8919 43.7125 40.4989C43.6249 41.2217 43.663 41.9597 43.6439 42.6909L43.6531 42.6818H41.9341L41.9447 42.6894Z" fill="white"/>
<path d="M51.9754 42.6878H55.9968C56.0174 42.9879 56.0402 43.2872 56.0578 43.5865C56.2009 46.0573 56.3446 48.5277 56.4888 50.9979C56.5003 51.1922 56.4637 51.2752 56.2489 51.3178C52.4408 52.0711 49.724 55.5875 49.9396 59.4673C49.991 60.477 50.238 61.4672 50.6669 62.3828C50.7027 62.4589 50.7324 62.5351 50.7774 62.6417C50.6845 62.6486 50.6136 62.6577 50.5428 62.6577C47.5024 62.6577 44.4619 62.6646 41.4215 62.6577C39.3286 62.6524 37.64 61.3553 37.1259 59.4033C36.9173 58.6097 37.0208 57.8138 37.065 57.0179C37.1838 54.88 37.3141 52.7428 37.4397 50.6049C37.5921 47.9743 37.7444 45.3474 37.8967 42.7244C37.9279 42.7023 37.9424 42.6825 37.9576 42.6825C39.2869 42.6825 40.6162 42.6843 41.9455 42.6878L41.9371 42.6787V46.5104H43.6561V42.6794L43.647 42.6886C43.7605 42.6832 43.8755 42.6733 43.9875 42.6733C45.7214 42.6733 47.4562 42.6733 49.1917 42.6733C49.5512 42.6733 49.9106 42.6832 50.2709 42.6886L50.2618 42.6794V46.5104H51.9579C51.9579 46.138 51.9579 45.7785 51.9579 45.4198C51.964 44.5058 51.9711 43.5919 51.9792 42.6779L51.9754 42.6878Z" fill="white"/>
</g>
</g>
<defs>
<clipPath id="clip0_245_9639">
<rect width="30" height="30" fill="white" transform="translate(35 35)"/>
</clipPath>
</defs>
</svg>
