<svg width="100" height="156" viewBox="0 0 100 156" fill="none" xmlns="http://www.w3.org/2000/svg">
<g opacity="0.2">
<rect width="100" height="156" rx="19" fill="#F9FBFF"/>
<path d="M22.7831 109.217C23.6324 109.217 24.2997 109.31 24.7851 109.497C25.2704 109.674 25.6157 109.987 25.8211 110.435C26.0357 110.873 26.1431 111.499 26.1431 112.311C26.1431 113.123 26.0404 113.753 25.8351 114.201C25.6391 114.649 25.3077 114.961 24.8411 115.139C24.3837 115.316 23.7724 115.405 23.0071 115.405C22.5871 115.405 22.1811 115.391 21.7891 115.363C21.4064 115.335 21.0471 115.297 20.7111 115.251C20.3844 115.204 20.1044 115.157 19.8711 115.111C19.6377 115.055 19.4744 115.008 19.3811 114.971L19.4231 114.033C19.9551 114.033 20.5011 114.033 21.0611 114.033C21.6304 114.033 22.1951 114.033 22.7551 114.033C23.1657 114.023 23.4877 113.972 23.7211 113.879C23.9637 113.785 24.1317 113.617 24.2251 113.375C24.3277 113.123 24.3791 112.768 24.3791 112.311C24.3791 111.853 24.3277 111.503 24.2251 111.261C24.1317 111.009 23.9637 110.836 23.7211 110.743C23.4877 110.64 23.1657 110.589 22.7551 110.589C21.9337 110.589 21.2291 110.593 20.6411 110.603C20.0531 110.612 19.6517 110.626 19.4371 110.645L19.2411 109.343C19.6144 109.305 19.9644 109.277 20.2911 109.259C20.6271 109.24 20.9864 109.231 21.3691 109.231C21.7611 109.221 22.2324 109.217 22.7831 109.217ZM20.9911 109.343V119.003H19.2411V109.343H20.9911ZM29.6773 112.129V116.777C29.668 117.122 29.7333 117.369 29.8733 117.519C30.0226 117.668 30.2606 117.743 30.5873 117.743C30.914 117.743 31.2406 117.673 31.5673 117.533C31.894 117.393 32.2906 117.183 32.7573 116.903L32.9253 117.911C32.4026 118.331 31.8986 118.648 31.4133 118.863C30.928 119.077 30.424 119.185 29.9013 119.185C28.6226 119.185 27.9833 118.555 27.9833 117.295V112.129H29.6773ZM34.2833 112.129V119.003H32.9393L32.7573 117.673L32.5893 117.477V112.129H34.2833ZM37.9234 112.129L38.1474 113.473L38.3014 113.669V119.003H36.6074V112.129H37.9234ZM41.2834 111.961L41.1154 113.529H40.6254C40.2614 113.529 39.8927 113.589 39.5194 113.711C39.1461 113.832 38.6794 114.014 38.1194 114.257L38.0074 113.263C38.4927 112.852 38.9874 112.535 39.4914 112.311C39.9954 112.077 40.4807 111.961 40.9474 111.961H41.2834ZM45.7949 111.961C46.0282 111.961 46.2849 111.97 46.5649 111.989C46.8449 112.007 47.1296 112.045 47.4189 112.101C47.7082 112.157 47.9696 112.236 48.2029 112.339L48.0069 113.403C47.6616 113.384 47.3162 113.37 46.9709 113.361C46.6349 113.351 46.3409 113.347 46.0889 113.347C45.6129 113.347 45.2349 113.412 44.9549 113.543C44.6842 113.664 44.4882 113.888 44.3669 114.215C44.2456 114.532 44.1849 114.98 44.1849 115.559C44.1849 116.137 44.2456 116.59 44.3669 116.917C44.4882 117.234 44.6842 117.458 44.9549 117.589C45.2349 117.719 45.6129 117.785 46.0889 117.785C46.2289 117.785 46.4109 117.78 46.6349 117.771C46.8682 117.761 47.1156 117.747 47.3769 117.729C47.6476 117.71 47.9089 117.687 48.1609 117.659L48.3289 118.751C47.9649 118.9 47.5589 119.007 47.1109 119.073C46.6629 119.138 46.2196 119.171 45.7809 119.171C44.9596 119.171 44.3016 119.054 43.8069 118.821C43.3122 118.587 42.9529 118.209 42.7289 117.687C42.5142 117.155 42.4069 116.445 42.4069 115.559C42.4069 114.672 42.5189 113.967 42.7429 113.445C42.9669 112.913 43.3262 112.535 43.8209 112.311C44.3156 112.077 44.9736 111.961 45.7949 111.961ZM54.6569 111.961C55.9356 111.961 56.5749 112.591 56.5749 113.851V119.003H54.8669V114.369C54.8669 113.995 54.8016 113.739 54.6709 113.599C54.5496 113.459 54.3349 113.389 54.0269 113.389C53.6816 113.389 53.3269 113.463 52.9629 113.613C52.5989 113.762 52.1602 113.986 51.6469 114.285L51.5209 113.305C52.0436 112.875 52.5662 112.544 53.0889 112.311C53.6209 112.077 54.1436 111.961 54.6569 111.961ZM51.8289 109.203L51.8429 111.723C51.8429 112.068 51.8242 112.395 51.7869 112.703C51.7589 113.001 51.7169 113.258 51.6609 113.473L51.8289 113.669V119.003H50.1349V109.203H51.8289ZM62.3117 111.961C62.8624 111.961 63.3244 112.035 63.6977 112.185C64.0804 112.325 64.3697 112.567 64.5657 112.913C64.7617 113.258 64.8597 113.734 64.8597 114.341V119.003H63.5157L63.2777 117.519L63.1517 117.323V114.327C63.1517 113.963 63.0677 113.701 62.8997 113.543C62.7317 113.375 62.4097 113.291 61.9337 113.291C61.5791 113.291 61.1311 113.305 60.5897 113.333C60.0577 113.361 59.5211 113.398 58.9797 113.445L58.8257 112.283C59.1524 112.217 59.5211 112.161 59.9317 112.115C60.3424 112.068 60.7577 112.031 61.1777 112.003C61.5977 111.975 61.9757 111.961 62.3117 111.961ZM64.1317 114.775L64.1177 115.825H60.9677C60.6877 115.834 60.4871 115.909 60.3657 116.049C60.2444 116.189 60.1837 116.38 60.1837 116.623V117.001C60.1837 117.281 60.2584 117.495 60.4077 117.645C60.5571 117.785 60.7904 117.855 61.1077 117.855C61.3597 117.855 61.6397 117.803 61.9477 117.701C62.2557 117.598 62.5591 117.449 62.8577 117.253C63.1657 117.057 63.4411 116.823 63.6837 116.553V117.435C63.5904 117.575 63.4551 117.743 63.2777 117.939C63.1004 118.125 62.8811 118.312 62.6197 118.499C62.3677 118.685 62.0737 118.839 61.7377 118.961C61.4111 119.082 61.0471 119.143 60.6457 119.143C60.2351 119.143 59.8664 119.073 59.5397 118.933C59.2131 118.783 58.9564 118.569 58.7697 118.289C58.5831 117.999 58.4897 117.645 58.4897 117.225V116.497C58.4897 115.955 58.6671 115.535 59.0217 115.237C59.3857 114.929 59.8804 114.775 60.5057 114.775H64.1317ZM69.5994 111.961C69.9167 111.961 70.2574 111.97 70.6214 111.989C70.9947 112.007 71.3587 112.035 71.7134 112.073C72.068 112.101 72.3854 112.143 72.6654 112.199L72.5534 113.305C72.1054 113.295 71.6574 113.286 71.2094 113.277C70.7707 113.258 70.3367 113.249 69.9074 113.249C69.5247 113.249 69.2214 113.258 68.9974 113.277C68.7827 113.295 68.6287 113.351 68.5354 113.445C68.4514 113.538 68.4094 113.697 68.4094 113.921C68.4094 114.191 68.484 114.373 68.6334 114.467C68.7827 114.551 69.0254 114.635 69.3614 114.719L71.2374 115.153C71.7974 115.293 72.2127 115.507 72.4834 115.797C72.754 116.077 72.8894 116.511 72.8894 117.099C72.8894 117.668 72.782 118.102 72.5674 118.401C72.362 118.69 72.0307 118.891 71.5734 119.003C71.1254 119.105 70.5514 119.157 69.8514 119.157C69.5807 119.157 69.1794 119.143 68.6474 119.115C68.1154 119.096 67.532 119.035 66.8974 118.933L67.0094 117.827C67.196 117.827 67.4154 117.831 67.6674 117.841C67.9287 117.85 68.204 117.855 68.4934 117.855C68.792 117.855 69.0954 117.855 69.4034 117.855C69.898 117.855 70.276 117.841 70.5374 117.813C70.808 117.775 70.9947 117.705 71.0974 117.603C71.2 117.491 71.2514 117.332 71.2514 117.127C71.2514 116.865 71.1627 116.693 70.9854 116.609C70.8174 116.515 70.5654 116.427 70.2294 116.343L68.3954 115.895C67.9754 115.783 67.6487 115.643 67.4154 115.475C67.182 115.297 67.014 115.083 66.9114 114.831C66.8087 114.569 66.7574 114.252 66.7574 113.879C66.7574 113.375 66.8507 112.983 67.0374 112.703C67.2334 112.423 67.5367 112.227 67.9474 112.115C68.3674 112.003 68.918 111.951 69.5994 111.961ZM77.9082 111.961C79.0188 111.961 79.8168 112.157 80.3022 112.549C80.7875 112.931 81.0348 113.501 81.0442 114.257C81.0535 114.882 80.9042 115.358 80.5962 115.685C80.2975 116.002 79.7982 116.161 79.0982 116.161H75.1782V115.111H78.6362C78.9535 115.111 79.1542 115.027 79.2382 114.859C79.3315 114.691 79.3782 114.485 79.3782 114.243C79.3688 113.86 79.2568 113.594 79.0422 113.445C78.8368 113.295 78.4822 113.221 77.9782 113.221C77.5395 113.221 77.1988 113.281 76.9562 113.403C76.7135 113.524 76.5408 113.743 76.4382 114.061C76.3448 114.378 76.2982 114.835 76.2982 115.433C76.2982 116.067 76.3588 116.557 76.4802 116.903C76.6015 117.248 76.8022 117.486 77.0822 117.617C77.3622 117.738 77.7355 117.799 78.2022 117.799C78.5475 117.799 78.9442 117.785 79.3922 117.757C79.8495 117.729 80.2882 117.691 80.7082 117.645L80.8762 118.723C80.6242 118.825 80.3348 118.909 80.0082 118.975C79.6815 119.04 79.3408 119.087 78.9862 119.115C78.6408 119.152 78.3142 119.171 78.0062 119.171C77.1662 119.171 76.4895 119.049 75.9762 118.807C75.4722 118.555 75.1035 118.163 74.8702 117.631C74.6462 117.099 74.5342 116.413 74.5342 115.573C74.5342 114.667 74.6462 113.953 74.8702 113.431C75.1035 112.899 75.4675 112.521 75.9622 112.297C76.4662 112.073 77.1148 111.961 77.9082 111.961ZM41.907 127.343L39.149 136.513C39.1023 136.653 39.023 136.769 38.911 136.863C38.799 136.956 38.6637 137.003 38.505 137.003H36.853C36.6943 137.003 36.559 136.956 36.447 136.863C36.335 136.769 36.2603 136.653 36.223 136.513L33.465 127.343H35.271L37.245 134.609C37.2917 134.786 37.3383 134.963 37.385 135.141C37.4317 135.318 37.469 135.495 37.497 135.673H37.861C37.9077 135.495 37.9497 135.318 37.987 135.141C38.0337 134.954 38.0803 134.772 38.127 134.595L40.101 127.343H41.907ZM45.1823 130.129V137.003H43.5023V130.129H45.1823ZM44.7203 127.147C45.0563 127.147 45.2243 127.315 45.2243 127.651V128.435C45.2243 128.771 45.0563 128.939 44.7203 128.939H43.9643C43.6283 128.939 43.4603 128.771 43.4603 128.435V127.651C43.4603 127.315 43.6283 127.147 43.9643 127.147H44.7203ZM50.6238 129.961C51.7344 129.961 52.5324 130.157 53.0178 130.549C53.5031 130.931 53.7504 131.501 53.7598 132.257C53.7691 132.882 53.6198 133.358 53.3118 133.685C53.0131 134.002 52.5138 134.161 51.8138 134.161H47.8938V133.111H51.3518C51.6691 133.111 51.8698 133.027 51.9538 132.859C52.0471 132.691 52.0938 132.485 52.0938 132.243C52.0844 131.86 51.9724 131.594 51.7578 131.445C51.5524 131.295 51.1978 131.221 50.6938 131.221C50.2551 131.221 49.9144 131.281 49.6718 131.403C49.4291 131.524 49.2564 131.743 49.1538 132.061C49.0604 132.378 49.0138 132.835 49.0138 133.433C49.0138 134.067 49.0744 134.557 49.1958 134.903C49.3171 135.248 49.5178 135.486 49.7978 135.617C50.0778 135.738 50.4511 135.799 50.9178 135.799C51.2631 135.799 51.6598 135.785 52.1078 135.757C52.5651 135.729 53.0038 135.691 53.4238 135.645L53.5918 136.723C53.3398 136.825 53.0504 136.909 52.7238 136.975C52.3971 137.04 52.0564 137.087 51.7018 137.115C51.3564 137.152 51.0298 137.171 50.7218 137.171C49.8818 137.171 49.2051 137.049 48.6918 136.807C48.1878 136.555 47.8191 136.163 47.5858 135.631C47.3618 135.099 47.2498 134.413 47.2498 133.573C47.2498 132.667 47.3618 131.953 47.5858 131.431C47.8191 130.899 48.1831 130.521 48.6778 130.297C49.1818 130.073 49.8304 129.961 50.6238 129.961ZM66.2027 130.129L64.3827 136.555C64.3454 136.685 64.2707 136.793 64.1587 136.877C64.0467 136.961 63.916 137.003 63.7667 137.003H62.4087C62.2594 137.003 62.124 136.956 62.0027 136.863C61.8814 136.769 61.8114 136.643 61.7927 136.485L60.8827 132.271C60.8454 132.084 60.8127 131.897 60.7847 131.711C60.766 131.524 60.738 131.337 60.7007 131.151H60.5187C60.4907 131.337 60.458 131.524 60.4207 131.711C60.3927 131.897 60.36 132.084 60.3227 132.271L59.4267 136.485C59.3987 136.643 59.324 136.769 59.2027 136.863C59.0907 136.956 58.9554 137.003 58.7967 137.003H57.4527C57.3034 137.003 57.1727 136.961 57.0607 136.877C56.9487 136.793 56.8787 136.685 56.8507 136.555L55.0167 130.129H56.7387L57.8867 134.847C57.924 135.024 57.9567 135.206 57.9847 135.393C58.022 135.57 58.0547 135.747 58.0827 135.925H58.2507C58.2974 135.747 58.3347 135.57 58.3627 135.393C58.4 135.206 58.4374 135.024 58.4747 134.847L59.3847 130.647C59.4127 130.497 59.478 130.376 59.5807 130.283C59.6927 130.18 59.8327 130.129 60.0007 130.129H61.2327C61.382 130.129 61.5127 130.18 61.6247 130.283C61.7367 130.376 61.8067 130.502 61.8347 130.661L62.7447 134.847C62.7727 135.024 62.8054 135.201 62.8427 135.379C62.8894 135.556 62.9267 135.738 62.9547 135.925H63.1227C63.16 135.738 63.1927 135.561 63.2207 135.393C63.2487 135.215 63.286 135.033 63.3327 134.847L64.4807 130.129H66.2027Z" fill="#333839"/>
<path d="M90.3996 53.6044L53.7441 90.2499" stroke="white" stroke-width="6.29" stroke-miterlimit="10"/>
<path d="M90.3996 53.6044L53.7441 90.2499" stroke="#895F8C" stroke-width="3.42" stroke-miterlimit="10"/>
<path d="M8.6601 52.6618L6 50.0017L45.9905 10.0013" stroke="white" stroke-width="6.29" stroke-miterlimit="10"/>
<path d="M8.6601 52.6618L6 50.0017L45.9905 10.0013" stroke="#895F8C" stroke-width="3.42" stroke-miterlimit="10"/>
<path d="M68.6358 87.9313H31.3153L12 68.6358V31.3153L31.3153 12H68.6358L87.9512 31.3153V68.6358L68.6358 87.9313Z" fill="#895F8C"/>
<path d="M53.742 90.2507L50.0001 94.0026L8.65967 52.6622" stroke="white" stroke-width="6.29" stroke-miterlimit="10"/>
<path d="M53.742 90.2507L50.0001 94.0026L8.65967 52.6622" stroke="#895F8C" stroke-width="3.42" stroke-miterlimit="10"/>
<path d="M45.9897 10L49.9997 6L94.0002 50.0004L90.3972 53.6034" stroke="white" stroke-width="6.29" stroke-miterlimit="10"/>
<path d="M45.9897 10L49.9997 6L94.0002 50.0004L90.3972 53.6034" stroke="#895F8C" stroke-width="3.42" stroke-miterlimit="10"/>
<path d="M59.0614 45.0871C53.7207 42.4779 47.913 46.4339 47.9421 51.878H43.2658L42.693 49.5213C42.167 47.3447 41.6384 45.1678 41.1071 42.9907C40.9548 42.3651 41.2641 41.9706 41.9111 41.9706H59.1798C59.6169 41.9706 59.7321 42.1126 59.6398 42.5308C59.4709 43.2987 59.3018 44.0664 59.1324 44.8338C59.1151 44.9206 59.0859 45.0027 59.0614 45.0871Z" fill="#F9FBFF"/>
<path d="M48.7873 51.8828C48.781 50.9842 48.953 50.0933 49.2932 49.2616C49.6335 48.43 50.1352 47.674 50.7695 47.0374C51.4037 46.4009 52.1578 45.8964 52.9883 45.5531C53.8187 45.2099 54.709 45.0347 55.6076 45.0376C56.5061 45.0406 57.3952 45.2217 58.2234 45.5704C59.0515 45.9192 59.8023 46.4287 60.4323 47.0694C61.0623 47.7101 61.5591 48.4694 61.8938 49.3033C62.2285 50.1372 62.3946 51.0292 62.3824 51.9278C62.3737 55.6502 59.3053 58.6949 55.5734 58.6902C54.6808 58.689 53.7972 58.5119 52.973 58.1691C52.1489 57.8263 51.4003 57.3245 50.7701 56.6923C50.1399 56.0601 49.6405 55.31 49.3003 54.4848C48.96 53.6596 48.7857 52.7754 48.7873 51.8828ZM55.5726 46.7362C52.6754 46.7717 50.4 49.0708 50.4221 51.9435C50.4442 54.8163 52.7827 57.072 55.6728 57.0467C58.4911 57.0183 60.7697 54.6624 60.7318 51.8141C60.6979 48.9974 58.3641 46.7046 55.575 46.7362H55.5726Z" fill="#F9FBFF"/>
<path d="M61.2406 56.9939L63.1681 58.934C63.1997 58.9259 63.2301 58.914 63.2588 58.8985C63.6533 58.5356 63.6533 58.5356 64.0336 58.9167C64.8226 59.7096 65.6242 60.4947 66.4069 61.2986C66.6012 61.4921 66.7634 61.7153 66.8874 61.9598C66.9912 62.1691 67.0242 62.4064 66.9815 62.636C66.9388 62.8657 66.8227 63.0752 66.6507 63.2333C66.2823 63.5788 65.8459 63.6483 65.3954 63.4463C65.1657 63.336 64.9571 63.1862 64.7792 63.0037C63.9713 62.2147 63.1768 61.4083 62.3767 60.6091C61.9775 60.209 61.9775 60.209 62.3625 59.7885L60.4185 57.8665L61.2406 56.9939Z" fill="#F9FBFF"/>
<path d="M46.8601 55.6849C46.8551 55.9843 46.7615 56.2754 46.5911 56.5216C46.4207 56.7678 46.1812 56.958 45.9028 57.0681C45.6244 57.1783 45.3196 57.2035 45.0269 57.1405C44.7342 57.0776 44.4667 56.9293 44.2582 56.7144C44.0497 56.4995 43.9096 56.2277 43.8555 55.9332C43.8014 55.6388 43.8358 55.3349 43.9543 55.0599C44.0728 54.785 44.2701 54.5513 44.5213 54.3884C44.7725 54.2256 45.0664 54.1408 45.3657 54.1448C45.5654 54.1464 45.7627 54.1877 45.9463 54.2662C46.1299 54.3448 46.296 54.459 46.435 54.6023C46.5741 54.7456 46.6832 54.9151 46.7562 55.101C46.8292 55.2868 46.8645 55.4853 46.8601 55.6849Z" fill="#F9FBFF"/>
<path d="M42.7146 41.1264C42.014 41.1911 42.0147 41.1903 41.8364 40.5584C41.5177 39.4238 41.1973 38.2903 40.8754 37.1578C40.7579 36.7451 40.6687 36.6844 40.2245 36.6797C39.9389 36.6797 39.6541 36.6797 39.3685 36.6741C39.1539 36.6702 39.0016 36.5779 39 36.3443C39 36.095 39.1578 36.0011 39.385 36.0011C39.8474 36.0011 40.3097 36.0011 40.7721 36.0011C40.9119 35.9925 41.0502 36.0338 41.1625 36.1175C41.2748 36.2013 41.3536 36.3222 41.3851 36.4587C41.8317 38.002 42.268 39.5516 42.7146 41.1264Z" fill="#F9FBFF"/>
<path d="M42.991 55.475V55.7859C41.772 55.9792 40.7171 55.2596 40.4859 54.129C40.2295 52.8729 41.0248 51.7463 42.3251 51.5585L42.43 51.9301C41.8611 52.0516 41.3696 52.2757 41.0666 52.7861C40.8676 53.1179 40.7869 53.5073 40.8378 53.8907C40.9538 54.8557 41.5061 55.262 42.991 55.475Z" fill="#F9FBFF"/>
<path d="M49.0782 55.8039C48.9448 55.8189 48.8896 55.83 48.8344 55.83C48.4643 55.83 48.0943 55.83 47.7021 55.83V55.2872C48.0177 55.2872 48.3523 55.2359 48.6553 55.3077C48.8115 55.3455 48.9148 55.602 49.0782 55.8039Z" fill="#F9FBFF"/>
</g>
</svg>
