<svg width="92" height="156" viewBox="0 0 92 156" fill="none" xmlns="http://www.w3.org/2000/svg">
<g clip-path="url(#clip0_242_3838)">
<g opacity="0.35">
<path d="M14.0955 109.161C14.5715 109.17 15.0708 109.198 15.5935 109.245C16.1255 109.291 16.6435 109.38 17.1475 109.511L17.0355 110.701C16.6341 110.691 16.1675 110.682 15.6355 110.673C15.1128 110.654 14.6088 110.645 14.1235 110.645C13.8248 110.645 13.5681 110.654 13.3535 110.673C13.1481 110.691 12.9801 110.738 12.8495 110.813C12.7188 110.887 12.6208 111.004 12.5555 111.163C12.4995 111.312 12.4715 111.522 12.4715 111.793C12.4715 112.213 12.5555 112.511 12.7235 112.689C12.9008 112.866 13.1855 113.006 13.5775 113.109L15.4815 113.669C16.2468 113.902 16.7741 114.243 17.0635 114.691C17.3528 115.129 17.4975 115.717 17.4975 116.455C17.4975 117.005 17.4321 117.458 17.3015 117.813C17.1708 118.167 16.9701 118.443 16.6995 118.639C16.4288 118.835 16.0741 118.975 15.6355 119.059C15.1968 119.143 14.6695 119.185 14.0535 119.185C13.7361 119.185 13.2975 119.166 12.7375 119.129C12.1868 119.091 11.5568 118.998 10.8475 118.849L10.9595 117.589C11.5101 117.607 11.9721 117.626 12.3455 117.645C12.7188 117.654 13.0408 117.659 13.3115 117.659C13.5821 117.659 13.8341 117.659 14.0675 117.659C14.4968 117.659 14.8328 117.631 15.0755 117.575C15.3181 117.519 15.4861 117.402 15.5795 117.225C15.6821 117.047 15.7335 116.791 15.7335 116.455C15.7335 116.165 15.6961 115.941 15.6215 115.783C15.5561 115.615 15.4441 115.484 15.2855 115.391C15.1268 115.297 14.9215 115.218 14.6695 115.153L12.6955 114.551C11.9675 114.327 11.4541 113.995 11.1555 113.557C10.8661 113.118 10.7215 112.53 10.7215 111.793C10.7215 111.242 10.7868 110.794 10.9175 110.449C11.0481 110.094 11.2488 109.828 11.5195 109.651C11.7901 109.464 12.1355 109.338 12.5555 109.273C12.9848 109.198 13.4981 109.161 14.0955 109.161ZM21.0702 112.129V119.003H19.3902V112.129H21.0702ZM20.6082 109.147C20.9442 109.147 21.1122 109.315 21.1122 109.651V110.435C21.1122 110.771 20.9442 110.939 20.6082 110.939H19.8522C19.5162 110.939 19.3482 110.771 19.3482 110.435V109.651C19.3482 109.315 19.5162 109.147 19.8522 109.147H20.6082ZM27.8276 111.961C29.1063 111.961 29.7456 112.591 29.7456 113.851V119.003H28.0516V114.369C28.0516 113.995 27.9863 113.739 27.8556 113.599C27.7249 113.459 27.5056 113.389 27.1976 113.389C26.8523 113.389 26.4976 113.468 26.1336 113.627C25.7696 113.776 25.3309 113.995 24.8176 114.285L24.7476 113.263C25.2516 112.843 25.7649 112.521 26.2876 112.297C26.8103 112.073 27.3236 111.961 27.8276 111.961ZM24.6916 112.129L24.8596 113.473L24.9996 113.669V119.003H23.3056V112.129H24.6916ZM34.7964 111.961C35.5711 111.961 36.1824 112.035 36.6304 112.185C37.0878 112.325 37.4144 112.558 37.6104 112.885C37.8064 113.202 37.9044 113.622 37.9044 114.145C37.9044 114.649 37.8064 115.064 37.6104 115.391C37.4144 115.708 37.0878 115.941 36.6304 116.091C36.1731 116.24 35.5571 116.315 34.7824 116.315C34.0078 116.315 33.3918 116.24 32.9344 116.091C32.4864 115.941 32.1598 115.708 31.9544 115.391C31.7584 115.073 31.6604 114.658 31.6604 114.145C31.6604 113.622 31.7584 113.202 31.9544 112.885C32.1598 112.558 32.4911 112.325 32.9484 112.185C33.4058 112.035 34.0218 111.961 34.7964 111.961ZM34.7824 113.067C34.1944 113.067 33.7884 113.146 33.5644 113.305C33.3404 113.463 33.2284 113.743 33.2284 114.145C33.2284 114.527 33.3404 114.803 33.5644 114.971C33.7884 115.129 34.1944 115.209 34.7824 115.209C35.3704 115.209 35.7718 115.129 35.9864 114.971C36.2104 114.803 36.3224 114.527 36.3224 114.145C36.3224 113.743 36.2104 113.463 35.9864 113.305C35.7718 113.146 35.3704 113.067 34.7824 113.067ZM38.7024 112.129L38.6044 112.913L36.8124 113.109L36.3084 112.129H38.7024ZM32.7804 115.895L33.6484 116.021C33.5084 116.133 33.4104 116.277 33.3544 116.455C33.3078 116.623 33.3218 116.786 33.3964 116.945C33.4804 117.094 33.6578 117.187 33.9284 117.225L36.4764 117.561C37.1671 117.645 37.6524 117.85 37.9324 118.177C38.2124 118.494 38.3524 118.956 38.3524 119.563C38.3524 120.132 38.2404 120.575 38.0164 120.893C37.7924 121.21 37.4238 121.429 36.9104 121.551C36.4064 121.681 35.7251 121.747 34.8664 121.747C34.1851 121.747 33.6204 121.709 33.1724 121.635C32.7244 121.569 32.3651 121.453 32.0944 121.285C31.8331 121.126 31.6464 120.916 31.5344 120.655C31.4224 120.403 31.3664 120.085 31.3664 119.703C31.3664 119.404 31.4131 119.152 31.5064 118.947C31.6091 118.741 31.7724 118.559 31.9964 118.401C32.2204 118.233 32.5238 118.079 32.9064 117.939L33.8584 117.533L34.5164 117.771L33.9004 118.205C33.6858 118.363 33.5084 118.508 33.3684 118.639C33.2378 118.76 33.1398 118.881 33.0744 119.003C33.0184 119.133 32.9904 119.297 32.9904 119.493C32.9904 119.754 33.0418 119.955 33.1444 120.095C33.2564 120.235 33.4478 120.328 33.7184 120.375C33.9891 120.431 34.3671 120.459 34.8524 120.459C35.3471 120.459 35.7298 120.431 36.0004 120.375C36.2711 120.328 36.4578 120.235 36.5604 120.095C36.6724 119.964 36.7284 119.773 36.7284 119.521C36.7284 119.315 36.6958 119.161 36.6304 119.059C36.5651 118.965 36.4484 118.891 36.2804 118.835C36.1124 118.779 35.8791 118.732 35.5804 118.695L33.2844 118.415C32.9578 118.377 32.6964 118.284 32.5004 118.135C32.3138 117.976 32.1831 117.789 32.1084 117.575C32.0338 117.351 32.0104 117.131 32.0384 116.917C32.0758 116.693 32.1551 116.487 32.2764 116.301C32.4071 116.114 32.5751 115.979 32.7804 115.895ZM41.8705 109.203L41.8565 116.931C41.8565 117.192 41.9311 117.393 42.0805 117.533C42.2298 117.663 42.4445 117.729 42.7245 117.729H43.3265L43.5225 118.919C43.4198 118.965 43.2751 119.007 43.0885 119.045C42.9111 119.082 42.7245 119.105 42.5285 119.115C42.3418 119.133 42.1785 119.143 42.0385 119.143C41.4691 119.143 41.0165 118.989 40.6805 118.681C40.3445 118.373 40.1765 117.929 40.1765 117.351V109.203H41.8705ZM47.9245 111.961C49.0352 111.961 49.8332 112.157 50.3185 112.549C50.8038 112.931 51.0512 113.501 51.0605 114.257C51.0698 114.882 50.9205 115.358 50.6125 115.685C50.3138 116.002 49.8145 116.161 49.1145 116.161H45.1945V115.111H48.6525C48.9698 115.111 49.1705 115.027 49.2545 114.859C49.3478 114.691 49.3945 114.485 49.3945 114.243C49.3852 113.86 49.2732 113.594 49.0585 113.445C48.8532 113.295 48.4985 113.221 47.9945 113.221C47.5558 113.221 47.2152 113.281 46.9725 113.403C46.7298 113.524 46.5572 113.743 46.4545 114.061C46.3612 114.378 46.3145 114.835 46.3145 115.433C46.3145 116.067 46.3752 116.557 46.4965 116.903C46.6178 117.248 46.8185 117.486 47.0985 117.617C47.3785 117.738 47.7518 117.799 48.2185 117.799C48.5638 117.799 48.9605 117.785 49.4085 117.757C49.8658 117.729 50.3045 117.691 50.7245 117.645L50.8925 118.723C50.6405 118.825 50.3512 118.909 50.0245 118.975C49.6978 119.04 49.3572 119.087 49.0025 119.115C48.6572 119.152 48.3305 119.171 48.0225 119.171C47.1825 119.171 46.5058 119.049 45.9925 118.807C45.4885 118.555 45.1198 118.163 44.8865 117.631C44.6625 117.099 44.5505 116.413 44.5505 115.573C44.5505 114.667 44.6625 113.953 44.8865 113.431C45.1198 112.899 45.4838 112.521 45.9785 112.297C46.4825 112.073 47.1312 111.961 47.9245 111.961ZM59.9651 109.343V119.003H58.2151V109.343H59.9651ZM62.9611 109.343V110.771H55.2191V109.343H62.9611ZM66.6702 111.961C67.2208 111.961 67.6828 112.035 68.0562 112.185C68.4388 112.325 68.7282 112.567 68.9242 112.913C69.1202 113.258 69.2182 113.734 69.2182 114.341V119.003H67.8742L67.6362 117.519L67.5102 117.323V114.327C67.5102 113.963 67.4262 113.701 67.2582 113.543C67.0902 113.375 66.7682 113.291 66.2922 113.291C65.9375 113.291 65.4895 113.305 64.9482 113.333C64.4162 113.361 63.8795 113.398 63.3382 113.445L63.1842 112.283C63.5108 112.217 63.8795 112.161 64.2902 112.115C64.7008 112.068 65.1162 112.031 65.5362 112.003C65.9562 111.975 66.3342 111.961 66.6702 111.961ZM68.4902 114.775L68.4762 115.825H65.3262C65.0462 115.834 64.8455 115.909 64.7242 116.049C64.6028 116.189 64.5422 116.38 64.5422 116.623V117.001C64.5422 117.281 64.6168 117.495 64.7662 117.645C64.9155 117.785 65.1488 117.855 65.4662 117.855C65.7182 117.855 65.9982 117.803 66.3062 117.701C66.6142 117.598 66.9175 117.449 67.2162 117.253C67.5242 117.057 67.7995 116.823 68.0422 116.553V117.435C67.9488 117.575 67.8135 117.743 67.6362 117.939C67.4588 118.125 67.2395 118.312 66.9782 118.499C66.7262 118.685 66.4322 118.839 66.0962 118.961C65.7695 119.082 65.4055 119.143 65.0042 119.143C64.5935 119.143 64.2248 119.073 63.8982 118.933C63.5715 118.783 63.3148 118.569 63.1282 118.289C62.9415 117.999 62.8482 117.645 62.8482 117.225V116.497C62.8482 115.955 63.0255 115.535 63.3802 115.237C63.7442 114.929 64.2388 114.775 64.8642 114.775H68.4902ZM74.2518 111.961C75.0265 111.961 75.6378 112.035 76.0858 112.185C76.5432 112.325 76.8698 112.558 77.0658 112.885C77.2618 113.202 77.3598 113.622 77.3598 114.145C77.3598 114.649 77.2618 115.064 77.0658 115.391C76.8698 115.708 76.5432 115.941 76.0858 116.091C75.6285 116.24 75.0125 116.315 74.2378 116.315C73.4632 116.315 72.8472 116.24 72.3898 116.091C71.9418 115.941 71.6152 115.708 71.4098 115.391C71.2138 115.073 71.1158 114.658 71.1158 114.145C71.1158 113.622 71.2138 113.202 71.4098 112.885C71.6152 112.558 71.9465 112.325 72.4038 112.185C72.8612 112.035 73.4772 111.961 74.2518 111.961ZM74.2378 113.067C73.6498 113.067 73.2438 113.146 73.0198 113.305C72.7958 113.463 72.6838 113.743 72.6838 114.145C72.6838 114.527 72.7958 114.803 73.0198 114.971C73.2438 115.129 73.6498 115.209 74.2378 115.209C74.8258 115.209 75.2272 115.129 75.4418 114.971C75.6658 114.803 75.7778 114.527 75.7778 114.145C75.7778 113.743 75.6658 113.463 75.4418 113.305C75.2272 113.146 74.8258 113.067 74.2378 113.067ZM78.1578 112.129L78.0598 112.913L76.2678 113.109L75.7638 112.129H78.1578ZM72.2358 115.895L73.1038 116.021C72.9638 116.133 72.8658 116.277 72.8098 116.455C72.7632 116.623 72.7772 116.786 72.8518 116.945C72.9358 117.094 73.1132 117.187 73.3838 117.225L75.9318 117.561C76.6225 117.645 77.1078 117.85 77.3878 118.177C77.6678 118.494 77.8078 118.956 77.8078 119.563C77.8078 120.132 77.6958 120.575 77.4718 120.893C77.2478 121.21 76.8792 121.429 76.3658 121.551C75.8618 121.681 75.1805 121.747 74.3218 121.747C73.6405 121.747 73.0758 121.709 72.6278 121.635C72.1798 121.569 71.8205 121.453 71.5498 121.285C71.2885 121.126 71.1018 120.916 70.9898 120.655C70.8778 120.403 70.8218 120.085 70.8218 119.703C70.8218 119.404 70.8685 119.152 70.9618 118.947C71.0645 118.741 71.2278 118.559 71.4518 118.401C71.6758 118.233 71.9792 118.079 72.3618 117.939L73.3138 117.533L73.9718 117.771L73.3558 118.205C73.1412 118.363 72.9638 118.508 72.8238 118.639C72.6932 118.76 72.5952 118.881 72.5298 119.003C72.4738 119.133 72.4458 119.297 72.4458 119.493C72.4458 119.754 72.4972 119.955 72.5998 120.095C72.7118 120.235 72.9032 120.328 73.1738 120.375C73.4445 120.431 73.8225 120.459 74.3078 120.459C74.8025 120.459 75.1852 120.431 75.4558 120.375C75.7265 120.328 75.9132 120.235 76.0158 120.095C76.1278 119.964 76.1838 119.773 76.1838 119.521C76.1838 119.315 76.1512 119.161 76.0858 119.059C76.0205 118.965 75.9038 118.891 75.7358 118.835C75.5678 118.779 75.3345 118.732 75.0358 118.695L72.7398 118.415C72.4132 118.377 72.1518 118.284 71.9558 118.135C71.7692 117.976 71.6385 117.789 71.5638 117.575C71.4892 117.351 71.4658 117.131 71.4938 116.917C71.5312 116.693 71.6105 116.487 71.7318 116.301C71.8625 116.114 72.0305 115.979 72.2358 115.895ZM13.5452 127.161C13.9279 127.161 14.2825 127.17 14.6092 127.189C14.9452 127.207 15.2625 127.24 15.5612 127.287C15.8599 127.333 16.1539 127.399 16.4432 127.483L16.2892 128.771C15.9812 128.752 15.6779 128.738 15.3792 128.729C15.0805 128.71 14.7819 128.701 14.4832 128.701C14.1939 128.691 13.8999 128.687 13.6012 128.687C13.1532 128.687 12.7752 128.733 12.4672 128.827C12.1592 128.911 11.9119 129.079 11.7252 129.331C11.5479 129.583 11.4172 129.942 11.3332 130.409C11.2492 130.875 11.2072 131.477 11.2072 132.215C11.2072 133.083 11.2632 133.769 11.3752 134.273C11.4965 134.767 11.6925 135.127 11.9632 135.351C12.2339 135.565 12.5979 135.673 13.0552 135.673C13.3632 135.673 13.6479 135.635 13.9092 135.561C14.1705 135.486 14.4085 135.388 14.6232 135.267C14.8472 135.136 15.0572 135.005 15.2532 134.875L15.4632 135.785C15.3139 135.971 15.0945 136.177 14.8052 136.401C14.5252 136.615 14.1892 136.802 13.7972 136.961C13.4052 137.11 12.9619 137.185 12.4672 137.185C11.7392 137.185 11.1419 137.012 10.6752 136.667C10.2179 136.312 9.88186 135.766 9.6672 135.029C9.46186 134.282 9.3592 133.325 9.3592 132.159C9.3592 130.889 9.49453 129.891 9.7652 129.163C10.0359 128.435 10.4745 127.921 11.0812 127.623C11.6972 127.315 12.5185 127.161 13.5452 127.161ZM16.7512 131.431V137.003H15.4632L15.2112 135.561L15.0432 135.211V131.431H16.7512ZM21.8703 129.961C22.9809 129.961 23.7789 130.157 24.2643 130.549C24.7496 130.931 24.9969 131.501 25.0063 132.257C25.0156 132.882 24.8663 133.358 24.5583 133.685C24.2596 134.002 23.7603 134.161 23.0603 134.161H19.1403V133.111H22.5983C22.9156 133.111 23.1163 133.027 23.2003 132.859C23.2936 132.691 23.3403 132.485 23.3403 132.243C23.3309 131.86 23.2189 131.594 23.0043 131.445C22.7989 131.295 22.4443 131.221 21.9403 131.221C21.5016 131.221 21.1609 131.281 20.9183 131.403C20.6756 131.524 20.5029 131.743 20.4003 132.061C20.3069 132.378 20.2603 132.835 20.2603 133.433C20.2603 134.067 20.3209 134.557 20.4423 134.903C20.5636 135.248 20.7643 135.486 21.0443 135.617C21.3243 135.738 21.6976 135.799 22.1643 135.799C22.5096 135.799 22.9063 135.785 23.3543 135.757C23.8116 135.729 24.2503 135.691 24.6703 135.645L24.8383 136.723C24.5863 136.825 24.2969 136.909 23.9703 136.975C23.6436 137.04 23.3029 137.087 22.9483 137.115C22.6029 137.152 22.2763 137.171 21.9683 137.171C21.1283 137.171 20.4516 137.049 19.9383 136.807C19.4343 136.555 19.0656 136.163 18.8323 135.631C18.6083 135.099 18.4963 134.413 18.4963 133.573C18.4963 132.667 18.6083 131.953 18.8323 131.431C19.0656 130.899 19.4296 130.521 19.9243 130.297C20.4283 130.073 21.0769 129.961 21.8703 129.961ZM31.3309 129.961C32.6095 129.961 33.2489 130.591 33.2489 131.851V137.003H31.5549V132.369C31.5549 131.995 31.4895 131.739 31.3589 131.599C31.2282 131.459 31.0089 131.389 30.7009 131.389C30.3555 131.389 30.0009 131.468 29.6369 131.627C29.2729 131.776 28.8342 131.995 28.3209 132.285L28.2509 131.263C28.7549 130.843 29.2682 130.521 29.7909 130.297C30.3135 130.073 30.8269 129.961 31.3309 129.961ZM28.1949 130.129L28.3629 131.473L28.5029 131.669V137.003H26.8089V130.129H28.1949ZM38.4537 129.961C39.5644 129.961 40.3624 130.157 40.8477 130.549C41.333 130.931 41.5804 131.501 41.5897 132.257C41.599 132.882 41.4497 133.358 41.1417 133.685C40.843 134.002 40.3437 134.161 39.6437 134.161H35.7237V133.111H39.1817C39.499 133.111 39.6997 133.027 39.7837 132.859C39.877 132.691 39.9237 132.485 39.9237 132.243C39.9144 131.86 39.8024 131.594 39.5877 131.445C39.3824 131.295 39.0277 131.221 38.5237 131.221C38.085 131.221 37.7444 131.281 37.5017 131.403C37.259 131.524 37.0864 131.743 36.9837 132.061C36.8904 132.378 36.8437 132.835 36.8437 133.433C36.8437 134.067 36.9044 134.557 37.0257 134.903C37.147 135.248 37.3477 135.486 37.6277 135.617C37.9077 135.738 38.281 135.799 38.7477 135.799C39.093 135.799 39.4897 135.785 39.9377 135.757C40.395 135.729 40.8337 135.691 41.2537 135.645L41.4217 136.723C41.1697 136.825 40.8804 136.909 40.5537 136.975C40.227 137.04 39.8864 137.087 39.5317 137.115C39.1864 137.152 38.8597 137.171 38.5517 137.171C37.7117 137.171 37.035 137.049 36.5217 136.807C36.0177 136.555 35.649 136.163 35.4157 135.631C35.1917 135.099 35.0797 134.413 35.0797 133.573C35.0797 132.667 35.1917 131.953 35.4157 131.431C35.649 130.899 36.013 130.521 36.5077 130.297C37.0117 130.073 37.6604 129.961 38.4537 129.961ZM44.7083 130.129L44.9323 131.473L45.0863 131.669V137.003H43.3923V130.129H44.7083ZM48.0683 129.961L47.9003 131.529H47.4103C47.0463 131.529 46.6777 131.589 46.3043 131.711C45.931 131.832 45.4643 132.014 44.9043 132.257L44.7923 131.263C45.2777 130.852 45.7723 130.535 46.2763 130.311C46.7803 130.077 47.2657 129.961 47.7323 129.961H48.0683ZM52.9272 129.961C53.4779 129.961 53.9399 130.035 54.3132 130.185C54.6959 130.325 54.9852 130.567 55.1812 130.913C55.3772 131.258 55.4752 131.734 55.4752 132.341V137.003H54.1312L53.8932 135.519L53.7672 135.323V132.327C53.7672 131.963 53.6832 131.701 53.5152 131.543C53.3472 131.375 53.0252 131.291 52.5492 131.291C52.1945 131.291 51.7465 131.305 51.2052 131.333C50.6732 131.361 50.1365 131.398 49.5952 131.445L49.4412 130.283C49.7679 130.217 50.1365 130.161 50.5472 130.115C50.9579 130.068 51.3732 130.031 51.7932 130.003C52.2132 129.975 52.5912 129.961 52.9272 129.961ZM54.7472 132.775L54.7332 133.825H51.5832C51.3032 133.834 51.1025 133.909 50.9812 134.049C50.8599 134.189 50.7992 134.38 50.7992 134.623V135.001C50.7992 135.281 50.8739 135.495 51.0232 135.645C51.1725 135.785 51.4059 135.855 51.7232 135.855C51.9752 135.855 52.2552 135.803 52.5632 135.701C52.8712 135.598 53.1745 135.449 53.4732 135.253C53.7812 135.057 54.0565 134.823 54.2992 134.553V135.435C54.2059 135.575 54.0705 135.743 53.8932 135.939C53.7159 136.125 53.4965 136.312 53.2352 136.499C52.9832 136.685 52.6892 136.839 52.3532 136.961C52.0265 137.082 51.6625 137.143 51.2612 137.143C50.8505 137.143 50.4819 137.073 50.1552 136.933C49.8285 136.783 49.5719 136.569 49.3852 136.289C49.1985 135.999 49.1052 135.645 49.1052 135.225V134.497C49.1052 133.955 49.2825 133.535 49.6372 133.237C50.0012 132.929 50.4959 132.775 51.1212 132.775H54.7472ZM59.8649 128.169V134.931C59.8649 135.22 59.9255 135.425 60.0469 135.547C60.1775 135.668 60.3969 135.729 60.7049 135.729H61.6569L61.8389 136.919C61.6802 136.965 61.4889 137.007 61.2649 137.045C61.0409 137.082 60.8215 137.105 60.6069 137.115C60.3922 137.133 60.2102 137.143 60.0609 137.143C59.4635 137.143 58.9969 136.984 58.6609 136.667C58.3342 136.34 58.1709 135.873 58.1709 135.267V128.169H59.8649ZM61.9089 130.129V131.305H56.9529V130.199L58.2969 130.129H61.9089ZM65.1773 130.129V137.003H63.4973V130.129H65.1773ZM64.7153 127.147C65.0513 127.147 65.2193 127.315 65.2193 127.651V128.435C65.2193 128.771 65.0513 128.939 64.7153 128.939H63.9593C63.6233 128.939 63.4553 128.771 63.4553 128.435V127.651C63.4553 127.315 63.6233 127.147 63.9593 127.147H64.7153ZM70.5207 129.961C71.3607 129.961 72.028 130.077 72.5227 130.311C73.0267 130.544 73.386 130.927 73.6007 131.459C73.8247 131.991 73.9367 132.695 73.9367 133.573C73.9367 134.45 73.8247 135.155 73.6007 135.687C73.386 136.209 73.0267 136.592 72.5227 136.835C72.028 137.068 71.3607 137.185 70.5207 137.185C69.6994 137.185 69.0367 137.068 68.5327 136.835C68.038 136.592 67.6787 136.209 67.4547 135.687C67.2307 135.155 67.1187 134.45 67.1187 133.573C67.1187 132.695 67.2307 131.991 67.4547 131.459C67.6787 130.927 68.038 130.544 68.5327 130.311C69.0367 130.077 69.6994 129.961 70.5207 129.961ZM70.5207 131.249C70.11 131.249 69.7834 131.319 69.5407 131.459C69.3074 131.589 69.1394 131.823 69.0367 132.159C68.934 132.495 68.8827 132.966 68.8827 133.573C68.8827 134.179 68.934 134.651 69.0367 134.987C69.1394 135.323 69.3074 135.556 69.5407 135.687C69.7834 135.817 70.11 135.883 70.5207 135.883C70.9407 135.883 71.272 135.817 71.5147 135.687C71.7574 135.556 71.9254 135.323 72.0187 134.987C72.1214 134.651 72.1727 134.179 72.1727 133.573C72.1727 132.966 72.1214 132.495 72.0187 132.159C71.9254 131.823 71.7574 131.589 71.5147 131.459C71.272 131.319 70.9407 131.249 70.5207 131.249ZM80.3358 129.961C81.6145 129.961 82.2538 130.591 82.2538 131.851V137.003H80.5598V132.369C80.5598 131.995 80.4945 131.739 80.3638 131.599C80.2331 131.459 80.0138 131.389 79.7058 131.389C79.3605 131.389 79.0058 131.468 78.6418 131.627C78.2778 131.776 77.8391 131.995 77.3258 132.285L77.2558 131.263C77.7598 130.843 78.2731 130.521 78.7958 130.297C79.3185 130.073 79.8318 129.961 80.3358 129.961ZM77.1998 130.129L77.3678 131.473L77.5078 131.669V137.003H75.8138V130.129H77.1998Z" fill="#333839"/>
<path d="M86.3995 53.6044L49.744 90.2499" stroke="white" stroke-width="6.29" stroke-miterlimit="10"/>
<path d="M86.3995 53.6044L49.744 90.2499" stroke="#CB5049" stroke-width="3.42" stroke-miterlimit="10"/>
<path d="M4.6601 52.6618L2 50.0017L41.9905 10.0013" stroke="white" stroke-width="6.29" stroke-miterlimit="10"/>
<path d="M4.6601 52.6618L2 50.0017L41.9905 10.0013" stroke="#CB5049" stroke-width="3.42" stroke-miterlimit="10"/>
<path d="M64.6359 87.9313H27.3154L8.00006 68.6358V31.3153L27.3154 12H64.6359L83.9512 31.3153V68.6358L64.6359 87.9313Z" fill="#CB5049"/>
<path d="M49.7421 90.2507L46.0002 94.0026L4.65979 52.6622" stroke="white" stroke-width="6.29" stroke-miterlimit="10"/>
<path d="M49.7421 90.2507L46.0002 94.0026L4.65979 52.6622" stroke="#CB5049" stroke-width="3.42" stroke-miterlimit="10"/>
<path d="M41.9896 10L45.9995 6L90 50.0004L86.397 53.6034" stroke="white" stroke-width="6.29" stroke-miterlimit="10"/>
<path d="M41.9896 10L45.9995 6L90 50.0004L86.397 53.6034" stroke="#CB5049" stroke-width="3.42" stroke-miterlimit="10"/>
<path d="M51.0529 35.0007H51.562C51.663 35.0477 51.758 35.1066 51.8449 35.1762C52.4667 35.8048 53.0817 36.441 53.6566 37.031L51.273 39.4266C51.1127 39.2534 50.9417 39.0522 50.7526 38.8691C50.3926 38.5219 49.8661 38.5219 49.534 38.8578C49.4551 38.9363 49.3926 39.0299 49.3503 39.1329C49.3079 39.2359 49.2865 39.3463 49.2874 39.4576C49.2882 39.569 49.3113 39.6791 49.3552 39.7814C49.3991 39.8838 49.463 39.9763 49.5431 40.0537C50.3358 40.8616 51.1392 41.6596 51.944 42.4554C52.0456 42.5626 52.175 42.6396 52.3178 42.6777C52.4606 42.7157 52.6111 42.7134 52.7526 42.671C53.3895 42.4977 53.5923 41.7473 53.1346 41.2511C52.9463 41.0469 52.7451 40.8548 52.5764 40.6846L54.9614 38.2973C55.5613 38.8918 56.1914 39.4879 56.7806 40.1225C56.9206 40.2738 56.9675 40.5514 56.9728 40.7731C56.9788 41.0613 56.9009 41.351 56.8593 41.6399C56.5093 44.0847 56.1606 46.5305 55.8131 48.9773C55.7784 49.2852 55.6393 49.5718 55.419 49.7897C52.0262 53.1755 48.6354 56.5631 45.2466 59.9524C45.036 60.1684 44.8013 60.3592 44.5469 60.5212C43.2882 61.2996 41.7481 61.0863 40.6422 59.9842C38.9372 58.2867 37.2357 56.5858 35.5378 54.8813C34.357 53.7005 33.1716 52.5242 31.9961 51.3374C30.6905 50.0197 30.6618 48.1263 31.9485 46.8343C35.3842 43.385 38.828 39.944 42.2798 36.5113C42.4489 36.3499 42.6622 36.2424 42.8925 36.2027C45.0461 35.8812 47.2042 35.5839 49.3593 35.2738C49.9251 35.1944 50.4886 35.093 51.0529 35.0007ZM41.7413 55.1097C42.1399 55.1052 42.416 54.8828 42.568 54.4289C43.4173 51.8908 44.2634 49.354 45.1066 46.8185C45.5779 45.4077 46.0522 43.9985 46.5166 42.5824C46.7239 41.9531 46.2897 41.348 45.677 41.4077C45.2519 41.4486 45.0143 41.7103 44.8827 42.1051C43.8661 45.1687 42.8461 48.2315 41.8229 51.2935C41.5287 52.1778 41.2276 53.0598 40.9402 53.9456C40.7405 54.5613 41.1323 55.1165 41.7413 55.1097ZM38.9387 50.8041C39.6112 50.8005 40.2551 50.5316 40.7303 50.0558C41.2055 49.5799 41.4737 48.9357 41.4765 48.2632C41.4713 47.5861 41.1993 46.9384 40.7195 46.4606C40.2397 45.9827 39.5908 45.7134 38.9137 45.711C38.2413 45.7168 37.5983 45.9878 37.1245 46.4649C36.6507 46.9421 36.3844 47.587 36.3835 48.2595C36.3825 48.5948 36.4481 48.9269 36.5763 49.2368C36.7045 49.5466 36.8929 49.828 37.1305 50.0646C37.3681 50.3012 37.6502 50.4884 37.9606 50.6153C38.2709 50.7422 38.6034 50.8064 38.9387 50.8041ZM48.5454 50.8041C49.2179 50.8025 49.8623 50.5344 50.3376 50.0586C50.8128 49.5828 51.0801 48.938 51.0809 48.2655C51.0801 47.5881 50.8106 46.9388 50.3316 46.4599C49.8525 45.9809 49.2031 45.7116 48.5257 45.711C47.8534 45.7168 47.2106 45.9874 46.7365 46.464C46.2624 46.9406 45.9953 47.5849 45.9932 48.2572C45.9917 48.5924 46.0568 48.9246 46.1846 49.2346C46.3124 49.5445 46.5003 49.826 46.7376 50.0629C46.9749 50.2997 47.2567 50.4872 47.5669 50.6144C47.8771 50.7416 48.2094 50.8061 48.5446 50.8041H48.5454Z" fill="white"/>
<path d="M59.9993 61.2731C59.8669 61.7837 59.7224 62.286 59.3941 62.7156C58.7761 63.5228 57.963 63.9796 56.9493 63.9834C52.7431 63.9981 48.536 63.9981 44.3283 63.9834C43.2821 63.9789 42.4629 63.4751 41.8162 62.5757C42.0234 62.6022 42.1747 62.6241 42.326 62.6415C43.91 62.8215 45.2647 62.3389 46.3895 61.2179C49.4793 58.1317 52.5678 55.0437 55.6551 51.9539C55.9682 51.64 56.2723 51.317 56.5976 51.0159C57.1513 50.5031 57.4138 49.8661 57.5129 49.1248C57.7602 47.2754 58.0348 45.4304 58.3124 43.4841L60 45.8155L59.9993 61.2731Z" fill="white"/>
<path d="M56.3752 35.0008C56.4281 35.0348 56.4796 35.0719 56.534 35.1029C57.0257 35.3782 57.1626 35.9879 56.7776 36.3979C56.1853 37.028 55.556 37.6225 54.9622 38.2133C54.5681 37.8192 54.1777 37.4281 53.7836 37.0348C54.3888 36.4297 54.9985 35.8041 55.6187 35.1876C55.7012 35.1059 55.8215 35.062 55.9213 35L56.3752 35.0008Z" fill="white"/>
<path d="M38.9122 49.109C38.8017 49.1079 38.6924 49.085 38.5907 49.0416C38.489 48.9982 38.3969 48.9352 38.3196 48.8562C38.2423 48.7771 38.1813 48.6836 38.1403 48.5809C38.0992 48.4783 38.0787 48.3685 38.0801 48.258C38.0821 48.0342 38.1717 47.8201 38.3296 47.6616C38.4876 47.5031 38.7013 47.4128 38.9251 47.41C39.1528 47.4152 39.3693 47.5094 39.5283 47.6725C39.6873 47.8356 39.776 48.0545 39.7753 48.2822C39.7686 48.5057 39.6744 48.7175 39.5129 48.8722C39.3515 49.0268 39.1358 49.1119 38.9122 49.109Z" fill="white"/>
<path d="M48.5158 49.1089C48.4049 49.1067 48.2955 49.0827 48.1939 49.0381C48.0924 48.9934 48.0006 48.9292 47.924 48.8489C47.8473 48.7687 47.7873 48.6741 47.7474 48.5706C47.7075 48.4671 47.6884 48.3567 47.6913 48.2458C47.6971 48.0217 47.7907 47.8088 47.9521 47.6531C48.1134 47.4975 48.3295 47.4115 48.5537 47.4137C48.7767 47.422 48.9877 47.5167 49.1422 47.6777C49.2966 47.8388 49.3823 48.0537 49.3812 48.2768C49.3793 48.3884 49.3554 48.4985 49.3109 48.6007C49.2663 48.703 49.202 48.7955 49.1215 48.8728C49.0411 48.9501 48.9462 49.0108 48.8423 49.0513C48.7383 49.0918 48.6274 49.1114 48.5158 49.1089Z" fill="white"/>
</g>
</g>
<defs>
<clipPath id="clip0_242_3838">
<rect width="92" height="156" fill="white"/>
</clipPath>
</defs>
</svg>
