<svg width="100" height="156" viewBox="0 0 100 156" fill="none" xmlns="http://www.w3.org/2000/svg">
<g opacity="0.2">
<rect width="100" height="156" rx="19" fill="#F9FBFF"/>
<path d="M39.7443 109.161C40.2203 109.17 40.7197 109.198 41.2423 109.245C41.7743 109.292 42.2923 109.38 42.7963 109.511L42.6843 110.701C42.283 110.692 41.8163 110.682 41.2843 110.673C40.7617 110.654 40.2577 110.645 39.7723 110.645C39.4737 110.645 39.217 110.654 39.0023 110.673C38.797 110.692 38.629 110.738 38.4983 110.813C38.3677 110.888 38.2697 111.004 38.2043 111.163C38.1483 111.312 38.1203 111.522 38.1203 111.793C38.1203 112.213 38.2043 112.512 38.3723 112.689C38.5497 112.866 38.8343 113.006 39.2263 113.109L41.1303 113.669C41.8957 113.902 42.423 114.243 42.7123 114.691C43.0017 115.13 43.1463 115.718 43.1463 116.455C43.1463 117.006 43.081 117.458 42.9503 117.813C42.8197 118.168 42.619 118.443 42.3483 118.639C42.0777 118.835 41.723 118.975 41.2843 119.059C40.8457 119.143 40.3183 119.185 39.7023 119.185C39.385 119.185 38.9463 119.166 38.3863 119.129C37.8357 119.092 37.2057 118.998 36.4963 118.849L36.6083 117.589C37.159 117.608 37.621 117.626 37.9943 117.645C38.3677 117.654 38.6897 117.659 38.9603 117.659C39.231 117.659 39.483 117.659 39.7163 117.659C40.1457 117.659 40.4817 117.631 40.7243 117.575C40.967 117.519 41.135 117.402 41.2283 117.225C41.331 117.048 41.3823 116.791 41.3823 116.455C41.3823 116.166 41.345 115.942 41.2703 115.783C41.205 115.615 41.093 115.484 40.9343 115.391C40.7757 115.298 40.5703 115.218 40.3183 115.153L38.3443 114.551C37.6163 114.327 37.103 113.996 36.8043 113.557C36.515 113.118 36.3703 112.53 36.3703 111.793C36.3703 111.242 36.4357 110.794 36.5663 110.449C36.697 110.094 36.8977 109.828 37.1683 109.651C37.439 109.464 37.7843 109.338 38.2043 109.273C38.6337 109.198 39.147 109.161 39.7443 109.161ZM46.8591 112.129V119.003H45.1791V112.129H46.8591ZM46.3971 109.147C46.7331 109.147 46.9011 109.315 46.9011 109.651V110.435C46.9011 110.771 46.7331 110.939 46.3971 110.939H45.6411C45.3051 110.939 45.1371 110.771 45.1371 110.435V109.651C45.1371 109.315 45.3051 109.147 45.6411 109.147H46.3971ZM52.9585 113.361L54.8905 113.375L50.8165 117.785L48.8845 117.771L52.9585 113.361ZM54.9465 117.771V119.003H48.8845V117.771H54.9465ZM54.8905 112.129V113.375H48.9405V112.129H54.8905ZM59.9529 111.961C61.0636 111.961 61.8616 112.157 62.3469 112.549C62.8322 112.932 63.0796 113.501 63.0889 114.257C63.0982 114.882 62.9489 115.358 62.6409 115.685C62.3422 116.002 61.8429 116.161 61.1429 116.161H57.2229V115.111H60.6809C60.9982 115.111 61.1989 115.027 61.2829 114.859C61.3762 114.691 61.4229 114.486 61.4229 114.243C61.4136 113.86 61.3016 113.594 61.0869 113.445C60.8816 113.296 60.5269 113.221 60.0229 113.221C59.5842 113.221 59.2436 113.282 59.0009 113.403C58.7582 113.524 58.5856 113.744 58.4829 114.061C58.3896 114.378 58.3429 114.836 58.3429 115.433C58.3429 116.068 58.4036 116.558 58.5249 116.903C58.6462 117.248 58.8469 117.486 59.1269 117.617C59.4069 117.738 59.7802 117.799 60.2469 117.799C60.5922 117.799 60.9889 117.785 61.4369 117.757C61.8942 117.729 62.3329 117.692 62.7529 117.645L62.9209 118.723C62.6689 118.826 62.3796 118.91 62.0529 118.975C61.7262 119.04 61.3856 119.087 61.0309 119.115C60.6856 119.152 60.3589 119.171 60.0509 119.171C59.2109 119.171 58.5342 119.05 58.0209 118.807C57.5169 118.555 57.1482 118.163 56.9149 117.631C56.6909 117.099 56.5789 116.413 56.5789 115.573C56.5789 114.668 56.6909 113.954 56.9149 113.431C57.1482 112.899 57.5122 112.521 58.0069 112.297C58.5109 112.073 59.1596 111.961 59.9529 111.961ZM36.0522 127.343C36.4908 127.343 36.7148 127.567 36.7242 128.015L37.1022 137.003H35.4362L35.1002 128.729H34.8342L33.0282 135.211C32.9442 135.594 32.7062 135.785 32.3142 135.785H31.0822C30.6808 135.785 30.4335 135.594 30.3402 135.211L28.5342 128.729H28.2682L27.9602 137.003H26.2942L26.6722 128.015C26.6908 127.567 26.9148 127.343 27.3442 127.343H29.0942C29.4675 127.343 29.7008 127.534 29.7942 127.917L31.2782 133.209C31.3435 133.433 31.3948 133.657 31.4322 133.881C31.4788 134.105 31.5302 134.329 31.5862 134.553H31.7962C31.8522 134.329 31.9035 134.105 31.9502 133.881C31.9968 133.657 32.0482 133.428 32.1042 133.195L33.5882 127.917C33.6722 127.534 33.9102 127.343 34.3022 127.343H36.0522ZM42.834 129.961C43.3846 129.961 43.8466 130.036 44.22 130.185C44.6026 130.325 44.892 130.568 45.088 130.913C45.284 131.258 45.382 131.734 45.382 132.341V137.003H44.038L43.8 135.519L43.674 135.323V132.327C43.674 131.963 43.59 131.702 43.422 131.543C43.254 131.375 42.932 131.291 42.456 131.291C42.1013 131.291 41.6533 131.305 41.112 131.333C40.58 131.361 40.0433 131.398 39.502 131.445L39.348 130.283C39.6746 130.218 40.0433 130.162 40.454 130.115C40.8646 130.068 41.28 130.031 41.7 130.003C42.12 129.975 42.498 129.961 42.834 129.961ZM44.654 132.775L44.64 133.825H41.49C41.21 133.834 41.0093 133.909 40.888 134.049C40.7666 134.189 40.706 134.38 40.706 134.623V135.001C40.706 135.281 40.7806 135.496 40.93 135.645C41.0793 135.785 41.3126 135.855 41.63 135.855C41.882 135.855 42.162 135.804 42.47 135.701C42.778 135.598 43.0813 135.449 43.38 135.253C43.688 135.057 43.9633 134.824 44.206 134.553V135.435C44.1126 135.575 43.9773 135.743 43.8 135.939C43.6226 136.126 43.4033 136.312 43.142 136.499C42.89 136.686 42.596 136.84 42.26 136.961C41.9333 137.082 41.5693 137.143 41.168 137.143C40.7573 137.143 40.3886 137.073 40.062 136.933C39.7353 136.784 39.4786 136.569 39.292 136.289C39.1053 136 39.012 135.645 39.012 135.225V134.497C39.012 133.956 39.1893 133.536 39.544 133.237C39.908 132.929 40.4026 132.775 41.028 132.775H44.654ZM50.1216 129.961C50.4389 129.961 50.7796 129.97 51.1436 129.989C51.5169 130.008 51.8809 130.036 52.2356 130.073C52.5903 130.101 52.9076 130.143 53.1876 130.199L53.0756 131.305C52.6276 131.296 52.1796 131.286 51.7316 131.277C51.2929 131.258 50.8589 131.249 50.4296 131.249C50.0469 131.249 49.7436 131.258 49.5196 131.277C49.3049 131.296 49.1509 131.352 49.0576 131.445C48.9736 131.538 48.9316 131.697 48.9316 131.921C48.9316 132.192 49.0063 132.374 49.1556 132.467C49.3049 132.551 49.5476 132.635 49.8836 132.719L51.7596 133.153C52.3196 133.293 52.7349 133.508 53.0056 133.797C53.2763 134.077 53.4116 134.511 53.4116 135.099C53.4116 135.668 53.3043 136.102 53.0896 136.401C52.8843 136.69 52.5529 136.891 52.0956 137.003C51.6476 137.106 51.0736 137.157 50.3736 137.157C50.1029 137.157 49.7016 137.143 49.1696 137.115C48.6376 137.096 48.0543 137.036 47.4196 136.933L47.5316 135.827C47.7183 135.827 47.9376 135.832 48.1896 135.841C48.4509 135.85 48.7263 135.855 49.0156 135.855C49.3143 135.855 49.6176 135.855 49.9256 135.855C50.4203 135.855 50.7983 135.841 51.0596 135.813C51.3303 135.776 51.5169 135.706 51.6196 135.603C51.7223 135.491 51.7736 135.332 51.7736 135.127C51.7736 134.866 51.6849 134.693 51.5076 134.609C51.3396 134.516 51.0876 134.427 50.7516 134.343L48.9176 133.895C48.4976 133.783 48.1709 133.643 47.9376 133.475C47.7043 133.298 47.5363 133.083 47.4336 132.831C47.3309 132.57 47.2796 132.252 47.2796 131.879C47.2796 131.375 47.3729 130.983 47.5596 130.703C47.7556 130.423 48.0589 130.227 48.4696 130.115C48.8896 130.003 49.4403 129.952 50.1216 129.961ZM57.6324 128.169V134.931C57.6324 135.22 57.6931 135.426 57.8144 135.547C57.9451 135.668 58.1644 135.729 58.4724 135.729H59.4244L59.6064 136.919C59.4477 136.966 59.2564 137.008 59.0324 137.045C58.8084 137.082 58.5891 137.106 58.3744 137.115C58.1597 137.134 57.9777 137.143 57.8284 137.143C57.2311 137.143 56.7644 136.984 56.4284 136.667C56.1017 136.34 55.9384 135.874 55.9384 135.267V128.169H57.6324ZM59.6764 130.129V131.305H54.7204V130.199L56.0644 130.129H59.6764ZM64.4148 129.961C65.5255 129.961 66.3235 130.157 66.8088 130.549C67.2942 130.932 67.5415 131.501 67.5508 132.257C67.5602 132.882 67.4108 133.358 67.1028 133.685C66.8042 134.002 66.3048 134.161 65.6048 134.161H61.6848V133.111H65.1428C65.4602 133.111 65.6608 133.027 65.7448 132.859C65.8382 132.691 65.8848 132.486 65.8848 132.243C65.8755 131.86 65.7635 131.594 65.5488 131.445C65.3435 131.296 64.9888 131.221 64.4848 131.221C64.0462 131.221 63.7055 131.282 63.4628 131.403C63.2202 131.524 63.0475 131.744 62.9448 132.061C62.8515 132.378 62.8048 132.836 62.8048 133.433C62.8048 134.068 62.8655 134.558 62.9868 134.903C63.1082 135.248 63.3088 135.486 63.5888 135.617C63.8688 135.738 64.2422 135.799 64.7088 135.799C65.0542 135.799 65.4508 135.785 65.8988 135.757C66.3562 135.729 66.7948 135.692 67.2148 135.645L67.3828 136.723C67.1308 136.826 66.8415 136.91 66.5148 136.975C66.1882 137.04 65.8475 137.087 65.4928 137.115C65.1475 137.152 64.8208 137.171 64.5128 137.171C63.6728 137.171 62.9962 137.05 62.4828 136.807C61.9788 136.555 61.6102 136.163 61.3768 135.631C61.1528 135.099 61.0408 134.413 61.0408 133.573C61.0408 132.668 61.1528 131.954 61.3768 131.431C61.6102 130.899 61.9742 130.521 62.4688 130.297C62.9728 130.073 63.6215 129.961 64.4148 129.961ZM70.8095 130.129L71.0335 131.473L71.1875 131.669V137.003H69.4935V130.129H70.8095ZM74.1695 129.961L74.0015 131.529H73.5115C73.1475 131.529 72.7788 131.59 72.4055 131.711C72.0321 131.832 71.5655 132.014 71.0055 132.257L70.8935 131.263C71.3788 130.852 71.8735 130.535 72.3775 130.311C72.8815 130.078 73.3668 129.961 73.8335 129.961H74.1695Z" fill="#333839"/>
<path d="M90.3996 53.6045L53.7441 90.2501" stroke="white" stroke-width="6.29" stroke-miterlimit="10"/>
<path d="M90.3996 53.6045L53.7441 90.2501" stroke="#B737D0" stroke-width="3.42" stroke-miterlimit="10"/>
<path d="M8.6601 52.6614L6 50.0013L45.9905 10.001" stroke="white" stroke-width="6.29" stroke-miterlimit="10"/>
<path d="M8.6601 52.6614L6 50.0013L45.9905 10.001" stroke="#B737D0" stroke-width="3.42" stroke-miterlimit="10"/>
<path d="M68.6358 87.9313H31.3153L12 68.6358V31.3153L31.3153 12H68.6358L87.9512 31.3153V68.6358L68.6358 87.9313Z" fill="#B737D0"/>
<path d="M53.7425 90.2506L50.0005 94.0025L8.66016 52.6621" stroke="white" stroke-width="6.29" stroke-miterlimit="10"/>
<path d="M53.7425 90.2506L50.0005 94.0025L8.66016 52.6621" stroke="#B737D0" stroke-width="3.42" stroke-miterlimit="10"/>
<path d="M45.9893 10L49.9992 6L93.9997 50.0004L90.3967 53.6034" stroke="white" stroke-width="6.29" stroke-miterlimit="10"/>
<path d="M45.9893 10L49.9992 6L93.9997 50.0004L90.3967 53.6034" stroke="#B737D0" stroke-width="3.42" stroke-miterlimit="10"/>
<path d="M55.5986 52.2411C56.5754 51.6754 57.5 51.1443 58.4156 50.5998C58.4564 50.5659 58.4894 50.5237 58.5125 50.4759C58.5355 50.4282 58.5479 50.376 58.549 50.3231C58.5579 48.9096 58.549 47.4961 58.5601 46.0826C58.5601 45.8603 58.4278 45.8037 58.2845 45.7203C55.0886 43.8734 51.893 42.0251 48.6978 40.1752C48.6012 40.1197 48.5056 40.0641 48.3756 39.9808C48.4756 39.9163 48.5456 39.8697 48.6201 39.8241C49.5891 39.2685 50.5636 38.7129 51.5259 38.1383C51.6587 38.0482 51.8155 38 51.976 38C52.1365 38 52.2933 38.0482 52.426 38.1383C55.5375 39.9445 58.6519 41.7462 61.7693 43.5434C61.9032 43.6121 62.0139 43.7185 62.088 43.8494C62.162 43.9803 62.1961 44.1301 62.186 44.2802C62.186 47.8872 62.186 51.4939 62.186 55.1003C62.1953 55.2507 62.1602 55.4006 62.0851 55.5313C62.0101 55.6621 61.8984 55.768 61.7638 55.8359C58.6471 57.6331 55.5327 59.4345 52.4205 61.2398C52.2877 61.3289 52.1314 61.3765 51.9716 61.3765C51.8117 61.3765 51.6554 61.3289 51.5226 61.2398C48.4304 59.4419 45.3338 57.6506 42.2327 55.8659C42.0839 55.7948 41.96 55.6805 41.8769 55.5381C41.7939 55.3956 41.7556 55.2314 41.7671 55.0669C41.776 51.4813 41.776 47.8954 41.7671 44.309C41.7546 44.1498 41.7904 43.9904 41.8696 43.8517C41.9489 43.713 42.068 43.6013 42.2116 43.5312C43.2061 42.9756 44.1907 42.3955 45.1741 41.8176C45.2354 41.7726 45.3091 41.7477 45.3851 41.7463C45.4611 41.7449 45.5357 41.7671 45.5986 41.8099C48.8634 43.7049 52.1308 45.594 55.4008 47.4772C55.4687 47.5116 55.5242 47.5662 55.5598 47.6335C55.5954 47.7007 55.6094 47.7773 55.5997 47.8528C55.5997 49.1863 55.5997 50.5131 55.5997 51.8432L55.5986 52.2411Z" fill="white"/>
<path d="M43.212 63.5688C43.212 64.041 43.212 64.4667 43.212 64.8923C43.212 65.2534 43.4176 65.4857 43.7121 65.4857C44.0065 65.4857 44.2032 65.2556 44.2066 64.8911C44.2066 64.4655 44.2066 64.0399 44.2066 63.5899H45.9623V64.5956C45.9623 64.7311 45.9557 64.8667 45.969 65.0012C45.975 65.1325 46.0318 65.2564 46.1273 65.3468C46.2229 65.4372 46.3498 65.4869 46.4813 65.4857C46.5465 65.4834 46.6106 65.4681 46.6698 65.4408C46.7291 65.4135 46.7823 65.3747 46.8263 65.3266C46.8704 65.2785 46.9045 65.2221 46.9265 65.1607C46.9485 65.0993 46.9581 65.0341 46.9547 64.9689C46.9647 64.6156 46.9547 64.2622 46.9547 63.9088V63.5854H48.7204V64.9189C48.7204 65.1701 48.8071 65.3634 49.0616 65.4523C49.3949 65.5634 49.6961 65.3412 49.7105 64.9534C49.7261 64.5089 49.7105 64.0644 49.7105 63.5899H51.473C51.473 64.0199 51.4596 64.4633 51.4807 64.9045C51.4874 65.0578 51.5418 65.2645 51.6485 65.3412C51.7774 65.4323 52.0308 65.4879 52.1497 65.419C52.231 65.364 52.3001 65.2928 52.3525 65.2098C52.4049 65.1267 52.4395 65.0338 52.4542 64.9367C52.4964 64.4922 52.4686 64.0477 52.4686 63.5843H54.2221C54.2221 64.011 54.2221 64.4344 54.2221 64.8567C54.2221 65.2456 54.4122 65.4823 54.7167 65.4845C55.0211 65.4868 55.2156 65.2501 55.2178 64.8622C55.2178 64.4466 55.2178 64.031 55.2178 63.5899H56.9847V64.3089C56.9847 64.4955 56.9847 64.6833 56.9847 64.87C56.9914 65.2501 57.1947 65.4923 57.497 65.4845C57.7992 65.4768 57.977 65.2534 57.9792 64.88C57.9792 64.4555 57.9792 64.031 57.9792 63.5866H59.7394C59.7394 63.9899 59.7394 64.3911 59.7394 64.7911C59.7394 64.9245 59.7228 65.1045 59.7983 65.1812C59.9283 65.328 60.1034 65.4273 60.2962 65.4634C60.3516 65.466 60.4069 65.4572 60.4587 65.4375C60.5105 65.4177 60.5577 65.3875 60.5974 65.3488C60.637 65.31 60.6682 65.2634 60.689 65.212C60.7099 65.1606 60.7199 65.1055 60.7184 65.05C60.7384 64.6978 60.7307 64.3433 60.734 63.9899C60.734 63.8577 60.734 63.7255 60.734 63.571C61.3274 63.571 61.8863 63.5543 62.4431 63.571C62.7576 63.5843 62.9854 63.8444 62.9898 64.1877C63.002 65.1878 63.0042 66.188 62.9898 67.1803C62.9898 67.5781 62.7276 67.7959 62.3231 67.8115C62.2608 67.8115 62.1986 67.8115 62.1364 67.8115H41.8119C41.7496 67.8115 41.6874 67.8115 41.6252 67.8115C41.2029 67.7948 40.9662 67.5692 40.964 67.1514C40.9573 66.1742 40.9573 65.1971 40.964 64.22C40.964 63.8466 41.1862 63.5799 41.5352 63.5677C42.083 63.5554 42.6308 63.5688 43.212 63.5688Z" fill="white"/>
<path d="M38.1239 52.8864V52.5042C38.1239 49.1986 38.1257 45.8927 38.1294 42.5864C38.1294 42.3397 38.075 42.1786 37.8383 42.0741C37.6315 41.977 37.4334 41.8625 37.246 41.7319C37.1894 41.6992 37.1399 41.6556 37.1006 41.6034C37.0613 41.5512 37.0329 41.4917 37.0171 41.4283C37.0013 41.3649 36.9985 41.299 37.0088 41.2345C37.0191 41.17 37.0423 41.1082 37.0771 41.0529C37.1407 40.9436 37.245 40.8638 37.3671 40.831C37.4893 40.7981 37.6194 40.8147 37.7294 40.8773C38.4895 41.3025 39.244 41.7381 39.993 42.1841C40.0499 42.216 40.0999 42.259 40.14 42.3106C40.1801 42.3621 40.2094 42.4212 40.2263 42.4843C40.2432 42.5474 40.2473 42.6132 40.2383 42.6779C40.2293 42.7425 40.2075 42.8048 40.1741 42.8609C40.0352 43.0998 39.7718 43.1709 39.4985 43.0376C39.3873 42.9831 39.2829 42.9187 39.1351 42.8375C39.1273 42.972 39.1162 43.0698 39.1162 43.1709C39.1162 46.5046 39.114 49.842 39.1095 53.1831C39.0993 53.2791 39.1205 53.3757 39.17 53.4585C39.2195 53.5413 39.2946 53.6057 39.384 53.6421C39.5978 53.7483 39.8046 53.8681 40.003 54.001C40.0588 54.0345 40.1074 54.0788 40.1459 54.1313C40.1845 54.1838 40.2122 54.2434 40.2275 54.3066C40.2428 54.3699 40.2454 54.4356 40.2351 54.4999C40.2247 54.5642 40.2018 54.6258 40.1674 54.6811C40.1363 54.7357 40.0946 54.7835 40.0446 54.8216C39.9947 54.8597 39.9376 54.8874 39.8768 54.9031C39.816 54.9188 39.7526 54.922 39.6905 54.9127C39.6283 54.9034 39.5687 54.8817 39.5151 54.8489C38.755 54.4229 38.0005 53.9877 37.2515 53.5432C37.1937 53.5123 37.1429 53.4698 37.1022 53.4183C37.0616 53.3668 37.0321 53.3075 37.0155 53.244C36.9989 53.1806 36.9956 53.1144 37.0058 53.0496C37.016 52.9848 37.0395 52.9228 37.0749 52.8676C37.1396 52.7595 37.2433 52.6803 37.3647 52.6464C37.486 52.6125 37.6158 52.6264 37.7271 52.6853C37.8472 52.7331 37.9605 52.7964 38.1239 52.8864Z" fill="white"/>
</g>
</svg>
