<svg width="100" height="156" viewBox="0 0 100 156" fill="none" xmlns="http://www.w3.org/2000/svg">
<g opacity="0.2">
<rect width="100" height="156" rx="19" fill="#F9FBFF"/>
<path d="M23.9268 109.161C24.4028 109.17 24.9021 109.198 25.4248 109.245C25.9568 109.292 26.4748 109.38 26.9788 109.511L26.8668 110.701C26.4655 110.692 25.9988 110.682 25.4668 110.673C24.9441 110.654 24.4401 110.645 23.9548 110.645C23.6561 110.645 23.3995 110.654 23.1848 110.673C22.9795 110.692 22.8115 110.738 22.6808 110.813C22.5501 110.888 22.4521 111.004 22.3868 111.163C22.3308 111.312 22.3028 111.522 22.3028 111.793C22.3028 112.213 22.3868 112.512 22.5548 112.689C22.7321 112.866 23.0168 113.006 23.4088 113.109L25.3128 113.669C26.0781 113.902 26.6055 114.243 26.8948 114.691C27.1841 115.13 27.3288 115.718 27.3288 116.455C27.3288 117.006 27.2635 117.458 27.1328 117.813C27.0021 118.168 26.8015 118.443 26.5308 118.639C26.2601 118.835 25.9055 118.975 25.4668 119.059C25.0281 119.143 24.5008 119.185 23.8848 119.185C23.5675 119.185 23.1288 119.166 22.5688 119.129C22.0181 119.092 21.3881 118.998 20.6788 118.849L20.7908 117.589C21.3415 117.608 21.8035 117.626 22.1768 117.645C22.5501 117.654 22.8721 117.659 23.1428 117.659C23.4135 117.659 23.6655 117.659 23.8988 117.659C24.3281 117.659 24.6641 117.631 24.9068 117.575C25.1495 117.519 25.3175 117.402 25.4108 117.225C25.5135 117.048 25.5648 116.791 25.5648 116.455C25.5648 116.166 25.5275 115.942 25.4528 115.783C25.3875 115.615 25.2755 115.484 25.1168 115.391C24.9581 115.298 24.7528 115.218 24.5008 115.153L22.5268 114.551C21.7988 114.327 21.2855 113.996 20.9868 113.557C20.6975 113.118 20.5528 112.53 20.5528 111.793C20.5528 111.242 20.6181 110.794 20.7488 110.449C20.8795 110.094 21.0801 109.828 21.3508 109.651C21.6215 109.464 21.9668 109.338 22.3868 109.273C22.8161 109.198 23.3295 109.161 23.9268 109.161ZM31.0415 112.129V119.003H29.3615V112.129H31.0415ZM30.5795 109.147C30.9155 109.147 31.0835 109.315 31.0835 109.651V110.435C31.0835 110.771 30.9155 110.939 30.5795 110.939H29.8235C29.4875 110.939 29.3195 110.771 29.3195 110.435V109.651C29.3195 109.315 29.4875 109.147 29.8235 109.147H30.5795ZM37.1409 113.361L39.0729 113.375L34.9989 117.785L33.0669 117.771L37.1409 113.361ZM39.1289 117.771V119.003H33.0669V117.771H39.1289ZM39.0729 112.129V113.375H33.1229V112.129H39.0729ZM44.1353 111.961C45.246 111.961 46.044 112.157 46.5294 112.549C47.0147 112.932 47.262 113.501 47.2714 114.257C47.2807 114.882 47.1314 115.358 46.8234 115.685C46.5247 116.002 46.0253 116.161 45.3253 116.161H41.4053V115.111H44.8633C45.1807 115.111 45.3814 115.027 45.4654 114.859C45.5587 114.691 45.6053 114.486 45.6053 114.243C45.596 113.86 45.484 113.594 45.2694 113.445C45.064 113.296 44.7093 113.221 44.2053 113.221C43.7667 113.221 43.426 113.282 43.1833 113.403C42.9407 113.524 42.768 113.744 42.6653 114.061C42.572 114.378 42.5253 114.836 42.5253 115.433C42.5253 116.068 42.586 116.558 42.7073 116.903C42.8287 117.248 43.0293 117.486 43.3093 117.617C43.5893 117.738 43.9627 117.799 44.4294 117.799C44.7747 117.799 45.1713 117.785 45.6193 117.757C46.0767 117.729 46.5154 117.692 46.9353 117.645L47.1033 118.723C46.8513 118.826 46.562 118.91 46.2353 118.975C45.9087 119.04 45.568 119.087 45.2133 119.115C44.868 119.152 44.5413 119.171 44.2333 119.171C43.3933 119.171 42.7167 119.05 42.2033 118.807C41.6993 118.555 41.3307 118.163 41.0973 117.631C40.8733 117.099 40.7613 116.413 40.7613 115.573C40.7613 114.668 40.8733 113.954 41.0973 113.431C41.3307 112.899 41.6947 112.521 42.1893 112.297C42.6933 112.073 43.342 111.961 44.1353 111.961ZM54.5305 109.343V116.763C54.5305 117.034 54.6005 117.239 54.7405 117.379C54.8898 117.51 55.0998 117.575 55.3705 117.575H58.7865L58.8705 118.905C58.2358 118.961 57.5731 118.994 56.8825 119.003C56.2011 119.022 55.5245 119.031 54.8525 119.031C54.1431 119.031 53.6205 118.849 53.2845 118.485C52.9578 118.121 52.7945 117.659 52.7945 117.099V109.343H54.5305ZM62.2216 112.129V119.003H60.5416V112.129H62.2216ZM61.7596 109.147C62.0956 109.147 62.2636 109.315 62.2636 109.651V110.435C62.2636 110.771 62.0956 110.939 61.7596 110.939H61.0036C60.6676 110.939 60.4996 110.771 60.4996 110.435V109.651C60.4996 109.315 60.6676 109.147 61.0036 109.147H61.7596ZM69.119 111.961C70.3977 111.961 71.037 112.591 71.037 113.851V119.003H69.343V114.369C69.343 113.996 69.2777 113.739 69.147 113.599C69.0163 113.459 68.797 113.389 68.489 113.389C68.1437 113.389 67.789 113.468 67.425 113.627C67.061 113.776 66.6223 113.996 66.109 114.285L66.039 113.263C66.543 112.843 67.0563 112.521 67.579 112.297C68.1017 112.073 68.615 111.961 69.119 111.961ZM65.983 112.129L66.151 113.473L66.291 113.669V119.003H64.597V112.129H65.983ZM79.5318 112.129L77.5718 114.579C77.4972 114.691 77.4038 114.803 77.2918 114.915C77.1798 115.018 77.0818 115.097 76.9978 115.153V115.181C77.0818 115.237 77.1798 115.33 77.2918 115.461C77.4038 115.582 77.4972 115.708 77.5718 115.839L79.7558 119.003H77.8378L75.3318 115.111L77.6138 112.129H79.5318ZM75.0098 109.203L75.0238 113.389C75.0238 113.697 75.0052 113.991 74.9678 114.271C74.9398 114.551 74.8978 114.836 74.8418 115.125C74.8885 115.396 74.9258 115.676 74.9538 115.965C74.9912 116.254 75.0098 116.525 75.0098 116.777V119.003H73.3158V109.203H75.0098ZM76.0598 114.607V115.699H74.4638V114.607H76.0598Z" fill="#333839"/>
<path d="M90.3996 53.6045L53.7441 90.2501" stroke="white" stroke-width="6.29" stroke-miterlimit="10"/>
<path d="M90.3996 53.6045L53.7441 90.2501" stroke="#336E98" stroke-width="3.42" stroke-miterlimit="10"/>
<path d="M8.6601 52.6614L6 50.0013L45.9905 10.001" stroke="white" stroke-width="6.29" stroke-miterlimit="10"/>
<path d="M8.6601 52.6614L6 50.0013L45.9905 10.001" stroke="#336E98" stroke-width="3.42" stroke-miterlimit="10"/>
<path d="M68.6358 87.9313H31.3153L12 68.6358V31.3153L31.3153 12H68.6358L87.9512 31.3153V68.6358L68.6358 87.9313Z" fill="#336E98"/>
<path d="M53.7425 90.2506L50.0005 94.0025L8.66016 52.6621" stroke="white" stroke-width="6.29" stroke-miterlimit="10"/>
<path d="M53.7425 90.2506L50.0005 94.0025L8.66016 52.6621" stroke="#336E98" stroke-width="3.42" stroke-miterlimit="10"/>
<path d="M45.9893 10L49.9992 6L93.9997 50.0004L90.3967 53.6034" stroke="white" stroke-width="6.29" stroke-miterlimit="10"/>
<path d="M45.9893 10L49.9992 6L93.9997 50.0004L90.3967 53.6034" stroke="#336E98" stroke-width="3.42" stroke-miterlimit="10"/>
<path d="M60.3946 46.2091C60.3432 46.496 60.3011 46.7848 60.2383 47.0685C59.9977 48.1376 59.4504 49.1133 58.6635 49.876L55.3667 53.1728C55.0583 53.4812 54.7704 53.4812 54.4579 53.1728C53.7907 52.5077 53.1215 51.8364 52.4759 51.1929L54.4034 49.2695L54.9174 49.8205C54.975 49.7681 55.0089 49.7413 55.0398 49.7105C55.6226 49.1287 56.2107 48.5509 56.7874 47.9629C57.6334 47.0984 57.9325 46.0632 57.5789 44.9077C57.2191 43.7306 56.3967 42.9853 55.1847 42.7325C54.2533 42.5382 53.3765 42.7427 52.6754 43.3821C51.9558 44.039 51.3092 44.7741 50.6111 45.4947L51.1467 45.9737L49.2059 47.9177C49.1853 47.8992 49.1411 47.8622 49.1031 47.821C48.4726 47.1919 47.8434 46.5624 47.2157 45.9326C46.9073 45.6242 46.9073 45.3343 47.2157 45.0228C48.4493 43.8016 49.6366 42.5371 50.9165 41.3734C52.1716 40.2334 53.7106 39.8314 55.3924 40.0627C57.0947 40.293 58.4095 41.172 59.3902 42.5597C59.9249 43.3252 60.2553 44.2143 60.3504 45.1431C60.3586 45.2212 60.3751 45.2983 60.3884 45.3754L60.3946 46.2091Z" fill="white"/>
<path d="M45.4108 60.3968C45.0459 60.332 44.6768 60.2847 44.318 60.1973C42.1479 59.671 40.3736 57.6962 40.0652 55.4798C39.7969 53.5534 40.3582 51.8993 41.7172 50.5187C42.7884 49.4311 43.876 48.3599 44.9554 47.2775C45.2638 46.9752 45.5455 46.9752 45.8508 47.2775C46.5231 47.9477 47.1872 48.6138 47.8513 49.2779L45.9834 51.1448L45.4612 50.5681C45.3974 50.6246 45.3584 50.6575 45.3224 50.6935C44.7488 51.2661 44.1741 51.8356 43.6046 52.4123C41.9485 54.0869 42.5818 56.8039 44.8156 57.5523C45.8436 57.8987 46.8356 57.7425 47.6601 57.0383C48.4136 56.3927 49.09 55.6577 49.8189 54.9432L49.2319 54.4015L51.1028 52.5295L52.0434 53.4681C52.4002 53.8248 52.763 54.1805 53.1126 54.5392C53.4066 54.8353 53.4066 55.1272 53.1126 55.4202C51.9211 56.6045 50.7482 57.8083 49.53 58.9637C48.6346 59.8108 47.5285 60.2426 46.3021 60.3618C46.2435 60.368 46.1859 60.3824 46.1273 60.3926L45.4108 60.3968Z" fill="white"/>
<path d="M54.5808 47.062C54.586 47.4608 54.4071 47.7723 54.1326 48.0458C52.0992 50.0771 50.0658 52.1084 48.0325 54.1397C47.902 54.2712 47.7519 54.3816 47.5874 54.4667C47.331 54.5903 47.0398 54.6215 46.7631 54.555C46.4864 54.4885 46.2411 54.3284 46.069 54.1017C45.8991 53.8826 45.8062 53.6135 45.8047 53.3362C45.8032 53.0589 45.8932 52.7889 46.0608 52.5679C46.1225 52.4901 46.1888 52.416 46.2592 52.3459C48.2878 50.3173 50.3153 48.2894 52.3418 46.2622C52.7191 45.8849 53.1519 45.7163 53.6782 45.8633C53.9384 45.9381 54.1672 46.0955 54.33 46.3117C54.4928 46.528 54.5809 46.7913 54.5808 47.062Z" fill="white"/>
</g>
</svg>
