<svg width="100" height="156" viewBox="0 0 100 156" fill="none" xmlns="http://www.w3.org/2000/svg">
<g opacity="0.2">
<rect width="100" height="156" rx="19" fill="#F9FBFF"/>
<path d="M35.7453 109.161C36.2213 109.17 36.7206 109.198 37.2433 109.245C37.7753 109.291 38.2933 109.38 38.7973 109.511L38.6853 110.701C38.284 110.691 37.8173 110.682 37.2853 110.673C36.7626 110.654 36.2586 110.645 35.7733 110.645C35.4746 110.645 35.218 110.654 35.0033 110.673C34.798 110.691 34.63 110.738 34.4993 110.813C34.3686 110.887 34.2706 111.004 34.2053 111.163C34.1493 111.312 34.1213 111.522 34.1213 111.793C34.1213 112.213 34.2053 112.511 34.3733 112.689C34.5506 112.866 34.8353 113.006 35.2273 113.109L37.1313 113.669C37.8966 113.902 38.424 114.243 38.7133 114.691C39.0026 115.129 39.1473 115.717 39.1473 116.455C39.1473 117.005 39.082 117.458 38.9513 117.813C38.8206 118.167 38.62 118.443 38.3493 118.639C38.0786 118.835 37.724 118.975 37.2853 119.059C36.8466 119.143 36.3193 119.185 35.7033 119.185C35.386 119.185 34.9473 119.166 34.3873 119.129C33.8366 119.091 33.2066 118.998 32.4973 118.849L32.6093 117.589C33.16 117.607 33.622 117.626 33.9953 117.645C34.3686 117.654 34.6906 117.659 34.9613 117.659C35.232 117.659 35.484 117.659 35.7173 117.659C36.1466 117.659 36.4826 117.631 36.7253 117.575C36.968 117.519 37.136 117.402 37.2293 117.225C37.332 117.047 37.3833 116.791 37.3833 116.455C37.3833 116.165 37.346 115.941 37.2713 115.783C37.206 115.615 37.094 115.484 36.9353 115.391C36.7766 115.297 36.5713 115.218 36.3193 115.153L34.3453 114.551C33.6173 114.327 33.104 113.995 32.8053 113.557C32.516 113.118 32.3713 112.53 32.3713 111.793C32.3713 111.242 32.4366 110.794 32.5673 110.449C32.698 110.094 32.8986 109.828 33.1693 109.651C33.44 109.464 33.7853 109.338 34.2053 109.273C34.6346 109.198 35.148 109.161 35.7453 109.161ZM43.3373 110.169V116.931C43.3373 117.22 43.398 117.425 43.5193 117.547C43.65 117.668 43.8693 117.729 44.1773 117.729H45.1293L45.3113 118.919C45.1527 118.965 44.9613 119.007 44.7373 119.045C44.5133 119.082 44.294 119.105 44.0793 119.115C43.8647 119.133 43.6827 119.143 43.5333 119.143C42.936 119.143 42.4693 118.984 42.1333 118.667C41.8067 118.34 41.6433 117.873 41.6433 117.267V110.169H43.3373ZM45.3813 112.129V113.305H40.4253V112.199L41.7693 112.129H45.3813ZM50.5118 111.961C51.0625 111.961 51.5245 112.035 51.8978 112.185C52.2805 112.325 52.5698 112.567 52.7658 112.913C52.9618 113.258 53.0598 113.734 53.0598 114.341V119.003H51.7158L51.4778 117.519L51.3518 117.323V114.327C51.3518 113.963 51.2678 113.701 51.0998 113.543C50.9318 113.375 50.6098 113.291 50.1338 113.291C49.7791 113.291 49.3311 113.305 48.7898 113.333C48.2578 113.361 47.7211 113.398 47.1798 113.445L47.0258 112.283C47.3525 112.217 47.7211 112.161 48.1318 112.115C48.5425 112.068 48.9578 112.031 49.3778 112.003C49.7978 111.975 50.1758 111.961 50.5118 111.961ZM52.3318 114.775L52.3178 115.825H49.1678C48.8878 115.834 48.6871 115.909 48.5658 116.049C48.4445 116.189 48.3838 116.38 48.3838 116.623V117.001C48.3838 117.281 48.4585 117.495 48.6078 117.645C48.7571 117.785 48.9905 117.855 49.3078 117.855C49.5598 117.855 49.8398 117.803 50.1478 117.701C50.4558 117.598 50.7591 117.449 51.0578 117.253C51.3658 117.057 51.6411 116.823 51.8838 116.553V117.435C51.7905 117.575 51.6551 117.743 51.4778 117.939C51.3005 118.125 51.0811 118.312 50.8198 118.499C50.5678 118.685 50.2738 118.839 49.9378 118.961C49.6111 119.082 49.2471 119.143 48.8458 119.143C48.4351 119.143 48.0665 119.073 47.7398 118.933C47.4131 118.783 47.1565 118.569 46.9698 118.289C46.7831 117.999 46.6898 117.645 46.6898 117.225V116.497C46.6898 115.955 46.8671 115.535 47.2218 115.237C47.5858 114.929 48.0805 114.775 48.7058 114.775H52.3318ZM57.5895 110.169V116.931C57.5895 117.22 57.6501 117.425 57.7715 117.547C57.9021 117.668 58.1215 117.729 58.4295 117.729H59.3815L59.5635 118.919C59.4048 118.965 59.2135 119.007 58.9895 119.045C58.7655 119.082 58.5461 119.105 58.3315 119.115C58.1168 119.133 57.9348 119.143 57.7855 119.143C57.1881 119.143 56.7215 118.984 56.3855 118.667C56.0588 118.34 55.8955 117.873 55.8955 117.267V110.169H57.5895ZM59.6335 112.129V113.305H54.6775V112.199L56.0215 112.129H59.6335ZM64.3719 111.961C65.4826 111.961 66.2806 112.157 66.7659 112.549C67.2512 112.931 67.4986 113.501 67.5079 114.257C67.5172 114.882 67.3679 115.358 67.0599 115.685C66.7612 116.002 66.2619 116.161 65.5619 116.161H61.6419V115.111H65.0999C65.4172 115.111 65.6179 115.027 65.7019 114.859C65.7952 114.691 65.8419 114.485 65.8419 114.243C65.8326 113.86 65.7206 113.594 65.5059 113.445C65.3006 113.295 64.9459 113.221 64.4419 113.221C64.0032 113.221 63.6626 113.281 63.4199 113.403C63.1772 113.524 63.0046 113.743 62.9019 114.061C62.8086 114.378 62.7619 114.835 62.7619 115.433C62.7619 116.067 62.8226 116.557 62.9439 116.903C63.0652 117.248 63.2659 117.486 63.5459 117.617C63.8259 117.738 64.1992 117.799 64.6659 117.799C65.0112 117.799 65.4079 117.785 65.8559 117.757C66.3132 117.729 66.7519 117.691 67.1719 117.645L67.3399 118.723C67.0879 118.825 66.7986 118.909 66.4719 118.975C66.1452 119.04 65.8046 119.087 65.4499 119.115C65.1046 119.152 64.7779 119.171 64.4699 119.171C63.6299 119.171 62.9532 119.049 62.4399 118.807C61.9359 118.555 61.5672 118.163 61.3339 117.631C61.1099 117.099 60.9979 116.413 60.9979 115.573C60.9979 114.667 61.1099 113.953 61.3339 113.431C61.5672 112.899 61.9312 112.521 62.4259 112.297C62.9299 112.073 63.5786 111.961 64.3719 111.961ZM36.0522 127.343C36.4908 127.343 36.7148 127.567 36.7242 128.015L37.1022 137.003H35.4362L35.1002 128.729H34.8342L33.0282 135.211C32.9442 135.593 32.7062 135.785 32.3142 135.785H31.0822C30.6808 135.785 30.4335 135.593 30.3402 135.211L28.5342 128.729H28.2682L27.9602 137.003H26.2942L26.6722 128.015C26.6908 127.567 26.9148 127.343 27.3442 127.343H29.0942C29.4675 127.343 29.7008 127.534 29.7942 127.917L31.2782 133.209C31.3435 133.433 31.3948 133.657 31.4322 133.881C31.4788 134.105 31.5302 134.329 31.5862 134.553H31.7962C31.8522 134.329 31.9035 134.105 31.9502 133.881C31.9968 133.657 32.0482 133.428 32.1042 133.195L33.5882 127.917C33.6722 127.534 33.9102 127.343 34.3022 127.343H36.0522ZM42.834 129.961C43.3846 129.961 43.8466 130.035 44.22 130.185C44.6026 130.325 44.892 130.567 45.088 130.913C45.284 131.258 45.382 131.734 45.382 132.341V137.003H44.038L43.8 135.519L43.674 135.323V132.327C43.674 131.963 43.59 131.701 43.422 131.543C43.254 131.375 42.932 131.291 42.456 131.291C42.1013 131.291 41.6533 131.305 41.112 131.333C40.58 131.361 40.0433 131.398 39.502 131.445L39.348 130.283C39.6746 130.217 40.0433 130.161 40.454 130.115C40.8646 130.068 41.28 130.031 41.7 130.003C42.12 129.975 42.498 129.961 42.834 129.961ZM44.654 132.775L44.64 133.825H41.49C41.21 133.834 41.0093 133.909 40.888 134.049C40.7666 134.189 40.706 134.38 40.706 134.623V135.001C40.706 135.281 40.7806 135.495 40.93 135.645C41.0793 135.785 41.3126 135.855 41.63 135.855C41.882 135.855 42.162 135.803 42.47 135.701C42.778 135.598 43.0813 135.449 43.38 135.253C43.688 135.057 43.9633 134.823 44.206 134.553V135.435C44.1126 135.575 43.9773 135.743 43.8 135.939C43.6226 136.125 43.4033 136.312 43.142 136.499C42.89 136.685 42.596 136.839 42.26 136.961C41.9333 137.082 41.5693 137.143 41.168 137.143C40.7573 137.143 40.3886 137.073 40.062 136.933C39.7353 136.783 39.4786 136.569 39.292 136.289C39.1053 135.999 39.012 135.645 39.012 135.225V134.497C39.012 133.955 39.1893 133.535 39.544 133.237C39.908 132.929 40.4026 132.775 41.028 132.775H44.654ZM50.1216 129.961C50.4389 129.961 50.7796 129.97 51.1436 129.989C51.5169 130.007 51.8809 130.035 52.2356 130.073C52.5903 130.101 52.9076 130.143 53.1876 130.199L53.0756 131.305C52.6276 131.295 52.1796 131.286 51.7316 131.277C51.2929 131.258 50.8589 131.249 50.4296 131.249C50.0469 131.249 49.7436 131.258 49.5196 131.277C49.3049 131.295 49.1509 131.351 49.0576 131.445C48.9736 131.538 48.9316 131.697 48.9316 131.921C48.9316 132.191 49.0063 132.373 49.1556 132.467C49.3049 132.551 49.5476 132.635 49.8836 132.719L51.7596 133.153C52.3196 133.293 52.7349 133.507 53.0056 133.797C53.2763 134.077 53.4116 134.511 53.4116 135.099C53.4116 135.668 53.3043 136.102 53.0896 136.401C52.8843 136.69 52.5529 136.891 52.0956 137.003C51.6476 137.105 51.0736 137.157 50.3736 137.157C50.1029 137.157 49.7016 137.143 49.1696 137.115C48.6376 137.096 48.0543 137.035 47.4196 136.933L47.5316 135.827C47.7183 135.827 47.9376 135.831 48.1896 135.841C48.4509 135.85 48.7263 135.855 49.0156 135.855C49.3143 135.855 49.6176 135.855 49.9256 135.855C50.4203 135.855 50.7983 135.841 51.0596 135.813C51.3303 135.775 51.5169 135.705 51.6196 135.603C51.7223 135.491 51.7736 135.332 51.7736 135.127C51.7736 134.865 51.6849 134.693 51.5076 134.609C51.3396 134.515 51.0876 134.427 50.7516 134.343L48.9176 133.895C48.4976 133.783 48.1709 133.643 47.9376 133.475C47.7043 133.297 47.5363 133.083 47.4336 132.831C47.3309 132.569 47.2796 132.252 47.2796 131.879C47.2796 131.375 47.3729 130.983 47.5596 130.703C47.7556 130.423 48.0589 130.227 48.4696 130.115C48.8896 130.003 49.4403 129.951 50.1216 129.961ZM57.6324 128.169V134.931C57.6324 135.22 57.6931 135.425 57.8144 135.547C57.9451 135.668 58.1644 135.729 58.4724 135.729H59.4244L59.6064 136.919C59.4477 136.965 59.2564 137.007 59.0324 137.045C58.8084 137.082 58.5891 137.105 58.3744 137.115C58.1597 137.133 57.9777 137.143 57.8284 137.143C57.2311 137.143 56.7644 136.984 56.4284 136.667C56.1017 136.34 55.9384 135.873 55.9384 135.267V128.169H57.6324ZM59.6764 130.129V131.305H54.7204V130.199L56.0644 130.129H59.6764ZM64.4148 129.961C65.5255 129.961 66.3235 130.157 66.8088 130.549C67.2942 130.931 67.5415 131.501 67.5508 132.257C67.5602 132.882 67.4108 133.358 67.1028 133.685C66.8042 134.002 66.3048 134.161 65.6048 134.161H61.6848V133.111H65.1428C65.4602 133.111 65.6608 133.027 65.7448 132.859C65.8382 132.691 65.8848 132.485 65.8848 132.243C65.8755 131.86 65.7635 131.594 65.5488 131.445C65.3435 131.295 64.9888 131.221 64.4848 131.221C64.0462 131.221 63.7055 131.281 63.4628 131.403C63.2202 131.524 63.0475 131.743 62.9448 132.061C62.8515 132.378 62.8048 132.835 62.8048 133.433C62.8048 134.067 62.8655 134.557 62.9868 134.903C63.1082 135.248 63.3088 135.486 63.5888 135.617C63.8688 135.738 64.2422 135.799 64.7088 135.799C65.0542 135.799 65.4508 135.785 65.8988 135.757C66.3562 135.729 66.7948 135.691 67.2148 135.645L67.3828 136.723C67.1308 136.825 66.8415 136.909 66.5148 136.975C66.1882 137.04 65.8475 137.087 65.4928 137.115C65.1475 137.152 64.8208 137.171 64.5128 137.171C63.6728 137.171 62.9962 137.049 62.4828 136.807C61.9788 136.555 61.6102 136.163 61.3768 135.631C61.1528 135.099 61.0408 134.413 61.0408 133.573C61.0408 132.667 61.1528 131.953 61.3768 131.431C61.6102 130.899 61.9742 130.521 62.4688 130.297C62.9728 130.073 63.6215 129.961 64.4148 129.961ZM70.8095 130.129L71.0335 131.473L71.1875 131.669V137.003H69.4935V130.129H70.8095ZM74.1695 129.961L74.0015 131.529H73.5115C73.1475 131.529 72.7788 131.589 72.4055 131.711C72.0321 131.832 71.5655 132.014 71.0055 132.257L70.8935 131.263C71.3788 130.852 71.8735 130.535 72.3775 130.311C72.8815 130.077 73.3668 129.961 73.8335 129.961H74.1695Z" fill="#333839"/>
<path d="M90.3994 53.6045L53.7439 90.2501" stroke="white" stroke-width="6.29" stroke-miterlimit="10"/>
<path d="M90.3994 53.6045L53.7439 90.2501" stroke="#437FB6" stroke-width="3.42" stroke-miterlimit="10"/>
<path d="M8.6601 52.6616L6 50.0016L45.9905 10.0012" stroke="white" stroke-width="6.29" stroke-miterlimit="10"/>
<path d="M8.6601 52.6616L6 50.0016L45.9905 10.0012" stroke="#437FB6" stroke-width="3.42" stroke-miterlimit="10"/>
<path d="M68.6358 87.9313H31.3153L12 68.6358V31.3153L31.3153 12H68.6358L87.9512 31.3153V68.6358L68.6358 87.9313Z" fill="#437FB6"/>
<path d="M53.742 90.2506L50.0001 94.0025L8.65967 52.6621" stroke="white" stroke-width="6.29" stroke-miterlimit="10"/>
<path d="M53.742 90.2506L50.0001 94.0025L8.65967 52.6621" stroke="#437FB6" stroke-width="3.42" stroke-miterlimit="10"/>
<path d="M45.9895 10L49.9995 6L93.9999 50.0004L90.3969 53.6034" stroke="white" stroke-width="6.29" stroke-miterlimit="10"/>
<path d="M45.9895 10L49.9995 6L93.9999 50.0004L90.3969 53.6034" stroke="#437FB6" stroke-width="3.42" stroke-miterlimit="10"/>
<path d="M41.7641 42.7469C39.7636 42.3103 38.7908 40.6081 38.9476 39.0503C39.0273 38.2277 39.406 37.4628 40.012 36.9007C40.6179 36.3385 41.4091 36.0183 42.2354 36.0006C43.9817 35.9697 45.4212 37.2191 45.6561 39.0017C45.8315 40.3322 45.1052 42.2268 42.8389 42.7198C43.345 42.7453 43.8573 42.733 44.3572 42.804C46.3376 43.083 47.8103 44.9815 47.6025 46.9619C47.5927 47.006 47.573 47.0474 47.5449 47.0829C47.5168 47.1184 47.481 47.147 47.4402 47.1666C46.1888 47.6453 45.062 48.4014 44.1447 49.378C44.0648 49.4476 43.9625 49.4863 43.8565 49.487C41.899 49.4932 39.9416 49.4932 37.9841 49.487C37.4726 49.487 37.0291 49.1215 37.0206 48.637C37.0043 47.7554 36.968 46.8637 37.0739 45.9929C37.2926 44.1848 38.9237 42.7832 40.7441 42.7476C41.0818 42.7407 41.4233 42.7469 41.7641 42.7469Z" fill="white"/>
<path d="M50.3477 61.0564C49.8123 61.68 49.3015 62.285 48.773 62.8746C48.7035 62.9518 48.5451 62.9796 48.4268 62.9796C45.2331 62.9853 42.0414 62.9868 38.8517 62.9843C38.5612 62.9843 38.2699 62.9897 37.9786 62.9843C37.4184 62.9711 37.0135 62.5701 37.0058 62.0091C36.9981 61.3771 36.9981 60.745 37.0058 60.113C37.0127 59.5335 37.4161 59.1332 38.001 59.1324C41.4946 59.1294 44.9874 59.1294 48.4794 59.1324C48.5936 59.1329 48.7037 59.1756 48.7885 59.2522C49.3092 59.8387 49.8146 60.436 50.3477 61.0564Z" fill="white"/>
<path d="M60.1599 47.074C60.1367 46.6042 60.1599 46.1267 60.0827 45.6669C59.8779 44.4553 58.7637 43.6208 57.5328 43.7151C56.9419 43.7644 56.3898 44.0296 55.9819 44.46C55.574 44.8904 55.3389 45.4559 55.3214 46.0486C55.3075 46.6992 55.3214 47.3498 55.3214 48.0298C54.9281 47.8219 54.5634 47.6233 54.1917 47.4364C53.9352 47.3073 53.5597 47.2617 53.436 47.0585C53.3016 46.8368 53.392 46.4759 53.3928 46.1753C53.3997 43.6641 55.3685 41.7339 57.8689 41.7834C60.102 41.8282 62.0005 43.7082 62.0638 45.9412C62.0739 46.3206 62.0638 46.7008 62.0638 47.1566C62.1929 47.0338 62.2732 46.9542 62.3567 46.8777C62.7615 46.506 63.3364 46.5099 63.7112 46.8854C63.8 46.9713 63.8709 47.0739 63.92 47.1872C63.9692 47.3006 63.9954 47.4225 63.9974 47.546C63.9993 47.6695 63.9769 47.7922 63.9313 47.907C63.8858 48.0219 63.8181 48.1266 63.732 48.2152C63.083 48.8849 62.4229 49.5448 61.7516 50.1948C61.6659 50.2809 61.564 50.349 61.4517 50.3954C61.3394 50.4417 61.2191 50.4654 61.0976 50.4649C60.9761 50.4643 60.856 50.4397 60.7441 50.3925C60.6322 50.3452 60.5308 50.2762 60.4458 50.1894C59.7829 49.5466 59.1297 48.8939 58.4863 48.2314C58.3968 48.1427 58.326 48.0368 58.2781 47.9202C58.2302 47.8036 58.2062 47.6786 58.2074 47.5526C58.2086 47.4265 58.2351 47.302 58.2853 47.1864C58.3354 47.0707 58.4082 46.9663 58.4994 46.8793C58.8757 46.5076 59.4475 46.5091 59.8547 46.8831L60.0865 47.1033L60.1599 47.074Z" fill="white"/>
<path d="M50.0163 62.9241C50.4259 62.446 50.8354 61.9677 51.2449 61.4892C51.5416 61.1415 51.5416 60.9715 51.2449 60.6246C50.8362 60.1455 50.4259 59.668 49.9885 59.1565C50.3123 59.1302 50.5982 59.1263 50.8771 59.0792C52.4866 58.8172 53.6 57.941 54.1718 56.3987C54.2009 56.3045 54.2524 56.2186 54.3217 56.1484C54.9638 55.5897 55.6129 55.0381 56.2851 54.4624C56.8901 54.9824 57.4928 55.4916 58.0816 56.017C58.1411 56.0696 58.1411 56.2203 58.1264 56.3192C57.8817 57.9061 57.1543 59.3793 56.0431 60.5384C54.9319 61.6976 53.4908 62.4865 51.9156 62.7981C51.3052 62.9187 50.6793 62.9604 50.0534 63.0376L50.0163 62.9241Z" fill="white"/>
<path d="M49.6895 49.4915C50.2079 48.8695 50.7048 48.2668 51.2132 47.6726C51.248 47.6415 51.289 47.6179 51.3334 47.6032C51.3778 47.5886 51.4247 47.5833 51.4713 47.5876C54.698 47.9346 57.5523 50.6398 58.0908 53.8572C58.1403 54.1531 58.1758 54.4514 58.2299 54.8354C57.9664 54.6168 57.7625 54.4491 57.5608 54.2806C57.2772 54.0411 56.9952 53.7985 56.7108 53.559C56.3631 53.2653 56.1985 53.2669 55.8454 53.569C55.3579 53.9855 54.8718 54.4027 54.3596 54.8416C54.3356 54.7816 54.3152 54.7202 54.2985 54.6577C54.0057 53.1371 53.124 52.1248 51.6714 51.5971C51.524 51.545 51.3915 51.4581 51.285 51.3437C50.7565 50.7425 50.2357 50.1282 49.6895 49.4915Z" fill="white"/>
<path d="M50.0016 47.6256L48.8017 49.0466C48.4926 49.4159 48.4926 49.5712 48.8017 49.9328C49.2166 50.4173 49.6315 50.9033 50.0766 51.4241C49.9128 51.4574 49.7977 51.4767 49.6848 51.5014C48.2425 51.8522 47.2859 52.731 46.8151 54.1378C46.7923 54.2339 46.7455 54.3227 46.6791 54.3959C46.0378 54.9561 45.3895 55.5078 44.7211 56.0795C44.0991 55.5603 43.4848 55.0519 42.8752 54.5342C42.8495 54.5006 42.8312 54.462 42.8213 54.4209C42.8115 54.3797 42.8103 54.337 42.818 54.2954C43.4701 50.2234 46.411 48.1912 48.9492 47.7183C49.2915 47.6542 49.6369 47.6078 49.9816 47.553L50.0016 47.6256Z" fill="white"/>
<path d="M54.5132 62.9603C55.4953 62.4194 56.3359 61.8013 56.9989 60.983C57.42 60.463 57.7793 59.8928 58.1448 59.331C58.2406 59.185 58.3248 59.1247 58.4971 59.1262C59.3803 59.134 60.2643 59.1154 61.1474 59.1394C61.3952 59.149 61.6364 59.2216 61.8483 59.3503C62.4765 59.7452 63.0846 60.174 63.6934 60.5974C64.0999 60.8787 64.1022 61.2334 63.6996 61.5131C63.0815 61.9427 62.4633 62.3738 61.8305 62.7795C61.6459 62.8993 61.4323 62.9672 61.2124 62.9758C59.0342 62.9897 56.8552 62.985 54.6762 62.9843C54.6499 62.9835 54.6198 62.9758 54.5132 62.9603Z" fill="white"/>
<path d="M42.8751 55.7742C43.3503 56.1822 43.8216 56.5871 44.2938 56.9912C44.6237 57.274 44.8022 57.2748 45.136 56.9912C45.564 56.6273 45.9859 56.2603 46.4163 55.8956C46.4936 55.833 46.5709 55.7781 46.6736 55.6978C46.7921 56.6379 47.2436 57.5044 47.9462 58.1402H43.3781C43.0714 57.6287 42.7553 56.1737 42.8751 55.7742Z" fill="white"/>
</g>
</svg>
