<svg width="100" height="156" viewBox="0 0 100 156" fill="none" xmlns="http://www.w3.org/2000/svg">
<g opacity="0.2">
<rect width="100" height="156" rx="19" fill="#F9FBFF"/>
<path d="M18.7873 109.161C19.2633 109.17 19.7626 109.198 20.2853 109.245C20.8173 109.291 21.3353 109.38 21.8393 109.511L21.7273 110.701C21.3259 110.691 20.8593 110.682 20.3273 110.673C19.8046 110.654 19.3006 110.645 18.8153 110.645C18.5166 110.645 18.2599 110.654 18.0453 110.673C17.8399 110.691 17.6719 110.738 17.5413 110.813C17.4106 110.887 17.3126 111.004 17.2473 111.163C17.1913 111.312 17.1633 111.522 17.1633 111.793C17.1633 112.213 17.2473 112.511 17.4153 112.689C17.5926 112.866 17.8773 113.006 18.2693 113.109L20.1733 113.669C20.9386 113.902 21.4659 114.243 21.7553 114.691C22.0446 115.129 22.1893 115.717 22.1893 116.455C22.1893 117.005 22.1239 117.458 21.9933 117.813C21.8626 118.167 21.6619 118.443 21.3913 118.639C21.1206 118.835 20.7659 118.975 20.3273 119.059C19.8886 119.143 19.3613 119.185 18.7453 119.185C18.4279 119.185 17.9893 119.166 17.4293 119.129C16.8786 119.091 16.2486 118.998 15.5393 118.849L15.6513 117.589C16.2019 117.607 16.6639 117.626 17.0373 117.645C17.4106 117.654 17.7326 117.659 18.0033 117.659C18.2739 117.659 18.5259 117.659 18.7593 117.659C19.1886 117.659 19.5246 117.631 19.7673 117.575C20.0099 117.519 20.1779 117.402 20.2713 117.225C20.3739 117.047 20.4253 116.791 20.4253 116.455C20.4253 116.165 20.3879 115.941 20.3133 115.783C20.2479 115.615 20.1359 115.484 19.9773 115.391C19.8186 115.297 19.6133 115.218 19.3613 115.153L17.3873 114.551C16.6593 114.327 16.1459 113.995 15.8473 113.557C15.5579 113.118 15.4133 112.53 15.4133 111.793C15.4133 111.242 15.4786 110.794 15.6093 110.449C15.7399 110.094 15.9406 109.828 16.2113 109.651C16.4819 109.464 16.8273 109.338 17.2473 109.273C17.6766 109.198 18.1899 109.161 18.7873 109.161ZM24.558 112.129V116.777C24.5487 117.122 24.614 117.369 24.754 117.519C24.9033 117.668 25.1413 117.743 25.468 117.743C25.7947 117.743 26.1213 117.673 26.448 117.533C26.7747 117.393 27.1713 117.183 27.638 116.903L27.806 117.911C27.2833 118.331 26.7793 118.648 26.294 118.863C25.8087 119.077 25.3047 119.185 24.782 119.185C23.5033 119.185 22.864 118.555 22.864 117.295V112.129H24.558ZM29.164 112.129V119.003H27.82L27.638 117.673L27.47 117.477V112.129H29.164ZM34.2881 111.961C35.1654 111.961 35.8048 112.236 36.2061 112.787C36.6074 113.337 36.8081 114.252 36.8081 115.531C36.8081 116.081 36.7568 116.581 36.6541 117.029C36.5608 117.477 36.3928 117.864 36.1501 118.191C35.9168 118.508 35.5901 118.751 35.1701 118.919C34.7501 119.087 34.2134 119.171 33.5601 119.171C33.3268 119.171 33.0608 119.161 32.7621 119.143C32.4634 119.124 32.1601 119.091 31.8521 119.045C31.5441 118.998 31.2454 118.947 30.9561 118.891C30.6761 118.825 30.4241 118.746 30.2001 118.653L31.5581 117.617C31.7634 117.682 31.9781 117.738 32.2021 117.785C32.4354 117.822 32.6641 117.85 32.8881 117.869C33.1214 117.878 33.3361 117.883 33.5321 117.883C33.9054 117.873 34.1994 117.799 34.4141 117.659C34.6381 117.519 34.8014 117.281 34.9041 116.945C35.0068 116.599 35.0581 116.128 35.0581 115.531C35.0581 114.971 35.0161 114.532 34.9321 114.215C34.8574 113.888 34.7174 113.659 34.5121 113.529C34.3068 113.398 34.0128 113.333 33.6301 113.333C33.2941 113.333 32.9814 113.412 32.6921 113.571C32.4121 113.729 32.0854 113.944 31.7121 114.215L31.6001 113.305C31.8521 113.034 32.1181 112.796 32.3981 112.591C32.6874 112.385 32.9908 112.231 33.3081 112.129C33.6348 112.017 33.9614 111.961 34.2881 111.961ZM31.8941 109.203L31.9081 111.583C31.9081 111.881 31.8941 112.171 31.8661 112.451C31.8474 112.721 31.8008 112.987 31.7261 113.249L31.8941 113.445V118.737L30.2001 118.653V109.203H31.8941ZM43.4544 109.217C44.3037 109.217 44.971 109.31 45.4564 109.497C45.9417 109.674 46.287 109.987 46.4924 110.435C46.707 110.873 46.8144 111.499 46.8144 112.311C46.8144 113.123 46.7117 113.753 46.5064 114.201C46.3104 114.649 45.979 114.961 45.5124 115.139C45.055 115.316 44.4437 115.405 43.6784 115.405C43.2584 115.405 42.8524 115.391 42.4604 115.363C42.0777 115.335 41.7184 115.297 41.3824 115.251C41.0557 115.204 40.7757 115.157 40.5424 115.111C40.309 115.055 40.1457 115.008 40.0524 114.971L40.0944 114.033C40.6264 114.033 41.1724 114.033 41.7324 114.033C42.3017 114.033 42.8664 114.033 43.4264 114.033C43.837 114.023 44.159 113.972 44.3924 113.879C44.635 113.785 44.803 113.617 44.8964 113.375C44.999 113.123 45.0504 112.768 45.0504 112.311C45.0504 111.853 44.999 111.503 44.8964 111.261C44.803 111.009 44.635 110.836 44.3924 110.743C44.159 110.64 43.837 110.589 43.4264 110.589C42.605 110.589 41.9004 110.593 41.3124 110.603C40.7244 110.612 40.323 110.626 40.1084 110.645L39.9124 109.343C40.2857 109.305 40.6357 109.277 40.9624 109.259C41.2984 109.24 41.6577 109.231 42.0404 109.231C42.4324 109.221 42.9037 109.217 43.4544 109.217ZM41.6624 109.343V119.003H39.9124V109.343H41.6624ZM48.7526 112.129L48.9766 113.473L49.1306 113.669V119.003H47.4366V112.129H48.7526ZM52.1126 111.961L51.9446 113.529H51.4546C51.0906 113.529 50.7219 113.589 50.3486 113.711C49.9753 113.832 49.5086 114.014 48.9486 114.257L48.8366 113.263C49.3219 112.852 49.8166 112.535 50.3206 112.311C50.8246 112.077 51.3099 111.961 51.7766 111.961H52.1126ZM55.3921 111.961C56.2321 111.961 56.8994 112.077 57.3941 112.311C57.8981 112.544 58.2574 112.927 58.4721 113.459C58.6961 113.991 58.8081 114.695 58.8081 115.573C58.8081 116.45 58.6961 117.155 58.4721 117.687C58.2574 118.209 57.8981 118.592 57.3941 118.835C56.8994 119.068 56.2321 119.185 55.3921 119.185C54.5708 119.185 53.9081 119.068 53.4041 118.835C52.9094 118.592 52.5501 118.209 52.3261 117.687C52.1021 117.155 51.9901 116.45 51.9901 115.573C51.9901 114.695 52.1021 113.991 52.3261 113.459C52.5501 112.927 52.9094 112.544 53.4041 112.311C53.9081 112.077 54.5708 111.961 55.3921 111.961ZM55.3921 113.249C54.9814 113.249 54.6548 113.319 54.4121 113.459C54.1788 113.589 54.0108 113.823 53.9081 114.159C53.8054 114.495 53.7541 114.966 53.7541 115.573C53.7541 116.179 53.8054 116.651 53.9081 116.987C54.0108 117.323 54.1788 117.556 54.4121 117.687C54.6548 117.817 54.9814 117.883 55.3921 117.883C55.8121 117.883 56.1434 117.817 56.3861 117.687C56.6288 117.556 56.7968 117.323 56.8901 116.987C56.9928 116.651 57.0441 116.179 57.0441 115.573C57.0441 114.966 56.9928 114.495 56.8901 114.159C56.7968 113.823 56.6288 113.589 56.3861 113.459C56.1434 113.319 55.8121 113.249 55.3921 113.249ZM61.8892 111.961C62.3559 111.961 62.8132 112.026 63.2612 112.157C63.7092 112.278 64.1152 112.483 64.4792 112.773L64.3672 113.627C64.0032 113.524 63.6765 113.435 63.3872 113.361C63.0979 113.286 62.7759 113.249 62.4212 113.249C62.0852 113.249 61.8145 113.309 61.6092 113.431C61.4132 113.543 61.2639 113.762 61.1612 114.089C61.0679 114.415 61.0212 114.891 61.0212 115.517C61.0212 116.114 61.0679 116.576 61.1612 116.903C61.2545 117.22 61.3992 117.444 61.5952 117.575C61.7912 117.696 62.0479 117.757 62.3652 117.757C62.6172 117.757 62.8412 117.729 63.0372 117.673C63.2332 117.607 63.4339 117.514 63.6392 117.393C63.8445 117.262 64.0825 117.099 64.3532 116.903L64.4932 117.855C64.1759 118.219 63.7839 118.531 63.3172 118.793C62.8599 119.045 62.3279 119.171 61.7212 119.171C60.8439 119.171 60.2185 118.863 59.8452 118.247C59.4719 117.621 59.2852 116.716 59.2852 115.531C59.2852 114.625 59.3785 113.916 59.5652 113.403C59.7612 112.88 60.0505 112.511 60.4332 112.297C60.8252 112.073 61.3105 111.961 61.8892 111.961ZM65.8652 109.203V119.003H64.5352L64.3532 117.771L64.1712 117.631V113.039L64.2552 112.843C64.2179 112.572 64.1945 112.301 64.1852 112.031C64.1759 111.751 64.1712 111.466 64.1712 111.177V109.203H65.8652ZM68.594 112.129V116.777C68.5847 117.122 68.65 117.369 68.79 117.519C68.9393 117.668 69.1773 117.743 69.504 117.743C69.8307 117.743 70.1573 117.673 70.484 117.533C70.8107 117.393 71.2073 117.183 71.674 116.903L71.842 117.911C71.3193 118.331 70.8153 118.648 70.33 118.863C69.8447 119.077 69.3407 119.185 68.818 119.185C67.5393 119.185 66.9 118.555 66.9 117.295V112.129H68.594ZM73.2 112.129V119.003H71.856L71.674 117.673L71.506 117.477V112.129H73.2ZM77.3441 111.961C77.5774 111.961 77.8341 111.97 78.1141 111.989C78.3941 112.007 78.6788 112.045 78.9681 112.101C79.2574 112.157 79.5188 112.236 79.7521 112.339L79.5561 113.403C79.2108 113.384 78.8654 113.37 78.5201 113.361C78.1841 113.351 77.8901 113.347 77.6381 113.347C77.1621 113.347 76.7841 113.412 76.5041 113.543C76.2334 113.664 76.0374 113.888 75.9161 114.215C75.7948 114.532 75.7341 114.98 75.7341 115.559C75.7341 116.137 75.7948 116.59 75.9161 116.917C76.0374 117.234 76.2334 117.458 76.5041 117.589C76.7841 117.719 77.1621 117.785 77.6381 117.785C77.7781 117.785 77.9601 117.78 78.1841 117.771C78.4174 117.761 78.6648 117.747 78.9261 117.729C79.1968 117.71 79.4581 117.687 79.7101 117.659L79.8781 118.751C79.5141 118.9 79.1081 119.007 78.6601 119.073C78.2121 119.138 77.7688 119.171 77.3301 119.171C76.5088 119.171 75.8508 119.054 75.3561 118.821C74.8614 118.587 74.5021 118.209 74.2781 117.687C74.0634 117.155 73.9561 116.445 73.9561 115.559C73.9561 114.672 74.0681 113.967 74.2921 113.445C74.5161 112.913 74.8754 112.535 75.3701 112.311C75.8648 112.077 76.5228 111.961 77.3441 111.961ZM82.6921 110.169V116.931C82.6921 117.22 82.7528 117.425 82.8741 117.547C83.0048 117.668 83.2241 117.729 83.5321 117.729H84.4841L84.6661 118.919C84.5074 118.965 84.3161 119.007 84.0921 119.045C83.8681 119.082 83.6488 119.105 83.4341 119.115C83.2194 119.133 83.0374 119.143 82.8881 119.143C82.2908 119.143 81.8241 118.984 81.4881 118.667C81.1614 118.34 80.9981 117.873 80.9981 117.267V110.169H82.6921ZM84.7361 112.129V113.305H79.7801V112.199L81.1241 112.129H84.7361ZM16.7942 127.161C17.2702 127.17 17.7695 127.198 18.2922 127.245C18.8242 127.291 19.3422 127.38 19.8462 127.511L19.7342 128.701C19.3328 128.691 18.8662 128.682 18.3342 128.673C17.8115 128.654 17.3075 128.645 16.8222 128.645C16.5235 128.645 16.2668 128.654 16.0522 128.673C15.8468 128.691 15.6788 128.738 15.5482 128.813C15.4175 128.887 15.3195 129.004 15.2542 129.163C15.1982 129.312 15.1702 129.522 15.1702 129.793C15.1702 130.213 15.2542 130.511 15.4222 130.689C15.5995 130.866 15.8842 131.006 16.2762 131.109L18.1802 131.669C18.9455 131.902 19.4728 132.243 19.7622 132.691C20.0515 133.129 20.1962 133.717 20.1962 134.455C20.1962 135.005 20.1308 135.458 20.0002 135.813C19.8695 136.167 19.6688 136.443 19.3982 136.639C19.1275 136.835 18.7728 136.975 18.3342 137.059C17.8955 137.143 17.3682 137.185 16.7522 137.185C16.4348 137.185 15.9962 137.166 15.4362 137.129C14.8855 137.091 14.2555 136.998 13.5462 136.849L13.6582 135.589C14.2088 135.607 14.6708 135.626 15.0442 135.645C15.4175 135.654 15.7395 135.659 16.0102 135.659C16.2808 135.659 16.5328 135.659 16.7662 135.659C17.1955 135.659 17.5315 135.631 17.7742 135.575C18.0168 135.519 18.1848 135.402 18.2782 135.225C18.3808 135.047 18.4322 134.791 18.4322 134.455C18.4322 134.165 18.3948 133.941 18.3202 133.783C18.2548 133.615 18.1428 133.484 17.9842 133.391C17.8255 133.297 17.6202 133.218 17.3682 133.153L15.3942 132.551C14.6662 132.327 14.1528 131.995 13.8542 131.557C13.5648 131.118 13.4202 130.53 13.4202 129.793C13.4202 129.242 13.4855 128.794 13.6162 128.449C13.7468 128.094 13.9475 127.828 14.2182 127.651C14.4888 127.464 14.8342 127.338 15.2542 127.273C15.6835 127.198 16.1968 127.161 16.7942 127.161ZM23.1262 128.169V134.931C23.1262 135.22 23.1869 135.425 23.3082 135.547C23.4389 135.668 23.6582 135.729 23.9662 135.729H24.9182L25.1002 136.919C24.9415 136.965 24.7502 137.007 24.5262 137.045C24.3022 137.082 24.0829 137.105 23.8682 137.115C23.6535 137.133 23.4715 137.143 23.3222 137.143C22.7249 137.143 22.2582 136.984 21.9222 136.667C21.5955 136.34 21.4322 135.873 21.4322 135.267V128.169H23.1262ZM25.1702 130.129V131.305H20.2142V130.199L21.5582 130.129H25.1702ZM28.6907 129.961C29.5307 129.961 30.198 130.077 30.6927 130.311C31.1967 130.544 31.556 130.927 31.7707 131.459C31.9947 131.991 32.1067 132.695 32.1067 133.573C32.1067 134.45 31.9947 135.155 31.7707 135.687C31.556 136.209 31.1967 136.592 30.6927 136.835C30.198 137.068 29.5307 137.185 28.6907 137.185C27.8693 137.185 27.2067 137.068 26.7027 136.835C26.208 136.592 25.8487 136.209 25.6247 135.687C25.4007 135.155 25.2887 134.45 25.2887 133.573C25.2887 132.695 25.4007 131.991 25.6247 131.459C25.8487 130.927 26.208 130.544 26.7027 130.311C27.2067 130.077 27.8693 129.961 28.6907 129.961ZM28.6907 131.249C28.28 131.249 27.9533 131.319 27.7107 131.459C27.4773 131.589 27.3093 131.823 27.2067 132.159C27.104 132.495 27.0527 132.966 27.0527 133.573C27.0527 134.179 27.104 134.651 27.2067 134.987C27.3093 135.323 27.4773 135.556 27.7107 135.687C27.9533 135.817 28.28 135.883 28.6907 135.883C29.1107 135.883 29.442 135.817 29.6847 135.687C29.9273 135.556 30.0953 135.323 30.1887 134.987C30.2913 134.651 30.3427 134.179 30.3427 133.573C30.3427 132.966 30.2913 132.495 30.1887 132.159C30.0953 131.823 29.9273 131.589 29.6847 131.459C29.442 131.319 29.1107 131.249 28.6907 131.249ZM35.9438 129.961C36.1771 129.961 36.4338 129.97 36.7138 129.989C36.9938 130.007 37.2784 130.045 37.5678 130.101C37.8571 130.157 38.1184 130.236 38.3518 130.339L38.1558 131.403C37.8104 131.384 37.4651 131.37 37.1198 131.361C36.7838 131.351 36.4898 131.347 36.2378 131.347C35.7618 131.347 35.3838 131.412 35.1038 131.543C34.8331 131.664 34.6371 131.888 34.5158 132.215C34.3944 132.532 34.3338 132.98 34.3338 133.559C34.3338 134.137 34.3944 134.59 34.5158 134.917C34.6371 135.234 34.8331 135.458 35.1038 135.589C35.3838 135.719 35.7618 135.785 36.2378 135.785C36.3778 135.785 36.5598 135.78 36.7838 135.771C37.0171 135.761 37.2644 135.747 37.5258 135.729C37.7964 135.71 38.0578 135.687 38.3098 135.659L38.4778 136.751C38.1138 136.9 37.7078 137.007 37.2598 137.073C36.8118 137.138 36.3684 137.171 35.9298 137.171C35.1084 137.171 34.4504 137.054 33.9558 136.821C33.4611 136.587 33.1018 136.209 32.8778 135.687C32.6631 135.155 32.5558 134.445 32.5558 133.559C32.5558 132.672 32.6678 131.967 32.8918 131.445C33.1158 130.913 33.4751 130.535 33.9698 130.311C34.4644 130.077 35.1224 129.961 35.9438 129.961ZM45.2398 130.129L43.2798 132.579C43.2051 132.691 43.1118 132.803 42.9998 132.915C42.8878 133.017 42.7898 133.097 42.7058 133.153V133.181C42.7898 133.237 42.8878 133.33 42.9998 133.461C43.1118 133.582 43.2051 133.708 43.2798 133.839L45.4638 137.003H43.5458L41.0398 133.111L43.3218 130.129H45.2398ZM40.7178 127.203L40.7318 131.389C40.7318 131.697 40.7131 131.991 40.6758 132.271C40.6478 132.551 40.6058 132.835 40.5498 133.125C40.5964 133.395 40.6338 133.675 40.6618 133.965C40.6991 134.254 40.7178 134.525 40.7178 134.777V137.003H39.0238V127.203H40.7178ZM41.7678 132.607V133.699H40.1718V132.607H41.7678ZM51.5258 127.217C52.3284 127.217 52.9771 127.301 53.4718 127.469C53.9758 127.637 54.3398 127.926 54.5638 128.337C54.7971 128.738 54.9138 129.307 54.9138 130.045C54.9138 130.53 54.8531 130.945 54.7318 131.291C54.6198 131.627 54.4284 131.897 54.1578 132.103C53.8964 132.299 53.5418 132.425 53.0938 132.481V132.551C53.2524 132.588 53.4158 132.663 53.5838 132.775C53.7611 132.877 53.9198 133.027 54.0598 133.223C54.2091 133.419 54.3211 133.671 54.3958 133.979L55.2778 137.003H53.4298L52.6318 134.021C52.5291 133.685 52.3891 133.451 52.2118 133.321C52.0344 133.181 51.7918 133.111 51.4838 133.111C50.8771 133.111 50.3591 133.111 49.9298 133.111C49.5004 133.101 49.1411 133.092 48.8518 133.083C48.5718 133.073 48.3244 133.069 48.1098 133.069L48.1518 131.739H51.4838C51.9038 131.729 52.2351 131.683 52.4778 131.599C52.7204 131.505 52.8931 131.347 52.9958 131.123C53.0984 130.889 53.1498 130.563 53.1498 130.143C53.1498 129.732 53.0984 129.415 52.9958 129.191C52.8931 128.967 52.7204 128.813 52.4778 128.729C52.2351 128.635 51.9038 128.589 51.4838 128.589C50.6624 128.589 49.9578 128.593 49.3698 128.603C48.7818 128.612 48.3804 128.621 48.1658 128.631L47.9698 127.343C48.3431 127.305 48.6931 127.277 49.0198 127.259C49.3558 127.24 49.7198 127.231 50.1118 127.231C50.5038 127.221 50.9751 127.217 51.5258 127.217ZM49.6918 127.343V137.003H47.9698V127.343H49.6918ZM58.8881 129.961C59.9988 129.961 60.7968 130.157 61.2821 130.549C61.7675 130.931 62.0148 131.501 62.0241 132.257C62.0335 132.882 61.8841 133.358 61.5761 133.685C61.2775 134.002 60.7781 134.161 60.0781 134.161H56.1581V133.111H59.6161C59.9335 133.111 60.1341 133.027 60.2181 132.859C60.3115 132.691 60.3581 132.485 60.3581 132.243C60.3488 131.86 60.2368 131.594 60.0221 131.445C59.8168 131.295 59.4621 131.221 58.9581 131.221C58.5195 131.221 58.1788 131.281 57.9361 131.403C57.6935 131.524 57.5208 131.743 57.4181 132.061C57.3248 132.378 57.2781 132.835 57.2781 133.433C57.2781 134.067 57.3388 134.557 57.4601 134.903C57.5815 135.248 57.7821 135.486 58.0621 135.617C58.3421 135.738 58.7155 135.799 59.1821 135.799C59.5275 135.799 59.9241 135.785 60.3721 135.757C60.8295 135.729 61.2681 135.691 61.6881 135.645L61.8561 136.723C61.6041 136.825 61.3148 136.909 60.9881 136.975C60.6615 137.04 60.3208 137.087 59.9661 137.115C59.6208 137.152 59.2941 137.171 58.9861 137.171C58.1461 137.171 57.4695 137.049 56.9561 136.807C56.4521 136.555 56.0835 136.163 55.8501 135.631C55.6261 135.099 55.5141 134.413 55.5141 133.573C55.5141 132.667 55.6261 131.953 55.8501 131.431C56.0835 130.899 56.4475 130.521 56.9421 130.297C57.4461 130.073 58.0948 129.961 58.8881 129.961ZM66.9767 129.961C67.8261 129.961 68.4374 130.273 68.8107 130.899C69.1841 131.524 69.3707 132.429 69.3707 133.615C69.3707 134.52 69.2727 135.234 69.0767 135.757C68.8901 136.27 68.6054 136.639 68.2227 136.863C67.8401 137.077 67.3547 137.185 66.7667 137.185C66.3001 137.185 65.8427 137.119 65.3947 136.989C64.9561 136.849 64.5501 136.634 64.1767 136.345L64.2887 135.505C64.6527 135.607 64.9794 135.696 65.2687 135.771C65.5581 135.845 65.8754 135.883 66.2207 135.883C66.5661 135.883 66.8367 135.827 67.0327 135.715C67.2381 135.593 67.3874 135.369 67.4807 135.043C67.5741 134.716 67.6207 134.245 67.6207 133.629C67.6207 133.022 67.5787 132.551 67.4947 132.215C67.4107 131.879 67.2707 131.645 67.0747 131.515C66.8881 131.375 66.6407 131.305 66.3327 131.305C65.9967 131.305 65.6794 131.379 65.3807 131.529C65.0821 131.669 64.7367 131.879 64.3447 132.159L64.1487 131.263C64.3634 131.011 64.6201 130.787 64.9187 130.591C65.2267 130.395 65.5581 130.241 65.9127 130.129C66.2674 130.017 66.6221 129.961 66.9767 129.961ZM64.0787 130.129L64.2467 131.459L64.4007 131.655V136.093L64.3307 136.261C64.3587 136.531 64.3774 136.802 64.3867 137.073C64.3961 137.353 64.4007 137.637 64.4007 137.927V139.733H62.7067V130.129H64.0787ZM73.2599 129.961C74.0999 129.961 74.7672 130.077 75.2619 130.311C75.7659 130.544 76.1252 130.927 76.3399 131.459C76.5639 131.991 76.6759 132.695 76.6759 133.573C76.6759 134.45 76.5639 135.155 76.3399 135.687C76.1252 136.209 75.7659 136.592 75.2619 136.835C74.7672 137.068 74.0999 137.185 73.2599 137.185C72.4386 137.185 71.7759 137.068 71.2719 136.835C70.7772 136.592 70.4179 136.209 70.1939 135.687C69.9699 135.155 69.8579 134.45 69.8579 133.573C69.8579 132.695 69.9699 131.991 70.1939 131.459C70.4179 130.927 70.7772 130.544 71.2719 130.311C71.7759 130.077 72.4386 129.961 73.2599 129.961ZM73.2599 131.249C72.8492 131.249 72.5226 131.319 72.2799 131.459C72.0466 131.589 71.8786 131.823 71.7759 132.159C71.6732 132.495 71.6219 132.966 71.6219 133.573C71.6219 134.179 71.6732 134.651 71.7759 134.987C71.8786 135.323 72.0466 135.556 72.2799 135.687C72.5226 135.817 72.8492 135.883 73.2599 135.883C73.6799 135.883 74.0112 135.817 74.2539 135.687C74.4966 135.556 74.6646 135.323 74.7579 134.987C74.8606 134.651 74.9119 134.179 74.9119 133.573C74.9119 132.966 74.8606 132.495 74.7579 132.159C74.6646 131.823 74.4966 131.589 74.2539 131.459C74.0112 131.319 73.6799 131.249 73.2599 131.249ZM78.749 130.129L78.973 131.473L79.127 131.669V137.003H77.433V130.129H78.749ZM82.109 129.961L81.941 131.529H81.451C81.087 131.529 80.7183 131.589 80.345 131.711C79.9716 131.832 79.505 132.014 78.945 132.257L78.833 131.263C79.3183 130.852 79.813 130.535 80.317 130.311C80.821 130.077 81.3063 129.961 81.773 129.961H82.109ZM84.6852 128.169V134.931C84.6852 135.22 84.7459 135.425 84.8672 135.547C84.9979 135.668 85.2172 135.729 85.5252 135.729H86.4772L86.6592 136.919C86.5005 136.965 86.3092 137.007 86.0852 137.045C85.8612 137.082 85.6419 137.105 85.4272 137.115C85.2125 137.133 85.0305 137.143 84.8812 137.143C84.2839 137.143 83.8172 136.984 83.4812 136.667C83.1545 136.34 82.9912 135.873 82.9912 135.267V128.169H84.6852ZM86.7292 130.129V131.305H81.7732V130.199L83.1172 130.129H86.7292Z" fill="#333839"/>
<path d="M90.3996 53.6044L53.7441 90.2499" stroke="white" stroke-width="6.29" stroke-miterlimit="10"/>
<path d="M90.3996 53.6044L53.7441 90.2499" stroke="#B04991" stroke-width="3.42" stroke-miterlimit="10"/>
<path d="M8.6601 52.6618L6 50.0017L45.9905 10.0013" stroke="white" stroke-width="6.29" stroke-miterlimit="10"/>
<path d="M8.6601 52.6618L6 50.0017L45.9905 10.0013" stroke="#B04991" stroke-width="3.42" stroke-miterlimit="10"/>
<path d="M68.6358 87.9313H31.3153L12 68.6358V31.3153L31.3153 12H68.6358L87.9512 31.3153V68.6358L68.6358 87.9313Z" fill="#B04991"/>
<path d="M53.742 90.2507L50.0001 94.0026L8.65967 52.6622" stroke="white" stroke-width="6.29" stroke-miterlimit="10"/>
<path d="M53.742 90.2507L50.0001 94.0026L8.65967 52.6622" stroke="#B04991" stroke-width="3.42" stroke-miterlimit="10"/>
<path d="M45.9897 10L49.9997 6L94.0002 50.0004L90.3972 53.6034" stroke="white" stroke-width="6.29" stroke-miterlimit="10"/>
<path d="M45.9897 10L49.9997 6L94.0002 50.0004L90.3972 53.6034" stroke="#B04991" stroke-width="3.42" stroke-miterlimit="10"/>
<path d="M51.0625 37V40.125H49.5V37H51.0625Z" fill="white"/>
<path d="M48.322 54.1291V55.6184C48.4103 55.6228 48.4883 55.6297 48.5639 55.6297C50.052 55.6297 51.5399 55.6297 53.0277 55.6297C54.2526 55.6297 55.0742 54.9621 55.3856 53.7327C55.4222 53.6268 55.491 53.5361 55.5815 53.474C56.3451 52.9198 57.11 52.3668 57.8851 51.8301C58.2171 51.5974 58.5168 51.3186 58.7756 51.0015C59.2593 50.4222 59.8186 49.9369 60.5127 49.6475C61.0254 49.434 61.5284 49.424 62 49.8072C61.9559 49.8861 61.9172 49.9582 61.8754 50.0277C60.8698 51.6944 59.8635 53.3599 58.8567 55.0241C58.7844 55.1426 58.6918 55.2464 58.5834 55.3303C57.0803 56.4743 55.5739 57.6137 54.064 58.7485C53.9613 58.823 53.8398 58.8646 53.7145 58.8681C51.3656 58.875 49.0173 58.8731 46.6684 58.875C46.5421 58.875 46.4496 58.8637 46.3764 58.7222C45.3482 56.7256 44.3151 54.7314 43.2772 52.7394C43.2665 52.7142 43.2574 52.6883 43.25 52.6618C43.8891 51.914 44.6684 51.4186 45.6315 51.2746C46.6322 51.1255 47.6213 51.1493 48.5669 51.5758C48.9254 51.738 49.2392 51.9591 49.4351 52.3336C49.4738 52.4069 49.6165 52.4589 49.7108 52.4589C50.7804 52.4676 51.8505 52.4645 52.9201 52.4651C53.0247 52.4651 53.1298 52.4651 53.2332 52.4751C53.4331 52.4923 53.6195 52.5866 53.7554 52.7395C53.8912 52.8923 53.9666 53.0925 53.9666 53.3003C53.9666 53.508 53.8912 53.7082 53.7554 53.861C53.6195 54.0139 53.4331 54.1082 53.2332 54.1254C53.1456 54.1341 53.0567 54.131 52.9684 54.131H48.313L48.322 54.1291Z" fill="white"/>
<path d="M54.9306 51.8438C54.5407 51.3134 54.0543 50.9748 53.4251 50.8634C53.2303 50.8333 53.0333 50.8197 52.8362 50.8226C51.9647 50.8183 51.0933 50.8226 50.2219 50.8171C50.1184 50.8221 50.0161 50.7934 49.9308 50.7355C49.1336 50.0389 48.1763 49.7369 47.1435 49.6303C46.0441 49.517 44.9601 49.5962 43.9107 49.964C43.6956 50.0395 43.4873 50.1333 43.25 50.2283V46.8469H43.5349C45.1875 46.8469 46.8401 46.8469 48.4927 46.8518C48.675 46.8518 48.7671 46.7909 48.8505 46.6368C49.2733 45.841 49.709 45.0536 50.141 44.262C50.1787 44.1926 50.2201 44.1244 50.2745 44.0312C50.7547 44.9124 51.225 45.7636 51.6805 46.6228C51.7738 46.7982 51.8813 46.853 52.0778 46.8524C53.7218 46.8445 55.3663 46.8475 57.0103 46.8475H57.3008C57.3051 46.9389 57.3119 47.0168 57.3125 47.0948C57.3125 48.069 57.3125 49.039 57.3125 50.0109C57.3125 50.1613 57.2779 50.2593 57.1425 50.3494C56.4083 50.8366 55.6828 51.3347 54.9306 51.8438Z" fill="white"/>
<path d="M37 53.7647L40.9135 51.8438L45.5937 60.0258L41.5746 62L37 53.7647Z" fill="white"/>
<path d="M42.4688 45.5936C42.8346 44.8168 43.1776 44.0825 43.5285 43.3534C43.5469 43.3241 43.5707 43.2997 43.5983 43.2822C43.6259 43.2646 43.6566 43.2543 43.6882 43.252C45.352 43.2493 47.0158 43.2493 48.6797 43.252C48.6854 43.252 48.6912 43.2598 48.7188 43.2814L48.2403 44.303C48.0645 44.678 47.8956 45.057 47.7072 45.4254C47.6859 45.4666 47.657 45.502 47.6225 45.5293C47.588 45.5565 47.5487 45.5749 47.5073 45.5832C45.8439 45.5956 44.1799 45.5936 42.4688 45.5936Z" fill="white"/>
<path d="M58.0938 45.5782C56.5475 45.5782 55.042 45.5542 53.5371 45.5931C53.0774 45.6048 52.8246 45.4634 52.6419 44.9804C52.4212 44.3969 52.1247 43.8562 51.8438 43.2662C51.9506 43.261 52.023 43.2545 52.096 43.2545C53.6549 43.2545 55.2144 43.2545 56.7733 43.25C56.9382 43.25 57.0319 43.2947 57.1106 43.4691C57.3979 44.0974 57.699 44.7159 57.9943 45.3383C58.0259 45.4044 58.0512 45.4751 58.0938 45.5782Z" fill="white"/>
<path d="M47.3382 40.9063C47.0149 40.0288 46.7014 39.1759 46.375 38.2898L47.7556 37.7812L48.7187 40.4007L47.3382 40.9063Z" fill="white"/>
<path d="M54.9687 38.2856L54.0078 40.9062L52.625 40.4037L53.5854 37.7812L54.9687 38.2856Z" fill="white"/>
</g>
</svg>
