<svg width="100" height="156" viewBox="0 0 100 156" fill="none" xmlns="http://www.w3.org/2000/svg">
<g opacity="0.35">
<rect width="100" height="156" rx="19" fill="#F9FBFF"/>
<path d="M43.0226 109.34V119H41.2726V109.34H43.0226ZM46.0186 109.34V110.768H38.2766V109.34H46.0186ZM50.0077 111.958C50.5583 111.958 51.0203 112.033 51.3937 112.182C51.7763 112.322 52.0657 112.565 52.2617 112.91C52.4577 113.255 52.5557 113.731 52.5557 114.338V119H51.2117L50.9737 117.516L50.8477 117.32V114.324C50.8477 113.96 50.7637 113.699 50.5957 113.54C50.4277 113.372 50.1057 113.288 49.6297 113.288C49.275 113.288 48.827 113.302 48.2857 113.33C47.7537 113.358 47.217 113.395 46.6757 113.442L46.5217 112.28C46.8483 112.215 47.217 112.159 47.6277 112.112C48.0383 112.065 48.4537 112.028 48.8737 112C49.2937 111.972 49.6717 111.958 50.0077 111.958ZM51.8277 114.772L51.8137 115.822H48.6637C48.3837 115.831 48.183 115.906 48.0617 116.046C47.9403 116.186 47.8797 116.377 47.8797 116.62V116.998C47.8797 117.278 47.9543 117.493 48.1037 117.642C48.253 117.782 48.4863 117.852 48.8037 117.852C49.0557 117.852 49.3357 117.801 49.6437 117.698C49.9517 117.595 50.255 117.446 50.5537 117.25C50.8617 117.054 51.137 116.821 51.3797 116.55V117.432C51.2863 117.572 51.151 117.74 50.9737 117.936C50.7963 118.123 50.577 118.309 50.3157 118.496C50.0637 118.683 49.7697 118.837 49.4337 118.958C49.107 119.079 48.743 119.14 48.3417 119.14C47.931 119.14 47.5623 119.07 47.2357 118.93C46.909 118.781 46.6523 118.566 46.4657 118.286C46.279 117.997 46.1857 117.642 46.1857 117.222V116.494C46.1857 115.953 46.363 115.533 46.7177 115.234C47.0817 114.926 47.5763 114.772 48.2017 114.772H51.8277ZM57.8693 111.958C58.644 111.958 59.2553 112.033 59.7033 112.182C60.1606 112.322 60.4873 112.555 60.6833 112.882C60.8793 113.199 60.9773 113.619 60.9773 114.142C60.9773 114.646 60.8793 115.061 60.6833 115.388C60.4873 115.705 60.1606 115.939 59.7033 116.088C59.246 116.237 58.63 116.312 57.8553 116.312C57.0806 116.312 56.4646 116.237 56.0073 116.088C55.5593 115.939 55.2326 115.705 55.0273 115.388C54.8313 115.071 54.7333 114.655 54.7333 114.142C54.7333 113.619 54.8313 113.199 55.0273 112.882C55.2326 112.555 55.564 112.322 56.0213 112.182C56.4786 112.033 57.0946 111.958 57.8693 111.958ZM57.8553 113.064C57.2673 113.064 56.8613 113.143 56.6373 113.302C56.4133 113.461 56.3013 113.741 56.3013 114.142C56.3013 114.525 56.4133 114.8 56.6373 114.968C56.8613 115.127 57.2673 115.206 57.8553 115.206C58.4433 115.206 58.8446 115.127 59.0593 114.968C59.2833 114.8 59.3953 114.525 59.3953 114.142C59.3953 113.741 59.2833 113.461 59.0593 113.302C58.8446 113.143 58.4433 113.064 57.8553 113.064ZM61.7753 112.126L61.6773 112.91L59.8853 113.106L59.3813 112.126H61.7753ZM55.8533 115.892L56.7213 116.018C56.5813 116.13 56.4833 116.275 56.4273 116.452C56.3806 116.62 56.3946 116.783 56.4693 116.942C56.5533 117.091 56.7306 117.185 57.0013 117.222L59.5493 117.558C60.24 117.642 60.7253 117.847 61.0053 118.174C61.2853 118.491 61.4253 118.953 61.4253 119.56C61.4253 120.129 61.3133 120.573 61.0893 120.89C60.8653 121.207 60.4966 121.427 59.9833 121.548C59.4793 121.679 58.798 121.744 57.9393 121.744C57.258 121.744 56.6933 121.707 56.2453 121.632C55.7973 121.567 55.438 121.45 55.1673 121.282C54.906 121.123 54.7193 120.913 54.6073 120.652C54.4953 120.4 54.4393 120.083 54.4393 119.7C54.4393 119.401 54.486 119.149 54.5793 118.944C54.682 118.739 54.8453 118.557 55.0693 118.398C55.2933 118.23 55.5966 118.076 55.9793 117.936L56.9313 117.53L57.5893 117.768L56.9733 118.202C56.7586 118.361 56.5813 118.505 56.4413 118.636C56.3106 118.757 56.2126 118.879 56.1473 119C56.0913 119.131 56.0633 119.294 56.0633 119.49C56.0633 119.751 56.1146 119.952 56.2173 120.092C56.3293 120.232 56.5206 120.325 56.7913 120.372C57.062 120.428 57.44 120.456 57.9253 120.456C58.42 120.456 58.8026 120.428 59.0733 120.372C59.344 120.325 59.5306 120.232 59.6333 120.092C59.7453 119.961 59.8013 119.77 59.8013 119.518C59.8013 119.313 59.7686 119.159 59.7033 119.056C59.638 118.963 59.5213 118.888 59.3533 118.832C59.1853 118.776 58.952 118.729 58.6533 118.692L56.3573 118.412C56.0306 118.375 55.7693 118.281 55.5733 118.132C55.3866 117.973 55.256 117.787 55.1813 117.572C55.1066 117.348 55.0833 117.129 55.1113 116.914C55.1486 116.69 55.228 116.485 55.3493 116.298C55.48 116.111 55.648 115.976 55.8533 115.892ZM22.3428 127.158C22.8188 127.167 23.3182 127.195 23.8408 127.242C24.3728 127.289 24.8908 127.377 25.3948 127.508L25.2828 128.698C24.8815 128.689 24.4148 128.679 23.8828 128.67C23.3602 128.651 22.8562 128.642 22.3708 128.642C22.0722 128.642 21.8155 128.651 21.6008 128.67C21.3955 128.689 21.2275 128.735 21.0968 128.81C20.9662 128.885 20.8682 129.001 20.8028 129.16C20.7468 129.309 20.7188 129.519 20.7188 129.79C20.7188 130.21 20.8028 130.509 20.9708 130.686C21.1482 130.863 21.4328 131.003 21.8248 131.106L23.7288 131.666C24.4942 131.899 25.0215 132.24 25.3108 132.688C25.6002 133.127 25.7448 133.715 25.7448 134.452C25.7448 135.003 25.6795 135.455 25.5488 135.81C25.4182 136.165 25.2175 136.44 24.9468 136.636C24.6762 136.832 24.3215 136.972 23.8828 137.056C23.4442 137.14 22.9168 137.182 22.3008 137.182C21.9835 137.182 21.5448 137.163 20.9848 137.126C20.4342 137.089 19.8042 136.995 19.0948 136.846L19.2068 135.586C19.7575 135.605 20.2195 135.623 20.5928 135.642C20.9662 135.651 21.2882 135.656 21.5588 135.656C21.8295 135.656 22.0815 135.656 22.3148 135.656C22.7442 135.656 23.0802 135.628 23.3228 135.572C23.5655 135.516 23.7335 135.399 23.8268 135.222C23.9295 135.045 23.9808 134.788 23.9808 134.452C23.9808 134.163 23.9435 133.939 23.8688 133.78C23.8035 133.612 23.6915 133.481 23.5328 133.388C23.3742 133.295 23.1688 133.215 22.9168 133.15L20.9428 132.548C20.2148 132.324 19.7015 131.993 19.4028 131.554C19.1135 131.115 18.9688 130.527 18.9688 129.79C18.9688 129.239 19.0342 128.791 19.1648 128.446C19.2955 128.091 19.4962 127.825 19.7668 127.648C20.0375 127.461 20.3828 127.335 20.8028 127.27C21.2322 127.195 21.7455 127.158 22.3428 127.158ZM30.9416 129.958C31.1749 129.958 31.4316 129.967 31.7116 129.986C31.9916 130.005 32.2762 130.042 32.5656 130.098C32.8549 130.154 33.1162 130.233 33.3496 130.336L33.1536 131.4C32.8082 131.381 32.4629 131.367 32.1176 131.358C31.7816 131.349 31.4876 131.344 31.2356 131.344C30.7596 131.344 30.3816 131.409 30.1016 131.54C29.8309 131.661 29.6349 131.885 29.5136 132.212C29.3922 132.529 29.3316 132.977 29.3316 133.556C29.3316 134.135 29.3922 134.587 29.5136 134.914C29.6349 135.231 29.8309 135.455 30.1016 135.586C30.3816 135.717 30.7596 135.782 31.2356 135.782C31.3756 135.782 31.5576 135.777 31.7816 135.768C32.0149 135.759 32.2622 135.745 32.5236 135.726C32.7942 135.707 33.0556 135.684 33.3076 135.656L33.4756 136.748C33.1116 136.897 32.7056 137.005 32.2576 137.07C31.8096 137.135 31.3662 137.168 30.9276 137.168C30.1062 137.168 29.4482 137.051 28.9536 136.818C28.4589 136.585 28.0996 136.207 27.8756 135.684C27.6609 135.152 27.5536 134.443 27.5536 133.556C27.5536 132.669 27.6656 131.965 27.8896 131.442C28.1136 130.91 28.4729 130.532 28.9676 130.308C29.4622 130.075 30.1202 129.958 30.9416 129.958ZM38.8796 129.958C39.4302 129.958 39.8922 130.033 40.2656 130.182C40.6482 130.322 40.9376 130.565 41.1336 130.91C41.3296 131.255 41.4276 131.731 41.4276 132.338V137H40.0836L39.8456 135.516L39.7196 135.32V132.324C39.7196 131.96 39.6356 131.699 39.4676 131.54C39.2996 131.372 38.9776 131.288 38.5016 131.288C38.1469 131.288 37.6989 131.302 37.1576 131.33C36.6256 131.358 36.0889 131.395 35.5476 131.442L35.3936 130.28C35.7202 130.215 36.0889 130.159 36.4996 130.112C36.9102 130.065 37.3256 130.028 37.7456 130C38.1656 129.972 38.5436 129.958 38.8796 129.958ZM40.6996 132.772L40.6856 133.822H37.5356C37.2556 133.831 37.0549 133.906 36.9336 134.046C36.8122 134.186 36.7516 134.377 36.7516 134.62V134.998C36.7516 135.278 36.8262 135.493 36.9756 135.642C37.1249 135.782 37.3582 135.852 37.6756 135.852C37.9276 135.852 38.2076 135.801 38.5156 135.698C38.8236 135.595 39.1269 135.446 39.4256 135.25C39.7336 135.054 40.0089 134.821 40.2516 134.55V135.432C40.1582 135.572 40.0229 135.74 39.8456 135.936C39.6682 136.123 39.4489 136.309 39.1876 136.496C38.9356 136.683 38.6416 136.837 38.3056 136.958C37.9789 137.079 37.6149 137.14 37.2136 137.14C36.8029 137.14 36.4342 137.07 36.1076 136.93C35.7809 136.781 35.5242 136.566 35.3376 136.286C35.1509 135.997 35.0576 135.642 35.0576 135.222V134.494C35.0576 133.953 35.2349 133.533 35.5896 133.234C35.9536 132.926 36.4482 132.772 37.0736 132.772H40.6996ZM48.3512 129.958C49.6299 129.958 50.2692 130.588 50.2692 131.848V137H48.5752V132.366C48.5752 131.993 48.5099 131.736 48.3792 131.596C48.2486 131.456 48.0292 131.386 47.7212 131.386C47.3759 131.386 47.0212 131.465 46.6572 131.624C46.2932 131.773 45.8546 131.993 45.3412 132.282L45.2712 131.26C45.7752 130.84 46.2886 130.518 46.8112 130.294C47.3339 130.07 47.8472 129.958 48.3512 129.958ZM45.2152 130.126L45.3832 131.47L45.5232 131.666V137H43.8292V130.126H45.2152ZM57.2101 129.958C58.4887 129.958 59.1281 130.588 59.1281 131.848V137H57.4341V132.366C57.4341 131.993 57.3687 131.736 57.2381 131.596C57.1074 131.456 56.8881 131.386 56.5801 131.386C56.2347 131.386 55.8801 131.465 55.5161 131.624C55.1521 131.773 54.7134 131.993 54.2001 132.282L54.1301 131.26C54.6341 130.84 55.1474 130.518 55.6701 130.294C56.1927 130.07 56.7061 129.958 57.2101 129.958ZM54.0741 130.126L54.2421 131.47L54.3821 131.666V137H52.6881V130.126H54.0741ZM63.2829 130.126V137H61.6029V130.126H63.2829ZM62.8209 127.144C63.1569 127.144 63.3249 127.312 63.3249 127.648V128.432C63.3249 128.768 63.1569 128.936 62.8209 128.936H62.0649C61.7289 128.936 61.5609 128.768 61.5609 128.432V127.648C61.5609 127.312 61.7289 127.144 62.0649 127.144H62.8209ZM70.3203 129.958C71.599 129.958 72.2383 130.588 72.2383 131.848V137H70.5443V132.366C70.5443 131.993 70.479 131.736 70.3483 131.596C70.2176 131.456 69.9983 131.386 69.6903 131.386C69.345 131.386 68.9903 131.465 68.6263 131.624C68.2623 131.773 67.8236 131.993 67.3103 132.282L67.2403 131.26C67.7443 130.84 68.2576 130.518 68.7803 130.294C69.303 130.07 69.8163 129.958 70.3203 129.958ZM67.1843 130.126L67.3523 131.47L67.4923 131.666V137H65.7983V130.126H67.1843ZM77.5691 129.958C78.3438 129.958 78.9551 130.033 79.4031 130.182C79.8604 130.322 80.1871 130.555 80.3831 130.882C80.5791 131.199 80.6771 131.619 80.6771 132.142C80.6771 132.646 80.5791 133.061 80.3831 133.388C80.1871 133.705 79.8604 133.939 79.4031 134.088C78.9458 134.237 78.3298 134.312 77.5551 134.312C76.7804 134.312 76.1644 134.237 75.7071 134.088C75.2591 133.939 74.9324 133.705 74.7271 133.388C74.5311 133.071 74.4331 132.655 74.4331 132.142C74.4331 131.619 74.5311 131.199 74.7271 130.882C74.9324 130.555 75.2638 130.322 75.7211 130.182C76.1784 130.033 76.7944 129.958 77.5691 129.958ZM77.5551 131.064C76.9671 131.064 76.5611 131.143 76.3371 131.302C76.1131 131.461 76.0011 131.741 76.0011 132.142C76.0011 132.525 76.1131 132.8 76.3371 132.968C76.5611 133.127 76.9671 133.206 77.5551 133.206C78.1431 133.206 78.5445 133.127 78.7591 132.968C78.9831 132.8 79.0951 132.525 79.0951 132.142C79.0951 131.741 78.9831 131.461 78.7591 131.302C78.5445 131.143 78.1431 131.064 77.5551 131.064ZM81.4751 130.126L81.3771 130.91L79.5851 131.106L79.0811 130.126H81.4751ZM75.5531 133.892L76.4211 134.018C76.2811 134.13 76.1831 134.275 76.1271 134.452C76.0804 134.62 76.0944 134.783 76.1691 134.942C76.2531 135.091 76.4304 135.185 76.7011 135.222L79.2491 135.558C79.9398 135.642 80.4251 135.847 80.7051 136.174C80.9851 136.491 81.1251 136.953 81.1251 137.56C81.1251 138.129 81.0131 138.573 80.7891 138.89C80.5651 139.207 80.1964 139.427 79.6831 139.548C79.1791 139.679 78.4978 139.744 77.6391 139.744C76.9578 139.744 76.3931 139.707 75.9451 139.632C75.4971 139.567 75.1378 139.45 74.8671 139.282C74.6058 139.123 74.4191 138.913 74.3071 138.652C74.1951 138.4 74.1391 138.083 74.1391 137.7C74.1391 137.401 74.1858 137.149 74.2791 136.944C74.3818 136.739 74.5451 136.557 74.7691 136.398C74.9931 136.23 75.2964 136.076 75.6791 135.936L76.6311 135.53L77.2891 135.768L76.6731 136.202C76.4584 136.361 76.2811 136.505 76.1411 136.636C76.0104 136.757 75.9124 136.879 75.8471 137C75.7911 137.131 75.7631 137.294 75.7631 137.49C75.7631 137.751 75.8144 137.952 75.9171 138.092C76.0291 138.232 76.2204 138.325 76.4911 138.372C76.7618 138.428 77.1398 138.456 77.6251 138.456C78.1198 138.456 78.5024 138.428 78.7731 138.372C79.0438 138.325 79.2304 138.232 79.3331 138.092C79.4451 137.961 79.5011 137.77 79.5011 137.518C79.5011 137.313 79.4684 137.159 79.4031 137.056C79.3378 136.963 79.2211 136.888 79.0531 136.832C78.8851 136.776 78.6518 136.729 78.3531 136.692L76.0571 136.412C75.7304 136.375 75.4691 136.281 75.2731 136.132C75.0864 135.973 74.9558 135.787 74.8811 135.572C74.8064 135.348 74.7831 135.129 74.8111 134.914C74.8484 134.69 74.9278 134.485 75.0491 134.298C75.1798 134.111 75.3478 133.976 75.5531 133.892Z" fill="#333839"/>
<path d="M90.3994 53.6045L53.7439 90.2501" stroke="white" stroke-width="6.29" stroke-miterlimit="10"/>
<path d="M90.3994 53.6045L53.7439 90.2501" stroke="#CD4C62" stroke-width="3.42" stroke-miterlimit="10"/>
<path d="M8.6601 52.6616L6 50.0016L45.9905 10.0012" stroke="white" stroke-width="6.29" stroke-miterlimit="10"/>
<path d="M8.6601 52.6616L6 50.0016L45.9905 10.0012" stroke="#CD4C62" stroke-width="3.42" stroke-miterlimit="10"/>
<path d="M68.6358 87.9313H31.3153L12 68.6358V31.3153L31.3153 12H68.6358L87.9512 31.3153V68.6358L68.6358 87.9313Z" fill="#CD4C62"/>
<path d="M53.742 90.2506L50.0001 94.0025L8.65967 52.6621" stroke="white" stroke-width="6.29" stroke-miterlimit="10"/>
<path d="M53.742 90.2506L50.0001 94.0025L8.65967 52.6621" stroke="#CD4C62" stroke-width="3.42" stroke-miterlimit="10"/>
<path d="M45.9895 10L49.9995 6L93.9999 50.0004L90.3969 53.6034" stroke="white" stroke-width="6.29" stroke-miterlimit="10"/>
<path d="M45.9895 10L49.9995 6L93.9999 50.0004L90.3969 53.6034" stroke="#CD4C62" stroke-width="3.42" stroke-miterlimit="10"/>
<path d="M43.4673 48.2034C42.5716 48.2034 41.6598 48.2034 40.7569 48.2034C40.1192 48.2034 39.7358 47.8218 39.7358 47.1895C39.7358 45.3718 39.7358 43.5542 39.7358 41.7366C39.7358 41.1203 40.121 40.7388 40.7408 40.7388C42.5572 40.7388 44.3743 40.7388 46.1919 40.7388C46.3261 40.7281 46.4609 40.7466 46.5873 40.7928C46.7137 40.8391 46.8286 40.912 46.9241 41.0068C47.0197 41.1015 47.0937 41.2157 47.1411 41.3417C47.1885 41.4676 47.2081 41.6023 47.1987 41.7366C47.1987 43.5638 47.1987 45.3909 47.1987 47.2181C47.2069 47.3499 47.1869 47.4819 47.14 47.6053C47.0931 47.7287 47.0205 47.8406 46.9269 47.9337C46.8333 48.0268 46.7209 48.0988 46.5973 48.145C46.4736 48.1912 46.3415 48.2105 46.2098 48.2016C45.2944 48.207 44.3808 48.2034 43.4673 48.2034ZM41.6168 42.6179V46.3189H45.3141V42.6179H41.6168Z" fill="white"/>
<path d="M47.1987 57.5451C47.1987 58.4301 47.1987 59.315 47.1987 60.1981C47.1987 60.8986 46.8404 61.273 46.1453 61.273H40.782C40.1084 61.273 39.7358 60.8986 39.7358 60.2268C39.7358 58.4354 39.7358 56.6471 39.7358 54.8617C39.7358 54.1684 40.0941 53.8083 40.8107 53.8083C42.5889 53.8083 44.3677 53.8083 46.1471 53.8083C46.8386 53.8083 47.2076 54.1774 47.2076 54.8688C47.2005 55.7574 47.1987 56.6512 47.1987 57.5451ZM45.3142 55.6803H41.6204V59.3741H45.3142V55.6803Z" fill="white"/>
<path d="M56.5451 53.8029C57.4407 53.8029 58.3364 53.8029 59.2321 53.8029C59.8877 53.8029 60.2675 54.179 60.2675 54.8293C60.2675 56.6386 60.2675 58.4467 60.2675 60.2536C60.2675 60.8895 59.886 61.2657 59.2482 61.2675H53.8204C53.1845 61.2675 52.8011 60.8859 52.7993 60.2536C52.7993 58.4371 52.7993 56.6195 52.7993 54.8007C52.7993 54.1844 53.1845 53.8047 53.8043 53.8029C54.7179 53.7993 55.6315 53.8029 56.5451 53.8029ZM58.3812 59.3883V55.6802H54.6856V59.3883H58.3812Z" fill="white"/>
<path d="M36 42.5117C36 41.6357 36 40.7615 36 39.8874C36 38.225 37.2128 37.0212 38.8662 37.0068C40.6737 37.0068 42.4812 37.0068 44.2886 37.0068C44.9049 37.0068 45.3294 37.392 45.3276 37.9437C45.3258 38.4955 44.9013 38.8716 44.2815 38.8716H38.9808C38.2195 38.8716 37.8702 39.2174 37.8702 39.968C37.8702 41.7593 37.8702 43.565 37.8702 45.3636C37.8771 45.5195 37.8446 45.6746 37.7755 45.8146C37.7065 45.9546 37.6032 46.0748 37.4752 46.1642C37.3473 46.2535 37.1988 46.3091 37.0436 46.3257C36.8884 46.3423 36.7316 46.3195 36.5876 46.2592C36.4088 46.1901 36.2565 46.0662 36.1523 45.9054C36.0481 45.7446 35.9973 45.5549 36.0072 45.3636L36 42.5117Z" fill="white"/>
<path d="M63.996 42.5321C63.996 43.4457 63.996 44.3593 63.996 45.2729C63.996 45.9142 63.6144 46.3477 63.0537 46.337C62.493 46.3262 62.1312 45.9071 62.1312 45.2837C62.1312 43.5042 62.1312 41.7254 62.1312 39.9472C62.1312 39.2306 61.7729 38.8724 61.0564 38.8724C59.265 38.8724 57.4593 38.8724 55.6626 38.8724C54.946 38.8724 54.4839 38.2364 54.7311 37.6077C54.7903 37.4298 54.9051 37.2758 55.0587 37.1683C55.2123 37.0609 55.3964 37.0058 55.5838 37.0111C57.5077 37.0111 59.4316 36.9861 61.3555 37.0111C62.7886 37.0362 63.9602 38.2651 63.9906 39.6982C64.0121 40.6404 63.9906 41.5845 63.9906 42.5268L63.996 42.5321Z" fill="white"/>
<path d="M41.5203 64.9966C40.6461 64.9966 39.7719 64.9966 38.8977 64.9966C37.2192 64.9966 36.0082 63.7874 36.0046 62.1143C36.0046 60.305 36.0046 58.4969 36.0046 56.69C36.0046 56.0899 36.3844 55.6725 36.9254 55.6654C37.4664 55.6582 37.8695 56.0846 37.8695 56.6972C37.8695 58.4563 37.8695 60.2154 37.8695 61.9746C37.8695 62.7914 38.2026 63.13 39.0105 63.13H44.347C44.5475 63.1187 44.7462 63.1727 44.9135 63.2838C45.0808 63.3948 45.2076 63.5571 45.275 63.7462C45.3484 63.9236 45.3601 64.1206 45.3081 64.3055C45.2561 64.4903 45.1435 64.6523 44.9883 64.7655C44.7908 64.902 44.5598 64.9819 44.3202 64.9966C43.3869 65.0163 42.4482 64.9966 41.5203 64.9966Z" fill="white"/>
<path d="M58.4569 64.9967H55.7447C55.0963 64.9967 54.6699 64.6384 54.6699 64.0705C54.6699 63.5027 55.0927 63.1301 55.7627 63.1301H61.0364C61.7727 63.1301 62.1292 62.7718 62.1292 62.0427C62.1292 60.2352 62.1292 58.4277 62.1292 56.6185C62.1241 56.3976 62.1977 56.1821 62.3368 56.0105C62.476 55.8389 62.6716 55.7223 62.8887 55.6816C63.0962 55.6417 63.3111 55.6744 63.4974 55.7742C63.6836 55.874 63.8299 56.0349 63.9116 56.2297C63.9651 56.3642 63.9925 56.5077 63.9922 56.6525C63.9922 58.4994 64.0047 60.3463 63.9922 62.1932C63.9946 62.5613 63.924 62.9261 63.7845 63.2668C63.645 63.6074 63.4394 63.917 63.1795 64.1777C62.9197 64.4383 62.6107 64.6449 62.2706 64.7855C61.9304 64.9261 61.5657 64.9979 61.1977 64.9967C60.2841 65.0092 59.3705 64.9967 58.4569 64.9967Z" fill="white"/>
<path d="M58.3922 42.6038H50.0874C49.3512 42.6038 48.8836 41.9786 49.1291 41.3355C49.1972 41.1571 49.3188 41.004 49.4772 40.8973C49.6356 40.7905 49.823 40.7352 50.014 40.7389C50.7037 40.7389 51.3933 40.7389 52.083 40.7389H59.1679C59.9023 40.7389 60.2624 41.0972 60.2624 41.8245C60.2624 42.9805 60.2624 44.1366 60.2624 45.2926C60.2624 45.9124 59.8808 46.337 59.3327 46.3388C58.7845 46.3405 58.3922 45.9124 58.3922 45.2908C58.3922 44.4112 58.3922 43.5281 58.3922 42.6038Z" fill="white"/>
<path d="M54.6635 46.3371C54.6635 47.8706 54.6635 49.3574 54.6635 50.8442C54.6685 50.9697 54.6588 51.0953 54.6349 51.2186C54.5823 51.4438 54.4476 51.6412 54.2573 51.7725C54.0669 51.9037 53.8345 51.9593 53.6054 51.9284C53.3762 51.8975 53.1668 51.7824 53.018 51.6054C52.8692 51.4285 52.7917 51.2024 52.8005 50.9714C52.8005 49.5526 52.8005 48.1357 52.8005 46.7169C52.8005 46.2888 52.8005 45.8606 52.8005 45.4343C52.7955 45.3074 52.8167 45.1808 52.8627 45.0625C52.9088 44.9441 52.9786 44.8365 53.068 44.7463C53.1574 44.656 53.2644 44.5852 53.3823 44.538C53.5002 44.4909 53.6266 44.4686 53.7535 44.4723C54.3662 44.4723 54.977 44.4723 55.5897 44.4723C55.8367 44.4723 56.0737 44.5705 56.2483 44.7452C56.423 44.9199 56.5212 45.1568 56.5212 45.4038C56.5212 45.6509 56.423 45.8878 56.2483 46.0625C56.0737 46.2372 55.8367 46.3354 55.5897 46.3354C55.2923 46.3425 54.9878 46.3371 54.6635 46.3371Z" fill="white"/>
<path d="M49.0669 57.5065V54.8535C49.0776 54.2301 49.4359 53.8091 49.9912 53.8038C50.5466 53.7984 50.9317 54.2247 50.9335 54.8392V60.2312C50.9335 60.8474 50.543 61.272 49.993 61.2684C49.4431 61.2648 49.0687 60.8385 49.0669 60.2186V57.5065Z" fill="white"/>
<path d="M43.0033 50.0697C43.7503 50.0697 44.4991 50.0697 45.2479 50.0697C45.8409 50.0697 46.2618 50.4584 46.2654 50.9976C46.269 51.5368 45.8462 51.9345 45.2569 51.9345C43.7509 51.9345 42.245 51.9345 40.7391 51.9345C40.1515 51.9345 39.7305 51.5333 39.7359 50.9923C39.7413 50.4513 40.1551 50.0733 40.7301 50.0697C41.4878 50.0661 42.2456 50.0697 43.0033 50.0697Z" fill="white"/>
<path d="M58.3923 50.0709C58.0573 50.0709 57.7671 50.0709 57.4769 50.0709C57.2299 50.0709 56.9929 49.9727 56.8182 49.798C56.6436 49.6233 56.5454 49.3864 56.5454 49.1394C56.5454 48.8923 56.6436 48.6554 56.8182 48.4807C56.9929 48.306 57.2299 48.2079 57.4769 48.2079C58.0788 48.2079 58.6807 48.2079 59.2844 48.2079C59.4137 48.2024 59.5428 48.2241 59.6632 48.2715C59.7837 48.3189 59.8929 48.3909 59.9838 48.4831C60.0747 48.5752 60.1454 48.6853 60.1912 48.8063C60.2371 48.9274 60.2571 49.0567 60.25 49.1859C60.25 49.7831 60.25 50.3754 60.25 50.963C60.2541 51.0888 60.2328 51.2142 60.1872 51.3316C60.1417 51.449 60.0728 51.5559 59.9848 51.646C59.8968 51.7361 59.7915 51.8075 59.6753 51.8558C59.559 51.9041 59.4341 51.9284 59.3082 51.9272C59.1823 51.9259 59.0579 51.8993 58.9426 51.8487C58.8272 51.7982 58.7233 51.7248 58.6371 51.6331C58.5509 51.5413 58.4841 51.4331 58.4408 51.3148C58.3975 51.1966 58.3786 51.0708 58.3851 50.9451C58.3923 50.6656 58.3923 50.3844 58.3923 50.0709Z" fill="white"/>
<path d="M49.0766 46.3229C49.0766 46.0112 49.0766 45.6995 49.0766 45.3896C49.0799 45.1437 49.1805 44.9091 49.3564 44.7372C49.5324 44.5652 49.7693 44.4701 50.0152 44.4725C50.2549 44.4733 50.4848 44.5671 50.6566 44.7342C50.8284 44.9013 50.9286 45.1286 50.936 45.3681C50.9503 46.0094 50.9503 46.6508 50.936 47.2921C50.9286 47.5316 50.8284 47.7589 50.6566 47.926C50.4848 48.0931 50.2549 48.1869 50.0152 48.1877C49.772 48.1893 49.5377 48.0958 49.3624 47.9271C49.1871 47.7585 49.0845 47.528 49.0766 47.2849C49.0587 46.9642 49.0766 46.6436 49.0766 46.3229Z" fill="white"/>
<path d="M49.5467 50.0719C49.7258 50.0719 49.905 50.0612 50.0716 50.0719C50.2997 50.0901 50.5131 50.1914 50.6716 50.3564C50.8301 50.5215 50.9225 50.7389 50.9314 50.9676C50.9378 51.2033 50.8541 51.4325 50.6973 51.6086C50.5405 51.7847 50.3225 51.8943 50.0877 51.9152C49.719 51.9385 49.3493 51.9385 48.9806 51.9152C48.7456 51.8952 48.5272 51.7861 48.37 51.6103C48.2128 51.4344 48.1288 51.2051 48.1351 50.9694C48.1398 50.7386 48.2303 50.5179 48.389 50.3503C48.5476 50.1827 48.763 50.0803 48.9932 50.0629C49.1759 50.0612 49.3622 50.0719 49.5467 50.0719Z" fill="white"/>
</g>
</svg>
