<svg width="100" height="156" viewBox="0 0 100 156" fill="none" xmlns="http://www.w3.org/2000/svg">
<g opacity="0.2">
<rect width="100" height="156" rx="19" fill="#F9FBFF"/>
<path d="M17.2328 109.343V119.003H15.4828V109.343H17.2328ZM20.2288 109.343V110.771H12.4868V109.343H20.2288ZM21.4715 112.129L21.6955 113.473L21.8495 113.669V119.003H20.1555V112.129H21.4715ZM24.8315 111.961L24.6635 113.529H24.1735C23.8095 113.529 23.4408 113.589 23.0675 113.711C22.6942 113.832 22.2275 114.014 21.6675 114.257L21.5555 113.263C22.0408 112.852 22.5355 112.535 23.0395 112.311C23.5435 112.077 24.0288 111.961 24.4955 111.961H24.8315ZM29.2704 111.961C29.821 111.961 30.283 112.035 30.6564 112.185C31.039 112.325 31.3284 112.567 31.5244 112.913C31.7204 113.258 31.8184 113.734 31.8184 114.341V119.003H30.4744L30.2364 117.519L30.1104 117.323V114.327C30.1104 113.963 30.0264 113.701 29.8584 113.543C29.6904 113.375 29.3684 113.291 28.8924 113.291C28.5377 113.291 28.0897 113.305 27.5484 113.333C27.0164 113.361 26.4797 113.398 25.9384 113.445L25.7844 112.283C26.111 112.217 26.4797 112.161 26.8904 112.115C27.301 112.068 27.7164 112.031 28.1364 112.003C28.5564 111.975 28.9344 111.961 29.2704 111.961ZM31.0904 114.775L31.0764 115.825H27.9264C27.6464 115.834 27.4457 115.909 27.3244 116.049C27.203 116.189 27.1424 116.38 27.1424 116.623V117.001C27.1424 117.281 27.217 117.495 27.3664 117.645C27.5157 117.785 27.749 117.855 28.0664 117.855C28.3184 117.855 28.5984 117.803 28.9064 117.701C29.2144 117.598 29.5177 117.449 29.8164 117.253C30.1244 117.057 30.3997 116.823 30.6424 116.553V117.435C30.549 117.575 30.4137 117.743 30.2364 117.939C30.059 118.125 29.8397 118.312 29.5784 118.499C29.3264 118.685 29.0324 118.839 28.6964 118.961C28.3697 119.082 28.0057 119.143 27.6044 119.143C27.1937 119.143 26.825 119.073 26.4984 118.933C26.1717 118.783 25.915 118.569 25.7284 118.289C25.5417 117.999 25.4484 117.645 25.4484 117.225V116.497C25.4484 115.955 25.6257 115.535 25.9804 115.237C26.3444 114.929 26.839 114.775 27.4644 114.775H31.0904ZM38.042 111.961C39.3207 111.961 39.96 112.591 39.96 113.851V119.003H38.266V114.369C38.266 113.995 38.2007 113.739 38.07 113.599C37.9393 113.459 37.72 113.389 37.412 113.389C37.0667 113.389 36.712 113.468 36.348 113.627C35.984 113.776 35.5453 113.995 35.032 114.285L34.962 113.263C35.466 112.843 35.9793 112.521 36.502 112.297C37.0247 112.073 37.538 111.961 38.042 111.961ZM34.906 112.129L35.074 113.473L35.214 113.669V119.003H33.52V112.129H34.906ZM44.1568 111.961C44.4742 111.961 44.8148 111.97 45.1788 111.989C45.5522 112.007 45.9162 112.035 46.2708 112.073C46.6255 112.101 46.9428 112.143 47.2228 112.199L47.1108 113.305C46.6628 113.295 46.2148 113.286 45.7668 113.277C45.3282 113.258 44.8942 113.249 44.4648 113.249C44.0822 113.249 43.7788 113.258 43.5548 113.277C43.3402 113.295 43.1862 113.351 43.0928 113.445C43.0088 113.538 42.9668 113.697 42.9668 113.921C42.9668 114.191 43.0415 114.373 43.1908 114.467C43.3402 114.551 43.5828 114.635 43.9188 114.719L45.7948 115.153C46.3548 115.293 46.7702 115.507 47.0408 115.797C47.3115 116.077 47.4468 116.511 47.4468 117.099C47.4468 117.668 47.3395 118.102 47.1248 118.401C46.9195 118.69 46.5882 118.891 46.1308 119.003C45.6828 119.105 45.1088 119.157 44.4088 119.157C44.1382 119.157 43.7368 119.143 43.2048 119.115C42.6728 119.096 42.0895 119.035 41.4548 118.933L41.5668 117.827C41.7535 117.827 41.9728 117.831 42.2248 117.841C42.4862 117.85 42.7615 117.855 43.0508 117.855C43.3495 117.855 43.6528 117.855 43.9608 117.855C44.4555 117.855 44.8335 117.841 45.0948 117.813C45.3655 117.775 45.5522 117.705 45.6548 117.603C45.7575 117.491 45.8088 117.332 45.8088 117.127C45.8088 116.865 45.7202 116.693 45.5428 116.609C45.3748 116.515 45.1228 116.427 44.7868 116.343L42.9528 115.895C42.5328 115.783 42.2062 115.643 41.9728 115.475C41.7395 115.297 41.5715 115.083 41.4688 114.831C41.3662 114.569 41.3148 114.252 41.3148 113.879C41.3148 113.375 41.4082 112.983 41.5948 112.703C41.7908 112.423 42.0942 112.227 42.5048 112.115C42.9248 112.003 43.4755 111.951 44.1568 111.961ZM52.2976 111.961C52.8483 111.961 53.3103 112.035 53.6836 112.185C54.0663 112.325 54.3556 112.567 54.5516 112.913C54.7476 113.258 54.8456 113.734 54.8456 114.341V119.003H53.5016L53.2636 117.519L53.1376 117.323V114.327C53.1376 113.963 53.0536 113.701 52.8856 113.543C52.7176 113.375 52.3956 113.291 51.9196 113.291C51.565 113.291 51.117 113.305 50.5756 113.333C50.0436 113.361 49.507 113.398 48.9656 113.445L48.8116 112.283C49.1383 112.217 49.507 112.161 49.9176 112.115C50.3283 112.068 50.7436 112.031 51.1636 112.003C51.5836 111.975 51.9616 111.961 52.2976 111.961ZM54.1176 114.775L54.1036 115.825H50.9536C50.6736 115.834 50.473 115.909 50.3516 116.049C50.2303 116.189 50.1696 116.38 50.1696 116.623V117.001C50.1696 117.281 50.2443 117.495 50.3936 117.645C50.543 117.785 50.7763 117.855 51.0936 117.855C51.3456 117.855 51.6256 117.803 51.9336 117.701C52.2416 117.598 52.545 117.449 52.8436 117.253C53.1516 117.057 53.427 116.823 53.6696 116.553V117.435C53.5763 117.575 53.441 117.743 53.2636 117.939C53.0863 118.125 52.867 118.312 52.6056 118.499C52.3536 118.685 52.0596 118.839 51.7236 118.961C51.397 119.082 51.033 119.143 50.6316 119.143C50.221 119.143 49.8523 119.073 49.5256 118.933C49.199 118.783 48.9423 118.569 48.7556 118.289C48.569 117.999 48.4756 117.645 48.4756 117.225V116.497C48.4756 115.955 48.653 115.535 49.0076 115.237C49.3716 114.929 49.8663 114.775 50.4916 114.775H54.1176ZM59.6273 111.961C59.8606 111.961 60.1173 111.97 60.3973 111.989C60.6773 112.007 60.9619 112.045 61.2513 112.101C61.5406 112.157 61.8019 112.236 62.0353 112.339L61.8393 113.403C61.4939 113.384 61.1486 113.37 60.8033 113.361C60.4673 113.351 60.1733 113.347 59.9213 113.347C59.4453 113.347 59.0673 113.412 58.7873 113.543C58.5166 113.664 58.3206 113.888 58.1993 114.215C58.0779 114.532 58.0173 114.98 58.0173 115.559C58.0173 116.137 58.0779 116.59 58.1993 116.917C58.3206 117.234 58.5166 117.458 58.7873 117.589C59.0673 117.719 59.4453 117.785 59.9213 117.785C60.0613 117.785 60.2433 117.78 60.4673 117.771C60.7006 117.761 60.9479 117.747 61.2093 117.729C61.4799 117.71 61.7413 117.687 61.9933 117.659L62.1613 118.751C61.7973 118.9 61.3913 119.007 60.9433 119.073C60.4953 119.138 60.0519 119.171 59.6133 119.171C58.7919 119.171 58.1339 119.054 57.6393 118.821C57.1446 118.587 56.7853 118.209 56.5613 117.687C56.3466 117.155 56.2393 116.445 56.2393 115.559C56.2393 114.672 56.3513 113.967 56.5753 113.445C56.7993 112.913 57.1586 112.535 57.6533 112.311C58.1479 112.077 58.8059 111.961 59.6273 111.961ZM65.6753 110.169V116.931C65.6753 117.22 65.7359 117.425 65.8573 117.547C65.9879 117.668 66.2073 117.729 66.5153 117.729H67.4673L67.6493 118.919C67.4906 118.965 67.2993 119.007 67.0753 119.045C66.8513 119.082 66.6319 119.105 66.4173 119.115C66.2026 119.133 66.0206 119.143 65.8713 119.143C65.2739 119.143 64.8073 118.984 64.4713 118.667C64.1446 118.34 63.9813 117.873 63.9813 117.267V110.169H65.6753ZM67.7193 112.129V113.305H62.7633V112.199L64.1073 112.129H67.7193ZM70.5677 112.129V119.003H68.8877V112.129H70.5677ZM70.1057 109.147C70.4417 109.147 70.6097 109.315 70.6097 109.651V110.435C70.6097 110.771 70.4417 110.939 70.1057 110.939H69.3497C69.0137 110.939 68.8457 110.771 68.8457 110.435V109.651C68.8457 109.315 69.0137 109.147 69.3497 109.147H70.1057ZM75.4911 111.961C76.3311 111.961 76.9985 112.077 77.4931 112.311C77.9971 112.544 78.3565 112.927 78.5711 113.459C78.7951 113.991 78.9071 114.695 78.9071 115.573C78.9071 116.45 78.7951 117.155 78.5711 117.687C78.3565 118.209 77.9971 118.592 77.4931 118.835C76.9985 119.068 76.3311 119.185 75.4911 119.185C74.6698 119.185 74.0071 119.068 73.5031 118.835C73.0085 118.592 72.6491 118.209 72.4251 117.687C72.2011 117.155 72.0891 116.45 72.0891 115.573C72.0891 114.695 72.2011 113.991 72.4251 113.459C72.6491 112.927 73.0085 112.544 73.5031 112.311C74.0071 112.077 74.6698 111.961 75.4911 111.961ZM75.4911 113.249C75.0805 113.249 74.7538 113.319 74.5111 113.459C74.2778 113.589 74.1098 113.823 74.0071 114.159C73.9045 114.495 73.8531 114.966 73.8531 115.573C73.8531 116.179 73.9045 116.651 74.0071 116.987C74.1098 117.323 74.2778 117.556 74.5111 117.687C74.7538 117.817 75.0805 117.883 75.4911 117.883C75.9111 117.883 76.2425 117.817 76.4851 117.687C76.7278 117.556 76.8958 117.323 76.9891 116.987C77.0918 116.651 77.1431 116.179 77.1431 115.573C77.1431 114.966 77.0918 114.495 76.9891 114.159C76.8958 113.823 76.7278 113.589 76.4851 113.459C76.2425 113.319 75.9111 113.249 75.4911 113.249ZM84.8862 111.961C86.1649 111.961 86.8042 112.591 86.8042 113.851V119.003H85.1102V114.369C85.1102 113.995 85.0449 113.739 84.9142 113.599C84.7836 113.459 84.5642 113.389 84.2562 113.389C83.9109 113.389 83.5562 113.468 83.1922 113.627C82.8282 113.776 82.3896 113.995 81.8762 114.285L81.8062 113.263C82.3102 112.843 82.8236 112.521 83.3462 112.297C83.8689 112.073 84.3822 111.961 84.8862 111.961ZM81.7502 112.129L81.9182 113.473L82.0582 113.669V119.003H80.3642V112.129H81.7502ZM25.3277 127.175C25.7664 127.175 26.1397 127.189 26.4477 127.217C26.7557 127.235 27.0404 127.268 27.3017 127.315C27.563 127.352 27.8337 127.408 28.1137 127.483L27.9597 128.785C27.6704 128.766 27.3997 128.752 27.1477 128.743C26.8957 128.724 26.625 128.71 26.3357 128.701C26.0557 128.691 25.7197 128.687 25.3277 128.687C24.7864 128.687 24.3617 128.794 24.0537 129.009C23.7457 129.223 23.5264 129.583 23.3957 130.087C23.2744 130.591 23.2137 131.286 23.2137 132.173C23.2137 133.059 23.2744 133.755 23.3957 134.259C23.5264 134.763 23.7457 135.122 24.0537 135.337C24.3617 135.551 24.7864 135.659 25.3277 135.659C25.9531 135.659 26.4757 135.649 26.8957 135.631C27.325 135.603 27.7451 135.565 28.1557 135.519L28.3097 136.807C27.8897 136.937 27.4557 137.031 27.0077 137.087C26.5597 137.143 25.9997 137.171 25.3277 137.171C24.357 137.171 23.5824 137.012 23.0037 136.695C22.425 136.368 22.005 135.841 21.7437 135.113C21.4917 134.385 21.3657 133.405 21.3657 132.173C21.3657 130.941 21.4917 129.961 21.7437 129.233C22.005 128.505 22.425 127.982 23.0037 127.665C23.5824 127.338 24.357 127.175 25.3277 127.175ZM34.0788 129.961C35.3575 129.961 35.9968 130.591 35.9968 131.851V137.003H34.2888V132.369C34.2888 131.995 34.2235 131.739 34.0928 131.599C33.9715 131.459 33.7568 131.389 33.4488 131.389C33.1035 131.389 32.7488 131.463 32.3848 131.613C32.0208 131.762 31.5821 131.986 31.0688 132.285L30.9428 131.305C31.4655 130.875 31.9881 130.544 32.5108 130.311C33.0428 130.077 33.5655 129.961 34.0788 129.961ZM31.2508 127.203L31.2648 129.723C31.2648 130.068 31.2461 130.395 31.2088 130.703C31.1808 131.001 31.1388 131.258 31.0828 131.473L31.2508 131.669V137.003H29.5568V127.203H31.2508ZM40.7816 129.961C41.8923 129.961 42.6903 130.157 43.1756 130.549C43.661 130.931 43.9083 131.501 43.9176 132.257C43.927 132.882 43.7776 133.358 43.4696 133.685C43.171 134.002 42.6716 134.161 41.9716 134.161H38.0516V133.111H41.5096C41.827 133.111 42.0276 133.027 42.1116 132.859C42.205 132.691 42.2516 132.485 42.2516 132.243C42.2423 131.86 42.1303 131.594 41.9156 131.445C41.7103 131.295 41.3556 131.221 40.8516 131.221C40.413 131.221 40.0723 131.281 39.8296 131.403C39.587 131.524 39.4143 131.743 39.3116 132.061C39.2183 132.378 39.1716 132.835 39.1716 133.433C39.1716 134.067 39.2323 134.557 39.3536 134.903C39.475 135.248 39.6756 135.486 39.9556 135.617C40.2356 135.738 40.609 135.799 41.0756 135.799C41.421 135.799 41.8176 135.785 42.2656 135.757C42.723 135.729 43.1616 135.691 43.5816 135.645L43.7496 136.723C43.4976 136.825 43.2083 136.909 42.8816 136.975C42.555 137.04 42.2143 137.087 41.8596 137.115C41.5143 137.152 41.1876 137.171 40.8796 137.171C40.0396 137.171 39.363 137.049 38.8496 136.807C38.3456 136.555 37.977 136.163 37.7436 135.631C37.5196 135.099 37.4076 134.413 37.4076 133.573C37.4076 132.667 37.5196 131.953 37.7436 131.431C37.977 130.899 38.341 130.521 38.8356 130.297C39.3396 130.073 39.9883 129.961 40.7816 129.961ZM48.3802 129.961C48.6136 129.961 48.8702 129.97 49.1502 129.989C49.4302 130.007 49.7149 130.045 50.0042 130.101C50.2936 130.157 50.5549 130.236 50.7882 130.339L50.5922 131.403C50.2469 131.384 49.9016 131.37 49.5562 131.361C49.2202 131.351 48.9262 131.347 48.6742 131.347C48.1982 131.347 47.8202 131.412 47.5402 131.543C47.2696 131.664 47.0736 131.888 46.9522 132.215C46.8309 132.532 46.7702 132.98 46.7702 133.559C46.7702 134.137 46.8309 134.59 46.9522 134.917C47.0736 135.234 47.2696 135.458 47.5402 135.589C47.8202 135.719 48.1982 135.785 48.6742 135.785C48.8142 135.785 48.9962 135.78 49.2202 135.771C49.4536 135.761 49.7009 135.747 49.9622 135.729C50.2329 135.71 50.4942 135.687 50.7462 135.659L50.9142 136.751C50.5502 136.9 50.1442 137.007 49.6962 137.073C49.2482 137.138 48.8049 137.171 48.3662 137.171C47.5449 137.171 46.8869 137.054 46.3922 136.821C45.8976 136.587 45.5382 136.209 45.3142 135.687C45.0996 135.155 44.9922 134.445 44.9922 133.559C44.9922 132.672 45.1042 131.967 45.3282 131.445C45.5522 130.913 45.9116 130.535 46.4062 130.311C46.9009 130.077 47.5589 129.961 48.3802 129.961ZM58.3762 130.129L56.4162 132.579C56.3416 132.691 56.2482 132.803 56.1362 132.915C56.0242 133.017 55.9262 133.097 55.8422 133.153V133.181C55.9262 133.237 56.0242 133.33 56.1362 133.461C56.2482 133.582 56.3416 133.708 56.4162 133.839L58.6002 137.003H56.6822L54.1762 133.111L56.4582 130.129H58.3762ZM53.8542 127.203L53.8682 131.389C53.8682 131.697 53.8496 131.991 53.8122 132.271C53.7842 132.551 53.7422 132.835 53.6862 133.125C53.7329 133.395 53.7702 133.675 53.7982 133.965C53.8356 134.254 53.8542 134.525 53.8542 134.777V137.003H52.1602V127.203H53.8542ZM54.9042 132.607V133.699H53.3082V132.607H54.9042ZM61.2614 127.203L61.2474 134.931C61.2474 135.192 61.3221 135.393 61.4714 135.533C61.6208 135.663 61.8354 135.729 62.1154 135.729H62.7174L62.9134 136.919C62.8108 136.965 62.6661 137.007 62.4794 137.045C62.3021 137.082 62.1154 137.105 61.9194 137.115C61.7328 137.133 61.5694 137.143 61.4294 137.143C60.8601 137.143 60.4074 136.989 60.0714 136.681C59.7354 136.373 59.5674 135.929 59.5674 135.351V127.203H61.2614ZM65.5655 130.129V137.003H63.8855V130.129H65.5655ZM65.1035 127.147C65.4395 127.147 65.6075 127.315 65.6075 127.651V128.435C65.6075 128.771 65.4395 128.939 65.1035 128.939H64.3475C64.0115 128.939 63.8435 128.771 63.8435 128.435V127.651C63.8435 127.315 64.0115 127.147 64.3475 127.147H65.1035ZM69.8589 129.961C70.1762 129.961 70.5169 129.97 70.8809 129.989C71.2542 130.007 71.6182 130.035 71.9729 130.073C72.3275 130.101 72.6449 130.143 72.9249 130.199L72.8129 131.305C72.3649 131.295 71.9169 131.286 71.4689 131.277C71.0302 131.258 70.5962 131.249 70.1669 131.249C69.7842 131.249 69.4809 131.258 69.2569 131.277C69.0422 131.295 68.8882 131.351 68.7949 131.445C68.7109 131.538 68.6689 131.697 68.6689 131.921C68.6689 132.191 68.7435 132.373 68.8929 132.467C69.0422 132.551 69.2849 132.635 69.6209 132.719L71.4969 133.153C72.0569 133.293 72.4722 133.507 72.7429 133.797C73.0135 134.077 73.1489 134.511 73.1489 135.099C73.1489 135.668 73.0415 136.102 72.8269 136.401C72.6215 136.69 72.2902 136.891 71.8329 137.003C71.3849 137.105 70.8109 137.157 70.1109 137.157C69.8402 137.157 69.4389 137.143 68.9069 137.115C68.3749 137.096 67.7915 137.035 67.1569 136.933L67.2689 135.827C67.4555 135.827 67.6749 135.831 67.9269 135.841C68.1882 135.85 68.4635 135.855 68.7529 135.855C69.0515 135.855 69.3549 135.855 69.6629 135.855C70.1575 135.855 70.5355 135.841 70.7969 135.813C71.0675 135.775 71.2542 135.705 71.3569 135.603C71.4595 135.491 71.5109 135.332 71.5109 135.127C71.5109 134.865 71.4222 134.693 71.2449 134.609C71.0769 134.515 70.8249 134.427 70.4889 134.343L68.6549 133.895C68.2349 133.783 67.9082 133.643 67.6749 133.475C67.4415 133.297 67.2735 133.083 67.1709 132.831C67.0682 132.569 67.0169 132.252 67.0169 131.879C67.0169 131.375 67.1102 130.983 67.2969 130.703C67.4929 130.423 67.7962 130.227 68.2069 130.115C68.6269 130.003 69.1775 129.951 69.8589 129.961ZM76.8097 128.169V134.931C76.8097 135.22 76.8703 135.425 76.9917 135.547C77.1223 135.668 77.3417 135.729 77.6497 135.729H78.6017L78.7837 136.919C78.625 136.965 78.4337 137.007 78.2097 137.045C77.9857 137.082 77.7663 137.105 77.5517 137.115C77.337 137.133 77.155 137.143 77.0057 137.143C76.4083 137.143 75.9417 136.984 75.6057 136.667C75.279 136.34 75.1157 135.873 75.1157 135.267V128.169H76.8097ZM78.8537 130.129V131.305H73.8977V130.199L75.2417 130.129H78.8537Z" fill="#333839"/>
<path d="M90.3996 53.6044L53.7441 90.2499" stroke="white" stroke-width="6.29" stroke-miterlimit="10"/>
<path d="M90.3996 53.6044L53.7441 90.2499" stroke="#3F8E78" stroke-width="3.42" stroke-miterlimit="10"/>
<path d="M8.6601 52.6618L6 50.0017L45.9905 10.0013" stroke="white" stroke-width="6.29" stroke-miterlimit="10"/>
<path d="M8.6601 52.6618L6 50.0017L45.9905 10.0013" stroke="#3F8E78" stroke-width="3.42" stroke-miterlimit="10"/>
<path d="M68.6358 87.9313H31.3153L12 68.6358V31.3153L31.3153 12H68.6358L87.9512 31.3153V68.6358L68.6358 87.9313Z" fill="#3F8E78"/>
<path d="M53.742 90.2507L50.0001 94.0026L8.65967 52.6622" stroke="white" stroke-width="6.29" stroke-miterlimit="10"/>
<path d="M53.742 90.2507L50.0001 94.0026L8.65967 52.6622" stroke="#3F8E78" stroke-width="3.42" stroke-miterlimit="10"/>
<path d="M45.9897 10L49.9997 6L94.0002 50.0004L90.3972 53.6034" stroke="white" stroke-width="6.29" stroke-miterlimit="10"/>
<path d="M45.9897 10L49.9997 6L94.0002 50.0004L90.3972 53.6034" stroke="#3F8E78" stroke-width="3.42" stroke-miterlimit="10"/>
<path d="M52.092 37V37.3455C52.092 39.0407 52.092 40.7359 52.092 42.4311C52.092 44.1757 53.2846 45.3667 55.03 45.3683C56.7257 45.3683 58.4211 45.3683 60.1163 45.3683H60.4517C60.4595 45.4692 60.4711 45.5523 60.4711 45.6361C60.4711 49.9753 60.4711 54.3147 60.4711 58.6544C60.4711 60.1816 59.4618 61.3167 57.9555 61.4976C57.2746 61.5753 56.6496 61.3959 56.0874 61.0069C55.9205 60.892 55.7644 60.76 55.6045 60.6342C55.0711 60.2134 54.6976 60.2095 54.1743 60.6265C53.5082 61.1581 52.8428 61.6907 52.1782 62.2244C50.8916 63.2578 49.5865 63.2593 48.2961 62.2244L46.393 60.6964C45.7354 60.1684 45.4148 60.1637 44.7626 60.7072C44.2587 61.1242 43.7121 61.4262 43.0459 61.4836C41.3867 61.6164 40.0085 60.3664 40.0054 58.6978C39.9982 54.9596 39.9982 51.2207 40.0054 47.4809C40.0054 44.972 40.0054 42.4634 40.0054 39.9551C40.0054 38.1879 41.191 37.0047 42.9558 37.0047H52.0982L52.092 37ZM47.8217 49.0889C48.2487 48.6642 48.6229 48.3039 48.9863 47.9304C49.3644 47.5422 49.3636 46.963 48.9979 46.6012C48.6322 46.2394 48.0561 46.2417 47.6695 46.6245C46.7611 47.5236 45.8568 48.4274 44.9567 49.3358C44.6624 49.6308 44.5685 49.9833 44.7307 50.3723C44.893 50.7613 45.2067 50.9476 45.6252 50.9476C48.706 50.9476 51.7858 50.9476 54.8646 50.9476C54.9936 50.9594 55.1236 50.9442 55.2463 50.903C55.3691 50.8617 55.4819 50.7953 55.5776 50.708C55.6733 50.6207 55.7497 50.5144 55.802 50.3959C55.8542 50.2774 55.8812 50.1493 55.8812 50.0198C55.8812 49.8903 55.8542 49.7622 55.802 49.6437C55.7497 49.5252 55.6733 49.4189 55.5776 49.3316C55.4819 49.2443 55.3691 49.1779 55.2463 49.1366C55.1236 49.0954 54.9936 49.0802 54.8646 49.092C53.4794 49.0865 52.0943 49.092 50.7092 49.092L47.8217 49.0889ZM52.6463 54.669C52.2325 55.0805 51.8653 55.4237 51.5283 55.7933C51.3842 55.9465 51.2806 56.1333 51.227 56.3368C51.1824 56.5324 51.2059 56.7375 51.2938 56.9179C51.3816 57.0984 51.5284 57.2434 51.71 57.329C51.8899 57.4161 52.0929 57.4438 52.2896 57.4082C52.4863 57.3726 52.6667 57.2756 52.8047 57.131C53.6922 56.2513 54.5711 55.3631 55.4585 54.4834C55.7776 54.1674 55.9197 53.808 55.7373 53.3801C55.5548 52.9523 55.2031 52.8064 54.7528 52.8071C51.7403 52.8118 48.7275 52.8118 45.7145 52.8071C45.0731 52.8071 44.65 53.1829 44.6539 53.7443C44.6577 54.3056 45.084 54.6667 45.7292 54.6674H52.6463V54.669Z" fill="white"/>
<path d="M54.044 37.0691C54.4003 37.3082 54.8025 37.5 55.1046 37.7943C56.6457 39.2943 58.1621 40.8223 59.6854 42.3387C60.01 42.6619 60.2431 43.0653 60.3609 43.5079H55.0238C54.31 43.5079 53.9531 43.1503 53.9531 42.4349C53.9531 40.7594 53.9531 39.0836 53.9531 37.4076V37.1483L54.044 37.0691Z" fill="white"/>
</g>
</svg>
