<svg width="100" height="156" viewBox="0 0 100 156" fill="none" xmlns="http://www.w3.org/2000/svg">
<g opacity="0.3">
<rect width="100" height="156" rx="19" fill="#F9FBFF"/>
<path d="M30.2941 109.34V119H28.5441V109.34H30.2941ZM33.2901 109.34V110.768H25.5481V109.34H33.2901ZM33.8328 112.126L34.0568 113.47L34.2108 113.666V119H32.5168V112.126H33.8328ZM37.1928 111.958L37.0248 113.526H36.5348C36.1708 113.526 35.8022 113.587 35.4288 113.708C35.0555 113.829 34.5888 114.011 34.0288 114.254L33.9168 113.26C34.4022 112.849 34.8968 112.532 35.4008 112.308C35.9048 112.075 36.3902 111.958 36.8568 111.958H37.1928ZM40.9317 111.958C41.4824 111.958 41.9444 112.033 42.3177 112.182C42.7004 112.322 42.9897 112.565 43.1857 112.91C43.3817 113.255 43.4797 113.731 43.4797 114.338V119H42.1357L41.8977 117.516L41.7717 117.32V114.324C41.7717 113.96 41.6877 113.699 41.5197 113.54C41.3517 113.372 41.0297 113.288 40.5537 113.288C40.1991 113.288 39.7511 113.302 39.2097 113.33C38.6777 113.358 38.1411 113.395 37.5997 113.442L37.4457 112.28C37.7724 112.215 38.1411 112.159 38.5517 112.112C38.9624 112.065 39.3777 112.028 39.7977 112C40.2177 111.972 40.5957 111.958 40.9317 111.958ZM42.7517 114.772L42.7377 115.822H39.5877C39.3077 115.831 39.1071 115.906 38.9857 116.046C38.8644 116.186 38.8037 116.377 38.8037 116.62V116.998C38.8037 117.278 38.8784 117.493 39.0277 117.642C39.1771 117.782 39.4104 117.852 39.7277 117.852C39.9797 117.852 40.2597 117.801 40.5677 117.698C40.8757 117.595 41.1791 117.446 41.4777 117.25C41.7857 117.054 42.0611 116.821 42.3037 116.55V117.432C42.2104 117.572 42.0751 117.74 41.8977 117.936C41.7204 118.123 41.5011 118.309 41.2397 118.496C40.9877 118.683 40.6937 118.837 40.3577 118.958C40.0311 119.079 39.6671 119.14 39.2657 119.14C38.8551 119.14 38.4864 119.07 38.1597 118.93C37.8331 118.781 37.5764 118.566 37.3897 118.286C37.2031 117.997 37.1097 117.642 37.1097 117.222V116.494C37.1097 115.953 37.2871 115.533 37.6417 115.234C38.0057 114.926 38.5004 114.772 39.1257 114.772H42.7517ZM49.0034 111.958C50.282 111.958 50.9214 112.588 50.9214 113.848V119H49.2274V114.366C49.2274 113.993 49.162 113.736 49.0314 113.596C48.9007 113.456 48.6814 113.386 48.3734 113.386C48.028 113.386 47.6734 113.465 47.3094 113.624C46.9454 113.773 46.5067 113.993 45.9934 114.282L45.9234 113.26C46.4274 112.84 46.9407 112.518 47.4634 112.294C47.986 112.07 48.4994 111.958 49.0034 111.958ZM45.8674 112.126L46.0354 113.47L46.1754 113.666V119H44.4814V112.126H45.8674ZM54.4182 111.958C54.7355 111.958 55.0762 111.967 55.4402 111.986C55.8135 112.005 56.1775 112.033 56.5322 112.07C56.8869 112.098 57.2042 112.14 57.4842 112.196L57.3722 113.302C56.9242 113.293 56.4762 113.283 56.0282 113.274C55.5895 113.255 55.1555 113.246 54.7262 113.246C54.3435 113.246 54.0402 113.255 53.8162 113.274C53.6015 113.293 53.4475 113.349 53.3542 113.442C53.2702 113.535 53.2282 113.694 53.2282 113.918C53.2282 114.189 53.3029 114.371 53.4522 114.464C53.6015 114.548 53.8442 114.632 54.1802 114.716L56.0562 115.15C56.6162 115.29 57.0315 115.505 57.3022 115.794C57.5729 116.074 57.7082 116.508 57.7082 117.096C57.7082 117.665 57.6009 118.099 57.3862 118.398C57.1809 118.687 56.8495 118.888 56.3922 119C55.9442 119.103 55.3702 119.154 54.6702 119.154C54.3995 119.154 53.9982 119.14 53.4662 119.112C52.9342 119.093 52.3509 119.033 51.7162 118.93L51.8282 117.824C52.0149 117.824 52.2342 117.829 52.4862 117.838C52.7475 117.847 53.0229 117.852 53.3122 117.852C53.6109 117.852 53.9142 117.852 54.2222 117.852C54.7169 117.852 55.0949 117.838 55.3562 117.81C55.6269 117.773 55.8135 117.703 55.9162 117.6C56.0189 117.488 56.0702 117.329 56.0702 117.124C56.0702 116.863 55.9815 116.69 55.8042 116.606C55.6362 116.513 55.3842 116.424 55.0482 116.34L53.2142 115.892C52.7942 115.78 52.4675 115.64 52.2342 115.472C52.0009 115.295 51.8329 115.08 51.7302 114.828C51.6275 114.567 51.5762 114.249 51.5762 113.876C51.5762 113.372 51.6695 112.98 51.8562 112.7C52.0522 112.42 52.3555 112.224 52.7662 112.112C53.1862 112 53.7369 111.949 54.4182 111.958ZM61.131 108.934C61.2896 108.934 61.495 108.939 61.747 108.948C62.0083 108.957 62.2743 108.971 62.545 108.99C62.8156 108.999 63.0443 109.023 63.231 109.06L63.091 110.194H61.733C61.341 110.194 61.0656 110.273 60.907 110.432C60.7483 110.591 60.669 110.857 60.669 111.23V119H58.975V111.02C58.975 110.581 59.045 110.208 59.185 109.9C59.325 109.592 59.5536 109.354 59.871 109.186C60.1883 109.018 60.6083 108.934 61.131 108.934ZM62.713 112.126V113.302H57.757V112.196L59.031 112.126H62.713ZM66.041 111.958C67.1517 111.958 67.9497 112.154 68.435 112.546C68.9204 112.929 69.1677 113.498 69.177 114.254C69.1864 114.879 69.037 115.355 68.729 115.682C68.4304 115.999 67.931 116.158 67.231 116.158H63.311V115.108H66.769C67.0864 115.108 67.287 115.024 67.371 114.856C67.4644 114.688 67.511 114.483 67.511 114.24C67.5017 113.857 67.3897 113.591 67.175 113.442C66.9697 113.293 66.615 113.218 66.111 113.218C65.6724 113.218 65.3317 113.279 65.089 113.4C64.8464 113.521 64.6737 113.741 64.571 114.058C64.4777 114.375 64.431 114.833 64.431 115.43C64.431 116.065 64.4917 116.555 64.613 116.9C64.7344 117.245 64.935 117.483 65.215 117.614C65.495 117.735 65.8684 117.796 66.335 117.796C66.6804 117.796 67.077 117.782 67.525 117.754C67.9824 117.726 68.421 117.689 68.841 117.642L69.009 118.72C68.757 118.823 68.4677 118.907 68.141 118.972C67.8144 119.037 67.4737 119.084 67.119 119.112C66.7737 119.149 66.447 119.168 66.139 119.168C65.299 119.168 64.6224 119.047 64.109 118.804C63.605 118.552 63.2364 118.16 63.003 117.628C62.779 117.096 62.667 116.41 62.667 115.57C62.667 114.665 62.779 113.951 63.003 113.428C63.2364 112.896 63.6004 112.518 64.095 112.294C64.599 112.07 65.2477 111.958 66.041 111.958ZM71.1757 112.126L71.3997 113.47L71.5537 113.666V119H69.8597V112.126H71.1757ZM74.5357 111.958L74.3677 113.526H73.8777C73.5137 113.526 73.145 113.587 72.7717 113.708C72.3983 113.829 71.9317 114.011 71.3717 114.254L71.2597 113.26C71.745 112.849 72.2397 112.532 72.7437 112.308C73.2477 112.075 73.733 111.958 74.1997 111.958H74.5357ZM29.8883 127.158C30.3643 127.167 30.8637 127.195 31.3863 127.242C31.9183 127.289 32.4363 127.377 32.9403 127.508L32.8283 128.698C32.427 128.689 31.9603 128.679 31.4283 128.67C30.9057 128.651 30.4017 128.642 29.9163 128.642C29.6177 128.642 29.361 128.651 29.1463 128.67C28.941 128.689 28.773 128.735 28.6423 128.81C28.5117 128.885 28.4137 129.001 28.3483 129.16C28.2923 129.309 28.2643 129.519 28.2643 129.79C28.2643 130.21 28.3483 130.509 28.5163 130.686C28.6937 130.863 28.9783 131.003 29.3703 131.106L31.2743 131.666C32.0397 131.899 32.567 132.24 32.8563 132.688C33.1457 133.127 33.2903 133.715 33.2903 134.452C33.2903 135.003 33.225 135.455 33.0943 135.81C32.9637 136.165 32.763 136.44 32.4923 136.636C32.2217 136.832 31.867 136.972 31.4283 137.056C30.9897 137.14 30.4623 137.182 29.8463 137.182C29.529 137.182 29.0903 137.163 28.5303 137.126C27.9797 137.089 27.3497 136.995 26.6403 136.846L26.7523 135.586C27.303 135.605 27.765 135.623 28.1383 135.642C28.5117 135.651 28.8337 135.656 29.1043 135.656C29.375 135.656 29.627 135.656 29.8603 135.656C30.2897 135.656 30.6257 135.628 30.8683 135.572C31.111 135.516 31.279 135.399 31.3723 135.222C31.475 135.045 31.5263 134.788 31.5263 134.452C31.5263 134.163 31.489 133.939 31.4143 133.78C31.349 133.612 31.237 133.481 31.0783 133.388C30.9197 133.295 30.7143 133.215 30.4623 133.15L28.4883 132.548C27.7603 132.324 27.247 131.993 26.9483 131.554C26.659 131.115 26.5143 130.527 26.5143 129.79C26.5143 129.239 26.5797 128.791 26.7103 128.446C26.841 128.091 27.0417 127.825 27.3123 127.648C27.583 127.461 27.9283 127.335 28.3483 127.27C28.7777 127.195 29.291 127.158 29.8883 127.158ZM37.0731 129.958C38.1837 129.958 38.9817 130.154 39.4671 130.546C39.9524 130.929 40.1997 131.498 40.2091 132.254C40.2184 132.879 40.0691 133.355 39.7611 133.682C39.4624 133.999 38.9631 134.158 38.2631 134.158H34.3431V133.108H37.8011C38.1184 133.108 38.3191 133.024 38.4031 132.856C38.4964 132.688 38.5431 132.483 38.5431 132.24C38.5337 131.857 38.4217 131.591 38.2071 131.442C38.0017 131.293 37.6471 131.218 37.1431 131.218C36.7044 131.218 36.3637 131.279 36.1211 131.4C35.8784 131.521 35.7057 131.741 35.6031 132.058C35.5097 132.375 35.4631 132.833 35.4631 133.43C35.4631 134.065 35.5237 134.555 35.6451 134.9C35.7664 135.245 35.9671 135.483 36.2471 135.614C36.5271 135.735 36.9004 135.796 37.3671 135.796C37.7124 135.796 38.1091 135.782 38.5571 135.754C39.0144 135.726 39.4531 135.689 39.8731 135.642L40.0411 136.72C39.7891 136.823 39.4997 136.907 39.1731 136.972C38.8464 137.037 38.5057 137.084 38.1511 137.112C37.8057 137.149 37.4791 137.168 37.1711 137.168C36.3311 137.168 35.6544 137.047 35.1411 136.804C34.6371 136.552 34.2684 136.16 34.0351 135.628C33.8111 135.096 33.6991 134.41 33.6991 133.57C33.6991 132.665 33.8111 131.951 34.0351 131.428C34.2684 130.896 34.6324 130.518 35.1271 130.294C35.6311 130.07 36.2797 129.958 37.0731 129.958ZM43.1597 128.166V134.928C43.1597 135.217 43.2204 135.423 43.3417 135.544C43.4724 135.665 43.6917 135.726 43.9997 135.726H44.9517L45.1337 136.916C44.975 136.963 44.7837 137.005 44.5597 137.042C44.3357 137.079 44.1164 137.103 43.9017 137.112C43.687 137.131 43.505 137.14 43.3557 137.14C42.7584 137.14 42.2917 136.981 41.9557 136.664C41.629 136.337 41.4657 135.871 41.4657 135.264V128.166H43.1597ZM45.2037 130.126V131.302H40.2477V130.196L41.5917 130.126H45.2037ZM47.8841 128.166V134.928C47.8841 135.217 47.9448 135.423 48.0661 135.544C48.1968 135.665 48.4161 135.726 48.7241 135.726H49.6761L49.8581 136.916C49.6995 136.963 49.5081 137.005 49.2841 137.042C49.0601 137.079 48.8408 137.103 48.6261 137.112C48.4115 137.131 48.2295 137.14 48.0801 137.14C47.4828 137.14 47.0161 136.981 46.6801 136.664C46.3535 136.337 46.1901 135.871 46.1901 135.264V128.166H47.8841ZM49.9281 130.126V131.302H44.9721V130.196L46.3161 130.126H49.9281ZM52.0766 130.126V137H50.3966V130.126H52.0766ZM51.6146 127.144C51.9506 127.144 52.1186 127.312 52.1186 127.648V128.432C52.1186 128.768 51.9506 128.936 51.6146 128.936H50.8586C50.5226 128.936 50.3546 128.768 50.3546 128.432V127.648C50.3546 127.312 50.5226 127.144 50.8586 127.144H51.6146ZM57.714 129.958C58.9927 129.958 59.632 130.588 59.632 131.848V137H57.938V132.366C57.938 131.993 57.8727 131.736 57.742 131.596C57.6113 131.456 57.392 131.386 57.084 131.386C56.7387 131.386 56.384 131.465 56.02 131.624C55.656 131.773 55.2173 131.993 54.704 132.282L54.634 131.26C55.138 130.84 55.6513 130.518 56.174 130.294C56.6967 130.07 57.21 129.958 57.714 129.958ZM54.578 130.126L54.746 131.47L54.886 131.666V137H53.192V130.126H54.578ZM63.5628 129.958C64.3375 129.958 64.9488 130.033 65.3968 130.182C65.8542 130.322 66.1808 130.555 66.3768 130.882C66.5728 131.199 66.6708 131.619 66.6708 132.142C66.6708 132.646 66.5728 133.061 66.3768 133.388C66.1808 133.705 65.8542 133.939 65.3968 134.088C64.9395 134.237 64.3235 134.312 63.5488 134.312C62.7742 134.312 62.1582 134.237 61.7008 134.088C61.2528 133.939 60.9262 133.705 60.7208 133.388C60.5248 133.071 60.4268 132.655 60.4268 132.142C60.4268 131.619 60.5248 131.199 60.7208 130.882C60.9262 130.555 61.2575 130.322 61.7148 130.182C62.1722 130.033 62.7882 129.958 63.5628 129.958ZM63.5488 131.064C62.9608 131.064 62.5548 131.143 62.3308 131.302C62.1068 131.461 61.9948 131.741 61.9948 132.142C61.9948 132.525 62.1068 132.8 62.3308 132.968C62.5548 133.127 62.9608 133.206 63.5488 133.206C64.1368 133.206 64.5382 133.127 64.7528 132.968C64.9768 132.8 65.0888 132.525 65.0888 132.142C65.0888 131.741 64.9768 131.461 64.7528 131.302C64.5382 131.143 64.1368 131.064 63.5488 131.064ZM67.4688 130.126L67.3708 130.91L65.5788 131.106L65.0748 130.126H67.4688ZM61.5468 133.892L62.4148 134.018C62.2748 134.13 62.1768 134.275 62.1208 134.452C62.0742 134.62 62.0882 134.783 62.1628 134.942C62.2468 135.091 62.4242 135.185 62.6948 135.222L65.2428 135.558C65.9335 135.642 66.4188 135.847 66.6988 136.174C66.9788 136.491 67.1188 136.953 67.1188 137.56C67.1188 138.129 67.0068 138.573 66.7828 138.89C66.5588 139.207 66.1902 139.427 65.6768 139.548C65.1728 139.679 64.4915 139.744 63.6328 139.744C62.9515 139.744 62.3868 139.707 61.9388 139.632C61.4908 139.567 61.1315 139.45 60.8608 139.282C60.5995 139.123 60.4128 138.913 60.3008 138.652C60.1888 138.4 60.1328 138.083 60.1328 137.7C60.1328 137.401 60.1795 137.149 60.2728 136.944C60.3755 136.739 60.5388 136.557 60.7628 136.398C60.9868 136.23 61.2902 136.076 61.6728 135.936L62.6248 135.53L63.2828 135.768L62.6668 136.202C62.4522 136.361 62.2748 136.505 62.1348 136.636C62.0042 136.757 61.9062 136.879 61.8408 137C61.7848 137.131 61.7568 137.294 61.7568 137.49C61.7568 137.751 61.8082 137.952 61.9108 138.092C62.0228 138.232 62.2142 138.325 62.4848 138.372C62.7555 138.428 63.1335 138.456 63.6188 138.456C64.1135 138.456 64.4962 138.428 64.7668 138.372C65.0375 138.325 65.2242 138.232 65.3268 138.092C65.4388 137.961 65.4948 137.77 65.4948 137.518C65.4948 137.313 65.4622 137.159 65.3968 137.056C65.3315 136.963 65.2148 136.888 65.0468 136.832C64.8788 136.776 64.6455 136.729 64.3468 136.692L62.0508 136.412C61.7242 136.375 61.4628 136.281 61.2668 136.132C61.0802 135.973 60.9495 135.787 60.8748 135.572C60.8002 135.348 60.7768 135.129 60.8048 134.914C60.8422 134.69 60.9215 134.485 61.0428 134.298C61.1735 134.111 61.3415 133.976 61.5468 133.892ZM70.2869 129.958C70.6042 129.958 70.9449 129.967 71.3089 129.986C71.6822 130.005 72.0462 130.033 72.4009 130.07C72.7555 130.098 73.0729 130.14 73.3529 130.196L73.2409 131.302C72.7929 131.293 72.3449 131.283 71.8969 131.274C71.4582 131.255 71.0242 131.246 70.5949 131.246C70.2122 131.246 69.9089 131.255 69.6849 131.274C69.4702 131.293 69.3162 131.349 69.2229 131.442C69.1389 131.535 69.0969 131.694 69.0969 131.918C69.0969 132.189 69.1715 132.371 69.3209 132.464C69.4702 132.548 69.7129 132.632 70.0489 132.716L71.9249 133.15C72.4849 133.29 72.9002 133.505 73.1709 133.794C73.4415 134.074 73.5769 134.508 73.5769 135.096C73.5769 135.665 73.4695 136.099 73.2549 136.398C73.0495 136.687 72.7182 136.888 72.2609 137C71.8129 137.103 71.2389 137.154 70.5389 137.154C70.2682 137.154 69.8669 137.14 69.3349 137.112C68.8029 137.093 68.2195 137.033 67.5849 136.93L67.6969 135.824C67.8835 135.824 68.1029 135.829 68.3549 135.838C68.6162 135.847 68.8915 135.852 69.1809 135.852C69.4795 135.852 69.7829 135.852 70.0909 135.852C70.5855 135.852 70.9635 135.838 71.2249 135.81C71.4955 135.773 71.6822 135.703 71.7849 135.6C71.8875 135.488 71.9389 135.329 71.9389 135.124C71.9389 134.863 71.8502 134.69 71.6729 134.606C71.5049 134.513 71.2529 134.424 70.9169 134.34L69.0829 133.892C68.6629 133.78 68.3362 133.64 68.1029 133.472C67.8695 133.295 67.7015 133.08 67.5989 132.828C67.4962 132.567 67.4449 132.249 67.4449 131.876C67.4449 131.372 67.5382 130.98 67.7249 130.7C67.9209 130.42 68.2242 130.224 68.6349 130.112C69.0549 130 69.6055 129.949 70.2869 129.958Z" fill="#333839"/>
<path d="M90.3994 53.6045L53.7439 90.2501" stroke="white" stroke-width="6.29" stroke-miterlimit="10"/>
<path d="M90.3994 53.6045L53.7439 90.2501" stroke="#BD6C57" stroke-width="3.42" stroke-miterlimit="10"/>
<path d="M8.6601 52.6616L6 50.0016L45.9905 10.0012" stroke="white" stroke-width="6.29" stroke-miterlimit="10"/>
<path d="M8.6601 52.6616L6 50.0016L45.9905 10.0012" stroke="#BD6C57" stroke-width="3.42" stroke-miterlimit="10"/>
<path d="M68.6358 87.9313H31.3153L12 68.6358V31.3153L31.3153 12H68.6358L87.9512 31.3153V68.6358L68.6358 87.9313Z" fill="#BD6C57"/>
<path d="M53.742 90.2506L50.0001 94.0025L8.65967 52.6621" stroke="white" stroke-width="6.29" stroke-miterlimit="10"/>
<path d="M53.742 90.2506L50.0001 94.0025L8.65967 52.6621" stroke="#BD6C57" stroke-width="3.42" stroke-miterlimit="10"/>
<path d="M45.9895 10L49.9995 6L93.9999 50.0004L90.3969 53.6034" stroke="white" stroke-width="6.29" stroke-miterlimit="10"/>
<path d="M45.9895 10L49.9995 6L93.9999 50.0004L90.3969 53.6034" stroke="#BD6C57" stroke-width="3.42" stroke-miterlimit="10"/>
<path d="M50 36C51.2517 36 52.4508 36.2837 53.2408 37.1828C54.0308 38.082 54.0562 39.0407 54.1019 39.624C54.1476 40.2073 54.1856 40.5704 54.2738 40.7953C54.362 41.0202 54.4347 41.192 54.9864 41.5111C55.538 41.8301 55.7228 41.8071 55.9613 41.7711C56.1998 41.7352 56.5326 41.5868 57.0598 41.3348C57.5869 41.0828 58.4287 40.6254 59.601 40.8611C60.7734 41.0969 61.6182 41.9952 62.2441 43.0811C62.87 44.167 63.2242 45.3491 62.8418 46.484C62.4594 47.6189 61.6432 48.1204 61.1618 48.4518C60.6803 48.7831 60.3856 48.9975 60.2352 49.1864C60.0849 49.3754 59.9726 49.5243 59.9726 50.1624C59.9726 50.8005 60.0849 50.9494 60.2352 51.1383C60.3856 51.3273 60.6803 51.5417 61.1618 51.873C61.6432 52.2043 62.4594 52.7058 62.8418 53.8408C63.2242 54.9757 62.87 56.1577 62.2441 57.2437C61.6182 58.3296 60.7734 59.2279 59.601 59.4636C58.4287 59.6994 57.5869 59.242 57.0598 58.99C56.5326 58.738 56.1998 58.5896 55.9613 58.5536C55.7228 58.5177 55.538 58.4947 54.9864 58.8137C54.4347 59.1327 54.362 59.3046 54.2738 59.5295C54.1856 59.7544 54.1476 60.1175 54.1019 60.7008C54.0562 61.2841 54.0308 62.2428 53.2408 63.1419C52.4508 64.0411 51.2517 64.3248 50 64.3248C48.7482 64.3248 47.5491 64.0411 46.7591 63.1419C45.9691 62.2428 45.9438 61.2841 45.8981 60.7008C45.8524 60.1175 45.8143 59.7544 45.7261 59.5295C45.6379 59.3046 45.5652 59.1327 45.0136 58.8137C44.4619 58.4947 44.2772 58.5177 44.0386 58.5536C43.8001 58.5896 43.4673 58.738 42.9402 58.99C42.413 59.242 41.5713 59.6994 40.3989 59.4636C39.2265 59.2279 38.3817 58.3296 37.7558 57.2437C37.1299 56.1577 36.7758 54.9757 37.1582 53.8408C37.5405 52.7058 38.3567 52.2043 38.8382 51.873C39.3196 51.5417 39.6143 51.3273 39.7647 51.1383C39.9151 50.9494 40.0274 50.8005 40.0274 50.1624C40.0274 49.5243 39.9151 49.3754 39.7647 49.1864C39.6143 48.9975 39.3196 48.7831 38.8382 48.4518C38.3567 48.1204 37.5405 47.6189 37.1582 46.484C36.7758 45.3491 37.1299 44.167 37.7558 43.0811C38.3817 41.9952 39.2265 41.0969 40.3989 40.8611C41.5713 40.6254 42.413 41.0828 42.9402 41.3348C43.4673 41.5868 43.8001 41.7352 44.0386 41.7711C44.2772 41.8071 44.4619 41.8301 45.0136 41.5111C45.5652 41.192 45.6379 41.0202 45.7261 40.7953C45.8143 40.5704 45.8524 40.2073 45.8981 39.624C45.9438 39.0407 45.9691 38.082 46.7591 37.1828C47.5491 36.2837 48.7482 36 50 36ZM49.9989 44.0251C46.5909 44.0251 43.8627 46.7528 43.8627 50.1624C43.8627 53.572 46.5909 56.2996 49.9989 56.2996C53.4068 56.2996 56.135 53.572 56.135 50.1624C56.135 46.7528 53.4068 44.0251 49.9989 44.0251Z" fill="white"/>
<path d="M49.9999 46.3867C52.0682 46.3867 53.7761 48.0957 53.7761 50.1624C53.7761 52.2292 52.0682 53.9381 49.9999 53.9381C47.9316 53.9381 46.2237 52.2292 46.2237 50.1624C46.2237 48.0957 47.9316 46.3867 49.9999 46.3867Z" fill="white"/>
</g>
</svg>
