<svg width="92" height="156" viewBox="0 0 92 156" fill="none" xmlns="http://www.w3.org/2000/svg">
<path d="M21.4533 109.231C22.2746 109.231 22.9279 109.305 23.4133 109.455C23.8986 109.595 24.2486 109.847 24.4633 110.211C24.6873 110.575 24.7993 111.088 24.7993 111.751C24.7993 112.441 24.6686 112.969 24.4073 113.333C24.1459 113.697 23.7166 113.907 23.1193 113.963V114.019C23.8566 114.084 24.3699 114.336 24.6593 114.775C24.9579 115.213 25.1073 115.82 25.1073 116.595C25.1073 117.257 24.9953 117.771 24.7713 118.135C24.5566 118.499 24.2113 118.755 23.7353 118.905C23.2686 119.045 22.6573 119.115 21.9013 119.115C21.3133 119.115 20.7999 119.11 20.3613 119.101C19.9226 119.101 19.5213 119.091 19.1573 119.073C18.7933 119.054 18.4153 119.031 18.0233 119.003L18.2193 117.729C18.4433 117.738 18.8586 117.747 19.4653 117.757C20.0719 117.766 20.7859 117.771 21.6073 117.771C22.0459 117.771 22.3913 117.733 22.6433 117.659C22.8953 117.575 23.0726 117.425 23.1753 117.211C23.2873 116.987 23.3433 116.674 23.3433 116.273C23.3433 115.825 23.2873 115.484 23.1753 115.251C23.0633 115.008 22.8766 114.84 22.6153 114.747C22.3633 114.644 22.0039 114.593 21.5373 114.593H18.2053V113.403H21.5233C21.9246 113.403 22.2373 113.365 22.4613 113.291C22.6946 113.207 22.8626 113.062 22.9653 112.857C23.0679 112.651 23.1193 112.357 23.1193 111.975C23.1193 111.592 23.0633 111.298 22.9513 111.093C22.8486 110.887 22.6713 110.752 22.4193 110.687C22.1673 110.612 21.8173 110.575 21.3693 110.575C20.8746 110.575 20.4359 110.575 20.0533 110.575C19.6706 110.575 19.3299 110.579 19.0313 110.589C18.7326 110.589 18.4619 110.598 18.2193 110.617L18.0233 109.343C18.3779 109.305 18.7139 109.282 19.0313 109.273C19.3579 109.254 19.7126 109.245 20.0953 109.245C20.4873 109.235 20.9399 109.231 21.4533 109.231ZM19.7313 109.343V119.003H18.0233V109.343H19.7313ZM30.621 111.961C31.1717 111.961 31.6337 112.035 32.007 112.185C32.3897 112.325 32.679 112.567 32.875 112.913C33.071 113.258 33.169 113.734 33.169 114.341V119.003H31.825L31.587 117.519L31.461 117.323V114.327C31.461 113.963 31.377 113.701 31.209 113.543C31.041 113.375 30.719 113.291 30.243 113.291C29.8883 113.291 29.4403 113.305 28.899 113.333C28.367 113.361 27.8303 113.398 27.289 113.445L27.135 112.283C27.4616 112.217 27.8303 112.161 28.241 112.115C28.6517 112.068 29.067 112.031 29.487 112.003C29.907 111.975 30.285 111.961 30.621 111.961ZM32.441 114.775L32.427 115.825H29.277C28.997 115.834 28.7963 115.909 28.675 116.049C28.5537 116.189 28.493 116.38 28.493 116.623V117.001C28.493 117.281 28.5676 117.495 28.717 117.645C28.8663 117.785 29.0997 117.855 29.417 117.855C29.669 117.855 29.949 117.803 30.257 117.701C30.565 117.598 30.8683 117.449 31.167 117.253C31.475 117.057 31.7503 116.823 31.993 116.553V117.435C31.8997 117.575 31.7643 117.743 31.587 117.939C31.4097 118.125 31.1903 118.312 30.929 118.499C30.677 118.685 30.383 118.839 30.047 118.961C29.7203 119.082 29.3563 119.143 28.955 119.143C28.5443 119.143 28.1757 119.073 27.849 118.933C27.5223 118.783 27.2656 118.569 27.079 118.289C26.8923 117.999 26.799 117.645 26.799 117.225V116.497C26.799 115.955 26.9763 115.535 27.331 115.237C27.695 114.929 28.1896 114.775 28.815 114.775H32.441ZM37.1386 109.203L37.1246 116.931C37.1246 117.192 37.1993 117.393 37.3486 117.533C37.498 117.663 37.7126 117.729 37.9926 117.729H38.5946L38.7906 118.919C38.688 118.965 38.5433 119.007 38.3566 119.045C38.1793 119.082 37.9926 119.105 37.7966 119.115C37.61 119.133 37.4466 119.143 37.3066 119.143C36.7373 119.143 36.2846 118.989 35.9486 118.681C35.6126 118.373 35.4446 117.929 35.4446 117.351V109.203H37.1386ZM43.7247 111.961C44.2753 111.961 44.7373 112.035 45.1107 112.185C45.4933 112.325 45.7827 112.567 45.9787 112.913C46.1747 113.258 46.2727 113.734 46.2727 114.341V119.003H44.9287L44.6907 117.519L44.5647 117.323V114.327C44.5647 113.963 44.4807 113.701 44.3127 113.543C44.1447 113.375 43.8227 113.291 43.3467 113.291C42.992 113.291 42.544 113.305 42.0027 113.333C41.4707 113.361 40.934 113.398 40.3927 113.445L40.2387 112.283C40.5653 112.217 40.934 112.161 41.3447 112.115C41.7553 112.068 42.1707 112.031 42.5907 112.003C43.0107 111.975 43.3887 111.961 43.7247 111.961ZM45.5447 114.775L45.5307 115.825H42.3807C42.1007 115.834 41.9 115.909 41.7787 116.049C41.6573 116.189 41.5967 116.38 41.5967 116.623V117.001C41.5967 117.281 41.6713 117.495 41.8207 117.645C41.97 117.785 42.2033 117.855 42.5207 117.855C42.7727 117.855 43.0527 117.803 43.3607 117.701C43.6687 117.598 43.972 117.449 44.2707 117.253C44.5787 117.057 44.854 116.823 45.0967 116.553V117.435C45.0033 117.575 44.868 117.743 44.6907 117.939C44.5133 118.125 44.294 118.312 44.0327 118.499C43.7807 118.685 43.4867 118.839 43.1507 118.961C42.824 119.082 42.46 119.143 42.0587 119.143C41.648 119.143 41.2793 119.073 40.9527 118.933C40.626 118.783 40.3693 118.569 40.1827 118.289C39.996 117.999 39.9027 117.645 39.9027 117.225V116.497C39.9027 115.955 40.08 115.535 40.4347 115.237C40.7987 114.929 41.2933 114.775 41.9187 114.775H45.5447ZM53.0563 111.961C54.335 111.961 54.9743 112.591 54.9743 113.851V119.003H53.2803V114.369C53.2803 113.995 53.215 113.739 53.0843 113.599C52.9536 113.459 52.7343 113.389 52.4263 113.389C52.081 113.389 51.7263 113.468 51.3623 113.627C50.9983 113.776 50.5596 113.995 50.0463 114.285L49.9763 113.263C50.4803 112.843 50.9936 112.521 51.5163 112.297C52.039 112.073 52.5523 111.961 53.0563 111.961ZM49.9203 112.129L50.0883 113.473L50.2283 113.669V119.003H48.5343V112.129H49.9203ZM60.3331 111.961C60.5665 111.961 60.8231 111.97 61.1031 111.989C61.3831 112.007 61.6678 112.045 61.9571 112.101C62.2465 112.157 62.5078 112.236 62.7411 112.339L62.5451 113.403C62.1998 113.384 61.8545 113.37 61.5091 113.361C61.1731 113.351 60.8791 113.347 60.6271 113.347C60.1511 113.347 59.7731 113.412 59.4931 113.543C59.2225 113.664 59.0265 113.888 58.9051 114.215C58.7838 114.532 58.7231 114.98 58.7231 115.559C58.7231 116.137 58.7838 116.59 58.9051 116.917C59.0265 117.234 59.2225 117.458 59.4931 117.589C59.7731 117.719 60.1511 117.785 60.6271 117.785C60.7671 117.785 60.9491 117.78 61.1731 117.771C61.4065 117.761 61.6538 117.747 61.9151 117.729C62.1858 117.71 62.4471 117.687 62.6991 117.659L62.8671 118.751C62.5031 118.9 62.0971 119.007 61.6491 119.073C61.2011 119.138 60.7578 119.171 60.3191 119.171C59.4978 119.171 58.8398 119.054 58.3451 118.821C57.8505 118.587 57.4911 118.209 57.2671 117.687C57.0525 117.155 56.9451 116.445 56.9451 115.559C56.9451 114.672 57.0571 113.967 57.2811 113.445C57.5051 112.913 57.8645 112.535 58.3591 112.311C58.8538 112.077 59.5118 111.961 60.3331 111.961ZM67.6434 111.961C68.7541 111.961 69.5521 112.157 70.0374 112.549C70.5228 112.931 70.7701 113.501 70.7794 114.257C70.7888 114.882 70.6394 115.358 70.3314 115.685C70.0328 116.002 69.5334 116.161 68.8334 116.161H64.9134V115.111H68.3714C68.6888 115.111 68.8894 115.027 68.9734 114.859C69.0668 114.691 69.1134 114.485 69.1134 114.243C69.1041 113.86 68.9921 113.594 68.7774 113.445C68.5721 113.295 68.2174 113.221 67.7134 113.221C67.2748 113.221 66.9341 113.281 66.6914 113.403C66.4488 113.524 66.2761 113.743 66.1734 114.061C66.0801 114.378 66.0334 114.835 66.0334 115.433C66.0334 116.067 66.0941 116.557 66.2154 116.903C66.3368 117.248 66.5374 117.486 66.8174 117.617C67.0974 117.738 67.4708 117.799 67.9374 117.799C68.2828 117.799 68.6794 117.785 69.1274 117.757C69.5848 117.729 70.0234 117.691 70.4434 117.645L70.6114 118.723C70.3594 118.825 70.0701 118.909 69.7434 118.975C69.4168 119.04 69.0761 119.087 68.7214 119.115C68.3761 119.152 68.0494 119.171 67.7414 119.171C66.9014 119.171 66.2248 119.049 65.7114 118.807C65.2074 118.555 64.8388 118.163 64.6054 117.631C64.3814 117.099 64.2694 116.413 64.2694 115.573C64.2694 114.667 64.3814 113.953 64.6054 113.431C64.8388 112.899 65.2028 112.521 65.6974 112.297C66.2014 112.073 66.8501 111.961 67.6434 111.961ZM30.3714 127.161C30.7541 127.161 31.1088 127.17 31.4354 127.189C31.7714 127.207 32.0888 127.24 32.3874 127.287C32.6861 127.333 32.9801 127.399 33.2694 127.483L33.1154 128.771C32.8074 128.752 32.5041 128.738 32.2054 128.729C31.9068 128.71 31.6081 128.701 31.3094 128.701C31.0201 128.691 30.7261 128.687 30.4274 128.687C29.9794 128.687 29.6014 128.733 29.2934 128.827C28.9854 128.911 28.7381 129.079 28.5514 129.331C28.3741 129.583 28.2434 129.942 28.1594 130.409C28.0754 130.875 28.0334 131.477 28.0334 132.215C28.0334 133.083 28.0894 133.769 28.2014 134.273C28.3228 134.767 28.5188 135.127 28.7894 135.351C29.0601 135.565 29.4241 135.673 29.8814 135.673C30.1894 135.673 30.4741 135.635 30.7354 135.561C30.9968 135.486 31.2348 135.388 31.4494 135.267C31.6734 135.136 31.8834 135.005 32.0794 134.875L32.2894 135.785C32.1401 135.971 31.9208 136.177 31.6314 136.401C31.3514 136.615 31.0154 136.802 30.6234 136.961C30.2314 137.11 29.7881 137.185 29.2934 137.185C28.5654 137.185 27.9681 137.012 27.5014 136.667C27.0441 136.312 26.7081 135.766 26.4934 135.029C26.2881 134.282 26.1854 133.325 26.1854 132.159C26.1854 130.889 26.3208 129.891 26.5914 129.163C26.8621 128.435 27.3008 127.921 27.9074 127.623C28.5234 127.315 29.3448 127.161 30.3714 127.161ZM33.5774 131.431V137.003H32.2894L32.0374 135.561L31.8694 135.211V131.431H33.5774ZM37.0865 130.129L37.3105 131.473L37.4645 131.669V137.003H35.7705V130.129H37.0865ZM40.4465 129.961L40.2785 131.529H39.7885C39.4245 131.529 39.0559 131.589 38.6825 131.711C38.3092 131.832 37.8425 132.014 37.2825 132.257L37.1705 131.263C37.6559 130.852 38.1505 130.535 38.6545 130.311C39.1585 130.077 39.6439 129.961 40.1105 129.961H40.4465ZM44.986 129.961C45.826 129.961 46.4934 130.077 46.988 130.311C47.492 130.544 47.8514 130.927 48.066 131.459C48.29 131.991 48.402 132.695 48.402 133.573C48.402 134.45 48.29 135.155 48.066 135.687C47.8514 136.209 47.492 136.592 46.988 136.835C46.4934 137.068 45.826 137.185 44.986 137.185C44.1647 137.185 43.502 137.068 42.998 136.835C42.5034 136.592 42.144 136.209 41.92 135.687C41.696 135.155 41.584 134.45 41.584 133.573C41.584 132.695 41.696 131.991 41.92 131.459C42.144 130.927 42.5034 130.544 42.998 130.311C43.502 130.077 44.1647 129.961 44.986 129.961ZM44.986 131.249C44.5754 131.249 44.2487 131.319 44.006 131.459C43.7727 131.589 43.6047 131.823 43.502 132.159C43.3994 132.495 43.348 132.966 43.348 133.573C43.348 134.179 43.3994 134.651 43.502 134.987C43.6047 135.323 43.7727 135.556 44.006 135.687C44.2487 135.817 44.5754 135.883 44.986 135.883C45.406 135.883 45.7374 135.817 45.98 135.687C46.2227 135.556 46.3907 135.323 46.484 134.987C46.5867 134.651 46.638 134.179 46.638 133.573C46.638 132.966 46.5867 132.495 46.484 132.159C46.3907 131.823 46.2227 131.589 45.98 131.459C45.7374 131.319 45.406 131.249 44.986 131.249ZM52.0711 130.129V134.777C52.0618 135.122 52.1271 135.369 52.2671 135.519C52.4165 135.668 52.6545 135.743 52.9811 135.743C53.3078 135.743 53.6345 135.673 53.9611 135.533C54.2878 135.393 54.6845 135.183 55.1511 134.903L55.3191 135.911C54.7965 136.331 54.2925 136.648 53.8071 136.863C53.3218 137.077 52.8178 137.185 52.2951 137.185C51.0165 137.185 50.3771 136.555 50.3771 135.295V130.129H52.0711ZM56.6771 130.129V137.003H55.3331L55.1511 135.673L54.9831 135.477V130.129H56.6771ZM63.2712 129.961C64.1206 129.961 64.7319 130.273 65.1052 130.899C65.4786 131.524 65.6652 132.429 65.6652 133.615C65.6652 134.52 65.5672 135.234 65.3712 135.757C65.1846 136.27 64.8999 136.639 64.5172 136.863C64.1346 137.077 63.6492 137.185 63.0612 137.185C62.5946 137.185 62.1372 137.119 61.6892 136.989C61.2506 136.849 60.8446 136.634 60.4712 136.345L60.5832 135.505C60.9472 135.607 61.2739 135.696 61.5632 135.771C61.8526 135.845 62.1699 135.883 62.5152 135.883C62.8606 135.883 63.1312 135.827 63.3272 135.715C63.5326 135.593 63.6819 135.369 63.7752 135.043C63.8686 134.716 63.9152 134.245 63.9152 133.629C63.9152 133.022 63.8732 132.551 63.7892 132.215C63.7052 131.879 63.5652 131.645 63.3692 131.515C63.1826 131.375 62.9352 131.305 62.6272 131.305C62.2912 131.305 61.9739 131.379 61.6752 131.529C61.3766 131.669 61.0312 131.879 60.6392 132.159L60.4432 131.263C60.6579 131.011 60.9146 130.787 61.2132 130.591C61.5212 130.395 61.8526 130.241 62.2072 130.129C62.5619 130.017 62.9166 129.961 63.2712 129.961ZM60.3732 130.129L60.5412 131.459L60.6952 131.655V136.093L60.6252 136.261C60.6532 136.531 60.6719 136.802 60.6812 137.073C60.6906 137.353 60.6952 137.637 60.6952 137.927V139.733H59.0012V130.129H60.3732Z" fill="#429AB8"/>
<path d="M72.0191 81.1158L20.1874 81.1088" stroke="white" stroke-width="6.29" stroke-miterlimit="10"/>
<path d="M72.0191 81.1158L20.1874 81.1088" stroke="#429AB8" stroke-width="3.42" stroke-miterlimit="10"/>
<path d="M14.8871 22.6508L14.8871 18.8889L71.4492 18.8819" stroke="white" stroke-width="6.29" stroke-miterlimit="10"/>
<path d="M14.8871 22.6508L14.8871 18.8889L71.4492 18.8819" stroke="#429AB8" stroke-width="3.42" stroke-miterlimit="10"/>
<path d="M58.21 86.5127L33.8075 86.5002L9.46668 62.1594L9.45414 37.7569L33.7927 13.4183H58.2092L82.5486 37.7576L82.5486 62.1741L58.21 86.5127Z" fill="#F0FBFF" stroke="#429AB8" stroke-width="7"/>
<path d="M20.1856 81.108L14.8866 81.115L14.8866 22.6509" stroke="white" stroke-width="6.29" stroke-miterlimit="10"/>
<path d="M20.1856 81.108L14.8866 81.115L14.8866 22.6509" stroke="#429AB8" stroke-width="3.42" stroke-miterlimit="10"/>
<path d="M71.4494 18.8803L77.1133 18.8874L77.1134 81.1134L72.0179 81.1134" stroke="white" stroke-width="6.29" stroke-miterlimit="10"/>
<path d="M71.4494 18.8803L77.1133 18.8874L77.1134 81.1134L72.0179 81.1134" stroke="#429AB8" stroke-width="3.42" stroke-miterlimit="10"/>
<path d="M44.0342 63.4178C43.9855 63.3994 43.9375 63.3775 43.8881 63.3634C43.5486 63.2739 43.2488 63.0735 43.0362 62.794C42.8236 62.5146 42.7105 62.1721 42.7149 61.821C42.7093 60.5878 42.7149 59.3552 42.7149 58.122V45.3676H38.1752C38.2147 45.4615 38.2521 45.5554 38.2938 45.65C38.9623 47.1232 39.6047 48.6091 40.3127 50.0633C40.6833 50.825 40.6748 51.5782 40.4694 52.3455C40.0353 53.9691 38.4032 55.0598 36.7986 54.8424C35.0296 54.6023 33.7632 53.1926 33.7286 51.4596C33.7145 50.9859 33.8129 50.5156 34.0159 50.0873C34.7063 48.6148 35.3699 47.1288 36.0426 45.6485C36.0821 45.5617 36.1181 45.4735 36.1633 45.3662C35.9595 45.3591 35.7561 45.3412 35.5541 45.3125C35.1647 45.2407 34.8165 45.0251 34.5785 44.7085C34.3406 44.392 34.2302 43.9976 34.2694 43.6035C34.3076 43.2134 34.4895 42.8515 34.7799 42.5882C35.0702 42.3249 35.4481 42.179 35.84 42.179C37.7163 42.1712 39.5919 42.179 41.4676 42.179C41.829 42.179 42.1904 42.1691 42.5504 42.1853C42.6573 42.1948 42.7563 42.2454 42.8264 42.3265C44.8482 44.9553 48.5055 44.9553 50.5329 42.3265C50.6023 42.2448 50.7013 42.1941 50.8082 42.1853C53.0544 42.1783 55.2999 42.1733 57.5454 42.1853C57.9607 42.1896 58.3574 42.3584 58.6485 42.6547C58.9396 42.9509 59.1014 43.3505 59.0984 43.7659C59.098 44.1805 58.9352 44.5785 58.6449 44.8746C58.3546 45.1706 57.9599 45.3413 57.5454 45.3499C57.4395 45.3499 57.3336 45.3499 57.1925 45.3499C57.2412 45.465 57.2786 45.5617 57.3195 45.65C57.9887 47.1232 58.6297 48.6099 59.3391 50.0633C59.7062 50.8158 59.6984 51.5606 59.5043 52.3222C59.0928 53.9374 57.4671 55.0449 55.8512 54.8494C54.0822 54.6376 52.7876 53.2075 52.753 51.4646C52.7388 50.9908 52.8373 50.5205 53.0403 50.0923C53.73 48.6197 54.3935 47.1345 55.067 45.6535C55.1058 45.5667 55.1375 45.4784 55.1877 45.3711H50.6451V61.4772C50.6451 62.6236 50.3748 63.0218 49.3244 63.4178H48.7956C47.7473 63.0225 47.4749 62.6236 47.4749 61.48V56.8351C47.4749 56.1222 47.4805 55.4099 47.4749 54.6969C47.475 54.501 47.4023 54.3119 47.271 54.1665C47.1396 54.0211 46.959 53.9296 46.764 53.9098C46.5693 53.8919 46.3747 53.9462 46.2174 54.0624C46.0602 54.1787 45.9512 54.3488 45.9113 54.5402C45.8942 54.6442 45.888 54.7498 45.8929 54.8551C45.8929 57.1516 45.8929 59.448 45.8929 61.7441C45.8929 62.5777 45.4602 63.1474 44.666 63.3733C44.6337 63.3858 44.6023 63.4007 44.5722 63.4178H44.0342ZM35.761 50.0887H38.5691C38.1018 49.0616 37.6472 48.0607 37.165 46.999C36.6822 48.0607 36.2276 49.0616 35.761 50.0887ZM56.1872 46.9975L54.7867 50.0824H57.5885L56.1872 46.9975Z" fill="#429AB8"/>
<path d="M46.6854 36.3636C47.5267 36.3679 48.3321 36.7059 48.9246 37.3033C49.5171 37.9007 49.8484 38.7087 49.8457 39.5501C49.8398 40.3918 49.5 41.1966 48.9011 41.788C48.3022 42.3793 47.4931 42.7088 46.6515 42.7041C45.8145 42.6952 45.0147 42.3568 44.4256 41.7621C43.8365 41.1675 43.5056 40.3646 43.5045 39.5275C43.5079 38.6865 43.8446 37.8812 44.4409 37.2881C45.0372 36.6949 45.8443 36.3625 46.6854 36.3636Z" fill="#429AB8"/>
</svg>
