<svg width="248" height="48" viewBox="0 0 248 48" fill="none" xmlns="http://www.w3.org/2000/svg">
<rect width="4.98894" height="48" rx="2.49447" fill="#004B64"/>
<rect x="11.9734" width="236.027" height="48" rx="6" fill="#004B64"/>
<g clip-path="url(#clip0_548_78)">
<path d="M46.4398 24.0251C46.4398 27.1833 46.4419 30.3416 46.4387 33.4998C46.4376 34.6987 45.7593 35.6128 44.6596 35.9179C44.4335 35.9808 44.2031 36.0011 43.9684 36.0011C38.6769 36 33.3854 36.0011 28.0939 36C26.6583 36 25.6268 34.9803 25.6034 33.5372C25.5948 33.022 25.5596 32.5015 25.7463 32.0055C25.805 31.8498 25.6631 31.8839 25.613 31.8647C24.7885 31.5501 24.2477 30.973 24.0706 30.1091C23.9394 29.4702 23.932 28.8099 24.0952 28.1753C24.2968 27.3924 24.8087 26.8527 25.5639 26.5615C25.7164 26.5028 25.7527 26.4708 25.7186 26.281C25.534 25.2538 25.4199 24.2213 26.1281 23.3179C26.5911 22.727 27.2108 22.4166 27.9627 22.4049C28.7126 22.3931 29.4624 22.3942 30.2122 22.407C30.4106 22.4091 30.4416 22.3462 30.4405 22.1681C30.4352 19.6018 30.4352 17.0355 30.4373 14.4692C30.4394 13.2159 31.2415 12.2571 32.4735 12.032C32.6281 12.0043 32.7881 12.0021 32.946 12.0021C36.6034 12 40.2619 12 43.9194 12C45.4233 12 46.4376 13.0144 46.4387 14.5247C46.4408 17.6915 46.4398 20.8583 46.4398 24.0251ZM38.3175 34.399C38.4316 34.399 38.5137 34.399 38.5969 34.399C40.3547 34.399 42.1136 34.399 43.8714 34.399C44.538 34.399 44.8366 34.1046 44.8366 33.4454C44.8366 27.146 44.8366 20.8465 44.8366 14.5471C44.8366 13.9039 44.5327 13.601 43.8895 13.601C40.2651 13.601 36.6397 13.601 33.0153 13.601C32.3412 13.601 32.0404 13.9007 32.0404 14.5759C32.0404 16.9843 32.0404 19.3917 32.0404 21.8001C32.0404 22.4102 32.0404 22.407 32.6473 22.4027C32.77 22.4017 32.8265 22.3846 32.8596 22.2438C32.9566 21.8236 33.2574 21.6017 33.6905 21.6006C34.1822 21.5985 34.6739 21.5996 35.1656 21.6006C35.6541 21.6017 35.9133 21.8044 36.0306 22.2886C36.0498 22.3675 36.069 22.4059 36.1522 22.4027C36.3794 22.3942 36.5938 22.471 36.8135 22.5126C36.9266 21.7916 37.1549 21.5996 37.894 21.5996C38.3185 21.5996 38.7441 21.5985 39.1686 21.5996C39.6827 21.6006 40.0347 21.9217 40.0379 22.3899C40.0422 22.871 39.6891 23.1974 39.1612 23.1995C38.7398 23.2006 38.3185 23.1995 37.8535 23.1995C38.2215 23.6571 38.4305 24.1349 38.4519 24.6832C38.4561 24.7856 38.5127 24.8016 38.5991 24.8005C38.8156 24.7973 39.0321 24.7952 39.2486 24.8005C39.6987 24.8101 40.0358 25.1525 40.0369 25.5962C40.0379 26.0388 39.7009 26.3876 39.254 26.3983C39.0129 26.4036 38.7697 26.41 38.5297 26.3962C38.374 26.3866 38.2983 26.4367 38.2343 26.5828C37.9847 27.1577 37.5666 27.579 36.9799 27.8009C36.7538 27.8862 36.6599 27.963 36.7751 28.203C36.8253 28.3075 36.8263 28.4355 36.8583 28.5966C37.0439 28.1134 37.3916 27.978 37.8439 27.995C38.3015 28.0132 38.7601 27.9961 39.2188 27.9993C39.6902 28.0036 40.0337 28.3385 40.0369 28.7897C40.0401 29.2536 39.6945 29.5939 39.2092 29.5971C38.8092 29.6003 38.4092 29.5875 38.0092 29.6003C37.5666 29.6142 37.141 29.6067 36.8765 29.0734C36.8637 29.3699 36.8541 29.5768 36.8455 29.7837C36.837 29.9939 36.7933 30.1976 36.7165 30.3907C36.6642 30.524 36.7741 30.508 36.8263 30.5261C37.1794 30.6456 37.4908 30.8344 37.749 31.101C37.8279 31.1831 37.91 31.2002 38.0145 31.1991C38.4316 31.1959 38.8476 31.1917 39.2646 31.2002C39.6998 31.2087 40.0326 31.5533 40.0369 31.9852C40.0411 32.43 39.7073 32.7831 39.2636 32.7959C39.0641 32.8023 38.8625 32.8087 38.6641 32.7937C38.4956 32.7809 38.4561 32.8428 38.4593 33.0028C38.47 33.4614 38.4892 33.9212 38.3175 34.399ZM32.0468 23.9995C30.7391 23.9995 29.4315 23.9984 28.1227 23.9995C27.5307 23.9995 27.2204 24.3131 27.2172 24.9093C27.2161 25.0928 27.2161 25.2762 27.2172 25.4586C27.2193 26.1039 27.5179 26.3994 28.1697 26.3994C30.7434 26.3994 33.3182 26.3994 35.892 26.3994C35.9666 26.3994 36.0424 26.4015 36.117 26.394C36.5394 26.3492 36.8263 26.0378 36.837 25.6111C36.8434 25.3701 36.8498 25.1279 36.8487 24.8869C36.8455 24.312 36.5277 24.0005 35.9464 23.9995C34.6462 23.9995 33.347 23.9995 32.0468 23.9995ZM30.433 30.3992C31.7492 30.3992 33.0654 30.4002 34.3827 30.3981C34.9096 30.397 35.236 30.0835 35.2488 29.5747C35.2541 29.3752 35.2499 29.1747 35.2499 28.9752C35.2488 28.2894 34.9619 27.9993 34.2835 27.9993C32.2175 27.9993 30.1504 27.9993 28.0843 27.9993C27.5425 27.9993 27.0006 27.9961 26.4599 28.0004C25.9586 28.0046 25.63 28.3278 25.6194 28.8238C25.614 29.0488 25.6172 29.2739 25.6183 29.499C25.6215 30.092 25.933 30.3992 26.5335 30.3992C27.8337 30.4002 29.1328 30.3992 30.433 30.3992ZM32.0351 34.399C33.3513 34.399 34.6675 34.4011 35.9848 34.3979C36.5202 34.3969 36.8402 34.078 36.8487 33.5468C36.8519 33.3473 36.8498 33.1468 36.8498 32.9473C36.8487 32.2978 36.5522 32.0002 35.9058 32.0002C33.7065 32.0002 31.5071 32.0002 29.3067 32.0002C28.8822 32.0002 28.4566 31.9948 28.0321 32.0012C27.5617 32.0087 27.2332 32.3351 27.2193 32.8012C27.2129 33.0263 27.2172 33.2513 27.2182 33.4764C27.2204 34.0929 27.5243 34.399 28.1366 34.399C29.4357 34.4001 30.7359 34.399 32.0351 34.399Z" fill="white"/>
<path d="M38.4655 15.1999C39.7561 15.1999 41.0467 15.1989 42.3373 15.1999C43.3751 15.201 44.0343 15.8623 44.0375 16.9033C44.0386 17.4025 44.0418 17.9028 44.0364 18.4019C44.0258 19.3054 43.3367 19.9965 42.4301 19.9976C39.7742 20.0019 37.1173 20.0008 34.4614 19.9976C33.6529 19.9976 32.9873 19.4568 32.8785 18.6537C32.7847 17.9614 32.7847 17.2553 32.8764 16.5631C32.9873 15.729 33.6486 15.2021 34.4934 15.1999C35.8181 15.1989 37.1418 15.1999 38.4655 15.1999ZM38.458 16.7999C37.1919 16.7999 35.9259 16.8031 34.6598 16.7967C34.487 16.7956 34.4283 16.8404 34.4347 17.0185C34.4475 17.4014 34.4486 17.7854 34.4347 18.1683C34.4273 18.3561 34.4838 18.4062 34.6715 18.4051C35.8288 18.3955 36.9861 18.3998 38.1444 18.3998C39.5022 18.3998 40.86 18.3966 42.2178 18.4041C42.3917 18.4051 42.4482 18.3593 42.4429 18.1822C42.4301 17.7993 42.429 17.4153 42.4429 17.0324C42.4504 16.8447 42.3938 16.7945 42.2072 16.7956C40.9571 16.8041 39.7081 16.7999 38.458 16.7999Z" fill="white"/>
<path d="M42.4333 21.5995C42.7085 21.5995 42.9826 21.5942 43.2578 21.6006C43.7047 21.6102 44.0396 21.9589 44.0386 22.4027C44.0375 22.8453 43.6994 23.192 43.2493 23.1973C42.7085 23.2037 42.1667 23.2048 41.6259 23.1973C41.1864 23.1909 40.8355 22.8261 40.8377 22.3952C40.8398 21.9621 41.1918 21.6091 41.6344 21.6006C41.9 21.5952 42.1667 21.5995 42.4333 21.5995Z" fill="white"/>
<path d="M42.4398 26.3992C42.1731 26.3992 41.9065 26.4035 41.6398 26.3982C41.194 26.3896 40.843 26.0419 40.8377 25.6089C40.8324 25.1641 41.1854 24.8057 41.6451 24.8004C42.1784 24.7951 42.7107 24.7951 43.244 24.8004C43.6941 24.8047 44.0354 25.1492 44.0397 25.5886C44.044 26.0441 43.7048 26.3896 43.2387 26.3982C42.9731 26.4035 42.7064 26.3992 42.4398 26.3992Z" fill="white"/>
<path d="M42.4429 28.0004C42.7181 28.0004 42.9922 27.995 43.2674 28.0014C43.7005 28.0121 44.0354 28.3577 44.0396 28.7875C44.0439 29.2312 43.7111 29.5896 43.2663 29.5971C42.717 29.6056 42.1667 29.6056 41.6173 29.5971C41.1886 29.5907 40.8451 29.2344 40.8387 28.811C40.8323 28.3758 41.1779 28.0132 41.6184 28.0014C41.8936 27.994 42.1677 28.0004 42.4429 28.0004Z" fill="white"/>
<path d="M42.4506 32.7991C42.1754 32.7991 41.9012 32.8045 41.6261 32.7981C41.1855 32.7874 40.8357 32.4269 40.8389 31.9938C40.8421 31.5587 41.1898 31.2056 41.6357 31.2013C42.1764 31.1949 42.7183 31.1949 43.259 31.2013C43.7049 31.2077 44.0419 31.5608 44.0398 32.0045C44.0377 32.4461 43.6996 32.7895 43.2494 32.7981C42.9828 32.8034 42.7161 32.7991 42.4506 32.7991Z" fill="white"/>
</g>
<path d="M54.9207 29.5L59.0487 18.3H60.4727L64.5847 29.5H63.1607L62.1367 26.62H57.3687L56.3287 29.5H54.9207ZM57.7687 25.532H61.7367L59.7527 19.996L57.7687 25.532ZM69.3802 29.692C68.6228 29.692 67.9402 29.5213 67.3322 29.18C66.7348 28.828 66.2602 28.3427 65.9082 27.724C65.5668 27.0947 65.3962 26.364 65.3962 25.532C65.3962 24.7 65.5668 23.9747 65.9082 23.356C66.2602 22.7267 66.7348 22.2413 67.3322 21.9C67.9402 21.548 68.6228 21.372 69.3802 21.372C70.3188 21.372 71.1082 21.6173 71.7482 22.108C72.3988 22.5987 72.8095 23.2547 72.9802 24.076H71.6042C71.4975 23.5853 71.2362 23.2067 70.8202 22.94C70.4042 22.6627 69.9188 22.524 69.3642 22.524C68.9162 22.524 68.4948 22.636 68.1002 22.86C67.7055 23.084 67.3855 23.42 67.1402 23.868C66.8948 24.316 66.7722 24.8707 66.7722 25.532C66.7722 26.1933 66.8948 26.748 67.1402 27.196C67.3855 27.644 67.7055 27.9853 68.1002 28.22C68.4948 28.444 68.9162 28.556 69.3642 28.556C69.9188 28.556 70.4042 28.4227 70.8202 28.156C71.2362 27.8787 71.4975 27.4893 71.6042 26.988H72.9802C72.8202 27.788 72.4148 28.4387 71.7642 28.94C71.1135 29.4413 70.3188 29.692 69.3802 29.692ZM78.5052 29.692C77.7478 29.692 77.0652 29.5213 76.4572 29.18C75.8598 28.828 75.3852 28.3427 75.0332 27.724C74.6918 27.0947 74.5212 26.364 74.5212 25.532C74.5212 24.7 74.6918 23.9747 75.0332 23.356C75.3852 22.7267 75.8598 22.2413 76.4572 21.9C77.0652 21.548 77.7478 21.372 78.5052 21.372C79.4438 21.372 80.2332 21.6173 80.8732 22.108C81.5238 22.5987 81.9345 23.2547 82.1052 24.076H80.7292C80.6225 23.5853 80.3612 23.2067 79.9452 22.94C79.5292 22.6627 79.0438 22.524 78.4892 22.524C78.0412 22.524 77.6198 22.636 77.2252 22.86C76.8305 23.084 76.5105 23.42 76.2652 23.868C76.0198 24.316 75.8972 24.8707 75.8972 25.532C75.8972 26.1933 76.0198 26.748 76.2652 27.196C76.5105 27.644 76.8305 27.9853 77.2252 28.22C77.6198 28.444 78.0412 28.556 78.4892 28.556C79.0438 28.556 79.5292 28.4227 79.9452 28.156C80.3612 27.8787 80.6225 27.4893 80.7292 26.988H82.1052C81.9452 27.788 81.5398 28.4387 80.8892 28.94C80.2385 29.4413 79.4438 29.692 78.5052 29.692ZM87.5982 29.692C86.8515 29.692 86.1795 29.5213 85.5822 29.18C84.9848 28.8387 84.5102 28.3587 84.1582 27.74C83.8168 27.1107 83.6462 26.3747 83.6462 25.532C83.6462 24.6893 83.8222 23.9587 84.1742 23.34C84.5262 22.7107 85.0008 22.2253 85.5982 21.884C86.2062 21.5427 86.8835 21.372 87.6302 21.372C88.3768 21.372 89.0488 21.5427 89.6462 21.884C90.2435 22.2253 90.7128 22.7107 91.0542 23.34C91.4062 23.9587 91.5822 24.6893 91.5822 25.532C91.5822 26.3747 91.4062 27.1107 91.0542 27.74C90.7022 28.3587 90.2222 28.8387 89.6142 29.18C89.0168 29.5213 88.3448 29.692 87.5982 29.692ZM87.5982 28.54C88.0568 28.54 88.4835 28.428 88.8782 28.204C89.2728 27.98 89.5928 27.644 89.8382 27.196C90.0835 26.748 90.2062 26.1933 90.2062 25.532C90.2062 24.8707 90.0835 24.316 89.8382 23.868C89.6035 23.42 89.2888 23.084 88.8942 22.86C88.4995 22.636 88.0782 22.524 87.6302 22.524C87.1715 22.524 86.7448 22.636 86.3502 22.86C85.9555 23.084 85.6355 23.42 85.3902 23.868C85.1448 24.316 85.0222 24.8707 85.0222 25.532C85.0222 26.1933 85.1448 26.748 85.3902 27.196C85.6355 27.644 85.9502 27.98 86.3342 28.204C86.7288 28.428 87.1502 28.54 87.5982 28.54ZM96.3469 29.692C95.4083 29.692 94.6616 29.4093 94.1069 28.844C93.5523 28.268 93.2749 27.388 93.2749 26.204V21.564H94.6189V26.06C94.6189 27.7133 95.2963 28.54 96.6509 28.54C97.3443 28.54 97.9149 28.2947 98.3629 27.804C98.8216 27.3027 99.0509 26.5933 99.0509 25.676V21.564H100.395V29.5H99.1789L99.0829 28.076C98.8376 28.5773 98.4696 28.972 97.9789 29.26C97.4989 29.548 96.9549 29.692 96.3469 29.692ZM102.607 29.5V21.564H103.823L103.903 22.988C104.159 22.4867 104.527 22.092 105.007 21.804C105.487 21.516 106.031 21.372 106.639 21.372C107.578 21.372 108.325 21.66 108.879 22.236C109.445 22.8013 109.727 23.676 109.727 24.86V29.5H108.383V25.004C108.383 23.3507 107.701 22.524 106.335 22.524C105.653 22.524 105.082 22.7747 104.623 23.276C104.175 23.7667 103.951 24.4707 103.951 25.388V29.5H102.607ZM114.899 29.5C114.174 29.5 113.603 29.324 113.187 28.972C112.771 28.62 112.563 27.9853 112.563 27.068V22.7H111.187V21.564H112.563L112.739 19.66H113.907V21.564H116.243V22.7H113.907V27.068C113.907 27.5693 114.009 27.9107 114.211 28.092C114.414 28.2627 114.771 28.348 115.283 28.348H116.115V29.5H114.899ZM120.991 29.692C120.042 29.692 119.252 29.452 118.623 28.972C117.994 28.492 117.626 27.8413 117.519 27.02H118.895C118.98 27.436 119.199 27.7987 119.551 28.108C119.914 28.4067 120.399 28.556 121.007 28.556C121.572 28.556 121.988 28.4387 122.255 28.204C122.522 27.9587 122.655 27.6707 122.655 27.34C122.655 26.86 122.479 26.54 122.127 26.38C121.786 26.22 121.3 26.076 120.671 25.948C120.244 25.8627 119.818 25.74 119.391 25.58C118.964 25.42 118.607 25.196 118.319 24.908C118.031 24.6093 117.887 24.22 117.887 23.74C117.887 23.0467 118.143 22.4813 118.655 22.044C119.178 21.596 119.882 21.372 120.767 21.372C121.61 21.372 122.298 21.5853 122.831 22.012C123.375 22.428 123.69 23.0253 123.775 23.804H122.447C122.394 23.3987 122.218 23.084 121.919 22.86C121.631 22.6253 121.242 22.508 120.751 22.508C120.271 22.508 119.898 22.6093 119.631 22.812C119.375 23.0147 119.247 23.2813 119.247 23.612C119.247 23.932 119.412 24.1827 119.743 24.364C120.084 24.5453 120.543 24.7 121.119 24.828C121.61 24.9347 122.074 25.068 122.511 25.228C122.959 25.3773 123.322 25.6067 123.599 25.916C123.887 26.2147 124.031 26.652 124.031 27.228C124.042 27.9427 123.77 28.5347 123.215 29.004C122.671 29.4627 121.93 29.692 120.991 29.692Z" fill="white"/>
<path d="M220.5 17L227.5 24L220.5 31" stroke="white" stroke-width="1.5" stroke-linecap="round" stroke-linejoin="round"/>
<defs>
<clipPath id="clip0_548_78">
<rect width="22.4673" height="24" fill="white" transform="translate(23.9734 12)"/>
</clipPath>
</defs>
</svg>
