<svg width="19" height="18" viewBox="0 0 19 18" fill="none" xmlns="http://www.w3.org/2000/svg">
<path d="M9.9932 0.099446C10.5899 0.298341 11.0871 0.397789 11.6838 0.596684C12.2805 0.795579 12.9766 0.994476 13.6728 1.19337C13.9711 1.29282 14.17 1.49171 14.17 1.79005C14.17 2.58563 14.17 3.38122 14.17 4.1768C14.17 6.56354 12.7777 8.55249 10.5899 9.44751C10.1921 9.64641 9.79431 9.64641 9.39652 9.44751C7.50701 8.65193 6.31364 7.25967 5.91585 5.17127C5.81641 4.87293 5.81641 4.57458 5.81641 4.27624C5.81641 3.38121 5.81641 2.58564 5.81641 1.69061C5.81641 1.39227 5.91585 1.19337 6.2142 1.09392C7.40757 0.795579 8.50149 0.397789 9.69486 0.099446C9.79431 0.099446 9.79431 0.0994475 9.89375 0C9.89375 0.0994475 9.89375 0.099446 9.9932 0.099446ZM9.39652 5.17127C9.09817 4.87293 8.89928 4.67403 8.70038 4.47514C8.50149 4.27624 8.20315 4.27624 8.00425 4.47514C7.80536 4.67403 7.80536 4.97237 8.00425 5.27072C8.30259 5.66851 8.70038 5.96685 8.99873 6.26519C9.19762 6.46409 9.49596 6.46409 9.69486 6.26519C10.391 5.56906 11.0871 4.87293 11.7833 4.1768C11.8827 4.07735 11.9822 3.87845 11.8827 3.67956C11.8827 3.48066 11.6838 3.38121 11.4849 3.28177C11.286 3.18232 11.0871 3.28177 10.9877 3.38122C10.5899 3.77901 10.1921 4.1768 9.69486 4.67403C9.69486 4.87293 9.49596 4.97238 9.39652 5.17127Z" fill="#0F63AC"/>
<path d="M0.943359 16.3079C1.04281 16.0096 1.34115 15.9102 1.63949 15.9102C7.20855 15.9102 12.6782 15.9102 18.2472 15.9102C18.5456 15.9102 18.7445 16.0096 18.9434 16.3079C18.9434 16.4074 18.9434 16.5068 18.9434 16.6063C18.9434 16.6063 18.9434 16.7057 18.8439 16.7057C18.5456 17.3024 18.1478 17.7002 17.5511 17.8991C17.4516 17.8991 17.3522 17.9986 17.2528 17.9986C12.3798 17.9986 7.60634 17.9986 2.73341 17.9986C2.43507 17.8991 2.03728 17.7997 1.83839 17.6008C1.4406 17.3024 1.2417 17.0041 1.04281 16.6063C0.943359 16.5068 0.943359 16.4074 0.943359 16.3079Z" fill="#0F63AC"/>
<path d="M2.03723 14.818C2.03723 14.7186 2.03723 14.7186 2.03723 14.6191C2.03723 11.7351 2.03723 8.85115 2.03723 5.96717C2.03723 5.56938 2.23613 5.37049 2.63392 5.37049C3.33005 5.37049 4.02618 5.37049 4.72231 5.37049C4.82176 5.76828 4.92121 6.16607 5.1201 6.56386C5.71679 8.05557 6.71126 9.24894 8.20298 9.94507C8.30242 10.0445 8.30242 10.0445 8.30242 10.144C8.30242 10.6412 8.30242 11.039 8.30242 11.5362C7.90463 11.5362 7.60629 11.5362 7.2085 11.5362C7.2085 11.5362 7.10905 11.4368 7.10905 11.3373C6.81071 10.7407 6.31347 10.4423 5.61734 10.4423C4.92121 10.4423 4.42397 10.8401 4.22508 11.4368C3.92673 12.2324 4.32452 13.1274 5.02066 13.4257C5.81624 13.7241 6.71126 13.4257 7.00961 12.6302C7.00961 12.5307 7.10905 12.5307 7.10905 12.4313C7.60629 12.4313 8.20298 12.4313 8.70021 12.4313C9.098 12.4313 9.2969 12.2324 9.2969 11.8346C9.2969 11.3373 9.2969 10.8401 9.2969 10.2434C9.69469 10.3429 9.99303 10.3429 10.3908 10.2434C10.3908 10.7407 10.3908 11.2379 10.3908 11.6357C10.3908 11.7351 10.3908 11.7351 10.3908 11.8346C10.3908 12.2324 10.5897 12.4313 10.9875 12.4313C11.4847 12.4313 11.982 12.4313 12.3798 12.4313C12.4792 12.4313 12.4792 12.4313 12.5787 12.4313C12.7776 12.9285 13.1754 13.2268 13.6726 13.4257C14.5676 13.6246 15.4626 13.1274 15.6615 12.2324C15.8604 11.3373 15.2637 10.4423 14.3687 10.3429C13.6726 10.2434 12.9765 10.5418 12.6781 11.2379C12.6781 11.3373 12.5787 11.3373 12.4792 11.3373C12.1809 11.3373 11.7831 11.3373 11.4847 11.3373C11.4847 10.8401 11.4847 10.3429 11.4847 9.84563L11.5842 9.74618C12.5787 9.24894 13.3742 8.55281 13.9709 7.65778C14.4682 6.96165 14.866 6.06662 14.9654 5.17159V5.07214C15.0649 5.07214 15.1643 5.07214 15.1643 5.07214C15.8604 5.07214 16.4571 5.07214 17.1533 5.07214C17.4516 5.07214 17.7499 5.27104 17.7499 5.66883C17.7499 8.65226 17.7499 11.5362 17.7499 14.5197V14.6191C12.4792 14.818 7.30795 14.818 2.03723 14.818Z" fill="#0F63AC"/>
</svg>
