<svg width="24" height="23" viewBox="0 0 24 23" fill="none" xmlns="http://www.w3.org/2000/svg">
<path d="M15.3024 11.0602C15.3024 11.7895 15.1754 12.6403 15.1754 13.3696C15.1754 13.4911 15.0483 13.4911 15.0483 13.6127C13.7776 14.4635 12.3798 15.3143 10.982 15.9221C10.8549 15.9221 10.7279 15.9221 10.6008 15.9221C9.20299 15.3143 7.8052 14.5851 6.53448 13.7342C6.4074 13.7342 6.4074 13.6127 6.4074 13.4911C6.15326 12.0326 6.15326 10.4525 6.4074 8.9939C6.4074 8.87235 6.53448 8.75081 6.53448 8.75081C7.8052 7.77843 9.20299 7.04914 10.6008 6.44141C10.7279 6.44141 10.8549 6.44141 10.8549 6.44141C12.3798 7.04914 13.6505 7.77843 14.9212 8.75081C15.0483 8.75081 15.0483 8.87235 15.0483 8.9939C15.1754 9.60163 15.1754 10.3309 15.3024 11.0602ZM10.7279 15.0712C10.982 14.8282 11.2361 14.5851 11.3632 14.342C11.9986 13.6127 12.6339 12.8834 13.1422 12.0326C13.3964 11.5464 13.6505 10.9386 13.6505 10.3309C13.6505 8.7508 12.3798 7.53534 10.7279 7.53534C8.56763 7.41379 7.04276 9.60163 7.8052 11.4248C8.56763 12.8834 9.71128 13.9773 10.7279 15.0712Z" fill="#0F63AC"/>
<path d="M23.054 16.0439C23.054 16.1654 22.9269 16.287 22.9269 16.4085C22.7998 16.53 22.7998 16.7732 22.9269 16.8947C22.9269 17.0162 23.054 17.0162 23.054 17.1378C23.1811 17.5024 23.3081 17.7455 23.8164 17.8671C23.9435 17.8671 23.9435 17.9886 23.9435 18.1102C23.9435 18.3533 23.9435 18.5964 23.9435 18.7179C23.9435 18.8395 23.8164 18.961 23.6893 18.961C23.3081 19.0825 23.1811 19.2041 23.054 19.5687V19.6903C22.7998 19.9334 22.7998 20.298 23.054 20.5411C23.054 20.6627 23.054 20.7842 23.054 20.9058C23.054 21.0273 22.9269 21.0273 22.7998 21.1488C22.5457 21.5135 22.2915 21.635 21.7833 21.3919C21.6562 21.3919 21.5291 21.3919 21.5291 21.3919C21.275 21.5135 21.1479 21.635 20.8938 21.635C20.6396 21.635 20.5125 21.8781 20.5125 21.9997C20.3855 22.3643 20.3855 22.3643 20.0043 22.3643H19.8772C19.496 22.4859 19.1147 22.3643 18.9877 21.8781C18.9877 21.7566 18.8606 21.7566 18.7335 21.635C18.6065 21.635 18.4794 21.5135 18.3523 21.5135C17.9711 21.2704 17.717 21.2704 17.3357 21.5135C17.3357 21.5135 17.0816 21.5135 17.0816 21.3919C16.9545 21.2704 16.8275 21.1488 16.5733 20.9058C16.4462 20.7842 16.4462 20.6627 16.4462 20.5411C16.5733 20.298 16.5733 20.0549 16.4462 19.8118C16.4462 19.8118 16.4462 19.6903 16.3192 19.6903C16.1921 19.3256 16.065 19.0826 15.6838 19.0826C15.5567 19.0826 15.5567 18.961 15.4297 18.8394C15.4297 18.7179 15.4297 18.7179 15.4297 18.5964C15.3026 18.2317 15.5567 17.8671 15.9379 17.8671C16.065 17.8671 16.065 17.7455 16.1921 17.624C16.3192 17.5024 16.3192 17.2593 16.4462 17.1378C16.5733 16.8947 16.5733 16.7732 16.4462 16.5301C16.3192 16.287 16.3192 16.0439 16.5733 15.9223C16.5733 15.9223 16.5733 15.9223 16.7004 15.8008C16.9545 15.4361 17.3357 15.3146 17.717 15.5577H17.9711C18.0982 15.4361 18.3523 15.4361 18.4794 15.3146C18.7335 15.193 18.8606 15.0715 18.9877 14.8284C18.9877 14.5853 19.2418 14.4638 19.496 14.4638H19.623C20.0043 14.3422 20.3855 14.4638 20.5125 14.9499C20.5125 15.0715 20.6396 15.0715 20.7667 15.193C20.8938 15.3146 21.1479 15.3146 21.275 15.4361C21.5291 15.5577 21.7833 15.5577 22.0374 15.4361C22.2915 15.3146 22.4186 15.3146 22.5457 15.5577C22.6728 15.6792 22.7998 15.8008 22.9269 15.9223C22.9269 15.9223 22.9269 15.9223 23.054 16.0439ZM21.6562 18.3533C21.6562 17.2593 20.7667 16.4085 19.7501 16.4085C18.7335 16.4085 17.844 17.2593 17.844 18.2317C17.844 19.2041 18.7335 20.0549 19.7501 20.0549C20.7667 20.298 21.6562 19.4472 21.6562 18.3533Z" fill="#0F63AC"/>
<path d="M7.42395 4.49703C7.93224 3.52465 8.44053 2.55227 9.58417 1.94453C10.4737 1.45834 11.3632 1.57989 12.2527 2.18762C13.0151 2.79536 13.5234 3.52464 13.9046 4.37547C13.1422 4.61857 12.2527 4.74011 11.6173 4.98321C10.982 5.2263 10.4737 5.2263 9.83832 4.98321C9.07589 4.86166 8.31345 4.74012 7.42395 4.49703Z" fill="#0F63AC"/>
<path d="M13.9046 17.6243C13.5234 18.4751 13.0151 19.3259 12.1256 19.9337C11.109 20.6629 10.0925 20.6629 9.20296 19.9337C8.44053 19.3259 7.93224 18.4751 7.42395 17.6243C7.67809 17.6243 7.93224 17.5027 8.18638 17.5027C8.94881 17.2596 9.71125 17.0165 10.4737 16.7734C10.6007 16.7734 10.7278 16.7734 10.7278 16.7734C11.7444 17.1381 12.6339 17.3812 13.6505 17.6243C13.7775 17.6243 13.9046 17.6243 13.9046 17.6243Z" fill="#0F63AC"/>
<path d="M3.1047 10.4518C2.46934 9.60096 1.96106 8.75014 1.83398 7.77776C2.46934 7.77776 2.85056 7.53466 3.23178 7.04847C3.48592 6.56228 3.48592 6.0761 3.23178 5.58991C3.74006 5.22527 5.13786 5.10372 6.2815 5.22527C6.2815 5.34681 6.15443 5.58992 6.15443 5.71147C5.90029 6.56229 5.77322 7.41311 5.51907 8.26394C5.51907 8.38549 5.392 8.50703 5.392 8.50703C4.62957 8.99322 3.86714 9.72251 3.1047 10.4518Z" fill="#0F63AC"/>
<path d="M15.0488 5.10418C16.1925 4.98263 17.5903 5.10416 18.0986 5.4688C17.5903 6.44118 18.2256 7.53511 19.4963 7.77821C19.3693 8.75058 18.861 9.60141 18.2256 10.4522C18.2256 10.4522 18.0986 10.4522 18.0986 10.3307C17.3361 9.6014 16.5737 8.99367 15.9383 8.26439C15.8113 8.14284 15.8113 8.14284 15.8113 8.0213C15.6842 7.17047 15.43 6.1981 15.0488 5.10418C15.0488 5.22572 15.0488 5.22572 15.0488 5.10418Z" fill="#0F63AC"/>
<path d="M3.23031 16.6519C3.7386 15.5579 2.97617 14.464 1.83252 14.3425C1.70545 13.8563 2.34081 12.3977 2.97617 11.5469L3.10324 11.6684C3.7386 12.2762 4.37396 12.8839 5.13639 13.4916C5.26346 13.6132 5.39053 13.7347 5.39053 13.9778C5.64468 14.9502 5.77175 15.9226 6.02589 16.7734C5.64468 17.138 3.99274 17.1381 3.23031 16.6519Z" fill="#0F63AC"/>
<path d="M18.3528 11.668C18.734 12.2757 18.9882 12.8834 19.3694 13.6127C19.2423 13.6127 19.1152 13.6127 19.1152 13.6127C18.734 13.7343 18.4799 13.8558 18.3528 14.2205C18.2257 14.4636 17.8445 14.5851 17.5904 14.4636C17.2092 14.342 16.7009 14.342 16.4467 14.7066C16.3197 14.8282 16.0655 15.0713 15.9384 15.1928C15.6843 15.4359 15.6843 15.8006 15.6843 16.1652C15.8114 16.6514 15.5572 17.016 15.0489 16.8945H14.9219C15.0489 16.4083 15.176 15.9221 15.3031 15.4359C15.4302 14.9497 15.5572 14.342 15.6843 13.8558C15.6843 13.7343 15.6843 13.7343 15.8114 13.6127C16.7009 13.1265 17.4633 12.5188 18.3528 11.668Z" fill="#0F63AC"/>
<path d="M18.8609 3.03867V3.16023C18.8609 3.40332 18.7338 3.52487 18.4797 3.52487C18.2255 3.52487 18.0984 3.40332 18.0984 3.16023C18.0984 2.91713 18.0984 2.5525 17.9714 2.3094C17.7172 1.33703 16.8277 0.729289 15.8111 0.729289C15.4299 0.729289 15.1758 0.607738 15.1758 0.364645C15.1758 0.121551 15.4299 0 15.8111 0C17.4631 0.121547 18.8609 1.45856 18.8609 3.03867Z" fill="#0F63AC"/>
<path d="M11.7441 5.8343C12.6336 5.5912 13.3961 5.46966 14.2856 5.22656C14.5397 6.07739 14.7939 6.80667 14.9209 7.6575C13.9044 7.04977 12.7607 6.44203 11.7441 5.8343Z" fill="#0F63AC"/>
<path d="M9.71196 5.83384C8.56831 6.44157 7.55173 7.04931 6.53516 7.65704C6.53516 7.53549 6.53516 7.29241 6.66223 7.17086C6.7893 6.56313 7.04344 6.07693 7.17052 5.46919L7.29759 5.34766C8.06002 5.4692 8.82245 5.59074 9.71196 5.83384Z" fill="#0F63AC"/>
<path d="M14.2856 17.0169C13.3961 16.7738 12.6336 16.5307 11.7441 16.4091C12.8878 15.8014 13.9044 15.1937 15.048 14.5859C14.6668 15.4368 14.5397 16.166 14.2856 17.0169Z" fill="#0F63AC"/>
<path d="M9.71196 16.4091C8.82245 16.6522 8.06002 16.7738 7.17052 17.0169C6.91637 16.166 6.66223 15.4368 6.53516 14.5859C7.55173 15.1937 8.56831 15.8014 9.71196 16.4091Z" fill="#0F63AC"/>
<path d="M5.39045 9.23828C5.39045 10.4538 5.39045 11.6692 5.39045 12.8847C4.75509 12.277 4.11973 11.6692 3.48438 11.0615C4.11973 10.4538 4.75509 9.84602 5.39045 9.23828Z" fill="#0F63AC"/>
<path d="M17.8435 11.1821C17.2081 11.7899 16.6998 12.3976 16.0645 13.0053C16.0645 11.7899 16.0645 10.5744 16.0645 9.48047C16.5727 9.84511 17.2081 10.4529 17.8435 11.1821Z" fill="#0F63AC"/>
<path d="M15.6842 1.21484C16.8278 1.21484 17.7173 2.18723 17.5903 3.1596C17.5903 3.4027 17.4632 3.52425 17.2091 3.52425C16.9549 3.52425 16.8278 3.4027 16.8278 3.1596C16.8278 2.43032 16.3195 1.94413 15.5571 1.94413C15.303 1.94413 15.0488 1.82258 15.0488 1.57949C15.1759 1.33639 15.303 1.21484 15.6842 1.21484Z" fill="#0F63AC"/>
<path d="M1.83286 7.04931C1.32458 7.04931 0.943359 6.68467 0.943359 6.19848C0.943359 5.71229 1.32458 5.34766 1.83286 5.34766C2.34115 5.34766 2.72237 5.71229 2.72237 6.19848C2.72237 6.68467 2.34115 7.04931 1.83286 7.04931Z" fill="#0F63AC"/>
<path d="M20.3864 6.19848C20.3864 6.68467 20.0052 7.04931 19.4969 7.04931C18.9886 7.04931 18.6074 6.68467 18.6074 6.19848C18.6074 5.71229 18.9886 5.34766 19.4969 5.34766C20.0052 5.34766 20.3864 5.71229 20.3864 6.19848Z" fill="#0F63AC"/>
<path d="M0.943359 15.9231C0.943359 15.4369 1.32458 15.0723 1.83286 15.0723C2.34115 15.0723 2.72237 15.4369 2.72237 15.9231C2.72237 16.4093 2.34115 16.7739 1.83286 16.7739C1.32458 16.7739 0.943359 16.4093 0.943359 15.9231Z" fill="#0F63AC"/>
<path d="M15.6842 3.64516C15.303 3.64516 15.0488 3.40206 15.0488 3.03742C15.0488 2.67278 15.303 2.42969 15.6842 2.42969C16.0654 2.42969 16.3195 2.67278 16.3195 3.03742C16.3195 3.40206 16.0654 3.64516 15.6842 3.64516Z" fill="#0F63AC"/>
<path d="M10.7282 12.1533C9.71165 12.1533 8.94922 11.424 8.94922 10.4517C8.94922 9.47927 9.71165 8.75 10.7282 8.75C11.7448 8.75 12.5072 9.47927 12.5072 10.4517C12.5072 11.424 11.6177 12.1533 10.7282 12.1533Z" fill="#0F63AC"/>
</svg>
