<svg width="141" height="71" viewBox="0 0 141 71" fill="none" xmlns="http://www.w3.org/2000/svg">
<rect x="14" y="7.36719" width="113" height="55.4639" rx="12" stroke="#2273BE"/>
<line x1="23" y1="34.5996" x2="122" y2="34.5996" stroke="#2273BE"/>
<line x1="47.5" y1="10.9453" x2="47.5" y2="60.1471" stroke="#2273BE"/>
<rect x="2" y="2" width="137" height="67.0934" rx="12" stroke="#2273BE" stroke-width="3"/>
<path d="M57 4.68359H84" stroke="#2273BE" stroke-width="4" stroke-linecap="round"/>
<path d="M57 66.4102H84" stroke="#2273BE" stroke-width="4" stroke-linecap="round"/>
<path d="M136 17.207L136 52.9902" stroke="#2273BE" stroke-width="4" stroke-linecap="round"/>
<path d="M5 17.207L5 52.9902" stroke="#2273BE" stroke-width="4" stroke-linecap="round"/>
<path d="M27.5 24.364C27.0875 24.364 26.7344 24.2326 26.4406 23.9698C26.1469 23.707 26 23.3911 26 23.0221V13.629C26 13.26 26.1469 12.9441 26.4406 12.6814C26.7344 12.4186 27.0875 12.2872 27.5 12.2872H28.25V10.9453H29.75V12.2872H35.75V10.9453H37.25V12.2872H38C38.4125 12.2872 38.7656 12.4186 39.0594 12.6814C39.3531 12.9441 39.5 13.26 39.5 13.629V23.0221C39.5 23.3911 39.3531 23.707 39.0594 23.9698C38.7656 24.2326 38.4125 24.364 38 24.364H27.5ZM27.5 23.0221H38V16.3128H27.5V23.0221ZM27.5 14.9709H38V13.629H27.5V14.9709ZM32.75 18.9965C32.5375 18.9965 32.3594 18.9322 32.2156 18.8036C32.0719 18.675 32 18.5157 32 18.3256C32 18.1355 32.0719 17.9761 32.2156 17.8475C32.3594 17.7189 32.5375 17.6547 32.75 17.6547C32.9625 17.6547 33.1406 17.7189 33.2844 17.8475C33.4281 17.9761 33.5 18.1355 33.5 18.3256C33.5 18.5157 33.4281 18.675 33.2844 18.8036C33.1406 18.9322 32.9625 18.9965 32.75 18.9965ZM29.75 18.9965C29.5375 18.9965 29.3594 18.9322 29.2156 18.8036C29.0719 18.675 29 18.5157 29 18.3256C29 18.1355 29.0719 17.9761 29.2156 17.8475C29.3594 17.7189 29.5375 17.6547 29.75 17.6547C29.9625 17.6547 30.1406 17.7189 30.2844 17.8475C30.4281 17.9761 30.5 18.1355 30.5 18.3256C30.5 18.5157 30.4281 18.675 30.2844 18.8036C30.1406 18.9322 29.9625 18.9965 29.75 18.9965ZM35.75 18.9965C35.5375 18.9965 35.3594 18.9322 35.2156 18.8036C35.0719 18.675 35 18.5157 35 18.3256C35 18.1355 35.0719 17.9761 35.2156 17.8475C35.3594 17.7189 35.5375 17.6547 35.75 17.6547C35.9625 17.6547 36.1406 17.7189 36.2844 17.8475C36.4281 17.9761 36.5 18.1355 36.5 18.3256C36.5 18.5157 36.4281 18.675 36.2844 18.8036C36.1406 18.9322 35.9625 18.9965 35.75 18.9965ZM32.75 21.6803C32.5375 21.6803 32.3594 21.616 32.2156 21.4874C32.0719 21.3588 32 21.1994 32 21.0093C32 20.8192 32.0719 20.6599 32.2156 20.5313C32.3594 20.4027 32.5375 20.3384 32.75 20.3384C32.9625 20.3384 33.1406 20.4027 33.2844 20.5313C33.4281 20.6599 33.5 20.8192 33.5 21.0093C33.5 21.1994 33.4281 21.3588 33.2844 21.4874C33.1406 21.616 32.9625 21.6803 32.75 21.6803ZM29.75 21.6803C29.5375 21.6803 29.3594 21.616 29.2156 21.4874C29.0719 21.3588 29 21.1994 29 21.0093C29 20.8192 29.0719 20.6599 29.2156 20.5313C29.3594 20.4027 29.5375 20.3384 29.75 20.3384C29.9625 20.3384 30.1406 20.4027 30.2844 20.5313C30.4281 20.6599 30.5 20.8192 30.5 21.0093C30.5 21.1994 30.4281 21.3588 30.2844 21.4874C30.1406 21.616 29.9625 21.6803 29.75 21.6803ZM35.75 21.6803C35.5375 21.6803 35.3594 21.616 35.2156 21.4874C35.0719 21.3588 35 21.1994 35 21.0093C35 20.8192 35.0719 20.6599 35.2156 20.5313C35.3594 20.4027 35.5375 20.3384 35.75 20.3384C35.9625 20.3384 36.1406 20.4027 36.2844 20.5313C36.4281 20.6599 36.5 20.8192 36.5 21.0093C36.5 21.1994 36.4281 21.3588 36.2844 21.4874C36.1406 21.616 35.9625 21.6803 35.75 21.6803Z" fill="#2273BE"/>
<path d="M34.975 54.8022L36.025 53.8629L33.25 51.3804V48.2941H31.75V51.9172L34.975 54.8022ZM32.5 58.3581C31.4625 58.3581 30.4875 58.182 29.575 57.8298C28.6625 57.4775 27.8688 56.9995 27.1938 56.3956C26.5188 55.7918 25.9844 55.0817 25.5906 54.2654C25.1969 53.4491 25 52.5769 25 51.6488C25 50.7207 25.1969 49.8485 25.5906 49.0321C25.9844 48.2158 26.5188 47.5058 27.1938 46.9019C27.8688 46.2981 28.6625 45.8201 29.575 45.4678C30.4875 45.1156 31.4625 44.9395 32.5 44.9395C33.5375 44.9395 34.5125 45.1156 35.425 45.4678C36.3375 45.8201 37.1313 46.2981 37.8063 46.9019C38.4813 47.5058 39.0156 48.2158 39.4094 49.0321C39.8031 49.8485 40 50.7207 40 51.6488C40 52.5769 39.8031 53.4491 39.4094 54.2654C39.0156 55.0817 38.4813 55.7918 37.8063 56.3956C37.1313 56.9995 36.3375 57.4775 35.425 57.8298C34.5125 58.182 33.5375 58.3581 32.5 58.3581ZM32.5 57.0163C34.1625 57.0163 35.5781 56.4935 36.7469 55.448C37.9156 54.4024 38.5 53.136 38.5 51.6488C38.5 50.1616 37.9156 48.8952 36.7469 47.8496C35.5781 46.8041 34.1625 46.2813 32.5 46.2813C30.8375 46.2813 29.4219 46.8041 28.2531 47.8496C27.0844 48.8952 26.5 50.1616 26.5 51.6488C26.5 53.136 27.0844 54.4024 28.2531 55.448C29.4219 56.4935 30.8375 57.0163 32.5 57.0163Z" fill="#2273BE"/>
</svg>
