<svg width="206" height="237" viewBox="0 0 206 237" fill="none" xmlns="http://www.w3.org/2000/svg">
<rect x="6" y="1" width="193" height="235" fill="white" stroke="#D0D0D0" stroke-width="0.5"/>
<path d="M206 6L198.5 8L199 42.5L206 37V6Z" fill="black"/>
<path d="M206 6L195 9L195 34L206 37L206 6Z" fill="#004B64"/>
<path d="M0 6L7.5 8L7 42.5L0 37V6Z" fill="black"/>
<path d="M0 37L11 34L11 9L5.42021e-06 6L0 37Z" fill="#004B64"/>
<rect x="13" y="33" width="179" height="195" fill="white"/>
<rect x="14" y="9" width="179" height="25" fill="#0D6784"/>
<path d="M80.382 16.228C81.4087 16.228 82.3093 16.4287 83.084 16.83C83.868 17.2313 84.47 17.8053 84.89 18.552C85.3193 19.2893 85.534 20.148 85.534 21.128C85.534 22.108 85.3193 22.9667 84.89 23.704C84.47 24.432 83.868 24.9967 83.084 25.398C82.3093 25.7993 81.4087 26 80.382 26H76.966V16.228H80.382ZM80.312 24.334C81.3387 24.334 82.132 24.054 82.692 23.494C83.252 22.934 83.532 22.1453 83.532 21.128C83.532 20.1107 83.252 19.3173 82.692 18.748C82.132 18.1693 81.3387 17.88 80.312 17.88H78.926V24.334H80.312ZM88.9612 17.81V20.26H92.2512V21.814H88.9612V24.404H92.6712V26H87.0012V16.214H92.6712V17.81H88.9612ZM101.102 16.228V17.81H98.4983V26H96.5383V17.81H93.9343V16.228H101.102ZM108.524 24.138H104.632L103.988 26H101.93L105.444 16.214H107.726L111.24 26H109.168L108.524 24.138ZM107.992 22.57L106.578 18.482L105.164 22.57H107.992ZM114.514 16.228V26H112.554V16.228H114.514ZM118.41 24.446H121.63V26H116.45V16.228H118.41V24.446ZM126.25 26.098C125.569 26.098 124.953 25.9813 124.402 25.748C123.861 25.5147 123.431 25.1787 123.114 24.74C122.797 24.3013 122.633 23.7833 122.624 23.186H124.724C124.752 23.5873 124.892 23.9047 125.144 24.138C125.405 24.3713 125.76 24.488 126.208 24.488C126.665 24.488 127.025 24.3807 127.286 24.166C127.547 23.942 127.678 23.6527 127.678 23.298C127.678 23.0087 127.589 22.7707 127.412 22.584C127.235 22.3973 127.011 22.2527 126.74 22.15C126.479 22.038 126.115 21.9167 125.648 21.786C125.013 21.5993 124.495 21.4173 124.094 21.24C123.702 21.0533 123.361 20.778 123.072 20.414C122.792 20.0407 122.652 19.546 122.652 18.93C122.652 18.3513 122.797 17.8473 123.086 17.418C123.375 16.9887 123.781 16.662 124.304 16.438C124.827 16.2047 125.424 16.088 126.096 16.088C127.104 16.088 127.921 16.3353 128.546 16.83C129.181 17.3153 129.531 17.9967 129.596 18.874H127.44C127.421 18.538 127.277 18.2627 127.006 18.048C126.745 17.824 126.395 17.712 125.956 17.712C125.573 17.712 125.265 17.81 125.032 18.006C124.808 18.202 124.696 18.4867 124.696 18.86C124.696 19.1213 124.78 19.3407 124.948 19.518C125.125 19.686 125.34 19.826 125.592 19.938C125.853 20.0407 126.217 20.162 126.684 20.302C127.319 20.4887 127.837 20.6753 128.238 20.862C128.639 21.0487 128.985 21.3287 129.274 21.702C129.563 22.0753 129.708 22.5653 129.708 23.172C129.708 23.6947 129.573 24.18 129.302 24.628C129.031 25.076 128.635 25.4353 128.112 25.706C127.589 25.9673 126.969 26.098 126.25 26.098Z" fill="white"/>
<rect x="14" y="67" width="179" height="30" fill="#DBF0F7"/>
<path d="M54.1843 88.3735C54.1843 89.5057 54.1843 90.6395 54.1828 91.7717C54.1828 91.817 54.1828 91.8609 54.1798 91.9062C54.1767 91.9637 54.145 91.9939 54.0876 91.9969C54.0467 91.9984 54.0044 92 53.9636 92C47.0493 92 40.135 92 33.2207 92C33.2071 92 33.1935 92 33.1799 92C33.0151 91.9984 33.003 91.9864 33.0015 91.8231C33 90.6803 33 89.5375 33 88.3932C33.0242 87.9578 33.189 87.5769 33.4459 87.2322C33.7966 86.7621 34.2501 86.4099 34.7384 86.097C35.5109 85.6026 36.3483 85.2444 37.2115 84.9436C38.3467 84.546 39.5122 84.2573 40.6988 84.0532C41.3972 83.9323 42.0986 83.8446 42.8046 83.7977C43.4395 83.7554 44.0729 83.7751 44.7078 83.8249C45.7992 83.9126 46.8724 84.1001 47.9351 84.3495C49.016 84.6034 50.0726 84.936 51.0915 85.3804C51.8019 85.6918 52.4822 86.0607 53.0838 86.555C53.5343 86.9253 53.9137 87.3546 54.0996 87.9245C54.148 88.0712 54.1692 88.2208 54.1843 88.3735Z" fill="#0D6784"/>
<path d="M38.3057 77.2916C38.2709 74.418 40.6639 71.9479 43.6887 72.0008C46.6016 72.0507 48.9084 74.4633 48.8842 77.343C48.86 80.1683 46.5669 82.593 43.5813 82.5854C40.5807 82.5779 38.2754 80.132 38.3057 77.2916Z" fill="#0D6784"/>
<rect x="14" y="34" width="179" height="30" fill="#F2F2F2"/>
<g clip-path="url(#clip0_427_833)">
<path d="M48.8154 48.8054C48.4777 48.5141 48.1778 48.2568 47.8796 47.9978C47.3129 47.5056 46.75 47.0092 46.1775 46.5233C46.1019 46.4592 45.9799 46.4149 45.8792 46.4146C43.5158 46.4085 41.1524 46.4097 38.7891 46.4096C38.7112 46.4096 38.6333 46.4096 38.5346 46.4096C38.5346 50.6096 38.5346 54.7872 38.5346 59C38.2189 58.9534 37.9274 58.9169 37.6384 58.8666C36.5227 58.6725 35.4344 58.3916 34.4324 57.8603C33.953 57.6061 33.5136 57.3001 33.21 56.8444C33.0748 56.6413 32.9999 56.4253 33.0001 56.177C33.0035 51.4378 33.004 46.6986 33 41.9595C32.9997 41.5928 33.1646 41.3059 33.3983 41.0449C33.8476 40.5432 34.4349 40.2355 35.053 39.9815C36.1055 39.5489 37.2112 39.3145 38.3405 39.1623C39.4721 39.0099 40.6088 38.9725 41.7465 39.0183C43.4576 39.0873 45.139 39.3285 46.7336 39.9746C47.3718 40.2331 47.9752 40.5498 48.4336 41.0722C48.6905 41.3648 48.8214 41.6927 48.8195 42.0898C48.809 44.2188 48.815 46.3478 48.8154 48.4769C48.8154 48.5665 48.8154 48.6561 48.8154 48.8054ZM40.4039 43.3819C41.8551 43.3766 43.1521 43.2842 44.4235 42.9753C45.0142 42.8318 45.5994 42.6637 46.0895 42.2926C46.577 41.9236 46.571 41.5227 46.0818 41.1572C45.6659 40.8464 45.1785 40.6832 44.6807 40.5494C43.3516 40.1922 41.9911 40.0827 40.618 40.0787C39.2515 40.0746 37.8964 40.1767 36.5697 40.5137C36.0061 40.6568 35.4499 40.828 34.9893 41.1946C34.559 41.5371 34.5601 41.9098 34.9824 42.2578C35.3216 42.5372 35.7274 42.6944 36.144 42.8221C37.5775 43.2616 39.0577 43.3673 40.4039 43.3819Z" fill="#0D6784"/>
<path d="M49.6552 58.9824C46.2234 58.9824 42.8052 58.9824 39.3751 58.9824C39.3751 55.0555 39.3751 51.1405 39.3751 47.2043C39.4487 47.2004 39.5184 47.1934 39.5881 47.1934C41.4747 47.1925 43.3613 47.1909 45.2478 47.1962C45.3441 47.1965 45.4584 47.2349 45.5336 47.2929C46.8785 48.3319 48.2195 49.3756 49.5571 50.4233C49.6139 50.4677 49.6624 50.5592 49.6626 50.6288C49.6677 53.3798 49.6667 56.1308 49.6662 58.8819C49.6662 58.9073 49.6608 58.9326 49.6552 58.9824ZM45.7274 47.9263C43.8431 47.9263 41.9885 47.9263 40.1365 47.9263C40.1365 51.3848 40.1365 54.837 40.1365 58.2847C43.0667 58.2847 45.9814 58.2847 48.8905 58.2847C48.8905 55.8032 48.8905 53.3385 48.8905 50.8586C47.8312 50.8586 46.7878 50.8586 45.7273 50.8586C45.7274 49.8845 45.7274 48.9253 45.7274 47.9263Z" fill="#0D6784"/>
<path d="M47.0676 53.5832C47.0676 53.8258 47.0676 54.0537 47.0676 54.2938C46.2745 54.2938 45.4931 54.2938 44.7 54.2938C44.7 54.0534 44.7 53.8256 44.7 53.5832C45.4854 53.5832 46.2673 53.5832 47.0676 53.5832Z" fill="#0D6784"/>
<path d="M41.5688 49.1459C42.3457 49.1459 43.104 49.1459 43.8789 49.1459C43.8789 49.3773 43.8789 49.6041 43.8789 49.8464C43.1184 49.8464 42.3502 49.8464 41.5688 49.8464C41.5688 49.6189 41.5688 49.3923 41.5688 49.1459Z" fill="#0D6784"/>
<path d="M43.8808 52.8128C43.1059 52.8128 42.3423 52.8128 41.5671 52.8128C41.5671 52.5765 41.5671 52.3497 41.5671 52.1114C42.3387 52.1114 43.1025 52.1114 43.8808 52.1114C43.8808 52.3384 43.8808 52.5655 43.8808 52.8128Z" fill="#0D6784"/>
<path d="M43.8789 54.2991C43.1066 54.2991 42.3476 54.2991 41.5721 54.2991C41.5721 54.0604 41.5721 53.828 41.5721 53.582C42.3353 53.582 43.0988 53.582 43.8789 53.582C43.8789 53.8124 43.8789 54.0445 43.8789 54.2991Z" fill="#0D6784"/>
<path d="M44.6993 52.1395C45.4938 52.1395 46.2721 52.1395 47.0649 52.1395C47.0649 52.3661 47.0649 52.5863 47.0649 52.8195C46.2769 52.8195 45.4938 52.8195 44.6993 52.8195C44.6993 52.5944 44.6993 52.379 44.6993 52.1395Z" fill="#0D6784"/>
<path d="M44.7 55.7821C44.7 55.5516 44.7 55.3318 44.7 55.1003C45.4933 55.1003 46.2748 55.1003 47.0678 55.1003C47.0678 55.3321 47.0678 55.552 47.0678 55.7821C46.2747 55.7821 45.4927 55.7821 44.7 55.7821Z" fill="#0D6784"/>
<path d="M41.5416 57.0612C41.5416 56.8307 41.5416 56.6109 41.5416 56.3795C43.3921 56.3795 45.2152 56.3795 47.0649 56.3795C47.0649 56.6112 47.0649 56.8311 47.0649 57.0612C45.2147 57.0612 43.3908 57.0612 41.5416 57.0612Z" fill="#0D6784"/>
<path d="M41.5663 51.3126C41.5663 51.0914 41.5663 50.8769 41.5663 50.6489C42.3385 50.6489 43.1064 50.6489 43.8849 50.6489C43.8849 50.8704 43.8849 51.085 43.8849 51.3126C43.113 51.3126 42.3449 51.3126 41.5663 51.3126Z" fill="#0D6784"/>
<path d="M41.5649 55.7772C41.5649 55.5462 41.5649 55.3307 41.5649 55.1019C42.3374 55.1019 43.1008 55.1019 43.8798 55.1019C43.8798 55.3205 43.8798 55.541 43.8798 55.7772C43.1166 55.7772 42.3484 55.7772 41.5649 55.7772Z" fill="#0D6784"/>
</g>
<rect x="14" y="133" width="179" height="30" fill="#DBF0F6"/>
<g clip-path="url(#clip1_427_833)">
<path d="M49.2439 141.401C49.2439 145.8 49.2439 150.2 49.2439 154.599C49.0903 155.223 48.779 155.753 48.2651 156.143C47.9905 156.351 47.705 156.554 47.4018 156.714C46.0288 157.436 44.5375 157.728 43.0122 157.89C42.637 157.929 42.2605 157.963 41.8839 157.999C41.3768 157.999 40.8684 157.999 40.3613 157.999C40.2539 157.981 40.1479 157.951 40.0405 157.947C38.8999 157.898 37.7689 157.753 36.6786 157.418C35.9894 157.207 35.311 156.936 34.668 156.611C33.8388 156.189 33.2175 155.549 33 154.599C33 150.2 33 145.8 33 141.401C33.0788 141.182 33.1387 140.953 33.242 140.746C33.5356 140.159 34.0223 139.755 34.5769 139.433C36.0152 138.598 37.6058 138.287 39.2316 138.11C39.6082 138.068 39.9848 138.037 40.36 138C40.867 138 41.3755 138 41.8825 138C41.9899 138.018 42.096 138.048 42.2034 138.052C43.3439 138.101 44.475 138.246 45.5653 138.58C46.2531 138.791 46.9315 139.064 47.5745 139.389C48.4051 139.809 49.025 140.451 49.2439 141.401ZM41.075 143.835C42.3407 143.814 43.5519 143.722 44.7401 143.438C45.621 143.227 46.4842 142.961 47.2278 142.42C47.9782 141.873 47.9932 141.361 47.2183 140.856C46.7221 140.534 46.1688 140.276 45.6088 140.083C44.1338 139.577 42.5962 139.442 41.0438 139.446C39.6028 139.452 38.1794 139.597 36.7955 140.023C36.0601 140.25 35.3369 140.518 34.7659 141.064C34.3418 141.471 34.32 141.835 34.7754 142.199C35.1656 142.511 35.6074 142.784 36.0669 142.976C37.6805 143.654 39.3948 143.798 41.075 143.835ZM47.7852 143.79C45.6808 144.943 43.4296 145.244 41.1213 145.246C38.8089 145.246 36.5522 144.94 34.4492 143.787C34.4492 144.438 34.4763 145.047 34.441 145.652C34.4125 146.144 34.6204 146.472 34.9943 146.744C35.6631 147.229 36.4231 147.501 37.2115 147.702C38.8782 148.126 40.572 148.232 42.2863 148.122C43.4024 148.05 44.4995 147.886 45.5666 147.549C46.1879 147.352 46.8023 147.12 47.3026 146.69C47.5024 146.517 47.7444 146.265 47.7635 146.033C47.8233 145.303 47.7852 144.565 47.7852 143.79ZM47.7784 148.132C45.6849 149.279 43.435 149.58 41.1281 149.581C38.8143 149.582 36.5563 149.279 34.4492 148.125C34.4492 148.733 34.4899 149.302 34.4383 149.862C34.3798 150.507 34.6789 150.904 35.186 151.208C35.3654 151.317 35.5489 151.423 35.7393 151.513C36.7738 151.999 37.8763 152.232 39.0019 152.371C40.2227 152.52 41.4462 152.528 42.671 152.426C43.8293 152.33 44.963 152.126 46.0506 151.709C46.5889 151.502 47.1055 151.254 47.5201 150.836C47.7077 150.647 47.8029 150.431 47.7974 150.156C47.7852 149.573 47.7947 148.99 47.7934 148.405C47.7934 148.325 47.7852 148.243 47.7784 148.132ZM34.4492 152.454C34.4492 152.974 34.4886 153.465 34.4396 153.946C34.3757 154.561 34.6694 154.943 35.1425 155.24C35.3641 155.379 35.5924 155.51 35.8303 155.617C36.8404 156.072 37.9103 156.299 39.0033 156.431C40.2322 156.581 41.4652 156.589 42.6996 156.486C43.8646 156.388 45.0079 156.18 46.0995 155.751C46.6283 155.545 47.1368 155.296 47.5392 154.877C47.7104 154.698 47.8029 154.497 47.7974 154.241C47.7879 153.726 47.7947 153.209 47.7934 152.693C47.7934 152.622 47.7798 152.553 47.7703 152.466C45.6794 153.621 43.4214 153.919 41.1158 153.918C38.8116 153.918 36.5549 153.619 34.4492 152.454Z" fill="#0D6784"/>
</g>
<rect x="14" y="100" width="179" height="30" fill="#F2F2F2"/>
<path d="M45.2763 114.81C45.2799 114.859 45.2799 114.909 45.2763 114.958C45.2275 115.621 45.1808 116.283 45.1238 116.944C45.117 117.018 45.0579 117.107 44.9961 117.153C43.9043 117.966 42.7356 118.646 41.4831 119.181C41.3979 119.218 41.2702 119.217 41.1837 119.18C39.9381 118.648 38.7721 117.974 37.6885 117.161C37.6185 117.109 37.5553 117.007 37.5443 116.922C37.3741 115.562 37.3741 114.201 37.5443 112.842C37.554 112.759 37.6075 112.661 37.6734 112.612C38.7666 111.793 39.9436 111.111 41.2029 110.574C41.2785 110.541 41.3925 110.541 41.468 110.574C42.726 111.113 43.9029 111.793 44.9989 112.612C45.0607 112.659 45.1183 112.748 45.1238 112.824C45.1808 113.485 45.2275 114.146 45.2763 114.81ZM40.748 117.795C41.0568 118.15 41.6138 118.156 41.9226 117.801C42.4801 117.155 43.0405 116.513 43.4635 115.766C43.7285 115.299 43.9414 114.811 43.9249 114.262C43.8837 112.875 42.7988 111.79 41.4131 111.74C39.5398 111.673 38.22 113.608 38.9548 115.259C39.3871 116.227 40.0641 117.009 40.748 117.795Z" fill="#0D6784"/>
<path d="M51.8285 119.128C51.9172 119.224 51.9037 119.379 51.8504 119.499C51.8343 119.535 51.8179 119.57 51.7996 119.604C51.7227 119.748 51.7131 119.884 51.8093 120.026C51.8505 120.088 51.8889 120.156 51.9068 120.228C51.9878 120.565 52.1457 120.821 52.5179 120.901C52.577 120.913 52.6415 121.041 52.6484 121.12C52.6676 121.317 52.6484 121.516 52.6566 121.714C52.6635 121.862 52.5948 121.955 52.4616 121.986C52.1704 122.05 51.9988 122.218 51.9507 122.514C51.9438 122.554 51.9274 122.595 51.9054 122.627C51.7186 122.892 51.7063 123.154 51.8752 123.441C51.9136 123.507 51.8642 123.64 51.8244 123.73C51.7928 123.8 51.7063 123.842 51.6582 123.907C51.4343 124.203 51.1858 124.342 50.8314 124.095C50.7738 124.055 50.6488 124.083 50.5664 124.111C50.3933 124.172 50.234 124.276 50.0582 124.32C49.8577 124.37 49.7671 124.488 49.7039 124.669C49.5941 124.985 49.5872 124.984 49.2507 124.984C49.2164 124.984 49.1821 124.979 49.1491 124.985C48.7769 125.047 48.5146 124.946 48.435 124.533C48.4226 124.467 48.3237 124.405 48.2523 124.367C48.1644 124.319 48.0545 124.308 47.968 124.257C47.6686 124.083 47.3775 124.01 47.0575 124.22C47.0067 124.253 46.8707 124.209 46.8075 124.158C46.6606 124.039 46.537 123.889 46.3969 123.758C46.2788 123.649 46.2527 123.531 46.3379 123.395C46.4862 123.16 46.5013 122.929 46.3269 122.698C46.2953 122.656 46.2761 122.601 46.2651 122.547C46.206 122.235 46.0302 122.05 45.7171 121.969C45.6402 121.948 45.5798 121.807 45.5427 121.709C45.5152 121.638 45.5482 121.546 45.5358 121.466C45.4768 121.096 45.5949 120.852 45.9877 120.765C46.0632 120.748 46.1346 120.636 46.1758 120.552C46.2513 120.401 46.2815 120.224 46.3694 120.082C46.4834 119.895 46.4903 119.729 46.3749 119.552C46.2404 119.343 46.2747 119.169 46.4752 119.025C46.4972 119.009 46.5178 118.989 46.5329 118.967C46.7608 118.651 47.0259 118.521 47.3912 118.768C47.4448 118.805 47.5601 118.777 47.637 118.75C47.7963 118.692 47.9433 118.593 48.1053 118.552C48.3292 118.496 48.4624 118.374 48.5119 118.153C48.5613 117.926 48.7028 117.835 48.9294 117.865C48.9692 117.871 49.0118 117.872 49.0516 117.865C49.4251 117.806 49.6874 117.908 49.7671 118.323C49.7808 118.393 49.8879 118.462 49.9662 118.5C50.1118 118.571 50.2848 118.596 50.4181 118.684C50.6309 118.823 50.8218 118.808 51.0237 118.684C51.1967 118.578 51.3382 118.606 51.4714 118.762C51.5813 118.893 51.7145 119.003 51.8285 119.128ZM50.7738 121.449C50.7793 120.512 50.0239 119.747 49.0955 119.751C48.1809 119.755 47.4352 120.498 47.4228 121.417C47.4118 122.323 48.1658 123.095 49.0722 123.102C50.0047 123.109 50.7683 122.367 50.7738 121.449Z" fill="#0D6784"/>
<path d="M39.7021 109.264C39.1069 109.096 38.7907 108.432 39.1314 107.916C39.4546 107.426 39.8525 106.994 40.4023 106.689C41.1988 106.25 41.9569 106.398 42.6505 106.941C43.3165 107.464 43.7395 108.17 44.0925 108.924C44.1007 108.94 44.0761 108.963 44.0583 108.968C43.3886 109.159 42.7106 109.303 42.075 109.555C41.5518 109.764 41.1041 109.752 40.5849 109.551C40.2976 109.44 40.0026 109.348 39.7021 109.264Z" fill="#0D6784"/>
<path d="M44.0004 120.745C44.0664 120.759 44.0948 120.838 44.0655 120.899C43.6964 121.661 43.269 122.361 42.5873 122.869C41.7564 123.488 40.8678 123.478 40.0466 122.844C39.5381 122.452 39.1707 121.956 38.863 121.403C38.6883 121.089 38.8855 120.729 39.2294 120.625C39.879 120.427 40.5245 120.215 41.1741 120.015C41.2579 119.989 41.365 119.967 41.4405 119.996C42.2741 120.316 43.1229 120.578 44.0004 120.745Z" fill="#0D6784"/>
<path d="M34.8952 114.292C34.8628 114.324 34.8061 114.311 34.7803 114.273C34.4753 113.824 34.2049 113.366 34.0159 112.87C33.8167 112.348 34.2844 111.883 34.6852 111.493C34.7734 111.407 34.8514 111.307 34.9186 111.19C35.0226 111.01 35.0836 110.827 35.1046 110.642C35.1577 110.175 35.2561 109.678 35.7175 109.587C36.1408 109.503 36.6656 109.466 37.1786 109.488C37.4082 109.499 37.5423 109.722 37.4881 109.945C37.3137 110.699 37.1434 111.455 36.9648 112.207C36.9456 112.287 36.903 112.376 36.8412 112.426C36.1395 112.994 35.483 113.607 34.8952 114.292Z" fill="#0D6784"/>
<path d="M45.08 109.634C45.0604 109.577 45.1033 109.519 45.1627 109.513C45.7593 109.453 46.3955 109.482 46.904 109.578C47.3808 109.667 47.5107 110.186 47.572 110.667C47.6134 110.992 47.7643 111.289 48.0126 111.512C48.4169 111.876 48.8546 112.338 48.6635 112.847C48.4799 113.337 48.2123 113.791 47.913 114.238C47.8764 114.292 47.7962 114.308 47.7498 114.262C47.1194 113.66 46.4877 113.059 45.86 112.453C45.7955 112.391 45.72 112.31 45.7076 112.228C45.5758 111.345 45.3698 110.48 45.08 109.634Z" fill="#0D6784"/>
<path d="M35.8014 120.19C35.3065 120.1 35.1664 119.559 35.0923 119.061C35.0352 118.677 34.8235 118.35 34.5197 118.138C34.1492 117.878 33.7878 117.561 33.9303 117.132C34.092 116.645 34.3843 116.055 34.7098 115.598C34.7767 115.503 34.9075 115.501 34.9914 115.58C35.5668 116.132 36.1381 116.689 36.7231 117.23C36.8646 117.36 36.9511 117.482 36.9909 117.68C37.1006 118.215 37.2216 118.748 37.3442 119.282C37.4652 119.809 37.1348 120.307 36.5949 120.28C36.335 120.267 36.0595 120.237 35.8014 120.19Z" fill="#0D6784"/>
<path d="M47.182 116.095C47.5473 115.762 48.1285 115.866 48.3575 116.304C48.4733 116.525 48.5914 116.751 48.7124 116.982C48.768 117.088 48.7059 117.216 48.5888 117.242C48.2771 117.309 48.0738 117.5 47.953 117.791C47.872 117.986 47.541 118.126 47.3473 118.048C46.9669 117.894 46.6277 117.953 46.3352 118.246C46.1759 118.405 46.0138 118.56 45.8614 118.727C45.6279 118.982 45.595 119.279 45.6925 119.603C45.8147 120.013 45.6265 120.384 45.1706 120.258C45.1138 120.241 45.0772 120.186 45.0936 120.129C45.2061 119.738 45.3259 119.355 45.4192 118.964C45.529 118.501 45.6059 118.032 45.7021 117.566C45.7158 117.497 45.7419 117.415 45.7913 117.37C46.248 116.948 46.707 116.528 47.182 116.095Z" fill="#0D6784"/>
<path d="M48.3499 107.681C48.3485 107.704 48.3526 107.766 48.3416 107.826C48.3101 108.012 48.1796 108.122 48.0038 108.117C47.828 108.113 47.7113 107.999 47.6879 107.807C47.6577 107.564 47.6591 107.313 47.5946 107.081C47.3556 106.231 46.6099 105.677 45.709 105.655C45.3711 105.648 45.2173 105.547 45.2173 105.33C45.2159 105.106 45.3835 104.997 45.7282 105C47.1771 105.01 48.3375 106.178 48.3499 107.681Z" fill="#0D6784"/>
<path d="M43.6022 110.946C43.0895 110.65 43.1837 109.887 43.7564 109.737C44.1083 109.644 44.4862 109.862 44.5816 110.213C44.7367 110.784 44.1146 111.241 43.6022 110.946Z" fill="#0D6784"/>
<path d="M38.8302 109.734C39.4261 109.875 39.5388 110.673 39.0085 110.979C38.6993 111.157 38.3921 111.334 38.084 111.512C37.9368 111.597 37.7473 111.466 37.793 111.302C37.9372 110.786 38.0841 110.27 38.2407 109.756C38.2572 109.701 38.356 109.624 38.3986 109.634C38.5425 109.667 38.6862 109.7 38.8302 109.734Z" fill="#0D6784"/>
<path d="M44.5817 119.551C44.4863 119.903 44.1079 120.122 43.7559 120.029C43.1837 119.878 43.0929 119.112 43.6057 118.817C44.1183 118.521 44.7367 118.98 44.5817 119.551Z" fill="#0D6784"/>
<path d="M39.0628 118.816C39.5749 119.111 39.4861 119.877 38.9146 120.029C38.5633 120.122 38.1868 119.909 38.0908 119.558C37.9344 118.987 38.5497 118.52 39.0628 118.816Z" fill="#0D6784"/>
<path d="M35.6636 114.41C36.0824 113.986 36.8 114.29 36.8 114.886C36.8 115.48 36.0886 115.783 35.6692 115.361C35.4111 115.102 35.4062 114.67 35.6636 114.41Z" fill="#0D6784"/>
<path d="M47.0498 114.447C47.2826 114.703 47.268 115.09 47.0246 115.336C46.6017 115.763 45.8696 115.468 45.8696 114.867C45.8696 114.848 45.8696 114.83 45.8696 114.811C45.8696 114.218 46.5523 113.91 46.9561 114.345C46.9874 114.379 47.0187 114.412 47.0498 114.447Z" fill="#0D6784"/>
<path d="M45.6457 106.019C46.6071 106.04 47.3665 106.847 47.3295 107.808C47.3212 108.028 47.1894 108.167 46.993 108.164C46.8062 108.161 46.6854 108.03 46.6744 107.815C46.64 107.112 46.2349 106.692 45.5743 106.675C45.3271 106.669 45.1678 106.535 45.1706 106.338C45.1733 106.136 45.3258 106.019 45.5839 106.018C45.6045 106.019 45.6251 106.019 45.6457 106.019Z" fill="#0D6784"/>
<path d="M33.7279 111.223C33.3214 111.221 33.0028 110.904 33 110.499C32.9973 110.084 33.3255 109.752 33.7334 109.755C34.1289 109.756 34.4626 110.09 34.4681 110.484C34.4722 110.892 34.1399 111.224 33.7279 111.223Z" fill="#0D6784"/>
<path d="M49.6682 110.482C49.671 110.892 49.3592 111.217 48.9582 111.223C48.5435 111.229 48.2084 110.91 48.2015 110.5C48.1947 110.101 48.5394 109.753 48.9404 109.755C49.34 109.755 49.6641 110.08 49.6682 110.482Z" fill="#0D6784"/>
<path d="M33 119.27C33 118.858 33.331 118.533 33.743 118.54C34.1426 118.547 34.4695 118.878 34.4681 119.275C34.4667 119.67 34.1358 120.002 33.7389 120.007C33.3296 120.012 33 119.682 33 119.27Z" fill="#0D6784"/>
<path d="M45.6581 108.196C45.3669 108.197 45.1348 107.966 45.139 107.681C45.1431 107.407 45.3779 107.175 45.6499 107.173C45.9314 107.171 46.1745 107.416 46.1704 107.694C46.1649 107.973 45.9396 108.194 45.6581 108.196Z" fill="#0D6784"/>
<path d="M41.3444 115.848C40.5026 115.852 39.8022 115.155 39.8063 114.318C39.8118 113.485 40.5026 112.799 41.3348 112.799C42.1684 112.799 42.8579 113.486 42.862 114.32C42.8647 115.15 42.1753 115.844 41.3444 115.848Z" fill="#0D6784"/>
<rect x="14" y="199" width="179" height="30" fill="#DBF0F6"/>
<g clip-path="url(#clip2_427_833)">
<path d="M41.802 204C42.1342 204.051 42.4693 204.092 42.8001 204.156C44.2782 204.44 45.5731 205.095 46.6919 206.099C48.0408 207.31 48.8913 208.808 49.2775 210.58C49.6225 212.161 49.374 213.645 48.6428 215.075C47.8491 216.625 46.8311 218.018 45.7193 219.349C44.3563 220.98 42.8669 222.488 41.3022 223.926C41.278 223.947 41.2525 223.967 41.2142 224C41.0807 223.878 40.9444 223.76 40.8123 223.637C38.9538 221.893 37.1889 220.061 35.6569 218.02C34.7766 216.848 33.98 215.626 33.4291 214.254C32.9861 213.152 32.9038 212.025 33.1011 210.866C33.3468 209.418 33.9374 208.122 34.8731 206.996C36.0658 205.56 37.5779 204.619 39.4038 204.203C39.8071 204.111 40.2203 204.067 40.6306 204C41.0211 204 41.4115 204 41.802 204ZM41.2255 217.209C44.2299 217.219 46.6792 214.782 46.6877 211.774C46.6962 208.769 44.264 206.319 41.2568 206.303C38.2609 206.287 35.7988 208.73 35.7832 211.733C35.769 214.747 38.2041 217.199 41.2255 217.209Z" fill="#0D6784"/>
<path d="M42.2844 213.025C42.2844 213.817 42.2844 214.601 42.2844 215.399C41.7718 215.399 41.2806 215.399 40.7609 215.399C40.7609 215.328 40.7609 215.259 40.7609 215.19C40.7609 213.114 40.7623 211.037 40.7581 208.961C40.7581 208.801 40.7936 208.741 40.9668 208.72C41.8087 208.619 42.6521 208.566 43.4969 208.651C44.2566 208.728 44.9353 208.975 45.3442 209.682C46.0527 210.913 45.418 212.459 44.018 212.856C43.6063 212.972 43.1604 212.976 42.7302 213.023C42.5897 213.037 42.4463 213.025 42.2844 213.025ZM42.2915 209.817C42.2915 210.499 42.2915 211.15 42.2915 211.812C42.7203 211.887 43.1306 211.883 43.5225 211.703C43.9186 211.52 44.143 211.104 44.089 210.665C44.0322 210.188 43.7823 209.887 43.3124 209.824C42.9844 209.782 42.645 209.817 42.2915 209.817Z" fill="#0D6784"/>
<path d="M37.9056 215.399C37.9056 215.319 37.9056 215.248 37.9056 215.178C37.9056 213.084 37.9084 210.99 37.8999 208.897C37.8985 208.694 37.9567 208.646 38.1498 208.653C38.5729 208.667 38.9946 208.657 39.4348 208.657C39.4348 210.909 39.4348 213.147 39.4348 215.399C38.9322 215.399 38.4295 215.399 37.9056 215.399Z" fill="#0D6784"/>
</g>
<rect x="14" y="166" width="179" height="30" fill="#F2F2F2"/>
<path d="M37.2733 183.676C37.158 184.098 37.4768 184.511 37.8634 184.715C39.2738 185.459 39.8688 186.932 39.6226 188.272C39.3371 189.823 37.9561 190.985 36.3876 190.998C34.7675 191.011 33.3641 189.869 33.0614 188.291C32.778 186.807 33.5346 185.132 35.2851 184.501C35.4046 184.458 35.495 184.35 35.495 184.223C35.495 182.077 35.4933 179.93 35.4984 177.782C35.4984 177.612 35.4554 177.533 35.2834 177.478C33.8474 177.022 32.8826 175.571 33.0115 174.079C33.1474 172.511 34.3255 171.259 35.8682 171.041C37.9372 170.75 39.7636 172.387 39.6742 174.468C39.6239 175.648 38.9756 176.703 37.8933 177.275C37.5013 177.482 37.2011 177.86 37.2011 178.303C37.2011 178.871 37.2011 179.44 37.2011 180.011C37.2011 180.441 37.6484 180.693 38.0386 180.513C38.5855 180.262 39.1634 180.166 39.7671 180.166C42.4672 180.171 45.1656 180.168 47.8658 180.169C48.1358 180.169 48.4058 180.135 48.5744 179.917C48.6965 179.76 48.7997 179.547 48.81 179.354C48.8426 178.811 48.8151 178.266 48.8272 177.72C48.8306 177.571 48.7601 177.529 48.6414 177.49C47.2071 177.012 46.2956 175.725 46.3282 174.234C46.3644 172.545 47.7557 171.108 49.4498 171.006C51.1868 170.901 52.7295 172.153 52.9599 173.856C53.1801 175.486 52.2651 176.962 50.707 177.493C50.5863 177.535 50.5074 177.65 50.5077 177.778C50.5086 178.274 50.5118 178.772 50.5057 179.268C50.4971 180.163 50.1428 180.888 49.3999 181.404C48.9974 181.685 48.5468 181.829 48.0515 181.829C45.2946 181.829 42.5377 181.829 39.7825 181.833C38.5529 181.834 37.576 182.55 37.2733 183.676ZM49.6596 175.994C50.5814 175.999 51.3192 175.268 51.3244 174.344C51.3295 173.426 50.5952 172.685 49.6733 172.68C48.7549 172.674 48.0154 173.409 48.012 174.331C48.0068 175.254 48.7343 175.989 49.6596 175.994Z" fill="#0D6784"/>
<line x1="14" y1="21.5" x2="64" y2="21.5" stroke="white" stroke-dasharray="2 2"/>
<line x1="143" y1="21.5" x2="193" y2="21.5" stroke="white" stroke-dasharray="2 2"/>
<defs>
<clipPath id="clip0_427_833">
<rect x="33" y="39" width="16.6667" height="20" rx="1" fill="white"/>
</clipPath>
<clipPath id="clip1_427_833">
<rect x="33" y="138" width="16.2439" height="20" rx="1" fill="white"/>
</clipPath>
<clipPath id="clip2_427_833">
<rect x="33" y="204" width="16.4305" height="20" rx="1" fill="white"/>
</clipPath>
</defs>
</svg>
