<svg width="28" height="28" viewBox="0 0 28 28" fill="none" xmlns="http://www.w3.org/2000/svg">
<rect x="0.5" y="0.5" width="27" height="27" rx="3.5" fill="#DFE8F0" stroke="#D0DCE6"/>
<path d="M14.1028 4.03419C13.6198 4.1308 13.1609 4.46893 12.9435 4.88757L12.8308 5.10494V9.54896V14.001L12.9677 14.2587C13.6359 15.4824 15.6003 15.3455 16.0592 14.0413C16.1316 13.8481 16.1316 13.5502 16.1316 9.53286V5.21765L16.0028 4.94393C15.6727 4.25156 14.8918 3.88123 14.1028 4.03419Z" fill="#0F63AC"/>
<path d="M17.1216 7.27066V8.7359L17.5 8.91301C18.8686 9.57318 20.0279 10.8049 20.6398 12.2541C21.0745 13.2685 21.2194 14.0897 21.1872 15.2812C21.1711 15.893 21.147 16.1023 21.0584 16.4968C20.7444 17.8655 20.1084 18.9926 19.1343 19.9265C17.7898 21.2146 16.0911 21.8586 14.2475 21.7862C13.2331 21.7459 12.4441 21.5366 11.5102 21.0697C9.69073 20.168 8.39456 18.4854 7.93566 16.4163C7.85516 16.0701 7.84711 15.893 7.84711 15.0477C7.84711 14.1943 7.85516 14.0252 7.93566 13.6227C8.36235 11.5134 9.61022 9.8308 11.3733 8.99352L11.7678 8.8003V7.32701V5.85372L11.478 5.95033C9.13523 6.68295 7.21915 8.30116 6.09204 10.4829C5.50433 11.6342 5.15815 12.8579 5.03739 14.2265C4.82807 16.5451 5.50433 18.9201 6.89712 20.7798C8.43481 22.8408 10.6327 24.137 13.2089 24.5234C13.853 24.62 15.1491 24.62 15.8093 24.5234C18.7076 24.0887 21.1631 22.4463 22.6605 19.9587C24.0211 17.6883 24.3592 14.9189 23.6105 12.2863C22.8215 9.54902 20.8169 7.25456 18.2809 6.19186C17.8783 6.02279 17.2423 5.80542 17.1538 5.80542C17.1377 5.80542 17.1216 6.37702 17.1216 7.27066Z" fill="#0F63AC"/>
</svg>
