<svg width="248" height="48" viewBox="0 0 248 48" fill="none" xmlns="http://www.w3.org/2000/svg">
<g clip-path="url(#clip0_548_298)">
<path d="M24.0065 23.9818C23.9921 22.2956 23.9841 20.6077 24.1137 18.9246C24.1873 17.9534 24.3297 16.9919 24.6385 16.0624C25.2656 14.1793 26.5919 13.0562 28.4686 12.5266C29.8861 12.1266 31.3404 12.0258 32.8043 12.005C34.4538 11.9842 36.1017 12.0098 37.724 12.3602C39.1175 12.661 40.3814 13.2018 41.3061 14.3489C42.0133 15.2272 42.3493 16.2608 42.5493 17.3503C42.6325 17.8015 42.7092 18.2542 42.722 18.7134C42.7348 19.2254 42.3717 19.6285 41.8837 19.6621C41.3909 19.6973 40.9814 19.3262 40.9238 18.803C40.8662 18.291 40.7942 17.7823 40.6902 17.2783C40.3478 15.6064 39.3383 14.6001 37.684 14.2081C36.7592 13.9889 35.8217 13.8753 34.8778 13.8417C33.1355 13.7793 31.3932 13.7697 29.6685 14.0993C29.2269 14.1841 28.7982 14.3105 28.379 14.4737C27.1135 14.9664 26.4783 15.9552 26.1871 17.2255C25.9696 18.179 25.8848 19.1502 25.856 20.1229C25.7792 22.7083 25.7792 25.297 25.856 27.8824C25.8848 28.8359 25.9824 29.7847 26.1743 30.7254C26.5183 32.4053 27.5311 33.3988 29.1805 33.7924C30.6221 34.1364 32.0876 34.1924 33.5611 34.1892C34.9402 34.186 36.3145 34.1284 37.66 33.7908C37.9224 33.7252 38.1815 33.6404 38.4343 33.5444C39.6663 33.082 40.3366 32.1477 40.6422 30.9062C40.7814 30.3414 40.8582 29.7671 40.9238 29.1911C40.9814 28.6807 41.3765 28.316 41.8613 28.3368C42.3589 28.3576 42.7556 28.7687 42.7188 29.2919C42.6373 30.4742 42.4293 31.6309 41.9029 32.7077C41.1014 34.3476 39.6918 35.1651 37.9928 35.5795C36.7032 35.8931 35.3865 35.9794 34.0634 35.9954C32.5067 36.0146 30.9532 35.9906 29.4173 35.6963C28.3422 35.4899 27.3135 35.1603 26.4239 34.4947C25.1776 33.5604 24.6225 32.2373 24.3361 30.7654C24.0769 29.4359 24.0417 28.0856 24.0113 26.7385C23.9905 25.8201 24.0065 24.9018 24.0065 23.9818Z" fill="#004B64"/>
<path d="M46.0979 23.2584C46.0419 23.0792 45.9235 23.0088 45.8355 22.9192C45.3076 22.3864 44.7732 21.8616 44.2453 21.3289C43.8469 20.9257 43.8357 20.3705 44.2117 20.0026C44.578 19.6442 45.1124 19.665 45.5172 20.065C46.6643 21.1977 47.8082 22.3304 48.9521 23.4679C49.3553 23.8695 49.3617 24.4151 48.9553 24.8199C47.8002 25.9718 46.6419 27.1173 45.4788 28.2596C45.0916 28.6404 44.562 28.6372 44.1989 28.2724C43.8437 27.914 43.8453 27.3669 44.2181 26.9877C44.7636 26.4325 45.3188 25.8886 45.8659 25.3366C45.9315 25.2694 46.0739 25.215 46.0179 25.0998C45.9779 25.0182 45.8451 25.0614 45.7556 25.0598C41.9238 25.0582 38.0905 25.0582 34.2587 25.0598C34.0619 25.0598 33.8651 25.0582 33.6716 25.0118C33.262 24.911 32.9676 24.5063 32.998 24.0887C33.03 23.6391 33.366 23.2952 33.8092 23.2632C33.9291 23.2552 34.0523 23.2584 34.1739 23.2584C38.0249 23.2584 41.8758 23.2584 45.7268 23.2584C45.8435 23.2584 45.9619 23.2584 46.0979 23.2584Z" fill="#004B64"/>
</g>
<path d="M58.4384 29.5V18.3H65.3664V19.404H59.7824V23.308H64.8864V24.396H59.7824V28.396H65.3664V29.5H58.4384ZM66.5896 29.5L69.3416 25.532L66.5896 21.564H68.0456L70.2696 24.844L72.5096 21.564H73.9496L71.1976 25.532L73.9496 29.5H72.5096L70.2696 26.22L68.0456 29.5H66.5896ZM76.1744 19.804C75.9077 19.804 75.6837 19.7187 75.5024 19.548C75.3317 19.3667 75.2464 19.1427 75.2464 18.876C75.2464 18.62 75.3317 18.4067 75.5024 18.236C75.6837 18.0653 75.9077 17.98 76.1744 17.98C76.4304 17.98 76.6491 18.0653 76.8304 18.236C77.0117 18.4067 77.1024 18.62 77.1024 18.876C77.1024 19.1427 77.0117 19.3667 76.8304 19.548C76.6491 19.7187 76.4304 19.804 76.1744 19.804ZM75.5024 29.5V21.564H76.8464V29.5H75.5024ZM82.3225 29.5C81.5972 29.5 81.0265 29.324 80.6105 28.972C80.1945 28.62 79.9865 27.9853 79.9865 27.068V22.7H78.6105V21.564H79.9865L80.1625 19.66H81.3305V21.564H83.6665V22.7H81.3305V27.068C81.3305 27.5693 81.4319 27.9107 81.6345 28.092C81.8372 28.2627 82.1945 28.348 82.7065 28.348H83.5385V29.5H82.3225Z" fill="#004B64"/>
<path d="M220.5 17L227.5 24L220.5 31" stroke="#004B64" stroke-width="1.5" stroke-linecap="round" stroke-linejoin="round"/>
<defs>
<clipPath id="clip0_548_298">
<rect width="25.2559" height="24" fill="white" transform="translate(23.9985 12)"/>
</clipPath>
</defs>
</svg>
