<svg width="1086" height="91" viewBox="0 0 1086 91" fill="none" xmlns="http://www.w3.org/2000/svg">
<path d="M1086 89.5H0V90.5H1086V89.5Z" fill="url(#paint0_linear_438_133)"/>
<path d="M469.517 50V32.5455H473.207V39.7472H480.699V32.5455H484.381V50H480.699V42.7898H473.207V50H469.517ZM503.463 41.2727C503.463 43.1761 503.102 44.7955 502.381 46.1307C501.665 47.4659 500.688 48.4858 499.449 49.1903C498.216 49.8892 496.83 50.2386 495.29 50.2386C493.739 50.2386 492.347 49.8864 491.114 49.1818C489.881 48.4773 488.906 47.4574 488.19 46.1222C487.474 44.7869 487.116 43.1705 487.116 41.2727C487.116 39.3693 487.474 37.75 488.19 36.4148C488.906 35.0795 489.881 34.0625 491.114 33.3636C492.347 32.6591 493.739 32.3068 495.29 32.3068C496.83 32.3068 498.216 32.6591 499.449 33.3636C500.688 34.0625 501.665 35.0795 502.381 36.4148C503.102 37.75 503.463 39.3693 503.463 41.2727ZM499.722 41.2727C499.722 40.0398 499.537 39 499.168 38.1534C498.804 37.3068 498.29 36.6648 497.625 36.2273C496.96 35.7898 496.182 35.571 495.29 35.571C494.398 35.571 493.619 35.7898 492.955 36.2273C492.29 36.6648 491.773 37.3068 491.403 38.1534C491.04 39 490.858 40.0398 490.858 41.2727C490.858 42.5057 491.04 43.5455 491.403 44.392C491.773 45.2386 492.29 45.8807 492.955 46.3182C493.619 46.7557 494.398 46.9744 495.29 46.9744C496.182 46.9744 496.96 46.7557 497.625 46.3182C498.29 45.8807 498.804 45.2386 499.168 44.392C499.537 43.5455 499.722 42.5057 499.722 41.2727ZM515.665 37.5653C515.597 36.8778 515.305 36.3437 514.788 35.9631C514.271 35.5824 513.569 35.392 512.683 35.392C512.08 35.392 511.572 35.4773 511.157 35.6477C510.742 35.8125 510.424 36.0426 510.202 36.3381C509.987 36.6335 509.879 36.9688 509.879 37.3438C509.867 37.6562 509.933 37.929 510.075 38.1619C510.222 38.3949 510.424 38.5966 510.68 38.767C510.935 38.9318 511.231 39.0767 511.566 39.2017C511.901 39.321 512.259 39.4233 512.64 39.5085L514.208 39.8835C514.969 40.054 515.668 40.2812 516.305 40.5653C516.941 40.8494 517.492 41.1989 517.958 41.6136C518.424 42.0284 518.785 42.517 519.04 43.0795C519.302 43.642 519.435 44.2869 519.441 45.0142C519.435 46.0824 519.163 47.0085 518.623 47.7926C518.089 48.571 517.316 49.1761 516.305 49.608C515.299 50.0341 514.086 50.2472 512.665 50.2472C511.256 50.2472 510.029 50.0312 508.984 49.5994C507.944 49.1676 507.131 48.5284 506.546 47.6818C505.967 46.8295 505.663 45.7756 505.634 44.5199H509.205C509.245 45.1051 509.413 45.5937 509.708 45.9858C510.009 46.3722 510.41 46.6648 510.91 46.8636C511.415 47.0568 511.987 47.1534 512.623 47.1534C513.248 47.1534 513.79 47.0625 514.251 46.8807C514.717 46.6989 515.077 46.446 515.333 46.1222C515.589 45.7983 515.717 45.4261 515.717 45.0057C515.717 44.6136 515.6 44.2841 515.367 44.017C515.14 43.75 514.805 43.5227 514.362 43.3352C513.924 43.1477 513.387 42.9773 512.751 42.8239L510.85 42.3466C509.379 41.9886 508.217 41.429 507.364 40.6676C506.512 39.9062 506.089 38.8807 506.094 37.5909C506.089 36.5341 506.37 35.6108 506.938 34.821C507.512 34.0312 508.299 33.4148 509.299 32.9716C510.299 32.5284 511.435 32.3068 512.708 32.3068C514.004 32.3068 515.134 32.5284 516.1 32.9716C517.072 33.4148 517.827 34.0312 518.367 34.821C518.907 35.6108 519.185 36.5256 519.202 37.5653H515.665ZM525.614 32.5455V50H521.923V32.5455H525.614ZM528.65 50V32.5455H540.411V35.5881H532.34V39.7472H539.806V42.7898H532.34V46.9574H540.445V50H528.65ZM543.345 50V32.5455H550.232C551.55 32.5455 552.675 32.7812 553.607 33.2528C554.544 33.7187 555.257 34.3807 555.746 35.2386C556.24 36.0909 556.487 37.0937 556.487 38.2472C556.487 39.4062 556.237 40.4034 555.737 41.2386C555.237 42.0682 554.513 42.7045 553.564 43.1477C552.621 43.5909 551.479 43.8125 550.138 43.8125H545.527V40.8466H549.541C550.246 40.8466 550.831 40.75 551.297 40.5568C551.763 40.3636 552.109 40.0739 552.337 39.6875C552.57 39.3011 552.686 38.821 552.686 38.2472C552.686 37.6676 552.57 37.179 552.337 36.7812C552.109 36.3835 551.76 36.0824 551.288 35.8778C550.822 35.6676 550.234 35.5625 549.524 35.5625H547.036V50H543.345ZM552.771 42.0568L557.109 50H553.036L548.791 42.0568H552.771ZM557.346 32.5455H561.479L565.46 40.0625H565.63L569.61 32.5455H573.744L567.377 43.8295V50H563.712V43.8295L557.346 32.5455Z" fill="#004B64"/>
<path d="M392.696 66.378H391.298L394.439 57.6507H395.96L399.101 66.378H397.703L395.236 59.2359H395.168L392.696 66.378ZM392.93 62.9604H397.464V64.0683H392.93V62.9604ZM410.786 60.4888H409.456C409.405 60.2047 409.31 59.9547 409.17 59.7388C409.031 59.5229 408.861 59.3396 408.659 59.1891C408.457 59.0385 408.232 58.9249 407.982 58.8482C407.734 58.7715 407.472 58.7331 407.193 58.7331C406.69 58.7331 406.24 58.8595 405.842 59.1124C405.447 59.3652 405.135 59.7359 404.905 60.2246C404.678 60.7132 404.564 61.3098 404.564 62.0144C404.564 62.7246 404.678 63.324 404.905 63.8126C405.135 64.3013 405.449 64.6706 405.847 64.9206C406.244 65.1706 406.692 65.2956 407.189 65.2956C407.464 65.2956 407.726 65.2587 407.973 65.1848C408.223 65.1081 408.449 64.9959 408.651 64.8482C408.852 64.7004 409.023 64.52 409.162 64.307C409.304 64.0911 409.402 63.8439 409.456 63.5655L410.786 63.5698C410.714 63.9987 410.577 64.3936 410.372 64.7544C410.17 65.1124 409.911 65.422 409.592 65.6834C409.277 65.9419 408.916 66.1422 408.51 66.2842C408.104 66.4263 407.661 66.4973 407.18 66.4973C406.425 66.4973 405.751 66.3183 405.161 65.9604C404.57 65.5996 404.104 65.084 403.763 64.4135C403.425 63.743 403.256 62.9433 403.256 62.0144C403.256 61.0825 403.426 60.2828 403.767 59.6152C404.108 58.9448 404.574 58.4305 405.165 58.0726C405.756 57.7118 406.428 57.5314 407.18 57.5314C407.643 57.5314 408.075 57.5982 408.476 57.7317C408.879 57.8624 409.241 58.0555 409.562 58.3112C409.884 58.5641 410.149 58.8737 410.359 59.2402C410.57 59.6038 410.712 60.02 410.786 60.4888ZM415.016 66.5101C414.402 66.5101 413.867 66.3695 413.409 66.0882C412.952 65.807 412.597 65.4135 412.344 64.9078C412.091 64.4021 411.965 63.8112 411.965 63.1351C411.965 62.4561 412.091 61.8624 412.344 61.3538C412.597 60.8453 412.952 60.4504 413.409 60.1692C413.867 59.8879 414.402 59.7473 415.016 59.7473C415.63 59.7473 416.165 59.8879 416.623 60.1692C417.08 60.4504 417.435 60.8453 417.688 61.3538C417.941 61.8624 418.067 62.4561 418.067 63.1351C418.067 63.8112 417.941 64.4021 417.688 64.9078C417.435 65.4135 417.08 65.807 416.623 66.0882C416.165 66.3695 415.63 66.5101 415.016 66.5101ZM415.02 65.4405C415.418 65.4405 415.748 65.3354 416.009 65.1251C416.27 64.9149 416.463 64.6351 416.588 64.2857C416.716 63.9362 416.78 63.5513 416.78 63.1308C416.78 62.7132 416.716 62.3297 416.588 61.9803C416.463 61.628 416.27 61.3453 416.009 61.1323C415.748 60.9192 415.418 60.8126 415.02 60.8126C414.62 60.8126 414.287 60.9192 414.023 61.1323C413.762 61.3453 413.567 61.628 413.439 61.9803C413.314 62.3297 413.252 62.7132 413.252 63.1308C413.252 63.5513 413.314 63.9362 413.439 64.2857C413.567 64.6351 413.762 64.9149 414.023 65.1251C414.287 65.3354 414.62 65.4405 415.02 65.4405ZM419.489 66.378V59.8325H420.712V60.8979H420.793C420.93 60.5371 421.153 60.2558 421.462 60.0541C421.772 59.8496 422.143 59.7473 422.575 59.7473C423.012 59.7473 423.379 59.8496 423.674 60.0541C423.972 60.2587 424.192 60.5399 424.335 60.8979H424.403C424.559 60.5484 424.808 60.27 425.148 60.0626C425.489 59.8524 425.896 59.7473 426.367 59.7473C426.961 59.7473 427.445 59.9334 427.82 60.3055C428.198 60.6777 428.387 61.2388 428.387 61.9888V66.378H427.113V62.1081C427.113 61.6649 426.992 61.3439 426.751 61.145C426.509 60.9462 426.221 60.8467 425.886 60.8467C425.471 60.8467 425.148 60.9746 424.918 61.2303C424.688 61.4831 424.573 61.8084 424.573 62.2061V66.378H423.303V62.0271C423.303 61.672 423.192 61.3865 422.971 61.1706C422.749 60.9547 422.461 60.8467 422.106 60.8467C421.864 60.8467 421.641 60.9107 421.437 61.0385C421.235 61.1635 421.072 61.3382 420.947 61.5626C420.825 61.7871 420.763 62.047 420.763 62.3425V66.378H419.489ZM430.095 68.8325V59.8325H431.339V60.8936H431.446C431.52 60.7573 431.626 60.5996 431.765 60.4206C431.904 60.2416 432.098 60.0854 432.345 59.9519C432.592 59.8155 432.919 59.7473 433.325 59.7473C433.853 59.7473 434.325 59.8808 434.74 60.1479C435.154 60.4149 435.48 60.7999 435.716 61.3027C435.954 61.8055 436.074 62.4107 436.074 63.118C436.074 63.8254 435.956 64.432 435.72 64.9376C435.484 65.4405 435.16 65.8283 434.748 66.101C434.336 66.3709 433.866 66.5058 433.338 66.5058C432.94 66.5058 432.615 66.4391 432.362 66.3055C432.112 66.172 431.916 66.0158 431.774 65.8368C431.632 65.6578 431.522 65.4987 431.446 65.3595H431.369V68.8325H430.095ZM431.343 63.1053C431.343 63.5655 431.41 63.9689 431.544 64.3155C431.677 64.6621 431.87 64.9334 432.123 65.1294C432.376 65.3226 432.686 65.4192 433.052 65.4192C433.433 65.4192 433.751 65.3183 434.007 65.1166C434.262 64.9121 434.456 64.6351 434.586 64.2857C434.72 63.9362 434.787 63.5428 434.787 63.1053C434.787 62.6734 434.721 62.2857 434.591 61.9419C434.463 61.5982 434.27 61.3269 434.011 61.128C433.755 60.9291 433.436 60.8297 433.052 60.8297C432.683 60.8297 432.37 60.9249 432.115 61.1152C431.862 61.3055 431.67 61.5712 431.539 61.9121C431.409 62.253 431.343 62.6507 431.343 63.1053ZM438.775 57.6507V66.378H437.501V57.6507H438.775ZM443.31 66.5101C442.665 66.5101 442.11 66.3723 441.644 66.0967C441.181 65.8183 440.823 65.4277 440.57 64.9249C440.32 64.4192 440.195 63.8269 440.195 63.1479C440.195 62.4774 440.32 61.8865 440.57 61.3751C440.823 60.8638 441.175 60.4646 441.627 60.1777C442.082 59.8908 442.613 59.7473 443.221 59.7473C443.59 59.7473 443.948 59.8084 444.295 59.9305C444.641 60.0527 444.952 60.2445 445.228 60.5058C445.504 60.7672 445.721 61.1067 445.88 61.5243C446.039 61.9391 446.119 62.4433 446.119 63.0371V63.4888H440.915V62.5342H444.87C444.87 62.199 444.802 61.9021 444.665 61.6436C444.529 61.3823 444.337 61.1763 444.09 61.0257C443.846 60.8751 443.559 60.7999 443.229 60.7999C442.871 60.7999 442.559 60.8879 442.292 61.0641C442.028 61.2374 441.823 61.4646 441.678 61.7459C441.536 62.0243 441.465 62.3269 441.465 62.6536V63.3993C441.465 63.8368 441.542 64.209 441.695 64.5158C441.852 64.8226 442.069 65.057 442.347 65.2189C442.626 65.378 442.951 65.4575 443.323 65.4575C443.565 65.4575 443.785 65.4234 443.984 65.3553C444.183 65.2842 444.354 65.1791 444.499 65.0399C444.644 64.9007 444.755 64.7288 444.832 64.5243L446.038 64.7416C445.941 65.0967 445.768 65.4078 445.518 65.6749C445.271 65.9391 444.96 66.145 444.585 66.2928C444.212 66.4376 443.788 66.5101 443.31 66.5101ZM450.588 59.8325V60.8553H447.012V59.8325H450.588ZM447.971 58.2644H449.245V64.4561C449.245 64.7033 449.282 64.8894 449.356 65.0144C449.43 65.1365 449.525 65.2203 449.642 65.2658C449.761 65.3084 449.89 65.3297 450.029 65.3297C450.132 65.3297 450.221 65.3226 450.298 65.3084C450.375 65.2942 450.434 65.2828 450.477 65.2743L450.707 66.3269C450.633 66.3553 450.528 66.3837 450.392 66.4121C450.255 66.4433 450.085 66.4604 449.88 66.4632C449.545 66.4689 449.233 66.4092 448.943 66.2842C448.653 66.1592 448.419 65.9661 448.24 65.7047C448.061 65.4433 447.971 65.1152 447.971 64.7203V58.2644ZM454.748 66.5101C454.103 66.5101 453.548 66.3723 453.082 66.0967C452.619 65.8183 452.261 65.4277 452.008 64.9249C451.758 64.4192 451.633 63.8269 451.633 63.1479C451.633 62.4774 451.758 61.8865 452.008 61.3751C452.261 60.8638 452.613 60.4646 453.065 60.1777C453.519 59.8908 454.05 59.7473 454.658 59.7473C455.028 59.7473 455.386 59.8084 455.732 59.9305C456.079 60.0527 456.39 60.2445 456.665 60.5058C456.941 60.7672 457.158 61.1067 457.317 61.5243C457.477 61.9391 457.556 62.4433 457.556 63.0371V63.4888H452.353V62.5342H456.308C456.308 62.199 456.239 61.9021 456.103 61.6436C455.967 61.3823 455.775 61.1763 455.528 61.0257C455.283 60.8751 454.996 60.7999 454.667 60.7999C454.309 60.7999 453.996 60.8879 453.729 61.0641C453.465 61.2374 453.261 61.4646 453.116 61.7459C452.974 62.0243 452.903 62.3269 452.903 62.6536V63.3993C452.903 63.8368 452.979 64.209 453.133 64.5158C453.289 64.8226 453.506 65.057 453.785 65.2189C454.063 65.378 454.388 65.4575 454.761 65.4575C455.002 65.4575 455.222 65.4234 455.421 65.3553C455.62 65.2842 455.792 65.1791 455.937 65.0399C456.082 64.9007 456.192 64.7288 456.269 64.5243L457.475 64.7416C457.379 65.0967 457.205 65.4078 456.955 65.6749C456.708 65.9391 456.397 66.145 456.022 66.2928C455.65 66.4376 455.225 66.5101 454.748 66.5101ZM462.248 66.378V57.6507H465.359C466.038 57.6507 466.6 57.7743 467.046 58.0215C467.492 58.2686 467.826 58.6067 468.048 59.0357C468.269 59.4618 468.38 59.9419 468.38 60.476C468.38 61.0129 468.268 61.4959 468.043 61.9249C467.822 62.351 467.487 62.6891 467.038 62.9391C466.592 63.1862 466.031 63.3098 465.354 63.3098H463.215V62.1933H465.235C465.664 62.1933 466.012 62.1195 466.279 61.9717C466.546 61.8212 466.742 61.6166 466.867 61.3581C466.992 61.0996 467.055 60.8055 467.055 60.476C467.055 60.1465 466.992 59.8538 466.867 59.5982C466.742 59.3425 466.545 59.1422 466.275 58.9973C466.008 58.8524 465.656 58.78 465.218 58.78H463.565V66.378H462.248ZM469.821 66.378V59.8325H471.053V60.8723H471.121C471.24 60.52 471.451 60.243 471.752 60.0413C472.056 59.8368 472.4 59.7345 472.783 59.7345C472.863 59.7345 472.956 59.7374 473.064 59.743C473.175 59.7487 473.262 59.7558 473.324 59.7644V60.9831C473.273 60.9689 473.182 60.9533 473.051 60.9362C472.921 60.9163 472.79 60.9064 472.659 60.9064C472.358 60.9064 472.09 60.9703 471.854 61.0982C471.621 61.2232 471.436 61.3979 471.3 61.6223C471.164 61.8439 471.096 62.0967 471.096 62.3808V66.378H469.821ZM476.95 66.5101C476.336 66.5101 475.8 66.3695 475.343 66.0882C474.886 65.807 474.531 65.4135 474.278 64.9078C474.025 64.4021 473.898 63.8112 473.898 63.1351C473.898 62.4561 474.025 61.8624 474.278 61.3538C474.531 60.8453 474.886 60.4504 475.343 60.1692C475.8 59.8879 476.336 59.7473 476.95 59.7473C477.563 59.7473 478.099 59.8879 478.556 60.1692C479.013 60.4504 479.369 60.8453 479.621 61.3538C479.874 61.8624 480.001 62.4561 480.001 63.1351C480.001 63.8112 479.874 64.4021 479.621 64.9078C479.369 65.4135 479.013 65.807 478.556 66.0882C478.099 66.3695 477.563 66.5101 476.95 66.5101ZM476.954 65.4405C477.352 65.4405 477.681 65.3354 477.942 65.1251C478.204 64.9149 478.397 64.6351 478.522 64.2857C478.65 63.9362 478.714 63.5513 478.714 63.1308C478.714 62.7132 478.65 62.3297 478.522 61.9803C478.397 61.628 478.204 61.3453 477.942 61.1323C477.681 60.9192 477.352 60.8126 476.954 60.8126C476.553 60.8126 476.221 60.9192 475.957 61.1323C475.695 61.3453 475.501 61.628 475.373 61.9803C475.248 62.3297 475.185 62.7132 475.185 63.1308C475.185 63.5513 475.248 63.9362 475.373 64.2857C475.501 64.6351 475.695 64.9149 475.957 65.1251C476.221 65.3354 476.553 65.4405 476.954 65.4405ZM483.873 66.5058C483.345 66.5058 482.873 66.3709 482.458 66.101C482.047 65.8283 481.723 65.4405 481.487 64.9376C481.254 64.432 481.137 63.8254 481.137 63.118C481.137 62.4107 481.255 61.8055 481.491 61.3027C481.73 60.7999 482.056 60.4149 482.471 60.1479C482.886 59.8808 483.356 59.7473 483.882 59.7473C484.288 59.7473 484.615 59.8155 484.862 59.9519C485.112 60.0854 485.305 60.2416 485.441 60.4206C485.581 60.5996 485.689 60.7573 485.765 60.8936H485.842V57.6507H487.116V66.378H485.872V65.3595H485.765C485.689 65.4987 485.578 65.6578 485.433 65.8368C485.291 66.0158 485.095 66.172 484.845 66.3055C484.595 66.4391 484.271 66.5058 483.873 66.5058ZM484.154 65.4192C484.521 65.4192 484.831 65.3226 485.083 65.1294C485.339 64.9334 485.532 64.6621 485.663 64.3155C485.797 63.9689 485.863 63.5655 485.863 63.1053C485.863 62.6507 485.798 62.253 485.667 61.9121C485.537 61.5712 485.345 61.3055 485.092 61.1152C484.839 60.9249 484.527 60.8297 484.154 60.8297C483.771 60.8297 483.451 60.9291 483.196 61.128C482.94 61.3269 482.747 61.5982 482.616 61.9419C482.488 62.2857 482.424 62.6734 482.424 63.1053C482.424 63.5428 482.49 63.9362 482.62 64.2857C482.751 64.6351 482.944 64.9121 483.2 65.1166C483.458 65.3183 483.777 65.4192 484.154 65.4192ZM493.081 63.6635V59.8325H494.359V66.378H493.107V65.2445H493.038C492.888 65.5939 492.646 65.8851 492.314 66.118C491.984 66.3482 491.574 66.4632 491.082 66.4632C490.662 66.4632 490.29 66.3709 489.966 66.1862C489.645 65.9987 489.392 65.7217 489.207 65.3553C489.026 64.9888 488.935 64.5357 488.935 63.9959V59.8325H490.209V63.8425C490.209 64.2885 490.332 64.6436 490.58 64.9078C490.827 65.172 491.148 65.3041 491.543 65.3041C491.781 65.3041 492.018 65.2445 492.254 65.1251C492.493 65.0058 492.69 64.8254 492.847 64.584C493.006 64.3425 493.084 64.0357 493.081 63.6635ZM498.828 66.5101C498.195 66.5101 497.65 66.3666 497.192 66.0797C496.738 65.7899 496.388 65.3908 496.144 64.8823C495.9 64.3737 495.777 63.7913 495.777 63.1351C495.777 62.4703 495.902 61.8837 496.152 61.3751C496.402 60.8638 496.755 60.4646 497.209 60.1777C497.664 59.8908 498.199 59.7473 498.816 59.7473C499.313 59.7473 499.756 59.8396 500.145 60.0243C500.534 60.2061 500.848 60.4618 501.087 60.7913C501.328 61.1209 501.472 61.5058 501.517 61.9462H500.277C500.209 61.6394 500.053 61.3751 499.809 61.1536C499.567 60.932 499.243 60.8212 498.837 60.8212C498.482 60.8212 498.171 60.9149 497.904 61.1024C497.64 61.2871 497.434 61.5513 497.286 61.895C497.138 62.2359 497.064 62.6394 497.064 63.1053C497.064 63.5825 497.137 63.9945 497.282 64.3411C497.426 64.6876 497.631 64.9561 497.895 65.1465C498.162 65.3368 498.476 65.432 498.837 65.432C499.078 65.432 499.297 65.3879 499.493 65.2999C499.692 65.209 499.858 65.0797 499.992 64.9121C500.128 64.7445 500.223 64.5428 500.277 64.307H501.517C501.472 64.7303 501.334 65.1081 501.104 65.4405C500.874 65.7729 500.566 66.0342 500.179 66.2246C499.796 66.4149 499.346 66.5101 498.828 66.5101ZM505.935 59.8325V60.8553H502.36V59.8325H505.935ZM503.319 58.2644H504.593V64.4561C504.593 64.7033 504.63 64.8894 504.704 65.0144C504.778 65.1365 504.873 65.2203 504.989 65.2658C505.109 65.3084 505.238 65.3297 505.377 65.3297C505.479 65.3297 505.569 65.3226 505.646 65.3084C505.722 65.2942 505.782 65.2828 505.825 65.2743L506.055 66.3269C505.981 66.3553 505.876 66.3837 505.739 66.4121C505.603 66.4433 505.433 66.4604 505.228 66.4632C504.893 66.4689 504.58 66.4092 504.29 66.2842C504.001 66.1592 503.766 65.9661 503.587 65.7047C503.408 65.4433 503.319 65.1152 503.319 64.7203V58.2644ZM510.623 66.378V57.6507H516.035V58.7842H511.94V61.4433H515.647V62.5726H511.94V66.378H510.623ZM519.828 66.5101C519.215 66.5101 518.679 66.3695 518.222 66.0882C517.765 65.807 517.409 65.4135 517.157 64.9078C516.904 64.4021 516.777 63.8112 516.777 63.1351C516.777 62.4561 516.904 61.8624 517.157 61.3538C517.409 60.8453 517.765 60.4504 518.222 60.1692C518.679 59.8879 519.215 59.7473 519.828 59.7473C520.442 59.7473 520.978 59.8879 521.435 60.1692C521.892 60.4504 522.248 60.8453 522.5 61.3538C522.753 61.8624 522.88 62.4561 522.88 63.1351C522.88 63.8112 522.753 64.4021 522.5 64.9078C522.248 65.4135 521.892 65.807 521.435 66.0882C520.978 66.3695 520.442 66.5101 519.828 66.5101ZM519.833 65.4405C520.23 65.4405 520.56 65.3354 520.821 65.1251C521.083 64.9149 521.276 64.6351 521.401 64.2857C521.529 63.9362 521.593 63.5513 521.593 63.1308C521.593 62.7132 521.529 62.3297 521.401 61.9803C521.276 61.628 521.083 61.3453 520.821 61.1323C520.56 60.9192 520.23 60.8126 519.833 60.8126C519.432 60.8126 519.1 60.9192 518.836 61.1323C518.574 61.3453 518.38 61.628 518.252 61.9803C518.127 62.3297 518.064 62.7132 518.064 63.1308C518.064 63.5513 518.127 63.9362 518.252 64.2857C518.38 64.6351 518.574 64.9149 518.836 65.1251C519.1 65.3354 519.432 65.4405 519.833 65.4405ZM524.302 66.378V59.8325H525.533V60.8723H525.602C525.721 60.52 525.931 60.243 526.232 60.0413C526.536 59.8368 526.88 59.7345 527.263 59.7345C527.343 59.7345 527.437 59.7374 527.545 59.743C527.656 59.7487 527.742 59.7558 527.805 59.7644V60.9831C527.754 60.9689 527.663 60.9533 527.532 60.9362C527.401 60.9163 527.271 60.9064 527.14 60.9064C526.839 60.9064 526.57 60.9703 526.335 61.0982C526.102 61.2232 525.917 61.3979 525.781 61.6223C525.644 61.8439 525.576 62.0967 525.576 62.3808V66.378H524.302ZM532.185 66.378V57.6507H533.502V61.4433H537.853V57.6507H539.174V66.378H537.853V62.5726H533.502V66.378H532.185ZM543.746 66.5101C543.133 66.5101 542.597 66.3695 542.14 66.0882C541.683 65.807 541.327 65.4135 541.075 64.9078C540.822 64.4021 540.695 63.8112 540.695 63.1351C540.695 62.4561 540.822 61.8624 541.075 61.3538C541.327 60.8453 541.683 60.4504 542.14 60.1692C542.597 59.8879 543.133 59.7473 543.746 59.7473C544.36 59.7473 544.896 59.8879 545.353 60.1692C545.81 60.4504 546.165 60.8453 546.418 61.3538C546.671 61.8624 546.798 62.4561 546.798 63.1351C546.798 63.8112 546.671 64.4021 546.418 64.9078C546.165 65.4135 545.81 65.807 545.353 66.0882C544.896 66.3695 544.36 66.5101 543.746 66.5101ZM543.751 65.4405C544.148 65.4405 544.478 65.3354 544.739 65.1251C545.001 64.9149 545.194 64.6351 545.319 64.2857C545.447 63.9362 545.511 63.5513 545.511 63.1308C545.511 62.7132 545.447 62.3297 545.319 61.9803C545.194 61.628 545.001 61.3453 544.739 61.1323C544.478 60.9192 544.148 60.8126 543.751 60.8126C543.35 60.8126 543.018 60.9192 542.754 61.1323C542.492 61.3453 542.298 61.628 542.17 61.9803C542.045 62.3297 541.982 62.7132 541.982 63.1308C541.982 63.5513 542.045 63.9362 542.17 64.2857C542.298 64.6351 542.492 64.9149 542.754 65.1251C543.018 65.3354 543.35 65.4405 543.751 65.4405ZM553.125 61.4305L551.97 61.6351C551.922 61.4874 551.845 61.3467 551.74 61.2132C551.637 61.0797 551.498 60.9703 551.322 60.8851C551.146 60.7999 550.926 60.7573 550.662 60.7573C550.301 60.7573 550 60.8382 549.758 61.0001C549.517 61.1592 549.396 61.3652 549.396 61.618C549.396 61.8368 549.477 62.0129 549.639 62.1465C549.801 62.28 550.062 62.3894 550.423 62.4746L551.463 62.7132C552.065 62.8524 552.514 63.0669 552.809 63.3567C553.105 63.6465 553.252 64.0229 553.252 64.4859C553.252 64.878 553.139 65.2274 552.912 65.5342C552.687 65.8382 552.373 66.0769 551.97 66.2501C551.569 66.4234 551.105 66.5101 550.576 66.5101C549.843 66.5101 549.245 66.3538 548.782 66.0413C548.319 65.726 548.035 65.2786 547.93 64.699L549.162 64.5115C549.238 64.8325 549.396 65.0754 549.635 65.2402C549.873 65.4021 550.184 65.4831 550.568 65.4831C550.985 65.4831 551.319 65.3965 551.569 65.2232C551.819 65.047 551.944 64.8325 551.944 64.5797C551.944 64.3751 551.868 64.2033 551.714 64.0641C551.564 63.9249 551.332 63.8198 551.02 63.7487L549.912 63.5058C549.301 63.3666 548.849 63.145 548.556 62.8411C548.267 62.5371 548.122 62.1521 548.122 61.6862C548.122 61.2999 548.23 60.9618 548.446 60.672C548.662 60.3823 548.96 60.1564 549.341 59.9945C549.721 59.8297 550.157 59.7473 550.649 59.7473C551.356 59.7473 551.913 59.9007 552.319 60.2075C552.725 60.5115 552.994 60.9192 553.125 61.4305ZM554.653 66.378V59.8325H555.928V66.378H554.653ZM555.297 58.8226C555.075 58.8226 554.885 58.7487 554.726 58.601C554.57 58.4504 554.491 58.2715 554.491 58.0641C554.491 57.8538 554.57 57.6749 554.726 57.5271C554.885 57.3766 555.075 57.3013 555.297 57.3013C555.518 57.3013 555.707 57.3766 555.864 57.5271C556.023 57.6749 556.102 57.8538 556.102 58.0641C556.102 58.2715 556.023 58.4504 555.864 58.601C555.707 58.7487 555.518 58.8226 555.297 58.8226ZM560.463 66.5101C559.818 66.5101 559.262 66.3723 558.797 66.0967C558.333 65.8183 557.975 65.4277 557.723 64.9249C557.473 64.4192 557.348 63.8269 557.348 63.1479C557.348 62.4774 557.473 61.8865 557.723 61.3751C557.975 60.8638 558.328 60.4646 558.779 60.1777C559.234 59.8908 559.765 59.7473 560.373 59.7473C560.743 59.7473 561.1 59.8084 561.447 59.9305C561.794 60.0527 562.105 60.2445 562.38 60.5058C562.656 60.7672 562.873 61.1067 563.032 61.5243C563.191 61.9391 563.271 62.4433 563.271 63.0371V63.4888H558.068V62.5342H562.022C562.022 62.199 561.954 61.9021 561.818 61.6436C561.681 61.3823 561.49 61.1763 561.243 61.0257C560.998 60.8751 560.711 60.7999 560.382 60.7999C560.024 60.7999 559.711 60.8879 559.444 61.0641C559.18 61.2374 558.975 61.4646 558.831 61.7459C558.689 62.0243 558.618 62.3269 558.618 62.6536V63.3993C558.618 63.8368 558.694 64.209 558.848 64.5158C559.004 64.8226 559.221 65.057 559.5 65.2189C559.778 65.378 560.103 65.4575 560.475 65.4575C560.717 65.4575 560.937 65.4234 561.136 65.3553C561.335 65.2842 561.507 65.1791 561.652 65.0399C561.797 64.9007 561.907 64.7288 561.984 64.5243L563.19 64.7416C563.093 65.0967 562.92 65.4078 562.67 65.6749C562.423 65.9391 562.112 66.145 561.737 66.2928C561.365 66.4376 560.94 66.5101 560.463 66.5101ZM564.685 66.378V59.8325H565.916V60.8723H565.984C566.104 60.52 566.314 60.243 566.615 60.0413C566.919 59.8368 567.263 59.7345 567.646 59.7345C567.726 59.7345 567.82 59.7374 567.928 59.743C568.038 59.7487 568.125 59.7558 568.188 59.7644V60.9831C568.136 60.9689 568.045 60.9533 567.915 60.9362C567.784 60.9163 567.653 60.9064 567.523 60.9064C567.222 60.9064 566.953 60.9703 566.717 61.0982C566.484 61.2232 566.3 61.3979 566.163 61.6223C566.027 61.8439 565.959 62.0967 565.959 62.3808V66.378H564.685ZM570.295 68.8325C570.104 68.8325 569.931 68.8169 569.775 68.7857C569.619 68.7573 569.502 68.726 569.425 68.6919L569.732 67.6479C569.965 67.7104 570.173 67.7374 570.354 67.7288C570.536 67.7203 570.697 67.6521 570.836 67.5243C570.978 67.3965 571.103 67.1876 571.211 66.8979L571.369 66.4632L568.974 59.8325H570.337L571.995 64.9121H572.063L573.721 59.8325H575.089L572.391 67.2516C572.266 67.5925 572.107 67.8808 571.914 68.1166C571.721 68.3553 571.491 68.5342 571.224 68.6536C570.957 68.7729 570.647 68.8325 570.295 68.8325ZM582.39 66.378H579.564V57.6507H582.479C583.334 57.6507 584.069 57.8254 584.682 58.1749C585.296 58.5215 585.766 59.02 586.093 59.6706C586.422 60.3183 586.587 61.0953 586.587 62.0016C586.587 62.9107 586.421 63.6919 586.088 64.3453C585.759 64.9987 585.282 65.5016 584.657 65.8538C584.032 66.2033 583.276 66.378 582.39 66.378ZM580.881 65.2274H582.317C582.982 65.2274 583.534 65.1024 583.975 64.8524C584.415 64.5996 584.745 64.2345 584.963 63.7573C585.182 63.2771 585.292 62.6919 585.292 62.0016C585.292 61.3169 585.182 60.7359 584.963 60.2587C584.748 59.7814 584.425 59.4192 583.996 59.172C583.567 58.9249 583.034 58.8013 582.398 58.8013H580.881V65.2274ZM588.122 66.378V59.8325H589.396V66.378H588.122ZM588.766 58.8226C588.544 58.8226 588.354 58.7487 588.195 58.601C588.038 58.4504 587.96 58.2715 587.96 58.0641C587.96 57.8538 588.038 57.6749 588.195 57.5271C588.354 57.3766 588.544 57.3013 588.766 57.3013C588.987 57.3013 589.176 57.3766 589.332 57.5271C589.491 57.6749 589.571 57.8538 589.571 58.0641C589.571 58.2715 589.491 58.4504 589.332 58.601C589.176 58.7487 588.987 58.8226 588.766 58.8226ZM596.015 61.4305L594.86 61.6351C594.812 61.4874 594.735 61.3467 594.63 61.2132C594.528 61.0797 594.389 60.9703 594.213 60.8851C594.037 60.7999 593.816 60.7573 593.552 60.7573C593.191 60.7573 592.89 60.8382 592.649 61.0001C592.407 61.1592 592.287 61.3652 592.287 61.618C592.287 61.8368 592.368 62.0129 592.529 62.1465C592.691 62.28 592.953 62.3894 593.314 62.4746L594.353 62.7132C594.956 62.8524 595.404 63.0669 595.7 63.3567C595.995 63.6465 596.143 64.0229 596.143 64.4859C596.143 64.878 596.029 65.2274 595.802 65.5342C595.578 65.8382 595.264 66.0769 594.86 66.2501C594.46 66.4234 593.995 66.5101 593.467 66.5101C592.734 66.5101 592.136 66.3538 591.673 66.0413C591.21 65.726 590.926 65.2786 590.821 64.699L592.052 64.5115C592.129 64.8325 592.287 65.0754 592.525 65.2402C592.764 65.4021 593.075 65.4831 593.458 65.4831C593.876 65.4831 594.21 65.3965 594.46 65.2232C594.71 65.047 594.835 64.8325 594.835 64.5797C594.835 64.3751 594.758 64.2033 594.605 64.0641C594.454 63.9249 594.223 63.8198 593.91 63.7487L592.802 63.5058C592.191 63.3666 591.74 63.145 591.447 62.8411C591.157 62.5371 591.012 62.1521 591.012 61.6862C591.012 61.2999 591.12 60.9618 591.336 60.672C591.552 60.3823 591.85 60.1564 592.231 59.9945C592.612 59.8297 593.048 59.7473 593.539 59.7473C594.247 59.7473 594.804 59.9007 595.21 60.2075C595.616 60.5115 595.885 60.9192 596.015 61.4305ZM600.599 59.8325V60.8553H597.024V59.8325H600.599ZM597.983 58.2644H599.257V64.4561C599.257 64.7033 599.294 64.8894 599.368 65.0144C599.442 65.1365 599.537 65.2203 599.653 65.2658C599.773 65.3084 599.902 65.3297 600.041 65.3297C600.143 65.3297 600.233 65.3226 600.31 65.3084C600.386 65.2942 600.446 65.2828 600.489 65.2743L600.719 66.3269C600.645 66.3553 600.54 66.3837 600.403 66.4121C600.267 66.4433 600.097 66.4604 599.892 66.4632C599.557 66.4689 599.244 66.4092 598.955 66.2842C598.665 66.1592 598.43 65.9661 598.251 65.7047C598.072 65.4433 597.983 65.1152 597.983 64.7203V58.2644ZM602.009 66.378V59.8325H603.24V60.8723H603.309C603.428 60.52 603.638 60.243 603.939 60.0413C604.243 59.8368 604.587 59.7345 604.971 59.7345C605.05 59.7345 605.144 59.7374 605.252 59.743C605.363 59.7487 605.449 59.7558 605.512 59.7644V60.9831C605.461 60.9689 605.37 60.9533 605.239 60.9362C605.108 60.9163 604.978 60.9064 604.847 60.9064C604.546 60.9064 604.277 60.9703 604.042 61.0982C603.809 61.2232 603.624 61.3979 603.488 61.6223C603.351 61.8439 603.283 62.0967 603.283 62.3808V66.378H602.009ZM606.614 66.378V59.8325H607.888V66.378H606.614ZM607.258 58.8226C607.036 58.8226 606.846 58.7487 606.687 58.601C606.531 58.4504 606.452 58.2715 606.452 58.0641C606.452 57.8538 606.531 57.6749 606.687 57.5271C606.846 57.3766 607.036 57.3013 607.258 57.3013C607.479 57.3013 607.668 57.3766 607.825 57.5271C607.984 57.6749 608.063 57.8538 608.063 58.0641C608.063 58.2715 607.984 58.4504 607.825 58.601C607.668 58.7487 607.479 58.8226 607.258 58.8226ZM609.705 66.378V57.6507H610.979V60.8936H611.056C611.13 60.7573 611.236 60.5996 611.375 60.4206C611.515 60.2416 611.708 60.0854 611.955 59.9519C612.202 59.8155 612.529 59.7473 612.935 59.7473C613.463 59.7473 613.935 59.8808 614.35 60.1479C614.765 60.4149 615.09 60.7999 615.326 61.3027C615.564 61.8055 615.684 62.4107 615.684 63.118C615.684 63.8254 615.566 64.432 615.33 64.9376C615.094 65.4405 614.77 65.8283 614.358 66.101C613.946 66.3709 613.476 66.5058 612.948 66.5058C612.55 66.5058 612.225 66.4391 611.972 66.3055C611.722 66.172 611.526 66.0158 611.384 65.8368C611.242 65.6578 611.132 65.4987 611.056 65.3595H610.949V66.378H609.705ZM610.953 63.1053C610.953 63.5655 611.02 63.9689 611.154 64.3155C611.287 64.6621 611.48 64.9334 611.733 65.1294C611.986 65.3226 612.296 65.4192 612.662 65.4192C613.043 65.4192 613.361 65.3183 613.617 65.1166C613.873 64.9121 614.066 64.6351 614.196 64.2857C614.33 63.9362 614.397 63.5428 614.397 63.1053C614.397 62.6734 614.331 62.2857 614.201 61.9419C614.073 61.5982 613.88 61.3269 613.621 61.128C613.365 60.9291 613.046 60.8297 612.662 60.8297C612.293 60.8297 611.98 60.9249 611.725 61.1152C611.472 61.3055 611.28 61.5712 611.15 61.9121C611.019 62.253 610.953 62.6507 610.953 63.1053ZM621.261 63.6635V59.8325H622.539V66.378H621.286V65.2445H621.218C621.067 65.5939 620.826 65.8851 620.494 66.118C620.164 66.3482 619.754 66.4632 619.262 66.4632C618.842 66.4632 618.469 66.3709 618.146 66.1862C617.825 65.9987 617.572 65.7217 617.387 65.3553C617.205 64.9888 617.114 64.5357 617.114 63.9959V59.8325H618.388V63.8425C618.388 64.2885 618.512 64.6436 618.759 64.9078C619.006 65.172 619.327 65.3041 619.722 65.3041C619.961 65.3041 620.198 65.2445 620.434 65.1251C620.673 65.0058 620.87 64.8254 621.026 64.584C621.185 64.3425 621.263 64.0357 621.261 63.6635ZM627.306 59.8325V60.8553H623.731V59.8325H627.306ZM624.69 58.2644H625.964V64.4561C625.964 64.7033 626.001 64.8894 626.075 65.0144C626.149 65.1365 626.244 65.2203 626.36 65.2658C626.48 65.3084 626.609 65.3297 626.748 65.3297C626.85 65.3297 626.94 65.3226 627.017 65.3084C627.093 65.2942 627.153 65.2828 627.196 65.2743L627.426 66.3269C627.352 66.3553 627.247 66.3837 627.11 66.4121C626.974 66.4433 626.804 66.4604 626.599 66.4632C626.264 66.4689 625.951 66.4092 625.662 66.2842C625.372 66.1592 625.137 65.9661 624.958 65.7047C624.779 65.4433 624.69 65.1152 624.69 64.7203V58.2644ZM628.716 66.378V59.8325H629.99V66.378H628.716ZM629.359 58.8226C629.138 58.8226 628.947 58.7487 628.788 58.601C628.632 58.4504 628.554 58.2715 628.554 58.0641C628.554 57.8538 628.632 57.6749 628.788 57.5271C628.947 57.3766 629.138 57.3013 629.359 57.3013C629.581 57.3013 629.77 57.3766 629.926 57.5271C630.085 57.6749 630.165 57.8538 630.165 58.0641C630.165 58.2715 630.085 58.4504 629.926 58.601C629.77 58.7487 629.581 58.8226 629.359 58.8226ZM634.461 66.5101C633.848 66.5101 633.312 66.3695 632.855 66.0882C632.397 65.807 632.042 65.4135 631.789 64.9078C631.537 64.4021 631.41 63.8112 631.41 63.1351C631.41 62.4561 631.537 61.8624 631.789 61.3538C632.042 60.8453 632.397 60.4504 632.855 60.1692C633.312 59.8879 633.848 59.7473 634.461 59.7473C635.075 59.7473 635.61 59.8879 636.068 60.1692C636.525 60.4504 636.88 60.8453 637.133 61.3538C637.386 61.8624 637.512 62.4561 637.512 63.1351C637.512 63.8112 637.386 64.4021 637.133 64.9078C636.88 65.4135 636.525 65.807 636.068 66.0882C635.61 66.3695 635.075 66.5101 634.461 66.5101ZM634.466 65.4405C634.863 65.4405 635.193 65.3354 635.454 65.1251C635.716 64.9149 635.909 64.6351 636.034 64.2857C636.162 63.9362 636.225 63.5513 636.225 63.1308C636.225 62.7132 636.162 62.3297 636.034 61.9803C635.909 61.628 635.716 61.3453 635.454 61.1323C635.193 60.9192 634.863 60.8126 634.466 60.8126C634.065 60.8126 633.733 60.9192 633.468 61.1323C633.207 61.3453 633.012 61.628 632.885 61.9803C632.76 62.3297 632.697 62.7132 632.697 63.1308C632.697 63.5513 632.76 63.9362 632.885 64.2857C633.012 64.6351 633.207 64.9149 633.468 65.1251C633.733 65.3354 634.065 65.4405 634.466 65.4405ZM640.209 62.4916V66.378H638.935V59.8325H640.158V60.8979H640.239C640.389 60.5513 640.625 60.2729 640.946 60.0626C641.27 59.8524 641.678 59.7473 642.169 59.7473C642.615 59.7473 643.006 59.8411 643.341 60.0286C643.676 60.2132 643.936 60.4888 644.121 60.8553C644.305 61.2217 644.398 61.6749 644.398 62.2146V66.378H643.124V62.368C643.124 61.8936 643 61.5229 642.753 61.2558C642.506 60.9859 642.166 60.851 641.734 60.851C641.439 60.851 641.176 60.9149 640.946 61.0428C640.719 61.1706 640.538 61.3581 640.405 61.6053C640.274 61.8496 640.209 62.145 640.209 62.4916ZM651.011 61.4305L649.857 61.6351C649.808 61.4874 649.732 61.3467 649.626 61.2132C649.524 61.0797 649.385 60.9703 649.209 60.8851C649.033 60.7999 648.813 60.7573 648.548 60.7573C648.188 60.7573 647.886 60.8382 647.645 61.0001C647.403 61.1592 647.283 61.3652 647.283 61.618C647.283 61.8368 647.364 62.0129 647.526 62.1465C647.688 62.28 647.949 62.3894 648.31 62.4746L649.349 62.7132C649.952 62.8524 650.401 63.0669 650.696 63.3567C650.991 63.6465 651.139 64.0229 651.139 64.4859C651.139 64.878 651.026 65.2274 650.798 65.5342C650.574 65.8382 650.26 66.0769 649.857 66.2501C649.456 66.4234 648.991 66.5101 648.463 66.5101C647.73 66.5101 647.132 66.3538 646.669 66.0413C646.206 65.726 645.922 65.2786 645.817 64.699L647.048 64.5115C647.125 64.8325 647.283 65.0754 647.521 65.2402C647.76 65.4021 648.071 65.4831 648.455 65.4831C648.872 65.4831 649.206 65.3965 649.456 65.2232C649.706 65.047 649.831 64.8325 649.831 64.5797C649.831 64.3751 649.754 64.2033 649.601 64.0641C649.45 63.9249 649.219 63.8198 648.906 63.7487L647.798 63.5058C647.188 63.3666 646.736 63.145 646.443 62.8411C646.153 62.5371 646.009 62.1521 646.009 61.6862C646.009 61.2999 646.116 60.9618 646.332 60.672C646.548 60.3823 646.847 60.1564 647.227 59.9945C647.608 59.8297 648.044 59.7473 648.536 59.7473C649.243 59.7473 649.8 59.9007 650.206 60.2075C650.612 60.5115 650.881 60.9192 651.011 61.4305Z" fill="#004B64"/>
<defs>
<linearGradient id="paint0_linear_438_133" x1="0" y1="45" x2="1086" y2="45" gradientUnits="userSpaceOnUse">
<stop stop-color="white"/>
<stop offset="0.515" stop-color="#004B64"/>
<stop offset="1" stop-color="white"/>
</linearGradient>
</defs>
</svg>
