<svg width="248" height="48" viewBox="0 0 248 48" fill="none" xmlns="http://www.w3.org/2000/svg">
<rect width="4.76923" height="48" rx="2.38462" fill="#004B64"/>
<rect x="11.446" width="236.554" height="48" rx="6" fill="#004B64"/>
<g clip-path="url(#clip0_548_57)">
<path d="M27.1735 16.2556C27.4671 13.8285 29.1693 12.1673 31.5422 12.0082C33.6758 11.8672 36.1012 13.4431 36.3734 16.2556C36.8408 16.2556 37.3098 16.2556 37.7788 16.2556C39.1448 16.2572 40.0583 17.151 40.0665 18.5187C40.0763 19.9782 40.0779 21.4393 40.0615 22.8988C40.0583 23.2022 40.1304 23.3351 40.4436 23.4302C43.2561 24.2895 45.1108 26.9806 44.9485 29.9275C44.7795 33.0006 42.4558 35.5687 39.4121 35.9394C36.7932 36.2575 34.6958 35.29 33.169 33.1302C33.0296 32.9334 32.8968 32.8596 32.659 32.8596C31.0831 32.8678 29.5071 32.8875 27.9328 32.8531C25.4467 32.7989 23.4657 30.7769 23.4542 28.2876C23.4395 25.0127 23.446 21.7378 23.4526 18.4613C23.4559 17.1854 24.407 16.2589 25.6894 16.2556C26.1781 16.2539 26.6668 16.2556 27.1735 16.2556ZM38.197 23.1251C38.2019 23.0218 38.2084 22.9464 38.2101 22.871C38.2101 21.4311 38.2117 19.9896 38.2101 18.5498C38.2101 18.1989 38.1215 18.1087 37.7673 18.1087C33.7627 18.107 29.758 18.107 25.7517 18.1087C25.4106 18.1087 25.3122 18.1989 25.3122 18.5285C25.3106 21.7558 25.2958 24.9832 25.3188 28.2088C25.3319 29.8865 26.5258 31.0114 28.2116 31.0131C29.4514 31.0147 30.6895 31.0131 31.9293 31.0131C32.0244 31.0131 32.1178 31.0131 32.2425 31.0131C31.8587 29.0518 32.1998 27.261 33.4002 25.6818C34.5974 24.1058 36.2258 23.2826 38.197 23.1251ZM33.907 29.5503C33.8824 32.0643 35.9355 34.1666 38.4397 34.1912C41.0258 34.2158 43.1314 32.1889 43.1626 29.6438C43.1938 27.1052 41.1422 24.97 38.6479 24.9438C36.0061 24.9176 33.9316 26.9314 33.907 29.5503ZM34.4465 16.2457C34.4006 15.0043 33.1001 13.8777 31.7472 13.8876C30.3861 13.8974 29.1119 15.0191 29.0758 16.2457C30.8584 16.2457 32.641 16.2457 34.4465 16.2457Z" fill="white"/>
<path d="M37.6295 28.6599C37.6295 28.3237 37.6263 28.0367 37.6295 27.7497C37.6377 27.2184 38.0198 26.8199 38.5217 26.815C39.0054 26.8101 39.4006 27.1905 39.4269 27.7087C39.4416 28.0138 39.4302 28.3188 39.4302 28.6582C39.7434 28.6582 40.0189 28.655 40.2944 28.6582C40.87 28.6648 41.2718 29.0371 41.2734 29.5651C41.2751 30.0948 40.8766 30.4703 40.301 30.4785C40.0238 30.4818 39.7483 30.4785 39.4187 30.4785C39.4187 30.8508 39.4416 31.1952 39.4138 31.5363C39.376 31.9954 38.9546 32.3398 38.502 32.3218C38.033 32.3037 37.6525 31.9233 37.6345 31.451C37.6263 31.2394 37.6312 31.0279 37.6312 30.818C37.6312 30.7229 37.6312 30.6278 37.6312 30.4785C37.3114 30.4785 37.0097 30.4867 36.7079 30.4769C36.0241 30.4556 35.5911 29.8078 35.8601 29.206C36.0208 28.8468 36.316 28.6714 36.703 28.6599C36.9949 28.6517 37.2917 28.6599 37.6295 28.6599Z" fill="white"/>
</g>
<path d="M54.144 29.5V18.3H55.488V29.5H54.144ZM57.7827 29.5V21.564H58.9987L59.0787 22.988C59.3347 22.4867 59.7027 22.092 60.1827 21.804C60.6627 21.516 61.2067 21.372 61.8147 21.372C62.7534 21.372 63.5 21.66 64.0547 22.236C64.62 22.8013 64.9027 23.676 64.9027 24.86V29.5H63.5587V25.004C63.5587 23.3507 62.876 22.524 61.5107 22.524C60.828 22.524 60.2574 22.7747 59.7987 23.276C59.3507 23.7667 59.1267 24.4707 59.1267 25.388V29.5H57.7827ZM69.0707 29.5L66.0627 21.564H67.4707L69.8547 28.204L72.2547 21.564H73.6307L70.6227 29.5H69.0707ZM78.2882 29.692C77.5309 29.692 76.8589 29.5213 76.2722 29.18C75.6855 28.828 75.2215 28.3427 74.8802 27.724C74.5495 27.1053 74.3842 26.3747 74.3842 25.532C74.3842 24.7 74.5495 23.9747 74.8802 23.356C75.2109 22.7267 75.6695 22.2413 76.2562 21.9C76.8535 21.548 77.5415 21.372 78.3202 21.372C79.0882 21.372 79.7495 21.548 80.3042 21.9C80.8695 22.2413 81.3015 22.6947 81.6002 23.26C81.8989 23.8253 82.0482 24.4333 82.0482 25.084C82.0482 25.2013 82.0429 25.3187 82.0322 25.436C82.0322 25.5533 82.0322 25.6867 82.0322 25.836H75.7122C75.7442 26.444 75.8829 26.9507 76.1282 27.356C76.3842 27.7507 76.6989 28.0493 77.0722 28.252C77.4562 28.4547 77.8615 28.556 78.2882 28.556C78.8429 28.556 79.3069 28.428 79.6802 28.172C80.0535 27.916 80.3255 27.5693 80.4962 27.132H81.8242C81.6109 27.868 81.2002 28.4813 80.5922 28.972C79.9949 29.452 79.2269 29.692 78.2882 29.692ZM78.2882 22.508C77.6482 22.508 77.0775 22.7053 76.5762 23.1C76.0855 23.484 75.8029 24.0493 75.7282 24.796H80.7202C80.6882 24.0813 80.4429 23.5213 79.9842 23.116C79.5255 22.7107 78.9602 22.508 78.2882 22.508ZM83.8296 29.5V21.564H85.0456L85.1256 22.988C85.3816 22.4867 85.7496 22.092 86.2296 21.804C86.7096 21.516 87.2536 21.372 87.8616 21.372C88.8003 21.372 89.5469 21.66 90.1016 22.236C90.6669 22.8013 90.9496 23.676 90.9496 24.86V29.5H89.6056V25.004C89.6056 23.3507 88.9229 22.524 87.5576 22.524C86.8749 22.524 86.3043 22.7747 85.8456 23.276C85.3976 23.7667 85.1736 24.4707 85.1736 25.388V29.5H83.8296ZM96.1218 29.5C95.3965 29.5 94.8258 29.324 94.4098 28.972C93.9938 28.62 93.7858 27.9853 93.7858 27.068V22.7H92.4098V21.564H93.7858L93.9618 19.66H95.1298V21.564H97.4658V22.7H95.1298V27.068C95.1298 27.5693 95.2312 27.9107 95.4338 28.092C95.6365 28.2627 95.9938 28.348 96.5058 28.348H97.3378V29.5H96.1218ZM102.571 29.692C101.824 29.692 101.152 29.5213 100.555 29.18C99.9573 28.8387 99.4826 28.3587 99.1306 27.74C98.7893 27.1107 98.6186 26.3747 98.6186 25.532C98.6186 24.6893 98.7946 23.9587 99.1466 23.34C99.4986 22.7107 99.9733 22.2253 100.571 21.884C101.179 21.5427 101.856 21.372 102.603 21.372C103.349 21.372 104.021 21.5427 104.619 21.884C105.216 22.2253 105.685 22.7107 106.027 23.34C106.379 23.9587 106.555 24.6893 106.555 25.532C106.555 26.3747 106.379 27.1107 106.027 27.74C105.675 28.3587 105.195 28.8387 104.587 29.18C103.989 29.5213 103.317 29.692 102.571 29.692ZM102.571 28.54C103.029 28.54 103.456 28.428 103.851 28.204C104.245 27.98 104.565 27.644 104.811 27.196C105.056 26.748 105.179 26.1933 105.179 25.532C105.179 24.8707 105.056 24.316 104.811 23.868C104.576 23.42 104.261 23.084 103.867 22.86C103.472 22.636 103.051 22.524 102.603 22.524C102.144 22.524 101.717 22.636 101.323 22.86C100.928 23.084 100.608 23.42 100.363 23.868C100.117 24.316 99.9946 24.8707 99.9946 25.532C99.9946 26.1933 100.117 26.748 100.363 27.196C100.608 27.644 100.923 27.98 101.307 28.204C101.701 28.428 102.123 28.54 102.571 28.54ZM108.423 29.5V21.564H109.639L109.751 23.084C109.997 22.5613 110.37 22.1453 110.871 21.836C111.373 21.5267 111.991 21.372 112.727 21.372V22.78H112.359C111.89 22.78 111.458 22.8653 111.063 23.036C110.669 23.196 110.354 23.4733 110.119 23.868C109.885 24.2627 109.767 24.8067 109.767 25.5V29.5H108.423ZM115.1 33.02L117.068 28.732H116.604L113.452 21.564H114.908L117.532 27.74L120.316 21.564H121.708L116.508 33.02H115.1Z" fill="white"/>
<path d="M220.5 17L227.5 24L220.5 31" stroke="white" stroke-width="1.5" stroke-linecap="round" stroke-linejoin="round"/>
<defs>
<clipPath id="clip0_548_57">
<rect width="21.5139" height="24" fill="white" transform="translate(23.446 12)"/>
</clipPath>
</defs>
</svg>
