<svg width="130" height="29" viewBox="0 0 130 29" fill="none" xmlns="http://www.w3.org/2000/svg">
<rect x="1" y="1" width="127" height="28" rx="13" fill="white"/>
<path d="M19.4094 8.64948C19.7222 7.99489 20.131 7.44333 20.6858 7.0157C22.0368 5.97373 23.5338 5.71083 25.1246 6.33215C26.7155 6.95346 27.6711 8.16391 27.9442 9.85455C28.2484 11.7357 27.2874 13.5921 25.5979 14.4833C25.4653 14.5531 25.4235 14.6276 25.4235 14.7741C25.4294 16.5275 25.4235 18.2815 25.431 20.0349C25.431 20.4105 25.2759 20.6461 24.9363 20.799C22.6603 21.8288 20.3852 22.8631 18.1109 23.9018C17.9893 23.9632 17.855 23.9952 17.7187 23.9952C17.5825 23.9952 17.4481 23.9632 17.3265 23.9018C15.0483 22.8588 12.7671 21.8214 10.4829 20.7899C10.1502 20.6396 10 20.4084 10 20.0387C10.0057 17.3281 10.0057 14.6171 10 11.9058C10 11.5474 10.1427 11.3156 10.4689 11.1675C12.7582 10.1319 15.0453 9.0923 17.3303 8.04855C17.5953 7.92729 17.833 7.91817 18.0959 8.04855C18.5209 8.25834 18.956 8.44452 19.4094 8.64948ZM17.0615 22.3646C17.0674 22.311 17.0716 22.2932 17.0716 22.2734C17.0716 20.0382 17.0731 17.8026 17.0759 15.5666C17.0759 15.4346 17.0132 15.3971 16.915 15.352C15.095 14.5275 13.276 13.7016 11.4578 12.8742C11.4041 12.8512 11.3505 12.8345 11.2968 12.8131C11.2925 12.8533 11.2882 12.8731 11.2882 12.893C11.2882 15.129 11.2872 17.3646 11.285 19.5998C11.285 19.7152 11.3296 19.7608 11.4256 19.8031C12.6554 20.359 13.884 20.9172 15.1117 21.4777C15.755 21.7744 16.3983 22.0652 17.0615 22.3646ZM18.3631 22.3646C18.4092 22.3464 18.4339 22.3383 18.457 22.3276C20.3113 21.4852 22.1663 20.6446 24.022 19.8058C24.147 19.749 24.1422 19.6695 24.1422 19.5681C24.1422 18.1016 24.1422 16.6361 24.1422 15.1717V14.9716C23.9587 14.9882 23.8058 15.0102 23.6529 15.0145C22.7641 15.0469 21.886 14.813 21.1311 14.3427C21.0619 14.2998 20.9471 14.2628 20.8833 14.2891C20.0403 14.6609 19.2028 15.0456 18.3615 15.4276L18.3631 22.3646ZM23.4984 13.7295C24.3485 13.7281 25.1637 13.3904 25.7658 12.7902C26.3679 12.19 26.7082 11.3759 26.7123 10.5258C26.7135 9.67234 26.3759 8.85332 25.7735 8.24875C25.1712 7.64418 24.3534 7.30353 23.5 7.30168C22.6499 7.30366 21.8351 7.64179 21.2334 8.24229C20.6317 8.84279 20.2919 9.65691 20.2882 10.507C20.2874 11.3598 20.6249 12.1781 21.2268 12.7822C21.8286 13.3864 22.6456 13.7271 23.4984 13.7295ZM19.9475 13.2949C19.9406 13.2742 19.932 13.2541 19.9218 13.2348C19.2167 12.2792 18.897 11.2174 19.0375 10.0295C19.0504 9.92216 19.0059 9.87655 18.9152 9.83631C18.567 9.68232 18.2252 9.51439 17.8732 9.36898C17.772 9.3301 17.66 9.3301 17.5588 9.36898C15.8419 10.142 14.126 10.9207 12.4112 11.7051C12.3549 11.7308 12.3012 11.763 12.2401 11.7958C12.2658 11.8194 12.2733 11.8317 12.2841 11.8365C14.06 12.6446 15.8365 13.4515 17.6136 14.2574C17.6724 14.2836 17.7389 14.2864 17.7997 14.2655C18.5128 13.9484 19.2232 13.6238 19.9475 13.297V13.2949Z" fill="#5DA5E1"/>
<path d="M23.2535 10.6814C23.5754 9.87657 23.8727 9.13077 24.1737 8.38819C24.3116 8.04856 24.6239 7.88009 24.9393 7.96432C25.3358 8.07163 25.5231 8.46116 25.3616 8.87001C25.0456 9.67161 24.7231 10.4705 24.4028 11.271C24.3035 11.5189 24.2091 11.769 24.1039 12.0147C23.9017 12.4863 23.3898 12.5909 23.0244 12.2325C22.6086 11.8248 22.1981 11.4116 21.7904 10.9985C21.5108 10.7163 21.5001 10.3289 21.7576 10.067C22.0152 9.80521 22.4138 9.81004 22.703 10.0987C22.8812 10.2763 23.0502 10.4652 23.2535 10.6814Z" fill="#5DA5E1"/>
<path d="M43.024 9.88V21H41.2V9.88H43.024ZM50.3468 12.04C51.0401 12.04 51.6588 12.184 52.2028 12.472C52.7574 12.76 53.1894 13.1867 53.4988 13.752C53.8081 14.3173 53.9628 15 53.9628 15.8V21H52.1548V16.072C52.1548 15.2827 51.9574 14.68 51.5628 14.264C51.1681 13.8373 50.6294 13.624 49.9468 13.624C49.2641 13.624 48.7201 13.8373 48.3148 14.264C47.9201 14.68 47.7228 15.2827 47.7228 16.072V21H45.8988V12.184H47.7228V13.192C48.0214 12.8293 48.4001 12.5467 48.8588 12.344C49.3281 12.1413 49.8241 12.04 50.3468 12.04ZM60.1774 19.368L62.6734 12.184H64.6094L61.2494 21H59.0734L55.7294 12.184H57.6814L60.1774 19.368ZM74.5481 16.376C74.5481 16.7067 74.5268 17.0053 74.4841 17.272H67.7481C67.8015 17.976 68.0628 18.5413 68.5321 18.968C69.0015 19.3947 69.5775 19.608 70.2601 19.608C71.2415 19.608 71.9348 19.1973 72.3401 18.376H74.3081C74.0415 19.1867 73.5561 19.8533 72.8521 20.376C72.1588 20.888 71.2948 21.144 70.2601 21.144C69.4175 21.144 68.6601 20.9573 67.9881 20.584C67.3268 20.2 66.8041 19.6667 66.4201 18.984C66.0468 18.2907 65.8601 17.4907 65.8601 16.584C65.8601 15.6773 66.0415 14.8827 66.4041 14.2C66.7775 13.5067 67.2948 12.9733 67.9561 12.6C68.6281 12.2267 69.3961 12.04 70.2601 12.04C71.0921 12.04 71.8335 12.2213 72.4841 12.584C73.1348 12.9467 73.6415 13.4587 74.0041 14.12C74.3668 14.7707 74.5481 15.5227 74.5481 16.376ZM72.6441 15.8C72.6335 15.128 72.3935 14.5893 71.9241 14.184C71.4548 13.7787 70.8735 13.576 70.1801 13.576C69.5508 13.576 69.0121 13.7787 68.5641 14.184C68.1161 14.5787 67.8495 15.1173 67.7641 15.8H72.6441ZM81.2711 12.04C81.9645 12.04 82.5831 12.184 83.1271 12.472C83.6818 12.76 84.1138 13.1867 84.4231 13.752C84.7325 14.3173 84.8871 15 84.8871 15.8V21H83.0791V16.072C83.0791 15.2827 82.8818 14.68 82.4871 14.264C82.0925 13.8373 81.5538 13.624 80.8711 13.624C80.1885 13.624 79.6445 13.8373 79.2391 14.264C78.8445 14.68 78.6471 15.2827 78.6471 16.072V21H76.8231V12.184H78.6471V13.192C78.9458 12.8293 79.3245 12.5467 79.7831 12.344C80.2525 12.1413 80.7485 12.04 81.2711 12.04ZM89.8218 13.672V18.552C89.8218 18.8827 89.8964 19.1227 90.0458 19.272C90.2058 19.4107 90.4724 19.48 90.8458 19.48H91.9658V21H90.5258C89.7044 21 89.0751 20.808 88.6378 20.424C88.2004 20.04 87.9818 19.416 87.9818 18.552V13.672H86.9418V12.184H87.9818V9.992H89.8218V12.184H91.9658V13.672H89.8218ZM97.9509 21.144C97.1189 21.144 96.3669 20.9573 95.6949 20.584C95.0229 20.2 94.4949 19.6667 94.1109 18.984C93.7269 18.2907 93.5349 17.4907 93.5349 16.584C93.5349 15.688 93.7322 14.8933 94.1269 14.2C94.5215 13.5067 95.0602 12.9733 95.7429 12.6C96.4255 12.2267 97.1882 12.04 98.0309 12.04C98.8735 12.04 99.6362 12.2267 100.319 12.6C101.002 12.9733 101.54 13.5067 101.935 14.2C102.33 14.8933 102.527 15.688 102.527 16.584C102.527 17.48 102.324 18.2747 101.919 18.968C101.514 19.6613 100.959 20.2 100.255 20.584C99.5615 20.9573 98.7935 21.144 97.9509 21.144ZM97.9509 19.56C98.4202 19.56 98.8575 19.448 99.2629 19.224C99.6789 19 100.015 18.664 100.271 18.216C100.527 17.768 100.655 17.224 100.655 16.584C100.655 15.944 100.532 15.4053 100.287 14.968C100.042 14.52 99.7162 14.184 99.3109 13.96C98.9055 13.736 98.4682 13.624 97.9989 13.624C97.5295 13.624 97.0922 13.736 96.6869 13.96C96.2922 14.184 95.9775 14.52 95.7429 14.968C95.5082 15.4053 95.3909 15.944 95.3909 16.584C95.3909 17.5333 95.6309 18.2693 96.1109 18.792C96.6015 19.304 97.2149 19.56 97.9509 19.56ZM106.634 13.464C106.901 13.016 107.253 12.6693 107.69 12.424C108.138 12.168 108.666 12.04 109.274 12.04V13.928H108.81C108.095 13.928 107.551 14.1093 107.178 14.472C106.815 14.8347 106.634 15.464 106.634 16.36V21H104.81V12.184H106.634V13.464ZM119.367 12.184L113.959 25.144H112.071L113.863 20.856L110.391 12.184H112.423L114.903 18.904L117.479 12.184H119.367Z" fill="#5DA5E1"/>
</svg>
