<svg width="13" height="18" viewBox="0 0 13 18" fill="none" xmlns="http://www.w3.org/2000/svg">
<path d="M6.38874 0C6.69126 0 7.09462 0 7.39714 0H7.49798C8.80891 0.0962567 9.91815 0.57754 10.9266 1.44385C12.54 2.79144 13.145 4.52406 12.8425 6.64171C12.6408 7.9893 12.0358 9.04812 11.0274 10.0107C9.91815 11.0695 8.70807 12.1283 7.59882 13.2834C7.49798 13.3797 7.49798 13.4759 7.49798 13.5722C7.49798 13.9572 7.49798 14.3422 7.49798 14.7273C7.49798 14.8235 7.49798 14.9198 7.59882 14.9198C8.00218 15.1123 8.20386 15.3048 8.40554 15.6898C8.50638 15.7861 8.50638 15.8824 8.60722 15.8824C10.019 15.8824 11.3299 15.8824 12.7417 15.8824C12.8425 15.8824 12.8425 15.8824 12.9434 15.8824C12.9434 16.2674 12.9434 16.5562 12.9434 16.9412C11.4308 16.9412 9.91815 16.9412 8.50638 16.9412C8.3047 17.3262 8.10302 17.615 7.69966 17.8075C7.49798 17.9037 7.39714 17.9037 7.19546 18C6.99378 18 6.89294 18 6.69126 18C6.08622 17.8075 5.58202 17.5187 5.38033 16.9412C3.86773 16.9412 2.35512 16.9412 0.943359 16.9412C0.943359 16.5562 0.943359 16.2674 0.943359 15.8824C1.0442 15.8824 1.0442 15.8824 1.14504 15.8824C2.5568 15.8824 3.86773 15.8824 5.27949 15.8824C5.38033 15.8824 5.48117 15.8824 5.48117 15.6898C5.68286 15.3048 5.88454 15.1123 6.2879 14.9198C6.38874 14.8235 6.48958 14.8235 6.38874 14.7273C6.38874 14.3422 6.38874 13.9572 6.38874 13.5722C6.38874 13.3797 6.38874 13.2834 6.2879 13.1872C5.07781 12.1283 3.86773 10.9733 2.75849 9.91444C1.34672 8.56684 0.741679 6.83422 1.0442 4.90909C1.34672 2.59893 3.26269 0.673794 5.58202 0.19251C5.68286 0.0962538 6.08622 0.0962567 6.38874 0ZM7.90134 8.37433C7.90134 7.9893 7.90134 7.70053 7.90134 7.31551C7.90134 6.93048 7.90134 6.64171 7.90134 6.25669C8.20386 6.25669 8.60722 6.25668 8.80891 6.16042C9.61563 5.96791 10.1198 5.19786 10.019 4.42781C9.91815 3.65775 9.21227 3.08021 8.40554 3.08021C7.90134 3.08021 7.39714 3.08021 6.89294 3.08021H6.7921C6.7921 4.81283 6.7921 6.54545 6.7921 8.27808C7.19546 8.37433 7.59882 8.37433 7.90134 8.37433ZM5.68286 8.37433C5.68286 6.64171 5.68286 4.90909 5.68286 3.17647C5.27949 3.17647 4.97697 3.17647 4.57361 3.17647C4.57361 4.90909 4.57361 6.64171 4.57361 8.37433C4.97697 8.37433 5.38033 8.37433 5.68286 8.37433Z" fill="#0F63AC"/>
</svg>
