<svg width="274" height="735" viewBox="0 0 274 735" fill="none" xmlns="http://www.w3.org/2000/svg">
<rect width="274" height="735" rx="22" fill="#EDEDED"/>
<mask id="path-2-inside-1_255_432" fill="white">
<path d="M14 96H262V133H14V96Z"/>
</mask>
<path d="M14 97H262V95H14V97Z" fill="url(#paint0_linear_255_432)" mask="url(#path-2-inside-1_255_432)"/>
<mask id="path-4-inside-2_255_432" fill="white">
<path d="M14 420H262V457H14V420Z"/>
</mask>
<path d="M14 421H262V419H14V421Z" fill="url(#paint1_linear_255_432)" mask="url(#path-4-inside-2_255_432)"/>
<path d="M14.5 712C14.5 702.335 22.335 694.5 32 694.5H244C253.665 694.5 261.5 702.335 261.5 712C261.5 721.665 253.665 729.5 244 729.5H32C22.335 729.5 14.5 721.665 14.5 712Z" stroke="#19427D"/>
<g clip-path="url(#clip0_255_432)">
<path d="M220.094 701.811C221.146 701.811 221.999 700.958 221.999 699.905C221.999 698.853 221.146 698 220.094 698C219.042 698 218.188 698.853 218.188 699.905C218.188 700.958 219.042 701.811 220.094 701.811Z" fill="#E21F26"/>
<path d="M218.665 703.21L218.692 703.185L218.711 704.266C218.711 704.266 218.299 705.265 218.317 705.411C218.317 705.411 218.271 705.668 218.354 705.97L218.491 706.612L218.464 707.262L218.39 707.399L217.639 708.948C217.639 708.948 217.456 709.488 217.621 709.717C217.621 709.717 217.832 710.194 217.795 710.405L217.786 711.046C217.786 711.046 217.456 712.328 216.668 713.144C216.668 713.144 215.427 714.316 214.918 714.756C214.918 714.756 213.256 716.254 213.036 716.364C213.036 716.364 211.524 717.711 211.153 718.068C211.153 718.068 208.157 720.844 208.061 720.927L208.57 720.267L208.391 720.363C208.391 720.363 209.407 719.126 209.751 718.824L209.957 718.687L210.301 718.288L210.15 718.33L209.682 718.632L208.336 719.896L207.58 720.556L207.085 720.941L207.896 720.075L207.456 720.363L209.05 718.673L210.04 717.697L211.442 716.268L213.256 714.894L214.218 714.152L215.702 713.052L215.716 712.942L214.987 713.313L213.586 714.22L212.005 715.375L211.332 715.911L210.659 716.474L208.762 718.178C208.762 718.178 207.306 719.415 206.522 720.184L205.67 720.995L205.519 721.023L206.591 719.882L205.917 720.432L205.972 720.253L207.113 719.14L209.889 716.419L211.717 714.674L212.706 713.849L213.943 713.093C213.943 713.093 214.809 712.681 215.331 712.255C215.331 712.255 215.757 712.021 215.661 711.801L215.454 711.788L214.396 712.488L213.146 713.299L212.802 713.588L212.129 714.055L210.054 715.471L208.254 716.858L207.442 717.505L206.247 718.7L206.796 717.944L206.59 718.095L207.58 716.9L209.16 715.196L209.229 715.045L209.957 714.454L211.592 713.176L213.681 711.83L214.767 711.046L214.835 710.923L214.464 711.156L213.008 712.022L211.703 712.737L210.438 713.478L211.73 712.53L211.565 712.558L211.277 712.668L212.884 711.486L211.221 712.558L210.205 713.327L208.775 714.316L207.456 715.141L207.003 715.361L207.113 715.058L207.827 714.069L208.885 713.038C208.885 713.038 211.785 710.661 212.348 710.331L215.564 707.885L215.674 707.761L215.33 707.899L211.977 710.524L209.545 712.433C209.545 712.433 208.775 713.066 208.363 713.258L207.854 713.615L208.734 712.255L209.558 711.197L212.169 708.861L215.44 706.057L217.419 704.326L218.665 703.21Z" fill="#E21F26"/>
</g>
<g clip-path="url(#clip1_255_432)">
<path d="M182.914 707.424C183.026 707.424 183.11 707.424 183.194 707.424C185.092 707.424 186.99 707.418 188.888 707.428C189.536 707.431 190.186 707.471 190.782 707.776C191.875 708.334 192.433 709.231 192.461 710.458C192.483 711.441 192.191 712.316 191.475 712.998C191.187 713.272 190.797 713.439 190.451 713.652C190.39 713.69 190.32 713.713 190.201 713.767C190.317 713.836 190.381 713.885 190.453 713.915C191.595 714.381 192.106 715.262 192.154 716.462C192.205 717.728 191.709 718.769 190.839 719.648C190.192 720.303 189.378 720.682 188.473 720.724C186.989 720.794 185.501 720.779 184.015 720.79C182.912 720.798 181.81 720.792 180.707 720.792C180.614 720.792 180.522 720.792 180.391 720.792C181.234 716.326 182.071 711.893 182.914 707.424ZM184.533 717.955C184.597 717.972 184.629 717.989 184.66 717.988C185.505 717.973 186.351 717.994 187.192 717.931C188.195 717.856 188.704 717.237 188.651 716.267C188.614 715.601 188.295 715.235 187.626 715.197C186.826 715.152 186.024 715.164 185.222 715.147C185.074 715.144 185.041 715.224 185.018 715.348C184.94 715.783 184.851 716.216 184.769 716.651C184.688 717.084 184.612 717.518 184.533 717.955ZM185.521 712.706C186.316 712.671 187.056 712.652 187.794 712.603C188.366 712.564 188.745 712.237 188.981 711.722C189.34 710.941 189 710.209 188.158 710.11C187.492 710.032 186.811 710.068 186.138 710.072C186.076 710.073 185.98 710.206 185.959 710.292C185.892 710.564 185.853 710.843 185.804 711.12C185.715 711.622 185.625 712.124 185.521 712.706Z" fill="#2F3081"/>
<path d="M200.671 718.585C200.14 718.585 199.637 718.585 199.134 718.585C198.408 718.585 197.682 718.592 196.955 718.581C196.781 718.579 196.693 718.639 196.63 718.794C196.389 719.384 196.138 719.97 195.895 720.56C195.84 720.694 195.786 720.795 195.61 720.794C194.448 720.788 193.285 720.79 192.123 720.789C192.09 720.789 192.056 720.779 191.991 720.769C192.032 720.658 192.061 720.555 192.108 720.46C194.235 716.199 196.363 711.939 198.488 707.677C198.577 707.499 198.676 707.415 198.891 707.418C199.994 707.431 201.096 707.429 202.198 707.421C202.411 707.419 202.49 707.479 202.52 707.701C202.739 709.331 202.975 710.959 203.203 712.588C203.403 714.014 203.598 715.441 203.798 716.867C203.974 718.124 204.154 719.381 204.332 720.638C204.337 720.671 204.337 720.705 204.341 720.765C203.187 720.765 202.041 720.765 200.846 720.765C200.789 720.056 200.731 719.339 200.671 718.585ZM200.073 710.874C200.039 710.866 200.005 710.858 199.972 710.85C199.289 712.489 198.606 714.127 197.912 715.793C198.778 715.793 199.585 715.793 200.435 715.793C200.314 714.142 200.193 712.508 200.073 710.874Z" fill="#2F3081"/>
<path d="M178.91 720.777C177.733 720.777 176.591 720.777 175.416 720.777C175.358 720.05 175.3 719.332 175.242 718.604C175.143 718.597 175.068 718.586 174.993 718.586C173.839 718.586 172.685 718.59 171.531 718.582C171.35 718.581 171.266 718.636 171.197 718.81C170.951 719.426 170.685 720.034 170.417 720.641C170.39 720.703 170.307 720.783 170.249 720.784C169.028 720.792 167.807 720.79 166.539 720.79C166.588 720.676 166.62 720.594 166.659 720.515C168.796 716.238 170.935 711.961 173.068 707.682C173.159 707.499 173.26 707.418 173.475 707.42C174.577 707.431 175.68 707.429 176.783 707.421C176.981 707.42 177.055 707.466 177.084 707.682C177.415 710.123 177.759 712.562 178.102 715.001C178.363 716.85 178.629 718.697 178.892 720.545C178.902 720.611 178.903 720.679 178.91 720.777ZM175.007 715.795C174.883 714.131 174.762 712.499 174.641 710.867C174.609 710.862 174.577 710.857 174.545 710.852C173.862 712.49 173.179 714.127 172.483 715.795C173.351 715.795 174.158 715.795 175.007 715.795Z" fill="#2F3081"/>
<path d="M156.367 720.774C156.463 720.245 156.552 719.744 156.645 719.244C157.016 717.269 157.387 715.294 157.759 713.318C158.117 711.419 158.473 709.519 158.837 707.62C158.852 707.548 158.948 707.435 159.007 707.435C160.126 707.426 161.245 707.432 162.364 707.435C162.38 707.435 162.395 707.447 162.472 707.478C161.838 710.82 161.202 714.174 160.557 717.572C162.521 717.572 164.469 717.572 166.453 717.572C166.358 718.101 166.273 718.584 166.185 719.066C166.099 719.535 165.996 720.002 165.931 720.473C165.895 720.727 165.795 720.799 165.541 720.798C162.994 720.788 160.448 720.792 157.902 720.792C157.491 720.792 157.081 720.793 156.671 720.791C156.579 720.79 156.488 720.781 156.367 720.774Z" fill="#2F3081"/>
<path d="M141.424 715.917C141.424 716.266 141.427 716.58 141.424 716.895C141.414 717.738 141.985 718.048 142.722 717.977C143.276 717.924 143.616 717.579 143.755 717.081C143.958 716.353 144.117 715.611 144.263 714.868C144.628 713.022 144.975 711.172 145.328 709.324C145.436 708.755 145.548 708.186 145.646 707.616C145.67 707.481 145.711 707.423 145.854 707.424C146.948 707.428 148.042 707.427 149.136 707.429C149.169 707.429 149.202 707.441 149.27 707.454C149.214 707.775 149.162 708.089 149.103 708.403C148.631 710.888 148.161 713.374 147.681 715.858C147.482 716.887 147.264 717.908 146.803 718.865C146.325 719.857 145.57 720.516 144.515 720.782C143.049 721.151 141.566 721.16 140.124 720.682C138.814 720.248 138.148 719.26 138.018 717.911C137.977 717.481 138.018 717.043 138.021 716.609C138.022 716.44 138.093 716.353 138.274 716.33C139.323 716.197 140.37 716.056 141.424 715.917Z" fill="#2F3081"/>
<path d="M156.206 707.444C156.127 707.88 156.056 708.289 155.979 708.697C155.54 711.007 155.099 713.316 154.661 715.626C154.349 717.266 154.042 718.907 153.733 720.548C153.708 720.679 153.685 720.793 153.504 720.792C152.401 720.787 151.299 720.788 150.196 720.787C150.164 720.787 150.131 720.773 150.065 720.759C150.138 720.355 150.207 719.956 150.283 719.558C150.79 716.889 151.299 714.22 151.805 711.55C152.049 710.261 152.292 708.972 152.529 707.682C152.564 707.493 152.639 707.416 152.848 707.419C153.874 707.431 154.9 707.424 155.925 707.425C156.009 707.426 156.091 707.436 156.206 707.444Z" fill="#2F3081"/>
</g>
<path d="M160.327 726C160.355 725.603 160.38 725.091 160.402 724.464C160.426 723.836 160.437 723.348 160.437 723.001C160.762 723.002 161.068 723.003 161.354 723.003L162.156 723.001C162.15 723.059 162.147 723.111 162.147 723.157L161.971 723.144C161.926 723.139 161.846 723.137 161.734 723.137C161.621 723.135 161.51 723.135 161.402 723.135C161.055 723.135 160.791 723.135 160.611 723.137L160.567 724.396C160.788 724.4 160.991 724.403 161.176 724.403C161.395 724.403 161.666 724.4 161.989 724.396C161.983 724.44 161.979 724.488 161.978 724.541L161.149 724.534C161.052 724.534 160.856 724.537 160.56 724.541L160.514 725.862L161.145 725.864C161.392 725.864 161.564 725.863 161.659 725.862C161.756 725.859 161.887 725.853 162.052 725.844C162.045 725.903 162.041 725.955 162.041 726C161.69 725.999 161.433 725.998 161.27 725.998L160.327 726ZM162.624 726L162.698 724.657L162.718 724.027C162.721 723.914 162.722 723.832 162.722 723.781C162.76 723.782 162.789 723.783 162.808 723.783C162.826 723.783 162.854 723.782 162.892 723.781L162.863 724.282C162.895 724.213 162.922 724.161 162.942 724.126C162.964 724.089 162.993 724.05 163.03 724.009C163.067 723.968 163.11 723.93 163.16 723.895C163.211 723.858 163.272 723.828 163.342 723.805C163.414 723.78 163.487 723.762 163.562 723.752C163.636 723.74 163.71 723.735 163.784 723.735C163.907 723.735 164.026 723.749 164.142 723.776C164.258 723.804 164.354 723.853 164.43 723.921C164.506 723.989 164.558 724.067 164.586 724.156C164.615 724.244 164.63 724.339 164.63 724.44C164.63 724.485 164.627 724.553 164.623 724.642L164.577 725.642L164.568 726C164.539 725.999 164.51 725.998 164.482 725.998C164.455 725.998 164.427 725.999 164.399 726C164.414 725.817 164.425 725.642 164.434 725.475L164.465 724.912C164.477 724.704 164.482 724.554 164.482 724.462C164.482 724.365 164.469 724.279 164.441 724.203C164.413 724.126 164.365 724.063 164.296 724.014C164.228 723.962 164.148 723.926 164.054 723.904C163.96 723.88 163.864 723.869 163.764 723.869C163.625 723.869 163.502 723.888 163.395 723.926C163.294 723.962 163.205 724.017 163.129 724.088C163.053 724.159 162.99 724.248 162.942 724.356C162.906 724.436 162.878 724.546 162.859 724.688C162.841 724.811 162.826 725.013 162.815 725.292C162.804 725.571 162.799 725.807 162.799 726C162.761 725.999 162.732 725.998 162.711 725.998C162.691 725.998 162.662 725.999 162.624 726ZM165.221 726L165.287 724.567C165.291 724.428 165.3 724.069 165.313 723.491L165.326 723.001C165.36 723.002 165.388 723.003 165.41 723.003C165.435 723.003 165.463 723.002 165.495 723.001L165.436 724.284C165.47 724.215 165.498 724.161 165.522 724.121C165.547 724.082 165.58 724.042 165.621 724C165.662 723.958 165.705 723.922 165.75 723.893C165.797 723.862 165.849 723.836 165.906 723.814C165.965 723.79 166.033 723.771 166.111 723.757C166.19 723.742 166.272 723.735 166.359 723.735C166.486 723.735 166.607 723.749 166.721 723.776C166.836 723.803 166.933 723.848 167.014 723.913C167.094 723.976 167.15 724.052 167.181 724.141C167.211 724.23 167.227 724.32 167.227 724.409C167.227 724.438 167.226 724.479 167.225 724.532C167.222 724.613 167.216 724.722 167.207 724.86L167.172 725.754C167.169 725.811 167.166 725.893 167.163 726C167.125 725.999 167.096 725.998 167.075 725.998C167.053 725.998 167.023 725.999 166.985 726C167.003 725.811 167.016 725.621 167.025 725.429L167.055 724.893C167.066 724.727 167.071 724.584 167.071 724.464C167.071 724.325 167.044 724.211 166.992 724.124C166.94 724.036 166.853 723.97 166.73 723.926C166.609 723.88 166.48 723.858 166.344 723.858C166.253 723.858 166.163 723.868 166.075 723.888C165.993 723.907 165.922 723.933 165.86 723.965C165.809 723.992 165.762 724.025 165.719 724.064C165.674 724.107 165.633 724.156 165.596 724.214C165.557 724.28 165.524 724.353 165.498 724.433C165.473 724.508 165.454 724.608 165.44 724.734C165.43 724.833 165.42 725.024 165.41 725.31L165.392 726C165.354 725.999 165.325 725.998 165.306 725.998C165.287 725.998 165.259 725.999 165.221 726ZM167.919 724.014C167.929 723.964 167.937 723.907 167.943 723.842C168.093 723.801 168.222 723.773 168.332 723.759C168.442 723.743 168.553 723.735 168.666 723.735C168.796 723.735 168.917 723.746 169.029 723.77C169.141 723.792 169.233 723.83 169.303 723.884C169.375 723.937 169.422 723.998 169.444 724.066C169.467 724.135 169.479 724.206 169.479 724.277C169.479 724.351 169.476 724.444 169.47 724.556C169.466 724.668 169.459 724.788 169.45 724.917C169.442 725.046 169.434 725.207 169.426 725.4C169.419 725.592 169.415 725.73 169.415 725.815V726C169.377 725.999 169.346 725.998 169.323 725.998C169.298 725.998 169.267 725.999 169.231 726C169.251 725.776 169.265 725.594 169.272 725.455C169.281 725.316 169.288 725.167 169.292 725.007C169.298 724.846 169.305 724.696 169.314 724.556C169.269 724.594 169.234 724.623 169.209 724.642C169.185 724.66 169.159 724.676 169.13 724.69C169.102 724.705 169.067 724.72 169.026 724.737C168.987 724.751 168.95 724.764 168.917 724.776C168.883 724.786 168.801 724.809 168.67 724.844C168.542 724.879 168.449 724.906 168.394 724.923C168.268 724.964 168.17 725.003 168.101 725.04C168.027 725.079 167.964 725.123 167.915 725.172C167.871 725.214 167.838 725.259 167.818 725.306C167.794 725.361 167.783 725.421 167.783 725.484C167.783 725.579 167.811 725.662 167.868 725.732C167.926 725.802 167.997 725.852 168.084 725.881C168.172 725.909 168.277 725.923 168.4 725.923C168.462 725.923 168.521 725.92 168.578 725.914C168.635 725.907 168.689 725.898 168.739 725.888C168.79 725.876 168.863 725.855 168.958 725.824C168.945 725.88 168.934 725.936 168.925 725.991C168.807 726.015 168.71 726.029 168.635 726.035C168.562 726.042 168.492 726.046 168.427 726.046C168.303 726.046 168.19 726.037 168.086 726.018C167.982 725.999 167.895 725.961 167.824 725.906C167.754 725.85 167.702 725.785 167.668 725.712C167.635 725.639 167.618 725.562 167.618 725.481C167.618 725.42 167.628 725.361 167.649 725.303C167.669 725.245 167.701 725.189 167.743 725.136C167.778 725.093 167.825 725.052 167.884 725.013C167.953 724.967 168.029 724.927 168.112 724.895C168.209 724.857 168.313 724.822 168.424 724.789C168.455 724.781 168.576 724.749 168.787 724.695C168.882 724.67 168.972 724.639 169.057 724.603C169.142 724.564 169.208 724.512 169.255 724.447C169.302 724.379 169.325 724.311 169.325 724.242C169.325 724.192 169.314 724.145 169.292 724.099C169.27 724.052 169.231 724.009 169.174 723.968C169.118 723.927 169.048 723.898 168.965 723.882C168.881 723.866 168.793 723.858 168.701 723.858C168.594 723.858 168.494 723.865 168.4 723.88C168.306 723.893 168.227 723.909 168.163 723.928C168.098 723.946 168.017 723.974 167.919 724.014ZM170.028 726L170.103 724.657L170.123 724.027C170.126 723.914 170.127 723.832 170.127 723.781C170.165 723.782 170.194 723.783 170.213 723.783C170.23 723.783 170.258 723.782 170.296 723.781L170.268 724.282C170.3 724.213 170.326 724.161 170.347 724.126C170.369 724.089 170.398 724.05 170.435 724.009C170.471 723.968 170.515 723.93 170.564 723.895C170.616 723.858 170.677 723.828 170.747 723.805C170.819 723.78 170.892 723.762 170.967 723.752C171.041 723.74 171.115 723.735 171.188 723.735C171.312 723.735 171.431 723.749 171.547 723.776C171.662 723.804 171.758 723.853 171.834 723.921C171.911 723.989 171.963 724.067 171.99 724.156C172.02 724.244 172.034 724.339 172.034 724.44C172.034 724.485 172.032 724.553 172.028 724.642L171.982 725.642L171.973 726C171.944 725.999 171.915 725.998 171.887 725.998C171.859 725.998 171.832 725.999 171.804 726C171.818 725.817 171.83 725.642 171.839 725.475L171.87 724.912C171.881 724.704 171.887 724.554 171.887 724.462C171.887 724.365 171.873 724.279 171.845 724.203C171.818 724.126 171.769 724.063 171.7 724.014C171.633 723.962 171.552 723.926 171.459 723.904C171.365 723.88 171.268 723.869 171.169 723.869C171.03 723.869 170.906 723.888 170.8 723.926C170.698 723.962 170.61 724.017 170.534 724.088C170.458 724.159 170.395 724.248 170.347 724.356C170.31 724.436 170.282 724.546 170.263 724.688C170.246 724.811 170.231 725.013 170.219 725.292C170.209 725.571 170.204 725.807 170.204 726C170.166 725.999 170.137 725.998 170.116 725.998C170.096 725.998 170.066 725.999 170.028 726ZM174.137 725.824C174.123 725.884 174.112 725.94 174.106 725.991C173.92 726.028 173.747 726.046 173.586 726.046C173.433 726.046 173.291 726.025 173.157 725.982C173.025 725.94 172.912 725.872 172.817 725.778C172.721 725.683 172.65 725.564 172.604 725.422C172.558 725.279 172.535 725.128 172.535 724.972C172.535 724.758 172.571 724.554 172.643 724.361C172.716 724.167 172.832 724.015 172.99 723.904C173.15 723.791 173.365 723.735 173.636 723.735C173.834 723.735 174.022 723.762 174.201 723.816C174.202 723.864 174.208 723.916 174.216 723.97C174.064 723.923 173.945 723.893 173.858 723.88C173.772 723.865 173.693 723.858 173.621 723.858C173.467 723.858 173.331 723.888 173.212 723.948C173.094 724.006 172.995 724.09 172.916 724.198C172.838 724.307 172.782 724.428 172.749 724.563C172.716 724.696 172.7 724.83 172.7 724.965C172.7 725.11 172.719 725.246 172.755 725.372C172.792 725.498 172.85 725.6 172.931 725.679C173.011 725.758 173.11 725.819 173.228 725.862C173.345 725.903 173.468 725.923 173.597 725.923C173.668 725.923 173.745 725.917 173.825 725.903C173.906 725.889 174.01 725.862 174.137 725.824ZM174.766 723.218L174.772 723.001C174.809 723.002 174.846 723.003 174.884 723.003C174.922 723.003 174.96 723.002 174.996 723.001L174.99 723.218C174.953 723.215 174.916 723.214 174.878 723.214C174.84 723.214 174.802 723.215 174.766 723.218ZM174.687 726C174.703 725.78 174.721 725.397 174.741 724.851C174.763 724.304 174.774 723.948 174.774 723.781C174.812 723.782 174.842 723.783 174.862 723.783C174.884 723.783 174.914 723.782 174.952 723.781C174.932 724.059 174.911 724.438 174.891 724.919C174.872 725.399 174.862 725.76 174.862 726C174.824 725.999 174.795 725.998 174.774 725.998C174.754 725.998 174.725 725.999 174.687 726ZM175.495 726L175.57 724.657L175.59 724.027C175.593 723.914 175.594 723.832 175.594 723.781C175.632 723.782 175.661 723.783 175.68 723.783C175.697 723.783 175.725 723.782 175.763 723.781L175.735 724.282C175.767 724.213 175.793 724.161 175.814 724.126C175.836 724.089 175.865 724.05 175.902 724.009C175.938 723.968 175.981 723.93 176.031 723.895C176.083 723.858 176.143 723.828 176.214 723.805C176.285 723.78 176.359 723.762 176.433 723.752C176.508 723.74 176.582 723.735 176.655 723.735C176.778 723.735 176.898 723.749 177.013 723.776C177.129 723.804 177.225 723.853 177.301 723.921C177.377 723.989 177.429 724.067 177.457 724.156C177.487 724.244 177.501 724.339 177.501 724.44C177.501 724.485 177.499 724.553 177.495 724.642L177.448 725.642L177.44 726C177.41 725.999 177.382 725.998 177.354 725.998C177.326 725.998 177.298 725.999 177.271 726C177.285 725.817 177.297 725.642 177.306 725.475L177.336 724.912C177.348 724.704 177.354 724.554 177.354 724.462C177.354 724.365 177.34 724.279 177.312 724.203C177.284 724.126 177.236 724.063 177.167 724.014C177.1 723.962 177.019 723.926 176.926 723.904C176.832 723.88 176.735 723.869 176.635 723.869C176.496 723.869 176.373 723.888 176.266 723.926C176.165 723.962 176.077 724.017 176 724.088C175.924 724.159 175.862 724.248 175.814 724.356C175.777 724.436 175.749 724.546 175.73 724.688C175.713 724.811 175.698 725.013 175.686 725.292C175.676 725.571 175.671 725.807 175.671 726C175.633 725.999 175.604 725.998 175.583 725.998C175.562 725.998 175.533 725.999 175.495 726ZM178.191 726.802C178.385 726.858 178.544 726.895 178.67 726.914C178.796 726.933 178.912 726.943 179.017 726.943C179.142 726.943 179.258 726.927 179.365 726.894C179.463 726.866 179.546 726.828 179.615 726.778C179.677 726.732 179.724 726.682 179.758 726.626C179.797 726.56 179.827 726.478 179.846 726.38C179.866 726.282 179.879 726.177 179.883 726.064C179.893 725.882 179.901 725.677 179.905 725.448C179.876 725.519 179.85 725.574 179.828 725.615C179.808 725.655 179.778 725.698 179.74 725.743C179.702 725.787 179.657 725.827 179.606 725.864C179.556 725.899 179.499 725.931 179.433 725.96C179.368 725.988 179.296 726.01 179.217 726.026C179.138 726.042 179.056 726.051 178.971 726.051C178.835 726.051 178.708 726.033 178.591 725.998C178.475 725.963 178.371 725.903 178.279 725.82C178.188 725.736 178.119 725.629 178.073 725.499C178.026 725.367 178.002 725.229 178.002 725.084C178.002 724.886 178.037 724.696 178.108 724.515C178.178 724.333 178.278 724.184 178.406 724.066C178.537 723.948 178.687 723.863 178.857 723.812C179.027 723.76 179.211 723.735 179.408 723.735C179.609 723.735 179.852 723.76 180.138 723.812L180.116 724.064C180.112 724.113 180.107 724.176 180.103 724.253L180.052 725.26L180.028 726.18C180.022 726.29 180.008 726.387 179.984 726.472C179.959 726.563 179.921 726.645 179.87 726.716C179.819 726.788 179.754 726.849 179.677 726.899C179.599 726.948 179.501 726.988 179.382 727.017C179.253 727.05 179.108 727.066 178.947 727.066C178.828 727.066 178.713 727.059 178.6 727.046C178.487 727.034 178.356 727.011 178.207 726.976C178.204 726.916 178.198 726.858 178.191 726.802ZM179.962 723.915C179.823 723.888 179.712 723.872 179.628 723.866C179.545 723.861 179.471 723.858 179.406 723.858C179.238 723.858 179.082 723.877 178.938 723.915C178.795 723.953 178.663 724.025 178.543 724.13C178.424 724.236 178.332 724.371 178.266 724.537C178.2 724.702 178.167 724.874 178.167 725.051C178.167 725.221 178.197 725.375 178.257 725.512C178.319 725.65 178.413 725.754 178.541 725.824C178.669 725.893 178.812 725.927 178.967 725.927C179.072 725.927 179.17 725.916 179.261 725.892C179.332 725.875 179.397 725.847 179.459 725.809C179.522 725.769 179.582 725.717 179.639 725.653C179.696 725.588 179.746 725.513 179.789 725.427C179.833 725.339 179.864 725.249 179.883 725.158C179.908 725.031 179.926 724.868 179.936 724.668L179.962 723.915ZM181.661 725.958C181.658 725.888 181.652 725.826 181.643 725.771C181.759 725.823 181.868 725.859 181.97 725.879C182.073 725.9 182.167 725.91 182.252 725.91C182.365 725.91 182.46 725.894 182.54 725.862C182.62 725.829 182.681 725.782 182.722 725.719C182.763 725.656 182.783 725.59 182.783 725.521C182.783 725.49 182.78 725.461 182.772 725.433C182.767 725.404 182.756 725.375 182.742 725.347C182.727 725.318 182.71 725.292 182.691 725.268C182.674 725.243 182.648 725.216 182.614 725.185C182.582 725.154 182.544 725.12 182.5 725.082C182.456 725.043 182.387 724.986 182.293 724.908C182.2 724.83 182.122 724.764 182.061 724.708C182 724.651 181.95 724.594 181.909 724.537C181.869 724.478 181.841 724.425 181.823 724.376C181.807 724.328 181.799 724.279 181.799 724.229C181.799 724.144 181.825 724.062 181.878 723.983C181.932 723.902 182.009 723.841 182.109 723.798C182.21 723.756 182.337 723.735 182.491 723.735C182.62 723.735 182.765 723.751 182.926 723.785C182.928 723.85 182.932 723.912 182.939 723.972C182.846 723.932 182.761 723.906 182.687 723.893C182.614 723.878 182.539 723.871 182.463 723.871C182.367 723.871 182.28 723.885 182.199 723.915C182.118 723.943 182.058 723.984 182.017 724.04C181.977 724.094 181.957 724.154 181.957 724.218C181.957 724.253 181.962 724.286 181.97 724.317C181.979 724.348 181.993 724.379 182.012 724.411C182.031 724.442 182.055 724.474 182.085 724.508C182.115 724.54 182.154 724.578 182.201 724.622C182.25 724.665 182.318 724.724 182.408 724.8C182.499 724.875 182.566 724.932 182.61 724.972C182.654 725.01 182.691 725.045 182.722 725.077C182.754 725.109 182.784 725.145 182.812 725.185C182.841 725.223 182.865 725.26 182.882 725.297C182.9 725.333 182.913 725.371 182.922 725.409C182.931 725.446 182.935 725.483 182.935 725.521C182.935 725.613 182.908 725.7 182.854 725.782C182.8 725.865 182.72 725.929 182.616 725.976C182.514 726.023 182.39 726.046 182.245 726.046C182.191 726.046 182.123 726.042 182.041 726.033C181.96 726.024 181.895 726.015 181.845 726.004C181.797 725.996 181.735 725.98 181.661 725.958ZM184.44 723.735C184.576 723.735 184.708 723.754 184.836 723.792C184.963 723.83 185.075 723.895 185.172 723.987C185.27 724.078 185.345 724.198 185.396 724.345C185.447 724.493 185.473 724.65 185.473 724.816C185.473 724.994 185.446 725.166 185.392 725.33C185.337 725.494 185.26 725.632 185.161 725.743C185.061 725.853 184.944 725.93 184.809 725.976C184.676 726.021 184.534 726.044 184.383 726.044C184.278 726.044 184.174 726.031 184.071 726.007C183.97 725.983 183.875 725.943 183.785 725.886C183.698 725.829 183.62 725.755 183.552 725.664C183.487 725.573 183.436 725.465 183.401 725.341C183.367 725.216 183.35 725.087 183.35 724.952C183.35 724.716 183.394 724.501 183.482 724.306C183.57 724.11 183.701 723.965 183.875 723.873C184.051 723.781 184.24 723.735 184.44 723.735ZM184.436 723.858C184.261 723.858 184.1 723.9 183.95 723.985C183.801 724.07 183.691 724.2 183.621 724.374C183.55 724.548 183.515 724.74 183.515 724.948C183.515 725.094 183.535 725.232 183.574 725.361C183.615 725.49 183.681 725.599 183.77 725.688C183.859 725.776 183.955 725.837 184.058 725.873C184.162 725.906 184.271 725.923 184.385 725.923C184.516 725.923 184.638 725.902 184.752 725.859C184.866 725.817 184.967 725.746 185.053 725.646C185.141 725.547 185.206 725.424 185.247 725.279C185.288 725.134 185.308 724.98 185.308 724.818C185.308 724.667 185.288 724.526 185.247 724.394C185.207 724.26 185.145 724.154 185.06 724.075C184.975 723.995 184.878 723.938 184.77 723.906C184.661 723.874 184.55 723.858 184.436 723.858ZM185.991 726L186.031 725.222L186.071 723.904H185.792C185.797 723.864 185.801 723.823 185.802 723.781H186.075C186.082 723.568 186.088 723.444 186.093 723.407C186.101 723.33 186.115 723.269 186.132 723.225C186.15 723.179 186.172 723.141 186.2 723.108C186.228 723.076 186.265 723.047 186.31 723.021C186.357 722.993 186.411 722.971 186.473 722.957C186.534 722.942 186.605 722.935 186.686 722.935C186.733 722.935 186.78 722.938 186.829 722.944C186.878 722.949 186.946 722.961 187.031 722.979C187.034 723.023 187.04 723.073 187.051 723.13C186.913 723.082 186.788 723.058 186.675 723.058C186.612 723.058 186.555 723.067 186.503 723.084C186.454 723.1 186.413 723.12 186.383 723.144C186.352 723.167 186.325 723.197 186.303 723.234C186.283 723.27 186.268 723.311 186.257 723.354C186.247 723.398 186.24 723.464 186.235 723.55C186.235 723.568 186.233 723.645 186.229 723.781H186.884C186.878 723.819 186.874 723.86 186.873 723.904H186.224L186.174 726C186.136 725.999 186.105 725.998 186.082 725.998C186.06 725.998 186.03 725.999 185.991 726ZM187.978 725.862C187.966 725.906 187.957 725.952 187.951 726C187.833 726.029 187.724 726.044 187.624 726.044C187.541 726.044 187.466 726.034 187.4 726.015C187.335 725.998 187.283 725.966 187.242 725.919C187.201 725.87 187.174 725.818 187.16 725.76C187.147 725.702 187.141 725.64 187.141 725.574C187.141 725.562 187.141 725.544 187.141 725.519C187.142 725.494 187.145 725.439 187.149 725.354L187.222 723.899H186.952C186.958 723.86 186.961 723.82 186.963 723.781H187.231C187.238 723.688 187.244 723.551 187.248 723.368C187.304 723.36 187.352 723.351 187.393 723.339C187.383 723.576 187.378 723.724 187.378 723.781H188.037C188.031 723.82 188.028 723.86 188.026 723.899H187.371L187.299 725.407L187.297 725.497C187.297 725.62 187.311 725.709 187.338 725.765C187.368 725.821 187.408 725.861 187.459 725.886C187.512 725.911 187.566 725.923 187.622 725.923C187.661 725.923 187.703 725.92 187.747 725.914C187.792 725.907 187.869 725.889 187.978 725.862ZM188.89 726L188.789 725.695L188.085 723.781C188.124 723.782 188.154 723.783 188.176 723.783C188.198 723.783 188.228 723.782 188.266 723.781L188.354 724.051L188.696 725.018L188.936 725.662C188.956 725.714 188.986 725.789 189.026 725.886L189.237 725.35L189.821 723.781C189.858 723.782 189.892 723.783 189.922 723.783C189.955 723.783 189.989 723.782 190.026 723.781L190.61 725.886C190.979 725.084 191.286 724.383 191.531 723.781C191.57 723.782 191.6 723.783 191.621 723.783C191.641 723.783 191.671 723.782 191.709 723.781L190.854 725.668L190.713 726C190.662 725.999 190.622 725.998 190.593 725.998C190.562 725.998 190.521 725.999 190.469 726L190.366 725.589L189.977 724.17C189.964 724.126 189.94 724.049 189.905 723.939L189.832 724.115L189.195 725.833C189.186 725.855 189.168 725.911 189.14 726C189.089 725.999 189.047 725.998 189.015 725.998C188.981 725.998 188.939 725.999 188.89 726ZM192.058 724.014C192.068 723.964 192.076 723.907 192.082 723.842C192.232 723.801 192.361 723.773 192.471 723.759C192.581 723.743 192.692 723.735 192.805 723.735C192.936 723.735 193.056 723.746 193.168 723.77C193.281 723.792 193.372 723.83 193.442 723.884C193.514 723.937 193.561 723.998 193.583 724.066C193.606 724.135 193.618 724.206 193.618 724.277C193.618 724.351 193.615 724.444 193.609 724.556C193.605 724.668 193.598 724.788 193.59 724.917C193.581 725.046 193.573 725.207 193.565 725.4C193.558 725.592 193.554 725.73 193.554 725.815V726C193.516 725.999 193.486 725.998 193.462 725.998C193.437 725.998 193.406 725.999 193.37 726C193.39 725.776 193.404 725.594 193.412 725.455C193.42 725.316 193.427 725.167 193.431 725.007C193.437 724.846 193.445 724.696 193.453 724.556C193.408 724.594 193.373 724.623 193.348 724.642C193.324 724.66 193.298 724.676 193.269 724.69C193.241 724.705 193.207 724.72 193.166 724.737C193.126 724.751 193.089 724.764 193.056 724.776C193.022 724.786 192.94 724.809 192.81 724.844C192.681 724.879 192.588 724.906 192.533 724.923C192.407 724.964 192.309 725.003 192.24 725.04C192.166 725.079 192.104 725.123 192.054 725.172C192.01 725.214 191.978 725.259 191.957 725.306C191.934 725.361 191.922 725.421 191.922 725.484C191.922 725.579 191.95 725.662 192.008 725.732C192.065 725.802 192.136 725.852 192.223 725.881C192.311 725.909 192.416 725.923 192.539 725.923C192.601 725.923 192.66 725.92 192.717 725.914C192.774 725.907 192.828 725.898 192.878 725.888C192.929 725.876 193.002 725.855 193.097 725.824C193.084 725.88 193.073 725.936 193.064 725.991C192.946 726.015 192.849 726.029 192.774 726.035C192.701 726.042 192.632 726.046 192.566 726.046C192.443 726.046 192.329 726.037 192.225 726.018C192.121 725.999 192.034 725.961 191.964 725.906C191.893 725.85 191.841 725.785 191.808 725.712C191.774 725.639 191.757 725.562 191.757 725.481C191.757 725.42 191.767 725.361 191.788 725.303C191.808 725.245 191.84 725.189 191.882 725.136C191.917 725.093 191.964 725.052 192.023 725.013C192.092 724.967 192.168 724.927 192.251 724.895C192.348 724.857 192.452 724.822 192.563 724.789C192.594 724.781 192.715 724.749 192.926 724.695C193.021 724.67 193.111 724.639 193.196 724.603C193.281 724.564 193.347 724.512 193.394 724.447C193.441 724.379 193.464 724.311 193.464 724.242C193.464 724.192 193.453 724.145 193.431 724.099C193.409 724.052 193.37 724.009 193.313 723.968C193.257 723.927 193.188 723.898 193.104 723.882C193.021 723.866 192.933 723.858 192.84 723.858C192.733 723.858 192.633 723.865 192.539 723.88C192.446 723.893 192.366 723.909 192.302 723.928C192.238 723.946 192.156 723.974 192.058 724.014ZM194.167 726C194.185 725.691 194.202 725.328 194.218 724.91C194.234 724.493 194.242 724.182 194.242 723.979L194.24 723.781C194.269 723.782 194.296 723.783 194.321 723.783C194.348 723.783 194.375 723.782 194.403 723.781L194.383 724.196C194.433 724.096 194.479 724.021 194.521 723.97C194.564 723.918 194.613 723.876 194.668 723.842C194.726 723.807 194.792 723.781 194.866 723.763C194.942 723.744 195.021 723.735 195.104 723.735C195.164 723.735 195.224 723.742 195.286 723.757C195.286 723.806 195.289 723.856 195.295 723.906C195.197 723.881 195.112 723.869 195.04 723.869C194.969 723.869 194.906 723.878 194.849 723.897C194.793 723.916 194.74 723.944 194.69 723.981C194.642 724.017 194.594 724.068 194.548 724.132C194.501 724.195 194.466 724.263 194.442 724.334C194.413 724.418 194.393 724.52 194.383 724.64C194.367 724.827 194.356 725.041 194.352 725.281C194.346 725.605 194.343 725.845 194.343 726C194.305 725.999 194.276 725.998 194.255 725.998C194.235 725.998 194.206 725.999 194.167 726ZM197.257 725.787C197.245 725.841 197.236 725.896 197.23 725.952C197.109 725.987 197 726.011 196.903 726.024C196.806 726.039 196.708 726.046 196.606 726.046C196.431 726.046 196.275 726.023 196.138 725.976C196.004 725.927 195.888 725.848 195.791 725.739C195.695 725.627 195.626 725.503 195.585 725.365C195.544 725.227 195.523 725.081 195.523 724.926C195.523 724.722 195.558 724.531 195.629 724.354C195.699 724.176 195.815 724.028 195.976 723.91C196.137 723.793 196.337 723.735 196.576 723.735C196.74 723.735 196.888 723.765 197.022 723.827C197.155 723.887 197.258 723.986 197.332 724.124C197.406 724.261 197.444 724.425 197.444 724.614C197.444 724.649 197.442 724.682 197.439 724.715L195.701 724.717C195.694 724.812 195.69 724.884 195.69 724.932C195.69 725.071 195.711 725.206 195.752 725.336C195.793 725.467 195.854 725.576 195.936 725.664C196.02 725.752 196.119 725.817 196.235 725.859C196.351 725.902 196.473 725.923 196.602 725.923C196.798 725.923 197.017 725.878 197.257 725.787ZM195.721 724.596L197.283 724.598C197.282 724.497 197.276 724.419 197.266 724.365C197.255 724.311 197.236 724.255 197.208 724.198C197.181 724.141 197.147 724.092 197.107 724.051C197.069 724.009 197.024 723.973 196.971 723.946C196.92 723.916 196.862 723.894 196.798 723.88C196.733 723.865 196.666 723.858 196.595 723.858C196.518 723.858 196.442 723.866 196.367 723.884C196.292 723.902 196.224 723.926 196.163 723.957C196.101 723.987 196.043 724.027 195.989 724.075C195.936 724.122 195.892 724.173 195.857 724.229C195.823 724.285 195.797 724.338 195.778 724.389C195.76 724.439 195.741 724.508 195.721 724.596ZM198.843 725.958C198.84 725.888 198.834 725.826 198.826 725.771C198.941 725.823 199.051 725.859 199.153 725.879C199.256 725.9 199.349 725.91 199.434 725.91C199.547 725.91 199.643 725.894 199.722 725.862C199.803 725.829 199.864 725.782 199.905 725.719C199.946 725.656 199.966 725.59 199.966 725.521C199.966 725.49 199.962 725.461 199.955 725.433C199.949 725.404 199.939 725.375 199.924 725.347C199.91 725.318 199.893 725.292 199.874 725.268C199.856 725.243 199.831 725.216 199.797 725.185C199.765 725.154 199.727 725.12 199.683 725.082C199.639 725.043 199.57 724.986 199.476 724.908C199.382 724.83 199.305 724.764 199.243 724.708C199.183 724.651 199.133 724.594 199.092 724.537C199.052 724.478 199.023 724.425 199.006 724.376C198.99 724.328 198.982 724.279 198.982 724.229C198.982 724.144 199.008 724.062 199.061 723.983C199.115 723.902 199.192 723.841 199.292 723.798C199.393 723.756 199.52 723.735 199.674 723.735C199.803 723.735 199.948 723.751 200.109 723.785C200.11 723.85 200.115 723.912 200.122 723.972C200.028 723.932 199.944 723.906 199.869 723.893C199.796 723.878 199.721 723.871 199.645 723.871C199.55 723.871 199.462 723.885 199.382 723.915C199.301 723.943 199.24 723.984 199.199 724.04C199.16 724.094 199.14 724.154 199.14 724.218C199.14 724.253 199.144 724.286 199.153 724.317C199.162 724.348 199.176 724.379 199.195 724.411C199.214 724.442 199.238 724.474 199.267 724.508C199.298 724.54 199.337 724.578 199.384 724.622C199.432 724.665 199.501 724.724 199.59 724.8C199.681 724.875 199.749 724.932 199.792 724.972C199.836 725.01 199.874 725.045 199.905 725.077C199.937 725.109 199.967 725.145 199.995 725.185C200.024 725.223 200.047 725.26 200.065 725.297C200.083 725.333 200.096 725.371 200.104 725.409C200.113 725.446 200.118 725.483 200.118 725.521C200.118 725.613 200.091 725.7 200.036 725.782C199.982 725.865 199.903 725.929 199.799 725.976C199.697 726.023 199.573 726.046 199.428 726.046C199.374 726.046 199.305 726.042 199.223 726.033C199.143 726.024 199.078 726.015 199.028 726.004C198.979 725.996 198.918 725.98 198.843 725.958ZM201.623 723.735C201.759 723.735 201.891 723.754 202.018 723.792C202.146 723.83 202.258 723.895 202.354 723.987C202.453 724.078 202.527 724.198 202.579 724.345C202.63 724.493 202.656 724.65 202.656 724.816C202.656 724.994 202.628 725.166 202.574 725.33C202.52 725.494 202.443 725.632 202.344 725.743C202.244 725.853 202.127 725.93 201.992 725.976C201.859 726.021 201.717 726.044 201.566 726.044C201.46 726.044 201.356 726.031 201.254 726.007C201.153 725.983 201.057 725.943 200.968 725.886C200.88 725.829 200.802 725.755 200.735 725.664C200.669 725.573 200.619 725.465 200.583 725.341C200.55 725.216 200.533 725.087 200.533 724.952C200.533 724.716 200.577 724.501 200.665 724.306C200.753 724.11 200.884 723.965 201.058 723.873C201.234 723.781 201.422 723.735 201.623 723.735ZM201.618 723.858C201.444 723.858 201.282 723.9 201.133 723.985C200.983 724.07 200.874 724.2 200.803 724.374C200.733 724.548 200.698 724.74 200.698 724.948C200.698 725.094 200.718 725.232 200.757 725.361C200.798 725.49 200.863 725.599 200.953 725.688C201.042 725.776 201.138 725.837 201.24 725.873C201.344 725.906 201.454 725.923 201.568 725.923C201.698 725.923 201.821 725.902 201.935 725.859C202.049 725.817 202.149 725.746 202.236 725.646C202.324 725.547 202.388 725.424 202.429 725.279C202.47 725.134 202.491 724.98 202.491 724.818C202.491 724.667 202.47 724.526 202.429 724.394C202.39 724.26 202.327 724.154 202.242 724.075C202.157 723.995 202.061 723.938 201.952 723.906C201.844 723.874 201.733 723.858 201.618 723.858ZM203.139 726C203.206 724.778 203.246 723.779 203.258 723.001C203.296 723.002 203.326 723.003 203.348 723.003C203.37 723.003 203.4 723.002 203.438 723.001L203.383 724.071L203.319 726C203.281 725.999 203.251 725.998 203.229 725.998C203.207 725.998 203.177 725.999 203.139 726ZM205.905 726C205.876 725.999 205.849 725.998 205.824 725.998C205.799 725.998 205.772 725.999 205.743 726L205.76 725.523C205.727 725.598 205.699 725.652 205.677 725.686C205.656 725.718 205.629 725.752 205.595 725.789C205.562 725.826 205.519 725.861 205.468 725.895C205.418 725.927 205.359 725.955 205.29 725.978C205.221 726.001 205.15 726.018 205.077 726.029C205.005 726.039 204.933 726.044 204.859 726.044C204.733 726.044 204.615 726.03 204.506 726.002C204.397 725.974 204.301 725.926 204.216 725.857C204.132 725.788 204.075 725.708 204.044 725.618C204.013 725.525 203.998 725.421 203.998 725.306C203.998 725.216 204.008 724.996 204.027 724.644C204.047 724.291 204.057 724.003 204.057 723.781C204.095 723.782 204.124 723.783 204.143 723.783C204.162 723.783 204.191 723.782 204.229 723.781C204.217 723.907 204.199 724.168 204.176 724.565C204.154 724.962 204.143 725.21 204.143 725.31C204.143 725.421 204.158 725.516 204.187 725.594C204.216 725.671 204.267 725.736 204.339 725.787C204.412 725.837 204.494 725.872 204.585 725.892C204.677 725.913 204.771 725.923 204.868 725.923C204.969 725.923 205.066 725.911 205.158 725.886C205.252 725.859 205.33 725.827 205.391 725.789C205.453 725.751 205.507 725.704 205.554 725.648C205.608 725.584 205.654 725.509 205.692 725.424C205.726 725.35 205.751 725.257 205.767 725.147C205.783 725.036 205.797 724.835 205.809 724.545C205.819 724.267 205.825 724.012 205.826 723.781C205.866 723.782 205.895 723.783 205.914 723.783C205.933 723.783 205.962 723.782 206 723.781L205.918 725.319L205.91 725.651C205.907 725.787 205.905 725.903 205.905 726ZM207.437 725.862C207.425 725.906 207.416 725.952 207.41 726C207.292 726.029 207.183 726.044 207.083 726.044C207 726.044 206.925 726.034 206.859 726.015C206.794 725.998 206.742 725.966 206.701 725.919C206.66 725.87 206.633 725.818 206.619 725.76C206.606 725.702 206.6 725.64 206.6 725.574C206.6 725.562 206.6 725.544 206.6 725.519C206.601 725.494 206.604 725.439 206.608 725.354L206.681 723.899H206.411C206.417 723.86 206.42 723.82 206.422 723.781H206.69C206.697 723.688 206.703 723.551 206.707 723.368C206.763 723.36 206.811 723.351 206.852 723.339C206.842 723.576 206.837 723.724 206.837 723.781H207.496C207.49 723.82 207.487 723.86 207.485 723.899H206.83L206.758 725.407L206.756 725.497C206.756 725.62 206.77 725.709 206.797 725.765C206.827 725.821 206.867 725.861 206.918 725.886C206.971 725.911 207.025 725.923 207.081 725.923C207.12 725.923 207.162 725.92 207.206 725.914C207.251 725.907 207.328 725.889 207.437 725.862ZM207.878 723.218L207.885 723.001C207.922 723.002 207.959 723.003 207.997 723.003C208.035 723.003 208.073 723.002 208.109 723.001L208.103 723.218C208.066 723.215 208.029 723.214 207.99 723.214C207.952 723.214 207.915 723.215 207.878 723.218ZM207.799 726C207.815 725.78 207.834 725.397 207.854 724.851C207.876 724.304 207.887 723.948 207.887 723.781C207.925 723.782 207.955 723.783 207.975 723.783C207.997 723.783 208.027 723.782 208.065 723.781C208.045 724.059 208.024 724.438 208.004 724.919C207.985 725.399 207.975 725.76 207.975 726C207.937 725.999 207.908 725.998 207.887 725.998C207.867 725.998 207.837 725.999 207.799 726ZM209.638 723.735C209.775 723.735 209.906 723.754 210.034 723.792C210.161 723.83 210.273 723.895 210.37 723.987C210.468 724.078 210.543 724.198 210.594 724.345C210.646 724.493 210.671 724.65 210.671 724.816C210.671 724.994 210.644 725.166 210.59 725.33C210.536 725.494 210.459 725.632 210.359 725.743C210.26 725.853 210.142 725.93 210.008 725.976C209.874 726.021 209.732 726.044 209.581 726.044C209.476 726.044 209.372 726.031 209.269 726.007C209.168 725.983 209.073 725.943 208.984 725.886C208.896 725.829 208.818 725.755 208.751 725.664C208.685 725.573 208.634 725.465 208.599 725.341C208.565 725.216 208.549 725.087 208.549 724.952C208.549 724.716 208.593 724.501 208.68 724.306C208.768 724.11 208.899 723.965 209.074 723.873C209.25 723.781 209.438 723.735 209.638 723.735ZM209.634 723.858C209.46 723.858 209.298 723.9 209.148 723.985C208.999 724.07 208.889 724.2 208.819 724.374C208.749 724.548 208.713 724.74 208.713 724.948C208.713 725.094 208.733 725.232 208.773 725.361C208.814 725.49 208.879 725.599 208.968 725.688C209.058 725.776 209.154 725.837 209.256 725.873C209.36 725.906 209.469 725.923 209.583 725.923C209.714 725.923 209.836 725.902 209.95 725.859C210.065 725.817 210.165 725.746 210.251 725.646C210.339 725.547 210.404 725.424 210.445 725.279C210.486 725.134 210.506 724.98 210.506 724.818C210.506 724.667 210.486 724.526 210.445 724.394C210.405 724.26 210.343 724.154 210.258 724.075C210.173 723.995 210.076 723.938 209.968 723.906C209.86 723.874 209.748 723.858 209.634 723.858ZM211.139 726L211.214 724.657L211.234 724.027C211.237 723.914 211.238 723.832 211.238 723.781C211.276 723.782 211.305 723.783 211.324 723.783C211.341 723.783 211.369 723.782 211.407 723.781L211.379 724.282C211.411 724.213 211.437 724.161 211.458 724.126C211.48 724.089 211.509 724.05 211.546 724.009C211.582 723.968 211.625 723.93 211.675 723.895C211.727 723.858 211.787 723.828 211.858 723.805C211.929 723.78 212.003 723.762 212.077 723.752C212.152 723.74 212.226 723.735 212.299 723.735C212.422 723.735 212.542 723.749 212.657 723.776C212.773 723.804 212.869 723.853 212.945 723.921C213.021 723.989 213.073 724.067 213.101 724.156C213.131 724.244 213.145 724.339 213.145 724.44C213.145 724.485 213.143 724.553 213.139 724.642L213.093 725.642L213.084 726C213.054 725.999 213.026 725.998 212.998 725.998C212.97 725.998 212.942 725.999 212.915 726C212.929 725.817 212.941 725.642 212.95 725.475L212.98 724.912C212.992 724.704 212.998 724.554 212.998 724.462C212.998 724.365 212.984 724.279 212.956 724.203C212.928 724.126 212.88 724.063 212.811 724.014C212.744 723.962 212.663 723.926 212.57 723.904C212.476 723.88 212.379 723.869 212.28 723.869C212.14 723.869 212.017 723.888 211.91 723.926C211.809 723.962 211.721 724.017 211.645 724.088C211.568 724.159 211.506 724.248 211.458 724.356C211.421 724.436 211.393 724.546 211.374 724.688C211.357 724.811 211.342 725.013 211.33 725.292C211.32 725.571 211.315 725.807 211.315 726C211.277 725.999 211.248 725.998 211.227 725.998C211.207 725.998 211.177 725.999 211.139 726ZM213.574 725.958C213.571 725.888 213.565 725.826 213.556 725.771C213.672 725.823 213.781 725.859 213.884 725.879C213.986 725.9 214.08 725.91 214.165 725.91C214.278 725.91 214.374 725.894 214.453 725.862C214.533 725.829 214.594 725.782 214.635 725.719C214.676 725.656 214.697 725.59 214.697 725.521C214.697 725.49 214.693 725.461 214.686 725.433C214.68 725.404 214.669 725.375 214.655 725.347C214.64 725.318 214.623 725.292 214.604 725.268C214.587 725.243 214.561 725.216 214.527 725.185C214.495 725.154 214.457 725.12 214.413 725.082C214.369 725.043 214.3 724.986 214.207 724.908C214.113 724.83 214.035 724.764 213.974 724.708C213.914 724.651 213.863 724.594 213.822 724.537C213.782 724.478 213.754 724.425 213.736 724.376C213.72 724.328 213.712 724.279 213.712 724.229C213.712 724.144 213.739 724.062 213.791 723.983C213.845 723.902 213.922 723.841 214.022 723.798C214.123 723.756 214.25 723.735 214.404 723.735C214.533 723.735 214.678 723.751 214.839 723.785C214.841 723.85 214.845 723.912 214.853 723.972C214.759 723.932 214.675 723.906 214.6 723.893C214.527 723.878 214.452 723.871 214.376 723.871C214.281 723.871 214.193 723.885 214.112 723.915C214.031 723.943 213.971 723.984 213.93 724.04C213.89 724.094 213.87 724.154 213.87 724.218C213.87 724.253 213.875 724.286 213.884 724.317C213.892 724.348 213.906 724.379 213.925 724.411C213.944 724.442 213.969 724.474 213.998 724.508C214.029 724.54 214.067 724.578 214.114 724.622C214.163 724.665 214.231 724.724 214.321 724.8C214.412 724.875 214.479 724.932 214.523 724.972C214.567 725.01 214.604 725.045 214.635 725.077C214.667 725.109 214.697 725.145 214.725 725.185C214.754 725.223 214.778 725.26 214.795 725.297C214.813 725.333 214.826 725.371 214.835 725.409C214.844 725.446 214.848 725.483 214.848 725.521C214.848 725.613 214.821 725.7 214.767 725.782C214.713 725.865 214.634 725.929 214.53 725.976C214.427 726.023 214.303 726.046 214.158 726.046C214.104 726.046 214.036 726.042 213.954 726.033C213.873 726.024 213.808 726.015 213.758 726.004C213.71 725.996 213.648 725.98 213.574 725.958Z" fill="#2F3081"/>
<path d="M56.224 717C56.144 717 56.076 716.972 56.02 716.916C55.964 716.86 55.936 716.792 55.936 716.712V708.9C55.936 708.812 55.964 708.74 56.02 708.684C56.076 708.628 56.144 708.6 56.224 708.6H59.152C59.96 708.6 60.624 708.724 61.144 708.972C61.672 709.22 62.068 709.588 62.332 710.076C62.604 710.564 62.744 711.16 62.752 711.864C62.768 712.216 62.776 712.528 62.776 712.8C62.776 713.072 62.768 713.38 62.752 713.724C62.736 714.468 62.6 715.084 62.344 715.572C62.088 716.052 61.7 716.412 61.18 716.652C60.668 716.884 60.012 717 59.212 717H56.224ZM57.604 715.62H59.152C59.6 715.62 59.964 715.556 60.244 715.428C60.524 715.3 60.728 715.096 60.856 714.816C60.992 714.528 61.064 714.152 61.072 713.688C61.08 713.448 61.084 713.24 61.084 713.064C61.092 712.88 61.092 712.7 61.084 712.524C61.084 712.34 61.08 712.132 61.072 711.9C61.056 711.244 60.892 710.76 60.58 710.448C60.268 710.136 59.772 709.98 59.092 709.98H57.604V715.62ZM66.9175 717.12C66.0295 717.12 65.3255 716.864 64.8055 716.352C64.2855 715.84 64.0055 715.112 63.9655 714.168C63.9575 714.088 63.9535 713.988 63.9535 713.868C63.9535 713.74 63.9575 713.64 63.9655 713.568C63.9975 712.968 64.1335 712.448 64.3735 712.008C64.6215 711.568 64.9615 711.232 65.3935 711C65.8255 710.76 66.3335 710.64 66.9175 710.64C67.5655 710.64 68.1095 710.776 68.5495 711.048C68.9895 711.312 69.3215 711.684 69.5455 712.164C69.7695 712.636 69.8815 713.184 69.8815 713.808V714.06C69.8815 714.14 69.8535 714.208 69.7975 714.264C69.7415 714.32 69.6695 714.348 69.5815 714.348H65.5975C65.5975 714.348 65.5975 714.36 65.5975 714.384C65.5975 714.408 65.5975 714.428 65.5975 714.444C65.6055 714.724 65.6575 714.984 65.7535 715.224C65.8575 715.456 66.0055 715.644 66.1975 715.788C66.3975 715.932 66.6335 716.004 66.9055 716.004C67.1295 716.004 67.3175 715.972 67.4695 715.908C67.6215 715.836 67.7455 715.756 67.8415 715.668C67.9375 715.58 68.0055 715.508 68.0455 715.452C68.1175 715.356 68.1735 715.3 68.2135 715.284C68.2615 715.26 68.3295 715.248 68.4175 715.248H69.4495C69.5295 715.248 69.5935 715.272 69.6415 715.32C69.6975 715.368 69.7215 715.428 69.7135 715.5C69.7055 715.628 69.6375 715.784 69.5095 715.968C69.3895 716.152 69.2135 716.332 68.9815 716.508C68.7495 716.684 68.4575 716.832 68.1055 716.952C67.7615 717.064 67.3655 717.12 66.9175 717.12ZM65.5975 713.34H68.2495V713.304C68.2495 712.992 68.1975 712.72 68.0935 712.488C67.9895 712.256 67.8375 712.072 67.6375 711.936C67.4375 711.8 67.1975 711.732 66.9175 711.732C66.6375 711.732 66.3975 711.8 66.1975 711.936C65.9975 712.072 65.8455 712.256 65.7415 712.488C65.6455 712.72 65.5975 712.992 65.5975 713.304V713.34ZM73.1406 717C73.0126 717 72.9166 716.972 72.8526 716.916C72.7966 716.852 72.7486 716.78 72.7086 716.7L70.4646 711.132C70.4486 711.092 70.4406 711.056 70.4406 711.024C70.4406 710.952 70.4646 710.892 70.5126 710.844C70.5686 710.788 70.6326 710.76 70.7046 710.76H71.6766C71.7726 710.76 71.8446 710.788 71.8926 710.844C71.9406 710.892 71.9726 710.94 71.9886 710.988L73.5846 715.2L75.1806 710.988C75.1966 710.94 75.2286 710.892 75.2766 710.844C75.3246 710.788 75.3966 710.76 75.4926 710.76H76.4766C76.5406 710.76 76.5966 710.788 76.6446 710.844C76.7006 710.892 76.7286 710.952 76.7286 711.024C76.7286 711.056 76.7246 711.092 76.7166 711.132L74.4606 716.7C74.4286 716.78 74.3806 716.852 74.3166 716.916C74.2526 716.972 74.1566 717 74.0286 717H73.1406ZM80.2886 717.12C79.4006 717.12 78.6966 716.864 78.1766 716.352C77.6566 715.84 77.3766 715.112 77.3366 714.168C77.3286 714.088 77.3246 713.988 77.3246 713.868C77.3246 713.74 77.3286 713.64 77.3366 713.568C77.3686 712.968 77.5046 712.448 77.7446 712.008C77.9926 711.568 78.3326 711.232 78.7646 711C79.1966 710.76 79.7046 710.64 80.2886 710.64C80.9366 710.64 81.4806 710.776 81.9206 711.048C82.3606 711.312 82.6926 711.684 82.9166 712.164C83.1406 712.636 83.2526 713.184 83.2526 713.808V714.06C83.2526 714.14 83.2246 714.208 83.1686 714.264C83.1126 714.32 83.0406 714.348 82.9526 714.348H78.9686C78.9686 714.348 78.9686 714.36 78.9686 714.384C78.9686 714.408 78.9686 714.428 78.9686 714.444C78.9766 714.724 79.0286 714.984 79.1246 715.224C79.2286 715.456 79.3766 715.644 79.5686 715.788C79.7686 715.932 80.0046 716.004 80.2766 716.004C80.5006 716.004 80.6886 715.972 80.8406 715.908C80.9926 715.836 81.1166 715.756 81.2126 715.668C81.3086 715.58 81.3766 715.508 81.4166 715.452C81.4886 715.356 81.5446 715.3 81.5846 715.284C81.6326 715.26 81.7006 715.248 81.7886 715.248H82.8206C82.9006 715.248 82.9646 715.272 83.0126 715.32C83.0686 715.368 83.0926 715.428 83.0846 715.5C83.0766 715.628 83.0086 715.784 82.8806 715.968C82.7606 716.152 82.5846 716.332 82.3526 716.508C82.1206 716.684 81.8286 716.832 81.4766 716.952C81.1326 717.064 80.7366 717.12 80.2886 717.12ZM78.9686 713.34H81.6206V713.304C81.6206 712.992 81.5686 712.72 81.4646 712.488C81.3606 712.256 81.2086 712.072 81.0086 711.936C80.8086 711.8 80.5686 711.732 80.2886 711.732C80.0086 711.732 79.7686 711.8 79.5686 711.936C79.3686 712.072 79.2166 712.256 79.1126 712.488C79.0166 712.72 78.9686 712.992 78.9686 713.304V713.34ZM84.8264 717C84.7464 717 84.6784 716.972 84.6224 716.916C84.5664 716.86 84.5384 716.792 84.5384 716.712V708.768C84.5384 708.688 84.5664 708.62 84.6224 708.564C84.6784 708.508 84.7464 708.48 84.8264 708.48H85.8224C85.9024 708.48 85.9704 708.508 86.0264 708.564C86.0824 708.62 86.1104 708.688 86.1104 708.768V716.712C86.1104 716.792 86.0824 716.86 86.0264 716.916C85.9704 716.972 85.9024 717 85.8224 717H84.8264ZM90.4622 717.12C89.8222 717.12 89.2822 717.008 88.8422 716.784C88.4102 716.56 88.0782 716.244 87.8462 715.836C87.6222 715.428 87.4942 714.952 87.4622 714.408C87.4542 714.264 87.4502 714.088 87.4502 713.88C87.4502 713.672 87.4542 713.496 87.4622 713.352C87.4942 712.8 87.6262 712.324 87.8582 711.924C88.0982 711.516 88.4342 711.2 88.8662 710.976C89.3062 710.752 89.8382 710.64 90.4622 710.64C91.0862 710.64 91.6142 710.752 92.0462 710.976C92.4862 711.2 92.8222 711.516 93.0542 711.924C93.2942 712.324 93.4302 712.8 93.4622 713.352C93.4702 713.496 93.4742 713.672 93.4742 713.88C93.4742 714.088 93.4702 714.264 93.4622 714.408C93.4302 714.952 93.2982 715.428 93.0662 715.836C92.8422 716.244 92.5102 716.56 92.0702 716.784C91.6382 717.008 91.1022 717.12 90.4622 717.12ZM90.4622 715.932C90.8862 715.932 91.2142 715.8 91.4462 715.536C91.6782 715.264 91.8062 714.868 91.8302 714.348C91.8382 714.228 91.8422 714.072 91.8422 713.88C91.8422 713.688 91.8382 713.532 91.8302 713.412C91.8062 712.9 91.6782 712.508 91.4462 712.236C91.2142 711.964 90.8862 711.828 90.4622 711.828C90.0382 711.828 89.7102 711.964 89.4782 712.236C89.2462 712.508 89.1182 712.9 89.0942 713.412C89.0862 713.532 89.0822 713.688 89.0822 713.88C89.0822 714.072 89.0862 714.228 89.0942 714.348C89.1182 714.868 89.2462 715.264 89.4782 715.536C89.7102 715.8 90.0382 715.932 90.4622 715.932ZM95.1037 719.28C95.0237 719.28 94.9557 719.252 94.8997 719.196C94.8437 719.14 94.8157 719.072 94.8157 718.992V711.048C94.8157 710.968 94.8437 710.9 94.8997 710.844C94.9557 710.788 95.0237 710.76 95.1037 710.76H96.0517C96.1397 710.76 96.2077 710.788 96.2557 710.844C96.3117 710.9 96.3397 710.968 96.3397 711.048V711.528C96.5317 711.272 96.7837 711.06 97.0957 710.892C97.4077 710.724 97.7957 710.64 98.2597 710.64C98.6837 710.64 99.0517 710.708 99.3637 710.844C99.6757 710.98 99.9357 711.176 100.144 711.432C100.352 711.68 100.512 711.976 100.624 712.32C100.736 712.664 100.8 713.044 100.816 713.46C100.824 713.596 100.828 713.736 100.828 713.88C100.828 714.024 100.824 714.168 100.816 714.312C100.808 714.712 100.748 715.084 100.636 715.428C100.524 715.764 100.36 716.06 100.144 716.316C99.9357 716.564 99.6757 716.76 99.3637 716.904C99.0517 717.048 98.6837 717.12 98.2597 717.12C97.8277 717.12 97.4597 717.044 97.1557 716.892C96.8517 716.732 96.6037 716.524 96.4117 716.268V718.992C96.4117 719.072 96.3837 719.14 96.3277 719.196C96.2797 719.252 96.2117 719.28 96.1237 719.28H95.1037ZM97.8157 715.836C98.1597 715.836 98.4277 715.764 98.6197 715.62C98.8117 715.468 98.9477 715.272 99.0277 715.032C99.1157 714.792 99.1677 714.528 99.1837 714.24C99.1997 714 99.1997 713.76 99.1837 713.52C99.1677 713.232 99.1157 712.968 99.0277 712.728C98.9477 712.488 98.8117 712.296 98.6197 712.152C98.4277 712 98.1597 711.924 97.8157 711.924C97.4877 711.924 97.2197 712 97.0117 712.152C96.8117 712.304 96.6637 712.5 96.5677 712.74C96.4797 712.972 96.4277 713.212 96.4117 713.46C96.4037 713.604 96.3997 713.756 96.3997 713.916C96.3997 714.076 96.4037 714.232 96.4117 714.384C96.4197 714.624 96.4757 714.856 96.5797 715.08C96.6837 715.296 96.8357 715.476 97.0357 715.62C97.2357 715.764 97.4957 715.836 97.8157 715.836ZM104.863 717.12C103.975 717.12 103.271 716.864 102.751 716.352C102.231 715.84 101.951 715.112 101.911 714.168C101.903 714.088 101.899 713.988 101.899 713.868C101.899 713.74 101.903 713.64 101.911 713.568C101.943 712.968 102.079 712.448 102.319 712.008C102.567 711.568 102.907 711.232 103.339 711C103.771 710.76 104.279 710.64 104.863 710.64C105.511 710.64 106.055 710.776 106.495 711.048C106.935 711.312 107.267 711.684 107.491 712.164C107.715 712.636 107.827 713.184 107.827 713.808V714.06C107.827 714.14 107.799 714.208 107.743 714.264C107.687 714.32 107.615 714.348 107.527 714.348H103.543C103.543 714.348 103.543 714.36 103.543 714.384C103.543 714.408 103.543 714.428 103.543 714.444C103.551 714.724 103.603 714.984 103.699 715.224C103.803 715.456 103.951 715.644 104.143 715.788C104.343 715.932 104.579 716.004 104.851 716.004C105.075 716.004 105.263 715.972 105.415 715.908C105.567 715.836 105.691 715.756 105.787 715.668C105.883 715.58 105.951 715.508 105.991 715.452C106.063 715.356 106.119 715.3 106.159 715.284C106.207 715.26 106.275 715.248 106.363 715.248H107.395C107.475 715.248 107.539 715.272 107.587 715.32C107.643 715.368 107.667 715.428 107.659 715.5C107.651 715.628 107.583 715.784 107.455 715.968C107.335 716.152 107.159 716.332 106.927 716.508C106.695 716.684 106.403 716.832 106.051 716.952C105.707 717.064 105.311 717.12 104.863 717.12ZM103.543 713.34H106.195V713.304C106.195 712.992 106.143 712.72 106.039 712.488C105.935 712.256 105.783 712.072 105.583 711.936C105.383 711.8 105.143 711.732 104.863 711.732C104.583 711.732 104.343 711.8 104.143 711.936C103.943 712.072 103.791 712.256 103.687 712.488C103.591 712.72 103.543 712.992 103.543 713.304V713.34ZM111.417 717.12C111.001 717.12 110.633 717.052 110.313 716.916C110.001 716.772 109.741 716.572 109.533 716.316C109.325 716.06 109.165 715.76 109.053 715.416C108.941 715.064 108.877 714.68 108.861 714.264C108.853 714.12 108.849 713.992 108.849 713.88C108.849 713.76 108.853 713.628 108.861 713.484C108.877 713.084 108.937 712.712 109.041 712.368C109.153 712.024 109.313 711.724 109.521 711.468C109.737 711.204 110.001 711 110.313 710.856C110.633 710.712 111.001 710.64 111.417 710.64C111.849 710.64 112.213 710.716 112.509 710.868C112.813 711.012 113.065 711.2 113.265 711.432V708.768C113.265 708.688 113.289 708.62 113.337 708.564C113.393 708.508 113.465 708.48 113.553 708.48H114.573C114.653 708.48 114.721 708.508 114.777 708.564C114.833 708.62 114.861 708.688 114.861 708.768V716.712C114.861 716.792 114.833 716.86 114.777 716.916C114.721 716.972 114.653 717 114.573 717H113.625C113.537 717 113.465 716.972 113.409 716.916C113.361 716.86 113.337 716.792 113.337 716.712V716.268C113.137 716.516 112.881 716.72 112.569 716.88C112.265 717.04 111.881 717.12 111.417 717.12ZM111.861 715.836C112.197 715.836 112.465 715.76 112.665 715.608C112.865 715.456 113.013 715.264 113.109 715.032C113.205 714.792 113.257 714.548 113.265 714.3C113.273 714.156 113.277 714.004 113.277 713.844C113.277 713.676 113.273 713.52 113.265 713.376C113.257 713.136 113.201 712.908 113.097 712.692C112.993 712.468 112.841 712.284 112.641 712.14C112.441 711.996 112.181 711.924 111.861 711.924C111.525 711.924 111.257 712 111.057 712.152C110.865 712.296 110.725 712.488 110.637 712.728C110.549 712.968 110.497 713.232 110.481 713.52C110.473 713.76 110.473 714 110.481 714.24C110.497 714.528 110.549 714.792 110.637 715.032C110.725 715.272 110.865 715.468 111.057 715.62C111.257 715.764 111.525 715.836 111.861 715.836ZM122.658 717.12C122.194 717.12 121.806 717.04 121.494 716.88C121.19 716.72 120.938 716.516 120.738 716.268V716.712C120.738 716.792 120.71 716.86 120.654 716.916C120.606 716.972 120.538 717 120.45 717H119.502C119.422 717 119.354 716.972 119.298 716.916C119.242 716.86 119.214 716.792 119.214 716.712V708.768C119.214 708.688 119.242 708.62 119.298 708.564C119.354 708.508 119.422 708.48 119.502 708.48H120.522C120.61 708.48 120.678 708.508 120.726 708.564C120.782 708.62 120.81 708.688 120.81 708.768V711.432C121.01 711.2 121.258 711.012 121.554 710.868C121.858 710.716 122.226 710.64 122.658 710.64C123.082 710.64 123.45 710.712 123.762 710.856C124.074 711 124.334 711.204 124.542 711.468C124.758 711.724 124.922 712.024 125.034 712.368C125.146 712.712 125.206 713.084 125.214 713.484C125.222 713.628 125.226 713.76 125.226 713.88C125.226 713.992 125.222 714.12 125.214 714.264C125.198 714.68 125.134 715.064 125.022 715.416C124.91 715.76 124.75 716.06 124.542 716.316C124.334 716.572 124.074 716.772 123.762 716.916C123.45 717.052 123.082 717.12 122.658 717.12ZM122.214 715.836C122.558 715.836 122.826 715.764 123.018 715.62C123.21 715.468 123.346 715.272 123.426 715.032C123.514 714.792 123.566 714.528 123.582 714.24C123.598 714 123.598 713.76 123.582 713.52C123.566 713.232 123.514 712.968 123.426 712.728C123.346 712.488 123.21 712.296 123.018 712.152C122.826 712 122.558 711.924 122.214 711.924C121.894 711.924 121.634 711.996 121.434 712.14C121.234 712.284 121.082 712.468 120.978 712.692C120.874 712.908 120.818 713.136 120.81 713.376C120.802 713.52 120.798 713.676 120.798 713.844C120.798 714.004 120.802 714.156 120.81 714.3C120.826 714.548 120.878 714.792 120.966 715.032C121.062 715.264 121.21 715.456 121.41 715.608C121.618 715.76 121.886 715.836 122.214 715.836ZM127.443 719.28C127.379 719.28 127.323 719.256 127.275 719.208C127.227 719.16 127.203 719.104 127.203 719.04C127.203 719.008 127.203 718.976 127.203 718.944C127.211 718.92 127.227 718.888 127.251 718.848L128.187 716.628L125.883 711.192C125.851 711.112 125.835 711.056 125.835 711.024C125.843 710.952 125.871 710.892 125.919 710.844C125.967 710.788 126.027 710.76 126.099 710.76H127.071C127.167 710.76 127.239 710.784 127.287 710.832C127.335 710.88 127.371 710.932 127.395 710.988L128.991 714.912L130.635 710.988C130.659 710.924 130.695 710.872 130.743 710.832C130.791 710.784 130.863 710.76 130.959 710.76H131.919C131.983 710.76 132.039 710.784 132.087 710.832C132.143 710.88 132.171 710.936 132.171 711C132.171 711.048 132.155 711.112 132.123 711.192L128.727 719.052C128.695 719.116 128.655 719.168 128.607 719.208C128.559 719.256 128.487 719.28 128.391 719.28H127.443Z" fill="#19427D"/>
<defs>
<linearGradient id="paint0_linear_255_432" x1="14" y1="114.5" x2="262" y2="114.5" gradientUnits="userSpaceOnUse">
<stop stop-color="white"/>
<stop offset="0.5" stop-color="#0D6784"/>
<stop offset="1" stop-color="white"/>
</linearGradient>
<linearGradient id="paint1_linear_255_432" x1="262" y1="438.5" x2="14" y2="438.5" gradientUnits="userSpaceOnUse">
<stop stop-color="white"/>
<stop offset="0.495" stop-color="#0D6784"/>
<stop offset="1" stop-color="white"/>
</linearGradient>
<clipPath id="clip0_255_432">
<rect width="16.4814" height="23.0226" fill="white" transform="translate(205.519 698)"/>
</clipPath>
<clipPath id="clip1_255_432">
<rect width="66.3415" height="13.6317" fill="white" transform="translate(138 707.418)"/>
</clipPath>
</defs>
</svg>
