<svg width="28" height="28" viewBox="0 0 28 28" fill="none" xmlns="http://www.w3.org/2000/svg">
<rect x="0.5" y="0.5" width="27" height="27" rx="3.5" fill="#DFE8F0" stroke="#D0DCE6"/>
<path d="M12.251 5.11035C11.0056 5.33106 9.91782 5.77248 8.90887 6.44249C5.74013 8.5471 4.29764 12.4253 5.33024 16.0748C5.56671 16.9025 6.21307 18.211 6.71755 18.881C8.29404 20.9856 10.6351 22.231 13.3151 22.3965L14.0797 22.4438V21.3166V20.1816H13.6935C11.1317 20.1737 8.70392 18.542 7.7265 16.1694C7.37967 15.326 7.2772 14.7742 7.2772 13.6707C7.2772 12.5277 7.39544 11.9208 7.82109 10.9985C8.83004 8.7678 11.179 7.23073 13.5753 7.23073H14.0797V6.11142V5L13.4334 5.00788C13.0629 5.00788 12.5427 5.05518 12.251 5.11035Z" fill="#0E62AC"/>
<path d="M19.0615 10.7148V12.1415H16.3814H13.7014V13.8126V15.4836H16.3814H19.0615L19.0772 16.8946L19.1009 18.3056L21.3553 16.0591L23.6018 13.8047L21.3316 11.5345L19.0615 9.2644V10.7148Z" fill="#0E62AC"/>
</svg>
