<svg width="249" height="48" viewBox="0 0 249 48" fill="none" xmlns="http://www.w3.org/2000/svg">
<g clip-path="url(#clip0_548_329)">
<path d="M24.0286 23.9268C24.0923 20.742 25.4704 17.7821 28.1942 15.419C28.7175 14.965 29.4453 15.0053 29.9037 15.495C30.3555 15.9775 30.3322 16.6992 29.8059 17.154C28.8001 18.023 27.9758 19.0223 27.3977 20.2037C24.7319 25.6521 27.85 32.1739 34.0842 33.4507C39.4455 34.5487 44.6319 31.0709 45.4721 25.8152C46.012 22.4374 44.9453 19.5624 42.3417 17.2457C41.9086 16.8603 41.6762 16.4332 41.8579 15.8713C42.1222 15.0541 43.1245 14.8051 43.817 15.3823C44.7249 16.1391 45.5027 17.0077 46.1429 17.9906C50.5106 24.6971 46.94 33.5646 39.0431 35.6224C34.5209 36.8008 29.5273 35.1605 26.632 31.5494C24.9179 29.4116 24.0526 26.9901 24.0286 23.9268Z" fill="#004B64"/>
<path d="M34.8209 17.8327C34.821 16.3062 34.8155 14.7796 34.8233 13.2531C34.8275 12.4336 35.4162 11.9143 36.2034 12.0117C36.7179 12.0753 37.137 12.4721 37.2081 12.9712C37.2272 13.1056 37.2331 13.2428 37.2332 13.3787C37.2345 16.359 37.2338 19.3394 37.2349 22.3198C37.2351 22.6326 37.209 22.9352 37.0137 23.2028C36.7251 23.5983 36.2118 23.7871 35.7257 23.6686C35.2566 23.5541 34.8988 23.1595 34.8412 22.6838C34.8248 22.549 34.8218 22.412 34.8216 22.276C34.8202 20.7949 34.8207 19.3138 34.8209 17.8327Z" fill="#004B64"/>
</g>
<path d="M57.2126 29.5V18.3H58.5566V28.428H63.7726V29.5H57.2126ZM68.8111 29.692C68.0644 29.692 67.3924 29.5213 66.7951 29.18C66.1977 28.8387 65.7231 28.3587 65.3711 27.74C65.0297 27.1107 64.8591 26.3747 64.8591 25.532C64.8591 24.6893 65.0351 23.9587 65.3871 23.34C65.7391 22.7107 66.2137 22.2253 66.8111 21.884C67.4191 21.5427 68.0964 21.372 68.8431 21.372C69.5897 21.372 70.2617 21.5427 70.8591 21.884C71.4564 22.2253 71.9257 22.7107 72.2671 23.34C72.6191 23.9587 72.7951 24.6893 72.7951 25.532C72.7951 26.3747 72.6191 27.1107 72.2671 27.74C71.9151 28.3587 71.4351 28.8387 70.8271 29.18C70.2297 29.5213 69.5577 29.692 68.8111 29.692ZM68.8111 28.54C69.2697 28.54 69.6964 28.428 70.0911 28.204C70.4857 27.98 70.8057 27.644 71.0511 27.196C71.2964 26.748 71.4191 26.1933 71.4191 25.532C71.4191 24.8707 71.2964 24.316 71.0511 23.868C70.8164 23.42 70.5017 23.084 70.1071 22.86C69.7124 22.636 69.2911 22.524 68.8431 22.524C68.3844 22.524 67.9577 22.636 67.5631 22.86C67.1684 23.084 66.8484 23.42 66.6031 23.868C66.3577 24.316 66.2351 24.8707 66.2351 25.532C66.2351 26.1933 66.3577 26.748 66.6031 27.196C66.8484 27.644 67.1631 27.98 67.5471 28.204C67.9417 28.428 68.3631 28.54 68.8111 28.54ZM77.4561 27.004C77.0081 27.004 76.5974 26.9453 76.2241 26.828L75.4241 27.58C75.5414 27.6653 75.6854 27.74 75.8561 27.804C76.0374 27.8573 76.2934 27.9107 76.6241 27.964C76.9547 28.0067 77.4187 28.0547 78.0161 28.108C79.0827 28.1827 79.8454 28.428 80.3041 28.844C80.7627 29.26 80.9921 29.804 80.9921 30.476C80.9921 30.9347 80.8641 31.372 80.6081 31.788C80.3627 32.204 79.9787 32.5453 79.4561 32.812C78.9441 33.0787 78.2827 33.212 77.4721 33.212C76.7574 33.212 76.1227 33.116 75.5681 32.924C75.0134 32.7427 74.5814 32.46 74.2721 32.076C73.9627 31.7027 73.8081 31.228 73.8081 30.652C73.8081 30.3533 73.8881 30.028 74.0481 29.676C74.2081 29.3347 74.5067 29.0093 74.9441 28.7C74.7094 28.604 74.5067 28.5027 74.3361 28.396C74.1761 28.2787 74.0267 28.1507 73.8881 28.012V27.644L75.2481 26.3C74.6187 25.7667 74.3041 25.0627 74.3041 24.188C74.3041 23.6653 74.4267 23.1907 74.6721 22.764C74.9174 22.3373 75.2747 22.0013 75.7441 21.756C76.2134 21.5 76.7841 21.372 77.4561 21.372C77.9147 21.372 78.3307 21.436 78.7041 21.564H81.6321V22.572L80.1441 22.636C80.4534 23.084 80.6081 23.6013 80.6081 24.188C80.6081 24.7107 80.4801 25.1853 80.2241 25.612C79.9787 26.0387 79.6214 26.38 79.1521 26.636C78.6934 26.8813 78.1281 27.004 77.4561 27.004ZM77.4561 25.9C78.0214 25.9 78.4694 25.756 78.8001 25.468C79.1414 25.1693 79.3121 24.7427 79.3121 24.188C79.3121 23.644 79.1414 23.228 78.8001 22.94C78.4694 22.6413 78.0214 22.492 77.4561 22.492C76.8801 22.492 76.4214 22.6413 76.0801 22.94C75.7494 23.228 75.5841 23.644 75.5841 24.188C75.5841 24.7427 75.7494 25.1693 76.0801 25.468C76.4214 25.756 76.8801 25.9 77.4561 25.9ZM75.1201 30.524C75.1201 31.0573 75.3441 31.452 75.7921 31.708C76.2401 31.9747 76.8001 32.108 77.4721 32.108C78.1334 32.108 78.6614 31.964 79.0561 31.676C79.4614 31.388 79.6641 31.004 79.6641 30.524C79.6641 30.1827 79.5254 29.884 79.2481 29.628C78.9707 29.3827 78.4587 29.2387 77.7121 29.196C77.1254 29.1533 76.6187 29.1 76.1921 29.036C75.7547 29.2707 75.4667 29.5213 75.3281 29.788C75.1894 30.0653 75.1201 30.3107 75.1201 30.524ZM86.4517 29.692C85.705 29.692 85.033 29.5213 84.4357 29.18C83.8384 28.8387 83.3637 28.3587 83.0117 27.74C82.6704 27.1107 82.4997 26.3747 82.4997 25.532C82.4997 24.6893 82.6757 23.9587 83.0277 23.34C83.3797 22.7107 83.8544 22.2253 84.4517 21.884C85.0597 21.5427 85.737 21.372 86.4837 21.372C87.2304 21.372 87.9024 21.5427 88.4997 21.884C89.097 22.2253 89.5664 22.7107 89.9077 23.34C90.2597 23.9587 90.4357 24.6893 90.4357 25.532C90.4357 26.3747 90.2597 27.1107 89.9077 27.74C89.5557 28.3587 89.0757 28.8387 88.4677 29.18C87.8704 29.5213 87.1984 29.692 86.4517 29.692ZM86.4517 28.54C86.9104 28.54 87.337 28.428 87.7317 28.204C88.1264 27.98 88.4464 27.644 88.6917 27.196C88.937 26.748 89.0597 26.1933 89.0597 25.532C89.0597 24.8707 88.937 24.316 88.6917 23.868C88.457 23.42 88.1424 23.084 87.7477 22.86C87.353 22.636 86.9317 22.524 86.4837 22.524C86.025 22.524 85.5984 22.636 85.2037 22.86C84.809 23.084 84.489 23.42 84.2437 23.868C83.9984 24.316 83.8757 24.8707 83.8757 25.532C83.8757 26.1933 83.9984 26.748 84.2437 27.196C84.489 27.644 84.8037 27.98 85.1877 28.204C85.5824 28.428 86.0037 28.54 86.4517 28.54ZM95.2004 29.692C94.2618 29.692 93.5151 29.4093 92.9604 28.844C92.4058 28.268 92.1284 27.388 92.1284 26.204V21.564H93.4724V26.06C93.4724 27.7133 94.1498 28.54 95.5044 28.54C96.1978 28.54 96.7684 28.2947 97.2164 27.804C97.6751 27.3027 97.9044 26.5933 97.9044 25.676V21.564H99.2484V29.5H98.0324L97.9364 28.076C97.6911 28.5773 97.3231 28.972 96.8324 29.26C96.3524 29.548 95.8084 29.692 95.2004 29.692ZM104.597 29.5C103.871 29.5 103.301 29.324 102.885 28.972C102.469 28.62 102.261 27.9853 102.261 27.068V22.7H100.885V21.564H102.261L102.437 19.66H103.605V21.564H105.941V22.7H103.605V27.068C103.605 27.5693 103.706 27.9107 103.909 28.092C104.111 28.2627 104.469 28.348 104.981 28.348H105.813V29.5H104.597Z" fill="#004B64"/>
<path d="M220.53 17L227.53 24L220.53 31" stroke="#004B64" stroke-width="1.5" stroke-linecap="round" stroke-linejoin="round"/>
<defs>
<clipPath id="clip0_548_329">
<rect width="24" height="24" fill="white" transform="translate(24.0286 12)"/>
</clipPath>
</defs>
</svg>
