<svg width="248" height="48" viewBox="0 0 248 48" fill="none" xmlns="http://www.w3.org/2000/svg">
<g clip-path="url(#clip0_548_217)">
<path d="M23.9733 33.3044C24.0245 32.9247 24.0558 32.541 24.1303 32.166C24.6305 29.6503 25.9939 27.7654 28.3343 26.687C29.773 26.024 31.2746 26.1021 32.7663 26.6243C33.4894 26.8774 34.2282 27.1009 34.9761 27.2638C36.0829 27.5048 37.1788 27.3534 38.2491 27.0104C38.7866 26.8381 39.3116 26.6217 39.8555 26.475C42.2086 25.8404 44.2267 26.4389 45.9254 28.1678C47.1279 29.3917 47.8683 30.847 48.0481 32.5567C48.1201 33.2401 48.1372 33.9382 48.0884 34.6232C48.0356 35.3659 47.3472 35.9477 46.6015 35.9892C46.4838 35.9959 46.3655 35.9979 46.2476 35.9979C39.4563 35.9983 32.6647 35.9975 25.8734 36.0001C25.4899 36.0003 25.1207 35.966 24.7887 35.7516C24.3786 35.4868 24.114 35.1244 24.0286 34.638C24.0193 34.5854 23.9921 34.5362 23.9731 34.4854C23.9733 34.0916 23.9733 33.698 23.9733 33.3044ZM36.0698 34.5459C39.4547 34.5459 42.8394 34.5459 46.2243 34.5456C46.3029 34.5456 46.3972 34.5706 46.4566 34.5362C46.5385 34.489 46.6523 34.3959 46.6519 34.3232C46.6485 33.7498 46.6723 33.1694 46.5911 32.6049C46.3653 31.0374 45.6023 29.7571 44.3912 28.7414C43.2678 27.7992 41.9833 27.4762 40.5605 27.8111C39.9216 27.9617 39.3061 28.2108 38.6784 28.4099C37.3769 28.8224 36.0458 28.9812 34.7044 28.6999C33.8562 28.5219 33.0247 28.2497 32.2004 27.9748C31.1168 27.6134 30.0386 27.5497 28.9787 27.9961C27.5263 28.608 26.5747 29.7299 25.9451 31.144C25.5233 32.091 25.4342 33.0954 25.4673 34.119C25.4806 34.5305 25.4838 34.5456 25.8919 34.5456C29.2845 34.5459 32.677 34.5459 36.0698 34.5459Z" fill="#004B64"/>
<path d="M36.0546 12.0004C39.5283 11.9593 42.5644 14.7763 42.6129 18.4472C42.6631 22.2464 39.5483 25.088 36.0769 25.0898C32.6104 25.0916 29.5554 22.3045 29.5179 18.6108C29.4794 14.8525 32.5566 11.9712 36.0546 12.0004ZM41.1506 18.5631C41.168 15.8599 39.0447 13.55 36.2764 13.4625C33.3291 13.3696 31.0101 15.6026 30.9823 18.5185C30.9561 21.269 33.1332 23.5465 35.902 23.6245C38.8038 23.7065 41.0995 21.4657 41.1506 18.5631Z" fill="#004B64"/>
</g>
<path d="M57.3005 29.5V18.3H58.8685L62.9005 26.108L66.9005 18.3H68.4845V29.5H67.1405V20.7L63.3965 27.9H62.3885L58.6445 20.716V29.5H57.3005ZM73.4073 29.692C72.746 29.692 72.1967 29.58 71.7593 29.356C71.322 29.132 70.9967 28.8333 70.7833 28.46C70.57 28.0867 70.4633 27.6813 70.4633 27.244C70.4633 26.4333 70.7727 25.8093 71.3913 25.372C72.01 24.9347 72.8527 24.716 73.9193 24.716H76.0633V24.62C76.0633 23.9267 75.882 23.404 75.5193 23.052C75.1567 22.6893 74.6713 22.508 74.0633 22.508C73.5407 22.508 73.0873 22.6413 72.7033 22.908C72.33 23.164 72.0953 23.5427 71.9993 24.044H70.6233C70.6767 23.468 70.8687 22.9827 71.1993 22.588C71.5407 22.1933 71.962 21.8947 72.4633 21.692C72.9647 21.4787 73.498 21.372 74.0633 21.372C75.1727 21.372 76.0047 21.6707 76.5593 22.268C77.1247 22.8547 77.4073 23.6387 77.4073 24.62V29.5H76.2073L76.1273 28.076C75.9033 28.524 75.5727 28.908 75.1353 29.228C74.7087 29.5373 74.1327 29.692 73.4073 29.692ZM73.6153 28.556C74.1273 28.556 74.5647 28.4227 74.9273 28.156C75.3007 27.8893 75.5833 27.5427 75.7753 27.116C75.9673 26.6893 76.0633 26.2413 76.0633 25.772V25.756H74.0313C73.242 25.756 72.682 25.8947 72.3513 26.172C72.0313 26.4387 71.8713 26.7747 71.8713 27.18C71.8713 27.596 72.0207 27.932 72.3193 28.188C72.6287 28.4333 73.0607 28.556 73.6153 28.556ZM82.4636 29.692C81.5142 29.692 80.7249 29.452 80.0956 28.972C79.4662 28.492 79.0982 27.8413 78.9916 27.02H80.3676C80.4529 27.436 80.6716 27.7987 81.0236 28.108C81.3862 28.4067 81.8716 28.556 82.4796 28.556C83.0449 28.556 83.4609 28.4387 83.7276 28.204C83.9942 27.9587 84.1276 27.6707 84.1276 27.34C84.1276 26.86 83.9516 26.54 83.5996 26.38C83.2582 26.22 82.7729 26.076 82.1436 25.948C81.7169 25.8627 81.2902 25.74 80.8636 25.58C80.4369 25.42 80.0796 25.196 79.7916 24.908C79.5036 24.6093 79.3596 24.22 79.3596 23.74C79.3596 23.0467 79.6156 22.4813 80.1276 22.044C80.6502 21.596 81.3542 21.372 82.2396 21.372C83.0822 21.372 83.7702 21.5853 84.3036 22.012C84.8476 22.428 85.1622 23.0253 85.2476 23.804H83.9196C83.8662 23.3987 83.6902 23.084 83.3916 22.86C83.1036 22.6253 82.7142 22.508 82.2236 22.508C81.7436 22.508 81.3702 22.6093 81.1036 22.812C80.8476 23.0147 80.7196 23.2813 80.7196 23.612C80.7196 23.932 80.8849 24.1827 81.2156 24.364C81.5569 24.5453 82.0156 24.7 82.5916 24.828C83.0822 24.9347 83.5462 25.068 83.9836 25.228C84.4316 25.3773 84.7942 25.6067 85.0716 25.916C85.3596 26.2147 85.5036 26.652 85.5036 27.228C85.5142 27.9427 85.2422 28.5347 84.6876 29.004C84.1436 29.4627 83.4022 29.692 82.4636 29.692ZM90.2002 29.5C89.4749 29.5 88.9042 29.324 88.4882 28.972C88.0722 28.62 87.8642 27.9853 87.8642 27.068V22.7H86.4882V21.564H87.8642L88.0402 19.66H89.2082V21.564H91.5442V22.7H89.2082V27.068C89.2082 27.5693 89.3095 27.9107 89.5122 28.092C89.7149 28.2627 90.0722 28.348 90.5842 28.348H91.4162V29.5H90.2002ZM96.601 29.692C95.8436 29.692 95.1716 29.5213 94.585 29.18C93.9983 28.828 93.5343 28.3427 93.193 27.724C92.8623 27.1053 92.697 26.3747 92.697 25.532C92.697 24.7 92.8623 23.9747 93.193 23.356C93.5236 22.7267 93.9823 22.2413 94.569 21.9C95.1663 21.548 95.8543 21.372 96.633 21.372C97.401 21.372 98.0623 21.548 98.617 21.9C99.1823 22.2413 99.6143 22.6947 99.913 23.26C100.212 23.8253 100.361 24.4333 100.361 25.084C100.361 25.2013 100.356 25.3187 100.345 25.436C100.345 25.5533 100.345 25.6867 100.345 25.836H94.025C94.057 26.444 94.1956 26.9507 94.441 27.356C94.697 27.7507 95.0116 28.0493 95.385 28.252C95.769 28.4547 96.1743 28.556 96.601 28.556C97.1556 28.556 97.6196 28.428 97.993 28.172C98.3663 27.916 98.6383 27.5693 98.809 27.132H100.137C99.9236 27.868 99.513 28.4813 98.905 28.972C98.3076 29.452 97.5396 29.692 96.601 29.692ZM96.601 22.508C95.961 22.508 95.3903 22.7053 94.889 23.1C94.3983 23.484 94.1156 24.0493 94.041 24.796H99.033C99.001 24.0813 98.7556 23.5213 98.297 23.116C97.8383 22.7107 97.273 22.508 96.601 22.508ZM102.142 29.5V21.564H103.358L103.47 23.084C103.716 22.5613 104.089 22.1453 104.59 21.836C105.092 21.5267 105.71 21.372 106.446 21.372V22.78H106.078C105.609 22.78 105.177 22.8653 104.782 23.036C104.388 23.196 104.073 23.4733 103.838 23.868C103.604 24.2627 103.486 24.8067 103.486 25.5V29.5H102.142Z" fill="#004B64"/>
<path d="M220.5 17L227.5 24L220.5 31" stroke="#004B64" stroke-width="1.5" stroke-linecap="round" stroke-linejoin="round"/>
<defs>
<clipPath id="clip0_548_217">
<rect width="24.1431" height="24" fill="white" transform="translate(23.9734 12)"/>
</clipPath>
</defs>
</svg>
