<svg width="130" height="29" viewBox="0 0 130 29" fill="none" xmlns="http://www.w3.org/2000/svg">
<rect x="2" y="1" width="127" height="28" rx="13" fill="white"/>
<path d="M62.151 9.88V21H60.327V13.384L56.935 21H55.671L52.263 13.384V21H50.439V9.88H52.407L56.311 18.6L60.199 9.88H62.151ZM64.4204 16.552C64.4204 15.6667 64.6017 14.8827 64.9644 14.2C65.3377 13.5173 65.8391 12.9893 66.4684 12.616C67.1084 12.232 67.8124 12.04 68.5804 12.04C69.2737 12.04 69.8764 12.1787 70.3884 12.456C70.9111 12.7227 71.3271 13.0587 71.6364 13.464V12.184H73.4764V21H71.6364V19.688C71.3271 20.104 70.9057 20.4507 70.3724 20.728C69.8391 21.0053 69.2311 21.144 68.5484 21.144C67.7911 21.144 67.0977 20.952 66.4684 20.568C65.8391 20.1733 65.3377 19.6293 64.9644 18.936C64.6017 18.232 64.4204 17.4373 64.4204 16.552ZM71.6364 16.584C71.6364 15.976 71.5084 15.448 71.2524 15C71.0071 14.552 70.6817 14.2107 70.2764 13.976C69.8711 13.7413 69.4337 13.624 68.9644 13.624C68.4951 13.624 68.0577 13.7413 67.6524 13.976C67.2471 14.2 66.9164 14.536 66.6604 14.984C66.4151 15.4213 66.2924 15.944 66.2924 16.552C66.2924 17.16 66.4151 17.6933 66.6604 18.152C66.9164 18.6107 67.2471 18.9627 67.6524 19.208C68.0684 19.4427 68.5057 19.56 68.9644 19.56C69.4337 19.56 69.8711 19.4427 70.2764 19.208C70.6817 18.9733 71.0071 18.632 71.2524 18.184C71.5084 17.7253 71.6364 17.192 71.6364 16.584ZM79.5521 21.144C78.8588 21.144 78.2348 21.0213 77.6801 20.776C77.1361 20.52 76.7041 20.1787 76.3841 19.752C76.0641 19.3147 75.8935 18.8293 75.8721 18.296H77.7601C77.7921 18.6693 77.9681 18.984 78.2881 19.24C78.6188 19.4853 79.0295 19.608 79.5201 19.608C80.0321 19.608 80.4268 19.512 80.7041 19.32C80.9921 19.1173 81.1361 18.8613 81.1361 18.552C81.1361 18.2213 80.9761 17.976 80.6561 17.816C80.3468 17.656 79.8508 17.48 79.1681 17.288C78.5068 17.1067 77.9681 16.9307 77.5521 16.76C77.1361 16.5893 76.7735 16.328 76.4641 15.976C76.1655 15.624 76.0161 15.16 76.0161 14.584C76.0161 14.1147 76.1548 13.688 76.4321 13.304C76.7095 12.9093 77.1041 12.6 77.6161 12.376C78.1388 12.152 78.7361 12.04 79.4081 12.04C80.4108 12.04 81.2161 12.296 81.8241 12.808C82.4428 13.3093 82.7735 13.9973 82.8161 14.872H80.9921C80.9601 14.4773 80.8001 14.1627 80.5121 13.928C80.2241 13.6933 79.8348 13.576 79.3441 13.576C78.8641 13.576 78.4961 13.6667 78.2401 13.848C77.9841 14.0293 77.8561 14.2693 77.8561 14.568C77.8561 14.8027 77.9415 15 78.1121 15.16C78.2828 15.32 78.4908 15.448 78.7361 15.544C78.9815 15.6293 79.3441 15.7413 79.8241 15.88C80.4641 16.0507 80.9868 16.2267 81.3921 16.408C81.8081 16.5787 82.1655 16.8347 82.4641 17.176C82.7628 17.5173 82.9175 17.9707 82.9281 18.536C82.9281 19.0373 82.7895 19.4853 82.5121 19.88C82.2348 20.2747 81.8401 20.584 81.3281 20.808C80.8268 21.032 80.2348 21.144 79.5521 21.144ZM87.507 13.672V18.552C87.507 18.8827 87.5817 19.1227 87.731 19.272C87.891 19.4107 88.1577 19.48 88.531 19.48H89.651V21H88.211C87.3897 21 86.7603 20.808 86.323 20.424C85.8857 20.04 85.667 19.416 85.667 18.552V13.672H84.627V12.184H85.667V9.992H87.507V12.184H89.651V13.672H87.507ZM99.8921 16.376C99.8921 16.7067 99.8708 17.0053 99.8281 17.272H93.0921C93.1455 17.976 93.4068 18.5413 93.8761 18.968C94.3455 19.3947 94.9215 19.608 95.6041 19.608C96.5855 19.608 97.2788 19.1973 97.6841 18.376H99.6521C99.3855 19.1867 98.9001 19.8533 98.1961 20.376C97.5028 20.888 96.6388 21.144 95.6041 21.144C94.7615 21.144 94.0041 20.9573 93.3321 20.584C92.6708 20.2 92.1481 19.6667 91.7641 18.984C91.3908 18.2907 91.2041 17.4907 91.2041 16.584C91.2041 15.6773 91.3855 14.8827 91.7481 14.2C92.1215 13.5067 92.6388 12.9733 93.3001 12.6C93.9721 12.2267 94.7401 12.04 95.6041 12.04C96.4361 12.04 97.1775 12.2213 97.8281 12.584C98.4788 12.9467 98.9855 13.4587 99.3481 14.12C99.7108 14.7707 99.8921 15.5227 99.8921 16.376ZM97.9881 15.8C97.9775 15.128 97.7375 14.5893 97.2681 14.184C96.7988 13.7787 96.2175 13.576 95.5241 13.576C94.8948 13.576 94.3561 13.7787 93.9081 14.184C93.4601 14.5787 93.1935 15.1173 93.1081 15.8H97.9881ZM103.991 13.464C104.258 13.016 104.61 12.6693 105.047 12.424C105.495 12.168 106.023 12.04 106.631 12.04V13.928H106.167C105.452 13.928 104.908 14.1093 104.535 14.472C104.172 14.8347 103.991 15.464 103.991 16.36V21H102.167V12.184H103.991V13.464Z" fill="#5DA5E1"/>
<path d="M32.1807 4.00574C32.2679 4.63712 32.358 5.26849 32.4413 5.89987C32.4591 6.03762 32.5216 6.11453 32.6347 6.20235C32.9791 6.46811 33.2942 6.44744 33.6679 6.25975C34.1133 6.0359 34.5914 5.87748 35.0764 5.68233L37.1427 9.25534C36.6457 9.64335 36.167 10.0262 35.6745 10.3953C35.5293 10.5049 35.4914 10.6208 35.469 10.8011C35.4202 11.1983 35.5913 11.4261 35.9001 11.6379C36.3237 11.9295 36.7163 12.2653 37.1421 12.5976C36.4534 13.7898 35.7692 14.9762 35.0758 16.1729C34.4823 15.9324 33.898 15.7011 33.3195 15.4566C33.1725 15.3946 33.0686 15.4256 32.9246 15.4819C32.517 15.642 32.3804 15.941 32.3879 16.3428C32.3847 16.4234 32.3751 16.5037 32.3592 16.5827C32.8379 16.7423 33.3189 16.8491 33.7522 17.0557C35.9632 18.1101 37.1387 19.8722 37.2196 22.3254C37.2581 23.4986 37.2277 24.6741 37.2271 25.8485C37.2243 25.8992 37.2189 25.9498 37.211 26H23.0234C23.0154 25.9633 23.0098 25.9261 23.0068 25.8887C23.0108 24.5926 22.9775 23.2948 23.0298 22.0005C23.1302 19.5066 25.0048 17.2899 27.4333 16.7239L27.8827 16.6223C27.8449 16.3514 27.8144 16.0897 27.7679 15.8308C27.7576 15.7734 27.691 15.7212 27.6405 15.6787C27.2961 15.3917 26.9552 15.3877 26.55 15.5972C26.1097 15.8268 25.6316 15.9812 25.1581 16.1712L23.0917 12.5965C23.505 12.2739 23.9097 11.9571 24.3143 11.6419C24.801 11.2625 24.8051 11.2625 24.7528 10.6478C24.7344 10.5678 24.688 10.4969 24.622 10.4481C24.1685 10.087 23.7093 9.73289 23.2519 9.37645C23.2019 9.33799 23.1549 9.2961 23.0952 9.24559C23.784 8.0563 24.4635 6.87506 25.1563 5.67602C25.6913 5.89298 26.2182 6.10937 26.7468 6.32002C26.8777 6.37225 27.0338 6.47155 27.1446 6.43481C27.3512 6.37168 27.5389 6.23564 27.7186 6.10994C27.7685 6.0755 27.776 5.96932 27.7875 5.89413C27.8776 5.26275 27.9642 4.63138 28.0515 4L32.1807 4.00574ZM24.7718 12.9236L25.7137 14.5543C26.1993 14.3574 26.6711 14.1715 27.1371 13.974C27.2646 13.9201 27.3575 13.9229 27.4655 14.0171C27.853 14.3479 28.2979 14.6049 28.7781 14.7753C28.905 14.8224 28.9503 14.8901 28.9641 15.0221C29.0267 15.5301 29.1047 16.0369 29.1759 16.5397H31.0603C31.1332 16.0231 31.2107 15.522 31.2709 15.0175C31.287 14.8826 31.349 14.8338 31.4609 14.7736C31.8937 14.5405 32.3219 14.3006 32.7374 14.0372C32.8821 13.9453 32.9865 13.9224 33.1432 13.9889C33.5944 14.1847 34.053 14.3632 34.5208 14.5537L35.4627 12.9225C35.0471 12.5982 34.6499 12.2819 34.2441 11.9777C34.1929 11.9464 34.1532 11.8993 34.1309 11.8436C34.1087 11.7878 34.1051 11.7263 34.1207 11.6683C34.2151 11.1819 34.2151 10.6819 34.1207 10.1955C34.0903 10.04 34.1408 9.94641 34.2642 9.854C34.666 9.55381 35.0557 9.24214 35.4621 8.92588L34.5196 7.29463C34.0329 7.49208 33.5611 7.67748 33.095 7.87607C32.9647 7.93347 32.8815 7.90305 32.7661 7.83188C32.3357 7.5667 31.8977 7.31243 31.4529 7.07308C31.3381 7.01109 31.2841 6.95828 31.2681 6.82512C31.2055 6.31715 31.1274 5.81033 31.0563 5.30924H29.1719C29.099 5.82582 29.0221 6.32748 28.9612 6.83143C28.9446 6.96575 28.8843 7.01683 28.7718 7.0771C28.3448 7.30669 27.9195 7.53628 27.5091 7.79859C27.3604 7.89387 27.2542 7.9306 27.0866 7.85598C26.6366 7.65968 26.1774 7.4829 25.7091 7.29291L24.7678 8.92358C25.1839 9.24788 25.5805 9.56529 25.9869 9.86893C26.0379 9.90043 26.0772 9.94761 26.0991 10.0034C26.1209 10.0592 26.124 10.1206 26.108 10.1783C26.0138 10.6713 26.0138 11.1777 26.108 11.6706C26.1338 11.8067 26.0948 11.8933 25.9817 11.9783C25.5799 12.2837 25.185 12.6022 24.7729 12.9236H24.7718ZM24.2431 24.704H27.7444C27.9631 23.269 28.1801 21.8501 28.3947 20.4295C28.4257 20.2264 28.5153 19.9956 28.4521 19.8206C28.2369 19.2018 27.9677 18.602 27.7151 17.9838C27.6463 17.9988 27.59 18.0056 27.5372 18.0229C25.8773 18.5716 24.7482 19.6725 24.4234 21.3904C24.2276 22.462 24.2977 23.583 24.2443 24.704H24.2431ZM35.9322 24.7086C35.9322 23.8407 35.9575 22.9958 35.9265 22.1532C35.88 20.8727 35.3422 19.8102 34.3888 18.9607C33.8553 18.4848 33.2116 18.1494 32.5159 17.985C32.2622 18.6043 32.0119 19.2098 31.7697 19.8217C31.7554 19.884 31.7566 19.9488 31.7732 20.0105C31.909 20.9151 32.0462 21.8195 32.1847 22.7237C32.2857 23.3861 32.3885 24.0479 32.4912 24.7137L35.9322 24.7086ZM29.0514 24.7086H31.1837C30.9661 23.2788 30.7498 21.8605 30.5322 20.4324H29.7028C29.4864 21.861 29.27 23.2793 29.0525 24.7091L29.0514 24.7086ZM29.0571 17.8421C29.2293 18.2702 29.3917 18.6663 29.5593 19.0583C29.5748 19.0792 29.5949 19.0963 29.6179 19.1083C29.641 19.1203 29.6665 19.127 29.6925 19.1278C29.9795 19.1341 30.2665 19.1335 30.5535 19.1278C30.5766 19.1278 30.5994 19.1227 30.6202 19.1128C30.6411 19.1028 30.6595 19.0883 30.674 19.0704C30.8433 18.6686 31.0052 18.2668 31.1745 17.8541C31.1085 17.8484 31.0735 17.8426 31.039 17.8426L29.0571 17.8421Z" fill="#5DA5E1"/>
<path d="M32.3149 10.9297C32.3145 11.5089 32.0848 12.0644 31.6761 12.4748C31.2674 12.8852 30.713 13.1171 30.1338 13.12C28.8802 13.12 27.9257 12.1644 27.928 10.9182C27.9303 9.67214 28.8905 8.72565 30.1447 8.72852C31.342 8.73139 32.3172 9.72093 32.3149 10.9297ZM31.0223 10.9297C31.0261 10.8098 31.0056 10.6903 30.9618 10.5785C30.9181 10.4667 30.8521 10.365 30.7679 10.2794C30.6837 10.1939 30.5831 10.1263 30.472 10.0808C30.3609 10.0353 30.2417 10.0129 30.1217 10.0148C30.0034 10.0134 29.886 10.0354 29.7762 10.0795C29.6664 10.1236 29.5664 10.1889 29.4819 10.2717C29.3974 10.3545 29.33 10.4532 29.2837 10.5621C29.2374 10.6709 29.213 10.7879 29.212 10.9062C29.2085 11.0259 29.229 11.1452 29.2722 11.2569C29.3154 11.3686 29.3805 11.4706 29.4636 11.5569C29.5467 11.6432 29.6462 11.712 29.7563 11.7593C29.8663 11.8067 29.9847 11.8316 30.1045 11.8326C30.6263 11.832 31.0189 11.448 31.0223 10.9326V10.9297Z" fill="#5DA5E1"/>
<path d="M33.3567 21.4485C33.4216 21.4439 33.4778 21.4376 33.5335 21.437H34.6177V22.7072H33.355L33.3567 21.4485Z" fill="#5DA5E1"/>
</svg>
