<svg width="28" height="28" viewBox="0 0 28 28" fill="none" xmlns="http://www.w3.org/2000/svg">
<rect x="0.5" y="0.5" width="27" height="27" rx="3.5" fill="#DFE8F0" stroke="#D0DCE6"/>
<path d="M11.8517 5.04332C11.3446 5.09967 10.7168 5.24455 10.2339 5.39748C9.65433 5.59066 8.70454 6.06556 8.21354 6.41167C7.7145 6.77388 6.77275 7.72368 6.41054 8.22272C6.06443 8.71372 5.58953 9.66351 5.39635 10.2431C4.49485 12.9556 5.15488 15.8935 7.13496 17.9622C9.58189 20.5218 13.4374 21.053 16.5444 19.2661L16.7778 19.1293L19.2167 21.5682C21.1082 23.4597 21.6717 23.999 21.7522 23.999C21.897 23.999 23.9979 21.9062 23.9979 21.7533C23.9979 21.6728 23.4908 21.1416 21.567 19.2178L19.1281 16.7789L19.2811 16.5053C20.0618 15.1128 20.416 13.5754 20.2953 12.1104C20.0618 9.28521 18.452 6.93486 15.9165 5.7275C14.6931 5.14796 13.1879 4.89039 11.8517 5.04332ZM13.6628 7.46611C15.3048 7.80417 16.6732 8.85055 17.4056 10.3235C18.0898 11.6919 18.1301 13.3339 17.5183 14.7506C16.8341 16.3443 15.4256 17.4953 13.7191 17.8495C13.1235 17.9783 12.2059 17.9783 11.6183 17.8495C9.4853 17.3987 7.91573 15.805 7.46498 13.6478C7.37643 13.2212 7.36034 12.2231 7.44083 11.7724C7.56156 11.0721 7.87548 10.3074 8.28598 9.67961C8.53551 9.3013 9.29212 8.54469 9.67043 8.29516C10.3144 7.86856 11.1112 7.5466 11.7632 7.45806C11.9322 7.43391 12.1174 7.40171 12.1737 7.39366C12.383 7.35342 13.3489 7.40171 13.6628 7.46611Z" fill="#0F63AC"/>
<path d="M9.37251 11.7164C9.33226 11.7325 9.31616 11.9579 9.31616 12.6742V13.6079L12.6485 13.5999L15.9808 13.5838L15.9969 12.6742C16.005 11.9659 15.9889 11.7566 15.9567 11.7244C15.9003 11.6842 9.46105 11.6762 9.37251 11.7164Z" fill="#0F63AC"/>
</svg>
