<svg width="248" height="48" viewBox="0 0 248 48" fill="none" xmlns="http://www.w3.org/2000/svg">
<g clip-path="url(#clip0_548_267)">
<path d="M43.0728 24.6325C43.0728 27.266 43.0778 29.9011 43.0712 32.5346C43.0679 34.1016 42.1524 35.3749 40.7199 35.8359C40.3885 35.9426 40.0505 36 39.701 36C35.5859 35.9984 31.4707 36.0033 27.3573 35.9967C25.5753 35.9934 24.1101 34.5889 24.0084 32.8103C24.0002 32.6938 23.9985 32.5789 23.9985 32.4641C23.9985 27.2234 23.9985 21.9843 23.9985 16.7452C23.9985 15.2685 24.6598 14.1938 25.9839 13.5374C26.4286 13.3176 26.911 13.229 27.4065 13.224C27.9168 13.2191 28.4254 13.2191 28.9357 13.2257C29.0752 13.2273 29.1539 13.1879 29.231 13.0616C29.6708 12.3561 30.3091 11.9984 31.1491 12C32.7456 12.0049 34.3405 12.0033 35.937 12C36.7656 11.9984 37.3973 12.3544 37.8338 13.0485C37.9175 13.183 37.9995 13.224 38.1504 13.2257C38.8232 13.2372 39.4959 13.1814 40.167 13.2651C41.7028 13.457 42.9957 14.8025 43.0515 16.3547C43.0991 17.6509 43.0712 18.9504 43.0728 20.2483C43.0761 21.7103 43.0745 23.1706 43.0728 24.6325ZM41.2187 24.603C41.2187 21.9695 41.2204 19.336 41.2171 16.7009C41.2155 15.7295 40.5903 15.0978 39.619 15.0798C39.2055 15.0716 38.792 15.0896 38.3785 15.0732C38.1751 15.065 38.1488 15.1438 38.1472 15.321C38.1308 16.6386 37.2201 17.5377 35.9058 17.5394C34.3192 17.541 32.7342 17.541 31.1475 17.5394C31.0048 17.5394 30.8571 17.5361 30.7176 17.5098C29.6429 17.3064 28.9259 16.4531 28.9275 15.3587C28.9275 15.1356 28.8766 15.0601 28.6453 15.0732C28.281 15.0929 27.9135 15.0896 27.5492 15.0765C26.4663 15.0338 25.8395 15.8592 25.8428 16.778C25.8658 21.9974 25.8674 27.2168 25.8428 32.4378C25.8379 33.4781 26.5861 34.1689 27.5624 34.1623C31.5413 34.1393 35.5219 34.1393 39.5008 34.1623C40.5001 34.1689 41.2417 33.4666 41.2302 32.446C41.1974 29.8322 41.2187 27.2168 41.2187 24.603ZM33.5053 15.6934C34.3028 15.6934 35.1002 15.6951 35.8976 15.6918C36.1913 15.6902 36.2996 15.5852 36.3045 15.2964C36.3095 14.9403 36.3045 14.5859 36.3062 14.2299C36.3078 13.9657 36.1766 13.8459 35.9157 13.8459C34.3307 13.8475 32.7456 13.8459 31.1606 13.8475C30.8735 13.8475 30.7718 13.9591 30.7685 14.2561C30.7652 14.5925 30.7652 14.9288 30.7685 15.2652C30.7701 15.5917 30.8702 15.6918 31.2017 15.6918C31.9695 15.6951 32.7374 15.6934 33.5053 15.6934Z" fill="#004B64"/>
<path d="M33.5331 29.24C34.7342 29.24 35.9369 29.2597 37.1363 29.2318C37.75 29.217 38.1504 29.7076 38.1504 30.1457C38.1504 30.6773 37.7434 31.081 37.1544 31.0826C34.7424 31.0892 32.3304 31.0875 29.9168 31.0826C29.3983 31.081 29.0193 30.7774 28.9291 30.3213C28.847 29.9045 29.0931 29.4697 29.5017 29.2974C29.6412 29.2383 29.7823 29.24 29.9267 29.24C31.131 29.24 32.3321 29.24 33.5331 29.24Z" fill="#004B64"/>
<path d="M30.7669 22.7768C30.7669 23.5644 30.7685 24.3503 30.7669 25.1379C30.7652 25.7286 30.3928 26.1388 29.8562 26.1421C29.3016 26.147 28.9226 25.7384 28.9226 25.1313C28.921 23.5578 28.921 21.9843 28.9226 20.4091C28.9226 19.8037 29.3033 19.3836 29.848 19.3853C30.3895 19.3869 30.7669 19.8086 30.7685 20.414C30.7685 21.2016 30.7669 21.9892 30.7669 22.7768Z" fill="#004B64"/>
<path d="M38.1504 23.3904C38.1504 23.9861 38.1537 24.5817 38.1488 25.1773C38.1472 25.7434 37.7599 26.1437 37.2267 26.1421C36.695 26.1421 36.3078 25.7401 36.3062 25.174C36.3029 23.9729 36.3029 22.7719 36.3062 21.5708C36.3078 21.0293 36.6983 20.6208 37.2152 20.6076C37.7271 20.5962 38.1455 21.0244 38.1504 21.5757C38.1537 22.1795 38.1504 22.785 38.1504 23.3904Z" fill="#004B64"/>
<path d="M32.6129 23.9713C32.6129 23.5775 32.6079 23.1853 32.6145 22.7915C32.6227 22.2484 33.0116 21.8579 33.535 21.8579C34.0584 21.8579 34.4522 22.2501 34.4571 22.7915C34.4637 23.5972 34.4637 24.4028 34.4571 25.2084C34.4538 25.7499 34.0584 26.142 33.5366 26.142C33.0149 26.142 32.6227 25.7483 32.6145 25.2084C32.6096 24.7949 32.6129 24.3831 32.6129 23.9713Z" fill="#004B64"/>
</g>
<path d="M52.2633 29.5V18.3H55.8793C56.754 18.3 57.4687 18.444 58.0233 18.732C58.578 19.02 58.9887 19.4147 59.2553 19.916C59.522 20.4173 59.6553 20.972 59.6553 21.58C59.6553 22.284 59.4633 22.9187 59.0793 23.484C58.706 24.0493 58.1193 24.4493 57.3193 24.684L59.7673 29.5H58.1833L55.9113 24.876H55.8153H53.6073V29.5H52.2633ZM53.6073 23.82H55.7833C56.6473 23.82 57.2767 23.612 57.6713 23.196C58.066 22.78 58.2633 22.2467 58.2633 21.596C58.2633 20.9347 58.066 20.412 57.6713 20.028C57.2873 19.6333 56.6527 19.436 55.7673 19.436H53.6073V23.82ZM64.7513 29.692C63.994 29.692 63.322 29.5213 62.7353 29.18C62.1487 28.828 61.6847 28.3427 61.3433 27.724C61.0127 27.1053 60.8473 26.3747 60.8473 25.532C60.8473 24.7 61.0127 23.9747 61.3433 23.356C61.674 22.7267 62.1327 22.2413 62.7193 21.9C63.3167 21.548 64.0047 21.372 64.7833 21.372C65.5513 21.372 66.2127 21.548 66.7673 21.9C67.3327 22.2413 67.7647 22.6947 68.0633 23.26C68.362 23.8253 68.5113 24.4333 68.5113 25.084C68.5113 25.2013 68.506 25.3187 68.4953 25.436C68.4953 25.5533 68.4953 25.6867 68.4953 25.836H62.1753C62.2073 26.444 62.346 26.9507 62.5913 27.356C62.8473 27.7507 63.162 28.0493 63.5353 28.252C63.9193 28.4547 64.3247 28.556 64.7513 28.556C65.306 28.556 65.77 28.428 66.1433 28.172C66.5167 27.916 66.7887 27.5693 66.9593 27.132H68.2873C68.074 27.868 67.6633 28.4813 67.0553 28.972C66.458 29.452 65.69 29.692 64.7513 29.692ZM64.7513 22.508C64.1113 22.508 63.5407 22.7053 63.0393 23.1C62.5487 23.484 62.266 24.0493 62.1913 24.796H67.1833C67.1513 24.0813 66.906 23.5213 66.4473 23.116C65.9887 22.7107 65.4233 22.508 64.7513 22.508ZM70.2927 33.02V21.564H71.5087L71.6367 22.876C71.8927 22.492 72.2554 22.1453 72.7247 21.836C73.2047 21.5267 73.8127 21.372 74.5487 21.372C75.3381 21.372 76.0261 21.5533 76.6127 21.916C77.1994 22.2787 77.6527 22.7747 77.9727 23.404C78.3034 24.0333 78.4687 24.748 78.4687 25.548C78.4687 26.348 78.3034 27.0627 77.9727 27.692C77.6527 28.3107 77.1941 28.8013 76.5967 29.164C76.0101 29.516 75.3221 29.692 74.5327 29.692C73.8821 29.692 73.3007 29.5587 72.7887 29.292C72.2874 29.0253 71.9034 28.652 71.6367 28.172V33.02H70.2927ZM74.3887 28.524C74.9221 28.524 75.3914 28.4013 75.7967 28.156C76.2021 27.9 76.5221 27.548 76.7567 27.1C76.9914 26.652 77.1087 26.1293 77.1087 25.532C77.1087 24.9347 76.9914 24.412 76.7567 23.964C76.5221 23.516 76.2021 23.1693 75.7967 22.924C75.3914 22.668 74.9221 22.54 74.3887 22.54C73.8554 22.54 73.3861 22.668 72.9807 22.924C72.5754 23.1693 72.2554 23.516 72.0207 23.964C71.7861 24.412 71.6687 24.9347 71.6687 25.532C71.6687 26.1293 71.7861 26.652 72.0207 27.1C72.2554 27.548 72.5754 27.9 72.9807 28.156C73.3861 28.4013 73.8554 28.524 74.3887 28.524ZM83.9556 29.692C83.2089 29.692 82.5369 29.5213 81.9396 29.18C81.3423 28.8387 80.8676 28.3587 80.5156 27.74C80.1743 27.1107 80.0036 26.3747 80.0036 25.532C80.0036 24.6893 80.1796 23.9587 80.5316 23.34C80.8836 22.7107 81.3583 22.2253 81.9556 21.884C82.5636 21.5427 83.2409 21.372 83.9876 21.372C84.7343 21.372 85.4063 21.5427 86.0036 21.884C86.6009 22.2253 87.0703 22.7107 87.4116 23.34C87.7636 23.9587 87.9396 24.6893 87.9396 25.532C87.9396 26.3747 87.7636 27.1107 87.4116 27.74C87.0596 28.3587 86.5796 28.8387 85.9716 29.18C85.3743 29.5213 84.7023 29.692 83.9556 29.692ZM83.9556 28.54C84.4143 28.54 84.8409 28.428 85.2356 28.204C85.6303 27.98 85.9503 27.644 86.1956 27.196C86.4409 26.748 86.5636 26.1933 86.5636 25.532C86.5636 24.8707 86.4409 24.316 86.1956 23.868C85.9609 23.42 85.6463 23.084 85.2516 22.86C84.8569 22.636 84.4356 22.524 83.9876 22.524C83.5289 22.524 83.1023 22.636 82.7076 22.86C82.3129 23.084 81.9929 23.42 81.7476 23.868C81.5023 24.316 81.3796 24.8707 81.3796 25.532C81.3796 26.1933 81.5023 26.748 81.7476 27.196C81.9929 27.644 82.3076 27.98 82.6916 28.204C83.0863 28.428 83.5076 28.54 83.9556 28.54ZM89.8083 29.5V21.564H91.0243L91.1363 23.084C91.3817 22.5613 91.755 22.1453 92.2563 21.836C92.7577 21.5267 93.3763 21.372 94.1123 21.372V22.78H93.7443C93.275 22.78 92.843 22.8653 92.4483 23.036C92.0537 23.196 91.739 23.4733 91.5043 23.868C91.2697 24.2627 91.1523 24.8067 91.1523 25.5V29.5H89.8083ZM98.7568 29.5C98.0315 29.5 97.4608 29.324 97.0448 28.972C96.6288 28.62 96.4208 27.9853 96.4208 27.068V22.7H95.0448V21.564H96.4208L96.5968 19.66H97.7648V21.564H100.101V22.7H97.7648V27.068C97.7648 27.5693 97.8662 27.9107 98.0688 28.092C98.2715 28.2627 98.6288 28.348 99.1408 28.348H99.9728V29.5H98.7568Z" fill="#004B64"/>
<path d="M220.5 17L227.5 24L220.5 31" stroke="#004B64" stroke-width="1.5" stroke-linecap="round" stroke-linejoin="round"/>
<defs>
<clipPath id="clip0_548_267">
<rect width="19.0809" height="24" fill="white" transform="translate(23.9985 12)"/>
</clipPath>
</defs>
</svg>
