<svg width="130" height="29" viewBox="0 0 130 29" fill="none" xmlns="http://www.w3.org/2000/svg">
<path d="M32.8948 6C33.0465 6.03709 33.2 6.06808 33.3498 6.11222C33.8304 6.25398 34.2669 6.51631 34.6175 6.87427C34.6866 6.93834 34.776 6.97607 34.8701 6.98085C35.4561 6.99024 36.044 6.98461 36.6281 6.98602C37.5939 6.98602 38.2757 7.66778 38.2757 8.63595C38.2757 13.2061 38.2757 17.7762 38.2757 22.3463C38.2757 23.3234 37.5944 23.9995 36.614 24H25.6612C24.6813 24 24 23.3225 24 22.3458C24 17.7757 24 13.2056 24 8.63548C24 7.66825 24.6818 6.98836 25.6481 6.98602C26.234 6.98602 26.8219 6.98602 27.406 6.98602C27.4544 6.98914 27.5029 6.98112 27.5478 6.96256C27.5926 6.944 27.6326 6.9154 27.6647 6.87897C28.0937 6.4231 28.6639 6.12531 29.2832 6.0338C29.3154 6.02549 29.3468 6.01433 29.3771 6.00047L32.8948 6ZM26.9538 8.04153H25.7053C25.2475 8.04153 25.0546 8.23451 25.0546 8.69183C25.0546 13.2256 25.0546 17.7594 25.0546 22.2932C25.0546 22.7496 25.248 22.9421 25.7063 22.9421H36.5525C37.0342 22.9421 37.2211 22.7543 37.2211 22.274V8.70826C37.2211 8.66741 37.2211 8.62657 37.2211 8.58572C37.2122 8.26784 36.9938 8.04763 36.675 8.04293C36.3759 8.03824 36.0773 8.04293 35.7787 8.04293H35.3007C35.3275 8.18051 35.3547 8.29461 35.3702 8.40964C35.3857 8.52468 35.3974 8.6538 35.4026 8.77681C35.4186 9.15244 35.2082 9.3797 34.8359 9.3797C32.3696 9.3797 29.9031 9.3797 27.4365 9.3797C27.0736 9.3797 26.8515 9.15338 26.8731 8.79325C26.8853 8.54769 26.9242 8.30353 26.9538 8.04153ZM34.2682 8.31573C34.2447 8.25094 34.2292 8.19553 34.2053 8.14435C33.8813 7.45508 33.3381 7.0757 32.5774 7.06068C31.6172 7.04236 30.6566 7.05504 29.6964 7.05786C29.586 7.06003 29.4761 7.07149 29.3677 7.09213C28.739 7.20388 28.1347 7.75323 28.0234 8.31573H34.2682Z" fill="#F1F1F1"/>
<path d="M31.7189 13.3341L32.9669 12.0978C32.916 12.0911 32.8655 12.0815 32.8157 12.0692C32.6999 12.034 32.5996 11.9604 32.5313 11.8605C32.463 11.7607 32.4308 11.6405 32.4401 11.5198C32.4484 11.3952 32.5019 11.2778 32.5906 11.1899C32.6793 11.102 32.7971 11.0495 32.9218 11.0423C33.3951 11.0263 33.8708 11.0249 34.344 11.0423C34.6399 11.054 34.8253 11.2836 34.8281 11.5874C34.8319 12.0147 34.831 12.4424 34.8281 12.8697C34.8281 13.1763 34.6309 13.3993 34.3516 13.4233C34.0581 13.4486 33.8285 13.2608 33.7759 12.9538C33.7722 12.9312 33.7712 12.9068 33.7689 12.8847L33.7008 12.8199C33.674 12.8777 33.6599 12.9491 33.6177 12.9923C33.1482 13.4681 32.6771 13.941 32.2044 14.4112C31.9109 14.7042 31.6283 14.7037 31.3353 14.4112C30.8658 13.9435 30.3979 13.4754 29.9319 13.0068C29.8915 12.966 29.8483 12.9284 29.7957 12.8791C29.6825 12.9932 29.5764 13.1007 29.4698 13.2078C29.0811 13.5975 28.6932 13.9886 28.3021 14.376C28.0702 14.6056 27.7448 14.6154 27.533 14.4056C27.3213 14.1957 27.3213 13.8708 27.5518 13.6383C28.1663 13.0186 28.7826 12.4008 29.4008 11.7851C29.652 11.5348 29.9516 11.5372 30.2065 11.7898C30.6676 12.2481 31.1268 12.7082 31.5841 13.1702C31.6322 13.2222 31.6772 13.2769 31.7189 13.3341Z" fill="#F1F1F1"/>
<path d="M32.9225 16.922C33.6268 16.922 34.3269 16.9182 35.0293 16.922C35.3382 16.9248 35.5599 17.145 35.5664 17.4338C35.573 17.7225 35.3551 17.9503 35.0528 17.9747C35.0006 17.9789 34.9476 17.9747 34.895 17.9747H32.0154C31.6177 17.9747 31.2195 17.9803 30.8218 17.9747C30.3776 17.9662 30.1175 17.5432 30.3316 17.1812C30.4429 16.9933 30.6171 16.9173 30.8331 16.9182C31.5294 16.9182 32.2257 16.9182 32.9225 16.9182V16.922Z" fill="#F1F1F1"/>
<path d="M32.9234 19.9511C33.6086 19.9511 34.2935 19.9511 34.9781 19.9511C35.3335 19.9511 35.5706 20.1671 35.5664 20.4822C35.5622 20.7878 35.3236 21.0047 34.9828 21.0047C33.6014 21.0047 32.22 21.0047 30.8387 21.0047C30.5001 21.0047 30.2602 20.7831 30.2588 20.4779C30.2574 20.1727 30.4936 19.9516 30.834 19.9511C31.5314 19.9489 32.2279 19.9489 32.9234 19.9511Z" fill="#F1F1F1"/>
<path d="M27.7399 17.305C28.0183 17.0233 28.2512 16.7843 28.4865 16.5486C28.7433 16.2922 29.0537 16.2729 29.2795 16.4964C29.5053 16.7199 29.4884 17.0373 29.2377 17.2909C28.8881 17.6446 28.5367 17.9966 28.1836 18.3469C27.9085 18.6206 27.615 18.6192 27.3384 18.3469C27.1718 18.1825 27.0046 18.0182 26.8426 17.8496C26.6172 17.6149 26.6144 17.2909 26.8299 17.081C27.0455 16.8711 27.3572 16.8819 27.5854 17.1021C27.6419 17.1658 27.6936 17.2336 27.7399 17.305Z" fill="#F1F1F1"/>
<path d="M27.7358 20.3394C28.0203 20.0506 28.2523 19.8121 28.487 19.5768C28.7392 19.3247 29.0589 19.3059 29.2805 19.5271C29.5022 19.7482 29.4857 20.0684 29.2336 20.322C28.8811 20.6791 28.5268 21.0349 28.1706 21.3892C27.9114 21.6461 27.6118 21.6432 27.3517 21.3859C27.1813 21.2174 27.0104 21.0493 26.8437 20.8765C26.6239 20.6488 26.6169 20.3332 26.8221 20.121C27.0273 19.9088 27.3536 19.9046 27.5888 20.1323C27.6434 20.1971 27.6926 20.2664 27.7358 20.3394Z" fill="#F1F1F1"/>
<path d="M56.976 21L54.416 16.552H53.024V21H51.2V9.88H55.04C55.8933 9.88 56.6133 10.0293 57.2 10.328C57.7973 10.6267 58.24 11.0267 58.528 11.528C58.8267 12.0293 58.976 12.5893 58.976 13.208C58.976 13.9333 58.7627 14.5947 58.336 15.192C57.92 15.7787 57.2747 16.1787 56.4 16.392L59.152 21H56.976ZM53.024 15.096H55.04C55.7227 15.096 56.2347 14.9253 56.576 14.584C56.928 14.2427 57.104 13.784 57.104 13.208C57.104 12.632 56.9333 12.184 56.592 11.864C56.2507 11.5333 55.7333 11.368 55.04 11.368H53.024V15.096ZM69.8694 16.376C69.8694 16.7067 69.848 17.0053 69.8054 17.272H63.0694C63.1227 17.976 63.384 18.5413 63.8534 18.968C64.3227 19.3947 64.8987 19.608 65.5814 19.608C66.5627 19.608 67.256 19.1973 67.6614 18.376H69.6294C69.3627 19.1867 68.8774 19.8533 68.1734 20.376C67.48 20.888 66.616 21.144 65.5814 21.144C64.7387 21.144 63.9814 20.9573 63.3094 20.584C62.648 20.2 62.1254 19.6667 61.7414 18.984C61.368 18.2907 61.1814 17.4907 61.1814 16.584C61.1814 15.6773 61.3627 14.8827 61.7254 14.2C62.0987 13.5067 62.616 12.9733 63.2774 12.6C63.9494 12.2267 64.7174 12.04 65.5814 12.04C66.4134 12.04 67.1547 12.2213 67.8054 12.584C68.456 12.9467 68.9627 13.4587 69.3254 14.12C69.688 14.7707 69.8694 15.5227 69.8694 16.376ZM67.9654 15.8C67.9547 15.128 67.7147 14.5893 67.2454 14.184C66.776 13.7787 66.1947 13.576 65.5014 13.576C64.872 13.576 64.3334 13.7787 63.8854 14.184C63.4374 14.5787 63.1707 15.1173 63.0854 15.8H67.9654ZM73.9684 13.48C74.2777 13.0747 74.699 12.7333 75.2324 12.456C75.7657 12.1787 76.3684 12.04 77.0404 12.04C77.8084 12.04 78.507 12.232 79.1364 12.616C79.7764 12.9893 80.2777 13.5173 80.6404 14.2C81.003 14.8827 81.1844 15.6667 81.1844 16.552C81.1844 17.4373 81.003 18.232 80.6404 18.936C80.2777 19.6293 79.7764 20.1733 79.1364 20.568C78.507 20.952 77.8084 21.144 77.0404 21.144C76.3684 21.144 75.771 21.0107 75.2484 20.744C74.7257 20.4667 74.299 20.1253 73.9684 19.72V25.192H72.1444V12.184H73.9684V13.48ZM79.3284 16.552C79.3284 15.944 79.2004 15.4213 78.9444 14.984C78.699 14.536 78.3684 14.2 77.9524 13.976C77.547 13.7413 77.1097 13.624 76.6404 13.624C76.1817 13.624 75.7444 13.7413 75.3284 13.976C74.923 14.2107 74.5924 14.552 74.3364 15C74.091 15.448 73.9684 15.976 73.9684 16.584C73.9684 17.192 74.091 17.7253 74.3364 18.184C74.5924 18.632 74.923 18.9733 75.3284 19.208C75.7444 19.4427 76.1817 19.56 76.6404 19.56C77.1097 19.56 77.547 19.4427 77.9524 19.208C78.3684 18.9627 78.699 18.6107 78.9444 18.152C79.2004 17.6933 79.3284 17.16 79.3284 16.552ZM87.2921 21.144C86.4601 21.144 85.7081 20.9573 85.0361 20.584C84.3641 20.2 83.8361 19.6667 83.4521 18.984C83.0681 18.2907 82.8761 17.4907 82.8761 16.584C82.8761 15.688 83.0735 14.8933 83.4681 14.2C83.8628 13.5067 84.4015 12.9733 85.0841 12.6C85.7668 12.2267 86.5295 12.04 87.3721 12.04C88.2148 12.04 88.9775 12.2267 89.6601 12.6C90.3428 12.9733 90.8815 13.5067 91.2761 14.2C91.6708 14.8933 91.8681 15.688 91.8681 16.584C91.8681 17.48 91.6655 18.2747 91.2601 18.968C90.8548 19.6613 90.3001 20.2 89.5961 20.584C88.9028 20.9573 88.1348 21.144 87.2921 21.144ZM87.2921 19.56C87.7615 19.56 88.1988 19.448 88.6041 19.224C89.0201 19 89.3561 18.664 89.6121 18.216C89.8681 17.768 89.9961 17.224 89.9961 16.584C89.9961 15.944 89.8735 15.4053 89.6281 14.968C89.3828 14.52 89.0575 14.184 88.6521 13.96C88.2468 13.736 87.8095 13.624 87.3401 13.624C86.8708 13.624 86.4335 13.736 86.0281 13.96C85.6335 14.184 85.3188 14.52 85.0841 14.968C84.8495 15.4053 84.7321 15.944 84.7321 16.584C84.7321 17.5333 84.9721 18.2693 85.4521 18.792C85.9428 19.304 86.5561 19.56 87.2921 19.56ZM95.9752 13.464C96.2419 13.016 96.5939 12.6693 97.0312 12.424C97.4792 12.168 98.0072 12.04 98.6152 12.04V13.928H98.1512C97.4366 13.928 96.8926 14.1093 96.5192 14.472C96.1566 14.8347 95.9752 15.464 95.9752 16.36V21H94.1512V12.184H95.9752V13.464ZM102.9 13.672V18.552C102.9 18.8827 102.975 19.1227 103.124 19.272C103.284 19.4107 103.551 19.48 103.924 19.48H105.044V21H103.604C102.783 21 102.153 20.808 101.716 20.424C101.279 20.04 101.06 19.416 101.06 18.552V13.672H100.02V12.184H101.06V9.992H102.9V12.184H105.044V13.672H102.9Z" fill="#F1F1F1"/>
</svg>
