<svg width="130" height="29" viewBox="0 0 130 29" fill="none" xmlns="http://www.w3.org/2000/svg">
<rect x="2" y="1" width="127" height="28" rx="13" fill="white"/>
<path d="M33.8948 6C34.0465 6.03709 34.2 6.06808 34.3498 6.11222C34.8304 6.25398 35.2669 6.51631 35.6175 6.87427C35.6866 6.93834 35.776 6.97607 35.8701 6.98085C36.4561 6.99024 37.044 6.98461 37.6281 6.98602C38.5939 6.98602 39.2757 7.66778 39.2757 8.63595C39.2757 13.2061 39.2757 17.7762 39.2757 22.3463C39.2757 23.3234 38.5944 23.9995 37.614 24H26.6612C25.6813 24 25 23.3225 25 22.3458C25 17.7757 25 13.2056 25 8.63548C25 7.66825 25.6818 6.98836 26.6481 6.98602C27.234 6.98602 27.8219 6.98602 28.406 6.98602C28.4544 6.98914 28.5029 6.98112 28.5478 6.96256C28.5926 6.944 28.6326 6.9154 28.6647 6.87897C29.0937 6.4231 29.6639 6.12531 30.2832 6.0338C30.3154 6.02549 30.3468 6.01433 30.3771 6.00047L33.8948 6ZM27.9538 8.04153H26.7053C26.2475 8.04153 26.0546 8.23451 26.0546 8.69183C26.0546 13.2256 26.0546 17.7594 26.0546 22.2932C26.0546 22.7496 26.248 22.9421 26.7063 22.9421H37.5525C38.0342 22.9421 38.2211 22.7543 38.2211 22.274V8.70826C38.2211 8.66741 38.2211 8.62657 38.2211 8.58572C38.2122 8.26784 37.9938 8.04763 37.675 8.04293C37.3759 8.03824 37.0773 8.04293 36.7787 8.04293H36.3007C36.3275 8.18051 36.3547 8.29461 36.3702 8.40964C36.3857 8.52468 36.3974 8.6538 36.4026 8.77681C36.4186 9.15244 36.2082 9.3797 35.8359 9.3797C33.3696 9.3797 30.9031 9.3797 28.4365 9.3797C28.0736 9.3797 27.8515 9.15338 27.8731 8.79325C27.8853 8.54769 27.9242 8.30353 27.9538 8.04153ZM35.2682 8.31573C35.2447 8.25094 35.2292 8.19553 35.2053 8.14435C34.8813 7.45508 34.3381 7.0757 33.5774 7.06068C32.6172 7.04236 31.6566 7.05504 30.6964 7.05786C30.586 7.06003 30.4761 7.07149 30.3677 7.09213C29.739 7.20388 29.1347 7.75323 29.0234 8.31573H35.2682Z" fill="#5DA5E1"/>
<path d="M32.7189 13.3341L33.9669 12.0978C33.916 12.0911 33.8655 12.0815 33.8157 12.0692C33.6999 12.034 33.5996 11.9604 33.5313 11.8605C33.463 11.7607 33.4308 11.6405 33.4401 11.5198C33.4484 11.3952 33.5019 11.2778 33.5906 11.1899C33.6793 11.102 33.7971 11.0495 33.9218 11.0423C34.3951 11.0263 34.8708 11.0249 35.344 11.0423C35.6399 11.054 35.8253 11.2836 35.8281 11.5874C35.8319 12.0147 35.831 12.4424 35.8281 12.8697C35.8281 13.1763 35.6309 13.3993 35.3516 13.4233C35.0581 13.4486 34.8285 13.2608 34.7759 12.9538C34.7722 12.9312 34.7712 12.9068 34.7689 12.8847L34.7008 12.8199C34.674 12.8777 34.6599 12.9491 34.6177 12.9923C34.1482 13.4681 33.6771 13.941 33.2044 14.4112C32.9109 14.7042 32.6283 14.7037 32.3353 14.4112C31.8658 13.9435 31.3979 13.4754 30.9319 13.0068C30.8915 12.966 30.8483 12.9284 30.7957 12.8791C30.6825 12.9932 30.5764 13.1007 30.4698 13.2078C30.0811 13.5975 29.6932 13.9886 29.3021 14.376C29.0702 14.6056 28.7448 14.6154 28.533 14.4056C28.3213 14.1957 28.3213 13.8708 28.5518 13.6383C29.1663 13.0186 29.7826 12.4008 30.4008 11.7851C30.652 11.5348 30.9516 11.5372 31.2065 11.7898C31.6676 12.2481 32.1268 12.7082 32.5841 13.1702C32.6322 13.2222 32.6772 13.2769 32.7189 13.3341Z" fill="#5DA5E1"/>
<path d="M33.9225 16.922C34.6268 16.922 35.3269 16.9182 36.0293 16.922C36.3382 16.9248 36.5599 17.145 36.5664 17.4338C36.573 17.7225 36.3551 17.9503 36.0528 17.9747C36.0006 17.9789 35.9476 17.9747 35.895 17.9747H33.0154C32.6177 17.9747 32.2195 17.9803 31.8218 17.9747C31.3776 17.9662 31.1175 17.5432 31.3316 17.1812C31.4429 16.9933 31.6171 16.9173 31.8331 16.9182C32.5294 16.9182 33.2257 16.9182 33.9225 16.9182V16.922Z" fill="#5DA5E1"/>
<path d="M33.9234 19.9511C34.6086 19.9511 35.2935 19.9511 35.9781 19.9511C36.3335 19.9511 36.5706 20.1671 36.5664 20.4822C36.5622 20.7878 36.3236 21.0047 35.9828 21.0047C34.6014 21.0047 33.22 21.0047 31.8387 21.0047C31.5001 21.0047 31.2602 20.7831 31.2588 20.4779C31.2574 20.1727 31.4936 19.9516 31.834 19.9511C32.5314 19.9489 33.2279 19.9489 33.9234 19.9511Z" fill="#5DA5E1"/>
<path d="M28.7399 17.305C29.0183 17.0233 29.2512 16.7843 29.4865 16.5486C29.7433 16.2922 30.0537 16.2729 30.2795 16.4964C30.5053 16.7199 30.4884 17.0373 30.2377 17.2909C29.8881 17.6446 29.5367 17.9966 29.1836 18.3469C28.9085 18.6206 28.615 18.6192 28.3384 18.3469C28.1718 18.1825 28.0046 18.0182 27.8426 17.8496C27.6172 17.6149 27.6144 17.2909 27.8299 17.081C28.0455 16.8711 28.3572 16.8819 28.5854 17.1021C28.6419 17.1658 28.6936 17.2336 28.7399 17.305Z" fill="#5DA5E1"/>
<path d="M28.7358 20.3394C29.0203 20.0506 29.2523 19.8121 29.487 19.5768C29.7392 19.3247 30.0589 19.3059 30.2805 19.5271C30.5022 19.7482 30.4857 20.0684 30.2336 20.322C29.8811 20.6791 29.5268 21.0349 29.1706 21.3892C28.9114 21.6461 28.6118 21.6432 28.3517 21.3859C28.1813 21.2174 28.0104 21.0493 27.8437 20.8765C27.6239 20.6488 27.6169 20.3332 27.8221 20.121C28.0273 19.9088 28.3536 19.9046 28.5888 20.1323C28.6434 20.1971 28.6926 20.2664 28.7358 20.3394Z" fill="#5DA5E1"/>
<path d="M57.976 21L55.416 16.552H54.024V21H52.2V9.88H56.04C56.8933 9.88 57.6133 10.0293 58.2 10.328C58.7973 10.6267 59.24 11.0267 59.528 11.528C59.8267 12.0293 59.976 12.5893 59.976 13.208C59.976 13.9333 59.7627 14.5947 59.336 15.192C58.92 15.7787 58.2747 16.1787 57.4 16.392L60.152 21H57.976ZM54.024 15.096H56.04C56.7227 15.096 57.2347 14.9253 57.576 14.584C57.928 14.2427 58.104 13.784 58.104 13.208C58.104 12.632 57.9333 12.184 57.592 11.864C57.2507 11.5333 56.7333 11.368 56.04 11.368H54.024V15.096ZM70.8694 16.376C70.8694 16.7067 70.848 17.0053 70.8054 17.272H64.0694C64.1227 17.976 64.384 18.5413 64.8534 18.968C65.3227 19.3947 65.8987 19.608 66.5814 19.608C67.5627 19.608 68.256 19.1973 68.6614 18.376H70.6294C70.3627 19.1867 69.8774 19.8533 69.1734 20.376C68.48 20.888 67.616 21.144 66.5814 21.144C65.7387 21.144 64.9814 20.9573 64.3094 20.584C63.648 20.2 63.1254 19.6667 62.7414 18.984C62.368 18.2907 62.1814 17.4907 62.1814 16.584C62.1814 15.6773 62.3627 14.8827 62.7254 14.2C63.0987 13.5067 63.616 12.9733 64.2774 12.6C64.9494 12.2267 65.7174 12.04 66.5814 12.04C67.4134 12.04 68.1547 12.2213 68.8054 12.584C69.456 12.9467 69.9627 13.4587 70.3254 14.12C70.688 14.7707 70.8694 15.5227 70.8694 16.376ZM68.9654 15.8C68.9547 15.128 68.7147 14.5893 68.2454 14.184C67.776 13.7787 67.1947 13.576 66.5014 13.576C65.872 13.576 65.3334 13.7787 64.8854 14.184C64.4374 14.5787 64.1707 15.1173 64.0854 15.8H68.9654ZM74.9684 13.48C75.2777 13.0747 75.699 12.7333 76.2324 12.456C76.7657 12.1787 77.3684 12.04 78.0404 12.04C78.8084 12.04 79.507 12.232 80.1364 12.616C80.7764 12.9893 81.2777 13.5173 81.6404 14.2C82.003 14.8827 82.1844 15.6667 82.1844 16.552C82.1844 17.4373 82.003 18.232 81.6404 18.936C81.2777 19.6293 80.7764 20.1733 80.1364 20.568C79.507 20.952 78.8084 21.144 78.0404 21.144C77.3684 21.144 76.771 21.0107 76.2484 20.744C75.7257 20.4667 75.299 20.1253 74.9684 19.72V25.192H73.1444V12.184H74.9684V13.48ZM80.3284 16.552C80.3284 15.944 80.2004 15.4213 79.9444 14.984C79.699 14.536 79.3684 14.2 78.9524 13.976C78.547 13.7413 78.1097 13.624 77.6404 13.624C77.1817 13.624 76.7444 13.7413 76.3284 13.976C75.923 14.2107 75.5924 14.552 75.3364 15C75.091 15.448 74.9684 15.976 74.9684 16.584C74.9684 17.192 75.091 17.7253 75.3364 18.184C75.5924 18.632 75.923 18.9733 76.3284 19.208C76.7444 19.4427 77.1817 19.56 77.6404 19.56C78.1097 19.56 78.547 19.4427 78.9524 19.208C79.3684 18.9627 79.699 18.6107 79.9444 18.152C80.2004 17.6933 80.3284 17.16 80.3284 16.552ZM88.2921 21.144C87.4601 21.144 86.7081 20.9573 86.0361 20.584C85.3641 20.2 84.8361 19.6667 84.4521 18.984C84.0681 18.2907 83.8761 17.4907 83.8761 16.584C83.8761 15.688 84.0735 14.8933 84.4681 14.2C84.8628 13.5067 85.4015 12.9733 86.0841 12.6C86.7668 12.2267 87.5295 12.04 88.3721 12.04C89.2148 12.04 89.9775 12.2267 90.6601 12.6C91.3428 12.9733 91.8815 13.5067 92.2761 14.2C92.6708 14.8933 92.8681 15.688 92.8681 16.584C92.8681 17.48 92.6655 18.2747 92.2601 18.968C91.8548 19.6613 91.3001 20.2 90.5961 20.584C89.9028 20.9573 89.1348 21.144 88.2921 21.144ZM88.2921 19.56C88.7615 19.56 89.1988 19.448 89.6041 19.224C90.0201 19 90.3561 18.664 90.6121 18.216C90.8681 17.768 90.9961 17.224 90.9961 16.584C90.9961 15.944 90.8735 15.4053 90.6281 14.968C90.3828 14.52 90.0575 14.184 89.6521 13.96C89.2468 13.736 88.8095 13.624 88.3401 13.624C87.8708 13.624 87.4335 13.736 87.0281 13.96C86.6335 14.184 86.3188 14.52 86.0841 14.968C85.8495 15.4053 85.7321 15.944 85.7321 16.584C85.7321 17.5333 85.9721 18.2693 86.4521 18.792C86.9428 19.304 87.5561 19.56 88.2921 19.56ZM96.9752 13.464C97.2419 13.016 97.5939 12.6693 98.0312 12.424C98.4792 12.168 99.0072 12.04 99.6152 12.04V13.928H99.1512C98.4366 13.928 97.8926 14.1093 97.5192 14.472C97.1566 14.8347 96.9752 15.464 96.9752 16.36V21H95.1512V12.184H96.9752V13.464ZM103.9 13.672V18.552C103.9 18.8827 103.975 19.1227 104.124 19.272C104.284 19.4107 104.551 19.48 104.924 19.48H106.044V21H104.604C103.783 21 103.153 20.808 102.716 20.424C102.279 20.04 102.06 19.416 102.06 18.552V13.672H101.02V12.184H102.06V9.992H103.9V12.184H106.044V13.672H103.9Z" fill="#5DA5E1"/>
</svg>
