<svg width="19" height="22" viewBox="0 0 19 22" fill="none" xmlns="http://www.w3.org/2000/svg">
<path d="M9.73347 0C9.94336 0.104943 10.2582 0.209886 10.4681 0.314829C11.6224 1.15437 11.5175 2.93841 10.2582 3.56806C10.0483 3.56806 10.0483 3.67301 10.0483 3.77795C10.0483 4.19772 10.0483 4.51255 10.0483 4.93232C10.1532 4.93232 10.1532 4.93232 10.2582 4.93232C10.9928 4.93232 11.7274 4.93232 12.462 4.93232C12.5669 4.93232 12.6719 4.93232 12.7768 5.14221C12.357 4.51255 12.9867 5.45704 14.0361 7.24107C14.351 7.03118 14.7707 6.8213 15.0856 6.61141C15.1905 6.61141 15.1905 6.40153 15.1905 6.40153C15.1905 5.56198 15.6103 4.82738 16.3449 4.51255C17.0795 4.19772 17.7091 4.40761 18.3388 4.93232C18.8635 5.45704 19.0734 6.0867 18.8635 6.8213C18.6536 7.5559 18.1289 7.97567 17.2894 8.08062C16.7647 8.18556 16.2399 7.97567 15.8202 7.66084C15.4004 7.87073 15.0856 8.08062 14.6658 8.2905C14.8757 8.60533 14.9806 8.92016 15.1905 9.13004C15.4004 9.54982 15.6103 9.96959 15.9251 10.3894C16.0301 10.4943 16.0301 10.5992 15.9251 10.7042C15.5053 11.3338 15.0856 12.0685 14.7707 12.6981C14.7707 12.6981 14.7707 12.6981 14.7707 12.8031C15.0856 13.0129 15.5053 13.2228 15.8202 13.4327C15.8202 13.4327 15.9251 13.4327 16.0301 13.3278C17.0795 12.5932 18.5487 13.1179 18.8635 14.3772C19.0734 15.1118 18.8635 15.8464 18.2339 16.2662C17.6042 16.7909 16.8696 16.8958 16.2399 16.4761C15.5053 16.1612 15.1905 15.5316 15.1905 14.797C15.1905 14.5871 15.0856 14.4821 14.9806 14.3772C14.6658 14.2723 14.351 14.0624 14.1411 13.8525C13.8262 14.4821 13.5114 15.0069 13.0916 15.6365C13.0916 15.5316 13.0916 15.5316 13.0916 15.4266C13.0916 14.9019 13.0916 14.2723 12.9867 13.7475C12.7768 12.8031 12.2521 12.0685 11.5175 11.5437L11.4126 11.4388C12.5669 10.0745 12.0422 8.60533 11.2027 7.87073C10.0483 7.24107 8.68404 7.24107 7.73955 8.18556C6.90001 9.0251 6.69012 10.4943 7.63461 11.5437C7.52966 11.6487 7.31978 11.7536 7.21484 11.8586C6.37529 12.5932 5.95552 13.5377 5.95552 14.692C5.95552 15.0069 5.95552 15.4266 5.95552 15.7415C5.64069 15.2167 5.32586 14.5871 4.90609 13.9574C4.48632 14.1673 4.17149 14.3772 3.85666 14.5871C3.85666 14.5871 3.75171 14.692 3.75171 14.797C3.75171 15.4266 3.54183 16.0563 3.01711 16.4761C2.38745 17.0008 1.54791 17.0008 0.918252 16.581C0.288593 16.1612 -0.0262358 15.3217 0.0787073 14.5871C0.288593 13.8525 0.918252 13.2228 1.65285 13.1179C2.17757 13.0129 2.59734 13.2228 2.91217 13.4327C3.01711 13.5377 3.12206 13.5377 3.227 13.4327C3.54183 13.2228 3.85666 13.0129 4.27643 12.8031C4.17149 12.8031 4.17149 12.6981 4.06654 12.5932C3.75171 11.9635 3.33194 11.3338 3.01711 10.8091C2.91217 10.7042 2.91217 10.5992 3.01711 10.4943C3.43689 9.7597 3.85666 9.0251 4.17149 8.39544C4.17149 8.39544 4.17149 8.39544 4.17149 8.2905C3.9616 8.18556 3.75171 8.08062 3.54183 7.87073C3.227 7.66084 3.01711 7.66084 2.70228 7.87073C2.07263 8.2905 1.33802 8.18556 0.708366 7.66084C0.0787073 7.13613 -0.131179 6.50647 0.0787073 5.66692C0.288593 4.93232 0.918252 4.40761 1.65285 4.30266C2.80723 4.19772 3.75171 5.03727 3.75171 6.19164C3.75171 6.40153 3.75171 6.50647 3.9616 6.61141C4.27643 6.8213 4.59126 6.92624 4.90609 7.13613C4.90609 7.03118 5.01103 7.03118 5.01103 6.92624C5.32586 6.29658 5.74563 5.66692 6.06046 5.03727C6.1654 5.03727 6.27035 4.93232 6.37529 4.93232C7.10989 4.93232 7.84449 4.93232 8.5791 4.93232C8.68404 4.93232 8.68404 4.93232 8.78898 4.93232C8.78898 4.51255 8.78898 4.09278 8.78898 3.67301C8.78898 3.67301 8.68404 3.56806 8.5791 3.56806C7.84449 3.14829 7.52966 2.62358 7.52966 1.78403C7.52966 1.04943 7.94944 0.524715 8.68404 0.104943C8.78898 0.104943 8.99887 0.104943 9.10381 0C9.3137 0 9.52358 0 9.73347 0Z" fill="#0F63AC"/>
<path d="M9.10382 21.1975C8.89393 21.0926 8.5791 20.9876 8.36922 20.8827C7.21484 20.0431 7.31979 18.2591 8.68405 17.7344C8.78899 17.6294 8.89393 17.6294 8.89393 17.4196C8.89393 16.9998 8.89393 16.685 8.89393 16.2652C8.36922 16.2652 7.8445 16.2652 7.21484 16.2652C7.21484 16.1602 7.21484 16.1602 7.21484 16.1602C7.21484 15.5306 7.21484 14.9009 7.21484 14.2713C7.31979 13.1169 8.36922 12.2773 9.41865 12.2773C10.4681 12.2773 11.5175 13.1169 11.6225 14.1663C11.6225 14.2713 11.6225 14.3762 11.6225 14.4811C11.6225 15.0059 11.6225 15.6355 11.6225 16.1602C11.0977 16.1602 10.573 16.1602 9.94336 16.1602C9.94336 16.4751 9.94336 16.7899 9.94336 17.1047C9.94336 17.4196 9.94336 17.5245 10.2582 17.7344C10.8879 18.0492 11.3076 18.8888 11.2027 19.6234C11.0977 20.358 10.573 20.9876 9.73348 21.1975H9.62853C9.52359 21.1975 9.3137 21.1975 9.10382 21.1975Z" fill="#0F63AC"/>
<path d="M10.6779 9.86336C10.6779 10.493 10.1532 11.0177 9.52351 11.0177C8.89386 11.0177 8.36914 10.493 8.36914 9.86336C8.36914 9.2337 8.89386 8.70898 9.52351 8.70898C10.0482 8.70898 10.6779 9.2337 10.6779 9.86336Z" fill="#0F63AC"/>
</svg>
