<svg width="1050" height="85" viewBox="0 0 1050 85" fill="none" xmlns="http://www.w3.org/2000/svg">
<rect width="1050" height="85" rx="16" fill="#19427d"/>
<path d="M393 23H658L678 43L658 63H393L373 43L393 23Z" fill="#EDEDED"/>
<path d="M654 26L671 43L654 60" stroke="#19427d"/>
<path d="M646 26L663 43L646 60" stroke="#19427d"/>
<path d="M638 26L655 43L638 60" stroke="#19427d"/>
<path d="M398 60L381 43L398 26" stroke="#19427d"/>
<path d="M406 60L389 43L406 26" stroke="#19427d"/>
<path d="M414 60L397 43L414 26" stroke="#19427d"/>
<path d="M487.44 51.168C486.272 51.168 485.216 50.968 484.272 50.568C483.344 50.168 482.608 49.592 482.064 48.84C481.52 48.088 481.24 47.2 481.224 46.176H484.824C484.872 46.864 485.112 47.408 485.544 47.808C485.992 48.208 486.6 48.408 487.368 48.408C488.152 48.408 488.768 48.224 489.216 47.856C489.664 47.472 489.888 46.976 489.888 46.368C489.888 45.872 489.736 45.464 489.432 45.144C489.128 44.824 488.744 44.576 488.28 44.4C487.832 44.208 487.208 44 486.408 43.776C485.32 43.456 484.432 43.144 483.744 42.84C483.072 42.52 482.488 42.048 481.992 41.424C481.512 40.784 481.272 39.936 481.272 38.88C481.272 37.888 481.52 37.024 482.016 36.288C482.512 35.552 483.208 34.992 484.104 34.608C485 34.208 486.024 34.008 487.176 34.008C488.904 34.008 490.304 34.432 491.376 35.28C492.464 36.112 493.064 37.28 493.176 38.784H489.48C489.448 38.208 489.2 37.736 488.736 37.368C488.288 36.984 487.688 36.792 486.936 36.792C486.28 36.792 485.752 36.96 485.352 37.296C484.968 37.632 484.776 38.12 484.776 38.76C484.776 39.208 484.92 39.584 485.208 39.888C485.512 40.176 485.88 40.416 486.312 40.608C486.76 40.784 487.384 40.992 488.184 41.232C489.272 41.552 490.16 41.872 490.848 42.192C491.536 42.512 492.128 42.992 492.624 43.632C493.12 44.272 493.368 45.112 493.368 46.152C493.368 47.048 493.136 47.88 492.672 48.648C492.208 49.416 491.528 50.032 490.632 50.496C489.736 50.944 488.672 51.168 487.44 51.168ZM507.681 34.248V36.96H503.217V51H499.857V36.96H495.393V34.248H507.681ZM517.909 51.168C516.341 51.168 514.901 50.8 513.589 50.064C512.277 49.328 511.237 48.312 510.469 47.016C509.701 45.704 509.317 44.224 509.317 42.576C509.317 40.944 509.701 39.48 510.469 38.184C511.237 36.872 512.277 35.848 513.589 35.112C514.901 34.376 516.341 34.008 517.909 34.008C519.493 34.008 520.933 34.376 522.229 35.112C523.541 35.848 524.573 36.872 525.325 38.184C526.093 39.48 526.477 40.944 526.477 42.576C526.477 44.224 526.093 45.704 525.325 47.016C524.573 48.312 523.541 49.328 522.229 50.064C520.917 50.8 519.477 51.168 517.909 51.168ZM517.909 48.168C518.917 48.168 519.805 47.944 520.573 47.496C521.341 47.032 521.941 46.376 522.373 45.528C522.805 44.68 523.021 43.696 523.021 42.576C523.021 41.456 522.805 40.48 522.373 39.648C521.941 38.8 521.341 38.152 520.573 37.704C519.805 37.256 518.917 37.032 517.909 37.032C516.901 37.032 516.005 37.256 515.221 37.704C514.453 38.152 513.853 38.8 513.421 39.648C512.989 40.48 512.773 41.456 512.773 42.576C512.773 43.696 512.989 44.68 513.421 45.528C513.853 46.376 514.453 47.032 515.221 47.496C516.005 47.944 516.901 48.168 517.909 48.168ZM537.616 51L533.92 44.472H532.336V51H528.976V34.248H535.264C536.56 34.248 537.664 34.48 538.576 34.944C539.488 35.392 540.168 36.008 540.616 36.792C541.08 37.56 541.312 38.424 541.312 39.384C541.312 40.488 540.992 41.488 540.352 42.384C539.712 43.264 538.76 43.872 537.496 44.208L541.504 51H537.616ZM532.336 41.952H535.144C536.056 41.952 536.736 41.736 537.184 41.304C537.632 40.856 537.856 40.24 537.856 39.456C537.856 38.688 537.632 38.096 537.184 37.68C536.736 37.248 536.056 37.032 535.144 37.032H532.336V41.952ZM547.711 36.96V41.16H553.351V43.824H547.711V48.264H554.071V51H544.351V34.224H554.071V36.96H547.711ZM562.909 51.168C561.741 51.168 560.685 50.968 559.741 50.568C558.813 50.168 558.077 49.592 557.533 48.84C556.989 48.088 556.709 47.2 556.693 46.176H560.293C560.341 46.864 560.581 47.408 561.013 47.808C561.461 48.208 562.069 48.408 562.837 48.408C563.621 48.408 564.237 48.224 564.685 47.856C565.133 47.472 565.357 46.976 565.357 46.368C565.357 45.872 565.205 45.464 564.901 45.144C564.597 44.824 564.213 44.576 563.749 44.4C563.301 44.208 562.677 44 561.877 43.776C560.789 43.456 559.901 43.144 559.213 42.84C558.541 42.52 557.957 42.048 557.461 41.424C556.981 40.784 556.741 39.936 556.741 38.88C556.741 37.888 556.989 37.024 557.485 36.288C557.981 35.552 558.677 34.992 559.573 34.608C560.469 34.208 561.493 34.008 562.645 34.008C564.373 34.008 565.773 34.432 566.845 35.28C567.933 36.112 568.533 37.28 568.645 38.784H564.949C564.917 38.208 564.669 37.736 564.205 37.368C563.757 36.984 563.157 36.792 562.405 36.792C561.749 36.792 561.221 36.96 560.821 37.296C560.437 37.632 560.245 38.12 560.245 38.76C560.245 39.208 560.389 39.584 560.677 39.888C560.981 40.176 561.349 40.416 561.781 40.608C562.229 40.784 562.853 40.992 563.653 41.232C564.741 41.552 565.629 41.872 566.317 42.192C567.005 42.512 567.597 42.992 568.093 43.632C568.589 44.272 568.837 45.112 568.837 46.152C568.837 47.048 568.605 47.88 568.141 48.648C567.677 49.416 566.997 50.032 566.101 50.496C565.205 50.944 564.141 51.168 562.909 51.168Z" fill="#19427d"/>
<path d="M410.707 43.1475L425.355 28.5H625.645L640.293 43.1475L625.645 57.7951H425.355L410.707 43.1475Z" stroke="#19427d"/>
</svg>
