<svg width="130" height="29" viewBox="0 0 130 29" fill="none" xmlns="http://www.w3.org/2000/svg">
<path d="M24.232 21.555L25.6538 22.9709C25.8212 23.1383 25.895 23.3364 25.8241 23.5689C25.795 23.6802 25.7324 23.7799 25.6448 23.8546C25.5573 23.9292 25.4489 23.9752 25.3343 23.9862C25.2612 23.9972 25.1881 24.0126 25.115 24.0221C22.658 24.3451 20.201 24.6685 17.744 24.992C17.2857 25.0527 16.9487 24.7603 17.0064 24.321C17.3368 21.7919 17.6699 19.2627 18.0057 16.7336C18.0408 16.4631 18.1606 16.2716 18.4252 16.1854C18.6899 16.0991 18.8858 16.2044 19.0641 16.3842C19.5071 16.8301 19.9515 17.2745 20.469 17.7928C20.5208 17.6891 20.5832 17.5911 20.6554 17.5004C22.7684 15.3835 24.8836 13.2686 27.0009 11.1556C27.4198 10.7368 27.688 10.736 28.1084 11.1556C28.3715 11.4202 28.6295 11.6899 28.946 12.0145C29.2033 10.065 29.4511 8.18715 29.7055 6.25667L23.9587 7.01907C24.273 7.32827 24.55 7.59872 24.8241 7.87137C25.2269 8.27413 25.2262 8.55483 24.8197 8.96051C23.4009 10.3793 21.9814 11.7967 20.5297 13.2476C20.8331 13.5459 21.1298 13.8375 21.4259 14.1299C21.5487 14.2512 21.6759 14.3704 21.7913 14.5005C22.0209 14.7615 22.0194 15.0802 21.7965 15.3133C21.5735 15.5465 21.2234 15.5648 20.9646 15.3192C20.5743 14.9486 20.2008 14.5612 19.8199 14.1811C19.6737 14.0349 19.521 13.8887 19.374 13.7374C19.0349 13.3909 19.0356 13.0919 19.3814 12.7455C20.7458 11.3781 22.1132 10.0114 23.4835 8.64547C23.5694 8.57325 23.6605 8.50752 23.7562 8.44884C23.2525 7.94886 22.8001 7.50297 22.352 7.05196C22.0954 6.79393 22.0391 6.47084 22.257 6.2479C22.3999 6.11314 22.5804 6.02494 22.7745 5.99498C23.784 5.84879 24.7971 5.72234 25.8087 5.59003C27.2707 5.39779 28.7326 5.20774 30.1989 5.01111C30.7245 4.93801 31.0286 5.2304 30.9598 5.74938C30.6295 8.25269 30.2988 10.755 29.9679 13.2564C29.9328 13.5254 29.8173 13.7198 29.5535 13.8097C29.2896 13.8996 29.0783 13.7863 28.8956 13.5985C28.4607 13.1599 28.0221 12.7213 27.5009 12.1958C27.4388 12.3032 27.4 12.4151 27.3248 12.4882C25.2186 14.5992 23.1103 16.708 20.9997 18.8147C20.5516 19.262 20.2943 19.2642 19.8521 18.819C19.5911 18.5566 19.3346 18.2891 19.0276 17.9748C18.7703 19.9316 18.5225 21.8116 18.2696 23.7355L24.0193 22.979C23.7057 22.6676 23.4346 22.4008 23.1656 22.1325C22.7496 21.7173 22.7518 21.4476 23.1736 21.0258C24.5215 19.6779 25.8696 18.3305 27.218 16.9836C27.2875 16.9105 27.3693 16.8557 27.4688 16.7738C27.0806 16.3879 26.7261 16.0355 26.3723 15.6825C26.2992 15.6094 26.2261 15.5429 26.164 15.4632C26.0647 15.3536 26.012 15.2097 26.017 15.0619C26.0221 14.9141 26.0845 14.7741 26.191 14.6715C26.4023 14.4596 26.7363 14.4157 26.9585 14.6277C27.5589 15.2008 28.1456 15.7872 28.7187 16.3871C28.9475 16.6269 28.9066 16.9375 28.6544 17.1956C28.2275 17.6341 27.7918 18.061 27.3598 18.493C26.4052 19.4477 25.4503 20.4016 24.4952 21.3548C24.4122 21.4276 24.3243 21.4945 24.232 21.555Z" fill="#F1F1F1"/>
<path d="M51.3535 9.88V11.368H48.3935V21H46.5695V11.368H43.5935V9.88H51.3535ZM55.5047 13.464C55.7714 13.016 56.1234 12.6693 56.5607 12.424C57.0087 12.168 57.5367 12.04 58.1447 12.04V13.928H57.6807C56.9661 13.928 56.4221 14.1093 56.0487 14.472C55.6861 14.8347 55.5047 15.464 55.5047 16.36V21H53.6807V12.184H55.5047V13.464ZM59.6934 16.552C59.6934 15.6667 59.8747 14.8827 60.2374 14.2C60.6107 13.5173 61.112 12.9893 61.7414 12.616C62.3814 12.232 63.0854 12.04 63.8534 12.04C64.5467 12.04 65.1494 12.1787 65.6614 12.456C66.184 12.7227 66.6 13.0587 66.9094 13.464V12.184H68.7494V21H66.9094V19.688C66.6 20.104 66.1787 20.4507 65.6454 20.728C65.112 21.0053 64.504 21.144 63.8214 21.144C63.064 21.144 62.3707 20.952 61.7414 20.568C61.112 20.1733 60.6107 19.6293 60.2374 18.936C59.8747 18.232 59.6934 17.4373 59.6934 16.552ZM66.9094 16.584C66.9094 15.976 66.7814 15.448 66.5254 15C66.28 14.552 65.9547 14.2107 65.5494 13.976C65.144 13.7413 64.7067 13.624 64.2374 13.624C63.768 13.624 63.3307 13.7413 62.9254 13.976C62.52 14.2 62.1894 14.536 61.9334 14.984C61.688 15.4213 61.5654 15.944 61.5654 16.552C61.5654 17.16 61.688 17.6933 61.9334 18.152C62.1894 18.6107 62.52 18.9627 62.9254 19.208C63.3414 19.4427 63.7787 19.56 64.2374 19.56C64.7067 19.56 65.144 19.4427 65.5494 19.208C65.9547 18.9733 66.28 18.632 66.5254 18.184C66.7814 17.7253 66.9094 17.192 66.9094 16.584ZM76.0731 12.04C76.7664 12.04 77.3851 12.184 77.9291 12.472C78.4838 12.76 78.9158 13.1867 79.2251 13.752C79.5344 14.3173 79.6891 15 79.6891 15.8V21H77.8811V16.072C77.8811 15.2827 77.6838 14.68 77.2891 14.264C76.8944 13.8373 76.3558 13.624 75.6731 13.624C74.9904 13.624 74.4464 13.8373 74.0411 14.264C73.6464 14.68 73.4491 15.2827 73.4491 16.072V21H71.6251V12.184H73.4491V13.192C73.7478 12.8293 74.1264 12.5467 74.5851 12.344C75.0544 12.1413 75.5504 12.04 76.0731 12.04ZM85.6957 21.144C85.0024 21.144 84.3784 21.0213 83.8237 20.776C83.2797 20.52 82.8477 20.1787 82.5277 19.752C82.2077 19.3147 82.0371 18.8293 82.0157 18.296H83.9037C83.9357 18.6693 84.1117 18.984 84.4317 19.24C84.7624 19.4853 85.1731 19.608 85.6637 19.608C86.1757 19.608 86.5704 19.512 86.8477 19.32C87.1357 19.1173 87.2797 18.8613 87.2797 18.552C87.2797 18.2213 87.1197 17.976 86.7997 17.816C86.4904 17.656 85.9944 17.48 85.3117 17.288C84.6504 17.1067 84.1117 16.9307 83.6957 16.76C83.2797 16.5893 82.9171 16.328 82.6077 15.976C82.3091 15.624 82.1597 15.16 82.1597 14.584C82.1597 14.1147 82.2984 13.688 82.5757 13.304C82.8531 12.9093 83.2477 12.6 83.7597 12.376C84.2824 12.152 84.8797 12.04 85.5517 12.04C86.5544 12.04 87.3597 12.296 87.9677 12.808C88.5864 13.3093 88.9171 13.9973 88.9597 14.872H87.1357C87.1037 14.4773 86.9437 14.1627 86.6557 13.928C86.3677 13.6933 85.9784 13.576 85.4877 13.576C85.0077 13.576 84.6397 13.6667 84.3837 13.848C84.1277 14.0293 83.9997 14.2693 83.9997 14.568C83.9997 14.8027 84.0851 15 84.2557 15.16C84.4264 15.32 84.6344 15.448 84.8797 15.544C85.1251 15.6293 85.4877 15.7413 85.9677 15.88C86.6077 16.0507 87.1304 16.2267 87.5357 16.408C87.9517 16.5787 88.3091 16.8347 88.6077 17.176C88.9064 17.5173 89.0611 17.9707 89.0717 18.536C89.0717 19.0373 88.9331 19.4853 88.6557 19.88C88.3784 20.2747 87.9837 20.584 87.4717 20.808C86.9704 21.032 86.3784 21.144 85.6957 21.144ZM95.2186 13.672H93.5866V21H91.7466V13.672H90.7066V12.184H91.7466V11.56C91.7466 10.5467 92.0133 9.81067 92.5466 9.352C93.0906 8.88267 93.9386 8.648 95.0906 8.648V10.168C94.5359 10.168 94.1466 10.2747 93.9226 10.488C93.6986 10.6907 93.5866 11.048 93.5866 11.56V12.184H95.2186V13.672ZM105.395 16.376C105.395 16.7067 105.374 17.0053 105.331 17.272H98.5951C98.6484 17.976 98.9098 18.5413 99.3791 18.968C99.8484 19.3947 100.424 19.608 101.107 19.608C102.088 19.608 102.782 19.1973 103.187 18.376H105.155C104.888 19.1867 104.403 19.8533 103.699 20.376C103.006 20.888 102.142 21.144 101.107 21.144C100.264 21.144 99.5071 20.9573 98.8351 20.584C98.1738 20.2 97.6511 19.6667 97.2671 18.984C96.8938 18.2907 96.7071 17.4907 96.7071 16.584C96.7071 15.6773 96.8884 14.8827 97.2511 14.2C97.6244 13.5067 98.1418 12.9733 98.8031 12.6C99.4751 12.2267 100.243 12.04 101.107 12.04C101.939 12.04 102.68 12.2213 103.331 12.584C103.982 12.9467 104.488 13.4587 104.851 14.12C105.214 14.7707 105.395 15.5227 105.395 16.376ZM103.491 15.8C103.48 15.128 103.24 14.5893 102.771 14.184C102.302 13.7787 101.72 13.576 101.027 13.576C100.398 13.576 99.8591 13.7787 99.4111 14.184C98.9631 14.5787 98.6964 15.1173 98.6111 15.8H103.491ZM109.494 13.464C109.761 13.016 110.113 12.6693 110.55 12.424C110.998 12.168 111.526 12.04 112.134 12.04V13.928H111.67C110.955 13.928 110.411 14.1093 110.038 14.472C109.675 14.8347 109.494 15.464 109.494 16.36V21H107.67V12.184H109.494V13.464Z" fill="#F1F1F1"/>
</svg>
