<svg width="130" height="29" viewBox="0 0 130 29" fill="none" xmlns="http://www.w3.org/2000/svg">
<rect x="2" y="1" width="127" height="28" rx="13" fill="white"/>
<path d="M25.232 21.555L26.6538 22.9709C26.8212 23.1383 26.895 23.3364 26.8241 23.5689C26.795 23.6802 26.7324 23.7799 26.6448 23.8546C26.5573 23.9292 26.4489 23.9752 26.3343 23.9862C26.2612 23.9972 26.1881 24.0126 26.115 24.0221C23.658 24.3451 21.201 24.6685 18.744 24.992C18.2857 25.0527 17.9487 24.7603 18.0064 24.321C18.3368 21.7919 18.6699 19.2627 19.0057 16.7336C19.0408 16.4631 19.1606 16.2716 19.4252 16.1854C19.6899 16.0991 19.8858 16.2044 20.0641 16.3842C20.5071 16.8301 20.9515 17.2745 21.469 17.7928C21.5208 17.6891 21.5832 17.5911 21.6554 17.5004C23.7684 15.3835 25.8836 13.2686 28.0009 11.1556C28.4198 10.7368 28.688 10.736 29.1084 11.1556C29.3715 11.4202 29.6295 11.6899 29.946 12.0145C30.2033 10.065 30.4511 8.18715 30.7055 6.25667L24.9587 7.01907C25.273 7.32827 25.55 7.59872 25.8241 7.87137C26.2269 8.27413 26.2262 8.55483 25.8197 8.96051C24.4009 10.3793 22.9814 11.7967 21.5297 13.2476C21.8331 13.5459 22.1298 13.8375 22.4259 14.1299C22.5487 14.2512 22.6759 14.3704 22.7913 14.5005C23.0209 14.7615 23.0194 15.0802 22.7965 15.3133C22.5735 15.5465 22.2234 15.5648 21.9646 15.3192C21.5743 14.9486 21.2008 14.5612 20.8199 14.1811C20.6737 14.0349 20.521 13.8887 20.374 13.7374C20.0349 13.3909 20.0356 13.0919 20.3814 12.7455C21.7458 11.3781 23.1132 10.0114 24.4835 8.64547C24.5694 8.57325 24.6605 8.50752 24.7562 8.44884C24.2525 7.94886 23.8001 7.50297 23.352 7.05196C23.0954 6.79393 23.0391 6.47084 23.257 6.2479C23.3999 6.11314 23.5804 6.02494 23.7745 5.99498C24.784 5.84879 25.7971 5.72234 26.8087 5.59003C28.2707 5.39779 29.7326 5.20774 31.1989 5.01111C31.7245 4.93801 32.0286 5.2304 31.9598 5.74938C31.6295 8.25269 31.2988 10.755 30.9679 13.2564C30.9328 13.5254 30.8173 13.7198 30.5535 13.8097C30.2896 13.8996 30.0783 13.7863 29.8956 13.5985C29.4607 13.1599 29.0221 12.7213 28.5009 12.1958C28.4388 12.3032 28.4 12.4151 28.3248 12.4882C26.2186 14.5992 24.1103 16.708 21.9997 18.8147C21.5516 19.262 21.2943 19.2642 20.8521 18.819C20.5911 18.5566 20.3346 18.2891 20.0276 17.9748C19.7703 19.9316 19.5225 21.8116 19.2696 23.7355L25.0193 22.979C24.7057 22.6676 24.4346 22.4008 24.1656 22.1325C23.7496 21.7173 23.7518 21.4476 24.1736 21.0258C25.5215 19.6779 26.8696 18.3305 28.218 16.9836C28.2875 16.9105 28.3693 16.8557 28.4688 16.7738C28.0806 16.3879 27.7261 16.0355 27.3723 15.6825C27.2992 15.6094 27.2261 15.5429 27.164 15.4632C27.0647 15.3536 27.012 15.2097 27.017 15.0619C27.0221 14.9141 27.0845 14.7741 27.191 14.6715C27.4023 14.4596 27.7363 14.4157 27.9585 14.6277C28.5589 15.2008 29.1456 15.7872 29.7187 16.3871C29.9475 16.6269 29.9066 16.9375 29.6544 17.1956C29.2275 17.6341 28.7918 18.061 28.3598 18.493C27.4052 19.4477 26.4503 20.4016 25.4952 21.3548C25.4122 21.4276 25.3243 21.4945 25.232 21.555Z" fill="#5DA5E1"/>
<path d="M52.3535 9.88V11.368H49.3935V21H47.5695V11.368H44.5935V9.88H52.3535ZM56.5047 13.464C56.7714 13.016 57.1234 12.6693 57.5607 12.424C58.0087 12.168 58.5367 12.04 59.1447 12.04V13.928H58.6807C57.9661 13.928 57.4221 14.1093 57.0487 14.472C56.6861 14.8347 56.5047 15.464 56.5047 16.36V21H54.6807V12.184H56.5047V13.464ZM60.6934 16.552C60.6934 15.6667 60.8747 14.8827 61.2374 14.2C61.6107 13.5173 62.112 12.9893 62.7414 12.616C63.3814 12.232 64.0854 12.04 64.8534 12.04C65.5467 12.04 66.1494 12.1787 66.6614 12.456C67.184 12.7227 67.6 13.0587 67.9094 13.464V12.184H69.7494V21H67.9094V19.688C67.6 20.104 67.1787 20.4507 66.6454 20.728C66.112 21.0053 65.504 21.144 64.8214 21.144C64.064 21.144 63.3707 20.952 62.7414 20.568C62.112 20.1733 61.6107 19.6293 61.2374 18.936C60.8747 18.232 60.6934 17.4373 60.6934 16.552ZM67.9094 16.584C67.9094 15.976 67.7814 15.448 67.5254 15C67.28 14.552 66.9547 14.2107 66.5494 13.976C66.144 13.7413 65.7067 13.624 65.2374 13.624C64.768 13.624 64.3307 13.7413 63.9254 13.976C63.52 14.2 63.1894 14.536 62.9334 14.984C62.688 15.4213 62.5654 15.944 62.5654 16.552C62.5654 17.16 62.688 17.6933 62.9334 18.152C63.1894 18.6107 63.52 18.9627 63.9254 19.208C64.3414 19.4427 64.7787 19.56 65.2374 19.56C65.7067 19.56 66.144 19.4427 66.5494 19.208C66.9547 18.9733 67.28 18.632 67.5254 18.184C67.7814 17.7253 67.9094 17.192 67.9094 16.584ZM77.0731 12.04C77.7664 12.04 78.3851 12.184 78.9291 12.472C79.4838 12.76 79.9158 13.1867 80.2251 13.752C80.5344 14.3173 80.6891 15 80.6891 15.8V21H78.8811V16.072C78.8811 15.2827 78.6838 14.68 78.2891 14.264C77.8944 13.8373 77.3558 13.624 76.6731 13.624C75.9904 13.624 75.4464 13.8373 75.0411 14.264C74.6464 14.68 74.4491 15.2827 74.4491 16.072V21H72.6251V12.184H74.4491V13.192C74.7478 12.8293 75.1264 12.5467 75.5851 12.344C76.0544 12.1413 76.5504 12.04 77.0731 12.04ZM86.6957 21.144C86.0024 21.144 85.3784 21.0213 84.8237 20.776C84.2797 20.52 83.8477 20.1787 83.5277 19.752C83.2077 19.3147 83.0371 18.8293 83.0157 18.296H84.9037C84.9357 18.6693 85.1117 18.984 85.4317 19.24C85.7624 19.4853 86.1731 19.608 86.6637 19.608C87.1757 19.608 87.5704 19.512 87.8477 19.32C88.1357 19.1173 88.2797 18.8613 88.2797 18.552C88.2797 18.2213 88.1197 17.976 87.7997 17.816C87.4904 17.656 86.9944 17.48 86.3117 17.288C85.6504 17.1067 85.1117 16.9307 84.6957 16.76C84.2797 16.5893 83.9171 16.328 83.6077 15.976C83.3091 15.624 83.1597 15.16 83.1597 14.584C83.1597 14.1147 83.2984 13.688 83.5757 13.304C83.8531 12.9093 84.2477 12.6 84.7597 12.376C85.2824 12.152 85.8797 12.04 86.5517 12.04C87.5544 12.04 88.3597 12.296 88.9677 12.808C89.5864 13.3093 89.9171 13.9973 89.9597 14.872H88.1357C88.1037 14.4773 87.9437 14.1627 87.6557 13.928C87.3677 13.6933 86.9784 13.576 86.4877 13.576C86.0077 13.576 85.6397 13.6667 85.3837 13.848C85.1277 14.0293 84.9997 14.2693 84.9997 14.568C84.9997 14.8027 85.0851 15 85.2557 15.16C85.4264 15.32 85.6344 15.448 85.8797 15.544C86.1251 15.6293 86.4877 15.7413 86.9677 15.88C87.6077 16.0507 88.1304 16.2267 88.5357 16.408C88.9517 16.5787 89.3091 16.8347 89.6077 17.176C89.9064 17.5173 90.0611 17.9707 90.0717 18.536C90.0717 19.0373 89.9331 19.4853 89.6557 19.88C89.3784 20.2747 88.9837 20.584 88.4717 20.808C87.9704 21.032 87.3784 21.144 86.6957 21.144ZM96.2186 13.672H94.5866V21H92.7466V13.672H91.7066V12.184H92.7466V11.56C92.7466 10.5467 93.0133 9.81067 93.5466 9.352C94.0906 8.88267 94.9386 8.648 96.0906 8.648V10.168C95.5359 10.168 95.1466 10.2747 94.9226 10.488C94.6986 10.6907 94.5866 11.048 94.5866 11.56V12.184H96.2186V13.672ZM106.395 16.376C106.395 16.7067 106.374 17.0053 106.331 17.272H99.5951C99.6484 17.976 99.9098 18.5413 100.379 18.968C100.848 19.3947 101.424 19.608 102.107 19.608C103.088 19.608 103.782 19.1973 104.187 18.376H106.155C105.888 19.1867 105.403 19.8533 104.699 20.376C104.006 20.888 103.142 21.144 102.107 21.144C101.264 21.144 100.507 20.9573 99.8351 20.584C99.1738 20.2 98.6511 19.6667 98.2671 18.984C97.8938 18.2907 97.7071 17.4907 97.7071 16.584C97.7071 15.6773 97.8884 14.8827 98.2511 14.2C98.6244 13.5067 99.1418 12.9733 99.8031 12.6C100.475 12.2267 101.243 12.04 102.107 12.04C102.939 12.04 103.68 12.2213 104.331 12.584C104.982 12.9467 105.488 13.4587 105.851 14.12C106.214 14.7707 106.395 15.5227 106.395 16.376ZM104.491 15.8C104.48 15.128 104.24 14.5893 103.771 14.184C103.302 13.7787 102.72 13.576 102.027 13.576C101.398 13.576 100.859 13.7787 100.411 14.184C99.9631 14.5787 99.6964 15.1173 99.6111 15.8H104.491ZM110.494 13.464C110.761 13.016 111.113 12.6693 111.55 12.424C111.998 12.168 112.526 12.04 113.134 12.04V13.928H112.67C111.955 13.928 111.411 14.1093 111.038 14.472C110.675 14.8347 110.494 15.464 110.494 16.36V21H108.67V12.184H110.494V13.464Z" fill="#5DA5E1"/>
</svg>
