<svg width="130" height="29" viewBox="0 0 130 29" fill="none" xmlns="http://www.w3.org/2000/svg">
<rect x="2" y="1" width="127" height="28" rx="13" fill="white"/>
<path d="M24 13.0647C24.1378 12.6245 24.4451 12.4316 24.8963 12.3845C25.455 12.3269 26.0083 12.2225 26.5652 12.1472C26.7079 12.1279 26.7818 12.0667 26.8483 11.9368C27.0077 11.6251 27.1886 11.3236 27.3704 11.0238C27.397 10.987 27.4132 10.9437 27.4175 10.8985C27.4217 10.8533 27.4138 10.8078 27.3946 10.7667C27.1582 10.1746 26.9275 9.58027 26.6964 8.98596C26.5009 8.48277 26.6273 8.10902 27.0887 7.83475C28.0243 7.27713 28.9604 6.72127 29.8969 6.16716C30.3719 5.88586 30.7602 5.96069 31.0947 6.39828C31.4755 6.89618 31.8563 7.39408 32.231 7.89507C32.2561 7.93309 32.2912 7.96344 32.3324 7.98278C32.3737 8.00213 32.4195 8.0097 32.4647 8.00468C32.8213 7.99646 33.1779 7.99646 33.5345 8.00468C33.5794 8.00989 33.6249 8.00257 33.6659 7.98353C33.707 7.9645 33.7419 7.93449 33.7669 7.89683C34.1385 7.39981 34.5153 6.90719 34.8935 6.41369C35.2457 5.95497 35.6212 5.88145 36.1156 6.17465C37.0418 6.72464 37.9676 7.27493 38.893 7.82551C39.3882 8.12046 39.5071 8.46076 39.3002 8.99344C39.0735 9.57674 38.8498 10.1609 38.6165 10.7416C38.5926 10.7898 38.5823 10.8436 38.5865 10.8973C38.5908 10.9509 38.6095 11.0024 38.6407 11.0462C38.8265 11.3504 39.0017 11.6626 39.169 11.9769C39.1876 12.0214 39.2179 12.06 39.2566 12.0887C39.2954 12.1173 39.3412 12.135 39.3891 12.1398C39.9808 12.2221 40.5703 12.3159 41.1619 12.3955C41.7382 12.4735 41.9984 12.7618 41.9984 13.342C41.9984 14.4494 41.9984 15.5567 41.9984 16.664C41.9984 17.2315 41.7342 17.5255 41.169 17.6004C40.7424 17.6572 40.3145 17.7254 39.8861 17.7857C39.7233 17.8086 39.578 17.7677 39.4899 17.6219C39.4107 17.4938 39.3922 17.3393 39.4943 17.2257C39.5808 17.1338 39.6932 17.0704 39.8166 17.0439C40.2308 16.9682 40.6491 16.9119 41.0668 16.8599C41.2165 16.8414 41.2601 16.7776 41.2592 16.6323C41.2548 15.5429 41.2548 14.4533 41.2592 13.3636C41.2592 13.2016 41.1971 13.1532 41.0497 13.1329C40.377 13.0414 39.7061 12.9366 39.0334 12.8446C38.8133 12.8146 38.687 12.7041 38.5866 12.5047C38.3792 12.0931 38.1556 11.6876 37.9091 11.2985C37.777 11.0894 37.7405 10.9115 37.836 10.6782C38.1028 10.0293 38.3493 9.37204 38.6055 8.7183C38.6385 8.63421 38.6764 8.56113 38.5654 8.49818C37.593 7.92368 36.6227 7.34654 35.6406 6.76323C35.6036 6.80374 35.5679 6.83983 35.5367 6.87901C35.1004 7.43062 34.6597 7.97959 34.2327 8.53648C34.0887 8.7249 33.9245 8.78917 33.6912 8.77905C33.2307 8.76012 32.7667 8.76144 32.3076 8.77905C32.0795 8.78785 31.9197 8.7271 31.7819 8.54132C31.3417 7.94877 30.8922 7.36547 30.4397 6.77072C30.3763 6.8055 30.3208 6.83499 30.2667 6.86669C29.3541 7.39496 28.445 7.92588 27.5276 8.44447C27.3647 8.53648 27.3546 8.62056 27.4179 8.77861C27.6746 9.41298 27.9136 10.0553 28.1743 10.687C28.2676 10.9137 28.2302 11.0876 28.1016 11.291C27.8551 11.6814 27.6284 12.084 27.4223 12.4972C27.3193 12.7037 27.1908 12.816 26.9636 12.8468C26.2967 12.9375 25.6315 13.044 24.9645 13.1334C24.8056 13.1545 24.7444 13.2064 24.7466 13.3742C24.7537 14.458 24.7537 15.5419 24.7466 16.6257C24.7466 16.7811 24.7951 16.8414 24.9491 16.8621C25.6222 16.9532 26.2932 17.0589 26.9658 17.1505C27.193 17.1817 27.318 17.2971 27.4228 17.5026C27.6354 17.9248 27.8727 18.3356 28.121 18.7375C28.2337 18.9197 28.2636 19.08 28.1835 19.2799C27.9154 19.9472 27.6596 20.6199 27.3942 21.2882C27.3528 21.3925 27.3572 21.4533 27.4637 21.5162C28.4071 22.0718 29.347 22.6331 30.2878 23.1922C30.3125 23.2067 30.3389 23.2177 30.3759 23.2362L31.3796 21.967C31.5284 21.7786 31.6789 21.5915 31.8251 21.4009C31.87 21.339 31.93 21.2896 31.9993 21.2574C32.0686 21.2252 32.1451 21.2113 32.2213 21.2169C32.7416 21.2235 33.2624 21.2248 33.7828 21.2169C33.8644 21.2129 33.9457 21.2301 34.0187 21.2669C34.0917 21.3037 34.1539 21.3588 34.1992 21.4269C34.65 22.0251 35.1052 22.6208 35.5697 23.2318C35.8087 23.1024 36.0434 22.9747 36.2785 22.8479C36.3502 22.8087 36.4215 22.7674 36.4959 22.7339C36.7042 22.6397 36.9036 22.6899 37.0044 22.8633C37.1092 23.0421 37.0607 23.2622 36.8604 23.3802C36.4942 23.5959 36.1173 23.794 35.7449 23.9996H35.4636C35.1849 23.9194 34.9974 23.7301 34.8301 23.5021C34.4841 23.0302 34.1218 22.5701 33.7735 22.1008C33.7483 22.063 33.713 22.0329 33.6717 22.0139C33.6303 21.9948 33.5845 21.9876 33.5393 21.993C33.1828 22.0003 32.826 22.0003 32.4691 21.993C32.4239 21.988 32.3782 21.9955 32.337 22.0149C32.2958 22.0342 32.2608 22.0646 32.2358 22.1026C31.8858 22.5719 31.5235 23.0319 31.1766 23.503C31.0093 23.731 30.8205 23.919 30.5427 24H30.2614C30.1379 23.9497 30.017 23.8933 29.8991 23.831C28.962 23.278 28.0262 22.7229 27.0917 22.1656C26.6194 21.8843 26.4987 21.5334 26.6955 21.021C26.9156 20.4544 27.1287 19.8852 27.3607 19.3234C27.4281 19.1606 27.4219 19.0426 27.3246 18.8929C27.1505 18.622 26.9921 18.3414 26.85 18.0525C26.8258 17.9949 26.7858 17.9452 26.7346 17.9093C26.6835 17.8733 26.6233 17.8525 26.5608 17.8491C26.0044 17.7729 25.4514 17.6686 24.8932 17.6123C24.4407 17.5682 24.136 17.3706 24 16.9317V13.0647Z" fill="#5DA5E1"/>
<path d="M39.7864 23.9975C39.6807 23.9689 39.5742 23.9429 39.4694 23.9116C39.1124 23.8055 38.8209 23.5977 38.5599 23.3362C37.0417 21.8145 35.5226 20.2932 34.0026 18.7724C33.9 18.6694 33.8085 18.6355 33.665 18.6658C32.0321 19.0097 30.2567 18.0843 29.5884 16.5527C29.3519 16.0217 29.2385 15.4442 29.2565 14.8631C29.2697 14.4669 29.5647 14.2988 29.9054 14.5017C30.5142 14.8645 31.1257 15.2268 31.7253 15.5988C31.8574 15.6793 31.9454 15.6745 32.0682 15.5917C32.3014 15.4386 32.5011 15.24 32.6555 15.0077C32.8099 14.7755 32.9158 14.5144 32.9668 14.2402C32.991 14.1183 32.9593 14.0536 32.8505 13.9897C32.1647 13.5856 31.4836 13.174 30.8013 12.7646C30.4319 12.5444 30.4143 12.2645 30.7616 12.0135C31.8455 11.2308 33.0152 11.0098 34.2751 11.5249C35.0887 11.8577 35.6786 12.463 36.1593 13.1823C36.5357 13.7454 36.7615 14.3604 36.7444 15.045C36.7281 15.6921 36.9883 16.2085 37.4373 16.6549C38.5754 17.7866 39.7108 18.9212 40.8433 20.0587C41.0547 20.27 41.273 20.4748 41.4724 20.6966C41.9849 21.2663 42.1372 21.9293 41.892 22.6534C41.6468 23.3776 41.1172 23.8183 40.3573 23.9658C40.3301 23.9737 40.3037 23.9843 40.2785 23.9975H39.7864ZM30.0335 15.453C30.0775 15.6357 30.1022 15.7735 30.1462 15.9052C30.1949 16.0561 30.2547 16.2032 30.3249 16.3454C30.9936 17.648 32.4376 18.256 33.7187 17.8836C33.9828 17.807 34.1717 17.8809 34.3614 18.0715C35.923 19.6423 37.4885 21.2091 39.0578 22.7719C39.1277 22.8429 39.2012 22.9103 39.2779 22.9739C39.9233 23.5022 40.9345 23.2095 41.1836 22.4131C41.3426 21.9051 41.1991 21.4732 40.8266 21.1016C39.5191 19.7989 38.2131 18.4943 36.9086 17.188C36.408 16.6888 36.0721 16.1081 36.0065 15.3919C35.9858 15.159 36.0013 14.9221 35.9718 14.691C35.9009 14.1319 35.6231 13.6657 35.274 13.2382C34.6167 12.4348 33.8142 11.925 32.7286 12.0144C32.3319 12.0446 31.9473 12.1651 31.6042 12.3666C31.6778 12.4106 31.7306 12.4472 31.7847 12.4797C32.357 12.8236 32.9293 13.1691 33.5016 13.509C33.6777 13.6124 33.7548 13.7489 33.7438 13.9554C33.6843 15.056 33.1556 15.8519 32.1977 16.3815C31.9665 16.5092 31.7706 16.51 31.5444 16.3656C31.0623 16.0588 30.5657 15.7727 30.0335 15.453Z" fill="#5DA5E1"/>
<path d="M57.0143 9.88V16.968C57.0143 17.8107 57.233 18.4453 57.6703 18.872C58.1183 19.2987 58.737 19.512 59.5263 19.512C60.3263 19.512 60.945 19.2987 61.3823 18.872C61.8303 18.4453 62.0543 17.8107 62.0543 16.968V9.88H63.8783V16.936C63.8783 17.8427 63.681 18.6107 63.2863 19.24C62.8917 19.8693 62.3637 20.3387 61.7023 20.648C61.041 20.9573 60.3103 21.112 59.5103 21.112C58.7103 21.112 57.9797 20.9573 57.3183 20.648C56.6677 20.3387 56.1503 19.8693 55.7663 19.24C55.3823 18.6107 55.1903 17.8427 55.1903 16.936V9.88H57.0143ZM69.6612 13.672V18.552C69.6612 18.8827 69.7359 19.1227 69.8852 19.272C70.0452 19.4107 70.3119 19.48 70.6852 19.48H71.8052V21H70.3652C69.5439 21 68.9146 20.808 68.4772 20.424C68.0399 20.04 67.8212 19.416 67.8212 18.552V13.672H66.7812V12.184H67.8212V9.992H69.6612V12.184H71.8052V13.672H69.6612ZM75.6943 11.016C75.3637 11.016 75.0863 10.904 74.8623 10.68C74.6383 10.456 74.5263 10.1787 74.5263 9.848C74.5263 9.51733 74.6383 9.24 74.8623 9.016C75.0863 8.792 75.3637 8.68 75.6943 8.68C76.0143 8.68 76.2863 8.792 76.5103 9.016C76.7343 9.24 76.8463 9.51733 76.8463 9.848C76.8463 10.1787 76.7343 10.456 76.5103 10.68C76.2863 10.904 76.0143 11.016 75.6943 11.016ZM76.5903 12.184V21H74.7663V12.184H76.5903ZM82.0891 9.16V21H80.2651V9.16H82.0891ZM86.6918 11.016C86.3612 11.016 86.0838 10.904 85.8598 10.68C85.6358 10.456 85.5238 10.1787 85.5238 9.848C85.5238 9.51733 85.6358 9.24 85.8598 9.016C86.0838 8.792 86.3612 8.68 86.6918 8.68C87.0118 8.68 87.2838 8.792 87.5078 9.016C87.7318 9.24 87.8438 9.51733 87.8438 9.848C87.8438 10.1787 87.7318 10.456 87.5078 10.68C87.2838 10.904 87.0118 11.016 86.6918 11.016ZM87.5878 12.184V21H85.7638V12.184H87.5878ZM93.3906 13.672V18.552C93.3906 18.8827 93.4653 19.1227 93.6146 19.272C93.7746 19.4107 94.0413 19.48 94.4146 19.48H95.5346V21H94.0946C93.2733 21 92.6439 20.808 92.2066 20.424C91.7693 20.04 91.5506 19.416 91.5506 18.552V13.672H90.5106V12.184H91.5506V9.992H93.3906V12.184H95.5346V13.672H93.3906ZM106.432 12.184L101.024 25.144H99.1357L100.928 20.856L97.4557 12.184H99.4877L101.968 18.904L104.544 12.184H106.432Z" fill="#5DA5E1"/>
</svg>
