<svg width="130" height="29" viewBox="0 0 130 29" fill="none" xmlns="http://www.w3.org/2000/svg">
<path d="M23 13.0647C23.1378 12.6245 23.4451 12.4316 23.8963 12.3845C24.455 12.3269 25.0083 12.2225 25.5652 12.1472C25.7079 12.1279 25.7818 12.0667 25.8483 11.9368C26.0077 11.6251 26.1886 11.3236 26.3704 11.0238C26.397 10.987 26.4132 10.9437 26.4175 10.8985C26.4217 10.8533 26.4138 10.8078 26.3946 10.7667C26.1582 10.1746 25.9275 9.58027 25.6964 8.98596C25.5009 8.48277 25.6273 8.10902 26.0887 7.83475C27.0243 7.27713 27.9604 6.72127 28.8969 6.16716C29.3719 5.88586 29.7602 5.96069 30.0947 6.39828C30.4755 6.89618 30.8563 7.39408 31.231 7.89507C31.2561 7.93309 31.2912 7.96344 31.3324 7.98278C31.3737 8.00213 31.4195 8.0097 31.4647 8.00468C31.8213 7.99646 32.1779 7.99646 32.5345 8.00468C32.5794 8.00989 32.6249 8.00257 32.6659 7.98353C32.707 7.9645 32.7419 7.93449 32.7669 7.89683C33.1385 7.39981 33.5153 6.90719 33.8935 6.41369C34.2457 5.95497 34.6212 5.88145 35.1156 6.17465C36.0418 6.72464 36.9676 7.27493 37.893 7.82551C38.3882 8.12046 38.5071 8.46076 38.3002 8.99344C38.0735 9.57674 37.8498 10.1609 37.6165 10.7416C37.5926 10.7898 37.5823 10.8436 37.5865 10.8973C37.5908 10.9509 37.6095 11.0024 37.6407 11.0462C37.8265 11.3504 38.0017 11.6626 38.169 11.9769C38.1876 12.0214 38.2179 12.06 38.2566 12.0887C38.2954 12.1173 38.3412 12.135 38.3891 12.1398C38.9808 12.2221 39.5703 12.3159 40.1619 12.3955C40.7382 12.4735 40.9984 12.7618 40.9984 13.342C40.9984 14.4494 40.9984 15.5567 40.9984 16.664C40.9984 17.2315 40.7342 17.5255 40.169 17.6004C39.7424 17.6572 39.3145 17.7254 38.8861 17.7857C38.7233 17.8086 38.578 17.7677 38.4899 17.6219C38.4107 17.4938 38.3922 17.3393 38.4943 17.2257C38.5808 17.1338 38.6932 17.0704 38.8166 17.0439C39.2308 16.9682 39.6491 16.9119 40.0668 16.8599C40.2165 16.8414 40.2601 16.7776 40.2592 16.6323C40.2548 15.5429 40.2548 14.4533 40.2592 13.3636C40.2592 13.2016 40.1971 13.1532 40.0497 13.1329C39.377 13.0414 38.7061 12.9366 38.0334 12.8446C37.8133 12.8146 37.687 12.7041 37.5866 12.5047C37.3792 12.0931 37.1556 11.6876 36.9091 11.2985C36.777 11.0894 36.7405 10.9115 36.836 10.6782C37.1028 10.0293 37.3493 9.37204 37.6055 8.7183C37.6385 8.63421 37.6764 8.56113 37.5654 8.49818C36.593 7.92368 35.6227 7.34654 34.6406 6.76323C34.6036 6.80374 34.5679 6.83983 34.5367 6.87901C34.1004 7.43062 33.6597 7.97959 33.2327 8.53648C33.0887 8.7249 32.9245 8.78917 32.6912 8.77905C32.2307 8.76012 31.7667 8.76144 31.3076 8.77905C31.0795 8.78785 30.9197 8.7271 30.7819 8.54132C30.3417 7.94877 29.8922 7.36547 29.4397 6.77072C29.3763 6.8055 29.3208 6.83499 29.2667 6.86669C28.3541 7.39496 27.445 7.92588 26.5276 8.44447C26.3647 8.53648 26.3546 8.62056 26.4179 8.77861C26.6746 9.41298 26.9136 10.0553 27.1743 10.687C27.2676 10.9137 27.2302 11.0876 27.1016 11.291C26.8551 11.6814 26.6284 12.084 26.4223 12.4972C26.3193 12.7037 26.1908 12.816 25.9636 12.8468C25.2967 12.9375 24.6315 13.044 23.9645 13.1334C23.8056 13.1545 23.7444 13.2064 23.7466 13.3742C23.7537 14.458 23.7537 15.5419 23.7466 16.6257C23.7466 16.7811 23.7951 16.8414 23.9491 16.8621C24.6222 16.9532 25.2932 17.0589 25.9658 17.1505C26.193 17.1817 26.318 17.2971 26.4228 17.5026C26.6354 17.9248 26.8727 18.3356 27.121 18.7375C27.2337 18.9197 27.2636 19.08 27.1835 19.2799C26.9154 19.9472 26.6596 20.6199 26.3942 21.2882C26.3528 21.3925 26.3572 21.4533 26.4637 21.5162C27.4071 22.0718 28.347 22.6331 29.2878 23.1922C29.3125 23.2067 29.3389 23.2177 29.3759 23.2362L30.3796 21.967C30.5284 21.7786 30.6789 21.5915 30.8251 21.4009C30.87 21.339 30.93 21.2896 30.9993 21.2574C31.0686 21.2252 31.1451 21.2113 31.2213 21.2169C31.7416 21.2235 32.2624 21.2248 32.7828 21.2169C32.8644 21.2129 32.9457 21.2301 33.0187 21.2669C33.0917 21.3037 33.1539 21.3588 33.1992 21.4269C33.65 22.0251 34.1052 22.6208 34.5697 23.2318C34.8087 23.1024 35.0434 22.9747 35.2785 22.8479C35.3502 22.8087 35.4215 22.7674 35.4959 22.7339C35.7042 22.6397 35.9036 22.6899 36.0044 22.8633C36.1092 23.0421 36.0607 23.2622 35.8604 23.3802C35.4942 23.5959 35.1173 23.794 34.7449 23.9996H34.4636C34.1849 23.9194 33.9974 23.7301 33.8301 23.5021C33.4841 23.0302 33.1218 22.5701 32.7735 22.1008C32.7483 22.063 32.713 22.0329 32.6717 22.0139C32.6303 21.9948 32.5845 21.9876 32.5393 21.993C32.1828 22.0003 31.826 22.0003 31.4691 21.993C31.4239 21.988 31.3782 21.9955 31.337 22.0149C31.2958 22.0342 31.2608 22.0646 31.2358 22.1026C30.8858 22.5719 30.5235 23.0319 30.1766 23.503C30.0093 23.731 29.8205 23.919 29.5427 24H29.2614C29.1379 23.9497 29.017 23.8933 28.8991 23.831C27.962 23.278 27.0262 22.7229 26.0917 22.1656C25.6194 21.8843 25.4987 21.5334 25.6955 21.021C25.9156 20.4544 26.1287 19.8852 26.3607 19.3234C26.4281 19.1606 26.4219 19.0426 26.3246 18.8929C26.1505 18.622 25.9921 18.3414 25.85 18.0525C25.8258 17.9949 25.7858 17.9452 25.7346 17.9093C25.6835 17.8733 25.6233 17.8525 25.5608 17.8491C25.0044 17.7729 24.4514 17.6686 23.8932 17.6123C23.4407 17.5682 23.136 17.3706 23 16.9317V13.0647Z" fill="#F1F1F1"/>
<path d="M38.7864 23.9975C38.6807 23.9689 38.5742 23.9429 38.4694 23.9116C38.1124 23.8055 37.8209 23.5977 37.5599 23.3362C36.0417 21.8145 34.5226 20.2932 33.0026 18.7724C32.9 18.6694 32.8085 18.6355 32.665 18.6658C31.0321 19.0097 29.2567 18.0843 28.5884 16.5527C28.3519 16.0217 28.2385 15.4442 28.2565 14.8631C28.2697 14.4669 28.5647 14.2988 28.9054 14.5017C29.5142 14.8645 30.1257 15.2268 30.7253 15.5988C30.8574 15.6793 30.9454 15.6745 31.0682 15.5917C31.3014 15.4386 31.5011 15.24 31.6555 15.0077C31.8099 14.7755 31.9158 14.5144 31.9668 14.2402C31.991 14.1183 31.9593 14.0536 31.8505 13.9897C31.1647 13.5856 30.4836 13.174 29.8013 12.7646C29.4319 12.5444 29.4143 12.2645 29.7616 12.0135C30.8455 11.2308 32.0152 11.0098 33.2751 11.5249C34.0887 11.8577 34.6786 12.463 35.1593 13.1823C35.5357 13.7454 35.7615 14.3604 35.7444 15.045C35.7281 15.6921 35.9883 16.2085 36.4373 16.6549C37.5754 17.7866 38.7108 18.9212 39.8433 20.0587C40.0547 20.27 40.273 20.4748 40.4724 20.6966C40.9849 21.2663 41.1372 21.9293 40.892 22.6534C40.6468 23.3776 40.1172 23.8183 39.3573 23.9658C39.3301 23.9737 39.3037 23.9843 39.2785 23.9975H38.7864ZM29.0335 15.453C29.0775 15.6357 29.1022 15.7735 29.1462 15.9052C29.1949 16.0561 29.2547 16.2032 29.3249 16.3454C29.9936 17.648 31.4376 18.256 32.7187 17.8836C32.9828 17.807 33.1717 17.8809 33.3614 18.0715C34.923 19.6423 36.4885 21.2091 38.0578 22.7719C38.1277 22.8429 38.2012 22.9103 38.2779 22.9739C38.9233 23.5022 39.9345 23.2095 40.1836 22.4131C40.3426 21.9051 40.1991 21.4732 39.8266 21.1016C38.5191 19.7989 37.2131 18.4943 35.9086 17.188C35.408 16.6888 35.0721 16.1081 35.0065 15.3919C34.9858 15.159 35.0013 14.9221 34.9718 14.691C34.9009 14.1319 34.6231 13.6657 34.274 13.2382C33.6167 12.4348 32.8142 11.925 31.7286 12.0144C31.3319 12.0446 30.9473 12.1651 30.6042 12.3666C30.6778 12.4106 30.7306 12.4472 30.7847 12.4797C31.357 12.8236 31.9293 13.1691 32.5016 13.509C32.6777 13.6124 32.7548 13.7489 32.7438 13.9554C32.6843 15.056 32.1556 15.8519 31.1977 16.3815C30.9665 16.5092 30.7706 16.51 30.5444 16.3656C30.0623 16.0588 29.5657 15.7727 29.0335 15.453Z" fill="#F1F1F1"/>
<path d="M56.0143 9.88V16.968C56.0143 17.8107 56.233 18.4453 56.6703 18.872C57.1183 19.2987 57.737 19.512 58.5263 19.512C59.3263 19.512 59.945 19.2987 60.3823 18.872C60.8303 18.4453 61.0543 17.8107 61.0543 16.968V9.88H62.8783V16.936C62.8783 17.8427 62.681 18.6107 62.2863 19.24C61.8917 19.8693 61.3637 20.3387 60.7023 20.648C60.041 20.9573 59.3103 21.112 58.5103 21.112C57.7103 21.112 56.9797 20.9573 56.3183 20.648C55.6677 20.3387 55.1503 19.8693 54.7663 19.24C54.3823 18.6107 54.1903 17.8427 54.1903 16.936V9.88H56.0143ZM68.6612 13.672V18.552C68.6612 18.8827 68.7359 19.1227 68.8852 19.272C69.0452 19.4107 69.3119 19.48 69.6852 19.48H70.8052V21H69.3652C68.5439 21 67.9146 20.808 67.4772 20.424C67.0399 20.04 66.8212 19.416 66.8212 18.552V13.672H65.7812V12.184H66.8212V9.992H68.6612V12.184H70.8052V13.672H68.6612ZM74.6943 11.016C74.3637 11.016 74.0863 10.904 73.8623 10.68C73.6383 10.456 73.5263 10.1787 73.5263 9.848C73.5263 9.51733 73.6383 9.24 73.8623 9.016C74.0863 8.792 74.3637 8.68 74.6943 8.68C75.0143 8.68 75.2863 8.792 75.5103 9.016C75.7343 9.24 75.8463 9.51733 75.8463 9.848C75.8463 10.1787 75.7343 10.456 75.5103 10.68C75.2863 10.904 75.0143 11.016 74.6943 11.016ZM75.5903 12.184V21H73.7663V12.184H75.5903ZM81.0891 9.16V21H79.2651V9.16H81.0891ZM85.6918 11.016C85.3612 11.016 85.0838 10.904 84.8598 10.68C84.6358 10.456 84.5238 10.1787 84.5238 9.848C84.5238 9.51733 84.6358 9.24 84.8598 9.016C85.0838 8.792 85.3612 8.68 85.6918 8.68C86.0118 8.68 86.2838 8.792 86.5078 9.016C86.7318 9.24 86.8438 9.51733 86.8438 9.848C86.8438 10.1787 86.7318 10.456 86.5078 10.68C86.2838 10.904 86.0118 11.016 85.6918 11.016ZM86.5878 12.184V21H84.7638V12.184H86.5878ZM92.3906 13.672V18.552C92.3906 18.8827 92.4653 19.1227 92.6146 19.272C92.7746 19.4107 93.0413 19.48 93.4146 19.48H94.5346V21H93.0946C92.2733 21 91.6439 20.808 91.2066 20.424C90.7693 20.04 90.5506 19.416 90.5506 18.552V13.672H89.5106V12.184H90.5506V9.992H92.3906V12.184H94.5346V13.672H92.3906ZM105.432 12.184L100.024 25.144H98.1357L99.9277 20.856L96.4557 12.184H98.4877L100.968 18.904L103.544 12.184H105.432Z" fill="#F1F1F1"/>
</svg>
