<svg width="249" height="48" viewBox="0 0 249 48" fill="none" xmlns="http://www.w3.org/2000/svg">
<rect width="5" height="48" rx="2.5" fill="#004B64"/>
<rect x="12" width="236.03" height="48" rx="6" fill="#004B64"/>
<g clip-path="url(#clip0_548_216)">
<path d="M47.9913 24.2467C47.9809 25.4373 48.0225 26.8747 47.963 28.3106C47.9095 29.5845 47.7118 30.8331 47.2124 32.0163C46.4231 33.8877 44.9857 35.0026 43.0637 35.5451C41.8315 35.8929 40.568 35.9896 39.2971 35.9866C36.7717 35.9806 34.2462 36.0297 31.7222 35.9583C30.4305 35.9212 29.1656 35.7101 27.966 35.2003C26.105 34.411 24.9961 32.978 24.455 31.0665C24.1057 29.8342 24.0091 28.5708 24.0121 27.2984C24.0165 24.767 23.9675 22.2326 24.0388 19.6997C24.0745 18.4169 24.2886 17.1609 24.7939 15.9687C25.558 14.1672 26.927 13.0583 28.7761 12.5009C30.0544 12.1159 31.3685 12.0074 32.6929 12.0104C35.2258 12.0163 37.7601 11.9687 40.293 12.0371C41.5312 12.0713 42.7456 12.2735 43.9036 12.7387C45.827 13.5117 46.9835 14.955 47.5409 16.9171C47.9006 18.1835 47.9868 19.4812 47.9898 20.7893C47.9928 21.8595 47.9913 22.9312 47.9913 24.2467ZM46.2952 24.0148C46.2967 22.683 46.3057 21.3496 46.2923 20.0178C46.2834 19.1824 46.1838 18.353 45.9801 17.5399C45.5327 15.7562 44.4506 14.5789 42.6654 14.075C41.8151 13.8342 40.9441 13.7168 40.0656 13.7108C37.5312 13.6945 34.9968 13.7034 32.4625 13.7004C31.4844 13.699 30.5182 13.7822 29.5654 14.0156C27.8575 14.4347 26.6773 15.4351 26.1362 17.1356C25.8478 18.0453 25.717 18.9847 25.7111 19.9331C25.6947 22.6161 25.6977 25.2976 25.7081 27.9806C25.7111 28.816 25.8151 29.6454 26.0203 30.4585C26.4454 32.1412 27.4309 33.3125 29.112 33.8521C30.0307 34.1464 30.9775 34.2831 31.9348 34.2891C34.6431 34.3069 37.3514 34.3039 40.0596 34.2906C40.8683 34.2861 41.6709 34.1791 42.4588 33.9799C44.2856 33.5191 45.4643 32.4013 45.9489 30.5641C46.1659 29.7436 46.2774 28.9082 46.2893 28.0654C46.3101 26.7142 46.2952 25.3645 46.2952 24.0148Z" fill="white"/>
<path d="M40.8266 18.1523C41.0049 18.2207 41.1833 18.2846 41.3602 18.3559C42.8035 18.9342 43.7727 20.3195 43.7192 21.9353C43.6523 23.9212 42.1361 25.3258 40.4445 25.5265C38.0648 25.8089 36.0224 23.829 36.2647 21.4492C36.4267 19.8602 37.5014 18.6399 39.1439 18.1805C39.7028 18.0438 40.2647 18.0988 40.8266 18.1523ZM39.9927 19.7681C38.8451 19.7681 37.9325 20.6718 37.9295 21.8104C37.928 22.9505 38.8437 23.8885 39.9644 23.8914C41.103 23.8944 42.0529 22.955 42.0544 21.8268C42.0558 20.703 41.1209 19.7681 39.9927 19.7681Z" fill="white"/>
<path d="M31.1794 29.8164C29.6722 29.4002 28.709 28.4503 28.3582 26.9134C27.8885 24.8457 29.424 22.7395 31.5287 22.4689C33.3586 22.2341 35.1809 23.4247 35.6328 25.253C36.1382 27.2984 34.9461 29.2575 32.8561 29.8149C32.2972 29.9338 31.7383 29.9383 31.1794 29.8164ZM34.0691 26.1672C34.0706 25.0315 33.149 24.1085 32.0148 24.107C30.8955 24.1055 29.9472 25.0464 29.9442 26.1642C29.9412 27.2894 30.8747 28.2304 31.9985 28.2318C33.1564 28.2333 34.0676 27.3236 34.0691 26.1672Z" fill="white"/>
<path d="M32.8608 18.9564C32.8608 19.6699 32.8667 20.3834 32.8578 21.0969C32.8533 21.5086 32.5858 21.8252 32.1889 21.9174C31.8277 22.0006 31.4457 21.8223 31.2673 21.4893C31.1915 21.3466 31.1751 21.192 31.1751 21.0345C31.1751 19.6327 31.1841 18.231 31.1707 16.8308C31.1662 16.2021 31.6389 15.9062 32.0194 15.9062C32.5055 15.9062 32.8578 16.3002 32.8593 16.8412C32.8623 17.5473 32.8608 18.2518 32.8608 18.9564Z" fill="white"/>
<path d="M40.825 29.0894C40.825 29.7776 40.8131 30.4644 40.828 31.1526C40.8429 31.7813 40.3791 32.0831 39.9926 32.092C39.5036 32.1024 39.1409 31.6966 39.1409 31.1422C39.1394 29.7405 39.1379 28.3388 39.1424 26.9385C39.1439 26.4748 39.4293 26.1418 39.8737 26.063C40.2364 25.9991 40.6125 26.225 40.7671 26.5922C40.8265 26.7334 40.825 26.8806 40.825 27.0277C40.825 27.7145 40.825 28.4027 40.825 29.0894Z" fill="white"/>
<path d="M40.8266 18.1522C40.2647 18.0987 39.7028 18.0437 39.1439 18.1805C39.1424 17.7108 39.135 17.2411 39.1409 16.7714C39.1469 16.2883 39.5096 15.9166 39.9689 15.9048C40.4237 15.8944 40.8043 16.2585 40.8191 16.7416C40.834 17.2128 40.8251 17.6825 40.8266 18.1522Z" fill="white"/>
<path d="M31.1795 29.8164C31.7384 29.9383 32.2973 29.9353 32.8562 29.8149C32.8577 30.2757 32.8621 30.738 32.8592 31.1988C32.8547 31.7012 32.4979 32.0818 32.0282 32.0922C31.566 32.1026 31.1869 31.7265 31.1765 31.2256C31.1691 30.7559 31.178 30.2861 31.1795 29.8164Z" fill="white"/>
</g>
<path d="M61.2276 29.692C60.4596 29.692 59.7609 29.5427 59.1316 29.244C58.5129 28.9347 58.0169 28.46 57.6436 27.82C57.2703 27.18 57.0836 26.364 57.0836 25.372V18.3H58.4276V25.388C58.4276 26.476 58.6889 27.2653 59.2116 27.756C59.7343 28.2467 60.4169 28.492 61.2596 28.492C62.1023 28.492 62.7796 28.2467 63.2916 27.756C63.8036 27.2653 64.0596 26.476 64.0596 25.388V18.3H65.4036V25.372C65.4036 26.364 65.2169 27.18 64.8436 27.82C64.4703 28.46 63.9689 28.9347 63.3396 29.244C62.7103 29.5427 62.0063 29.692 61.2276 29.692ZM70.7356 29.5C70.0103 29.5 69.4396 29.324 69.0236 28.972C68.6076 28.62 68.3996 27.9853 68.3996 27.068V22.7H67.0236V21.564H68.3996L68.5756 19.66H69.7436V21.564H72.0796V22.7H69.7436V27.068C69.7436 27.5693 69.8449 27.9107 70.0476 28.092C70.2503 28.2627 70.6076 28.348 71.1196 28.348H71.9516V29.5H70.7356ZM74.6031 19.804C74.3364 19.804 74.1124 19.7187 73.9311 19.548C73.7604 19.3667 73.6751 19.1427 73.6751 18.876C73.6751 18.62 73.7604 18.4067 73.9311 18.236C74.1124 18.0653 74.3364 17.98 74.6031 17.98C74.8591 17.98 75.0778 18.0653 75.2591 18.236C75.4404 18.4067 75.5311 18.62 75.5311 18.876C75.5311 19.1427 75.4404 19.3667 75.2591 19.548C75.0778 19.7187 74.8591 19.804 74.6031 19.804ZM73.9311 29.5V21.564H75.2751V29.5H73.9311ZM77.6152 29.5V17.98H78.9592V29.5H77.6152ZM81.9781 19.804C81.7114 19.804 81.4874 19.7187 81.3061 19.548C81.1354 19.3667 81.0501 19.1427 81.0501 18.876C81.0501 18.62 81.1354 18.4067 81.3061 18.236C81.4874 18.0653 81.7114 17.98 81.9781 17.98C82.2341 17.98 82.4528 18.0653 82.6341 18.236C82.8154 18.4067 82.9061 18.62 82.9061 18.876C82.9061 19.1427 82.8154 19.3667 82.6341 19.548C82.4528 19.7187 82.2341 19.804 81.9781 19.804ZM81.3061 29.5V21.564H82.6501V29.5H81.3061ZM88.1262 29.5C87.4009 29.5 86.8302 29.324 86.4142 28.972C85.9982 28.62 85.7902 27.9853 85.7902 27.068V22.7H84.4142V21.564H85.7902L85.9662 19.66H87.1342V21.564H89.4702V22.7H87.1342V27.068C87.1342 27.5693 87.2356 27.9107 87.4382 28.092C87.6409 28.2627 87.9982 28.348 88.5102 28.348H89.3422V29.5H88.1262ZM92.0417 33.02L94.0097 28.732H93.5457L90.3937 21.564H91.8497L94.4737 27.74L97.2577 21.564H98.6497L93.4497 33.02H92.0417Z" fill="white"/>
<path d="M220.53 17L227.53 24L220.53 31" stroke="white" stroke-width="1.5" stroke-linecap="round" stroke-linejoin="round"/>
<defs>
<clipPath id="clip0_548_216">
<rect width="23.9955" height="24" fill="white" transform="translate(24 12)"/>
</clipPath>
</defs>
</svg>
