<svg width="100" height="156" viewBox="0 0 100 156" fill="none" xmlns="http://www.w3.org/2000/svg">
    <rect width="100" height="156" rx="19" fill="#F9FBFF"/>
    <path d="M33.8964 109.343L31.1384 118.513C31.0917 118.653 31.0124 118.769 30.9004 118.863C30.7884 118.956 30.653 119.003 30.4944 119.003H28.8424C28.6837 119.003 28.5484 118.956 28.4364 118.863C28.3244 118.769 28.2497 118.653 28.2124 118.513L25.4544 109.343H27.2604L29.2344 116.609C29.281 116.786 29.3277 116.963 29.3744 117.141C29.421 117.318 29.4584 117.495 29.4864 117.673H29.8504C29.897 117.495 29.939 117.318 29.9764 117.141C30.023 116.954 30.0697 116.772 30.1164 116.595L32.0904 109.343H33.8964ZM37.5485 111.961C38.6592 111.961 39.4572 112.157 39.9425 112.549C40.4278 112.931 40.6752 113.501 40.6845 114.257C40.6938 114.882 40.5445 115.358 40.2365 115.685C39.9378 116.002 39.4385 116.161 38.7385 116.161H34.8185V115.111H38.2765C38.5938 115.111 38.7945 115.027 38.8785 114.859C38.9718 114.691 39.0185 114.485 39.0185 114.243C39.0092 113.86 38.8972 113.594 38.6825 113.445C38.4772 113.295 38.1225 113.221 37.6185 113.221C37.1798 113.221 36.8392 113.281 36.5965 113.403C36.3538 113.524 36.1812 113.743 36.0785 114.061C35.9852 114.378 35.9385 114.835 35.9385 115.433C35.9385 116.067 35.9992 116.557 36.1205 116.903C36.2418 117.248 36.4425 117.486 36.7225 117.617C37.0025 117.738 37.3758 117.799 37.8425 117.799C38.1878 117.799 38.5845 117.785 39.0325 117.757C39.4898 117.729 39.9285 117.691 40.3485 117.645L40.5165 118.723C40.2645 118.825 39.9752 118.909 39.6485 118.975C39.3218 119.04 38.9812 119.087 38.6265 119.115C38.2812 119.152 37.9545 119.171 37.6465 119.171C36.8065 119.171 36.1298 119.049 35.6165 118.807C35.1125 118.555 34.7438 118.163 34.5105 117.631C34.2865 117.099 34.1745 116.413 34.1745 115.573C34.1745 114.667 34.2865 113.953 34.5105 113.431C34.7438 112.899 35.1078 112.521 35.6025 112.297C36.1065 112.073 36.7552 111.961 37.5485 111.961ZM43.5231 112.129L43.7471 113.473L43.9011 113.669V119.003H42.2071V112.129H43.5231ZM46.8831 111.961L46.7151 113.529H46.2251C45.8611 113.529 45.4925 113.589 45.1191 113.711C44.7458 113.832 44.2791 114.014 43.7191 114.257L43.6071 113.263C44.0925 112.852 44.5871 112.535 45.0911 112.311C45.5951 112.077 46.0805 111.961 46.5471 111.961H46.8831ZM50.5093 111.961C50.8267 111.961 51.1673 111.97 51.5313 111.989C51.9047 112.007 52.2687 112.035 52.6233 112.073C52.978 112.101 53.2953 112.143 53.5753 112.199L53.4633 113.305C53.0153 113.295 52.5673 113.286 52.1193 113.277C51.6807 113.258 51.2467 113.249 50.8173 113.249C50.4347 113.249 50.1313 113.258 49.9073 113.277C49.6927 113.295 49.5387 113.351 49.4453 113.445C49.3613 113.538 49.3193 113.697 49.3193 113.921C49.3193 114.191 49.394 114.373 49.5433 114.467C49.6927 114.551 49.9353 114.635 50.2713 114.719L52.1473 115.153C52.7073 115.293 53.1227 115.507 53.3933 115.797C53.664 116.077 53.7993 116.511 53.7993 117.099C53.7993 117.668 53.692 118.102 53.4773 118.401C53.272 118.69 52.9407 118.891 52.4833 119.003C52.0353 119.105 51.4613 119.157 50.7613 119.157C50.4907 119.157 50.0893 119.143 49.5573 119.115C49.0253 119.096 48.442 119.035 47.8073 118.933L47.9193 117.827C48.106 117.827 48.3253 117.831 48.5773 117.841C48.8387 117.85 49.114 117.855 49.4033 117.855C49.702 117.855 50.0053 117.855 50.3133 117.855C50.808 117.855 51.186 117.841 51.4473 117.813C51.718 117.775 51.9047 117.705 52.0073 117.603C52.11 117.491 52.1613 117.332 52.1613 117.127C52.1613 116.865 52.0727 116.693 51.8953 116.609C51.7273 116.515 51.4753 116.427 51.1393 116.343L49.3053 115.895C48.8853 115.783 48.5587 115.643 48.3253 115.475C48.092 115.297 47.924 115.083 47.8213 114.831C47.7187 114.569 47.6673 114.252 47.6673 113.879C47.6673 113.375 47.7607 112.983 47.9473 112.703C48.1433 112.423 48.4467 112.227 48.8573 112.115C49.2773 112.003 49.828 111.951 50.5093 111.961ZM57.0681 112.129V119.003H55.3881V112.129H57.0681ZM56.6061 109.147C56.9421 109.147 57.1101 109.315 57.1101 109.651V110.435C57.1101 110.771 56.9421 110.939 56.6061 110.939H55.8501C55.5141 110.939 55.3461 110.771 55.3461 110.435V109.651C55.3461 109.315 55.5141 109.147 55.8501 109.147H56.6061ZM62.1315 111.961C62.9715 111.961 63.6389 112.077 64.1335 112.311C64.6375 112.544 64.9969 112.927 65.2115 113.459C65.4355 113.991 65.5475 114.695 65.5475 115.573C65.5475 116.45 65.4355 117.155 65.2115 117.687C64.9969 118.209 64.6375 118.592 64.1335 118.835C63.6389 119.068 62.9715 119.185 62.1315 119.185C61.3102 119.185 60.6475 119.068 60.1435 118.835C59.6489 118.592 59.2895 118.209 59.0655 117.687C58.8415 117.155 58.7295 116.45 58.7295 115.573C58.7295 114.695 58.8415 113.991 59.0655 113.459C59.2895 112.927 59.6489 112.544 60.1435 112.311C60.6475 112.077 61.3102 111.961 62.1315 111.961ZM62.1315 113.249C61.7209 113.249 61.3942 113.319 61.1515 113.459C60.9182 113.589 60.7502 113.823 60.6475 114.159C60.5449 114.495 60.4935 114.966 60.4935 115.573C60.4935 116.179 60.5449 116.651 60.6475 116.987C60.7502 117.323 60.9182 117.556 61.1515 117.687C61.3942 117.817 61.7209 117.883 62.1315 117.883C62.5515 117.883 62.8829 117.817 63.1255 117.687C63.3682 117.556 63.5362 117.323 63.6295 116.987C63.7322 116.651 63.7835 116.179 63.7835 115.573C63.7835 114.966 63.7322 114.495 63.6295 114.159C63.5362 113.823 63.3682 113.589 63.1255 113.459C62.8829 113.319 62.5515 113.249 62.1315 113.249ZM71.6666 111.961C72.9453 111.961 73.5846 112.591 73.5846 113.851V119.003H71.8906V114.369C71.8906 113.995 71.8253 113.739 71.6946 113.599C71.564 113.459 71.3446 113.389 71.0366 113.389C70.6913 113.389 70.3366 113.468 69.9726 113.627C69.6086 113.776 69.17 113.995 68.6566 114.285L68.5866 113.263C69.0906 112.843 69.604 112.521 70.1266 112.297C70.6493 112.073 71.1626 111.961 71.6666 111.961ZM68.5306 112.129L68.6986 113.473L68.8386 113.669V119.003H67.1446V112.129H68.5306ZM30.687 127.343V133.223C30.687 134.184 30.5704 134.954 30.337 135.533C30.1037 136.111 29.721 136.531 29.189 136.793C28.657 137.054 27.943 137.185 27.047 137.185C26.1137 137.185 25.367 137.054 24.807 136.793C24.247 136.531 23.841 136.111 23.589 135.533C23.3464 134.954 23.225 134.184 23.225 133.223V127.343H24.975V133.223C24.975 133.857 25.0357 134.361 25.157 134.735C25.2877 135.108 25.4977 135.374 25.787 135.533C26.0764 135.682 26.4684 135.757 26.963 135.757C27.4577 135.757 27.845 135.682 28.125 135.533C28.4144 135.374 28.6197 135.108 28.741 134.735C28.8717 134.361 28.937 133.857 28.937 133.223V127.343H30.687ZM36.9136 129.961C37.763 129.961 38.3743 130.273 38.7476 130.899C39.121 131.524 39.3076 132.429 39.3076 133.615C39.3076 134.52 39.2096 135.234 39.0136 135.757C38.827 136.27 38.5423 136.639 38.1596 136.863C37.777 137.077 37.2916 137.185 36.7036 137.185C36.237 137.185 35.7796 137.119 35.3316 136.989C34.893 136.849 34.487 136.634 34.1136 136.345L34.2256 135.505C34.5896 135.607 34.9163 135.696 35.2056 135.771C35.495 135.845 35.8123 135.883 36.1576 135.883C36.503 135.883 36.7736 135.827 36.9696 135.715C37.175 135.593 37.3243 135.369 37.4176 135.043C37.511 134.716 37.5576 134.245 37.5576 133.629C37.5576 133.022 37.5156 132.551 37.4316 132.215C37.3476 131.879 37.2076 131.645 37.0116 131.515C36.825 131.375 36.5776 131.305 36.2696 131.305C35.9336 131.305 35.6163 131.379 35.3176 131.529C35.019 131.669 34.6736 131.879 34.2816 132.159L34.0856 131.263C34.3003 131.011 34.557 130.787 34.8556 130.591C35.1636 130.395 35.495 130.241 35.8496 130.129C36.2043 130.017 36.559 129.961 36.9136 129.961ZM34.0156 130.129L34.1836 131.459L34.3376 131.655V136.093L34.2676 136.261C34.2956 136.531 34.3143 136.802 34.3236 137.073C34.333 137.353 34.3376 137.637 34.3376 137.927V139.733H32.6436V130.129H34.0156ZM43.8408 129.961C44.6155 129.961 45.2268 130.035 45.6748 130.185C46.1321 130.325 46.4588 130.558 46.6548 130.885C46.8508 131.202 46.9488 131.622 46.9488 132.145C46.9488 132.649 46.8508 133.064 46.6548 133.391C46.4588 133.708 46.1321 133.941 45.6748 134.091C45.2175 134.24 44.6015 134.315 43.8268 134.315C43.0521 134.315 42.4361 134.24 41.9788 134.091C41.5308 133.941 41.2041 133.708 40.9988 133.391C40.8028 133.073 40.7048 132.658 40.7048 132.145C40.7048 131.622 40.8028 131.202 40.9988 130.885C41.2041 130.558 41.5355 130.325 41.9928 130.185C42.4501 130.035 43.0661 129.961 43.8408 129.961ZM43.8268 131.067C43.2388 131.067 42.8328 131.146 42.6088 131.305C42.3848 131.463 42.2728 131.743 42.2728 132.145C42.2728 132.527 42.3848 132.803 42.6088 132.971C42.8328 133.129 43.2388 133.209 43.8268 133.209C44.4148 133.209 44.8161 133.129 45.0308 132.971C45.2548 132.803 45.3668 132.527 45.3668 132.145C45.3668 131.743 45.2548 131.463 45.0308 131.305C44.8161 131.146 44.4148 131.067 43.8268 131.067ZM47.7468 130.129L47.6488 130.913L45.8568 131.109L45.3528 130.129H47.7468ZM41.8248 133.895L42.6928 134.021C42.5528 134.133 42.4548 134.277 42.3988 134.455C42.3521 134.623 42.3661 134.786 42.4408 134.945C42.5248 135.094 42.7021 135.187 42.9728 135.225L45.5208 135.561C46.2115 135.645 46.6968 135.85 46.9768 136.177C47.2568 136.494 47.3968 136.956 47.3968 137.563C47.3968 138.132 47.2848 138.575 47.0608 138.893C46.8368 139.21 46.4681 139.429 45.9548 139.551C45.4508 139.681 44.7695 139.747 43.9108 139.747C43.2295 139.747 42.6648 139.709 42.2168 139.635C41.7688 139.569 41.4095 139.453 41.1388 139.285C40.8775 139.126 40.6908 138.916 40.5788 138.655C40.4668 138.403 40.4108 138.085 40.4108 137.703C40.4108 137.404 40.4575 137.152 40.5508 136.947C40.6535 136.741 40.8168 136.559 41.0408 136.401C41.2648 136.233 41.5681 136.079 41.9508 135.939L42.9028 135.533L43.5608 135.771L42.9448 136.205C42.7301 136.363 42.5528 136.508 42.4128 136.639C42.2821 136.76 42.1841 136.881 42.1188 137.003C42.0628 137.133 42.0348 137.297 42.0348 137.493C42.0348 137.754 42.0861 137.955 42.1888 138.095C42.3008 138.235 42.4921 138.328 42.7628 138.375C43.0335 138.431 43.4115 138.459 43.8968 138.459C44.3915 138.459 44.7741 138.431 45.0448 138.375C45.3155 138.328 45.5021 138.235 45.6048 138.095C45.7168 137.964 45.7728 137.773 45.7728 137.521C45.7728 137.315 45.7401 137.161 45.6748 137.059C45.6095 136.965 45.4928 136.891 45.3248 136.835C45.1568 136.779 44.9235 136.732 44.6248 136.695L42.3288 136.415C42.0021 136.377 41.7408 136.284 41.5448 136.135C41.3581 135.976 41.2275 135.789 41.1528 135.575C41.0781 135.351 41.0548 135.131 41.0828 134.917C41.1201 134.693 41.1995 134.487 41.3208 134.301C41.4515 134.114 41.6195 133.979 41.8248 133.895ZM50.2428 130.129L50.4668 131.473L50.6208 131.669V137.003H48.9268V130.129H50.2428ZM53.6028 129.961L53.4348 131.529H52.9448C52.5808 131.529 52.2122 131.589 51.8389 131.711C51.4655 131.832 50.9988 132.014 50.4388 132.257L50.3268 131.263C50.8122 130.852 51.3068 130.535 51.8108 130.311C52.3148 130.077 52.8002 129.961 53.2668 129.961H53.6028ZM58.1817 129.961C58.7324 129.961 59.1944 130.035 59.5677 130.185C59.9504 130.325 60.2397 130.567 60.4357 130.913C60.6317 131.258 60.7297 131.734 60.7297 132.341V137.003H59.3857L59.1477 135.519L59.0217 135.323V132.327C59.0217 131.963 58.9377 131.701 58.7697 131.543C58.6017 131.375 58.2797 131.291 57.8037 131.291C57.4491 131.291 57.0011 131.305 56.4597 131.333C55.9277 131.361 55.3911 131.398 54.8497 131.445L54.6957 130.283C55.0224 130.217 55.3911 130.161 55.8017 130.115C56.2124 130.068 56.6277 130.031 57.0477 130.003C57.4677 129.975 57.8457 129.961 58.1817 129.961ZM60.0017 132.775L59.9877 133.825H56.8377C56.5577 133.834 56.3571 133.909 56.2357 134.049C56.1144 134.189 56.0537 134.38 56.0537 134.623V135.001C56.0537 135.281 56.1284 135.495 56.2777 135.645C56.4271 135.785 56.6604 135.855 56.9777 135.855C57.2297 135.855 57.5097 135.803 57.8177 135.701C58.1257 135.598 58.4291 135.449 58.7277 135.253C59.0357 135.057 59.3111 134.823 59.5537 134.553V135.435C59.4604 135.575 59.3251 135.743 59.1477 135.939C58.9704 136.125 58.7511 136.312 58.4897 136.499C58.2377 136.685 57.9437 136.839 57.6077 136.961C57.2811 137.082 56.9171 137.143 56.5157 137.143C56.1051 137.143 55.7364 137.073 55.4097 136.933C55.0831 136.783 54.8264 136.569 54.6397 136.289C54.4531 135.999 54.3597 135.645 54.3597 135.225V134.497C54.3597 133.955 54.5371 133.535 54.8917 133.237C55.2557 132.929 55.7504 132.775 56.3757 132.775H60.0017ZM64.8954 129.961C65.362 129.961 65.8194 130.026 66.2674 130.157C66.7154 130.278 67.1214 130.483 67.4854 130.773L67.3734 131.627C67.0094 131.524 66.6827 131.435 66.3934 131.361C66.104 131.286 65.782 131.249 65.4274 131.249C65.0914 131.249 64.8207 131.309 64.6154 131.431C64.4194 131.543 64.27 131.762 64.1674 132.089C64.074 132.415 64.0274 132.891 64.0274 133.517C64.0274 134.114 64.074 134.576 64.1674 134.903C64.2607 135.22 64.4054 135.444 64.6014 135.575C64.7974 135.696 65.054 135.757 65.3714 135.757C65.6234 135.757 65.8474 135.729 66.0434 135.673C66.2394 135.607 66.44 135.514 66.6454 135.393C66.8507 135.262 67.0887 135.099 67.3594 134.903L67.4994 135.855C67.182 136.219 66.79 136.531 66.3234 136.793C65.866 137.045 65.334 137.171 64.7274 137.171C63.85 137.171 63.2247 136.863 62.8514 136.247C62.478 135.621 62.2914 134.716 62.2914 133.531C62.2914 132.625 62.3847 131.916 62.5714 131.403C62.7674 130.88 63.0567 130.511 63.4394 130.297C63.8314 130.073 64.3167 129.961 64.8954 129.961ZM68.8714 127.203V137.003H67.5414L67.3594 135.771L67.1774 135.631V131.039L67.2614 130.843C67.224 130.572 67.2007 130.301 67.1914 130.031C67.182 129.751 67.1774 129.466 67.1774 129.177V127.203H68.8714ZM73.8542 129.961C74.9648 129.961 75.7628 130.157 76.2482 130.549C76.7335 130.931 76.9808 131.501 76.9902 132.257C76.9995 132.882 76.8502 133.358 76.5422 133.685C76.2435 134.002 75.7442 134.161 75.0442 134.161H71.1242V133.111H74.5822C74.8995 133.111 75.1002 133.027 75.1842 132.859C75.2775 132.691 75.3242 132.485 75.3242 132.243C75.3148 131.86 75.2028 131.594 74.9882 131.445C74.7828 131.295 74.4282 131.221 73.9242 131.221C73.4855 131.221 73.1448 131.281 72.9022 131.403C72.6595 131.524 72.4868 131.743 72.3842 132.061C72.2908 132.378 72.2442 132.835 72.2442 133.433C72.2442 134.067 72.3048 134.557 72.4262 134.903C72.5475 135.248 72.7482 135.486 73.0282 135.617C73.3082 135.738 73.6815 135.799 74.1482 135.799C74.4935 135.799 74.8902 135.785 75.3382 135.757C75.7955 135.729 76.2342 135.691 76.6542 135.645L76.8222 136.723C76.5702 136.825 76.2808 136.909 75.9542 136.975C75.6275 137.04 75.2868 137.087 74.9322 137.115C74.5868 137.152 74.2602 137.171 73.9522 137.171C73.1122 137.171 72.4355 137.049 71.9222 136.807C71.4182 136.555 71.0495 136.163 70.8162 135.631C70.5922 135.099 70.4802 134.413 70.4802 133.573C70.4802 132.667 70.5922 131.953 70.8162 131.431C71.0495 130.899 71.4135 130.521 71.9082 130.297C72.4122 130.073 73.0608 129.961 73.8542 129.961Z"
          fill="#2E988D"/>
    <path d="M76.0185 81.1159L24.1868 81.1089" stroke="white" stroke-width="6.29" stroke-miterlimit="10"/>
    <path d="M76.0185 81.1159L24.1868 81.1089" stroke="#2E988D" stroke-width="3.42" stroke-miterlimit="10"/>
    <path d="M18.8864 22.6508L18.8864 18.8889L75.4485 18.8819" stroke="white" stroke-width="6.29"
          stroke-miterlimit="10"/>
    <path d="M18.8864 22.6508L18.8864 18.8889L75.4485 18.8819" stroke="#2E988D" stroke-width="3.42"
          stroke-miterlimit="10"/>
    <path d="M62.2095 86.5128L37.807 86.5003L13.4662 62.1594L13.4537 37.757L37.7922 13.4184H62.2087L86.5481 37.7577L86.5481 62.1742L62.2095 86.5128Z"
          fill="#ECFFFD" stroke="#2E988D" stroke-width="7"/>
    <path d="M37 55.4957V40.6005C37.0679 40.3134 37.1576 40.0319 37.2683 39.7585C37.8545 38.5552 38.8389 38 40.1701 38C46.4926 38 52.8137 38 59.1333 38C59.2819 38 59.4305 38 59.5771 38.0186C60.3113 38.0725 60.999 38.3986 61.5052 38.9331C62.0115 39.4677 62.2998 40.172 62.3138 40.9081C62.3221 45.655 62.3221 50.402 62.3138 55.149C62.3145 55.6598 62.1714 56.1604 61.901 56.5937C61.2819 57.5947 60.3634 58.055 59.187 58.0529C53.7479 58.0529 48.3088 58.0529 42.8697 58.0529C41.8894 58.0529 40.909 58.0529 39.9287 58.0529C39.3016 58.0496 38.692 57.8457 38.1891 57.471C37.6863 57.0963 37.3166 56.5704 37.1341 55.9704C37.0887 55.8198 37.0433 55.6505 37 55.4957ZM37.8895 52.953H61.4181C61.4181 52.8849 61.4181 52.8374 61.4181 52.7879C61.4181 48.8582 61.4181 44.9279 61.4181 40.9968C61.4167 40.807 61.3904 40.6183 61.3396 40.4354C61.0775 39.4716 60.2685 38.904 59.156 38.904H40.1454C39.9313 38.8994 39.7174 38.9188 39.5076 38.9618C39.0318 39.065 38.6078 39.3331 38.3106 39.7187C38.0134 40.1044 37.8621 40.5826 37.8834 41.069C37.8834 44.9437 37.8834 48.8169 37.8834 52.6888L37.8895 52.953ZM55.8703 55.9643C55.9851 55.9705 56.1001 55.9705 56.2149 55.9643C56.3307 55.9568 56.4388 55.9042 56.5161 55.8177C56.5933 55.7312 56.6334 55.6178 56.6277 55.5019C56.628 55.4443 56.6162 55.3872 56.593 55.3344C56.5699 55.2815 56.5359 55.2342 56.4933 55.1953C56.4508 55.1564 56.4005 55.1268 56.3458 55.1086C56.2911 55.0903 56.2332 55.0837 56.1757 55.0892C55.9694 55.0892 55.7485 55.0892 55.5359 55.0892C55.4797 55.0867 55.4235 55.0954 55.3707 55.1149C55.3179 55.1344 55.2695 55.1643 55.2283 55.2027C55.1872 55.2412 55.1542 55.2874 55.1311 55.3388C55.1081 55.3902 55.0956 55.4457 55.0943 55.5019C55.0857 55.6178 55.1231 55.7324 55.1985 55.8209C55.2738 55.9094 55.3809 55.9646 55.4967 55.9746C55.6213 55.9785 55.7461 55.9751 55.8703 55.9643ZM52.9808 55.083C52.8673 55.083 52.7517 55.083 52.6362 55.083C52.5322 55.0826 52.4319 55.1216 52.3554 55.192C52.2788 55.2624 52.2317 55.3591 52.2234 55.4627C52.2053 55.5693 52.2297 55.6788 52.2915 55.7676C52.3532 55.8563 52.4473 55.9173 52.5536 55.9374C52.8458 55.9694 53.1406 55.9694 53.4328 55.9374C53.5342 55.9155 53.6237 55.8562 53.6834 55.7713C53.7431 55.6864 53.7685 55.5821 53.7548 55.4792C53.7457 55.3749 53.6987 55.2776 53.6226 55.2057C53.5465 55.1338 53.4467 55.0923 53.342 55.0892C53.2285 55.083 53.1047 55.083 52.9808 55.083ZM58.7598 55.083C58.6359 55.083 58.5142 55.083 58.3903 55.083C58.2825 55.088 58.1804 55.1331 58.104 55.2094C58.0277 55.2858 57.9826 55.3879 57.9775 55.4957C57.9671 55.5993 57.9961 55.703 58.0589 55.7861C58.1217 55.8691 58.2135 55.9254 58.316 55.9436C58.6 55.9746 58.8865 55.9746 59.1705 55.9436C59.2774 55.9259 59.373 55.8668 59.4367 55.7791C59.5004 55.6915 59.5271 55.5823 59.511 55.4751C59.5026 55.368 59.4538 55.2681 59.3745 55.1956C59.2952 55.1232 59.1912 55.0837 59.0838 55.085C58.9662 55.083 58.865 55.083 58.7598 55.083Z"
          fill="#2E988D"/>
    <path d="M53.3605 58.9818V59.9147H55.8041C56.1735 59.9147 56.3737 60.0674 56.382 60.344C56.3902 60.6205 56.1756 60.8022 55.8041 60.8042C53.3907 60.8042 50.978 60.809 48.566 60.8187C46.8942 60.8187 45.2225 60.8187 43.5507 60.8042C43.4929 60.8042 43.4351 60.8042 43.3773 60.8042C43.3173 60.8043 43.2578 60.7922 43.2026 60.7686C43.1474 60.745 43.0975 60.7105 43.056 60.6671C43.0145 60.6236 42.9823 60.5723 42.9612 60.516C42.9402 60.4598 42.9308 60.3998 42.9336 60.3399C42.9351 60.2822 42.9483 60.2254 42.9724 60.173C42.9966 60.1206 43.0312 60.0737 43.074 60.0351C43.1169 59.9964 43.1671 59.967 43.2218 59.9484C43.2764 59.9298 43.3342 59.9226 43.3918 59.9271C43.7633 59.9271 44.1327 59.9271 44.5042 59.9271H45.9489V58.9942L53.3605 58.9818Z"
          fill="#2E988D"/>
    <path d="M53.4633 49.692C52.9606 50.1259 52.3848 50.4669 51.7626 50.6991C51.7274 50.7214 51.6979 50.7517 51.6768 50.7876C51.6556 50.8235 51.6433 50.8639 51.6408 50.9055C51.6615 51.1759 51.7172 51.4442 51.744 51.7146C51.7619 51.7836 51.7625 51.856 51.7459 51.9254C51.7292 51.9947 51.6957 52.0589 51.6485 52.1123C51.6012 52.1657 51.5415 52.2067 51.4747 52.2316C51.4078 52.2566 51.3359 52.2647 51.2652 52.2553C50.4396 52.2553 49.6327 52.2553 48.8174 52.2553C48.4624 52.2553 48.2932 52.0489 48.3241 51.6981C48.3386 51.5433 48.3675 51.3885 48.3881 51.2337C48.4088 51.0789 48.4356 50.9262 48.4501 50.8209L46.5471 49.727C46.3531 49.8777 46.1075 50.0697 45.8598 50.2575C45.5668 50.4804 45.3046 50.4329 45.1189 50.113C44.7061 49.4016 44.2968 48.6875 43.8909 47.9707C43.8504 47.9168 43.8238 47.8539 43.8132 47.7875C43.8027 47.721 43.8085 47.6529 43.8303 47.5892C43.8521 47.5255 43.8891 47.4681 43.9382 47.422C43.9872 47.3759 44.0468 47.3425 44.1117 47.3247C44.3532 47.2215 44.5967 47.1183 44.8444 47.0295C44.9806 46.98 45.0384 46.9139 45.0075 46.7591C44.8877 46.1763 44.8877 45.5753 45.0075 44.9924C45.0183 44.9642 45.0227 44.9339 45.0205 44.9038C45.0183 44.8736 45.0095 44.8443 44.9948 44.8179C44.98 44.7916 44.9596 44.7687 44.9351 44.7511C44.9105 44.7335 44.8824 44.7214 44.8527 44.7159C44.6091 44.6375 44.3738 44.5404 44.1365 44.4434C44.068 44.4247 44.0051 44.3896 43.9532 44.3412C43.9013 44.2927 43.862 44.2324 43.8386 44.1654C43.8152 44.0983 43.8085 44.0266 43.8191 43.9564C43.8296 43.8862 43.8571 43.8196 43.8991 43.7624C44.3119 43.0469 44.7247 42.3334 45.1375 41.6221C45.1647 41.5562 45.2077 41.4981 45.2628 41.453C45.3179 41.4079 45.3833 41.3771 45.4533 41.3634C45.5232 41.3497 45.5954 41.3535 45.6634 41.3745C45.7315 41.3955 45.7933 41.4331 45.8433 41.4838C45.9754 41.5808 46.1034 41.6902 46.2355 41.7851L46.5967 42.0617C46.8959 41.8553 47.1746 41.6303 47.478 41.4549C47.7814 41.2795 48.1116 41.1474 48.4624 40.9823C48.4253 40.7346 48.3881 40.4601 48.3448 40.1856C48.2664 39.6903 48.417 39.5066 48.9124 39.5045H51.2363C51.6367 39.5045 51.7915 39.6779 51.7461 40.0762C51.7151 40.3693 51.6718 40.6624 51.6346 40.9575C51.6346 40.972 51.6346 40.9885 51.6759 40.9575L53.5458 42.0307C53.7336 41.8821 53.9751 41.6881 54.2207 41.4982C54.5097 41.2753 54.7801 41.3187 54.9658 41.6345C55.3786 42.33 55.779 43.0297 56.1794 43.7314C56.224 43.7919 56.253 43.8624 56.2641 43.9367C56.2751 44.011 56.2679 44.0869 56.2428 44.1578C56.2178 44.2286 56.1757 44.2923 56.1204 44.3432C56.0651 44.394 55.9982 44.4306 55.9255 44.4496C55.682 44.5508 55.4384 44.656 55.1887 44.7365C55.0483 44.784 55.0483 44.8624 55.071 44.9821C55.1897 45.5734 55.1897 46.1823 55.071 46.7736C55.0611 46.7979 55.0567 46.824 55.058 46.8502C55.0594 46.8764 55.0666 46.902 55.079 46.9251C55.0914 46.9482 55.1088 46.9682 55.1299 46.9838C55.151 46.9993 55.1754 47.01 55.2011 47.0151C55.4467 47.1038 55.6902 47.205 55.9317 47.3102C56.2599 47.4506 56.3445 47.7024 56.1835 48.0058C55.7872 48.7102 55.3861 49.4106 54.9802 50.1068C54.951 50.1782 54.9043 50.2412 54.8446 50.2901C54.7848 50.339 54.7139 50.3722 54.6381 50.3867C54.5623 50.4013 54.484 50.3967 54.4104 50.3734C54.3369 50.3501 54.2702 50.3088 54.2166 50.2533C53.9875 50.0779 53.7625 49.8963 53.5355 49.7188C53.5128 49.7065 53.4885 49.6975 53.4633 49.692ZM52.7491 45.8758C52.7475 45.3402 52.5873 44.8171 52.2888 44.3724C51.9903 43.9278 51.5667 43.5815 51.0717 43.3772C50.5766 43.1729 50.0321 43.1197 49.5068 43.2245C48.9816 43.3292 48.4991 43.5871 48.1203 43.9657C47.7414 44.3443 47.4831 44.8265 47.378 45.3517C47.2729 45.8769 47.3256 46.4214 47.5295 46.9166C47.7334 47.4119 48.0794 47.8357 48.5239 48.1345C48.9683 48.4334 49.4913 48.594 50.0269 48.596C50.3846 48.5977 50.7392 48.5284 51.0701 48.3923C51.401 48.2562 51.7017 48.056 51.9548 47.8031C52.2079 47.5502 52.4083 47.2497 52.5447 46.9189C52.681 46.5881 52.7505 46.2336 52.7491 45.8758Z"
          fill="#2E988D"/>
    <path d="M40.3088 44.4002V48.6024C40.3088 48.6849 40.3088 48.7675 40.3088 48.85C40.3118 48.912 40.3017 48.9739 40.2793 49.0317C40.2569 49.0895 40.2226 49.142 40.1787 49.1857C40.1347 49.2295 40.0821 49.2636 40.0241 49.2857C39.9662 49.3079 39.9043 49.3176 39.8424 49.3144C39.7828 49.3131 39.7241 49.2994 39.6702 49.274C39.6162 49.2486 39.5683 49.2121 39.5293 49.1669C39.4904 49.1218 39.4614 49.069 39.4442 49.0119C39.427 48.9548 39.4221 48.8947 39.4296 48.8356C39.4296 47.4589 39.4296 46.0844 39.4296 44.7078V44.3321C39.2996 44.5138 39.2067 44.6376 39.1159 44.7656C38.9343 45.0153 38.6701 45.0896 38.4575 44.9492C38.2449 44.8089 38.1912 44.5365 38.377 44.2558C38.7444 43.7191 39.1131 43.1832 39.4833 42.648C39.5223 42.5789 39.5789 42.5213 39.6475 42.4813C39.716 42.4413 39.794 42.4202 39.8733 42.4202C39.9527 42.4202 40.0307 42.4413 40.0992 42.4813C40.1678 42.5213 40.2244 42.5789 40.2634 42.648C40.637 43.1825 41.0023 43.7191 41.3676 44.2578C41.5513 44.5282 41.5142 44.8006 41.2851 44.9513C41.056 45.102 40.8248 45.0173 40.637 44.7449L40.3686 44.3693L40.3088 44.4002Z"
          fill="#2E988D"/>
    <path d="M58.9535 44.3775C58.8503 44.5241 58.7471 44.6768 58.6418 44.8213C58.5734 44.9203 58.4684 44.9881 58.35 45.0098C58.2316 45.0315 58.1094 45.0052 58.0103 44.9368C57.963 44.9027 57.9229 44.8595 57.8926 44.8097C57.8622 44.7599 57.8421 44.7045 57.8335 44.6468C57.8248 44.5891 57.8278 44.5303 57.8422 44.4738C57.8566 44.4172 57.8822 44.3642 57.9174 44.3177C58.3034 43.746 58.6914 43.1743 59.0918 42.6108C59.1317 42.5496 59.1864 42.4996 59.2509 42.4653C59.3154 42.4311 59.3875 42.4137 59.4605 42.415C59.5335 42.4162 59.6051 42.436 59.6684 42.4724C59.7316 42.5088 59.7846 42.5607 59.8224 42.6232C60.2083 43.1763 60.586 43.7336 60.9617 44.295C61.001 44.3427 61.0299 44.3982 61.0465 44.4578C61.0631 44.5174 61.0671 44.5798 61.0581 44.641C61.0492 44.7023 61.0275 44.7609 60.9946 44.8133C60.9616 44.8657 60.9181 44.9106 60.8667 44.9451C60.7645 45.0051 60.6431 45.0233 60.5278 44.996C60.4124 44.9688 60.312 44.898 60.2476 44.7986C60.1508 44.6474 60.0357 44.5087 59.905 44.3858V48.6849C59.9112 48.7666 59.9112 48.8487 59.905 48.9305C59.8909 49.0374 59.8382 49.1354 59.7568 49.2061C59.6755 49.2768 59.5711 49.3153 59.4633 49.3144C59.3584 49.3198 59.2554 49.285 59.1753 49.2171C59.0951 49.1493 59.0439 49.0534 59.0319 48.9491C59.0213 48.8677 59.0178 48.7855 59.0216 48.7035V44.392L58.9535 44.3775Z"
          fill="#2E988D"/>
    <path d="M24.1852 81.108L18.8862 81.115L18.8862 22.6509" stroke="white" stroke-width="6.29" stroke-miterlimit="10"/>
    <path d="M24.1852 81.108L18.8862 81.115L18.8862 22.6509" stroke="#2E988D" stroke-width="3.42"
          stroke-miterlimit="10"/>
    <path d="M75.4489 18.8803L81.1128 18.8874L81.1129 81.1134L76.0174 81.1134" stroke="white" stroke-width="6.29"
          stroke-miterlimit="10"/>
    <path d="M75.4489 18.8803L81.1128 18.8874L81.1129 81.1134L76.0174 81.1134" stroke="#2E988D" stroke-width="3.42"
          stroke-miterlimit="10"/>
</svg>
