<svg width="130" height="29" viewBox="0 0 130 29" fill="none" xmlns="http://www.w3.org/2000/svg">
<path d="M60.023 9.88L55.847 21H53.735L49.543 9.88H51.495L54.791 19.128L58.103 9.88H60.023ZM62.9564 11.016C62.6257 11.016 62.3484 10.904 62.1244 10.68C61.9004 10.456 61.7884 10.1787 61.7884 9.848C61.7884 9.51733 61.9004 9.24 62.1244 9.016C62.3484 8.792 62.6257 8.68 62.9564 8.68C63.2764 8.68 63.5484 8.792 63.7724 9.016C63.9964 9.24 64.1084 9.51733 64.1084 9.848C64.1084 10.1787 63.9964 10.456 63.7724 10.68C63.5484 10.904 63.2764 11.016 62.9564 11.016ZM63.8524 12.184V21H62.0284V12.184H63.8524ZM74.8071 16.376C74.8071 16.7067 74.7858 17.0053 74.7431 17.272H68.0071C68.0605 17.976 68.3218 18.5413 68.7911 18.968C69.2605 19.3947 69.8365 19.608 70.5191 19.608C71.5005 19.608 72.1938 19.1973 72.5991 18.376H74.5671C74.3005 19.1867 73.8151 19.8533 73.1111 20.376C72.4178 20.888 71.5538 21.144 70.5191 21.144C69.6765 21.144 68.9191 20.9573 68.2471 20.584C67.5858 20.2 67.0631 19.6667 66.6791 18.984C66.3058 18.2907 66.1191 17.4907 66.1191 16.584C66.1191 15.6773 66.3005 14.8827 66.6631 14.2C67.0365 13.5067 67.5538 12.9733 68.2151 12.6C68.8871 12.2267 69.6551 12.04 70.5191 12.04C71.3511 12.04 72.0925 12.2213 72.7431 12.584C73.3938 12.9467 73.9005 13.4587 74.2631 14.12C74.6258 14.7707 74.8071 15.5227 74.8071 16.376ZM72.9031 15.8C72.8925 15.128 72.6525 14.5893 72.1831 14.184C71.7138 13.7787 71.1325 13.576 70.4391 13.576C69.8098 13.576 69.2711 13.7787 68.8231 14.184C68.3751 14.5787 68.1085 15.1173 68.0231 15.8H72.9031ZM88.9221 12.184L86.1861 21H84.2661L82.4901 14.488L80.7141 21H78.7941L76.0421 12.184H77.8981L79.7381 19.272L81.6101 12.184H83.5141L85.3061 19.24L87.1301 12.184H88.9221Z" fill="#F1F1F1"/>
<path d="M30 9C33.4889 9 36.3915 11.5865 37 15C36.3915 18.4135 33.4889 21 30 21C26.5111 21 23.6085 18.4135 23 15C23.6085 11.5865 26.5111 9 30 9ZM30 19.6667C32.7406 19.6667 35.0857 17.7013 35.6793 15C35.0857 12.2987 32.7406 10.3333 30 10.3333C27.2594 10.3333 24.9143 12.2987 24.3207 15C24.9143 17.7013 27.2594 19.6667 30 19.6667ZM30 18C28.3919 18 27.0883 16.6569 27.0883 15C27.0883 13.3431 28.3919 12 30 12C31.608 12 32.9117 13.3431 32.9117 15C32.9117 16.6569 31.608 18 30 18ZM30 16.6667C30.8934 16.6667 31.6176 15.9205 31.6176 15C31.6176 14.0795 30.8934 13.3333 30 13.3333C29.1067 13.3333 28.3824 14.0795 28.3824 15C28.3824 15.9205 29.1067 16.6667 30 16.6667Z" fill="#F1F1F1"/>
</svg>
