<svg width="1300" height="768" viewBox="0 0 1300 768" fill="none" xmlns="http://www.w3.org/2000/svg">
<g clip-path="url(#clip0_166_867)">
<rect width="1300" height="768" fill="#CFE9FF"/>
<g opacity="0.83">
<path d="M1456 -138H0.00195312V868.999H1456V-138Z" fill="url(#paint0_linear_166_867)"/>
<mask id="mask0_166_867" style="mask-type:luminance" maskUnits="userSpaceOnUse" x="-58" y="-138" width="1514" height="1007">
<path d="M1456 -137.998H-58V869H1456V-137.998Z" fill="white"/>
</mask>
<g mask="url(#mask0_166_867)">
<path d="M1443.23 811.387C1442.95 811.098 1414.88 782.625 1358.87 751.886C1307.15 723.527 1220.46 687.388 1100.81 676.362C969.247 664.189 868.276 704.281 770.623 743.075C697.055 772.278 620.977 802.488 533.758 808.706C386.484 819.141 266.247 788.44 178.486 765.984C146.111 757.714 118.14 750.565 95.014 747.103C13.8763 734.931 -72.7874 757.589 -73.6075 757.815L-73.9355 756.556C-73.065 756.317 13.8006 733.584 95.2032 745.819C118.393 749.293 146.389 756.443 178.801 764.701C266.499 787.182 386.61 817.883 533.72 807.397C620.775 801.204 696.727 771.032 770.207 741.854C867.998 703.022 969.108 662.88 1100.98 675.065C1220.84 686.155 1307.79 722.381 1359.62 750.816C1415.76 781.631 1443.92 810.217 1444.15 810.506L1443.23 811.387Z" fill="url(#paint1_linear_166_867)"/>
<path d="M1446.37 837.745C1441.44 833.201 1323.13 726.396 1101.67 707.465C1066.61 704.53 1031.33 705.374 996.447 709.982C922.009 720.052 853.702 744.145 787.654 767.482C707.425 795.816 624.47 825.12 532.798 827.424C501.361 828.108 469.912 826.75 438.652 823.358C350.336 814.182 271.633 794.306 208.348 778.332C165.451 767.495 128.308 758.192 97.5991 754.24C21.609 744.585 -61.9006 764.146 -70.6565 768.086L-71.1738 766.941C-62.3422 763.013 21.5207 743.339 97.7631 753.094C128.548 757.009 165.679 766.374 208.663 777.212C271.898 793.173 350.613 813.036 438.779 822.2C469.973 825.569 501.354 826.906 532.722 826.203C624.243 823.899 703.413 795.993 787.225 766.324C853.349 742.974 921.719 718.819 996.271 708.774C1031.24 704.153 1066.62 703.309 1101.77 706.256C1323.66 725.213 1442.28 832.308 1447.23 836.852L1446.37 837.745Z" fill="url(#paint2_linear_166_867)"/>
<path d="M1449.49 864.084C1448.32 863.001 1321.97 754.963 1102.53 738.624C1067.43 735.958 1032.14 737.348 997.359 742.765C932.686 752.949 870.196 772.623 809.762 791.642C724.234 818.655 635.791 846.411 541.999 846.411C538.592 846.411 535.186 846.411 531.754 846.297C503.051 845.681 472.696 842.521 438.959 836.781C369.794 824.936 305.878 808.396 249.495 793.795C191.609 778.816 141.61 765.863 100.113 761.483C22.4453 753.301 -56.7367 773.479 -67.8772 778.375L-68.3945 777.23C-57.2288 772.195 22.3192 751.954 100.24 760.186C141.875 764.579 191.874 777.532 249.81 792.524C306.181 807.125 370.059 823.665 439.173 835.497C472.847 841.262 503.14 844.371 531.792 844.988C629.18 847.141 720.789 818.29 809.358 790.396C869.83 771.364 932.371 751.677 997.132 741.469C1032.01 736.041 1067.4 734.648 1102.59 737.315C1322.45 753.679 1449.14 862.019 1450.31 863.114L1449.49 864.084Z" fill="url(#paint3_linear_166_867)"/>
<path d="M1452.62 890.4C1448.18 886.309 1412.66 859.674 1351.1 831.818C1272.9 796.569 1189.02 775.549 1103.4 769.749C1068.26 767.371 1032.96 769.291 998.279 775.464C944.936 785.143 890.937 800.412 838.729 815.177C739.057 843.348 636.106 872.475 530.757 865.099C501.978 863.085 472.922 858.34 439.298 850.133C393.626 839.005 350.212 826.833 308.237 815.076C228.752 792.797 160.042 773.538 102.648 768.666C30.3171 762.524 -46.6444 780.549 -65.0647 788.756L-65.582 787.598C-46.43 779.076 29.2068 761.164 102.762 767.458C160.269 772.354 228.992 791.613 308.577 813.918C350.553 825.675 393.942 837.835 439.601 848.962C473.149 857.144 502.142 861.889 530.845 863.903C635.967 871.254 738.881 842.152 838.388 814.019C890.621 799.241 944.646 783.96 998.052 774.28C1032.83 768.091 1068.24 766.167 1103.49 768.553C1189.25 774.352 1273.29 795.407 1351.62 830.723C1413.33 858.642 1449.01 885.415 1453.48 889.531L1452.62 890.4Z" fill="url(#paint4_linear_166_867)"/>
<path d="M1451.25 1006.94C1278.8 848.12 960.237 952.407 763.064 961.621C457.06 975.807 236.824 673.003 -68.9531 809.111V1061.01H1451.25V1006.94Z" fill="url(#paint5_linear_166_867)"/>
<path d="M1456.59 960.691C1445.06 954.613 1433.19 949.216 1421.03 944.529C1408 939.535 1394.73 935.211 1381.25 931.576C1366.44 927.548 1351.43 924.25 1336.33 921.506C1319.6 918.473 1302.75 916.106 1285.86 914.23C1267.06 912.154 1248.19 910.681 1229.29 909.624C1208.24 908.465 1187.17 907.823 1166.1 907.547C1142.65 907.244 1119.19 907.396 1095.74 907.861C1069.72 908.373 1043.71 909.212 1017.69 910.379C988.909 911.663 960.152 913.228 931.419 915.074C899.71 917.088 868.021 919.354 836.353 921.871C807.171 924.112 777.913 925.509 748.642 925.647C724.431 925.723 700.207 924.917 676.071 922.853C656.384 921.227 636.793 918.589 617.378 914.948C601.554 911.984 585.927 908.058 570.583 903.191C558.402 899.295 546.506 894.564 534.979 889.03C525.805 884.644 516.985 879.556 508.598 873.812C502.148 869.389 496.076 864.442 490.442 859.022C486.21 854.957 482.323 850.549 478.822 845.843C476.461 842.654 474.352 839.287 472.514 835.773C471.536 833.957 470.693 832.072 469.991 830.134C469.915 829.882 469.827 829.643 469.764 829.391C470.856 830.962 472.035 832.471 473.296 833.91C476.813 837.964 480.607 841.77 484.651 845.301C490.975 850.881 497.724 855.961 504.838 860.495C514.49 866.634 524.639 871.956 535.181 876.405C548.532 882.027 562.338 886.508 576.45 889.798C594.143 893.91 612.144 896.563 630.273 897.728C652.549 899.15 674.902 898.902 697.141 896.986C724.656 894.607 751.981 890.402 778.935 884.398C811.72 877.151 844.067 868.053 875.818 857.146C908.764 845.969 941.147 833.243 972.966 818.968C1001.79 806.003 1030.04 791.834 1057.7 776.46C1084.01 761.859 1109.74 746.276 1134.89 729.711C1158.63 714.077 1181.84 697.663 1204.51 680.468C1225.42 664.625 1245.83 648.16 1265.76 631.075C1283.99 615.475 1301.8 599.397 1319.19 582.84C1334.46 568.314 1349.38 553.44 1363.94 538.217C1376.36 525.252 1388.5 512.039 1400.36 498.579C1409.71 487.939 1418.87 477.134 1427.83 466.167C1434.12 458.471 1440.28 450.676 1446.32 442.779C1449.46 438.65 1452.63 434.496 1455.59 430.267C1455.96 429.764 1456.32 429.247 1456.68 428.719L1456.59 960.691Z" fill="url(#paint6_linear_166_867)"/>
<path d="M-68.9531 605.62C109.396 584.661 289.246 642.576 435.776 741.564C599.893 852.422 785.446 860.541 942.599 730.236C864.376 863.474 615.058 894.565 488.879 824.176C422.554 787.181 370.422 728.864 304.916 690.157C191.871 623.368 60.153 609.66 -68.9531 617.993V605.62Z" fill="url(#paint7_linear_166_867)"/>
<path d="M-60.9023 -22.1903C109.422 -92.6802 312.185 -107.999 491.871 -73.1067C708.726 -31.0016 918.251 59.1122 1143.7 25.6421C1243.03 10.877 1365.98 -26.8729 1458.9 32.9806V-187.93H-60.9023V-22.1903Z" fill="url(#paint8_linear_166_867)"/>
<path d="M988.689 32.7403C961.185 42.8103 931.334 49.0285 901.269 53.0565C868.932 57.2906 836.325 59.1251 803.717 58.5446C772.94 58.2231 742.236 55.4747 711.893 50.325C674.459 43.7292 637.858 34.7039 601.585 25.15C565.313 15.5961 529.179 5.50099 492.578 -3.44871C456.28 -12.3355 419.401 -19.8124 381.955 -25.502C344.323 -31.2065 306.424 -34.9877 268.405 -36.8307C230.392 -38.6962 192.302 -38.3768 154.325 -35.8741C117.262 -33.5033 80.398 -28.6673 43.98 -21.3985C10.8487 -14.639 -21.778 -5.23613 -50.2159 9.35276C-56.9975 12.8263 -63.5885 16.6584 -69.9609 20.8325C-26.1403 15.2464 17.9964 12.4924 62.1732 12.5877C106.36 12.6595 150.5 15.4888 194.333 21.0591C237.103 26.4843 279.81 33.1683 320.613 44.3585C356.772 54.2775 391.064 67.5447 424.788 81.3406C458.513 95.1364 491.758 109.499 526.415 121.897C560.291 134.032 595.656 144.24 632.635 149.59C666.478 154.394 700.743 155.525 734.83 152.963C768.621 150.562 802.061 144.591 834.59 135.152C866.333 125.837 896.411 113.149 922.906 97.0749C934.979 89.531 946.579 81.2582 957.64 72.3028C967.897 64.2216 978.949 55.8383 985.523 45.7054C988.109 41.7529 990.09 37.1459 988.689 32.7403Z" fill="url(#paint9_linear_166_867)"/>
<path d="M1549.64 309.803C1405.01 275.952 1269.64 210.679 1153.2 118.637C1137.25 106.049 1121.43 92.6564 1106.14 79.7542C1076.7 54.9443 1046.28 29.291 1013.75 7.60277C955.962 -30.9023 900.134 -50.0227 847.812 -49.2926C817.722 -48.8647 787.808 -41.7401 758.878 -34.9303C746.009 -31.8841 732.685 -28.7373 719.514 -26.2072C644.281 -11.7442 564.43 -17.0183 488.629 -41.4506C412.828 -65.8829 344.812 -108.164 292.238 -163.763L293.159 -164.619C345.581 -109.234 413.27 -67.0032 488.932 -42.6464C564.594 -18.2897 644.218 -13.0281 719.186 -27.4408C732.332 -29.9583 745.681 -33.1177 758.499 -36.1639C787.517 -43.0241 817.469 -50.1234 847.711 -50.5514C900.361 -51.2814 956.379 -32.0981 1014.42 6.55801C1047.02 28.284 1077.5 53.9625 1106.92 78.7976C1122.21 91.6997 1138.03 105.03 1153.96 117.655C1270.27 209.58 1405.48 274.772 1549.94 308.582L1549.64 309.803Z" fill="url(#paint10_linear_166_867)"/>
<path d="M1550.01 289.979C1406.01 254.445 1268.97 189.959 1153.68 103.496C1137.72 91.5251 1121.86 78.8873 1106.52 66.6774C1088.09 52.013 1069.05 36.8451 1049.74 22.7345C1036.72 13.2184 1024.72 5.01134 1013.05 -2.36493C955.018 -39.0449 899.227 -57.3722 847.196 -56.8435C817.446 -56.554 787.897 -50.0715 759.258 -43.7903C746.199 -40.933 732.687 -37.9749 719.326 -35.6336C647.701 -23.1217 571.888 -28.2574 500.074 -50.4743C461.227 -62.5727 423.958 -79.2292 389.047 -100.094C354.447 -120.569 322.356 -144.998 293.426 -172.888L294.309 -173.781C323.174 -145.966 355.187 -121.601 389.703 -101.177C424.509 -80.3654 461.669 -63.7511 500.402 -51.6827C572.027 -29.5161 647.638 -24.393 719.048 -36.8672C732.384 -39.2085 745.884 -42.1665 758.942 -45.0239C787.607 -51.3176 817.256 -57.8128 847.133 -58.1023C899.441 -58.6436 955.434 -40.2407 1013.67 -3.42227C1025.37 3.96657 1037.39 12.1862 1050.44 21.7527C1069.77 35.8758 1088.83 51.0564 1107.21 65.7334C1122.54 77.9432 1138.4 90.5559 1154.35 102.527C1269.5 188.889 1406.39 253.299 1550.22 288.821L1550.01 289.979Z" fill="url(#paint11_linear_166_867)"/>
<path d="M1550.37 270.265C1405.8 232.502 1268.81 169.565 1154.2 88.4512C1138.26 77.1225 1122.37 65.2273 1107.03 53.7223C1088.28 39.6621 1068.9 25.1362 1049.31 11.6298C1036.21 2.6046 1024.07 -5.19965 1012.38 -12.2864C954.065 -47.0782 898.337 -64.6252 846.609 -64.3105C817.237 -64.1342 788.017 -58.2559 759.756 -52.5538C746.47 -49.8726 732.731 -47.1034 719.155 -45.0013C647.531 -33.7103 572.197 -39.8152 501.253 -62.5986C462.77 -75.1674 425.79 -91.9258 390.984 -112.571C356.754 -132.584 324.512 -155.804 294.693 -181.915L295.526 -182.859C325.282 -156.794 357.457 -133.613 391.614 -113.628C426.347 -93.0227 463.245 -76.2899 501.644 -63.7314C572.398 -41.074 647.531 -34.9187 718.941 -46.109C732.491 -48.2488 746.205 -51.0181 759.478 -53.6615C787.802 -59.3636 817.086 -65.2671 846.533 -65.4433C898.526 -65.7706 954.468 -48.1481 1012.96 -13.1801C1024.73 -6.13113 1036.84 1.67311 1049.95 10.7361C1069.58 24.2676 1088.97 38.8062 1107.72 52.8664C1123.06 64.3714 1138.94 76.2791 1154.87 87.5701C1269.37 168.646 1406.22 231.458 1550.63 269.195L1550.37 270.265Z" fill="url(#paint12_linear_166_867)"/>
<path d="M1550.72 250.49C1405.1 210.273 1268.11 149.022 1154.71 73.3463C1138.8 62.7224 1122.94 51.5448 1107.61 40.7447C1088.52 27.2887 1068.79 13.3921 1048.87 0.464752C1035.67 -8.08215 1023.51 -15.471 1011.69 -22.1927C953.148 -55.2348 897.42 -71.9007 845.994 -71.8755C816.976 -71.8755 788.197 -66.5384 760.315 -61.4153C746.777 -58.8978 732.785 -56.3803 718.97 -54.4167C647.383 -44.4222 572.516 -51.4964 502.468 -74.8461C467.078 -86.628 430.213 -103.546 392.88 -125.196C358.981 -144.71 326.577 -166.702 295.934 -190.991L296.716 -191.973C327.312 -167.688 359.665 -145.692 393.511 -126.165C430.768 -104.616 467.558 -87.7231 502.859 -75.9664C572.73 -52.6796 647.396 -45.6432 718.793 -55.5999C732.583 -57.5258 746.55 -60.1062 760.087 -62.5859C788.021 -67.7216 816.862 -73.0335 845.994 -73.0713H846.335C897.861 -73.0713 953.703 -56.3048 1012.32 -23.2249C1024.15 -16.5535 1036.29 -9.1521 1049.55 -0.567429C1069.5 12.3599 1089.24 26.2691 1108.33 39.7125C1123.66 50.5126 1139.52 61.6777 1155.42 72.3015C1268.75 147.902 1405.57 209.102 1551.06 249.269L1550.72 250.49Z" fill="url(#paint13_linear_166_867)"/>
<path d="M1551.09 230.719C1401.56 187.166 1268.36 129.151 1155.23 58.2704C1139.4 48.3263 1123.6 37.8913 1108.31 27.8087C1088.85 14.9443 1068.67 1.65195 1048.48 -10.6838C1035.19 -18.7524 1022.96 -25.7888 1011.06 -32.0825C952.227 -63.2617 896.5 -79.1597 845.352 -79.3107H844.557C816.295 -79.3107 788.16 -74.6408 760.946 -70.1219C747.131 -67.831 732.849 -65.4645 718.756 -63.74C646.223 -55.1302 572.678 -63.0669 503.667 -86.9513C469.476 -98.7458 433.86 -115.336 394.773 -137.591C361.185 -156.734 328.603 -177.585 297.158 -200.062L297.903 -201.082C329.308 -178.633 361.847 -157.807 395.391 -138.686C434.415 -116.444 469.968 -99.9164 504.084 -88.1346C572.928 -64.3074 646.297 -56.3922 718.655 -64.9862C732.723 -66.7107 746.942 -69.0771 760.82 -71.368C788.35 -75.9373 816.787 -80.6702 845.44 -80.5695C896.752 -80.4184 952.681 -64.4701 1011.65 -33.1524C1023.56 -26.8587 1035.83 -19.8349 1049.14 -11.7537C1069.42 0.582016 1089.51 13.887 1109.04 26.7388C1124.32 36.8088 1140.11 47.2564 1155.95 57.1879C1268.98 128.018 1402.06 185.996 1551.48 229.511L1551.09 230.719Z" fill="url(#paint14_linear_166_867)"/>
<path d="M1551.45 210.942C1398.89 164.18 1265.76 107.725 1155.76 43.1635C1140.04 33.9117 1124.34 24.2823 1109.16 14.8795C1089.27 2.60667 1068.69 -10.0815 1048.01 -21.8382C1034.64 -29.3907 1022.31 -36.0117 1010.35 -41.9782C951.331 -71.2818 895.603 -86.3868 844.808 -86.8148C816.736 -87.0414 788.828 -82.8875 761.803 -78.8847C747.673 -76.7952 733.05 -74.6301 718.642 -73.1196C646.331 -65.7786 573.289 -74.664 504.865 -99.1253C472.201 -110.807 437.833 -127.007 396.665 -150.117C365.489 -167.614 332.433 -187.464 298.406 -209.14L299.075 -210.197C333.14 -188.547 366.132 -168.659 397.283 -151.212C438.375 -128.139 472.693 -111.965 505.294 -100.309C573.54 -75.9086 646.393 -67.0488 718.515 -74.3783C732.898 -75.8763 747.534 -78.0413 761.614 -80.1308C788.689 -84.1462 816.698 -88.3127 844.884 -88.0735C895.817 -87.6455 951.696 -72.5406 1010.92 -43.0859C1022.9 -37.132 1035.24 -30.4984 1048.63 -22.9459C1069.33 -11.1766 1089.92 1.51157 1109.83 13.7844C1124.97 23.1494 1140.69 32.8166 1156.39 42.0558C1266.32 106.579 1399.35 162.984 1551.82 209.721L1551.45 210.942Z" fill="url(#paint15_linear_166_867)"/>
<path d="M1551.81 191.165C1389.76 138.927 1264.07 87.1297 1156.28 28.0567C1140.76 19.535 1125.24 10.623 1110.23 2.0132C1089.84 -9.69316 1068.74 -21.7897 1047.58 -32.9926C1034.12 -40.1045 1021.73 -46.285 1009.73 -51.8738C949.553 -79.8306 895.428 -93.7146 844.217 -94.3314C816.713 -94.6587 789.284 -91.0838 762.764 -87.6349C748.255 -85.7467 733.254 -83.7831 718.479 -82.5117C646.419 -76.4336 573.902 -86.2622 506.078 -111.299C466.967 -125.788 429.76 -145.374 398.559 -162.631C378.637 -173.645 358.943 -184.785 339.892 -195.56C325.702 -203.582 312.286 -211.135 299.645 -218.217L300.263 -219.312C312.879 -212.264 326.316 -204.673 340.51 -196.655C359.611 -185.83 379.256 -174.74 399.177 -163.726C430.34 -146.507 467.459 -126.946 506.507 -112.483C574.158 -87.5113 646.489 -77.7043 718.366 -83.7579C733.115 -85.0166 748.103 -86.9929 762.6 -88.881C789.17 -92.3426 816.65 -95.9048 844.23 -95.5901C895.617 -94.9734 949.919 -81.0516 1010.21 -53.0067C1022.29 -47.4179 1034.7 -41.2248 1048.18 -34.1255C1069.35 -22.9226 1090.46 -10.8134 1110.86 0.892914C1125.87 9.50275 1141.39 18.4021 1156.88 26.9238C1264.6 85.9591 1390.22 137.757 1552.2 189.944L1551.81 191.165Z" fill="url(#paint16_linear_166_867)"/>
<path d="M1552.17 171.392C1428 129.413 1283.93 77.754 1156.79 12.9663C1141.57 5.17462 1126.31 -2.94429 1111.55 -10.7863C1090.57 -21.9514 1068.87 -33.4438 1047.21 -44.1431C1033.67 -50.7767 1021.19 -56.5544 1009.07 -61.7656C948.632 -87.8972 894.557 -101.001 843.624 -101.832C816.7 -102.272 789.864 -99.3141 763.887 -96.3434C748.961 -94.6693 733.518 -92.9322 718.315 -91.8874C646.491 -87.0779 574.474 -97.8569 507.226 -123.482C470.184 -137.668 434.138 -156.788 400.401 -175.091C363.258 -195.394 330.088 -213.294 300.881 -227.291L301.436 -228.424C330.656 -214.414 363.838 -196.502 401.108 -176.249C434.807 -157.909 470.802 -138.814 507.781 -124.64C574.844 -99.103 646.657 -88.3671 718.277 -93.1714C733.417 -94.2161 748.873 -95.9406 763.798 -97.6147C789.814 -100.535 816.7 -103.556 843.7 -103.115C894.772 -102.272 949.036 -89.1434 1009.57 -62.9614C1021.72 -57.725 1034.21 -51.9474 1047.76 -45.3389C1069.5 -34.6647 1091.2 -23.122 1112.19 -11.9695C1126.94 -4.11493 1142.2 3.99139 1157.43 11.7831C1284.49 76.5331 1428.51 128.167 1552.63 170.134L1552.17 171.392Z" fill="url(#paint17_linear_166_867)"/>
<path d="M1552.54 151.617L1530.04 143.65C1404.53 99.2284 1274.73 53.2841 1157.32 -2.1386C1142.49 -9.175 1127.6 -16.4757 1113.16 -23.5373C1091.49 -34.1737 1069.08 -45.1626 1046.69 -55.3081C1033.07 -61.4508 1020.52 -66.8131 1008.31 -71.6719C947.684 -95.9405 893.609 -108.251 843.029 -109.308C816.799 -109.862 790.582 -107.395 765.235 -105.004C749.805 -103.543 733.844 -102.045 718.137 -101.227C646.595 -97.7102 575.124 -109.447 508.486 -135.654C473.601 -149.5 439.763 -167.614 407.048 -185.148L402.355 -187.666C375.443 -202.078 335.764 -222.822 302.141 -236.366L302.62 -237.537C336.281 -223.955 376.011 -203.198 402.948 -188.773L407.628 -186.256C440.356 -168.734 474.118 -150.583 508.94 -136.825C575.416 -110.693 646.712 -99.0038 718.074 -102.536C733.743 -103.317 749.691 -104.827 765.121 -106.313C790.493 -108.704 816.748 -111.184 843.054 -110.63C893.824 -109.573 948.05 -97.2244 1008.82 -72.8677C1021.05 -67.9837 1033.62 -62.6089 1047.24 -56.5039C1069.66 -46.3458 1092.08 -35.357 1113.76 -24.7206C1128.15 -17.659 1143.03 -10.3582 1157.92 -3.32182C1275.25 52.0631 1405.04 98.0074 1530.52 142.416L1553.02 150.384L1552.54 151.617Z" fill="url(#paint18_linear_166_867)"/>
<path d="M1552.89 131.842C1514.65 117.656 1475.39 103.558 1437.41 89.9254C1343.85 56.3294 1247.09 21.588 1157.84 -17.2318C1143.54 -23.4501 1129.22 -29.9452 1115.35 -36.2012C1092.84 -46.3341 1069.56 -56.8195 1046.33 -66.4111C1032.64 -72.0881 1020.01 -77.0475 1007.71 -81.5161C946.851 -103.947 892.801 -115.502 842.435 -116.761C816.95 -117.416 791.477 -115.502 766.849 -113.589C750.826 -112.33 734.26 -111.072 717.972 -110.593C646.372 -108.453 574.344 -121.305 509.747 -147.827C479.467 -160.238 449.856 -175.973 421.254 -191.191C415.601 -194.203 409.953 -197.199 404.31 -200.178C363.116 -221.892 330.124 -236.682 303.439 -245.493L303.831 -246.752C330.578 -237.941 363.633 -223.15 404.89 -201.437C410.542 -198.466 416.194 -195.471 421.847 -192.45C450.423 -177.256 479.972 -161.535 510.226 -149.149C574.723 -122.715 646.574 -109.876 717.997 -112.078C734.247 -112.595 750.801 -113.853 766.811 -115.074C791.477 -116.962 816.987 -118.851 842.511 -118.246C892.978 -116.988 947.166 -105.42 1008.15 -82.9385C1020.47 -78.4196 1033.11 -73.4601 1046.82 -67.8335C1070.05 -58.1789 1093.34 -47.6935 1115.86 -37.6236C1129.74 -31.3298 1144.1 -24.9102 1158.38 -18.6668C1247.59 20.1404 1344.33 54.8693 1437.88 88.4652C1475.85 102.097 1515.12 116.158 1553.37 130.382L1552.89 131.842Z" fill="url(#paint19_linear_166_867)"/>
<path d="M1553.26 112.066C1491.44 88.1493 1427.42 65.4919 1365.54 43.7407C1296.58 19.4469 1225.27 -5.66516 1158.36 -32.338C1144.84 -37.7632 1131.21 -43.3521 1117.99 -48.7018C1094.43 -58.3689 1070.04 -68.376 1045.82 -77.5523C1032.04 -82.7635 1019.33 -87.3076 1006.97 -91.3985C945.934 -112.105 891.897 -122.892 841.847 -124.34C817.232 -125.095 792.642 -123.648 768.796 -122.263C752.067 -121.281 734.731 -120.274 717.813 -120.048C645.166 -119.166 575.56 -132.635 510.9 -160.013C484.203 -171.342 458.036 -185.188 432.739 -198.682C424.034 -203.301 415.076 -208.084 406.156 -212.691C365.909 -233.562 331.718 -247.634 304.643 -254.532L304.958 -255.791C332.172 -248.868 366.414 -234.757 406.737 -213.85C415.568 -209.243 424.627 -204.459 433.332 -199.827C458.566 -186.384 484.745 -172.474 511.392 -161.209C575.888 -133.843 645.343 -120.375 717.8 -121.306C734.732 -121.533 752.016 -122.565 768.721 -123.522C792.566 -124.906 817.219 -126.354 841.897 -125.599C892.036 -124.151 946.212 -113.338 1007.43 -92.6824C1019.8 -88.516 1032.52 -83.9719 1046.32 -78.7607C1070.59 -69.5718 1094.95 -59.5648 1118.52 -49.885C1131.69 -44.485 1145.3 -38.8835 1158.89 -33.5213C1225.76 -6.86098 1297.06 18.251 1366.01 42.5449C1427.9 64.3464 1491.91 86.8906 1553.77 110.882L1553.26 112.066Z" fill="url(#paint20_linear_166_867)"/>
<path d="M1553.61 92.3557C1473 59.7164 1388.83 31.3568 1307.42 3.92871C1258.22 -12.649 1207.32 -29.7932 1158.89 -47.3779C1146.43 -51.922 1133.88 -56.5793 1121.74 -61.0982C1096.81 -70.3626 1071.05 -79.9794 1045.45 -88.7026C1031.57 -93.4355 1018.82 -97.5138 1006.34 -101.378C945.023 -120.171 891.049 -130.115 841.251 -131.852C817.594 -132.671 794.001 -131.701 771.14 -130.783C753.59 -130.078 735.435 -129.335 717.645 -129.436C644.999 -129.914 575.834 -144.289 512.082 -172.233C488.3 -182.567 464.946 -195.054 442.35 -207.151C431.134 -213.142 419.539 -219.348 408.033 -225.214C367.937 -245.656 333.595 -258.571 305.838 -263.618L306.065 -264.877C333.885 -259.842 368.366 -246.852 408.563 -226.359C420.082 -220.481 431.689 -214.275 442.905 -208.284C465.489 -196.2 488.83 -183.725 512.562 -173.366C576.187 -145.548 645.175 -131.173 717.645 -130.694C735.41 -130.594 753.552 -131.336 771.089 -132.041C793.976 -132.973 817.645 -133.929 841.289 -133.111C891.2 -131.374 945.313 -121.405 1006.72 -102.637C1019.2 -98.8607 1031.95 -94.6942 1045.83 -89.9613C1071.44 -81.1501 1097.23 -71.6088 1122.16 -62.3444C1134.27 -57.8255 1146.89 -53.1555 1159.32 -48.624C1207.74 -31.0645 1258.62 -13.9203 1307.83 2.65738C1389.24 30.0855 1473.43 58.4577 1554.09 91.1222L1553.61 92.3557Z" fill="url(#paint21_linear_166_867)"/>
<path d="M1553.98 72.5164C1458.09 31.9973 1356.93 0.125854 1259.1 -30.7009C1226.19 -41.073 1192.17 -51.7975 1159.43 -62.5346C1148.54 -66.1179 1137.69 -69.7221 1126.88 -73.3473C1100.12 -82.297 1072.45 -91.5362 1045.02 -99.932C1031.14 -104.174 1018.23 -107.913 1005.68 -111.349C944.187 -128.241 890.201 -137.405 840.655 -139.356C818.235 -140.237 795.778 -139.734 774.039 -139.23C755.467 -138.802 736.277 -138.362 717.466 -138.827C644.819 -140.678 576.16 -155.997 513.291 -184.356C491.943 -193.973 470.899 -205.34 450.561 -216.316C437.301 -223.478 423.599 -230.88 409.923 -237.715C370.42 -257.578 334.879 -269.624 307.135 -272.683L307.274 -273.941C335.156 -270.845 370.849 -258.711 410.49 -238.835C424.179 -231.975 437.894 -224.573 451.154 -217.436C471.492 -206.472 492.511 -195.119 513.808 -185.514C576.488 -157.218 645.021 -141.936 717.504 -140.099C736.265 -139.633 755.455 -140.099 774.014 -140.501C795.765 -141.005 818.248 -141.521 840.706 -140.627C890.352 -138.676 944.427 -129.5 1005.98 -112.582C1018.6 -109.133 1031.43 -105.395 1045.36 -101.14C1072.81 -92.7446 1100.49 -83.518 1127.25 -74.5557C1138.07 -70.9473 1148.92 -67.3389 1159.81 -63.7304C1192.61 -52.9933 1226.59 -42.3317 1259.48 -31.9093C1357.33 -1.06995 1458.52 30.8267 1554.47 71.3081L1553.98 72.5164Z" fill="url(#paint22_linear_166_867)"/>
<path d="M1554.41 52.7419C1445.91 4.90952 1330.09 -28.4599 1218.09 -60.7845C1198.97 -66.2979 1179.22 -72 1160.05 -77.6392L1134.5 -85.1917C1105.13 -93.9274 1074.75 -102.94 1044.71 -111.072C1030.83 -114.848 1017.82 -118.171 1005.13 -121.255C943.361 -136.309 889.4 -144.68 840.069 -146.807C819.087 -147.739 798.018 -147.626 777.654 -147.512C757.834 -147.399 737.281 -147.286 717.309 -148.154C644.65 -151.389 576.406 -167.652 514.496 -196.49C495.193 -205.465 476.117 -215.887 457.721 -225.97C442.796 -234.127 427.366 -242.56 411.873 -250.188C384.305 -263.783 343.97 -280.285 308.416 -281.745V-283.004C344.172 -281.531 384.671 -264.966 412.365 -251.321C427.896 -243.731 443.338 -235.285 458.277 -227.128C476.709 -217.058 495.761 -206.636 515.051 -197.673C576.81 -168.911 644.889 -152.698 717.397 -149.463C737.395 -148.595 757.871 -148.708 777.667 -148.821C798.055 -148.935 819.138 -149.048 840.145 -148.116C889.514 -145.939 943.576 -137.556 1005.32 -122.488C1018.01 -119.404 1030.97 -116.069 1044.93 -112.305C1074.98 -104.174 1105.37 -95.1987 1134.76 -86.3875C1143.25 -83.87 1151.76 -81.3525 1160.29 -78.835C1179.51 -73.1958 1199.26 -67.5062 1218.33 -61.9803C1330.36 -29.6557 1446.21 3.78928 1554.8 51.6091L1554.41 52.7419Z" fill="url(#paint23_linear_166_867)"/>
<path d="M1554.7 32.9677C1435.68 -21.6117 1306.99 -54.9181 1182.54 -87.0288C1175.16 -88.9337 1167.8 -90.8386 1160.45 -92.7435L1146.33 -96.4568C1112.89 -105.193 1078.29 -114.23 1044.14 -122.274C1030.19 -125.534 1017.15 -128.454 1004.32 -131.186C942.575 -144.377 888.639 -151.968 839.472 -154.359C820.244 -155.303 800.928 -155.53 782.23 -155.744C760.782 -155.983 738.728 -156.235 717.141 -157.594C644.457 -162.226 576.68 -179.421 515.691 -208.712C498.129 -217.133 480.743 -226.788 463.963 -236.115C447.649 -245.153 430.794 -254.505 413.761 -262.763C386.131 -276.131 345.631 -291.865 309.674 -290.883V-292.142C345.884 -293.149 386.635 -277.326 414.392 -263.895C431.462 -255.625 448.343 -246.273 464.657 -237.21C481.462 -227.895 498.835 -218.253 516.385 -209.845C577.084 -180.629 644.747 -163.473 717.217 -158.853C738.766 -157.493 760.82 -157.242 782.268 -157.003C800.979 -156.789 820.307 -156.562 839.56 -155.618C888.765 -153.214 942.79 -145.624 1004.64 -132.407C1017.46 -129.688 1030.49 -126.767 1044.49 -123.47C1078.56 -115.426 1113.22 -106.388 1146.69 -97.64L1160.77 -93.9393L1182.85 -88.2372C1307.35 -56.0636 1436.1 -22.7823 1555.21 31.8348L1554.7 32.9677Z" fill="url(#paint24_linear_166_867)"/>
<path d="M1555.06 13.1917C1427.41 -47.7317 1285.86 -79.6662 1160.98 -107.787C1119.35 -117.265 1081.7 -125.724 1043.75 -133.352C1029.74 -136.171 1016.63 -138.689 1003.69 -141.055C941.868 -152.384 887.957 -159.181 838.878 -161.825C821.871 -162.731 804.813 -163.209 788.197 -163.675C764.781 -164.317 740.557 -164.934 716.976 -166.935C644.279 -172.965 576.931 -191.103 516.901 -220.835C500.828 -228.79 484.893 -237.765 469.488 -246.463C452.039 -256.319 434.048 -266.54 415.615 -275.276C387.858 -288.455 347.245 -303.421 310.897 -299.985L310.783 -301.244C347.371 -304.718 388.325 -289.651 416.17 -276.408C434.578 -267.66 452.657 -257.527 470.132 -247.608C485.511 -238.923 501.433 -229.986 517.469 -222.018C577.386 -192.349 644.544 -174.261 717.077 -168.206C740.633 -166.281 764.831 -165.601 788.235 -164.959C804.801 -164.493 821.922 -164.015 838.941 -163.096C888.071 -160.465 942.045 -153.668 1003.92 -142.314C1016.94 -139.973 1029.98 -137.455 1044 -134.636C1081.96 -127.008 1119.56 -118.536 1161.26 -109.045C1286.16 -80.8494 1427.82 -48.9023 1555.6 12.084L1555.06 13.1917Z" fill="url(#paint25_linear_166_867)"/>
</g>
</g>
</g>
<defs>
<linearGradient id="paint0_linear_166_867" x1="622.805" y1="983.154" x2="848.707" y2="-249.311" gradientUnits="userSpaceOnUse">
<stop stop-color="#F5F5F5"/>
<stop offset="0.94" stop-color="#E8F5FF"/>
</linearGradient>
<linearGradient id="paint1_linear_166_867" x1="-73.9355" y1="742.119" x2="1444.12" y2="742.119" gradientUnits="userSpaceOnUse">
<stop offset="0.06" stop-color="#ABE1FF"/>
<stop offset="1" stop-color="#D7EDFD" stop-opacity="0"/>
</linearGradient>
<linearGradient id="paint2_linear_166_867" x1="-71.2117" y1="771.132" x2="1447.23" y2="771.132" gradientUnits="userSpaceOnUse">
<stop offset="0.06" stop-color="#ABE1FF"/>
<stop offset="1" stop-color="#D7EDFD" stop-opacity="0"/>
</linearGradient>
<linearGradient id="paint3_linear_166_867" x1="-68.3945" y1="800.076" x2="1450.35" y2="800.076" gradientUnits="userSpaceOnUse">
<stop offset="0.06" stop-color="#ABE1FF"/>
<stop offset="1" stop-color="#D7EDFD" stop-opacity="0"/>
</linearGradient>
<linearGradient id="paint4_linear_166_867" x1="-65.582" y1="828.268" x2="1453.48" y2="828.268" gradientUnits="userSpaceOnUse">
<stop offset="0.06" stop-color="#ABE1FF"/>
<stop offset="1" stop-color="#D7EDFD" stop-opacity="0"/>
</linearGradient>
<linearGradient id="paint5_linear_166_867" x1="691.15" y1="1061.01" x2="691.15" y2="773.853" gradientUnits="userSpaceOnUse">
<stop offset="0.06" stop-color="#004BBA"/>
<stop offset="1" stop-color="#D7EDFD" stop-opacity="0"/>
</linearGradient>
<linearGradient id="paint6_linear_166_867" x1="469.789" y1="694.755" x2="1456.61" y2="694.755" gradientUnits="userSpaceOnUse">
<stop stop-color="#D7EDFD" stop-opacity="0"/>
<stop offset="0.94" stop-color="#3C90D6"/>
</linearGradient>
<linearGradient id="paint7_linear_166_867" x1="-68.9531" y1="731.029" x2="942.599" y2="731.029" gradientUnits="userSpaceOnUse">
<stop offset="0.06" stop-color="#ABE1FF"/>
<stop offset="1" stop-color="#D7EDFD" stop-opacity="0"/>
</linearGradient>
<linearGradient id="paint8_linear_166_867" x1="698.999" y1="32.9428" x2="698.999" y2="-187.93" gradientUnits="userSpaceOnUse">
<stop stop-color="#D7EDFD" stop-opacity="0"/>
<stop offset="0.94" stop-color="#3087CF"/>
</linearGradient>
<linearGradient id="paint9_linear_166_867" x1="-69.9609" y1="58.1418" x2="989.156" y2="58.1418" gradientUnits="userSpaceOnUse">
<stop offset="0.06" stop-color="#ABE1FF"/>
<stop offset="1" stop-color="#D7EDFD" stop-opacity="0"/>
</linearGradient>
<linearGradient id="paint10_linear_166_867" x1="292.238" y1="72.5919" x2="1549.93" y2="72.5919" gradientUnits="userSpaceOnUse">
<stop stop-color="#D7EDFD" stop-opacity="0"/>
<stop offset="0.94" stop-color="#19ADFF"/>
</linearGradient>
<linearGradient id="paint11_linear_166_867" x1="293.464" y1="58.1431" x2="1550.31" y2="58.1431" gradientUnits="userSpaceOnUse">
<stop stop-color="#D7EDFD" stop-opacity="0"/>
<stop offset="0.94" stop-color="#19ADFF"/>
</linearGradient>
<linearGradient id="paint12_linear_166_867" x1="294.693" y1="43.7027" x2="1550.68" y2="43.7027" gradientUnits="userSpaceOnUse">
<stop stop-color="#D7EDFD" stop-opacity="0"/>
<stop offset="0.94" stop-color="#19ADFF"/>
</linearGradient>
<linearGradient id="paint13_linear_166_867" x1="295.934" y1="29.2523" x2="1551.06" y2="29.2523" gradientUnits="userSpaceOnUse">
<stop stop-color="#D7EDFD" stop-opacity="0"/>
<stop offset="0.94" stop-color="#19ADFF"/>
</linearGradient>
<linearGradient id="paint14_linear_166_867" x1="297.158" y1="14.8185" x2="1551.44" y2="14.8185" gradientUnits="userSpaceOnUse">
<stop stop-color="#D7EDFD" stop-opacity="0"/>
<stop offset="0.94" stop-color="#19ADFF"/>
</linearGradient>
<linearGradient id="paint15_linear_166_867" x1="298.406" y1="0.378704" x2="1551.82" y2="0.378704" gradientUnits="userSpaceOnUse">
<stop stop-color="#D7EDFD" stop-opacity="0"/>
<stop offset="0.94" stop-color="#19ADFF"/>
</linearGradient>
<linearGradient id="paint16_linear_166_867" x1="299.645" y1="-14.0736" x2="1552.2" y2="-14.0736" gradientUnits="userSpaceOnUse">
<stop stop-color="#D7EDFD" stop-opacity="0"/>
<stop offset="0.94" stop-color="#19ADFF"/>
</linearGradient>
<linearGradient id="paint17_linear_166_867" x1="300.881" y1="-28.5095" x2="1552.58" y2="-28.5095" gradientUnits="userSpaceOnUse">
<stop stop-color="#D7EDFD" stop-opacity="0"/>
<stop offset="0.94" stop-color="#19ADFF"/>
</linearGradient>
<linearGradient id="paint18_linear_166_867" x1="302.128" y1="-42.9598" x2="1552.96" y2="-42.9598" gradientUnits="userSpaceOnUse">
<stop stop-color="#D7EDFD" stop-opacity="0"/>
<stop offset="0.94" stop-color="#19ADFF"/>
</linearGradient>
<linearGradient id="paint19_linear_166_867" x1="303.376" y1="-57.3985" x2="1553.33" y2="-57.3985" gradientUnits="userSpaceOnUse">
<stop stop-color="#D7EDFD" stop-opacity="0"/>
<stop offset="0.94" stop-color="#19ADFF"/>
</linearGradient>
<linearGradient id="paint20_linear_166_867" x1="304.63" y1="-71.8376" x2="1553.72" y2="-71.8376" gradientUnits="userSpaceOnUse">
<stop stop-color="#D7EDFD" stop-opacity="0"/>
<stop offset="0.94" stop-color="#19ADFF"/>
</linearGradient>
<linearGradient id="paint21_linear_166_867" x1="305.876" y1="-86.2732" x2="1554.09" y2="-86.2732" gradientUnits="userSpaceOnUse">
<stop stop-color="#D7EDFD" stop-opacity="0"/>
<stop offset="0.94" stop-color="#19ADFF"/>
</linearGradient>
<linearGradient id="paint22_linear_166_867" x1="307.135" y1="-100.712" x2="1554.47" y2="-100.712" gradientUnits="userSpaceOnUse">
<stop stop-color="#D7EDFD" stop-opacity="0"/>
<stop offset="0.94" stop-color="#19ADFF"/>
</linearGradient>
<linearGradient id="paint23_linear_166_867" x1="308.391" y1="-115.15" x2="1554.85" y2="-115.15" gradientUnits="userSpaceOnUse">
<stop stop-color="#D7EDFD" stop-opacity="0"/>
<stop offset="0.94" stop-color="#19ADFF"/>
</linearGradient>
<linearGradient id="paint24_linear_166_867" x1="309.598" y1="-129.612" x2="1555.23" y2="-129.612" gradientUnits="userSpaceOnUse">
<stop stop-color="#D7EDFD" stop-opacity="0"/>
<stop offset="0.94" stop-color="#19ADFF"/>
</linearGradient>
<linearGradient id="paint25_linear_166_867" x1="310.771" y1="-144.278" x2="1555.6" y2="-144.278" gradientUnits="userSpaceOnUse">
<stop stop-color="#D7EDFD" stop-opacity="0"/>
<stop offset="0.94" stop-color="#19ADFF"/>
</linearGradient>
<clipPath id="clip0_166_867">
<rect width="1300" height="768" fill="white"/>
</clipPath>
</defs>
</svg>
