<svg width="379" height="45" viewBox="0 0 379 45" fill="none" xmlns="http://www.w3.org/2000/svg">
<rect x="0.5" y="0.5" width="378" height="44" rx="6.5" fill="#F0F3F9" stroke="#164185"/>
<path d="M178.344 18.64V21.44H182.104V23.216H178.344V26.176H182.584V28H176.104V16.816H182.584V18.64H178.344ZM190.156 28L188.332 25.248L186.716 28H184.316L187.212 23.552L184.284 19.136H186.812L188.62 21.872L190.252 19.136H192.652L189.74 23.552L192.684 28H190.156ZM195.676 18.08C195.282 18.08 194.951 17.9573 194.684 17.712C194.428 17.456 194.3 17.1413 194.3 16.768C194.3 16.3947 194.428 16.0853 194.684 15.84C194.951 15.584 195.282 15.456 195.676 15.456C196.071 15.456 196.396 15.584 196.652 15.84C196.919 16.0853 197.052 16.3947 197.052 16.768C197.052 17.1413 196.919 17.456 196.652 17.712C196.396 17.9573 196.071 18.08 195.676 18.08ZM196.78 19.136V28H194.54V19.136H196.78ZM202.241 20.976V25.264C202.241 25.5627 202.311 25.7813 202.449 25.92C202.599 26.048 202.844 26.112 203.185 26.112H204.225V28H202.817C200.929 28 199.985 27.0827 199.985 25.248V20.976H198.929V19.136H199.985V16.944H202.241V19.136H204.225V20.976H202.241Z" fill="#164185"/>
</svg>
