<svg width="379" height="74" viewBox="0 0 379 74" fill="none" xmlns="http://www.w3.org/2000/svg">
<rect x="0.5" y="29.5" width="378" height="44" rx="6.5" fill="#F5F8FD" stroke="#DAE0E6"/>
<path d="M3.008 6.88V13.968C3.008 14.8107 3.22667 15.4453 3.664 15.872C4.112 16.2987 4.73067 16.512 5.52 16.512C6.32 16.512 6.93867 16.2987 7.376 15.872C7.824 15.4453 8.048 14.8107 8.048 13.968V6.88H9.872V13.936C9.872 14.8427 9.67467 15.6107 9.28 16.24C8.88533 16.8693 8.35733 17.3387 7.696 17.648C7.03467 17.9573 6.304 18.112 5.504 18.112C4.704 18.112 3.97333 17.9573 3.312 17.648C2.66133 17.3387 2.144 16.8693 1.76 16.24C1.376 15.6107 1.184 14.8427 1.184 13.936V6.88H3.008ZM15.7669 18.144C15.0735 18.144 14.4495 18.0213 13.8949 17.776C13.3509 17.52 12.9189 17.1787 12.5989 16.752C12.2789 16.3147 12.1082 15.8293 12.0869 15.296H13.9749C14.0069 15.6693 14.1829 15.984 14.5029 16.24C14.8335 16.4853 15.2442 16.608 15.7349 16.608C16.2469 16.608 16.6415 16.512 16.9189 16.32C17.2069 16.1173 17.3509 15.8613 17.3509 15.552C17.3509 15.2213 17.1909 14.976 16.8709 14.816C16.5615 14.656 16.0655 14.48 15.3829 14.288C14.7215 14.1067 14.1829 13.9307 13.7669 13.76C13.3509 13.5893 12.9882 13.328 12.6789 12.976C12.3802 12.624 12.2309 12.16 12.2309 11.584C12.2309 11.1147 12.3695 10.688 12.6469 10.304C12.9242 9.90933 13.3189 9.6 13.8309 9.376C14.3535 9.152 14.9509 9.04 15.6229 9.04C16.6255 9.04 17.4309 9.296 18.0389 9.808C18.6575 10.3093 18.9882 10.9973 19.0309 11.872H17.2069C17.1749 11.4773 17.0149 11.1627 16.7269 10.928C16.4389 10.6933 16.0495 10.576 15.5589 10.576C15.0789 10.576 14.7109 10.6667 14.4549 10.848C14.1989 11.0293 14.0709 11.2693 14.0709 11.568C14.0709 11.8027 14.1562 12 14.3269 12.16C14.4975 12.32 14.7055 12.448 14.9509 12.544C15.1962 12.6293 15.5589 12.7413 16.0389 12.88C16.6789 13.0507 17.2015 13.2267 17.6069 13.408C18.0229 13.5787 18.3802 13.8347 18.6789 14.176C18.9775 14.5173 19.1322 14.9707 19.1429 15.536C19.1429 16.0373 19.0042 16.4853 18.7269 16.88C18.4495 17.2747 18.0549 17.584 17.5429 17.808C17.0415 18.032 16.4495 18.144 15.7669 18.144ZM29.5138 13.376C29.5138 13.7067 29.4924 14.0053 29.4497 14.272H22.7137C22.7671 14.976 23.0284 15.5413 23.4977 15.968C23.9671 16.3947 24.5431 16.608 25.2257 16.608C26.2071 16.608 26.9004 16.1973 27.3057 15.376H29.2737C29.0071 16.1867 28.5217 16.8533 27.8177 17.376C27.1244 17.888 26.2604 18.144 25.2257 18.144C24.3831 18.144 23.6257 17.9573 22.9537 17.584C22.2924 17.2 21.7697 16.6667 21.3857 15.984C21.0124 15.2907 20.8257 14.4907 20.8257 13.584C20.8257 12.6773 21.0071 11.8827 21.3697 11.2C21.7431 10.5067 22.2604 9.97333 22.9217 9.6C23.5937 9.22667 24.3617 9.04 25.2257 9.04C26.0577 9.04 26.7991 9.22133 27.4497 9.584C28.1004 9.94667 28.6071 10.4587 28.9697 11.12C29.3324 11.7707 29.5138 12.5227 29.5138 13.376ZM27.6097 12.8C27.5991 12.128 27.3591 11.5893 26.8897 11.184C26.4204 10.7787 25.8391 10.576 25.1457 10.576C24.5164 10.576 23.9777 10.7787 23.5297 11.184C23.0817 11.5787 22.8151 12.1173 22.7297 12.8H27.6097ZM33.4527 10.464C33.7194 10.016 34.0714 9.66933 34.5087 9.424C34.9567 9.168 35.4847 9.04 36.0927 9.04V10.928H35.6287C34.9141 10.928 34.3701 11.1093 33.9967 11.472C33.6341 11.8347 33.4527 12.464 33.4527 13.36V18H31.6287V9.184H33.4527V10.464ZM42.5374 9.04C43.2307 9.04 43.8494 9.184 44.3934 9.472C44.948 9.76 45.38 10.1867 45.6894 10.752C45.9987 11.3173 46.1534 12 46.1534 12.8V18H44.3454V13.072C44.3454 12.2827 44.148 11.68 43.7534 11.264C43.3587 10.8373 42.82 10.624 42.1374 10.624C41.4547 10.624 40.9107 10.8373 40.5054 11.264C40.1107 11.68 39.9134 12.2827 39.9134 13.072V18H38.0894V9.184H39.9134V10.192C40.212 9.82933 40.5907 9.54667 41.0494 9.344C41.5187 9.14133 42.0147 9.04 42.5374 9.04ZM48.192 13.552C48.192 12.6667 48.3733 11.8827 48.736 11.2C49.1093 10.5173 49.6107 9.98933 50.24 9.616C50.88 9.232 51.584 9.04 52.352 9.04C53.0453 9.04 53.648 9.17867 54.16 9.456C54.6827 9.72267 55.0987 10.0587 55.408 10.464V9.184H57.248V18H55.408V16.688C55.0987 17.104 54.6773 17.4507 54.144 17.728C53.6107 18.0053 53.0027 18.144 52.32 18.144C51.5627 18.144 50.8693 17.952 50.24 17.568C49.6107 17.1733 49.1093 16.6293 48.736 15.936C48.3733 15.232 48.192 14.4373 48.192 13.552ZM55.408 13.584C55.408 12.976 55.28 12.448 55.024 12C54.7787 11.552 54.4533 11.2107 54.048 10.976C53.6427 10.7413 53.2053 10.624 52.736 10.624C52.2667 10.624 51.8293 10.7413 51.424 10.976C51.0187 11.2 50.688 11.536 50.432 11.984C50.1867 12.4213 50.064 12.944 50.064 13.552C50.064 14.16 50.1867 14.6933 50.432 15.152C50.688 15.6107 51.0187 15.9627 51.424 16.208C51.84 16.4427 52.2773 16.56 52.736 16.56C53.2053 16.56 53.6427 16.4427 54.048 16.208C54.4533 15.9733 54.7787 15.632 55.024 15.184C55.28 14.7253 55.408 14.192 55.408 13.584ZM70.6357 9.04C71.3291 9.04 71.9477 9.184 72.4917 9.472C73.0464 9.76 73.4784 10.1867 73.7877 10.752C74.1077 11.3173 74.2677 12 74.2677 12.8V18H72.4597V13.072C72.4597 12.2827 72.2624 11.68 71.8677 11.264C71.4731 10.8373 70.9344 10.624 70.2517 10.624C69.5691 10.624 69.0251 10.8373 68.6197 11.264C68.2251 11.68 68.0277 12.2827 68.0277 13.072V18H66.2197V13.072C66.2197 12.2827 66.0224 11.68 65.6277 11.264C65.2331 10.8373 64.6944 10.624 64.0117 10.624C63.3291 10.624 62.7851 10.8373 62.3797 11.264C61.9851 11.68 61.7877 12.2827 61.7877 13.072V18H59.9637V9.184H61.7877V10.192C62.0864 9.82933 62.4651 9.54667 62.9237 9.344C63.3824 9.14133 63.8731 9.04 64.3957 9.04C65.0997 9.04 65.7291 9.18933 66.2837 9.488C66.8384 9.78667 67.2651 10.2187 67.5637 10.784C67.8304 10.2507 68.2464 9.82933 68.8117 9.52C69.3771 9.2 69.9851 9.04 70.6357 9.04ZM84.9887 13.376C84.9887 13.7067 84.9674 14.0053 84.9247 14.272H78.1887C78.2421 14.976 78.5034 15.5413 78.9727 15.968C79.4421 16.3947 80.0181 16.608 80.7007 16.608C81.6821 16.608 82.3754 16.1973 82.7807 15.376H84.7487C84.4821 16.1867 83.9967 16.8533 83.2927 17.376C82.5994 17.888 81.7354 18.144 80.7007 18.144C79.8581 18.144 79.1007 17.9573 78.4287 17.584C77.7674 17.2 77.2447 16.6667 76.8607 15.984C76.4874 15.2907 76.3007 14.4907 76.3007 13.584C76.3007 12.6773 76.4821 11.8827 76.8447 11.2C77.2181 10.5067 77.7354 9.97333 78.3967 9.6C79.0687 9.22667 79.8367 9.04 80.7007 9.04C81.5327 9.04 82.2741 9.22133 82.9247 9.584C83.5754 9.94667 84.0821 10.4587 84.4447 11.12C84.8074 11.7707 84.9887 12.5227 84.9887 13.376ZM83.0847 12.8C83.0741 12.128 82.8341 11.5893 82.3647 11.184C81.8954 10.7787 81.3141 10.576 80.6207 10.576C79.9914 10.576 79.4527 10.7787 79.0047 11.184C78.5567 11.5787 78.2901 12.1173 78.2047 12.8H83.0847Z" fill="#5C6168"/>
</svg>
