<svg width="379" height="45" viewBox="0 0 379 45" fill="none" xmlns="http://www.w3.org/2000/svg">
<rect x="0.5" y="0.5" width="378" height="44" rx="6.5" fill="#F0F3F9" stroke="#164185"/>
<path d="M167.344 26.224H171.024V28H165.104V16.832H167.344V26.224ZM178.272 28.112C177.226 28.112 176.266 27.8667 175.392 27.376C174.517 26.8853 173.824 26.208 173.312 25.344C172.8 24.4693 172.544 23.4827 172.544 22.384C172.544 21.296 172.8 20.32 173.312 19.456C173.824 18.5813 174.517 17.8987 175.392 17.408C176.266 16.9173 177.226 16.672 178.272 16.672C179.328 16.672 180.288 16.9173 181.152 17.408C182.026 17.8987 182.714 18.5813 183.216 19.456C183.728 20.32 183.984 21.296 183.984 22.384C183.984 23.4827 183.728 24.4693 183.216 25.344C182.714 26.208 182.026 26.8853 181.152 27.376C180.277 27.8667 179.317 28.112 178.272 28.112ZM178.272 26.112C178.944 26.112 179.536 25.9627 180.048 25.664C180.56 25.3547 180.96 24.9173 181.248 24.352C181.536 23.7867 181.68 23.1307 181.68 22.384C181.68 21.6373 181.536 20.9867 181.248 20.432C180.96 19.8667 180.56 19.4347 180.048 19.136C179.536 18.8373 178.944 18.688 178.272 18.688C177.6 18.688 177.002 18.8373 176.48 19.136C175.968 19.4347 175.568 19.8667 175.28 20.432C174.992 20.9867 174.848 21.6373 174.848 22.384C174.848 23.1307 174.992 23.7867 175.28 24.352C175.568 24.9173 175.968 25.3547 176.48 25.664C177.002 25.9627 177.6 26.112 178.272 26.112ZM194.066 20.192C193.81 19.7227 193.458 19.3653 193.01 19.12C192.562 18.8747 192.04 18.752 191.442 18.752C190.781 18.752 190.194 18.9013 189.682 19.2C189.17 19.4987 188.77 19.9253 188.482 20.48C188.194 21.0347 188.05 21.6747 188.05 22.4C188.05 23.1467 188.194 23.7973 188.482 24.352C188.781 24.9067 189.192 25.3333 189.714 25.632C190.237 25.9307 190.845 26.08 191.538 26.08C192.392 26.08 193.09 25.856 193.634 25.408C194.178 24.9493 194.536 24.3147 194.706 23.504H190.866V21.792H196.914V23.744C196.765 24.5227 196.445 25.2427 195.954 25.904C195.464 26.5653 194.829 27.0987 194.05 27.504C193.282 27.8987 192.418 28.096 191.458 28.096C190.381 28.096 189.405 27.856 188.53 27.376C187.666 26.8853 186.984 26.208 186.482 25.344C185.992 24.48 185.746 23.4987 185.746 22.4C185.746 21.3013 185.992 20.32 186.482 19.456C186.984 18.5813 187.666 17.904 188.53 17.424C189.405 16.9333 190.376 16.688 191.442 16.688C192.701 16.688 193.794 16.9973 194.722 17.616C195.65 18.224 196.29 19.0827 196.642 20.192H194.066ZM201.451 16.832V28H199.211V16.832H201.451ZM213.857 28H211.617L206.545 20.336V28H204.305V16.816H206.545L211.617 24.496V16.816H213.857V28Z" fill="#164185"/>
</svg>
