<svg width="379" height="74" viewBox="0 0 379 74" fill="none" xmlns="http://www.w3.org/2000/svg">
<rect x="0.5" y="29.5" width="378" height="44" rx="6.5" fill="#F5F8FD" stroke="#DAE0E6"/>
<path d="M8.976 10.192C8.976 10.7573 8.84267 11.2907 8.576 11.792C8.30933 12.2933 7.88267 12.704 7.296 13.024C6.70933 13.3333 5.95733 13.488 5.04 13.488H3.024V18H1.2V6.88H5.04C5.89333 6.88 6.61333 7.02933 7.2 7.328C7.79733 7.616 8.24 8.01067 8.528 8.512C8.82667 9.01333 8.976 9.57333 8.976 10.192ZM5.04 12C5.73333 12 6.25067 11.8453 6.592 11.536C6.93333 11.216 7.104 10.768 7.104 10.192C7.104 8.976 6.416 8.368 5.04 8.368H3.024V12H5.04ZM10.4276 13.552C10.4276 12.6667 10.609 11.8827 10.9716 11.2C11.345 10.5173 11.8463 9.98933 12.4756 9.616C13.1156 9.232 13.8196 9.04 14.5876 9.04C15.281 9.04 15.8836 9.17867 16.3956 9.456C16.9183 9.72267 17.3343 10.0587 17.6436 10.464V9.184H19.4836V18H17.6436V16.688C17.3343 17.104 16.913 17.4507 16.3796 17.728C15.8463 18.0053 15.2383 18.144 14.5556 18.144C13.7983 18.144 13.105 17.952 12.4756 17.568C11.8463 17.1733 11.345 16.6293 10.9716 15.936C10.609 15.232 10.4276 14.4373 10.4276 13.552ZM17.6436 13.584C17.6436 12.976 17.5156 12.448 17.2596 12C17.0143 11.552 16.689 11.2107 16.2836 10.976C15.8783 10.7413 15.441 10.624 14.9716 10.624C14.5023 10.624 14.065 10.7413 13.6596 10.976C13.2543 11.2 12.9236 11.536 12.6676 11.984C12.4223 12.4213 12.2996 12.944 12.2996 13.552C12.2996 14.16 12.4223 14.6933 12.6676 15.152C12.9236 15.6107 13.2543 15.9627 13.6596 16.208C14.0756 16.4427 14.513 16.56 14.9716 16.56C15.441 16.56 15.8783 16.4427 16.2836 16.208C16.689 15.9733 17.0143 15.632 17.2596 15.184C17.5156 14.7253 17.6436 14.192 17.6436 13.584ZM25.3994 18.144C24.706 18.144 24.082 18.0213 23.5274 17.776C22.9834 17.52 22.5514 17.1787 22.2314 16.752C21.9114 16.3147 21.7407 15.8293 21.7194 15.296H23.6074C23.6394 15.6693 23.8154 15.984 24.1354 16.24C24.466 16.4853 24.8767 16.608 25.3674 16.608C25.8794 16.608 26.274 16.512 26.5514 16.32C26.8394 16.1173 26.9834 15.8613 26.9834 15.552C26.9834 15.2213 26.8234 14.976 26.5034 14.816C26.194 14.656 25.698 14.48 25.0154 14.288C24.354 14.1067 23.8154 13.9307 23.3994 13.76C22.9834 13.5893 22.6207 13.328 22.3114 12.976C22.0127 12.624 21.8634 12.16 21.8634 11.584C21.8634 11.1147 22.002 10.688 22.2794 10.304C22.5567 9.90933 22.9514 9.6 23.4634 9.376C23.986 9.152 24.5834 9.04 25.2554 9.04C26.258 9.04 27.0634 9.296 27.6714 9.808C28.29 10.3093 28.6207 10.9973 28.6634 11.872H26.8394C26.8074 11.4773 26.6474 11.1627 26.3594 10.928C26.0714 10.6933 25.682 10.576 25.1914 10.576C24.7114 10.576 24.3434 10.6667 24.0874 10.848C23.8314 11.0293 23.7034 11.2693 23.7034 11.568C23.7034 11.8027 23.7887 12 23.9594 12.16C24.13 12.32 24.338 12.448 24.5834 12.544C24.8287 12.6293 25.1914 12.7413 25.6714 12.88C26.3114 13.0507 26.834 13.2267 27.2394 13.408C27.6554 13.5787 28.0127 13.8347 28.3114 14.176C28.61 14.5173 28.7647 14.9707 28.7754 15.536C28.7754 16.0373 28.6367 16.4853 28.3594 16.88C28.082 17.2747 27.6874 17.584 27.1754 17.808C26.674 18.032 26.082 18.144 25.3994 18.144ZM34.2662 18.144C33.5729 18.144 32.9489 18.0213 32.3942 17.776C31.8502 17.52 31.4182 17.1787 31.0982 16.752C30.7782 16.3147 30.6076 15.8293 30.5862 15.296H32.4742C32.5062 15.6693 32.6822 15.984 33.0022 16.24C33.3329 16.4853 33.7436 16.608 34.2342 16.608C34.7462 16.608 35.1409 16.512 35.4182 16.32C35.7062 16.1173 35.8502 15.8613 35.8502 15.552C35.8502 15.2213 35.6902 14.976 35.3702 14.816C35.0609 14.656 34.5649 14.48 33.8822 14.288C33.2209 14.1067 32.6822 13.9307 32.2662 13.76C31.8502 13.5893 31.4876 13.328 31.1782 12.976C30.8796 12.624 30.7302 12.16 30.7302 11.584C30.7302 11.1147 30.8689 10.688 31.1462 10.304C31.4236 9.90933 31.8182 9.6 32.3302 9.376C32.8529 9.152 33.4502 9.04 34.1222 9.04C35.1249 9.04 35.9302 9.296 36.5382 9.808C37.1569 10.3093 37.4876 10.9973 37.5302 11.872H35.7062C35.6742 11.4773 35.5142 11.1627 35.2262 10.928C34.9382 10.6933 34.5489 10.576 34.0582 10.576C33.5782 10.576 33.2102 10.6667 32.9542 10.848C32.6982 11.0293 32.5702 11.2693 32.5702 11.568C32.5702 11.8027 32.6556 12 32.8262 12.16C32.9969 12.32 33.2049 12.448 33.4502 12.544C33.6956 12.6293 34.0582 12.7413 34.5382 12.88C35.1782 13.0507 35.7009 13.2267 36.1062 13.408C36.5222 13.5787 36.8796 13.8347 37.1782 14.176C37.4769 14.5173 37.6316 14.9707 37.6422 15.536C37.6422 16.0373 37.5036 16.4853 37.2262 16.88C36.9489 17.2747 36.5542 17.584 36.0422 17.808C35.5409 18.032 34.9489 18.144 34.2662 18.144ZM51.7731 9.184L49.0371 18H47.1171L45.3411 11.488L43.5651 18H41.6451L38.8931 9.184H40.7491L42.5891 16.272L44.4611 9.184H46.3651L48.1571 16.24L49.9811 9.184H51.7731ZM57.2802 18.144C56.4482 18.144 55.6962 17.9573 55.0242 17.584C54.3522 17.2 53.8242 16.6667 53.4402 15.984C53.0562 15.2907 52.8642 14.4907 52.8642 13.584C52.8642 12.688 53.0616 11.8933 53.4562 11.2C53.8509 10.5067 54.3896 9.97333 55.0722 9.6C55.7549 9.22667 56.5176 9.04 57.3602 9.04C58.2029 9.04 58.9656 9.22667 59.6482 9.6C60.3309 9.97333 60.8696 10.5067 61.2642 11.2C61.6589 11.8933 61.8562 12.688 61.8562 13.584C61.8562 14.48 61.6536 15.2747 61.2482 15.968C60.8429 16.6613 60.2882 17.2 59.5842 17.584C58.8909 17.9573 58.1229 18.144 57.2802 18.144ZM57.2802 16.56C57.7496 16.56 58.1869 16.448 58.5922 16.224C59.0082 16 59.3442 15.664 59.6002 15.216C59.8562 14.768 59.9842 14.224 59.9842 13.584C59.9842 12.944 59.8616 12.4053 59.6162 11.968C59.3709 11.52 59.0456 11.184 58.6402 10.96C58.2349 10.736 57.7976 10.624 57.3282 10.624C56.8589 10.624 56.4216 10.736 56.0162 10.96C55.6216 11.184 55.3069 11.52 55.0722 11.968C54.8376 12.4053 54.7202 12.944 54.7202 13.584C54.7202 14.5333 54.9602 15.2693 55.4402 15.792C55.9309 16.304 56.5442 16.56 57.2802 16.56ZM65.8034 10.464C66.07 10.016 66.422 9.66933 66.8594 9.424C67.3074 9.168 67.8354 9.04 68.4434 9.04V10.928H67.9794C67.2647 10.928 66.7207 11.1093 66.3474 11.472C65.9847 11.8347 65.8034 12.464 65.8034 13.36V18H63.9794V9.184H65.8034V10.464ZM69.832 13.552C69.832 12.6667 70.0133 11.8827 70.376 11.2C70.7493 10.5173 71.2507 9.98933 71.88 9.616C72.52 9.232 73.2293 9.04 74.008 9.04C74.584 9.04 75.1493 9.168 75.704 9.424C76.2693 9.66933 76.7173 10 77.048 10.416V6.16H78.888V18H77.048V16.672C76.7493 17.0987 76.3333 17.4507 75.8 17.728C75.2773 18.0053 74.6747 18.144 73.992 18.144C73.224 18.144 72.52 17.952 71.88 17.568C71.2507 17.1733 70.7493 16.6293 70.376 15.936C70.0133 15.232 69.832 14.4373 69.832 13.552ZM77.048 13.584C77.048 12.976 76.92 12.448 76.664 12C76.4187 11.552 76.0933 11.2107 75.688 10.976C75.2827 10.7413 74.8453 10.624 74.376 10.624C73.9067 10.624 73.4693 10.7413 73.064 10.976C72.6587 11.2 72.328 11.536 72.072 11.984C71.8267 12.4213 71.704 12.944 71.704 13.552C71.704 14.16 71.8267 14.6933 72.072 15.152C72.328 15.6107 72.6587 15.9627 73.064 16.208C73.48 16.4427 73.9173 16.56 74.376 16.56C74.8453 16.56 75.2827 16.4427 75.688 16.208C76.0933 15.9733 76.4187 15.632 76.664 15.184C76.92 14.7253 77.048 14.192 77.048 13.584Z" fill="#5C6168"/>
</svg>
