<svg width="100" height="156" viewBox="0 0 100 156" fill="none" xmlns="http://www.w3.org/2000/svg">
<rect width="100" height="156" rx="19" fill="#F9FBFF"/>
<path d="M25.8659 109.34C26.0152 109.34 26.1459 109.382 26.2579 109.466C26.3699 109.55 26.4492 109.662 26.4959 109.802L29.4219 119H27.6299L25.4179 111.552C25.3806 111.403 25.3432 111.253 25.3059 111.104C25.2686 110.955 25.2359 110.81 25.2079 110.67H24.8159C24.7879 110.81 24.7552 110.955 24.7179 111.104C24.6806 111.253 24.6386 111.403 24.5919 111.552L22.3939 119H20.6019L23.5279 109.802C23.5652 109.662 23.6399 109.55 23.7519 109.466C23.8732 109.382 24.0086 109.34 24.1579 109.34H25.8659ZM27.4899 114.87V116.242H22.5199V114.87H27.4899ZM33.323 111.958C33.7897 111.958 34.247 112.023 34.695 112.154C35.143 112.275 35.549 112.481 35.913 112.77L35.801 113.624C35.437 113.521 35.1103 113.433 34.821 113.358C34.5317 113.283 34.2097 113.246 33.855 113.246C33.519 113.246 33.2483 113.307 33.043 113.428C32.847 113.54 32.6977 113.759 32.595 114.086C32.5017 114.413 32.455 114.889 32.455 115.514C32.455 116.111 32.5017 116.573 32.595 116.9C32.6883 117.217 32.833 117.441 33.029 117.572C33.225 117.693 33.4817 117.754 33.799 117.754C34.051 117.754 34.275 117.726 34.471 117.67C34.667 117.605 34.8677 117.511 35.073 117.39C35.2783 117.259 35.5163 117.096 35.787 116.9L35.927 117.852C35.6097 118.216 35.2177 118.529 34.751 118.79C34.2937 119.042 33.7617 119.168 33.155 119.168C32.2777 119.168 31.6523 118.86 31.279 118.244C30.9057 117.619 30.719 116.713 30.719 115.528C30.719 114.623 30.8123 113.913 30.999 113.4C31.195 112.877 31.4843 112.509 31.867 112.294C32.259 112.07 32.7443 111.958 33.323 111.958ZM37.299 109.2V119H35.969L35.787 117.768L35.605 117.628V113.036L35.689 112.84C35.6517 112.569 35.6283 112.299 35.619 112.028C35.6097 111.748 35.605 111.463 35.605 111.174V109.2H37.299ZM46.3558 112.126L43.9898 118.594C43.9431 118.715 43.8685 118.813 43.7658 118.888C43.6725 118.963 43.5558 119 43.4158 119H41.9318C41.8011 119 41.6845 118.963 41.5818 118.888C41.4791 118.813 41.4045 118.715 41.3578 118.594L38.9918 112.126H40.7978L42.2398 116.634C42.3051 116.839 42.3658 117.049 42.4218 117.264C42.4778 117.469 42.5291 117.67 42.5758 117.866H42.7578C42.8231 117.661 42.8838 117.455 42.9398 117.25C43.0051 117.045 43.0658 116.839 43.1218 116.634L44.5638 112.126H46.3558ZM51.4227 111.958C51.9734 111.958 52.4354 112.033 52.8087 112.182C53.1914 112.322 53.4807 112.565 53.6767 112.91C53.8727 113.255 53.9707 113.731 53.9707 114.338V119H52.6267L52.3887 117.516L52.2627 117.32V114.324C52.2627 113.96 52.1787 113.699 52.0107 113.54C51.8427 113.372 51.5207 113.288 51.0447 113.288C50.69 113.288 50.242 113.302 49.7007 113.33C49.1687 113.358 48.632 113.395 48.0907 113.442L47.9367 112.28C48.2634 112.215 48.632 112.159 49.0427 112.112C49.4534 112.065 49.8687 112.028 50.2887 112C50.7087 111.972 51.0867 111.958 51.4227 111.958ZM53.2427 114.772L53.2287 115.822H50.0787C49.7987 115.831 49.598 115.906 49.4767 116.046C49.3554 116.186 49.2947 116.377 49.2947 116.62V116.998C49.2947 117.278 49.3694 117.493 49.5187 117.642C49.668 117.782 49.9014 117.852 50.2187 117.852C50.4707 117.852 50.7507 117.801 51.0587 117.698C51.3667 117.595 51.67 117.446 51.9687 117.25C52.2767 117.054 52.552 116.821 52.7947 116.55V117.432C52.7014 117.572 52.566 117.74 52.3887 117.936C52.2114 118.123 51.992 118.309 51.7307 118.496C51.4787 118.683 51.1847 118.837 50.8487 118.958C50.522 119.079 50.158 119.14 49.7567 119.14C49.346 119.14 48.9774 119.07 48.6507 118.93C48.324 118.781 48.0674 118.566 47.8807 118.286C47.694 117.997 47.6007 117.642 47.6007 117.222V116.494C47.6007 115.953 47.778 115.533 48.1327 115.234C48.4967 114.926 48.9914 114.772 49.6167 114.772H53.2427ZM60.8944 111.958C62.173 111.958 62.8124 112.588 62.8124 113.848V119H61.1184V114.366C61.1184 113.993 61.053 113.736 60.9224 113.596C60.7917 113.456 60.5724 113.386 60.2644 113.386C59.919 113.386 59.5644 113.465 59.2004 113.624C58.8364 113.773 58.3977 113.993 57.8844 114.282L57.8144 113.26C58.3184 112.84 58.8317 112.518 59.3544 112.294C59.877 112.07 60.3904 111.958 60.8944 111.958ZM57.7584 112.126L57.9264 113.47L58.0664 113.666V119H56.3724V112.126H57.7584ZM68.3112 111.958C68.5445 111.958 68.8012 111.967 69.0812 111.986C69.3612 112.005 69.6458 112.042 69.9352 112.098C70.2245 112.154 70.4858 112.233 70.7192 112.336L70.5232 113.4C70.1778 113.381 69.8325 113.367 69.4872 113.358C69.1512 113.349 68.8572 113.344 68.6052 113.344C68.1292 113.344 67.7512 113.409 67.4712 113.54C67.2005 113.661 67.0045 113.885 66.8832 114.212C66.7618 114.529 66.7012 114.977 66.7012 115.556C66.7012 116.135 66.7618 116.587 66.8832 116.914C67.0045 117.231 67.2005 117.455 67.4712 117.586C67.7512 117.717 68.1292 117.782 68.6052 117.782C68.7452 117.782 68.9272 117.777 69.1512 117.768C69.3845 117.759 69.6318 117.745 69.8932 117.726C70.1638 117.707 70.4252 117.684 70.6772 117.656L70.8452 118.748C70.4812 118.897 70.0752 119.005 69.6272 119.07C69.1792 119.135 68.7358 119.168 68.2972 119.168C67.4758 119.168 66.8178 119.051 66.3232 118.818C65.8285 118.585 65.4692 118.207 65.2452 117.684C65.0305 117.152 64.9232 116.443 64.9232 115.556C64.9232 114.669 65.0352 113.965 65.2592 113.442C65.4832 112.91 65.8425 112.532 66.3372 112.308C66.8318 112.075 67.4898 111.958 68.3112 111.958ZM75.7615 111.958C76.8721 111.958 77.6701 112.154 78.1555 112.546C78.6408 112.929 78.8881 113.498 78.8975 114.254C78.9068 114.879 78.7575 115.355 78.4495 115.682C78.1508 115.999 77.6515 116.158 76.9515 116.158H73.0315V115.108H76.4895C76.8068 115.108 77.0075 115.024 77.0915 114.856C77.1848 114.688 77.2315 114.483 77.2315 114.24C77.2221 113.857 77.1101 113.591 76.8955 113.442C76.6901 113.293 76.3355 113.218 75.8315 113.218C75.3928 113.218 75.0521 113.279 74.8095 113.4C74.5668 113.521 74.3941 113.741 74.2915 114.058C74.1981 114.375 74.1515 114.833 74.1515 115.43C74.1515 116.065 74.2121 116.555 74.3335 116.9C74.4548 117.245 74.6555 117.483 74.9355 117.614C75.2155 117.735 75.5888 117.796 76.0555 117.796C76.4008 117.796 76.7975 117.782 77.2455 117.754C77.7028 117.726 78.1415 117.689 78.5615 117.642L78.7295 118.72C78.4775 118.823 78.1881 118.907 77.8615 118.972C77.5348 119.037 77.1941 119.084 76.8395 119.112C76.4941 119.149 76.1675 119.168 75.8595 119.168C75.0195 119.168 74.3428 119.047 73.8295 118.804C73.3255 118.552 72.9568 118.16 72.7235 117.628C72.4995 117.096 72.3875 116.41 72.3875 115.57C72.3875 114.665 72.4995 113.951 72.7235 113.428C72.9568 112.896 73.3208 112.518 73.8155 112.294C74.3195 112.07 74.9681 111.958 75.7615 111.958ZM34.1774 127.312C34.6628 127.312 35.1574 127.312 35.6614 127.312C36.1748 127.312 36.6788 127.321 37.1734 127.34C37.6681 127.359 38.1348 127.387 38.5734 127.424L38.4894 128.726H34.7094C34.4481 128.726 34.2521 128.791 34.1214 128.922C34.0001 129.053 33.9394 129.258 33.9394 129.538V134.802C33.9394 135.082 34.0001 135.287 34.1214 135.418C34.2521 135.549 34.4481 135.614 34.7094 135.614H38.4894L38.5734 136.916C38.1348 136.953 37.6681 136.981 37.1734 137C36.6788 137.009 36.1748 137.014 35.6614 137.014C35.1574 137.023 34.6628 137.028 34.1774 137.028C33.5801 137.028 33.0994 136.865 32.7354 136.538C32.3808 136.202 32.1988 135.754 32.1894 135.194V129.146C32.1988 128.586 32.3808 128.143 32.7354 127.816C33.0994 127.48 33.5801 127.312 34.1774 127.312ZM32.4414 131.302H37.9574V132.59H32.4414V131.302ZM45.2138 129.958C46.4925 129.958 47.1318 130.588 47.1318 131.848V137H45.4378V132.366C45.4378 131.993 45.3725 131.736 45.2418 131.596C45.1111 131.456 44.8918 131.386 44.5838 131.386C44.2385 131.386 43.8838 131.465 43.5198 131.624C43.1558 131.773 42.7171 131.993 42.2038 132.282L42.1338 131.26C42.6378 130.84 43.1511 130.518 43.6738 130.294C44.1965 130.07 44.7098 129.958 45.2138 129.958ZM42.0778 130.126L42.2458 131.47L42.3858 131.666V137H40.6918V130.126H42.0778ZM51.8186 128.166V134.928C51.8186 135.217 51.8793 135.423 52.0006 135.544C52.1313 135.665 52.3506 135.726 52.6586 135.726H53.6106L53.7926 136.916C53.634 136.963 53.4426 137.005 53.2186 137.042C52.9946 137.079 52.7753 137.103 52.5606 137.112C52.346 137.131 52.164 137.14 52.0146 137.14C51.4173 137.14 50.9506 136.981 50.6146 136.664C50.288 136.337 50.1246 135.871 50.1246 135.264V128.166H51.8186ZM53.8626 130.126V131.302H48.9066V130.196L50.2506 130.126H53.8626ZM56.9911 130.126L57.2151 131.47L57.3691 131.666V137H55.6751V130.126H56.9911ZM60.3511 129.958L60.1831 131.526H59.6931C59.3291 131.526 58.9604 131.587 58.5871 131.708C58.2138 131.829 57.7471 132.011 57.1871 132.254L57.0751 131.26C57.5604 130.849 58.0551 130.532 58.5591 130.308C59.0631 130.075 59.5484 129.958 60.0151 129.958H60.3511ZM68.6253 130.126L66.0493 137.21C65.928 137.537 65.774 137.859 65.5873 138.176C65.41 138.503 65.1813 138.797 64.9013 139.058C64.6213 139.319 64.29 139.525 63.9073 139.674C63.5246 139.823 63.0813 139.879 62.5773 139.842L62.4373 138.834C62.9973 138.675 63.4313 138.461 63.7393 138.19C64.0566 137.919 64.304 137.574 64.4813 137.154L64.8593 136.258C64.9433 136.053 65.0226 135.819 65.0973 135.558C65.1813 135.287 65.2513 135.054 65.3073 134.858L66.8053 130.126H68.6253ZM63.0813 130.126L64.6073 134.858C64.654 135.017 64.696 135.18 64.7333 135.348C64.7706 135.507 64.8033 135.665 64.8313 135.824H65.1813L64.6493 137H64.2013C64.0706 137 63.954 136.963 63.8513 136.888C63.7486 136.813 63.6786 136.711 63.6413 136.58L61.2753 130.126H63.0813Z" fill="#4C6ECD"/>
<path d="M76.0189 81.1156L24.1873 81.1086" stroke="white" stroke-width="6.29" stroke-miterlimit="10"/>
<path d="M76.0189 81.1156L24.1873 81.1086" stroke="#4C6ECD" stroke-width="3.42" stroke-miterlimit="10"/>
<path d="M18.8871 22.6507L18.8871 18.8888L75.4492 18.8818" stroke="white" stroke-width="6.29" stroke-miterlimit="10"/>
<path d="M18.8871 22.6507L18.8871 18.8888L75.4492 18.8818" stroke="#4C6ECD" stroke-width="3.42" stroke-miterlimit="10"/>
<path d="M62.21 86.5127L37.8075 86.5001L13.4667 62.1593L13.4541 37.7568L37.7927 13.4183H62.2092L86.5486 37.7576V62.1741L62.21 86.5127Z" fill="#FFF1EE" stroke="#4C6ECD" stroke-width="7"/>
<path d="M24.1854 81.108L18.8865 81.115L18.8865 22.6509" stroke="white" stroke-width="6.29" stroke-miterlimit="10"/>
<path d="M24.1854 81.108L18.8865 81.115L18.8865 22.6509" stroke="#4C6ECD" stroke-width="3.42" stroke-miterlimit="10"/>
<path d="M75.4494 18.8802L81.1133 18.8872L81.1134 81.1132L76.0179 81.1132" stroke="white" stroke-width="6.29" stroke-miterlimit="10"/>
<path d="M75.4494 18.8802L81.1133 18.8872L81.1134 81.1132L76.0179 81.1132" stroke="#4C6ECD" stroke-width="3.42" stroke-miterlimit="10"/>
<path d="M60.3964 46.7982C60.5515 47.2292 60.6749 47.671 60.7659 48.1199C60.8401 48.4624 61.0037 48.6007 61.3563 48.6049C61.8193 48.6108 62.2841 48.6125 62.7446 48.6049C62.9133 48.6049 62.9842 48.6243 62.9816 48.8192C62.971 49.6919 62.971 50.5635 62.9816 51.4339C62.9816 51.611 62.9184 51.6389 62.7649 51.6363C62.3018 51.6279 61.8371 51.6304 61.3765 51.6363C61.0012 51.6363 60.8409 51.7679 60.7642 52.134C60.4888 53.4716 59.9475 54.7402 59.1725 55.8646C58.9305 56.2164 58.9532 56.3893 59.2569 56.6938C59.5302 56.9704 59.8009 57.2513 60.0843 57.517C60.2201 57.6427 60.2454 57.7186 60.0953 57.862C59.5892 58.3503 59.0916 58.8513 58.5998 59.3557C58.4767 59.4814 58.4025 59.4924 58.2768 59.3557C58.0052 59.063 57.7167 58.7855 57.4333 58.5055C57.1499 58.2255 56.9601 58.1909 56.6287 58.4212C55.4899 59.212 54.2004 59.7598 52.8407 60.0305C52.5252 60.0929 52.3793 60.2962 52.3793 60.6125C52.3793 61.0857 52.3725 61.5589 52.3835 62.032C52.3835 62.1965 52.3405 62.2438 52.1743 62.2421C51.301 62.2336 50.4295 62.2336 49.5596 62.2421C49.3909 62.2421 49.3462 62.1965 49.3504 62.032C49.3614 61.5698 49.3571 61.1042 49.3504 60.6437C49.3504 60.2667 49.223 60.1022 48.8587 60.0263C47.5112 59.749 46.2331 59.204 45.1002 58.4237C44.7695 58.196 44.5941 58.2246 44.2972 58.514C44.0197 58.7872 43.7405 59.0588 43.474 59.3414C43.3525 59.4696 43.2766 59.5101 43.1282 59.3583C42.6418 58.8488 42.1436 58.3506 41.6335 57.8636C41.4792 57.716 41.5188 57.641 41.6487 57.5178C41.9321 57.2513 42.2037 56.9721 42.4762 56.6946C42.7638 56.4011 42.7916 56.218 42.5664 55.8899C41.7759 54.7509 41.2282 53.4616 40.9571 52.1019C40.8947 51.7882 40.6931 51.6389 40.3759 51.6389C39.9027 51.6389 39.4296 51.633 38.9564 51.6431C38.7944 51.6431 38.743 51.6043 38.7447 51.4356C38.7531 50.5623 38.7531 49.6893 38.7447 48.8166C38.7447 48.6538 38.7852 48.6016 38.953 48.6058C39.4051 48.6176 39.8572 48.6117 40.3101 48.6058C40.7319 48.6058 40.8778 48.486 40.9638 48.0837C41.2381 46.7679 41.7708 45.5196 42.531 44.4112C42.8017 44.0182 42.779 43.8545 42.434 43.5079C42.1674 43.2388 41.906 42.9647 41.6285 42.7074C41.4935 42.5826 41.5062 42.5084 41.6285 42.3852C42.1346 41.8943 42.6347 41.3984 43.1222 40.8897C43.2673 40.7379 43.3432 40.7691 43.4681 40.9016C43.7422 41.1926 44.0281 41.4726 44.3115 41.7518C44.5949 42.031 44.7738 42.0436 45.0926 41.8235C46.2323 41.0336 47.5218 40.4856 48.8814 40.2133C49.1952 40.15 49.3462 39.9501 49.3462 39.633C49.3462 39.1598 49.3521 38.6866 49.3462 38.2134C49.3462 38.054 49.3808 37.9984 49.552 38C50.425 38.0093 51.298 38.0076 52.1709 38C52.3312 38 52.3877 38.0355 52.3835 38.2067C52.3717 38.6689 52.3767 39.1345 52.3835 39.5942C52.3835 39.9847 52.5134 40.134 52.9039 40.2184C54.2197 40.4917 55.468 41.0238 56.5764 41.7838C56.9736 42.0579 57.1314 42.0369 57.4797 41.691C57.7564 41.4169 58.0347 41.1445 58.3029 40.8628C58.4075 40.7531 58.4716 40.7531 58.5804 40.8628C59.0966 41.388 59.6171 41.9087 60.1417 42.4249C60.2446 42.5261 60.226 42.5876 60.1349 42.6779C59.5074 43.2998 58.8827 43.9245 58.2608 44.5521C58.076 44.7402 58.0339 44.5403 57.9647 44.4542C56.9535 43.1799 55.6159 42.2034 54.094 41.6286C48.835 39.617 43.0109 42.8795 41.9549 48.4236C41.0524 53.1613 44.0425 57.8257 48.7026 58.9407C49.8999 59.2323 51.1439 59.2773 52.3591 59.0728C53.5742 58.8683 54.7351 58.4187 55.7709 57.7513C56.8068 57.0839 57.696 56.2127 58.3845 55.1908C59.073 54.1688 59.5463 53.0174 59.7756 51.8067C60.0278 50.5138 59.9892 49.181 59.6626 47.9048C59.6171 47.7227 59.6289 47.5953 59.7723 47.4612C59.9781 47.2689 60.1602 47.0513 60.3964 46.7982Z" fill="#4C6ECD"/>
<path d="M58.7689 48.4476C59.5347 52.352 57.5307 55.8414 54.4402 57.3698C49.6873 59.7197 43.9897 56.9143 42.9244 51.7059C42.0202 47.2845 44.9791 42.9339 49.4781 42.1748C52.62 41.6476 55.2137 42.7036 57.2447 45.1581C57.3932 45.3369 57.3991 45.4423 57.2203 45.5883C57.0415 45.7342 56.8829 46.0328 56.6923 46.0539C56.5177 46.0724 56.4055 45.7333 56.252 45.563C54.3331 43.4391 51.9545 42.5956 49.1795 43.2856C46.3429 43.9882 44.5759 45.8826 43.9424 48.7344C43.0905 52.5713 45.7694 56.4268 49.6729 57.0754C53.4601 57.7046 56.9967 55.2856 57.7837 51.5085C57.9305 50.8729 57.9679 50.2168 57.8942 49.5686C57.8815 49.4758 57.8596 49.383 57.9389 49.302C58.1995 49.0347 58.4593 48.7622 58.7689 48.4476Z" fill="#4C6ECD"/>
<path d="M61.6489 40.0236C62.7649 40.0236 63.7838 40.0236 64.8027 40.0236C64.9132 40.0236 65.0009 40.0134 65 40.1779C64.9933 41.2145 65 42.2503 65 43.3637C64.7082 43.0685 64.4695 42.8247 64.2274 42.5835C63.8428 42.2014 63.637 42.2014 63.2498 42.5835C59.8816 45.9512 56.5153 49.3208 53.151 52.6924C52.9419 52.9024 52.839 52.9218 52.6213 52.6983C51.5493 51.6018 50.457 50.5213 49.3706 49.4366C48.9396 49.0048 48.7507 49.0039 48.3264 49.4282L45.516 52.2378C45.4426 52.3103 45.365 52.3786 45.2807 52.4588C45.112 52.1214 45.0276 51.7772 44.9382 51.4365C44.9194 51.3717 44.9204 51.3027 44.9412 51.2385C44.9619 51.1743 45.0014 51.1178 45.0546 51.0763C46.2636 49.8764 47.4675 48.6713 48.6663 47.4612C48.8274 47.2976 48.9025 47.3448 49.0349 47.4773C50.1382 48.5889 51.2451 49.6973 52.3557 50.8022C52.7883 51.2349 52.9764 51.2374 53.3999 50.814L62.4114 41.8033C62.8332 41.3815 62.8332 41.1884 62.403 40.7582C62.1711 40.5313 61.9391 40.3078 61.6489 40.0236Z" fill="#4C6ECD"/>
<path d="M44.7939 49.9346C44.864 48.6154 45.2503 47.5071 45.9807 46.5245C46.544 45.7622 47.2778 45.1423 48.1236 44.7145C48.9693 44.2866 49.9035 44.0627 50.8513 44.0606C51.7991 44.0584 52.7342 44.2782 53.5819 44.7022C54.4295 45.1262 55.1662 45.7428 55.7328 46.5025C55.91 46.737 55.9454 46.8796 55.7033 47.1124C54.816 47.9634 53.9531 48.8398 53.0886 49.7178C52.9292 49.8806 52.8457 49.8992 52.6736 49.7246C51.5906 48.623 50.4932 47.5316 49.4001 46.4418C48.9176 45.9593 48.7591 45.9602 48.2665 46.4536L44.7939 49.9346Z" fill="#4C6ECD"/>
<path d="M56.922 50.4105C56.8157 52.0342 56.1907 53.4217 55.0006 54.5435C52.3512 57.0393 48.0841 56.6285 45.9476 53.6848C45.8 53.4816 45.779 53.366 45.9797 53.1703C46.8856 52.2931 47.7729 51.399 48.6569 50.4974C48.8053 50.3464 48.8821 50.3548 49.0254 50.4974C50.1422 51.6254 51.2634 52.7483 52.3892 53.8662C52.7747 54.2516 52.9796 54.2533 53.3659 53.8721C54.4512 52.7874 55.5356 51.7021 56.6192 50.6163C56.6946 50.53 56.7642 50.4387 56.8275 50.343L56.922 50.4105Z" fill="#4C6ECD"/>
<path d="M41.5303 56.1479C41.5303 56.2525 41.4586 56.2896 41.4089 56.3394C40.2356 57.5152 39.0581 58.6868 37.8891 59.8668C37.755 60.0026 37.6808 59.9823 37.5677 59.855C37.3729 59.6365 37.0229 59.4442 37.0009 59.2156C36.979 58.987 37.351 58.7863 37.5559 58.5797C38.6077 57.5211 39.673 56.471 40.7164 55.4065C40.945 55.1721 41.0318 55.2151 41.1457 55.4824C41.2344 55.6607 41.3344 55.8332 41.4451 55.9986L41.5303 56.1479Z" fill="#4C6ECD"/>
</svg>
