<svg width="100" height="156" viewBox="0 0 100 156" fill="none" xmlns="http://www.w3.org/2000/svg">
<rect width="100" height="156" rx="19" fill="#F9FBFF"/>
<path d="M24.1484 109.343C24.2977 109.343 24.4284 109.385 24.5404 109.469C24.6524 109.553 24.7317 109.665 24.7784 109.805L27.7044 119.003H25.9124L23.7004 111.555C23.663 111.406 23.6257 111.256 23.5884 111.107C23.551 110.958 23.5184 110.813 23.4904 110.673H23.0984C23.0704 110.813 23.0377 110.958 23.0004 111.107C22.963 111.256 22.921 111.406 22.8744 111.555L20.6764 119.003H18.8844L21.8104 109.805C21.8477 109.665 21.9224 109.553 22.0344 109.469C22.1557 109.385 22.291 109.343 22.4404 109.343H24.1484ZM25.7724 114.873V116.245H20.8024V114.873H25.7724ZM33.4115 111.961C34.2608 111.961 34.8721 112.274 35.2455 112.899C35.6188 113.524 35.8055 114.43 35.8055 115.615C35.8055 116.52 35.7075 117.234 35.5115 117.757C35.3248 118.27 35.0401 118.639 34.6575 118.863C34.2748 119.078 33.7895 119.185 33.2015 119.185C32.7348 119.185 32.2775 119.12 31.8295 118.989C31.3908 118.849 30.9848 118.634 30.6115 118.345L30.7235 117.505C31.0875 117.608 31.4141 117.696 31.7035 117.771C31.9928 117.846 32.3101 117.883 32.6555 117.883C33.0008 117.883 33.2715 117.827 33.4675 117.715C33.6728 117.594 33.8221 117.37 33.9155 117.043C34.0088 116.716 34.0555 116.245 34.0555 115.629C34.0555 115.022 34.0135 114.551 33.9295 114.215C33.8455 113.879 33.7055 113.646 33.5095 113.515C33.3228 113.375 33.0755 113.305 32.7675 113.305C32.4315 113.305 32.1141 113.38 31.8155 113.529C31.5168 113.669 31.1715 113.879 30.7795 114.159L30.5835 113.263C30.7981 113.011 31.0548 112.787 31.3535 112.591C31.6615 112.395 31.9928 112.241 32.3475 112.129C32.7021 112.017 33.0568 111.961 33.4115 111.961ZM30.5135 112.129L30.6815 113.459L30.8355 113.655V118.093L30.7655 118.261C30.7935 118.532 30.8121 118.802 30.8215 119.073C30.8308 119.353 30.8355 119.638 30.8355 119.927V121.733H29.1415V112.129H30.5135ZM42.1166 111.961C42.9659 111.961 43.5773 112.274 43.9506 112.899C44.3239 113.524 44.5106 114.43 44.5106 115.615C44.5106 116.52 44.4126 117.234 44.2166 117.757C44.0299 118.27 43.7453 118.639 43.3626 118.863C42.9799 119.078 42.4946 119.185 41.9066 119.185C41.4399 119.185 40.9826 119.12 40.5346 118.989C40.0959 118.849 39.6899 118.634 39.3166 118.345L39.4286 117.505C39.7926 117.608 40.1193 117.696 40.4086 117.771C40.6979 117.846 41.0153 117.883 41.3606 117.883C41.7059 117.883 41.9766 117.827 42.1726 117.715C42.3779 117.594 42.5273 117.37 42.6206 117.043C42.7139 116.716 42.7606 116.245 42.7606 115.629C42.7606 115.022 42.7186 114.551 42.6346 114.215C42.5506 113.879 42.4106 113.646 42.2146 113.515C42.0279 113.375 41.7806 113.305 41.4726 113.305C41.1366 113.305 40.8193 113.38 40.5206 113.529C40.2219 113.669 39.8766 113.879 39.4846 114.159L39.2886 113.263C39.5033 113.011 39.7599 112.787 40.0586 112.591C40.3666 112.395 40.6979 112.241 41.0526 112.129C41.4073 112.017 41.7619 111.961 42.1166 111.961ZM39.2186 112.129L39.3866 113.459L39.5406 113.655V118.093L39.4706 118.261C39.4986 118.532 39.5173 118.802 39.5266 119.073C39.5359 119.353 39.5406 119.638 39.5406 119.927V121.733H37.8466V112.129H39.2186ZM47.8678 112.129L48.0918 113.473L48.2458 113.669V119.003H46.5518V112.129H47.8678ZM51.2278 111.961L51.0598 113.529H50.5698C50.2058 113.529 49.8371 113.59 49.4638 113.711C49.0904 113.832 48.6238 114.014 48.0638 114.257L47.9518 113.263C48.4371 112.852 48.9318 112.535 49.4358 112.311C49.9398 112.078 50.4251 111.961 50.8918 111.961H51.2278ZM55.7673 111.961C56.6073 111.961 57.2746 112.078 57.7693 112.311C58.2733 112.544 58.6326 112.927 58.8473 113.459C59.0713 113.991 59.1833 114.696 59.1833 115.573C59.1833 116.45 59.0713 117.155 58.8473 117.687C58.6326 118.21 58.2733 118.592 57.7693 118.835C57.2746 119.068 56.6073 119.185 55.7673 119.185C54.9459 119.185 54.2833 119.068 53.7793 118.835C53.2846 118.592 52.9253 118.21 52.7013 117.687C52.4773 117.155 52.3653 116.45 52.3653 115.573C52.3653 114.696 52.4773 113.991 52.7013 113.459C52.9253 112.927 53.2846 112.544 53.7793 112.311C54.2833 112.078 54.9459 111.961 55.7673 111.961ZM55.7673 113.249C55.3566 113.249 55.0299 113.319 54.7873 113.459C54.5539 113.59 54.3859 113.823 54.2833 114.159C54.1806 114.495 54.1293 114.966 54.1293 115.573C54.1293 116.18 54.1806 116.651 54.2833 116.987C54.3859 117.323 54.5539 117.556 54.7873 117.687C55.0299 117.818 55.3566 117.883 55.7673 117.883C56.1873 117.883 56.5186 117.818 56.7613 117.687C57.0039 117.556 57.1719 117.323 57.2653 116.987C57.3679 116.651 57.4193 116.18 57.4193 115.573C57.4193 114.966 57.3679 114.495 57.2653 114.159C57.1719 113.823 57.0039 113.59 56.7613 113.459C56.5186 113.319 56.1873 113.249 55.7673 113.249ZM67.671 112.129L65.305 118.597C65.2583 118.718 65.1837 118.816 65.081 118.891C64.9877 118.966 64.871 119.003 64.731 119.003H63.247C63.1163 119.003 62.9997 118.966 62.897 118.891C62.7943 118.816 62.7197 118.718 62.673 118.597L60.307 112.129H62.113L63.555 116.637C63.6203 116.842 63.681 117.052 63.737 117.267C63.793 117.472 63.8443 117.673 63.891 117.869H64.073C64.1383 117.664 64.199 117.458 64.255 117.253C64.3203 117.048 64.381 116.842 64.437 116.637L65.879 112.129H67.671ZM72.5979 111.961C73.1486 111.961 73.6106 112.036 73.9839 112.185C74.3666 112.325 74.6559 112.568 74.8519 112.913C75.0479 113.258 75.1459 113.734 75.1459 114.341V119.003H73.8019L73.5639 117.519L73.4379 117.323V114.327C73.4379 113.963 73.3539 113.702 73.1859 113.543C73.0179 113.375 72.6959 113.291 72.2199 113.291C71.8652 113.291 71.4172 113.305 70.8759 113.333C70.3439 113.361 69.8072 113.398 69.2659 113.445L69.1119 112.283C69.4386 112.218 69.8072 112.162 70.2179 112.115C70.6286 112.068 71.0439 112.031 71.4639 112.003C71.8839 111.975 72.2619 111.961 72.5979 111.961ZM74.4179 114.775L74.4039 115.825H71.2539C70.9739 115.834 70.7732 115.909 70.6519 116.049C70.5306 116.189 70.4699 116.38 70.4699 116.623V117.001C70.4699 117.281 70.5446 117.496 70.6939 117.645C70.8432 117.785 71.0766 117.855 71.3939 117.855C71.6459 117.855 71.9259 117.804 72.2339 117.701C72.5419 117.598 72.8452 117.449 73.1439 117.253C73.4519 117.057 73.7272 116.824 73.9699 116.553V117.435C73.8766 117.575 73.7412 117.743 73.5639 117.939C73.3866 118.126 73.1672 118.312 72.9059 118.499C72.6539 118.686 72.3599 118.84 72.0239 118.961C71.6972 119.082 71.3332 119.143 70.9319 119.143C70.5212 119.143 70.1526 119.073 69.8259 118.933C69.4992 118.784 69.2426 118.569 69.0559 118.289C68.8692 118 68.7759 117.645 68.7759 117.225V116.497C68.7759 115.956 68.9532 115.536 69.3079 115.237C69.6719 114.929 70.1666 114.775 70.7919 114.775H74.4179ZM79.1156 109.203L79.1016 116.931C79.1016 117.192 79.1762 117.393 79.3256 117.533C79.4749 117.664 79.6896 117.729 79.9696 117.729H80.5716L80.7676 118.919C80.6649 118.966 80.5202 119.008 80.3336 119.045C80.1562 119.082 79.9696 119.106 79.7736 119.115C79.5869 119.134 79.4236 119.143 79.2836 119.143C78.7142 119.143 78.2616 118.989 77.9256 118.681C77.5896 118.373 77.4216 117.93 77.4216 117.351V109.203H79.1156ZM34.3463 127.315C34.8317 127.315 35.3263 127.315 35.8303 127.315C36.3437 127.315 36.8477 127.324 37.3423 127.343C37.837 127.362 38.3037 127.39 38.7423 127.427L38.6583 128.729H34.8783C34.617 128.729 34.421 128.794 34.2903 128.925C34.169 129.056 34.1083 129.261 34.1083 129.541V134.805C34.1083 135.085 34.169 135.29 34.2903 135.421C34.421 135.552 34.617 135.617 34.8783 135.617H38.6583L38.7423 136.919C38.3037 136.956 37.837 136.984 37.3423 137.003C36.8477 137.012 36.3437 137.017 35.8303 137.017C35.3263 137.026 34.8317 137.031 34.3463 137.031C33.749 137.031 33.2683 136.868 32.9043 136.541C32.5497 136.205 32.3677 135.757 32.3583 135.197V129.149C32.3677 128.589 32.5497 128.146 32.9043 127.819C33.2683 127.483 33.749 127.315 34.3463 127.315ZM32.6103 131.305H38.1263V132.593H32.6103V131.305ZM45.2427 129.961C46.5214 129.961 47.1607 130.591 47.1607 131.851V137.003H45.4667V132.369C45.4667 131.996 45.4014 131.739 45.2707 131.599C45.1401 131.459 44.9207 131.389 44.6127 131.389C44.2674 131.389 43.9127 131.468 43.5487 131.627C43.1847 131.776 42.7461 131.996 42.2327 132.285L42.1627 131.263C42.6667 130.843 43.1801 130.521 43.7027 130.297C44.2254 130.073 44.7387 129.961 45.2427 129.961ZM42.1067 130.129L42.2747 131.473L42.4147 131.669V137.003H40.7207V130.129H42.1067ZM51.7075 128.169V134.931C51.7075 135.22 51.7682 135.426 51.8895 135.547C52.0202 135.668 52.2395 135.729 52.5475 135.729H53.4995L53.6815 136.919C53.5229 136.966 53.3315 137.008 53.1075 137.045C52.8835 137.082 52.6642 137.106 52.4495 137.115C52.2349 137.134 52.0529 137.143 51.9035 137.143C51.3062 137.143 50.8395 136.984 50.5035 136.667C50.1769 136.34 50.0135 135.874 50.0135 135.267V128.169H51.7075ZM53.7515 130.129V131.305H48.7955V130.199L50.1395 130.129H53.7515ZM56.74 130.129L56.964 131.473L57.118 131.669V137.003H55.424V130.129H56.74ZM60.1 129.961L59.932 131.529H59.442C59.078 131.529 58.7093 131.59 58.336 131.711C57.9627 131.832 57.496 132.014 56.936 132.257L56.824 131.263C57.3093 130.852 57.804 130.535 58.308 130.311C58.812 130.078 59.2973 129.961 59.764 129.961H60.1ZM68.2342 130.129L65.6582 137.213C65.5369 137.54 65.3829 137.862 65.1962 138.179C65.0189 138.506 64.7902 138.8 64.5102 139.061C64.2302 139.322 63.8989 139.528 63.5162 139.677C63.1336 139.826 62.6902 139.882 62.1862 139.845L62.0462 138.837C62.6062 138.678 63.0402 138.464 63.3482 138.193C63.6656 137.922 63.9129 137.577 64.0902 137.157L64.4682 136.261C64.5522 136.056 64.6316 135.822 64.7062 135.561C64.7902 135.29 64.8602 135.057 64.9162 134.861L66.4142 130.129H68.2342ZM62.6902 130.129L64.2162 134.861C64.2629 135.02 64.3049 135.183 64.3422 135.351C64.3796 135.51 64.4122 135.668 64.4402 135.827H64.7902L64.2582 137.003H63.8102C63.6796 137.003 63.5629 136.966 63.4602 136.891C63.3576 136.816 63.2876 136.714 63.2502 136.583L60.8842 130.129H62.6902Z" fill="#643F3F"/>
<path d="M76.0189 81.1166L24.1873 81.1096" stroke="white" stroke-width="6.29" stroke-miterlimit="10"/>
<path d="M76.0189 81.1166L24.1873 81.1096" stroke="#643F3F" stroke-width="3.42" stroke-miterlimit="10"/>
<path d="M18.8874 22.6509L18.8874 18.889L75.4494 18.8821" stroke="white" stroke-width="6.29" stroke-miterlimit="10"/>
<path d="M18.8874 22.6509L18.8874 18.889L75.4494 18.8821" stroke="#643F3F" stroke-width="3.42" stroke-miterlimit="10"/>
<path d="M62.21 86.5132L37.8075 86.5006L13.4667 62.1598L13.4541 37.7573L37.7927 13.4187H62.2092L86.5486 37.7581V62.1746L62.21 86.5132Z" fill="#FFF8F8" stroke="#643F3F" stroke-width="7"/>
<path d="M24.1857 81.1085L18.8867 81.1155L18.8867 22.6514" stroke="white" stroke-width="6.29" stroke-miterlimit="10"/>
<path d="M24.1857 81.1085L18.8867 81.1155L18.8867 22.6514" stroke="#643F3F" stroke-width="3.42" stroke-miterlimit="10"/>
<path d="M75.4499 18.8812L81.1138 18.8882L81.1138 81.1142L76.0184 81.1142" stroke="white" stroke-width="6.29" stroke-miterlimit="10"/>
<path d="M75.4499 18.8812L81.1138 18.8882L81.1138 81.1142L76.0184 81.1142" stroke="#643F3F" stroke-width="3.42" stroke-miterlimit="10"/>
<path d="M55.1909 57.8498V60.5166H55.4668C56.2258 60.5166 56.9848 60.4931 57.7396 60.5297C58.0539 60.5534 58.3595 60.6433 58.6366 60.7933C58.9933 60.9803 59.1651 61.3204 59.1589 61.7372C59.1534 62.0822 59.1589 62.4223 59.1589 62.7804H44.3733C44.3733 62.3354 44.3312 61.8945 44.3837 61.4653C44.4485 60.9395 45.0316 60.5345 45.6781 60.5235C46.4522 60.5097 47.2278 60.518 48.0026 60.5166H48.3021V57.8498H47.9902C46.1963 57.8498 44.4078 57.8533 42.6166 57.8498C41.7369 57.8498 41.0869 57.3447 40.8979 56.5388C40.8849 56.4978 40.8766 56.4555 40.873 56.4126C40.873 55.5887 40.873 54.7642 40.873 53.9245H42.262V55.0188H61.2413V54.7269C61.2413 51.4206 61.2413 48.1144 61.2413 44.8085C61.2413 44.4159 61.2089 44.3834 60.8128 44.3834H50.4886V42.9766H50.7688C54.1106 42.9766 57.4517 42.9766 60.7921 42.9766C61.9561 42.9766 62.644 43.6603 62.6447 44.8188C62.6447 48.5553 62.6447 52.2918 62.6447 56.0283C62.6447 56.9563 62.1617 57.6152 61.3407 57.8029C61.155 57.8386 60.9659 57.8537 60.7769 57.8477C59.0203 57.8505 57.2636 57.8505 55.5069 57.8477L55.1909 57.8498Z" fill="#643F3F"/>
<path d="M46.9222 38C46.9222 38.5016 46.936 38.966 46.9187 39.4303C46.8994 39.9554 47.0174 40.3998 47.5224 40.6861H46.7628C45.7388 40.6861 44.7144 40.6861 43.6896 40.6861C43.4826 40.6861 43.3135 40.7385 43.2245 40.94C43.0997 41.2236 43.3018 41.5086 43.6385 41.5113C44.3975 41.5175 45.1565 41.5113 45.9106 41.5113C46.5827 41.5113 47.254 41.5113 47.9254 41.5113C48.1324 41.5113 48.3587 41.5113 48.4291 41.2912C48.4829 41.1284 48.4291 40.931 48.4229 40.7303H49.6441V41.0062C49.6441 44.8701 49.6441 48.734 49.6441 52.5979C49.6441 52.9954 49.5593 53.0809 49.1611 53.0809H38.4671C38.0787 53.0809 38.0007 53.0036 38.0007 52.6104C38.0002 47.8946 38 43.1783 38 38.4616C38 38.0918 38.0849 38 38.4243 38H46.9222ZM40.6254 42.9589C40.8324 42.9589 41.0394 42.9589 41.2464 42.9589C41.5486 42.9527 41.719 42.8037 41.7294 42.5056C41.7409 42.0842 41.7397 41.6633 41.7259 41.2429C41.7169 40.9566 41.55 40.7986 41.2657 40.7937C40.8441 40.7861 40.4225 40.7848 40.0016 40.7937C39.7291 40.7999 39.5711 40.9593 39.5656 41.2333C39.5568 41.6629 39.5568 42.0927 39.5656 42.5228C39.5718 42.7954 39.7325 42.9479 40.0058 42.9582C40.2128 42.9679 40.4191 42.9589 40.6254 42.9589ZM39.5649 45.5277C39.5649 45.7423 39.5587 45.9576 39.5649 46.1721C39.5752 46.4599 39.7298 46.6186 40.0168 46.6241C40.4308 46.6324 40.8448 46.631 41.2546 46.6241C41.5431 46.6199 41.7162 46.4681 41.7252 46.1859C41.7397 45.7561 41.739 45.3255 41.7252 44.8964C41.7162 44.6204 41.5479 44.4637 41.2809 44.4589C40.8517 44.4513 40.4211 44.4506 39.9913 44.4589C39.7339 44.4644 39.5773 44.6231 39.5663 44.8819C39.5566 45.0972 39.5649 45.3138 39.5649 45.5277ZM39.5649 49.1901C39.5649 49.3971 39.5607 49.6041 39.5649 49.8111C39.5732 50.1319 39.725 50.2886 40.0403 50.2941C40.4446 50.2996 40.8487 50.2996 41.2526 50.2941C41.541 50.29 41.7169 50.1388 41.7266 49.8587C41.7411 49.4295 41.7404 48.999 41.7266 48.5698C41.7183 48.2938 41.5527 48.1351 41.2857 48.1296C40.8558 48.1213 40.426 48.1206 39.9961 48.1296C39.727 48.1351 39.5766 48.2966 39.5656 48.574C39.5566 48.7775 39.5635 48.9838 39.5635 49.1901H39.5649ZM45.8541 42.2358C45.1303 42.2358 44.4051 42.2358 43.6841 42.2358C43.3708 42.2358 43.1949 42.3855 43.19 42.6401C43.1845 42.9065 43.3646 43.0603 43.6923 43.0603C45.1215 43.0603 46.5509 43.0603 47.9806 43.0603C48.3028 43.0603 48.4946 42.9016 48.4919 42.6463C48.4891 42.391 48.2966 42.2372 47.9723 42.2365C47.2658 42.2351 46.5597 42.2349 45.8541 42.2358ZM45.8541 45.1806C46.5689 45.1806 47.283 45.1806 47.9978 45.1806C48.2166 45.1806 48.3897 45.1116 48.4663 44.8957C48.5691 44.6031 48.3601 44.3547 48.0061 44.354C46.5765 44.354 45.1471 44.354 43.7179 44.354C43.3674 44.354 43.1845 44.5017 43.19 44.7749C43.1949 45.0371 43.3736 45.1793 43.7096 45.1799C44.4244 45.1813 45.1392 45.1816 45.8541 45.1806ZM45.8216 46.7303C46.5447 46.7303 47.2706 46.7303 47.9916 46.7303C48.2966 46.7303 48.485 46.5737 48.4919 46.3274C48.4995 46.0707 48.3056 45.9051 47.9868 45.9051C46.5576 45.9051 45.1282 45.9051 43.6986 45.9051C43.3681 45.9051 43.1887 46.0542 43.19 46.3191C43.1914 46.5841 43.3708 46.7331 43.7034 46.7331C44.4092 46.7317 45.1151 46.7303 45.8216 46.7303ZM45.8278 48.8465C46.5516 48.8465 47.2768 48.8465 47.9978 48.8465C48.24 48.8465 48.4215 48.7644 48.4808 48.5112C48.5443 48.2352 48.3428 48.0206 48.0075 48.0199C46.5696 48.0199 45.1317 48.0199 43.6937 48.0199C43.3646 48.0199 43.1859 48.1738 43.1914 48.4401C43.1963 48.6947 43.3729 48.8438 43.6854 48.8451C44.3989 48.8479 45.113 48.8465 45.8278 48.8465ZM45.8396 49.5696C45.1248 49.5696 44.4099 49.5696 43.6958 49.5696C43.3653 49.5696 43.1866 49.7214 43.19 49.9836C43.1935 50.2458 43.3701 50.3914 43.6806 50.3914C45.1185 50.3914 46.5565 50.3914 47.9944 50.3914C48.2987 50.3914 48.487 50.232 48.4919 49.985C48.4967 49.738 48.3049 49.5669 47.984 49.5662C47.2692 49.5682 46.5558 49.5696 45.8396 49.5696Z" fill="#643F3F"/>
<path d="M55.4568 48.1592H58.8378C58.9322 48.1555 59.0268 48.1594 59.1207 48.171C59.2099 48.186 59.2915 48.2307 59.3522 48.2979C59.4129 48.365 59.4492 48.4507 59.4552 48.541C59.4612 48.6314 59.4365 48.7211 59.3852 48.7957C59.3339 48.8702 59.2589 48.9253 59.1724 48.952C59.0726 48.9772 58.9696 48.9878 58.8667 48.9837C56.5774 48.9837 54.288 48.9837 51.9987 48.9837C51.9043 48.9863 51.81 48.9773 51.7178 48.9568C51.6283 48.9329 51.5497 48.8788 51.4953 48.8036C51.441 48.7285 51.4143 48.6369 51.4196 48.5443C51.425 48.4517 51.4621 48.3638 51.5247 48.2954C51.5873 48.227 51.6716 48.1823 51.7634 48.1689C51.8575 48.1585 51.9523 48.1551 52.047 48.1585L55.4568 48.1592Z" fill="#643F3F"/>
<path d="M55.4376 50.4317H58.8461C58.9406 50.4284 59.0353 50.433 59.129 50.4455C59.2183 50.4613 59.2996 50.5067 59.3598 50.5744C59.4201 50.6421 59.4557 50.7282 59.4609 50.8187C59.466 50.9091 59.4405 50.9987 59.3884 51.0729C59.3364 51.1471 59.2607 51.2015 59.1739 51.2273C59.0909 51.2493 59.0051 51.2593 58.9193 51.257C56.6042 51.257 54.289 51.257 51.9739 51.257C51.8808 51.257 51.7545 51.2708 51.6979 51.219C51.5848 51.1093 51.453 50.9692 51.4316 50.8257C51.4026 50.6373 51.5399 50.4869 51.7448 50.4476C51.8384 50.4335 51.9332 50.4285 52.0277 50.4324L55.4376 50.4317Z" fill="#643F3F"/>
<path d="M55.4652 45.8809H58.8213C58.9243 45.8774 59.0276 45.8829 59.1297 45.8975C59.2207 45.9142 59.3032 45.9619 59.3632 46.0323C59.4233 46.1027 59.4573 46.1917 59.4595 46.2842C59.4616 46.3768 59.4319 46.4672 59.3752 46.5404C59.3186 46.6136 59.2384 46.665 59.1483 46.6861C59.0555 46.7032 58.9611 46.7099 58.8668 46.7061H52.0242C51.9815 46.7061 51.9387 46.7061 51.8952 46.7061C51.6082 46.6944 51.426 46.5398 51.4191 46.3032C51.4122 46.0665 51.5985 45.8844 51.9021 45.883C53.0896 45.8788 54.277 45.883 55.4652 45.883V45.8809Z" fill="#643F3F"/>
<path d="M55.4506 52.7101H58.8592C58.9453 52.7068 59.0315 52.7098 59.1172 52.719C59.2087 52.7276 59.2939 52.7693 59.3568 52.8362C59.4197 52.9032 59.4559 52.9908 59.4587 53.0827C59.4722 53.1736 59.4514 53.2663 59.4004 53.3427C59.3494 53.4192 59.2718 53.4741 59.1828 53.4967C59.0751 53.5255 58.9636 53.5378 58.8523 53.5332C56.5799 53.5332 54.3076 53.5332 52.0352 53.5332C52.0007 53.5332 51.9662 53.5332 51.9324 53.5332C51.613 53.5249 51.4149 53.3635 51.417 53.1123C51.4191 52.8612 51.6074 52.708 51.9379 52.708C53.11 52.7085 54.2809 52.7092 55.4506 52.7101Z" fill="#643F3F"/>
<path d="M47.749 38.0693L49.5644 39.8881H48.2913C47.749 39.8881 47.749 39.8881 47.749 39.3417V38.0693Z" fill="#643F3F"/>
</svg>
