<svg width="100" height="156" viewBox="0 0 100 156" fill="none" xmlns="http://www.w3.org/2000/svg">
<rect width="100" height="156" rx="19" fill="#F9FBFF"/>
<path d="M16.6456 109.231C17.4669 109.231 18.1203 109.305 18.6056 109.455C19.0909 109.595 19.4409 109.847 19.6556 110.211C19.8796 110.575 19.9916 111.088 19.9916 111.751C19.9916 112.441 19.8609 112.969 19.5996 113.333C19.3383 113.697 18.9089 113.907 18.3116 113.963V114.019C19.0489 114.084 19.5623 114.336 19.8516 114.775C20.1503 115.213 20.2996 115.82 20.2996 116.595C20.2996 117.257 20.1876 117.771 19.9636 118.135C19.7489 118.499 19.4036 118.755 18.9276 118.905C18.4609 119.045 17.8496 119.115 17.0936 119.115C16.5056 119.115 15.9923 119.11 15.5536 119.101C15.1149 119.101 14.7136 119.091 14.3496 119.073C13.9856 119.054 13.6076 119.031 13.2156 119.003L13.4116 117.729C13.6356 117.738 14.0509 117.747 14.6576 117.757C15.2643 117.766 15.9783 117.771 16.7996 117.771C17.2383 117.771 17.5836 117.733 17.8356 117.659C18.0876 117.575 18.2649 117.425 18.3676 117.211C18.4796 116.987 18.5356 116.674 18.5356 116.273C18.5356 115.825 18.4796 115.484 18.3676 115.251C18.2556 115.008 18.0689 114.84 17.8076 114.747C17.5556 114.644 17.1963 114.593 16.7296 114.593H13.3976V113.403H16.7156C17.1169 113.403 17.4296 113.365 17.6536 113.291C17.8869 113.207 18.0549 113.062 18.1576 112.857C18.2603 112.651 18.3116 112.357 18.3116 111.975C18.3116 111.592 18.2556 111.298 18.1436 111.093C18.0409 110.887 17.8636 110.752 17.6116 110.687C17.3596 110.612 17.0096 110.575 16.5616 110.575C16.0669 110.575 15.6283 110.575 15.2456 110.575C14.8629 110.575 14.5223 110.579 14.2236 110.589C13.9249 110.589 13.6543 110.598 13.4116 110.617L13.2156 109.343C13.5703 109.305 13.9063 109.282 14.2236 109.273C14.5503 109.254 14.9049 109.245 15.2876 109.245C15.6796 109.235 16.1323 109.231 16.6456 109.231ZM14.9236 109.343V119.003H13.2156V109.343H14.9236ZM23.6713 112.129L23.8953 113.473L24.0493 113.669V119.003H22.3553V112.129H23.6713ZM27.0313 111.961L26.8633 113.529H26.3733C26.0093 113.529 25.6406 113.589 25.2673 113.711C24.894 113.832 24.4273 114.014 23.8673 114.257L23.7553 113.263C24.2406 112.852 24.7353 112.535 25.2393 112.311C25.7433 112.077 26.2286 111.961 26.6953 111.961H27.0313ZM32.0302 111.961C32.5808 111.961 33.0428 112.035 33.4162 112.185C33.7988 112.325 34.0882 112.567 34.2842 112.913C34.4802 113.258 34.5782 113.734 34.5782 114.341V119.003H33.2342L32.9962 117.519L32.8702 117.323V114.327C32.8702 113.963 32.7862 113.701 32.6182 113.543C32.4502 113.375 32.1282 113.291 31.6522 113.291C31.2975 113.291 30.8495 113.305 30.3082 113.333C29.7762 113.361 29.2395 113.398 28.6982 113.445L28.5442 112.283C28.8708 112.217 29.2395 112.161 29.6502 112.115C30.0608 112.068 30.4762 112.031 30.8962 112.003C31.3162 111.975 31.6942 111.961 32.0302 111.961ZM33.8502 114.775L33.8362 115.825H30.6862C30.4062 115.834 30.2055 115.909 30.0842 116.049C29.9628 116.189 29.9022 116.38 29.9022 116.623V117.001C29.9022 117.281 29.9768 117.495 30.1262 117.645C30.2755 117.785 30.5088 117.855 30.8262 117.855C31.0782 117.855 31.3582 117.803 31.6662 117.701C31.9742 117.598 32.2775 117.449 32.5762 117.253C32.8842 117.057 33.1595 116.823 33.4022 116.553V117.435C33.3088 117.575 33.1735 117.743 32.9962 117.939C32.8188 118.125 32.5995 118.312 32.3382 118.499C32.0862 118.685 31.7922 118.839 31.4562 118.961C31.1295 119.082 30.7655 119.143 30.3642 119.143C29.9535 119.143 29.5848 119.073 29.2582 118.933C28.9315 118.783 28.6748 118.569 28.4882 118.289C28.3015 117.999 28.2082 117.645 28.2082 117.225V116.497C28.2082 115.955 28.3855 115.535 28.7402 115.237C29.1042 114.929 29.5988 114.775 30.2242 114.775H33.8502ZM41.3618 111.961C42.6405 111.961 43.2798 112.591 43.2798 113.851V119.003H41.5858V114.369C41.5858 113.995 41.5205 113.739 41.3898 113.599C41.2592 113.459 41.0398 113.389 40.7318 113.389C40.3865 113.389 40.0318 113.468 39.6678 113.627C39.3038 113.776 38.8652 113.995 38.3518 114.285L38.2818 113.263C38.7858 112.843 39.2992 112.521 39.8218 112.297C40.3445 112.073 40.8578 111.961 41.3618 111.961ZM38.2258 112.129L38.3938 113.473L38.5338 113.669V119.003H36.8398V112.129H38.2258ZM48.6386 111.961C48.872 111.961 49.1286 111.97 49.4086 111.989C49.6886 112.007 49.9733 112.045 50.2626 112.101C50.552 112.157 50.8133 112.236 51.0466 112.339L50.8506 113.403C50.5053 113.384 50.16 113.37 49.8146 113.361C49.4786 113.351 49.1846 113.347 48.9326 113.347C48.4566 113.347 48.0786 113.412 47.7986 113.543C47.528 113.664 47.332 113.888 47.2106 114.215C47.0893 114.532 47.0286 114.98 47.0286 115.559C47.0286 116.137 47.0893 116.59 47.2106 116.917C47.332 117.234 47.528 117.458 47.7986 117.589C48.0786 117.719 48.4566 117.785 48.9326 117.785C49.0726 117.785 49.2546 117.78 49.4786 117.771C49.712 117.761 49.9593 117.747 50.2206 117.729C50.4913 117.71 50.7526 117.687 51.0046 117.659L51.1726 118.751C50.8086 118.9 50.4026 119.007 49.9546 119.073C49.5066 119.138 49.0633 119.171 48.6246 119.171C47.8033 119.171 47.1453 119.054 46.6506 118.821C46.156 118.587 45.7966 118.209 45.5726 117.687C45.358 117.155 45.2506 116.445 45.2506 115.559C45.2506 114.672 45.3626 113.967 45.5866 113.445C45.8106 112.913 46.17 112.535 46.6646 112.311C47.1593 112.077 47.8173 111.961 48.6386 111.961ZM57.5006 111.961C58.7793 111.961 59.4186 112.591 59.4186 113.851V119.003H57.7106V114.369C57.7106 113.995 57.6453 113.739 57.5146 113.599C57.3933 113.459 57.1786 113.389 56.8706 113.389C56.5253 113.389 56.1706 113.463 55.8066 113.613C55.4426 113.762 55.004 113.986 54.4906 114.285L54.3646 113.305C54.8873 112.875 55.41 112.544 55.9326 112.311C56.4646 112.077 56.9873 111.961 57.5006 111.961ZM54.6726 109.203L54.6866 111.723C54.6866 112.068 54.668 112.395 54.6306 112.703C54.6026 113.001 54.5606 113.258 54.5046 113.473L54.6726 113.669V119.003H52.9786V109.203H54.6726ZM68.9395 109.343V119.003H67.1895V109.343H68.9395ZM71.9355 109.343V110.771H64.1935V109.343H71.9355ZM75.7845 111.961C76.3352 111.961 76.7972 112.035 77.1705 112.185C77.5532 112.325 77.8425 112.567 78.0385 112.913C78.2345 113.258 78.3325 113.734 78.3325 114.341V119.003H76.9885L76.7505 117.519L76.6245 117.323V114.327C76.6245 113.963 76.5405 113.701 76.3725 113.543C76.2045 113.375 75.8825 113.291 75.4065 113.291C75.0519 113.291 74.6039 113.305 74.0625 113.333C73.5305 113.361 72.9939 113.398 72.4525 113.445L72.2985 112.283C72.6252 112.217 72.9939 112.161 73.4045 112.115C73.8152 112.068 74.2305 112.031 74.6505 112.003C75.0705 111.975 75.4485 111.961 75.7845 111.961ZM77.6045 114.775L77.5905 115.825H74.4405C74.1605 115.834 73.9599 115.909 73.8385 116.049C73.7172 116.189 73.6565 116.38 73.6565 116.623V117.001C73.6565 117.281 73.7312 117.495 73.8805 117.645C74.0299 117.785 74.2632 117.855 74.5805 117.855C74.8325 117.855 75.1125 117.803 75.4205 117.701C75.7285 117.598 76.0319 117.449 76.3305 117.253C76.6385 117.057 76.9139 116.823 77.1565 116.553V117.435C77.0632 117.575 76.9279 117.743 76.7505 117.939C76.5732 118.125 76.3539 118.312 76.0925 118.499C75.8405 118.685 75.5465 118.839 75.2105 118.961C74.8839 119.082 74.5199 119.143 74.1185 119.143C73.7079 119.143 73.3392 119.073 73.0125 118.933C72.6859 118.783 72.4292 118.569 72.2425 118.289C72.0559 117.999 71.9625 117.645 71.9625 117.225V116.497C71.9625 115.955 72.1399 115.535 72.4945 115.237C72.8585 114.929 73.3532 114.775 73.9785 114.775H77.6045ZM83.5062 111.961C84.2809 111.961 84.8922 112.035 85.3402 112.185C85.7975 112.325 86.1242 112.558 86.3202 112.885C86.5162 113.202 86.6142 113.622 86.6142 114.145C86.6142 114.649 86.5162 115.064 86.3202 115.391C86.1242 115.708 85.7975 115.941 85.3402 116.091C84.8829 116.24 84.2669 116.315 83.4922 116.315C82.7175 116.315 82.1015 116.24 81.6442 116.091C81.1962 115.941 80.8695 115.708 80.6642 115.391C80.4682 115.073 80.3702 114.658 80.3702 114.145C80.3702 113.622 80.4682 113.202 80.6642 112.885C80.8695 112.558 81.2009 112.325 81.6582 112.185C82.1155 112.035 82.7315 111.961 83.5062 111.961ZM83.4922 113.067C82.9042 113.067 82.4982 113.146 82.2742 113.305C82.0502 113.463 81.9382 113.743 81.9382 114.145C81.9382 114.527 82.0502 114.803 82.2742 114.971C82.4982 115.129 82.9042 115.209 83.4922 115.209C84.0802 115.209 84.4815 115.129 84.6962 114.971C84.9202 114.803 85.0322 114.527 85.0322 114.145C85.0322 113.743 84.9202 113.463 84.6962 113.305C84.4815 113.146 84.0802 113.067 83.4922 113.067ZM87.4122 112.129L87.3142 112.913L85.5222 113.109L85.0182 112.129H87.4122ZM81.4902 115.895L82.3582 116.021C82.2182 116.133 82.1202 116.277 82.0642 116.455C82.0175 116.623 82.0315 116.786 82.1062 116.945C82.1902 117.094 82.3675 117.187 82.6382 117.225L85.1862 117.561C85.8769 117.645 86.3622 117.85 86.6422 118.177C86.9222 118.494 87.0622 118.956 87.0622 119.563C87.0622 120.132 86.9502 120.575 86.7262 120.893C86.5022 121.21 86.1335 121.429 85.6202 121.551C85.1162 121.681 84.4349 121.747 83.5762 121.747C82.8949 121.747 82.3302 121.709 81.8822 121.635C81.4342 121.569 81.0749 121.453 80.8042 121.285C80.5429 121.126 80.3562 120.916 80.2442 120.655C80.1322 120.403 80.0762 120.085 80.0762 119.703C80.0762 119.404 80.1229 119.152 80.2162 118.947C80.3189 118.741 80.4822 118.559 80.7062 118.401C80.9302 118.233 81.2335 118.079 81.6162 117.939L82.5682 117.533L83.2262 117.771L82.6102 118.205C82.3955 118.363 82.2182 118.508 82.0782 118.639C81.9475 118.76 81.8495 118.881 81.7842 119.003C81.7282 119.133 81.7002 119.297 81.7002 119.493C81.7002 119.754 81.7515 119.955 81.8542 120.095C81.9662 120.235 82.1575 120.328 82.4282 120.375C82.6989 120.431 83.0769 120.459 83.5622 120.459C84.0569 120.459 84.4395 120.431 84.7102 120.375C84.9809 120.328 85.1675 120.235 85.2702 120.095C85.3822 119.964 85.4382 119.773 85.4382 119.521C85.4382 119.315 85.4055 119.161 85.3402 119.059C85.2749 118.965 85.1582 118.891 84.9902 118.835C84.8222 118.779 84.5889 118.732 84.2902 118.695L81.9942 118.415C81.6675 118.377 81.4062 118.284 81.2102 118.135C81.0235 117.976 80.8929 117.789 80.8182 117.575C80.7435 117.351 80.7202 117.131 80.7482 116.917C80.7855 116.693 80.8649 116.487 80.9862 116.301C81.1169 116.114 81.2849 115.979 81.4902 115.895ZM25.773 127.343V137.003H24.023V127.343H25.773ZM28.769 127.343V128.771H21.027V127.343H28.769ZM30.5718 130.129L30.7958 131.473L30.9498 131.669V137.003H29.2558V130.129H30.5718ZM33.9318 129.961L33.7638 131.529H33.2738C32.9098 131.529 32.5411 131.589 32.1678 131.711C31.7944 131.832 31.3278 132.014 30.7678 132.257L30.6558 131.263C31.1411 130.852 31.6358 130.535 32.1398 130.311C32.6438 130.077 33.1291 129.961 33.5958 129.961H33.9318ZM38.9306 129.961C39.4813 129.961 39.9433 130.035 40.3166 130.185C40.6993 130.325 40.9886 130.567 41.1846 130.913C41.3806 131.258 41.4786 131.734 41.4786 132.341V137.003H40.1346L39.8966 135.519L39.7706 135.323V132.327C39.7706 131.963 39.6866 131.701 39.5186 131.543C39.3506 131.375 39.0286 131.291 38.5526 131.291C38.198 131.291 37.75 131.305 37.2086 131.333C36.6766 131.361 36.14 131.398 35.5986 131.445L35.4446 130.283C35.7713 130.217 36.14 130.161 36.5506 130.115C36.9613 130.068 37.3766 130.031 37.7966 130.003C38.2166 129.975 38.5946 129.961 38.9306 129.961ZM40.7506 132.775L40.7366 133.825H37.5866C37.3066 133.834 37.106 133.909 36.9846 134.049C36.8633 134.189 36.8026 134.38 36.8026 134.623V135.001C36.8026 135.281 36.8773 135.495 37.0266 135.645C37.176 135.785 37.4093 135.855 37.7266 135.855C37.9786 135.855 38.2586 135.803 38.5666 135.701C38.8746 135.598 39.178 135.449 39.4766 135.253C39.7846 135.057 40.06 134.823 40.3026 134.553V135.435C40.2093 135.575 40.074 135.743 39.8966 135.939C39.7193 136.125 39.5 136.312 39.2386 136.499C38.9866 136.685 38.6926 136.839 38.3566 136.961C38.03 137.082 37.666 137.143 37.2646 137.143C36.854 137.143 36.4853 137.073 36.1586 136.933C35.832 136.783 35.5753 136.569 35.3886 136.289C35.202 135.999 35.1086 135.645 35.1086 135.225V134.497C35.1086 133.955 35.286 133.535 35.6406 133.237C36.0046 132.929 36.4993 132.775 37.1246 132.775H40.7506ZM48.2623 129.961C49.541 129.961 50.1803 130.591 50.1803 131.851V137.003H48.4863V132.369C48.4863 131.995 48.421 131.739 48.2903 131.599C48.1596 131.459 47.9403 131.389 47.6323 131.389C47.287 131.389 46.9323 131.468 46.5683 131.627C46.2043 131.776 45.7656 131.995 45.2523 132.285L45.1823 131.263C45.6863 130.843 46.1996 130.521 46.7223 130.297C47.245 130.073 47.7583 129.961 48.2623 129.961ZM45.1263 130.129L45.2943 131.473L45.4343 131.669V137.003H43.7403V130.129H45.1263ZM54.9371 129.961C55.2545 129.961 55.5951 129.97 55.9591 129.989C56.3325 130.007 56.6965 130.035 57.0511 130.073C57.4058 130.101 57.7231 130.143 58.0031 130.199L57.8911 131.305C57.4431 131.295 56.9951 131.286 56.5471 131.277C56.1085 131.258 55.6745 131.249 55.2451 131.249C54.8625 131.249 54.5591 131.258 54.3351 131.277C54.1205 131.295 53.9665 131.351 53.8731 131.445C53.7891 131.538 53.7471 131.697 53.7471 131.921C53.7471 132.191 53.8218 132.373 53.9711 132.467C54.1205 132.551 54.3631 132.635 54.6991 132.719L56.5751 133.153C57.1351 133.293 57.5505 133.507 57.8211 133.797C58.0918 134.077 58.2271 134.511 58.2271 135.099C58.2271 135.668 58.1198 136.102 57.9051 136.401C57.6998 136.69 57.3685 136.891 56.9111 137.003C56.4631 137.105 55.8891 137.157 55.1891 137.157C54.9185 137.157 54.5171 137.143 53.9851 137.115C53.4531 137.096 52.8698 137.035 52.2351 136.933L52.3471 135.827C52.5338 135.827 52.7531 135.831 53.0051 135.841C53.2665 135.85 53.5418 135.855 53.8311 135.855C54.1298 135.855 54.4331 135.855 54.7411 135.855C55.2358 135.855 55.6138 135.841 55.8751 135.813C56.1458 135.775 56.3325 135.705 56.4351 135.603C56.5378 135.491 56.5891 135.332 56.5891 135.127C56.5891 134.865 56.5005 134.693 56.3231 134.609C56.1551 134.515 55.9031 134.427 55.5671 134.343L53.7331 133.895C53.3131 133.783 52.9865 133.643 52.7531 133.475C52.5198 133.297 52.3518 133.083 52.2491 132.831C52.1465 132.569 52.0951 132.252 52.0951 131.879C52.0951 131.375 52.1885 130.983 52.3751 130.703C52.5711 130.423 52.8745 130.227 53.2851 130.115C53.7051 130.003 54.2558 129.951 54.9371 129.961ZM62.9099 126.937C63.0686 126.937 63.2739 126.941 63.5259 126.951C63.7872 126.96 64.0532 126.974 64.3239 126.993C64.5946 127.002 64.8232 127.025 65.0099 127.063L64.8699 128.197H63.5119C63.1199 128.197 62.8446 128.276 62.6859 128.435C62.5272 128.593 62.4479 128.859 62.4479 129.233V137.003H60.7539V129.023C60.7539 128.584 60.8239 128.211 60.9639 127.903C61.1039 127.595 61.3326 127.357 61.6499 127.189C61.9672 127.021 62.3872 126.937 62.9099 126.937ZM64.4919 130.129V131.305H59.5359V130.199L60.8099 130.129H64.4919ZM69.08 129.961C70.1906 129.961 70.9886 130.157 71.474 130.549C71.9593 130.931 72.2066 131.501 72.216 132.257C72.2253 132.882 72.076 133.358 71.768 133.685C71.4693 134.002 70.97 134.161 70.27 134.161H66.35V133.111H69.808C70.1253 133.111 70.326 133.027 70.41 132.859C70.5033 132.691 70.55 132.485 70.55 132.243C70.5406 131.86 70.4286 131.594 70.214 131.445C70.0086 131.295 69.654 131.221 69.15 131.221C68.7113 131.221 68.3706 131.281 68.128 131.403C67.8853 131.524 67.7126 131.743 67.61 132.061C67.5166 132.378 67.47 132.835 67.47 133.433C67.47 134.067 67.5306 134.557 67.652 134.903C67.7733 135.248 67.974 135.486 68.254 135.617C68.534 135.738 68.9073 135.799 69.374 135.799C69.7193 135.799 70.116 135.785 70.564 135.757C71.0213 135.729 71.46 135.691 71.88 135.645L72.048 136.723C71.796 136.825 71.5066 136.909 71.18 136.975C70.8533 137.04 70.5126 137.087 70.158 137.115C69.8126 137.152 69.486 137.171 69.178 137.171C68.338 137.171 67.6613 137.049 67.148 136.807C66.644 136.555 66.2753 136.163 66.042 135.631C65.818 135.099 65.706 134.413 65.706 133.573C65.706 132.667 65.818 131.953 66.042 131.431C66.2753 130.899 66.6393 130.521 67.134 130.297C67.638 130.073 68.2866 129.961 69.08 129.961ZM75.4746 130.129L75.6986 131.473L75.8526 131.669V137.003H74.1586V130.129H75.4746ZM78.8346 129.961L78.6666 131.529H78.1766C77.8126 131.529 77.4439 131.589 77.0706 131.711C76.6972 131.832 76.2306 132.014 75.6706 132.257L75.5586 131.263C76.0439 130.852 76.5386 130.535 77.0426 130.311C77.5466 130.077 78.0319 129.961 78.4986 129.961H78.8346Z" fill="#8C4FD9"/>
<path d="M76.019 81.1159L24.1873 81.1089" stroke="white" stroke-width="6.29" stroke-miterlimit="10"/>
<path d="M76.019 81.1159L24.1873 81.1089" stroke="#8C4FD9" stroke-width="3.42" stroke-miterlimit="10"/>
<path d="M18.8871 22.6508L18.8871 18.8889L75.4492 18.8819" stroke="white" stroke-width="6.29" stroke-miterlimit="10"/>
<path d="M18.8871 22.6508L18.8871 18.8889L75.4492 18.8819" stroke="#8C4FD9" stroke-width="3.42" stroke-miterlimit="10"/>
<path d="M62.21 86.5128L37.8075 86.5003L13.4667 62.1594L13.4541 37.757L37.7927 13.4184H62.2092L86.5486 37.7577L86.5486 62.1742L62.21 86.5128Z" fill="#F3EAFF" stroke="#8C4FD9" stroke-width="7"/>
<path d="M24.1855 81.108L18.8865 81.115L18.8865 22.6509" stroke="white" stroke-width="6.29" stroke-miterlimit="10"/>
<path d="M24.1855 81.108L18.8865 81.115L18.8865 22.6509" stroke="#8C4FD9" stroke-width="3.42" stroke-miterlimit="10"/>
<path d="M75.4494 18.8803L81.1133 18.8874L81.1134 81.1134L76.0179 81.1134" stroke="white" stroke-width="6.29" stroke-miterlimit="10"/>
<path d="M75.4494 18.8803L81.1133 18.8874L81.1134 81.1134L76.0179 81.1134" stroke="#8C4FD9" stroke-width="3.42" stroke-miterlimit="10"/>
<path d="M58.6889 50.658C58.4311 50.379 58.1786 50.0948 57.9116 49.8238C57.4516 49.3545 56.9862 48.8984 56.5209 48.4278C56.3416 48.2422 56.1227 48.0993 55.8806 48.0098C55.6384 47.9203 55.3792 47.8865 55.1223 47.9109C53.3865 48.0101 51.6508 48.0973 49.915 48.1885C49.8344 48.1885 49.7537 48.1885 49.6731 48.2004C49.3323 48.2287 48.991 48.1536 48.6935 47.985C48.5951 47.92 48.4767 47.8925 48.3597 47.9075C48.2427 47.9226 48.1351 47.9791 48.0563 48.0669C47.8752 48.2441 47.829 48.56 48.0259 48.7213C48.3326 48.9738 48.2665 49.2369 48.2295 49.57C48.1396 50.3817 48.1224 51.2026 48.0788 52.0196C48.0206 53.0772 47.9678 54.1348 47.9109 55.1923C47.8818 55.7105 47.981 55.9445 48.56 56.6729C48.4437 56.6809 48.3498 56.6928 48.2573 56.6928H37.1898C36.3966 56.6928 36 56.2962 36 55.503V45.501C36 44.6681 36.386 44.2848 37.2294 44.2848C40.7763 44.2848 44.3244 44.2755 47.8713 44.2848C48.7874 44.2848 49.5317 43.9939 49.997 43.1994C50.4623 42.4049 51.0969 42.1498 52.0077 42.1829C53.8452 42.2476 55.6854 42.2014 57.5256 42.2027C58.3994 42.2027 58.7815 42.5834 58.7815 43.4585C58.7815 45.7411 58.7815 48.0246 58.7815 50.309C58.7815 50.4068 58.7722 50.5033 58.7669 50.5998L58.6889 50.658Z" fill="#8C4FD9"/>
<path d="M49.2422 49.9639C49.7287 50.453 50.1755 50.8893 50.6012 51.3453C50.6606 51.4088 50.6461 51.5846 50.6104 51.689C50.5186 51.9389 50.4835 52.2061 50.5076 52.4712C50.5317 52.7364 50.6144 52.9928 50.7498 53.2221C50.8852 53.4513 51.0698 53.6476 51.2903 53.7968C51.5108 53.9459 51.7617 54.0442 52.0249 54.0845C52.3861 54.1436 52.7566 54.0912 53.0873 53.9344C53.4179 53.7776 53.6929 53.5237 53.8757 53.2067C54.0578 52.889 54.1396 52.5237 54.1104 52.1587C54.0811 51.7938 53.9422 51.4462 53.7117 51.1616C53.4837 50.8746 53.1713 50.6664 52.8186 50.5663C52.466 50.4662 52.0908 50.4793 51.746 50.6037C51.6545 50.6501 51.5495 50.6623 51.4499 50.6381C51.3502 50.6139 51.2625 50.5548 51.2026 50.4715C50.8153 50.0657 50.4095 49.6783 49.9481 49.2315C50.6805 49.1905 51.3216 49.1509 51.9628 49.1165C53.0627 49.057 54.1612 48.9843 55.2677 48.9565C55.4935 48.9772 55.7042 49.0786 55.8613 49.2421C57.7001 51.0611 59.5271 52.8947 61.3567 54.723C62.4715 55.8387 63.5868 56.9531 64.7026 58.0662C65.0992 58.4628 65.0992 58.6849 64.7026 59.0841C62.8307 60.956 60.9579 62.8279 59.0842 64.6999C58.6982 65.0872 58.4761 65.0872 58.0901 64.6999C55.1298 61.7413 52.1708 58.7832 49.2131 55.8255C49.1248 55.7505 49.0549 55.6561 49.0091 55.5497C48.9632 55.4433 48.9425 55.3278 48.9487 55.2121C49.0439 53.5279 49.1311 51.8424 49.2223 50.1569C49.2223 50.1185 49.2289 50.0802 49.2422 49.9639Z" fill="#8C4FD9"/>
<path d="M58.7562 41.4002L57.7423 41.1226C57.7423 40.8358 57.7423 40.5357 57.7423 40.2343C57.7317 39.5164 57.3219 39.1013 56.6094 39.1013C50.4631 39.1013 44.3168 39.1013 38.1706 39.1013C37.4633 39.1013 37.039 39.5297 37.0363 40.2356C37.0363 41.2257 37.0363 42.2185 37.0363 43.1968L36.0144 43.4757C36.0144 43.3964 36.0025 43.3012 36.0025 43.2113C36.0025 41.2099 36.0025 39.2089 36.0025 37.2083C36.0025 36.3979 36.3991 36.0026 37.2161 36.0026C39.2585 36.0026 41.301 36.0093 43.3421 36.0026C43.5576 35.9884 43.7729 36.0319 43.966 36.1285C44.1591 36.2252 44.3229 36.3716 44.4407 36.5526C44.5729 36.7535 44.7328 36.9399 44.8756 37.1356C45.0833 37.4359 45.3636 37.6789 45.6904 37.8418C46.0172 38.0048 46.38 38.0824 46.7448 38.0676C50.345 38.0596 53.9438 38.0596 57.5414 38.0676C57.7912 38.0707 58.038 38.1238 58.2671 38.2236C58.4048 38.2808 58.5233 38.3764 58.6083 38.499C58.6934 38.6215 58.7415 38.7659 58.747 38.9149C58.7708 39.7438 58.7562 40.57 58.7562 41.4002Z" fill="#8C4FD9"/>
<path d="M38.0821 43.247V40.1602H56.6769V41.1715H56.32C54.7125 41.1715 53.1063 41.182 51.5001 41.1715C51.1052 41.1525 50.7122 41.2355 50.3586 41.4123C50.0051 41.5892 49.703 41.8541 49.4815 42.1815C48.6724 43.2972 48.7808 43.2562 47.3346 43.2536C44.3839 43.2536 41.4316 43.2536 38.4774 43.2536L38.0821 43.247Z" fill="#8C4FD9"/>
<path d="M51.5569 52.2733C52.1161 52.3527 52.3606 52.1055 52.2721 51.574C52.6554 51.5026 53.0018 51.7697 53.0653 52.1874C53.082 52.2925 53.0767 52.3998 53.0498 52.5027C53.0228 52.6056 52.9747 52.7018 52.9086 52.7851C52.8424 52.8684 52.7597 52.937 52.6656 52.9866C52.5715 53.0362 52.4681 53.0657 52.362 53.0731C51.9191 53.1128 51.5886 52.7955 51.5569 52.2733Z" fill="#8C4FD9"/>
</svg>
