<svg width="100" height="156" viewBox="0 0 100 156" fill="none" xmlns="http://www.w3.org/2000/svg">
<rect width="100" height="156" rx="19" fill="#F9FBFF"/>
<path d="M19.75 109.228C20.5713 109.228 21.2247 109.303 21.71 109.452C22.1953 109.592 22.5453 109.844 22.76 110.208C22.984 110.572 23.096 111.085 23.096 111.748C23.096 112.439 22.9653 112.966 22.704 113.33C22.4427 113.694 22.0133 113.904 21.416 113.96V114.016C22.1533 114.081 22.6667 114.333 22.956 114.772C23.2547 115.211 23.404 115.817 23.404 116.592C23.404 117.255 23.292 117.768 23.068 118.132C22.8533 118.496 22.508 118.753 22.032 118.902C21.5653 119.042 20.954 119.112 20.198 119.112C19.61 119.112 19.0967 119.107 18.658 119.098C18.2193 119.098 17.818 119.089 17.454 119.07C17.09 119.051 16.712 119.028 16.32 119L16.516 117.726C16.74 117.735 17.1553 117.745 17.762 117.754C18.3687 117.763 19.0827 117.768 19.904 117.768C20.3427 117.768 20.688 117.731 20.94 117.656C21.192 117.572 21.3693 117.423 21.472 117.208C21.584 116.984 21.64 116.671 21.64 116.27C21.64 115.822 21.584 115.481 21.472 115.248C21.36 115.005 21.1733 114.837 20.912 114.744C20.66 114.641 20.3007 114.59 19.834 114.59H16.502V113.4H19.82C20.2213 113.4 20.534 113.363 20.758 113.288C20.9913 113.204 21.1593 113.059 21.262 112.854C21.3647 112.649 21.416 112.355 21.416 111.972C21.416 111.589 21.36 111.295 21.248 111.09C21.1453 110.885 20.968 110.749 20.716 110.684C20.464 110.609 20.114 110.572 19.666 110.572C19.1713 110.572 18.7327 110.572 18.35 110.572C17.9673 110.572 17.6267 110.577 17.328 110.586C17.0293 110.586 16.7587 110.595 16.516 110.614L16.32 109.34C16.6747 109.303 17.0107 109.279 17.328 109.27C17.6547 109.251 18.0093 109.242 18.392 109.242C18.784 109.233 19.2367 109.228 19.75 109.228ZM18.028 109.34V119H16.32V109.34H18.028ZM25.5157 112.126L25.7397 113.47L25.8937 113.666V119H24.1997V112.126H25.5157ZM28.8757 111.958L28.7077 113.526H28.2177C27.8537 113.526 27.485 113.587 27.1117 113.708C26.7384 113.829 26.2717 114.011 25.7117 114.254L25.5997 113.26C26.085 112.849 26.5797 112.532 27.0837 112.308C27.5877 112.075 28.073 111.958 28.5397 111.958H28.8757ZM32.6146 111.958C33.1652 111.958 33.6272 112.033 34.0006 112.182C34.3832 112.322 34.6726 112.565 34.8686 112.91C35.0646 113.255 35.1626 113.731 35.1626 114.338V119H33.8186L33.5806 117.516L33.4546 117.32V114.324C33.4546 113.96 33.3706 113.699 33.2026 113.54C33.0346 113.372 32.7126 113.288 32.2366 113.288C31.8819 113.288 31.4339 113.302 30.8926 113.33C30.3606 113.358 29.8239 113.395 29.2826 113.442L29.1286 112.28C29.4552 112.215 29.8239 112.159 30.2346 112.112C30.6452 112.065 31.0606 112.028 31.4806 112C31.9006 111.972 32.2786 111.958 32.6146 111.958ZM34.4346 114.772L34.4206 115.822H31.2706C30.9906 115.831 30.7899 115.906 30.6686 116.046C30.5472 116.186 30.4866 116.377 30.4866 116.62V116.998C30.4866 117.278 30.5612 117.493 30.7106 117.642C30.8599 117.782 31.0932 117.852 31.4106 117.852C31.6626 117.852 31.9426 117.801 32.2506 117.698C32.5586 117.595 32.8619 117.446 33.1606 117.25C33.4686 117.054 33.7439 116.821 33.9866 116.55V117.432C33.8932 117.572 33.7579 117.74 33.5806 117.936C33.4032 118.123 33.1839 118.309 32.9226 118.496C32.6706 118.683 32.3766 118.837 32.0406 118.958C31.7139 119.079 31.3499 119.14 30.9486 119.14C30.5379 119.14 30.1692 119.07 29.8426 118.93C29.5159 118.781 29.2592 118.566 29.0726 118.286C28.8859 117.997 28.7926 117.642 28.7926 117.222V116.494C28.7926 115.953 28.9699 115.533 29.3246 115.234C29.6886 114.926 30.1832 114.772 30.8086 114.772H34.4346ZM40.6862 111.958C41.9649 111.958 42.6042 112.588 42.6042 113.848V119H40.9102V114.366C40.9102 113.993 40.8449 113.736 40.7142 113.596C40.5836 113.456 40.3642 113.386 40.0562 113.386C39.7109 113.386 39.3562 113.465 38.9922 113.624C38.6282 113.773 38.1896 113.993 37.6762 114.282L37.6062 113.26C38.1102 112.84 38.6236 112.518 39.1462 112.294C39.6689 112.07 40.1822 111.958 40.6862 111.958ZM37.5502 112.126L37.7182 113.47L37.8582 113.666V119H36.1642V112.126H37.5502ZM46.7031 111.958C46.9364 111.958 47.1931 111.967 47.4731 111.986C47.7531 112.005 48.0377 112.042 48.3271 112.098C48.6164 112.154 48.8777 112.233 49.1111 112.336L48.9151 113.4C48.5697 113.381 48.2244 113.367 47.8791 113.358C47.5431 113.349 47.2491 113.344 46.9971 113.344C46.5211 113.344 46.1431 113.409 45.8631 113.54C45.5924 113.661 45.3964 113.885 45.2751 114.212C45.1537 114.529 45.0931 114.977 45.0931 115.556C45.0931 116.135 45.1537 116.587 45.2751 116.914C45.3964 117.231 45.5924 117.455 45.8631 117.586C46.1431 117.717 46.5211 117.782 46.9971 117.782C47.1371 117.782 47.3191 117.777 47.5431 117.768C47.7764 117.759 48.0237 117.745 48.2851 117.726C48.5557 117.707 48.8171 117.684 49.0691 117.656L49.2371 118.748C48.8731 118.897 48.4671 119.005 48.0191 119.07C47.5711 119.135 47.1277 119.168 46.6891 119.168C45.8677 119.168 45.2097 119.051 44.7151 118.818C44.2204 118.585 43.8611 118.207 43.6371 117.684C43.4224 117.152 43.3151 116.443 43.3151 115.556C43.3151 114.669 43.4271 113.965 43.6511 113.442C43.8751 112.91 44.2344 112.532 44.7291 112.308C45.2237 112.075 45.8817 111.958 46.7031 111.958ZM54.3051 111.958C55.5837 111.958 56.2231 112.588 56.2231 113.848V119H54.5151V114.366C54.5151 113.993 54.4497 113.736 54.3191 113.596C54.1977 113.456 53.9831 113.386 53.6751 113.386C53.3297 113.386 52.9751 113.461 52.6111 113.61C52.2471 113.759 51.8084 113.983 51.2951 114.282L51.1691 113.302C51.6917 112.873 52.2144 112.541 52.7371 112.308C53.2691 112.075 53.7917 111.958 54.3051 111.958ZM51.4771 109.2L51.4911 111.72C51.4911 112.065 51.4724 112.392 51.4351 112.7C51.4071 112.999 51.3651 113.255 51.3091 113.47L51.4771 113.666V119H49.7831V109.2H51.4771ZM63.2239 109.34V119H61.4739V109.34H63.2239ZM66.2199 109.34V110.768H58.4779V109.34H66.2199ZM66.7626 112.126L66.9866 113.47L67.1406 113.666V119H65.4466V112.126H66.7626ZM70.1226 111.958L69.9546 113.526H69.4646C69.1006 113.526 68.732 113.587 68.3586 113.708C67.9853 113.829 67.5186 114.011 66.9586 114.254L66.8466 113.26C67.332 112.849 67.8266 112.532 68.3306 112.308C68.8346 112.075 69.32 111.958 69.7866 111.958H70.1226ZM73.8615 111.958C74.4122 111.958 74.8742 112.033 75.2475 112.182C75.6302 112.322 75.9195 112.565 76.1155 112.91C76.3115 113.255 76.4095 113.731 76.4095 114.338V119H75.0655L74.8275 117.516L74.7015 117.32V114.324C74.7015 113.96 74.6175 113.699 74.4495 113.54C74.2815 113.372 73.9595 113.288 73.4835 113.288C73.1289 113.288 72.6809 113.302 72.1395 113.33C71.6075 113.358 71.0709 113.395 70.5295 113.442L70.3755 112.28C70.7022 112.215 71.0709 112.159 71.4815 112.112C71.8922 112.065 72.3075 112.028 72.7275 112C73.1475 111.972 73.5255 111.958 73.8615 111.958ZM75.6815 114.772L75.6675 115.822H72.5175C72.2375 115.831 72.0369 115.906 71.9155 116.046C71.7942 116.186 71.7335 116.377 71.7335 116.62V116.998C71.7335 117.278 71.8082 117.493 71.9575 117.642C72.1069 117.782 72.3402 117.852 72.6575 117.852C72.9095 117.852 73.1895 117.801 73.4975 117.698C73.8055 117.595 74.1089 117.446 74.4075 117.25C74.7155 117.054 74.9909 116.821 75.2335 116.55V117.432C75.1402 117.572 75.0049 117.74 74.8275 117.936C74.6502 118.123 74.4309 118.309 74.1695 118.496C73.9175 118.683 73.6235 118.837 73.2875 118.958C72.9609 119.079 72.5969 119.14 72.1955 119.14C71.7849 119.14 71.4162 119.07 71.0895 118.93C70.7629 118.781 70.5062 118.566 70.3195 118.286C70.1329 117.997 70.0395 117.642 70.0395 117.222V116.494C70.0395 115.953 70.2169 115.533 70.5715 115.234C70.9355 114.926 71.4302 114.772 72.0555 114.772H75.6815ZM81.9332 111.958C83.2118 111.958 83.8512 112.588 83.8512 113.848V119H82.1572V114.366C82.1572 113.993 82.0918 113.736 81.9612 113.596C81.8305 113.456 81.6112 113.386 81.3032 113.386C80.9578 113.386 80.6032 113.465 80.2392 113.624C79.8752 113.773 79.4365 113.993 78.9232 114.282L78.8532 113.26C79.3572 112.84 79.8705 112.518 80.3932 112.294C80.9158 112.07 81.4292 111.958 81.9332 111.958ZM78.7972 112.126L78.9652 113.47L79.1052 113.666V119H77.4112V112.126H78.7972ZM28.7154 127.34C28.8647 127.34 28.9954 127.382 29.1074 127.466C29.2194 127.55 29.2987 127.662 29.3454 127.802L32.2714 137H30.4794L28.2674 129.552C28.2301 129.403 28.1927 129.253 28.1554 129.104C28.1181 128.955 28.0854 128.81 28.0574 128.67H27.6654C27.6374 128.81 27.6047 128.955 27.5674 129.104C27.5301 129.253 27.4881 129.403 27.4414 129.552L25.2434 137H23.4514L26.3774 127.802C26.4147 127.662 26.4894 127.55 26.6014 127.466C26.7227 127.382 26.8581 127.34 27.0074 127.34H28.7154ZM30.3394 132.87V134.242H25.3694V132.87H30.3394ZM36.7185 129.958C37.5678 129.958 38.1792 130.271 38.5525 130.896C38.9258 131.521 39.1125 132.427 39.1125 133.612C39.1125 134.517 39.0145 135.231 38.8185 135.754C38.6318 136.267 38.3472 136.636 37.9645 136.86C37.5818 137.075 37.0965 137.182 36.5085 137.182C36.0418 137.182 35.5845 137.117 35.1365 136.986C34.6978 136.846 34.2918 136.631 33.9185 136.342L34.0305 135.502C34.3945 135.605 34.7212 135.693 35.0105 135.768C35.2998 135.843 35.6172 135.88 35.9625 135.88C36.3078 135.88 36.5785 135.824 36.7745 135.712C36.9798 135.591 37.1292 135.367 37.2225 135.04C37.3158 134.713 37.3625 134.242 37.3625 133.626C37.3625 133.019 37.3205 132.548 37.2365 132.212C37.1525 131.876 37.0125 131.643 36.8165 131.512C36.6298 131.372 36.3825 131.302 36.0745 131.302C35.7385 131.302 35.4212 131.377 35.1225 131.526C34.8238 131.666 34.4785 131.876 34.0865 132.156L33.8905 131.26C34.1052 131.008 34.3618 130.784 34.6605 130.588C34.9685 130.392 35.2998 130.238 35.6545 130.126C36.0092 130.014 36.3638 129.958 36.7185 129.958ZM33.8205 130.126L33.9885 131.456L34.1425 131.652V136.09L34.0725 136.258C34.1005 136.529 34.1192 136.799 34.1285 137.07C34.1378 137.35 34.1425 137.635 34.1425 137.924V139.73H32.4485V130.126H33.8205ZM44.1636 129.958C45.013 129.958 45.6243 130.271 45.9976 130.896C46.371 131.521 46.5576 132.427 46.5576 133.612C46.5576 134.517 46.4596 135.231 46.2636 135.754C46.077 136.267 45.7923 136.636 45.4096 136.86C45.027 137.075 44.5416 137.182 43.9536 137.182C43.487 137.182 43.0296 137.117 42.5816 136.986C42.143 136.846 41.737 136.631 41.3636 136.342L41.4756 135.502C41.8396 135.605 42.1663 135.693 42.4556 135.768C42.745 135.843 43.0623 135.88 43.4076 135.88C43.753 135.88 44.0236 135.824 44.2196 135.712C44.425 135.591 44.5743 135.367 44.6676 135.04C44.761 134.713 44.8076 134.242 44.8076 133.626C44.8076 133.019 44.7656 132.548 44.6816 132.212C44.5976 131.876 44.4576 131.643 44.2616 131.512C44.075 131.372 43.8276 131.302 43.5196 131.302C43.1836 131.302 42.8663 131.377 42.5676 131.526C42.269 131.666 41.9236 131.876 41.5316 132.156L41.3356 131.26C41.5503 131.008 41.807 130.784 42.1056 130.588C42.4136 130.392 42.745 130.238 43.0996 130.126C43.4543 130.014 43.809 129.958 44.1636 129.958ZM41.2656 130.126L41.4336 131.456L41.5876 131.652V136.09L41.5176 136.258C41.5456 136.529 41.5643 136.799 41.5736 137.07C41.583 137.35 41.5876 137.635 41.5876 137.924V139.73H39.8936V130.126H41.2656ZM48.6548 130.126L48.8788 131.47L49.0328 131.666V137H47.3388V130.126H48.6548ZM52.0148 129.958L51.8468 131.526H51.3568C50.9928 131.526 50.6241 131.587 50.2508 131.708C49.8775 131.829 49.4108 132.011 48.8508 132.254L48.7388 131.26C49.2241 130.849 49.7188 130.532 50.2228 130.308C50.7268 130.075 51.2121 129.958 51.6788 129.958H52.0148ZM55.2943 129.958C56.1343 129.958 56.8016 130.075 57.2963 130.308C57.8003 130.541 58.1596 130.924 58.3743 131.456C58.5983 131.988 58.7103 132.693 58.7103 133.57C58.7103 134.447 58.5983 135.152 58.3743 135.684C58.1596 136.207 57.8003 136.589 57.2963 136.832C56.8016 137.065 56.1343 137.182 55.2943 137.182C54.473 137.182 53.8103 137.065 53.3063 136.832C52.8116 136.589 52.4523 136.207 52.2283 135.684C52.0043 135.152 51.8923 134.447 51.8923 133.57C51.8923 132.693 52.0043 131.988 52.2283 131.456C52.4523 130.924 52.8116 130.541 53.3063 130.308C53.8103 130.075 54.473 129.958 55.2943 129.958ZM55.2943 131.246C54.8836 131.246 54.557 131.316 54.3143 131.456C54.081 131.587 53.913 131.82 53.8103 132.156C53.7076 132.492 53.6563 132.963 53.6563 133.57C53.6563 134.177 53.7076 134.648 53.8103 134.984C53.913 135.32 54.081 135.553 54.3143 135.684C54.557 135.815 54.8836 135.88 55.2943 135.88C55.7143 135.88 56.0456 135.815 56.2883 135.684C56.531 135.553 56.699 135.32 56.7923 134.984C56.895 134.648 56.9463 134.177 56.9463 133.57C56.9463 132.963 56.895 132.492 56.7923 132.156C56.699 131.82 56.531 131.587 56.2883 131.456C56.0456 131.316 55.7143 131.246 55.2943 131.246ZM65.938 130.126L63.572 136.594C63.5253 136.715 63.4507 136.813 63.348 136.888C63.2547 136.963 63.138 137 62.998 137H61.514C61.3833 137 61.2667 136.963 61.164 136.888C61.0613 136.813 60.9867 136.715 60.94 136.594L58.574 130.126H60.38L61.822 134.634C61.8873 134.839 61.948 135.049 62.004 135.264C62.06 135.469 62.1113 135.67 62.158 135.866H62.34C62.4053 135.661 62.466 135.455 62.522 135.25C62.5873 135.045 62.648 134.839 62.704 134.634L64.146 130.126H65.938ZM69.6049 129.958C70.1556 129.958 70.6176 130.033 70.9909 130.182C71.3736 130.322 71.6629 130.565 71.8589 130.91C72.0549 131.255 72.1529 131.731 72.1529 132.338V137H70.8089L70.5709 135.516L70.4449 135.32V132.324C70.4449 131.96 70.3609 131.699 70.1929 131.54C70.0249 131.372 69.7029 131.288 69.2269 131.288C68.8723 131.288 68.4243 131.302 67.8829 131.33C67.3509 131.358 66.8143 131.395 66.2729 131.442L66.1189 130.28C66.4456 130.215 66.8143 130.159 67.2249 130.112C67.6356 130.065 68.0509 130.028 68.4709 130C68.8909 129.972 69.2689 129.958 69.6049 129.958ZM71.4249 132.772L71.4109 133.822H68.2609C67.9809 133.831 67.7803 133.906 67.6589 134.046C67.5376 134.186 67.4769 134.377 67.4769 134.62V134.998C67.4769 135.278 67.5516 135.493 67.7009 135.642C67.8503 135.782 68.0836 135.852 68.4009 135.852C68.6529 135.852 68.9329 135.801 69.2409 135.698C69.5489 135.595 69.8523 135.446 70.1509 135.25C70.4589 135.054 70.7343 134.821 70.9769 134.55V135.432C70.8836 135.572 70.7483 135.74 70.5709 135.936C70.3936 136.123 70.1743 136.309 69.9129 136.496C69.6609 136.683 69.3669 136.837 69.0309 136.958C68.7043 137.079 68.3403 137.14 67.9389 137.14C67.5283 137.14 67.1596 137.07 66.8329 136.93C66.5063 136.781 66.2496 136.566 66.0629 136.286C65.8763 135.997 65.7829 135.642 65.7829 135.222V134.494C65.7829 133.953 65.9603 133.533 66.3149 133.234C66.6789 132.926 67.1736 132.772 67.7989 132.772H71.4249ZM74.8626 127.2L74.8486 134.928C74.8486 135.189 74.9232 135.39 75.0726 135.53C75.2219 135.661 75.4366 135.726 75.7166 135.726H76.3186L76.5146 136.916C76.4119 136.963 76.2672 137.005 76.0806 137.042C75.9032 137.079 75.7166 137.103 75.5206 137.112C75.3339 137.131 75.1706 137.14 75.0306 137.14C74.4612 137.14 74.0086 136.986 73.6726 136.678C73.3366 136.37 73.1686 135.927 73.1686 135.348V127.2H74.8626Z" fill="#C56A90"/>
<path d="M76.0191 81.1156L24.1874 81.1086" stroke="white" stroke-width="6.29" stroke-miterlimit="10"/>
<path d="M76.0191 81.1156L24.1874 81.1086" stroke="#C56A90" stroke-width="3.42" stroke-miterlimit="10"/>
<path d="M18.8871 22.6507L18.8871 18.8888L75.4492 18.8818" stroke="white" stroke-width="6.29" stroke-miterlimit="10"/>
<path d="M18.8871 22.6507L18.8871 18.8888L75.4492 18.8818" stroke="#C56A90" stroke-width="3.42" stroke-miterlimit="10"/>
<path d="M62.21 86.5127L37.8075 86.5001L13.4667 62.1593L13.4541 37.7568L37.7927 13.4183H62.2092L86.5486 37.7576L86.5486 62.1741L62.21 86.5127Z" fill="#FFEEF5" stroke="#C56A90" stroke-width="7"/>
<path d="M24.1856 81.108L18.8866 81.115L18.8866 22.6509" stroke="white" stroke-width="6.29" stroke-miterlimit="10"/>
<path d="M24.1856 81.108L18.8866 81.115L18.8866 22.6509" stroke="#C56A90" stroke-width="3.42" stroke-miterlimit="10"/>
<path d="M75.4494 18.8802L81.1133 18.8872L81.1134 81.1132L76.0179 81.1132" stroke="white" stroke-width="6.29" stroke-miterlimit="10"/>
<path d="M75.4494 18.8802L81.1133 18.8872L81.1134 81.1132L76.0179 81.1132" stroke="#C56A90" stroke-width="3.42" stroke-miterlimit="10"/>
<g clip-path="url(#clip0_273_6060)">
<path d="M65 46.6856C64.9054 46.899 64.8366 47.129 64.7125 47.3226C64.5669 47.5628 64.3607 47.7604 64.1147 47.8957C63.8686 48.031 63.5913 48.0993 63.3105 48.0936C59.3198 48.1007 55.3293 48.1007 51.339 48.0936C51.1162 48.0945 50.8954 48.0512 50.6895 47.9661C50.4836 47.881 50.2966 47.7558 50.1394 47.5979C49.9823 47.4399 49.858 47.2523 49.7739 47.046C49.6898 46.8396 49.6476 46.6186 49.6496 46.3958C49.6413 45.034 49.6496 43.6782 49.6496 42.3193C49.6496 42.2641 49.6579 42.2096 49.6662 42.1211H50.0332C54.901 42.1211 59.7684 42.1211 64.6353 42.1211C64.7571 42.1211 64.8782 42.106 65 42.0977V46.6856Z" fill="#C56A90"/>
<path d="M65 40.3968C64.9152 40.4014 64.8305 40.4097 64.7457 40.4097H49.6185C49.6503 39.6713 49.6125 38.9396 49.7313 38.2345C49.8569 37.49 50.5907 37.0043 51.3912 37.002C53.2222 36.9975 55.0531 37.002 56.8833 37.002H62.914C64.1352 37.002 64.5558 37.2865 65 38.4146V40.3968Z" fill="#C56A90"/>
<path d="M51.3496 56.646V57.684C51.3496 58.7221 51.3496 59.7601 51.3496 60.7981C51.3496 61.8854 50.6264 62.6003 49.5338 62.6011C47.3453 62.6011 45.1565 62.6011 42.9674 62.6011C41.25 62.6011 39.5328 62.6011 37.8158 62.6011C36.7248 62.6011 36 61.8816 36 60.7974C36 59.5046 36 58.2119 36 56.9191V56.646H51.3496Z" fill="#C56A90"/>
<path d="M51.3489 54.903H36.0272C36.0272 54.2342 35.9659 53.5699 36.0431 52.9222C36.1415 52.09 36.8572 51.5104 37.6993 51.5089C41.6804 51.5029 45.6616 51.5029 49.6428 51.5089C50.6097 51.5089 51.339 52.2511 51.3519 53.2166C51.3549 53.7704 51.3489 54.3234 51.3489 54.903Z" fill="#C56A90"/>
<path d="M39.8404 45.516C39.8404 44.829 39.8404 44.142 39.8404 43.4551C39.8518 41.0937 41.4035 39.1841 43.73 38.7975C44.5774 38.6568 45.4611 38.7112 46.3266 38.7218C46.7738 38.7286 47.1074 39.1629 47.087 39.5919C47.0791 39.8117 46.9857 40.0197 46.8268 40.1716C46.6678 40.3235 46.4557 40.4074 46.2358 40.4052C45.7062 40.4151 45.1766 40.4052 44.647 40.409C42.8085 40.4249 41.545 41.6998 41.5412 43.5398C41.5412 44.1988 41.5412 44.8578 41.5412 45.5917C41.8037 45.3352 42.0133 45.1158 42.238 44.9107C42.3736 44.7838 42.5471 44.7049 42.7319 44.686C42.9166 44.6672 43.1025 44.7094 43.2609 44.8063C43.4136 44.8948 43.5331 45.0307 43.6014 45.1933C43.6697 45.356 43.683 45.5365 43.6392 45.7074C43.5926 45.8789 43.5045 46.0364 43.3827 46.1659C42.7018 46.8627 42.0156 47.5482 41.3241 48.2314C40.9314 48.6188 40.4389 48.615 40.0432 48.2231C39.3516 47.5396 38.6642 46.8521 37.9807 46.1606C37.61 45.7823 37.607 45.2633 37.958 44.9221C38.2955 44.5945 38.8213 44.602 39.1769 44.9546C39.3759 45.1521 39.5552 45.3715 39.7405 45.5811L39.8404 45.516Z" fill="#C56A90"/>
<path d="M59.3861 54.0457C59.1984 54.2402 59.0146 54.4392 58.8209 54.6283C58.4366 55.0013 57.9001 55.0066 57.5597 54.654C57.2192 54.3015 57.2517 53.7892 57.6255 53.4125C58.2968 52.7361 58.9707 52.0622 59.6471 51.3909C60.0678 50.9732 60.5482 50.9732 60.9688 51.3909C61.6392 52.0557 62.3065 52.723 62.9708 53.3928C63.3771 53.8021 63.4013 54.3151 63.0396 54.6737C62.6893 55.021 62.1574 54.9892 61.7587 54.5882C61.5809 54.4081 61.4167 54.2144 61.2458 54.0268L61.1565 54.0684C61.1565 54.1653 61.1565 54.2621 61.1565 54.359C61.1391 55.2071 61.1988 56.0658 61.0884 56.9018C60.7858 59.1663 58.8542 60.8429 56.57 60.8936C55.9852 60.9065 55.4004 60.9004 54.8148 60.8936C54.2957 60.8883 53.9069 60.5191 53.9069 60.0409C53.9069 59.5628 54.2852 59.2011 54.811 59.192C55.4806 59.1807 56.1532 59.2094 56.819 59.1504C58.2618 59.0233 59.4133 57.7666 59.4451 56.32C59.4617 55.5755 59.4451 54.8303 59.4451 54.0858L59.3861 54.0457Z" fill="#C56A90"/>
</g>
<defs>
<clipPath id="clip0_273_6060">
<rect width="30" height="30" fill="white" transform="translate(35 35)"/>
</clipPath>
</defs>
</svg>
