<svg width="88" height="145" viewBox="0 0 88 145" fill="none" xmlns="http://www.w3.org/2000/svg">
<path d="M9.93554 103.453C10.7569 103.453 11.4102 103.528 11.8955 103.677C12.3809 103.817 12.7309 104.069 12.9455 104.433C13.1695 104.797 13.2815 105.31 13.2815 105.973C13.2815 106.664 13.1509 107.191 12.8895 107.555C12.6282 107.919 12.1989 108.129 11.6015 108.185V108.241C12.3389 108.306 12.8522 108.558 13.1415 108.997C13.4402 109.436 13.5895 110.042 13.5895 110.817C13.5895 111.48 13.4775 111.993 13.2535 112.357C13.0389 112.721 12.6935 112.978 12.2175 113.127C11.7509 113.267 11.1395 113.337 10.3835 113.337C9.79554 113.337 9.28221 113.332 8.84354 113.323C8.40487 113.323 8.00354 113.314 7.63954 113.295C7.27554 113.276 6.89754 113.253 6.50554 113.225L6.70154 111.951C6.92554 111.96 7.34087 111.97 7.94754 111.979C8.55421 111.988 9.26821 111.993 10.0895 111.993C10.5282 111.993 10.8735 111.956 11.1255 111.881C11.3775 111.797 11.5549 111.648 11.6575 111.433C11.7695 111.209 11.8255 110.896 11.8255 110.495C11.8255 110.047 11.7695 109.706 11.6575 109.473C11.5455 109.23 11.3589 109.062 11.0975 108.969C10.8455 108.866 10.4862 108.815 10.0195 108.815H6.68754V107.625H10.0055C10.4069 107.625 10.7195 107.588 10.9435 107.513C11.1769 107.429 11.3449 107.284 11.4475 107.079C11.5502 106.874 11.6015 106.58 11.6015 106.197C11.6015 105.814 11.5455 105.52 11.4335 105.315C11.3309 105.11 11.1535 104.974 10.9015 104.909C10.6495 104.834 10.2995 104.797 9.85154 104.797C9.35687 104.797 8.91821 104.797 8.53554 104.797C8.15287 104.797 7.81221 104.802 7.51354 104.811C7.21487 104.811 6.94421 104.82 6.70154 104.839L6.50554 103.565C6.86021 103.528 7.19621 103.504 7.51354 103.495C7.84021 103.476 8.19487 103.467 8.57754 103.467C8.96954 103.458 9.42221 103.453 9.93554 103.453ZM8.21354 103.565V113.225H6.50554V103.565H8.21354ZM19.0362 103.565V113.225H17.2862V103.565H19.0362ZM22.0322 103.565V104.993H14.2902V103.565H22.0322ZM29.7693 103.565C29.9186 103.565 30.0493 103.607 30.1613 103.691C30.2733 103.775 30.3526 103.887 30.3993 104.027L33.3253 113.225H31.5333L29.3213 105.777C29.2839 105.628 29.2466 105.478 29.2093 105.329C29.1719 105.18 29.1393 105.035 29.1113 104.895H28.7193C28.6913 105.035 28.6586 105.18 28.6213 105.329C28.5839 105.478 28.5419 105.628 28.4953 105.777L26.2973 113.225H24.5053L27.4313 104.027C27.4686 103.887 27.5433 103.775 27.6553 103.691C27.7766 103.607 27.9119 103.565 28.0613 103.565H29.7693ZM31.3933 109.095V110.467H26.4233V109.095H31.3933ZM38.4724 106.183C39.3217 106.183 39.933 106.496 40.3064 107.121C40.6797 107.746 40.8664 108.652 40.8664 109.837C40.8664 110.742 40.7684 111.456 40.5724 111.979C40.3857 112.492 40.101 112.861 39.7184 113.085C39.3357 113.3 38.8504 113.407 38.2624 113.407C37.7957 113.407 37.3384 113.342 36.8904 113.211C36.4517 113.071 36.0457 112.856 35.6724 112.567L35.7844 111.727C36.1484 111.83 36.475 111.918 36.7644 111.993C37.0537 112.068 37.371 112.105 37.7164 112.105C38.0617 112.105 38.3324 112.049 38.5284 111.937C38.7337 111.816 38.883 111.592 38.9764 111.265C39.0697 110.938 39.1164 110.467 39.1164 109.851C39.1164 109.244 39.0744 108.773 38.9904 108.437C38.9064 108.101 38.7664 107.868 38.5704 107.737C38.3837 107.597 38.1364 107.527 37.8284 107.527C37.4924 107.527 37.175 107.602 36.8764 107.751C36.5777 107.891 36.2324 108.101 35.8404 108.381L35.6444 107.485C35.859 107.233 36.1157 107.009 36.4144 106.813C36.7224 106.617 37.0537 106.463 37.4084 106.351C37.763 106.239 38.1177 106.183 38.4724 106.183ZM35.5744 106.351L35.7424 107.681L35.8964 107.877V112.315L35.8264 112.483C35.8544 112.754 35.873 113.024 35.8824 113.295C35.8917 113.575 35.8964 113.86 35.8964 114.149V115.955H34.2024V106.351H35.5744ZM46.6175 106.183C47.4668 106.183 48.0782 106.496 48.4515 107.121C48.8248 107.746 49.0115 108.652 49.0115 109.837C49.0115 110.742 48.9135 111.456 48.7175 111.979C48.5308 112.492 48.2462 112.861 47.8635 113.085C47.4808 113.3 46.9955 113.407 46.4075 113.407C45.9408 113.407 45.4835 113.342 45.0355 113.211C44.5968 113.071 44.1908 112.856 43.8175 112.567L43.9295 111.727C44.2935 111.83 44.6202 111.918 44.9095 111.993C45.1988 112.068 45.5162 112.105 45.8615 112.105C46.2068 112.105 46.4775 112.049 46.6735 111.937C46.8788 111.816 47.0282 111.592 47.1215 111.265C47.2148 110.938 47.2615 110.467 47.2615 109.851C47.2615 109.244 47.2195 108.773 47.1355 108.437C47.0515 108.101 46.9115 107.868 46.7155 107.737C46.5288 107.597 46.2815 107.527 45.9735 107.527C45.6375 107.527 45.3202 107.602 45.0215 107.751C44.7228 107.891 44.3775 108.101 43.9855 108.381L43.7895 107.485C44.0042 107.233 44.2608 107.009 44.5595 106.813C44.8675 106.617 45.1988 106.463 45.5535 106.351C45.9082 106.239 46.2628 106.183 46.6175 106.183ZM43.7195 106.351L43.8875 107.681L44.0415 107.877V112.315L43.9715 112.483C43.9995 112.754 44.0182 113.024 44.0275 113.295C44.0368 113.575 44.0415 113.86 44.0415 114.149V115.955H42.3475V106.351H43.7195ZM51.8087 106.351L52.0327 107.695L52.1867 107.891V113.225H50.4927V106.351H51.8087ZM55.1687 106.183L55.0007 107.751H54.5107C54.1467 107.751 53.778 107.812 53.4047 107.933C53.0313 108.054 52.5647 108.236 52.0047 108.479L51.8927 107.485C52.378 107.074 52.8727 106.757 53.3767 106.533C53.8807 106.3 54.366 106.183 54.8327 106.183H55.1687ZM59.1482 106.183C59.9882 106.183 60.6555 106.3 61.1502 106.533C61.6542 106.766 62.0135 107.149 62.2282 107.681C62.4522 108.213 62.5642 108.918 62.5642 109.795C62.5642 110.672 62.4522 111.377 62.2282 111.909C62.0135 112.432 61.6542 112.814 61.1502 113.057C60.6555 113.29 59.9882 113.407 59.1482 113.407C58.3268 113.407 57.6642 113.29 57.1602 113.057C56.6655 112.814 56.3062 112.432 56.0822 111.909C55.8582 111.377 55.7462 110.672 55.7462 109.795C55.7462 108.918 55.8582 108.213 56.0822 107.681C56.3062 107.149 56.6655 106.766 57.1602 106.533C57.6642 106.3 58.3268 106.183 59.1482 106.183ZM59.1482 107.471C58.7375 107.471 58.4108 107.541 58.1682 107.681C57.9348 107.812 57.7668 108.045 57.6642 108.381C57.5615 108.717 57.5102 109.188 57.5102 109.795C57.5102 110.402 57.5615 110.873 57.6642 111.209C57.7668 111.545 57.9348 111.778 58.1682 111.909C58.4108 112.04 58.7375 112.105 59.1482 112.105C59.5682 112.105 59.8995 112.04 60.1422 111.909C60.3848 111.778 60.5528 111.545 60.6462 111.209C60.7488 110.873 60.8002 110.402 60.8002 109.795C60.8002 109.188 60.7488 108.717 60.6462 108.381C60.5528 108.045 60.3848 107.812 60.1422 107.681C59.8995 107.541 59.5682 107.471 59.1482 107.471ZM70.4919 106.351L68.1259 112.819C68.0792 112.94 68.0046 113.038 67.9019 113.113C67.8086 113.188 67.6919 113.225 67.5519 113.225H66.0679C65.9372 113.225 65.8206 113.188 65.7179 113.113C65.6152 113.038 65.5406 112.94 65.4939 112.819L63.1279 106.351H64.9339L66.3759 110.859C66.4412 111.064 66.5019 111.274 66.5579 111.489C66.6139 111.694 66.6652 111.895 66.7119 112.091H66.8939C66.9592 111.886 67.0199 111.68 67.0759 111.475C67.1412 111.27 67.2019 111.064 67.2579 110.859L68.6999 106.351H70.4919ZM74.8588 106.183C75.4095 106.183 75.8715 106.258 76.2448 106.407C76.6275 106.547 76.9168 106.79 77.1128 107.135C77.3088 107.48 77.4068 107.956 77.4068 108.563V113.225H76.0628L75.8248 111.741L75.6988 111.545V108.549C75.6988 108.185 75.6148 107.924 75.4468 107.765C75.2788 107.597 74.9568 107.513 74.4808 107.513C74.1261 107.513 73.6781 107.527 73.1368 107.555C72.6048 107.583 72.0681 107.62 71.5268 107.667L71.3728 106.505C71.6995 106.44 72.0681 106.384 72.4788 106.337C72.8895 106.29 73.3048 106.253 73.7248 106.225C74.1448 106.197 74.5228 106.183 74.8588 106.183ZM76.6788 108.997L76.6648 110.047H73.5148C73.2348 110.056 73.0341 110.131 72.9128 110.271C72.7915 110.411 72.7308 110.602 72.7308 110.845V111.223C72.7308 111.503 72.8055 111.718 72.9548 111.867C73.1041 112.007 73.3375 112.077 73.6548 112.077C73.9068 112.077 74.1868 112.026 74.4948 111.923C74.8028 111.82 75.1061 111.671 75.4048 111.475C75.7128 111.279 75.9881 111.046 76.2308 110.775V111.657C76.1375 111.797 76.0021 111.965 75.8248 112.161C75.6475 112.348 75.4281 112.534 75.1668 112.721C74.9148 112.908 74.6208 113.062 74.2848 113.183C73.9581 113.304 73.5941 113.365 73.1928 113.365C72.7821 113.365 72.4135 113.295 72.0868 113.155C71.7601 113.006 71.5035 112.791 71.3168 112.511C71.1301 112.222 71.0368 111.867 71.0368 111.447V110.719C71.0368 110.178 71.2141 109.758 71.5688 109.459C71.9328 109.151 72.4275 108.997 73.0528 108.997H76.6788ZM80.8164 103.425L80.8024 111.153C80.8024 111.414 80.8771 111.615 81.0264 111.755C81.1758 111.886 81.3904 111.951 81.6704 111.951H82.2724L82.4684 113.141C82.3658 113.188 82.2211 113.23 82.0344 113.267C81.8571 113.304 81.6704 113.328 81.4744 113.337C81.2878 113.356 81.1244 113.365 80.9844 113.365C80.4151 113.365 79.9624 113.211 79.6264 112.903C79.2904 112.595 79.1224 112.152 79.1224 111.573V103.425H80.8164ZM36.3133 124.351L33.9473 130.819C33.9006 130.94 33.826 131.038 33.7233 131.113C33.63 131.188 33.5133 131.225 33.3733 131.225H31.8893C31.7586 131.225 31.642 131.188 31.5393 131.113C31.4366 131.038 31.362 130.94 31.3153 130.819L28.9493 124.351H30.7553L32.1973 128.859C32.2626 129.064 32.3233 129.274 32.3793 129.489C32.4353 129.694 32.4866 129.895 32.5333 130.091H32.7153C32.7806 129.886 32.8413 129.68 32.8973 129.475C32.9626 129.27 33.0233 129.064 33.0793 128.859L34.5213 124.351H36.3133ZM39.0402 124.351V131.225H37.3602V124.351H39.0402ZM38.5782 121.369C38.9142 121.369 39.0822 121.537 39.0822 121.873V122.657C39.0822 122.993 38.9142 123.161 38.5782 123.161H37.8222C37.4862 123.161 37.3182 122.993 37.3182 122.657V121.873C37.3182 121.537 37.4862 121.369 37.8222 121.369H38.5782ZM43.9216 124.183C45.0323 124.183 45.8303 124.379 46.3156 124.771C46.801 125.154 47.0483 125.723 47.0576 126.479C47.067 127.104 46.9176 127.58 46.6096 127.907C46.311 128.224 45.8116 128.383 45.1116 128.383H41.1916V127.333H44.6496C44.967 127.333 45.1676 127.249 45.2516 127.081C45.345 126.913 45.3916 126.708 45.3916 126.465C45.3823 126.082 45.2703 125.816 45.0556 125.667C44.8503 125.518 44.4956 125.443 43.9916 125.443C43.553 125.443 43.2123 125.504 42.9696 125.625C42.727 125.746 42.5543 125.966 42.4516 126.283C42.3583 126.6 42.3116 127.058 42.3116 127.655C42.3116 128.29 42.3723 128.78 42.4936 129.125C42.615 129.47 42.8156 129.708 43.0956 129.839C43.3756 129.96 43.749 130.021 44.2156 130.021C44.561 130.021 44.9576 130.007 45.4056 129.979C45.863 129.951 46.3016 129.914 46.7216 129.867L46.8896 130.945C46.6376 131.048 46.3483 131.132 46.0216 131.197C45.695 131.262 45.3543 131.309 44.9996 131.337C44.6543 131.374 44.3276 131.393 44.0196 131.393C43.1796 131.393 42.503 131.272 41.9896 131.029C41.4856 130.777 41.117 130.385 40.8836 129.853C40.6596 129.321 40.5476 128.635 40.5476 127.795C40.5476 126.89 40.6596 126.176 40.8836 125.653C41.117 125.121 41.481 124.743 41.9756 124.519C42.4796 124.295 43.1283 124.183 43.9216 124.183ZM58.9406 124.351L57.1206 130.777C57.0832 130.908 57.0086 131.015 56.8966 131.099C56.7846 131.183 56.6539 131.225 56.5046 131.225H55.1466C54.9972 131.225 54.8619 131.178 54.7406 131.085C54.6192 130.992 54.5492 130.866 54.5306 130.707L53.6206 126.493C53.5832 126.306 53.5506 126.12 53.5226 125.933C53.5039 125.746 53.4759 125.56 53.4386 125.373H53.2566C53.2286 125.56 53.1959 125.746 53.1586 125.933C53.1306 126.12 53.0979 126.306 53.0606 126.493L52.1646 130.707C52.1366 130.866 52.0619 130.992 51.9406 131.085C51.8286 131.178 51.6932 131.225 51.5346 131.225H50.1906C50.0412 131.225 49.9106 131.183 49.7986 131.099C49.6866 131.015 49.6166 130.908 49.5886 130.777L47.7546 124.351H49.4766L50.6246 129.069C50.6619 129.246 50.6946 129.428 50.7226 129.615C50.7599 129.792 50.7926 129.97 50.8206 130.147H50.9886C51.0352 129.97 51.0726 129.792 51.1006 129.615C51.1379 129.428 51.1752 129.246 51.2126 129.069L52.1226 124.869C52.1506 124.72 52.2159 124.598 52.3186 124.505C52.4306 124.402 52.5706 124.351 52.7386 124.351H53.9706C54.1199 124.351 54.2506 124.402 54.3626 124.505C54.4746 124.598 54.5446 124.724 54.5726 124.883L55.4826 129.069C55.5106 129.246 55.5432 129.424 55.5806 129.601C55.6272 129.778 55.6646 129.96 55.6926 130.147H55.8606C55.8979 129.96 55.9306 129.783 55.9586 129.615C55.9866 129.438 56.0239 129.256 56.0706 129.069L57.2186 124.351H58.9406Z" fill="#CD7EAD"/>
<path d="M70.019 75.3407L18.1873 75.3337" stroke="white" stroke-width="6.29" stroke-miterlimit="10"/>
<path d="M70.019 75.3407L18.1873 75.3337" stroke="#CD7EAD" stroke-width="3.42" stroke-miterlimit="10"/>
<path d="M12.8871 16.8757L12.8871 13.1137L69.4491 13.1068" stroke="white" stroke-width="6.29" stroke-miterlimit="10"/>
<path d="M12.8871 16.8757L12.8871 13.1137L69.4491 13.1068" stroke="#CD7EAD" stroke-width="3.42" stroke-miterlimit="10"/>
<path d="M56.21 80.7376L31.8075 80.7251L7.46668 56.3843L7.45414 31.9818L31.7927 7.64323H56.2092L80.5486 31.9826V56.3991L56.21 80.7376Z" fill="#FFF0FB" stroke="#CD7EAD" stroke-width="7"/>
<path d="M18.1855 75.3328L12.8865 75.3399L12.8865 16.8757" stroke="white" stroke-width="6.29" stroke-miterlimit="10"/>
<path d="M18.1855 75.3328L12.8865 75.3399L12.8865 16.8757" stroke="#CD7EAD" stroke-width="3.42" stroke-miterlimit="10"/>
<path d="M69.4494 13.1052L75.1133 13.1122L75.1134 75.3382L70.0179 75.3382" stroke="white" stroke-width="6.29" stroke-miterlimit="10"/>
<path d="M69.4494 13.1052L75.1133 13.1122L75.1134 75.3382L70.0179 75.3382" stroke="#CD7EAD" stroke-width="3.42" stroke-miterlimit="10"/>
<g clip-path="url(#clip0_471_7660)">
<path d="M51.5 44C47.3575 44 44 47.3575 44 51.5C44 55.6425 47.3575 59 51.5 59C55.6425 59 59 55.6425 59 51.5C59 47.3575 55.6425 44 51.5 44ZM55.49 51.7525L52.7238 54.4075C52.1588 54.965 51.4088 55.2462 50.6575 55.2462C49.9063 55.2462 49.1538 54.965 48.5788 54.4037L47.1638 53.0175C46.67 52.5338 46.6638 51.7425 47.1463 51.25C47.6288 50.755 48.42 50.7487 48.9137 51.2325L50.3275 52.6175C50.5075 52.795 50.8012 52.7913 50.98 52.615L53.7587 49.9475C54.255 49.47 55.0475 49.4838 55.5263 49.9838C56.0038 50.4813 55.9875 51.2737 55.49 51.7525ZM41.5 51.5C41.5 48.5125 42.81 45.8325 44.8862 44H35.25C34.5588 44 34 43.4412 34 42.75C34 42.0588 34.5588 41.5 35.25 41.5H45.25C45.9412 41.5 46.5 42.0588 46.5 42.75C46.5 42.78 46.4987 42.81 46.4962 42.84C47.9675 41.9875 49.6763 41.5 51.5 41.5V35.25C51.5 31.8038 48.6962 29 45.25 29H35.25C31.8038 29 29 31.8038 29 35.25V52.75C29 56.1962 31.8038 59 35.25 59H44.8862C42.81 57.1675 41.5 54.4875 41.5 51.5ZM35.25 35.25H45.25C45.9412 35.25 46.5 35.8088 46.5 36.5C46.5 37.1912 45.9412 37.75 45.25 37.75H35.25C34.5588 37.75 34 37.1912 34 36.5C34 35.8088 34.5588 35.25 35.25 35.25ZM37.75 50.25H35.25C34.5588 50.25 34 49.6912 34 49C34 48.3088 34.5588 47.75 35.25 47.75H37.75C38.4412 47.75 39 48.3088 39 49C39 49.6912 38.4412 50.25 37.75 50.25Z" fill="#CD7EAD"/>
</g>
<defs>
<clipPath id="clip0_471_7660">
<rect width="30" height="30" fill="white" transform="translate(29 29)"/>
</clipPath>
</defs>
</svg>
