<svg width="88" height="145" viewBox="0 0 88 145" fill="none" xmlns="http://www.w3.org/2000/svg">
<path d="M22.7154 103.34C22.8647 103.34 22.9954 103.382 23.1074 103.466C23.2194 103.55 23.2987 103.662 23.3454 103.802L26.2714 113H24.4794L22.2674 105.552C22.2301 105.403 22.1927 105.253 22.1554 105.104C22.1181 104.955 22.0854 104.81 22.0574 104.67H21.6654C21.6374 104.81 21.6047 104.955 21.5674 105.104C21.5301 105.253 21.4881 105.403 21.4414 105.552L19.2434 113H17.4514L20.3774 103.802C20.4147 103.662 20.4894 103.55 20.6014 103.466C20.7227 103.382 20.8581 103.34 21.0074 103.34H22.7154ZM24.3394 108.87V110.242H19.3694V108.87H24.3394ZM30.7185 105.958C31.5678 105.958 32.1792 106.271 32.5525 106.896C32.9258 107.521 33.1125 108.427 33.1125 109.612C33.1125 110.517 33.0145 111.231 32.8185 111.754C32.6318 112.267 32.3472 112.636 31.9645 112.86C31.5818 113.075 31.0965 113.182 30.5085 113.182C30.0418 113.182 29.5845 113.117 29.1365 112.986C28.6978 112.846 28.2918 112.631 27.9185 112.342L28.0305 111.502C28.3945 111.605 28.7212 111.693 29.0105 111.768C29.2998 111.843 29.6172 111.88 29.9625 111.88C30.3078 111.88 30.5785 111.824 30.7745 111.712C30.9798 111.591 31.1292 111.367 31.2225 111.04C31.3158 110.713 31.3625 110.242 31.3625 109.626C31.3625 109.019 31.3205 108.548 31.2365 108.212C31.1525 107.876 31.0125 107.643 30.8165 107.512C30.6298 107.372 30.3825 107.302 30.0745 107.302C29.7385 107.302 29.4212 107.377 29.1225 107.526C28.8238 107.666 28.4785 107.876 28.0865 108.156L27.8905 107.26C28.1052 107.008 28.3618 106.784 28.6605 106.588C28.9685 106.392 29.2998 106.238 29.6545 106.126C30.0092 106.014 30.3638 105.958 30.7185 105.958ZM27.8205 106.126L27.9885 107.456L28.1425 107.652V112.09L28.0725 112.258C28.1005 112.529 28.1192 112.799 28.1285 113.07C28.1378 113.35 28.1425 113.635 28.1425 113.924V115.73H26.4485V106.126H27.8205ZM38.1636 105.958C39.013 105.958 39.6243 106.271 39.9976 106.896C40.371 107.521 40.5576 108.427 40.5576 109.612C40.5576 110.517 40.4596 111.231 40.2636 111.754C40.077 112.267 39.7923 112.636 39.4096 112.86C39.027 113.075 38.5416 113.182 37.9536 113.182C37.487 113.182 37.0296 113.117 36.5816 112.986C36.143 112.846 35.737 112.631 35.3636 112.342L35.4756 111.502C35.8396 111.605 36.1663 111.693 36.4556 111.768C36.745 111.843 37.0623 111.88 37.4076 111.88C37.753 111.88 38.0236 111.824 38.2196 111.712C38.425 111.591 38.5743 111.367 38.6676 111.04C38.761 110.713 38.8076 110.242 38.8076 109.626C38.8076 109.019 38.7656 108.548 38.6816 108.212C38.5976 107.876 38.4576 107.643 38.2616 107.512C38.075 107.372 37.8276 107.302 37.5196 107.302C37.1836 107.302 36.8663 107.377 36.5676 107.526C36.269 107.666 35.9236 107.876 35.5316 108.156L35.3356 107.26C35.5503 107.008 35.807 106.784 36.1056 106.588C36.4136 106.392 36.745 106.238 37.0996 106.126C37.4543 106.014 37.809 105.958 38.1636 105.958ZM35.2656 106.126L35.4336 107.456L35.5876 107.652V112.09L35.5176 112.258C35.5456 112.529 35.5643 112.799 35.5736 113.07C35.583 113.35 35.5876 113.635 35.5876 113.924V115.73H33.8936V106.126H35.2656ZM42.6548 106.126L42.8788 107.47L43.0328 107.666V113H41.3388V106.126H42.6548ZM46.0148 105.958L45.8468 107.526H45.3568C44.9928 107.526 44.6241 107.587 44.2508 107.708C43.8775 107.829 43.4108 108.011 42.8508 108.254L42.7388 107.26C43.2241 106.849 43.7188 106.532 44.2228 106.308C44.7268 106.075 45.2121 105.958 45.6788 105.958H46.0148ZM49.2943 105.958C50.1343 105.958 50.8016 106.075 51.2963 106.308C51.8003 106.541 52.1596 106.924 52.3743 107.456C52.5983 107.988 52.7103 108.693 52.7103 109.57C52.7103 110.447 52.5983 111.152 52.3743 111.684C52.1596 112.207 51.8003 112.589 51.2963 112.832C50.8016 113.065 50.1343 113.182 49.2943 113.182C48.473 113.182 47.8103 113.065 47.3063 112.832C46.8116 112.589 46.4523 112.207 46.2283 111.684C46.0043 111.152 45.8923 110.447 45.8923 109.57C45.8923 108.693 46.0043 107.988 46.2283 107.456C46.4523 106.924 46.8116 106.541 47.3063 106.308C47.8103 106.075 48.473 105.958 49.2943 105.958ZM49.2943 107.246C48.8836 107.246 48.557 107.316 48.3143 107.456C48.081 107.587 47.913 107.82 47.8103 108.156C47.7076 108.492 47.6563 108.963 47.6563 109.57C47.6563 110.177 47.7076 110.648 47.8103 110.984C47.913 111.32 48.081 111.553 48.3143 111.684C48.557 111.815 48.8836 111.88 49.2943 111.88C49.7143 111.88 50.0456 111.815 50.2883 111.684C50.531 111.553 50.699 111.32 50.7923 110.984C50.895 110.648 50.9463 110.177 50.9463 109.57C50.9463 108.963 50.895 108.492 50.7923 108.156C50.699 107.82 50.531 107.587 50.2883 107.456C50.0456 107.316 49.7143 107.246 49.2943 107.246ZM59.938 106.126L57.572 112.594C57.5253 112.715 57.4507 112.813 57.348 112.888C57.2547 112.963 57.138 113 56.998 113H55.514C55.3833 113 55.2667 112.963 55.164 112.888C55.0613 112.813 54.9867 112.715 54.94 112.594L52.574 106.126H54.38L55.822 110.634C55.8873 110.839 55.948 111.049 56.004 111.264C56.06 111.469 56.1113 111.67 56.158 111.866H56.34C56.4053 111.661 56.466 111.455 56.522 111.25C56.5873 111.045 56.648 110.839 56.704 110.634L58.146 106.126H59.938ZM63.6049 105.958C64.1556 105.958 64.6176 106.033 64.9909 106.182C65.3736 106.322 65.6629 106.565 65.8589 106.91C66.0549 107.255 66.1529 107.731 66.1529 108.338V113H64.8089L64.5709 111.516L64.4449 111.32V108.324C64.4449 107.96 64.3609 107.699 64.1929 107.54C64.0249 107.372 63.7029 107.288 63.2269 107.288C62.8723 107.288 62.4243 107.302 61.8829 107.33C61.3509 107.358 60.8143 107.395 60.2729 107.442L60.1189 106.28C60.4456 106.215 60.8143 106.159 61.2249 106.112C61.6356 106.065 62.0509 106.028 62.4709 106C62.8909 105.972 63.2689 105.958 63.6049 105.958ZM65.4249 108.772L65.4109 109.822H62.2609C61.9809 109.831 61.7803 109.906 61.6589 110.046C61.5376 110.186 61.4769 110.377 61.4769 110.62V110.998C61.4769 111.278 61.5516 111.493 61.7009 111.642C61.8503 111.782 62.0836 111.852 62.4009 111.852C62.6529 111.852 62.9329 111.801 63.2409 111.698C63.5489 111.595 63.8523 111.446 64.1509 111.25C64.4589 111.054 64.7343 110.821 64.9769 110.55V111.432C64.8836 111.572 64.7483 111.74 64.5709 111.936C64.3936 112.123 64.1743 112.309 63.9129 112.496C63.6609 112.683 63.3669 112.837 63.0309 112.958C62.7043 113.079 62.3403 113.14 61.9389 113.14C61.5283 113.14 61.1596 113.07 60.8329 112.93C60.5063 112.781 60.2496 112.566 60.0629 112.286C59.8763 111.997 59.7829 111.642 59.7829 111.222V110.494C59.7829 109.953 59.9603 109.533 60.3149 109.234C60.6789 108.926 61.1736 108.772 61.7989 108.772H65.4249ZM68.8626 103.2L68.8486 110.928C68.8486 111.189 68.9232 111.39 69.0726 111.53C69.2219 111.661 69.4366 111.726 69.7166 111.726H70.3186L70.5146 112.916C70.4119 112.963 70.2672 113.005 70.0806 113.042C69.9032 113.079 69.7166 113.103 69.5206 113.112C69.3339 113.131 69.1706 113.14 69.0306 113.14C68.4612 113.14 68.0086 112.986 67.6726 112.678C67.3366 112.37 67.1686 111.927 67.1686 111.348V103.2H68.8626ZM11.7262 121.34L8.96817 130.51C8.92151 130.65 8.84217 130.767 8.73017 130.86C8.61817 130.953 8.48284 131 8.32417 131H6.67217C6.51351 131 6.37817 130.953 6.26617 130.86C6.15417 130.767 6.07951 130.65 6.04217 130.51L3.28417 121.34H5.09017L7.06417 128.606C7.11084 128.783 7.15751 128.961 7.20417 129.138C7.25084 129.315 7.28817 129.493 7.31617 129.67H7.68017C7.72684 129.493 7.76884 129.315 7.80617 129.138C7.85284 128.951 7.89951 128.769 7.94617 128.592L9.92017 121.34H11.7262ZM13.7415 124.126V131H12.0615V124.126H13.7415ZM13.2795 121.144C13.6155 121.144 13.7835 121.312 13.7835 121.648V122.432C13.7835 122.768 13.6155 122.936 13.2795 122.936H12.5235C12.1875 122.936 12.0195 122.768 12.0195 122.432V121.648C12.0195 121.312 12.1875 121.144 12.5235 121.144H13.2795ZM17.9229 123.958C19.0336 123.958 19.8316 124.154 20.3169 124.546C20.8023 124.929 21.0496 125.498 21.0589 126.254C21.0683 126.879 20.9189 127.355 20.6109 127.682C20.3123 127.999 19.8129 128.158 19.1129 128.158H15.1929V127.108H18.6509C18.9683 127.108 19.1689 127.024 19.2529 126.856C19.3463 126.688 19.3929 126.483 19.3929 126.24C19.3836 125.857 19.2716 125.591 19.0569 125.442C18.8516 125.293 18.4969 125.218 17.9929 125.218C17.5543 125.218 17.2136 125.279 16.9709 125.4C16.7283 125.521 16.5556 125.741 16.4529 126.058C16.3596 126.375 16.3129 126.833 16.3129 127.43C16.3129 128.065 16.3736 128.555 16.4949 128.9C16.6163 129.245 16.8169 129.483 17.0969 129.614C17.3769 129.735 17.7503 129.796 18.2169 129.796C18.5623 129.796 18.9589 129.782 19.4069 129.754C19.8643 129.726 20.3029 129.689 20.7229 129.642L20.8909 130.72C20.6389 130.823 20.3496 130.907 20.0229 130.972C19.6963 131.037 19.3556 131.084 19.0009 131.112C18.6556 131.149 18.3289 131.168 18.0209 131.168C17.1809 131.168 16.5043 131.047 15.9909 130.804C15.4869 130.552 15.1183 130.16 14.8849 129.628C14.6609 129.096 14.5489 128.41 14.5489 127.57C14.5489 126.665 14.6609 125.951 14.8849 125.428C15.1183 124.896 15.4823 124.518 15.9769 124.294C16.4809 124.07 17.1296 123.958 17.9229 123.958ZM32.2419 124.126L30.4219 130.552C30.3845 130.683 30.3099 130.79 30.1979 130.874C30.0859 130.958 29.9552 131 29.8059 131H28.4479C28.2985 131 28.1632 130.953 28.0419 130.86C27.9205 130.767 27.8505 130.641 27.8319 130.482L26.9219 126.268C26.8845 126.081 26.8519 125.895 26.8239 125.708C26.8052 125.521 26.7772 125.335 26.7399 125.148H26.5579C26.5299 125.335 26.4972 125.521 26.4599 125.708C26.4319 125.895 26.3992 126.081 26.3619 126.268L25.4659 130.482C25.4379 130.641 25.3632 130.767 25.2419 130.86C25.1299 130.953 24.9945 131 24.8359 131H23.4919C23.3425 131 23.2119 130.958 23.0999 130.874C22.9879 130.79 22.9179 130.683 22.8899 130.552L21.0559 124.126H22.7779L23.9259 128.844C23.9632 129.021 23.9959 129.203 24.0239 129.39C24.0612 129.567 24.0939 129.745 24.1219 129.922H24.2899C24.3365 129.745 24.3739 129.567 24.4019 129.39C24.4392 129.203 24.4765 129.021 24.5139 128.844L25.4239 124.644C25.4519 124.495 25.5172 124.373 25.6199 124.28C25.7319 124.177 25.8719 124.126 26.0399 124.126H27.2719C27.4212 124.126 27.5519 124.177 27.6639 124.28C27.7759 124.373 27.8459 124.499 27.8739 124.658L28.7839 128.844C28.8119 129.021 28.8445 129.199 28.8819 129.376C28.9285 129.553 28.9659 129.735 28.9939 129.922H29.1619C29.1992 129.735 29.2319 129.558 29.2599 129.39C29.2879 129.213 29.3252 129.031 29.3719 128.844L30.5199 124.126H32.2419ZM38.4451 121.186C38.7437 121.186 39.0891 121.195 39.4811 121.214C39.8731 121.223 40.2791 121.265 40.6991 121.34L40.5031 122.558C40.3911 122.549 40.2557 122.544 40.0971 122.544C39.9384 122.535 39.7611 122.53 39.5651 122.53C39.3691 122.521 39.1684 122.516 38.9631 122.516C38.7671 122.516 38.5757 122.516 38.3891 122.516C37.9131 122.516 37.5351 122.553 37.2551 122.628C36.9844 122.693 36.7884 122.829 36.6671 123.034C36.5551 123.239 36.4991 123.552 36.4991 123.972C36.4991 124.355 36.5457 124.653 36.6391 124.868C36.7324 125.073 36.8911 125.218 37.1151 125.302C37.3484 125.377 37.6564 125.414 38.0391 125.414H43.5551L43.5411 126.604H37.9551C37.5351 126.604 37.1991 126.655 36.9471 126.758C36.7044 126.851 36.5317 127.015 36.4291 127.248C36.3264 127.472 36.2751 127.799 36.2751 128.228C36.2751 128.62 36.3171 128.928 36.4011 129.152C36.4944 129.367 36.6531 129.521 36.8771 129.614C37.1011 129.698 37.4044 129.74 37.7871 129.74C38.3657 129.731 38.8837 129.647 39.3411 129.488C39.7984 129.32 40.1951 129.073 40.5311 128.746L40.7271 129.726C40.4377 130.081 40.1344 130.365 39.8171 130.58C39.4997 130.785 39.1404 130.93 38.7391 131.014C38.3377 131.107 37.8664 131.154 37.3251 131.154C36.6437 131.154 36.0884 131.075 35.6591 130.916C35.2391 130.748 34.9311 130.477 34.7351 130.104C34.5391 129.721 34.4411 129.203 34.4411 128.55C34.4411 127.813 34.5764 127.225 34.8471 126.786C35.1271 126.338 35.6217 126.081 36.3311 126.016V125.96C35.7524 125.904 35.3371 125.689 35.0851 125.316C34.8424 124.943 34.7211 124.406 34.7211 123.706C34.7211 123.146 34.7911 122.698 34.9311 122.362C35.0711 122.026 35.2904 121.774 35.5891 121.606C35.8971 121.438 36.2844 121.326 36.7511 121.27C37.2177 121.214 37.7824 121.186 38.4451 121.186ZM41.9451 123.776V128.956C41.9451 129.245 42.0057 129.451 42.1271 129.572C42.2484 129.693 42.4444 129.754 42.7151 129.754H43.6531L43.8491 130.916C43.6997 130.963 43.5177 131.005 43.3031 131.042C43.0977 131.079 42.8924 131.103 42.6871 131.112C42.4911 131.131 42.3231 131.14 42.1831 131.14C41.5951 131.14 41.1424 130.991 40.8251 130.692C40.5077 130.393 40.3491 129.978 40.3491 129.446V125.946L40.5171 123.776H41.9451ZM50.4753 121.172C50.914 121.172 51.2873 121.186 51.5953 121.214C51.9033 121.233 52.188 121.265 52.4493 121.312C52.7107 121.349 52.9813 121.405 53.2613 121.48L53.1073 122.782C52.818 122.763 52.5473 122.749 52.2953 122.74C52.0433 122.721 51.7727 122.707 51.4833 122.698C51.2033 122.689 50.8673 122.684 50.4753 122.684C49.934 122.684 49.5093 122.791 49.2013 123.006C48.8933 123.221 48.674 123.58 48.5433 124.084C48.422 124.588 48.3613 125.283 48.3613 126.17C48.3613 127.057 48.422 127.752 48.5433 128.256C48.674 128.76 48.8933 129.119 49.2013 129.334C49.5093 129.549 49.934 129.656 50.4753 129.656C51.1007 129.656 51.6233 129.647 52.0433 129.628C52.4727 129.6 52.8927 129.563 53.3033 129.516L53.4573 130.804C53.0373 130.935 52.6033 131.028 52.1553 131.084C51.7073 131.14 51.1473 131.168 50.4753 131.168C49.5047 131.168 48.73 131.009 48.1513 130.692C47.5727 130.365 47.1527 129.838 46.8913 129.11C46.6393 128.382 46.5133 127.402 46.5133 126.17C46.5133 124.938 46.6393 123.958 46.8913 123.23C47.1527 122.502 47.5727 121.979 48.1513 121.662C48.73 121.335 49.5047 121.172 50.4753 121.172ZM57.4624 123.958C58.0131 123.958 58.4751 124.033 58.8484 124.182C59.2311 124.322 59.5204 124.565 59.7164 124.91C59.9124 125.255 60.0104 125.731 60.0104 126.338V131H58.6664L58.4284 129.516L58.3024 129.32V126.324C58.3024 125.96 58.2184 125.699 58.0504 125.54C57.8824 125.372 57.5604 125.288 57.0844 125.288C56.7298 125.288 56.2818 125.302 55.7404 125.33C55.2084 125.358 54.6718 125.395 54.1304 125.442L53.9764 124.28C54.3031 124.215 54.6718 124.159 55.0824 124.112C55.4931 124.065 55.9084 124.028 56.3284 124C56.7484 123.972 57.1264 123.958 57.4624 123.958ZM59.2824 126.772L59.2684 127.822H56.1184C55.8384 127.831 55.6378 127.906 55.5164 128.046C55.3951 128.186 55.3344 128.377 55.3344 128.62V128.998C55.3344 129.278 55.4091 129.493 55.5584 129.642C55.7078 129.782 55.9411 129.852 56.2584 129.852C56.5104 129.852 56.7904 129.801 57.0984 129.698C57.4064 129.595 57.7098 129.446 58.0084 129.25C58.3164 129.054 58.5918 128.821 58.8344 128.55V129.432C58.7411 129.572 58.6058 129.74 58.4284 129.936C58.2511 130.123 58.0318 130.309 57.7704 130.496C57.5184 130.683 57.2244 130.837 56.8884 130.958C56.5618 131.079 56.1978 131.14 55.7964 131.14C55.3858 131.14 55.0171 131.07 54.6904 130.93C54.3638 130.781 54.1071 130.566 53.9204 130.286C53.7338 129.997 53.6404 129.642 53.6404 129.222V128.494C53.6404 127.953 53.8178 127.533 54.1724 127.234C54.5364 126.926 55.0311 126.772 55.6564 126.772H59.2824ZM65.5341 123.958C66.8127 123.958 67.4521 124.588 67.4521 125.848V131H65.7581V126.366C65.7581 125.993 65.6927 125.736 65.5621 125.596C65.4314 125.456 65.2121 125.386 64.9041 125.386C64.5587 125.386 64.2041 125.465 63.8401 125.624C63.4761 125.773 63.0374 125.993 62.5241 126.282L62.4541 125.26C62.9581 124.84 63.4714 124.518 63.9941 124.294C64.5167 124.07 65.0301 123.958 65.5341 123.958ZM62.3981 124.126L62.5661 125.47L62.7061 125.666V131H61.0121V124.126H62.3981ZM71.5509 123.958C71.7842 123.958 72.0409 123.967 72.3209 123.986C72.6009 124.005 72.8856 124.042 73.1749 124.098C73.4642 124.154 73.7256 124.233 73.9589 124.336L73.7629 125.4C73.4176 125.381 73.0722 125.367 72.7269 125.358C72.3909 125.349 72.0969 125.344 71.8449 125.344C71.3689 125.344 70.9909 125.409 70.7109 125.54C70.4402 125.661 70.2442 125.885 70.1229 126.212C70.0016 126.529 69.9409 126.977 69.9409 127.556C69.9409 128.135 70.0016 128.587 70.1229 128.914C70.2442 129.231 70.4402 129.455 70.7109 129.586C70.9909 129.717 71.3689 129.782 71.8449 129.782C71.9849 129.782 72.1669 129.777 72.3909 129.768C72.6242 129.759 72.8716 129.745 73.1329 129.726C73.4036 129.707 73.6649 129.684 73.9169 129.656L74.0849 130.748C73.7209 130.897 73.3149 131.005 72.8669 131.07C72.4189 131.135 71.9756 131.168 71.5369 131.168C70.7156 131.168 70.0576 131.051 69.5629 130.818C69.0682 130.585 68.7089 130.207 68.4849 129.684C68.2702 129.152 68.1629 128.443 68.1629 127.556C68.1629 126.669 68.2749 125.965 68.4989 125.442C68.7229 124.91 69.0822 124.532 69.5769 124.308C70.0716 124.075 70.7296 123.958 71.5509 123.958ZM77.6012 123.958C78.7119 123.958 79.5099 124.154 79.9952 124.546C80.4805 124.929 80.7279 125.498 80.7372 126.254C80.7465 126.879 80.5972 127.355 80.2892 127.682C79.9905 127.999 79.4912 128.158 78.7912 128.158H74.8712V127.108H78.3292C78.6465 127.108 78.8472 127.024 78.9312 126.856C79.0245 126.688 79.0712 126.483 79.0712 126.24C79.0619 125.857 78.9499 125.591 78.7352 125.442C78.5299 125.293 78.1752 125.218 77.6712 125.218C77.2325 125.218 76.8919 125.279 76.6492 125.4C76.4065 125.521 76.2339 125.741 76.1312 126.058C76.0379 126.375 75.9912 126.833 75.9912 127.43C75.9912 128.065 76.0519 128.555 76.1732 128.9C76.2945 129.245 76.4952 129.483 76.7752 129.614C77.0552 129.735 77.4285 129.796 77.8952 129.796C78.2405 129.796 78.6372 129.782 79.0852 129.754C79.5425 129.726 79.9812 129.689 80.4012 129.642L80.5692 130.72C80.3172 130.823 80.0279 130.907 79.7012 130.972C79.3745 131.037 79.0339 131.084 78.6792 131.112C78.3339 131.149 78.0072 131.168 77.6992 131.168C76.8592 131.168 76.1825 131.047 75.6692 130.804C75.1652 130.552 74.7965 130.16 74.5632 129.628C74.3392 129.096 74.2272 128.41 74.2272 127.57C74.2272 126.665 74.3392 125.951 74.5632 125.428C74.7965 124.896 75.1605 124.518 75.6552 124.294C76.1592 124.07 76.8079 123.958 77.6012 123.958ZM83.1278 121.2L83.1138 128.928C83.1138 129.189 83.1885 129.39 83.3378 129.53C83.4871 129.661 83.7018 129.726 83.9818 129.726H84.5838L84.7798 130.916C84.6771 130.963 84.5325 131.005 84.3458 131.042C84.1685 131.079 83.9818 131.103 83.7858 131.112C83.5991 131.131 83.4358 131.14 83.2958 131.14C82.7265 131.14 82.2738 130.986 81.9378 130.678C81.6018 130.37 81.4338 129.927 81.4338 129.348V121.2H83.1278Z" fill="#333839"/>
<path d="M70.0189 75.1159L18.1873 75.1089" stroke="white" stroke-width="6.29" stroke-miterlimit="10"/>
<path d="M70.0189 75.1159L18.1873 75.1089" stroke="#CD7E8F" stroke-width="3.42" stroke-miterlimit="10"/>
<path d="M12.8871 16.6508L12.887 12.8889L69.4491 12.8819" stroke="white" stroke-width="6.29" stroke-miterlimit="10"/>
<path d="M12.8871 16.6508L12.887 12.8889L69.4491 12.8819" stroke="#CD7E8F" stroke-width="3.42" stroke-miterlimit="10"/>
<path d="M56.2099 80.5128L31.8075 80.5003L7.46665 56.1594L7.45411 31.757L31.7927 7.41838H56.2092L80.5485 31.7577V56.1742L56.2099 80.5128Z" fill="#FFEAEE" stroke="#CD7E8F" stroke-width="7"/>
<path d="M18.1855 75.108L12.8865 75.115L12.8865 16.6509" stroke="white" stroke-width="6.29" stroke-miterlimit="10"/>
<path d="M18.1855 75.108L12.8865 75.115L12.8865 16.6509" stroke="#CD7E8F" stroke-width="3.42" stroke-miterlimit="10"/>
<path d="M69.4493 12.8803L75.1133 12.8874L75.1133 75.1134L70.0179 75.1134" stroke="white" stroke-width="6.29" stroke-miterlimit="10"/>
<path d="M69.4493 12.8803L75.1133 12.8874L75.1133 75.1134L70.0179 75.1134" stroke="#CD7E8F" stroke-width="3.42" stroke-miterlimit="10"/>
<g clip-path="url(#clip0_482_8047)">
<path d="M53.8402 50.2256C53.8863 50.8863 53.8863 51.5495 53.8402 52.2103C53.7605 52.6728 53.5326 53.097 53.1908 53.4191C52.849 53.7412 52.4118 53.9439 51.9449 53.9965C51.772 54.0117 51.5981 54.0117 51.4252 53.9965H34.2144C33.6785 54.0426 33.1435 53.8978 32.7043 53.5876C32.265 53.2774 31.9499 52.8219 31.8147 52.3019C31.7458 52.0379 31.7149 51.7654 31.723 51.4927C31.723 44.7345 31.723 37.9762 31.723 31.2179C31.7021 30.8878 31.7527 30.557 31.8712 30.2481C31.9896 29.9392 32.1733 29.6594 32.4096 29.4277C32.646 29.1959 32.9295 29.0177 33.2409 28.9051C33.5523 28.7926 33.8843 28.7482 34.2144 28.7752H51.4252C51.7533 28.7482 52.0833 28.7921 52.3929 28.9039C52.7025 29.0157 52.9843 29.1928 53.2192 29.4231C53.4542 29.6535 53.6367 29.9316 53.7544 30.2387C53.8721 30.5457 53.9222 30.8745 53.9014 31.2027C53.9014 32.4088 53.9014 33.6149 53.9014 34.821C53.9014 34.9278 53.9014 35.0194 53.9014 35.1568C52.6656 34.9767 51.4043 35.1056 50.2306 35.5319C49.0569 35.9582 48.0073 36.6686 47.176 37.5996C46.4826 38.3516 45.9534 39.2394 45.6218 40.2066C45.2903 41.1738 45.1637 42.1992 45.2501 43.2179C45.3268 44.2516 45.6135 45.2589 46.0927 46.1784C46.5719 47.0978 47.2336 47.9101 48.0373 48.5658C48.8411 49.2215 49.7701 49.7068 50.7678 49.9922C51.7654 50.2775 52.8108 50.3569 53.8402 50.2256ZM41.0926 46.6072C39.931 46.6072 38.7693 46.6072 37.623 46.6072C37.3434 46.6045 37.0685 46.6785 36.8281 46.821C36.651 46.9388 36.5195 47.1136 36.4556 47.3163C36.3916 47.519 36.3991 47.7375 36.4766 47.9355C36.5437 48.1472 36.679 48.3309 36.8615 48.4579C37.0439 48.5849 37.2633 48.6481 37.4854 48.6378H44.6999C44.9156 48.6468 45.1286 48.5864 45.3075 48.4654C45.4863 48.3445 45.6216 48.1695 45.6934 47.966C45.751 47.8089 45.7691 47.6401 45.7462 47.4744C45.7232 47.3087 45.66 47.1511 45.5619 47.0155C45.4639 46.8798 45.334 46.7703 45.1837 46.6965C45.0334 46.6227 44.8673 46.5868 44.6999 46.592L41.0926 46.6072ZM40.6341 40.363H43.6911C43.8371 40.3807 43.9852 40.3674 44.1257 40.3237C44.2662 40.28 44.3958 40.2071 44.5059 40.1097C44.616 40.0123 44.7042 39.8926 44.7646 39.7586C44.825 39.6246 44.8562 39.4794 44.8562 39.3324C44.8562 39.1855 44.825 39.0402 44.7646 38.9062C44.7042 38.7722 44.616 38.6526 44.5059 38.5552C44.3958 38.4578 44.2662 38.3848 44.1257 38.3411C43.9852 38.2975 43.8371 38.2841 43.6911 38.3019H37.5771C37.3524 38.3034 37.1317 38.3612 36.9351 38.4698C36.747 38.5753 36.6006 38.7417 36.52 38.9416C36.4394 39.1415 36.4295 39.3628 36.4919 39.5691C36.5376 39.7859 36.6569 39.9802 36.8296 40.1193C37.0023 40.2584 37.2177 40.3337 37.4395 40.3324L40.6341 40.363ZM40.2978 44.5004H43.0185C43.1949 44.5051 43.3707 44.4792 43.5382 44.424C43.7526 44.3463 43.9342 44.1983 44.0536 44.0043C44.173 43.8102 44.223 43.5814 44.1955 43.3553C44.1672 43.1321 44.0615 42.9258 43.8967 42.7724C43.732 42.619 43.5186 42.5281 43.2937 42.5156H37.302C37.2013 42.4932 37.0969 42.4932 36.9963 42.5156C36.796 42.6126 36.6335 42.7729 36.5339 42.9718C36.4344 43.1706 36.4035 43.3967 36.446 43.6149C36.479 43.8469 36.5944 44.0594 36.7712 44.2135C36.948 44.3677 37.1743 44.4532 37.409 44.4546L40.2978 44.5004ZM38.7693 36.2103H40.0533C40.3174 36.2189 40.5746 36.1252 40.7711 35.9488C40.9677 35.7724 41.0883 35.5269 41.1079 35.2637C41.125 35.1293 41.1139 34.9928 41.0753 34.8629C41.0367 34.7331 40.9715 34.6126 40.8838 34.5092C40.7961 34.4059 40.6879 34.3218 40.566 34.2625C40.444 34.2031 40.3111 34.1698 40.1755 34.1645C39.2279 34.1645 38.2802 34.1645 37.3325 34.1645C37.2 34.1723 37.0703 34.2061 36.9508 34.2641C36.8314 34.322 36.7246 34.403 36.6365 34.5023C36.5485 34.6016 36.4809 34.7172 36.4378 34.8427C36.3946 34.9681 36.3766 35.1008 36.3849 35.2332C36.4044 35.5018 36.5261 35.7527 36.7251 35.9345C36.9241 36.1162 37.1852 36.2149 37.4548 36.2103H38.7693Z" fill="#CD7E8F"/>
<path d="M29.6595 33.5538V51.676C29.6306 52.5281 29.8565 53.3695 30.3084 54.0928C30.7603 54.8162 31.4178 55.3886 32.1968 55.737C32.8306 56.0202 33.5205 56.1559 34.2144 56.134H49.1019C49.1588 56.4529 49.1469 56.7802 49.0669 57.0942C48.987 57.4081 48.8408 57.7013 48.6382 57.9543C48.4356 58.2072 48.1813 58.414 47.8922 58.5609C47.6032 58.7077 47.286 58.7912 46.962 58.8057H29.415C28.8383 58.8473 28.267 58.6711 27.8141 58.312C27.3613 57.953 27.0598 57.4372 26.9694 56.8668C26.9542 56.6992 26.9542 56.5306 26.9694 56.363V35.905C26.955 35.5626 27.0177 35.2215 27.1529 34.9065C27.288 34.5916 27.4922 34.311 27.7503 34.0854C28.0085 33.8598 28.314 33.6949 28.6445 33.6029C28.9749 33.5109 29.3218 33.4941 29.6595 33.5538Z" fill="#CD7E8F"/>
<path d="M56.0107 47.2637C54.9989 47.96 53.7834 48.299 52.5568 48.2271C51.3302 48.1552 50.1628 47.6765 49.2395 46.8667C48.3784 46.1858 47.751 45.254 47.4442 44.2007C47.1374 43.1474 47.1666 42.0249 47.5276 40.9889C47.8039 39.9563 48.3926 39.0341 49.2133 38.3482C50.0341 37.6624 51.0467 37.2463 52.113 37.1568C53.1425 36.9981 54.1959 37.1502 55.1382 37.5936C56.0804 38.037 56.8686 38.7515 57.4016 39.6453C58.0071 40.509 58.3432 41.5323 58.3677 42.5864C58.3922 43.6405 58.1039 44.6782 57.5392 45.569C57.5026 45.6033 57.4735 45.6447 57.4536 45.6906C57.4336 45.7366 57.4234 45.7861 57.4234 45.8362C57.4234 45.8863 57.4336 45.9358 57.4536 45.9818C57.4735 46.0277 57.5026 46.0691 57.5392 46.1034C58.2117 46.7548 58.8842 47.4265 59.5568 48.1186C59.6695 48.2091 59.7617 48.3224 59.8274 48.451C59.8931 48.5796 59.9308 48.7206 59.938 48.8649C59.9453 49.0091 59.9218 49.1532 59.8693 49.2877C59.8167 49.4222 59.7363 49.5441 59.6332 49.6453C59.54 49.7575 59.4232 49.8477 59.2911 49.9096C59.159 49.9715 59.0149 50.0036 58.869 50.0036C58.723 50.0036 58.5789 49.9715 58.4468 49.9096C58.3147 49.8477 58.1979 49.7575 58.1047 49.6453L56.0107 47.2637ZM52.8773 46.1339C53.3339 46.1441 53.7879 46.0626 54.2123 45.8942C54.6367 45.7258 55.023 45.4739 55.348 45.1535C55.6731 44.833 55.9304 44.4506 56.1046 44.029C56.2788 43.6073 56.3664 43.1549 56.3622 42.6988C56.3622 42.2417 56.2721 41.789 56.097 41.3667C55.9218 40.9444 55.6651 40.5606 55.3415 40.2374C55.0179 39.9142 54.6337 39.6578 54.2109 39.4828C53.7881 39.3079 53.3349 39.2179 52.8773 39.2179C52.4196 39.2179 51.9665 39.3079 51.5436 39.4828C51.1208 39.6578 50.7366 39.9142 50.413 40.2374C50.0894 40.5606 49.8327 40.9444 49.6576 41.3667C49.4825 41.789 49.3923 42.2417 49.3923 42.6988C49.3883 43.1484 49.4735 43.5944 49.643 44.011C49.8124 44.4276 50.0629 44.8066 50.3798 45.1259C50.6967 45.4453 51.0738 45.6988 51.4894 45.8719C51.9049 46.0449 52.3507 46.1339 52.8008 46.1339H52.8773Z" fill="#CD7E8F"/>
</g>
<defs>
<clipPath id="clip0_482_8047">
<rect width="33.0612" height="30" fill="white" transform="translate(26.9694 28.7751)"/>
</clipPath>
</defs>
</svg>
