<svg width="100" height="156" viewBox="0 0 100 156" fill="none" xmlns="http://www.w3.org/2000/svg">
<rect width="100" height="156" rx="19" fill="#F9FBFF"/>
<path d="M26.4037 109.231C27.2251 109.231 27.8784 109.305 28.3637 109.455C28.8491 109.595 29.1991 109.847 29.4137 110.211C29.6377 110.575 29.7497 111.088 29.7497 111.751C29.7497 112.441 29.6191 112.969 29.3577 113.333C29.0964 113.697 28.6671 113.907 28.0697 113.963V114.019C28.8071 114.084 29.3204 114.336 29.6097 114.775C29.9084 115.213 30.0577 115.82 30.0577 116.595C30.0577 117.257 29.9457 117.771 29.7217 118.135C29.5071 118.499 29.1617 118.755 28.6857 118.905C28.2191 119.045 27.6077 119.115 26.8517 119.115C26.2637 119.115 25.7504 119.11 25.3117 119.101C24.8731 119.101 24.4717 119.091 24.1077 119.073C23.7437 119.054 23.3657 119.031 22.9737 119.003L23.1697 117.729C23.3937 117.738 23.8091 117.747 24.4157 117.757C25.0224 117.766 25.7364 117.771 26.5577 117.771C26.9964 117.771 27.3417 117.733 27.5937 117.659C27.8457 117.575 28.0231 117.425 28.1257 117.211C28.2377 116.987 28.2937 116.674 28.2937 116.273C28.2937 115.825 28.2377 115.484 28.1257 115.251C28.0137 115.008 27.8271 114.84 27.5657 114.747C27.3137 114.644 26.9544 114.593 26.4877 114.593H23.1557V113.403H26.4737C26.8751 113.403 27.1877 113.365 27.4117 113.291C27.6451 113.207 27.8131 113.062 27.9157 112.857C28.0184 112.651 28.0697 112.357 28.0697 111.975C28.0697 111.592 28.0137 111.298 27.9017 111.093C27.7991 110.887 27.6217 110.752 27.3697 110.687C27.1177 110.612 26.7677 110.575 26.3197 110.575C25.8251 110.575 25.3864 110.575 25.0037 110.575C24.6211 110.575 24.2804 110.579 23.9817 110.589C23.6831 110.589 23.4124 110.598 23.1697 110.617L22.9737 109.343C23.3284 109.305 23.6644 109.282 23.9817 109.273C24.3084 109.254 24.6631 109.245 25.0457 109.245C25.4377 109.235 25.8904 109.231 26.4037 109.231ZM24.6817 109.343V119.003H22.9737V109.343H24.6817ZM35.6444 109.343V119.003H33.8944V109.343H35.6444ZM38.6404 109.343V110.771H30.8984V109.343H38.6404ZM45.7113 109.161C46.1873 109.17 46.6866 109.198 47.2093 109.245C47.7413 109.291 48.2593 109.38 48.7633 109.511L48.6513 110.701C48.2499 110.691 47.7833 110.682 47.2513 110.673C46.7286 110.654 46.2246 110.645 45.7393 110.645C45.4406 110.645 45.1839 110.654 44.9693 110.673C44.7639 110.691 44.5959 110.738 44.4653 110.813C44.3346 110.887 44.2366 111.004 44.1713 111.163C44.1153 111.312 44.0873 111.522 44.0873 111.793C44.0873 112.213 44.1713 112.511 44.3393 112.689C44.5166 112.866 44.8013 113.006 45.1933 113.109L47.0973 113.669C47.8626 113.902 48.3899 114.243 48.6793 114.691C48.9686 115.129 49.1133 115.717 49.1133 116.455C49.1133 117.005 49.0479 117.458 48.9173 117.813C48.7866 118.167 48.5859 118.443 48.3153 118.639C48.0446 118.835 47.6899 118.975 47.2513 119.059C46.8126 119.143 46.2853 119.185 45.6693 119.185C45.3519 119.185 44.9133 119.166 44.3533 119.129C43.8026 119.091 43.1726 118.998 42.4633 118.849L42.5753 117.589C43.1259 117.607 43.5879 117.626 43.9613 117.645C44.3346 117.654 44.6566 117.659 44.9273 117.659C45.1979 117.659 45.4499 117.659 45.6833 117.659C46.1126 117.659 46.4486 117.631 46.6913 117.575C46.9339 117.519 47.1019 117.402 47.1953 117.225C47.2979 117.047 47.3493 116.791 47.3493 116.455C47.3493 116.165 47.3119 115.941 47.2373 115.783C47.1719 115.615 47.0599 115.484 46.9013 115.391C46.7426 115.297 46.5373 115.218 46.2853 115.153L44.3113 114.551C43.5833 114.327 43.0699 113.995 42.7713 113.557C42.4819 113.118 42.3373 112.53 42.3373 111.793C42.3373 111.242 42.4026 110.794 42.5333 110.449C42.6639 110.094 42.8646 109.828 43.1353 109.651C43.4059 109.464 43.7513 109.338 44.1713 109.273C44.6006 109.198 45.1139 109.161 45.7113 109.161ZM52.8833 110.169V116.931C52.8833 117.22 52.944 117.425 53.0653 117.547C53.196 117.668 53.4153 117.729 53.7233 117.729H54.6753L54.8573 118.919C54.6987 118.965 54.5073 119.007 54.2833 119.045C54.0593 119.082 53.84 119.105 53.6253 119.115C53.4107 119.133 53.2287 119.143 53.0793 119.143C52.482 119.143 52.0153 118.984 51.6793 118.667C51.3527 118.34 51.1893 117.873 51.1893 117.267V110.169H52.8833ZM54.9273 112.129V113.305H49.9713V112.199L51.3153 112.129H54.9273ZM59.2878 111.961C60.1278 111.961 60.7951 112.077 61.2898 112.311C61.7938 112.544 62.1531 112.927 62.3678 113.459C62.5918 113.991 62.7038 114.695 62.7038 115.573C62.7038 116.45 62.5918 117.155 62.3678 117.687C62.1531 118.209 61.7938 118.592 61.2898 118.835C60.7951 119.068 60.1278 119.185 59.2878 119.185C58.4664 119.185 57.8038 119.068 57.2998 118.835C56.8051 118.592 56.4458 118.209 56.2218 117.687C55.9978 117.155 55.8858 116.45 55.8858 115.573C55.8858 114.695 55.9978 113.991 56.2218 113.459C56.4458 112.927 56.8051 112.544 57.2998 112.311C57.8038 112.077 58.4664 111.961 59.2878 111.961ZM59.2878 113.249C58.8771 113.249 58.5504 113.319 58.3078 113.459C58.0744 113.589 57.9064 113.823 57.8038 114.159C57.7011 114.495 57.6498 114.966 57.6498 115.573C57.6498 116.179 57.7011 116.651 57.8038 116.987C57.9064 117.323 58.0744 117.556 58.3078 117.687C58.5504 117.817 58.8771 117.883 59.2878 117.883C59.7078 117.883 60.0391 117.817 60.2818 117.687C60.5244 117.556 60.6924 117.323 60.7858 116.987C60.8884 116.651 60.9398 116.179 60.9398 115.573C60.9398 114.966 60.8884 114.495 60.7858 114.159C60.6924 113.823 60.5244 113.589 60.2818 113.459C60.0391 113.319 59.7078 113.249 59.2878 113.249ZM67.3809 111.961C67.6142 111.961 67.8709 111.97 68.1509 111.989C68.4309 112.007 68.7155 112.045 69.0049 112.101C69.2942 112.157 69.5555 112.236 69.7889 112.339L69.5929 113.403C69.2475 113.384 68.9022 113.37 68.5569 113.361C68.2209 113.351 67.9269 113.347 67.6749 113.347C67.1989 113.347 66.8209 113.412 66.5409 113.543C66.2702 113.664 66.0742 113.888 65.9529 114.215C65.8315 114.532 65.7709 114.98 65.7709 115.559C65.7709 116.137 65.8315 116.59 65.9529 116.917C66.0742 117.234 66.2702 117.458 66.5409 117.589C66.8209 117.719 67.1989 117.785 67.6749 117.785C67.8149 117.785 67.9969 117.78 68.2209 117.771C68.4542 117.761 68.7015 117.747 68.9629 117.729C69.2335 117.71 69.4949 117.687 69.7469 117.659L69.9149 118.751C69.5509 118.9 69.1449 119.007 68.6969 119.073C68.2489 119.138 67.8055 119.171 67.3669 119.171C66.5455 119.171 65.8875 119.054 65.3929 118.821C64.8982 118.587 64.5389 118.209 64.3149 117.687C64.1002 117.155 63.9929 116.445 63.9929 115.559C63.9929 114.672 64.1049 113.967 64.3289 113.445C64.5529 112.913 64.9122 112.535 65.4069 112.311C65.9015 112.077 66.5595 111.961 67.3809 111.961ZM77.5169 112.129L75.5569 114.579C75.4822 114.691 75.3889 114.803 75.2769 114.915C75.1649 115.017 75.0669 115.097 74.9829 115.153V115.181C75.0669 115.237 75.1649 115.33 75.2769 115.461C75.3889 115.582 75.4822 115.708 75.5569 115.839L77.7409 119.003H75.8229L73.3169 115.111L75.5989 112.129H77.5169ZM72.9949 109.203L73.0089 113.389C73.0089 113.697 72.9902 113.991 72.9529 114.271C72.9249 114.551 72.8829 114.835 72.8269 115.125C72.8735 115.395 72.9109 115.675 72.9389 115.965C72.9762 116.254 72.9949 116.525 72.9949 116.777V119.003H71.3009V109.203H72.9949ZM74.0449 114.607V115.699H72.4489V114.607H74.0449ZM27.7876 127.217C28.5902 127.217 29.2389 127.301 29.7336 127.469C30.2376 127.637 30.6016 127.926 30.8256 128.337C31.0589 128.738 31.1756 129.307 31.1756 130.045C31.1756 130.53 31.1149 130.945 30.9936 131.291C30.8816 131.627 30.6902 131.897 30.4196 132.103C30.1582 132.299 29.8036 132.425 29.3556 132.481V132.551C29.5142 132.588 29.6776 132.663 29.8456 132.775C30.0229 132.877 30.1816 133.027 30.3216 133.223C30.4709 133.419 30.5829 133.671 30.6576 133.979L31.5396 137.003H29.6916L28.8936 134.021C28.7909 133.685 28.6509 133.451 28.4736 133.321C28.2962 133.181 28.0536 133.111 27.7456 133.111C27.1389 133.111 26.6209 133.111 26.1916 133.111C25.7622 133.101 25.4029 133.092 25.1136 133.083C24.8336 133.073 24.5862 133.069 24.3716 133.069L24.4136 131.739H27.7456C28.1656 131.729 28.4969 131.683 28.7396 131.599C28.9822 131.505 29.1549 131.347 29.2576 131.123C29.3602 130.889 29.4116 130.563 29.4116 130.143C29.4116 129.732 29.3602 129.415 29.2576 129.191C29.1549 128.967 28.9822 128.813 28.7396 128.729C28.4969 128.635 28.1656 128.589 27.7456 128.589C26.9242 128.589 26.2196 128.593 25.6316 128.603C25.0436 128.612 24.6422 128.621 24.4276 128.631L24.2316 127.343C24.6049 127.305 24.9549 127.277 25.2816 127.259C25.6176 127.24 25.9816 127.231 26.3736 127.231C26.7656 127.221 27.2369 127.217 27.7876 127.217ZM25.9536 127.343V137.003H24.2316V127.343H25.9536ZM35.9899 129.961C37.1006 129.961 37.8986 130.157 38.3839 130.549C38.8693 130.931 39.1166 131.501 39.1259 132.257C39.1353 132.882 38.9859 133.358 38.6779 133.685C38.3793 134.002 37.8799 134.161 37.1799 134.161H33.2599V133.111H36.7179C37.0353 133.111 37.2359 133.027 37.3199 132.859C37.4133 132.691 37.4599 132.485 37.4599 132.243C37.4506 131.86 37.3386 131.594 37.1239 131.445C36.9186 131.295 36.5639 131.221 36.0599 131.221C35.6213 131.221 35.2806 131.281 35.0379 131.403C34.7953 131.524 34.6226 131.743 34.5199 132.061C34.4266 132.378 34.3799 132.835 34.3799 133.433C34.3799 134.067 34.4406 134.557 34.5619 134.903C34.6833 135.248 34.8839 135.486 35.1639 135.617C35.4439 135.738 35.8173 135.799 36.2839 135.799C36.6293 135.799 37.0259 135.785 37.4739 135.757C37.9313 135.729 38.3699 135.691 38.7899 135.645L38.9579 136.723C38.7059 136.825 38.4166 136.909 38.0899 136.975C37.7633 137.04 37.4226 137.087 37.0679 137.115C36.7226 137.152 36.3959 137.171 36.0879 137.171C35.2479 137.171 34.5713 137.049 34.0579 136.807C33.5539 136.555 33.1853 136.163 32.9519 135.631C32.7279 135.099 32.6159 134.413 32.6159 133.573C32.6159 132.667 32.7279 131.953 32.9519 131.431C33.1853 130.899 33.5493 130.521 34.0439 130.297C34.5479 130.073 35.1966 129.961 35.9899 129.961ZM43.6165 129.961C43.8499 129.961 44.1112 129.97 44.4005 129.989C44.6899 130.007 44.9885 130.04 45.2965 130.087C45.6045 130.124 45.8985 130.175 46.1785 130.241C46.4679 130.306 46.7245 130.381 46.9485 130.465L45.5765 131.515C45.3805 131.449 45.1659 131.393 44.9325 131.347C44.6992 131.3 44.4659 131.272 44.2325 131.263C44.0085 131.244 43.8079 131.239 43.6305 131.249C43.2479 131.258 42.9445 131.333 42.7205 131.473C42.4965 131.603 42.3332 131.841 42.2305 132.187C42.1372 132.532 42.0905 133.022 42.0905 133.657C42.0905 134.403 42.1792 134.94 42.3565 135.267C42.5432 135.593 42.8932 135.757 43.4065 135.757C43.7892 135.757 44.1299 135.682 44.4285 135.533C44.7272 135.383 45.0632 135.192 45.4365 134.959L45.6045 135.813C45.3619 136.055 45.0912 136.284 44.7925 136.499C44.4939 136.704 44.1719 136.872 43.8265 137.003C43.4905 137.124 43.1405 137.185 42.7765 137.185C41.9272 137.185 41.3112 136.891 40.9285 136.303C40.5459 135.715 40.3545 134.814 40.3545 133.601C40.3545 133.022 40.4012 132.509 40.4945 132.061C40.5972 131.613 40.7699 131.235 41.0125 130.927C41.2552 130.609 41.5865 130.371 42.0065 130.213C42.4265 130.045 42.9632 129.961 43.6165 129.961ZM45.2545 130.395L46.9485 130.465V139.733H45.2545L45.2405 137.549C45.2405 137.231 45.2545 136.937 45.2825 136.667C45.3105 136.396 45.3572 136.13 45.4225 135.869L45.2545 135.673V130.395ZM50.4763 130.129V134.777C50.467 135.122 50.5323 135.369 50.6723 135.519C50.8216 135.668 51.0596 135.743 51.3863 135.743C51.713 135.743 52.0396 135.673 52.3663 135.533C52.693 135.393 53.0896 135.183 53.5563 134.903L53.7243 135.911C53.2016 136.331 52.6976 136.648 52.2123 136.863C51.727 137.077 51.223 137.185 50.7003 137.185C49.4216 137.185 48.7823 136.555 48.7823 135.295V130.129H50.4763ZM55.0823 130.129V137.003H53.7383L53.5563 135.673L53.3883 135.477V130.129H55.0823ZM60.0524 129.961C61.1631 129.961 61.9611 130.157 62.4464 130.549C62.9318 130.931 63.1791 131.501 63.1884 132.257C63.1978 132.882 63.0484 133.358 62.7404 133.685C62.4418 134.002 61.9424 134.161 61.2424 134.161H57.3224V133.111H60.7804C61.0978 133.111 61.2984 133.027 61.3824 132.859C61.4758 132.691 61.5224 132.485 61.5224 132.243C61.5131 131.86 61.4011 131.594 61.1864 131.445C60.9811 131.295 60.6264 131.221 60.1224 131.221C59.6838 131.221 59.3431 131.281 59.1004 131.403C58.8578 131.524 58.6851 131.743 58.5824 132.061C58.4891 132.378 58.4424 132.835 58.4424 133.433C58.4424 134.067 58.5031 134.557 58.6244 134.903C58.7458 135.248 58.9464 135.486 59.2264 135.617C59.5064 135.738 59.8798 135.799 60.3464 135.799C60.6918 135.799 61.0884 135.785 61.5364 135.757C61.9938 135.729 62.4324 135.691 62.8524 135.645L63.0204 136.723C62.7684 136.825 62.4791 136.909 62.1524 136.975C61.8258 137.04 61.4851 137.087 61.1304 137.115C60.7851 137.152 60.4584 137.171 60.1504 137.171C59.3104 137.171 58.6338 137.049 58.1204 136.807C57.6164 136.555 57.2478 136.163 57.0144 135.631C56.7904 135.099 56.6784 134.413 56.6784 133.573C56.6784 132.667 56.7904 131.953 57.0144 131.431C57.2478 130.899 57.6118 130.521 58.1064 130.297C58.6104 130.073 59.2591 129.961 60.0524 129.961ZM67.189 129.961C67.5064 129.961 67.847 129.97 68.211 129.989C68.5844 130.007 68.9484 130.035 69.303 130.073C69.6577 130.101 69.975 130.143 70.255 130.199L70.143 131.305C69.695 131.295 69.247 131.286 68.799 131.277C68.3604 131.258 67.9264 131.249 67.497 131.249C67.1144 131.249 66.811 131.258 66.587 131.277C66.3724 131.295 66.2184 131.351 66.125 131.445C66.041 131.538 65.999 131.697 65.999 131.921C65.999 132.191 66.0737 132.373 66.223 132.467C66.3724 132.551 66.615 132.635 66.951 132.719L68.827 133.153C69.387 133.293 69.8024 133.507 70.073 133.797C70.3437 134.077 70.479 134.511 70.479 135.099C70.479 135.668 70.3717 136.102 70.157 136.401C69.9517 136.69 69.6204 136.891 69.163 137.003C68.715 137.105 68.141 137.157 67.441 137.157C67.1704 137.157 66.769 137.143 66.237 137.115C65.705 137.096 65.1217 137.035 64.487 136.933L64.599 135.827C64.7857 135.827 65.005 135.831 65.257 135.841C65.5184 135.85 65.7937 135.855 66.083 135.855C66.3817 135.855 66.685 135.855 66.993 135.855C67.4877 135.855 67.8657 135.841 68.127 135.813C68.3977 135.775 68.5844 135.705 68.687 135.603C68.7897 135.491 68.841 135.332 68.841 135.127C68.841 134.865 68.7524 134.693 68.575 134.609C68.407 134.515 68.155 134.427 67.819 134.343L65.985 133.895C65.565 133.783 65.2384 133.643 65.005 133.475C64.7717 133.297 64.6037 133.083 64.501 132.831C64.3984 132.569 64.347 132.252 64.347 131.879C64.347 131.375 64.4404 130.983 64.627 130.703C64.823 130.423 65.1264 130.227 65.537 130.115C65.957 130.003 66.5077 129.951 67.189 129.961ZM74.2798 128.169V134.931C74.2798 135.22 74.3405 135.425 74.4618 135.547C74.5925 135.668 74.8118 135.729 75.1198 135.729H76.0718L76.2538 136.919C76.0951 136.965 75.9038 137.007 75.6798 137.045C75.4558 137.082 75.2365 137.105 75.0218 137.115C74.8071 137.133 74.6251 137.143 74.4758 137.143C73.8785 137.143 73.4118 136.984 73.0758 136.667C72.7491 136.34 72.5858 135.873 72.5858 135.267V128.169H74.2798ZM76.3238 130.129V131.305H71.3678V130.199L72.7118 130.129H76.3238Z" fill="#2E984E"/>
<path d="M76.0185 81.1159L24.1868 81.1089" stroke="white" stroke-width="6.29" stroke-miterlimit="10"/>
<path d="M76.0185 81.1159L24.1868 81.1089" stroke="#2E984E" stroke-width="3.42" stroke-miterlimit="10"/>
<path d="M18.8864 22.6508L18.8864 18.8889L75.4485 18.8819" stroke="white" stroke-width="6.29" stroke-miterlimit="10"/>
<path d="M18.8864 22.6508L18.8864 18.8889L75.4485 18.8819" stroke="#2E984E" stroke-width="3.42" stroke-miterlimit="10"/>
<path d="M86.5484 37.758V62.1739L62.2098 86.5125L37.8063 86.5L13.4664 62.1601L13.454 37.7566L37.7925 13.4181H62.2084L86.5484 37.758Z" fill="#FFFCF1" stroke="#2E984E" stroke-width="7"/>
<path d="M24.1852 81.108L18.8862 81.115L18.8862 22.6509" stroke="white" stroke-width="6.29" stroke-miterlimit="10"/>
<path d="M24.1852 81.108L18.8862 81.115L18.8862 22.6509" stroke="#2E984E" stroke-width="3.42" stroke-miterlimit="10"/>
<path d="M75.4489 18.8803L81.1128 18.8874L81.1129 81.1134L76.0174 81.1134" stroke="white" stroke-width="6.29" stroke-miterlimit="10"/>
<path d="M75.4489 18.8803L81.1128 18.8874L81.1129 81.1134L76.0174 81.1134" stroke="#2E984E" stroke-width="3.42" stroke-miterlimit="10"/>
<path d="M50.6751 62.2002H48.1353V61.8782C48.1353 60.7906 48.1353 59.703 48.1353 58.6123C48.1512 58.2226 48.0861 57.8338 47.944 57.4705C47.8019 57.1072 47.586 56.7773 47.3099 56.5018C47.0338 56.2262 46.7034 56.011 46.3399 55.8696C45.9763 55.7283 45.5873 55.664 45.1976 55.6807H36.0259V44.5009H42.5363C42.5363 44.595 42.5363 44.6983 42.5363 44.8047C42.519 45.4645 42.5382 46.1247 42.594 46.7824C42.6566 47.2211 42.8241 47.6384 43.0821 47.9987C43.3401 48.359 43.6812 48.6519 44.0764 48.8525C44.4716 49.0531 44.9094 49.1555 45.3525 49.151C45.7957 49.1466 46.2313 49.0354 46.6224 48.827C47.23 48.508 47.8194 48.1404 48.4239 47.8153C48.4803 47.7898 48.5414 47.7766 48.6032 47.7766C48.665 47.7766 48.7261 47.7898 48.7824 47.8153C49.3445 48.1191 49.8943 48.4472 50.4533 48.7601C50.8795 49.0112 51.3646 49.1447 51.8592 49.147C52.3538 49.1493 52.8402 49.0203 53.2686 48.7732C53.6971 48.5261 54.0523 48.1697 54.2979 47.7404C54.5436 47.3111 54.671 46.8243 54.667 46.3297C54.667 45.7221 54.667 45.1145 54.667 44.5069H61.1744V51.6948C57.8934 50.4401 54.8615 50.8563 52.346 53.3688C49.8305 55.8812 49.4265 58.8918 50.6751 62.2002ZM40.2335 51.947C39.7748 51.947 39.3221 51.947 38.8634 51.947C38.7365 51.9413 38.6097 51.9611 38.4906 52.0051C38.3715 52.0492 38.2624 52.1167 38.1698 52.2037C38.0772 52.2906 38.003 52.3952 37.9515 52.5113C37.9 52.6274 37.8723 52.7527 37.8699 52.8796C37.8727 53.0065 37.9007 53.1316 37.9523 53.2475C38.004 53.3634 38.0782 53.4678 38.1707 53.5547C38.2632 53.6415 38.3721 53.7091 38.4911 53.7533C38.61 53.7975 38.7366 53.8176 38.8634 53.8123C39.7565 53.8123 40.6497 53.8123 41.5429 53.8123C41.6697 53.8176 41.7962 53.7975 41.9152 53.7533C42.0341 53.7091 42.143 53.6415 42.2355 53.5547C42.328 53.4678 42.4023 53.3634 42.4539 53.2475C42.5056 53.1316 42.5336 53.0065 42.5363 52.8796C42.534 52.7527 42.5063 52.6274 42.4548 52.5113C42.4033 52.3952 42.329 52.2906 42.2364 52.2037C42.1438 52.1167 42.0347 52.0492 41.9156 52.0051C41.7965 51.9611 41.6698 51.9413 41.5429 51.947C41.1054 51.9439 40.6679 51.947 40.2335 51.947ZM45.0943 53.8123C45.1955 53.8189 45.2969 53.8189 45.3981 53.8123C45.6228 53.7923 45.8333 53.6935 45.9922 53.5334C46.1512 53.3733 46.2485 53.1622 46.267 52.9374C46.2812 52.7117 46.2111 52.4888 46.0702 52.3119C45.9292 52.135 45.7276 52.0169 45.5044 51.9804C45.2358 51.9364 44.9619 51.9364 44.6933 51.9804C44.475 52.0179 44.2779 52.1335 44.1387 52.3057C43.9995 52.4779 43.9277 52.6949 43.9368 52.9161C43.9478 53.1486 44.0429 53.3693 44.2044 53.5369C44.3659 53.7046 44.5828 53.8079 44.8148 53.8275C44.912 53.8214 45.0244 53.8214 45.1064 53.8214L45.0943 53.8123Z" fill="#2E984E"/>
<path d="M57.9514 52.8826C58.7493 52.8862 59.5387 53.0469 60.2745 53.3555C61.0103 53.6642 61.6781 54.1148 62.2398 54.6815C62.8015 55.2483 63.246 55.9201 63.548 56.6586C63.8501 57.3972 64.0037 58.188 64.0001 58.9859C63.9888 60.59 63.3437 62.1245 62.2055 63.2548C61.0672 64.3851 59.5282 65.0194 57.9241 65.0194C56.3137 65.0113 54.7723 64.3643 53.6387 63.2204C52.5051 62.0766 51.872 60.5295 51.8785 58.9191C51.8889 57.315 52.5332 55.7801 53.6709 54.6493C54.8086 53.5184 56.3473 52.8833 57.9514 52.8826ZM57.198 59.2624C57.1686 59.248 57.1402 59.2318 57.1129 59.2138C56.7757 58.8765 56.4415 58.5393 56.1013 58.2051C56.0187 58.1061 55.9167 58.025 55.8016 57.967C55.6864 57.9089 55.5606 57.8752 55.4318 57.8678C55.3031 57.8604 55.1742 57.8795 55.0531 57.9239C54.9321 57.9684 54.8215 58.0372 54.7281 58.1262C54.3301 58.515 54.3544 59.074 54.7949 59.5176L56.3595 61.0821C56.9489 61.6715 57.4228 61.6745 58.0061 61.0821L60.9317 58.1535C61.0289 58.0587 61.1192 57.9572 61.2021 57.8497C61.3182 57.699 61.3856 57.5165 61.3954 57.3266C61.4052 57.1366 61.3568 56.9482 61.2568 56.7864C61.1622 56.6256 61.0184 56.4994 60.8466 56.4266C60.6748 56.3539 60.4841 56.3383 60.3028 56.3823C60.0909 56.4459 59.8979 56.5607 59.7408 56.7165C58.8871 57.558 58.0486 58.4087 57.198 59.2593V59.2624Z" fill="#2E984E"/>
<path d="M52.8015 37.0395V37.3433C52.8015 40.2963 52.8015 43.2492 52.8015 46.2021C52.8015 47.1135 52.0784 47.5389 51.2825 47.0801C50.4865 46.6214 49.6632 46.1687 48.8521 45.6826C48.7791 45.63 48.6914 45.6017 48.6014 45.6017C48.5114 45.6017 48.4238 45.63 48.3508 45.6826C47.5488 46.1566 46.7255 46.594 45.9356 47.0832C45.1457 47.5723 44.3801 46.9586 44.3892 46.1991C44.4287 43.2462 44.4075 40.2932 44.4075 37.3403V37.0365L52.8015 37.0395ZM48.606 39.8163C48.4419 39.8163 48.2748 39.8163 48.1108 39.8163C47.8699 39.8269 47.642 39.9284 47.4729 40.1003C47.3038 40.2722 47.2061 40.5018 47.1994 40.7429C47.2024 40.9856 47.2987 41.218 47.4684 41.3916C47.6381 41.5653 47.8681 41.667 48.1108 41.6755C48.4407 41.6938 48.7713 41.6938 49.1012 41.6755C49.3402 41.6672 49.5673 41.5685 49.7364 41.3994C49.9056 41.2302 50.0043 41.0032 50.0126 40.7641C50.0088 40.5184 49.9103 40.2837 49.7377 40.1088C49.565 39.9339 49.3316 39.8324 49.086 39.8254C48.9189 39.8102 48.7609 39.8163 48.606 39.8163Z" fill="#2E984E"/>
<path d="M36.0048 57.549H45.2038C45.9147 57.549 46.2671 57.9044 46.2671 58.6244V62.1971C46.1547 62.1971 46.0606 62.2123 45.9633 62.2123H38.8818C38.4995 62.2246 38.1187 62.1582 37.7631 62.0172C37.4075 61.8763 37.0847 61.6638 36.8146 61.3929C36.5446 61.122 36.3331 60.7985 36.1932 60.4424C36.0534 60.0864 35.9882 59.7054 36.0017 59.3231L36.0048 57.549Z" fill="#2E984E"/>
<path d="M36.0596 42.5808C36.0075 41.4672 36.0166 40.3516 36.087 39.239C36.2298 37.9539 37.4571 37.0061 38.7513 37C39.93 37 41.1058 37 42.2815 37H42.5215V42.5808H36.0596Z" fill="#2E984E"/>
<path d="M54.6915 37.0244C56.0313 37.0244 57.3558 36.9819 58.6743 37.0244C59.3494 37.0817 59.9797 37.3856 60.4449 37.8782C60.91 38.3708 61.1774 39.0175 61.1959 39.6948C61.1959 40.6548 61.1959 41.6148 61.1959 42.587H54.6885L54.6915 37.0244Z" fill="#2E984E"/>
</svg>
