<svg width="88" height="145" viewBox="0 0 88 145" fill="none" xmlns="http://www.w3.org/2000/svg">
<path d="M20.4596 103.678C21.2809 103.678 21.9343 103.752 22.4196 103.902C22.9049 104.042 23.2549 104.294 23.4696 104.658C23.6936 105.022 23.8056 105.535 23.8056 106.198C23.8056 106.888 23.6749 107.416 23.4136 107.78C23.1523 108.144 22.7229 108.354 22.1256 108.41V108.466C22.8629 108.531 23.3763 108.783 23.6656 109.222C23.9643 109.66 24.1136 110.267 24.1136 111.042C24.1136 111.704 24.0016 112.218 23.7776 112.582C23.5629 112.946 23.2176 113.202 22.7416 113.352C22.2749 113.492 21.6636 113.562 20.9076 113.562C20.3196 113.562 19.8063 113.557 19.3676 113.548C18.9289 113.548 18.5276 113.538 18.1636 113.52C17.7996 113.501 17.4216 113.478 17.0296 113.45L17.2256 112.176C17.4496 112.185 17.8649 112.194 18.4716 112.204C19.0783 112.213 19.7923 112.218 20.6136 112.218C21.0523 112.218 21.3976 112.18 21.6496 112.106C21.9016 112.022 22.0789 111.872 22.1816 111.658C22.2936 111.434 22.3496 111.121 22.3496 110.72C22.3496 110.272 22.2936 109.931 22.1816 109.698C22.0696 109.455 21.8829 109.287 21.6216 109.194C21.3696 109.091 21.0103 109.04 20.5436 109.04H17.2116V107.85H20.5296C20.9309 107.85 21.2436 107.812 21.4676 107.738C21.7009 107.654 21.8689 107.509 21.9716 107.304C22.0743 107.098 22.1256 106.804 22.1256 106.422C22.1256 106.039 22.0696 105.745 21.9576 105.54C21.8549 105.334 21.6776 105.199 21.4256 105.134C21.1736 105.059 20.8236 105.022 20.3756 105.022C19.8809 105.022 19.4423 105.022 19.0596 105.022C18.6769 105.022 18.3363 105.026 18.0376 105.036C17.7389 105.036 17.4683 105.045 17.2256 105.064L17.0296 103.79C17.3843 103.752 17.7203 103.729 18.0376 103.72C18.3643 103.701 18.7189 103.692 19.1016 103.692C19.4936 103.682 19.9463 103.678 20.4596 103.678ZM18.7376 103.79V113.45H17.0296V103.79H18.7376ZM29.5603 103.79V113.45H27.8103V103.79H29.5603ZM32.5563 103.79V105.218H24.8143V103.79H32.5563ZM46.5055 103.79L43.7475 112.96C43.7008 113.1 43.6215 113.216 43.5095 113.31C43.3975 113.403 43.2622 113.45 43.1035 113.45H41.4515C41.2928 113.45 41.1575 113.403 41.0455 113.31C40.9335 113.216 40.8588 113.1 40.8215 112.96L38.0635 103.79H39.8695L41.8435 111.056C41.8902 111.233 41.9368 111.41 41.9835 111.588C42.0302 111.765 42.0675 111.942 42.0955 112.12H42.4595C42.5062 111.942 42.5482 111.765 42.5855 111.588C42.6322 111.401 42.6788 111.219 42.7255 111.042L44.6995 103.79H46.5055ZM49.2209 106.576V113.45H47.5409V106.576H49.2209ZM48.7589 103.594C49.0949 103.594 49.2629 103.762 49.2629 104.098V104.882C49.2629 105.218 49.0949 105.386 48.7589 105.386H48.0029C47.6669 105.386 47.4989 105.218 47.4989 104.882V104.098C47.4989 103.762 47.6669 103.594 48.0029 103.594H48.7589ZM54.1023 106.408C55.2129 106.408 56.0109 106.604 56.4963 106.996C56.9816 107.378 57.2289 107.948 57.2383 108.704C57.2476 109.329 57.0983 109.805 56.7903 110.132C56.4916 110.449 55.9923 110.608 55.2923 110.608H51.3723V109.558H54.8303C55.1476 109.558 55.3483 109.474 55.4323 109.306C55.5256 109.138 55.5723 108.932 55.5723 108.69C55.5629 108.307 55.4509 108.041 55.2363 107.892C55.0309 107.742 54.6763 107.668 54.1723 107.668C53.7336 107.668 53.3929 107.728 53.1503 107.85C52.9076 107.971 52.7349 108.19 52.6323 108.508C52.5389 108.825 52.4923 109.282 52.4923 109.88C52.4923 110.514 52.5529 111.004 52.6743 111.35C52.7956 111.695 52.9963 111.933 53.2763 112.064C53.5563 112.185 53.9296 112.246 54.3963 112.246C54.7416 112.246 55.1383 112.232 55.5863 112.204C56.0436 112.176 56.4823 112.138 56.9023 112.092L57.0703 113.17C56.8183 113.272 56.5289 113.356 56.2023 113.422C55.8756 113.487 55.5349 113.534 55.1803 113.562C54.8349 113.599 54.5083 113.618 54.2003 113.618C53.3603 113.618 52.6836 113.496 52.1703 113.254C51.6663 113.002 51.2976 112.61 51.0643 112.078C50.8403 111.546 50.7283 110.86 50.7283 110.02C50.7283 109.114 50.8403 108.4 51.0643 107.878C51.2976 107.346 51.6616 106.968 52.1563 106.744C52.6603 106.52 53.3089 106.408 54.1023 106.408ZM69.1212 106.576L67.3012 113.002C67.2639 113.132 67.1892 113.24 67.0772 113.324C66.9652 113.408 66.8345 113.45 66.6852 113.45H65.3272C65.1779 113.45 65.0425 113.403 64.9212 113.31C64.7999 113.216 64.7299 113.09 64.7112 112.932L63.8012 108.718C63.7639 108.531 63.7312 108.344 63.7032 108.158C63.6845 107.971 63.6565 107.784 63.6192 107.598H63.4372C63.4092 107.784 63.3765 107.971 63.3392 108.158C63.3112 108.344 63.2785 108.531 63.2412 108.718L62.3452 112.932C62.3172 113.09 62.2425 113.216 62.1212 113.31C62.0092 113.403 61.8739 113.45 61.7152 113.45H60.3712C60.2219 113.45 60.0912 113.408 59.9792 113.324C59.8672 113.24 59.7972 113.132 59.7692 113.002L57.9352 106.576H59.6572L60.8052 111.294C60.8425 111.471 60.8752 111.653 60.9032 111.84C60.9405 112.017 60.9732 112.194 61.0012 112.372H61.1692C61.2159 112.194 61.2532 112.017 61.2812 111.84C61.3185 111.653 61.3559 111.471 61.3932 111.294L62.3032 107.094C62.3312 106.944 62.3965 106.823 62.4992 106.73C62.6112 106.627 62.7512 106.576 62.9192 106.576H64.1512C64.3005 106.576 64.4312 106.627 64.5432 106.73C64.6552 106.823 64.7252 106.949 64.7532 107.108L65.6632 111.294C65.6912 111.471 65.7239 111.648 65.7612 111.826C65.8079 112.003 65.8452 112.185 65.8732 112.372H66.0412C66.0785 112.185 66.1112 112.008 66.1392 111.84C66.1672 111.662 66.2045 111.48 66.2512 111.294L67.3992 106.576H69.1212ZM20.7386 121.636C21.0373 121.636 21.3826 121.645 21.7746 121.664C22.1666 121.673 22.5726 121.715 22.9926 121.79L22.7966 123.008C22.6846 122.998 22.5493 122.994 22.3906 122.994C22.232 122.984 22.0546 122.98 21.8586 122.98C21.6626 122.97 21.462 122.966 21.2566 122.966C21.0606 122.966 20.8693 122.966 20.6826 122.966C20.2066 122.966 19.8286 123.003 19.5486 123.078C19.278 123.143 19.082 123.278 18.9606 123.484C18.8486 123.689 18.7926 124.002 18.7926 124.422C18.7926 124.804 18.8393 125.103 18.9326 125.318C19.026 125.523 19.1846 125.668 19.4086 125.752C19.642 125.826 19.95 125.864 20.3326 125.864H25.8486L25.8346 127.054H20.2486C19.8286 127.054 19.4926 127.105 19.2406 127.208C18.998 127.301 18.8253 127.464 18.7226 127.698C18.62 127.922 18.5686 128.248 18.5686 128.678C18.5686 129.07 18.6106 129.378 18.6946 129.602C18.788 129.816 18.9466 129.97 19.1706 130.064C19.3946 130.148 19.698 130.19 20.0806 130.19C20.6593 130.18 21.1773 130.096 21.6346 129.938C22.092 129.77 22.4886 129.522 22.8246 129.196L23.0206 130.176C22.7313 130.53 22.428 130.815 22.1106 131.03C21.7933 131.235 21.434 131.38 21.0326 131.464C20.6313 131.557 20.16 131.604 19.6186 131.604C18.9373 131.604 18.382 131.524 17.9526 131.366C17.5326 131.198 17.2246 130.927 17.0286 130.554C16.8326 130.171 16.7346 129.653 16.7346 129C16.7346 128.262 16.87 127.674 17.1406 127.236C17.4206 126.788 17.9153 126.531 18.6246 126.466V126.41C18.046 126.354 17.6306 126.139 17.3786 125.766C17.136 125.392 17.0146 124.856 17.0146 124.156C17.0146 123.596 17.0846 123.148 17.2246 122.812C17.3646 122.476 17.584 122.224 17.8826 122.056C18.1906 121.888 18.578 121.776 19.0446 121.72C19.5113 121.664 20.076 121.636 20.7386 121.636ZM24.2386 124.226V129.406C24.2386 129.695 24.2993 129.9 24.4206 130.022C24.542 130.143 24.738 130.204 25.0086 130.204H25.9466L26.1426 131.366C25.9933 131.412 25.8113 131.454 25.5966 131.492C25.3913 131.529 25.186 131.552 24.9806 131.562C24.7846 131.58 24.6166 131.59 24.4766 131.59C23.8886 131.59 23.436 131.44 23.1186 131.142C22.8013 130.843 22.6426 130.428 22.6426 129.896V126.396L22.8106 124.226H24.2386ZM34.1689 121.622C34.6075 121.622 34.9809 121.636 35.2889 121.664C35.5969 121.682 35.8815 121.715 36.1429 121.762C36.4042 121.799 36.6749 121.855 36.9549 121.93L36.8009 123.232C36.5115 123.213 36.2409 123.199 35.9889 123.19C35.7369 123.171 35.4662 123.157 35.1769 123.148C34.8969 123.138 34.5609 123.134 34.1689 123.134C33.6275 123.134 33.2029 123.241 32.8949 123.456C32.5869 123.67 32.3675 124.03 32.2369 124.534C32.1155 125.038 32.0549 125.733 32.0549 126.62C32.0549 127.506 32.1155 128.202 32.2369 128.706C32.3675 129.21 32.5869 129.569 32.8949 129.784C33.2029 129.998 33.6275 130.106 34.1689 130.106C34.7942 130.106 35.3169 130.096 35.7369 130.078C36.1662 130.05 36.5862 130.012 36.9969 129.966L37.1509 131.254C36.7309 131.384 36.2969 131.478 35.8489 131.534C35.4009 131.59 34.8409 131.618 34.1689 131.618C33.1982 131.618 32.4235 131.459 31.8449 131.142C31.2662 130.815 30.8462 130.288 30.5849 129.56C30.3329 128.832 30.2069 127.852 30.2069 126.62C30.2069 125.388 30.3329 124.408 30.5849 123.68C30.8462 122.952 31.2662 122.429 31.8449 122.112C32.4235 121.785 33.1982 121.622 34.1689 121.622ZM41.856 124.408C42.4066 124.408 42.8686 124.482 43.242 124.632C43.6246 124.772 43.914 125.014 44.11 125.36C44.306 125.705 44.404 126.181 44.404 126.788V131.45H43.06L42.822 129.966L42.696 129.77V126.774C42.696 126.41 42.612 126.148 42.444 125.99C42.276 125.822 41.954 125.738 41.478 125.738C41.1233 125.738 40.6753 125.752 40.134 125.78C39.602 125.808 39.0653 125.845 38.524 125.892L38.37 124.73C38.6966 124.664 39.0653 124.608 39.476 124.562C39.8866 124.515 40.302 124.478 40.722 124.45C41.142 124.422 41.52 124.408 41.856 124.408ZM43.676 127.222L43.662 128.272H40.512C40.232 128.281 40.0313 128.356 39.91 128.496C39.7886 128.636 39.728 128.827 39.728 129.07V129.448C39.728 129.728 39.8026 129.942 39.952 130.092C40.1013 130.232 40.3346 130.302 40.652 130.302C40.904 130.302 41.184 130.25 41.492 130.148C41.8 130.045 42.1033 129.896 42.402 129.7C42.71 129.504 42.9853 129.27 43.228 129V129.882C43.1346 130.022 42.9993 130.19 42.822 130.386C42.6446 130.572 42.4253 130.759 42.164 130.946C41.912 131.132 41.618 131.286 41.282 131.408C40.9553 131.529 40.5913 131.59 40.19 131.59C39.7793 131.59 39.4106 131.52 39.084 131.38C38.7573 131.23 38.5006 131.016 38.314 130.736C38.1273 130.446 38.034 130.092 38.034 129.672V128.944C38.034 128.402 38.2113 127.982 38.566 127.684C38.93 127.376 39.4246 127.222 40.05 127.222H43.676ZM50.6276 124.408C51.9063 124.408 52.5456 125.038 52.5456 126.298V131.45H50.8516V126.816C50.8516 126.442 50.7863 126.186 50.6556 126.046C50.525 125.906 50.3056 125.836 49.9976 125.836C49.6523 125.836 49.2976 125.915 48.9336 126.074C48.5696 126.223 48.131 126.442 47.6176 126.732L47.5476 125.71C48.0516 125.29 48.565 124.968 49.0876 124.744C49.6103 124.52 50.1236 124.408 50.6276 124.408ZM47.4916 124.576L47.6596 125.92L47.7996 126.116V131.45H46.1056V124.576H47.4916ZM57.3445 124.408C57.5778 124.408 57.8345 124.417 58.1145 124.436C58.3945 124.454 58.6791 124.492 58.9685 124.548C59.2578 124.604 59.5191 124.683 59.7525 124.786L59.5565 125.85C59.2111 125.831 58.8658 125.817 58.5205 125.808C58.1845 125.798 57.8905 125.794 57.6385 125.794C57.1625 125.794 56.7845 125.859 56.5045 125.99C56.2338 126.111 56.0378 126.335 55.9165 126.662C55.7951 126.979 55.7345 127.427 55.7345 128.006C55.7345 128.584 55.7951 129.037 55.9165 129.364C56.0378 129.681 56.2338 129.905 56.5045 130.036C56.7845 130.166 57.1625 130.232 57.6385 130.232C57.7785 130.232 57.9605 130.227 58.1845 130.218C58.4178 130.208 58.6651 130.194 58.9265 130.176C59.1971 130.157 59.4585 130.134 59.7105 130.106L59.8785 131.198C59.5145 131.347 59.1085 131.454 58.6605 131.52C58.2125 131.585 57.7691 131.618 57.3305 131.618C56.5091 131.618 55.8511 131.501 55.3565 131.268C54.8618 131.034 54.5025 130.656 54.2785 130.134C54.0638 129.602 53.9565 128.892 53.9565 128.006C53.9565 127.119 54.0685 126.414 54.2925 125.892C54.5165 125.36 54.8758 124.982 55.3705 124.758C55.8651 124.524 56.5231 124.408 57.3445 124.408ZM64.0948 124.408C65.2054 124.408 66.0034 124.604 66.4888 124.996C66.9741 125.378 67.2214 125.948 67.2308 126.704C67.2401 127.329 67.0908 127.805 66.7828 128.132C66.4841 128.449 65.9848 128.608 65.2848 128.608H61.3648V127.558H64.8228C65.1401 127.558 65.3408 127.474 65.4248 127.306C65.5181 127.138 65.5648 126.932 65.5648 126.69C65.5554 126.307 65.4434 126.041 65.2288 125.892C65.0234 125.742 64.6688 125.668 64.1648 125.668C63.7261 125.668 63.3854 125.728 63.1428 125.85C62.9001 125.971 62.7274 126.19 62.6248 126.508C62.5314 126.825 62.4848 127.282 62.4848 127.88C62.4848 128.514 62.5454 129.004 62.6668 129.35C62.7881 129.695 62.9888 129.933 63.2688 130.064C63.5488 130.185 63.9221 130.246 64.3888 130.246C64.7341 130.246 65.1308 130.232 65.5788 130.204C66.0361 130.176 66.4748 130.138 66.8948 130.092L67.0628 131.17C66.8108 131.272 66.5214 131.356 66.1948 131.422C65.8681 131.487 65.5274 131.534 65.1728 131.562C64.8274 131.599 64.5008 131.618 64.1928 131.618C63.3528 131.618 62.6761 131.496 62.1628 131.254C61.6588 131.002 61.2901 130.61 61.0568 130.078C60.8328 129.546 60.7208 128.86 60.7208 128.02C60.7208 127.114 60.8328 126.4 61.0568 125.878C61.2901 125.346 61.6541 124.968 62.1488 124.744C62.6528 124.52 63.3014 124.408 64.0948 124.408ZM70.3214 121.65L70.3074 129.378C70.3074 129.639 70.382 129.84 70.5314 129.98C70.6807 130.11 70.8954 130.176 71.1754 130.176H71.7774L71.9734 131.366C71.8707 131.412 71.726 131.454 71.5394 131.492C71.362 131.529 71.1754 131.552 70.9794 131.562C70.7927 131.58 70.6294 131.59 70.4894 131.59C69.92 131.59 69.4674 131.436 69.1314 131.128C68.7954 130.82 68.6274 130.376 68.6274 129.798V121.65H70.3214Z" fill="#CD967E"/>
<path d="M70.019 75.5656L18.1873 75.5586" stroke="white" stroke-width="6.29" stroke-miterlimit="10"/>
<path d="M70.019 75.5656L18.1873 75.5586" stroke="#CD967E" stroke-width="3.42" stroke-miterlimit="10"/>
<path d="M12.8871 17.1005L12.8871 13.3386L69.4492 13.3316" stroke="white" stroke-width="6.29" stroke-miterlimit="10"/>
<path d="M12.8871 17.1005L12.8871 13.3386L69.4492 13.3316" stroke="#CD967E" stroke-width="3.42" stroke-miterlimit="10"/>
<path d="M56.21 80.9625L31.8075 80.95L7.46667 56.6092L7.45413 32.2067L31.7927 7.86809H56.2092L80.5486 32.2074V56.6239L56.21 80.9625Z" fill="#FFF0EA" stroke="#CD967E" stroke-width="7"/>
<path d="M18.1855 75.5577L12.8865 75.5647L12.8865 17.1006" stroke="white" stroke-width="6.29" stroke-miterlimit="10"/>
<path d="M18.1855 75.5577L12.8865 75.5647L12.8865 17.1006" stroke="#CD967E" stroke-width="3.42" stroke-miterlimit="10"/>
<path d="M69.4494 13.33L75.1133 13.3371L75.1134 75.5631L70.0179 75.5631" stroke="white" stroke-width="6.29" stroke-miterlimit="10"/>
<path d="M69.4494 13.33L75.1133 13.3371L75.1134 75.5631L70.0179 75.5631" stroke="#CD967E" stroke-width="3.42" stroke-miterlimit="10"/>
<g clip-path="url(#clip0_480_7489)">
<path d="M34.6 29.2249H46.8963L47.3259 29.3133C48.7895 29.5478 50.1187 30.3008 51.0688 31.4336C52.0189 32.5665 52.5258 34.003 52.4963 35.4785C52.4963 37.5582 52.4963 39.6378 52.4963 41.7175V42.0125C51.3287 41.7967 50.1351 41.757 48.9556 41.8945C46.7324 42.1206 44.6067 42.9196 42.7882 44.2128C40.9697 45.506 39.5211 47.2487 38.5852 49.2691C38.1392 50.0868 37.8717 50.989 37.8003 51.9167C37.7288 52.8445 37.8549 53.7767 38.1704 54.6526C38.7719 56.2274 39.6836 57.6666 40.8519 58.8856L41.163 59.2249C39.1185 59.2249 37.163 59.2249 35.237 59.2249C34.422 59.2326 33.6135 59.0798 32.8581 58.7751C32.1027 58.4704 31.4153 58.0199 30.8356 57.4496C30.2558 56.8793 29.7952 56.2004 29.4801 55.452C29.1651 54.7036 29.0019 53.9006 29 53.0892C29 47.1895 29 41.2897 29 35.39C29.0056 34.0446 29.4553 32.7383 30.2798 31.6723C31.1043 30.6063 32.2579 29.8396 33.563 29.4903C33.9037 29.3576 34.2593 29.2986 34.6 29.2249ZM39.2815 33.9151C37.9037 33.9151 36.5407 33.9151 35.163 33.9151C34.9418 33.8988 34.7197 33.9283 34.5107 34.0019C34.3017 34.0756 34.1103 34.1916 33.9487 34.3428C33.7871 34.494 33.6588 34.6769 33.572 34.8801C33.4852 35.0832 33.4418 35.3021 33.4444 35.5228C33.4423 35.7402 33.4845 35.9558 33.5684 36.1565C33.6523 36.3573 33.7763 36.5389 33.9328 36.6906C34.0893 36.8423 34.2751 36.9608 34.4789 37.0389C34.6827 37.117 34.9003 37.1532 35.1185 37.1452H43.3852C43.6298 37.1587 43.8744 37.1165 44.1002 37.022C44.3261 36.9274 44.5274 36.783 44.6889 36.5995C44.9088 36.3787 45.053 36.0944 45.1009 35.7871C45.1488 35.4798 45.0979 35.1653 44.9556 34.8886C44.8448 34.5916 44.6409 34.3379 44.3741 34.1653C44.1073 33.9926 43.7917 33.9101 43.4741 33.9299C42.0815 33.9004 40.6889 33.9151 39.2815 33.9151ZM36.8667 40.4638C36.2593 40.4638 35.6667 40.4638 35.0741 40.4638C34.8551 40.4595 34.6376 40.5 34.435 40.5829C34.2324 40.6657 34.049 40.789 33.8962 40.9453C33.7435 41.1015 33.6245 41.2873 33.5468 41.4912C33.4691 41.6951 33.4343 41.9126 33.4444 42.1305C33.4501 42.3442 33.4986 42.5546 33.5869 42.7495C33.6753 42.9443 33.8018 43.1197 33.9591 43.2653C34.1164 43.4109 34.3012 43.5238 34.5028 43.5974C34.7045 43.6709 34.9188 43.7038 35.1333 43.6939H38.5704C38.7918 43.6948 39.0111 43.6509 39.2148 43.5646C39.4186 43.4784 39.6026 43.3518 39.7556 43.1924C39.9749 42.9784 40.1258 42.7045 40.189 42.4053C40.2523 42.1061 40.2252 41.7949 40.1111 41.511C40.0218 41.2168 39.8425 40.9578 39.5981 40.77C39.3538 40.5823 39.0566 40.4752 38.7482 40.4638C38.1259 40.4343 37.4889 40.4638 36.8667 40.4638Z" fill="#CD967E"/>
<path d="M50.3333 45.6555C52.1507 45.6578 53.9258 46.2011 55.4306 47.2156C56.9354 48.2302 58.1011 49.6695 58.7778 51.3487C58.9204 51.6848 58.9939 52.0459 58.9939 52.4107C58.9939 52.7755 58.9204 53.1366 58.7778 53.4726C58.0939 55.2384 56.8648 56.7425 55.2673 57.7683C53.6699 58.794 51.7867 59.2886 49.8889 59.1806C48.1364 59.113 46.4431 58.5308 45.0222 57.5073C43.6013 56.4837 42.5162 55.0645 41.9037 53.4284C41.7684 53.1163 41.6985 52.7801 41.6985 52.4402C41.6985 52.1003 41.7684 51.764 41.9037 51.452C42.4874 49.9102 43.4884 48.5595 44.7958 47.5494C46.1033 46.5393 47.6661 45.9093 49.3111 45.7293C49.5778 45.685 49.963 45.685 50.3333 45.6555ZM50.3333 48.8561C49.8528 48.8542 49.3766 48.9465 48.9319 49.1278C48.4872 49.3091 48.0827 49.5758 47.7415 49.9127C47.4003 50.2496 47.1292 50.6501 46.9435 51.0914C46.7578 51.5327 46.6612 52.006 46.6593 52.4844C46.6505 53.2132 46.8597 53.9282 47.2603 54.5382C47.6609 55.1483 48.2347 55.6259 48.9088 55.9102C49.5829 56.1946 50.3268 56.2728 51.0457 56.1349C51.7646 55.997 52.426 55.6493 52.9457 55.136C53.4655 54.6227 53.8201 53.9671 53.9644 53.2525C54.1087 52.5379 54.0362 51.7968 53.756 51.1234C53.4759 50.45 53.0009 49.8748 52.3914 49.4711C51.7818 49.0673 51.0654 48.8532 50.3333 48.8561Z" fill="#CD967E"/>
</g>
<defs>
<clipPath id="clip0_480_7489">
<rect width="30" height="30" fill="white" transform="translate(29 29.2249)"/>
</clipPath>
</defs>
</svg>
