<svg width="88" height="145" viewBox="0 0 88 145" fill="none" xmlns="http://www.w3.org/2000/svg">
<path d="M13.5418 103.4C13.9804 103.4 14.3538 103.414 14.6618 103.442C14.9698 103.46 15.2544 103.493 15.5158 103.54C15.7771 103.577 16.0478 103.633 16.3278 103.708L16.1738 105.01C15.8844 104.991 15.6138 104.977 15.3618 104.968C15.1098 104.949 14.8391 104.935 14.5498 104.926C14.2698 104.916 13.9338 104.912 13.5418 104.912C13.0004 104.912 12.5758 105.019 12.2678 105.234C11.9598 105.448 11.7404 105.808 11.6098 106.312C11.4884 106.816 11.4278 107.511 11.4278 108.398C11.4278 109.284 11.4884 109.98 11.6098 110.484C11.7404 110.988 11.9598 111.347 12.2678 111.562C12.5758 111.776 13.0004 111.884 13.5418 111.884C14.1671 111.884 14.6898 111.874 15.1098 111.856C15.5391 111.828 15.9591 111.79 16.3698 111.744L16.5238 113.032C16.1038 113.162 15.6698 113.256 15.2218 113.312C14.7738 113.368 14.2138 113.396 13.5418 113.396C12.5711 113.396 11.7964 113.237 11.2178 112.92C10.6391 112.593 10.2191 112.066 9.95778 111.338C9.70578 110.61 9.57978 109.63 9.57978 108.398C9.57978 107.166 9.70578 106.186 9.95778 105.458C10.2191 104.73 10.6391 104.207 11.2178 103.89C11.7964 103.563 12.5711 103.4 13.5418 103.4ZM21.7889 106.186C22.3395 106.186 22.8015 106.26 23.1749 106.41C23.5575 106.55 23.8469 106.792 24.0429 107.138C24.2389 107.483 24.3369 107.959 24.3369 108.566V113.228H22.9929L22.7549 111.744L22.6289 111.548V108.552C22.6289 108.188 22.5449 107.926 22.3769 107.768C22.2089 107.6 21.8869 107.516 21.4109 107.516C21.0562 107.516 20.6082 107.53 20.0669 107.558C19.5349 107.586 18.9982 107.623 18.4569 107.67L18.3029 106.508C18.6295 106.442 18.9982 106.386 19.4089 106.34C19.8195 106.293 20.2349 106.256 20.6549 106.228C21.0749 106.2 21.4529 106.186 21.7889 106.186ZM23.6089 109L23.5949 110.05H20.4449C20.1649 110.059 19.9642 110.134 19.8429 110.274C19.7215 110.414 19.6609 110.605 19.6609 110.848V111.226C19.6609 111.506 19.7355 111.72 19.8849 111.87C20.0342 112.01 20.2675 112.08 20.5849 112.08C20.8369 112.08 21.1169 112.028 21.4249 111.926C21.7329 111.823 22.0362 111.674 22.3349 111.478C22.6429 111.282 22.9182 111.048 23.1609 110.778V111.66C23.0675 111.8 22.9322 111.968 22.7549 112.164C22.5775 112.35 22.3582 112.537 22.0969 112.724C21.8449 112.91 21.5509 113.064 21.2149 113.186C20.8882 113.307 20.5242 113.368 20.1229 113.368C19.7122 113.368 19.3435 113.298 19.0169 113.158C18.6902 113.008 18.4335 112.794 18.2469 112.514C18.0602 112.224 17.9669 111.87 17.9669 111.45V110.722C17.9669 110.18 18.1442 109.76 18.4989 109.462C18.8629 109.154 19.3575 109 19.9829 109H23.6089ZM27.9145 106.354L28.1385 107.698L28.2925 107.894V113.228H26.5985V106.354H27.9145ZM31.2745 106.186L31.1065 107.754H30.6165C30.2525 107.754 29.8839 107.814 29.5105 107.936C29.1372 108.057 28.6705 108.239 28.1105 108.482L27.9985 107.488C28.4839 107.077 28.9785 106.76 29.4825 106.536C29.9865 106.302 30.4719 106.186 30.9385 106.186H31.2745ZM35.1107 104.394V111.156C35.1107 111.445 35.1714 111.65 35.2927 111.772C35.4234 111.893 35.6427 111.954 35.9507 111.954H36.9027L37.0847 113.144C36.9261 113.19 36.7347 113.232 36.5107 113.27C36.2867 113.307 36.0674 113.33 35.8527 113.34C35.6381 113.358 35.4561 113.368 35.3067 113.368C34.7094 113.368 34.2427 113.209 33.9067 112.892C33.5801 112.565 33.4167 112.098 33.4167 111.492V104.394H35.1107ZM37.1547 106.354V107.53H32.1987V106.424L33.5427 106.354H37.1547ZM41.9352 106.186C42.7752 106.186 43.4425 106.302 43.9372 106.536C44.4412 106.769 44.8005 107.152 45.0152 107.684C45.2392 108.216 45.3512 108.92 45.3512 109.798C45.3512 110.675 45.2392 111.38 45.0152 111.912C44.8005 112.434 44.4412 112.817 43.9372 113.06C43.4425 113.293 42.7752 113.41 41.9352 113.41C41.1139 113.41 40.4512 113.293 39.9472 113.06C39.4525 112.817 39.0932 112.434 38.8692 111.912C38.6452 111.38 38.5332 110.675 38.5332 109.798C38.5332 108.92 38.6452 108.216 38.8692 107.684C39.0932 107.152 39.4525 106.769 39.9472 106.536C40.4512 106.302 41.1139 106.186 41.9352 106.186ZM41.9352 107.474C41.5245 107.474 41.1979 107.544 40.9552 107.684C40.7219 107.814 40.5539 108.048 40.4512 108.384C40.3485 108.72 40.2972 109.191 40.2972 109.798C40.2972 110.404 40.3485 110.876 40.4512 111.212C40.5539 111.548 40.7219 111.781 40.9552 111.912C41.1979 112.042 41.5245 112.108 41.9352 112.108C42.3552 112.108 42.6865 112.042 42.9292 111.912C43.1719 111.781 43.3399 111.548 43.4332 111.212C43.5359 110.876 43.5872 110.404 43.5872 109.798C43.5872 109.191 43.5359 108.72 43.4332 108.384C43.3399 108.048 43.1719 107.814 42.9292 107.684C42.6865 107.544 42.3552 107.474 41.9352 107.474ZM51.8903 106.186C53.169 106.186 53.8083 106.816 53.8083 108.076V113.228H52.1143V108.594C52.1143 108.22 52.049 107.964 51.9183 107.824C51.7876 107.684 51.5683 107.614 51.2603 107.614C50.915 107.614 50.5603 107.693 50.1963 107.852C49.8323 108.001 49.3936 108.22 48.8803 108.51L48.8103 107.488C49.3143 107.068 49.8276 106.746 50.3503 106.522C50.873 106.298 51.3863 106.186 51.8903 106.186ZM48.7543 106.354L48.9223 107.698L49.0623 107.894V113.228H47.3683V106.354H48.7543ZM64.0916 106.186C65.3703 106.186 66.0096 106.816 66.0096 108.076V113.228H64.3156V108.594C64.3156 108.22 64.2503 107.964 64.1196 107.824C63.989 107.684 63.7696 107.614 63.4616 107.614C63.1163 107.614 62.7616 107.693 62.3976 107.852C62.0336 108.001 61.595 108.22 61.0816 108.51L61.0116 107.488C61.5156 107.068 62.029 106.746 62.5516 106.522C63.0743 106.298 63.5876 106.186 64.0916 106.186ZM60.9556 106.354L61.1236 107.698L61.2636 107.894V113.228H59.5696V106.354H60.9556ZM71.3965 106.186C72.2365 106.186 72.9038 106.302 73.3985 106.536C73.9025 106.769 74.2618 107.152 74.4765 107.684C74.7005 108.216 74.8125 108.92 74.8125 109.798C74.8125 110.675 74.7005 111.38 74.4765 111.912C74.2618 112.434 73.9025 112.817 73.3985 113.06C72.9038 113.293 72.2365 113.41 71.3965 113.41C70.5751 113.41 69.9125 113.293 69.4085 113.06C68.9138 112.817 68.5545 112.434 68.3305 111.912C68.1065 111.38 67.9945 110.675 67.9945 109.798C67.9945 108.92 68.1065 108.216 68.3305 107.684C68.5545 107.152 68.9138 106.769 69.4085 106.536C69.9125 106.302 70.5751 106.186 71.3965 106.186ZM71.3965 107.474C70.9858 107.474 70.6591 107.544 70.4165 107.684C70.1831 107.814 70.0151 108.048 69.9125 108.384C69.8098 108.72 69.7585 109.191 69.7585 109.798C69.7585 110.404 69.8098 110.876 69.9125 111.212C70.0151 111.548 70.1831 111.781 70.4165 111.912C70.6591 112.042 70.9858 112.108 71.3965 112.108C71.8165 112.108 72.1478 112.042 72.3905 111.912C72.6331 111.781 72.8011 111.548 72.8945 111.212C72.9971 110.876 73.0485 110.404 73.0485 109.798C73.0485 109.191 72.9971 108.72 72.8945 108.384C72.8011 108.048 72.6331 107.814 72.3905 107.684C72.1478 107.544 71.8165 107.474 71.3965 107.474ZM17.5286 121.386C17.9112 121.386 18.2659 121.395 18.5926 121.414C18.9286 121.432 19.2459 121.465 19.5446 121.512C19.8432 121.558 20.1372 121.624 20.4266 121.708L20.2726 122.996C19.9646 122.977 19.6612 122.963 19.3626 122.954C19.0639 122.935 18.7652 122.926 18.4666 122.926C18.1772 122.916 17.8832 122.912 17.5846 122.912C17.1366 122.912 16.7586 122.958 16.4506 123.052C16.1426 123.136 15.8952 123.304 15.7086 123.556C15.5312 123.808 15.4006 124.167 15.3166 124.634C15.2326 125.1 15.1906 125.702 15.1906 126.44C15.1906 127.308 15.2466 127.994 15.3586 128.498C15.4799 128.992 15.6759 129.352 15.9466 129.576C16.2172 129.79 16.5812 129.898 17.0386 129.898C17.3466 129.898 17.6312 129.86 17.8926 129.786C18.1539 129.711 18.3919 129.613 18.6066 129.492C18.8306 129.361 19.0406 129.23 19.2366 129.1L19.4466 130.01C19.2972 130.196 19.0779 130.402 18.7886 130.626C18.5086 130.84 18.1726 131.027 17.7806 131.186C17.3886 131.335 16.9452 131.41 16.4506 131.41C15.7226 131.41 15.1252 131.237 14.6586 130.892C14.2012 130.537 13.8652 129.991 13.6506 129.254C13.4452 128.507 13.3426 127.55 13.3426 126.384C13.3426 125.114 13.4779 124.116 13.7486 123.388C14.0192 122.66 14.4579 122.146 15.0646 121.848C15.6806 121.54 16.5019 121.386 17.5286 121.386ZM20.7346 125.656V131.228H19.4466L19.1946 129.786L19.0266 129.436V125.656H20.7346ZM25.9936 124.186C27.1043 124.186 27.9023 124.382 28.3876 124.774C28.873 125.156 29.1203 125.726 29.1296 126.482C29.139 127.107 28.9896 127.583 28.6816 127.91C28.383 128.227 27.8836 128.386 27.1836 128.386H23.2636V127.336H26.7216C27.039 127.336 27.2396 127.252 27.3236 127.084C27.417 126.916 27.4636 126.71 27.4636 126.468C27.4543 126.085 27.3423 125.819 27.1276 125.67C26.9223 125.52 26.5676 125.446 26.0636 125.446C25.625 125.446 25.2843 125.506 25.0416 125.628C24.799 125.749 24.6263 125.968 24.5236 126.286C24.4303 126.603 24.3836 127.06 24.3836 127.658C24.3836 128.292 24.4443 128.782 24.5656 129.128C24.687 129.473 24.8876 129.711 25.1676 129.842C25.4476 129.963 25.821 130.024 26.2876 130.024C26.633 130.024 27.0296 130.01 27.4776 129.982C27.935 129.954 28.3736 129.916 28.7936 129.87L28.9616 130.948C28.7096 131.05 28.4203 131.134 28.0936 131.2C27.767 131.265 27.4263 131.312 27.0716 131.34C26.7263 131.377 26.3996 131.396 26.0916 131.396C25.2516 131.396 24.575 131.274 24.0616 131.032C23.5576 130.78 23.189 130.388 22.9556 129.856C22.7316 129.324 22.6196 128.638 22.6196 127.798C22.6196 126.892 22.7316 126.178 22.9556 125.656C23.189 125.124 23.553 124.746 24.0476 124.522C24.5516 124.298 25.2003 124.186 25.9936 124.186ZM35.5942 124.186C36.8729 124.186 37.5122 124.816 37.5122 126.076V131.228H35.8182V126.594C35.8182 126.22 35.7529 125.964 35.6222 125.824C35.4916 125.684 35.2722 125.614 34.9642 125.614C34.6189 125.614 34.2642 125.693 33.9002 125.852C33.5362 126.001 33.0976 126.22 32.5842 126.51L32.5142 125.488C33.0182 125.068 33.5316 124.746 34.0542 124.522C34.5769 124.298 35.0902 124.186 35.5942 124.186ZM32.4582 124.354L32.6262 125.698L32.7662 125.894V131.228H31.0722V124.354H32.4582ZM42.8571 124.186C43.9677 124.186 44.7657 124.382 45.2511 124.774C45.7364 125.156 45.9837 125.726 45.9931 126.482C46.0024 127.107 45.8531 127.583 45.5451 127.91C45.2464 128.227 44.7471 128.386 44.0471 128.386H40.1271V127.336H43.5851C43.9024 127.336 44.1031 127.252 44.1871 127.084C44.2804 126.916 44.3271 126.71 44.3271 126.468C44.3177 126.085 44.2057 125.819 43.9911 125.67C43.7857 125.52 43.4311 125.446 42.9271 125.446C42.4884 125.446 42.1477 125.506 41.9051 125.628C41.6624 125.749 41.4897 125.968 41.3871 126.286C41.2937 126.603 41.2471 127.06 41.2471 127.658C41.2471 128.292 41.3077 128.782 41.4291 129.128C41.5504 129.473 41.7511 129.711 42.0311 129.842C42.3111 129.963 42.6844 130.024 43.1511 130.024C43.4964 130.024 43.8931 130.01 44.3411 129.982C44.7984 129.954 45.2371 129.916 45.6571 129.87L45.8251 130.948C45.5731 131.05 45.2837 131.134 44.9571 131.2C44.6304 131.265 44.2897 131.312 43.9351 131.34C43.5897 131.377 43.2631 131.396 42.9551 131.396C42.1151 131.396 41.4384 131.274 40.9251 131.032C40.4211 130.78 40.0524 130.388 39.8191 129.856C39.5951 129.324 39.4831 128.638 39.4831 127.798C39.4831 126.892 39.5951 126.178 39.8191 125.656C40.0524 125.124 40.4164 124.746 40.9111 124.522C41.4151 124.298 42.0637 124.186 42.8571 124.186ZM49.2517 124.354L49.4757 125.698L49.6297 125.894V131.228H47.9357V124.354H49.2517ZM52.6117 124.186L52.4437 125.754H51.9537C51.5897 125.754 51.221 125.814 50.8477 125.936C50.4743 126.057 50.0077 126.239 49.4477 126.482L49.3357 125.488C49.821 125.077 50.3157 124.76 50.8197 124.536C51.3237 124.302 51.809 124.186 52.2757 124.186H52.6117ZM57.6106 124.186C58.1612 124.186 58.6232 124.26 58.9966 124.41C59.3792 124.55 59.6686 124.792 59.8646 125.138C60.0606 125.483 60.1586 125.959 60.1586 126.566V131.228H58.8146L58.5766 129.744L58.4506 129.548V126.552C58.4506 126.188 58.3666 125.926 58.1986 125.768C58.0306 125.6 57.7086 125.516 57.2326 125.516C56.8779 125.516 56.4299 125.53 55.8886 125.558C55.3566 125.586 54.8199 125.623 54.2786 125.67L54.1246 124.508C54.4512 124.442 54.8199 124.386 55.2306 124.34C55.6412 124.293 56.0566 124.256 56.4766 124.228C56.8966 124.2 57.2746 124.186 57.6106 124.186ZM59.4306 127L59.4166 128.05H56.2666C55.9866 128.059 55.7859 128.134 55.6646 128.274C55.5432 128.414 55.4826 128.605 55.4826 128.848V129.226C55.4826 129.506 55.5572 129.72 55.7066 129.87C55.8559 130.01 56.0892 130.08 56.4066 130.08C56.6586 130.08 56.9386 130.028 57.2466 129.926C57.5546 129.823 57.8579 129.674 58.1566 129.478C58.4646 129.282 58.7399 129.048 58.9826 128.778V129.66C58.8892 129.8 58.7539 129.968 58.5766 130.164C58.3992 130.35 58.1799 130.537 57.9186 130.724C57.6666 130.91 57.3726 131.064 57.0366 131.186C56.7099 131.307 56.3459 131.368 55.9446 131.368C55.5339 131.368 55.1652 131.298 54.8386 131.158C54.5119 131.008 54.2552 130.794 54.0686 130.514C53.8819 130.224 53.7886 129.87 53.7886 129.45V128.722C53.7886 128.18 53.9659 127.76 54.3206 127.462C54.6846 127.154 55.1792 127 55.8046 127H59.4306ZM64.6882 122.394V129.156C64.6882 129.445 64.7489 129.65 64.8702 129.772C65.0009 129.893 65.2202 129.954 65.5282 129.954H66.4802L66.6622 131.144C66.5035 131.19 66.3122 131.232 66.0882 131.27C65.8642 131.307 65.6449 131.33 65.4302 131.34C65.2155 131.358 65.0335 131.368 64.8842 131.368C64.2869 131.368 63.8202 131.209 63.4842 130.892C63.1575 130.565 62.9942 130.098 62.9942 129.492V122.394H64.6882ZM66.7322 124.354V125.53H61.7762V124.424L63.1202 124.354H66.7322ZM71.4707 124.186C72.5813 124.186 73.3793 124.382 73.8647 124.774C74.35 125.156 74.5973 125.726 74.6067 126.482C74.616 127.107 74.4667 127.583 74.1587 127.91C73.86 128.227 73.3607 128.386 72.6607 128.386H68.7407V127.336H72.1987C72.516 127.336 72.7167 127.252 72.8007 127.084C72.894 126.916 72.9407 126.71 72.9407 126.468C72.9313 126.085 72.8193 125.819 72.6047 125.67C72.3993 125.52 72.0447 125.446 71.5407 125.446C71.102 125.446 70.7613 125.506 70.5187 125.628C70.276 125.749 70.1033 125.968 70.0007 126.286C69.9073 126.603 69.8607 127.06 69.8607 127.658C69.8607 128.292 69.9213 128.782 70.0427 129.128C70.164 129.473 70.3647 129.711 70.6447 129.842C70.9247 129.963 71.298 130.024 71.7647 130.024C72.11 130.024 72.5067 130.01 72.9547 129.982C73.412 129.954 73.8507 129.916 74.2707 129.87L74.4387 130.948C74.1867 131.05 73.8973 131.134 73.5707 131.2C73.244 131.265 72.9033 131.312 72.5487 131.34C72.2033 131.377 71.8767 131.396 71.5687 131.396C70.7287 131.396 70.052 131.274 69.5387 131.032C69.0347 130.78 68.666 130.388 68.4327 129.856C68.2087 129.324 68.0967 128.638 68.0967 127.798C68.0967 126.892 68.2087 126.178 68.4327 125.656C68.666 125.124 69.03 124.746 69.5247 124.522C70.0287 124.298 70.6773 124.186 71.4707 124.186Z" fill="#250A9D"/>
<path d="M70.019 75.3407L18.1873 75.3337" stroke="white" stroke-width="6.29" stroke-miterlimit="10"/>
<path d="M70.019 75.3407L18.1873 75.3337" stroke="#250A9D" stroke-width="3.42" stroke-miterlimit="10"/>
<path d="M12.8871 16.8757L12.8871 13.1137L69.4492 13.1068" stroke="white" stroke-width="6.29" stroke-miterlimit="10"/>
<path d="M12.8871 16.8757L12.8871 13.1137L69.4492 13.1068" stroke="#250A9D" stroke-width="3.42" stroke-miterlimit="10"/>
<path d="M56.21 80.7376L31.8075 80.7251L7.46668 56.3843L7.45414 31.9818L31.7927 7.64323H56.2092L80.5486 31.9826L80.5486 56.3991L56.21 80.7376Z" fill="#EFECFF" stroke="#250A9D" stroke-width="7"/>
<path d="M18.1855 75.3328L12.8865 75.3399L12.8865 16.8757" stroke="white" stroke-width="6.29" stroke-miterlimit="10"/>
<path d="M18.1855 75.3328L12.8865 75.3399L12.8865 16.8757" stroke="#250A9D" stroke-width="3.42" stroke-miterlimit="10"/>
<path d="M69.4494 13.1052L75.1133 13.1122L75.1134 75.3382L70.0179 75.3382" stroke="white" stroke-width="6.29" stroke-miterlimit="10"/>
<path d="M69.4494 13.1052L75.1133 13.1122L75.1134 75.3382L70.0179 75.3382" stroke="#250A9D" stroke-width="3.42" stroke-miterlimit="10"/>
<g clip-path="url(#clip0_488_8892)">
<path d="M44.081 34.2784C43.9048 34.6692 43.676 35.0299 43.5799 35.4207C43.2383 36.7877 44.081 38.1137 45.459 38.4369C46.1981 38.6106 46.9372 38.7876 47.6813 38.9379C48.4688 39.0983 48.9123 39.5626 49.0676 40.3475C49.2063 41.0506 49.3766 41.7487 49.5437 42.4468C50.0022 44.3674 51.9531 45.0956 53.5524 43.9558C53.5933 43.9274 53.6359 43.9023 53.6818 43.8723C54.6456 47.6216 53.5532 53.3108 48.6259 56.7721C43.9424 60.0622 37.5769 59.6781 33.169 55.8218C28.9165 52.1017 27.7623 45.8355 30.4248 40.7116C31.6813 38.291 33.6984 36.3502 36.1658 35.1879C38.6332 34.0255 41.4142 33.706 44.081 34.2784ZM42.4942 47.5005H42.865C44.3544 47.5005 45.8437 47.5005 47.3331 47.5005C47.4577 47.5059 47.5826 47.4978 47.7055 47.4763C47.9479 47.425 48.1624 47.2854 48.3074 47.0846C48.4524 46.8838 48.5175 46.6363 48.49 46.3901C48.4625 46.144 48.3444 45.9169 48.1586 45.7531C47.9728 45.5893 47.7327 45.5005 47.485 45.5039C45.9434 45.4981 44.4017 45.5039 42.8609 45.5039H42.4942V45.1407C42.4942 43.6409 42.4942 42.1415 42.4942 40.6423C42.4942 39.9567 42.0842 39.4983 41.4837 39.5041C40.8832 39.51 40.4949 39.9617 40.4949 40.6306C40.4949 42.1404 40.4949 43.6504 40.4949 45.1607V45.5039H40.1742C38.6434 45.5039 37.1126 45.5039 35.5809 45.5039C35.1183 45.5039 34.77 45.6868 34.5788 46.1119C34.2781 46.7866 34.7767 47.5005 35.5509 47.5039C37.0817 47.5089 38.6125 47.5039 40.1441 47.5039H40.4966V47.8813C40.4966 49.412 40.4966 50.9426 40.4966 52.4741C40.4885 52.7214 40.5726 52.9629 40.7327 53.1517C40.8928 53.3404 41.1173 53.4629 41.3627 53.4953C41.6081 53.5277 41.8567 53.4676 42.0603 53.3269C42.2639 53.1862 42.4078 52.9748 42.4642 52.7338C42.4897 52.601 42.4998 52.4656 42.4942 52.3305C42.4992 50.7339 42.4984 49.1414 42.4984 47.5005H42.4942Z" fill="#250A9D"/>
<path d="M51.989 42.9979C51.5063 42.9921 51.1304 42.6722 51.0077 42.1495C50.8356 41.4096 50.6736 40.6689 50.5066 39.9283C50.2132 38.6206 49.4148 37.8133 48.1114 37.5066C47.3723 37.3329 46.6307 37.1726 45.8899 37.0056C45.3312 36.8795 44.998 36.4987 45.0047 35.9943C45.0114 35.49 45.3387 35.1317 45.8832 35.0081C46.624 34.8411 47.3648 34.6741 48.1047 34.5071C49.4087 34.2015 50.2087 33.3943 50.5049 32.0855C50.672 31.3556 50.839 30.6255 51.006 29.8951C51.1313 29.3206 51.5071 28.9941 52.0132 29C52.5193 29.0058 52.8734 29.329 52.9995 29.8784C53.1665 30.6183 53.3336 31.3598 53.5048 32.0988C53.8088 33.4043 54.6161 34.2045 55.9267 34.4996C56.6574 34.6666 57.3882 34.8336 58.1173 35.0006C58.6893 35.1342 59.0092 35.5017 59.0025 36.0119C58.9958 36.5221 58.6801 36.8678 58.1239 36.9981C57.3951 37.1684 56.6649 37.3354 55.9334 37.4991C54.6255 37.7922 53.8146 38.5897 53.5114 39.894C53.3352 40.6456 53.1774 41.3971 52.9995 42.1487C52.8701 42.6806 52.4842 43.0037 51.989 42.9979Z" fill="#250A9D"/>
</g>
<defs>
<clipPath id="clip0_488_8892">
<rect width="30" height="30" fill="white" transform="translate(29 29)"/>
</clipPath>
</defs>
</svg>
