<svg width="100" height="156" viewBox="0 0 100 156" fill="none" xmlns="http://www.w3.org/2000/svg">
<rect width="100" height="156" rx="19" fill="#F9FBFF"/>
<path d="M39.4092 109.175C39.8479 109.175 40.2212 109.189 40.5292 109.217C40.8372 109.236 41.1219 109.268 41.3832 109.315C41.6445 109.352 41.9152 109.408 42.1952 109.483L42.0412 110.785C41.7519 110.766 41.4812 110.752 41.2292 110.743C40.9772 110.724 40.7065 110.71 40.4172 110.701C40.1372 110.692 39.8012 110.687 39.4092 110.687C38.8679 110.687 38.4432 110.794 38.1352 111.009C37.8272 111.224 37.6079 111.583 37.4772 112.087C37.3559 112.591 37.2952 113.286 37.2952 114.173C37.2952 115.06 37.3559 115.755 37.4772 116.259C37.6079 116.763 37.8272 117.122 38.1352 117.337C38.4432 117.552 38.8679 117.659 39.4092 117.659C40.0345 117.659 40.5572 117.65 40.9772 117.631C41.4065 117.603 41.8265 117.566 42.2372 117.519L42.3912 118.807C41.9712 118.938 41.5372 119.031 41.0892 119.087C40.6412 119.143 40.0812 119.171 39.4092 119.171C38.4385 119.171 37.6639 119.012 37.0852 118.695C36.5065 118.368 36.0865 117.841 35.8252 117.113C35.5732 116.385 35.4472 115.405 35.4472 114.173C35.4472 112.941 35.5732 111.961 35.8252 111.233C36.0865 110.505 36.5065 109.982 37.0852 109.665C37.6639 109.338 38.4385 109.175 39.4092 109.175ZM47.3063 111.961C48.1463 111.961 48.8136 112.078 49.3083 112.311C49.8123 112.544 50.1716 112.927 50.3863 113.459C50.6103 113.991 50.7223 114.696 50.7223 115.573C50.7223 116.45 50.6103 117.155 50.3863 117.687C50.1716 118.21 49.8123 118.592 49.3083 118.835C48.8136 119.068 48.1463 119.185 47.3063 119.185C46.485 119.185 45.8223 119.068 45.3183 118.835C44.8236 118.592 44.4643 118.21 44.2403 117.687C44.0163 117.155 43.9043 116.45 43.9043 115.573C43.9043 114.696 44.0163 113.991 44.2403 113.459C44.4643 112.927 44.8236 112.544 45.3183 112.311C45.8223 112.078 46.485 111.961 47.3063 111.961ZM47.3063 113.249C46.8956 113.249 46.569 113.319 46.3263 113.459C46.093 113.59 45.925 113.823 45.8223 114.159C45.7196 114.495 45.6683 114.966 45.6683 115.573C45.6683 116.18 45.7196 116.651 45.8223 116.987C45.925 117.323 46.093 117.556 46.3263 117.687C46.569 117.818 46.8956 117.883 47.3063 117.883C47.7263 117.883 48.0576 117.818 48.3003 117.687C48.543 117.556 48.711 117.323 48.8043 116.987C48.907 116.651 48.9583 116.18 48.9583 115.573C48.9583 114.966 48.907 114.495 48.8043 114.159C48.711 113.823 48.543 113.59 48.3003 113.459C48.0576 113.319 47.7263 113.249 47.3063 113.249ZM55.2174 111.961C55.5347 111.961 55.8754 111.97 56.2394 111.989C56.6127 112.008 56.9767 112.036 57.3314 112.073C57.6861 112.101 58.0034 112.143 58.2834 112.199L58.1714 113.305C57.7234 113.296 57.2754 113.286 56.8274 113.277C56.3887 113.258 55.9547 113.249 55.5254 113.249C55.1427 113.249 54.8394 113.258 54.6154 113.277C54.4007 113.296 54.2467 113.352 54.1534 113.445C54.0694 113.538 54.0274 113.697 54.0274 113.921C54.0274 114.192 54.1021 114.374 54.2514 114.467C54.4007 114.551 54.6434 114.635 54.9794 114.719L56.8554 115.153C57.4154 115.293 57.8307 115.508 58.1014 115.797C58.3721 116.077 58.5074 116.511 58.5074 117.099C58.5074 117.668 58.4001 118.102 58.1854 118.401C57.9801 118.69 57.6487 118.891 57.1914 119.003C56.7434 119.106 56.1694 119.157 55.4694 119.157C55.1987 119.157 54.7974 119.143 54.2654 119.115C53.7334 119.096 53.1501 119.036 52.5154 118.933L52.6274 117.827C52.8141 117.827 53.0334 117.832 53.2854 117.841C53.5467 117.85 53.8221 117.855 54.1114 117.855C54.4101 117.855 54.7134 117.855 55.0214 117.855C55.5161 117.855 55.8941 117.841 56.1554 117.813C56.4261 117.776 56.6127 117.706 56.7154 117.603C56.8181 117.491 56.8694 117.332 56.8694 117.127C56.8694 116.866 56.7807 116.693 56.6034 116.609C56.4354 116.516 56.1834 116.427 55.8474 116.343L54.0134 115.895C53.5934 115.783 53.2667 115.643 53.0334 115.475C52.8001 115.298 52.6321 115.083 52.5294 114.831C52.4267 114.57 52.3754 114.252 52.3754 113.879C52.3754 113.375 52.4687 112.983 52.6554 112.703C52.8514 112.423 53.1547 112.227 53.5654 112.115C53.9854 112.003 54.5361 111.952 55.2174 111.961ZM62.7282 110.169V116.931C62.7282 117.22 62.7888 117.426 62.9102 117.547C63.0408 117.668 63.2602 117.729 63.5682 117.729H64.5202L64.7022 118.919C64.5435 118.966 64.3522 119.008 64.1282 119.045C63.9042 119.082 63.6848 119.106 63.4702 119.115C63.2555 119.134 63.0735 119.143 62.9242 119.143C62.3268 119.143 61.8602 118.984 61.5242 118.667C61.1975 118.34 61.0342 117.874 61.0342 117.267V110.169H62.7282ZM64.7722 112.129V113.305H59.8162V112.199L61.1602 112.129H64.7722ZM31.8476 127.175C32.2862 127.175 32.6596 127.189 32.9676 127.217C33.2756 127.236 33.5602 127.268 33.8216 127.315C34.0829 127.352 34.3536 127.408 34.6336 127.483L34.4796 128.785C34.1902 128.766 33.9196 128.752 33.6676 128.743C33.4156 128.724 33.1449 128.71 32.8556 128.701C32.5756 128.692 32.2396 128.687 31.8476 128.687C31.3062 128.687 30.8816 128.794 30.5736 129.009C30.2656 129.224 30.0462 129.583 29.9156 130.087C29.7942 130.591 29.7336 131.286 29.7336 132.173C29.7336 133.06 29.7942 133.755 29.9156 134.259C30.0462 134.763 30.2656 135.122 30.5736 135.337C30.8816 135.552 31.3062 135.659 31.8476 135.659C32.4729 135.659 32.9956 135.65 33.4156 135.631C33.8449 135.603 34.2649 135.566 34.6756 135.519L34.8296 136.807C34.4096 136.938 33.9756 137.031 33.5276 137.087C33.0796 137.143 32.5196 137.171 31.8476 137.171C30.8769 137.171 30.1022 137.012 29.5236 136.695C28.9449 136.368 28.5249 135.841 28.2636 135.113C28.0116 134.385 27.8856 133.405 27.8856 132.173C27.8856 130.941 28.0116 129.961 28.2636 129.233C28.5249 128.505 28.9449 127.982 29.5236 127.665C30.1022 127.338 30.8769 127.175 31.8476 127.175ZM39.7027 129.961C40.8133 129.961 41.6113 130.157 42.0967 130.549C42.582 130.932 42.8293 131.501 42.8387 132.257C42.848 132.882 42.6987 133.358 42.3907 133.685C42.092 134.002 41.5927 134.161 40.8927 134.161H36.9727V133.111H40.4307C40.748 133.111 40.9487 133.027 41.0327 132.859C41.126 132.691 41.1727 132.486 41.1727 132.243C41.1633 131.86 41.0513 131.594 40.8367 131.445C40.6313 131.296 40.2767 131.221 39.7727 131.221C39.334 131.221 38.9933 131.282 38.7507 131.403C38.508 131.524 38.3353 131.744 38.2327 132.061C38.1393 132.378 38.0927 132.836 38.0927 133.433C38.0927 134.068 38.1533 134.558 38.2747 134.903C38.396 135.248 38.5967 135.486 38.8767 135.617C39.1567 135.738 39.53 135.799 39.9967 135.799C40.342 135.799 40.7387 135.785 41.1867 135.757C41.644 135.729 42.0827 135.692 42.5027 135.645L42.6707 136.723C42.4187 136.826 42.1293 136.91 41.8027 136.975C41.476 137.04 41.1353 137.087 40.7807 137.115C40.4353 137.152 40.1087 137.171 39.8007 137.171C38.9607 137.171 38.284 137.05 37.7707 136.807C37.2667 136.555 36.898 136.163 36.6647 135.631C36.4407 135.099 36.3287 134.413 36.3287 133.573C36.3287 132.668 36.4407 131.954 36.6647 131.431C36.898 130.899 37.262 130.521 37.7567 130.297C38.2607 130.073 38.9093 129.961 39.7027 129.961ZM49.3033 129.961C50.5819 129.961 51.2213 130.591 51.2213 131.851V137.003H49.5273V132.369C49.5273 131.996 49.4619 131.739 49.3313 131.599C49.2006 131.459 48.9813 131.389 48.6733 131.389C48.3279 131.389 47.9733 131.468 47.6093 131.627C47.2453 131.776 46.8066 131.996 46.2933 132.285L46.2233 131.263C46.7273 130.843 47.2406 130.521 47.7633 130.297C48.2859 130.073 48.7993 129.961 49.3033 129.961ZM46.1673 130.129L46.3353 131.473L46.4753 131.669V137.003H44.7813V130.129H46.1673ZM55.7681 128.169V134.931C55.7681 135.22 55.8288 135.426 55.9501 135.547C56.0808 135.668 56.3001 135.729 56.6081 135.729H57.5601L57.7421 136.919C57.5834 136.966 57.3921 137.008 57.1681 137.045C56.9441 137.082 56.7248 137.106 56.5101 137.115C56.2954 137.134 56.1134 137.143 55.9641 137.143C55.3668 137.143 54.9001 136.984 54.5641 136.667C54.2374 136.34 54.0741 135.874 54.0741 135.267V128.169H55.7681ZM57.8121 130.129V131.305H52.8561V130.199L54.2001 130.129H57.8121ZM62.5505 129.961C63.6612 129.961 64.4592 130.157 64.9445 130.549C65.4299 130.932 65.6772 131.501 65.6865 132.257C65.6959 132.882 65.5465 133.358 65.2385 133.685C64.9399 134.002 64.4405 134.161 63.7405 134.161H59.8205V133.111H63.2785C63.5959 133.111 63.7965 133.027 63.8805 132.859C63.9739 132.691 64.0205 132.486 64.0205 132.243C64.0112 131.86 63.8992 131.594 63.6845 131.445C63.4792 131.296 63.1245 131.221 62.6205 131.221C62.1819 131.221 61.8412 131.282 61.5985 131.403C61.3559 131.524 61.1832 131.744 61.0805 132.061C60.9872 132.378 60.9405 132.836 60.9405 133.433C60.9405 134.068 61.0012 134.558 61.1225 134.903C61.2439 135.248 61.4445 135.486 61.7245 135.617C62.0045 135.738 62.3779 135.799 62.8445 135.799C63.1899 135.799 63.5865 135.785 64.0345 135.757C64.4919 135.729 64.9305 135.692 65.3505 135.645L65.5185 136.723C65.2665 136.826 64.9772 136.91 64.6505 136.975C64.3239 137.04 63.9832 137.087 63.6285 137.115C63.2832 137.152 62.9565 137.171 62.6485 137.171C61.8085 137.171 61.1319 137.05 60.6185 136.807C60.1145 136.555 59.7459 136.163 59.5125 135.631C59.2885 135.099 59.1765 134.413 59.1765 133.573C59.1765 132.668 59.2885 131.954 59.5125 131.431C59.7459 130.899 60.1099 130.521 60.6045 130.297C61.1085 130.073 61.7572 129.961 62.5505 129.961ZM68.9452 130.129L69.1692 131.473L69.3232 131.669V137.003H67.6292V130.129H68.9452ZM72.3052 129.961L72.1372 131.529H71.6472C71.2832 131.529 70.9145 131.59 70.5412 131.711C70.1678 131.832 69.7012 132.014 69.1412 132.257L69.0292 131.263C69.5145 130.852 70.0092 130.535 70.5132 130.311C71.0172 130.078 71.5025 129.961 71.9692 129.961H72.3052Z" fill="#40337A"/>
<path d="M76.0189 81.1166L24.1873 81.1096" stroke="white" stroke-width="6.29" stroke-miterlimit="10"/>
<path d="M76.0189 81.1166L24.1873 81.1096" stroke="#40337A" stroke-width="3.42" stroke-miterlimit="10"/>
<path d="M18.8874 22.6509L18.8874 18.889L75.4494 18.8821" stroke="white" stroke-width="6.29" stroke-miterlimit="10"/>
<path d="M18.8874 22.6509L18.8874 18.889L75.4494 18.8821" stroke="#40337A" stroke-width="3.42" stroke-miterlimit="10"/>
<path d="M62.21 86.5132L37.8075 86.5006L13.4667 62.1598L13.4541 37.7573L37.7927 13.4187H62.2092L86.5486 37.7581L86.5486 62.1746L62.21 86.5132Z" fill="#F8FBFF" stroke="#40337A" stroke-width="7"/>
<path d="M24.1857 81.1085L18.8867 81.1155L18.8867 22.6514" stroke="white" stroke-width="6.29" stroke-miterlimit="10"/>
<path d="M24.1857 81.1085L18.8867 81.1155L18.8867 22.6514" stroke="#40337A" stroke-width="3.42" stroke-miterlimit="10"/>
<path d="M75.4499 18.8812L81.1138 18.8882L81.1138 81.1142L76.0184 81.1142" stroke="white" stroke-width="6.29" stroke-miterlimit="10"/>
<path d="M75.4499 18.8812L81.1138 18.8882L81.1138 81.1142L76.0184 81.1142" stroke="#40337A" stroke-width="3.42" stroke-miterlimit="10"/>
<g clip-path="url(#clip0_1554_3409)">
<path d="M47.9892 53.7875C47.8331 54.6884 47.9372 55.5862 48.2933 56.4813C48.2131 56.486 48.1527 56.4928 48.0928 56.4928C46.0197 56.4928 43.9465 56.4928 41.8733 56.4928C40.7425 56.4928 39.999 55.7407 39.999 54.6062C39.9994 50.3653 39.9995 46.1242 39.9995 41.883C39.9995 40.7552 40.7529 40 41.8796 40H51.8237C52.9395 40 53.6881 40.7526 53.6923 41.8736C53.6923 42.1338 53.6923 42.3914 53.6923 42.6626C53.1956 42.7797 52.8327 43.0592 52.6286 43.4901L51.7378 43.4157C51.7378 43.2975 51.7404 43.1429 51.7378 42.9894C51.7326 42.7141 51.5785 42.5564 51.3047 42.5413C51.2594 42.5413 51.2141 42.5413 51.1683 42.5413H42.5298C42.0821 42.5403 41.9535 42.6693 41.9535 43.1226C41.9535 43.5645 41.9535 44.0074 41.9535 44.4477C41.9535 44.812 42.0982 44.9551 42.4622 44.9551C45.107 44.9551 47.752 44.9551 50.3972 44.9551C50.5565 44.9551 50.633 44.9785 50.6575 45.1633C50.7044 45.5115 50.9137 45.7805 51.1688 46.0137C51.2651 46.1011 51.3593 46.1901 51.4369 46.2625C51.2557 46.4706 51.0917 46.6689 50.9163 46.8558C50.8709 46.888 50.8155 46.9031 50.7601 46.8984C50.3378 46.9016 49.9151 46.8984 49.4928 46.8984C49.1883 46.8984 49.0331 47.0457 49.0217 47.3445C49.0161 47.4937 49.0161 47.643 49.0217 47.7926C49.0326 48.0866 49.1779 48.2329 49.4736 48.2381C49.8313 48.2443 50.19 48.2599 50.5456 48.2339C50.8408 48.212 51.0438 48.2995 51.162 48.5878C50.8496 48.9521 50.5331 49.3273 50.2082 49.6974C50.1642 49.7331 50.1087 49.7516 50.052 49.7494C49.8573 49.7557 49.662 49.7494 49.4673 49.7536C49.1877 49.7619 49.0352 49.9097 49.0222 50.1897C49.009 50.3456 49.0102 50.5024 49.0258 50.6581C49.0451 50.7919 49.1086 50.9183 49.1685 51.0974C48.6999 51.7838 48.2579 52.5484 48.0148 53.4269C48.0148 53.3103 48.0179 53.1937 48.0148 53.0776C48.0049 52.7706 47.8617 52.6191 47.5582 52.6155C47.084 52.6092 46.6096 52.6092 46.1347 52.6155C45.8223 52.6197 45.6844 52.7654 45.6787 53.073C45.6755 53.2421 45.6729 53.4112 45.6833 53.5794C45.6847 53.6786 45.7251 53.7733 45.7957 53.843C45.8663 53.9127 45.9615 53.9519 46.0608 53.952C46.5814 53.9608 47.1021 53.965 47.6201 53.9478C47.744 53.939 47.8612 53.8437 47.9892 53.7875ZM43.4982 51.0984C43.745 51.0984 43.9913 51.1041 44.2375 51.0984C44.4978 51.0906 44.6582 50.9329 44.6702 50.6706C44.6788 50.5023 44.6788 50.3336 44.6702 50.1653C44.6566 49.9217 44.5046 49.7598 44.262 49.7551C43.7563 49.7458 43.2504 49.7458 42.7443 49.7551C42.4918 49.7598 42.3435 49.9269 42.3367 50.1814C42.332 50.3375 42.333 50.4937 42.3367 50.6498C42.3419 50.9381 42.4929 51.0948 42.7813 51.1015C43.0192 51.1031 43.2587 51.0989 43.4982 51.0984ZM46.849 51.0984C47.0953 51.0984 47.3421 51.1047 47.5878 51.0984C47.8435 51.0906 47.9986 50.9423 48.0137 50.6862C48.0244 50.5115 48.0244 50.3363 48.0137 50.1616C47.9986 49.916 47.8481 49.7593 47.604 49.7551C47.0986 49.7458 46.5929 49.7458 46.0868 49.7551C45.8427 49.7598 45.6938 49.9222 45.6833 50.1658C45.6766 50.3271 45.6776 50.4895 45.6833 50.6513C45.6911 50.9407 45.8421 51.0932 46.1316 51.0994C46.369 51.1031 46.6116 51.0989 46.849 51.0984ZM43.5076 48.2386C43.7601 48.2386 44.0137 48.2464 44.2656 48.2386C44.502 48.2287 44.652 48.0825 44.6676 47.8456C44.6788 47.6645 44.6788 47.4829 44.6676 47.3018C44.653 47.0671 44.4968 46.9078 44.2693 46.9047C43.7577 46.8981 43.2455 46.8981 42.7329 46.9047C42.6807 46.9036 42.6288 46.9131 42.5804 46.9325C42.5319 46.9519 42.4878 46.9808 42.4508 47.0175C42.4137 47.0543 42.3844 47.0981 42.3646 47.1464C42.3449 47.1947 42.335 47.2465 42.3356 47.2987C42.3289 47.4668 42.3304 47.6359 42.3356 47.804C42.3414 48.0851 42.4856 48.2339 42.7693 48.2417C43.0146 48.2443 43.2608 48.2386 43.5076 48.2386ZM43.4904 53.952C43.7367 53.952 43.9835 53.9551 44.2297 53.952C44.4942 53.9473 44.6561 53.7959 44.6697 53.5356C44.678 53.3675 44.6775 53.1984 44.6697 53.0303C44.6577 52.7904 44.5135 52.6254 44.2865 52.6207C43.7617 52.6099 43.2367 52.6099 42.7115 52.6207C42.484 52.6254 42.3471 52.7841 42.3362 53.0115C42.3294 53.1802 42.331 53.3488 42.3362 53.5169C42.3419 53.7933 42.496 53.9489 42.7725 53.9535C43.0104 53.9556 43.2504 53.952 43.4904 53.952ZM46.8475 46.8979C46.6012 46.8979 46.355 46.8943 46.1087 46.8979C45.8484 46.9021 45.6922 47.0499 45.6833 47.3039C45.6761 47.4782 45.6761 47.6536 45.6833 47.8285C45.6938 48.0788 45.8348 48.2287 46.0879 48.2334C46.5929 48.2421 47.0984 48.2421 47.6045 48.2334C47.8523 48.2292 47.9976 48.0772 48.0137 47.829C48.0233 47.6609 48.0233 47.4923 48.0137 47.3242C48.0007 47.0473 47.8429 46.9 47.5654 46.8969C47.327 46.8953 47.0875 46.8974 46.8475 46.8979Z" fill="#40337A"/>
<path d="M53.9364 59.3505C52.412 59.3223 51.0532 58.8732 49.9478 57.8001C48.3766 56.2746 48.1032 54.1294 49.2153 52.2017C49.8921 51.0255 50.7616 49.9903 51.6659 48.9848C51.717 48.9437 51.7816 48.9231 51.8471 48.9271C52.0153 48.9302 52.1829 48.9598 52.3511 48.9604C53.4361 48.9635 54.5213 48.9635 55.6067 48.9604C55.6978 48.9604 55.7972 48.9781 55.8779 48.9474C56.1054 48.861 56.2273 48.9775 56.3647 49.1347C57.1936 50.0856 58.0037 51.0505 58.6362 52.1475C59.4594 53.5741 59.6197 55.0511 58.8622 56.551C58.2229 57.8167 57.166 58.6093 55.8336 59.0491C55.5689 59.1369 55.2972 59.2022 55.0215 59.2443C54.6622 59.2984 54.2983 59.3166 53.9364 59.3505ZM55.6712 54.9106C55.6573 54.7978 55.6365 54.6861 55.6087 54.5759C55.44 53.992 54.9897 53.7208 54.4477 53.5657C54.1244 53.4731 53.7896 53.4164 53.47 53.3139C53.2378 53.2389 53.0654 53.0802 53.0534 52.8064C53.0399 52.5181 53.1857 52.3276 53.4288 52.2001C53.55 52.1339 53.6832 52.0927 53.8205 52.0787C53.9579 52.0647 54.0967 52.0783 54.2287 52.1187C54.3607 52.1591 54.4834 52.2254 54.5894 52.3139C54.6954 52.4023 54.7826 52.511 54.846 52.6336C54.9694 52.8621 55.162 52.9428 55.3552 52.847C55.5483 52.7513 55.6009 52.541 55.4921 52.3115C55.4024 52.1088 55.27 51.9278 55.1038 51.781C54.9377 51.6343 54.7417 51.5251 54.5295 51.4611C54.3478 51.4054 54.265 51.3393 54.279 51.1332C54.2856 51.0844 54.2813 51.0348 54.2665 50.9878C54.2518 50.9409 54.2269 50.8977 54.1936 50.8614C54.1603 50.8252 54.1195 50.7966 54.074 50.7778C54.0285 50.7591 53.9794 50.7505 53.9302 50.7528C53.7147 50.7528 53.5595 50.9037 53.5715 51.1447C53.5809 51.3299 53.534 51.4356 53.3377 51.46C53.2614 51.4761 53.1885 51.5053 53.1222 51.5464C52.6135 51.8124 52.3173 52.2194 52.3287 52.8059C52.3402 53.3924 52.6656 53.762 53.18 53.9738C53.4231 54.0742 53.6928 54.1091 53.9453 54.1892C54.1978 54.2694 54.4659 54.3282 54.6836 54.4677C55.0782 54.7222 55.0313 55.253 54.5982 55.4279C54.3409 55.5301 54.0653 55.5781 53.7886 55.5689C53.3841 55.5528 53.054 55.3649 52.9077 54.9486C52.8155 54.6883 52.6416 54.5806 52.4261 54.653C52.2105 54.7253 52.1413 54.9241 52.2288 55.1864C52.399 55.699 52.7577 56.0332 53.2627 56.1883C53.4856 56.257 53.6032 56.3257 53.5751 56.5838C53.5564 56.7613 53.7199 56.8992 53.8943 56.9132C54.0687 56.9273 54.2801 56.8091 54.2618 56.6452C54.2218 56.2934 54.4425 56.2512 54.6909 56.1716C54.8864 56.1034 55.0692 56.0031 55.2318 55.8749C55.5233 55.6543 55.6572 55.342 55.6712 54.9106Z" fill="#40337A"/>
<path d="M53.9342 46.1213C53.4016 46.1213 52.869 46.1275 52.3363 46.1156C52.2257 46.1062 52.121 46.0617 52.0375 45.9886C51.8511 45.8278 51.6824 45.6461 51.5101 45.4681C51.1977 45.146 51.1576 44.7088 51.4106 44.3721C51.6569 44.0447 52.0875 43.9599 52.4764 44.1639C52.8039 44.3325 53.0382 44.2342 53.1496 43.8808C53.2678 43.5082 53.5723 43.274 53.9399 43.2734C54.3075 43.2729 54.6167 43.5066 54.7323 43.8777C54.8448 44.2331 55.078 44.3331 55.4034 44.1655C55.7944 43.9641 56.225 44.0468 56.4707 44.3737C56.7253 44.7093 56.691 45.1465 56.376 45.4707C56.1635 45.6893 55.9766 45.9771 55.7158 46.0916C55.4701 46.1994 55.1431 46.1229 54.85 46.1244C54.5449 46.1223 54.2398 46.1213 53.9342 46.1213Z" fill="#40337A"/>
<path d="M53.9397 48.3377C53.367 48.3377 52.7969 48.3377 52.2253 48.3377C51.7281 48.3377 51.3761 48.0067 51.374 47.5456C51.372 47.0845 51.7239 46.7462 52.218 46.7457C53.3676 46.7436 54.5169 46.7436 55.6662 46.7457C56.1576 46.7457 56.5127 47.0876 56.5091 47.5477C56.5054 48.0078 56.1545 48.3351 55.6735 48.3377C55.0976 48.3398 54.5176 48.3377 53.9397 48.3377Z" fill="#40337A"/>
</g>
<defs>
<clipPath id="clip0_1554_3409">
<rect width="19.35" height="19.35" fill="white" transform="translate(40 40)"/>
</clipPath>
</defs>
</svg>
