<svg width="100" height="156" viewBox="0 0 100 156" fill="none" xmlns="http://www.w3.org/2000/svg">
<rect width="100" height="156" rx="19" fill="#F9FBFF"/>
<path d="M27.3583 109.175C27.7969 109.175 28.1703 109.189 28.4783 109.217C28.7863 109.236 29.0709 109.268 29.3323 109.315C29.5936 109.352 29.8643 109.408 30.1443 109.483L29.9903 110.785C29.7009 110.766 29.4303 110.752 29.1783 110.743C28.9263 110.724 28.6556 110.71 28.3663 110.701C28.0863 110.692 27.7503 110.687 27.3583 110.687C26.8169 110.687 26.3923 110.794 26.0843 111.009C25.7763 111.224 25.5569 111.583 25.4263 112.087C25.3049 112.591 25.2443 113.286 25.2443 114.173C25.2443 115.06 25.3049 115.755 25.4263 116.259C25.5569 116.763 25.7763 117.122 26.0843 117.337C26.3923 117.552 26.8169 117.659 27.3583 117.659C27.9836 117.659 28.5063 117.65 28.9263 117.631C29.3556 117.603 29.7756 117.566 30.1863 117.519L30.3403 118.807C29.9203 118.938 29.4863 119.031 29.0383 119.087C28.5903 119.143 28.0303 119.171 27.3583 119.171C26.3876 119.171 25.6129 119.012 25.0343 118.695C24.4556 118.368 24.0356 117.841 23.7743 117.113C23.5223 116.385 23.3963 115.405 23.3963 114.173C23.3963 112.941 23.5223 111.961 23.7743 111.233C24.0356 110.505 24.4556 109.982 25.0343 109.665C25.6129 109.338 26.3876 109.175 27.3583 109.175ZM35.2554 111.961C36.0954 111.961 36.7627 112.078 37.2574 112.311C37.7614 112.544 38.1207 112.927 38.3354 113.459C38.5594 113.991 38.6714 114.696 38.6714 115.573C38.6714 116.45 38.5594 117.155 38.3354 117.687C38.1207 118.21 37.7614 118.592 37.2574 118.835C36.7627 119.068 36.0954 119.185 35.2554 119.185C34.434 119.185 33.7714 119.068 33.2674 118.835C32.7727 118.592 32.4134 118.21 32.1894 117.687C31.9654 117.155 31.8534 116.45 31.8534 115.573C31.8534 114.696 31.9654 113.991 32.1894 113.459C32.4134 112.927 32.7727 112.544 33.2674 112.311C33.7714 112.078 34.434 111.961 35.2554 111.961ZM35.2554 113.249C34.8447 113.249 34.518 113.319 34.2754 113.459C34.042 113.59 33.874 113.823 33.7714 114.159C33.6687 114.495 33.6174 114.966 33.6174 115.573C33.6174 116.18 33.6687 116.651 33.7714 116.987C33.874 117.323 34.042 117.556 34.2754 117.687C34.518 117.818 34.8447 117.883 35.2554 117.883C35.6754 117.883 36.0067 117.818 36.2494 117.687C36.492 117.556 36.66 117.323 36.7534 116.987C36.856 116.651 36.9074 116.18 36.9074 115.573C36.9074 114.966 36.856 114.495 36.7534 114.159C36.66 113.823 36.492 113.59 36.2494 113.459C36.0067 113.319 35.6754 113.249 35.2554 113.249ZM42.3405 112.129V116.777C42.3311 117.122 42.3965 117.37 42.5365 117.519C42.6858 117.668 42.9238 117.743 43.2505 117.743C43.5771 117.743 43.9038 117.673 44.2305 117.533C44.5571 117.393 44.9538 117.183 45.4205 116.903L45.5885 117.911C45.0658 118.331 44.5618 118.648 44.0765 118.863C43.5911 119.078 43.0871 119.185 42.5645 119.185C41.2858 119.185 40.6465 118.555 40.6465 117.295V112.129H42.3405ZM46.9465 112.129V119.003H45.6025L45.4205 117.673L45.2525 117.477V112.129H46.9465ZM53.7926 111.961C55.0712 111.961 55.7106 112.591 55.7106 113.851V119.003H54.0166V114.369C54.0166 113.996 53.9512 113.739 53.8206 113.599C53.6899 113.459 53.4706 113.389 53.1626 113.389C52.8172 113.389 52.4626 113.468 52.0986 113.627C51.7346 113.776 51.2959 113.996 50.7826 114.285L50.7126 113.263C51.2166 112.843 51.7299 112.521 52.2526 112.297C52.7752 112.073 53.2886 111.961 53.7926 111.961ZM50.6566 112.129L50.8246 113.473L50.9646 113.669V119.003H49.2706V112.129H50.6566ZM60.2574 110.169V116.931C60.2574 117.22 60.3181 117.426 60.4394 117.547C60.5701 117.668 60.7894 117.729 61.0974 117.729H62.0494L62.2314 118.919C62.0727 118.966 61.8814 119.008 61.6574 119.045C61.4334 119.082 61.2141 119.106 60.9994 119.115C60.7847 119.134 60.6027 119.143 60.4534 119.143C59.8561 119.143 59.3894 118.984 59.0534 118.667C58.7267 118.34 58.5634 117.874 58.5634 117.267V110.169H60.2574ZM62.3014 112.129V113.305H57.3454V112.199L58.6894 112.129H62.3014ZM67.0398 111.961C68.1505 111.961 68.9485 112.157 69.4338 112.549C69.9192 112.932 70.1665 113.501 70.1758 114.257C70.1852 114.882 70.0358 115.358 69.7278 115.685C69.4292 116.002 68.9298 116.161 68.2298 116.161H64.3098V115.111H67.7678C68.0852 115.111 68.2858 115.027 68.3698 114.859C68.4632 114.691 68.5098 114.486 68.5098 114.243C68.5005 113.86 68.3885 113.594 68.1738 113.445C67.9685 113.296 67.6138 113.221 67.1098 113.221C66.6712 113.221 66.3305 113.282 66.0878 113.403C65.8452 113.524 65.6725 113.744 65.5698 114.061C65.4765 114.378 65.4298 114.836 65.4298 115.433C65.4298 116.068 65.4905 116.558 65.6118 116.903C65.7332 117.248 65.9338 117.486 66.2138 117.617C66.4938 117.738 66.8672 117.799 67.3338 117.799C67.6792 117.799 68.0758 117.785 68.5238 117.757C68.9812 117.729 69.4198 117.692 69.8398 117.645L70.0078 118.723C69.7558 118.826 69.4665 118.91 69.1398 118.975C68.8132 119.04 68.4725 119.087 68.1178 119.115C67.7725 119.152 67.4458 119.171 67.1378 119.171C66.2978 119.171 65.6212 119.05 65.1078 118.807C64.6038 118.555 64.2352 118.163 64.0018 117.631C63.7778 117.099 63.6658 116.413 63.6658 115.573C63.6658 114.668 63.7778 113.954 64.0018 113.431C64.2352 112.899 64.5992 112.521 65.0938 112.297C65.5978 112.073 66.2465 111.961 67.0398 111.961ZM73.4345 112.129L73.6585 113.473L73.8125 113.669V119.003H72.1185V112.129H73.4345ZM76.7945 111.961L76.6265 113.529H76.1365C75.7725 113.529 75.4038 113.59 75.0305 113.711C74.6571 113.832 74.1905 114.014 73.6305 114.257L73.5185 113.263C74.0038 112.852 74.4985 112.535 75.0025 112.311C75.5065 112.078 75.9918 111.961 76.4585 111.961H76.7945ZM29.4326 127.175C29.8712 127.175 30.2446 127.189 30.5526 127.217C30.8606 127.236 31.1452 127.268 31.4066 127.315C31.6679 127.352 31.9386 127.408 32.2186 127.483L32.0646 128.785C31.7752 128.766 31.5046 128.752 31.2526 128.743C31.0006 128.724 30.7299 128.71 30.4406 128.701C30.1606 128.692 29.8246 128.687 29.4326 128.687C28.8912 128.687 28.4666 128.794 28.1586 129.009C27.8506 129.224 27.6312 129.583 27.5006 130.087C27.3792 130.591 27.3186 131.286 27.3186 132.173C27.3186 133.06 27.3792 133.755 27.5006 134.259C27.6312 134.763 27.8506 135.122 28.1586 135.337C28.4666 135.552 28.8912 135.659 29.4326 135.659C30.0579 135.659 30.5806 135.65 31.0006 135.631C31.4299 135.603 31.8499 135.566 32.2606 135.519L32.4146 136.807C31.9946 136.938 31.5606 137.031 31.1126 137.087C30.6646 137.143 30.1046 137.171 29.4326 137.171C28.4619 137.171 27.6872 137.012 27.1086 136.695C26.5299 136.368 26.1099 135.841 25.8486 135.113C25.5966 134.385 25.4706 133.405 25.4706 132.173C25.4706 130.941 25.5966 129.961 25.8486 129.233C26.1099 128.505 26.5299 127.982 27.1086 127.665C27.6872 127.338 28.4619 127.175 29.4326 127.175ZM38.7437 129.961C40.0223 129.961 40.6617 130.591 40.6617 131.851V137.003H38.9537V132.369C38.9537 131.996 38.8883 131.739 38.7577 131.599C38.6363 131.459 38.4217 131.389 38.1137 131.389C37.7683 131.389 37.4137 131.464 37.0497 131.613C36.6857 131.762 36.247 131.986 35.7337 132.285L35.6077 131.305C36.1303 130.876 36.653 130.544 37.1757 130.311C37.7077 130.078 38.2303 129.961 38.7437 129.961ZM35.9157 127.203L35.9297 129.723C35.9297 130.068 35.911 130.395 35.8737 130.703C35.8457 131.002 35.8037 131.258 35.7477 131.473L35.9157 131.669V137.003H34.2217V127.203H35.9157ZM46.3985 129.961C46.9492 129.961 47.4112 130.036 47.7845 130.185C48.1672 130.325 48.4565 130.568 48.6525 130.913C48.8485 131.258 48.9465 131.734 48.9465 132.341V137.003H47.6025L47.3645 135.519L47.2385 135.323V132.327C47.2385 131.963 47.1545 131.702 46.9865 131.543C46.8185 131.375 46.4965 131.291 46.0205 131.291C45.6658 131.291 45.2178 131.305 44.6765 131.333C44.1445 131.361 43.6078 131.398 43.0665 131.445L42.9125 130.283C43.2392 130.218 43.6078 130.162 44.0185 130.115C44.4292 130.068 44.8445 130.031 45.2645 130.003C45.6845 129.975 46.0625 129.961 46.3985 129.961ZM48.2185 132.775L48.2045 133.825H45.0545C44.7745 133.834 44.5738 133.909 44.4525 134.049C44.3312 134.189 44.2705 134.38 44.2705 134.623V135.001C44.2705 135.281 44.3452 135.496 44.4945 135.645C44.6438 135.785 44.8772 135.855 45.1945 135.855C45.4465 135.855 45.7265 135.804 46.0345 135.701C46.3425 135.598 46.6458 135.449 46.9445 135.253C47.2525 135.057 47.5278 134.824 47.7705 134.553V135.435C47.6772 135.575 47.5418 135.743 47.3645 135.939C47.1872 136.126 46.9678 136.312 46.7065 136.499C46.4545 136.686 46.1605 136.84 45.8245 136.961C45.4978 137.082 45.1338 137.143 44.7325 137.143C44.3218 137.143 43.9532 137.073 43.6265 136.933C43.2998 136.784 43.0432 136.569 42.8565 136.289C42.6698 136 42.5765 135.645 42.5765 135.225V134.497C42.5765 133.956 42.7538 133.536 43.1085 133.237C43.4725 132.929 43.9672 132.775 44.5925 132.775H48.2185ZM55.7301 129.961C57.0088 129.961 57.6481 130.591 57.6481 131.851V137.003H55.9541V132.369C55.9541 131.996 55.8888 131.739 55.7581 131.599C55.6275 131.459 55.4081 131.389 55.1001 131.389C54.7548 131.389 54.4001 131.468 54.0361 131.627C53.6721 131.776 53.2335 131.996 52.7201 132.285L52.6501 131.263C53.1541 130.843 53.6675 130.521 54.1901 130.297C54.7128 130.073 55.2261 129.961 55.7301 129.961ZM52.5941 130.129L52.7621 131.473L52.9021 131.669V137.003H51.2081V130.129H52.5941ZM62.839 129.961C63.6136 129.961 64.225 130.036 64.673 130.185C65.1303 130.325 65.457 130.558 65.653 130.885C65.849 131.202 65.947 131.622 65.947 132.145C65.947 132.649 65.849 133.064 65.653 133.391C65.457 133.708 65.1303 133.942 64.673 134.091C64.2156 134.24 63.5996 134.315 62.825 134.315C62.0503 134.315 61.4343 134.24 60.977 134.091C60.529 133.942 60.2023 133.708 59.997 133.391C59.801 133.074 59.703 132.658 59.703 132.145C59.703 131.622 59.801 131.202 59.997 130.885C60.2023 130.558 60.5336 130.325 60.991 130.185C61.4483 130.036 62.0643 129.961 62.839 129.961ZM62.825 131.067C62.237 131.067 61.831 131.146 61.607 131.305C61.383 131.464 61.271 131.744 61.271 132.145C61.271 132.528 61.383 132.803 61.607 132.971C61.831 133.13 62.237 133.209 62.825 133.209C63.413 133.209 63.8143 133.13 64.029 132.971C64.253 132.803 64.365 132.528 64.365 132.145C64.365 131.744 64.253 131.464 64.029 131.305C63.8143 131.146 63.413 131.067 62.825 131.067ZM66.745 130.129L66.647 130.913L64.855 131.109L64.351 130.129H66.745ZM60.823 133.895L61.691 134.021C61.551 134.133 61.453 134.278 61.397 134.455C61.3503 134.623 61.3643 134.786 61.439 134.945C61.523 135.094 61.7003 135.188 61.971 135.225L64.519 135.561C65.2096 135.645 65.695 135.85 65.975 136.177C66.255 136.494 66.395 136.956 66.395 137.563C66.395 138.132 66.283 138.576 66.059 138.893C65.835 139.21 65.4663 139.43 64.953 139.551C64.449 139.682 63.7676 139.747 62.909 139.747C62.2276 139.747 61.663 139.71 61.215 139.635C60.767 139.57 60.4076 139.453 60.137 139.285C59.8756 139.126 59.689 138.916 59.577 138.655C59.465 138.403 59.409 138.086 59.409 137.703C59.409 137.404 59.4556 137.152 59.549 136.947C59.6516 136.742 59.815 136.56 60.039 136.401C60.263 136.233 60.5663 136.079 60.949 135.939L61.901 135.533L62.559 135.771L61.943 136.205C61.7283 136.364 61.551 136.508 61.411 136.639C61.2803 136.76 61.1823 136.882 61.117 137.003C61.061 137.134 61.033 137.297 61.033 137.493C61.033 137.754 61.0843 137.955 61.187 138.095C61.299 138.235 61.4903 138.328 61.761 138.375C62.0316 138.431 62.4096 138.459 62.895 138.459C63.3896 138.459 63.7723 138.431 64.043 138.375C64.3136 138.328 64.5003 138.235 64.603 138.095C64.715 137.964 64.771 137.773 64.771 137.521C64.771 137.316 64.7383 137.162 64.673 137.059C64.6076 136.966 64.491 136.891 64.323 136.835C64.155 136.779 63.9216 136.732 63.623 136.695L61.327 136.415C61.0003 136.378 60.739 136.284 60.543 136.135C60.3563 135.976 60.2256 135.79 60.151 135.575C60.0763 135.351 60.053 135.132 60.081 134.917C60.1183 134.693 60.1976 134.488 60.319 134.301C60.4496 134.114 60.6176 133.979 60.823 133.895ZM71.3427 129.961C72.4533 129.961 73.2513 130.157 73.7367 130.549C74.222 130.932 74.4693 131.501 74.4787 132.257C74.488 132.882 74.3387 133.358 74.0307 133.685C73.732 134.002 73.2327 134.161 72.5327 134.161H68.6127V133.111H72.0707C72.388 133.111 72.5887 133.027 72.6727 132.859C72.766 132.691 72.8127 132.486 72.8127 132.243C72.8033 131.86 72.6913 131.594 72.4767 131.445C72.2713 131.296 71.9167 131.221 71.4127 131.221C70.974 131.221 70.6333 131.282 70.3907 131.403C70.148 131.524 69.9753 131.744 69.8727 132.061C69.7793 132.378 69.7327 132.836 69.7327 133.433C69.7327 134.068 69.7933 134.558 69.9147 134.903C70.036 135.248 70.2367 135.486 70.5167 135.617C70.7967 135.738 71.17 135.799 71.6367 135.799C71.982 135.799 72.3787 135.785 72.8267 135.757C73.284 135.729 73.7227 135.692 74.1427 135.645L74.3107 136.723C74.0587 136.826 73.7693 136.91 73.4427 136.975C73.116 137.04 72.7753 137.087 72.4207 137.115C72.0753 137.152 71.7487 137.171 71.4407 137.171C70.6007 137.171 69.924 137.05 69.4107 136.807C68.9067 136.555 68.538 136.163 68.3047 135.631C68.0807 135.099 67.9687 134.413 67.9687 133.573C67.9687 132.668 68.0807 131.954 68.3047 131.431C68.538 130.899 68.902 130.521 69.3967 130.297C69.9007 130.073 70.5493 129.961 71.3427 129.961Z" fill="#723C4D"/>
<path d="M76.0189 81.1166L24.1873 81.1096" stroke="white" stroke-width="6.29" stroke-miterlimit="10"/>
<path d="M76.0189 81.1166L24.1873 81.1096" stroke="#723C4D" stroke-width="3.42" stroke-miterlimit="10"/>
<path d="M18.8874 22.6509L18.8874 18.889L75.4494 18.8821" stroke="white" stroke-width="6.29" stroke-miterlimit="10"/>
<path d="M18.8874 22.6509L18.8874 18.889L75.4494 18.8821" stroke="#723C4D" stroke-width="3.42" stroke-miterlimit="10"/>
<path d="M62.21 86.5132L37.8075 86.5006L13.4667 62.1598L13.4541 37.7573L37.7927 13.4187H62.2092L86.5486 37.7581L86.5486 62.1746L62.21 86.5132Z" fill="#FFEDF3" stroke="#723C4D" stroke-width="7"/>
<path d="M24.1857 81.1085L18.8867 81.1155L18.8867 22.6514" stroke="white" stroke-width="6.29" stroke-miterlimit="10"/>
<path d="M24.1857 81.1085L18.8867 81.1155L18.8867 22.6514" stroke="#723C4D" stroke-width="3.42" stroke-miterlimit="10"/>
<path d="M75.4499 18.8812L81.1138 18.8882L81.1138 81.1142L76.0184 81.1142" stroke="white" stroke-width="6.29" stroke-miterlimit="10"/>
<path d="M75.4499 18.8812L81.1138 18.8882L81.1138 81.1142L76.0184 81.1142" stroke="#723C4D" stroke-width="3.42" stroke-miterlimit="10"/>
<path d="M62.7634 52.6854H64V55.162H61.1505V55.5349C61.1505 58.6561 61.1505 61.7776 61.1505 64.8992C61.1546 65.0995 61.1406 65.2999 61.1086 65.4977C60.9941 66.1094 60.4895 66.5144 59.8674 66.5098C59.5734 66.5152 59.2875 66.4137 59.0627 66.224C58.838 66.0344 58.6898 65.7696 58.6457 65.4788C58.6198 65.319 58.6075 65.1573 58.6091 64.9954C58.6068 61.8543 58.6068 58.7136 58.6091 55.5733V55.1907H58.1274V55.5343C58.1274 58.7037 58.1274 61.873 58.1274 65.0424C58.1294 65.1957 58.1193 65.3489 58.097 65.5006C57.9905 66.1346 57.5174 66.547 56.897 66.5568C56.5981 66.5669 56.3052 66.4704 56.0709 66.2845C55.8366 66.0985 55.6761 65.8353 55.618 65.5418C55.5848 65.3638 55.5693 65.1828 55.5716 65.0017C55.5686 61.8614 55.5686 58.7209 55.5716 55.5802V55.1838H36V52.6922H55.5499V47.1472C55.4399 47.2698 55.358 47.3563 55.2813 47.4468C54.0166 48.9398 52.7519 50.4328 51.4872 51.9259C51.0656 52.4225 50.4917 52.4872 50.0209 52.1046C49.5501 51.722 49.4968 51.1171 49.9149 50.6096C50.6676 49.6932 51.4282 48.7888 52.1854 47.8792C52.8155 47.1237 53.4512 46.3751 54.0698 45.6111C54.4582 45.1316 54.9445 44.8934 55.559 44.8939C57.3633 44.8939 59.1675 44.8819 60.9712 44.9037C61.3038 44.9161 61.6302 44.9972 61.93 45.142C62.4867 45.4014 62.7645 45.8711 62.764 46.4971C62.764 48.4346 62.764 50.3725 62.764 52.3108L62.7634 52.6854Z" fill="#723C4D"/>
<path d="M39.6949 52.1638C40.0758 50.7484 40.4493 49.3618 40.8238 47.9722C40.3656 47.9149 40.3685 47.9149 40.2585 48.3159C39.9298 49.5187 39.5964 50.7215 39.2745 51.9312C39.2252 52.1151 39.1599 52.197 38.9509 52.1907C38.4079 52.1735 37.8626 52.185 37.2812 52.185C37.3082 52.0647 37.3265 51.9679 37.3523 51.8734C37.788 50.2635 38.225 48.6534 38.6634 47.0432C38.9698 45.9188 40.2368 44.9188 41.4012 44.9039C42.4605 44.8901 43.5197 44.8901 44.5789 44.9039C45.878 44.9222 47.027 45.8003 47.4216 47.0546C47.5184 47.3622 47.6049 47.6726 47.708 48.0318C48.1714 47.4802 48.605 46.9659 49.0363 46.4492C49.2654 46.1754 49.5432 46.0099 49.9097 46.0695C50.6377 46.1875 50.9195 46.9401 50.4441 47.5272C49.6635 48.4906 48.8679 49.4425 48.0752 50.3968C48.0016 50.4844 47.9175 50.5627 47.8249 50.6299C47.4239 50.9254 46.9657 50.8664 46.6696 50.4609C46.5507 50.2888 46.4585 50.0997 46.3958 49.9002C46.2188 49.3767 46.0624 48.8457 45.8963 48.3187C45.768 47.9126 45.7669 47.9132 45.2869 47.9671L46.4995 52.1615L39.6949 52.1638Z" fill="#723C4D"/>
<path d="M56.1797 42.2499C56.1789 41.9605 56.2352 41.6738 56.3455 41.4062C56.4558 41.1386 56.6179 40.8954 56.8224 40.6906C57.0269 40.4858 57.2699 40.3234 57.5373 40.2128C57.8048 40.1022 58.0914 40.0454 58.3809 40.0459C58.9606 40.0474 59.5161 40.2788 59.9255 40.6893C60.3349 41.0998 60.5648 41.6559 60.5648 42.2356C60.5662 42.525 60.5103 42.8118 60.4004 43.0795C60.2905 43.3472 60.1287 43.5905 59.9244 43.7955C59.7201 44.0005 59.4773 44.163 59.2099 44.2737C58.9426 44.3845 58.6559 44.4412 58.3665 44.4408C57.7872 44.4366 57.2328 44.2043 56.8234 43.7942C56.4141 43.3841 56.1828 42.8293 56.1797 42.2499Z" fill="#723C4D"/>
<path d="M43.0167 44.4075C42.7273 44.4099 42.4404 44.3546 42.1727 44.2447C41.905 44.1349 41.6619 43.9728 41.4576 43.7679C41.2532 43.563 41.0918 43.3194 40.9828 43.0514C40.8737 42.7834 40.8192 42.4963 40.8224 42.2069C40.8242 41.6277 41.0557 41.0728 41.4661 40.664C41.8765 40.2552 42.4323 40.0259 43.0115 40.0264C43.2984 40.025 43.5828 40.0803 43.8483 40.189C44.1138 40.2977 44.3553 40.4578 44.5589 40.66C44.7624 40.8621 44.9241 41.1025 45.0346 41.3673C45.1452 41.632 45.2024 41.916 45.203 42.2029C45.2076 42.4922 45.1544 42.7794 45.0464 43.0478C44.9384 43.3162 44.7779 43.5603 44.5742 43.7657C44.3705 43.9711 44.1277 44.1337 43.8603 44.2439C43.5928 44.3542 43.306 44.4098 43.0167 44.4075Z" fill="#723C4D"/>
<path d="M53.1647 40.0656C53.1641 40.4672 53.0842 40.8648 52.9297 41.2356C52.7752 41.6063 52.5492 41.943 52.2644 42.2263C51.9797 42.5095 51.6419 42.7339 51.2704 42.8865C50.8989 43.0391 50.5009 43.117 50.0993 43.1156C49.6976 43.113 49.3005 43.0312 48.9305 42.875C48.5605 42.7187 48.2249 42.4911 47.943 42.205C47.661 41.919 47.4382 41.5802 47.2873 41.208C47.1364 40.8358 47.0604 40.4374 47.0636 40.0358C47.0658 39.6341 47.1473 39.2367 47.3034 38.8666C47.4596 38.4964 47.6872 38.1607 47.9733 37.8787C48.2594 37.5966 48.5984 37.3739 48.9708 37.2231C49.3432 37.0723 49.7416 36.9966 50.1434 37.0001C50.9495 37.0092 51.7194 37.3365 52.2854 37.9106C52.8513 38.4848 53.1674 39.2594 53.1647 40.0656ZM52.415 40.0656C52.417 39.4573 52.1786 38.8729 51.7518 38.4395C51.3249 38.0061 50.7442 37.7588 50.1359 37.7516C49.8322 37.7493 49.531 37.807 49.2497 37.9215C48.9684 38.036 48.7125 38.205 48.4967 38.4188C48.2809 38.6326 48.1096 38.8869 47.9925 39.1672C47.8754 39.4475 47.8149 39.7481 47.8145 40.0519C47.8136 40.3552 47.8725 40.6557 47.9879 40.9362C48.1033 41.2167 48.2729 41.4716 48.487 41.6865C48.7011 41.9013 48.9555 42.0718 49.2356 42.1882C49.5157 42.3046 49.816 42.3646 50.1193 42.3647C50.7275 42.3608 51.3096 42.1171 51.7391 41.6865C52.1686 41.2559 52.4109 40.6732 52.4133 40.065L52.415 40.0656Z" fill="#723C4D"/>
<path d="M50.5262 41.7541C49.742 41.8446 49.6928 41.8017 49.6934 41.0725V39.4035C49.9041 39.4035 50.1058 39.3771 50.2936 39.4149C50.3841 39.4327 50.5141 39.5707 50.5164 39.6578C50.5342 40.352 50.5262 41.0473 50.5262 41.7541Z" fill="#723C4D"/>
<path d="M50.5294 38.7629C50.5297 38.873 50.4864 38.9787 50.409 39.0569C50.3317 39.1352 50.2264 39.1796 50.1164 39.1805C50.0595 39.1812 50.003 39.1702 49.9505 39.1483C49.898 39.1263 49.8505 39.0938 49.811 39.0528C49.7715 39.0118 49.7408 38.9632 49.7209 38.9099C49.7009 38.8566 49.692 38.7998 49.6948 38.7429C49.699 38.6329 49.7461 38.529 49.8259 38.4533C49.9058 38.3776 50.0121 38.3362 50.1221 38.3379C50.2322 38.3411 50.3367 38.3874 50.4129 38.467C50.4891 38.5465 50.5309 38.6528 50.5294 38.7629Z" fill="#723C4D"/>
</svg>
