<svg width="100" height="156" viewBox="0 0 100 156" fill="none" xmlns="http://www.w3.org/2000/svg">
<rect width="100" height="156" rx="19" fill="#F9FBFF"/>
<path d="M31.7683 109.175C32.2069 109.175 32.5803 109.189 32.8883 109.217C33.1963 109.235 33.4809 109.268 33.7423 109.315C34.0036 109.352 34.2743 109.408 34.5543 109.483L34.4003 110.785C34.1109 110.766 33.8403 110.752 33.5883 110.743C33.3363 110.724 33.0656 110.71 32.7763 110.701C32.4963 110.691 32.1603 110.687 31.7683 110.687C31.2269 110.687 30.8023 110.794 30.4943 111.009C30.1863 111.223 29.9669 111.583 29.8363 112.087C29.7149 112.591 29.6543 113.286 29.6543 114.173C29.6543 115.059 29.7149 115.755 29.8363 116.259C29.9669 116.763 30.1863 117.122 30.4943 117.337C30.8023 117.551 31.2269 117.659 31.7683 117.659C32.3936 117.659 32.9163 117.649 33.3363 117.631C33.7656 117.603 34.1856 117.565 34.5963 117.519L34.7503 118.807C34.3303 118.937 33.8963 119.031 33.4483 119.087C33.0003 119.143 32.4403 119.171 31.7683 119.171C30.7976 119.171 30.0229 119.012 29.4443 118.695C28.8656 118.368 28.4456 117.841 28.1843 117.113C27.9323 116.385 27.8063 115.405 27.8063 114.173C27.8063 112.941 27.9323 111.961 28.1843 111.233C28.4456 110.505 28.8656 109.982 29.4443 109.665C30.0229 109.338 30.7976 109.175 31.7683 109.175ZM38.4054 111.961C39.2454 111.961 39.9127 112.077 40.4074 112.311C40.9114 112.544 41.2707 112.927 41.4854 113.459C41.7094 113.991 41.8214 114.695 41.8214 115.573C41.8214 116.45 41.7094 117.155 41.4854 117.687C41.2707 118.209 40.9114 118.592 40.4074 118.835C39.9127 119.068 39.2454 119.185 38.4054 119.185C37.584 119.185 36.9214 119.068 36.4174 118.835C35.9227 118.592 35.5634 118.209 35.3394 117.687C35.1154 117.155 35.0034 116.45 35.0034 115.573C35.0034 114.695 35.1154 113.991 35.3394 113.459C35.5634 112.927 35.9227 112.544 36.4174 112.311C36.9214 112.077 37.584 111.961 38.4054 111.961ZM38.4054 113.249C37.9947 113.249 37.668 113.319 37.4254 113.459C37.192 113.589 37.024 113.823 36.9214 114.159C36.8187 114.495 36.7674 114.966 36.7674 115.573C36.7674 116.179 36.8187 116.651 36.9214 116.987C37.024 117.323 37.192 117.556 37.4254 117.687C37.668 117.817 37.9947 117.883 38.4054 117.883C38.8254 117.883 39.1567 117.817 39.3994 117.687C39.642 117.556 39.81 117.323 39.9034 116.987C40.006 116.651 40.0574 116.179 40.0574 115.573C40.0574 114.966 40.006 114.495 39.9034 114.159C39.81 113.823 39.642 113.589 39.3994 113.459C39.1567 113.319 38.8254 113.249 38.4054 113.249ZM44.2305 112.129V116.777C44.2211 117.122 44.2865 117.369 44.4265 117.519C44.5758 117.668 44.8138 117.743 45.1405 117.743C45.4671 117.743 45.7938 117.673 46.1205 117.533C46.4471 117.393 46.8438 117.183 47.3105 116.903L47.4785 117.911C46.9558 118.331 46.4518 118.648 45.9665 118.863C45.4811 119.077 44.9771 119.185 44.4545 119.185C43.1758 119.185 42.5365 118.555 42.5365 117.295V112.129H44.2305ZM48.8365 112.129V119.003H47.4925L47.3105 117.673L47.1425 117.477V112.129H48.8365ZM54.4226 111.961C55.7012 111.961 56.3406 112.591 56.3406 113.851V119.003H54.6466V114.369C54.6466 113.995 54.5812 113.739 54.4506 113.599C54.3199 113.459 54.1006 113.389 53.7926 113.389C53.4472 113.389 53.0926 113.468 52.7286 113.627C52.3646 113.776 51.9259 113.995 51.4126 114.285L51.3426 113.263C51.8466 112.843 52.3599 112.521 52.8826 112.297C53.4052 112.073 53.9186 111.961 54.4226 111.961ZM51.2866 112.129L51.4546 113.473L51.5946 113.669V119.003H49.9006V112.129H51.2866ZM59.6274 110.169V116.931C59.6274 117.22 59.6881 117.425 59.8094 117.547C59.9401 117.668 60.1594 117.729 60.4674 117.729H61.4194L61.6014 118.919C61.4427 118.965 61.2514 119.007 61.0274 119.045C60.8034 119.082 60.5841 119.105 60.3694 119.115C60.1547 119.133 59.9727 119.143 59.8234 119.143C59.2261 119.143 58.7594 118.984 58.4234 118.667C58.0967 118.34 57.9334 117.873 57.9334 117.267V110.169H59.6274ZM61.6714 112.129V113.305H56.7154V112.199L58.0594 112.129H61.6714ZM65.1498 111.961C66.2605 111.961 67.0585 112.157 67.5438 112.549C68.0292 112.931 68.2765 113.501 68.2858 114.257C68.2952 114.882 68.1458 115.358 67.8378 115.685C67.5392 116.002 67.0398 116.161 66.3398 116.161H62.4198V115.111H65.8778C66.1952 115.111 66.3958 115.027 66.4798 114.859C66.5732 114.691 66.6198 114.485 66.6198 114.243C66.6105 113.86 66.4985 113.594 66.2838 113.445C66.0785 113.295 65.7238 113.221 65.2198 113.221C64.7812 113.221 64.4405 113.281 64.1978 113.403C63.9552 113.524 63.7825 113.743 63.6798 114.061C63.5865 114.378 63.5398 114.835 63.5398 115.433C63.5398 116.067 63.6005 116.557 63.7218 116.903C63.8432 117.248 64.0438 117.486 64.3238 117.617C64.6038 117.738 64.9772 117.799 65.4438 117.799C65.7892 117.799 66.1858 117.785 66.6338 117.757C67.0912 117.729 67.5298 117.691 67.9498 117.645L68.1178 118.723C67.8658 118.825 67.5765 118.909 67.2498 118.975C66.9232 119.04 66.5825 119.087 66.2278 119.115C65.8825 119.152 65.5558 119.171 65.2478 119.171C64.4078 119.171 63.7312 119.049 63.2178 118.807C62.7138 118.555 62.3452 118.163 62.1118 117.631C61.8878 117.099 61.7758 116.413 61.7758 115.573C61.7758 114.667 61.8878 113.953 62.1118 113.431C62.3452 112.899 62.7092 112.521 63.2038 112.297C63.7078 112.073 64.3565 111.961 65.1498 111.961ZM70.2844 112.129L70.5084 113.473L70.6624 113.669V119.003H68.9684V112.129H70.2844ZM73.6444 111.961L73.4764 113.529H72.9864C72.6224 113.529 72.2538 113.589 71.8804 113.711C71.5071 113.832 71.0404 114.014 70.4804 114.257L70.3684 113.263C70.8538 112.852 71.3484 112.535 71.8524 112.311C72.3564 112.077 72.8418 111.961 73.3084 111.961H73.6444ZM16.7942 127.161C17.2702 127.17 17.7695 127.198 18.2922 127.245C18.8242 127.291 19.3422 127.38 19.8462 127.511L19.7342 128.701C19.3328 128.691 18.8662 128.682 18.3342 128.673C17.8115 128.654 17.3075 128.645 16.8222 128.645C16.5235 128.645 16.2668 128.654 16.0522 128.673C15.8468 128.691 15.6788 128.738 15.5482 128.813C15.4175 128.887 15.3195 129.004 15.2542 129.163C15.1982 129.312 15.1702 129.522 15.1702 129.793C15.1702 130.213 15.2542 130.511 15.4222 130.689C15.5995 130.866 15.8842 131.006 16.2762 131.109L18.1802 131.669C18.9455 131.902 19.4728 132.243 19.7622 132.691C20.0515 133.129 20.1962 133.717 20.1962 134.455C20.1962 135.005 20.1308 135.458 20.0002 135.813C19.8695 136.167 19.6688 136.443 19.3982 136.639C19.1275 136.835 18.7728 136.975 18.3342 137.059C17.8955 137.143 17.3682 137.185 16.7522 137.185C16.4348 137.185 15.9962 137.166 15.4362 137.129C14.8855 137.091 14.2555 136.998 13.5462 136.849L13.6582 135.589C14.2088 135.607 14.6708 135.626 15.0442 135.645C15.4175 135.654 15.7395 135.659 16.0102 135.659C16.2808 135.659 16.5328 135.659 16.7662 135.659C17.1955 135.659 17.5315 135.631 17.7742 135.575C18.0168 135.519 18.1848 135.402 18.2782 135.225C18.3808 135.047 18.4322 134.791 18.4322 134.455C18.4322 134.165 18.3948 133.941 18.3202 133.783C18.2548 133.615 18.1428 133.484 17.9842 133.391C17.8255 133.297 17.6202 133.218 17.3682 133.153L15.3942 132.551C14.6662 132.327 14.1528 131.995 13.8542 131.557C13.5648 131.118 13.4202 130.53 13.4202 129.793C13.4202 129.242 13.4855 128.794 13.6162 128.449C13.7468 128.094 13.9475 127.828 14.2182 127.651C14.4888 127.464 14.8342 127.338 15.2542 127.273C15.6835 127.198 16.1968 127.161 16.7942 127.161ZM23.1262 128.169V134.931C23.1262 135.22 23.1869 135.425 23.3082 135.547C23.4389 135.668 23.6582 135.729 23.9662 135.729H24.9182L25.1002 136.919C24.9415 136.965 24.7502 137.007 24.5262 137.045C24.3022 137.082 24.0829 137.105 23.8682 137.115C23.6535 137.133 23.4715 137.143 23.3222 137.143C22.7249 137.143 22.2582 136.984 21.9222 136.667C21.5955 136.34 21.4322 135.873 21.4322 135.267V128.169H23.1262ZM25.1702 130.129V131.305H20.2142V130.199L21.5582 130.129H25.1702ZM28.6907 129.961C29.5307 129.961 30.198 130.077 30.6927 130.311C31.1967 130.544 31.556 130.927 31.7707 131.459C31.9947 131.991 32.1067 132.695 32.1067 133.573C32.1067 134.45 31.9947 135.155 31.7707 135.687C31.556 136.209 31.1967 136.592 30.6927 136.835C30.198 137.068 29.5307 137.185 28.6907 137.185C27.8693 137.185 27.2067 137.068 26.7027 136.835C26.208 136.592 25.8487 136.209 25.6247 135.687C25.4007 135.155 25.2887 134.45 25.2887 133.573C25.2887 132.695 25.4007 131.991 25.6247 131.459C25.8487 130.927 26.208 130.544 26.7027 130.311C27.2067 130.077 27.8693 129.961 28.6907 129.961ZM28.6907 131.249C28.28 131.249 27.9533 131.319 27.7107 131.459C27.4773 131.589 27.3093 131.823 27.2067 132.159C27.104 132.495 27.0527 132.966 27.0527 133.573C27.0527 134.179 27.104 134.651 27.2067 134.987C27.3093 135.323 27.4773 135.556 27.7107 135.687C27.9533 135.817 28.28 135.883 28.6907 135.883C29.1107 135.883 29.442 135.817 29.6847 135.687C29.9273 135.556 30.0953 135.323 30.1887 134.987C30.2913 134.651 30.3427 134.179 30.3427 133.573C30.3427 132.966 30.2913 132.495 30.1887 132.159C30.0953 131.823 29.9273 131.589 29.6847 131.459C29.442 131.319 29.1107 131.249 28.6907 131.249ZM35.9438 129.961C36.1771 129.961 36.4338 129.97 36.7138 129.989C36.9938 130.007 37.2784 130.045 37.5678 130.101C37.8571 130.157 38.1184 130.236 38.3518 130.339L38.1558 131.403C37.8104 131.384 37.4651 131.37 37.1198 131.361C36.7838 131.351 36.4898 131.347 36.2378 131.347C35.7618 131.347 35.3838 131.412 35.1038 131.543C34.8331 131.664 34.6371 131.888 34.5158 132.215C34.3944 132.532 34.3338 132.98 34.3338 133.559C34.3338 134.137 34.3944 134.59 34.5158 134.917C34.6371 135.234 34.8331 135.458 35.1038 135.589C35.3838 135.719 35.7618 135.785 36.2378 135.785C36.3778 135.785 36.5598 135.78 36.7838 135.771C37.0171 135.761 37.2644 135.747 37.5258 135.729C37.7964 135.71 38.0578 135.687 38.3098 135.659L38.4778 136.751C38.1138 136.9 37.7078 137.007 37.2598 137.073C36.8118 137.138 36.3684 137.171 35.9298 137.171C35.1084 137.171 34.4504 137.054 33.9558 136.821C33.4611 136.587 33.1018 136.209 32.8778 135.687C32.6631 135.155 32.5558 134.445 32.5558 133.559C32.5558 132.672 32.6678 131.967 32.8918 131.445C33.1158 130.913 33.4751 130.535 33.9698 130.311C34.4644 130.077 35.1224 129.961 35.9438 129.961ZM45.2398 130.129L43.2798 132.579C43.2051 132.691 43.1118 132.803 42.9998 132.915C42.8878 133.017 42.7898 133.097 42.7058 133.153V133.181C42.7898 133.237 42.8878 133.33 42.9998 133.461C43.1118 133.582 43.2051 133.708 43.2798 133.839L45.4638 137.003H43.5458L41.0398 133.111L43.3218 130.129H45.2398ZM40.7178 127.203L40.7318 131.389C40.7318 131.697 40.7131 131.991 40.6758 132.271C40.6478 132.551 40.6058 132.835 40.5498 133.125C40.5964 133.395 40.6338 133.675 40.6618 133.965C40.6991 134.254 40.7178 134.525 40.7178 134.777V137.003H39.0238V127.203H40.7178ZM41.7678 132.607V133.699H40.1718V132.607H41.7678ZM51.5258 127.217C52.3284 127.217 52.9771 127.301 53.4718 127.469C53.9758 127.637 54.3398 127.926 54.5638 128.337C54.7971 128.738 54.9138 129.307 54.9138 130.045C54.9138 130.53 54.8531 130.945 54.7318 131.291C54.6198 131.627 54.4284 131.897 54.1578 132.103C53.8964 132.299 53.5418 132.425 53.0938 132.481V132.551C53.2524 132.588 53.4158 132.663 53.5838 132.775C53.7611 132.877 53.9198 133.027 54.0598 133.223C54.2091 133.419 54.3211 133.671 54.3958 133.979L55.2778 137.003H53.4298L52.6318 134.021C52.5291 133.685 52.3891 133.451 52.2118 133.321C52.0344 133.181 51.7918 133.111 51.4838 133.111C50.8771 133.111 50.3591 133.111 49.9298 133.111C49.5004 133.101 49.1411 133.092 48.8518 133.083C48.5718 133.073 48.3244 133.069 48.1098 133.069L48.1518 131.739H51.4838C51.9038 131.729 52.2351 131.683 52.4778 131.599C52.7204 131.505 52.8931 131.347 52.9958 131.123C53.0984 130.889 53.1498 130.563 53.1498 130.143C53.1498 129.732 53.0984 129.415 52.9958 129.191C52.8931 128.967 52.7204 128.813 52.4778 128.729C52.2351 128.635 51.9038 128.589 51.4838 128.589C50.6624 128.589 49.9578 128.593 49.3698 128.603C48.7818 128.612 48.3804 128.621 48.1658 128.631L47.9698 127.343C48.3431 127.305 48.6931 127.277 49.0198 127.259C49.3558 127.24 49.7198 127.231 50.1118 127.231C50.5038 127.221 50.9751 127.217 51.5258 127.217ZM49.6918 127.343V137.003H47.9698V127.343H49.6918ZM58.8881 129.961C59.9988 129.961 60.7968 130.157 61.2821 130.549C61.7675 130.931 62.0148 131.501 62.0241 132.257C62.0335 132.882 61.8841 133.358 61.5761 133.685C61.2775 134.002 60.7781 134.161 60.0781 134.161H56.1581V133.111H59.6161C59.9335 133.111 60.1341 133.027 60.2181 132.859C60.3115 132.691 60.3581 132.485 60.3581 132.243C60.3488 131.86 60.2368 131.594 60.0221 131.445C59.8168 131.295 59.4621 131.221 58.9581 131.221C58.5195 131.221 58.1788 131.281 57.9361 131.403C57.6935 131.524 57.5208 131.743 57.4181 132.061C57.3248 132.378 57.2781 132.835 57.2781 133.433C57.2781 134.067 57.3388 134.557 57.4601 134.903C57.5815 135.248 57.7821 135.486 58.0621 135.617C58.3421 135.738 58.7155 135.799 59.1821 135.799C59.5275 135.799 59.9241 135.785 60.3721 135.757C60.8295 135.729 61.2681 135.691 61.6881 135.645L61.8561 136.723C61.6041 136.825 61.3148 136.909 60.9881 136.975C60.6615 137.04 60.3208 137.087 59.9661 137.115C59.6208 137.152 59.2941 137.171 58.9861 137.171C58.1461 137.171 57.4695 137.049 56.9561 136.807C56.4521 136.555 56.0835 136.163 55.8501 135.631C55.6261 135.099 55.5141 134.413 55.5141 133.573C55.5141 132.667 55.6261 131.953 55.8501 131.431C56.0835 130.899 56.4475 130.521 56.9421 130.297C57.4461 130.073 58.0948 129.961 58.8881 129.961ZM66.9767 129.961C67.8261 129.961 68.4374 130.273 68.8107 130.899C69.1841 131.524 69.3707 132.429 69.3707 133.615C69.3707 134.52 69.2727 135.234 69.0767 135.757C68.8901 136.27 68.6054 136.639 68.2227 136.863C67.8401 137.077 67.3547 137.185 66.7667 137.185C66.3001 137.185 65.8427 137.119 65.3947 136.989C64.9561 136.849 64.5501 136.634 64.1767 136.345L64.2887 135.505C64.6527 135.607 64.9794 135.696 65.2687 135.771C65.5581 135.845 65.8754 135.883 66.2207 135.883C66.5661 135.883 66.8367 135.827 67.0327 135.715C67.2381 135.593 67.3874 135.369 67.4807 135.043C67.5741 134.716 67.6207 134.245 67.6207 133.629C67.6207 133.022 67.5787 132.551 67.4947 132.215C67.4107 131.879 67.2707 131.645 67.0747 131.515C66.8881 131.375 66.6407 131.305 66.3327 131.305C65.9967 131.305 65.6794 131.379 65.3807 131.529C65.0821 131.669 64.7367 131.879 64.3447 132.159L64.1487 131.263C64.3634 131.011 64.6201 130.787 64.9187 130.591C65.2267 130.395 65.5581 130.241 65.9127 130.129C66.2674 130.017 66.6221 129.961 66.9767 129.961ZM64.0787 130.129L64.2467 131.459L64.4007 131.655V136.093L64.3307 136.261C64.3587 136.531 64.3774 136.802 64.3867 137.073C64.3961 137.353 64.4007 137.637 64.4007 137.927V139.733H62.7067V130.129H64.0787ZM73.2599 129.961C74.0999 129.961 74.7672 130.077 75.2619 130.311C75.7659 130.544 76.1252 130.927 76.3399 131.459C76.5639 131.991 76.6759 132.695 76.6759 133.573C76.6759 134.45 76.5639 135.155 76.3399 135.687C76.1252 136.209 75.7659 136.592 75.2619 136.835C74.7672 137.068 74.0999 137.185 73.2599 137.185C72.4386 137.185 71.7759 137.068 71.2719 136.835C70.7772 136.592 70.4179 136.209 70.1939 135.687C69.9699 135.155 69.8579 134.45 69.8579 133.573C69.8579 132.695 69.9699 131.991 70.1939 131.459C70.4179 130.927 70.7772 130.544 71.2719 130.311C71.7759 130.077 72.4386 129.961 73.2599 129.961ZM73.2599 131.249C72.8492 131.249 72.5226 131.319 72.2799 131.459C72.0466 131.589 71.8786 131.823 71.7759 132.159C71.6732 132.495 71.6219 132.966 71.6219 133.573C71.6219 134.179 71.6732 134.651 71.7759 134.987C71.8786 135.323 72.0466 135.556 72.2799 135.687C72.5226 135.817 72.8492 135.883 73.2599 135.883C73.6799 135.883 74.0112 135.817 74.2539 135.687C74.4966 135.556 74.6646 135.323 74.7579 134.987C74.8606 134.651 74.9119 134.179 74.9119 133.573C74.9119 132.966 74.8606 132.495 74.7579 132.159C74.6646 131.823 74.4966 131.589 74.2539 131.459C74.0112 131.319 73.6799 131.249 73.2599 131.249ZM78.749 130.129L78.973 131.473L79.127 131.669V137.003H77.433V130.129H78.749ZM82.109 129.961L81.941 131.529H81.451C81.087 131.529 80.7183 131.589 80.345 131.711C79.9716 131.832 79.505 132.014 78.945 132.257L78.833 131.263C79.3183 130.852 79.813 130.535 80.317 130.311C80.821 130.077 81.3063 129.961 81.773 129.961H82.109ZM84.6852 128.169V134.931C84.6852 135.22 84.7459 135.425 84.8672 135.547C84.9979 135.668 85.2172 135.729 85.5252 135.729H86.4772L86.6592 136.919C86.5005 136.965 86.3092 137.007 86.0852 137.045C85.8612 137.082 85.6419 137.105 85.4272 137.115C85.2125 137.133 85.0305 137.143 84.8812 137.143C84.2839 137.143 83.8172 136.984 83.4812 136.667C83.1545 136.34 82.9912 135.873 82.9912 135.267V128.169H84.6852ZM86.7292 130.129V131.305H81.7732V130.199L83.1172 130.129H86.7292Z" fill="#AA564A"/>
<path d="M76.0185 81.1159L24.1868 81.1089" stroke="white" stroke-width="6.29" stroke-miterlimit="10"/>
<path d="M76.0185 81.1159L24.1868 81.1089" stroke="#AA564A" stroke-width="3.42" stroke-miterlimit="10"/>
<path d="M18.8864 22.6508L18.8864 18.8889L75.4485 18.8819" stroke="white" stroke-width="6.29" stroke-miterlimit="10"/>
<path d="M18.8864 22.6508L18.8864 18.8889L75.4485 18.8819" stroke="#AA564A" stroke-width="3.42" stroke-miterlimit="10"/>
<path d="M62.2095 86.5128L37.807 86.5003L13.4662 62.1594L13.4537 37.757L37.7922 13.4184H62.2087L86.5481 37.7577V62.1742L62.2095 86.5128Z" fill="#FFF3F1" stroke="#AA564A" stroke-width="7"/>
<path d="M24.1852 81.108L18.8862 81.115L18.8862 22.6509" stroke="white" stroke-width="6.29" stroke-miterlimit="10"/>
<path d="M24.1852 81.108L18.8862 81.115L18.8862 22.6509" stroke="#AA564A" stroke-width="3.42" stroke-miterlimit="10"/>
<path d="M75.4489 18.8803L81.1128 18.8874L81.1129 81.1134L76.0174 81.1134" stroke="white" stroke-width="6.29" stroke-miterlimit="10"/>
<path d="M75.4489 18.8803L81.1128 18.8874L81.1129 81.1134L76.0174 81.1134" stroke="#AA564A" stroke-width="3.42" stroke-miterlimit="10"/>
<path d="M55.5609 62.9991C53.5892 62.9925 51.7008 62.2039 50.3103 60.8065C48.9198 59.4091 48.1409 57.5171 48.1445 55.546C48.1556 53.5803 48.9444 51.6988 50.3387 50.3127C51.733 48.9266 53.6194 48.1485 55.5857 48.1486C57.5571 48.1551 59.4454 48.9436 60.8359 50.3407C62.2264 51.7379 63.0054 53.6297 63.002 55.6006C62.9912 57.5665 62.2025 59.4483 60.8082 60.8346C59.4139 62.2209 57.5273 62.9991 55.5609 62.9991ZM55.5946 50.0054C55.1402 50.0054 54.6858 50.0004 54.2314 50.0054C53.8593 50.0113 53.6659 50.2514 53.7353 50.6184C54.1897 53.0366 54.6454 55.4548 55.1025 57.873C55.164 58.1983 55.3287 58.359 55.5807 58.3551C55.8327 58.3511 55.9855 58.1934 56.048 57.8591C56.5037 55.4508 56.9578 53.0422 57.4102 50.6332C57.4817 50.2484 57.2922 50.0113 56.9003 50.0064C56.4647 49.9994 56.0302 50.0044 55.5946 50.0044V50.0054ZM55.5589 61.1432C55.804 61.1462 56.0405 61.0529 56.2175 60.8834C56.3945 60.7138 56.4979 60.4816 56.5054 60.2367C56.5097 59.9913 56.4174 59.754 56.2483 59.5761C56.0792 59.3981 55.8469 59.2937 55.6015 59.2854C55.4781 59.282 55.3552 59.3032 55.24 59.3477C55.1248 59.3923 55.0196 59.4593 54.9306 59.5448C54.8416 59.6304 54.7705 59.7329 54.7215 59.8462C54.6725 59.9595 54.6465 60.0815 54.6451 60.2049C54.6445 60.4496 54.7399 60.6848 54.9107 60.86C55.0815 61.0352 55.3142 61.1365 55.5589 61.1423V61.1432Z" fill="#AA564A"/>
<path d="M51.5448 48.2568C50.1744 49.0241 49.0416 50.1538 48.2707 51.5221C48.1953 51.4576 48.1299 51.409 48.0723 51.3525C47.4899 50.7722 46.8817 50.2118 46.3331 49.6048C45.4401 48.6228 44.3696 48.3014 43.059 48.5077C41.7374 48.717 40.4437 48.5722 39.3235 47.747C38.2232 46.9366 37.363 45.9437 37.0892 44.5471C36.8979 43.6021 37.0162 42.6206 37.4265 41.748C37.625 41.3136 37.9564 41.2521 38.2957 41.5884C39.0309 42.3174 39.764 43.0464 40.4883 43.7854C40.5387 43.8476 40.6077 43.892 40.6852 43.9122C40.7627 43.9323 40.8446 43.9272 40.9189 43.8975C42.4574 43.4551 43.4476 42.4658 43.8894 40.9297C43.9194 40.8556 43.925 40.7738 43.9053 40.6962C43.8857 40.6186 43.8419 40.5493 43.7803 40.4983C43.054 39.7891 42.3397 39.068 41.6223 38.3489C41.2255 37.9521 41.281 37.6278 41.791 37.4155C43.5372 36.6904 45.1643 36.9076 46.6178 38.1197C47.6159 38.9519 48.3819 39.9636 48.5029 41.3027C48.5563 42.0144 48.5407 42.7295 48.4563 43.4382C48.3511 44.448 48.6041 45.3139 49.3135 46.037C50.0437 46.7739 50.7809 47.498 51.5448 48.2568Z" fill="#AA564A"/>
<path d="M54.7437 50.9478H56.4065C56.1396 52.3711 55.8757 53.7766 55.6128 55.1811H55.5423C55.2745 53.7766 55.0105 52.3721 54.7437 50.9478Z" fill="#AA564A"/>
</svg>
