<svg width="100" height="156" viewBox="0 0 100 156" fill="none" xmlns="http://www.w3.org/2000/svg">
    <rect width="100" height="156" rx="19" fill="#F9FBFF"/>
    <path d="M18.3833 109.217C19.1113 109.217 19.7273 109.301 20.2313 109.469C20.7446 109.627 21.1553 109.898 21.4633 110.281C21.7806 110.654 22.0093 111.163 22.1493 111.807C22.2893 112.441 22.3593 113.23 22.3593 114.173C22.3593 115.115 22.2893 115.909 22.1493 116.553C22.0093 117.187 21.7806 117.696 21.4633 118.079C21.1553 118.452 20.7446 118.723 20.2313 118.891C19.7273 119.049 19.1113 119.129 18.3833 119.129C17.6833 119.129 17.0346 119.115 16.4373 119.087C15.8399 119.068 15.2753 119.04 14.7433 119.003L15.4713 117.659C15.8446 117.677 16.2739 117.696 16.7593 117.715C17.2446 117.724 17.7859 117.729 18.3833 117.729C18.9246 117.729 19.3493 117.626 19.6573 117.421C19.9746 117.206 20.1986 116.842 20.3293 116.329C20.4599 115.806 20.5253 115.087 20.5253 114.173C20.5253 113.258 20.4599 112.544 20.3293 112.031C20.1986 111.508 19.9746 111.139 19.6573 110.925C19.3493 110.71 18.9246 110.603 18.3833 110.603C17.8046 110.603 17.2866 110.607 16.8293 110.617C16.3813 110.626 15.9426 110.631 15.5133 110.631L14.7433 109.343C15.2753 109.305 15.8353 109.277 16.4233 109.259C17.0206 109.231 17.6739 109.217 18.3833 109.217ZM16.4933 109.343V119.003H14.7433V109.343H16.4933ZM27.5225 111.961C28.0732 111.961 28.5352 112.035 28.9085 112.185C29.2912 112.325 29.5805 112.567 29.7765 112.913C29.9725 113.258 30.0705 113.734 30.0705 114.341V119.003H28.7265L28.4885 117.519L28.3625 117.323V114.327C28.3625 113.963 28.2785 113.701 28.1105 113.543C27.9425 113.375 27.6205 113.291 27.1445 113.291C26.7899 113.291 26.3419 113.305 25.8005 113.333C25.2685 113.361 24.7319 113.398 24.1905 113.445L24.0365 112.283C24.3632 112.217 24.7319 112.161 25.1425 112.115C25.5532 112.068 25.9685 112.031 26.3885 112.003C26.8085 111.975 27.1865 111.961 27.5225 111.961ZM29.3425 114.775L29.3285 115.825H26.1785C25.8985 115.834 25.6979 115.909 25.5765 116.049C25.4552 116.189 25.3945 116.38 25.3945 116.623V117.001C25.3945 117.281 25.4692 117.495 25.6185 117.645C25.7679 117.785 26.0012 117.855 26.3185 117.855C26.5705 117.855 26.8505 117.803 27.1585 117.701C27.4665 117.598 27.7699 117.449 28.0685 117.253C28.3765 117.057 28.6519 116.823 28.8945 116.553V117.435C28.8012 117.575 28.6659 117.743 28.4885 117.939C28.3112 118.125 28.0919 118.312 27.8305 118.499C27.5785 118.685 27.2845 118.839 26.9485 118.961C26.6219 119.082 26.2579 119.143 25.8565 119.143C25.4459 119.143 25.0772 119.073 24.7505 118.933C24.4239 118.783 24.1672 118.569 23.9805 118.289C23.7939 117.999 23.7005 117.645 23.7005 117.225V116.497C23.7005 115.955 23.8779 115.535 24.2325 115.237C24.5965 114.929 25.0912 114.775 25.7165 114.775H29.3425ZM34.1802 110.169V116.931C34.1802 117.22 34.2409 117.425 34.3622 117.547C34.4929 117.668 34.7122 117.729 35.0202 117.729H35.9722L36.1542 118.919C35.9955 118.965 35.8042 119.007 35.5802 119.045C35.3562 119.082 35.1369 119.105 34.9222 119.115C34.7075 119.133 34.5255 119.143 34.3762 119.143C33.7789 119.143 33.3122 118.984 32.9762 118.667C32.6495 118.34 32.4862 117.873 32.4862 117.267V110.169H34.1802ZM36.2242 112.129V113.305H31.2682V112.199L32.6122 112.129H36.2242ZM40.9347 111.961C41.4853 111.961 41.9473 112.035 42.3207 112.185C42.7033 112.325 42.9927 112.567 43.1887 112.913C43.3847 113.258 43.4827 113.734 43.4827 114.341V119.003H42.1387L41.9007 117.519L41.7747 117.323V114.327C41.7747 113.963 41.6907 113.701 41.5227 113.543C41.3547 113.375 41.0327 113.291 40.5567 113.291C40.202 113.291 39.754 113.305 39.2127 113.333C38.6807 113.361 38.144 113.398 37.6027 113.445L37.4487 112.283C37.7753 112.217 38.144 112.161 38.5547 112.115C38.9653 112.068 39.3807 112.031 39.8007 112.003C40.2207 111.975 40.5987 111.961 40.9347 111.961ZM42.7547 114.775L42.7407 115.825H39.5907C39.3107 115.834 39.11 115.909 38.9887 116.049C38.8673 116.189 38.8067 116.38 38.8067 116.623V117.001C38.8067 117.281 38.8813 117.495 39.0307 117.645C39.18 117.785 39.4133 117.855 39.7307 117.855C39.9827 117.855 40.2627 117.803 40.5707 117.701C40.8787 117.598 41.182 117.449 41.4807 117.253C41.7887 117.057 42.064 116.823 42.3067 116.553V117.435C42.2133 117.575 42.078 117.743 41.9007 117.939C41.7233 118.125 41.504 118.312 41.2427 118.499C40.9907 118.685 40.6967 118.839 40.3607 118.961C40.034 119.082 39.67 119.143 39.2687 119.143C38.858 119.143 38.4893 119.073 38.1627 118.933C37.836 118.783 37.5793 118.569 37.3927 118.289C37.206 117.999 37.1127 117.645 37.1127 117.225V116.497C37.1127 115.955 37.29 115.535 37.6447 115.237C38.0087 114.929 38.5033 114.775 39.1287 114.775H42.7547ZM52.1388 109.175C52.5775 109.175 52.9508 109.189 53.2588 109.217C53.5668 109.235 53.8515 109.268 54.1128 109.315C54.3741 109.352 54.6448 109.408 54.9248 109.483L54.7708 110.785C54.4815 110.766 54.2108 110.752 53.9588 110.743C53.7068 110.724 53.4361 110.71 53.1468 110.701C52.8668 110.691 52.5308 110.687 52.1388 110.687C51.5975 110.687 51.1728 110.794 50.8648 111.009C50.5568 111.223 50.3375 111.583 50.2068 112.087C50.0855 112.591 50.0248 113.286 50.0248 114.173C50.0248 115.059 50.0855 115.755 50.2068 116.259C50.3375 116.763 50.5568 117.122 50.8648 117.337C51.1728 117.551 51.5975 117.659 52.1388 117.659C52.7641 117.659 53.2868 117.649 53.7068 117.631C54.1361 117.603 54.5561 117.565 54.9668 117.519L55.1208 118.807C54.7008 118.937 54.2668 119.031 53.8188 119.087C53.3708 119.143 52.8108 119.171 52.1388 119.171C51.1681 119.171 50.3935 119.012 49.8148 118.695C49.2361 118.368 48.8161 117.841 48.5548 117.113C48.3028 116.385 48.1768 115.405 48.1768 114.173C48.1768 112.941 48.3028 111.961 48.5548 111.233C48.8161 110.505 49.2361 109.982 49.8148 109.665C50.3935 109.338 51.1681 109.175 52.1388 109.175ZM61.0299 111.961C62.3086 111.961 62.9479 112.591 62.9479 113.851V119.003H61.2399V114.369C61.2399 113.995 61.1746 113.739 61.0439 113.599C60.9226 113.459 60.7079 113.389 60.3999 113.389C60.0546 113.389 59.6999 113.463 59.3359 113.613C58.9719 113.762 58.5332 113.986 58.0199 114.285L57.8939 113.305C58.4166 112.875 58.9392 112.544 59.4619 112.311C59.9939 112.077 60.5166 111.961 61.0299 111.961ZM58.2019 109.203L58.2159 111.723C58.2159 112.068 58.1972 112.395 58.1599 112.703C58.1319 113.001 58.0899 113.258 58.0339 113.473L58.2019 113.669V119.003H56.5079V109.203H58.2019ZM67.8727 111.961C68.9834 111.961 69.7814 112.157 70.2667 112.549C70.7521 112.931 70.9994 113.501 71.0087 114.257C71.0181 114.882 70.8687 115.358 70.5607 115.685C70.2621 116.002 69.7627 116.161 69.0627 116.161H65.1427V115.111H68.6007C68.9181 115.111 69.1187 115.027 69.2027 114.859C69.2961 114.691 69.3427 114.485 69.3427 114.243C69.3334 113.86 69.2214 113.594 69.0067 113.445C68.8014 113.295 68.4467 113.221 67.9427 113.221C67.5041 113.221 67.1634 113.281 66.9207 113.403C66.6781 113.524 66.5054 113.743 66.4027 114.061C66.3094 114.378 66.2627 114.835 66.2627 115.433C66.2627 116.067 66.3234 116.557 66.4447 116.903C66.5661 117.248 66.7667 117.486 67.0467 117.617C67.3267 117.738 67.7001 117.799 68.1667 117.799C68.5121 117.799 68.9087 117.785 69.3567 117.757C69.8141 117.729 70.2527 117.691 70.6727 117.645L70.8407 118.723C70.5887 118.825 70.2994 118.909 69.9727 118.975C69.6461 119.04 69.3054 119.087 68.9507 119.115C68.6054 119.152 68.2787 119.171 67.9707 119.171C67.1307 119.171 66.4541 119.049 65.9407 118.807C65.4367 118.555 65.0681 118.163 64.8347 117.631C64.6107 117.099 64.4987 116.413 64.4987 115.573C64.4987 114.667 64.6107 113.953 64.8347 113.431C65.0681 112.899 65.4321 112.521 65.9267 112.297C66.4307 112.073 67.0794 111.961 67.8727 111.961ZM75.6113 111.961C75.8447 111.961 76.1013 111.97 76.3813 111.989C76.6613 112.007 76.946 112.045 77.2353 112.101C77.5247 112.157 77.786 112.236 78.0193 112.339L77.8233 113.403C77.478 113.384 77.1327 113.37 76.7873 113.361C76.4513 113.351 76.1573 113.347 75.9053 113.347C75.4293 113.347 75.0513 113.412 74.7713 113.543C74.5007 113.664 74.3047 113.888 74.1833 114.215C74.062 114.532 74.0013 114.98 74.0013 115.559C74.0013 116.137 74.062 116.59 74.1833 116.917C74.3047 117.234 74.5007 117.458 74.7713 117.589C75.0513 117.719 75.4293 117.785 75.9053 117.785C76.0453 117.785 76.2273 117.78 76.4513 117.771C76.6847 117.761 76.932 117.747 77.1933 117.729C77.464 117.71 77.7253 117.687 77.9773 117.659L78.1453 118.751C77.7813 118.9 77.3753 119.007 76.9273 119.073C76.4793 119.138 76.036 119.171 75.5973 119.171C74.776 119.171 74.118 119.054 73.6233 118.821C73.1287 118.587 72.7693 118.209 72.5453 117.687C72.3307 117.155 72.2233 116.445 72.2233 115.559C72.2233 114.672 72.3353 113.967 72.5593 113.445C72.7833 112.913 73.1427 112.535 73.6373 112.311C74.132 112.077 74.79 111.961 75.6113 111.961ZM85.7473 112.129L83.7873 114.579C83.7127 114.691 83.6193 114.803 83.5073 114.915C83.3953 115.017 83.2973 115.097 83.2133 115.153V115.181C83.2973 115.237 83.3953 115.33 83.5073 115.461C83.6193 115.582 83.7127 115.708 83.7873 115.839L85.9713 119.003H84.0533L81.5473 115.111L83.8293 112.129H85.7473ZM81.2253 109.203L81.2393 113.389C81.2393 113.697 81.2207 113.991 81.1833 114.271C81.1553 114.551 81.1133 114.835 81.0573 115.125C81.104 115.395 81.1413 115.675 81.1693 115.965C81.2067 116.254 81.2253 116.525 81.2253 116.777V119.003H79.5313V109.203H81.2253ZM82.2753 114.607V115.699H80.6793V114.607H82.2753ZM40.712 127.343V134.763C40.712 135.033 40.782 135.239 40.922 135.379C41.0714 135.509 41.2814 135.575 41.552 135.575H44.968L45.052 136.905C44.4174 136.961 43.7547 136.993 43.064 137.003C42.3827 137.021 41.706 137.031 41.034 137.031C40.3247 137.031 39.802 136.849 39.466 136.485C39.1394 136.121 38.976 135.659 38.976 135.099V127.343H40.712ZM47.9832 130.129V137.003H46.3032V130.129H47.9832ZM47.5212 127.147C47.8572 127.147 48.0252 127.315 48.0252 127.651V128.435C48.0252 128.771 47.8572 128.939 47.5212 128.939H46.7652C46.4292 128.939 46.2612 128.771 46.2612 128.435V127.651C46.2612 127.315 46.4292 127.147 46.7652 127.147H47.5212ZM52.4166 129.961C52.7339 129.961 53.0746 129.97 53.4386 129.989C53.8119 130.007 54.1759 130.035 54.5306 130.073C54.8852 130.101 55.2026 130.143 55.4826 130.199L55.3706 131.305C54.9226 131.295 54.4746 131.286 54.0266 131.277C53.5879 131.258 53.1539 131.249 52.7246 131.249C52.3419 131.249 52.0386 131.258 51.8146 131.277C51.5999 131.295 51.4459 131.351 51.3526 131.445C51.2686 131.538 51.2266 131.697 51.2266 131.921C51.2266 132.191 51.3012 132.373 51.4506 132.467C51.5999 132.551 51.8426 132.635 52.1786 132.719L54.0546 133.153C54.6146 133.293 55.0299 133.507 55.3006 133.797C55.5712 134.077 55.7066 134.511 55.7066 135.099C55.7066 135.668 55.5992 136.102 55.3846 136.401C55.1792 136.69 54.8479 136.891 54.3906 137.003C53.9426 137.105 53.3686 137.157 52.6686 137.157C52.3979 137.157 51.9966 137.143 51.4646 137.115C50.9326 137.096 50.3492 137.035 49.7146 136.933L49.8266 135.827C50.0132 135.827 50.2326 135.831 50.4846 135.841C50.7459 135.85 51.0212 135.855 51.3106 135.855C51.6092 135.855 51.9126 135.855 52.2206 135.855C52.7152 135.855 53.0932 135.841 53.3546 135.813C53.6252 135.775 53.8119 135.705 53.9146 135.603C54.0172 135.491 54.0686 135.332 54.0686 135.127C54.0686 134.865 53.9799 134.693 53.8026 134.609C53.6346 134.515 53.3826 134.427 53.0466 134.343L51.2126 133.895C50.7926 133.783 50.4659 133.643 50.2326 133.475C49.9992 133.297 49.8312 133.083 49.7286 132.831C49.6259 132.569 49.5746 132.252 49.5746 131.879C49.5746 131.375 49.6679 130.983 49.8546 130.703C50.0506 130.423 50.3539 130.227 50.7646 130.115C51.1846 130.003 51.7352 129.951 52.4166 129.961ZM59.5073 128.169V134.931C59.5073 135.22 59.568 135.425 59.6893 135.547C59.82 135.668 60.0393 135.729 60.3474 135.729H61.2993L61.4814 136.919C61.3227 136.965 61.1313 137.007 60.9073 137.045C60.6833 137.082 60.464 137.105 60.2494 137.115C60.0347 137.133 59.8527 137.143 59.7033 137.143C59.106 137.143 58.6393 136.984 58.3033 136.667C57.9767 136.34 57.8133 135.873 57.8133 135.267V128.169H59.5073ZM61.5513 130.129V131.305H56.5953V130.199L57.9393 130.129H61.5513Z"
          fill="#2E984E"/>
    <path d="M76.0185 81.1159L24.1868 81.1089" stroke="white" stroke-width="6.29" stroke-miterlimit="10"/>
    <path d="M76.0185 81.1159L24.1868 81.1089" stroke="#2E984E" stroke-width="3.42" stroke-miterlimit="10"/>
    <path d="M18.8864 22.6508L18.8864 18.8889L75.4485 18.8819" stroke="white" stroke-width="6.29"
          stroke-miterlimit="10"/>
    <path d="M18.8864 22.6508L18.8864 18.8889L75.4485 18.8819" stroke="#2E984E" stroke-width="3.42"
          stroke-miterlimit="10"/>
    <path d="M62.2095 86.5128L37.807 86.5003L13.4662 62.1594L13.4537 37.757L37.7922 13.4184H62.2087L86.5481 37.7577L86.5481 62.1742L62.2095 86.5128Z"
          fill="#FFFCF1" stroke="#2E984E" stroke-width="7"/>
    <path d="M52.6674 42.2449C52.6674 42.356 52.6674 42.4671 52.6674 42.5816C52.6632 44.0614 52.6396 45.5421 52.6607 47.0227C52.6724 47.8965 52.3366 48.591 51.7111 49.1642C50.7768 50.0211 49.6404 50.4647 48.4224 50.7164C46.3289 51.1491 44.2699 51.0388 42.2665 50.2543C41.5089 49.9588 41.5157 49.9504 41.519 49.1339C41.5258 47.4958 41.5322 45.858 41.5384 44.2205V43.8838C42.1487 44.0917 42.7169 44.3375 43.3154 44.4806C45.8853 45.1001 48.3954 44.9714 50.7953 43.771C51.523 43.4047 52.1619 42.8838 52.6674 42.2449Z"
          fill="#2E984E"/>
    <path d="M36.0071 49.277C37.5357 51.7804 39.9238 52.8073 42.5577 53.3696C46.0418 54.1138 49.4694 53.9016 52.7607 52.4496C54.2254 51.8031 55.4956 50.8923 56.3037 49.4529C56.3121 49.4378 56.3349 49.431 56.3921 49.3931C56.3795 50.2593 56.4847 51.107 56.0857 51.9008C55.2768 51.5876 54.7886 51.6971 54.2002 52.3477C53.6808 52.9218 53.3584 53.5809 53.4695 54.3806C53.4964 54.5784 53.3937 54.6331 53.2607 54.7072C51.954 55.4063 50.5364 55.8748 49.0704 56.0919C46.386 56.5128 43.7328 56.3865 41.1385 55.538C39.6233 55.0439 38.2327 54.3309 37.1359 53.1356C36.3648 52.2939 35.9515 51.3174 36.0045 50.16C36.0172 49.8881 36.0071 49.6145 36.0071 49.277Z"
          fill="#2E984E"/>
    <path d="M53.0542 43.2777C54.3455 43.9797 55.4372 44.7929 56.0585 46.0917C56.7487 47.5379 56.3792 49.1684 55.1064 50.426C53.9877 51.5312 52.6325 52.2291 51.1501 52.6668C47.3462 53.7872 43.586 53.6769 39.9109 52.1238C38.7181 51.6188 37.6667 50.8915 36.8653 49.8511C35.7542 48.4066 35.7433 46.7449 36.8342 45.2878C37.442 44.4755 38.2332 43.8838 39.1558 43.3737C39.1558 43.872 39.1667 44.3282 39.1465 44.7828C39.1423 44.8754 39.0321 44.9722 38.9546 45.0513C38.1676 45.8544 37.697 46.782 37.8376 47.9386C37.9479 48.8351 38.4117 49.5497 39.0506 50.1575C39.9841 51.0464 41.1112 51.6011 42.3335 51.9538C45.2796 52.804 48.2014 52.7417 51.0718 51.6264C52.1813 51.1962 53.1712 50.5683 53.9103 49.6061C54.9305 48.2761 54.8606 46.6178 53.7377 45.3712C53.6897 45.3173 53.6535 45.255 53.5997 45.2028C53.4204 45.0151 53.1257 44.8518 53.082 44.6372C52.9911 44.2222 53.0542 43.7819 53.0542 43.2777Z"
          fill="#2E984E"/>
    <path d="M63.3565 55.2021C61.6729 55.7274 60.2967 58.001 60.6552 59.6534C60.5551 59.6088 60.4743 59.5802 60.4027 59.5389C58.9086 58.7089 57.417 57.8739 55.922 57.0473C55.757 56.9637 55.6174 56.8376 55.5176 56.6818C55.4179 56.5261 55.3616 56.3465 55.3546 56.1617C55.2764 54.9892 55.7823 54.0481 56.5617 53.229C56.9279 52.8452 57.3488 52.5186 57.8951 52.4512C58.1209 52.416 58.352 52.4476 58.5601 52.5421C60.1502 53.4041 61.731 54.2939 63.3565 55.2021Z"
          fill="#2E984E"/>
    <path d="M52.6594 40.5445H50.5685C49.1829 40.5445 47.7965 40.5445 46.4101 40.5445C46.2861 40.5523 46.162 40.5292 46.049 40.4772C44.618 39.6607 43.1954 38.8349 41.7021 37.9729C42.0111 37.8391 42.2644 37.7069 42.5321 37.6169C45.1643 36.7355 47.7696 36.7709 50.326 37.9022C51.0735 38.233 51.7293 38.7027 52.2124 39.3812C52.4646 39.7211 52.6191 40.1233 52.6594 40.5445Z"
          fill="#2E984E"/>
    <path d="M52.6492 40.9469C52.6071 41.4916 52.3706 41.9411 52.033 42.3384C51.4177 43.0623 50.6206 43.5227 49.7384 43.83C47.2055 44.7138 44.6811 44.6869 42.1776 43.6978C42.0615 43.6524 41.9495 43.5943 41.8367 43.5396C41.8199 43.5312 41.8115 43.5067 41.7837 43.4689L43.8982 42.239C44.5868 41.8392 45.2737 41.436 45.9656 41.0412C46.0708 40.9757 46.1904 40.9369 46.3141 40.9284C48.3705 40.9208 50.4269 40.9225 52.4834 40.9225C52.5391 40.927 52.5945 40.9352 52.6492 40.9469Z"
          fill="#2E984E"/>
    <path d="M45.6863 40.7609L42.9261 42.3661C42.4909 42.6187 42.0456 42.856 41.6256 43.1313C41.4084 43.2727 41.2586 43.2382 41.0675 43.1018C40.5229 42.7121 40.0414 42.2702 39.756 41.6489C39.6037 41.3362 39.53 40.9911 39.5411 40.6435C39.5523 40.2959 39.648 39.9562 39.82 39.654C40.1348 39.0647 40.6163 38.632 41.1761 38.2844C41.2186 38.2622 41.2656 38.2498 41.3135 38.2482C41.3614 38.2466 41.4091 38.2558 41.453 38.2751C42.8459 39.0698 44.2351 39.87 45.6206 40.6759C45.6366 40.6851 45.6467 40.707 45.6863 40.7609Z"
          fill="#2E984E"/>
    <path d="M62.2827 59.5349C62.441 58.3135 63.0664 57.1519 64.3871 56.465C65.2962 55.9919 66.0479 56.465 65.9974 57.4903C65.9234 58.96 65.2129 60.0896 63.9149 60.7866C62.9864 61.2824 62.2861 60.8102 62.2827 59.5349Z"
          fill="#2E984E"/>
    <path d="M39.5332 42.2467C40.0307 42.6718 40.5383 43.1003 41.0375 43.538C41.1045 43.5981 41.1463 43.6814 41.1545 43.7711C41.1511 45.6937 41.1424 47.6158 41.1284 49.5372C41.1284 49.5549 41.1124 49.5726 41.0854 49.6273C40.2866 49.0776 39.5863 48.4278 39.5501 47.416C39.4886 45.6752 39.5332 43.9319 39.5332 42.2467Z"
          fill="#2E984E"/>
    <path d="M64.6433 55.9488C62.9278 56.4867 61.8806 58.5078 61.9084 59.7486C61.9151 59.8374 61.8891 59.9256 61.8353 59.9966C61.7815 60.0676 61.7036 60.1165 61.6163 60.1341C61.5262 60.161 61.3326 60.0642 61.2888 59.9742C61.1567 59.6972 61.0043 59.4009 60.9866 59.1046C60.9117 57.8369 61.9766 56.1955 63.155 55.6988C63.7064 55.4648 64.033 55.5162 64.6433 55.9488Z"
          fill="#2E984E"/>
    <path d="M55.019 55.2368C54.6924 55.0558 54.37 54.916 54.0981 54.7106C53.953 54.5814 53.8602 54.4036 53.8372 54.2106C53.753 53.4741 54.3843 52.4572 55.0661 52.1677C55.3102 52.0641 55.5451 52.0473 55.785 52.1988C56.0375 52.3596 56.3077 52.496 56.5939 52.6567C55.8027 53.3731 55.269 54.2064 55.019 55.2368Z"
          fill="#2E984E"/>
    <path d="M54.0871 48.468C53.7764 48.2155 53.4482 47.9554 53.1291 47.6852C53.07 47.631 53.0339 47.5563 53.0281 47.4764C53.0214 46.7466 53.0239 46.016 53.0239 45.2626C54.0727 45.9596 54.5685 47.5951 54.0871 48.468Z"
          fill="#2E984E"/>
    <path d="M39.1757 45.4166C39.1757 46.2087 39.1757 46.9318 39.1757 47.6524C39.1692 47.7223 39.1395 47.788 39.0915 47.8392C38.8752 48.0791 38.6504 48.3123 38.4307 48.5463C37.9181 47.7854 38.2136 46.2441 39.1757 45.4166Z"
          fill="#2E984E"/>
    <path d="M24.1852 81.108L18.8862 81.115L18.8862 22.6509" stroke="white" stroke-width="6.29" stroke-miterlimit="10"/>
    <path d="M24.1852 81.108L18.8862 81.115L18.8862 22.6509" stroke="#2E984E" stroke-width="3.42"
          stroke-miterlimit="10"/>
    <path d="M75.4489 18.8803L81.1128 18.8874L81.1129 81.1134L76.0174 81.1134" stroke="white" stroke-width="6.29"
          stroke-miterlimit="10"/>
    <path d="M75.4489 18.8803L81.1128 18.8874L81.1129 81.1134L76.0174 81.1134" stroke="#2E984E" stroke-width="3.42"
          stroke-miterlimit="10"/>
</svg>
