<svg width="100" height="156" viewBox="0 0 100 156" fill="none" xmlns="http://www.w3.org/2000/svg">
<rect width="100" height="156" rx="19" fill="#F9FBFF"/>
<path d="M25.7456 109.217C26.4736 109.217 27.0896 109.301 27.5936 109.469C28.1069 109.627 28.5176 109.898 28.8256 110.281C29.1429 110.654 29.3716 111.163 29.5116 111.807C29.6516 112.441 29.7216 113.23 29.7216 114.173C29.7216 115.115 29.6516 115.909 29.5116 116.553C29.3716 117.187 29.1429 117.696 28.8256 118.079C28.5176 118.452 28.1069 118.723 27.5936 118.891C27.0896 119.049 26.4736 119.129 25.7456 119.129C25.0456 119.129 24.3969 119.115 23.7996 119.087C23.2023 119.068 22.6376 119.04 22.1056 119.003L22.8336 117.659C23.2069 117.677 23.6363 117.696 24.1216 117.715C24.6069 117.724 25.1483 117.729 25.7456 117.729C26.2869 117.729 26.7116 117.626 27.0196 117.421C27.3369 117.206 27.5609 116.842 27.6916 116.329C27.8223 115.806 27.8876 115.087 27.8876 114.173C27.8876 113.258 27.8223 112.544 27.6916 112.031C27.5609 111.508 27.3369 111.139 27.0196 110.925C26.7116 110.71 26.2869 110.603 25.7456 110.603C25.1669 110.603 24.6489 110.607 24.1916 110.617C23.7436 110.626 23.3049 110.631 22.8756 110.631L22.1056 109.343C22.6376 109.305 23.1976 109.277 23.7856 109.259C24.3829 109.231 25.0363 109.217 25.7456 109.217ZM23.8556 109.343V119.003H22.1056V109.343H23.8556ZM34.8849 111.961C35.4355 111.961 35.8975 112.035 36.2709 112.185C36.6535 112.325 36.9428 112.567 37.1388 112.913C37.3348 113.258 37.4328 113.734 37.4328 114.341V119.003H36.0889L35.8508 117.519L35.7249 117.323V114.327C35.7249 113.963 35.6409 113.701 35.4729 113.543C35.3048 113.375 34.9828 113.291 34.5068 113.291C34.1522 113.291 33.7042 113.305 33.1628 113.333C32.6308 113.361 32.0942 113.398 31.5528 113.445L31.3988 112.283C31.7255 112.217 32.0942 112.161 32.5048 112.115C32.9155 112.068 33.3308 112.031 33.7508 112.003C34.1708 111.975 34.5488 111.961 34.8849 111.961ZM36.7049 114.775L36.6909 115.825H33.5408C33.2608 115.834 33.0602 115.909 32.9388 116.049C32.8175 116.189 32.7568 116.38 32.7568 116.623V117.001C32.7568 117.281 32.8315 117.495 32.9808 117.645C33.1302 117.785 33.3635 117.855 33.6808 117.855C33.9328 117.855 34.2128 117.803 34.5208 117.701C34.8288 117.598 35.1322 117.449 35.4308 117.253C35.7388 117.057 36.0142 116.823 36.2568 116.553V117.435C36.1635 117.575 36.0282 117.743 35.8508 117.939C35.6735 118.125 35.4542 118.312 35.1928 118.499C34.9408 118.685 34.6468 118.839 34.3108 118.961C33.9842 119.082 33.6202 119.143 33.2188 119.143C32.8082 119.143 32.4395 119.073 32.1128 118.933C31.7862 118.783 31.5295 118.569 31.3428 118.289C31.1562 117.999 31.0628 117.645 31.0628 117.225V116.497C31.0628 115.955 31.2402 115.535 31.5948 115.237C31.9588 114.929 32.4535 114.775 33.0788 114.775H36.7049ZM45.8132 112.129L43.2372 119.213C43.1158 119.539 42.9618 119.861 42.7752 120.179C42.5978 120.505 42.3692 120.799 42.0892 121.061C41.8092 121.322 41.4778 121.527 41.0952 121.677C40.7125 121.826 40.2692 121.882 39.7652 121.845L39.6252 120.837C40.1852 120.678 40.6192 120.463 40.9272 120.193C41.2445 119.922 41.4918 119.577 41.6692 119.157L42.0472 118.261C42.1312 118.055 42.2105 117.822 42.2852 117.561C42.3692 117.29 42.4392 117.057 42.4952 116.861L43.9932 112.129H45.8132ZM40.2692 112.129L41.7952 116.861C41.8418 117.019 41.8838 117.183 41.9212 117.351C41.9585 117.509 41.9912 117.668 42.0192 117.827H42.3692L41.8372 119.003H41.3892C41.2585 119.003 41.1418 118.965 41.0392 118.891C40.9365 118.816 40.8665 118.713 40.8292 118.583L38.4632 112.129H40.2692ZM51.5265 109.343V116.763C51.5265 117.033 51.5965 117.239 51.7365 117.379C51.8858 117.509 52.0958 117.575 52.3665 117.575H55.7825L55.8665 118.905C55.2318 118.961 54.5691 118.993 53.8785 119.003C53.1971 119.021 52.5205 119.031 51.8485 119.031C51.1391 119.031 50.6165 118.849 50.2805 118.485C49.9538 118.121 49.7905 117.659 49.7905 117.099V109.343H51.5265ZM60.1559 111.961C60.9959 111.961 61.6633 112.077 62.1579 112.311C62.6619 112.544 63.0213 112.927 63.2359 113.459C63.4599 113.991 63.5719 114.695 63.5719 115.573C63.5719 116.45 63.4599 117.155 63.2359 117.687C63.0213 118.209 62.6619 118.592 62.1579 118.835C61.6633 119.068 60.9959 119.185 60.1559 119.185C59.3346 119.185 58.6719 119.068 58.1679 118.835C57.6733 118.592 57.3139 118.209 57.0899 117.687C56.8659 117.155 56.7539 116.45 56.7539 115.573C56.7539 114.695 56.8659 113.991 57.0899 113.459C57.3139 112.927 57.6733 112.544 58.1679 112.311C58.6719 112.077 59.3346 111.961 60.1559 111.961ZM60.1559 113.249C59.7453 113.249 59.4186 113.319 59.1759 113.459C58.9426 113.589 58.7746 113.823 58.6719 114.159C58.5693 114.495 58.5179 114.966 58.5179 115.573C58.5179 116.179 58.5693 116.651 58.6719 116.987C58.7746 117.323 58.9426 117.556 59.1759 117.687C59.4186 117.817 59.7453 117.883 60.1559 117.883C60.5759 117.883 60.9073 117.817 61.1499 117.687C61.3926 117.556 61.5606 117.323 61.6539 116.987C61.7566 116.651 61.8079 116.179 61.8079 115.573C61.8079 114.966 61.7566 114.495 61.6539 114.159C61.5606 113.823 61.3926 113.589 61.1499 113.459C60.9073 113.319 60.5759 113.249 60.1559 113.249ZM68.249 111.961C68.4824 111.961 68.739 111.97 69.019 111.989C69.299 112.007 69.5837 112.045 69.873 112.101C70.1624 112.157 70.4237 112.236 70.657 112.339L70.461 113.403C70.1157 113.384 69.7704 113.37 69.425 113.361C69.089 113.351 68.795 113.347 68.543 113.347C68.067 113.347 67.689 113.412 67.409 113.543C67.1384 113.664 66.9424 113.888 66.821 114.215C66.6997 114.532 66.639 114.98 66.639 115.559C66.639 116.137 66.6997 116.59 66.821 116.917C66.9424 117.234 67.1384 117.458 67.409 117.589C67.689 117.719 68.067 117.785 68.543 117.785C68.683 117.785 68.865 117.78 69.089 117.771C69.3224 117.761 69.5697 117.747 69.831 117.729C70.1017 117.71 70.363 117.687 70.615 117.659L70.783 118.751C70.419 118.9 70.013 119.007 69.565 119.073C69.117 119.138 68.6737 119.171 68.235 119.171C67.4137 119.171 66.7557 119.054 66.261 118.821C65.7664 118.587 65.407 118.209 65.183 117.687C64.9684 117.155 64.861 116.445 64.861 115.559C64.861 114.672 64.973 113.967 65.197 113.445C65.421 112.913 65.7804 112.535 66.275 112.311C66.7697 112.077 67.4277 111.961 68.249 111.961ZM78.385 112.129L76.425 114.579C76.3504 114.691 76.257 114.803 76.145 114.915C76.033 115.017 75.935 115.097 75.851 115.153V115.181C75.935 115.237 76.033 115.33 76.145 115.461C76.257 115.582 76.3504 115.708 76.425 115.839L78.609 119.003H76.691L74.185 115.111L76.467 112.129H78.385ZM73.863 109.203L73.877 113.389C73.877 113.697 73.8584 113.991 73.821 114.271C73.793 114.551 73.751 114.835 73.695 115.125C73.7417 115.395 73.779 115.675 73.807 115.965C73.8444 116.254 73.863 116.525 73.863 116.777V119.003H72.169V109.203H73.863ZM74.913 114.607V115.699H73.317V114.607H74.913Z" fill="#657AD0"/>
<path d="M76.0185 81.1159L24.1868 81.1089" stroke="white" stroke-width="6.29" stroke-miterlimit="10"/>
<path d="M76.0185 81.1159L24.1868 81.1089" stroke="#657AD0" stroke-width="3.42" stroke-miterlimit="10"/>
<path d="M18.8864 22.6508L18.8864 18.8889L75.4485 18.8819" stroke="white" stroke-width="6.29" stroke-miterlimit="10"/>
<path d="M18.8864 22.6508L18.8864 18.8889L75.4485 18.8819" stroke="#657AD0" stroke-width="3.42" stroke-miterlimit="10"/>
<path d="M62.2095 86.5128L37.807 86.5003L13.4662 62.1594L13.4537 37.757L37.7922 13.4184H62.2087L86.5481 37.7577L86.5481 62.1742L62.2095 86.5128Z" fill="#EFF2FF" stroke="#657AD0" stroke-width="7"/>
<path d="M62 40.2506V56.2393C61.9804 56.2846 61.9643 56.3313 61.9519 56.379C61.8635 56.9068 61.6418 57.4032 61.3077 57.8213C60.4865 58.8492 59.3907 59.2649 58.1003 59.2642C52.0364 59.2611 45.9725 59.2586 39.9086 59.2568C39.5028 59.2614 39.0981 59.2159 38.7036 59.1212C37.0606 58.7021 35.9912 57.2754 36.0001 55.6731C36.0326 50.6661 36.0116 45.6591 36.0129 40.6521C36.0088 40.5172 36.0183 40.3822 36.0414 40.2493C36.1219 39.8787 36.321 39.5445 36.6083 39.2971C36.8957 39.0497 37.2558 38.9027 37.6342 38.8782C37.9855 38.8572 38.3388 38.8782 38.7151 38.8782C38.7151 38.691 38.7056 38.5473 38.7151 38.4035C38.7355 38.1458 38.9097 37.9885 39.145 38.0014C39.3681 38.0136 39.5112 38.1723 39.5214 38.4266C39.5268 38.5622 39.5214 38.7053 39.5214 38.8463H43.6658C43.6658 38.7032 43.6658 38.5785 43.6658 38.4537C43.674 38.1689 43.8252 38.0001 44.0673 38.0001C44.3094 38.0001 44.464 38.1696 44.4741 38.4523C44.4796 38.5839 44.4741 38.7148 44.4741 38.8436H48.582C48.6403 38.5113 48.4572 38.0299 48.9888 38.0157C49.5584 38.0028 49.3618 38.5168 49.4282 38.8497H53.5219C53.5259 38.7615 53.5307 38.687 53.5334 38.6124C53.5316 38.528 53.5345 38.4435 53.5422 38.3594C53.5519 38.257 53.601 38.1623 53.6792 38.0953C53.7574 38.0284 53.8585 37.9945 53.9613 38.0007C54.1762 38.0096 54.3288 38.1621 54.3417 38.3954C54.3505 38.5432 54.3417 38.6924 54.3417 38.8483H58.4841C58.4841 38.7005 58.4841 38.5669 58.4841 38.434C58.4929 38.1675 58.6448 38.0028 58.8781 38.0001C59.1113 37.9973 59.2748 38.1581 59.2917 38.4212C59.3005 38.5608 59.2917 38.7012 59.2917 38.8755C59.6742 38.8755 60.0213 38.8524 60.3645 38.8802C61.0161 38.9338 61.5118 39.2545 61.8223 39.837C61.8885 39.9718 61.9478 40.1098 62 40.2506ZM61.1809 43.5645H36.83C36.826 43.6234 36.8212 43.6648 36.8212 43.7062C36.8212 47.1997 36.8228 50.6932 36.826 54.1867C36.826 54.42 36.8938 54.6532 36.9277 54.8858C36.9609 55.1048 37.0762 55.1747 37.3067 55.1747C43.4136 55.1674 49.5209 55.1656 55.6287 55.1693H55.8999C55.9237 55.0757 55.9433 55.0106 55.9569 54.9448C56.1775 53.8341 56.3974 52.7234 56.6167 51.6127C56.6973 51.2058 56.8533 51.0973 57.2568 51.1801C58.0352 51.3387 58.8134 51.4981 59.5914 51.6581C60.1176 51.7653 60.6438 51.8704 61.1836 51.9789L61.1809 43.5645ZM37.6953 55.983C38.2947 56.5722 39.0148 56.7967 39.8231 56.7967C45.9463 56.794 52.0694 56.794 58.1925 56.7967C58.2854 56.7967 58.379 56.7967 58.4712 56.7906C60.4567 56.5993 61.4813 55.1869 61.1443 53.1967C61.0676 53.2387 60.9944 53.2767 60.9225 53.3188C59.4985 54.1487 58.0786 54.9848 56.6506 55.8033C56.4546 55.9133 56.2344 55.973 56.0098 55.9769C50.0051 55.9864 44.0004 55.9888 37.9957 55.9843L37.6953 55.983ZM36.9494 56.5112C37.1128 57.0977 37.4613 57.548 37.9516 57.8931C38.5429 58.3081 39.2094 58.441 39.918 58.4404C45.9756 58.4372 52.0314 58.4372 58.0854 58.4404C58.28 58.444 58.4745 58.4347 58.6679 58.4126C59.685 58.2715 60.475 57.784 60.9476 56.8455C60.9998 56.7417 61.0344 56.6285 61.0771 56.52C60.1617 57.35 59.0998 57.628 57.9064 57.6253C51.9609 57.6095 46.0163 57.6095 40.0727 57.6253C38.888 57.6246 37.8363 57.3405 36.9514 56.5112H36.9494ZM56.8126 54.7705L60.4316 52.6549L57.3551 52.0284L56.8126 54.7705ZM44.0103 41.4563H44.1269C44.1948 41.3525 44.31 41.2528 44.3304 41.1423C44.3582 40.9796 44.2307 40.8765 44.0693 40.8752C43.9079 40.8738 43.7832 40.9864 43.8076 41.1464C43.8211 41.2549 43.9384 41.3518 44.0103 41.4563ZM39.4325 41.2088L39.4359 41.101C39.3349 41.0237 39.242 40.9009 39.1308 40.8806C38.9769 40.8528 38.8596 40.9653 38.8562 41.1349C38.8528 41.3044 38.9545 41.4244 39.1132 41.4061C39.2257 41.3946 39.3268 41.2779 39.4325 41.2088ZM54.2549 41.2027V41.0949C54.1518 41.0196 54.0562 40.8989 53.9443 40.8806C53.7904 40.8555 53.6731 40.9708 53.6731 41.1403C53.6731 41.3098 53.7768 41.4285 53.9348 41.4054C54.0521 41.3891 54.1504 41.2739 54.2549 41.2027ZM58.9337 40.829L58.8232 40.8345C58.7553 40.9409 58.6441 41.0426 58.6306 41.1559C58.6116 41.3139 58.7323 41.421 58.9018 41.4122C59.0713 41.4034 59.1846 41.2962 59.1493 41.1355C59.1269 41.023 59.011 40.9308 58.9364 40.829H58.9337ZM48.6945 41.0949L48.6979 41.2169C48.8051 41.2847 48.9176 41.4075 49.018 41.3986C49.1184 41.3898 49.2357 41.2474 49.258 41.1444C49.2666 41.1087 49.2661 41.0714 49.2564 41.036C49.2467 41.0007 49.2281 40.9683 49.2025 40.942C49.1769 40.9157 49.1451 40.8964 49.11 40.8858C49.0748 40.8751 49.0376 40.8736 49.0017 40.8813C48.8932 40.8989 48.7983 41.0203 48.6966 41.0949H48.6945Z" fill="#657AD0"/>
<path d="M48.9942 53.6003C48.1059 53.6003 47.2176 53.6003 46.3293 53.6003C45.7143 53.6003 45.3908 53.2775 45.3901 52.6611C45.3901 51.4343 45.3901 50.2076 45.3901 48.9812C45.3901 48.3709 45.7034 48.0569 46.3062 48.0501C46.6853 48.0461 46.6615 48.0929 46.65 47.6887C46.6236 46.7326 46.9674 45.9664 47.7953 45.4605C49.3075 44.5363 51.2604 45.5771 51.3492 47.3476C51.36 47.5585 51.2861 47.8284 51.3905 47.9627C51.4807 48.0786 51.7709 48.0305 51.9703 48.0698C52.1507 48.1058 52.3131 48.203 52.43 48.345C52.5469 48.487 52.6111 48.665 52.6118 48.8489C52.6186 50.1599 52.6186 51.4709 52.6118 52.7818C52.6118 53.2619 52.2551 53.5955 51.7601 53.5955C50.8393 53.6044 49.9157 53.6003 48.9942 53.6003ZM47.4854 48.0156H50.5172C50.6453 47.1707 50.4087 46.5333 49.8391 46.1678C49.5856 46.005 49.2899 45.92 48.9886 45.9234C48.6873 45.9268 48.3937 46.0183 48.1439 46.1867C47.4902 46.6356 47.4047 47.2893 47.4854 48.0162V48.0156ZM49.3061 50.2851L49.3149 50.1624C49.2166 50.0858 49.1278 49.9671 49.0179 49.9427C48.9829 49.9321 48.9457 49.9308 48.91 49.9389C48.8743 49.9471 48.8414 49.9644 48.8145 49.9892C48.7876 50.014 48.7676 50.0454 48.7565 50.0803C48.7455 50.1152 48.7437 50.1524 48.7514 50.1882C48.7684 50.2899 48.887 50.435 48.9799 50.4465C49.0728 50.458 49.1962 50.3455 49.3061 50.2858V50.2851Z" fill="#657AD0"/>
<path d="M24.1852 81.108L18.8862 81.115L18.8862 22.6509" stroke="white" stroke-width="6.29" stroke-miterlimit="10"/>
<path d="M24.1852 81.108L18.8862 81.115L18.8862 22.6509" stroke="#657AD0" stroke-width="3.42" stroke-miterlimit="10"/>
<path d="M75.4489 18.8803L81.1128 18.8874L81.1129 81.1134L76.0174 81.1134" stroke="white" stroke-width="6.29" stroke-miterlimit="10"/>
<path d="M75.4489 18.8803L81.1128 18.8874L81.1129 81.1134L76.0174 81.1134" stroke="#657AD0" stroke-width="3.42" stroke-miterlimit="10"/>
</svg>
