<svg width="88" height="145" viewBox="0 0 88 145" fill="none" xmlns="http://www.w3.org/2000/svg">
<path d="M18.8689 103.442C19.5969 103.442 20.2129 103.526 20.7169 103.694C21.2303 103.852 21.6409 104.123 21.9489 104.506C22.2663 104.879 22.4949 105.388 22.6349 106.032C22.7749 106.666 22.8449 107.455 22.8449 108.398C22.8449 109.34 22.7749 110.134 22.6349 110.778C22.4949 111.412 22.2663 111.921 21.9489 112.304C21.6409 112.677 21.2303 112.948 20.7169 113.116C20.2129 113.274 19.5969 113.354 18.8689 113.354C18.1689 113.354 17.5203 113.34 16.9229 113.312C16.3256 113.293 15.7609 113.265 15.2289 113.228L15.9569 111.884C16.3303 111.902 16.7596 111.921 17.2449 111.94C17.7303 111.949 18.2716 111.954 18.8689 111.954C19.4103 111.954 19.8349 111.851 20.1429 111.646C20.4603 111.431 20.6843 111.067 20.8149 110.554C20.9456 110.031 21.0109 109.312 21.0109 108.398C21.0109 107.483 20.9456 106.769 20.8149 106.256C20.6843 105.733 20.4603 105.364 20.1429 105.15C19.8349 104.935 19.4103 104.828 18.8689 104.828C18.2903 104.828 17.7723 104.832 17.3149 104.842C16.8669 104.851 16.4283 104.856 15.9989 104.856L15.2289 103.568C15.7609 103.53 16.3209 103.502 16.9089 103.484C17.5063 103.456 18.1596 103.442 18.8689 103.442ZM16.9789 103.568V113.228H15.2289V103.568H16.9789ZM27.1962 106.186C28.3069 106.186 29.1049 106.382 29.5902 106.774C30.0755 107.156 30.3229 107.726 30.3322 108.482C30.3415 109.107 30.1922 109.583 29.8842 109.91C29.5855 110.227 29.0862 110.386 28.3862 110.386H24.4662V109.336H27.9242C28.2415 109.336 28.4422 109.252 28.5262 109.084C28.6195 108.916 28.6662 108.71 28.6662 108.468C28.6569 108.085 28.5449 107.819 28.3302 107.67C28.1249 107.52 27.7702 107.446 27.2662 107.446C26.8275 107.446 26.4869 107.506 26.2442 107.628C26.0015 107.749 25.8289 107.968 25.7262 108.286C25.6329 108.603 25.5862 109.06 25.5862 109.658C25.5862 110.292 25.6469 110.782 25.7682 111.128C25.8895 111.473 26.0902 111.711 26.3702 111.842C26.6502 111.963 27.0235 112.024 27.4902 112.024C27.8355 112.024 28.2322 112.01 28.6802 111.982C29.1375 111.954 29.5762 111.916 29.9962 111.87L30.1642 112.948C29.9122 113.05 29.6229 113.134 29.2962 113.2C28.9695 113.265 28.6289 113.312 28.2742 113.34C27.9289 113.377 27.6022 113.396 27.2942 113.396C26.4542 113.396 25.7775 113.274 25.2642 113.032C24.7602 112.78 24.3915 112.388 24.1582 111.856C23.9342 111.324 23.8222 110.638 23.8222 109.798C23.8222 108.892 23.9342 108.178 24.1582 107.656C24.3915 107.124 24.7555 106.746 25.2502 106.522C25.7542 106.298 26.4029 106.186 27.1962 106.186ZM35.7048 106.186C36.5542 106.186 37.1655 106.498 37.5388 107.124C37.9122 107.749 38.0988 108.654 38.0988 109.84C38.0988 110.745 38.0008 111.459 37.8048 111.982C37.6182 112.495 37.3335 112.864 36.9508 113.088C36.5682 113.302 36.0828 113.41 35.4948 113.41C35.0282 113.41 34.5708 113.344 34.1228 113.214C33.6842 113.074 33.2782 112.859 32.9048 112.57L33.0168 111.73C33.3808 111.832 33.7075 111.921 33.9968 111.996C34.2862 112.07 34.6035 112.108 34.9488 112.108C35.2942 112.108 35.5648 112.052 35.7608 111.94C35.9662 111.818 36.1155 111.594 36.2088 111.268C36.3022 110.941 36.3488 110.47 36.3488 109.854C36.3488 109.247 36.3068 108.776 36.2228 108.44C36.1388 108.104 35.9988 107.87 35.8028 107.74C35.6162 107.6 35.3688 107.53 35.0608 107.53C34.7248 107.53 34.4075 107.604 34.1088 107.754C33.8102 107.894 33.4648 108.104 33.0728 108.384L32.8768 107.488C33.0915 107.236 33.3482 107.012 33.6468 106.816C33.9548 106.62 34.2862 106.466 34.6408 106.354C34.9955 106.242 35.3502 106.186 35.7048 106.186ZM32.8068 106.354L32.9748 107.684L33.1288 107.88V112.318L33.0588 112.486C33.0868 112.756 33.1055 113.027 33.1148 113.298C33.1242 113.578 33.1288 113.862 33.1288 114.152V115.958H31.4348V106.354H32.8068ZM41.5543 104.394V111.156C41.5543 111.445 41.615 111.65 41.7363 111.772C41.867 111.893 42.0863 111.954 42.3943 111.954H43.3463L43.5283 113.144C43.3696 113.19 43.1783 113.232 42.9543 113.27C42.7303 113.307 42.511 113.33 42.2963 113.34C42.0816 113.358 41.8996 113.368 41.7503 113.368C41.153 113.368 40.6863 113.209 40.3503 112.892C40.0236 112.565 39.8603 112.098 39.8603 111.492V104.394H41.5543ZM43.5983 106.354V107.53H38.6423V106.424L39.9863 106.354H43.5983ZM50.8328 103.568V113.228H49.0828V103.568H50.8328ZM53.8288 103.568V104.996H46.0868V103.568H53.8288ZM54.7915 106.354L55.0155 107.698L55.1695 107.894V113.228H53.4755V106.354H54.7915ZM58.1515 106.186L57.9835 107.754H57.4935C57.1295 107.754 56.7609 107.814 56.3875 107.936C56.0142 108.057 55.5475 108.239 54.9875 108.482L54.8755 107.488C55.3609 107.077 55.8555 106.76 56.3595 106.536C56.8635 106.302 57.3489 106.186 57.8155 106.186H58.1515ZM62.3104 106.186C62.8611 106.186 63.3231 106.26 63.6964 106.41C64.0791 106.55 64.3684 106.792 64.5644 107.138C64.7604 107.483 64.8584 107.959 64.8584 108.566V113.228H63.5144L63.2764 111.744L63.1504 111.548V108.552C63.1504 108.188 63.0664 107.926 62.8984 107.768C62.7304 107.6 62.4084 107.516 61.9324 107.516C61.5777 107.516 61.1297 107.53 60.5884 107.558C60.0564 107.586 59.5197 107.623 58.9784 107.67L58.8244 106.508C59.1511 106.442 59.5197 106.386 59.9304 106.34C60.3411 106.293 60.7564 106.256 61.1764 106.228C61.5964 106.2 61.9744 106.186 62.3104 106.186ZM64.1304 109L64.1164 110.05H60.9664C60.6864 110.059 60.4857 110.134 60.3644 110.274C60.2431 110.414 60.1824 110.605 60.1824 110.848V111.226C60.1824 111.506 60.2571 111.72 60.4064 111.87C60.5557 112.01 60.7891 112.08 61.1064 112.08C61.3584 112.08 61.6384 112.028 61.9464 111.926C62.2544 111.823 62.5577 111.674 62.8564 111.478C63.1644 111.282 63.4397 111.048 63.6824 110.778V111.66C63.5891 111.8 63.4537 111.968 63.2764 112.164C63.0991 112.35 62.8797 112.537 62.6184 112.724C62.3664 112.91 62.0724 113.064 61.7364 113.186C61.4097 113.307 61.0457 113.368 60.6444 113.368C60.2337 113.368 59.8651 113.298 59.5384 113.158C59.2117 113.008 58.9551 112.794 58.7684 112.514C58.5817 112.224 58.4884 111.87 58.4884 111.45V110.722C58.4884 110.18 58.6657 109.76 59.0204 109.462C59.3844 109.154 59.8791 109 60.5044 109H64.1304ZM70.8021 106.186C72.0807 106.186 72.7201 106.816 72.7201 108.076V113.228H71.0261V108.594C71.0261 108.22 70.9607 107.964 70.8301 107.824C70.6994 107.684 70.4801 107.614 70.1721 107.614C69.8267 107.614 69.4721 107.693 69.1081 107.852C68.7441 108.001 68.3054 108.22 67.7921 108.51L67.7221 107.488C68.2261 107.068 68.7394 106.746 69.2621 106.522C69.7847 106.298 70.2981 106.186 70.8021 106.186ZM67.6661 106.354L67.8341 107.698L67.9741 107.894V113.228H66.2801V106.354H67.6661ZM37.167 121.568L34.409 130.738C34.3623 130.878 34.283 130.994 34.171 131.088C34.059 131.181 33.9237 131.228 33.765 131.228H32.113C31.9543 131.228 31.819 131.181 31.707 131.088C31.595 130.994 31.5203 130.878 31.483 130.738L28.725 121.568H30.531L32.505 128.834C32.5517 129.011 32.5983 129.188 32.645 129.366C32.6917 129.543 32.729 129.72 32.757 129.898H33.121C33.1677 129.72 33.2097 129.543 33.247 129.366C33.2937 129.179 33.3403 128.997 33.387 128.82L35.361 121.568H37.167ZM39.6023 124.354V131.228H37.9223V124.354H39.6023ZM39.1403 121.372C39.4763 121.372 39.6443 121.54 39.6443 121.876V122.66C39.6443 122.996 39.4763 123.164 39.1403 123.164H38.3843C38.0483 123.164 37.8803 122.996 37.8803 122.66V121.876C37.8803 121.54 38.0483 121.372 38.3843 121.372H39.1403ZM44.2037 124.186C45.3144 124.186 46.1124 124.382 46.5977 124.774C47.0831 125.156 47.3304 125.726 47.3397 126.482C47.3491 127.107 47.1997 127.583 46.8917 127.91C46.5931 128.227 46.0937 128.386 45.3937 128.386H41.4737V127.336H44.9317C45.2491 127.336 45.4497 127.252 45.5337 127.084C45.6271 126.916 45.6737 126.71 45.6737 126.468C45.6644 126.085 45.5524 125.819 45.3377 125.67C45.1324 125.52 44.7777 125.446 44.2737 125.446C43.8351 125.446 43.4944 125.506 43.2517 125.628C43.0091 125.749 42.8364 125.968 42.7337 126.286C42.6404 126.603 42.5937 127.06 42.5937 127.658C42.5937 128.292 42.6544 128.782 42.7757 129.128C42.8971 129.473 43.0977 129.711 43.3777 129.842C43.6577 129.963 44.0311 130.024 44.4977 130.024C44.8431 130.024 45.2397 130.01 45.6877 129.982C46.1451 129.954 46.5837 129.916 47.0037 129.87L47.1717 130.948C46.9197 131.05 46.6304 131.134 46.3037 131.2C45.9771 131.265 45.6364 131.312 45.2817 131.34C44.9364 131.377 44.6097 131.396 44.3017 131.396C43.4617 131.396 42.7851 131.274 42.2717 131.032C41.7677 130.78 41.3991 130.388 41.1657 129.856C40.9417 129.324 40.8297 128.638 40.8297 127.798C40.8297 126.892 40.9417 126.178 41.1657 125.656C41.3991 125.124 41.7631 124.746 42.2577 124.522C42.7617 124.298 43.4104 124.186 44.2037 124.186ZM58.9427 124.354L57.1227 130.78C57.0854 130.91 57.0107 131.018 56.8987 131.102C56.7867 131.186 56.656 131.228 56.5067 131.228H55.1487C54.9994 131.228 54.864 131.181 54.7427 131.088C54.6214 130.994 54.5514 130.868 54.5327 130.71L53.6227 126.496C53.5854 126.309 53.5527 126.122 53.5247 125.936C53.506 125.749 53.478 125.562 53.4407 125.376H53.2587C53.2307 125.562 53.198 125.749 53.1607 125.936C53.1327 126.122 53.1 126.309 53.0627 126.496L52.1667 130.71C52.1387 130.868 52.064 130.994 51.9427 131.088C51.8307 131.181 51.6954 131.228 51.5367 131.228H50.1927C50.0434 131.228 49.9127 131.186 49.8007 131.102C49.6887 131.018 49.6187 130.91 49.5907 130.78L47.7567 124.354H49.4787L50.6267 129.072C50.664 129.249 50.6967 129.431 50.7247 129.618C50.762 129.795 50.7947 129.972 50.8227 130.15H50.9907C51.0374 129.972 51.0747 129.795 51.1027 129.618C51.14 129.431 51.1774 129.249 51.2147 129.072L52.1247 124.872C52.1527 124.722 52.218 124.601 52.3207 124.508C52.4327 124.405 52.5727 124.354 52.7407 124.354H53.9727C54.122 124.354 54.2527 124.405 54.3647 124.508C54.4767 124.601 54.5467 124.727 54.5747 124.886L55.4847 129.072C55.5127 129.249 55.5454 129.426 55.5827 129.604C55.6294 129.781 55.6667 129.963 55.6947 130.15H55.8627C55.9 129.963 55.9327 129.786 55.9607 129.618C55.9887 129.44 56.026 129.258 56.0727 129.072L57.2207 124.354H58.9427Z" fill="#AA730D"/>
<path d="M70.0189 75.3407L18.1873 75.3337" stroke="white" stroke-width="6.29" stroke-miterlimit="10"/>
<path d="M70.0189 75.3407L18.1873 75.3337" stroke="#AA730D" stroke-width="3.42" stroke-miterlimit="10"/>
<path d="M12.8871 16.8757L12.887 13.1137L69.4491 13.1068" stroke="white" stroke-width="6.29" stroke-miterlimit="10"/>
<path d="M12.8871 16.8757L12.887 13.1137L69.4491 13.1068" stroke="#AA730D" stroke-width="3.42" stroke-miterlimit="10"/>
<path d="M56.2099 80.7376L31.8074 80.7251L7.46662 56.3843L7.45408 31.9818L31.7927 7.64323H56.2092L80.5485 31.9826V56.3991L56.2099 80.7376Z" fill="#FFF8EB" stroke="#AA730D" stroke-width="7"/>
<path d="M18.1854 75.3328L12.8865 75.3399L12.8865 16.8757" stroke="white" stroke-width="6.29" stroke-miterlimit="10"/>
<path d="M18.1854 75.3328L12.8865 75.3399L12.8865 16.8757" stroke="#AA730D" stroke-width="3.42" stroke-miterlimit="10"/>
<path d="M69.4494 13.1052L75.1133 13.1122L75.1134 75.3382L70.0179 75.3382" stroke="white" stroke-width="6.29" stroke-miterlimit="10"/>
<path d="M69.4494 13.1052L75.1133 13.1122L75.1134 75.3382L70.0179 75.3382" stroke="#AA730D" stroke-width="3.42" stroke-miterlimit="10"/>
<g clip-path="url(#clip0_488_8848)">
<path d="M42.8209 29C44.8036 29.0213 46.6978 29.8116 48.0921 31.1993C49.4865 32.5869 50.2686 34.46 50.2686 36.4118C50.2686 38.3636 49.4865 40.2367 48.0921 41.6244C46.6978 43.012 44.8036 43.8023 42.8209 43.8236C38.6666 43.8316 35.2757 40.4875 35.2829 36.3893C35.2848 35.4168 35.4813 34.4543 35.8612 33.5566C36.241 32.6589 36.7968 31.8437 37.4969 31.1575C38.1969 30.4713 39.0273 29.9276 39.9409 29.5574C40.8544 29.1872 41.833 28.9978 42.8209 29Z" fill="#AA730D"/>
<path d="M44.0012 59H30.6947C29.0464 59 28.0045 57.9832 28 56.366C28 54.7347 28 53.1024 28 51.4711C28 50.4153 28.4779 49.6779 29.4273 49.1934C32.2605 47.7394 35.3313 46.787 38.4995 46.3799C40.3331 46.1414 42.187 46.0931 44.0309 46.2357C44.0497 46.2357 44.0668 46.2534 44.1207 46.2808C44.0354 46.3312 43.9689 46.3781 43.8961 46.4117C41.6216 47.4682 39.7225 49.1737 38.4456 51.3066C37.9004 52.2032 37.9067 53.1007 38.4528 53.9946C39.7109 56.0861 41.5674 57.7663 43.7901 58.825C43.8674 58.863 43.9428 58.9037 44.0192 58.9426L44.0012 59Z" fill="#AA730D"/>
<path d="M49.7571 46.6381C53.3555 46.776 56.546 48.4949 58.7656 51.9247C59.0871 52.4207 59.071 52.8699 58.7656 53.3704C54.454 60.3909 44.0345 60.3874 39.7319 53.3642C39.4238 52.8619 39.4283 52.4163 39.7319 51.9158C41.7359 48.6611 45.3701 46.6389 49.7571 46.6381ZM56.6736 52.6603C53.2728 47.5797 45.5148 47.4745 41.9784 52.419C41.8508 52.5958 41.8535 52.7081 41.9856 52.8752C44.1638 55.6445 47.0157 56.8727 50.5494 56.412C53.1444 56.0804 55.1519 54.7488 56.6754 52.6603H56.6736Z" fill="#AA730D"/>
<path d="M49.1401 55.1069C48.6463 55.1015 48.1652 54.9524 47.7573 54.6784C47.3494 54.4044 47.033 54.0178 46.8479 53.5672C46.6628 53.1166 46.6172 52.6221 46.717 52.146C46.8168 51.67 47.0574 51.2336 47.4085 50.8919C47.7597 50.5501 48.2057 50.3183 48.6904 50.2256C49.1751 50.1328 49.6769 50.1833 50.1325 50.3707C50.5881 50.558 50.9773 50.8739 51.2509 51.2785C51.5246 51.6831 51.6705 52.1583 51.6704 52.6444C51.6705 52.9702 51.605 53.2928 51.4775 53.5935C51.35 53.8942 51.1632 54.1669 50.9278 54.396C50.6925 54.6251 50.4132 54.8059 50.1063 54.9279C49.7995 55.0499 49.471 55.1108 49.1401 55.1069Z" fill="#AA730D"/>
</g>
<defs>
<clipPath id="clip0_488_8848">
<rect width="31" height="30" fill="white" transform="translate(28 29)"/>
</clipPath>
</defs>
</svg>
