<svg width="100" height="156" viewBox="0 0 100 156" fill="none" xmlns="http://www.w3.org/2000/svg">
<rect width="100" height="156" rx="19" fill="#F9FBFF"/>
<path d="M34.6777 109.343V119.003H32.9277V109.343H34.6777ZM39.6098 111.961C39.9272 111.961 40.2678 111.97 40.6318 111.989C41.0052 112.007 41.3692 112.035 41.7239 112.073C42.0785 112.101 42.3958 112.143 42.6758 112.199L42.5639 113.305C42.1158 113.295 41.6678 113.286 41.2198 113.277C40.7812 113.258 40.3472 113.249 39.9178 113.249C39.5352 113.249 39.2318 113.258 39.0078 113.277C38.7932 113.295 38.6392 113.351 38.5458 113.445C38.4618 113.538 38.4198 113.697 38.4198 113.921C38.4198 114.191 38.4945 114.373 38.6438 114.467C38.7932 114.551 39.0358 114.635 39.3718 114.719L41.2478 115.153C41.8078 115.293 42.2232 115.507 42.4939 115.797C42.7645 116.077 42.8998 116.511 42.8998 117.099C42.8998 117.668 42.7925 118.102 42.5778 118.401C42.3725 118.69 42.0412 118.891 41.5838 119.003C41.1358 119.105 40.5618 119.157 39.8618 119.157C39.5912 119.157 39.1898 119.143 38.6578 119.115C38.1258 119.096 37.5425 119.035 36.9078 118.933L37.0198 117.827C37.2065 117.827 37.4258 117.831 37.6778 117.841C37.9392 117.85 38.2145 117.855 38.5038 117.855C38.8025 117.855 39.1058 117.855 39.4138 117.855C39.9085 117.855 40.2865 117.841 40.5478 117.813C40.8185 117.775 41.0052 117.705 41.1079 117.603C41.2105 117.491 41.2618 117.332 41.2618 117.127C41.2618 116.865 41.1732 116.693 40.9958 116.609C40.8278 116.515 40.5758 116.427 40.2398 116.343L38.4058 115.895C37.9858 115.783 37.6592 115.643 37.4258 115.475C37.1925 115.297 37.0245 115.083 36.9218 114.831C36.8192 114.569 36.7678 114.252 36.7678 113.879C36.7678 113.375 36.8612 112.983 37.0478 112.703C37.2438 112.423 37.5472 112.227 37.9578 112.115C38.3778 112.003 38.9285 111.951 39.6098 111.961ZM47.3306 111.961C47.648 111.961 47.9886 111.97 48.3526 111.989C48.726 112.007 49.09 112.035 49.4446 112.073C49.7993 112.101 50.1166 112.143 50.3966 112.199L50.2846 113.305C49.8366 113.295 49.3886 113.286 48.9406 113.277C48.502 113.258 48.068 113.249 47.6386 113.249C47.256 113.249 46.9526 113.258 46.7286 113.277C46.514 113.295 46.36 113.351 46.2666 113.445C46.1826 113.538 46.1406 113.697 46.1406 113.921C46.1406 114.191 46.2153 114.373 46.3646 114.467C46.514 114.551 46.7566 114.635 47.0926 114.719L48.9686 115.153C49.5286 115.293 49.944 115.507 50.2146 115.797C50.4853 116.077 50.6206 116.511 50.6206 117.099C50.6206 117.668 50.5133 118.102 50.2986 118.401C50.0933 118.69 49.762 118.891 49.3046 119.003C48.8566 119.105 48.2826 119.157 47.5826 119.157C47.312 119.157 46.9106 119.143 46.3786 119.115C45.8466 119.096 45.2633 119.035 44.6286 118.933L44.7406 117.827C44.9273 117.827 45.1466 117.831 45.3986 117.841C45.66 117.85 45.9353 117.855 46.2246 117.855C46.5233 117.855 46.8266 117.855 47.1346 117.855C47.6293 117.855 48.0073 117.841 48.2686 117.813C48.5393 117.775 48.726 117.705 48.8286 117.603C48.9313 117.491 48.9826 117.332 48.9826 117.127C48.9826 116.865 48.894 116.693 48.7166 116.609C48.5486 116.515 48.2966 116.427 47.9606 116.343L46.1266 115.895C45.7066 115.783 45.38 115.643 45.1466 115.475C44.9133 115.297 44.7453 115.083 44.6426 114.831C44.54 114.569 44.4886 114.252 44.4886 113.879C44.4886 113.375 44.582 112.983 44.7686 112.703C44.9646 112.423 45.268 112.227 45.6786 112.115C46.0986 112.003 46.6493 111.951 47.3306 111.961ZM54.2254 112.129V116.777C54.2161 117.122 54.2814 117.369 54.4214 117.519C54.5707 117.668 54.8087 117.743 55.1354 117.743C55.4621 117.743 55.7887 117.673 56.1154 117.533C56.4421 117.393 56.8387 117.183 57.3054 116.903L57.4734 117.911C56.9507 118.331 56.4467 118.648 55.9614 118.863C55.4761 119.077 54.9721 119.185 54.4494 119.185C53.1707 119.185 52.5314 118.555 52.5314 117.295V112.129H54.2254ZM58.8314 112.129V119.003H57.4874L57.3054 117.673L57.1374 117.477V112.129H58.8314ZM64.2215 111.961C65.3322 111.961 66.1302 112.157 66.6155 112.549C67.1009 112.931 67.3482 113.501 67.3575 114.257C67.3669 114.882 67.2175 115.358 66.9095 115.685C66.6109 116.002 66.1115 116.161 65.4115 116.161H61.4915V115.111H64.9495C65.2669 115.111 65.4675 115.027 65.5515 114.859C65.6449 114.691 65.6915 114.485 65.6915 114.243C65.6822 113.86 65.5702 113.594 65.3555 113.445C65.1502 113.295 64.7955 113.221 64.2915 113.221C63.8529 113.221 63.5122 113.281 63.2695 113.403C63.0269 113.524 62.8542 113.743 62.7515 114.061C62.6582 114.378 62.6115 114.835 62.6115 115.433C62.6115 116.067 62.6722 116.557 62.7935 116.903C62.9149 117.248 63.1155 117.486 63.3955 117.617C63.6755 117.738 64.0489 117.799 64.5155 117.799C64.8609 117.799 65.2575 117.785 65.7055 117.757C66.1629 117.729 66.6015 117.691 67.0215 117.645L67.1895 118.723C66.9375 118.825 66.6482 118.909 66.3215 118.975C65.9949 119.04 65.6542 119.087 65.2995 119.115C64.9542 119.152 64.6275 119.171 64.3195 119.171C63.4795 119.171 62.8029 119.049 62.2895 118.807C61.7855 118.555 61.4169 118.163 61.1835 117.631C60.9595 117.099 60.8475 116.413 60.8475 115.573C60.8475 114.667 60.9595 113.953 61.1835 113.431C61.4169 112.899 61.7809 112.521 62.2755 112.297C62.7795 112.073 63.4282 111.961 64.2215 111.961ZM34.3463 127.315C34.8317 127.315 35.3263 127.315 35.8303 127.315C36.3437 127.315 36.8477 127.324 37.3423 127.343C37.837 127.361 38.3037 127.389 38.7423 127.427L38.6583 128.729H34.8783C34.617 128.729 34.421 128.794 34.2903 128.925C34.169 129.055 34.1083 129.261 34.1083 129.541V134.805C34.1083 135.085 34.169 135.29 34.2903 135.421C34.421 135.551 34.617 135.617 34.8783 135.617H38.6583L38.7423 136.919C38.3037 136.956 37.837 136.984 37.3423 137.003C36.8477 137.012 36.3437 137.017 35.8303 137.017C35.3263 137.026 34.8317 137.031 34.3463 137.031C33.749 137.031 33.2683 136.867 32.9043 136.541C32.5497 136.205 32.3677 135.757 32.3583 135.197V129.149C32.3677 128.589 32.5497 128.145 32.9043 127.819C33.2683 127.483 33.749 127.315 34.3463 127.315ZM32.6103 131.305H38.1263V132.593H32.6103V131.305ZM45.2427 129.961C46.5214 129.961 47.1607 130.591 47.1607 131.851V137.003H45.4667V132.369C45.4667 131.995 45.4014 131.739 45.2707 131.599C45.1401 131.459 44.9207 131.389 44.6127 131.389C44.2674 131.389 43.9127 131.468 43.5487 131.627C43.1847 131.776 42.7461 131.995 42.2327 132.285L42.1627 131.263C42.6667 130.843 43.1801 130.521 43.7027 130.297C44.2254 130.073 44.7387 129.961 45.2427 129.961ZM42.1067 130.129L42.2747 131.473L42.4147 131.669V137.003H40.7207V130.129H42.1067ZM51.7075 128.169V134.931C51.7075 135.22 51.7682 135.425 51.8895 135.547C52.0202 135.668 52.2395 135.729 52.5475 135.729H53.4995L53.6815 136.919C53.5229 136.965 53.3315 137.007 53.1075 137.045C52.8835 137.082 52.6642 137.105 52.4495 137.115C52.2349 137.133 52.0529 137.143 51.9035 137.143C51.3062 137.143 50.8395 136.984 50.5035 136.667C50.1769 136.34 50.0135 135.873 50.0135 135.267V128.169H51.7075ZM53.7515 130.129V131.305H48.7955V130.199L50.1395 130.129H53.7515ZM56.74 130.129L56.964 131.473L57.118 131.669V137.003H55.424V130.129H56.74ZM60.1 129.961L59.932 131.529H59.442C59.078 131.529 58.7093 131.589 58.336 131.711C57.9627 131.832 57.496 132.014 56.936 132.257L56.824 131.263C57.3093 130.852 57.804 130.535 58.308 130.311C58.812 130.077 59.2973 129.961 59.764 129.961H60.1ZM68.2342 130.129L65.6582 137.213C65.5369 137.539 65.3829 137.861 65.1962 138.179C65.0189 138.505 64.7902 138.799 64.5102 139.061C64.2302 139.322 63.8989 139.527 63.5162 139.677C63.1336 139.826 62.6902 139.882 62.1862 139.845L62.0462 138.837C62.6062 138.678 63.0402 138.463 63.3482 138.193C63.6656 137.922 63.9129 137.577 64.0902 137.157L64.4682 136.261C64.5522 136.055 64.6316 135.822 64.7062 135.561C64.7902 135.29 64.8602 135.057 64.9162 134.861L66.4142 130.129H68.2342ZM62.6902 130.129L64.2162 134.861C64.2629 135.019 64.3049 135.183 64.3422 135.351C64.3796 135.509 64.4122 135.668 64.4402 135.827H64.7902L64.2582 137.003H63.8102C63.6796 137.003 63.5629 136.965 63.4602 136.891C63.3576 136.816 63.2876 136.713 63.2502 136.583L60.8842 130.129H62.6902Z" fill="#B0B24A"/>
<path d="M76.019 81.1159L24.1873 81.1089" stroke="white" stroke-width="6.29" stroke-miterlimit="10"/>
<path d="M76.019 81.1159L24.1873 81.1089" stroke="#B0B34A" stroke-width="3.42" stroke-miterlimit="10"/>
<path d="M18.8871 22.6508L18.8871 18.8889L75.4491 18.8819" stroke="white" stroke-width="6.29" stroke-miterlimit="10"/>
<path d="M18.8871 22.6508L18.8871 18.8889L75.4491 18.8819" stroke="#B0B34A" stroke-width="3.42" stroke-miterlimit="10"/>
<path d="M62.21 86.5128L37.8075 86.5003L13.4667 62.1594L13.4541 37.757L37.7927 13.4184H62.2092L86.5486 37.7577L86.5486 62.1742L62.21 86.5128Z" fill="#FFFFEB" stroke="#B0B24A" stroke-width="7"/>
<path d="M24.1855 81.108L18.8865 81.115L18.8865 22.6509" stroke="white" stroke-width="6.29" stroke-miterlimit="10"/>
<path d="M24.1855 81.108L18.8865 81.115L18.8865 22.6509" stroke="#B0B34A" stroke-width="3.42" stroke-miterlimit="10"/>
<path d="M75.4494 18.8803L81.1133 18.8874L81.1134 81.1134L76.0179 81.1134" stroke="white" stroke-width="6.29" stroke-miterlimit="10"/>
<path d="M75.4494 18.8803L81.1133 18.8874L81.1134 81.1134L76.0179 81.1134" stroke="#B0B34A" stroke-width="3.42" stroke-miterlimit="10"/>
<path d="M55.4354 63.987V46.2193C55.4354 44.8179 56.2634 43.994 57.6699 43.9932C58.4295 43.9932 59.1891 43.9932 59.9487 43.9932C61.1356 43.9998 61.9962 44.8563 61.997 46.0465C62.0009 51.3436 62.0009 56.641 61.997 61.9386C61.997 63.1072 61.1365 63.9778 59.9729 63.9836C58.4712 63.9928 56.9738 63.987 55.4354 63.987Z" fill="#B0B24A"/>
<path d="M53.4212 63.9728H46.4931V63.6247C46.4931 59.1582 46.5148 54.6933 46.4798 50.2251C46.4697 48.8829 47.4681 47.9255 48.7201 47.9848C49.5924 48.0257 50.4688 47.9848 51.3436 47.9931C52.5406 48.0006 53.4304 48.8662 53.4304 50.0557C53.4371 54.6266 53.4371 59.1974 53.4304 63.7683C53.4321 63.8284 53.4254 63.8893 53.4212 63.9728Z" fill="#B0B24A"/>
<path d="M44.474 51.0056V63.9628C42.8697 63.9628 41.2771 64.0263 39.6936 63.9394C38.692 63.8843 38.0067 62.9904 38.0042 61.977C37.9986 58.9899 37.9986 56.0027 38.0042 53.0156C38.0042 51.8654 38.8731 50.9998 40.02 50.9931C41.4248 50.9856 42.8305 50.9931 44.2353 50.9931C44.3062 50.9923 44.378 50.9998 44.474 51.0056Z" fill="#B0B24A"/>
<path d="M52.9313 39.7204C52.6375 40.0935 52.3554 40.4775 52.0482 40.8397C50.1242 43.1035 47.7286 44.727 45.0366 45.9198C44.1552 46.3096 43.2337 46.6092 42.3238 46.9306C42.1462 46.9874 41.9568 46.9966 41.7746 46.9573C41.5586 46.9115 41.3645 46.7936 41.2244 46.6229C41.0842 46.4523 41.0063 46.2391 41.0033 46.0183C40.9933 45.5692 41.2754 45.1986 41.7237 45.0341C42.6585 44.6911 43.6134 44.3889 44.5191 43.9782C47.0349 42.8338 49.2394 41.2663 50.9322 39.0451C51.1709 38.7321 51.3846 38.4007 51.6617 38.0034H51.2619C50.731 38.0034 50.2001 38.0034 49.6701 37.9925C49.4068 37.9912 49.1548 37.8854 48.9695 37.6983C48.7842 37.5113 48.6807 37.2583 48.6818 36.995C48.6801 36.864 48.7047 36.7339 48.754 36.6125C48.8034 36.4911 48.8766 36.3808 48.9692 36.288C49.0618 36.1953 49.1721 36.1221 49.2935 36.0726C49.4148 36.0232 49.5449 35.9985 49.6759 36.0001C51.1122 36.0034 52.5482 36.0179 53.9839 36.0435C54.5348 36.0535 54.9388 36.4425 54.9496 36.9875C54.978 38.4021 54.9925 39.8175 54.9931 41.2337C54.9924 41.3644 54.9657 41.4936 54.9144 41.6137C54.863 41.7339 54.7882 41.8425 54.6942 41.9333C54.6003 42.0241 54.4891 42.0951 54.3672 42.1423C54.2454 42.1894 54.1153 42.2117 53.9847 42.2078C53.726 42.2063 53.4781 42.1035 53.2943 41.9214C53.1105 41.7393 53.0054 41.4924 53.0014 41.2337C52.9881 40.7329 53.0014 40.2387 53.0014 39.7404L52.9313 39.7204Z" fill="#B0B24A"/>
</svg>
