<svg width="100" height="156" viewBox="0 0 100 156" fill="none" xmlns="http://www.w3.org/2000/svg">
<rect width="100" height="156" rx="19" fill="#F9FBFF"/>
<path d="M25.4135 109.343V117.043C25.4135 117.733 25.2315 118.256 24.8675 118.611C24.5128 118.965 24.0041 119.143 23.3415 119.143C23.2015 119.143 23.0288 119.133 22.8235 119.115C22.6181 119.105 22.4221 119.082 22.2355 119.045C22.0488 119.007 21.8948 118.965 21.7735 118.919L21.9695 117.743H22.6555C23.3368 117.743 23.6775 117.444 23.6775 116.847V109.343H25.4135ZM30.893 111.961C32.0037 111.961 32.8017 112.157 33.287 112.549C33.7724 112.931 34.0197 113.501 34.029 114.257C34.0384 114.882 33.889 115.358 33.581 115.685C33.2824 116.002 32.783 116.161 32.083 116.161H28.163V115.111H31.621C31.9384 115.111 32.139 115.027 32.223 114.859C32.3164 114.691 32.363 114.485 32.363 114.243C32.3537 113.86 32.2417 113.594 32.027 113.445C31.8217 113.295 31.467 113.221 30.963 113.221C30.5244 113.221 30.1837 113.281 29.941 113.403C29.6984 113.524 29.5257 113.743 29.423 114.061C29.3297 114.378 29.283 114.835 29.283 115.433C29.283 116.067 29.3437 116.557 29.465 116.903C29.5864 117.248 29.787 117.486 30.067 117.617C30.347 117.738 30.7204 117.799 31.187 117.799C31.5324 117.799 31.929 117.785 32.377 117.757C32.8344 117.729 33.273 117.691 33.693 117.645L33.861 118.723C33.609 118.825 33.3197 118.909 32.993 118.975C32.6664 119.04 32.3257 119.087 31.971 119.115C31.6257 119.152 31.299 119.171 30.991 119.171C30.151 119.171 29.4744 119.049 28.961 118.807C28.457 118.555 28.0884 118.163 27.855 117.631C27.631 117.099 27.519 116.413 27.519 115.573C27.519 114.667 27.631 113.953 27.855 113.431C28.0884 112.899 28.4524 112.521 28.947 112.297C29.451 112.073 30.0997 111.961 30.893 111.961ZM46.472 112.129L44.652 118.555C44.6147 118.685 44.54 118.793 44.428 118.877C44.316 118.961 44.1853 119.003 44.036 119.003H42.678C42.5287 119.003 42.3933 118.956 42.272 118.863C42.1507 118.769 42.0807 118.643 42.062 118.485L41.152 114.271C41.1147 114.084 41.082 113.897 41.054 113.711C41.0353 113.524 41.0073 113.337 40.97 113.151H40.788C40.76 113.337 40.7273 113.524 40.69 113.711C40.662 113.897 40.6293 114.084 40.592 114.271L39.696 118.485C39.668 118.643 39.5933 118.769 39.472 118.863C39.36 118.956 39.2247 119.003 39.066 119.003H37.722C37.5727 119.003 37.442 118.961 37.33 118.877C37.218 118.793 37.148 118.685 37.12 118.555L35.286 112.129H37.008L38.156 116.847C38.1933 117.024 38.226 117.206 38.254 117.393C38.2913 117.57 38.324 117.747 38.352 117.925H38.52C38.5667 117.747 38.604 117.57 38.632 117.393C38.6693 117.206 38.7067 117.024 38.744 116.847L39.654 112.647C39.682 112.497 39.7473 112.376 39.85 112.283C39.962 112.18 40.102 112.129 40.27 112.129H41.502C41.6513 112.129 41.782 112.18 41.894 112.283C42.006 112.376 42.076 112.502 42.104 112.661L43.014 116.847C43.042 117.024 43.0747 117.201 43.112 117.379C43.1587 117.556 43.196 117.738 43.224 117.925H43.392C43.4293 117.738 43.462 117.561 43.49 117.393C43.518 117.215 43.5553 117.033 43.602 116.847L44.75 112.129H46.472ZM51.1334 111.961C52.2441 111.961 53.0421 112.157 53.5274 112.549C54.0128 112.931 54.2601 113.501 54.2694 114.257C54.2788 114.882 54.1294 115.358 53.8214 115.685C53.5228 116.002 53.0234 116.161 52.3234 116.161H48.4034V115.111H51.8614C52.1788 115.111 52.3794 115.027 52.4634 114.859C52.5568 114.691 52.6034 114.485 52.6034 114.243C52.5941 113.86 52.4821 113.594 52.2674 113.445C52.0621 113.295 51.7074 113.221 51.2034 113.221C50.7648 113.221 50.4241 113.281 50.1814 113.403C49.9388 113.524 49.7661 113.743 49.6634 114.061C49.5701 114.378 49.5234 114.835 49.5234 115.433C49.5234 116.067 49.5841 116.557 49.7054 116.903C49.8268 117.248 50.0274 117.486 50.3074 117.617C50.5874 117.738 50.9608 117.799 51.4274 117.799C51.7728 117.799 52.1694 117.785 52.6174 117.757C53.0748 117.729 53.5134 117.691 53.9334 117.645L54.1014 118.723C53.8494 118.825 53.5601 118.909 53.2334 118.975C52.9068 119.04 52.5661 119.087 52.2114 119.115C51.8661 119.152 51.5394 119.171 51.2314 119.171C50.3914 119.171 49.7148 119.049 49.2014 118.807C48.6974 118.555 48.3288 118.163 48.0954 117.631C47.8714 117.099 47.7594 116.413 47.7594 115.573C47.7594 114.667 47.8714 113.953 48.0954 113.431C48.3288 112.899 48.6928 112.521 49.1874 112.297C49.6914 112.073 50.3401 111.961 51.1334 111.961ZM57.92 109.203L57.906 116.931C57.906 117.192 57.9807 117.393 58.13 117.533C58.2794 117.663 58.494 117.729 58.774 117.729H59.376L59.572 118.919C59.4694 118.965 59.3247 119.007 59.138 119.045C58.9607 119.082 58.774 119.105 58.578 119.115C58.3914 119.133 58.228 119.143 58.088 119.143C57.5187 119.143 57.066 118.989 56.73 118.681C56.394 118.373 56.226 117.929 56.226 117.351V109.203H57.92ZM70.468 112.129L68.102 118.597C68.0553 118.718 67.9806 118.816 67.878 118.891C67.7846 118.965 67.668 119.003 67.528 119.003H66.044C65.9133 119.003 65.7966 118.965 65.694 118.891C65.5913 118.816 65.5166 118.718 65.47 118.597L63.104 112.129H64.91L66.352 116.637C66.4173 116.842 66.478 117.052 66.534 117.267C66.59 117.472 66.6413 117.673 66.688 117.869H66.87C66.9353 117.663 66.996 117.458 67.052 117.253C67.1173 117.047 67.178 116.842 67.234 116.637L68.676 112.129H70.468ZM74.4696 111.961C74.7869 111.961 75.1276 111.97 75.4916 111.989C75.8649 112.007 76.2289 112.035 76.5836 112.073C76.9382 112.101 77.2556 112.143 77.5356 112.199L77.4236 113.305C76.9756 113.295 76.5276 113.286 76.0796 113.277C75.6409 113.258 75.2069 113.249 74.7776 113.249C74.3949 113.249 74.0916 113.258 73.8676 113.277C73.6529 113.295 73.4989 113.351 73.4056 113.445C73.3216 113.538 73.2796 113.697 73.2796 113.921C73.2796 114.191 73.3542 114.373 73.5036 114.467C73.6529 114.551 73.8956 114.635 74.2316 114.719L76.1076 115.153C76.6676 115.293 77.0829 115.507 77.3536 115.797C77.6242 116.077 77.7596 116.511 77.7596 117.099C77.7596 117.668 77.6522 118.102 77.4376 118.401C77.2322 118.69 76.9009 118.891 76.4436 119.003C75.9956 119.105 75.4216 119.157 74.7216 119.157C74.4509 119.157 74.0496 119.143 73.5176 119.115C72.9856 119.096 72.4022 119.035 71.7676 118.933L71.8796 117.827C72.0662 117.827 72.2856 117.831 72.5376 117.841C72.7989 117.85 73.0742 117.855 73.3636 117.855C73.6622 117.855 73.9656 117.855 74.2736 117.855C74.7682 117.855 75.1462 117.841 75.4076 117.813C75.6782 117.775 75.8649 117.705 75.9676 117.603C76.0702 117.491 76.1216 117.332 76.1216 117.127C76.1216 116.865 76.0329 116.693 75.8556 116.609C75.6876 116.515 75.4356 116.427 75.0996 116.343L73.2656 115.895C72.8456 115.783 72.5189 115.643 72.2856 115.475C72.0522 115.297 71.8842 115.083 71.7816 114.831C71.6789 114.569 71.6276 114.252 71.6276 113.879C71.6276 113.375 71.7209 112.983 71.9076 112.703C72.1036 112.423 72.4069 112.227 72.8176 112.115C73.2376 112.003 73.7882 111.951 74.4696 111.961ZM20.6385 127.217C21.4878 127.217 22.1551 127.31 22.6405 127.497C23.1258 127.674 23.4711 127.987 23.6765 128.435C23.8911 128.873 23.9985 129.499 23.9985 130.311C23.9985 131.123 23.8958 131.753 23.6905 132.201C23.4945 132.649 23.1631 132.961 22.6965 133.139C22.2391 133.316 21.6278 133.405 20.8625 133.405C20.4425 133.405 20.0365 133.391 19.6445 133.363C19.2618 133.335 18.9025 133.297 18.5665 133.251C18.2398 133.204 17.9598 133.157 17.7265 133.111C17.4931 133.055 17.3298 133.008 17.2365 132.971L17.2785 132.033C17.8105 132.033 18.3565 132.033 18.9165 132.033C19.4858 132.033 20.0505 132.033 20.6105 132.033C21.0211 132.023 21.3431 131.972 21.5765 131.879C21.8191 131.785 21.9871 131.617 22.0805 131.375C22.1831 131.123 22.2345 130.768 22.2345 130.311C22.2345 129.853 22.1831 129.503 22.0805 129.261C21.9871 129.009 21.8191 128.836 21.5765 128.743C21.3431 128.64 21.0211 128.589 20.6105 128.589C19.7891 128.589 19.0845 128.593 18.4965 128.603C17.9085 128.612 17.5071 128.626 17.2925 128.645L17.0965 127.343C17.4698 127.305 17.8198 127.277 18.1465 127.259C18.4825 127.24 18.8418 127.231 19.2245 127.231C19.6165 127.221 20.0878 127.217 20.6385 127.217ZM18.8465 127.343V137.003H17.0965V127.343H18.8465ZM33.2167 127.343L30.5707 131.277C30.4774 131.426 30.3794 131.557 30.2767 131.669C30.1741 131.771 30.0621 131.869 29.9407 131.963V132.005C30.0714 132.098 30.2021 132.21 30.3327 132.341C30.4634 132.471 30.5707 132.611 30.6547 132.761L33.3987 137.003H31.4387L28.2607 131.949L31.3127 127.343H33.2167ZM27.7567 127.343V130.199C27.7567 130.497 27.7334 130.791 27.6867 131.081C27.6494 131.37 27.5887 131.659 27.5047 131.949C27.5701 132.219 27.6261 132.499 27.6727 132.789C27.7287 133.069 27.7567 133.339 27.7567 133.601V137.003H26.0067V127.343H27.7567ZM28.9887 131.333V132.607H27.1967V131.333H28.9887ZM41.9555 127.217C42.7581 127.217 43.4068 127.301 43.9015 127.469C44.4055 127.637 44.7695 127.926 44.9935 128.337C45.2268 128.738 45.3435 129.307 45.3435 130.045C45.3435 130.53 45.2828 130.945 45.1615 131.291C45.0495 131.627 44.8581 131.897 44.5875 132.103C44.3261 132.299 43.9715 132.425 43.5235 132.481V132.551C43.6821 132.588 43.8455 132.663 44.0135 132.775C44.1908 132.877 44.3495 133.027 44.4895 133.223C44.6388 133.419 44.7508 133.671 44.8255 133.979L45.7075 137.003H43.8595L43.0615 134.021C42.9588 133.685 42.8188 133.451 42.6415 133.321C42.4641 133.181 42.2215 133.111 41.9135 133.111C41.3068 133.111 40.7888 133.111 40.3595 133.111C39.9301 133.101 39.5708 133.092 39.2815 133.083C39.0015 133.073 38.7541 133.069 38.5395 133.069L38.5815 131.739H41.9135C42.3335 131.729 42.6648 131.683 42.9075 131.599C43.1501 131.505 43.3228 131.347 43.4255 131.123C43.5281 130.889 43.5795 130.563 43.5795 130.143C43.5795 129.732 43.5281 129.415 43.4255 129.191C43.3228 128.967 43.1501 128.813 42.9075 128.729C42.6648 128.635 42.3335 128.589 41.9135 128.589C41.0921 128.589 40.3875 128.593 39.7995 128.603C39.2115 128.612 38.8101 128.621 38.5955 128.631L38.3995 127.343C38.7728 127.305 39.1228 127.277 39.4495 127.259C39.7855 127.24 40.1495 127.231 40.5415 127.231C40.9335 127.221 41.4048 127.217 41.9555 127.217ZM40.1215 127.343V137.003H38.3995V127.343H40.1215ZM50.5778 129.961C51.6885 129.961 52.4865 130.157 52.9718 130.549C53.4571 130.931 53.7045 131.501 53.7138 132.257C53.7231 132.882 53.5738 133.358 53.2658 133.685C52.9671 134.002 52.4678 134.161 51.7678 134.161H47.8478V133.111H51.3058C51.6231 133.111 51.8238 133.027 51.9078 132.859C52.0011 132.691 52.0478 132.485 52.0478 132.243C52.0385 131.86 51.9265 131.594 51.7118 131.445C51.5065 131.295 51.1518 131.221 50.6478 131.221C50.2091 131.221 49.8685 131.281 49.6258 131.403C49.3831 131.524 49.2105 131.743 49.1078 132.061C49.0145 132.378 48.9678 132.835 48.9678 133.433C48.9678 134.067 49.0285 134.557 49.1498 134.903C49.2711 135.248 49.4718 135.486 49.7518 135.617C50.0318 135.738 50.4051 135.799 50.8718 135.799C51.2171 135.799 51.6138 135.785 52.0618 135.757C52.5191 135.729 52.9578 135.691 53.3778 135.645L53.5458 136.723C53.2938 136.825 53.0045 136.909 52.6778 136.975C52.3511 137.04 52.0105 137.087 51.6558 137.115C51.3105 137.152 50.9838 137.171 50.6758 137.171C49.8358 137.171 49.1591 137.049 48.6458 136.807C48.1418 136.555 47.7731 136.163 47.5398 135.631C47.3158 135.099 47.2038 134.413 47.2038 133.573C47.2038 132.667 47.3158 131.953 47.5398 131.431C47.7731 130.899 48.1371 130.521 48.6318 130.297C49.1358 130.073 49.7845 129.961 50.5778 129.961ZM59.9264 129.961C60.7758 129.961 61.3871 130.273 61.7604 130.899C62.1338 131.524 62.3204 132.429 62.3204 133.615C62.3204 134.52 62.2224 135.234 62.0264 135.757C61.8398 136.27 61.5551 136.639 61.1724 136.863C60.7898 137.077 60.3044 137.185 59.7164 137.185C59.2498 137.185 58.7924 137.119 58.3444 136.989C57.9058 136.849 57.4998 136.634 57.1264 136.345L57.2384 135.505C57.6024 135.607 57.9291 135.696 58.2184 135.771C58.5078 135.845 58.8251 135.883 59.1704 135.883C59.5158 135.883 59.7864 135.827 59.9824 135.715C60.1878 135.593 60.3371 135.369 60.4304 135.043C60.5238 134.716 60.5704 134.245 60.5704 133.629C60.5704 133.022 60.5284 132.551 60.4444 132.215C60.3604 131.879 60.2204 131.645 60.0244 131.515C59.8378 131.375 59.5904 131.305 59.2824 131.305C58.9464 131.305 58.6291 131.379 58.3304 131.529C58.0318 131.669 57.6864 131.879 57.2944 132.159L57.0984 131.263C57.3131 131.011 57.5698 130.787 57.8684 130.591C58.1764 130.395 58.5078 130.241 58.8624 130.129C59.2171 130.017 59.5718 129.961 59.9264 129.961ZM57.0284 130.129L57.1964 131.459L57.3504 131.655V136.093L57.2804 136.261C57.3084 136.531 57.3271 136.802 57.3364 137.073C57.3458 137.353 57.3504 137.637 57.3504 137.927V139.733H55.6564V130.129H57.0284ZM67.4696 129.961C68.3096 129.961 68.9769 130.077 69.4716 130.311C69.9756 130.544 70.3349 130.927 70.5496 131.459C70.7736 131.991 70.8856 132.695 70.8856 133.573C70.8856 134.45 70.7736 135.155 70.5496 135.687C70.3349 136.209 69.9756 136.592 69.4716 136.835C68.9769 137.068 68.3096 137.185 67.4696 137.185C66.6482 137.185 65.9856 137.068 65.4816 136.835C64.9869 136.592 64.6276 136.209 64.4036 135.687C64.1796 135.155 64.0676 134.45 64.0676 133.573C64.0676 132.695 64.1796 131.991 64.4036 131.459C64.6276 130.927 64.9869 130.544 65.4816 130.311C65.9856 130.077 66.6482 129.961 67.4696 129.961ZM67.4696 131.249C67.0589 131.249 66.7322 131.319 66.4896 131.459C66.2562 131.589 66.0882 131.823 65.9856 132.159C65.8829 132.495 65.8316 132.966 65.8316 133.573C65.8316 134.179 65.8829 134.651 65.9856 134.987C66.0882 135.323 66.2562 135.556 66.4896 135.687C66.7322 135.817 67.0589 135.883 67.4696 135.883C67.8896 135.883 68.2209 135.817 68.4636 135.687C68.7062 135.556 68.8742 135.323 68.9676 134.987C69.0702 134.651 69.1216 134.179 69.1216 133.573C69.1216 132.966 69.0702 132.495 68.9676 132.159C68.8742 131.823 68.7062 131.589 68.4636 131.459C68.2209 131.319 67.8896 131.249 67.4696 131.249ZM74.2187 130.129L74.4427 131.473L74.5967 131.669V137.003H72.9027V130.129H74.2187ZM77.5787 129.961L77.4107 131.529H76.9207C76.5567 131.529 76.188 131.589 75.8147 131.711C75.4413 131.832 74.9747 132.014 74.4147 132.257L74.3027 131.263C74.788 130.852 75.2827 130.535 75.7867 130.311C76.2907 130.077 76.776 129.961 77.2427 129.961H77.5787ZM81.4149 128.169V134.931C81.4149 135.22 81.4756 135.425 81.5969 135.547C81.7276 135.668 81.9469 135.729 82.2549 135.729H83.2069L83.3889 136.919C83.2302 136.965 83.0389 137.007 82.8149 137.045C82.5909 137.082 82.3716 137.105 82.1569 137.115C81.9422 137.133 81.7602 137.143 81.6109 137.143C81.0136 137.143 80.5469 136.984 80.2109 136.667C79.8842 136.34 79.7209 135.873 79.7209 135.267V128.169H81.4149ZM83.4589 130.129V131.305H78.5029V130.199L79.8469 130.129H83.4589Z" fill="#994E77"/>
<path d="M76.0185 81.1159L24.1868 81.1089" stroke="white" stroke-width="6.29" stroke-miterlimit="10"/>
<path d="M76.0185 81.1159L24.1868 81.1089" stroke="#994E77" stroke-width="3.42" stroke-miterlimit="10"/>
<path d="M18.8864 22.6508L18.8864 18.8889L75.4485 18.8819" stroke="white" stroke-width="6.29" stroke-miterlimit="10"/>
<path d="M18.8864 22.6508L18.8864 18.8889L75.4485 18.8819" stroke="#994E77" stroke-width="3.42" stroke-miterlimit="10"/>
<path d="M62.2095 86.5128L37.807 86.5003L13.4662 62.1594L13.4537 37.757L37.7922 13.4184H62.2087L86.5481 37.7577V62.1742L62.2095 86.5128Z" fill="#F3F0FF" stroke="#994E77" stroke-width="7"/>
<path d="M24.1852 81.108L18.8862 81.115L18.8862 22.6509" stroke="white" stroke-width="6.29" stroke-miterlimit="10"/>
<path d="M24.1852 81.108L18.8862 81.115L18.8862 22.6509" stroke="#994E77" stroke-width="3.42" stroke-miterlimit="10"/>
<path d="M75.4489 18.8803L81.1128 18.8874L81.1129 81.1134L76.0174 81.1134" stroke="white" stroke-width="6.29" stroke-miterlimit="10"/>
<path d="M75.4489 18.8803L81.1128 18.8874L81.1129 81.1134L76.0174 81.1134" stroke="#994E77" stroke-width="3.42" stroke-miterlimit="10"/>
<path d="M56.9071 36.4859C56.9071 37.5192 56.9071 38.512 56.9071 39.5C56.9071 40.6861 57.6014 41.3765 58.7952 41.378C59.6783 41.378 60.5615 41.378 61.4446 41.378H61.7953V60.4617C61.7953 61.1856 61.468 61.5137 60.748 61.5137H43.0545C42.3649 61.5137 42.0298 61.184 42.0298 60.5006V37.4974C42.0298 36.8444 42.3711 36.4844 42.9992 36.4844C47.5473 36.4844 52.0958 36.4844 56.6445 36.4844L56.9071 36.4859ZM56.4356 52.7004C56.4356 54.1966 56.4356 55.693 56.4356 57.1896C56.4356 57.5263 56.5136 57.6026 56.8447 57.605C57.2531 57.6081 57.6611 57.6081 58.0689 57.605C58.3806 57.605 58.4788 57.5138 58.4788 57.2153C58.4788 54.2132 58.4788 51.2108 58.4788 48.2081C58.4788 47.9392 58.3557 47.8138 58.0892 47.8146C57.6902 47.8146 57.292 47.8146 56.8938 47.8146C56.5042 47.8146 56.4263 47.8925 56.4263 48.2712C56.4294 49.7466 56.4325 51.223 56.4356 52.7004ZM54.7868 53.641C54.7868 52.4643 54.7868 51.2882 54.7868 50.1125C54.7868 49.7471 54.7034 49.6668 54.3418 49.6653C53.9343 49.6653 53.526 49.6692 53.1176 49.6653C52.862 49.6653 52.7381 49.7759 52.7381 50.03C52.7381 52.4311 52.7381 54.8316 52.7381 57.2317C52.7381 57.5029 52.8683 57.6143 53.1356 57.6081C53.5252 57.5995 53.9148 57.6081 54.3044 57.6081C54.7198 57.6081 54.7899 57.538 54.7907 57.1148C54.7891 55.9564 54.7878 54.7984 54.7868 53.641ZM55.0011 44.5589C54.4551 45.3739 53.7975 46.1084 53.0475 46.7408C50.9311 48.5424 48.4624 49.5421 45.7382 49.9567C45.407 50.0074 45.2504 50.1796 45.2933 50.4445C45.3322 50.69 45.5418 50.8232 45.8512 50.7609C46.5642 50.6191 47.285 50.4998 47.9824 50.3019C50.836 49.4907 53.2898 48.0421 55.1748 45.709C55.2995 45.5532 55.4172 45.3974 55.5769 45.1909C55.5956 45.342 55.6089 45.4246 55.6151 45.5088C55.64 45.8517 55.7873 46.0192 56.053 46.0036C56.3188 45.988 56.4504 45.7987 56.4286 45.4581C56.399 44.9828 56.3593 44.509 56.3281 44.0337C56.2993 43.5973 56.1146 43.4461 55.679 43.5459C55.1873 43.6573 54.6995 43.7874 54.214 43.9215C53.9584 43.9916 53.8291 44.2098 53.8891 44.4241C53.9491 44.6384 54.1548 44.7584 54.4205 44.7062C54.5896 44.6703 54.7556 44.622 55.0011 44.5604V44.5589ZM51.0854 54.5675C51.0854 53.6846 51.0854 52.8017 51.0854 51.9181C51.0854 51.5923 51.0145 51.5206 50.6911 51.5167C50.2648 51.5121 49.8378 51.5167 49.4108 51.5167C49.1552 51.5167 49.0391 51.6414 49.0391 51.8923C49.0391 53.668 49.0391 55.4436 49.0391 57.2192C49.0391 57.4826 49.156 57.6089 49.4287 57.6089C49.8355 57.6019 50.2438 57.6089 50.6513 57.6089C51.0222 57.6089 51.0861 57.5426 51.0869 57.1624C51.0869 56.2951 51.0854 55.4332 51.0854 54.5675ZM45.3533 55.4737C45.3533 56.0566 45.3572 56.6426 45.3533 57.2216C45.3533 57.4928 45.4725 57.6112 45.7429 57.6112C46.1707 57.605 46.6 57.6057 47.0247 57.6112C47.2982 57.6112 47.405 57.4818 47.4042 57.2169C47.3995 56.0615 47.3995 54.9062 47.4042 53.7508C47.4042 53.4789 47.2788 53.3612 47.0146 53.3612C46.5969 53.3612 46.1793 53.3612 45.7624 53.3612C45.4429 53.3612 45.3587 53.4547 45.3572 53.7867C45.3517 54.3477 45.3533 54.9111 45.3533 55.4737ZM49.1108 41.2035H45.587C45.4998 41.2035 45.4117 41.2035 45.3252 41.2081C45.1016 41.2307 44.9667 41.3585 44.9504 41.5814C44.934 41.8222 45.0727 41.9617 45.2995 42.01C45.3859 42.0221 45.4734 42.0252 45.5605 42.0193C47.9294 42.0193 50.2986 42.0193 52.668 42.0193C52.7741 42.0252 52.8805 42.0169 52.9844 41.9944C53.0765 41.975 53.1579 41.9215 53.2122 41.8446C53.2665 41.7677 53.2898 41.6732 53.2774 41.5798C53.2749 41.4861 53.2378 41.3966 53.1732 41.3286C53.1085 41.2607 53.021 41.2191 52.9275 41.212C52.8405 41.2032 52.753 41.2006 52.6657 41.2042L49.1108 41.2035ZM47.486 43.1742C46.8175 43.1742 46.1481 43.1742 45.4795 43.1742C45.1249 43.1742 44.9512 43.3074 44.9465 43.5692C44.9418 43.8311 45.1265 43.9877 45.4639 43.9885C46.8213 43.9926 48.1788 43.9926 49.5362 43.9885C49.8596 43.9885 50.0326 43.8373 50.0373 43.5848C50.042 43.3207 49.8666 43.1765 49.523 43.175C48.8443 43.1726 48.1648 43.1742 47.486 43.1742Z" fill="#994E77"/>
<path d="M58.8227 62.3303C58.8227 62.8173 58.8461 63.2732 58.8157 63.7252C58.7877 64.135 58.4261 64.4475 58.0131 64.481C57.9165 64.4888 57.8191 64.481 57.7217 64.481H40.1677C39.3697 64.481 39.0596 64.1693 39.0596 63.3706V40.5715C39.0596 39.7525 39.3596 39.4564 40.1879 39.4564H41.2126V39.846C41.2126 46.7371 41.2126 53.6282 41.2126 60.5194C41.2126 61.4467 41.7308 62.1277 42.5732 62.2999C42.7457 62.3279 42.9206 62.3384 43.0953 62.3311C48.2076 62.3311 53.3202 62.3311 58.4331 62.3311L58.8227 62.3303Z" fill="#994E77"/>
<path d="M57.7233 36.667L61.6196 40.5515C61.5962 40.5515 61.5237 40.5609 61.4512 40.5616C60.5489 40.5616 59.6465 40.5616 58.7441 40.5616C58.0701 40.5616 57.7249 40.2118 57.7241 39.5369C57.7226 38.5676 57.7233 37.599 57.7233 36.667Z" fill="#994E77"/>
</svg>
