<svg width="88" height="145" viewBox="0 0 88 145" fill="none" xmlns="http://www.w3.org/2000/svg">
<path d="M17.6575 103.79V111.21C17.6575 111.48 17.7275 111.686 17.8675 111.826C18.0169 111.956 18.2269 112.022 18.4975 112.022H21.9135L21.9975 113.352C21.3629 113.408 20.7002 113.44 20.0095 113.45C19.3282 113.468 18.6515 113.478 17.9795 113.478C17.2702 113.478 16.7475 113.296 16.4115 112.932C16.0849 112.568 15.9215 112.106 15.9215 111.546V103.79H17.6575ZM26.147 106.408C26.987 106.408 27.6543 106.524 28.149 106.758C28.653 106.991 29.0123 107.374 29.227 107.906C29.451 108.438 29.563 109.142 29.563 110.02C29.563 110.897 29.451 111.602 29.227 112.134C29.0123 112.656 28.653 113.039 28.149 113.282C27.6543 113.515 26.987 113.632 26.147 113.632C25.3257 113.632 24.663 113.515 24.159 113.282C23.6643 113.039 23.305 112.656 23.081 112.134C22.857 111.602 22.745 110.897 22.745 110.02C22.745 109.142 22.857 108.438 23.081 107.906C23.305 107.374 23.6643 106.991 24.159 106.758C24.663 106.524 25.3257 106.408 26.147 106.408ZM26.147 107.696C25.7363 107.696 25.4097 107.766 25.167 107.906C24.9337 108.036 24.7657 108.27 24.663 108.606C24.5603 108.942 24.509 109.413 24.509 110.02C24.509 110.626 24.5603 111.098 24.663 111.434C24.7657 111.77 24.9337 112.003 25.167 112.134C25.4097 112.264 25.7363 112.33 26.147 112.33C26.567 112.33 26.8983 112.264 27.141 112.134C27.3837 112.003 27.5517 111.77 27.645 111.434C27.7477 111.098 27.799 110.626 27.799 110.02C27.799 109.413 27.7477 108.942 27.645 108.606C27.5517 108.27 27.3837 108.036 27.141 107.906C26.8983 107.766 26.567 107.696 26.147 107.696ZM33.2607 104.616V111.378C33.2607 111.667 33.3214 111.872 33.4427 111.994C33.5734 112.115 33.7927 112.176 34.1007 112.176H35.0527L35.2347 113.366C35.0761 113.412 34.8847 113.454 34.6607 113.492C34.4367 113.529 34.2174 113.552 34.0027 113.562C33.7881 113.58 33.6061 113.59 33.4567 113.59C32.8594 113.59 32.3927 113.431 32.0567 113.114C31.7301 112.787 31.5667 112.32 31.5667 111.714V104.616H33.2607ZM35.3047 106.576V107.752H30.3487V106.646L31.6927 106.576H35.3047ZM43.4977 109.32V110.468H39.2837V109.32H43.4977ZM51.8901 103.664C52.6181 103.664 53.2341 103.748 53.7381 103.916C54.2515 104.074 54.6622 104.345 54.9702 104.728C55.2875 105.101 55.5161 105.61 55.6561 106.254C55.7962 106.888 55.8662 107.677 55.8662 108.62C55.8662 109.562 55.7962 110.356 55.6561 111C55.5161 111.634 55.2875 112.143 54.9702 112.526C54.6622 112.899 54.2515 113.17 53.7381 113.338C53.2341 113.496 52.6181 113.576 51.8901 113.576C51.1901 113.576 50.5415 113.562 49.9441 113.534C49.3468 113.515 48.7821 113.487 48.2501 113.45L48.9781 112.106C49.3515 112.124 49.7808 112.143 50.2661 112.162C50.7515 112.171 51.2928 112.176 51.8901 112.176C52.4315 112.176 52.8561 112.073 53.1642 111.868C53.4815 111.653 53.7055 111.289 53.8361 110.776C53.9668 110.253 54.0321 109.534 54.0321 108.62C54.0321 107.705 53.9668 106.991 53.8361 106.478C53.7055 105.955 53.4815 105.586 53.1642 105.372C52.8561 105.157 52.4315 105.05 51.8901 105.05C51.3115 105.05 50.7935 105.054 50.3361 105.064C49.8881 105.073 49.4495 105.078 49.0201 105.078L48.2501 103.79C48.7821 103.752 49.3421 103.724 49.9301 103.706C50.5275 103.678 51.1808 103.664 51.8901 103.664ZM50.0001 103.79V113.45H48.2501V103.79H50.0001ZM61.0994 103.664C61.9487 103.664 62.6161 103.757 63.1014 103.944C63.5867 104.121 63.9321 104.434 64.1374 104.882C64.3521 105.32 64.4594 105.946 64.4594 106.758C64.4594 107.57 64.3567 108.2 64.1514 108.648C63.9554 109.096 63.6241 109.408 63.1574 109.586C62.7001 109.763 62.0887 109.852 61.3234 109.852C60.9034 109.852 60.4974 109.838 60.1054 109.81C59.7227 109.782 59.3634 109.744 59.0274 109.698C58.7007 109.651 58.4207 109.604 58.1874 109.558C57.9541 109.502 57.7907 109.455 57.6974 109.418L57.7394 108.48C58.2714 108.48 58.8174 108.48 59.3774 108.48C59.9467 108.48 60.5114 108.48 61.0714 108.48C61.4821 108.47 61.8041 108.419 62.0374 108.326C62.2801 108.232 62.4481 108.064 62.5414 107.822C62.6441 107.57 62.6954 107.215 62.6954 106.758C62.6954 106.3 62.6441 105.95 62.5414 105.708C62.4481 105.456 62.2801 105.283 62.0374 105.19C61.8041 105.087 61.4821 105.036 61.0714 105.036C60.2501 105.036 59.5454 105.04 58.9574 105.05C58.3694 105.059 57.9681 105.073 57.7534 105.092L57.5574 103.79C57.9307 103.752 58.2807 103.724 58.6074 103.706C58.9434 103.687 59.3027 103.678 59.6854 103.678C60.0774 103.668 60.5487 103.664 61.0994 103.664ZM59.3074 103.79V113.45H57.5574V103.79H59.3074ZM69.8557 103.79V113.45H68.1057V103.79H69.8557ZM72.8517 103.79V105.218H65.1097V103.79H72.8517ZM21.8441 121.79V131.45H20.0941V121.79H21.8441ZM24.8401 121.79V123.218H17.0981V121.79H24.8401ZM26.0828 124.576L26.3068 125.92L26.4608 126.116V131.45H24.7668V124.576H26.0828ZM29.4428 124.408L29.2748 125.976H28.7848C28.4208 125.976 28.0522 126.036 27.6788 126.158C27.3055 126.279 26.8388 126.461 26.2788 126.704L26.1668 125.71C26.6522 125.299 27.1468 124.982 27.6508 124.758C28.1548 124.524 28.6402 124.408 29.1068 124.408H29.4428ZM33.8817 124.408C34.4324 124.408 34.8944 124.482 35.2677 124.632C35.6504 124.772 35.9397 125.014 36.1357 125.36C36.3317 125.705 36.4297 126.181 36.4297 126.788V131.45H35.0857L34.8477 129.966L34.7217 129.77V126.774C34.7217 126.41 34.6377 126.148 34.4697 125.99C34.3017 125.822 33.9797 125.738 33.5037 125.738C33.1491 125.738 32.7011 125.752 32.1597 125.78C31.6277 125.808 31.0911 125.845 30.5497 125.892L30.3957 124.73C30.7224 124.664 31.0911 124.608 31.5017 124.562C31.9124 124.515 32.3277 124.478 32.7477 124.45C33.1677 124.422 33.5457 124.408 33.8817 124.408ZM35.7017 127.222L35.6877 128.272H32.5377C32.2577 128.281 32.0571 128.356 31.9357 128.496C31.8144 128.636 31.7537 128.827 31.7537 129.07V129.448C31.7537 129.728 31.8284 129.942 31.9777 130.092C32.1271 130.232 32.3604 130.302 32.6777 130.302C32.9297 130.302 33.2097 130.25 33.5177 130.148C33.8257 130.045 34.1291 129.896 34.4277 129.7C34.7357 129.504 35.0111 129.27 35.2537 129V129.882C35.1604 130.022 35.0251 130.19 34.8477 130.386C34.6704 130.572 34.4511 130.759 34.1897 130.946C33.9377 131.132 33.6437 131.286 33.3077 131.408C32.9811 131.529 32.6171 131.59 32.2157 131.59C31.8051 131.59 31.4364 131.52 31.1097 131.38C30.7831 131.23 30.5264 131.016 30.3397 130.736C30.1531 130.446 30.0597 130.092 30.0597 129.672V128.944C30.0597 128.402 30.2371 127.982 30.5917 127.684C30.9557 127.376 31.4504 127.222 32.0757 127.222H35.7017ZM42.6534 124.408C43.932 124.408 44.5714 125.038 44.5714 126.298V131.45H42.8774V126.816C42.8774 126.442 42.812 126.186 42.6814 126.046C42.5507 125.906 42.3314 125.836 42.0234 125.836C41.678 125.836 41.3234 125.915 40.9594 126.074C40.5954 126.223 40.1567 126.442 39.6434 126.732L39.5734 125.71C40.0774 125.29 40.5907 124.968 41.1134 124.744C41.636 124.52 42.1494 124.408 42.6534 124.408ZM39.5174 124.576L39.6854 125.92L39.8254 126.116V131.45H38.1314V124.576H39.5174ZM48.7682 124.408C49.0855 124.408 49.4262 124.417 49.7902 124.436C50.1635 124.454 50.5275 124.482 50.8822 124.52C51.2369 124.548 51.5542 124.59 51.8342 124.646L51.7222 125.752C51.2742 125.742 50.8262 125.733 50.3782 125.724C49.9395 125.705 49.5055 125.696 49.0762 125.696C48.6935 125.696 48.3902 125.705 48.1662 125.724C47.9515 125.742 47.7975 125.798 47.7042 125.892C47.6202 125.985 47.5782 126.144 47.5782 126.368C47.5782 126.638 47.6529 126.82 47.8022 126.914C47.9515 126.998 48.1942 127.082 48.5302 127.166L50.4062 127.6C50.9662 127.74 51.3815 127.954 51.6522 128.244C51.9229 128.524 52.0582 128.958 52.0582 129.546C52.0582 130.115 51.9509 130.549 51.7362 130.848C51.5309 131.137 51.1995 131.338 50.7422 131.45C50.2942 131.552 49.7202 131.604 49.0202 131.604C48.7495 131.604 48.3482 131.59 47.8162 131.562C47.2842 131.543 46.7009 131.482 46.0662 131.38L46.1782 130.274C46.3649 130.274 46.5842 130.278 46.8362 130.288C47.0975 130.297 47.3729 130.302 47.6622 130.302C47.9609 130.302 48.2642 130.302 48.5722 130.302C49.0669 130.302 49.4449 130.288 49.7062 130.26C49.9769 130.222 50.1635 130.152 50.2662 130.05C50.3689 129.938 50.4202 129.779 50.4202 129.574C50.4202 129.312 50.3315 129.14 50.1542 129.056C49.9862 128.962 49.7342 128.874 49.3982 128.79L47.5642 128.342C47.1442 128.23 46.8175 128.09 46.5842 127.922C46.3509 127.744 46.1829 127.53 46.0802 127.278C45.9775 127.016 45.9262 126.699 45.9262 126.326C45.9262 125.822 46.0195 125.43 46.2062 125.15C46.4022 124.87 46.7055 124.674 47.1162 124.562C47.5362 124.45 48.0869 124.398 48.7682 124.408ZM56.181 121.384C56.3397 121.384 56.545 121.388 56.797 121.398C57.0583 121.407 57.3243 121.421 57.595 121.44C57.8657 121.449 58.0943 121.472 58.281 121.51L58.141 122.644H56.783C56.391 122.644 56.1157 122.723 55.957 122.882C55.7983 123.04 55.719 123.306 55.719 123.68V131.45H54.025V123.47C54.025 123.031 54.095 122.658 54.235 122.35C54.375 122.042 54.6037 121.804 54.921 121.636C55.2383 121.468 55.6583 121.384 56.181 121.384ZM57.763 124.576V125.752H52.807V124.646L54.081 124.576H57.763ZM61.791 124.408C62.9017 124.408 63.6997 124.604 64.185 124.996C64.6704 125.378 64.9177 125.948 64.927 126.704C64.9364 127.329 64.787 127.805 64.479 128.132C64.1804 128.449 63.681 128.608 62.981 128.608H59.061V127.558H62.519C62.8364 127.558 63.037 127.474 63.121 127.306C63.2144 127.138 63.261 126.932 63.261 126.69C63.2517 126.307 63.1397 126.041 62.925 125.892C62.7197 125.742 62.365 125.668 61.861 125.668C61.4224 125.668 61.0817 125.728 60.839 125.85C60.5964 125.971 60.4237 126.19 60.321 126.508C60.2277 126.825 60.181 127.282 60.181 127.88C60.181 128.514 60.2417 129.004 60.363 129.35C60.4844 129.695 60.685 129.933 60.965 130.064C61.245 130.185 61.6184 130.246 62.085 130.246C62.4304 130.246 62.827 130.232 63.275 130.204C63.7324 130.176 64.171 130.138 64.591 130.092L64.759 131.17C64.507 131.272 64.2177 131.356 63.891 131.422C63.5644 131.487 63.2237 131.534 62.869 131.562C62.5237 131.599 62.197 131.618 61.889 131.618C61.049 131.618 60.3724 131.496 59.859 131.254C59.355 131.002 58.9864 130.61 58.753 130.078C58.529 129.546 58.417 128.86 58.417 128.02C58.417 127.114 58.529 126.4 58.753 125.878C58.9864 125.346 59.3504 124.968 59.845 124.744C60.349 124.52 60.9977 124.408 61.791 124.408ZM67.6257 124.576L67.8497 125.92L68.0037 126.116V131.45H66.3097V124.576H67.6257ZM70.9857 124.408L70.8177 125.976H70.3277C69.9637 125.976 69.595 126.036 69.2217 126.158C68.8483 126.279 68.3817 126.461 67.8217 126.704L67.7097 125.71C68.195 125.299 68.6897 124.982 69.1937 124.758C69.6977 124.524 70.183 124.408 70.6497 124.408H70.9857Z" fill="#9B7ECD"/>
<path d="M70.019 75.5656L18.1873 75.5586" stroke="white" stroke-width="6.29" stroke-miterlimit="10"/>
<path d="M70.019 75.5656L18.1873 75.5586" stroke="#9B7ECD" stroke-width="3.42" stroke-miterlimit="10"/>
<path d="M12.8871 17.1005L12.8871 13.3386L69.4492 13.3316" stroke="white" stroke-width="6.29" stroke-miterlimit="10"/>
<path d="M12.8871 17.1005L12.8871 13.3386L69.4492 13.3316" stroke="#9B7ECD" stroke-width="3.42" stroke-miterlimit="10"/>
<path d="M56.21 80.9625L31.8075 80.95L7.46667 56.6092L7.45413 32.2067L31.7927 7.86809H56.2092L80.5486 32.2074V56.6239L56.21 80.9625Z" fill="#FFF0FB" stroke="#9B7ECD" stroke-width="7"/>
<path d="M18.1855 75.5577L12.8865 75.5647L12.8865 17.1006" stroke="white" stroke-width="6.29" stroke-miterlimit="10"/>
<path d="M18.1855 75.5577L12.8865 75.5647L12.8865 17.1006" stroke="#9B7ECD" stroke-width="3.42" stroke-miterlimit="10"/>
<path d="M69.4494 13.33L75.1133 13.3371L75.1134 75.5631L70.0179 75.5631" stroke="white" stroke-width="6.29" stroke-miterlimit="10"/>
<path d="M69.4494 13.33L75.1133 13.3371L75.1134 75.5631L70.0179 75.5631" stroke="#9B7ECD" stroke-width="3.42" stroke-miterlimit="10"/>
<g clip-path="url(#clip0_393_7114)">
<path d="M44 32.9749V40.4749H37.75V42.9749H40.25V45.4749H32.75V42.9749H35.25V40.4749H29V32.9749C29 31.9803 29.3951 31.0265 30.0984 30.3232C30.8016 29.6199 31.7555 29.2249 32.75 29.2249H40.25C41.2446 29.2249 42.1984 29.6199 42.9017 30.3232C43.6049 31.0265 44 31.9803 44 32.9749ZM51.5 36.7249V40.4749H54V36.7249C54 35.7303 53.6049 34.7765 52.9017 34.0732C52.1984 33.3699 51.2446 32.9749 50.25 32.9749H46.5V35.4749H50.25C50.5815 35.4749 50.8995 35.6065 51.1339 35.841C51.3683 36.0754 51.5 36.3933 51.5 36.7249ZM37.75 51.7249V47.9749H35.25V51.7249C35.25 52.7194 35.6451 53.6732 36.3484 54.3765C37.0516 55.0798 38.0055 55.4749 39 55.4749H44V52.9749H39C38.6685 52.9749 38.3506 52.8432 38.1161 52.6087C37.8817 52.3743 37.75 52.0564 37.75 51.7249ZM59 46.7249V59.2249H46.5V46.7249C46.5 45.7303 46.8951 44.7765 47.5984 44.0732C48.3016 43.3699 49.2555 42.9749 50.25 42.9749H55.25C56.2446 42.9749 57.1984 43.3699 57.9017 44.0732C58.6049 44.7765 59 45.7303 59 46.7249ZM54 54.2249C54 53.9776 53.9267 53.736 53.7894 53.5304C53.652 53.3248 53.4568 53.1646 53.2284 53.07C53 52.9754 52.7486 52.9506 52.5062 52.9989C52.2637 53.0471 52.0409 53.1662 51.8661 53.341C51.6913 53.5158 51.5723 53.7385 51.524 53.981C51.4758 54.2235 51.5006 54.4748 51.5952 54.7032C51.6898 54.9316 51.85 55.1268 52.0556 55.2642C52.2611 55.4015 52.5028 55.4749 52.75 55.4749C53.0815 55.4749 53.3995 55.3432 53.6339 55.1087C53.8683 54.8743 54 54.5564 54 54.2249Z" fill="#9B7ECD"/>
</g>
<defs>
<clipPath id="clip0_393_7114">
<rect width="30" height="30" fill="white" transform="translate(29 29.2249)"/>
</clipPath>
</defs>
</svg>
