<svg width="100" height="156" viewBox="0 0 100 156" fill="none" xmlns="http://www.w3.org/2000/svg">
<rect width="100" height="156" rx="19" fill="#F9FBFF"/>
<path d="M41.2078 109.343C41.6465 109.343 41.8705 109.567 41.8798 110.015L42.2578 119.003H40.5918L40.2558 110.729H39.9898L38.1838 117.211C38.0998 117.594 37.8618 117.785 37.4698 117.785H36.2378C35.8365 117.785 35.5892 117.594 35.4958 117.211L33.6898 110.729H33.4238L33.1158 119.003H31.4498L31.8278 110.015C31.8465 109.567 32.0705 109.343 32.4998 109.343H34.2498C34.6232 109.343 34.8565 109.534 34.9498 109.917L36.4338 115.209C36.4992 115.433 36.5505 115.657 36.5878 115.881C36.6345 116.105 36.6858 116.329 36.7418 116.553H36.9518C37.0078 116.329 37.0592 116.105 37.1058 115.881C37.1525 115.657 37.2038 115.428 37.2598 115.195L38.7438 109.917C38.8278 109.534 39.0658 109.343 39.4578 109.343H41.2078ZM46.7996 111.961C47.6396 111.961 48.3069 112.078 48.8016 112.311C49.3056 112.544 49.6649 112.927 49.8796 113.459C50.1036 113.991 50.2156 114.696 50.2156 115.573C50.2156 116.45 50.1036 117.155 49.8796 117.687C49.6649 118.21 49.3056 118.592 48.8016 118.835C48.3069 119.068 47.6396 119.185 46.7996 119.185C45.9783 119.185 45.3156 119.068 44.8116 118.835C44.3169 118.592 43.9576 118.21 43.7336 117.687C43.5096 117.155 43.3976 116.45 43.3976 115.573C43.3976 114.696 43.5096 113.991 43.7336 113.459C43.9576 112.927 44.3169 112.544 44.8116 112.311C45.3156 112.078 45.9783 111.961 46.7996 111.961ZM46.7996 113.249C46.3889 113.249 46.0623 113.319 45.8196 113.459C45.5863 113.59 45.4183 113.823 45.3156 114.159C45.2129 114.495 45.1616 114.966 45.1616 115.573C45.1616 116.18 45.2129 116.651 45.3156 116.987C45.4183 117.323 45.5863 117.556 45.8196 117.687C46.0623 117.818 46.3889 117.883 46.7996 117.883C47.2196 117.883 47.5509 117.818 47.7936 117.687C48.0363 117.556 48.2043 117.323 48.2976 116.987C48.4003 116.651 48.4516 116.18 48.4516 115.573C48.4516 114.966 48.4003 114.495 48.2976 114.159C48.2043 113.823 48.0363 113.59 47.7936 113.459C47.5509 113.319 47.2196 113.249 46.7996 113.249ZM53.7167 111.961C54.1834 111.961 54.6407 112.026 55.0887 112.157C55.5367 112.278 55.9427 112.484 56.3067 112.773L56.1947 113.627C55.8307 113.524 55.504 113.436 55.2147 113.361C54.9254 113.286 54.6034 113.249 54.2487 113.249C53.9127 113.249 53.642 113.31 53.4367 113.431C53.2407 113.543 53.0914 113.762 52.9887 114.089C52.8954 114.416 52.8487 114.892 52.8487 115.517C52.8487 116.114 52.8954 116.576 52.9887 116.903C53.082 117.22 53.2267 117.444 53.4227 117.575C53.6187 117.696 53.8754 117.757 54.1927 117.757C54.4447 117.757 54.6687 117.729 54.8647 117.673C55.0607 117.608 55.2614 117.514 55.4667 117.393C55.672 117.262 55.91 117.099 56.1807 116.903L56.3207 117.855C56.0034 118.219 55.6114 118.532 55.1447 118.793C54.6874 119.045 54.1554 119.171 53.5487 119.171C52.6714 119.171 52.046 118.863 51.6727 118.247C51.2994 117.622 51.1127 116.716 51.1127 115.531C51.1127 114.626 51.206 113.916 51.3927 113.403C51.5887 112.88 51.878 112.512 52.2607 112.297C52.6527 112.073 53.138 111.961 53.7167 111.961ZM57.6927 109.203V119.003H56.3627L56.1807 117.771L55.9987 117.631V113.039L56.0827 112.843C56.0454 112.572 56.022 112.302 56.0127 112.031C56.0034 111.751 55.9987 111.466 55.9987 111.177V109.203H57.6927ZM62.2555 111.961C63.3662 111.961 64.1642 112.157 64.6495 112.549C65.1348 112.932 65.3822 113.501 65.3915 114.257C65.4008 114.882 65.2515 115.358 64.9435 115.685C64.6448 116.002 64.1455 116.161 63.4455 116.161H59.5255V115.111H62.9835C63.3008 115.111 63.5015 115.027 63.5855 114.859C63.6788 114.691 63.7255 114.486 63.7255 114.243C63.7162 113.86 63.6042 113.594 63.3895 113.445C63.1842 113.296 62.8295 113.221 62.3255 113.221C61.8868 113.221 61.5462 113.282 61.3035 113.403C61.0608 113.524 60.8882 113.744 60.7855 114.061C60.6922 114.378 60.6455 114.836 60.6455 115.433C60.6455 116.068 60.7062 116.558 60.8275 116.903C60.9488 117.248 61.1495 117.486 61.4295 117.617C61.7095 117.738 62.0828 117.799 62.5495 117.799C62.8948 117.799 63.2915 117.785 63.7395 117.757C64.1968 117.729 64.6355 117.692 65.0555 117.645L65.2235 118.723C64.9715 118.826 64.6822 118.91 64.3555 118.975C64.0288 119.04 63.6882 119.087 63.3335 119.115C62.9882 119.152 62.6615 119.171 62.3535 119.171C61.5135 119.171 60.8368 119.05 60.3235 118.807C59.8195 118.555 59.4508 118.163 59.2175 117.631C58.9935 117.099 58.8815 116.413 58.8815 115.573C58.8815 114.668 58.9935 113.954 59.2175 113.431C59.4508 112.899 59.8148 112.521 60.3095 112.297C60.8135 112.073 61.4622 111.961 62.2555 111.961ZM68.2021 109.203L68.1881 116.931C68.1881 117.192 68.2628 117.393 68.4121 117.533C68.5614 117.664 68.7761 117.729 69.0561 117.729H69.6581L69.8541 118.919C69.7514 118.966 69.6068 119.008 69.4201 119.045C69.2428 119.082 69.0561 119.106 68.8601 119.115C68.6734 119.134 68.5101 119.143 68.3701 119.143C67.8008 119.143 67.3481 118.989 67.0121 118.681C66.6761 118.373 66.5081 117.93 66.5081 117.351V109.203H68.2021ZM24.3682 127.343C24.8068 127.343 25.0308 127.567 25.0402 128.015L25.4182 137.003H23.7522L23.4162 128.729H23.1502L21.3442 135.211C21.2602 135.594 21.0222 135.785 20.6302 135.785H19.3982C18.9968 135.785 18.7495 135.594 18.6562 135.211L16.8502 128.729H16.5842L16.2762 137.003H14.6102L14.9882 128.015C15.0068 127.567 15.2308 127.343 15.6602 127.343H17.4102C17.7835 127.343 18.0168 127.534 18.1102 127.917L19.5942 133.209C19.6595 133.433 19.7108 133.657 19.7482 133.881C19.7948 134.105 19.8462 134.329 19.9022 134.553H20.1122C20.1682 134.329 20.2195 134.105 20.2662 133.881C20.3128 133.657 20.3642 133.428 20.4202 133.195L21.9042 127.917C21.9882 127.534 22.2262 127.343 22.6182 127.343H24.3682ZM30.31 129.961C30.8606 129.961 31.3226 130.036 31.696 130.185C32.0786 130.325 32.368 130.568 32.564 130.913C32.76 131.258 32.858 131.734 32.858 132.341V137.003H31.514L31.276 135.519L31.15 135.323V132.327C31.15 131.963 31.066 131.702 30.898 131.543C30.73 131.375 30.408 131.291 29.932 131.291C29.5773 131.291 29.1293 131.305 28.588 131.333C28.056 131.361 27.5193 131.398 26.978 131.445L26.824 130.283C27.1506 130.218 27.5193 130.162 27.93 130.115C28.3406 130.068 28.756 130.031 29.176 130.003C29.596 129.975 29.974 129.961 30.31 129.961ZM32.13 132.775L32.116 133.825H28.966C28.686 133.834 28.4853 133.909 28.364 134.049C28.2426 134.189 28.182 134.38 28.182 134.623V135.001C28.182 135.281 28.2566 135.496 28.406 135.645C28.5553 135.785 28.7886 135.855 29.106 135.855C29.358 135.855 29.638 135.804 29.946 135.701C30.254 135.598 30.5573 135.449 30.856 135.253C31.164 135.057 31.4393 134.824 31.682 134.553V135.435C31.5886 135.575 31.4533 135.743 31.276 135.939C31.0986 136.126 30.8793 136.312 30.618 136.499C30.366 136.686 30.072 136.84 29.736 136.961C29.4093 137.082 29.0453 137.143 28.644 137.143C28.2333 137.143 27.8646 137.073 27.538 136.933C27.2113 136.784 26.9546 136.569 26.768 136.289C26.5813 136 26.488 135.645 26.488 135.225V134.497C26.488 133.956 26.6653 133.536 27.02 133.237C27.384 132.929 27.8786 132.775 28.504 132.775H32.13ZM36.7576 129.961C37.075 129.961 37.4156 129.97 37.7796 129.989C38.153 130.008 38.517 130.036 38.8716 130.073C39.2263 130.101 39.5436 130.143 39.8236 130.199L39.7116 131.305C39.2636 131.296 38.8156 131.286 38.3676 131.277C37.929 131.258 37.495 131.249 37.0656 131.249C36.683 131.249 36.3796 131.258 36.1556 131.277C35.941 131.296 35.787 131.352 35.6936 131.445C35.6096 131.538 35.5676 131.697 35.5676 131.921C35.5676 132.192 35.6423 132.374 35.7916 132.467C35.941 132.551 36.1836 132.635 36.5196 132.719L38.3956 133.153C38.9556 133.293 39.371 133.508 39.6416 133.797C39.9123 134.077 40.0476 134.511 40.0476 135.099C40.0476 135.668 39.9403 136.102 39.7256 136.401C39.5203 136.69 39.189 136.891 38.7316 137.003C38.2836 137.106 37.7096 137.157 37.0096 137.157C36.739 137.157 36.3376 137.143 35.8056 137.115C35.2736 137.096 34.6903 137.036 34.0556 136.933L34.1676 135.827C34.3543 135.827 34.5736 135.832 34.8256 135.841C35.087 135.85 35.3623 135.855 35.6516 135.855C35.9503 135.855 36.2536 135.855 36.5616 135.855C37.0563 135.855 37.4343 135.841 37.6956 135.813C37.9663 135.776 38.153 135.706 38.2556 135.603C38.3583 135.491 38.4096 135.332 38.4096 135.127C38.4096 134.866 38.321 134.693 38.1436 134.609C37.9756 134.516 37.7236 134.427 37.3876 134.343L35.5536 133.895C35.1336 133.783 34.807 133.643 34.5736 133.475C34.3403 133.298 34.1723 133.083 34.0696 132.831C33.967 132.57 33.9156 132.252 33.9156 131.879C33.9156 131.375 34.009 130.983 34.1956 130.703C34.3916 130.423 34.695 130.227 35.1056 130.115C35.5256 130.003 36.0763 129.952 36.7576 129.961ZM43.4284 128.169V134.931C43.4284 135.22 43.4891 135.426 43.6104 135.547C43.7411 135.668 43.9604 135.729 44.2684 135.729H45.2204L45.4024 136.919C45.2437 136.966 45.0524 137.008 44.8284 137.045C44.6044 137.082 44.3851 137.106 44.1704 137.115C43.9557 137.134 43.7737 137.143 43.6244 137.143C43.0271 137.143 42.5604 136.984 42.2244 136.667C41.8977 136.34 41.7344 135.874 41.7344 135.267V128.169H43.4284ZM45.4724 130.129V131.305H40.5164V130.199L41.8604 130.129H45.4724ZM49.3709 129.961C50.4815 129.961 51.2795 130.157 51.7649 130.549C52.2502 130.932 52.4975 131.501 52.5069 132.257C52.5162 132.882 52.3669 133.358 52.0589 133.685C51.7602 134.002 51.2609 134.161 50.5609 134.161H46.6409V133.111H50.0989C50.4162 133.111 50.6169 133.027 50.7009 132.859C50.7942 132.691 50.8409 132.486 50.8409 132.243C50.8315 131.86 50.7195 131.594 50.5049 131.445C50.2995 131.296 49.9449 131.221 49.4409 131.221C49.0022 131.221 48.6615 131.282 48.4189 131.403C48.1762 131.524 48.0035 131.744 47.9009 132.061C47.8075 132.378 47.7609 132.836 47.7609 133.433C47.7609 134.068 47.8215 134.558 47.9429 134.903C48.0642 135.248 48.2649 135.486 48.5449 135.617C48.8249 135.738 49.1982 135.799 49.6649 135.799C50.0102 135.799 50.4069 135.785 50.8549 135.757C51.3122 135.729 51.7509 135.692 52.1709 135.645L52.3389 136.723C52.0869 136.826 51.7975 136.91 51.4709 136.975C51.1442 137.04 50.8035 137.087 50.4489 137.115C50.1035 137.152 49.7769 137.171 49.4689 137.171C48.6289 137.171 47.9522 137.05 47.4389 136.807C46.9349 136.555 46.5662 136.163 46.3329 135.631C46.1089 135.099 45.9969 134.413 45.9969 133.573C45.9969 132.668 46.1089 131.954 46.3329 131.431C46.5662 130.899 46.9302 130.521 47.4249 130.297C47.9289 130.073 48.5775 129.961 49.3709 129.961ZM54.9255 130.129L55.1495 131.473L55.3035 131.669V137.003H53.6095V130.129H54.9255ZM58.2855 129.961L58.1175 131.529H57.6275C57.2635 131.529 56.8948 131.59 56.5215 131.711C56.1481 131.832 55.6815 132.014 55.1215 132.257L55.0095 131.263C55.4948 130.852 55.9895 130.535 56.4935 130.311C56.9975 130.078 57.4828 129.961 57.9495 129.961H58.2855ZM63.2031 127.343V134.763C63.2031 135.034 63.2731 135.239 63.4131 135.379C63.5624 135.51 63.7724 135.575 64.0431 135.575H67.4591L67.5431 136.905C66.9084 136.961 66.2457 136.994 65.5551 137.003C64.8737 137.022 64.1971 137.031 63.5251 137.031C62.8157 137.031 62.2931 136.849 61.9571 136.485C61.6304 136.121 61.4671 135.659 61.4671 135.099V127.343H63.2031ZM70.0542 130.129V137.003H68.3742V130.129H70.0542ZM69.5922 127.147C69.9282 127.147 70.0962 127.315 70.0962 127.651V128.435C70.0962 128.771 69.9282 128.939 69.5922 128.939H68.8362C68.5002 128.939 68.3322 128.771 68.3322 128.435V127.651C68.3322 127.315 68.5002 127.147 68.8362 127.147H69.5922ZM76.1116 129.961C77.3903 129.961 78.0296 130.591 78.0296 131.851V137.003H76.3356V132.369C76.3356 131.996 76.2703 131.739 76.1396 131.599C76.009 131.459 75.7896 131.389 75.4816 131.389C75.1363 131.389 74.7816 131.468 74.4176 131.627C74.0536 131.776 73.615 131.996 73.1016 132.285L73.0316 131.263C73.5356 130.843 74.049 130.521 74.5716 130.297C75.0943 130.073 75.6076 129.961 76.1116 129.961ZM72.9756 130.129L73.1436 131.473L73.2836 131.669V137.003H71.5896V130.129H72.9756ZM85.6844 130.129L83.7244 132.579C83.6498 132.691 83.5564 132.803 83.4444 132.915C83.3324 133.018 83.2344 133.097 83.1504 133.153V133.181C83.2344 133.237 83.3324 133.33 83.4444 133.461C83.5564 133.582 83.6498 133.708 83.7244 133.839L85.9084 137.003H83.9904L81.4844 133.111L83.7664 130.129H85.6844ZM81.1624 127.203L81.1764 131.389C81.1764 131.697 81.1578 131.991 81.1204 132.271C81.0924 132.551 81.0504 132.836 80.9944 133.125C81.0411 133.396 81.0784 133.676 81.1064 133.965C81.1438 134.254 81.1624 134.525 81.1624 134.777V137.003H79.4684V127.203H81.1624ZM82.2124 132.607V133.699H80.6164V132.607H82.2124Z" fill="#B23335"/>
<path d="M76.0189 81.1166L24.1873 81.1096" stroke="white" stroke-width="6.29" stroke-miterlimit="10"/>
<path d="M76.0189 81.1166L24.1873 81.1096" stroke="#B33335" stroke-width="3.42" stroke-miterlimit="10"/>
<path d="M18.8874 22.6509L18.8874 18.889L75.4494 18.8821" stroke="white" stroke-width="6.29" stroke-miterlimit="10"/>
<path d="M18.8874 22.6509L18.8874 18.889L75.4494 18.8821" stroke="#B33335" stroke-width="3.42" stroke-miterlimit="10"/>
<path d="M62.21 86.5132L37.8075 86.5006L13.4667 62.1598L13.4541 37.7573L37.7927 13.4187H62.2092L86.5486 37.7581L86.5486 62.1746L62.21 86.5132Z" fill="#FFF1F1" stroke="#B23335" stroke-width="7"/>
<path d="M24.1857 81.1085L18.8867 81.1155L18.8867 22.6514" stroke="white" stroke-width="6.29" stroke-miterlimit="10"/>
<path d="M24.1857 81.1085L18.8867 81.1155L18.8867 22.6514" stroke="#B33335" stroke-width="3.42" stroke-miterlimit="10"/>
<path d="M75.4499 18.8812L81.1138 18.8882L81.1138 81.1142L76.0184 81.1142" stroke="white" stroke-width="6.29" stroke-miterlimit="10"/>
<path d="M75.4499 18.8812L81.1138 18.8882L81.1138 81.1142L76.0184 81.1142" stroke="#B33335" stroke-width="3.42" stroke-miterlimit="10"/>
<path d="M44.1661 47.7791C44.1541 47.4483 44.1401 47.1172 44.2529 46.7963C44.3346 46.5626 44.466 46.3734 44.6937 46.2539C45.9749 45.581 47.2553 44.9061 48.5351 44.2292C48.7803 44.0992 48.8553 43.6581 48.6542 43.4584C48.5631 43.368 48.4611 43.2888 48.3644 43.2044C47.7723 42.6866 47.3834 42.0629 47.3789 41.2511C47.374 40.2831 47.3288 39.3112 47.3932 38.3473C47.47 37.2038 48.4033 36.2501 49.5224 36.0465C50.7045 35.8311 51.8123 36.3755 52.3638 37.4413C52.5411 37.7836 52.6493 38.142 52.649 38.5316C52.649 39.4482 52.6476 40.3645 52.6448 41.2806C52.6448 41.9785 52.3221 42.5352 51.8561 43.0219C51.7275 43.156 51.5674 43.2598 51.4381 43.3932C51.3714 43.4606 51.329 43.5482 51.3176 43.6423C51.3128 43.794 51.3296 43.9456 51.3674 44.0926C51.3835 44.1577 51.4543 44.2261 51.5177 44.2597C52.6168 44.8416 53.7183 45.4176 54.8188 45.9964C54.9319 46.056 55.0374 46.1313 55.1509 46.1909C55.7686 46.5143 55.9364 47.0437 55.8422 47.7058L44.1661 47.7791Z" fill="#B23335"/>
<path d="M63.9964 64.8936H63.804C61.2303 64.903 58.6566 64.9138 56.0831 64.9262C55.9216 64.9262 55.8648 64.8768 55.8694 64.7216C55.8806 64.3173 56.0323 64.0002 56.4033 63.8057C57.0994 63.4402 57.7959 63.0729 58.4929 62.7039C58.6218 62.6359 58.7536 62.5714 58.8755 62.4936C59.0812 62.3598 59.1207 62.1258 58.9666 61.9352C58.8419 61.7817 58.7007 61.6409 58.5612 61.5C58.3135 61.2506 58.1408 60.9552 58.1313 60.6052C58.1138 59.8596 58.0739 59.1085 58.1411 58.3685C58.2112 57.5875 58.7017 57.0679 59.456 56.8539C60.2104 56.6398 60.8295 56.9005 61.348 57.4576C61.6454 57.7771 61.74 58.1705 61.7513 58.5861C61.767 59.1691 61.7551 59.7531 61.7656 60.3379C61.7751 60.8494 61.5656 61.2639 61.2257 61.6258C61.15 61.7064 61.067 61.7803 60.9899 61.8602C60.7755 62.0834 60.8021 62.3875 61.0723 62.5402C61.4629 62.7613 61.8693 62.954 62.2635 63.1681C62.6991 63.4042 63.1312 63.6466 63.5598 63.8951C63.9358 64.1113 64.0195 64.4683 63.9964 64.8936Z" fill="#B23335"/>
<path d="M44.144 64.8762L36.037 64.9389C35.9175 64.5318 36.0906 64.0693 36.5135 63.8282C37.1269 63.4779 37.7562 63.1573 38.3781 62.8223C38.5883 62.7092 38.7985 62.5929 39.0063 62.4758C39.2697 62.328 39.2932 62.0025 39.0459 61.8487C38.9246 61.773 38.8276 61.656 38.7274 61.5502C38.4306 61.237 38.2667 60.875 38.2775 60.429C38.2926 59.8162 38.2863 59.2028 38.2796 58.59C38.2709 57.7866 38.6801 57.2485 39.3752 56.9286C40.0906 56.5996 40.7479 56.786 41.3218 57.2828C41.6946 57.6058 41.9045 58.0147 41.895 58.5276C41.8831 59.1583 41.8771 59.7889 41.895 60.4196C41.9132 61.019 41.607 61.4356 41.1838 61.7954C41.0016 61.9503 40.934 62.2471 41.0597 62.4454C41.0881 62.4899 41.1498 62.5154 41.1999 62.5428C42.0194 62.9783 42.8424 63.4067 43.658 63.8493C44.0417 64.0563 44.2084 64.4326 44.144 64.8762Z" fill="#B23335"/>
<path d="M54.0754 64.8775L45.96 64.9339C45.8574 64.538 46.001 64.0885 46.3692 63.8776C47.0374 63.495 47.7234 63.1439 48.4013 62.7778C48.5811 62.6811 48.764 62.5875 48.9335 62.4747C49.211 62.2901 49.2138 62.0483 48.9623 61.8367C48.821 61.715 48.6884 61.5836 48.5653 61.4436C48.3209 61.1786 48.19 60.8285 48.2006 60.4682C48.209 59.8319 48.2205 59.1946 48.1964 58.5591C48.1613 57.6611 48.9346 56.9824 49.587 56.8188C50.3147 56.6373 51.1825 57.0147 51.5879 57.6902C51.728 57.9211 51.8125 58.1625 51.8114 58.434C51.8093 59.1407 51.8065 59.847 51.8096 60.5533C51.8096 60.8862 51.6926 61.1693 51.4772 61.4149C51.3461 61.5641 51.2081 61.7067 51.0718 61.8511C50.8542 62.0816 50.8759 62.3682 51.1517 62.5283C51.5553 62.7624 51.9747 62.9691 52.3846 63.1922C52.7742 63.4043 53.1618 63.6197 53.5474 63.8383C53.9416 64.0632 54.1189 64.4048 54.0754 64.8775Z" fill="#B23335"/>
<path d="M59.4794 52.6893H50.4541C50.4541 52.7537 50.4541 52.8154 50.4541 52.877C50.448 53.706 50.4416 54.5352 50.4348 55.3646C50.4331 55.5587 50.3945 55.7318 50.1854 55.8232C49.9513 55.9255 49.5898 55.7854 49.5866 55.4855C49.5817 55.03 49.5659 54.5745 49.561 54.1191C49.5565 53.7162 49.561 53.3132 49.561 52.9107V52.6931H40.5287V52.889C40.5266 53.6247 40.5263 54.3605 40.521 55.0962C40.5211 55.2304 40.5094 55.3643 40.486 55.4963C40.4436 55.7255 40.2523 55.874 40.0393 55.8593C39.8154 55.8436 39.6746 55.7076 39.6689 55.4557C39.6521 54.6849 39.6472 53.9141 39.6392 53.1433C39.6364 52.8862 39.6371 52.6293 39.6367 52.3725C39.6367 51.9493 39.7268 51.8403 40.1539 51.8239C40.7193 51.8018 41.2859 51.7937 41.8521 51.793C44.3564 51.79 46.8609 51.7907 49.3655 51.7951C49.5162 51.7951 49.5656 51.7601 49.5642 51.6024C49.5565 50.7444 49.5673 49.8857 49.5561 49.028C49.553 48.8104 49.7113 48.7607 49.8396 48.6738C49.9678 48.5869 50.0932 48.6097 50.2134 48.6997C50.3735 48.8202 50.4667 48.9523 50.4618 49.1793C50.4436 49.9789 50.4545 50.7791 50.4545 51.5786V51.792H50.8749C53.5376 51.792 56.2004 51.7933 58.8631 51.7958C59.1841 51.7958 59.505 51.806 59.8259 51.8179C60.2751 51.8351 60.3423 51.9002 60.356 52.3434C60.3669 52.6994 60.3704 53.0557 60.37 53.4117C60.37 54.0655 60.3665 54.7192 60.3564 55.3737C60.3511 55.7059 60.225 55.8478 59.9559 55.8558C59.7145 55.8632 59.5169 55.6673 59.5102 55.3706C59.4927 54.5647 59.4896 53.7589 59.4812 52.9531C59.4794 52.8704 59.4794 52.7846 59.4794 52.6893Z" fill="#B23335"/>
</svg>
