<svg width="100" height="156" viewBox="0 0 100 156" fill="none" xmlns="http://www.w3.org/2000/svg">
<rect width="100" height="156" rx="19" fill="#F9FBFF"/>
<path d="M40.8491 109.343C41.2877 109.343 41.5117 109.567 41.5211 110.015L41.8991 119.003H40.2331L39.8971 110.729H39.6311L37.8251 117.211C37.7411 117.594 37.5031 117.785 37.1111 117.785H35.8791C35.4777 117.785 35.2304 117.594 35.1371 117.211L33.3311 110.729H33.0651L32.7571 119.003H31.0911L31.4691 110.015C31.4877 109.567 31.7117 109.343 32.1411 109.343H33.8911C34.2644 109.343 34.4977 109.534 34.5911 109.917L36.0751 115.209C36.1404 115.433 36.1917 115.657 36.2291 115.881C36.2757 116.105 36.3271 116.329 36.3831 116.553H36.5931C36.6491 116.329 36.7004 116.105 36.7471 115.881C36.7937 115.657 36.8451 115.428 36.9011 115.195L38.3851 109.917C38.4691 109.534 38.7071 109.343 39.0991 109.343H40.8491ZM47.2809 111.961C48.1209 111.961 48.7882 112.078 49.2829 112.311C49.7869 112.544 50.1462 112.927 50.3609 113.459C50.5849 113.991 50.6969 114.696 50.6969 115.573C50.6969 116.45 50.5849 117.155 50.3609 117.687C50.1462 118.21 49.7869 118.592 49.2829 118.835C48.7882 119.068 48.1209 119.185 47.2809 119.185C46.4595 119.185 45.7969 119.068 45.2929 118.835C44.7982 118.592 44.4389 118.21 44.2149 117.687C43.9909 117.155 43.8789 116.45 43.8789 115.573C43.8789 114.696 43.9909 113.991 44.2149 113.459C44.4389 112.927 44.7982 112.544 45.2929 112.311C45.7969 112.078 46.4595 111.961 47.2809 111.961ZM47.2809 113.249C46.8702 113.249 46.5435 113.319 46.3009 113.459C46.0675 113.59 45.8995 113.823 45.7969 114.159C45.6942 114.495 45.6429 114.966 45.6429 115.573C45.6429 116.18 45.6942 116.651 45.7969 116.987C45.8995 117.323 46.0675 117.556 46.3009 117.687C46.5435 117.818 46.8702 117.883 47.2809 117.883C47.7009 117.883 48.0322 117.818 48.2749 117.687C48.5175 117.556 48.6855 117.323 48.7789 116.987C48.8815 116.651 48.9329 116.18 48.9329 115.573C48.9329 114.966 48.8815 114.495 48.7789 114.159C48.6855 113.823 48.5175 113.59 48.2749 113.459C48.0322 113.319 47.7009 113.249 47.2809 113.249ZM55.038 111.961C55.5046 111.961 55.962 112.026 56.41 112.157C56.858 112.278 57.264 112.484 57.628 112.773L57.516 113.627C57.152 113.524 56.8253 113.436 56.536 113.361C56.2466 113.286 55.9246 113.249 55.57 113.249C55.234 113.249 54.9633 113.31 54.758 113.431C54.562 113.543 54.4126 113.762 54.31 114.089C54.2166 114.416 54.17 114.892 54.17 115.517C54.17 116.114 54.2166 116.576 54.31 116.903C54.4033 117.22 54.548 117.444 54.744 117.575C54.94 117.696 55.1966 117.757 55.514 117.757C55.766 117.757 55.99 117.729 56.186 117.673C56.382 117.608 56.5826 117.514 56.788 117.393C56.9933 117.262 57.2313 117.099 57.502 116.903L57.642 117.855C57.3246 118.219 56.9326 118.532 56.466 118.793C56.0086 119.045 55.4766 119.171 54.87 119.171C53.9926 119.171 53.3673 118.863 52.994 118.247C52.6206 117.622 52.434 116.716 52.434 115.531C52.434 114.626 52.5273 113.916 52.714 113.403C52.91 112.88 53.1993 112.512 53.582 112.297C53.974 112.073 54.4593 111.961 55.038 111.961ZM59.014 109.203V119.003H57.684L57.502 117.771L57.32 117.631V113.039L57.404 112.843C57.3666 112.572 57.3433 112.302 57.334 112.031C57.3246 111.751 57.32 111.466 57.32 111.177V109.203H59.014ZM64.4168 111.961C65.5274 111.961 66.3254 112.157 66.8108 112.549C67.2961 112.932 67.5434 113.501 67.5528 114.257C67.5621 114.882 67.4128 115.358 67.1048 115.685C66.8061 116.002 66.3068 116.161 65.6068 116.161H61.6868V115.111H65.1448C65.4621 115.111 65.6628 115.027 65.7468 114.859C65.8401 114.691 65.8868 114.486 65.8868 114.243C65.8774 113.86 65.7654 113.594 65.5508 113.445C65.3454 113.296 64.9908 113.221 64.4868 113.221C64.0481 113.221 63.7074 113.282 63.4648 113.403C63.2221 113.524 63.0494 113.744 62.9468 114.061C62.8534 114.378 62.8068 114.836 62.8068 115.433C62.8068 116.068 62.8674 116.558 62.9888 116.903C63.1101 117.248 63.3108 117.486 63.5908 117.617C63.8708 117.738 64.2441 117.799 64.7108 117.799C65.0561 117.799 65.4528 117.785 65.9008 117.757C66.3581 117.729 66.7968 117.692 67.2168 117.645L67.3848 118.723C67.1328 118.826 66.8434 118.91 66.5168 118.975C66.1901 119.04 65.8494 119.087 65.4948 119.115C65.1494 119.152 64.8228 119.171 64.5148 119.171C63.6748 119.171 62.9981 119.05 62.4848 118.807C61.9808 118.555 61.6121 118.163 61.3788 117.631C61.1548 117.099 61.0428 116.413 61.0428 115.573C61.0428 114.668 61.1548 113.954 61.3788 113.431C61.6121 112.899 61.9761 112.521 62.4708 112.297C62.9748 112.073 63.6234 111.961 64.4168 111.961ZM71.2034 109.203L71.1894 116.931C71.1894 117.192 71.264 117.393 71.4134 117.533C71.5627 117.664 71.7774 117.729 72.0574 117.729H72.6594L72.8554 118.919C72.7527 118.966 72.608 119.008 72.4214 119.045C72.244 119.082 72.0574 119.106 71.8614 119.115C71.6747 119.134 71.5114 119.143 71.3714 119.143C70.802 119.143 70.3494 118.989 70.0134 118.681C69.6774 118.373 69.5094 117.93 69.5094 117.351V109.203H71.2034ZM36.0522 127.343C36.4908 127.343 36.7148 127.567 36.7242 128.015L37.1022 137.003H35.4362L35.1002 128.729H34.8342L33.0282 135.211C32.9442 135.594 32.7062 135.785 32.3142 135.785H31.0822C30.6808 135.785 30.4335 135.594 30.3402 135.211L28.5342 128.729H28.2682L27.9602 137.003H26.2942L26.6722 128.015C26.6908 127.567 26.9148 127.343 27.3442 127.343H29.0942C29.4675 127.343 29.7008 127.534 29.7942 127.917L31.2782 133.209C31.3435 133.433 31.3948 133.657 31.4322 133.881C31.4788 134.105 31.5302 134.329 31.5862 134.553H31.7962C31.8522 134.329 31.9035 134.105 31.9502 133.881C31.9968 133.657 32.0482 133.428 32.1042 133.195L33.5882 127.917C33.6722 127.534 33.9102 127.343 34.3022 127.343H36.0522ZM42.834 129.961C43.3846 129.961 43.8466 130.036 44.22 130.185C44.6026 130.325 44.892 130.568 45.088 130.913C45.284 131.258 45.382 131.734 45.382 132.341V137.003H44.038L43.8 135.519L43.674 135.323V132.327C43.674 131.963 43.59 131.702 43.422 131.543C43.254 131.375 42.932 131.291 42.456 131.291C42.1013 131.291 41.6533 131.305 41.112 131.333C40.58 131.361 40.0433 131.398 39.502 131.445L39.348 130.283C39.6746 130.218 40.0433 130.162 40.454 130.115C40.8646 130.068 41.28 130.031 41.7 130.003C42.12 129.975 42.498 129.961 42.834 129.961ZM44.654 132.775L44.64 133.825H41.49C41.21 133.834 41.0093 133.909 40.888 134.049C40.7666 134.189 40.706 134.38 40.706 134.623V135.001C40.706 135.281 40.7806 135.496 40.93 135.645C41.0793 135.785 41.3126 135.855 41.63 135.855C41.882 135.855 42.162 135.804 42.47 135.701C42.778 135.598 43.0813 135.449 43.38 135.253C43.688 135.057 43.9633 134.824 44.206 134.553V135.435C44.1126 135.575 43.9773 135.743 43.8 135.939C43.6226 136.126 43.4033 136.312 43.142 136.499C42.89 136.686 42.596 136.84 42.26 136.961C41.9333 137.082 41.5693 137.143 41.168 137.143C40.7573 137.143 40.3886 137.073 40.062 136.933C39.7353 136.784 39.4786 136.569 39.292 136.289C39.1053 136 39.012 135.645 39.012 135.225V134.497C39.012 133.956 39.1893 133.536 39.544 133.237C39.908 132.929 40.4026 132.775 41.028 132.775H44.654ZM50.1216 129.961C50.4389 129.961 50.7796 129.97 51.1436 129.989C51.5169 130.008 51.8809 130.036 52.2356 130.073C52.5903 130.101 52.9076 130.143 53.1876 130.199L53.0756 131.305C52.6276 131.296 52.1796 131.286 51.7316 131.277C51.2929 131.258 50.8589 131.249 50.4296 131.249C50.0469 131.249 49.7436 131.258 49.5196 131.277C49.3049 131.296 49.1509 131.352 49.0576 131.445C48.9736 131.538 48.9316 131.697 48.9316 131.921C48.9316 132.192 49.0063 132.374 49.1556 132.467C49.3049 132.551 49.5476 132.635 49.8836 132.719L51.7596 133.153C52.3196 133.293 52.7349 133.508 53.0056 133.797C53.2763 134.077 53.4116 134.511 53.4116 135.099C53.4116 135.668 53.3043 136.102 53.0896 136.401C52.8843 136.69 52.5529 136.891 52.0956 137.003C51.6476 137.106 51.0736 137.157 50.3736 137.157C50.1029 137.157 49.7016 137.143 49.1696 137.115C48.6376 137.096 48.0543 137.036 47.4196 136.933L47.5316 135.827C47.7183 135.827 47.9376 135.832 48.1896 135.841C48.4509 135.85 48.7263 135.855 49.0156 135.855C49.3143 135.855 49.6176 135.855 49.9256 135.855C50.4203 135.855 50.7983 135.841 51.0596 135.813C51.3303 135.776 51.5169 135.706 51.6196 135.603C51.7223 135.491 51.7736 135.332 51.7736 135.127C51.7736 134.866 51.6849 134.693 51.5076 134.609C51.3396 134.516 51.0876 134.427 50.7516 134.343L48.9176 133.895C48.4976 133.783 48.1709 133.643 47.9376 133.475C47.7043 133.298 47.5363 133.083 47.4336 132.831C47.3309 132.57 47.2796 132.252 47.2796 131.879C47.2796 131.375 47.3729 130.983 47.5596 130.703C47.7556 130.423 48.0589 130.227 48.4696 130.115C48.8896 130.003 49.4403 129.952 50.1216 129.961ZM57.6324 128.169V134.931C57.6324 135.22 57.6931 135.426 57.8144 135.547C57.9451 135.668 58.1644 135.729 58.4724 135.729H59.4244L59.6064 136.919C59.4477 136.966 59.2564 137.008 59.0324 137.045C58.8084 137.082 58.5891 137.106 58.3744 137.115C58.1597 137.134 57.9777 137.143 57.8284 137.143C57.2311 137.143 56.7644 136.984 56.4284 136.667C56.1017 136.34 55.9384 135.874 55.9384 135.267V128.169H57.6324ZM59.6764 130.129V131.305H54.7204V130.199L56.0644 130.129H59.6764ZM64.4148 129.961C65.5255 129.961 66.3235 130.157 66.8088 130.549C67.2942 130.932 67.5415 131.501 67.5508 132.257C67.5602 132.882 67.4108 133.358 67.1028 133.685C66.8042 134.002 66.3048 134.161 65.6048 134.161H61.6848V133.111H65.1428C65.4602 133.111 65.6608 133.027 65.7448 132.859C65.8382 132.691 65.8848 132.486 65.8848 132.243C65.8755 131.86 65.7635 131.594 65.5488 131.445C65.3435 131.296 64.9888 131.221 64.4848 131.221C64.0462 131.221 63.7055 131.282 63.4628 131.403C63.2202 131.524 63.0475 131.744 62.9448 132.061C62.8515 132.378 62.8048 132.836 62.8048 133.433C62.8048 134.068 62.8655 134.558 62.9868 134.903C63.1082 135.248 63.3088 135.486 63.5888 135.617C63.8688 135.738 64.2422 135.799 64.7088 135.799C65.0542 135.799 65.4508 135.785 65.8988 135.757C66.3562 135.729 66.7948 135.692 67.2148 135.645L67.3828 136.723C67.1308 136.826 66.8415 136.91 66.5148 136.975C66.1882 137.04 65.8475 137.087 65.4928 137.115C65.1475 137.152 64.8208 137.171 64.5128 137.171C63.6728 137.171 62.9962 137.05 62.4828 136.807C61.9788 136.555 61.6102 136.163 61.3768 135.631C61.1528 135.099 61.0408 134.413 61.0408 133.573C61.0408 132.668 61.1528 131.954 61.3768 131.431C61.6102 130.899 61.9742 130.521 62.4688 130.297C62.9728 130.073 63.6215 129.961 64.4148 129.961ZM70.8095 130.129L71.0335 131.473L71.1875 131.669V137.003H69.4935V130.129H70.8095ZM74.1695 129.961L74.0015 131.529H73.5115C73.1475 131.529 72.7788 131.59 72.4055 131.711C72.0321 131.832 71.5655 132.014 71.0055 132.257L70.8935 131.263C71.3788 130.852 71.8735 130.535 72.3775 130.311C72.8815 130.078 73.3668 129.961 73.8335 129.961H74.1695Z" fill="#2D4789"/>
<path d="M76.0189 81.1166L24.1873 81.1096" stroke="white" stroke-width="6.29" stroke-miterlimit="10"/>
<path d="M76.0189 81.1166L24.1873 81.1096" stroke="#2D4789" stroke-width="3.42" stroke-miterlimit="10"/>
<path d="M18.8874 22.6509L18.8874 18.889L75.4494 18.8821" stroke="white" stroke-width="6.29" stroke-miterlimit="10"/>
<path d="M18.8874 22.6509L18.8874 18.889L75.4494 18.8821" stroke="#2D4789" stroke-width="3.42" stroke-miterlimit="10"/>
<path d="M62.21 86.5132L37.8075 86.5006L13.4667 62.1598L13.4541 37.7573L37.7927 13.4187H62.2092L86.5486 37.7581L86.5486 62.1746L62.21 86.5132Z" fill="#EFF4FF" stroke="#2D4789" stroke-width="7"/>
<path d="M24.1857 81.1085L18.8867 81.1155L18.8867 22.6514" stroke="white" stroke-width="6.29" stroke-miterlimit="10"/>
<path d="M24.1857 81.1085L18.8867 81.1155L18.8867 22.6514" stroke="#2D4789" stroke-width="3.42" stroke-miterlimit="10"/>
<path d="M75.4499 18.8812L81.1138 18.8882L81.1138 81.1142L76.0184 81.1142" stroke="white" stroke-width="6.29" stroke-miterlimit="10"/>
<path d="M75.4499 18.8812L81.1138 18.8882L81.1138 81.1142L76.0184 81.1142" stroke="#2D4789" stroke-width="3.42" stroke-miterlimit="10"/>
<path d="M40.1174 42.2466C37.9687 41.7776 36.9235 39.9496 37.0924 38.2768C37.1781 37.3931 37.5849 36.5715 38.2358 35.9676C38.8867 35.3638 39.7365 35.0197 40.6241 35.0006C42.4993 34.968 44.0452 36.3099 44.2973 38.2236C44.486 39.6529 43.7057 41.6884 41.2715 42.2175C41.8151 42.2449 42.3656 42.232 42.9006 42.3032C45.027 42.6033 46.6098 44.6423 46.3851 46.7704C46.3746 46.8174 46.3537 46.8614 46.324 46.8994C46.2944 46.9373 46.2567 46.9682 46.2137 46.9899C44.8696 47.5041 43.6596 48.3161 42.6742 49.3649C42.5885 49.4399 42.4786 49.4813 42.3647 49.4815C40.2623 49.4884 38.1596 49.4884 36.0567 49.4815C35.5071 49.4815 35.0278 49.0897 35.0218 48.5675C35.0046 47.6244 34.9652 46.6632 35.0784 45.7277C35.3142 43.7865 37.0659 42.2809 39.0225 42.2406C39.3852 42.2415 39.7513 42.2466 40.1174 42.2466Z" fill="#2D4789"/>
<path d="M49.336 61.9127C48.7607 62.5824 48.2128 63.2323 47.6452 63.865C47.5706 63.9508 47.4 63.9782 47.2731 63.9782C43.8434 63.9839 40.4155 63.9857 36.9892 63.9834C36.6763 63.9834 36.3642 63.9885 36.0512 63.9834C35.451 63.9688 35.0146 63.5384 35.0069 62.9365C34.9977 62.2574 34.9977 61.5783 35.0069 60.8992C35.0146 60.2767 35.4476 59.8472 36.0761 59.8463C39.8281 59.8429 43.5796 59.8429 47.3305 59.8463C47.454 59.8455 47.5731 59.8915 47.6641 59.9749C48.2205 60.6051 48.7633 61.2465 49.336 61.9127Z" fill="#2D4789"/>
<path d="M59.8752 46.8934C59.8503 46.3892 59.8752 45.8765 59.7894 45.3826C59.5699 44.081 58.373 43.185 57.0551 43.2862C56.4203 43.339 55.8272 43.6238 55.389 44.086C54.9508 44.5483 54.6981 45.1557 54.6792 45.7924C54.6647 46.4912 54.6792 47.19 54.6792 47.9206C54.2565 47.6976 53.8647 47.4833 53.466 47.2835C53.1899 47.1446 52.7869 47.0957 52.6549 46.8771C52.51 46.6387 52.6068 46.2512 52.6077 45.9288C52.6146 43.2313 54.7298 41.1581 57.4152 41.213C59.816 41.261 61.8533 43.2802 61.9201 45.6793C61.9321 46.0865 61.9201 46.4947 61.9201 46.9851C62.059 46.8522 62.1456 46.7665 62.2348 46.6842C62.6704 46.2855 63.2877 46.2898 63.6924 46.6936C63.7878 46.7858 63.8641 46.8959 63.9168 47.0176C63.9695 47.1394 63.9977 47.2703 63.9997 47.4029C64.0017 47.5356 63.9774 47.6673 63.9284 47.7906C63.8793 47.9138 63.8064 48.0262 63.7138 48.1212C63.0176 48.8426 62.3088 49.5511 61.5875 50.2467C61.4955 50.3393 61.386 50.4127 61.2654 50.4626C61.1448 50.5125 61.0155 50.538 60.885 50.5375C60.7545 50.537 60.6254 50.5106 60.5052 50.4598C60.3849 50.409 60.276 50.3348 60.1847 50.2416C59.4731 49.5517 58.7717 48.8509 58.0806 48.1392C57.9844 48.0439 57.9082 47.9303 57.8567 47.805C57.8051 47.6798 57.7792 47.5455 57.7805 47.4101C57.7818 47.2746 57.8102 47.1408 57.8641 47.0166C57.918 46.8924 57.9963 46.7802 58.0943 46.6867C58.4982 46.2872 59.1121 46.2889 59.5519 46.6867C59.6377 46.7639 59.7234 46.8436 59.8032 46.9225L59.8752 46.8934Z" fill="#2D4789"/>
<path d="M48.9811 63.9186C49.4212 63.4041 49.8608 62.8897 50.2998 62.3752C50.6187 62.0023 50.6187 61.8196 50.2998 61.4467C49.8608 60.9322 49.4201 60.4177 48.9502 59.869C49.2932 59.8407 49.6053 59.8364 49.9045 59.7875C51.6331 59.5063 52.83 58.5649 53.4431 56.9083C53.4745 56.8073 53.5298 56.7152 53.6043 56.64C54.2902 56.0398 54.9907 55.4473 55.7127 54.8291C56.3634 55.3873 57.0108 55.9343 57.6427 56.4985C57.7062 56.5551 57.707 56.7171 57.6907 56.8234C57.4283 58.5276 56.6477 60.1096 55.4548 61.3546C54.262 62.5996 52.7148 63.4472 51.0234 63.7823C50.3649 63.9117 49.6884 63.9537 49.0205 64.0395L48.9811 63.9186Z" fill="#2D4789"/>
<path d="M48.6299 49.4909C49.1863 48.8229 49.7205 48.1747 50.2667 47.5377C50.3038 47.5041 50.3476 47.4785 50.3951 47.4628C50.4426 47.447 50.4929 47.4412 50.5428 47.4459C54.0093 47.818 57.0746 50.7247 57.6525 54.1801C57.7057 54.4973 57.7442 54.818 57.8025 55.2304C57.5196 54.9955 57.3001 54.8163 57.084 54.6302C56.7788 54.373 56.4761 54.1158 56.1717 53.8586C55.7988 53.543 55.6221 53.5456 55.2423 53.8697L53.6458 55.2364C53.6205 55.1717 53.5987 55.1055 53.5806 55.0384C53.2659 53.4093 52.3194 52.3186 50.7588 51.7519C50.6005 51.6954 50.4579 51.6019 50.343 51.4792C49.772 50.8344 49.2164 50.1751 48.6299 49.4909Z" fill="#2D4789"/>
<path d="M48.9654 47.486C48.5361 47.9953 48.1074 48.504 47.6793 49.0122C47.344 49.41 47.344 49.5764 47.6793 49.9648C48.1252 50.4852 48.5702 51.0066 49.0512 51.5664C48.8745 51.6016 48.7511 51.623 48.6302 51.6522C47.0817 52.0295 46.0545 52.9726 45.5486 54.4817C45.5234 54.5849 45.473 54.6804 45.402 54.7595C44.7161 55.3597 44.0164 55.953 43.2987 56.5669C42.6308 56.0096 41.9689 55.4634 41.3164 54.9052C41.2885 54.8692 41.2686 54.8276 41.2579 54.7832C41.2473 54.7389 41.2462 54.6928 41.2547 54.648C41.9552 50.2752 45.113 48.0948 47.8396 47.5837C48.2075 47.5143 48.5787 47.4646 48.9483 47.4062L48.9654 47.486Z" fill="#2D4789"/>
<path d="M53.8096 63.9561C54.8651 63.3748 55.7679 62.7111 56.4796 61.8323C56.9314 61.2741 57.3181 60.6611 57.7108 60.0574C57.8129 59.9005 57.9037 59.8362 58.0889 59.8379C59.0373 59.8465 59.9873 59.8259 60.9347 59.8525C61.2012 59.8623 61.4606 59.9402 61.6884 60.0789C62.3632 60.5024 63.0148 60.9637 63.6699 61.4182C64.1063 61.72 64.1089 62.1041 63.6767 62.4016C63.0131 62.8629 62.3495 63.3259 61.6695 63.7615C61.4718 63.89 61.2432 63.9631 61.0076 63.9733C58.6677 63.9878 56.3278 63.9818 53.9879 63.9818C53.957 63.9818 53.9262 63.9733 53.8096 63.9561Z" fill="#2D4789"/>
<path d="M41.3114 56.2405L42.8351 57.5481C43.1892 57.8516 43.3812 57.8525 43.7396 57.5481C44.1992 57.1571 44.6562 56.7627 45.1115 56.3708C45.1895 56.304 45.2744 56.2448 45.3876 56.1582C45.5147 57.1681 45.9996 58.099 46.7543 58.7819H41.849C41.5215 58.2314 41.182 56.6684 41.3114 56.2405Z" fill="#2D4789"/>
</svg>
