<svg width="88" height="145" viewBox="0 0 88 145" fill="none" xmlns="http://www.w3.org/2000/svg">
<path d="M41.688 103.568C42.1267 103.568 42.3507 103.792 42.36 104.24L42.738 113.228H41.072L40.736 104.954H40.47L38.664 111.436C38.58 111.818 38.342 112.01 37.95 112.01H36.718C36.3167 112.01 36.0693 111.818 35.976 111.436L34.17 104.954H33.904L33.596 113.228H31.93L32.308 104.24C32.3267 103.792 32.5507 103.568 32.98 103.568H34.73C35.1033 103.568 35.3367 103.759 35.43 104.142L36.914 109.434C36.9793 109.658 37.0307 109.882 37.068 110.106C37.1147 110.33 37.166 110.554 37.222 110.778H37.432C37.488 110.554 37.5393 110.33 37.586 110.106C37.6327 109.882 37.684 109.653 37.74 109.42L39.224 104.142C39.308 103.759 39.546 103.568 39.938 103.568H41.688ZM46.5238 106.354V111.002C46.5145 111.347 46.5798 111.594 46.7198 111.744C46.8691 111.893 47.1071 111.968 47.4338 111.968C47.7605 111.968 48.0871 111.898 48.4138 111.758C48.7405 111.618 49.1371 111.408 49.6038 111.128L49.7718 112.136C49.2491 112.556 48.7451 112.873 48.2598 113.088C47.7745 113.302 47.2705 113.41 46.7478 113.41C45.4691 113.41 44.8298 112.78 44.8298 111.52V106.354H46.5238ZM51.1298 106.354V113.228H49.7858L49.6038 111.898L49.4358 111.702V106.354H51.1298ZM55.0219 103.428L55.0079 111.156C55.0079 111.417 55.0826 111.618 55.2319 111.758C55.3813 111.888 55.5959 111.954 55.8759 111.954H56.4779L56.6739 113.144C56.5713 113.19 56.4266 113.232 56.2399 113.27C56.0626 113.307 55.8759 113.33 55.6799 113.34C55.4933 113.358 55.3299 113.368 55.1899 113.368C54.6206 113.368 54.1679 113.214 53.8319 112.906C53.4959 112.598 53.3279 112.154 53.3279 111.576V103.428H55.0219ZM23.5879 121.4C24.0265 121.4 24.3999 121.414 24.7079 121.442C25.0159 121.46 25.3005 121.493 25.5619 121.54C25.8232 121.577 26.0939 121.633 26.3739 121.708L26.2199 123.01C25.9305 122.991 25.6599 122.977 25.4079 122.968C25.1559 122.949 24.8852 122.935 24.5959 122.926C24.3159 122.916 23.9799 122.912 23.5879 122.912C23.0465 122.912 22.6219 123.019 22.3139 123.234C22.0059 123.448 21.7865 123.808 21.6559 124.312C21.5345 124.816 21.4739 125.511 21.4739 126.398C21.4739 127.284 21.5345 127.98 21.6559 128.484C21.7865 128.988 22.0059 129.347 22.3139 129.562C22.6219 129.776 23.0465 129.884 23.5879 129.884C24.2132 129.884 24.7359 129.874 25.1559 129.856C25.5852 129.828 26.0052 129.79 26.4159 129.744L26.5699 131.032C26.1499 131.162 25.7159 131.256 25.2679 131.312C24.8199 131.368 24.2599 131.396 23.5879 131.396C22.6172 131.396 21.8425 131.237 21.2639 130.92C20.6852 130.593 20.2652 130.066 20.0039 129.338C19.7519 128.61 19.6259 127.63 19.6259 126.398C19.6259 125.166 19.7519 124.186 20.0039 123.458C20.2652 122.73 20.6852 122.207 21.2639 121.89C21.8425 121.563 22.6172 121.4 23.5879 121.4ZM31.345 124.186C32.185 124.186 32.8523 124.302 33.347 124.536C33.851 124.769 34.2103 125.152 34.425 125.684C34.649 126.216 34.761 126.92 34.761 127.798C34.761 128.675 34.649 129.38 34.425 129.912C34.2103 130.434 33.851 130.817 33.347 131.06C32.8523 131.293 32.185 131.41 31.345 131.41C30.5236 131.41 29.861 131.293 29.357 131.06C28.8623 130.817 28.503 130.434 28.279 129.912C28.055 129.38 27.943 128.675 27.943 127.798C27.943 126.92 28.055 126.216 28.279 125.684C28.503 125.152 28.8623 124.769 29.357 124.536C29.861 124.302 30.5236 124.186 31.345 124.186ZM31.345 125.474C30.9343 125.474 30.6076 125.544 30.365 125.684C30.1316 125.814 29.9636 126.048 29.861 126.384C29.7583 126.72 29.707 127.191 29.707 127.798C29.707 128.404 29.7583 128.876 29.861 129.212C29.9636 129.548 30.1316 129.781 30.365 129.912C30.6076 130.042 30.9343 130.108 31.345 130.108C31.765 130.108 32.0963 130.042 32.339 129.912C32.5816 129.781 32.7496 129.548 32.843 129.212C32.9456 128.876 32.997 128.404 32.997 127.798C32.997 127.191 32.9456 126.72 32.843 126.384C32.7496 126.048 32.5816 125.814 32.339 125.684C32.0963 125.544 31.765 125.474 31.345 125.474ZM41.1601 124.186C42.4387 124.186 43.0781 124.816 43.0781 126.076V131.228H41.3841V126.594C41.3841 126.22 41.3187 125.964 41.1881 125.824C41.0574 125.684 40.8381 125.614 40.5301 125.614C40.1847 125.614 39.8301 125.693 39.4661 125.852C39.1021 126.001 38.6634 126.22 38.1501 126.51L38.0801 125.488C38.5841 125.068 39.0974 124.746 39.6201 124.522C40.1427 124.298 40.6561 124.186 41.1601 124.186ZM38.0241 124.354L38.1921 125.698L38.3321 125.894V131.228H36.6381V124.354H38.0241ZM47.4849 122.394V129.156C47.4849 129.445 47.5456 129.65 47.6669 129.772C47.7976 129.893 48.0169 129.954 48.3249 129.954H49.2769L49.4589 131.144C49.3002 131.19 49.1089 131.232 48.8849 131.27C48.6609 131.307 48.4416 131.33 48.2269 131.34C48.0122 131.358 47.8302 131.368 47.6809 131.368C47.0836 131.368 46.6169 131.209 46.2809 130.892C45.9542 130.565 45.7909 130.098 45.7909 129.492V122.394H47.4849ZM49.5289 124.354V125.53H44.5729V124.424L45.9169 124.354H49.5289ZM52.3773 124.354L52.6013 125.698L52.7553 125.894V131.228H51.0613V124.354H52.3773ZM55.7373 124.186L55.5693 125.754H55.0793C54.7153 125.754 54.3467 125.814 53.9733 125.936C53.6 126.057 53.1333 126.239 52.5733 126.482L52.4613 125.488C52.9467 125.077 53.4413 124.76 53.9453 124.536C54.4493 124.302 54.9347 124.186 55.4013 124.186H55.7373ZM60.1368 124.186C60.9768 124.186 61.6442 124.302 62.1388 124.536C62.6428 124.769 63.0022 125.152 63.2168 125.684C63.4408 126.216 63.5528 126.92 63.5528 127.798C63.5528 128.675 63.4408 129.38 63.2168 129.912C63.0022 130.434 62.6428 130.817 62.1388 131.06C61.6442 131.293 60.9768 131.41 60.1368 131.41C59.3155 131.41 58.6528 131.293 58.1488 131.06C57.6542 130.817 57.2948 130.434 57.0708 129.912C56.8468 129.38 56.7348 128.675 56.7348 127.798C56.7348 126.92 56.8468 126.216 57.0708 125.684C57.2948 125.152 57.6542 124.769 58.1488 124.536C58.6528 124.302 59.3155 124.186 60.1368 124.186ZM60.1368 125.474C59.7262 125.474 59.3995 125.544 59.1568 125.684C58.9235 125.814 58.7555 126.048 58.6528 126.384C58.5502 126.72 58.4988 127.191 58.4988 127.798C58.4988 128.404 58.5502 128.876 58.6528 129.212C58.7555 129.548 58.9235 129.781 59.1568 129.912C59.3995 130.042 59.7262 130.108 60.1368 130.108C60.5568 130.108 60.8882 130.042 61.1308 129.912C61.3735 129.781 61.5415 129.548 61.6348 129.212C61.7375 128.876 61.7888 128.404 61.7888 127.798C61.7888 127.191 61.7375 126.72 61.6348 126.384C61.5415 126.048 61.3735 125.814 61.1308 125.684C60.8882 125.544 60.5568 125.474 60.1368 125.474ZM67.1379 121.428L67.1239 129.156C67.1239 129.417 67.1986 129.618 67.3479 129.758C67.4973 129.888 67.7119 129.954 67.9919 129.954H68.5939L68.7899 131.144C68.6873 131.19 68.5426 131.232 68.3559 131.27C68.1786 131.307 67.9919 131.33 67.7959 131.34C67.6093 131.358 67.4459 131.368 67.3059 131.368C66.7366 131.368 66.2839 131.214 65.9479 130.906C65.6119 130.598 65.4439 130.154 65.4439 129.576V121.428H67.1379Z" fill="#C93044"/>
<path d="M70.0189 75.3407L18.1873 75.3337" stroke="white" stroke-width="6.29" stroke-miterlimit="10"/>
<path d="M70.0189 75.3407L18.1873 75.3337" stroke="#C93044" stroke-width="3.42" stroke-miterlimit="10"/>
<path d="M12.8871 16.8757L12.887 13.1137L69.4491 13.1068" stroke="white" stroke-width="6.29" stroke-miterlimit="10"/>
<path d="M12.8871 16.8757L12.887 13.1137L69.4491 13.1068" stroke="#C93044" stroke-width="3.42" stroke-miterlimit="10"/>
<path d="M56.2099 80.7376L31.8074 80.7251L7.46662 56.3843L7.45408 31.9818L31.7927 7.64323H56.2092L80.5485 31.9826V56.3991L56.2099 80.7376Z" fill="#FFE8EB" stroke="#C93044" stroke-width="7"/>
<path d="M18.1854 75.3328L12.8865 75.3399L12.8865 16.8757" stroke="white" stroke-width="6.29" stroke-miterlimit="10"/>
<path d="M18.1854 75.3328L12.8865 75.3399L12.8865 16.8757" stroke="#C93044" stroke-width="3.42" stroke-miterlimit="10"/>
<path d="M69.4494 13.1052L75.1133 13.1122L75.1134 75.3382L70.0179 75.3382" stroke="white" stroke-width="6.29" stroke-miterlimit="10"/>
<path d="M69.4494 13.1052L75.1133 13.1122L75.1134 75.3382L70.0179 75.3382" stroke="#C93044" stroke-width="3.42" stroke-miterlimit="10"/>
<g clip-path="url(#clip0_488_8794)">
<path d="M48.4131 35.855H49.1131C49.2944 35.8514 49.4744 35.8864 49.6412 35.958C49.808 36.0295 49.9578 36.1358 50.0808 36.2699C50.1185 36.3211 50.1732 36.3569 50.235 36.3708C50.2968 36.3847 50.3614 36.3756 50.4171 36.3454C51.009 36.1189 51.6058 35.9078 52.1913 35.6732C52.32 35.6224 52.4291 35.5313 52.5025 35.4134C52.9461 34.6427 53.3786 33.8661 53.8001 33.0835C53.8245 33.0291 53.838 32.9704 53.8398 32.9108C53.8416 32.8512 53.8317 32.7918 53.8106 32.736C53.5952 32.2286 53.6856 31.7009 54.0735 31.3429C54.2518 31.1786 54.4767 31.0746 54.7167 31.0453C54.9567 31.016 55.1998 31.063 55.412 31.1796C55.6242 31.2963 55.7949 31.4768 55.9002 31.6958C56.0054 31.9149 56.0401 32.1617 55.9992 32.4015C55.9592 32.654 55.8364 32.8858 55.6504 33.0599C55.4643 33.2339 55.2257 33.3403 54.9726 33.3619C54.8991 33.3634 54.8275 33.3861 54.7664 33.4274C54.7053 33.4687 54.6574 33.5269 54.6283 33.5949C54.171 34.427 53.7162 35.2616 53.2348 36.0791C53.1206 36.2635 52.9536 36.4087 52.7558 36.4955C52.1106 36.7675 51.4461 37.011 50.7808 37.2384C50.5486 37.3195 50.4542 37.4259 50.4832 37.6694C50.4934 37.8487 50.4934 38.0284 50.4832 38.2077C50.6058 38.215 50.7026 38.2263 50.7986 38.2263C51.6235 38.2263 52.4493 38.2345 53.2735 38.219C53.427 38.2103 53.5736 38.1516 53.6912 38.0518C54.0021 37.7778 54.2982 37.4873 54.5783 37.1815C54.6613 37.083 54.7027 36.9556 54.6936 36.8268C54.6575 36.5795 54.6987 36.3271 54.8114 36.1044C54.9241 35.8818 55.1027 35.6999 55.3226 35.5839C55.539 35.4721 55.7851 35.4323 56.0254 35.4704C56.2657 35.5085 56.4878 35.6224 56.6597 35.7958C56.8314 35.9689 56.945 36.1918 56.9844 36.4332C57.0239 36.6746 56.9873 36.9223 56.8798 37.1418C56.772 37.3672 56.593 37.5504 56.3707 37.6625C56.1485 37.7746 55.8956 37.8093 55.6516 37.7612C55.5756 37.7423 55.4958 37.7455 55.4214 37.7703C55.3471 37.7952 55.2812 37.8407 55.2315 37.9016C54.8879 38.258 54.546 38.6185 54.1702 38.9383C53.9982 39.0835 53.7852 39.1707 53.5614 39.1875C52.6558 39.2143 51.7501 39.1997 50.8437 39.1997H50.5058V40.9711H52.9074C53.4614 40.9711 54.0146 40.9792 54.5678 40.9638C54.6879 40.9523 54.7987 40.8941 54.8767 40.8014C55.221 40.3574 55.7113 40.182 56.2097 40.3509C56.4395 40.4283 56.6394 40.5764 56.7809 40.7744C56.9225 40.9724 56.9987 41.2102 56.9987 41.4541C56.9987 41.6981 56.9225 41.9359 56.7809 42.1339C56.6394 42.3319 56.4395 42.48 56.2097 42.5574C55.7137 42.7255 55.2178 42.5501 54.8775 42.1036C54.818 42.0202 54.7281 41.9639 54.6275 41.9469C53.2791 41.938 51.9308 41.942 50.5824 41.9469C50.556 41.9518 50.5303 41.96 50.5058 41.9713V43.7151H51.6889C52.3227 43.7151 52.9582 43.6972 53.5904 43.7256C53.7957 43.7402 53.9912 43.8194 54.1493 43.9521C54.5355 44.2898 54.8815 44.6754 55.2597 45.0237C55.3601 45.1087 55.4892 45.1515 55.6202 45.1431C56.1653 45.0724 56.646 45.2997 56.8798 45.7706C56.9887 45.9895 57.0263 46.2374 56.9872 46.479C56.9481 46.7207 56.8343 46.9438 56.6621 47.1166C56.4898 47.2894 56.2678 47.4031 56.0276 47.4416C55.7874 47.4801 55.5413 47.4413 55.3242 47.3309C54.8597 47.0939 54.6283 46.6051 54.7025 46.0596C54.7084 46.0091 54.7044 45.9579 54.6905 45.909C54.6767 45.8601 54.6533 45.8144 54.6218 45.7746C54.2993 45.4394 53.967 45.1154 53.6307 44.8005C53.5669 44.7398 53.4844 44.7031 53.3969 44.6965C52.4412 44.6892 51.4856 44.6917 50.4865 44.6917C50.4865 44.9994 50.472 45.2916 50.4978 45.5798C50.5042 45.648 50.6405 45.73 50.7324 45.76C51.3894 45.9808 52.0493 46.1938 52.7122 46.3989C52.8276 46.4314 52.9351 46.4879 53.0276 46.5646C53.1201 46.6414 53.1956 46.7367 53.2493 46.8446C53.6985 47.6702 54.1654 48.4853 54.6202 49.3085C54.6504 49.3808 54.7007 49.4427 54.7651 49.4868C54.8295 49.5308 54.9052 49.5552 54.9831 49.5569C55.4928 49.5975 55.8879 49.9856 55.9911 50.4994C56.0345 50.7402 56.0016 50.9887 55.8971 51.2096C55.7926 51.4306 55.6219 51.613 55.4089 51.731C55.1992 51.8438 54.9605 51.8902 54.7242 51.864C54.4879 51.8378 54.265 51.7402 54.0847 51.584C53.8974 51.4193 53.7685 51.1976 53.7177 50.9525C53.6669 50.7073 53.697 50.4522 53.8033 50.2259C53.843 50.159 53.8628 50.082 53.8602 50.0041C53.8576 49.9262 53.8328 49.8507 53.7888 49.7867C53.3614 49.0422 52.9533 48.2864 52.5235 47.5428C52.4495 47.4165 52.3361 47.3183 52.2009 47.2635C51.5934 47.0503 50.9811 46.853 50.3639 46.6717C50.2368 46.6462 50.1048 46.6725 49.997 46.7448C49.7321 46.9498 49.4077 47.0616 49.0736 47.063C48.751 47.0573 48.4285 47.0589 48.1059 47.063C47.6656 47.0679 47.2374 47.0792 46.8229 46.8446C46.5995 46.7172 46.3011 46.722 46.0027 46.6603V46.347C46.0027 45.2526 45.9971 44.1591 46.0027 43.0648C46.0199 42.523 45.8366 41.9941 45.4882 41.5808C45.4609 41.5404 45.4431 41.4942 45.4359 41.4459C45.4288 41.3975 45.4326 41.3482 45.4471 41.3015C45.7906 40.4775 45.6084 39.6633 44.9633 39.1729C44.6627 38.9469 44.296 38.8278 43.9209 38.8343C43.5458 38.8408 43.1835 38.9724 42.8907 39.2086C42.2512 39.7347 42.1045 40.5555 42.502 41.3786C42.5109 41.3965 42.5157 41.4152 42.5303 41.455C41.9867 41.9802 41.8666 42.6548 41.8811 43.392C41.9029 44.496 41.8867 45.6001 41.8867 46.7042V47.05C41.7811 47.0565 41.7037 47.0654 41.6263 47.0654C40.7102 47.0654 39.7949 47.0654 38.8788 47.0654C38.5241 47.0713 38.1782 46.9544 37.899 46.7342C37.8527 46.7048 37.8009 46.6851 37.7468 46.6765C37.6928 46.6678 37.6375 46.6703 37.5845 46.6839C36.9834 46.8652 36.3834 47.0592 35.7845 47.266C35.6663 47.31 35.5659 47.3922 35.499 47.4998C35.056 48.271 34.6233 49.0476 34.2007 49.8297C34.1512 49.9396 34.1469 50.0648 34.1886 50.178C34.4031 50.687 34.3136 51.2163 33.9273 51.571C33.7472 51.7358 33.5201 51.8392 33.2783 51.8666C33.0365 51.894 32.7922 51.8441 32.5802 51.7239C32.3682 51.6036 32.1992 51.4192 32.0972 51.1968C31.9952 50.9744 31.9654 50.7253 32.012 50.4848C32.1257 49.9555 32.5177 49.6162 33.0604 49.5366C33.123 49.5221 33.1822 49.4953 33.2345 49.4576C33.2869 49.42 33.3313 49.3724 33.3652 49.3174C33.8434 48.4853 34.2958 47.6386 34.7821 46.8113C34.8931 46.637 35.0564 46.5028 35.2482 46.4282C35.8893 46.1919 36.5385 45.989 37.1958 45.7884C37.3691 45.7349 37.4377 45.6602 37.4288 45.4735C37.4127 45.2234 37.4288 44.9726 37.4288 44.6901C36.7651 44.6901 36.1289 44.7428 35.5047 44.6763C34.7547 44.5951 34.1789 44.8126 33.7354 45.4166C33.6847 45.4798 33.6271 45.537 33.5636 45.5871C33.3701 45.756 33.2588 45.9118 33.2999 46.2244C33.3878 46.8941 32.8161 47.4714 32.1507 47.4649C31.9888 47.4634 31.8289 47.4278 31.6814 47.3605C31.5339 47.2931 31.4021 47.1954 31.2943 47.0737C31.1865 46.952 31.1053 46.809 31.0557 46.6537C31.0061 46.4985 30.9893 46.3346 31.0064 46.1724C31.021 46.0136 31.0685 45.8596 31.1457 45.7203C31.223 45.581 31.3284 45.4596 31.4551 45.3638C31.5818 45.268 31.727 45.1999 31.8814 45.164C32.0358 45.1281 32.1959 45.1251 32.3515 45.1552C32.4283 45.1738 32.5088 45.1701 32.5836 45.1445C32.6584 45.119 32.7245 45.0726 32.7741 45.0107C33.1185 44.656 33.4596 44.2939 33.8346 43.974C34.0075 43.8308 34.2207 43.7456 34.4442 43.7305C35.3184 43.7037 36.195 43.7191 37.0699 43.7191H37.4086V41.9453H37.1288C35.9111 41.9453 34.6934 41.9453 33.4757 41.9412C33.3985 41.9346 33.3209 41.9501 33.2521 41.9859C33.1832 42.0216 33.1257 42.0762 33.0862 42.1434C32.943 42.3494 32.736 42.5018 32.4975 42.5767C32.2591 42.6517 32.0027 42.6449 31.7685 42.5574C31.5403 42.475 31.3436 42.3226 31.2061 42.1216C31.0686 41.9206 30.9973 41.6813 31.0022 41.4373C31.0071 41.1933 31.088 40.957 31.2334 40.7618C31.3789 40.5666 31.5816 40.4223 31.8129 40.3493C32.2911 40.1966 32.7806 40.3679 33.1031 40.7787C33.1677 40.8599 33.2765 40.9662 33.366 40.967C34.6136 40.9792 35.866 40.9752 37.1095 40.9752H37.403V39.1997H37.0893C36.224 39.1997 35.3587 39.1908 34.4934 39.1997C34.359 39.2076 34.2245 39.1851 34.0998 39.134C33.975 39.0829 33.8632 39.0044 33.7725 38.9042C33.4386 38.5527 33.0935 38.2117 32.7362 37.8854C32.6344 37.7997 32.5033 37.7574 32.3709 37.7677C31.8201 37.8334 31.3459 37.6053 31.1145 37.1336C31.0092 36.9138 30.9748 36.6663 31.0161 36.4258C31.0575 36.1853 31.1725 35.9639 31.3451 35.7925C31.5176 35.6197 31.7401 35.5066 31.9806 35.4695C32.2211 35.4325 32.4671 35.4734 32.683 35.5863C33.1451 35.8299 33.3693 36.308 33.2959 36.8617C33.2868 36.9637 33.3181 37.0652 33.383 37.1442C33.6967 37.4689 34.0233 37.7888 34.3507 38.1029C34.4111 38.1674 34.4917 38.2089 34.5789 38.2207C35.5127 38.2288 36.4466 38.2263 37.4216 38.2263C37.432 37.9595 37.4285 37.6923 37.4111 37.4259C37.403 37.352 37.2772 37.2635 37.1877 37.2319C36.5571 36.9899 35.9256 36.7559 35.2934 36.5296C35.0536 36.4524 34.854 36.2825 34.7386 36.0572C34.2918 35.2307 33.8225 34.4157 33.3725 33.5917C33.343 33.5244 33.2949 33.467 33.2341 33.4263C33.1732 33.3856 33.102 33.3632 33.0289 33.3619C32.776 33.3392 32.5378 33.2322 32.3521 33.0578C32.1665 32.8834 32.0439 32.6516 32.004 32.3991C31.9644 32.1598 31.9999 31.914 32.1054 31.696C32.211 31.4779 32.3814 31.2983 32.5931 31.1823C32.8047 31.0662 33.0469 31.0194 33.2862 31.0483C33.5255 31.0773 33.7498 31.1805 33.9281 31.3437C34.1145 31.5099 34.241 31.7334 34.2881 31.9795C34.3352 32.2255 34.3002 32.4804 34.1886 32.7043C34.1518 32.7675 34.1341 32.8401 34.1376 32.9132C34.1412 32.9863 34.1659 33.0568 34.2087 33.1159C34.6418 33.8807 35.0628 34.6527 35.499 35.415C35.5642 35.5235 35.6615 35.6087 35.7772 35.6586C36.3474 35.8834 36.924 36.0937 37.5022 36.2966C37.5901 36.3275 37.7441 36.3348 37.7933 36.2828C38.1651 35.8997 38.6264 35.8022 39.1239 35.8518C39.4408 35.8826 39.5102 35.7706 39.5054 35.4645C39.4916 34.6649 39.4796 33.8628 39.5304 33.0656C39.6707 30.8956 41.5569 29.0852 43.7318 29C46.0253 28.9188 48.0527 30.5287 48.3381 32.7433C48.451 33.6217 48.3946 34.522 48.414 35.4118C48.4188 35.5425 48.4131 35.6732 48.4131 35.855ZM41.6642 35.8282H46.2955C46.2955 35.0253 46.3043 34.246 46.2955 33.4675C46.2753 32.227 45.3544 31.2569 44.1012 31.1489C42.9778 31.0507 41.8311 31.8722 41.6867 33.0315C41.573 33.9456 41.6642 34.8857 41.6642 35.8282Z" fill="#C93044"/>
<path d="M42.8609 51.3008V50.976C42.8609 48.363 42.8609 45.7501 42.8609 43.1371C42.8573 42.9856 42.8708 42.8341 42.9012 42.6857C42.959 42.4317 43.1053 42.207 43.3137 42.0523C43.522 41.8977 43.7786 41.8235 44.0367 41.843C44.5955 41.8999 45.0133 42.3228 45.0318 42.8814C45.0479 43.3563 45.0383 43.8328 45.0383 44.3094C45.0383 45.6757 45.0383 47.0428 45.0383 48.491C45.3866 47.8416 45.8568 47.5347 46.5181 47.7775C47.2753 48.0567 47.2487 48.7297 47.2334 49.4011C47.5463 48.8328 47.9995 48.5341 48.6228 48.72C49.4236 48.9578 49.4293 49.6511 49.4293 50.3436C49.6389 50.0035 49.8865 49.7372 50.2784 49.6649C50.9824 49.535 51.5687 50.0229 51.584 50.7739C51.598 51.3909 51.5951 52.0087 51.5752 52.6273C51.5316 54.0293 51.3647 55.4077 50.8397 56.7261C50.7083 57.0557 50.5478 57.1767 50.1833 57.1743C47.7688 57.1548 45.3536 57.1605 42.9391 57.1702C42.6932 57.1702 42.6222 57.089 42.5359 56.8601C42.2628 56.1449 41.9508 55.4454 41.6013 54.7648C40.7795 53.2012 39.9134 51.662 39.0852 50.1017C38.9574 49.8498 38.8866 49.5726 38.878 49.2899C38.853 48.5203 39.5465 48.047 40.2368 48.3782C40.5284 48.5328 40.7843 48.7478 40.9876 49.009C41.6085 49.764 42.1972 50.5466 42.7988 51.3178L42.8609 51.3008Z" fill="#C93044"/>
<path d="M50.3292 58.1614V59H42.7037V58.1614H50.3292Z" fill="#C93044"/>
</g>
<defs>
<clipPath id="clip0_488_8794">
<rect width="26" height="30" fill="white" transform="translate(31 29)"/>
</clipPath>
</defs>
</svg>
