<svg width="100" height="156" viewBox="0 0 100 156" fill="none" xmlns="http://www.w3.org/2000/svg">
<rect width="100" height="156" rx="19" fill="#F9FBFF"/>
<path d="M31.353 109.231C32.1743 109.231 32.8276 109.305 33.313 109.455C33.7983 109.595 34.1483 109.847 34.363 110.211C34.587 110.575 34.699 111.088 34.699 111.751C34.699 112.441 34.5683 112.969 34.307 113.333C34.0456 113.697 33.6163 113.907 33.019 113.963V114.019C33.7563 114.084 34.2696 114.336 34.559 114.775C34.8576 115.213 35.007 115.82 35.007 116.595C35.007 117.257 34.895 117.771 34.671 118.135C34.4563 118.499 34.111 118.755 33.635 118.905C33.1683 119.045 32.557 119.115 31.801 119.115C31.213 119.115 30.6996 119.11 30.261 119.101C29.8223 119.101 29.421 119.091 29.057 119.073C28.693 119.054 28.315 119.031 27.923 119.003L28.119 117.729C28.343 117.738 28.7583 117.747 29.365 117.757C29.9716 117.766 30.6856 117.771 31.507 117.771C31.9456 117.771 32.291 117.733 32.543 117.659C32.795 117.575 32.9723 117.425 33.075 117.211C33.187 116.987 33.243 116.674 33.243 116.273C33.243 115.825 33.187 115.484 33.075 115.251C32.963 115.008 32.7763 114.84 32.515 114.747C32.263 114.644 31.9036 114.593 31.437 114.593H28.105V113.403H31.423C31.8243 113.403 32.137 113.365 32.361 113.291C32.5943 113.207 32.7623 113.062 32.865 112.857C32.9676 112.651 33.019 112.357 33.019 111.975C33.019 111.592 32.963 111.298 32.851 111.093C32.7483 110.887 32.571 110.752 32.319 110.687C32.067 110.612 31.717 110.575 31.269 110.575C30.7743 110.575 30.3356 110.575 29.953 110.575C29.5703 110.575 29.2296 110.579 28.931 110.589C28.6323 110.589 28.3616 110.598 28.119 110.617L27.923 109.343C28.2776 109.305 28.6136 109.282 28.931 109.273C29.2576 109.254 29.6123 109.245 29.995 109.245C30.387 109.235 30.8396 109.231 31.353 109.231ZM29.631 109.343V119.003H27.923V109.343H29.631ZM37.9587 112.129L38.1827 113.473L38.3367 113.669V119.003H36.6427V112.129H37.9587ZM41.3187 111.961L41.1507 113.529H40.6607C40.2967 113.529 39.928 113.589 39.5547 113.711C39.1813 113.832 38.7147 114.014 38.1547 114.257L38.0427 113.263C38.528 112.852 39.0227 112.535 39.5267 112.311C40.0307 112.077 40.516 111.961 40.9827 111.961H41.3187ZM45.8975 111.961C46.4482 111.961 46.9102 112.035 47.2835 112.185C47.6662 112.325 47.9555 112.567 48.1515 112.913C48.3475 113.258 48.4455 113.734 48.4455 114.341V119.003H47.1015L46.8635 117.519L46.7375 117.323V114.327C46.7375 113.963 46.6535 113.701 46.4855 113.543C46.3175 113.375 45.9955 113.291 45.5195 113.291C45.1649 113.291 44.7169 113.305 44.1755 113.333C43.6435 113.361 43.1069 113.398 42.5655 113.445L42.4115 112.283C42.7382 112.217 43.1069 112.161 43.5175 112.115C43.9282 112.068 44.3435 112.031 44.7635 112.003C45.1835 111.975 45.5615 111.961 45.8975 111.961ZM47.7175 114.775L47.7035 115.825H44.5535C44.2735 115.834 44.0729 115.909 43.9515 116.049C43.8302 116.189 43.7695 116.38 43.7695 116.623V117.001C43.7695 117.281 43.8442 117.495 43.9935 117.645C44.1429 117.785 44.3762 117.855 44.6935 117.855C44.9455 117.855 45.2255 117.803 45.5335 117.701C45.8415 117.598 46.1449 117.449 46.4435 117.253C46.7515 117.057 47.0269 116.823 47.2695 116.553V117.435C47.1762 117.575 47.0409 117.743 46.8635 117.939C46.6862 118.125 46.4669 118.312 46.2055 118.499C45.9535 118.685 45.6595 118.839 45.3235 118.961C44.9969 119.082 44.6329 119.143 44.2315 119.143C43.8209 119.143 43.4522 119.073 43.1255 118.933C42.7989 118.783 42.5422 118.569 42.3555 118.289C42.1689 117.999 42.0755 117.645 42.0755 117.225V116.497C42.0755 115.955 42.2529 115.535 42.6075 115.237C42.9715 114.929 43.4662 114.775 44.0915 114.775H47.7175ZM54.8092 111.961C56.0879 111.961 56.7272 112.591 56.7272 113.851V119.003H55.0332V114.369C55.0332 113.995 54.9679 113.739 54.8372 113.599C54.7065 113.459 54.4872 113.389 54.1792 113.389C53.8339 113.389 53.4792 113.468 53.1152 113.627C52.7512 113.776 52.3125 113.995 51.7992 114.285L51.7292 113.263C52.2332 112.843 52.7465 112.521 53.2692 112.297C53.7919 112.073 54.3052 111.961 54.8092 111.961ZM51.6732 112.129L51.8412 113.473L51.9812 113.669V119.003H50.2872V112.129H51.6732ZM61.666 111.961C61.8994 111.961 62.156 111.97 62.436 111.989C62.716 112.007 63.0007 112.045 63.29 112.101C63.5794 112.157 63.8407 112.236 64.074 112.339L63.878 113.403C63.5327 113.384 63.1874 113.37 62.842 113.361C62.506 113.351 62.212 113.347 61.96 113.347C61.484 113.347 61.106 113.412 60.826 113.543C60.5554 113.664 60.3594 113.888 60.238 114.215C60.1167 114.532 60.056 114.98 60.056 115.559C60.056 116.137 60.1167 116.59 60.238 116.917C60.3594 117.234 60.5554 117.458 60.826 117.589C61.106 117.719 61.484 117.785 61.96 117.785C62.1 117.785 62.282 117.78 62.506 117.771C62.7394 117.761 62.9867 117.747 63.248 117.729C63.5187 117.71 63.78 117.687 64.032 117.659L64.2 118.751C63.836 118.9 63.43 119.007 62.982 119.073C62.534 119.138 62.0907 119.171 61.652 119.171C60.8307 119.171 60.1727 119.054 59.678 118.821C59.1834 118.587 58.824 118.209 58.6 117.687C58.3854 117.155 58.278 116.445 58.278 115.559C58.278 114.672 58.39 113.967 58.614 113.445C58.838 112.913 59.1974 112.535 59.692 112.311C60.1867 112.077 60.8447 111.961 61.666 111.961ZM70.108 111.961C71.3867 111.961 72.026 112.591 72.026 113.851V119.003H70.318V114.369C70.318 113.995 70.2527 113.739 70.122 113.599C70.0007 113.459 69.786 113.389 69.478 113.389C69.1327 113.389 68.778 113.463 68.414 113.613C68.05 113.762 67.6114 113.986 67.098 114.285L66.972 113.305C67.4947 112.875 68.0174 112.544 68.54 112.311C69.072 112.077 69.5947 111.961 70.108 111.961ZM67.28 109.203L67.294 111.723C67.294 112.068 67.2754 112.395 67.238 112.703C67.21 113.001 67.168 113.258 67.112 113.473L67.28 113.669V119.003H65.586V109.203H67.28ZM33.4505 127.343C33.5998 127.343 33.7305 127.385 33.8425 127.469C33.9545 127.553 34.0338 127.665 34.0805 127.805L37.0065 137.003H35.2145L33.0025 129.555C32.9651 129.405 32.9278 129.256 32.8905 129.107C32.8531 128.957 32.8205 128.813 32.7925 128.673H32.4005C32.3725 128.813 32.3398 128.957 32.3025 129.107C32.2651 129.256 32.2231 129.405 32.1765 129.555L29.9785 137.003H28.1865L31.1125 127.805C31.1498 127.665 31.2245 127.553 31.3365 127.469C31.4578 127.385 31.5931 127.343 31.7425 127.343H33.4505ZM35.0745 132.873V134.245H30.1045V132.873H35.0745ZM40.5015 129.961C40.8189 129.961 41.1595 129.97 41.5235 129.989C41.8969 130.007 42.2609 130.035 42.6155 130.073C42.9702 130.101 43.2875 130.143 43.5675 130.199L43.4555 131.305C43.0075 131.295 42.5595 131.286 42.1115 131.277C41.6729 131.258 41.2389 131.249 40.8095 131.249C40.4269 131.249 40.1235 131.258 39.8995 131.277C39.6849 131.295 39.5309 131.351 39.4375 131.445C39.3535 131.538 39.3115 131.697 39.3115 131.921C39.3115 132.191 39.3862 132.373 39.5355 132.467C39.6849 132.551 39.9275 132.635 40.2635 132.719L42.1395 133.153C42.6995 133.293 43.1149 133.507 43.3855 133.797C43.6562 134.077 43.7915 134.511 43.7915 135.099C43.7915 135.668 43.6842 136.102 43.4695 136.401C43.2642 136.69 42.9329 136.891 42.4755 137.003C42.0275 137.105 41.4535 137.157 40.7535 137.157C40.4829 137.157 40.0815 137.143 39.5495 137.115C39.0175 137.096 38.4342 137.035 37.7995 136.933L37.9115 135.827C38.0982 135.827 38.3175 135.831 38.5695 135.841C38.8309 135.85 39.1062 135.855 39.3955 135.855C39.6942 135.855 39.9975 135.855 40.3055 135.855C40.8002 135.855 41.1782 135.841 41.4395 135.813C41.7102 135.775 41.8969 135.705 41.9995 135.603C42.1022 135.491 42.1535 135.332 42.1535 135.127C42.1535 134.865 42.0649 134.693 41.8875 134.609C41.7195 134.515 41.4675 134.427 41.1315 134.343L39.2975 133.895C38.8775 133.783 38.5509 133.643 38.3175 133.475C38.0842 133.297 37.9162 133.083 37.8135 132.831C37.7109 132.569 37.6595 132.252 37.6595 131.879C37.6595 131.375 37.7529 130.983 37.9395 130.703C38.1355 130.423 38.4389 130.227 38.8495 130.115C39.2695 130.003 39.8202 129.951 40.5015 129.961ZM47.8023 129.961C48.1196 129.961 48.4603 129.97 48.8243 129.989C49.1976 130.007 49.5616 130.035 49.9163 130.073C50.271 130.101 50.5883 130.143 50.8683 130.199L50.7563 131.305C50.3083 131.295 49.8603 131.286 49.4123 131.277C48.9736 131.258 48.5396 131.249 48.1103 131.249C47.7276 131.249 47.4243 131.258 47.2003 131.277C46.9856 131.295 46.8316 131.351 46.7383 131.445C46.6543 131.538 46.6123 131.697 46.6123 131.921C46.6123 132.191 46.687 132.373 46.8363 132.467C46.9856 132.551 47.2283 132.635 47.5643 132.719L49.4403 133.153C50.0003 133.293 50.4156 133.507 50.6863 133.797C50.957 134.077 51.0923 134.511 51.0923 135.099C51.0923 135.668 50.985 136.102 50.7703 136.401C50.565 136.69 50.2336 136.891 49.7763 137.003C49.3283 137.105 48.7543 137.157 48.0543 137.157C47.7836 137.157 47.3823 137.143 46.8503 137.115C46.3183 137.096 45.735 137.035 45.1003 136.933L45.2123 135.827C45.399 135.827 45.6183 135.831 45.8703 135.841C46.1316 135.85 46.407 135.855 46.6963 135.855C46.995 135.855 47.2983 135.855 47.6063 135.855C48.101 135.855 48.479 135.841 48.7403 135.813C49.011 135.775 49.1976 135.705 49.3003 135.603C49.403 135.491 49.4543 135.332 49.4543 135.127C49.4543 134.865 49.3656 134.693 49.1883 134.609C49.0203 134.515 48.7683 134.427 48.4323 134.343L46.5983 133.895C46.1783 133.783 45.8516 133.643 45.6183 133.475C45.385 133.297 45.217 133.083 45.1143 132.831C45.0116 132.569 44.9603 132.252 44.9603 131.879C44.9603 131.375 45.0536 130.983 45.2403 130.703C45.4363 130.423 45.7396 130.227 46.1503 130.115C46.5703 130.003 47.121 129.951 47.8023 129.961ZM54.3611 130.129V137.003H52.6811V130.129H54.3611ZM53.8991 127.147C54.2351 127.147 54.4031 127.315 54.4031 127.651V128.435C54.4031 128.771 54.2351 128.939 53.8991 128.939H53.1431C52.8071 128.939 52.6391 128.771 52.6391 128.435V127.651C52.6391 127.315 52.8071 127.147 53.1431 127.147H53.8991ZM59.2285 129.961C60.0032 129.961 60.6145 130.035 61.0625 130.185C61.5198 130.325 61.8465 130.558 62.0425 130.885C62.2385 131.202 62.3365 131.622 62.3365 132.145C62.3365 132.649 62.2385 133.064 62.0425 133.391C61.8465 133.708 61.5198 133.941 61.0625 134.091C60.6052 134.24 59.9892 134.315 59.2145 134.315C58.4398 134.315 57.8238 134.24 57.3665 134.091C56.9185 133.941 56.5918 133.708 56.3865 133.391C56.1905 133.073 56.0925 132.658 56.0925 132.145C56.0925 131.622 56.1905 131.202 56.3865 130.885C56.5918 130.558 56.9232 130.325 57.3805 130.185C57.8378 130.035 58.4538 129.961 59.2285 129.961ZM59.2145 131.067C58.6265 131.067 58.2205 131.146 57.9965 131.305C57.7725 131.463 57.6605 131.743 57.6605 132.145C57.6605 132.527 57.7725 132.803 57.9965 132.971C58.2205 133.129 58.6265 133.209 59.2145 133.209C59.8025 133.209 60.2038 133.129 60.4185 132.971C60.6425 132.803 60.7545 132.527 60.7545 132.145C60.7545 131.743 60.6425 131.463 60.4185 131.305C60.2038 131.146 59.8025 131.067 59.2145 131.067ZM63.1345 130.129L63.0365 130.913L61.2445 131.109L60.7405 130.129H63.1345ZM57.2125 133.895L58.0805 134.021C57.9405 134.133 57.8425 134.277 57.7865 134.455C57.7398 134.623 57.7538 134.786 57.8285 134.945C57.9125 135.094 58.0898 135.187 58.3605 135.225L60.9085 135.561C61.5992 135.645 62.0845 135.85 62.3645 136.177C62.6445 136.494 62.7845 136.956 62.7845 137.563C62.7845 138.132 62.6725 138.575 62.4485 138.893C62.2245 139.21 61.8558 139.429 61.3425 139.551C60.8385 139.681 60.1572 139.747 59.2985 139.747C58.6172 139.747 58.0525 139.709 57.6045 139.635C57.1565 139.569 56.7972 139.453 56.5265 139.285C56.2652 139.126 56.0785 138.916 55.9665 138.655C55.8545 138.403 55.7985 138.085 55.7985 137.703C55.7985 137.404 55.8452 137.152 55.9385 136.947C56.0412 136.741 56.2045 136.559 56.4285 136.401C56.6525 136.233 56.9558 136.079 57.3385 135.939L58.2905 135.533L58.9485 135.771L58.3325 136.205C58.1178 136.363 57.9405 136.508 57.8005 136.639C57.6698 136.76 57.5718 136.881 57.5065 137.003C57.4505 137.133 57.4225 137.297 57.4225 137.493C57.4225 137.754 57.4738 137.955 57.5765 138.095C57.6885 138.235 57.8798 138.328 58.1505 138.375C58.4212 138.431 58.7992 138.459 59.2845 138.459C59.7792 138.459 60.1618 138.431 60.4325 138.375C60.7032 138.328 60.8898 138.235 60.9925 138.095C61.1045 137.964 61.1605 137.773 61.1605 137.521C61.1605 137.315 61.1278 137.161 61.0625 137.059C60.9972 136.965 60.8805 136.891 60.7125 136.835C60.5445 136.779 60.3112 136.732 60.0125 136.695L57.7165 136.415C57.3898 136.377 57.1285 136.284 56.9325 136.135C56.7458 135.976 56.6152 135.789 56.5405 135.575C56.4658 135.351 56.4425 135.131 56.4705 134.917C56.5078 134.693 56.5872 134.487 56.7085 134.301C56.8392 134.114 57.0072 133.979 57.2125 133.895ZM68.8365 129.961C70.1152 129.961 70.7545 130.591 70.7545 131.851V137.003H69.0605V132.369C69.0605 131.995 68.9952 131.739 68.8645 131.599C68.7339 131.459 68.5145 131.389 68.2065 131.389C67.8612 131.389 67.5065 131.468 67.1425 131.627C66.7785 131.776 66.3399 131.995 65.8265 132.285L65.7565 131.263C66.2605 130.843 66.7739 130.521 67.2965 130.297C67.8192 130.073 68.3325 129.961 68.8365 129.961ZM65.7005 130.129L65.8685 131.473L66.0085 131.669V137.003H64.3145V130.129H65.7005Z" fill="#8965D0"/>
<path d="M76.0189 81.1159L24.1873 81.1089" stroke="white" stroke-width="6.29" stroke-miterlimit="10"/>
<path d="M76.0189 81.1159L24.1873 81.1089" stroke="#8965D0" stroke-width="3.42" stroke-miterlimit="10"/>
<path d="M18.8874 22.6508L18.8874 18.8889L75.4494 18.8819" stroke="white" stroke-width="6.29" stroke-miterlimit="10"/>
<path d="M18.8874 22.6508L18.8874 18.8889L75.4494 18.8819" stroke="#8965D0" stroke-width="3.42" stroke-miterlimit="10"/>
<path d="M86.5489 37.758V62.1739L62.2103 86.5125L37.8068 86.5L13.4669 62.1601L13.4545 37.7566L37.793 13.4181H62.2089L86.5489 37.758Z" fill="#EFF2FF" stroke="#8965D0" stroke-width="7"/>
<path d="M63.001 60.9178C62.792 61.3447 62.4448 61.4823 61.9733 61.4729C60.8821 61.4507 59.79 61.4665 58.6983 61.4656C58.1032 61.4656 57.8117 61.1773 57.8107 60.5882C57.8093 59.5933 57.8093 58.5983 57.8107 57.6034C57.8107 57.0225 58.0949 56.7413 58.6795 56.7375C58.9897 56.7357 59.302 56.7375 59.6287 56.7375V55.0278H54.2411V56.7373C54.5654 56.7373 54.8763 56.7359 55.1869 56.7373C55.7742 56.7406 56.061 57.0202 56.0624 57.598C56.0653 58.6015 56.0653 59.6049 56.0624 60.608C56.0605 61.1759 55.7598 61.4646 55.1795 61.4651C54.0371 61.4662 52.8946 61.4662 51.7521 61.4651C51.1771 61.4651 50.8707 61.165 50.8693 60.6021C50.8675 59.5988 50.8675 58.5956 50.8693 57.5923C50.8693 57.0367 51.1673 56.7423 51.7283 56.7375C52.0399 56.7349 52.3518 56.7375 52.6827 56.7375V55.0299H47.3207V56.7373C47.607 56.7373 47.8993 56.7373 48.1911 56.7373C48.8592 56.7373 49.1331 57.0082 49.1334 57.6621C49.1334 58.6404 49.1334 59.6186 49.1334 60.5967C49.1334 61.1624 48.828 61.4646 48.2565 61.4654C47.1054 61.4668 45.9545 61.4668 44.8036 61.4654C44.2423 61.4654 43.9415 61.17 43.9398 60.6139C43.9364 59.6021 43.9364 58.5905 43.9398 57.5789C43.9417 57.0317 44.2347 56.7441 44.7842 56.7375C45.0887 56.7338 45.3932 56.7324 45.6976 56.7288C45.7127 56.7288 45.7275 56.7159 45.7592 56.7015V55.0278H40.3714V56.7373C40.7037 56.7373 41.0232 56.7352 41.3427 56.7373C41.8978 56.7423 42.1898 57.0273 42.1912 57.5723C42.1939 58.5923 42.1939 59.6124 42.1912 60.6323C42.1896 61.1683 41.8844 61.4637 41.3353 61.4646C40.176 61.4665 39.0166 61.4665 37.8571 61.4646C37.3136 61.4646 37.0034 61.1582 37.0024 60.6278C37.0005 59.6076 37.0005 58.5875 37.0024 57.5675C37.0024 57.0426 37.3023 56.7444 37.8335 56.7378C38.1537 56.7338 38.4742 56.7378 38.8206 56.7378C38.8259 56.6315 38.8335 56.5435 38.8337 56.4549C38.8337 55.7692 38.8337 55.0837 38.8337 54.3982C38.8337 53.7992 39.1303 53.5059 39.739 53.5057C42.7945 53.5047 45.8498 53.5047 48.9048 53.5057H49.2224V51.7891H48.9265C46.8869 51.7891 44.8472 51.7891 42.8076 51.7891C42.1788 51.7891 41.8935 51.5081 41.8932 50.8848C41.8932 47.2231 41.8932 43.5615 41.8932 39.8998C41.8932 39.2836 42.186 39 42.8157 39C47.6059 39 52.396 39 57.186 39C57.8152 39 58.108 39.2829 58.1083 39.9C58.1092 43.5617 58.1092 47.2238 58.1083 50.8862C58.1083 51.5093 57.8219 51.79 57.1934 51.7903C55.1622 51.7903 53.131 51.7903 51.0998 51.7903H50.7805V53.5057H51.0974C54.127 53.5057 57.1568 53.5057 60.1868 53.5057C60.8998 53.5057 61.1677 53.7706 61.168 54.4743V56.7373C61.4631 56.7373 61.7406 56.7536 62.0167 56.7335C62.4856 56.6998 62.8194 56.8684 63.0005 57.3059L63.001 60.9178ZM50.0019 48.5704C50.7798 48.5704 51.5577 48.5659 52.3355 48.5723C52.746 48.5756 53.0232 48.4028 53.1891 48.0301C53.7016 46.8769 54.2186 45.7255 54.74 44.576C54.8832 44.2587 54.8868 43.9562 54.6446 43.6887C54.4024 43.4211 54.0958 43.3884 53.7617 43.5001C53.2101 43.6847 52.6543 43.8579 52.1058 44.051C51.9409 44.109 51.8538 44.0746 51.75 43.9414C51.3897 43.4777 51.0177 43.022 50.6445 42.5694C50.2627 42.1057 49.7378 42.1067 49.356 42.5718C48.9776 43.0319 48.6015 43.4942 48.2345 43.9626C48.1422 44.0805 48.0632 44.1076 47.9184 44.0569C47.3696 43.8657 46.8136 43.6932 46.2634 43.5053C45.9203 43.3874 45.6108 43.4133 45.3595 43.6915C45.1168 43.9602 45.1209 44.2584 45.2641 44.5771C45.7847 45.7266 46.3017 46.8778 46.815 48.0308C46.9821 48.4045 47.2589 48.5756 47.669 48.573C48.4459 48.5657 49.2238 48.5704 50.0019 48.5704Z" fill="#8965D0"/>
<path d="M47.3223 45.4438C47.6086 45.5367 47.8319 45.6088 48.055 45.6795C48.4712 45.8103 48.7446 45.7309 49.02 45.3943C49.3426 44.9997 49.6618 44.6025 50.0019 44.1826C50.3245 44.581 50.6299 44.9565 50.9324 45.3335C51.2665 45.7465 51.5139 45.8221 52.0174 45.6595C52.2162 45.5951 52.4147 45.5301 52.6788 45.4438C52.5178 45.8021 52.3398 46.0977 52.251 46.4173C52.1009 46.9595 51.7931 47.112 51.2305 47.08C50.2441 47.0239 49.2517 47.0609 48.2619 47.0677C48.1032 47.0689 48.0233 47.0206 47.9605 46.8747C47.7661 46.4145 47.5544 45.9605 47.3223 45.4438Z" fill="#8965D0"/>
<path d="M24.1857 81.108L18.8867 81.115L18.8867 22.6509" stroke="white" stroke-width="6.29" stroke-miterlimit="10"/>
<path d="M24.1857 81.108L18.8867 81.115L18.8867 22.6509" stroke="#8965D0" stroke-width="3.42" stroke-miterlimit="10"/>
<path d="M75.4499 18.8803L81.1138 18.8874L81.1138 81.1134L76.0184 81.1134" stroke="white" stroke-width="6.29" stroke-miterlimit="10"/>
<path d="M75.4499 18.8803L81.1138 18.8874L81.1138 81.1134L76.0184 81.1134" stroke="#8965D0" stroke-width="3.42" stroke-miterlimit="10"/>
</svg>
