<svg width="100" height="156" viewBox="0 0 100 156" fill="none" xmlns="http://www.w3.org/2000/svg">
<rect width="100" height="156" rx="19" fill="#F9FBFF"/>
<path d="M23.8319 109.161C24.5786 109.161 25.2086 109.245 25.7219 109.413C26.2352 109.571 26.6459 109.842 26.9539 110.225C27.2619 110.607 27.4859 111.121 27.6259 111.765C27.7752 112.409 27.8499 113.211 27.8499 114.173C27.8499 115.125 27.7752 115.927 27.6259 116.581C27.4859 117.225 27.2619 117.738 26.9539 118.121C26.6459 118.503 26.2352 118.779 25.7219 118.947C25.2086 119.105 24.5786 119.185 23.8319 119.185C23.1039 119.185 22.4832 119.105 21.9699 118.947C21.4566 118.779 21.0412 118.503 20.7239 118.121C20.4066 117.738 20.1779 117.225 20.0379 116.581C19.8979 115.927 19.8279 115.125 19.8279 114.173C19.8279 113.211 19.8979 112.409 20.0379 111.765C20.1779 111.121 20.4066 110.607 20.7239 110.225C21.0412 109.842 21.4566 109.571 21.9699 109.413C22.4832 109.245 23.1039 109.161 23.8319 109.161ZM23.8319 110.589C23.2812 110.589 22.8472 110.701 22.5299 110.925C22.2219 111.139 22.0026 111.508 21.8719 112.031C21.7412 112.544 21.6759 113.258 21.6759 114.173C21.6759 115.087 21.7412 115.806 21.8719 116.329C22.0026 116.842 22.2219 117.211 22.5299 117.435C22.8472 117.649 23.2812 117.757 23.8319 117.757C24.3919 117.757 24.8259 117.649 25.1339 117.435C25.4512 117.211 25.6752 116.842 25.8059 116.329C25.9366 115.806 26.0019 115.087 26.0019 114.173C26.0019 113.258 25.9366 112.544 25.8059 112.031C25.6752 111.508 25.4512 111.139 25.1339 110.925C24.8259 110.701 24.3919 110.589 23.8319 110.589ZM34.2299 111.961C35.0792 111.961 35.6905 112.273 36.0639 112.899C36.4372 113.524 36.6239 114.429 36.6239 115.615C36.6239 116.52 36.5259 117.234 36.3299 117.757C36.1432 118.27 35.8585 118.639 35.4759 118.863C35.0932 119.077 34.6079 119.185 34.0199 119.185C33.5532 119.185 33.0959 119.119 32.6479 118.989C32.2092 118.849 31.8032 118.634 31.4299 118.345L31.5419 117.505C31.9059 117.607 32.2325 117.696 32.5219 117.771C32.8112 117.845 33.1285 117.883 33.4739 117.883C33.8192 117.883 34.0899 117.827 34.2859 117.715C34.4912 117.593 34.6405 117.369 34.7339 117.043C34.8272 116.716 34.8739 116.245 34.8739 115.629C34.8739 115.022 34.8319 114.551 34.7479 114.215C34.6639 113.879 34.5239 113.645 34.3279 113.515C34.1412 113.375 33.8939 113.305 33.5859 113.305C33.2499 113.305 32.9325 113.379 32.6339 113.529C32.3352 113.669 31.9899 113.879 31.5979 114.159L31.4019 113.263C31.6165 113.011 31.8732 112.787 32.1719 112.591C32.4799 112.395 32.8112 112.241 33.1659 112.129C33.5205 112.017 33.8752 111.961 34.2299 111.961ZM31.3319 112.129L31.4999 113.459L31.6539 113.655V118.093L31.5839 118.261C31.6119 118.531 31.6305 118.802 31.6399 119.073C31.6492 119.353 31.6539 119.637 31.6539 119.927V121.733H29.9599V112.129H31.3319ZM41.731 111.961C42.8417 111.961 43.6397 112.157 44.125 112.549C44.6103 112.931 44.8577 113.501 44.867 114.257C44.8763 114.882 44.727 115.358 44.419 115.685C44.1203 116.002 43.621 116.161 42.921 116.161H39.001V115.111H42.459C42.7763 115.111 42.977 115.027 43.061 114.859C43.1543 114.691 43.201 114.485 43.201 114.243C43.1917 113.86 43.0797 113.594 42.865 113.445C42.6597 113.295 42.305 113.221 41.801 113.221C41.3623 113.221 41.0217 113.281 40.779 113.403C40.5363 113.524 40.3637 113.743 40.261 114.061C40.1677 114.378 40.121 114.835 40.121 115.433C40.121 116.067 40.1817 116.557 40.303 116.903C40.4243 117.248 40.625 117.486 40.905 117.617C41.185 117.738 41.5583 117.799 42.025 117.799C42.3703 117.799 42.767 117.785 43.215 117.757C43.6723 117.729 44.111 117.691 44.531 117.645L44.699 118.723C44.447 118.825 44.1577 118.909 43.831 118.975C43.5043 119.04 43.1637 119.087 42.809 119.115C42.4637 119.152 42.137 119.171 41.829 119.171C40.989 119.171 40.3123 119.049 39.799 118.807C39.295 118.555 38.9263 118.163 38.693 117.631C38.469 117.099 38.357 116.413 38.357 115.573C38.357 114.667 38.469 113.953 38.693 113.431C38.9263 112.899 39.2903 112.521 39.785 112.297C40.289 112.073 40.9377 111.961 41.731 111.961ZM48.1256 112.129L48.3496 113.473L48.5036 113.669V119.003H46.8096V112.129H48.1256ZM51.4856 111.961L51.3176 113.529H50.8276C50.4636 113.529 50.095 113.589 49.7216 113.711C49.3483 113.832 48.8816 114.014 48.3216 114.257L48.2096 113.263C48.695 112.852 49.1896 112.535 49.6936 112.311C50.1976 112.077 50.683 111.961 51.1496 111.961H51.4856ZM56.4845 111.961C57.0352 111.961 57.4972 112.035 57.8705 112.185C58.2532 112.325 58.5425 112.567 58.7385 112.913C58.9345 113.258 59.0325 113.734 59.0325 114.341V119.003H57.6885L57.4505 117.519L57.3245 117.323V114.327C57.3245 113.963 57.2405 113.701 57.0725 113.543C56.9045 113.375 56.5825 113.291 56.1065 113.291C55.7518 113.291 55.3038 113.305 54.7625 113.333C54.2305 113.361 53.6938 113.398 53.1525 113.445L52.9985 112.283C53.3252 112.217 53.6938 112.161 54.1045 112.115C54.5152 112.068 54.9305 112.031 55.3505 112.003C55.7705 111.975 56.1485 111.961 56.4845 111.961ZM58.3045 114.775L58.2905 115.825H55.1405C54.8605 115.834 54.6598 115.909 54.5385 116.049C54.4172 116.189 54.3565 116.38 54.3565 116.623V117.001C54.3565 117.281 54.4312 117.495 54.5805 117.645C54.7298 117.785 54.9632 117.855 55.2805 117.855C55.5325 117.855 55.8125 117.803 56.1205 117.701C56.4285 117.598 56.7318 117.449 57.0305 117.253C57.3385 117.057 57.6138 116.823 57.8565 116.553V117.435C57.7632 117.575 57.6278 117.743 57.4505 117.939C57.2732 118.125 57.0538 118.312 56.7925 118.499C56.5405 118.685 56.2465 118.839 55.9105 118.961C55.5838 119.082 55.2198 119.143 54.8185 119.143C54.4078 119.143 54.0392 119.073 53.7125 118.933C53.3858 118.783 53.1292 118.569 52.9425 118.289C52.7558 117.999 52.6625 117.645 52.6625 117.225V116.497C52.6625 115.955 52.8398 115.535 53.1945 115.237C53.5585 114.929 54.0532 114.775 54.6785 114.775H58.3045ZM63.5622 110.169V116.931C63.5622 117.22 63.6228 117.425 63.7442 117.547C63.8748 117.668 64.0942 117.729 64.4022 117.729H65.3542L65.5362 118.919C65.3775 118.965 65.1862 119.007 64.9622 119.045C64.7382 119.082 64.5188 119.105 64.3042 119.115C64.0895 119.133 63.9075 119.143 63.7582 119.143C63.1608 119.143 62.6942 118.984 62.3582 118.667C62.0315 118.34 61.8682 117.873 61.8682 117.267V110.169H63.5622ZM65.6062 112.129V113.305H60.6502V112.199L61.9942 112.129H65.6062ZM70.3866 111.961C71.2266 111.961 71.8939 112.077 72.3886 112.311C72.8926 112.544 73.2519 112.927 73.4666 113.459C73.6906 113.991 73.8026 114.695 73.8026 115.573C73.8026 116.45 73.6906 117.155 73.4666 117.687C73.2519 118.209 72.8926 118.592 72.3886 118.835C71.8939 119.068 71.2266 119.185 70.3866 119.185C69.5653 119.185 68.9026 119.068 68.3986 118.835C67.9039 118.592 67.5446 118.209 67.3206 117.687C67.0966 117.155 66.9846 116.45 66.9846 115.573C66.9846 114.695 67.0966 113.991 67.3206 113.459C67.5446 112.927 67.9039 112.544 68.3986 112.311C68.9026 112.077 69.5653 111.961 70.3866 111.961ZM70.3866 113.249C69.9759 113.249 69.6493 113.319 69.4066 113.459C69.1733 113.589 69.0053 113.823 68.9026 114.159C68.7999 114.495 68.7486 114.966 68.7486 115.573C68.7486 116.179 68.7999 116.651 68.9026 116.987C69.0053 117.323 69.1733 117.556 69.4066 117.687C69.6493 117.817 69.9759 117.883 70.3866 117.883C70.8066 117.883 71.1379 117.817 71.3806 117.687C71.6233 117.556 71.7913 117.323 71.8846 116.987C71.9873 116.651 72.0386 116.179 72.0386 115.573C72.0386 114.966 71.9873 114.495 71.8846 114.159C71.7913 113.823 71.6233 113.589 71.3806 113.459C71.1379 113.319 70.8066 113.249 70.3866 113.249ZM77.1357 112.129L77.3597 113.473L77.5137 113.669V119.003H75.8197V112.129H77.1357ZM80.4957 111.961L80.3277 113.529H79.8377C79.4737 113.529 79.105 113.589 78.7317 113.711C78.3584 113.832 77.8917 114.014 77.3317 114.257L77.2197 113.263C77.705 112.852 78.1997 112.535 78.7037 112.311C79.2077 112.077 79.693 111.961 80.1597 111.961H80.4957ZM34.3463 127.315C34.8317 127.315 35.3263 127.315 35.8303 127.315C36.3437 127.315 36.8477 127.324 37.3423 127.343C37.837 127.361 38.3037 127.389 38.7423 127.427L38.6583 128.729H34.8783C34.617 128.729 34.421 128.794 34.2903 128.925C34.169 129.055 34.1083 129.261 34.1083 129.541V134.805C34.1083 135.085 34.169 135.29 34.2903 135.421C34.421 135.551 34.617 135.617 34.8783 135.617H38.6583L38.7423 136.919C38.3037 136.956 37.837 136.984 37.3423 137.003C36.8477 137.012 36.3437 137.017 35.8303 137.017C35.3263 137.026 34.8317 137.031 34.3463 137.031C33.749 137.031 33.2683 136.867 32.9043 136.541C32.5497 136.205 32.3677 135.757 32.3583 135.197V129.149C32.3677 128.589 32.5497 128.145 32.9043 127.819C33.2683 127.483 33.749 127.315 34.3463 127.315ZM32.6103 131.305H38.1263V132.593H32.6103V131.305ZM45.2427 129.961C46.5214 129.961 47.1607 130.591 47.1607 131.851V137.003H45.4667V132.369C45.4667 131.995 45.4014 131.739 45.2707 131.599C45.1401 131.459 44.9207 131.389 44.6127 131.389C44.2674 131.389 43.9127 131.468 43.5487 131.627C43.1847 131.776 42.7461 131.995 42.2327 132.285L42.1627 131.263C42.6667 130.843 43.1801 130.521 43.7027 130.297C44.2254 130.073 44.7387 129.961 45.2427 129.961ZM42.1067 130.129L42.2747 131.473L42.4147 131.669V137.003H40.7207V130.129H42.1067ZM51.7075 128.169V134.931C51.7075 135.22 51.7682 135.425 51.8895 135.547C52.0202 135.668 52.2395 135.729 52.5475 135.729H53.4995L53.6815 136.919C53.5229 136.965 53.3315 137.007 53.1075 137.045C52.8835 137.082 52.6642 137.105 52.4495 137.115C52.2349 137.133 52.0529 137.143 51.9035 137.143C51.3062 137.143 50.8395 136.984 50.5035 136.667C50.1769 136.34 50.0135 135.873 50.0135 135.267V128.169H51.7075ZM53.7515 130.129V131.305H48.7955V130.199L50.1395 130.129H53.7515ZM56.74 130.129L56.964 131.473L57.118 131.669V137.003H55.424V130.129H56.74ZM60.1 129.961L59.932 131.529H59.442C59.078 131.529 58.7093 131.589 58.336 131.711C57.9627 131.832 57.496 132.014 56.936 132.257L56.824 131.263C57.3093 130.852 57.804 130.535 58.308 130.311C58.812 130.077 59.2973 129.961 59.764 129.961H60.1ZM68.2342 130.129L65.6582 137.213C65.5369 137.539 65.3829 137.861 65.1962 138.179C65.0189 138.505 64.7902 138.799 64.5102 139.061C64.2302 139.322 63.8989 139.527 63.5162 139.677C63.1336 139.826 62.6902 139.882 62.1862 139.845L62.0462 138.837C62.6062 138.678 63.0402 138.463 63.3482 138.193C63.6656 137.922 63.9129 137.577 64.0902 137.157L64.4682 136.261C64.5522 136.055 64.6316 135.822 64.7062 135.561C64.7902 135.29 64.8602 135.057 64.9162 134.861L66.4142 130.129H68.2342ZM62.6902 130.129L64.2162 134.861C64.2629 135.019 64.3049 135.183 64.3422 135.351C64.3796 135.509 64.4122 135.668 64.4402 135.827H64.7902L64.2582 137.003H63.8102C63.6796 137.003 63.5629 136.965 63.4602 136.891C63.3576 136.816 63.2876 136.713 63.2502 136.583L60.8842 130.129H62.6902Z" fill="#9049A9"/>
<path d="M76.0189 81.1159L24.1873 81.1089" stroke="white" stroke-width="6.29" stroke-miterlimit="10"/>
<path d="M76.0189 81.1159L24.1873 81.1089" stroke="#9049A9" stroke-width="3.42" stroke-miterlimit="10"/>
<path d="M18.8871 22.6508L18.8871 18.8889L75.4492 18.8819" stroke="white" stroke-width="6.29" stroke-miterlimit="10"/>
<path d="M18.8871 22.6508L18.8871 18.8889L75.4492 18.8819" stroke="#9049A9" stroke-width="3.42" stroke-miterlimit="10"/>
<path d="M62.21 86.5128L37.8075 86.5003L13.4667 62.1594L13.4541 37.757L37.7927 13.4184H62.2092L86.5486 37.7577L86.5486 62.1742L62.21 86.5128Z" fill="#FBEEFF" stroke="#9049A9" stroke-width="7"/>
<path d="M24.1854 81.108L18.8865 81.115L18.8865 22.6509" stroke="white" stroke-width="6.29" stroke-miterlimit="10"/>
<path d="M24.1854 81.108L18.8865 81.115L18.8865 22.6509" stroke="#9049A9" stroke-width="3.42" stroke-miterlimit="10"/>
<path d="M75.4494 18.8803L81.1133 18.8874L81.1134 81.1134L76.0179 81.1134" stroke="white" stroke-width="6.29" stroke-miterlimit="10"/>
<path d="M75.4494 18.8803L81.1133 18.8874L81.1134 81.1134L76.0179 81.1134" stroke="#9049A9" stroke-width="3.42" stroke-miterlimit="10"/>
<path d="M54.2512 58.9811C54.5906 58.1441 54.6673 57.387 54.5194 56.6141C54.3185 55.5667 53.7433 54.7717 52.8415 54.2164C51.2032 53.2062 48.7089 53.2829 47.1702 54.3809C46.4433 54.9033 45.8917 55.6336 45.5881 56.4757C45.293 57.2573 45.3682 58.3031 46.5872 59.0072C46.3451 58.985 46.1015 58.9684 45.8602 58.9391C43.813 58.7004 41.791 58.2805 39.8179 57.6845C39.3187 57.5326 39.0474 57.2968 39.0189 56.7241C38.9604 55.5375 39.0189 54.3825 39.4635 53.2639C39.8148 52.3739 40.4389 51.7276 41.2039 51.1873C42.3156 50.4182 43.5122 49.7798 44.7701 49.2848C45.1792 49.1157 45.5776 48.9218 45.963 48.7041C46.3989 48.4605 46.6371 48.0807 46.7383 47.5768C46.8396 47.0729 46.8016 46.6789 46.5081 46.209C45.9543 45.323 45.4212 44.4054 45.1735 43.3611C45.0897 43.0067 44.9726 42.6579 45.1419 42.2916C45.172 42.2251 45.1356 42.1207 45.115 42.0377C44.8864 41.1145 44.7891 40.1834 45.1008 39.2689C45.4607 38.2072 45.9393 37.2374 47.0286 36.6947C47.9943 36.2152 49.062 35.9774 50.14 36.0017C51.1303 35.9994 52.1069 36.2343 52.9879 36.6868C53.7647 37.0926 54.2876 37.6946 54.6404 38.5063C54.9798 39.2839 55.1871 40.0647 55.1151 40.9119C55.108 41.0005 55.1 41.0884 55.0929 41.177C55.0518 41.6856 54.9505 42.1801 54.9442 42.703C54.9371 43.3429 54.623 43.9861 54.4071 44.6158C54.3066 44.9085 54.131 45.1775 53.9783 45.4512C53.7919 45.8092 53.5873 46.1575 53.3652 46.4946C53.2228 46.6971 53.207 46.8799 53.2173 47.118C53.2608 48.2935 54.036 48.8141 54.9996 49.1835C56.4409 49.7245 57.8044 50.4536 59.0547 51.3519C60.2342 52.2086 60.8045 53.3944 60.9604 54.7867C61.0395 55.5351 60.9841 56.3001 60.9754 57.0579C60.9754 57.3791 60.731 57.5176 60.4636 57.5935C59.5831 57.8443 58.7074 58.1227 57.8143 58.3189C56.6609 58.5689 55.494 58.7524 54.2512 58.9811Z" fill="#9049A9"/>
<path d="M49.7647 60.8073C49.597 60.8073 49.4292 60.812 49.2615 60.8073C48.8937 60.7946 48.8209 60.7131 48.8154 60.3382C48.8035 59.5146 49.127 58.8889 49.8786 58.5068C50.0803 58.404 50.3042 58.313 50.4584 58.1571C50.6455 57.9771 50.7877 57.7558 50.8738 57.5108C50.9821 57.1493 50.7496 56.8511 50.3793 56.7688C50.1625 56.711 49.9327 56.7252 49.7246 56.8094C49.5166 56.8936 49.3416 57.0432 49.2259 57.2355C49.1256 57.3935 49.0377 57.5591 48.9633 57.7308C48.8446 57.9981 48.6556 58.0749 48.389 57.9768C48.0282 57.8431 47.6659 57.7141 47.3099 57.5702C46.9935 57.4412 46.9278 57.2838 47.0584 56.9626C47.4175 56.0782 48.0298 55.4596 48.9665 55.2104C49.9158 54.958 50.8651 54.973 51.7724 55.3899C53.3364 56.1138 53.5128 58.1793 52.0968 59.1618C51.789 59.3754 51.4552 59.5495 51.1364 59.7456C50.8627 59.9149 50.6657 60.1309 50.672 60.4821C50.672 60.6823 50.5557 60.7922 50.3556 60.7986C50.1555 60.8049 49.9601 60.7986 49.7639 60.7986L49.7647 60.8073Z" fill="#9049A9"/>
<path d="M49.7727 63.2755C48.734 63.2897 48.5995 63.1528 48.6209 62.1157C48.6233 61.9977 48.6328 61.8798 48.6494 61.7629C48.6968 61.4164 48.8495 61.2376 49.196 61.2092C49.5785 61.183 49.9622 61.183 50.3447 61.2092C50.6405 61.2281 50.8478 61.4046 50.8707 61.7123C50.9021 62.0445 50.905 62.3787 50.8794 62.7114C50.8438 63.0848 50.654 63.2383 50.2743 63.2652C50.1081 63.2857 49.9404 63.2755 49.7727 63.2755Z" fill="#9049A9"/>
</svg>
