<svg width="100" height="156" viewBox="0 0 100 156" fill="none" xmlns="http://www.w3.org/2000/svg">
<rect width="100" height="156" rx="19" fill="#F9FBFF"/>
<path d="M35.2714 109.161C36.0181 109.161 36.6481 109.245 37.1614 109.413C37.6748 109.572 38.0854 109.842 38.3934 110.225C38.7014 110.608 38.9254 111.121 39.0654 111.765C39.2148 112.409 39.2894 113.212 39.2894 114.173C39.2894 115.125 39.2148 115.928 39.0654 116.581C38.9254 117.225 38.7014 117.738 38.3934 118.121C38.0854 118.504 37.6748 118.779 37.1614 118.947C36.6481 119.106 36.0181 119.185 35.2714 119.185C34.5434 119.185 33.9228 119.106 33.4094 118.947C32.8961 118.779 32.4808 118.504 32.1634 118.121C31.8461 117.738 31.6174 117.225 31.4774 116.581C31.3374 115.928 31.2674 115.125 31.2674 114.173C31.2674 113.212 31.3374 112.409 31.4774 111.765C31.6174 111.121 31.8461 110.608 32.1634 110.225C32.4808 109.842 32.8961 109.572 33.4094 109.413C33.9228 109.245 34.5434 109.161 35.2714 109.161ZM35.2714 110.589C34.7208 110.589 34.2868 110.701 33.9694 110.925C33.6614 111.14 33.4421 111.508 33.3114 112.031C33.1808 112.544 33.1154 113.258 33.1154 114.173C33.1154 115.088 33.1808 115.806 33.3114 116.329C33.4421 116.842 33.6614 117.211 33.9694 117.435C34.2868 117.65 34.7208 117.757 35.2714 117.757C35.8314 117.757 36.2654 117.65 36.5734 117.435C36.8908 117.211 37.1148 116.842 37.2454 116.329C37.3761 115.806 37.4414 115.088 37.4414 114.173C37.4414 113.258 37.3761 112.544 37.2454 112.031C37.1148 111.508 36.8908 111.14 36.5734 110.925C36.2654 110.701 35.8314 110.589 35.2714 110.589ZM43.6674 110.169V116.931C43.6674 117.22 43.7281 117.426 43.8494 117.547C43.9801 117.668 44.1994 117.729 44.5074 117.729H45.4594L45.6414 118.919C45.4827 118.966 45.2914 119.008 45.0674 119.045C44.8434 119.082 44.6241 119.106 44.4094 119.115C44.1947 119.134 44.0127 119.143 43.8634 119.143C43.2661 119.143 42.7994 118.984 42.4634 118.667C42.1367 118.34 41.9734 117.874 41.9734 117.267V110.169H43.6674ZM45.7114 112.129V113.305H40.7554V112.199L42.0994 112.129H45.7114ZM51.9058 111.961C53.1845 111.961 53.8238 112.591 53.8238 113.851V119.003H52.1158V114.369C52.1158 113.996 52.0505 113.739 51.9198 113.599C51.7985 113.459 51.5838 113.389 51.2758 113.389C50.9305 113.389 50.5758 113.464 50.2118 113.613C49.8478 113.762 49.4092 113.986 48.8958 114.285L48.7698 113.305C49.2925 112.876 49.8152 112.544 50.3378 112.311C50.8698 112.078 51.3925 111.961 51.9058 111.961ZM49.0778 109.203L49.0918 111.723C49.0918 112.068 49.0732 112.395 49.0358 112.703C49.0078 113.002 48.9658 113.258 48.9098 113.473L49.0778 113.669V119.003H47.3838V109.203H49.0778ZM59.1687 111.961C60.2793 111.961 61.0773 112.157 61.5627 112.549C62.048 112.932 62.2953 113.501 62.3047 114.257C62.314 114.882 62.1647 115.358 61.8567 115.685C61.558 116.002 61.0587 116.161 60.3587 116.161H56.4387V115.111H59.8967C60.214 115.111 60.4147 115.027 60.4987 114.859C60.592 114.691 60.6387 114.486 60.6387 114.243C60.6293 113.86 60.5173 113.594 60.3027 113.445C60.0973 113.296 59.7427 113.221 59.2387 113.221C58.8 113.221 58.4593 113.282 58.2167 113.403C57.974 113.524 57.8013 113.744 57.6987 114.061C57.6053 114.378 57.5587 114.836 57.5587 115.433C57.5587 116.068 57.6193 116.558 57.7407 116.903C57.862 117.248 58.0627 117.486 58.3427 117.617C58.6227 117.738 58.996 117.799 59.4627 117.799C59.808 117.799 60.2047 117.785 60.6527 117.757C61.11 117.729 61.5487 117.692 61.9687 117.645L62.1367 118.723C61.8847 118.826 61.5953 118.91 61.2687 118.975C60.942 119.04 60.6013 119.087 60.2467 119.115C59.9013 119.152 59.5747 119.171 59.2667 119.171C58.4267 119.171 57.75 119.05 57.2367 118.807C56.7327 118.555 56.364 118.163 56.1307 117.631C55.9067 117.099 55.7947 116.413 55.7947 115.573C55.7947 114.668 55.9067 113.954 56.1307 113.431C56.364 112.899 56.728 112.521 57.2227 112.297C57.7267 112.073 58.3753 111.961 59.1687 111.961ZM65.5633 112.129L65.7873 113.473L65.9413 113.669V119.003H64.2473V112.129H65.5633ZM68.9233 111.961L68.7553 113.529H68.2653C67.9013 113.529 67.5326 113.59 67.1593 113.711C66.7859 113.832 66.3193 114.014 65.7593 114.257L65.6473 113.263C66.1326 112.852 66.6273 112.535 67.1313 112.311C67.6353 112.078 68.1206 111.961 68.5873 111.961H68.9233ZM34.6777 127.343V137.003H32.9277V127.343H34.6777ZM39.6098 129.961C39.9272 129.961 40.2678 129.97 40.6318 129.989C41.0052 130.008 41.3692 130.036 41.7239 130.073C42.0785 130.101 42.3958 130.143 42.6758 130.199L42.5639 131.305C42.1158 131.296 41.6678 131.286 41.2198 131.277C40.7812 131.258 40.3472 131.249 39.9178 131.249C39.5352 131.249 39.2318 131.258 39.0078 131.277C38.7932 131.296 38.6392 131.352 38.5458 131.445C38.4618 131.538 38.4198 131.697 38.4198 131.921C38.4198 132.192 38.4945 132.374 38.6438 132.467C38.7932 132.551 39.0358 132.635 39.3718 132.719L41.2478 133.153C41.8078 133.293 42.2232 133.508 42.4939 133.797C42.7645 134.077 42.8998 134.511 42.8998 135.099C42.8998 135.668 42.7925 136.102 42.5778 136.401C42.3725 136.69 42.0412 136.891 41.5838 137.003C41.1358 137.106 40.5618 137.157 39.8618 137.157C39.5912 137.157 39.1898 137.143 38.6578 137.115C38.1258 137.096 37.5425 137.036 36.9078 136.933L37.0198 135.827C37.2065 135.827 37.4258 135.832 37.6778 135.841C37.9392 135.85 38.2145 135.855 38.5038 135.855C38.8025 135.855 39.1058 135.855 39.4138 135.855C39.9085 135.855 40.2865 135.841 40.5478 135.813C40.8185 135.776 41.0052 135.706 41.1079 135.603C41.2105 135.491 41.2618 135.332 41.2618 135.127C41.2618 134.866 41.1732 134.693 40.9958 134.609C40.8278 134.516 40.5758 134.427 40.2398 134.343L38.4058 133.895C37.9858 133.783 37.6592 133.643 37.4258 133.475C37.1925 133.298 37.0245 133.083 36.9218 132.831C36.8192 132.57 36.7678 132.252 36.7678 131.879C36.7678 131.375 36.8612 130.983 37.0478 130.703C37.2438 130.423 37.5472 130.227 37.9578 130.115C38.3778 130.003 38.9285 129.952 39.6098 129.961ZM47.3306 129.961C47.648 129.961 47.9886 129.97 48.3526 129.989C48.726 130.008 49.09 130.036 49.4446 130.073C49.7993 130.101 50.1166 130.143 50.3966 130.199L50.2846 131.305C49.8366 131.296 49.3886 131.286 48.9406 131.277C48.502 131.258 48.068 131.249 47.6386 131.249C47.256 131.249 46.9526 131.258 46.7286 131.277C46.514 131.296 46.36 131.352 46.2666 131.445C46.1826 131.538 46.1406 131.697 46.1406 131.921C46.1406 132.192 46.2153 132.374 46.3646 132.467C46.514 132.551 46.7566 132.635 47.0926 132.719L48.9686 133.153C49.5286 133.293 49.944 133.508 50.2146 133.797C50.4853 134.077 50.6206 134.511 50.6206 135.099C50.6206 135.668 50.5133 136.102 50.2986 136.401C50.0933 136.69 49.762 136.891 49.3046 137.003C48.8566 137.106 48.2826 137.157 47.5826 137.157C47.312 137.157 46.9106 137.143 46.3786 137.115C45.8466 137.096 45.2633 137.036 44.6286 136.933L44.7406 135.827C44.9273 135.827 45.1466 135.832 45.3986 135.841C45.66 135.85 45.9353 135.855 46.2246 135.855C46.5233 135.855 46.8266 135.855 47.1346 135.855C47.6293 135.855 48.0073 135.841 48.2686 135.813C48.5393 135.776 48.726 135.706 48.8286 135.603C48.9313 135.491 48.9826 135.332 48.9826 135.127C48.9826 134.866 48.894 134.693 48.7166 134.609C48.5486 134.516 48.2966 134.427 47.9606 134.343L46.1266 133.895C45.7066 133.783 45.38 133.643 45.1466 133.475C44.9133 133.298 44.7453 133.083 44.6426 132.831C44.54 132.57 44.4886 132.252 44.4886 131.879C44.4886 131.375 44.582 130.983 44.7686 130.703C44.9646 130.423 45.268 130.227 45.6786 130.115C46.0986 130.003 46.6493 129.952 47.3306 129.961ZM54.2254 130.129V134.777C54.2161 135.122 54.2814 135.37 54.4214 135.519C54.5707 135.668 54.8087 135.743 55.1354 135.743C55.4621 135.743 55.7887 135.673 56.1154 135.533C56.4421 135.393 56.8387 135.183 57.3054 134.903L57.4734 135.911C56.9507 136.331 56.4467 136.648 55.9614 136.863C55.4761 137.078 54.9721 137.185 54.4494 137.185C53.1707 137.185 52.5314 136.555 52.5314 135.295V130.129H54.2254ZM58.8314 130.129V137.003H57.4874L57.3054 135.673L57.1374 135.477V130.129H58.8314ZM64.2215 129.961C65.3322 129.961 66.1302 130.157 66.6155 130.549C67.1009 130.932 67.3482 131.501 67.3575 132.257C67.3669 132.882 67.2175 133.358 66.9095 133.685C66.6109 134.002 66.1115 134.161 65.4115 134.161H61.4915V133.111H64.9495C65.2669 133.111 65.4675 133.027 65.5515 132.859C65.6449 132.691 65.6915 132.486 65.6915 132.243C65.6822 131.86 65.5702 131.594 65.3555 131.445C65.1502 131.296 64.7955 131.221 64.2915 131.221C63.8529 131.221 63.5122 131.282 63.2695 131.403C63.0269 131.524 62.8542 131.744 62.7515 132.061C62.6582 132.378 62.6115 132.836 62.6115 133.433C62.6115 134.068 62.6722 134.558 62.7935 134.903C62.9149 135.248 63.1155 135.486 63.3955 135.617C63.6755 135.738 64.0489 135.799 64.5155 135.799C64.8609 135.799 65.2575 135.785 65.7055 135.757C66.1629 135.729 66.6015 135.692 67.0215 135.645L67.1895 136.723C66.9375 136.826 66.6482 136.91 66.3215 136.975C65.9949 137.04 65.6542 137.087 65.2995 137.115C64.9542 137.152 64.6275 137.171 64.3195 137.171C63.4795 137.171 62.8029 137.05 62.2895 136.807C61.7855 136.555 61.4169 136.163 61.1835 135.631C60.9595 135.099 60.8475 134.413 60.8475 133.573C60.8475 132.668 60.9595 131.954 61.1835 131.431C61.4169 130.899 61.7809 130.521 62.2755 130.297C62.7795 130.073 63.4282 129.961 64.2215 129.961Z" fill="#2F7CD7"/>
<path d="M76.0189 81.1166L24.1873 81.1096" stroke="white" stroke-width="6.29" stroke-miterlimit="10"/>
<path d="M76.0189 81.1166L24.1873 81.1096" stroke="#2F7CD7" stroke-width="3.42" stroke-miterlimit="10"/>
<path d="M18.8874 22.6509L18.8874 18.889L75.4494 18.8821" stroke="white" stroke-width="6.29" stroke-miterlimit="10"/>
<path d="M18.8874 22.6509L18.8874 18.889L75.4494 18.8821" stroke="#2F7CD7" stroke-width="3.42" stroke-miterlimit="10"/>
<path d="M62.21 86.5132L37.8075 86.5006L13.4667 62.1598L13.4541 37.7573L37.7927 13.4187H62.2092L86.5486 37.7581L86.5486 62.1746L62.21 86.5132Z" fill="#ECF5FF" stroke="#2F7CD7" stroke-width="7"/>
<path d="M24.1857 81.1085L18.8867 81.1155L18.8867 22.6514" stroke="white" stroke-width="6.29" stroke-miterlimit="10"/>
<path d="M24.1857 81.1085L18.8867 81.1155L18.8867 22.6514" stroke="#2F7CD7" stroke-width="3.42" stroke-miterlimit="10"/>
<path d="M75.4499 18.8812L81.1138 18.8882L81.1138 81.1142L76.0184 81.1142" stroke="white" stroke-width="6.29" stroke-miterlimit="10"/>
<path d="M75.4499 18.8812L81.1138 18.8882L81.1138 81.1142L76.0184 81.1142" stroke="#2F7CD7" stroke-width="3.42" stroke-miterlimit="10"/>
<path d="M64 47.7402V52.2655C63.7221 52.7545 63.3096 52.9338 62.7489 52.9102C61.9599 52.876 61.1693 52.9151 60.3795 52.8947C60.082 52.8874 59.9377 52.9762 59.8415 53.268C59.6861 53.7435 59.4954 54.2066 59.271 54.6536C59.1332 54.9283 59.165 55.0921 59.3843 55.3008C59.9948 55.8828 60.5857 56.4851 61.1774 57.0874C61.7007 57.6205 61.7023 58.0957 61.1774 58.6279C60.3319 59.4843 59.4815 60.3349 58.6263 61.1799C58.0957 61.7023 57.6197 61.6999 57.085 61.1758C56.4826 60.5857 55.8811 59.994 55.2992 59.3827C55.0897 59.1626 54.9234 59.1381 54.6512 59.2734C54.2039 59.4973 53.7408 59.688 53.2656 59.844C52.9664 59.9402 52.8906 60.0885 52.8963 60.3852C52.9143 61.2288 52.9086 62.0724 52.9004 62.916C52.8939 63.6601 52.5516 64 51.809 64.0033C50.6071 64.0082 49.4046 64.0082 48.2016 64.0033C47.4574 64.0033 47.1142 63.6609 47.1069 62.9184C47.0996 62.0748 47.0947 61.2312 47.1118 60.3876C47.1175 60.0966 47.0474 59.941 46.745 59.844C46.2693 59.6892 45.8061 59.4985 45.3594 59.2734C45.088 59.1373 44.9209 59.1601 44.7074 59.3802C44.1124 60.0037 43.5003 60.6101 42.8824 61.2117C42.3934 61.6877 41.9043 61.6917 41.4202 61.2174C40.5508 60.3621 39.6874 59.4995 38.8299 58.6295C38.3042 58.0965 38.3058 57.618 38.8258 57.0874C39.429 56.4729 40.0542 55.8779 40.641 55.2478C40.747 55.1345 40.7869 54.868 40.7347 54.7131C40.5628 54.2041 40.3564 53.7074 40.1169 53.2264C40.0444 53.0789 39.83 52.9167 39.6751 52.911C38.869 52.8792 38.0597 52.8719 37.2528 52.9045C36.6936 52.9273 36.2747 52.7496 36 52.2614V47.7402C36.2779 47.2512 36.6912 47.0727 37.2519 47.0963C38.0401 47.1297 38.8315 47.0923 39.6205 47.111C39.9164 47.1183 40.0615 47.0368 40.1568 46.7385C40.313 46.2625 40.5057 45.7993 40.7331 45.3529C40.8708 45.0798 40.8431 44.916 40.6222 44.7065C40.0109 44.1254 39.4208 43.5214 38.8291 42.9207C38.3074 42.3909 38.3026 41.9141 38.8291 41.3803C39.6724 40.5239 40.5225 39.6732 41.3794 38.8283C41.9141 38.3018 42.3852 38.3042 42.9199 38.8283C43.5231 39.4192 44.1246 40.0109 44.7065 40.6214C44.9144 40.8399 45.0782 40.8749 45.3537 40.7364C45.8006 40.5103 46.2638 40.318 46.7393 40.1609C47.0344 40.0639 47.1191 39.9164 47.1126 39.6222C47.0931 38.8324 47.1314 38.0409 47.0963 37.2528C47.0719 36.6895 47.2544 36.2747 47.7419 36H52.2663C52.7553 36.2763 52.9338 36.6912 52.9102 37.2528C52.8768 38.0409 52.9143 38.8324 52.8955 39.6222C52.889 39.918 52.973 40.0639 53.2696 40.1601C53.7451 40.3173 54.2083 40.5096 54.6553 40.7355C54.9275 40.8717 55.0921 40.8439 55.3016 40.6239C55.8827 40.0118 56.4834 39.4184 57.0874 38.8307C57.6254 38.3058 58.0997 38.305 58.6287 38.8307C59.4834 39.6762 60.3336 40.5269 61.1791 41.3827C61.7023 41.9133 61.6999 42.395 61.1791 42.9248C60.5873 43.5263 59.9948 44.1279 59.3859 44.7098C59.1683 44.9177 59.1414 45.0823 59.2759 45.357C59.5045 45.8027 59.697 46.266 59.8513 46.7426C59.9475 47.0425 60.0958 47.1224 60.3876 47.1151C61.1774 47.0971 61.9689 47.1338 62.757 47.1004C63.3096 47.0719 63.7212 47.2585 64 47.7402ZM49.9971 56.8511C51.8126 56.8498 53.5533 56.128 54.837 54.8443C56.1207 53.5606 56.8424 51.8199 56.8437 50.0045C56.8364 46.2209 53.7579 43.1424 49.9971 43.1579C48.1819 43.1599 46.4416 43.8818 45.158 45.1654C43.8745 46.4489 43.1525 48.1893 43.1506 50.0045C43.1424 53.7717 46.2217 56.8511 49.9971 56.8511Z" fill="#2F7CD7"/>
<path d="M53.8485 65.181L53.8331 65.2234C53.818 65.2094 53.8049 65.1936 53.7939 65.1762C53.7939 65.1713 53.8127 65.1542 53.8225 65.1436L53.8485 65.181Z" fill="#2F7CD7"/>
<path d="M49.9646 53.4113C48.7094 53.4113 47.4542 53.4154 46.199 53.4113C45.476 53.4113 45.3187 53.1391 45.6765 52.5148C46.9459 50.3092 48.2182 48.105 49.4935 45.9021C49.8375 45.3088 50.1521 45.3096 50.4985 45.907C51.7749 48.1093 53.0469 50.3135 54.3146 52.5197C54.6724 53.144 54.5143 53.4048 53.7848 53.4073C52.5117 53.4122 51.2377 53.4073 49.9646 53.4073V53.4113ZM49.8733 51.134L50.0363 51.1422C50.0842 51.076 50.1203 51.0021 50.1431 50.9237C50.2385 49.984 50.3314 49.0434 50.4121 48.102C50.4373 47.802 50.3306 47.5502 49.9809 47.5575C49.6312 47.5649 49.553 47.833 49.5734 48.1281C49.6198 48.7141 49.681 49.2993 49.7364 49.8854C49.7845 50.2994 49.8309 50.7167 49.8749 51.134H49.8733ZM50.6232 51.8676C50.3069 51.6777 50.139 51.4992 49.9834 51.5082C49.8546 51.5155 49.6443 51.747 49.6451 51.8782C49.6459 52.0094 49.8611 52.2352 49.9899 52.2409C50.1472 52.2507 50.3102 52.0673 50.6248 51.8709L50.6232 51.8676Z" fill="#2F7CD7"/>
</svg>
