<svg width="100" height="156" viewBox="0 0 100 156" fill="none" xmlns="http://www.w3.org/2000/svg">
<rect width="100" height="156" rx="19" fill="#F9FBFF"/>
<path d="M27.7241 109.214C28.5735 109.214 29.2408 109.307 29.7261 109.494C30.2115 109.671 30.5568 109.984 30.7621 110.432C30.9768 110.871 31.0841 111.496 31.0841 112.308C31.0841 113.12 30.9815 113.75 30.7761 114.198C30.5801 114.646 30.2488 114.959 29.7821 115.136C29.3248 115.313 28.7135 115.402 27.9481 115.402C27.5281 115.402 27.1221 115.388 26.7301 115.36C26.3475 115.332 25.9881 115.295 25.6521 115.248C25.3255 115.201 25.0455 115.155 24.8121 115.108C24.5788 115.052 24.4155 115.005 24.3221 114.968L24.3641 114.03C24.8961 114.03 25.4421 114.03 26.0021 114.03C26.5715 114.03 27.1361 114.03 27.6961 114.03C28.1068 114.021 28.4288 113.969 28.6621 113.876C28.9048 113.783 29.0728 113.615 29.1661 113.372C29.2688 113.12 29.3201 112.765 29.3201 112.308C29.3201 111.851 29.2688 111.501 29.1661 111.258C29.0728 111.006 28.9048 110.833 28.6621 110.74C28.4288 110.637 28.1068 110.586 27.6961 110.586C26.8748 110.586 26.1701 110.591 25.5821 110.6C24.9941 110.609 24.5928 110.623 24.3781 110.642L24.1821 109.34C24.5555 109.303 24.9055 109.275 25.2321 109.256C25.5681 109.237 25.9275 109.228 26.3101 109.228C26.7021 109.219 27.1735 109.214 27.7241 109.214ZM25.9321 109.34V119H24.1821V109.34H25.9321ZM33.3584 112.126V116.774C33.349 117.119 33.4144 117.367 33.5544 117.516C33.7037 117.665 33.9417 117.74 34.2684 117.74C34.595 117.74 34.9217 117.67 35.2484 117.53C35.575 117.39 35.9717 117.18 36.4384 116.9L36.6064 117.908C36.0837 118.328 35.5797 118.645 35.0944 118.86C34.609 119.075 34.105 119.182 33.5824 119.182C32.3037 119.182 31.6644 118.552 31.6644 117.292V112.126H33.3584ZM37.9644 112.126V119H36.6204L36.4384 117.67L36.2704 117.474V112.126H37.9644ZM40.3445 112.126L40.5685 113.47L40.7225 113.666V119H39.0285V112.126H40.3445ZM43.7045 111.958L43.5365 113.526H43.0465C42.6825 113.526 42.3138 113.587 41.9405 113.708C41.5672 113.829 41.1005 114.011 40.5405 114.254L40.4285 113.26C40.9138 112.849 41.4085 112.532 41.9125 112.308C42.4165 112.075 42.9018 111.958 43.3685 111.958H43.7045ZM46.956 111.958C47.1893 111.958 47.446 111.967 47.726 111.986C48.006 112.005 48.2907 112.042 48.58 112.098C48.8693 112.154 49.1307 112.233 49.364 112.336L49.168 113.4C48.8227 113.381 48.4773 113.367 48.132 113.358C47.796 113.349 47.502 113.344 47.25 113.344C46.774 113.344 46.396 113.409 46.116 113.54C45.8453 113.661 45.6493 113.885 45.528 114.212C45.4067 114.529 45.346 114.977 45.346 115.556C45.346 116.135 45.4067 116.587 45.528 116.914C45.6493 117.231 45.8453 117.455 46.116 117.586C46.396 117.717 46.774 117.782 47.25 117.782C47.39 117.782 47.572 117.777 47.796 117.768C48.0293 117.759 48.2767 117.745 48.538 117.726C48.8087 117.707 49.07 117.684 49.322 117.656L49.49 118.748C49.126 118.897 48.72 119.005 48.272 119.07C47.824 119.135 47.3807 119.168 46.942 119.168C46.1207 119.168 45.4627 119.051 44.968 118.818C44.4733 118.585 44.114 118.207 43.89 117.684C43.6753 117.152 43.568 116.443 43.568 115.556C43.568 114.669 43.68 113.965 43.904 113.442C44.128 112.91 44.4873 112.532 44.982 112.308C45.4767 112.075 46.1347 111.958 46.956 111.958ZM54.558 111.958C55.8367 111.958 56.476 112.588 56.476 113.848V119H54.768V114.366C54.768 113.993 54.7027 113.736 54.572 113.596C54.4507 113.456 54.236 113.386 53.928 113.386C53.5827 113.386 53.228 113.461 52.864 113.61C52.5 113.759 52.0613 113.983 51.548 114.282L51.422 113.302C51.9447 112.873 52.4673 112.541 52.99 112.308C53.522 112.075 54.0447 111.958 54.558 111.958ZM51.73 109.2L51.744 111.72C51.744 112.065 51.7253 112.392 51.688 112.7C51.66 112.999 51.618 113.255 51.562 113.47L51.73 113.666V119H50.036V109.2H51.73ZM60.9528 111.958C61.5035 111.958 61.9655 112.033 62.3388 112.182C62.7215 112.322 63.0108 112.565 63.2068 112.91C63.4028 113.255 63.5008 113.731 63.5008 114.338V119H62.1568L61.9188 117.516L61.7928 117.32V114.324C61.7928 113.96 61.7088 113.699 61.5408 113.54C61.3728 113.372 61.0508 113.288 60.5748 113.288C60.2201 113.288 59.7721 113.302 59.2308 113.33C58.6988 113.358 58.1621 113.395 57.6208 113.442L57.4668 112.28C57.7935 112.215 58.1621 112.159 58.5728 112.112C58.9835 112.065 59.3988 112.028 59.8188 112C60.2388 111.972 60.6168 111.958 60.9528 111.958ZM62.7728 114.772L62.7588 115.822H59.6088C59.3288 115.831 59.1281 115.906 59.0068 116.046C58.8855 116.186 58.8248 116.377 58.8248 116.62V116.998C58.8248 117.278 58.8995 117.493 59.0488 117.642C59.1981 117.782 59.4315 117.852 59.7488 117.852C60.0008 117.852 60.2808 117.801 60.5888 117.698C60.8968 117.595 61.2001 117.446 61.4988 117.25C61.8068 117.054 62.0821 116.821 62.3248 116.55V117.432C62.2315 117.572 62.0961 117.74 61.9188 117.936C61.7415 118.123 61.5221 118.309 61.2608 118.496C61.0088 118.683 60.7148 118.837 60.3788 118.958C60.0521 119.079 59.6881 119.14 59.2868 119.14C58.8761 119.14 58.5075 119.07 58.1808 118.93C57.8541 118.781 57.5975 118.566 57.4108 118.286C57.2241 117.997 57.1308 117.642 57.1308 117.222V116.494C57.1308 115.953 57.3081 115.533 57.6628 115.234C58.0268 114.926 58.5215 114.772 59.1468 114.772H62.7728ZM66.9805 111.958C67.2978 111.958 67.6385 111.967 68.0025 111.986C68.3758 112.005 68.7398 112.033 69.0945 112.07C69.4491 112.098 69.7665 112.14 70.0465 112.196L69.9345 113.302C69.4865 113.293 69.0385 113.283 68.5905 113.274C68.1518 113.255 67.7178 113.246 67.2885 113.246C66.9058 113.246 66.6025 113.255 66.3785 113.274C66.1638 113.293 66.0098 113.349 65.9165 113.442C65.8325 113.535 65.7905 113.694 65.7905 113.918C65.7905 114.189 65.8651 114.371 66.0145 114.464C66.1638 114.548 66.4065 114.632 66.7425 114.716L68.6185 115.15C69.1785 115.29 69.5938 115.505 69.8645 115.794C70.1351 116.074 70.2705 116.508 70.2705 117.096C70.2705 117.665 70.1631 118.099 69.9485 118.398C69.7431 118.687 69.4118 118.888 68.9545 119C68.5065 119.103 67.9325 119.154 67.2325 119.154C66.9618 119.154 66.5605 119.14 66.0285 119.112C65.4965 119.093 64.9131 119.033 64.2785 118.93L64.3905 117.824C64.5771 117.824 64.7965 117.829 65.0485 117.838C65.3098 117.847 65.5851 117.852 65.8745 117.852C66.1731 117.852 66.4765 117.852 66.7845 117.852C67.2791 117.852 67.6571 117.838 67.9185 117.81C68.1891 117.773 68.3758 117.703 68.4785 117.6C68.5811 117.488 68.6325 117.329 68.6325 117.124C68.6325 116.863 68.5438 116.69 68.3665 116.606C68.1985 116.513 67.9465 116.424 67.6105 116.34L65.7765 115.892C65.3565 115.78 65.0298 115.64 64.7965 115.472C64.5631 115.295 64.3951 115.08 64.2925 114.828C64.1898 114.567 64.1385 114.249 64.1385 113.876C64.1385 113.372 64.2318 112.98 64.4185 112.7C64.6145 112.42 64.9178 112.224 65.3285 112.112C65.7485 112 66.2991 111.949 66.9805 111.958ZM74.0292 111.958C75.1399 111.958 75.9379 112.154 76.4233 112.546C76.9086 112.929 77.1559 113.498 77.1653 114.254C77.1746 114.879 77.0252 115.355 76.7172 115.682C76.4186 115.999 75.9192 116.158 75.2192 116.158H71.2992V115.108H74.7572C75.0746 115.108 75.2752 115.024 75.3592 114.856C75.4526 114.688 75.4992 114.483 75.4992 114.24C75.4899 113.857 75.3779 113.591 75.1632 113.442C74.9579 113.293 74.6032 113.218 74.0992 113.218C73.6606 113.218 73.3199 113.279 73.0772 113.4C72.8346 113.521 72.6619 113.741 72.5592 114.058C72.4659 114.375 72.4192 114.833 72.4192 115.43C72.4192 116.065 72.4799 116.555 72.6012 116.9C72.7226 117.245 72.9232 117.483 73.2032 117.614C73.4832 117.735 73.8566 117.796 74.3232 117.796C74.6686 117.796 75.0652 117.782 75.5132 117.754C75.9706 117.726 76.4092 117.689 76.8292 117.642L76.9972 118.72C76.7452 118.823 76.4559 118.907 76.1292 118.972C75.8026 119.037 75.4619 119.084 75.1072 119.112C74.7619 119.149 74.4352 119.168 74.1272 119.168C73.2872 119.168 72.6106 119.047 72.0972 118.804C71.5932 118.552 71.2246 118.16 70.9912 117.628C70.7672 117.096 70.6552 116.41 70.6552 115.57C70.6552 114.665 70.7672 113.951 70.9912 113.428C71.2246 112.896 71.5886 112.518 72.0832 112.294C72.5872 112.07 73.2359 111.958 74.0292 111.958ZM15.7649 127.214C16.4929 127.214 17.1089 127.298 17.6129 127.466C18.1262 127.625 18.5369 127.895 18.8449 128.278C19.1622 128.651 19.3909 129.16 19.5309 129.804C19.6709 130.439 19.7409 131.227 19.7409 132.17C19.7409 133.113 19.6709 133.906 19.5309 134.55C19.3909 135.185 19.1622 135.693 18.8449 136.076C18.5369 136.449 18.1262 136.72 17.6129 136.888C17.1089 137.047 16.4929 137.126 15.7649 137.126C15.0649 137.126 14.4162 137.112 13.8189 137.084C13.2216 137.065 12.6569 137.037 12.1249 137L12.8529 135.656C13.2262 135.675 13.6556 135.693 14.1409 135.712C14.6262 135.721 15.1676 135.726 15.7649 135.726C16.3062 135.726 16.7309 135.623 17.0389 135.418C17.3562 135.203 17.5802 134.839 17.7109 134.326C17.8416 133.803 17.9069 133.085 17.9069 132.17C17.9069 131.255 17.8416 130.541 17.7109 130.028C17.5802 129.505 17.3562 129.137 17.0389 128.922C16.7309 128.707 16.3062 128.6 15.7649 128.6C15.1862 128.6 14.6682 128.605 14.2109 128.614C13.7629 128.623 13.3242 128.628 12.8949 128.628L12.1249 127.34C12.6569 127.303 13.2169 127.275 13.8049 127.256C14.4022 127.228 15.0556 127.214 15.7649 127.214ZM13.8749 127.34V137H12.1249V127.34H13.8749ZM23.6722 129.958C24.7828 129.958 25.5808 130.154 26.0662 130.546C26.5515 130.929 26.7988 131.498 26.8082 132.254C26.8175 132.879 26.6682 133.355 26.3602 133.682C26.0615 133.999 25.5622 134.158 24.8622 134.158H20.9422V133.108H24.4002C24.7175 133.108 24.9182 133.024 25.0022 132.856C25.0955 132.688 25.1422 132.483 25.1422 132.24C25.1328 131.857 25.0208 131.591 24.8062 131.442C24.6008 131.293 24.2462 131.218 23.7422 131.218C23.3035 131.218 22.9628 131.279 22.7202 131.4C22.4775 131.521 22.3048 131.741 22.2022 132.058C22.1088 132.375 22.0622 132.833 22.0622 133.43C22.0622 134.065 22.1228 134.555 22.2442 134.9C22.3655 135.245 22.5662 135.483 22.8462 135.614C23.1262 135.735 23.4995 135.796 23.9662 135.796C24.3115 135.796 24.7082 135.782 25.1562 135.754C25.6135 135.726 26.0522 135.689 26.4722 135.642L26.6402 136.72C26.3882 136.823 26.0988 136.907 25.7722 136.972C25.4455 137.037 25.1048 137.084 24.7502 137.112C24.4048 137.149 24.0782 137.168 23.7702 137.168C22.9302 137.168 22.2535 137.047 21.7402 136.804C21.2362 136.552 20.8675 136.16 20.6342 135.628C20.4102 135.096 20.2982 134.41 20.2982 133.57C20.2982 132.665 20.4102 131.951 20.6342 131.428C20.8675 130.896 21.2315 130.518 21.7262 130.294C22.2302 130.07 22.8788 129.958 23.6722 129.958ZM29.7588 128.166V134.928C29.7588 135.217 29.8195 135.423 29.9408 135.544C30.0715 135.665 30.2908 135.726 30.5988 135.726H31.5508L31.7328 136.916C31.5741 136.963 31.3828 137.005 31.1588 137.042C30.9348 137.079 30.7155 137.103 30.5008 137.112C30.2861 137.131 30.1041 137.14 29.9548 137.14C29.3575 137.14 28.8908 136.981 28.5548 136.664C28.2281 136.337 28.0648 135.871 28.0648 135.264V128.166H29.7588ZM31.8028 130.126V131.302H26.8468V130.196L28.1908 130.126H31.8028ZM35.6732 129.958C36.2239 129.958 36.6859 130.033 37.0592 130.182C37.4419 130.322 37.7312 130.565 37.9272 130.91C38.1232 131.255 38.2212 131.731 38.2212 132.338V137H36.8772L36.6392 135.516L36.5132 135.32V132.324C36.5132 131.96 36.4292 131.699 36.2612 131.54C36.0932 131.372 35.7712 131.288 35.2952 131.288C34.9406 131.288 34.4926 131.302 33.9512 131.33C33.4192 131.358 32.8826 131.395 32.3412 131.442L32.1872 130.28C32.5139 130.215 32.8826 130.159 33.2932 130.112C33.7039 130.065 34.1192 130.028 34.5392 130C34.9592 129.972 35.3372 129.958 35.6732 129.958ZM37.4932 132.772L37.4792 133.822H34.3292C34.0492 133.831 33.8486 133.906 33.7272 134.046C33.6059 134.186 33.5452 134.377 33.5452 134.62V134.998C33.5452 135.278 33.6199 135.493 33.7692 135.642C33.9186 135.782 34.1519 135.852 34.4692 135.852C34.7212 135.852 35.0012 135.801 35.3092 135.698C35.6172 135.595 35.9206 135.446 36.2192 135.25C36.5272 135.054 36.8026 134.821 37.0452 134.55V135.432C36.9519 135.572 36.8166 135.74 36.6392 135.936C36.4619 136.123 36.2426 136.309 35.9812 136.496C35.7292 136.683 35.4352 136.837 35.0992 136.958C34.7726 137.079 34.4086 137.14 34.0072 137.14C33.5966 137.14 33.2279 137.07 32.9012 136.93C32.5746 136.781 32.3179 136.566 32.1312 136.286C31.9446 135.997 31.8512 135.642 31.8512 135.222V134.494C31.8512 133.953 32.0286 133.533 32.3832 133.234C32.7472 132.926 33.2419 132.772 33.8672 132.772H37.4932ZM40.9589 130.126V137H39.2789V130.126H40.9589ZM40.4969 127.144C40.8329 127.144 41.0009 127.312 41.0009 127.648V128.432C41.0009 128.768 40.8329 128.936 40.4969 128.936H39.7409C39.4049 128.936 39.2369 128.768 39.2369 128.432V127.648C39.2369 127.312 39.4049 127.144 39.7409 127.144H40.4969ZM43.7823 127.2L43.7683 134.928C43.7683 135.189 43.843 135.39 43.9923 135.53C44.1416 135.661 44.3563 135.726 44.6363 135.726H45.2383L45.4343 136.916C45.3316 136.963 45.187 137.005 45.0003 137.042C44.823 137.079 44.6363 137.103 44.4403 137.112C44.2536 137.131 44.0903 137.14 43.9503 137.14C43.381 137.14 42.9283 136.986 42.5923 136.678C42.2563 136.37 42.0883 135.927 42.0883 135.348V127.2H43.7823ZM53.4492 127.214C54.2519 127.214 54.9005 127.298 55.3952 127.466C55.8992 127.634 56.2632 127.923 56.4872 128.334C56.7205 128.735 56.8372 129.305 56.8372 130.042C56.8372 130.527 56.7765 130.943 56.6552 131.288C56.5432 131.624 56.3519 131.895 56.0812 132.1C55.8199 132.296 55.4652 132.422 55.0172 132.478V132.548C55.1759 132.585 55.3392 132.66 55.5072 132.772C55.6845 132.875 55.8432 133.024 55.9832 133.22C56.1325 133.416 56.2445 133.668 56.3192 133.976L57.2012 137H55.3532L54.5552 134.018C54.4525 133.682 54.3125 133.449 54.1352 133.318C53.9579 133.178 53.7152 133.108 53.4072 133.108C52.8005 133.108 52.2825 133.108 51.8532 133.108C51.4239 133.099 51.0645 133.089 50.7752 133.08C50.4952 133.071 50.2479 133.066 50.0332 133.066L50.0752 131.736H53.4072C53.8272 131.727 54.1585 131.68 54.4012 131.596C54.6439 131.503 54.8165 131.344 54.9192 131.12C55.0219 130.887 55.0732 130.56 55.0732 130.14C55.0732 129.729 55.0219 129.412 54.9192 129.188C54.8165 128.964 54.6439 128.81 54.4012 128.726C54.1585 128.633 53.8272 128.586 53.4072 128.586C52.5859 128.586 51.8812 128.591 51.2932 128.6C50.7052 128.609 50.3039 128.619 50.0892 128.628L49.8932 127.34C50.2665 127.303 50.6165 127.275 50.9432 127.256C51.2792 127.237 51.6432 127.228 52.0352 127.228C52.4272 127.219 52.8985 127.214 53.4492 127.214ZM51.6152 127.34V137H49.8932V127.34H51.6152ZM60.8116 129.958C61.9222 129.958 62.7202 130.154 63.2056 130.546C63.6909 130.929 63.9382 131.498 63.9476 132.254C63.9569 132.879 63.8076 133.355 63.4996 133.682C63.2009 133.999 62.7016 134.158 62.0016 134.158H58.0816V133.108H61.5396C61.8569 133.108 62.0576 133.024 62.1416 132.856C62.2349 132.688 62.2816 132.483 62.2816 132.24C62.2722 131.857 62.1602 131.591 61.9456 131.442C61.7402 131.293 61.3856 131.218 60.8816 131.218C60.4429 131.218 60.1022 131.279 59.8596 131.4C59.6169 131.521 59.4442 131.741 59.3416 132.058C59.2482 132.375 59.2016 132.833 59.2016 133.43C59.2016 134.065 59.2622 134.555 59.3836 134.9C59.5049 135.245 59.7056 135.483 59.9856 135.614C60.2656 135.735 60.6389 135.796 61.1056 135.796C61.4509 135.796 61.8476 135.782 62.2956 135.754C62.7529 135.726 63.1916 135.689 63.6116 135.642L63.7796 136.72C63.5276 136.823 63.2382 136.907 62.9116 136.972C62.5849 137.037 62.2442 137.084 61.8896 137.112C61.5442 137.149 61.2176 137.168 60.9096 137.168C60.0696 137.168 59.3929 137.047 58.8796 136.804C58.3756 136.552 58.0069 136.16 57.7736 135.628C57.5496 135.096 57.4376 134.41 57.4376 133.57C57.4376 132.665 57.5496 131.951 57.7736 131.428C58.0069 130.896 58.3709 130.518 58.8656 130.294C59.3696 130.07 60.0182 129.958 60.8116 129.958ZM68.9002 129.958C69.7495 129.958 70.3608 130.271 70.7342 130.896C71.1075 131.521 71.2942 132.427 71.2942 133.612C71.2942 134.517 71.1962 135.231 71.0002 135.754C70.8135 136.267 70.5288 136.636 70.1462 136.86C69.7635 137.075 69.2782 137.182 68.6902 137.182C68.2235 137.182 67.7662 137.117 67.3182 136.986C66.8795 136.846 66.4735 136.631 66.1002 136.342L66.2122 135.502C66.5762 135.605 66.9028 135.693 67.1922 135.768C67.4815 135.843 67.7988 135.88 68.1442 135.88C68.4895 135.88 68.7602 135.824 68.9562 135.712C69.1615 135.591 69.3108 135.367 69.4042 135.04C69.4975 134.713 69.5442 134.242 69.5442 133.626C69.5442 133.019 69.5022 132.548 69.4182 132.212C69.3342 131.876 69.1942 131.643 68.9982 131.512C68.8115 131.372 68.5642 131.302 68.2562 131.302C67.9202 131.302 67.6028 131.377 67.3042 131.526C67.0055 131.666 66.6602 131.876 66.2682 132.156L66.0722 131.26C66.2868 131.008 66.5435 130.784 66.8422 130.588C67.1502 130.392 67.4815 130.238 67.8362 130.126C68.1908 130.014 68.5455 129.958 68.9002 129.958ZM66.0022 130.126L66.1702 131.456L66.3242 131.652V136.09L66.2542 136.258C66.2822 136.529 66.3008 136.799 66.3102 137.07C66.3195 137.35 66.3242 137.635 66.3242 137.924V139.73H64.6302V130.126H66.0022ZM75.1833 129.958C76.0233 129.958 76.6907 130.075 77.1853 130.308C77.6893 130.541 78.0487 130.924 78.2633 131.456C78.4873 131.988 78.5993 132.693 78.5993 133.57C78.5993 134.447 78.4873 135.152 78.2633 135.684C78.0487 136.207 77.6893 136.589 77.1853 136.832C76.6907 137.065 76.0233 137.182 75.1833 137.182C74.362 137.182 73.6993 137.065 73.1953 136.832C72.7007 136.589 72.3413 136.207 72.1173 135.684C71.8933 135.152 71.7813 134.447 71.7813 133.57C71.7813 132.693 71.8933 131.988 72.1173 131.456C72.3413 130.924 72.7007 130.541 73.1953 130.308C73.6993 130.075 74.362 129.958 75.1833 129.958ZM75.1833 131.246C74.7727 131.246 74.446 131.316 74.2033 131.456C73.97 131.587 73.802 131.82 73.6993 132.156C73.5967 132.492 73.5453 132.963 73.5453 133.57C73.5453 134.177 73.5967 134.648 73.6993 134.984C73.802 135.32 73.97 135.553 74.2033 135.684C74.446 135.815 74.7727 135.88 75.1833 135.88C75.6033 135.88 75.9347 135.815 76.1773 135.684C76.42 135.553 76.588 135.32 76.6813 134.984C76.784 134.648 76.8353 134.177 76.8353 133.57C76.8353 132.963 76.784 132.492 76.6813 132.156C76.588 131.82 76.42 131.587 76.1773 131.456C75.9347 131.316 75.6033 131.246 75.1833 131.246ZM80.6724 130.126L80.8964 131.47L81.0504 131.666V137H79.3564V130.126H80.6724ZM84.0324 129.958L83.8644 131.526H83.3744C83.0104 131.526 82.6417 131.587 82.2684 131.708C81.8951 131.829 81.4284 132.011 80.8684 132.254L80.7564 131.26C81.2417 130.849 81.7364 130.532 82.2404 130.308C82.7444 130.075 83.2297 129.958 83.6964 129.958H84.0324ZM86.6086 128.166V134.928C86.6086 135.217 86.6693 135.423 86.7906 135.544C86.9213 135.665 87.1406 135.726 87.4486 135.726H88.4006L88.5826 136.916C88.424 136.963 88.2326 137.005 88.0086 137.042C87.7846 137.079 87.5653 137.103 87.3506 137.112C87.136 137.131 86.954 137.14 86.8046 137.14C86.2073 137.14 85.7406 136.981 85.4046 136.664C85.078 136.337 84.9146 135.871 84.9146 135.264V128.166H86.6086ZM88.6526 130.126V131.302H83.6966V130.196L85.0406 130.126H88.6526Z" fill="#3F498E"/>
<path d="M76.245 81.1159L24.4134 81.1089" stroke="white" stroke-width="6.29" stroke-miterlimit="10"/>
<path d="M76.245 81.1159L24.4134 81.1089" stroke="#3F498E" stroke-width="3.42" stroke-miterlimit="10"/>
<path d="M19.113 22.6508L19.1129 18.8889L75.675 18.8819" stroke="white" stroke-width="6.29" stroke-miterlimit="10"/>
<path d="M19.113 22.6508L19.1129 18.8889L75.675 18.8819" stroke="#3F498E" stroke-width="3.42" stroke-miterlimit="10"/>
<path d="M86.7745 37.4976V61.9135L62.4359 86.2521L38.0324 86.2397L13.6925 61.8997L13.6801 37.4963L38.0186 13.1577H62.4345L86.7745 37.4976Z" fill="#F3F7FF" stroke="#3F498E" stroke-width="7"/>
<path d="M24.4118 81.108L19.1128 81.115L19.1128 22.6509" stroke="white" stroke-width="6.29" stroke-miterlimit="10"/>
<path d="M24.4118 81.108L19.1128 81.115L19.1128 22.6509" stroke="#3F498E" stroke-width="3.42" stroke-miterlimit="10"/>
<path d="M75.6755 18.8803L81.3394 18.8874L81.3394 81.1134L76.244 81.1134" stroke="white" stroke-width="6.29" stroke-miterlimit="10"/>
<path d="M75.6755 18.8803L81.3394 18.8874L81.3394 81.1134L76.244 81.1134" stroke="#3F498E" stroke-width="3.42" stroke-miterlimit="10"/>
<path d="M55.4971 58.7496C55.2212 57.1894 54.4596 55.951 53.1577 55.0865C52.2167 54.46 51.1754 54.198 50.0497 54.2423C47.9333 54.3263 45.6284 55.8911 45.1288 58.7449C44.6453 58.7449 44.1572 58.7644 43.6729 58.7395C43.2491 58.7177 42.9357 58.3601 42.9112 57.9295C42.9066 57.8424 42.9112 57.7545 42.9112 57.6675V41.3687C42.9112 40.575 43.2001 40.2843 43.9886 40.2804H45.7717C45.7885 40.3581 45.7993 40.4149 45.8115 40.4701C45.9088 40.9132 46.1686 41.1379 46.6215 41.1386C49.0929 41.1417 51.5638 41.1417 54.0343 41.1386C54.5316 41.1386 54.714 40.9489 54.8956 40.2921C55.5982 40.2921 56.3055 40.2711 57.0112 40.3006C57.428 40.3177 57.7162 40.6738 57.7422 41.1013C57.7476 41.1892 57.7422 41.2762 57.7422 41.3641V57.6659C57.7422 58.4542 57.4487 58.7488 56.6641 58.7496H55.4971ZM50.3547 53.1656H45.1548C45.0688 53.1613 44.9825 53.1629 44.8966 53.1703C44.6583 53.2045 44.505 53.3335 44.5058 53.5908C44.5066 53.8482 44.6629 53.9741 44.8989 54.0099C44.9753 54.0172 45.0521 54.019 45.1288 54.0153H55.5316C55.6271 54.0207 55.7229 54.0155 55.8174 53.9998C56.0289 53.9516 56.1538 53.8132 56.1538 53.5885C56.1538 53.3638 56.0273 53.2263 55.8151 53.1804C55.7205 53.1659 55.6247 53.1613 55.5293 53.1664L50.3547 53.1656ZM50.2942 42.6522H45.1234C45.0277 42.6462 44.9317 42.6503 44.8368 42.6646C44.6269 42.7128 44.4997 42.8497 44.5005 43.0751C44.4936 43.1738 44.5247 43.2713 44.5873 43.3472C44.6499 43.423 44.7391 43.4713 44.8361 43.4817C44.9307 43.496 45.0263 43.5017 45.1219 43.4988C48.5885 43.4988 52.0548 43.4988 55.5208 43.4988C55.6164 43.5017 55.7121 43.496 55.8066 43.4817C55.8989 43.4725 55.9844 43.4289 56.0468 43.3594C56.1092 43.2899 56.1441 43.1994 56.1446 43.1054C56.157 43.0124 56.1353 42.918 56.0836 42.8402C56.0319 42.7623 55.9538 42.7065 55.8641 42.6833C55.7623 42.6571 55.6571 42.6469 55.5522 42.653C53.8016 42.6514 52.0489 42.6512 50.2942 42.6522ZM50.2942 48.7563H55.5247C55.6201 48.761 55.7159 48.7563 55.8105 48.7423C55.9075 48.7309 55.9965 48.6825 56.0595 48.6068C56.1224 48.531 56.1545 48.4338 56.1492 48.3349C56.1492 48.1103 56.0243 47.9727 55.8143 47.9229C55.7196 47.9077 55.6235 47.903 55.5277 47.9089C52.0606 47.9089 48.5931 47.9089 45.125 47.9089C45.0104 47.9034 44.8956 47.9141 44.784 47.9408C44.5863 47.9991 44.4575 48.16 44.5119 48.3567C44.5518 48.4989 44.689 48.6311 44.8131 48.7267C44.8836 48.7804 45.0161 48.7547 45.1196 48.7555L50.2942 48.7563ZM50.2942 46.1023H55.4955C55.6009 46.1076 55.7065 46.104 55.8112 46.0914C55.9084 46.0815 55.9979 46.0336 56.0607 45.9578C56.1235 45.882 56.1547 45.7843 56.1476 45.6856C56.1547 45.5869 56.1238 45.4893 56.0613 45.4133C55.9989 45.3373 55.9097 45.2888 55.8128 45.2782C55.7175 45.2659 55.6213 45.2625 55.5254 45.2681H45.1242C45.0283 45.2625 44.9321 45.2659 44.8368 45.2782C44.7399 45.2887 44.6507 45.3369 44.5881 45.4127C44.5255 45.4886 44.4943 45.5861 44.5012 45.6848C44.4935 45.7835 44.5243 45.8812 44.5869 45.9571C44.6495 46.033 44.739 46.0809 44.8361 46.0906C44.9405 46.1038 45.0459 46.1077 45.151 46.1023H50.2942ZM50.3286 51.3566H55.4971C55.5926 51.3604 55.6883 51.3583 55.7837 51.3504C55.8811 51.3468 55.9733 51.3044 56.0403 51.2324C56.1072 51.1604 56.1436 51.0646 56.1415 50.9656C56.1538 50.7269 56.0289 50.5816 55.8028 50.5318C55.7266 50.5214 55.6496 50.5188 55.5729 50.524H45.0652C44.9982 50.5196 44.931 50.5214 44.8644 50.5295C44.6345 50.5699 44.5035 50.7067 44.5066 50.9462C44.5096 51.1856 44.6391 51.3248 44.8744 51.3512C44.9698 51.3581 45.0654 51.3599 45.161 51.3566H50.3286Z" fill="#3F498E"/>
<path d="M54.7107 59.5526C54.7077 60.7321 54.2441 61.8624 53.4215 62.6959C52.5989 63.5295 51.4842 63.9984 50.3216 64.0001C49.7412 63.9998 49.1666 63.8832 48.6307 63.657C48.0948 63.4309 47.6082 63.0996 47.1989 62.6822C46.7895 62.2648 46.4654 61.7695 46.2452 61.2247C46.025 60.6799 45.9129 60.0963 45.9156 59.5075C45.9255 58.3233 46.3983 57.1915 47.2302 56.3606C48.062 55.5298 49.1849 55.0679 50.3522 55.0764C51.515 55.0846 52.627 55.5606 53.4442 56.3998C54.2613 57.2391 54.7168 58.373 54.7107 59.5526ZM50.7262 60.1807C50.7262 59.7058 50.73 59.23 50.7262 58.755C50.7262 58.4728 50.5599 58.2886 50.3223 58.2886C50.0848 58.2886 49.9101 58.4573 49.9086 58.7426C49.9024 59.6832 49.9024 60.6241 49.9086 61.5653C49.9086 61.8653 50.0618 62.0239 50.3093 62.0278C50.5568 62.0317 50.7239 61.8576 50.7277 61.5497C50.7331 61.0926 50.7292 60.6355 50.7292 60.1807H50.7262ZM50.7262 57.4715C50.7288 57.4161 50.7202 57.3607 50.7008 57.3087C50.6814 57.2568 50.6518 57.2095 50.6136 57.1697C50.5754 57.1298 50.5296 57.0984 50.479 57.0773C50.4284 57.0563 50.374 57.046 50.3193 57.0471C50.2669 57.0446 50.2146 57.0527 50.1654 57.071C50.1162 57.0893 50.071 57.1173 50.0326 57.1535C49.9942 57.1897 49.9633 57.2333 49.9418 57.2818C49.9202 57.3303 49.9084 57.3826 49.907 57.4358C49.9025 57.4912 49.9092 57.5469 49.9266 57.5996C49.944 57.6523 49.9718 57.7008 50.0083 57.7423C50.0448 57.7837 50.0892 57.8172 50.1388 57.8407C50.1885 57.8642 50.2423 57.8772 50.2971 57.8789C50.3517 57.8811 50.4063 57.8722 50.4575 57.8529C50.5088 57.8336 50.5558 57.8041 50.5958 57.7662C50.6357 57.7283 50.6679 57.6828 50.6904 57.6322C50.7129 57.5816 50.7254 57.527 50.7269 57.4715H50.7262Z" fill="#3F498E"/>
<path d="M54.8716 39.4414V38.5707H55.9704C56.5643 38.5707 57.1581 38.5707 57.752 38.5707C58.7833 38.5707 59.4216 39.212 59.4224 40.2576C59.4255 44.1446 59.4255 48.0315 59.4224 51.9184C59.4224 54.2117 59.4224 56.5053 59.4224 58.7991C59.4224 59.627 58.9741 60.2326 58.2362 60.4075C58.0577 60.4414 57.876 60.4555 57.6945 60.4495C56.9681 60.4534 56.2386 60.4495 55.4838 60.4495C55.5091 60.1541 55.5321 59.8882 55.5605 59.5765C56.0332 59.5765 56.4984 59.5866 56.9627 59.5765C57.325 59.5705 57.675 59.442 57.9572 59.2113C58.2394 58.9807 58.4376 58.661 58.5205 58.3031C58.5599 58.1131 58.5772 57.9189 58.5719 57.7248C58.5719 52.2535 58.5719 46.7817 58.5719 41.3094C58.5719 40.1278 57.8953 39.4437 56.7374 39.4437L54.8716 39.4414Z" fill="#3F498E"/>
<path d="M45.7782 38.6012V39.4415C45.1728 39.4415 44.5721 39.4368 43.9721 39.4415C43.762 39.4381 43.5522 39.4571 43.346 39.4983C43.0077 39.5781 42.7035 39.7657 42.4778 40.0336C42.2521 40.3014 42.1168 40.6355 42.0917 40.987C42.0832 41.0935 42.0802 41.2007 42.0802 41.3072C42.0802 46.7801 42.0802 52.2531 42.0802 57.7265C42.0802 58.5132 42.3691 59.111 43.0878 59.4367C43.3177 59.5393 43.5866 59.5627 43.8403 59.5767C44.2487 59.5984 44.6594 59.5829 45.077 59.5829C45.1046 59.8822 45.1291 60.1488 45.1537 60.4536H44.1391C43.6893 60.4536 43.2388 60.4598 42.7882 60.4536C41.8771 60.438 41.2473 59.7943 41.2266 58.8669C41.2266 58.828 41.2266 58.7892 41.2266 58.7503C41.2266 52.5965 41.2266 46.4429 41.2266 40.2896C41.2266 39.7991 41.343 39.3684 41.6947 39.0202C41.9595 38.745 42.3204 38.5866 42.6993 38.5794C43.6955 38.5669 44.6916 38.5747 45.6877 38.5755C45.7188 38.5803 45.7491 38.5889 45.7782 38.6012Z" fill="#3F498E"/>
<path d="M46.6431 40.2889V37.8098H47.2944C47.5817 37.8098 47.8699 37.8098 48.1572 37.8098C48.5212 37.8059 48.6591 37.6667 48.6683 37.3021C48.692 36.3747 49.0691 36 49.9786 36C50.266 36 50.5533 36 50.8406 36C51.5104 36.0062 51.9533 36.4454 51.977 37.1272C51.977 37.1948 51.977 37.2633 51.977 37.3309C51.9893 37.6597 52.1303 37.8051 52.4598 37.8082C52.9655 37.8136 53.4712 37.8082 53.9923 37.8082V40.2873L46.6431 40.2889Z" fill="#3F498E"/>
</svg>
