<svg width="80" height="132" viewBox="0 0 80 132" fill="none" xmlns="http://www.w3.org/2000/svg">
<path d="M31.7131 98.252C31.7131 98.7747 31.5871 99.2647 31.3351 99.722C31.0924 100.179 30.7051 100.548 30.1731 100.828C29.6504 101.108 28.9878 101.248 28.1851 101.248H26.5471V105H24.5871V95.228H28.1851C28.9411 95.228 29.5851 95.3587 30.1171 95.62C30.6491 95.8813 31.0458 96.2407 31.3071 96.698C31.5778 97.1553 31.7131 97.6733 31.7131 98.252ZM28.1011 99.666C28.6424 99.666 29.0438 99.5447 29.3051 99.302C29.5664 99.05 29.6971 98.7 29.6971 98.252C29.6971 97.3 29.1651 96.824 28.1011 96.824H26.5471V99.666H28.1011ZM35.0647 98.448C35.3167 98.0373 35.6433 97.7153 36.0447 97.482C36.4553 97.2487 36.922 97.132 37.4447 97.132V99.19H36.9267C36.3107 99.19 35.844 99.3347 35.5267 99.624C35.2187 99.9133 35.0647 100.417 35.0647 101.136V105H33.1047V97.244H35.0647V98.448ZM39.7588 96.32C39.4135 96.32 39.1242 96.2127 38.8908 95.998C38.6668 95.774 38.5548 95.4987 38.5548 95.172C38.5548 94.8453 38.6668 94.5747 38.8908 94.36C39.1242 94.136 39.4135 94.024 39.7588 94.024C40.1042 94.024 40.3888 94.136 40.6128 94.36C40.8462 94.5747 40.9628 94.8453 40.9628 95.172C40.9628 95.4987 40.8462 95.774 40.6128 95.998C40.3888 96.2127 40.1042 96.32 39.7588 96.32ZM40.7248 97.244V105H38.7648V97.244H40.7248ZM46.9593 97.132C47.8833 97.132 48.63 97.426 49.1993 98.014C49.7686 98.5927 50.0533 99.4047 50.0533 100.45V105H48.0933V100.716C48.0933 100.1 47.9393 99.6287 47.6313 99.302C47.3233 98.966 46.9033 98.798 46.3713 98.798C45.83 98.798 45.4006 98.966 45.0833 99.302C44.7753 99.6287 44.6213 100.1 44.6213 100.716V105H42.6613V97.244H44.6213V98.21C44.8826 97.874 45.214 97.6127 45.6153 97.426C46.026 97.23 46.474 97.132 46.9593 97.132ZM54.1992 98.854V102.606C54.1992 102.867 54.2598 103.059 54.3812 103.18C54.5118 103.292 54.7265 103.348 55.0252 103.348H55.9352V105H54.7032C53.0512 105 52.2252 104.197 52.2252 102.592V98.854H51.3012V97.244H52.2252V95.326H54.1992V97.244H55.9352V98.854H54.1992ZM26.9013 116.228V126H24.9413V119.644L22.3233 126H20.8393L18.2073 119.644V126H16.2473V116.228H18.4733L21.5813 123.494L24.6893 116.228H26.9013ZM28.335 122.094C28.335 121.31 28.489 120.615 28.797 120.008C29.1144 119.401 29.539 118.935 30.071 118.608C30.6124 118.281 31.2144 118.118 31.877 118.118C32.4557 118.118 32.9597 118.235 33.389 118.468C33.8277 118.701 34.1777 118.995 34.439 119.35V118.244H36.413V126H34.439V124.866C34.187 125.23 33.837 125.533 33.389 125.776C32.9504 126.009 32.4417 126.126 31.863 126.126C31.2097 126.126 30.6124 125.958 30.071 125.622C29.539 125.286 29.1144 124.815 28.797 124.208C28.489 123.592 28.335 122.887 28.335 122.094ZM34.439 122.122C34.439 121.646 34.3457 121.24 34.159 120.904C33.9724 120.559 33.7204 120.297 33.403 120.12C33.0857 119.933 32.745 119.84 32.381 119.84C32.017 119.84 31.681 119.929 31.373 120.106C31.065 120.283 30.813 120.545 30.617 120.89C30.4304 121.226 30.337 121.627 30.337 122.094C30.337 122.561 30.4304 122.971 30.617 123.326C30.813 123.671 31.065 123.937 31.373 124.124C31.6904 124.311 32.0264 124.404 32.381 124.404C32.745 124.404 33.0857 124.315 33.403 124.138C33.7204 123.951 33.9724 123.69 34.159 123.354C34.3457 123.009 34.439 122.598 34.439 122.122ZM41.2953 126.126C40.6607 126.126 40.0913 126.014 39.5873 125.79C39.0833 125.557 38.682 125.244 38.3833 124.852C38.094 124.46 37.9353 124.026 37.9073 123.55H39.8813C39.9187 123.849 40.0633 124.096 40.3153 124.292C40.5767 124.488 40.8987 124.586 41.2813 124.586C41.6547 124.586 41.944 124.511 42.1493 124.362C42.364 124.213 42.4713 124.021 42.4713 123.788C42.4713 123.536 42.3407 123.349 42.0793 123.228C41.8273 123.097 41.4213 122.957 40.8613 122.808C40.2827 122.668 39.8067 122.523 39.4333 122.374C39.0693 122.225 38.752 121.996 38.4813 121.688C38.22 121.38 38.0893 120.965 38.0893 120.442C38.0893 120.013 38.2107 119.621 38.4533 119.266C38.7053 118.911 39.06 118.631 39.5173 118.426C39.984 118.221 40.53 118.118 41.1553 118.118C42.0793 118.118 42.8167 118.351 43.3673 118.818C43.918 119.275 44.2213 119.896 44.2773 120.68H42.4013C42.3733 120.372 42.2427 120.129 42.0093 119.952C41.7853 119.765 41.482 119.672 41.0993 119.672C40.7447 119.672 40.4693 119.737 40.2733 119.868C40.0867 119.999 39.9933 120.181 39.9933 120.414C39.9933 120.675 40.124 120.876 40.3853 121.016C40.6467 121.147 41.0527 121.282 41.6033 121.422C42.1633 121.562 42.6253 121.707 42.9893 121.856C43.3533 122.005 43.666 122.239 43.9273 122.556C44.198 122.864 44.338 123.275 44.3473 123.788C44.3473 124.236 44.2213 124.637 43.9693 124.992C43.7267 125.347 43.372 125.627 42.9053 125.832C42.448 126.028 41.9113 126.126 41.2953 126.126ZM48.2382 119.854V123.606C48.2382 123.867 48.2989 124.059 48.4202 124.18C48.5509 124.292 48.7656 124.348 49.0642 124.348H49.9742V126H48.7422C47.0902 126 46.2642 125.197 46.2642 123.592V119.854H45.3402V118.244H46.2642V116.326H48.2382V118.244H49.9742V119.854H48.2382ZM58.594 121.954C58.594 122.234 58.5753 122.486 58.538 122.71H52.868C52.9146 123.27 53.1106 123.709 53.456 124.026C53.8013 124.343 54.226 124.502 54.73 124.502C55.458 124.502 55.976 124.189 56.284 123.564H58.398C58.174 124.311 57.7446 124.927 57.11 125.412C56.4753 125.888 55.696 126.126 54.772 126.126C54.0253 126.126 53.3533 125.963 52.756 125.636C52.168 125.3 51.706 124.829 51.37 124.222C51.0433 123.615 50.88 122.915 50.88 122.122C50.88 121.319 51.0433 120.615 51.37 120.008C51.6966 119.401 52.154 118.935 52.742 118.608C53.33 118.281 54.0066 118.118 54.772 118.118C55.5093 118.118 56.1673 118.277 56.746 118.594C57.334 118.911 57.7866 119.364 58.104 119.952C58.4306 120.531 58.594 121.198 58.594 121.954ZM56.564 121.394C56.5546 120.89 56.3726 120.489 56.018 120.19C55.6633 119.882 55.2293 119.728 54.716 119.728C54.2306 119.728 53.82 119.877 53.484 120.176C53.1573 120.465 52.9566 120.871 52.882 121.394H56.564ZM61.9846 119.448C62.2366 119.037 62.5633 118.715 62.9646 118.482C63.3753 118.249 63.8419 118.132 64.3646 118.132V120.19H63.8466C63.2306 120.19 62.7639 120.335 62.4466 120.624C62.1386 120.913 61.9846 121.417 61.9846 122.136V126H60.0246V118.244H61.9846V119.448Z" fill="#004B64"/>
<path d="M40 0H58C70.1503 0 80 9.84974 80 22V58C80 70.1503 70.1503 80 58 80H40V0Z" fill="#7C5C0A"/>
<path d="M0 22C0 9.84973 9.84974 0 22 0H40V80H22C9.84974 80 0 70.1503 0 58V22Z" fill="#A28A4D"/>
<rect x="10.5" y="10.5" width="59" height="59" rx="15.5" fill="#7C5C0A" stroke="white"/>
<path d="M57 36.9453C57 39.6797 57 42.4141 57 45.1484C56.9635 45.4219 56.9453 45.6862 56.8997 45.9596C56.3802 48.8216 53.8737 50.6172 50.9023 50.2435C50.9023 48.4388 50.9023 46.6341 50.9023 44.8021C51.1302 44.8021 51.3307 44.8112 51.5312 44.8021C52.2057 44.7656 52.6523 44.1458 52.4792 43.5078C52.3516 43.0247 51.9414 42.7604 51.3216 42.7604C43.4193 42.7604 35.5078 42.7604 27.6055 42.7604C27.5417 42.7604 27.4688 42.7604 27.4049 42.7604C26.849 42.7969 26.4206 43.2344 26.4206 43.7812C26.4206 44.3281 26.849 44.7747 27.4049 44.8021C27.6055 44.8112 27.8151 44.8021 28.0339 44.8021C28.0339 46.6341 28.0339 48.4388 28.0339 50.2708C27.7148 50.2708 27.4232 50.2708 27.1315 50.2708C24.7799 50.2526 22.7565 48.6576 22.1914 46.388C22.1003 46.0052 22.0638 45.6042 22 45.2214C22 42.4414 22 39.6615 22 36.8815C22.0182 36.7721 22.0456 36.6628 22.0547 36.5534C22.2643 33.901 24.4518 31.832 27.1133 31.832C35.362 31.8229 43.6198 31.8229 51.8685 31.832C54.2109 31.832 56.2344 33.4362 56.7904 35.7148C56.8997 36.1068 56.9362 36.526 57 36.9453ZM29.1094 36.1888C28.5716 36.1888 28.043 36.1888 27.5052 36.1888C26.8672 36.1979 26.4206 36.6263 26.4206 37.2096C26.4206 37.793 26.8763 38.2305 27.5052 38.2305C28.5534 38.2396 29.6016 38.2396 30.6497 38.2305C31.2878 38.2305 31.7344 37.793 31.7344 37.2096C31.7344 36.6263 31.2786 36.1888 30.6497 36.1888C30.1302 36.1888 29.6198 36.1888 29.1094 36.1888Z" fill="white"/>
<path d="M47.1564 58.0002C42.034 58.0002 36.9024 58.0002 31.78 58.0002C30.4129 57.4259 30.103 56.9611 30.103 55.4299C30.103 52.0392 30.103 48.6395 30.103 45.2489C30.103 45.103 30.103 44.9663 30.103 44.8296C36.3738 44.8296 42.5899 44.8296 48.8334 44.8296C48.8334 44.9572 48.8334 45.0666 48.8334 45.1851C48.8334 48.7033 48.8334 52.2215 48.8334 55.7397C48.8334 55.8765 48.8334 56.0132 48.8152 56.1499C48.7149 56.9976 48.2592 57.5718 47.4662 57.8817C47.3569 57.909 47.2566 57.9546 47.1564 58.0002ZM39.491 49.1772C40.3478 49.1772 41.1954 49.1772 42.0522 49.1772C42.7449 49.1772 43.2097 48.7671 43.2189 48.1564C43.228 47.5457 42.754 47.1265 42.0704 47.1265C40.3386 47.1265 38.6069 47.1265 36.8751 47.1265C36.1824 47.1265 35.7175 47.5366 35.7084 48.1382C35.6993 48.758 36.1733 49.1681 36.8933 49.1681C37.7592 49.1772 38.6251 49.1772 39.491 49.1772ZM39.4636 53.5522C40.3386 53.5522 41.2136 53.5522 42.0978 53.5522C42.7631 53.5522 43.2189 53.1239 43.2189 52.5314C43.2189 51.9299 42.7631 51.5106 42.0978 51.5106C40.3478 51.5106 38.5886 51.5106 36.8386 51.5106C36.1733 51.5106 35.7175 51.939 35.7175 52.5314C35.7175 53.133 36.1824 53.5522 36.8386 53.5522C37.7136 53.5522 38.5886 53.5522 39.4636 53.5522Z" fill="white"/>
<path d="M46.3359 23C46.6093 23.0638 46.8828 23.1276 47.1562 23.2005C49.2343 23.7839 50.7291 25.625 50.8567 27.776C50.8932 28.4232 50.8659 29.0703 50.8659 29.7448C43.2734 29.7448 35.6901 29.7448 28.0976 29.7448C27.7968 27.0104 28.444 24.4036 31.6158 23.2552C31.9349 23.1367 32.2721 23.082 32.6002 23C37.1757 23 41.7513 23 46.3359 23Z" fill="white"/>
</svg>
