<svg width="80" height="132" viewBox="0 0 80 132" fill="none" xmlns="http://www.w3.org/2000/svg">
<path d="M14.1574 98.252C14.1574 98.7747 14.0314 99.2647 13.7794 99.722C13.5368 100.179 13.1494 100.548 12.6174 100.828C12.0948 101.108 11.4321 101.248 10.6294 101.248H8.99143V105H7.03143V95.228H10.6294C11.3854 95.228 12.0294 95.3587 12.5614 95.62C13.0934 95.8813 13.4901 96.2407 13.7514 96.698C14.0221 97.1553 14.1574 97.6733 14.1574 98.252ZM10.5454 99.666C11.0868 99.666 11.4881 99.5447 11.7494 99.302C12.0108 99.05 12.1414 98.7 12.1414 98.252C12.1414 97.3 11.6094 96.824 10.5454 96.824H8.99143V99.666H10.5454ZM22.871 97.244V105H20.897V104.02C20.645 104.356 20.3137 104.622 19.903 104.818C19.5017 105.005 19.063 105.098 18.587 105.098C17.9803 105.098 17.4437 104.972 16.977 104.72C16.5103 104.459 16.1417 104.081 15.871 103.586C15.6097 103.082 15.479 102.485 15.479 101.794V97.244H17.439V101.514C17.439 102.13 17.593 102.606 17.901 102.942C18.209 103.269 18.629 103.432 19.161 103.432C19.7023 103.432 20.127 103.269 20.435 102.942C20.743 102.606 20.897 102.13 20.897 101.514V97.244H22.871ZM26.7649 98.448C27.0169 98.0373 27.3435 97.7153 27.7449 97.482C28.1555 97.2487 28.6222 97.132 29.1449 97.132V99.19H28.6269C28.0109 99.19 27.5442 99.3347 27.2269 99.624C26.9189 99.9133 26.7649 100.417 26.7649 101.136V105H24.8049V97.244H26.7649V98.448ZM29.961 101.122C29.961 100.319 30.1244 99.6193 30.451 99.022C30.7777 98.4153 31.2304 97.9487 31.809 97.622C32.3877 97.286 33.0504 97.118 33.797 97.118C34.7584 97.118 35.5517 97.3607 36.177 97.846C36.8117 98.322 37.2364 98.994 37.451 99.862H35.337C35.225 99.526 35.0337 99.2647 34.763 99.078C34.5017 98.882 34.175 98.784 33.783 98.784C33.223 98.784 32.7797 98.9893 32.453 99.4C32.1264 99.8013 31.963 100.375 31.963 101.122C31.963 101.859 32.1264 102.433 32.453 102.844C32.7797 103.245 33.223 103.446 33.783 103.446C34.5764 103.446 35.0944 103.091 35.337 102.382H37.451C37.2364 103.222 36.8117 103.889 36.177 104.384C35.5424 104.879 34.749 105.126 33.797 105.126C33.0504 105.126 32.3877 104.963 31.809 104.636C31.2304 104.3 30.7777 103.833 30.451 103.236C30.1244 102.629 29.961 101.925 29.961 101.122ZM43.2549 97.132C43.8429 97.132 44.3656 97.2627 44.8229 97.524C45.2802 97.776 45.6349 98.154 45.8869 98.658C46.1482 99.1527 46.2789 99.75 46.2789 100.45V105H44.3189V100.716C44.3189 100.1 44.1649 99.6287 43.8569 99.302C43.5489 98.966 43.1289 98.798 42.5969 98.798C42.0556 98.798 41.6262 98.966 41.3089 99.302C41.0009 99.6287 40.8469 100.1 40.8469 100.716V105H38.8869V94.64H40.8469V98.21C41.0989 97.874 41.4349 97.6127 41.8549 97.426C42.2749 97.23 42.7416 97.132 43.2549 97.132ZM47.6388 101.094C47.6388 100.31 47.7928 99.6147 48.1008 99.008C48.4181 98.4013 48.8428 97.9347 49.3748 97.608C49.9161 97.2813 50.5181 97.118 51.1808 97.118C51.7594 97.118 52.2634 97.2347 52.6928 97.468C53.1314 97.7013 53.4814 97.9953 53.7428 98.35V97.244H55.7168V105H53.7428V103.866C53.4908 104.23 53.1408 104.533 52.6928 104.776C52.2541 105.009 51.7454 105.126 51.1668 105.126C50.5134 105.126 49.9161 104.958 49.3748 104.622C48.8428 104.286 48.4181 103.815 48.1008 103.208C47.7928 102.592 47.6388 101.887 47.6388 101.094ZM53.7428 101.122C53.7428 100.646 53.6494 100.24 53.4628 99.904C53.2761 99.5587 53.0241 99.2973 52.7068 99.12C52.3894 98.9333 52.0488 98.84 51.6848 98.84C51.3208 98.84 50.9848 98.9287 50.6768 99.106C50.3688 99.2833 50.1168 99.5447 49.9208 99.89C49.7341 100.226 49.6408 100.627 49.6408 101.094C49.6408 101.561 49.7341 101.971 49.9208 102.326C50.1168 102.671 50.3688 102.937 50.6768 103.124C50.9941 103.311 51.3301 103.404 51.6848 103.404C52.0488 103.404 52.3894 103.315 52.7068 103.138C53.0241 102.951 53.2761 102.69 53.4628 102.354C53.6494 102.009 53.7428 101.598 53.7428 101.122ZM60.599 105.126C59.9644 105.126 59.395 105.014 58.891 104.79C58.387 104.557 57.9857 104.244 57.687 103.852C57.3977 103.46 57.239 103.026 57.211 102.55H59.185C59.2224 102.849 59.367 103.096 59.619 103.292C59.8804 103.488 60.2024 103.586 60.585 103.586C60.9584 103.586 61.2477 103.511 61.453 103.362C61.6677 103.213 61.775 103.021 61.775 102.788C61.775 102.536 61.6444 102.349 61.383 102.228C61.131 102.097 60.725 101.957 60.165 101.808C59.5864 101.668 59.1104 101.523 58.737 101.374C58.373 101.225 58.0557 100.996 57.785 100.688C57.5237 100.38 57.393 99.9647 57.393 99.442C57.393 99.0127 57.5144 98.6207 57.757 98.266C58.009 97.9113 58.3637 97.6313 58.821 97.426C59.2877 97.2207 59.8337 97.118 60.459 97.118C61.383 97.118 62.1204 97.3513 62.671 97.818C63.2217 98.2753 63.525 98.896 63.581 99.68H61.705C61.677 99.372 61.5464 99.1293 61.313 98.952C61.089 98.7653 60.7857 98.672 60.403 98.672C60.0484 98.672 59.773 98.7373 59.577 98.868C59.3904 98.9987 59.297 99.1807 59.297 99.414C59.297 99.6753 59.4277 99.876 59.689 100.016C59.9504 100.147 60.3564 100.282 60.907 100.422C61.467 100.562 61.929 100.707 62.293 100.856C62.657 101.005 62.9697 101.239 63.231 101.556C63.5017 101.864 63.6417 102.275 63.651 102.788C63.651 103.236 63.525 103.637 63.273 103.992C63.0304 104.347 62.6757 104.627 62.209 104.832C61.7517 105.028 61.215 105.126 60.599 105.126ZM72.4699 100.954C72.4699 101.234 72.4513 101.486 72.4139 101.71H66.7439C66.7906 102.27 66.9866 102.709 67.3319 103.026C67.6773 103.343 68.1019 103.502 68.6059 103.502C69.3339 103.502 69.8519 103.189 70.1599 102.564H72.2739C72.0499 103.311 71.6206 103.927 70.9859 104.412C70.3513 104.888 69.5719 105.126 68.6479 105.126C67.9013 105.126 67.2293 104.963 66.6319 104.636C66.0439 104.3 65.5819 103.829 65.2459 103.222C64.9193 102.615 64.7559 101.915 64.7559 101.122C64.7559 100.319 64.9193 99.6147 65.2459 99.008C65.5726 98.4013 66.0299 97.9347 66.6179 97.608C67.2059 97.2813 67.8826 97.118 68.6479 97.118C69.3853 97.118 70.0433 97.2767 70.6219 97.594C71.2099 97.9113 71.6626 98.364 71.9799 98.952C72.3066 99.5307 72.4699 100.198 72.4699 100.954ZM70.4399 100.394C70.4306 99.89 70.2486 99.4887 69.8939 99.19C69.5393 98.882 69.1053 98.728 68.5919 98.728C68.1066 98.728 67.6959 98.8773 67.3599 99.176C67.0333 99.4653 66.8326 99.8713 66.7579 100.394H70.4399ZM21.9015 126L19.7455 122.192H18.8215V126H16.8615V116.228H20.5295C21.2855 116.228 21.9295 116.363 22.4615 116.634C22.9935 116.895 23.3902 117.255 23.6515 117.712C23.9222 118.16 24.0575 118.664 24.0575 119.224C24.0575 119.868 23.8708 120.451 23.4975 120.974C23.1242 121.487 22.5688 121.842 21.8315 122.038L24.1695 126H21.9015ZM18.8215 120.722H20.4595C20.9915 120.722 21.3882 120.596 21.6495 120.344C21.9108 120.083 22.0415 119.723 22.0415 119.266C22.0415 118.818 21.9108 118.473 21.6495 118.23C21.3882 117.978 20.9915 117.852 20.4595 117.852H18.8215V120.722ZM33.0403 121.954C33.0403 122.234 33.0216 122.486 32.9843 122.71H27.3143C27.3609 123.27 27.5569 123.709 27.9023 124.026C28.2476 124.343 28.6723 124.502 29.1763 124.502C29.9043 124.502 30.4223 124.189 30.7303 123.564H32.8443C32.6203 124.311 32.1909 124.927 31.5563 125.412C30.9216 125.888 30.1423 126.126 29.2183 126.126C28.4716 126.126 27.7996 125.963 27.2023 125.636C26.6143 125.3 26.1523 124.829 25.8163 124.222C25.4896 123.615 25.3263 122.915 25.3263 122.122C25.3263 121.319 25.4896 120.615 25.8163 120.008C26.1429 119.401 26.6003 118.935 27.1883 118.608C27.7763 118.281 28.4529 118.118 29.2183 118.118C29.9556 118.118 30.6136 118.277 31.1923 118.594C31.7803 118.911 32.2329 119.364 32.5503 119.952C32.8769 120.531 33.0403 121.198 33.0403 121.954ZM31.0103 121.394C31.0009 120.89 30.8189 120.489 30.4643 120.19C30.1096 119.882 29.6756 119.728 29.1623 119.728C28.6769 119.728 28.2663 119.877 27.9303 120.176C27.6036 120.465 27.4029 120.871 27.3283 121.394H31.0103ZM36.7529 119.854V123.606C36.7529 123.867 36.8135 124.059 36.9349 124.18C37.0655 124.292 37.2802 124.348 37.5789 124.348H38.4889V126H37.2569C35.6049 126 34.7789 125.197 34.7789 123.592V119.854H33.8549V118.244H34.7789V116.326H36.7529V118.244H38.4889V119.854H36.7529ZM47.2206 118.244V126H45.2466V125.02C44.9946 125.356 44.6633 125.622 44.2526 125.818C43.8513 126.005 43.4126 126.098 42.9366 126.098C42.33 126.098 41.7933 125.972 41.3266 125.72C40.86 125.459 40.4913 125.081 40.2206 124.586C39.9593 124.082 39.8286 123.485 39.8286 122.794V118.244H41.7886V122.514C41.7886 123.13 41.9426 123.606 42.2506 123.942C42.5586 124.269 42.9786 124.432 43.5106 124.432C44.052 124.432 44.4766 124.269 44.7846 123.942C45.0926 123.606 45.2466 123.13 45.2466 122.514V118.244H47.2206ZM51.1145 119.448C51.3665 119.037 51.6931 118.715 52.0945 118.482C52.5051 118.249 52.9718 118.132 53.4945 118.132V120.19H52.9765C52.3605 120.19 51.8938 120.335 51.5765 120.624C51.2685 120.913 51.1145 121.417 51.1145 122.136V126H49.1545V118.244H51.1145V119.448ZM59.1126 118.132C60.0366 118.132 60.7833 118.426 61.3526 119.014C61.922 119.593 62.2066 120.405 62.2066 121.45V126H60.2466V121.716C60.2466 121.1 60.0926 120.629 59.7846 120.302C59.4766 119.966 59.0566 119.798 58.5246 119.798C57.9833 119.798 57.554 119.966 57.2366 120.302C56.9286 120.629 56.7746 121.1 56.7746 121.716V126H54.8146V118.244H56.7746V119.21C57.036 118.874 57.3673 118.613 57.7686 118.426C58.1793 118.23 58.6273 118.132 59.1126 118.132Z" fill="#004B64"/>
<path d="M40 0H58C70.1503 0 80 9.84974 80 22V58C80 70.1503 70.1503 80 58 80H40V0Z" fill="#004D28"/>
<path d="M0 22C0 9.84973 9.84974 0 22 0H40V80H22C9.84974 80 0 70.1503 0 58V22Z" fill="#188450"/>
<rect x="10.5" y="10.5" width="59" height="59" rx="15.5" fill="#004D28" stroke="white"/>
<path d="M40.6678 30.0061C42.9915 30.0061 45.3055 30.0061 47.6487 30.0061C47.6487 32.3389 47.6487 34.6523 47.6487 36.9462C42.272 37.3253 38.3635 39.8525 36.6425 45.0139C34.9313 50.1364 36.5453 54.4715 40.5997 57.9999C40.4539 57.9999 40.3275 57.9999 40.2011 57.9999C35.7675 57.9999 31.3242 57.9999 26.8906 57.9999C24.0029 57.9999 22 55.9976 22 53.1205C22 45.5582 22 38.0057 22 30.4435C22 30.3074 22 30.181 22 30.0061C24.3529 30.0061 26.6767 30.0061 29.0101 30.0061L29.0004 29.9963C29.0004 31.153 29.0004 32.3194 29.0004 33.4761C29.8074 33.4761 30.5658 33.4761 31.3436 33.4761C31.3436 32.3 31.3436 31.153 31.3436 29.9963L31.3339 30.0061C33.6674 30.0061 36.0106 30.0061 38.344 30.0061L38.3343 29.9963C38.3343 31.153 38.3343 32.3194 38.3343 33.4761C39.1413 33.4761 39.8997 33.4761 40.6775 33.4761C40.6775 32.3 40.6775 31.153 40.6775 29.9963L40.6678 30.0061Z" fill="white"/>
<path d="M47.6878 58C42.5347 58.0097 38.3442 53.8204 38.3442 48.6687C38.3442 43.5073 42.525 39.3277 47.6878 39.3374C52.8409 39.3374 57.0217 43.5268 57.0217 48.6881C57.0022 53.8204 52.8214 57.9903 47.6878 58ZM46.453 47.5995C46.4724 47.5703 46.4919 47.5315 46.5113 47.5023C47.0655 47.5023 47.6294 47.5023 48.1836 47.5023C49.5546 47.512 50.5949 48.5229 50.5949 49.8448C50.5852 51.1473 49.5546 52.1582 48.1934 52.1582C47.1822 52.1679 46.1808 52.1582 45.1696 52.1582C45.0432 52.1582 44.9168 52.1582 44.7904 52.1582C44.7904 52.965 44.7904 53.7232 44.7904 54.491C45.996 54.491 47.1725 54.5008 48.3489 54.491C51.4019 54.4522 53.5992 51.4584 52.7436 48.5326C52.1603 46.5497 50.3616 45.1889 48.3003 45.1695C47.6975 45.1598 47.1044 45.1695 46.5016 45.1695C46.4822 45.1306 46.453 45.0917 46.4335 45.0528C46.803 44.7029 47.1822 44.3433 47.5031 44.0419C46.9489 43.4879 46.4238 42.9533 45.9182 42.4478C44.6348 43.7309 43.3222 45.0431 42.0583 46.3067C43.3514 47.5995 44.6737 48.9117 45.9474 50.1948C46.4433 49.699 46.9683 49.1742 47.5419 48.6104C47.1919 48.2799 46.8225 47.9397 46.453 47.5995Z" fill="white"/>
<path d="M29.0105 30.0068C29.0008 29.0347 28.9619 28.0627 29.2633 27.1199C30.0703 24.5149 32.5788 22.8042 35.272 23.018C38.0333 23.2318 40.2501 25.3217 40.6001 28.0822C40.6779 28.714 40.639 29.3652 40.6585 30.0068L40.6682 29.997C39.8904 29.997 39.1028 29.997 38.325 29.997L38.3347 30.0068C38.3347 29.5693 38.3347 29.1319 38.325 28.6945C38.2666 26.9352 36.8374 25.4577 35.0873 25.3411C33.2983 25.2147 31.6746 26.4686 31.4024 28.228C31.3148 28.8112 31.344 29.4138 31.3246 30.0068L31.3343 29.997C30.5565 29.997 29.7786 29.997 29.0008 29.997L29.0105 30.0068Z" fill="white"/>
</svg>
