<svg width="100" height="156" viewBox="0 0 100 156" fill="none" xmlns="http://www.w3.org/2000/svg">
<rect width="100" height="156" rx="19" fill="#F9FBFF"/>
<path d="M22.7831 109.217C23.6324 109.217 24.2997 109.31 24.7851 109.497C25.2704 109.674 25.6157 109.987 25.8211 110.435C26.0357 110.873 26.1431 111.499 26.1431 112.311C26.1431 113.123 26.0404 113.753 25.8351 114.201C25.6391 114.649 25.3077 114.961 24.8411 115.139C24.3837 115.316 23.7724 115.405 23.0071 115.405C22.5871 115.405 22.1811 115.391 21.7891 115.363C21.4064 115.335 21.0471 115.297 20.7111 115.251C20.3844 115.204 20.1044 115.157 19.8711 115.111C19.6377 115.055 19.4744 115.008 19.3811 114.971L19.4231 114.033C19.9551 114.033 20.5011 114.033 21.0611 114.033C21.6304 114.033 22.1951 114.033 22.7551 114.033C23.1657 114.023 23.4877 113.972 23.7211 113.879C23.9637 113.785 24.1317 113.617 24.2251 113.375C24.3277 113.123 24.3791 112.768 24.3791 112.311C24.3791 111.853 24.3277 111.503 24.2251 111.261C24.1317 111.009 23.9637 110.836 23.7211 110.743C23.4877 110.64 23.1657 110.589 22.7551 110.589C21.9337 110.589 21.2291 110.593 20.6411 110.603C20.0531 110.612 19.6517 110.626 19.4371 110.645L19.2411 109.343C19.6144 109.305 19.9644 109.277 20.2911 109.259C20.6271 109.24 20.9864 109.231 21.3691 109.231C21.7611 109.221 22.2324 109.217 22.7831 109.217ZM20.9911 109.343V119.003H19.2411V109.343H20.9911ZM29.6773 112.129V116.777C29.668 117.122 29.7333 117.369 29.8733 117.519C30.0226 117.668 30.2606 117.743 30.5873 117.743C30.914 117.743 31.2406 117.673 31.5673 117.533C31.894 117.393 32.2906 117.183 32.7573 116.903L32.9253 117.911C32.4026 118.331 31.8986 118.648 31.4133 118.863C30.928 119.077 30.424 119.185 29.9013 119.185C28.6226 119.185 27.9833 118.555 27.9833 117.295V112.129H29.6773ZM34.2833 112.129V119.003H32.9393L32.7573 117.673L32.5893 117.477V112.129H34.2833ZM37.9234 112.129L38.1474 113.473L38.3014 113.669V119.003H36.6074V112.129H37.9234ZM41.2834 111.961L41.1154 113.529H40.6254C40.2614 113.529 39.8927 113.589 39.5194 113.711C39.1461 113.832 38.6794 114.014 38.1194 114.257L38.0074 113.263C38.4927 112.852 38.9874 112.535 39.4914 112.311C39.9954 112.077 40.4807 111.961 40.9474 111.961H41.2834ZM45.7949 111.961C46.0282 111.961 46.2849 111.97 46.5649 111.989C46.8449 112.007 47.1296 112.045 47.4189 112.101C47.7082 112.157 47.9696 112.236 48.2029 112.339L48.0069 113.403C47.6616 113.384 47.3162 113.37 46.9709 113.361C46.6349 113.351 46.3409 113.347 46.0889 113.347C45.6129 113.347 45.2349 113.412 44.9549 113.543C44.6842 113.664 44.4882 113.888 44.3669 114.215C44.2456 114.532 44.1849 114.98 44.1849 115.559C44.1849 116.137 44.2456 116.59 44.3669 116.917C44.4882 117.234 44.6842 117.458 44.9549 117.589C45.2349 117.719 45.6129 117.785 46.0889 117.785C46.2289 117.785 46.4109 117.78 46.6349 117.771C46.8682 117.761 47.1156 117.747 47.3769 117.729C47.6476 117.71 47.9089 117.687 48.1609 117.659L48.3289 118.751C47.9649 118.9 47.5589 119.007 47.1109 119.073C46.6629 119.138 46.2196 119.171 45.7809 119.171C44.9596 119.171 44.3016 119.054 43.8069 118.821C43.3122 118.587 42.9529 118.209 42.7289 117.687C42.5142 117.155 42.4069 116.445 42.4069 115.559C42.4069 114.672 42.5189 113.967 42.7429 113.445C42.9669 112.913 43.3262 112.535 43.8209 112.311C44.3156 112.077 44.9736 111.961 45.7949 111.961ZM54.6569 111.961C55.9356 111.961 56.5749 112.591 56.5749 113.851V119.003H54.8669V114.369C54.8669 113.995 54.8016 113.739 54.6709 113.599C54.5496 113.459 54.3349 113.389 54.0269 113.389C53.6816 113.389 53.3269 113.463 52.9629 113.613C52.5989 113.762 52.1602 113.986 51.6469 114.285L51.5209 113.305C52.0436 112.875 52.5662 112.544 53.0889 112.311C53.6209 112.077 54.1436 111.961 54.6569 111.961ZM51.8289 109.203L51.8429 111.723C51.8429 112.068 51.8242 112.395 51.7869 112.703C51.7589 113.001 51.7169 113.258 51.6609 113.473L51.8289 113.669V119.003H50.1349V109.203H51.8289ZM62.3117 111.961C62.8624 111.961 63.3244 112.035 63.6977 112.185C64.0804 112.325 64.3697 112.567 64.5657 112.913C64.7617 113.258 64.8597 113.734 64.8597 114.341V119.003H63.5157L63.2777 117.519L63.1517 117.323V114.327C63.1517 113.963 63.0677 113.701 62.8997 113.543C62.7317 113.375 62.4097 113.291 61.9337 113.291C61.5791 113.291 61.1311 113.305 60.5897 113.333C60.0577 113.361 59.5211 113.398 58.9797 113.445L58.8257 112.283C59.1524 112.217 59.5211 112.161 59.9317 112.115C60.3424 112.068 60.7577 112.031 61.1777 112.003C61.5977 111.975 61.9757 111.961 62.3117 111.961ZM64.1317 114.775L64.1177 115.825H60.9677C60.6877 115.834 60.4871 115.909 60.3657 116.049C60.2444 116.189 60.1837 116.38 60.1837 116.623V117.001C60.1837 117.281 60.2584 117.495 60.4077 117.645C60.5571 117.785 60.7904 117.855 61.1077 117.855C61.3597 117.855 61.6397 117.803 61.9477 117.701C62.2557 117.598 62.5591 117.449 62.8577 117.253C63.1657 117.057 63.4411 116.823 63.6837 116.553V117.435C63.5904 117.575 63.4551 117.743 63.2777 117.939C63.1004 118.125 62.8811 118.312 62.6197 118.499C62.3677 118.685 62.0737 118.839 61.7377 118.961C61.4111 119.082 61.0471 119.143 60.6457 119.143C60.2351 119.143 59.8664 119.073 59.5397 118.933C59.2131 118.783 58.9564 118.569 58.7697 118.289C58.5831 117.999 58.4897 117.645 58.4897 117.225V116.497C58.4897 115.955 58.6671 115.535 59.0217 115.237C59.3857 114.929 59.8804 114.775 60.5057 114.775H64.1317ZM69.5994 111.961C69.9167 111.961 70.2574 111.97 70.6214 111.989C70.9947 112.007 71.3587 112.035 71.7134 112.073C72.068 112.101 72.3854 112.143 72.6654 112.199L72.5534 113.305C72.1054 113.295 71.6574 113.286 71.2094 113.277C70.7707 113.258 70.3367 113.249 69.9074 113.249C69.5247 113.249 69.2214 113.258 68.9974 113.277C68.7827 113.295 68.6287 113.351 68.5354 113.445C68.4514 113.538 68.4094 113.697 68.4094 113.921C68.4094 114.191 68.484 114.373 68.6334 114.467C68.7827 114.551 69.0254 114.635 69.3614 114.719L71.2374 115.153C71.7974 115.293 72.2127 115.507 72.4834 115.797C72.754 116.077 72.8894 116.511 72.8894 117.099C72.8894 117.668 72.782 118.102 72.5674 118.401C72.362 118.69 72.0307 118.891 71.5734 119.003C71.1254 119.105 70.5514 119.157 69.8514 119.157C69.5807 119.157 69.1794 119.143 68.6474 119.115C68.1154 119.096 67.532 119.035 66.8974 118.933L67.0094 117.827C67.196 117.827 67.4154 117.831 67.6674 117.841C67.9287 117.85 68.204 117.855 68.4934 117.855C68.792 117.855 69.0954 117.855 69.4034 117.855C69.898 117.855 70.276 117.841 70.5374 117.813C70.808 117.775 70.9947 117.705 71.0974 117.603C71.2 117.491 71.2514 117.332 71.2514 117.127C71.2514 116.865 71.1627 116.693 70.9854 116.609C70.8174 116.515 70.5654 116.427 70.2294 116.343L68.3954 115.895C67.9754 115.783 67.6487 115.643 67.4154 115.475C67.182 115.297 67.014 115.083 66.9114 114.831C66.8087 114.569 66.7574 114.252 66.7574 113.879C66.7574 113.375 66.8507 112.983 67.0374 112.703C67.2334 112.423 67.5367 112.227 67.9474 112.115C68.3674 112.003 68.918 111.951 69.5994 111.961ZM77.9082 111.961C79.0188 111.961 79.8168 112.157 80.3022 112.549C80.7875 112.931 81.0348 113.501 81.0442 114.257C81.0535 114.882 80.9042 115.358 80.5962 115.685C80.2975 116.002 79.7982 116.161 79.0982 116.161H75.1782V115.111H78.6362C78.9535 115.111 79.1542 115.027 79.2382 114.859C79.3315 114.691 79.3782 114.485 79.3782 114.243C79.3688 113.86 79.2568 113.594 79.0422 113.445C78.8368 113.295 78.4822 113.221 77.9782 113.221C77.5395 113.221 77.1988 113.281 76.9562 113.403C76.7135 113.524 76.5408 113.743 76.4382 114.061C76.3448 114.378 76.2982 114.835 76.2982 115.433C76.2982 116.067 76.3588 116.557 76.4802 116.903C76.6015 117.248 76.8022 117.486 77.0822 117.617C77.3622 117.738 77.7355 117.799 78.2022 117.799C78.5475 117.799 78.9442 117.785 79.3922 117.757C79.8495 117.729 80.2882 117.691 80.7082 117.645L80.8762 118.723C80.6242 118.825 80.3348 118.909 80.0082 118.975C79.6815 119.04 79.3408 119.087 78.9862 119.115C78.6408 119.152 78.3142 119.171 78.0062 119.171C77.1662 119.171 76.4895 119.049 75.9762 118.807C75.4722 118.555 75.1035 118.163 74.8702 117.631C74.6462 117.099 74.5342 116.413 74.5342 115.573C74.5342 114.667 74.6462 113.953 74.8702 113.431C75.1035 112.899 75.4675 112.521 75.9622 112.297C76.4662 112.073 77.1148 111.961 77.9082 111.961ZM31.2766 127.217C32.0793 127.217 32.728 127.301 33.2226 127.469C33.7266 127.637 34.0906 127.926 34.3146 128.337C34.548 128.738 34.6646 129.307 34.6646 130.045C34.6646 130.53 34.604 130.945 34.4826 131.291C34.3706 131.627 34.1793 131.897 33.9086 132.103C33.6473 132.299 33.2926 132.425 32.8446 132.481V132.551C33.0033 132.588 33.1666 132.663 33.3346 132.775C33.512 132.877 33.6706 133.027 33.8106 133.223C33.96 133.419 34.072 133.671 34.1466 133.979L35.0286 137.003H33.1806L32.3826 134.021C32.28 133.685 32.14 133.451 31.9626 133.321C31.7853 133.181 31.5426 133.111 31.2346 133.111C30.628 133.111 30.11 133.111 29.6806 133.111C29.2513 133.101 28.892 133.092 28.6026 133.083C28.3226 133.073 28.0753 133.069 27.8606 133.069L27.9026 131.739H31.2346C31.6546 131.729 31.986 131.683 32.2286 131.599C32.4713 131.505 32.644 131.347 32.7466 131.123C32.8493 130.889 32.9006 130.563 32.9006 130.143C32.9006 129.732 32.8493 129.415 32.7466 129.191C32.644 128.967 32.4713 128.813 32.2286 128.729C31.986 128.635 31.6546 128.589 31.2346 128.589C30.4133 128.589 29.7086 128.593 29.1206 128.603C28.5326 128.612 28.1313 128.621 27.9166 128.631L27.7206 127.343C28.094 127.305 28.444 127.277 28.7706 127.259C29.1066 127.24 29.4706 127.231 29.8626 127.231C30.2546 127.221 30.726 127.217 31.2766 127.217ZM29.4426 127.343V137.003H27.7206V127.343H29.4426ZM39.899 129.961C41.0097 129.961 41.8077 130.157 42.293 130.549C42.7783 130.931 43.0257 131.501 43.035 132.257C43.0443 132.882 42.895 133.358 42.587 133.685C42.2883 134.002 41.789 134.161 41.089 134.161H37.169V133.111H40.627C40.9443 133.111 41.145 133.027 41.229 132.859C41.3223 132.691 41.369 132.485 41.369 132.243C41.3597 131.86 41.2477 131.594 41.033 131.445C40.8277 131.295 40.473 131.221 39.969 131.221C39.5303 131.221 39.1897 131.281 38.947 131.403C38.7043 131.524 38.5317 131.743 38.429 132.061C38.3357 132.378 38.289 132.835 38.289 133.433C38.289 134.067 38.3497 134.557 38.471 134.903C38.5923 135.248 38.793 135.486 39.073 135.617C39.353 135.738 39.7263 135.799 40.193 135.799C40.5383 135.799 40.935 135.785 41.383 135.757C41.8403 135.729 42.279 135.691 42.699 135.645L42.867 136.723C42.615 136.825 42.3257 136.909 41.999 136.975C41.6723 137.04 41.3317 137.087 40.977 137.115C40.6317 137.152 40.305 137.171 39.997 137.171C39.157 137.171 38.4803 137.049 37.967 136.807C37.463 136.555 37.0943 136.163 36.861 135.631C36.637 135.099 36.525 134.413 36.525 133.573C36.525 132.667 36.637 131.953 36.861 131.431C37.0943 130.899 37.4583 130.521 37.953 130.297C38.457 130.073 39.1057 129.961 39.899 129.961ZM47.2456 128.169V134.931C47.2456 135.22 47.3063 135.425 47.4276 135.547C47.5583 135.668 47.7776 135.729 48.0856 135.729H49.0376L49.2196 136.919C49.0609 136.965 48.8696 137.007 48.6456 137.045C48.4216 137.082 48.2023 137.105 47.9876 137.115C47.7729 137.133 47.5909 137.143 47.4416 137.143C46.8443 137.143 46.3776 136.984 46.0416 136.667C45.7149 136.34 45.5516 135.873 45.5516 135.267V128.169H47.2456ZM49.2896 130.129V131.305H44.3336V130.199L45.6776 130.129H49.2896ZM52.614 130.129V134.777C52.6047 135.122 52.67 135.369 52.81 135.519C52.9594 135.668 53.1974 135.743 53.524 135.743C53.8507 135.743 54.1774 135.673 54.504 135.533C54.8307 135.393 55.2274 135.183 55.694 134.903L55.862 135.911C55.3394 136.331 54.8354 136.648 54.35 136.863C53.8647 137.077 53.3607 137.185 52.838 137.185C51.5594 137.185 50.92 136.555 50.92 135.295V130.129H52.614ZM57.22 130.129V137.003H55.876L55.694 135.673L55.526 135.477V130.129H57.22ZM60.8602 130.129L61.0842 131.473L61.2382 131.669V137.003H59.5442V130.129H60.8602ZM64.2202 129.961L64.0522 131.529H63.5622C63.1982 131.529 62.8295 131.589 62.4562 131.711C62.0828 131.832 61.6162 132.014 61.0562 132.257L60.9442 131.263C61.4295 130.852 61.9242 130.535 62.4282 130.311C62.9322 130.077 63.4175 129.961 63.8842 129.961H64.2202ZM70.3104 129.961C71.589 129.961 72.2284 130.591 72.2284 131.851V137.003H70.5344V132.369C70.5344 131.995 70.469 131.739 70.3384 131.599C70.2077 131.459 69.9884 131.389 69.6804 131.389C69.335 131.389 68.9804 131.468 68.6164 131.627C68.2524 131.776 67.8137 131.995 67.3004 132.285L67.2304 131.263C67.7344 130.843 68.2477 130.521 68.7704 130.297C69.293 130.073 69.8064 129.961 70.3104 129.961ZM67.1744 130.129L67.3424 131.473L67.4824 131.669V137.003H65.7884V130.129H67.1744Z" fill="#B9744E"/>
<path d="M76.0191 81.1159L24.1874 81.1089" stroke="white" stroke-width="6.29" stroke-miterlimit="10"/>
<path d="M76.0191 81.1159L24.1874 81.1089" stroke="#B9744E" stroke-width="3.42" stroke-miterlimit="10"/>
<path d="M18.8871 22.6508L18.8871 18.8889L75.4492 18.8819" stroke="white" stroke-width="6.29" stroke-miterlimit="10"/>
<path d="M18.8871 22.6508L18.8871 18.8889L75.4492 18.8819" stroke="#B9744E" stroke-width="3.42" stroke-miterlimit="10"/>
<path d="M62.21 86.5128L37.8075 86.5003L13.4667 62.1594L13.4541 37.757L37.7927 13.4184H62.2092L86.5486 37.7577V62.1742L62.21 86.5128Z" fill="#FFF3EC" stroke="#B9744E" stroke-width="7"/>
<path d="M24.1856 81.108L18.8866 81.115L18.8866 22.6509" stroke="white" stroke-width="6.29" stroke-miterlimit="10"/>
<path d="M24.1856 81.108L18.8866 81.115L18.8866 22.6509" stroke="#B9744E" stroke-width="3.42" stroke-miterlimit="10"/>
<path d="M75.4494 18.8803L81.1133 18.8874L81.1134 81.1134L76.0179 81.1134" stroke="white" stroke-width="6.29" stroke-miterlimit="10"/>
<path d="M75.4494 18.8803L81.1133 18.8874L81.1134 81.1134L76.0179 81.1134" stroke="#B9744E" stroke-width="3.42" stroke-miterlimit="10"/>
<path d="M35 49.6693C35.1703 49.6133 35.3383 49.518 35.5115 49.5074C35.9255 49.4832 36.3439 49.4998 36.7571 49.4998C37.2278 49.4998 37.3004 49.5679 37.3171 50.0295C37.3557 51.4099 37.6487 52.7713 38.1812 54.0454C39.8226 57.9085 42.6708 60.4299 46.7639 61.369C50.888 62.3156 54.5733 61.2933 57.753 58.4934C58.0602 58.2225 58.0557 58.0613 57.7666 57.7685C57.2682 57.264 56.7677 56.7631 56.2653 56.2657C56.1245 56.1257 56.005 55.9826 56.0988 55.77C56.1858 55.5717 56.3637 55.5581 56.5528 55.5581C58.3185 55.5581 60.0842 55.5581 61.8499 55.5581C62.2153 55.5581 62.3326 55.6678 62.3334 56.0258C62.3364 57.8 62.3364 59.5748 62.3334 61.35C62.3334 61.5377 62.3069 61.7148 62.1064 61.792C61.9058 61.8691 61.7659 61.7632 61.6327 61.6285C61.1408 61.1321 60.6472 60.6377 60.1518 60.1453C59.8271 59.8215 59.6977 59.8169 59.3701 60.1226C57.327 62.0054 54.9516 63.2214 52.2252 63.745C51.7257 63.8404 51.2165 63.8828 50.7117 63.9516C50.6292 63.963 50.549 63.9849 50.4673 64.0016H48.5415C48.4986 63.9847 48.4546 63.9708 48.4098 63.96C47.5736 63.823 46.7208 63.7503 45.9035 63.5407C40.3523 62.1158 36.2229 57.6383 35.2202 51.9978C35.1302 51.4893 35.0749 50.9754 35.0038 50.4639L35 49.6693Z" fill="#B9744E"/>
<path d="M39.7923 43.443H37.1869C36.7783 43.443 36.6738 43.3462 36.6738 42.9496C36.6738 41.1941 36.6738 39.4382 36.6738 37.6821C36.6738 37.4892 36.6791 37.2947 36.9008 37.2099C37.1226 37.1252 37.2565 37.25 37.3957 37.39C37.8876 37.8854 38.3817 38.3791 38.8781 38.8709C39.1846 39.1736 39.3155 39.1789 39.6386 38.88C41.6765 36.995 44.0511 35.7442 46.7836 35.2614C51.5509 34.4192 55.7711 35.6095 59.3542 38.8724C61.9028 41.1925 63.3769 44.1135 63.8703 47.5225C63.9459 48.0348 63.9686 48.5554 63.9981 49.0738C64.0163 49.3901 63.9005 49.4968 63.5804 49.499C63.109 49.499 62.6368 49.499 62.1646 49.499C61.7976 49.499 61.7015 49.4075 61.6894 49.0291C61.641 47.5157 61.3353 46.0461 60.7057 44.6697C58.9032 40.7347 55.8846 38.2648 51.6084 37.5028C47.7204 36.8096 44.2682 37.86 41.2981 40.4668C40.9311 40.7885 40.9326 40.9277 41.2762 41.2712C41.7363 41.7323 42.1966 42.1932 42.6572 42.6538C42.8146 42.8119 43.0234 42.9564 42.9077 43.2274C42.7979 43.4854 42.5596 43.4423 42.3447 43.443H39.7923Z" fill="#B9744E"/>
<path d="M56.5445 45.9879V46.3178C56.5445 48.6016 56.54 50.8861 56.5498 53.1707C56.5498 53.4613 56.4552 53.6308 56.1994 53.7761C54.2259 54.9028 52.2645 56.0462 50.297 57.1813C50.2085 57.2327 50.1185 57.2812 49.9686 57.3644V57.0534C49.9686 54.7121 49.9686 52.3711 49.9686 50.0303C49.9686 49.8699 49.9868 49.7556 50.151 49.661C52.23 48.4705 54.3051 47.2748 56.3765 46.0742C56.4098 46.0485 56.4514 46.0333 56.5445 45.9879Z" fill="#B9744E"/>
<path d="M49.0242 57.3417C48.9047 57.2804 48.8139 57.238 48.7284 57.1904C46.7352 56.0407 44.7425 54.8917 42.7503 53.7435C42.5611 53.6345 42.4552 53.5112 42.4559 53.2789C42.4615 50.9078 42.4627 48.5388 42.4597 46.1718C42.4597 46.1256 42.468 46.0795 42.4771 45.9917C42.6822 46.1075 42.8683 46.2104 43.0522 46.3163C43.5343 46.5933 44.0117 46.8786 44.4991 47.1487C44.5666 47.1785 44.6227 47.2291 44.6594 47.2931C44.696 47.3571 44.7112 47.4311 44.7026 47.5044C44.6928 48.193 44.7026 48.8816 44.6951 49.571C44.6913 49.8737 44.7965 50.0871 45.0734 50.2354C45.5471 50.4896 46.0057 50.7704 46.4733 51.0352C46.9077 51.2812 47.2429 51.0882 47.2475 50.5857C47.252 49.9925 47.2475 49.3992 47.2475 48.7696C47.3225 48.7978 47.396 48.8299 47.4677 48.8657C47.9255 49.1275 48.3795 49.3954 48.8411 49.6542C48.9055 49.6806 48.96 49.7266 48.9968 49.7857C49.0336 49.8448 49.0509 49.9139 49.0462 49.9834C49.0401 52.3615 49.0386 54.7399 49.0416 57.1185C49.0379 57.1798 49.0303 57.2418 49.0242 57.3417Z" fill="#B9744E"/>
<path d="M42.9259 45.1615L45.2505 43.8206C46.5642 43.0639 47.8794 42.3072 49.1855 41.5406C49.4079 41.4105 49.588 41.4029 49.8098 41.5361C50.4378 41.9145 51.0765 42.2739 51.7515 42.6644L50.4991 43.3863C48.8026 44.3662 47.1045 45.3432 45.4117 46.3307C45.3417 46.3819 45.2571 46.4096 45.1703 46.4096C45.0835 46.4096 44.999 46.3819 44.9289 46.3307C44.2789 45.9349 43.6153 45.5603 42.9259 45.1615Z" fill="#B9744E"/>
<path d="M56.0837 45.1631L52.1018 47.4612C51.3186 47.9152 50.5309 48.3579 49.756 48.8233C49.6824 48.8784 49.5929 48.9082 49.501 48.9082C49.409 48.9082 49.3196 48.8784 49.246 48.8233C48.7564 48.5206 48.2539 48.2444 47.7325 47.9417C47.8218 47.885 47.8892 47.8373 47.9596 47.7964C49.9906 46.623 52.0206 45.4476 54.0496 44.2701C54.2426 44.1581 54.3743 44.1665 54.5566 44.2785C55.0439 44.5751 55.5464 44.8528 56.0837 45.1631Z" fill="#B9744E"/>
<path d="M46.322 49.8638C46.0949 49.7337 45.9035 49.6368 45.7264 49.518C45.7016 49.4933 45.6821 49.4637 45.6691 49.4312C45.6561 49.3987 45.6499 49.3638 45.6507 49.3288C45.6447 48.697 45.6379 48.0643 45.6568 47.4332C45.6568 47.3356 45.7696 47.2062 45.8641 47.151C47.6389 46.1173 49.4164 45.0887 51.1967 44.0651C51.6046 43.8298 52.0223 43.6111 52.4173 43.353C52.6239 43.2191 52.7836 43.2168 52.9712 43.3629C53.0926 43.4461 53.219 43.5219 53.3496 43.5899C53.2384 43.6595 53.1513 43.7185 53.0605 43.7707C50.9879 44.9671 48.9213 46.1733 46.8373 47.3492C46.4445 47.5717 46.2879 47.8298 46.3159 48.2717C46.3462 48.7825 46.322 49.3023 46.322 49.8638Z" fill="#B9744E"/>
</svg>
