<svg width="80" height="132" viewBox="0 0 80 132" fill="none" xmlns="http://www.w3.org/2000/svg">
<path d="M12.4325 106.722L10.9485 104.944C10.5379 105.047 10.1179 105.098 9.68852 105.098C8.77386 105.098 7.93386 104.883 7.16852 104.454C6.40319 104.025 5.79652 103.432 5.34852 102.676C4.90052 101.911 4.67652 101.047 4.67652 100.086C4.67652 99.134 4.90052 98.28 5.34852 97.524C5.79652 96.7587 6.40319 96.1613 7.16852 95.732C7.93386 95.3027 8.77386 95.088 9.68852 95.088C10.6125 95.088 11.4525 95.3027 12.2085 95.732C12.9739 96.1613 13.5759 96.7587 14.0145 97.524C14.4625 98.28 14.6865 99.134 14.6865 100.086C14.6865 100.954 14.4999 101.747 14.1265 102.466C13.7625 103.175 13.2632 103.754 12.6285 104.202L14.8685 106.722H12.4325ZM6.69252 100.086C6.69252 100.739 6.81852 101.313 7.07052 101.808C7.32252 102.303 7.67252 102.685 8.12052 102.956C8.57786 103.217 9.10052 103.348 9.68852 103.348C10.2765 103.348 10.7945 103.217 11.2425 102.956C11.6905 102.685 12.0405 102.303 12.2925 101.808C12.5445 101.313 12.6705 100.739 12.6705 100.086C12.6705 99.4327 12.5445 98.8633 12.2925 98.378C12.0405 97.8833 11.6905 97.5053 11.2425 97.244C10.7945 96.9827 10.2765 96.852 9.68852 96.852C9.10052 96.852 8.57786 96.9827 8.12052 97.244C7.67252 97.5053 7.32252 97.8833 7.07052 98.378C6.81852 98.8633 6.69252 99.4327 6.69252 100.086ZM23.4941 97.244V105H21.5201V104.02C21.2681 104.356 20.9367 104.622 20.5261 104.818C20.1247 105.005 19.6861 105.098 19.2101 105.098C18.6034 105.098 18.0667 104.972 17.6001 104.72C17.1334 104.459 16.7647 104.081 16.4941 103.586C16.2327 103.082 16.1021 102.485 16.1021 101.794V97.244H18.0621V101.514C18.0621 102.13 18.2161 102.606 18.5241 102.942C18.8321 103.269 19.2521 103.432 19.7841 103.432C20.3254 103.432 20.7501 103.269 21.0581 102.942C21.3661 102.606 21.5201 102.13 21.5201 101.514V97.244H23.4941ZM28.8719 105.126C28.1252 105.126 27.4532 104.963 26.8559 104.636C26.2586 104.3 25.7872 103.829 25.4419 103.222C25.1059 102.615 24.9379 101.915 24.9379 101.122C24.9379 100.329 25.1106 99.6287 25.4559 99.022C25.8106 98.4153 26.2912 97.9487 26.8979 97.622C27.5046 97.286 28.1812 97.118 28.9279 97.118C29.6746 97.118 30.3512 97.286 30.9579 97.622C31.5646 97.9487 32.0406 98.4153 32.3859 99.022C32.7406 99.6287 32.9179 100.329 32.9179 101.122C32.9179 101.915 32.7359 102.615 32.3719 103.222C32.0172 103.829 31.5319 104.3 30.9159 104.636C30.3092 104.963 29.6279 105.126 28.8719 105.126ZM28.8719 103.418C29.2266 103.418 29.5579 103.334 29.8659 103.166C30.1832 102.989 30.4352 102.727 30.6219 102.382C30.8086 102.037 30.9019 101.617 30.9019 101.122C30.9019 100.385 30.7059 99.82 30.3139 99.428C29.9312 99.0267 29.4599 98.826 28.8999 98.826C28.3399 98.826 27.8686 99.0267 27.4859 99.428C27.1126 99.82 26.9259 100.385 26.9259 101.122C26.9259 101.859 27.1079 102.429 27.4719 102.83C27.8452 103.222 28.3119 103.418 28.8719 103.418ZM36.6376 98.854V102.606C36.6376 102.867 36.6983 103.059 36.8196 103.18C36.9503 103.292 37.165 103.348 37.4636 103.348H38.3736V105H37.1416C35.4896 105 34.6636 104.197 34.6636 102.592V98.854H33.7396V97.244H34.6636V95.326H36.6376V97.244H38.3736V98.854H36.6376ZM39.2794 101.094C39.2794 100.31 39.4334 99.6147 39.7414 99.008C40.0587 98.4013 40.4834 97.9347 41.0154 97.608C41.5567 97.2813 42.1587 97.118 42.8214 97.118C43.4 97.118 43.904 97.2347 44.3334 97.468C44.772 97.7013 45.122 97.9953 45.3834 98.35V97.244H47.3574V105H45.3834V103.866C45.1314 104.23 44.7814 104.533 44.3334 104.776C43.8947 105.009 43.386 105.126 42.8074 105.126C42.154 105.126 41.5567 104.958 41.0154 104.622C40.4834 104.286 40.0587 103.815 39.7414 103.208C39.4334 102.592 39.2794 101.887 39.2794 101.094ZM45.3834 101.122C45.3834 100.646 45.29 100.24 45.1034 99.904C44.9167 99.5587 44.6647 99.2973 44.3474 99.12C44.03 98.9333 43.6894 98.84 43.3254 98.84C42.9614 98.84 42.6254 98.9287 42.3174 99.106C42.0094 99.2833 41.7574 99.5447 41.5614 99.89C41.3747 100.226 41.2814 100.627 41.2814 101.094C41.2814 101.561 41.3747 101.971 41.5614 102.326C41.7574 102.671 42.0094 102.937 42.3174 103.124C42.6347 103.311 42.9707 103.404 43.3254 103.404C43.6894 103.404 44.03 103.315 44.3474 103.138C44.6647 102.951 44.9167 102.69 45.1034 102.354C45.29 102.009 45.3834 101.598 45.3834 101.122ZM51.5537 98.854V102.606C51.5537 102.867 51.6143 103.059 51.7357 103.18C51.8663 103.292 52.081 103.348 52.3797 103.348H53.2897V105H52.0577C50.4057 105 49.5797 104.197 49.5797 102.592V98.854H48.6557V97.244H49.5797V95.326H51.5537V97.244H53.2897V98.854H51.5537ZM55.6934 96.32C55.3481 96.32 55.0587 96.2127 54.8254 95.998C54.6014 95.774 54.4894 95.4987 54.4894 95.172C54.4894 94.8453 54.6014 94.5747 54.8254 94.36C55.0587 94.136 55.3481 94.024 55.6934 94.024C56.0387 94.024 56.3234 94.136 56.5474 94.36C56.7807 94.5747 56.8974 94.8453 56.8974 95.172C56.8974 95.4987 56.7807 95.774 56.5474 95.998C56.3234 96.2127 56.0387 96.32 55.6934 96.32ZM56.6594 97.244V105H54.6994V97.244H56.6594ZM62.0399 105.126C61.2932 105.126 60.6212 104.963 60.0239 104.636C59.4265 104.3 58.9552 103.829 58.6099 103.222C58.2739 102.615 58.1059 101.915 58.1059 101.122C58.1059 100.329 58.2785 99.6287 58.6239 99.022C58.9785 98.4153 59.4592 97.9487 60.0659 97.622C60.6725 97.286 61.3492 97.118 62.0959 97.118C62.8425 97.118 63.5192 97.286 64.1259 97.622C64.7325 97.9487 65.2086 98.4153 65.5539 99.022C65.9085 99.6287 66.0859 100.329 66.0859 101.122C66.0859 101.915 65.9039 102.615 65.5399 103.222C65.1852 103.829 64.6999 104.3 64.0839 104.636C63.4772 104.963 62.7959 105.126 62.0399 105.126ZM62.0399 103.418C62.3945 103.418 62.7259 103.334 63.0339 103.166C63.3512 102.989 63.6032 102.727 63.7899 102.382C63.9765 102.037 64.0699 101.617 64.0699 101.122C64.0699 100.385 63.8739 99.82 63.4819 99.428C63.0992 99.0267 62.6279 98.826 62.0679 98.826C61.5079 98.826 61.0365 99.0267 60.6539 99.428C60.2805 99.82 60.0939 100.385 60.0939 101.122C60.0939 101.859 60.2759 102.429 60.6399 102.83C61.0132 103.222 61.4799 103.418 62.0399 103.418ZM71.8216 97.132C72.7456 97.132 73.4923 97.426 74.0616 98.014C74.631 98.5927 74.9156 99.4047 74.9156 100.45V105H72.9556V100.716C72.9556 100.1 72.8016 99.6287 72.4936 99.302C72.1856 98.966 71.7656 98.798 71.2336 98.798C70.6923 98.798 70.263 98.966 69.9456 99.302C69.6376 99.6287 69.4836 100.1 69.4836 100.716V105H67.5236V97.244H69.4836V98.21C69.745 97.874 70.0763 97.6127 70.4776 97.426C70.8883 97.23 71.3363 97.132 71.8216 97.132ZM7.80027 119.168C7.57627 118.757 7.26827 118.445 6.87627 118.23C6.48427 118.015 6.02694 117.908 5.50427 117.908C4.92561 117.908 4.41227 118.039 3.96427 118.3C3.51627 118.561 3.16627 118.935 2.91427 119.42C2.66227 119.905 2.53627 120.465 2.53627 121.1C2.53627 121.753 2.66227 122.323 2.91427 122.808C3.17561 123.293 3.53494 123.667 3.99227 123.928C4.44961 124.189 4.98161 124.32 5.58827 124.32C6.33494 124.32 6.94627 124.124 7.42227 123.732C7.89827 123.331 8.21094 122.775 8.36027 122.066H5.00027V120.568H10.2923V122.276C10.1616 122.957 9.88161 123.587 9.45227 124.166C9.02294 124.745 8.46761 125.211 7.78627 125.566C7.11427 125.911 6.35827 126.084 5.51827 126.084C4.57561 126.084 3.72161 125.874 2.95627 125.454C2.20027 125.025 1.60294 124.432 1.16427 123.676C0.73494 122.92 0.520273 122.061 0.520273 121.1C0.520273 120.139 0.73494 119.28 1.16427 118.524C1.60294 117.759 2.20027 117.166 2.95627 116.746C3.72161 116.317 4.57094 116.102 5.50427 116.102C6.60561 116.102 7.56227 116.373 8.37427 116.914C9.18627 117.446 9.74627 118.197 10.0543 119.168H7.80027ZM18.9524 121.954C18.9524 122.234 18.9337 122.486 18.8964 122.71H13.2264C13.273 123.27 13.469 123.709 13.8144 124.026C14.1597 124.343 14.5844 124.502 15.0884 124.502C15.8164 124.502 16.3344 124.189 16.6424 123.564H18.7564C18.5324 124.311 18.103 124.927 17.4684 125.412C16.8337 125.888 16.0544 126.126 15.1304 126.126C14.3837 126.126 13.7117 125.963 13.1144 125.636C12.5264 125.3 12.0644 124.829 11.7284 124.222C11.4017 123.615 11.2384 122.915 11.2384 122.122C11.2384 121.319 11.4017 120.615 11.7284 120.008C12.055 119.401 12.5124 118.935 13.1004 118.608C13.6884 118.281 14.365 118.118 15.1304 118.118C15.8677 118.118 16.5257 118.277 17.1044 118.594C17.6924 118.911 18.145 119.364 18.4624 119.952C18.789 120.531 18.9524 121.198 18.9524 121.954ZM16.9224 121.394C16.913 120.89 16.731 120.489 16.3764 120.19C16.0217 119.882 15.5877 119.728 15.0744 119.728C14.589 119.728 14.1784 119.877 13.8424 120.176C13.5157 120.465 13.315 120.871 13.2404 121.394H16.9224ZM24.681 118.132C25.605 118.132 26.3517 118.426 26.921 119.014C27.4903 119.593 27.775 120.405 27.775 121.45V126H25.815V121.716C25.815 121.1 25.661 120.629 25.353 120.302C25.045 119.966 24.625 119.798 24.093 119.798C23.5517 119.798 23.1223 119.966 22.805 120.302C22.497 120.629 22.343 121.1 22.343 121.716V126H20.383V118.244H22.343V119.21C22.6043 118.874 22.9357 118.613 23.337 118.426C23.7477 118.23 24.1957 118.132 24.681 118.132ZM36.8489 121.954C36.8489 122.234 36.8302 122.486 36.7929 122.71H31.1229C31.1695 123.27 31.3655 123.709 31.7109 124.026C32.0562 124.343 32.4809 124.502 32.9849 124.502C33.7129 124.502 34.2309 124.189 34.5389 123.564H36.6529C36.4289 124.311 35.9995 124.927 35.3649 125.412C34.7302 125.888 33.9509 126.126 33.0269 126.126C32.2802 126.126 31.6082 125.963 31.0109 125.636C30.4229 125.3 29.9609 124.829 29.6249 124.222C29.2982 123.615 29.1349 122.915 29.1349 122.122C29.1349 121.319 29.2982 120.615 29.6249 120.008C29.9515 119.401 30.4089 118.935 30.9969 118.608C31.5849 118.281 32.2615 118.118 33.0269 118.118C33.7642 118.118 34.4222 118.277 35.0009 118.594C35.5889 118.911 36.0415 119.364 36.3589 119.952C36.6855 120.531 36.8489 121.198 36.8489 121.954ZM34.8189 121.394C34.8095 120.89 34.6275 120.489 34.2729 120.19C33.9182 119.882 33.4842 119.728 32.9709 119.728C32.4855 119.728 32.0749 119.877 31.7389 120.176C31.4122 120.465 31.2115 120.871 31.1369 121.394H34.8189ZM40.2395 119.448C40.4915 119.037 40.8181 118.715 41.2195 118.482C41.6301 118.249 42.0968 118.132 42.6195 118.132V120.19H42.1015C41.4855 120.19 41.0188 120.335 40.7015 120.624C40.3935 120.913 40.2395 121.417 40.2395 122.136V126H38.2795V118.244H40.2395V119.448ZM43.4356 122.094C43.4356 121.31 43.5896 120.615 43.8976 120.008C44.215 119.401 44.6396 118.935 45.1716 118.608C45.713 118.281 46.315 118.118 46.9776 118.118C47.5563 118.118 48.0603 118.235 48.4896 118.468C48.9283 118.701 49.2783 118.995 49.5396 119.35V118.244H51.5136V126H49.5396V124.866C49.2876 125.23 48.9376 125.533 48.4896 125.776C48.051 126.009 47.5423 126.126 46.9636 126.126C46.3103 126.126 45.713 125.958 45.1716 125.622C44.6396 125.286 44.215 124.815 43.8976 124.208C43.5896 123.592 43.4356 122.887 43.4356 122.094ZM49.5396 122.122C49.5396 121.646 49.4463 121.24 49.2596 120.904C49.073 120.559 48.821 120.297 48.5036 120.12C48.1863 119.933 47.8456 119.84 47.4816 119.84C47.1176 119.84 46.7816 119.929 46.4736 120.106C46.1656 120.283 45.9136 120.545 45.7176 120.89C45.531 121.226 45.4376 121.627 45.4376 122.094C45.4376 122.561 45.531 122.971 45.7176 123.326C45.9136 123.671 46.1656 123.937 46.4736 124.124C46.791 124.311 47.127 124.404 47.4816 124.404C47.8456 124.404 48.1863 124.315 48.5036 124.138C48.821 123.951 49.073 123.69 49.2596 123.354C49.4463 123.009 49.5396 122.598 49.5396 122.122ZM55.7099 119.854V123.606C55.7099 123.867 55.7706 124.059 55.8919 124.18C56.0226 124.292 56.2372 124.348 56.5359 124.348H57.4459V126H56.2139C54.5619 126 53.7359 125.197 53.7359 123.592V119.854H52.8119V118.244H53.7359V116.326H55.7099V118.244H57.4459V119.854H55.7099ZM59.8496 117.32C59.5043 117.32 59.215 117.213 58.9816 116.998C58.7576 116.774 58.6456 116.499 58.6456 116.172C58.6456 115.845 58.7576 115.575 58.9816 115.36C59.215 115.136 59.5043 115.024 59.8496 115.024C60.195 115.024 60.4796 115.136 60.7036 115.36C60.937 115.575 61.0536 115.845 61.0536 116.172C61.0536 116.499 60.937 116.774 60.7036 116.998C60.4796 117.213 60.195 117.32 59.8496 117.32ZM60.8156 118.244V126H58.8556V118.244H60.8156ZM66.1961 126.126C65.4495 126.126 64.7775 125.963 64.1801 125.636C63.5828 125.3 63.1115 124.829 62.7661 124.222C62.4301 123.615 62.2621 122.915 62.2621 122.122C62.2621 121.329 62.4348 120.629 62.7801 120.022C63.1348 119.415 63.6155 118.949 64.2221 118.622C64.8288 118.286 65.5055 118.118 66.2521 118.118C66.9988 118.118 67.6755 118.286 68.2821 118.622C68.8888 118.949 69.3648 119.415 69.7101 120.022C70.0648 120.629 70.2421 121.329 70.2421 122.122C70.2421 122.915 70.0601 123.615 69.6961 124.222C69.3415 124.829 68.8561 125.3 68.2401 125.636C67.6335 125.963 66.9521 126.126 66.1961 126.126ZM66.1961 124.418C66.5508 124.418 66.8821 124.334 67.1901 124.166C67.5075 123.989 67.7595 123.727 67.9461 123.382C68.1328 123.037 68.2261 122.617 68.2261 122.122C68.2261 121.385 68.0301 120.82 67.6381 120.428C67.2555 120.027 66.7841 119.826 66.2241 119.826C65.6641 119.826 65.1928 120.027 64.8101 120.428C64.4368 120.82 64.2501 121.385 64.2501 122.122C64.2501 122.859 64.4321 123.429 64.7961 123.83C65.1695 124.222 65.6361 124.418 66.1961 124.418ZM75.9779 118.132C76.9019 118.132 77.6485 118.426 78.2179 119.014C78.7872 119.593 79.0719 120.405 79.0719 121.45V126H77.1119V121.716C77.1119 121.1 76.9579 120.629 76.6499 120.302C76.3419 119.966 75.9219 119.798 75.3899 119.798C74.8485 119.798 74.4192 119.966 74.1019 120.302C73.7939 120.629 73.6399 121.1 73.6399 121.716V126H71.6799V118.244H73.6399V119.21C73.9012 118.874 74.2325 118.613 74.6339 118.426C75.0445 118.23 75.4925 118.132 75.9779 118.132Z" fill="#004B64"/>
<path d="M40 0H58C70.1503 0 80 9.84974 80 22V58C80 70.1503 70.1503 80 58 80H40V0Z" fill="#4D0068"/>
<path d="M0 22C0 9.84973 9.84974 0 22 0H40V80H22C9.84974 80 0 70.1503 0 58V22Z" fill="#805291"/>
<rect x="10.5" y="10.5" width="59" height="59" rx="15.5" fill="#4D0068" stroke="white"/>
<path d="M47.0282 44.6163C46.1586 44.3986 45.5064 44.181 44.8542 43.7457C41.5934 42.2221 39.8542 38.5221 40.5064 35.0396C41.1586 31.3396 43.9847 28.5101 47.4629 28.0748C52.4629 27.4218 57.0282 31.1219 57.0282 36.1279C57.0282 39.175 56.5934 42.2221 55.0716 45.0516C52.8977 49.187 49.6369 51.5811 45.0716 52.4517C44.8542 52.4517 44.6369 52.4517 44.2021 52.6694C43.7673 52.6694 43.1151 52.6694 42.8977 52.0164C42.6803 51.5811 42.6803 51.1458 42.8977 50.4929C43.9847 48.7517 45.289 47.0105 46.376 45.2692C46.8108 45.2692 47.0282 45.0516 47.0282 44.6163Z" fill="white"/>
<path d="M28.7674 44.6163C27.6804 44.3986 26.5935 43.9633 25.5065 43.3104C22.8978 41.3515 21.3761 37.8691 22.2456 34.6043C23.1152 31.1219 25.7239 28.7278 29.2022 28.0748C34.2022 27.4218 38.55 31.1219 38.7674 36.1279C38.7674 38.7397 38.55 41.1339 37.6804 43.528C35.9413 48.3164 32.2456 51.1458 27.463 52.4517C27.0283 52.4517 26.8109 52.6694 26.3761 52.6694C25.7239 52.6694 25.2891 52.6694 25.0717 52.2341C24.8543 51.7988 24.8543 51.1458 25.0717 50.7105C26.1587 48.9693 27.2456 47.2281 28.55 45.7046C28.3326 45.2692 28.55 45.0516 28.7674 44.6163Z" fill="white"/>
</svg>
