<svg width="100" height="156" viewBox="0 0 100 156" fill="none" xmlns="http://www.w3.org/2000/svg">
<rect width="100" height="156" rx="19" fill="#F9FBFF"/>
<path d="M31.1777 109.214C31.9804 109.214 32.629 109.298 33.1237 109.466C33.6277 109.634 33.9917 109.923 34.2157 110.334C34.449 110.735 34.5657 111.305 34.5657 112.042C34.5657 112.527 34.505 112.943 34.3837 113.288C34.2717 113.624 34.0804 113.895 33.8097 114.1C33.5484 114.296 33.1937 114.422 32.7457 114.478V114.548C32.9044 114.585 33.0677 114.66 33.2357 114.772C33.413 114.875 33.5717 115.024 33.7117 115.22C33.861 115.416 33.973 115.668 34.0477 115.976L34.9297 119H33.0817L32.2837 116.018C32.181 115.682 32.041 115.449 31.8637 115.318C31.6864 115.178 31.4437 115.108 31.1357 115.108C30.529 115.108 30.011 115.108 29.5817 115.108C29.1524 115.099 28.793 115.089 28.5037 115.08C28.2237 115.071 27.9764 115.066 27.7617 115.066L27.8037 113.736H31.1357C31.5557 113.727 31.887 113.68 32.1297 113.596C32.3724 113.503 32.545 113.344 32.6477 113.12C32.7504 112.887 32.8017 112.56 32.8017 112.14C32.8017 111.729 32.7504 111.412 32.6477 111.188C32.545 110.964 32.3724 110.81 32.1297 110.726C31.887 110.633 31.5557 110.586 31.1357 110.586C30.3144 110.586 29.6097 110.591 29.0217 110.6C28.4337 110.609 28.0324 110.619 27.8177 110.628L27.6217 109.34C27.995 109.303 28.345 109.275 28.6717 109.256C29.0077 109.237 29.3717 109.228 29.7637 109.228C30.1557 109.219 30.627 109.214 31.1777 109.214ZM29.3437 109.34V119H27.6217V109.34H29.3437ZM39.8001 111.958C40.9107 111.958 41.7087 112.154 42.1941 112.546C42.6794 112.929 42.9267 113.498 42.9361 114.254C42.9454 114.879 42.7961 115.355 42.4881 115.682C42.1894 115.999 41.6901 116.158 40.9901 116.158H37.0701V115.108H40.5281C40.8454 115.108 41.0461 115.024 41.1301 114.856C41.2234 114.688 41.2701 114.483 41.2701 114.24C41.2607 113.857 41.1487 113.591 40.9341 113.442C40.7287 113.293 40.3741 113.218 39.8701 113.218C39.4314 113.218 39.0907 113.279 38.8481 113.4C38.6054 113.521 38.4327 113.741 38.3301 114.058C38.2367 114.375 38.1901 114.833 38.1901 115.43C38.1901 116.065 38.2507 116.555 38.3721 116.9C38.4934 117.245 38.6941 117.483 38.9741 117.614C39.2541 117.735 39.6274 117.796 40.0941 117.796C40.4394 117.796 40.8361 117.782 41.2841 117.754C41.7414 117.726 42.1801 117.689 42.6001 117.642L42.7681 118.72C42.5161 118.823 42.2267 118.907 41.9001 118.972C41.5734 119.037 41.2327 119.084 40.8781 119.112C40.5327 119.149 40.2061 119.168 39.8981 119.168C39.0581 119.168 38.3814 119.047 37.8681 118.804C37.3641 118.552 36.9954 118.16 36.7621 117.628C36.5381 117.096 36.4261 116.41 36.4261 115.57C36.4261 114.665 36.5381 113.951 36.7621 113.428C36.9954 112.896 37.3594 112.518 37.8541 112.294C38.3581 112.07 39.0067 111.958 39.8001 111.958ZM47.1467 110.166V116.928C47.1467 117.217 47.2073 117.423 47.3287 117.544C47.4593 117.665 47.6787 117.726 47.9867 117.726H48.9387L49.1207 118.916C48.962 118.963 48.7707 119.005 48.5467 119.042C48.3227 119.079 48.1033 119.103 47.8887 119.112C47.674 119.131 47.492 119.14 47.3427 119.14C46.7453 119.14 46.2787 118.981 45.9427 118.664C45.616 118.337 45.4527 117.871 45.4527 117.264V110.166H47.1467ZM49.1907 112.126V113.302H44.2347V112.196L45.5787 112.126H49.1907ZM52.5151 112.126V116.774C52.5058 117.119 52.5711 117.367 52.7111 117.516C52.8605 117.665 53.0985 117.74 53.4251 117.74C53.7518 117.74 54.0785 117.67 54.4051 117.53C54.7318 117.39 55.1285 117.18 55.5951 116.9L55.7631 117.908C55.2405 118.328 54.7365 118.645 54.2511 118.86C53.7658 119.075 53.2618 119.182 52.7391 119.182C51.4605 119.182 50.8211 118.552 50.8211 117.292V112.126H52.5151ZM57.1211 112.126V119H55.7771L55.5951 117.67L55.4271 117.474V112.126H57.1211ZM60.7612 112.126L60.9852 113.47L61.1392 113.666V119H59.4452V112.126H60.7612ZM64.1212 111.958L63.9532 113.526H63.4632C63.0992 113.526 62.7306 113.587 62.3572 113.708C61.9839 113.829 61.5172 114.011 60.9572 114.254L60.8452 113.26C61.3306 112.849 61.8252 112.532 62.3292 112.308C62.8332 112.075 63.3186 111.958 63.7852 111.958H64.1212ZM70.2115 111.958C71.4901 111.958 72.1295 112.588 72.1295 113.848V119H70.4355V114.366C70.4355 113.993 70.3701 113.736 70.2395 113.596C70.1088 113.456 69.8895 113.386 69.5815 113.386C69.2361 113.386 68.8815 113.465 68.5175 113.624C68.1535 113.773 67.7148 113.993 67.2015 114.282L67.1315 113.26C67.6355 112.84 68.1488 112.518 68.6715 112.294C69.1941 112.07 69.7075 111.958 70.2115 111.958ZM67.0755 112.126L67.2435 113.47L67.3835 113.666V119H65.6895V112.126H67.0755ZM34.4574 127.312C34.9428 127.312 35.4374 127.312 35.9414 127.312C36.4548 127.312 36.9588 127.321 37.4534 127.34C37.9481 127.359 38.4148 127.387 38.8534 127.424L38.7694 128.726H34.9894C34.7281 128.726 34.5321 128.791 34.4014 128.922C34.2801 129.053 34.2194 129.258 34.2194 129.538V134.802C34.2194 135.082 34.2801 135.287 34.4014 135.418C34.5321 135.549 34.7281 135.614 34.9894 135.614H38.7694L38.8534 136.916C38.4148 136.953 37.9481 136.981 37.4534 137C36.9588 137.009 36.4548 137.014 35.9414 137.014C35.4374 137.023 34.9428 137.028 34.4574 137.028C33.8601 137.028 33.3794 136.865 33.0154 136.538C32.6608 136.202 32.4788 135.754 32.4694 135.194V129.146C32.4788 128.586 32.6608 128.143 33.0154 127.816C33.3794 127.48 33.8601 127.312 34.4574 127.312ZM32.7214 131.302H38.2374V132.59H32.7214V131.302ZM45.3538 129.958C46.6325 129.958 47.2718 130.588 47.2718 131.848V137H45.5778V132.366C45.5778 131.993 45.5125 131.736 45.3818 131.596C45.2511 131.456 45.0318 131.386 44.7238 131.386C44.3785 131.386 44.0238 131.465 43.6598 131.624C43.2958 131.773 42.8571 131.993 42.3438 132.282L42.2738 131.26C42.7778 130.84 43.2911 130.518 43.8138 130.294C44.3365 130.07 44.8498 129.958 45.3538 129.958ZM42.2178 130.126L42.3858 131.47L42.5258 131.666V137H40.8318V130.126H42.2178ZM51.8186 128.166V134.928C51.8186 135.217 51.8793 135.423 52.0006 135.544C52.1313 135.665 52.3506 135.726 52.6586 135.726H53.6106L53.7926 136.916C53.634 136.963 53.4426 137.005 53.2186 137.042C52.9946 137.079 52.7753 137.103 52.5606 137.112C52.346 137.131 52.164 137.14 52.0146 137.14C51.4173 137.14 50.9506 136.981 50.6146 136.664C50.288 136.337 50.1246 135.871 50.1246 135.264V128.166H51.8186ZM53.8626 130.126V131.302H48.9066V130.196L50.2506 130.126H53.8626ZM56.8511 130.126L57.0751 131.47L57.2291 131.666V137H55.5351V130.126H56.8511ZM60.2111 129.958L60.0431 131.526H59.5531C59.1891 131.526 58.8204 131.587 58.4471 131.708C58.0738 131.829 57.6071 132.011 57.0471 132.254L56.9351 131.26C57.4204 130.849 57.9151 130.532 58.4191 130.308C58.9231 130.075 59.4084 129.958 59.8751 129.958H60.2111ZM68.3453 130.126L65.7693 137.21C65.648 137.537 65.494 137.859 65.3073 138.176C65.13 138.503 64.9013 138.797 64.6213 139.058C64.3413 139.319 64.01 139.525 63.6273 139.674C63.2446 139.823 62.8013 139.879 62.2973 139.842L62.1573 138.834C62.7173 138.675 63.1513 138.461 63.4593 138.19C63.7766 137.919 64.024 137.574 64.2013 137.154L64.5793 136.258C64.6633 136.053 64.7426 135.819 64.8173 135.558C64.9013 135.287 64.9713 135.054 65.0273 134.858L66.5253 130.126H68.3453ZM62.8013 130.126L64.3273 134.858C64.374 135.017 64.416 135.18 64.4533 135.348C64.4906 135.507 64.5233 135.665 64.5513 135.824H64.9013L64.3693 137H63.9213C63.7906 137 63.674 136.963 63.5713 136.888C63.4686 136.813 63.3986 136.711 63.3613 136.58L60.9953 130.126H62.8013Z" fill="#799945"/>
<path d="M90.3995 53.6044L53.744 90.2499" stroke="white" stroke-width="6.29" stroke-miterlimit="10"/>
<path d="M90.3995 53.6044L53.744 90.2499" stroke="#799945" stroke-width="3.42" stroke-miterlimit="10"/>
<path d="M8.6601 52.6618L6 50.0017L45.9905 10.0013" stroke="white" stroke-width="6.29" stroke-miterlimit="10"/>
<path d="M8.6601 52.6618L6 50.0017L45.9905 10.0013" stroke="#799945" stroke-width="3.42" stroke-miterlimit="10"/>
<path d="M84.4512 67.185L67.1872 84.4313H32.7641L15.5 67.185V32.7651L32.7651 15.5H67.1861L84.4512 32.7651V67.185Z" fill="#F9FFEE" stroke="#799945" stroke-width="7"/>
<path d="M53.7421 90.2507L50.0001 94.0026L8.65977 52.6622" stroke="white" stroke-width="6.29" stroke-miterlimit="10"/>
<path d="M53.7421 90.2507L50.0001 94.0026L8.65977 52.6622" stroke="#799945" stroke-width="3.42" stroke-miterlimit="10"/>
<path d="M45.9896 10L49.9995 6L94 50.0004L90.397 53.6034" stroke="white" stroke-width="6.29" stroke-miterlimit="10"/>
<path d="M45.9896 10L49.9995 6L94 50.0004L90.397 53.6034" stroke="#799945" stroke-width="3.42" stroke-miterlimit="10"/>
<path d="M50.507 64.0562C46.4247 64.0562 42.3434 64.0647 38.2611 64.0448C37.8277 64.0415 37.3998 63.9474 37.005 63.7686C36.2653 63.4253 35.8908 62.5863 36.0279 61.7464C36.4643 59.0829 36.9057 56.42 37.3521 53.7578C37.8364 50.8521 38.332 47.9474 38.8031 45.0389C38.8503 44.7476 38.9695 44.7136 39.2135 44.7145C43.4144 44.7196 47.6146 44.7196 51.8141 44.7145C55.129 44.7145 58.4439 44.7123 61.7588 44.7079C62.0605 44.7079 62.1712 44.7779 62.2232 45.0985C62.9118 49.3208 63.6202 53.5402 64.3239 57.7596C64.5405 59.0621 64.7656 60.3626 64.969 61.6669C65.1771 62.9911 64.3183 64.0231 62.9695 64.0477C61.86 64.0675 60.7515 64.0477 59.642 64.0477L50.507 64.0562ZM43.275 60.4336H43.6354C46.7387 60.4336 49.842 60.4336 52.9454 60.4279C53.3463 60.4284 53.7462 60.3859 54.1381 60.3011C56.3902 59.8027 57.8761 57.7398 57.7323 55.3383C57.6027 53.1732 55.7962 51.2796 53.5829 51.1113C52.2587 51.0101 50.9184 51.0687 49.5857 51.0555H49.179L49.1251 50.9514L50.4994 49.7105L49.1752 48.3863C48.305 49.2584 47.4131 50.1484 46.5269 51.0432C45.9404 51.6343 45.9461 52.3144 46.5401 52.9122C47.2466 53.6244 47.9589 54.3309 48.6664 55.0413C48.8461 55.2229 49.0154 55.4196 49.1525 55.5624L50.524 54.2156L49.1714 52.8914C50.5514 52.8914 51.9324 52.8479 53.3105 52.9027C54.9184 52.967 56.148 54.5353 55.9135 56.1186C55.6883 57.6178 54.5335 58.6213 53.005 58.6242C49.902 58.6298 46.7986 58.6298 43.695 58.6242H43.2769L43.275 60.4336Z" fill="#799945"/>
<path d="M57.7011 42.2789H55.3516C55.2826 40.6331 54.6176 39.2967 53.2708 38.3357C52.4007 37.7095 51.3416 37.4018 50.2715 37.4646C47.8369 37.5762 45.7163 39.5454 45.6482 42.2714H43.2485C43.327 39.71 44.359 37.6556 46.4919 36.2728C49.0863 34.5901 51.7886 34.5835 54.4219 36.2075C56.5301 37.5052 58.0265 40.3589 57.7011 42.2789Z" fill="#799945"/>
</svg>
