<svg width="100" height="156" viewBox="0 0 100 156" fill="none" xmlns="http://www.w3.org/2000/svg">
<rect width="100" height="156" rx="19" fill="#F9FBFF"/>
<path d="M13.4876 109.158C13.9636 109.167 14.4629 109.195 14.9856 109.242C15.5176 109.289 16.0356 109.377 16.5396 109.508L16.4276 110.698C16.0262 110.689 15.5596 110.679 15.0276 110.67C14.5049 110.651 14.0009 110.642 13.5156 110.642C13.2169 110.642 12.9602 110.651 12.7456 110.67C12.5402 110.689 12.3722 110.735 12.2416 110.81C12.1109 110.885 12.0129 111.001 11.9476 111.16C11.8916 111.309 11.8636 111.519 11.8636 111.79C11.8636 112.21 11.9476 112.509 12.1156 112.686C12.2929 112.863 12.5776 113.003 12.9696 113.106L14.8736 113.666C15.6389 113.899 16.1662 114.24 16.4556 114.688C16.7449 115.127 16.8896 115.715 16.8896 116.452C16.8896 117.003 16.8242 117.455 16.6936 117.81C16.5629 118.165 16.3622 118.44 16.0916 118.636C15.8209 118.832 15.4662 118.972 15.0276 119.056C14.5889 119.14 14.0616 119.182 13.4456 119.182C13.1282 119.182 12.6896 119.163 12.1296 119.126C11.5789 119.089 10.9489 118.995 10.2396 118.846L10.3516 117.586C10.9022 117.605 11.3642 117.623 11.7376 117.642C12.1109 117.651 12.4329 117.656 12.7036 117.656C12.9742 117.656 13.2262 117.656 13.4596 117.656C13.8889 117.656 14.2249 117.628 14.4676 117.572C14.7102 117.516 14.8782 117.399 14.9716 117.222C15.0742 117.045 15.1256 116.788 15.1256 116.452C15.1256 116.163 15.0882 115.939 15.0136 115.78C14.9482 115.612 14.8362 115.481 14.6776 115.388C14.5189 115.295 14.3136 115.215 14.0616 115.15L12.0876 114.548C11.3596 114.324 10.8462 113.993 10.5476 113.554C10.2582 113.115 10.1136 112.527 10.1136 111.79C10.1136 111.239 10.1789 110.791 10.3096 110.446C10.4402 110.091 10.6409 109.825 10.9116 109.648C11.1822 109.461 11.5276 109.335 11.9476 109.27C12.3769 109.195 12.8902 109.158 13.4876 109.158ZM21.7643 111.958C22.315 111.958 22.777 112.033 23.1503 112.182C23.533 112.322 23.8223 112.565 24.0183 112.91C24.2143 113.255 24.3123 113.731 24.3123 114.338V119H22.9683L22.7303 117.516L22.6043 117.32V114.324C22.6043 113.96 22.5203 113.699 22.3523 113.54C22.1843 113.372 21.8623 113.288 21.3863 113.288C21.0316 113.288 20.5836 113.302 20.0423 113.33C19.5103 113.358 18.9736 113.395 18.4323 113.442L18.2783 112.28C18.605 112.215 18.9736 112.159 19.3843 112.112C19.795 112.065 20.2103 112.028 20.6303 112C21.0503 111.972 21.4283 111.958 21.7643 111.958ZM23.5843 114.772L23.5703 115.822H20.4203C20.1403 115.831 19.9396 115.906 19.8183 116.046C19.697 116.186 19.6363 116.377 19.6363 116.62V116.998C19.6363 117.278 19.711 117.493 19.8603 117.642C20.0096 117.782 20.243 117.852 20.5603 117.852C20.8123 117.852 21.0923 117.801 21.4003 117.698C21.7083 117.595 22.0116 117.446 22.3103 117.25C22.6183 117.054 22.8936 116.821 23.1363 116.55V117.432C23.043 117.572 22.9076 117.74 22.7303 117.936C22.553 118.123 22.3336 118.309 22.0723 118.496C21.8203 118.683 21.5263 118.837 21.1903 118.958C20.8636 119.079 20.4996 119.14 20.0983 119.14C19.6876 119.14 19.319 119.07 18.9923 118.93C18.6656 118.781 18.409 118.566 18.2223 118.286C18.0356 117.997 17.9423 117.642 17.9423 117.222V116.494C17.9423 115.953 18.1196 115.533 18.4743 115.234C18.8383 114.926 19.333 114.772 19.9583 114.772H23.5843ZM27.722 109.2L27.708 116.928C27.708 117.189 27.7826 117.39 27.932 117.53C28.0813 117.661 28.296 117.726 28.576 117.726H29.178L29.374 118.916C29.2713 118.963 29.1266 119.005 28.94 119.042C28.7626 119.079 28.576 119.103 28.38 119.112C28.1933 119.131 28.03 119.14 27.89 119.14C27.3206 119.14 26.868 118.986 26.532 118.678C26.196 118.37 26.028 117.927 26.028 117.348V109.2H27.722ZM33.356 111.958C34.4666 111.958 35.2646 112.154 35.75 112.546C36.2353 112.929 36.4826 113.498 36.492 114.254C36.5013 114.879 36.352 115.355 36.044 115.682C35.7453 115.999 35.246 116.158 34.546 116.158H30.626V115.108H34.084C34.4013 115.108 34.602 115.024 34.686 114.856C34.7793 114.688 34.826 114.483 34.826 114.24C34.8166 113.857 34.7046 113.591 34.49 113.442C34.2846 113.293 33.93 113.218 33.426 113.218C32.9873 113.218 32.6466 113.279 32.404 113.4C32.1613 113.521 31.9886 113.741 31.886 114.058C31.7926 114.375 31.746 114.833 31.746 115.43C31.746 116.065 31.8066 116.555 31.928 116.9C32.0493 117.245 32.25 117.483 32.53 117.614C32.81 117.735 33.1833 117.796 33.65 117.796C33.9953 117.796 34.392 117.782 34.84 117.754C35.2973 117.726 35.736 117.689 36.156 117.642L36.324 118.72C36.072 118.823 35.7826 118.907 35.456 118.972C35.1293 119.037 34.7886 119.084 34.434 119.112C34.0886 119.149 33.762 119.168 33.454 119.168C32.614 119.168 31.9373 119.047 31.424 118.804C30.92 118.552 30.5513 118.16 30.318 117.628C30.094 117.096 29.982 116.41 29.982 115.57C29.982 114.665 30.094 113.951 30.318 113.428C30.5513 112.896 30.9153 112.518 31.41 112.294C31.914 112.07 32.5626 111.958 33.356 111.958ZM40.3526 111.958C40.6699 111.958 41.0106 111.967 41.3746 111.986C41.7479 112.005 42.1119 112.033 42.4666 112.07C42.8212 112.098 43.1386 112.14 43.4186 112.196L43.3066 113.302C42.8586 113.293 42.4106 113.283 41.9626 113.274C41.5239 113.255 41.0899 113.246 40.6606 113.246C40.2779 113.246 39.9746 113.255 39.7506 113.274C39.5359 113.293 39.3819 113.349 39.2886 113.442C39.2046 113.535 39.1626 113.694 39.1626 113.918C39.1626 114.189 39.2372 114.371 39.3866 114.464C39.5359 114.548 39.7786 114.632 40.1146 114.716L41.9906 115.15C42.5506 115.29 42.9659 115.505 43.2366 115.794C43.5072 116.074 43.6426 116.508 43.6426 117.096C43.6426 117.665 43.5352 118.099 43.3206 118.398C43.1152 118.687 42.7839 118.888 42.3266 119C41.8786 119.103 41.3046 119.154 40.6046 119.154C40.3339 119.154 39.9326 119.14 39.4006 119.112C38.8686 119.093 38.2852 119.033 37.6506 118.93L37.7626 117.824C37.9492 117.824 38.1686 117.829 38.4206 117.838C38.6819 117.847 38.9572 117.852 39.2466 117.852C39.5452 117.852 39.8486 117.852 40.1566 117.852C40.6512 117.852 41.0292 117.838 41.2906 117.81C41.5612 117.773 41.7479 117.703 41.8506 117.6C41.9532 117.488 42.0046 117.329 42.0046 117.124C42.0046 116.863 41.9159 116.69 41.7386 116.606C41.5706 116.513 41.3186 116.424 40.9826 116.34L39.1486 115.892C38.7286 115.78 38.4019 115.64 38.1686 115.472C37.9352 115.295 37.7672 115.08 37.6646 114.828C37.5619 114.567 37.5106 114.249 37.5106 113.876C37.5106 113.372 37.6039 112.98 37.7906 112.7C37.9866 112.42 38.2899 112.224 38.7006 112.112C39.1206 112 39.6712 111.949 40.3526 111.958ZM51.6399 109.214C52.4425 109.214 53.0912 109.298 53.5859 109.466C54.0899 109.634 54.4539 109.923 54.6779 110.334C54.9112 110.735 55.0279 111.305 55.0279 112.042C55.0279 112.527 54.9672 112.943 54.8459 113.288C54.7339 113.624 54.5425 113.895 54.2719 114.1C54.0105 114.296 53.6559 114.422 53.2079 114.478V114.548C53.3665 114.585 53.5299 114.66 53.6979 114.772C53.8752 114.875 54.0339 115.024 54.1739 115.22C54.3232 115.416 54.4352 115.668 54.5099 115.976L55.3919 119H53.5439L52.7459 116.018C52.6432 115.682 52.5032 115.449 52.3259 115.318C52.1485 115.178 51.9059 115.108 51.5979 115.108C50.9912 115.108 50.4732 115.108 50.0439 115.108C49.6145 115.099 49.2552 115.089 48.9659 115.08C48.6859 115.071 48.4385 115.066 48.2239 115.066L48.2659 113.736H51.5979C52.0179 113.727 52.3492 113.68 52.5919 113.596C52.8345 113.503 53.0072 113.344 53.1099 113.12C53.2125 112.887 53.2639 112.56 53.2639 112.14C53.2639 111.729 53.2125 111.412 53.1099 111.188C53.0072 110.964 52.8345 110.81 52.5919 110.726C52.3492 110.633 52.0179 110.586 51.5979 110.586C50.7765 110.586 50.0719 110.591 49.4839 110.6C48.8959 110.609 48.4945 110.619 48.2799 110.628L48.0839 109.34C48.4572 109.303 48.8072 109.275 49.1339 109.256C49.4699 109.237 49.8339 109.228 50.2259 109.228C50.6179 109.219 51.0892 109.214 51.6399 109.214ZM49.8059 109.34V119H48.0839V109.34H49.8059ZM59.7022 111.958C60.8129 111.958 61.6109 112.154 62.0962 112.546C62.5816 112.929 62.8289 113.498 62.8382 114.254C62.8476 114.879 62.6982 115.355 62.3902 115.682C62.0916 115.999 61.5922 116.158 60.8922 116.158H56.9722V115.108H60.4302C60.7476 115.108 60.9482 115.024 61.0322 114.856C61.1256 114.688 61.1722 114.483 61.1722 114.24C61.1629 113.857 61.0509 113.591 60.8362 113.442C60.6309 113.293 60.2762 113.218 59.7722 113.218C59.3336 113.218 58.9929 113.279 58.7502 113.4C58.5076 113.521 58.3349 113.741 58.2322 114.058C58.1389 114.375 58.0922 114.833 58.0922 115.43C58.0922 116.065 58.1529 116.555 58.2742 116.9C58.3956 117.245 58.5962 117.483 58.8762 117.614C59.1562 117.735 59.5296 117.796 59.9962 117.796C60.3416 117.796 60.7382 117.782 61.1862 117.754C61.6436 117.726 62.0822 117.689 62.5022 117.642L62.6702 118.72C62.4182 118.823 62.1289 118.907 61.8022 118.972C61.4756 119.037 61.1349 119.084 60.7802 119.112C60.4349 119.149 60.1082 119.168 59.8002 119.168C58.9602 119.168 58.2836 119.047 57.7702 118.804C57.2662 118.552 56.8976 118.16 56.6642 117.628C56.4402 117.096 56.3282 116.41 56.3282 115.57C56.3282 114.665 56.4402 113.951 56.6642 113.428C56.8976 112.896 57.2616 112.518 57.7562 112.294C58.2602 112.07 58.9089 111.958 59.7022 111.958ZM66.4888 110.166V116.928C66.4888 117.217 66.5495 117.423 66.6708 117.544C66.8015 117.665 67.0208 117.726 67.3288 117.726H68.2808L68.4628 118.916C68.3042 118.963 68.1128 119.005 67.8888 119.042C67.6648 119.079 67.4455 119.103 67.2308 119.112C67.0162 119.131 66.8342 119.14 66.6848 119.14C66.0875 119.14 65.6208 118.981 65.2848 118.664C64.9582 118.337 64.7948 117.871 64.7948 117.264V110.166H66.4888ZM68.5328 112.126V113.302H63.5768V112.196L64.9208 112.126H68.5328ZM71.2973 112.126V116.774C71.2879 117.119 71.3533 117.367 71.4933 117.516C71.6426 117.665 71.8806 117.74 72.2073 117.74C72.5339 117.74 72.8606 117.67 73.1873 117.53C73.5139 117.39 73.9106 117.18 74.3773 116.9L74.5453 117.908C74.0226 118.328 73.5186 118.645 73.0333 118.86C72.5479 119.075 72.0439 119.182 71.5213 119.182C70.2426 119.182 69.6033 118.552 69.6033 117.292V112.126H71.2973ZM75.9033 112.126V119H74.5593L74.3773 117.67L74.2093 117.474V112.126H75.9033ZM78.9834 112.126L79.2074 113.47L79.3614 113.666V119H77.6674V112.126H78.9834ZM82.3434 111.958L82.1754 113.526H81.6854C81.3214 113.526 80.9527 113.587 80.5794 113.708C80.2061 113.829 79.7394 114.011 79.1794 114.254L79.0674 113.26C79.5527 112.849 80.0474 112.532 80.5514 112.308C81.0554 112.075 81.5407 111.958 82.0074 111.958H82.3434ZM87.8736 111.958C89.1523 111.958 89.7916 112.588 89.7916 113.848V119H88.0976V114.366C88.0976 113.993 88.0323 113.736 87.9016 113.596C87.7709 113.456 87.5516 113.386 87.2436 113.386C86.8983 113.386 86.5436 113.465 86.1796 113.624C85.8156 113.773 85.3769 113.993 84.8636 114.282L84.7936 113.26C85.2976 112.84 85.8109 112.518 86.3336 112.294C86.8563 112.07 87.3696 111.958 87.8736 111.958ZM84.7376 112.126L84.9056 113.47L85.0456 113.666V119H83.3516V112.126H84.7376ZM35.5774 127.312C36.0628 127.312 36.5574 127.312 37.0614 127.312C37.5748 127.312 38.0788 127.321 38.5734 127.34C39.0681 127.359 39.5348 127.387 39.9734 127.424L39.8894 128.726H36.1094C35.8481 128.726 35.6521 128.791 35.5214 128.922C35.4001 129.053 35.3394 129.258 35.3394 129.538V134.802C35.3394 135.082 35.4001 135.287 35.5214 135.418C35.6521 135.549 35.8481 135.614 36.1094 135.614H39.8894L39.9734 136.916C39.5348 136.953 39.0681 136.981 38.5734 137C38.0788 137.009 37.5748 137.014 37.0614 137.014C36.5574 137.023 36.0628 137.028 35.5774 137.028C34.9801 137.028 34.4994 136.865 34.1354 136.538C33.7808 136.202 33.5988 135.754 33.5894 135.194V129.146C33.5988 128.586 33.7808 128.143 34.1354 127.816C34.4994 127.48 34.9801 127.312 35.5774 127.312ZM33.8414 131.302H39.3574V132.59H33.8414V131.302ZM45.9138 129.958C47.1925 129.958 47.8318 130.588 47.8318 131.848V137H46.1378V132.366C46.1378 131.993 46.0725 131.736 45.9418 131.596C45.8111 131.456 45.5918 131.386 45.2838 131.386C44.9385 131.386 44.5838 131.465 44.2198 131.624C43.8558 131.773 43.4171 131.993 42.9038 132.282L42.8338 131.26C43.3378 130.84 43.8511 130.518 44.3738 130.294C44.8965 130.07 45.4098 129.958 45.9138 129.958ZM42.7778 130.126L42.9458 131.47L43.0858 131.666V137H41.3918V130.126H42.7778ZM51.8186 128.166V134.928C51.8186 135.217 51.8793 135.423 52.0006 135.544C52.1313 135.665 52.3506 135.726 52.6586 135.726H53.6106L53.7926 136.916C53.634 136.963 53.4426 137.005 53.2186 137.042C52.9946 137.079 52.7753 137.103 52.5606 137.112C52.346 137.131 52.164 137.14 52.0146 137.14C51.4173 137.14 50.9506 136.981 50.6146 136.664C50.288 136.337 50.1246 135.871 50.1246 135.264V128.166H51.8186ZM53.8626 130.126V131.302H48.9066V130.196L50.2506 130.126H53.8626ZM56.2911 130.126L56.5151 131.47L56.6691 131.666V137H54.9751V130.126H56.2911ZM59.6511 129.958L59.4831 131.526H58.9931C58.6291 131.526 58.2604 131.587 57.8871 131.708C57.5138 131.829 57.0471 132.011 56.4871 132.254L56.3751 131.26C56.8604 130.849 57.3551 130.532 57.8591 130.308C58.3631 130.075 58.8484 129.958 59.3151 129.958H59.6511ZM67.2253 130.126L64.6493 137.21C64.528 137.537 64.374 137.859 64.1873 138.176C64.01 138.503 63.7813 138.797 63.5013 139.058C63.2213 139.319 62.89 139.525 62.5073 139.674C62.1246 139.823 61.6813 139.879 61.1773 139.842L61.0373 138.834C61.5973 138.675 62.0313 138.461 62.3393 138.19C62.6566 137.919 62.904 137.574 63.0813 137.154L63.4593 136.258C63.5433 136.053 63.6226 135.819 63.6973 135.558C63.7813 135.287 63.8513 135.054 63.9073 134.858L65.4053 130.126H67.2253ZM61.6813 130.126L63.2073 134.858C63.254 135.017 63.296 135.18 63.3333 135.348C63.3706 135.507 63.4033 135.665 63.4313 135.824H63.7813L63.2493 137H62.8013C62.6706 137 62.554 136.963 62.4513 136.888C62.3486 136.813 62.2786 136.711 62.2413 136.58L59.8753 130.126H61.6813Z" fill="#799945"/>
<path d="M90.3995 53.6044L53.744 90.2499" stroke="white" stroke-width="6.29" stroke-miterlimit="10"/>
<path d="M90.3995 53.6044L53.744 90.2499" stroke="#799945" stroke-width="3.42" stroke-miterlimit="10"/>
<path d="M8.6601 52.6618L6 50.0017L45.9905 10.0013" stroke="white" stroke-width="6.29" stroke-miterlimit="10"/>
<path d="M8.6601 52.6618L6 50.0017L45.9905 10.0013" stroke="#799945" stroke-width="3.42" stroke-miterlimit="10"/>
<path d="M84.4512 67.185L67.1872 84.4313H32.7641L15.5 67.185V32.7651L32.7651 15.5H67.1861L84.4512 32.7651V67.185Z" fill="#F9FFEE" stroke="#799945" stroke-width="7"/>
<path d="M53.7421 90.2507L50.0001 94.0026L8.65977 52.6622" stroke="white" stroke-width="6.29" stroke-miterlimit="10"/>
<path d="M53.7421 90.2507L50.0001 94.0026L8.65977 52.6622" stroke="#799945" stroke-width="3.42" stroke-miterlimit="10"/>
<path d="M45.9896 10L49.9995 6L94 50.0004L90.397 53.6034" stroke="white" stroke-width="6.29" stroke-miterlimit="10"/>
<path d="M45.9896 10L49.9995 6L94 50.0004L90.397 53.6034" stroke="#799945" stroke-width="3.42" stroke-miterlimit="10"/>
<path d="M50.507 64.0562C46.4247 64.0562 42.3434 64.0647 38.2611 64.0448C37.8277 64.0415 37.3998 63.9474 37.005 63.7686C36.2653 63.4253 35.8908 62.5863 36.0279 61.7464C36.4643 59.0829 36.9057 56.42 37.3521 53.7578C37.8364 50.8521 38.332 47.9474 38.8031 45.0389C38.8503 44.7476 38.9695 44.7136 39.2135 44.7145C43.4144 44.7196 47.6146 44.7196 51.8141 44.7145C55.129 44.7145 58.4439 44.7123 61.7588 44.7079C62.0605 44.7079 62.1712 44.7779 62.2232 45.0985C62.9118 49.3208 63.6202 53.5402 64.3239 57.7596C64.5405 59.0621 64.7656 60.3626 64.969 61.6669C65.1771 62.9911 64.3183 64.0231 62.9695 64.0477C61.86 64.0675 60.7515 64.0477 59.642 64.0477L50.507 64.0562ZM43.275 60.4336H43.6354C46.7387 60.4336 49.842 60.4336 52.9454 60.4279C53.3463 60.4284 53.7462 60.3859 54.1381 60.3011C56.3902 59.8027 57.8761 57.7398 57.7323 55.3383C57.6027 53.1732 55.7962 51.2796 53.5829 51.1113C52.2587 51.0101 50.9184 51.0687 49.5857 51.0555H49.179L49.1251 50.9514L50.4994 49.7105L49.1752 48.3863C48.305 49.2584 47.4131 50.1484 46.5269 51.0432C45.9404 51.6343 45.9461 52.3144 46.5401 52.9122C47.2466 53.6244 47.9589 54.3309 48.6664 55.0413C48.8461 55.2229 49.0154 55.4196 49.1525 55.5624L50.524 54.2156L49.1714 52.8914C50.5514 52.8914 51.9324 52.8479 53.3105 52.9027C54.9184 52.967 56.148 54.5353 55.9135 56.1186C55.6883 57.6178 54.5335 58.6213 53.005 58.6242C49.902 58.6298 46.7986 58.6298 43.695 58.6242H43.2769L43.275 60.4336Z" fill="#799945"/>
<path d="M57.7011 42.2789H55.3516C55.2826 40.6331 54.6176 39.2967 53.2708 38.3357C52.4007 37.7095 51.3416 37.4018 50.2715 37.4646C47.8369 37.5762 45.7163 39.5454 45.6482 42.2714H43.2485C43.327 39.71 44.359 37.6556 46.4919 36.2728C49.0863 34.5901 51.7886 34.5835 54.4219 36.2075C56.5301 37.5052 58.0265 40.3589 57.7011 42.2789Z" fill="#799945"/>
</svg>
