<svg width="100" height="156" viewBox="0 0 100 156" fill="none" xmlns="http://www.w3.org/2000/svg">
<rect width="100" height="156" rx="19" fill="#F9FBFF"/>
<path d="M18.0955 109.161C18.5715 109.17 19.0708 109.198 19.5935 109.245C20.1255 109.291 20.6435 109.38 21.1475 109.511L21.0355 110.701C20.6341 110.691 20.1675 110.682 19.6355 110.673C19.1128 110.654 18.6088 110.645 18.1235 110.645C17.8248 110.645 17.5681 110.654 17.3535 110.673C17.1481 110.691 16.9801 110.738 16.8495 110.813C16.7188 110.887 16.6208 111.004 16.5555 111.163C16.4995 111.312 16.4715 111.522 16.4715 111.793C16.4715 112.213 16.5555 112.511 16.7235 112.689C16.9008 112.866 17.1855 113.006 17.5775 113.109L19.4815 113.669C20.2468 113.902 20.7741 114.243 21.0635 114.691C21.3528 115.129 21.4975 115.717 21.4975 116.455C21.4975 117.005 21.4321 117.458 21.3015 117.813C21.1708 118.167 20.9701 118.443 20.6995 118.639C20.4288 118.835 20.0741 118.975 19.6355 119.059C19.1968 119.143 18.6695 119.185 18.0535 119.185C17.7361 119.185 17.2975 119.166 16.7375 119.129C16.1868 119.091 15.5568 118.998 14.8475 118.849L14.9595 117.589C15.5101 117.607 15.9721 117.626 16.3455 117.645C16.7188 117.654 17.0408 117.659 17.3115 117.659C17.5821 117.659 17.8341 117.659 18.0675 117.659C18.4968 117.659 18.8328 117.631 19.0755 117.575C19.3181 117.519 19.4861 117.402 19.5795 117.225C19.6821 117.047 19.7335 116.791 19.7335 116.455C19.7335 116.165 19.6961 115.941 19.6215 115.783C19.5561 115.615 19.4441 115.484 19.2855 115.391C19.1268 115.297 18.9215 115.218 18.6695 115.153L16.6955 114.551C15.9675 114.327 15.4541 113.995 15.1555 113.557C14.8661 113.118 14.7215 112.53 14.7215 111.793C14.7215 111.242 14.7868 110.794 14.9175 110.449C15.0481 110.094 15.2488 109.828 15.5195 109.651C15.7901 109.464 16.1355 109.338 16.5555 109.273C16.9848 109.198 17.4981 109.161 18.0955 109.161ZM25.0702 112.129V119.003H23.3902V112.129H25.0702ZM24.6082 109.147C24.9442 109.147 25.1122 109.315 25.1122 109.651V110.435C25.1122 110.771 24.9442 110.939 24.6082 110.939H23.8522C23.5162 110.939 23.3482 110.771 23.3482 110.435V109.651C23.3482 109.315 23.5162 109.147 23.8522 109.147H24.6082ZM31.8276 111.961C33.1063 111.961 33.7456 112.591 33.7456 113.851V119.003H32.0516V114.369C32.0516 113.995 31.9863 113.739 31.8556 113.599C31.7249 113.459 31.5056 113.389 31.1976 113.389C30.8523 113.389 30.4976 113.468 30.1336 113.627C29.7696 113.776 29.3309 113.995 28.8176 114.285L28.7476 113.263C29.2516 112.843 29.7649 112.521 30.2876 112.297C30.8103 112.073 31.3236 111.961 31.8276 111.961ZM28.6916 112.129L28.8596 113.473L28.9996 113.669V119.003H27.3056V112.129H28.6916ZM38.7964 111.961C39.5711 111.961 40.1824 112.035 40.6304 112.185C41.0878 112.325 41.4144 112.558 41.6104 112.885C41.8064 113.202 41.9044 113.622 41.9044 114.145C41.9044 114.649 41.8064 115.064 41.6104 115.391C41.4144 115.708 41.0878 115.941 40.6304 116.091C40.1731 116.24 39.5571 116.315 38.7824 116.315C38.0078 116.315 37.3918 116.24 36.9344 116.091C36.4864 115.941 36.1598 115.708 35.9544 115.391C35.7584 115.073 35.6604 114.658 35.6604 114.145C35.6604 113.622 35.7584 113.202 35.9544 112.885C36.1598 112.558 36.4911 112.325 36.9484 112.185C37.4058 112.035 38.0218 111.961 38.7964 111.961ZM38.7824 113.067C38.1944 113.067 37.7884 113.146 37.5644 113.305C37.3404 113.463 37.2284 113.743 37.2284 114.145C37.2284 114.527 37.3404 114.803 37.5644 114.971C37.7884 115.129 38.1944 115.209 38.7824 115.209C39.3704 115.209 39.7718 115.129 39.9864 114.971C40.2104 114.803 40.3224 114.527 40.3224 114.145C40.3224 113.743 40.2104 113.463 39.9864 113.305C39.7718 113.146 39.3704 113.067 38.7824 113.067ZM42.7024 112.129L42.6044 112.913L40.8124 113.109L40.3084 112.129H42.7024ZM36.7804 115.895L37.6484 116.021C37.5084 116.133 37.4104 116.277 37.3544 116.455C37.3078 116.623 37.3218 116.786 37.3964 116.945C37.4804 117.094 37.6578 117.187 37.9284 117.225L40.4764 117.561C41.1671 117.645 41.6524 117.85 41.9324 118.177C42.2124 118.494 42.3524 118.956 42.3524 119.563C42.3524 120.132 42.2404 120.575 42.0164 120.893C41.7924 121.21 41.4238 121.429 40.9104 121.551C40.4064 121.681 39.7251 121.747 38.8664 121.747C38.1851 121.747 37.6204 121.709 37.1724 121.635C36.7244 121.569 36.3651 121.453 36.0944 121.285C35.8331 121.126 35.6464 120.916 35.5344 120.655C35.4224 120.403 35.3664 120.085 35.3664 119.703C35.3664 119.404 35.4131 119.152 35.5064 118.947C35.6091 118.741 35.7724 118.559 35.9964 118.401C36.2204 118.233 36.5238 118.079 36.9064 117.939L37.8584 117.533L38.5164 117.771L37.9004 118.205C37.6858 118.363 37.5084 118.508 37.3684 118.639C37.2378 118.76 37.1398 118.881 37.0744 119.003C37.0184 119.133 36.9904 119.297 36.9904 119.493C36.9904 119.754 37.0418 119.955 37.1444 120.095C37.2564 120.235 37.4478 120.328 37.7184 120.375C37.9891 120.431 38.3671 120.459 38.8524 120.459C39.3471 120.459 39.7298 120.431 40.0004 120.375C40.2711 120.328 40.4578 120.235 40.5604 120.095C40.6724 119.964 40.7284 119.773 40.7284 119.521C40.7284 119.315 40.6958 119.161 40.6304 119.059C40.5651 118.965 40.4484 118.891 40.2804 118.835C40.1124 118.779 39.8791 118.732 39.5804 118.695L37.2844 118.415C36.9578 118.377 36.6964 118.284 36.5004 118.135C36.3138 117.976 36.1831 117.789 36.1084 117.575C36.0338 117.351 36.0104 117.131 36.0384 116.917C36.0758 116.693 36.1551 116.487 36.2764 116.301C36.4071 116.114 36.5751 115.979 36.7804 115.895ZM45.8705 109.203L45.8565 116.931C45.8565 117.192 45.9311 117.393 46.0805 117.533C46.2298 117.663 46.4445 117.729 46.7245 117.729H47.3265L47.5225 118.919C47.4198 118.965 47.2751 119.007 47.0885 119.045C46.9111 119.082 46.7245 119.105 46.5285 119.115C46.3418 119.133 46.1785 119.143 46.0385 119.143C45.4691 119.143 45.0165 118.989 44.6805 118.681C44.3445 118.373 44.1765 117.929 44.1765 117.351V109.203H45.8705ZM51.9245 111.961C53.0352 111.961 53.8332 112.157 54.3185 112.549C54.8038 112.931 55.0512 113.501 55.0605 114.257C55.0698 114.882 54.9205 115.358 54.6125 115.685C54.3138 116.002 53.8145 116.161 53.1145 116.161H49.1945V115.111H52.6525C52.9698 115.111 53.1705 115.027 53.2545 114.859C53.3478 114.691 53.3945 114.485 53.3945 114.243C53.3852 113.86 53.2732 113.594 53.0585 113.445C52.8532 113.295 52.4985 113.221 51.9945 113.221C51.5558 113.221 51.2152 113.281 50.9725 113.403C50.7298 113.524 50.5572 113.743 50.4545 114.061C50.3612 114.378 50.3145 114.835 50.3145 115.433C50.3145 116.067 50.3752 116.557 50.4965 116.903C50.6178 117.248 50.8185 117.486 51.0985 117.617C51.3785 117.738 51.7518 117.799 52.2185 117.799C52.5638 117.799 52.9605 117.785 53.4085 117.757C53.8658 117.729 54.3045 117.691 54.7245 117.645L54.8925 118.723C54.6405 118.825 54.3512 118.909 54.0245 118.975C53.6978 119.04 53.3572 119.087 53.0025 119.115C52.6572 119.152 52.3305 119.171 52.0225 119.171C51.1825 119.171 50.5058 119.049 49.9925 118.807C49.4885 118.555 49.1198 118.163 48.8865 117.631C48.6625 117.099 48.5505 116.413 48.5505 115.573C48.5505 114.667 48.6625 113.953 48.8865 113.431C49.1198 112.899 49.4838 112.521 49.9785 112.297C50.4825 112.073 51.1312 111.961 51.9245 111.961ZM63.9651 109.343V119.003H62.2151V109.343H63.9651ZM66.9611 109.343V110.771H59.2191V109.343H66.9611ZM70.6702 111.961C71.2208 111.961 71.6828 112.035 72.0562 112.185C72.4388 112.325 72.7282 112.567 72.9242 112.913C73.1202 113.258 73.2182 113.734 73.2182 114.341V119.003H71.8742L71.6362 117.519L71.5102 117.323V114.327C71.5102 113.963 71.4262 113.701 71.2582 113.543C71.0902 113.375 70.7682 113.291 70.2922 113.291C69.9375 113.291 69.4895 113.305 68.9482 113.333C68.4162 113.361 67.8795 113.398 67.3382 113.445L67.1842 112.283C67.5108 112.217 67.8795 112.161 68.2902 112.115C68.7008 112.068 69.1162 112.031 69.5362 112.003C69.9562 111.975 70.3342 111.961 70.6702 111.961ZM72.4902 114.775L72.4762 115.825H69.3262C69.0462 115.834 68.8455 115.909 68.7242 116.049C68.6028 116.189 68.5422 116.38 68.5422 116.623V117.001C68.5422 117.281 68.6168 117.495 68.7662 117.645C68.9155 117.785 69.1488 117.855 69.4662 117.855C69.7182 117.855 69.9982 117.803 70.3062 117.701C70.6142 117.598 70.9175 117.449 71.2162 117.253C71.5242 117.057 71.7995 116.823 72.0422 116.553V117.435C71.9488 117.575 71.8135 117.743 71.6362 117.939C71.4588 118.125 71.2395 118.312 70.9782 118.499C70.7262 118.685 70.4322 118.839 70.0962 118.961C69.7695 119.082 69.4055 119.143 69.0042 119.143C68.5935 119.143 68.2248 119.073 67.8982 118.933C67.5715 118.783 67.3148 118.569 67.1282 118.289C66.9415 117.999 66.8482 117.645 66.8482 117.225V116.497C66.8482 115.955 67.0255 115.535 67.3802 115.237C67.7442 114.929 68.2388 114.775 68.8642 114.775H72.4902ZM78.2518 111.961C79.0265 111.961 79.6378 112.035 80.0858 112.185C80.5432 112.325 80.8698 112.558 81.0658 112.885C81.2618 113.202 81.3598 113.622 81.3598 114.145C81.3598 114.649 81.2618 115.064 81.0658 115.391C80.8698 115.708 80.5432 115.941 80.0858 116.091C79.6285 116.24 79.0125 116.315 78.2378 116.315C77.4632 116.315 76.8472 116.24 76.3898 116.091C75.9418 115.941 75.6152 115.708 75.4098 115.391C75.2138 115.073 75.1158 114.658 75.1158 114.145C75.1158 113.622 75.2138 113.202 75.4098 112.885C75.6152 112.558 75.9465 112.325 76.4038 112.185C76.8612 112.035 77.4772 111.961 78.2518 111.961ZM78.2378 113.067C77.6498 113.067 77.2438 113.146 77.0198 113.305C76.7958 113.463 76.6838 113.743 76.6838 114.145C76.6838 114.527 76.7958 114.803 77.0198 114.971C77.2438 115.129 77.6498 115.209 78.2378 115.209C78.8258 115.209 79.2272 115.129 79.4418 114.971C79.6658 114.803 79.7778 114.527 79.7778 114.145C79.7778 113.743 79.6658 113.463 79.4418 113.305C79.2272 113.146 78.8258 113.067 78.2378 113.067ZM82.1578 112.129L82.0598 112.913L80.2678 113.109L79.7638 112.129H82.1578ZM76.2358 115.895L77.1038 116.021C76.9638 116.133 76.8658 116.277 76.8098 116.455C76.7632 116.623 76.7772 116.786 76.8518 116.945C76.9358 117.094 77.1132 117.187 77.3838 117.225L79.9318 117.561C80.6225 117.645 81.1078 117.85 81.3878 118.177C81.6678 118.494 81.8078 118.956 81.8078 119.563C81.8078 120.132 81.6958 120.575 81.4718 120.893C81.2478 121.21 80.8792 121.429 80.3658 121.551C79.8618 121.681 79.1805 121.747 78.3218 121.747C77.6405 121.747 77.0758 121.709 76.6278 121.635C76.1798 121.569 75.8205 121.453 75.5498 121.285C75.2885 121.126 75.1018 120.916 74.9898 120.655C74.8778 120.403 74.8218 120.085 74.8218 119.703C74.8218 119.404 74.8685 119.152 74.9618 118.947C75.0645 118.741 75.2278 118.559 75.4518 118.401C75.6758 118.233 75.9792 118.079 76.3618 117.939L77.3138 117.533L77.9718 117.771L77.3558 118.205C77.1412 118.363 76.9638 118.508 76.8238 118.639C76.6932 118.76 76.5952 118.881 76.5298 119.003C76.4738 119.133 76.4458 119.297 76.4458 119.493C76.4458 119.754 76.4972 119.955 76.5998 120.095C76.7118 120.235 76.9032 120.328 77.1738 120.375C77.4445 120.431 77.8225 120.459 78.3078 120.459C78.8025 120.459 79.1852 120.431 79.4558 120.375C79.7265 120.328 79.9132 120.235 80.0158 120.095C80.1278 119.964 80.1838 119.773 80.1838 119.521C80.1838 119.315 80.1512 119.161 80.0858 119.059C80.0205 118.965 79.9038 118.891 79.7358 118.835C79.5678 118.779 79.3345 118.732 79.0358 118.695L76.7398 118.415C76.4132 118.377 76.1518 118.284 75.9558 118.135C75.7692 117.976 75.6385 117.789 75.5638 117.575C75.4892 117.351 75.4658 117.131 75.4938 116.917C75.5312 116.693 75.6105 116.487 75.7318 116.301C75.8625 116.114 76.0305 115.979 76.2358 115.895ZM17.5452 127.161C17.9279 127.161 18.2825 127.17 18.6092 127.189C18.9452 127.207 19.2625 127.24 19.5612 127.287C19.8599 127.333 20.1539 127.399 20.4432 127.483L20.2892 128.771C19.9812 128.752 19.6779 128.738 19.3792 128.729C19.0805 128.71 18.7819 128.701 18.4832 128.701C18.1939 128.691 17.8999 128.687 17.6012 128.687C17.1532 128.687 16.7752 128.733 16.4672 128.827C16.1592 128.911 15.9119 129.079 15.7252 129.331C15.5479 129.583 15.4172 129.942 15.3332 130.409C15.2492 130.875 15.2072 131.477 15.2072 132.215C15.2072 133.083 15.2632 133.769 15.3752 134.273C15.4965 134.767 15.6925 135.127 15.9632 135.351C16.2339 135.565 16.5979 135.673 17.0552 135.673C17.3632 135.673 17.6479 135.635 17.9092 135.561C18.1705 135.486 18.4085 135.388 18.6232 135.267C18.8472 135.136 19.0572 135.005 19.2532 134.875L19.4632 135.785C19.3139 135.971 19.0945 136.177 18.8052 136.401C18.5252 136.615 18.1892 136.802 17.7972 136.961C17.4052 137.11 16.9619 137.185 16.4672 137.185C15.7392 137.185 15.1419 137.012 14.6752 136.667C14.2179 136.312 13.8819 135.766 13.6672 135.029C13.4619 134.282 13.3592 133.325 13.3592 132.159C13.3592 130.889 13.4945 129.891 13.7652 129.163C14.0359 128.435 14.4745 127.921 15.0812 127.623C15.6972 127.315 16.5185 127.161 17.5452 127.161ZM20.7512 131.431V137.003H19.4632L19.2112 135.561L19.0432 135.211V131.431H20.7512ZM25.8703 129.961C26.9809 129.961 27.7789 130.157 28.2643 130.549C28.7496 130.931 28.9969 131.501 29.0063 132.257C29.0156 132.882 28.8663 133.358 28.5583 133.685C28.2596 134.002 27.7603 134.161 27.0603 134.161H23.1403V133.111H26.5983C26.9156 133.111 27.1163 133.027 27.2003 132.859C27.2936 132.691 27.3403 132.485 27.3403 132.243C27.3309 131.86 27.2189 131.594 27.0043 131.445C26.7989 131.295 26.4443 131.221 25.9403 131.221C25.5016 131.221 25.1609 131.281 24.9183 131.403C24.6756 131.524 24.5029 131.743 24.4003 132.061C24.3069 132.378 24.2603 132.835 24.2603 133.433C24.2603 134.067 24.3209 134.557 24.4423 134.903C24.5636 135.248 24.7643 135.486 25.0443 135.617C25.3243 135.738 25.6976 135.799 26.1643 135.799C26.5096 135.799 26.9063 135.785 27.3543 135.757C27.8116 135.729 28.2503 135.691 28.6703 135.645L28.8383 136.723C28.5863 136.825 28.2969 136.909 27.9703 136.975C27.6436 137.04 27.3029 137.087 26.9483 137.115C26.6029 137.152 26.2763 137.171 25.9683 137.171C25.1283 137.171 24.4516 137.049 23.9383 136.807C23.4343 136.555 23.0656 136.163 22.8323 135.631C22.6083 135.099 22.4963 134.413 22.4963 133.573C22.4963 132.667 22.6083 131.953 22.8323 131.431C23.0656 130.899 23.4296 130.521 23.9243 130.297C24.4283 130.073 25.0769 129.961 25.8703 129.961ZM35.3309 129.961C36.6095 129.961 37.2489 130.591 37.2489 131.851V137.003H35.5549V132.369C35.5549 131.995 35.4895 131.739 35.3589 131.599C35.2282 131.459 35.0089 131.389 34.7009 131.389C34.3555 131.389 34.0009 131.468 33.6369 131.627C33.2729 131.776 32.8342 131.995 32.3209 132.285L32.2509 131.263C32.7549 130.843 33.2682 130.521 33.7909 130.297C34.3135 130.073 34.8269 129.961 35.3309 129.961ZM32.1949 130.129L32.3629 131.473L32.5029 131.669V137.003H30.8089V130.129H32.1949ZM42.4537 129.961C43.5644 129.961 44.3624 130.157 44.8477 130.549C45.333 130.931 45.5804 131.501 45.5897 132.257C45.599 132.882 45.4497 133.358 45.1417 133.685C44.843 134.002 44.3437 134.161 43.6437 134.161H39.7237V133.111H43.1817C43.499 133.111 43.6997 133.027 43.7837 132.859C43.877 132.691 43.9237 132.485 43.9237 132.243C43.9144 131.86 43.8024 131.594 43.5877 131.445C43.3824 131.295 43.0277 131.221 42.5237 131.221C42.085 131.221 41.7444 131.281 41.5017 131.403C41.259 131.524 41.0864 131.743 40.9837 132.061C40.8904 132.378 40.8437 132.835 40.8437 133.433C40.8437 134.067 40.9044 134.557 41.0257 134.903C41.147 135.248 41.3477 135.486 41.6277 135.617C41.9077 135.738 42.281 135.799 42.7477 135.799C43.093 135.799 43.4897 135.785 43.9377 135.757C44.395 135.729 44.8337 135.691 45.2537 135.645L45.4217 136.723C45.1697 136.825 44.8804 136.909 44.5537 136.975C44.227 137.04 43.8864 137.087 43.5317 137.115C43.1864 137.152 42.8597 137.171 42.5517 137.171C41.7117 137.171 41.035 137.049 40.5217 136.807C40.0177 136.555 39.649 136.163 39.4157 135.631C39.1917 135.099 39.0797 134.413 39.0797 133.573C39.0797 132.667 39.1917 131.953 39.4157 131.431C39.649 130.899 40.013 130.521 40.5077 130.297C41.0117 130.073 41.6604 129.961 42.4537 129.961ZM48.7083 130.129L48.9323 131.473L49.0863 131.669V137.003H47.3923V130.129H48.7083ZM52.0683 129.961L51.9003 131.529H51.4103C51.0463 131.529 50.6777 131.589 50.3043 131.711C49.931 131.832 49.4643 132.014 48.9043 132.257L48.7923 131.263C49.2777 130.852 49.7723 130.535 50.2763 130.311C50.7803 130.077 51.2657 129.961 51.7323 129.961H52.0683ZM56.9272 129.961C57.4779 129.961 57.9399 130.035 58.3132 130.185C58.6959 130.325 58.9852 130.567 59.1812 130.913C59.3772 131.258 59.4752 131.734 59.4752 132.341V137.003H58.1312L57.8932 135.519L57.7672 135.323V132.327C57.7672 131.963 57.6832 131.701 57.5152 131.543C57.3472 131.375 57.0252 131.291 56.5492 131.291C56.1945 131.291 55.7465 131.305 55.2052 131.333C54.6732 131.361 54.1365 131.398 53.5952 131.445L53.4412 130.283C53.7679 130.217 54.1365 130.161 54.5472 130.115C54.9579 130.068 55.3732 130.031 55.7932 130.003C56.2132 129.975 56.5912 129.961 56.9272 129.961ZM58.7472 132.775L58.7332 133.825H55.5832C55.3032 133.834 55.1025 133.909 54.9812 134.049C54.8599 134.189 54.7992 134.38 54.7992 134.623V135.001C54.7992 135.281 54.8739 135.495 55.0232 135.645C55.1725 135.785 55.4059 135.855 55.7232 135.855C55.9752 135.855 56.2552 135.803 56.5632 135.701C56.8712 135.598 57.1745 135.449 57.4732 135.253C57.7812 135.057 58.0565 134.823 58.2992 134.553V135.435C58.2059 135.575 58.0705 135.743 57.8932 135.939C57.7159 136.125 57.4965 136.312 57.2352 136.499C56.9832 136.685 56.6892 136.839 56.3532 136.961C56.0265 137.082 55.6625 137.143 55.2612 137.143C54.8505 137.143 54.4819 137.073 54.1552 136.933C53.8285 136.783 53.5719 136.569 53.3852 136.289C53.1985 135.999 53.1052 135.645 53.1052 135.225V134.497C53.1052 133.955 53.2825 133.535 53.6372 133.237C54.0012 132.929 54.4959 132.775 55.1212 132.775H58.7472ZM63.8649 128.169V134.931C63.8649 135.22 63.9255 135.425 64.0469 135.547C64.1775 135.668 64.3969 135.729 64.7049 135.729H65.6569L65.8389 136.919C65.6802 136.965 65.4889 137.007 65.2649 137.045C65.0409 137.082 64.8215 137.105 64.6069 137.115C64.3922 137.133 64.2102 137.143 64.0609 137.143C63.4635 137.143 62.9969 136.984 62.6609 136.667C62.3342 136.34 62.1709 135.873 62.1709 135.267V128.169H63.8649ZM65.9089 130.129V131.305H60.9529V130.199L62.2969 130.129H65.9089ZM69.1773 130.129V137.003H67.4973V130.129H69.1773ZM68.7153 127.147C69.0513 127.147 69.2193 127.315 69.2193 127.651V128.435C69.2193 128.771 69.0513 128.939 68.7153 128.939H67.9593C67.6233 128.939 67.4553 128.771 67.4553 128.435V127.651C67.4553 127.315 67.6233 127.147 67.9593 127.147H68.7153ZM74.5207 129.961C75.3607 129.961 76.028 130.077 76.5227 130.311C77.0267 130.544 77.386 130.927 77.6007 131.459C77.8247 131.991 77.9367 132.695 77.9367 133.573C77.9367 134.45 77.8247 135.155 77.6007 135.687C77.386 136.209 77.0267 136.592 76.5227 136.835C76.028 137.068 75.3607 137.185 74.5207 137.185C73.6994 137.185 73.0367 137.068 72.5327 136.835C72.038 136.592 71.6787 136.209 71.4547 135.687C71.2307 135.155 71.1187 134.45 71.1187 133.573C71.1187 132.695 71.2307 131.991 71.4547 131.459C71.6787 130.927 72.038 130.544 72.5327 130.311C73.0367 130.077 73.6994 129.961 74.5207 129.961ZM74.5207 131.249C74.11 131.249 73.7834 131.319 73.5407 131.459C73.3074 131.589 73.1394 131.823 73.0367 132.159C72.934 132.495 72.8827 132.966 72.8827 133.573C72.8827 134.179 72.934 134.651 73.0367 134.987C73.1394 135.323 73.3074 135.556 73.5407 135.687C73.7834 135.817 74.11 135.883 74.5207 135.883C74.9407 135.883 75.272 135.817 75.5147 135.687C75.7574 135.556 75.9254 135.323 76.0187 134.987C76.1214 134.651 76.1727 134.179 76.1727 133.573C76.1727 132.966 76.1214 132.495 76.0187 132.159C75.9254 131.823 75.7574 131.589 75.5147 131.459C75.272 131.319 74.9407 131.249 74.5207 131.249ZM84.3358 129.961C85.6145 129.961 86.2538 130.591 86.2538 131.851V137.003H84.5598V132.369C84.5598 131.995 84.4945 131.739 84.3638 131.599C84.2331 131.459 84.0138 131.389 83.7058 131.389C83.3605 131.389 83.0058 131.468 82.6418 131.627C82.2778 131.776 81.8391 131.995 81.3258 132.285L81.2558 131.263C81.7598 130.843 82.2731 130.521 82.7958 130.297C83.3185 130.073 83.8318 129.961 84.3358 129.961ZM81.1998 130.129L81.3678 131.473L81.5078 131.669V137.003H79.8138V130.129H81.1998Z" fill="#CB5049"/>
<path d="M76.019 81.1159L24.1873 81.1089" stroke="white" stroke-width="6.29" stroke-miterlimit="10"/>
<path d="M76.019 81.1159L24.1873 81.1089" stroke="#CB5049" stroke-width="3.42" stroke-miterlimit="10"/>
<path d="M18.8871 22.6508L18.8871 18.8889L75.4492 18.8819" stroke="white" stroke-width="6.29" stroke-miterlimit="10"/>
<path d="M18.8871 22.6508L18.8871 18.8889L75.4492 18.8819" stroke="#CB5049" stroke-width="3.42" stroke-miterlimit="10"/>
<path d="M62.21 86.5128L37.8075 86.5003L13.4667 62.1594L13.4541 37.757L37.7927 13.4184H62.2092L86.5486 37.7577V62.1742L62.21 86.5128Z" fill="#FFEDEC" stroke="#CB5049" stroke-width="7"/>
<path d="M24.1855 81.108L18.8865 81.115L18.8865 22.6509" stroke="white" stroke-width="6.29" stroke-miterlimit="10"/>
<path d="M24.1855 81.108L18.8865 81.115L18.8865 22.6509" stroke="#CB5049" stroke-width="3.42" stroke-miterlimit="10"/>
<path d="M75.4494 18.8803L81.1134 18.8874L81.1134 81.1134L76.018 81.1134" stroke="white" stroke-width="6.29" stroke-miterlimit="10"/>
<path d="M75.4494 18.8803L81.1134 18.8874L81.1134 81.1134L76.018 81.1134" stroke="#CB5049" stroke-width="3.42" stroke-miterlimit="10"/>
<path d="M55.0529 35.0007H55.562C55.663 35.0477 55.758 35.1066 55.8449 35.1762C56.4667 35.8048 57.0817 36.441 57.6566 37.031L55.273 39.4266C55.1127 39.2534 54.9417 39.0522 54.7526 38.8691C54.3926 38.5219 53.8661 38.5219 53.534 38.8578C53.4551 38.9363 53.3926 39.0299 53.3503 39.1329C53.3079 39.2359 53.2865 39.3463 53.2874 39.4576C53.2882 39.569 53.3113 39.6791 53.3552 39.7814C53.3991 39.8838 53.463 39.9763 53.5431 40.0537C54.3358 40.8616 55.1392 41.6596 55.944 42.4554C56.0456 42.5626 56.175 42.6396 56.3178 42.6777C56.4606 42.7157 56.6111 42.7134 56.7526 42.671C57.3895 42.4977 57.5923 41.7473 57.1346 41.2511C56.9463 41.0469 56.7451 40.8548 56.5764 40.6846L58.9614 38.2973C59.5613 38.8918 60.1914 39.4879 60.7806 40.1225C60.9206 40.2738 60.9675 40.5514 60.9728 40.7731C60.9788 41.0613 60.9009 41.351 60.8593 41.6399C60.5093 44.0847 60.1606 46.5305 59.8131 48.9773C59.7784 49.2852 59.6393 49.5718 59.419 49.7897C56.0262 53.1755 52.6354 56.5631 49.2466 59.9524C49.036 60.1684 48.8013 60.3592 48.5469 60.5212C47.2882 61.2996 45.7481 61.0863 44.6422 59.9842C42.9372 58.2867 41.2357 56.5858 39.5378 54.8813C38.357 53.7005 37.1716 52.5242 35.9961 51.3374C34.6905 50.0197 34.6618 48.1263 35.9485 46.8343C39.3842 43.385 42.828 39.944 46.2798 36.5113C46.4489 36.3499 46.6622 36.2424 46.8925 36.2027C49.0461 35.8812 51.2042 35.5839 53.3593 35.2738C53.9251 35.1944 54.4886 35.093 55.0529 35.0007ZM45.7413 55.1097C46.1399 55.1052 46.416 54.8828 46.568 54.4289C47.4173 51.8908 48.2634 49.354 49.1066 46.8185C49.5779 45.4077 50.0522 43.9985 50.5166 42.5824C50.7239 41.9531 50.2897 41.348 49.677 41.4077C49.2519 41.4486 49.0143 41.7103 48.8827 42.1051C47.8661 45.1687 46.8461 48.2315 45.8229 51.2935C45.5287 52.1778 45.2276 53.0598 44.9402 53.9456C44.7405 54.5613 45.1323 55.1165 45.7413 55.1097ZM42.9387 50.8041C43.6112 50.8005 44.2551 50.5316 44.7303 50.0558C45.2055 49.5799 45.4737 48.9357 45.4765 48.2632C45.4713 47.5861 45.1993 46.9384 44.7195 46.4606C44.2397 45.9827 43.5908 45.7134 42.9137 45.711C42.2413 45.7168 41.5983 45.9878 41.1245 46.4649C40.6507 46.9421 40.3844 47.587 40.3835 48.2595C40.3825 48.5948 40.4481 48.9269 40.5763 49.2368C40.7045 49.5466 40.8929 49.828 41.1305 50.0646C41.3681 50.3012 41.6502 50.4884 41.9606 50.6153C42.2709 50.7422 42.6034 50.8064 42.9387 50.8041ZM52.5454 50.8041C53.2179 50.8025 53.8623 50.5344 54.3376 50.0586C54.8128 49.5828 55.0801 48.938 55.0809 48.2655C55.0801 47.5881 54.8106 46.9388 54.3316 46.4599C53.8525 45.9809 53.2031 45.7116 52.5257 45.711C51.8534 45.7168 51.2106 45.9874 50.7365 46.464C50.2624 46.9406 49.9953 47.5849 49.9932 48.2572C49.9917 48.5924 50.0568 48.9246 50.1846 49.2346C50.3124 49.5445 50.5003 49.826 50.7376 50.0629C50.9749 50.2997 51.2567 50.4872 51.5669 50.6144C51.8771 50.7416 52.2094 50.8061 52.5446 50.8041H52.5454Z" fill="#CB5049"/>
<path d="M63.9993 61.2731C63.8669 61.7837 63.7224 62.286 63.3941 62.7156C62.7761 63.5228 61.963 63.9796 60.9493 63.9834C56.7431 63.9981 52.536 63.9981 48.3283 63.9834C47.2821 63.9789 46.4629 63.4751 45.8162 62.5757C46.0234 62.6022 46.1747 62.6241 46.326 62.6415C47.91 62.8215 49.2647 62.3389 50.3895 61.2179C53.4793 58.1317 56.5678 55.0437 59.6551 51.9539C59.9682 51.64 60.2723 51.317 60.5976 51.0159C61.1513 50.5031 61.4138 49.8661 61.5129 49.1248C61.7602 47.2754 62.0348 45.4304 62.3124 43.4841L64 45.8155L63.9993 61.2731Z" fill="#CB5049"/>
<path d="M60.3752 35.0008C60.4281 35.0348 60.4796 35.0719 60.534 35.1029C61.0257 35.3782 61.1626 35.9879 60.7776 36.3979C60.1853 37.028 59.556 37.6225 58.9622 38.2133C58.5681 37.8192 58.1777 37.4281 57.7836 37.0348C58.3888 36.4297 58.9985 35.8041 59.6187 35.1876C59.7012 35.1059 59.8215 35.062 59.9213 35L60.3752 35.0008Z" fill="#CB5049"/>
<path d="M42.9122 49.109C42.8017 49.1079 42.6924 49.085 42.5907 49.0416C42.489 48.9982 42.3969 48.9352 42.3196 48.8562C42.2423 48.7771 42.1813 48.6836 42.1403 48.5809C42.0992 48.4783 42.0787 48.3685 42.0801 48.258C42.0821 48.0342 42.1717 47.8201 42.3296 47.6616C42.4876 47.5031 42.7013 47.4128 42.9251 47.41C43.1528 47.4152 43.3693 47.5094 43.5283 47.6725C43.6873 47.8356 43.776 48.0545 43.7753 48.2822C43.7686 48.5057 43.6744 48.7175 43.5129 48.8722C43.3515 49.0268 43.1358 49.1119 42.9122 49.109Z" fill="#CB5049"/>
<path d="M52.5158 49.1089C52.4049 49.1067 52.2955 49.0827 52.1939 49.0381C52.0924 48.9934 52.0006 48.9292 51.924 48.8489C51.8473 48.7687 51.7873 48.6741 51.7474 48.5706C51.7075 48.4671 51.6884 48.3567 51.6913 48.2458C51.6971 48.0217 51.7907 47.8088 51.9521 47.6531C52.1134 47.4975 52.3295 47.4115 52.5537 47.4137C52.7767 47.422 52.9877 47.5167 53.1422 47.6777C53.2966 47.8388 53.3823 48.0537 53.3812 48.2768C53.3793 48.3884 53.3554 48.4985 53.3109 48.6007C53.2663 48.703 53.202 48.7955 53.1215 48.8728C53.0411 48.9501 52.9462 49.0108 52.8423 49.0513C52.7383 49.0918 52.6274 49.1114 52.5158 49.1089Z" fill="#CB5049"/>
</svg>
