<svg width="100" height="156" viewBox="0 0 100 156" fill="none" xmlns="http://www.w3.org/2000/svg">
<rect width="100" height="156" rx="19" fill="#F9FBFF"/>
<path d="M16.6873 109.161C17.1633 109.17 17.6626 109.198 18.1853 109.245C18.7173 109.291 19.2353 109.38 19.7393 109.511L19.6273 110.701C19.2259 110.691 18.7593 110.682 18.2273 110.673C17.7046 110.654 17.2006 110.645 16.7153 110.645C16.4166 110.645 16.1599 110.654 15.9453 110.673C15.7399 110.691 15.5719 110.738 15.4413 110.813C15.3106 110.887 15.2126 111.004 15.1473 111.163C15.0913 111.312 15.0633 111.522 15.0633 111.793C15.0633 112.213 15.1473 112.511 15.3153 112.689C15.4926 112.866 15.7773 113.006 16.1693 113.109L18.0733 113.669C18.8386 113.902 19.3659 114.243 19.6553 114.691C19.9446 115.129 20.0893 115.717 20.0893 116.455C20.0893 117.005 20.0239 117.458 19.8933 117.813C19.7626 118.167 19.5619 118.443 19.2913 118.639C19.0206 118.835 18.6659 118.975 18.2273 119.059C17.7886 119.143 17.2613 119.185 16.6453 119.185C16.3279 119.185 15.8893 119.166 15.3293 119.129C14.7786 119.091 14.1486 118.998 13.4393 118.849L13.5513 117.589C14.1019 117.607 14.5639 117.626 14.9373 117.645C15.3106 117.654 15.6326 117.659 15.9033 117.659C16.1739 117.659 16.4259 117.659 16.6593 117.659C17.0886 117.659 17.4246 117.631 17.6673 117.575C17.9099 117.519 18.0779 117.402 18.1713 117.225C18.2739 117.047 18.3253 116.791 18.3253 116.455C18.3253 116.165 18.2879 115.941 18.2133 115.783C18.1479 115.615 18.0359 115.484 17.8773 115.391C17.7186 115.297 17.5133 115.218 17.2613 115.153L15.2873 114.551C14.5593 114.327 14.0459 113.995 13.7473 113.557C13.4579 113.118 13.3133 112.53 13.3133 111.793C13.3133 111.242 13.3786 110.794 13.5093 110.449C13.6399 110.094 13.8406 109.828 14.1113 109.651C14.3819 109.464 14.7273 109.338 15.1473 109.273C15.5766 109.198 16.0899 109.161 16.6873 109.161ZM22.878 112.129V116.777C22.8687 117.122 22.934 117.369 23.074 117.519C23.2233 117.668 23.4613 117.743 23.788 117.743C24.1147 117.743 24.4413 117.673 24.768 117.533C25.0947 117.393 25.4913 117.183 25.958 116.903L26.126 117.911C25.6033 118.331 25.0993 118.648 24.614 118.863C24.1287 119.077 23.6247 119.185 23.102 119.185C21.8233 119.185 21.184 118.555 21.184 117.295V112.129H22.878ZM27.484 112.129V119.003H26.14L25.958 117.673L25.79 117.477V112.129H27.484ZM33.0281 111.961C33.9054 111.961 34.5448 112.236 34.9461 112.787C35.3474 113.337 35.5481 114.252 35.5481 115.531C35.5481 116.081 35.4968 116.581 35.3941 117.029C35.3008 117.477 35.1328 117.864 34.8901 118.191C34.6568 118.508 34.3301 118.751 33.9101 118.919C33.4901 119.087 32.9534 119.171 32.3001 119.171C32.0668 119.171 31.8008 119.161 31.5021 119.143C31.2034 119.124 30.9001 119.091 30.5921 119.045C30.2841 118.998 29.9854 118.947 29.6961 118.891C29.4161 118.825 29.1641 118.746 28.9401 118.653L30.2981 117.617C30.5034 117.682 30.7181 117.738 30.9421 117.785C31.1754 117.822 31.4041 117.85 31.6281 117.869C31.8614 117.878 32.0761 117.883 32.2721 117.883C32.6454 117.873 32.9394 117.799 33.1541 117.659C33.3781 117.519 33.5414 117.281 33.6441 116.945C33.7468 116.599 33.7981 116.128 33.7981 115.531C33.7981 114.971 33.7561 114.532 33.6721 114.215C33.5974 113.888 33.4574 113.659 33.2521 113.529C33.0468 113.398 32.7528 113.333 32.3701 113.333C32.0341 113.333 31.7214 113.412 31.4321 113.571C31.1521 113.729 30.8254 113.944 30.4521 114.215L30.3401 113.305C30.5921 113.034 30.8581 112.796 31.1381 112.591C31.4274 112.385 31.7308 112.231 32.0481 112.129C32.3748 112.017 32.7014 111.961 33.0281 111.961ZM30.6341 109.203L30.6481 111.583C30.6481 111.881 30.6341 112.171 30.6061 112.451C30.5874 112.721 30.5408 112.987 30.4661 113.249L30.6341 113.445V118.737L28.9401 118.653V109.203H30.6341ZM43.0344 109.217C43.8837 109.217 44.551 109.31 45.0364 109.497C45.5217 109.674 45.867 109.987 46.0724 110.435C46.287 110.873 46.3944 111.499 46.3944 112.311C46.3944 113.123 46.2917 113.753 46.0864 114.201C45.8904 114.649 45.559 114.961 45.0924 115.139C44.635 115.316 44.0237 115.405 43.2584 115.405C42.8384 115.405 42.4324 115.391 42.0404 115.363C41.6577 115.335 41.2984 115.297 40.9624 115.251C40.6357 115.204 40.3557 115.157 40.1224 115.111C39.889 115.055 39.7257 115.008 39.6324 114.971L39.6744 114.033C40.2064 114.033 40.7524 114.033 41.3124 114.033C41.8817 114.033 42.4464 114.033 43.0064 114.033C43.417 114.023 43.739 113.972 43.9724 113.879C44.215 113.785 44.383 113.617 44.4764 113.375C44.579 113.123 44.6304 112.768 44.6304 112.311C44.6304 111.853 44.579 111.503 44.4764 111.261C44.383 111.009 44.215 110.836 43.9724 110.743C43.739 110.64 43.417 110.589 43.0064 110.589C42.185 110.589 41.4804 110.593 40.8924 110.603C40.3044 110.612 39.903 110.626 39.6884 110.645L39.4924 109.343C39.8657 109.305 40.2157 109.277 40.5424 109.259C40.8784 109.24 41.2377 109.231 41.6204 109.231C42.0124 109.221 42.4837 109.217 43.0344 109.217ZM41.2424 109.343V119.003H39.4924V109.343H41.2424ZM48.7526 112.129L48.9766 113.473L49.1306 113.669V119.003H47.4366V112.129H48.7526ZM52.1126 111.961L51.9446 113.529H51.4546C51.0906 113.529 50.7219 113.589 50.3486 113.711C49.9753 113.832 49.5086 114.014 48.9486 114.257L48.8366 113.263C49.3219 112.852 49.8166 112.535 50.3206 112.311C50.8246 112.077 51.3099 111.961 51.7766 111.961H52.1126ZM55.8121 111.961C56.6521 111.961 57.3194 112.077 57.8141 112.311C58.3181 112.544 58.6774 112.927 58.8921 113.459C59.1161 113.991 59.2281 114.695 59.2281 115.573C59.2281 116.45 59.1161 117.155 58.8921 117.687C58.6774 118.209 58.3181 118.592 57.8141 118.835C57.3194 119.068 56.6521 119.185 55.8121 119.185C54.9908 119.185 54.3281 119.068 53.8241 118.835C53.3294 118.592 52.9701 118.209 52.7461 117.687C52.5221 117.155 52.4101 116.45 52.4101 115.573C52.4101 114.695 52.5221 113.991 52.7461 113.459C52.9701 112.927 53.3294 112.544 53.8241 112.311C54.3281 112.077 54.9908 111.961 55.8121 111.961ZM55.8121 113.249C55.4014 113.249 55.0748 113.319 54.8321 113.459C54.5988 113.589 54.4308 113.823 54.3281 114.159C54.2254 114.495 54.1741 114.966 54.1741 115.573C54.1741 116.179 54.2254 116.651 54.3281 116.987C54.4308 117.323 54.5988 117.556 54.8321 117.687C55.0748 117.817 55.4014 117.883 55.8121 117.883C56.2321 117.883 56.5634 117.817 56.8061 117.687C57.0488 117.556 57.2168 117.323 57.3101 116.987C57.4128 116.651 57.4641 116.179 57.4641 115.573C57.4641 114.966 57.4128 114.495 57.3101 114.159C57.2168 113.823 57.0488 113.589 56.8061 113.459C56.5634 113.319 56.2321 113.249 55.8121 113.249ZM62.7292 111.961C63.1959 111.961 63.6532 112.026 64.1012 112.157C64.5492 112.278 64.9552 112.483 65.3192 112.773L65.2072 113.627C64.8432 113.524 64.5165 113.435 64.2272 113.361C63.9379 113.286 63.6159 113.249 63.2612 113.249C62.9252 113.249 62.6545 113.309 62.4492 113.431C62.2532 113.543 62.1039 113.762 62.0012 114.089C61.9079 114.415 61.8612 114.891 61.8612 115.517C61.8612 116.114 61.9079 116.576 62.0012 116.903C62.0945 117.22 62.2392 117.444 62.4352 117.575C62.6312 117.696 62.8879 117.757 63.2052 117.757C63.4572 117.757 63.6812 117.729 63.8772 117.673C64.0732 117.607 64.2739 117.514 64.4792 117.393C64.6845 117.262 64.9225 117.099 65.1932 116.903L65.3332 117.855C65.0159 118.219 64.6239 118.531 64.1572 118.793C63.6999 119.045 63.1679 119.171 62.5612 119.171C61.6839 119.171 61.0585 118.863 60.6852 118.247C60.3119 117.621 60.1252 116.716 60.1252 115.531C60.1252 114.625 60.2185 113.916 60.4052 113.403C60.6012 112.88 60.8905 112.511 61.2732 112.297C61.6652 112.073 62.1505 111.961 62.7292 111.961ZM66.7052 109.203V119.003H65.3752L65.1932 117.771L65.0112 117.631V113.039L65.0952 112.843C65.0579 112.572 65.0345 112.301 65.0252 112.031C65.0159 111.751 65.0112 111.466 65.0112 111.177V109.203H66.7052ZM69.854 112.129V116.777C69.8447 117.122 69.91 117.369 70.05 117.519C70.1993 117.668 70.4373 117.743 70.764 117.743C71.0907 117.743 71.4173 117.673 71.744 117.533C72.0707 117.393 72.4673 117.183 72.934 116.903L73.102 117.911C72.5793 118.331 72.0753 118.648 71.59 118.863C71.1047 119.077 70.6007 119.185 70.078 119.185C68.7993 119.185 68.16 118.555 68.16 117.295V112.129H69.854ZM74.46 112.129V119.003H73.116L72.934 117.673L72.766 117.477V112.129H74.46ZM79.0241 111.961C79.2574 111.961 79.5141 111.97 79.7941 111.989C80.0741 112.007 80.3588 112.045 80.6481 112.101C80.9374 112.157 81.1988 112.236 81.4321 112.339L81.2361 113.403C80.8908 113.384 80.5454 113.37 80.2001 113.361C79.8641 113.351 79.5701 113.347 79.3181 113.347C78.8421 113.347 78.4641 113.412 78.1841 113.543C77.9134 113.664 77.7174 113.888 77.5961 114.215C77.4748 114.532 77.4141 114.98 77.4141 115.559C77.4141 116.137 77.4748 116.59 77.5961 116.917C77.7174 117.234 77.9134 117.458 78.1841 117.589C78.4641 117.719 78.8421 117.785 79.3181 117.785C79.4581 117.785 79.6401 117.78 79.8641 117.771C80.0974 117.761 80.3448 117.747 80.6061 117.729C80.8768 117.71 81.1381 117.687 81.3901 117.659L81.5581 118.751C81.1941 118.9 80.7881 119.007 80.3401 119.073C79.8921 119.138 79.4488 119.171 79.0101 119.171C78.1888 119.171 77.5308 119.054 77.0361 118.821C76.5414 118.587 76.1821 118.209 75.9581 117.687C75.7434 117.155 75.6361 116.445 75.6361 115.559C75.6361 114.672 75.7481 113.967 75.9721 113.445C76.1961 112.913 76.5554 112.535 77.0501 112.311C77.5448 112.077 78.2028 111.961 79.0241 111.961ZM84.7921 110.169V116.931C84.7921 117.22 84.8528 117.425 84.9741 117.547C85.1048 117.668 85.3241 117.729 85.6321 117.729H86.5841L86.7661 118.919C86.6074 118.965 86.4161 119.007 86.1921 119.045C85.9681 119.082 85.7488 119.105 85.5341 119.115C85.3194 119.133 85.1374 119.143 84.9881 119.143C84.3908 119.143 83.9241 118.984 83.5881 118.667C83.2614 118.34 83.0981 117.873 83.0981 117.267V110.169H84.7921ZM86.8361 112.129V113.305H81.8801V112.199L83.2241 112.129H86.8361ZM38.1522 127.343C38.5908 127.343 38.8148 127.567 38.8242 128.015L39.2022 137.003H37.5362L37.2002 128.729H36.9342L35.1282 135.211C35.0442 135.593 34.8062 135.785 34.4142 135.785H33.1822C32.7808 135.785 32.5335 135.593 32.4402 135.211L30.6342 128.729H30.3682L30.0602 137.003H28.3942L28.7722 128.015C28.7908 127.567 29.0148 127.343 29.4442 127.343H31.1942C31.5675 127.343 31.8008 127.534 31.8942 127.917L33.3782 133.209C33.4435 133.433 33.4948 133.657 33.5322 133.881C33.5788 134.105 33.6302 134.329 33.6862 134.553H33.8962C33.9522 134.329 34.0035 134.105 34.0502 133.881C34.0968 133.657 34.1482 133.428 34.2042 133.195L35.6882 127.917C35.7722 127.534 36.0102 127.343 36.4022 127.343H38.1522ZM44.094 129.961C44.6446 129.961 45.1066 130.035 45.48 130.185C45.8626 130.325 46.152 130.567 46.348 130.913C46.544 131.258 46.642 131.734 46.642 132.341V137.003H45.298L45.06 135.519L44.934 135.323V132.327C44.934 131.963 44.85 131.701 44.682 131.543C44.514 131.375 44.192 131.291 43.716 131.291C43.3613 131.291 42.9133 131.305 42.372 131.333C41.84 131.361 41.3033 131.398 40.762 131.445L40.608 130.283C40.9346 130.217 41.3033 130.161 41.714 130.115C42.1246 130.068 42.54 130.031 42.96 130.003C43.38 129.975 43.758 129.961 44.094 129.961ZM45.914 132.775L45.9 133.825H42.75C42.47 133.834 42.2693 133.909 42.148 134.049C42.0266 134.189 41.966 134.38 41.966 134.623V135.001C41.966 135.281 42.0406 135.495 42.19 135.645C42.3393 135.785 42.5726 135.855 42.89 135.855C43.142 135.855 43.422 135.803 43.73 135.701C44.038 135.598 44.3413 135.449 44.64 135.253C44.948 135.057 45.2233 134.823 45.466 134.553V135.435C45.3726 135.575 45.2373 135.743 45.06 135.939C44.8826 136.125 44.6633 136.312 44.402 136.499C44.15 136.685 43.856 136.839 43.52 136.961C43.1933 137.082 42.8293 137.143 42.428 137.143C42.0173 137.143 41.6486 137.073 41.322 136.933C40.9953 136.783 40.7386 136.569 40.552 136.289C40.3653 135.999 40.272 135.645 40.272 135.225V134.497C40.272 133.955 40.4493 133.535 40.804 133.237C41.168 132.929 41.6626 132.775 42.288 132.775H45.914ZM50.5416 129.961C50.8589 129.961 51.1996 129.97 51.5636 129.989C51.9369 130.007 52.3009 130.035 52.6556 130.073C53.0103 130.101 53.3276 130.143 53.6076 130.199L53.4956 131.305C53.0476 131.295 52.5996 131.286 52.1516 131.277C51.7129 131.258 51.2789 131.249 50.8496 131.249C50.4669 131.249 50.1636 131.258 49.9396 131.277C49.7249 131.295 49.5709 131.351 49.4776 131.445C49.3936 131.538 49.3516 131.697 49.3516 131.921C49.3516 132.191 49.4263 132.373 49.5756 132.467C49.7249 132.551 49.9676 132.635 50.3036 132.719L52.1796 133.153C52.7396 133.293 53.1549 133.507 53.4256 133.797C53.6963 134.077 53.8316 134.511 53.8316 135.099C53.8316 135.668 53.7243 136.102 53.5096 136.401C53.3043 136.69 52.9729 136.891 52.5156 137.003C52.0676 137.105 51.4936 137.157 50.7936 137.157C50.5229 137.157 50.1216 137.143 49.5896 137.115C49.0576 137.096 48.4743 137.035 47.8396 136.933L47.9516 135.827C48.1383 135.827 48.3576 135.831 48.6096 135.841C48.8709 135.85 49.1463 135.855 49.4356 135.855C49.7343 135.855 50.0376 135.855 50.3456 135.855C50.8403 135.855 51.2183 135.841 51.4796 135.813C51.7503 135.775 51.9369 135.705 52.0396 135.603C52.1423 135.491 52.1936 135.332 52.1936 135.127C52.1936 134.865 52.1049 134.693 51.9276 134.609C51.7596 134.515 51.5076 134.427 51.1716 134.343L49.3376 133.895C48.9176 133.783 48.5909 133.643 48.3576 133.475C48.1243 133.297 47.9563 133.083 47.8536 132.831C47.7509 132.569 47.6996 132.252 47.6996 131.879C47.6996 131.375 47.7929 130.983 47.9796 130.703C48.1756 130.423 48.4789 130.227 48.8896 130.115C49.3096 130.003 49.8603 129.951 50.5416 129.961ZM57.2124 128.169V134.931C57.2124 135.22 57.2731 135.425 57.3944 135.547C57.5251 135.668 57.7444 135.729 58.0524 135.729H59.0044L59.1864 136.919C59.0277 136.965 58.8364 137.007 58.6124 137.045C58.3884 137.082 58.1691 137.105 57.9544 137.115C57.7397 137.133 57.5577 137.143 57.4084 137.143C56.8111 137.143 56.3444 136.984 56.0084 136.667C55.6817 136.34 55.5184 135.873 55.5184 135.267V128.169H57.2124ZM59.2564 130.129V131.305H54.3004V130.199L55.6444 130.129H59.2564ZM63.1548 129.961C64.2655 129.961 65.0635 130.157 65.5488 130.549C66.0342 130.931 66.2815 131.501 66.2908 132.257C66.3002 132.882 66.1508 133.358 65.8428 133.685C65.5442 134.002 65.0448 134.161 64.3448 134.161H60.4248V133.111H63.8828C64.2002 133.111 64.4008 133.027 64.4848 132.859C64.5782 132.691 64.6248 132.485 64.6248 132.243C64.6155 131.86 64.5035 131.594 64.2888 131.445C64.0835 131.295 63.7288 131.221 63.2248 131.221C62.7862 131.221 62.4455 131.281 62.2028 131.403C61.9602 131.524 61.7875 131.743 61.6848 132.061C61.5915 132.378 61.5448 132.835 61.5448 133.433C61.5448 134.067 61.6055 134.557 61.7268 134.903C61.8482 135.248 62.0488 135.486 62.3288 135.617C62.6088 135.738 62.9822 135.799 63.4488 135.799C63.7942 135.799 64.1908 135.785 64.6388 135.757C65.0962 135.729 65.5348 135.691 65.9548 135.645L66.1228 136.723C65.8708 136.825 65.5815 136.909 65.2548 136.975C64.9282 137.04 64.5875 137.087 64.2328 137.115C63.8875 137.152 63.5608 137.171 63.2528 137.171C62.4128 137.171 61.7362 137.049 61.2228 136.807C60.7188 136.555 60.3502 136.163 60.1168 135.631C59.8928 135.099 59.7808 134.413 59.7808 133.573C59.7808 132.667 59.8928 131.953 60.1168 131.431C60.3502 130.899 60.7142 130.521 61.2088 130.297C61.7128 130.073 62.3615 129.961 63.1548 129.961ZM68.7095 130.129L68.9335 131.473L69.0875 131.669V137.003H67.3935V130.129H68.7095ZM72.0695 129.961L71.9015 131.529H71.4115C71.0475 131.529 70.6788 131.589 70.3055 131.711C69.9321 131.832 69.4655 132.014 68.9055 132.257L68.7935 131.263C69.2788 130.852 69.7735 130.535 70.2775 130.311C70.7815 130.077 71.2668 129.961 71.7335 129.961H72.0695Z" fill="#57A5DE"/>
<path d="M76.0191 81.1159L24.1874 81.1089" stroke="white" stroke-width="6.29" stroke-miterlimit="10"/>
<path d="M76.0191 81.1159L24.1874 81.1089" stroke="#57A5DE" stroke-width="3.42" stroke-miterlimit="10"/>
<path d="M18.8871 22.6508L18.8871 18.8889L75.4492 18.8819" stroke="white" stroke-width="6.29" stroke-miterlimit="10"/>
<path d="M18.8871 22.6508L18.8871 18.8889L75.4492 18.8819" stroke="#57A5DE" stroke-width="3.42" stroke-miterlimit="10"/>
<path d="M62.21 86.5128L37.8075 86.5003L13.4667 62.1594L13.4541 37.757L37.7927 13.4184H62.2092L86.5486 37.7577V62.1742L62.21 86.5128Z" fill="#EAF6FF" stroke="#57A5DE" stroke-width="7"/>
<path d="M24.1856 81.108L18.8866 81.115L18.8866 22.6509" stroke="white" stroke-width="6.29" stroke-miterlimit="10"/>
<path d="M24.1856 81.108L18.8866 81.115L18.8866 22.6509" stroke="#57A5DE" stroke-width="3.42" stroke-miterlimit="10"/>
<path d="M75.4494 18.8803L81.1133 18.8874L81.1134 81.1134L76.0179 81.1134" stroke="white" stroke-width="6.29" stroke-miterlimit="10"/>
<path d="M75.4494 18.8803L81.1133 18.8874L81.1134 81.1134L76.0179 81.1134" stroke="#57A5DE" stroke-width="3.42" stroke-miterlimit="10"/>
<path d="M52.8132 48.2378C52.4122 48.3999 52.0609 48.5312 51.7214 48.6873C51.6775 48.7146 51.6397 48.7509 51.6106 48.7936C51.5815 48.8364 51.5616 48.8848 51.5523 48.9357C51.5396 49.1184 51.5365 49.3016 51.5428 49.4845C51.5368 49.7509 51.428 50.0045 51.2393 50.1925C51.0507 50.3806 50.7966 50.4884 50.5303 50.4935C50.1754 50.5038 49.8206 50.5038 49.4657 50.4935C48.8849 50.4758 48.4153 50.0381 48.4579 49.4585C48.4981 48.9168 48.3609 48.595 47.7967 48.4921C47.6027 48.4566 47.4265 48.3277 47.1509 48.2C47.0163 48.3813 46.8714 48.5547 46.7168 48.7192C46.2708 49.1474 45.6581 49.138 45.2098 48.7098C44.9839 48.4945 44.765 48.2709 44.5474 48.0474C44.0967 47.5849 44.0601 46.9485 44.5474 46.5333C44.9614 46.1785 44.9685 45.8946 44.7615 45.4025C44.5545 44.9104 44.3534 44.7602 43.8472 44.7933C43.1883 44.8359 42.7625 44.3722 42.7554 43.7075C42.7554 43.3952 42.7554 43.0829 42.7554 42.7707C42.766 42.1485 43.1966 41.6718 43.8105 41.7179C44.3451 41.757 44.5675 41.5807 44.7745 41.0792C44.9815 40.5776 44.9377 40.321 44.5474 39.9791C44.0648 39.5568 44.0979 38.9252 44.5474 38.4639C44.7662 38.2403 44.9851 38.018 45.211 37.8015C45.3076 37.6992 45.4238 37.6174 45.5528 37.5611C45.6817 37.5048 45.8207 37.4751 45.9614 37.4737C46.1021 37.4724 46.2417 37.4995 46.3717 37.5534C46.5017 37.6073 46.6194 37.6868 46.7179 37.7873C46.8824 37.9422 47.0243 38.1197 47.1651 38.2746C47.5862 38.1102 47.9658 37.9671 48.3384 37.8015C48.3691 37.7769 48.394 37.746 48.4116 37.7109C48.4292 37.6758 48.4389 37.6373 48.4402 37.598C48.4544 37.4052 48.4402 37.2112 48.4473 37.0173C48.4525 36.7557 48.5574 36.5059 48.7405 36.3191C48.9236 36.1322 49.1712 36.0223 49.4326 36.0118C49.8095 35.9961 50.1865 35.9961 50.5634 36.0118C51.1099 36.0355 51.5783 36.472 51.5333 37.0184C51.486 37.5933 51.6445 37.9198 52.2312 38.0239C52.4146 38.057 52.5861 38.18 52.8333 38.2983C52.9634 38.1445 53.0959 37.96 53.2568 37.8027C53.7216 37.3473 54.3142 37.3449 54.7803 37.7908C55.0168 38.0148 55.2455 38.2435 55.4663 38.4769C55.5658 38.5722 55.6451 38.6865 55.6998 38.8129C55.7545 38.9394 55.7833 39.0755 55.7846 39.2132C55.7859 39.3509 55.7597 39.4876 55.7075 39.615C55.6553 39.7425 55.5781 39.8582 55.4805 39.9555C55.3197 40.1282 55.1375 40.2819 54.979 40.4286C55.1399 40.826 55.2747 41.1868 55.4332 41.5369C55.4583 41.5772 55.4918 41.6116 55.5314 41.6377C55.571 41.6638 55.6158 41.6811 55.6627 41.6883C55.8531 41.7108 56.0495 41.6884 56.2435 41.6978C56.5047 41.7064 56.7529 41.8144 56.9373 41.9997C57.1217 42.185 57.2285 42.4336 57.2359 42.695C57.2501 43.0605 57.2501 43.4283 57.2359 43.7938C57.2158 44.3569 56.7781 44.8312 56.2163 44.7815C55.6544 44.7318 55.3824 44.9069 55.2215 45.4581C55.05 46.0495 54.9944 46.0318 55.4344 46.4884C55.9075 46.9781 55.9075 47.5742 55.4238 48.0616C55.2049 48.2851 54.9873 48.5099 54.7602 48.7228C54.6643 48.822 54.5494 48.9009 54.4224 48.9548C54.2954 49.0087 54.1589 49.0365 54.0209 49.0365C53.8829 49.0365 53.7463 49.0087 53.6193 48.9548C53.4923 48.9009 53.3775 48.822 53.2816 48.7228C53.1125 48.5761 52.967 48.4022 52.8132 48.2378ZM49.9862 46.3606C50.8084 46.3603 51.597 46.0345 52.1797 45.4545C52.7624 44.8744 53.0918 44.0873 53.0959 43.2651C53.0953 42.4429 52.7692 41.6544 52.1889 41.0719C51.6086 40.4894 50.8214 40.1603 49.9992 40.1566C49.1773 40.1572 48.389 40.4829 47.8064 41.0626C47.2238 41.6423 46.8941 42.429 46.8895 43.2509C46.8904 44.0731 47.2165 44.8616 47.7967 45.4442C48.3769 46.0268 49.164 46.3563 49.9862 46.3606Z" fill="#57A5DE"/>
<path d="M50.528 53.4341L51.6162 55.245C51.7995 55.5502 51.9793 55.8566 52.1662 56.1582C52.6311 56.9058 53.3491 57.1553 54.1688 56.8383C55.7443 56.2315 57.3152 55.6129 58.8884 54.9978L62.1341 53.7298C62.2122 53.699 62.2938 53.6778 62.3944 53.6446C62.4003 53.7487 62.4097 53.8315 62.4097 53.9143C62.4097 55.6161 62.4097 57.3182 62.4097 59.0207C62.4097 59.7706 62.062 60.2982 61.3653 60.5714C57.812 61.9656 54.2571 63.3563 50.7007 64.7434C50.6522 64.7623 50.6013 64.7729 50.5291 64.7942L50.528 53.4341Z" fill="#57A5DE"/>
<path d="M49.4586 53.4507V64.8061C48.743 64.5281 48.0534 64.262 47.3649 63.9923L38.6852 60.5928C37.9234 60.2935 37.5792 59.7979 37.578 58.99C37.578 57.2993 37.578 55.6082 37.578 53.9167C37.578 53.8327 37.5863 53.7499 37.5934 53.6269C38.2274 53.873 38.8366 54.1084 39.4445 54.3461L45.7231 56.8064C46.6481 57.1696 47.3555 56.9247 47.8688 56.079C48.3302 55.3133 48.7903 54.5476 49.2492 53.7819C49.3013 53.6873 49.3592 53.6068 49.4586 53.4507Z" fill="#57A5DE"/>
<path d="M61.674 47.5198C62.431 48.7831 63.1774 50.0168 63.9084 51.2588C64.1119 51.6042 63.9699 51.894 63.5465 52.0608C62.0561 52.649 60.5641 53.2338 59.0705 53.8149L53.9026 55.8364C53.4295 56.021 53.2568 55.9642 52.9966 55.5324L50.7491 51.7946L61.674 47.5198Z" fill="#57A5DE"/>
<path d="M49.241 51.7947C48.4532 53.1065 47.6915 54.3816 46.9214 55.652C46.7357 55.9583 46.5204 56.0068 46.1396 55.859C44.3566 55.1627 42.574 54.4644 40.7919 53.7641L36.5241 52.0975C35.954 51.8751 35.8641 51.6113 36.1811 51.0826L38.3197 47.5222L49.241 51.7947Z" fill="#57A5DE"/>
<path d="M43.445 46.2483C43.0831 47.016 43.0984 47.6985 43.5172 48.4401L39.9863 47.0633L39.9792 47.0006L43.445 46.2483Z" fill="#57A5DE"/>
<path d="M56.4766 48.4425C56.8882 47.7044 56.9154 47.0136 56.5452 46.2483L60.1091 47.0207L56.4766 48.4425Z" fill="#57A5DE"/>
</svg>
