<svg width="100" height="156" viewBox="0 0 100 156" fill="none" xmlns="http://www.w3.org/2000/svg">
<rect width="100" height="156" rx="19" fill="#F9FBFF"/>
<path d="M37.8284 109.161C38.3044 109.17 38.8037 109.198 39.3264 109.245C39.8584 109.291 40.3764 109.38 40.8804 109.511L40.7684 110.701C40.367 110.691 39.9004 110.682 39.3684 110.673C38.8457 110.654 38.3417 110.645 37.8564 110.645C37.5577 110.645 37.301 110.654 37.0864 110.673C36.881 110.691 36.713 110.738 36.5824 110.813C36.4517 110.887 36.3537 111.004 36.2884 111.163C36.2324 111.312 36.2044 111.522 36.2044 111.793C36.2044 112.213 36.2884 112.511 36.4564 112.689C36.6337 112.866 36.9184 113.006 37.3104 113.109L39.2144 113.669C39.9797 113.902 40.507 114.243 40.7964 114.691C41.0857 115.129 41.2304 115.717 41.2304 116.455C41.2304 117.005 41.165 117.458 41.0344 117.813C40.9037 118.167 40.703 118.443 40.4324 118.639C40.1617 118.835 39.807 118.975 39.3684 119.059C38.9297 119.143 38.4024 119.185 37.7864 119.185C37.469 119.185 37.0304 119.166 36.4704 119.129C35.9197 119.091 35.2897 118.998 34.5804 118.849L34.6924 117.589C35.243 117.607 35.705 117.626 36.0784 117.645C36.4517 117.654 36.7737 117.659 37.0444 117.659C37.315 117.659 37.567 117.659 37.8004 117.659C38.2297 117.659 38.5657 117.631 38.8084 117.575C39.051 117.519 39.219 117.402 39.3124 117.225C39.415 117.047 39.4664 116.791 39.4664 116.455C39.4664 116.165 39.429 115.941 39.3544 115.783C39.289 115.615 39.177 115.484 39.0184 115.391C38.8597 115.297 38.6544 115.218 38.4024 115.153L36.4284 114.551C35.7004 114.327 35.187 113.995 34.8884 113.557C34.599 113.118 34.4544 112.53 34.4544 111.793C34.4544 111.242 34.5197 110.794 34.6504 110.449C34.781 110.094 34.9817 109.828 35.2524 109.651C35.523 109.464 35.8684 109.338 36.2884 109.273C36.7177 109.198 37.231 109.161 37.8284 109.161ZM49.6774 112.129L47.1014 119.213C46.98 119.539 46.826 119.861 46.6394 120.179C46.462 120.505 46.2334 120.799 45.9534 121.061C45.6734 121.322 45.342 121.527 44.9594 121.677C44.5767 121.826 44.1334 121.882 43.6294 121.845L43.4894 120.837C44.0494 120.678 44.4834 120.463 44.7914 120.193C45.1087 119.922 45.356 119.577 45.5334 119.157L45.9114 118.261C45.9954 118.055 46.0747 117.822 46.1494 117.561C46.2334 117.29 46.3034 117.057 46.3594 116.861L47.8574 112.129H49.6774ZM44.1334 112.129L45.6594 116.861C45.706 117.019 45.748 117.183 45.7854 117.351C45.8227 117.509 45.8554 117.668 45.8834 117.827H46.2334L45.7014 119.003H45.2534C45.1227 119.003 45.006 118.965 44.9034 118.891C44.8007 118.816 44.7307 118.713 44.6934 118.583L42.3274 112.129H44.1334ZM55.7506 111.961C57.0293 111.961 57.6686 112.591 57.6686 113.851V119.003H55.9746V114.369C55.9746 113.995 55.9093 113.739 55.7786 113.599C55.648 113.459 55.4286 113.389 55.1206 113.389C54.7753 113.389 54.4206 113.468 54.0566 113.627C53.6926 113.776 53.254 113.995 52.7406 114.285L52.6706 113.263C53.1746 112.843 53.688 112.521 54.2106 112.297C54.7333 112.073 55.2466 111.961 55.7506 111.961ZM52.6146 112.129L52.7826 113.473L52.9226 113.669V119.003H51.2286V112.129H52.6146ZM63.0275 111.961C63.2608 111.961 63.5175 111.97 63.7975 111.989C64.0775 112.007 64.3621 112.045 64.6515 112.101C64.9408 112.157 65.2021 112.236 65.4355 112.339L65.2395 113.403C64.8941 113.384 64.5488 113.37 64.2035 113.361C63.8675 113.351 63.5735 113.347 63.3215 113.347C62.8455 113.347 62.4675 113.412 62.1875 113.543C61.9168 113.664 61.7208 113.888 61.5995 114.215C61.4781 114.532 61.4175 114.98 61.4175 115.559C61.4175 116.137 61.4781 116.59 61.5995 116.917C61.7208 117.234 61.9168 117.458 62.1875 117.589C62.4675 117.719 62.8455 117.785 63.3215 117.785C63.4615 117.785 63.6435 117.78 63.8675 117.771C64.1008 117.761 64.3481 117.747 64.6095 117.729C64.8801 117.71 65.1415 117.687 65.3935 117.659L65.5615 118.751C65.1975 118.9 64.7915 119.007 64.3435 119.073C63.8955 119.138 63.4521 119.171 63.0135 119.171C62.1921 119.171 61.5341 119.054 61.0395 118.821C60.5448 118.587 60.1855 118.209 59.9615 117.687C59.7468 117.155 59.6395 116.445 59.6395 115.559C59.6395 114.672 59.7515 113.967 59.9755 113.445C60.1995 112.913 60.5588 112.535 61.0535 112.311C61.5481 112.077 62.2061 111.961 63.0275 111.961ZM25.773 127.343V137.003H24.023V127.343H25.773ZM28.769 127.343V128.771H21.027V127.343H28.769ZM30.5718 130.129L30.7958 131.473L30.9498 131.669V137.003H29.2558V130.129H30.5718ZM33.9318 129.961L33.7638 131.529H33.2738C32.9098 131.529 32.5411 131.589 32.1678 131.711C31.7944 131.832 31.3278 132.014 30.7678 132.257L30.6558 131.263C31.1411 130.852 31.6358 130.535 32.1398 130.311C32.6438 130.077 33.1291 129.961 33.5958 129.961H33.9318ZM38.9306 129.961C39.4813 129.961 39.9433 130.035 40.3166 130.185C40.6993 130.325 40.9886 130.567 41.1846 130.913C41.3806 131.258 41.4786 131.734 41.4786 132.341V137.003H40.1346L39.8966 135.519L39.7706 135.323V132.327C39.7706 131.963 39.6866 131.701 39.5186 131.543C39.3506 131.375 39.0286 131.291 38.5526 131.291C38.198 131.291 37.75 131.305 37.2086 131.333C36.6766 131.361 36.14 131.398 35.5986 131.445L35.4446 130.283C35.7713 130.217 36.14 130.161 36.5506 130.115C36.9613 130.068 37.3766 130.031 37.7966 130.003C38.2166 129.975 38.5946 129.961 38.9306 129.961ZM40.7506 132.775L40.7366 133.825H37.5866C37.3066 133.834 37.106 133.909 36.9846 134.049C36.8633 134.189 36.8026 134.38 36.8026 134.623V135.001C36.8026 135.281 36.8773 135.495 37.0266 135.645C37.176 135.785 37.4093 135.855 37.7266 135.855C37.9786 135.855 38.2586 135.803 38.5666 135.701C38.8746 135.598 39.178 135.449 39.4766 135.253C39.7846 135.057 40.06 134.823 40.3026 134.553V135.435C40.2093 135.575 40.074 135.743 39.8966 135.939C39.7193 136.125 39.5 136.312 39.2386 136.499C38.9866 136.685 38.6926 136.839 38.3566 136.961C38.03 137.082 37.666 137.143 37.2646 137.143C36.854 137.143 36.4853 137.073 36.1586 136.933C35.832 136.783 35.5753 136.569 35.3886 136.289C35.202 135.999 35.1086 135.645 35.1086 135.225V134.497C35.1086 133.955 35.286 133.535 35.6406 133.237C36.0046 132.929 36.4993 132.775 37.1246 132.775H40.7506ZM48.2623 129.961C49.541 129.961 50.1803 130.591 50.1803 131.851V137.003H48.4863V132.369C48.4863 131.995 48.421 131.739 48.2903 131.599C48.1596 131.459 47.9403 131.389 47.6323 131.389C47.287 131.389 46.9323 131.468 46.5683 131.627C46.2043 131.776 45.7656 131.995 45.2523 132.285L45.1823 131.263C45.6863 130.843 46.1996 130.521 46.7223 130.297C47.245 130.073 47.7583 129.961 48.2623 129.961ZM45.1263 130.129L45.2943 131.473L45.4343 131.669V137.003H43.7403V130.129H45.1263ZM54.9371 129.961C55.2545 129.961 55.5951 129.97 55.9591 129.989C56.3325 130.007 56.6965 130.035 57.0511 130.073C57.4058 130.101 57.7231 130.143 58.0031 130.199L57.8911 131.305C57.4431 131.295 56.9951 131.286 56.5471 131.277C56.1085 131.258 55.6745 131.249 55.2451 131.249C54.8625 131.249 54.5591 131.258 54.3351 131.277C54.1205 131.295 53.9665 131.351 53.8731 131.445C53.7891 131.538 53.7471 131.697 53.7471 131.921C53.7471 132.191 53.8218 132.373 53.9711 132.467C54.1205 132.551 54.3631 132.635 54.6991 132.719L56.5751 133.153C57.1351 133.293 57.5505 133.507 57.8211 133.797C58.0918 134.077 58.2271 134.511 58.2271 135.099C58.2271 135.668 58.1198 136.102 57.9051 136.401C57.6998 136.69 57.3685 136.891 56.9111 137.003C56.4631 137.105 55.8891 137.157 55.1891 137.157C54.9185 137.157 54.5171 137.143 53.9851 137.115C53.4531 137.096 52.8698 137.035 52.2351 136.933L52.3471 135.827C52.5338 135.827 52.7531 135.831 53.0051 135.841C53.2665 135.85 53.5418 135.855 53.8311 135.855C54.1298 135.855 54.4331 135.855 54.7411 135.855C55.2358 135.855 55.6138 135.841 55.8751 135.813C56.1458 135.775 56.3325 135.705 56.4351 135.603C56.5378 135.491 56.5891 135.332 56.5891 135.127C56.5891 134.865 56.5005 134.693 56.3231 134.609C56.1551 134.515 55.9031 134.427 55.5671 134.343L53.7331 133.895C53.3131 133.783 52.9865 133.643 52.7531 133.475C52.5198 133.297 52.3518 133.083 52.2491 132.831C52.1465 132.569 52.0951 132.252 52.0951 131.879C52.0951 131.375 52.1885 130.983 52.3751 130.703C52.5711 130.423 52.8745 130.227 53.2851 130.115C53.7051 130.003 54.2558 129.951 54.9371 129.961ZM62.9099 126.937C63.0686 126.937 63.2739 126.941 63.5259 126.951C63.7872 126.96 64.0532 126.974 64.3239 126.993C64.5946 127.002 64.8232 127.025 65.0099 127.063L64.8699 128.197H63.5119C63.1199 128.197 62.8446 128.276 62.6859 128.435C62.5272 128.593 62.4479 128.859 62.4479 129.233V137.003H60.7539V129.023C60.7539 128.584 60.8239 128.211 60.9639 127.903C61.1039 127.595 61.3326 127.357 61.6499 127.189C61.9672 127.021 62.3872 126.937 62.9099 126.937ZM64.4919 130.129V131.305H59.5359V130.199L60.8099 130.129H64.4919ZM69.08 129.961C70.1906 129.961 70.9886 130.157 71.474 130.549C71.9593 130.931 72.2066 131.501 72.216 132.257C72.2253 132.882 72.076 133.358 71.768 133.685C71.4693 134.002 70.97 134.161 70.27 134.161H66.35V133.111H69.808C70.1253 133.111 70.326 133.027 70.41 132.859C70.5033 132.691 70.55 132.485 70.55 132.243C70.5406 131.86 70.4286 131.594 70.214 131.445C70.0086 131.295 69.654 131.221 69.15 131.221C68.7113 131.221 68.3706 131.281 68.128 131.403C67.8853 131.524 67.7126 131.743 67.61 132.061C67.5166 132.378 67.47 132.835 67.47 133.433C67.47 134.067 67.5306 134.557 67.652 134.903C67.7733 135.248 67.974 135.486 68.254 135.617C68.534 135.738 68.9073 135.799 69.374 135.799C69.7193 135.799 70.116 135.785 70.564 135.757C71.0213 135.729 71.46 135.691 71.88 135.645L72.048 136.723C71.796 136.825 71.5066 136.909 71.18 136.975C70.8533 137.04 70.5126 137.087 70.158 137.115C69.8126 137.152 69.486 137.171 69.178 137.171C68.338 137.171 67.6613 137.049 67.148 136.807C66.644 136.555 66.2753 136.163 66.042 135.631C65.818 135.099 65.706 134.413 65.706 133.573C65.706 132.667 65.818 131.953 66.042 131.431C66.2753 130.899 66.6393 130.521 67.134 130.297C67.638 130.073 68.2866 129.961 69.08 129.961ZM75.4746 130.129L75.6986 131.473L75.8526 131.669V137.003H74.1586V130.129H75.4746ZM78.8346 129.961L78.6666 131.529H78.1766C77.8126 131.529 77.4439 131.589 77.0706 131.711C76.6972 131.832 76.2306 132.014 75.6706 132.257L75.5586 131.263C76.0439 130.852 76.5386 130.535 77.0426 130.311C77.5466 130.077 78.0319 129.961 78.4986 129.961H78.8346Z" fill="#C19364"/>
<path d="M76.0191 81.1156L24.1874 81.1086" stroke="white" stroke-width="6.29" stroke-miterlimit="10"/>
<path d="M76.0191 81.1156L24.1874 81.1086" stroke="#C19364" stroke-width="3.42" stroke-miterlimit="10"/>
<path d="M18.8871 22.6507L18.8871 18.8888L75.4492 18.8818" stroke="white" stroke-width="6.29" stroke-miterlimit="10"/>
<path d="M18.8871 22.6507L18.8871 18.8888L75.4492 18.8818" stroke="#C19364" stroke-width="3.42" stroke-miterlimit="10"/>
<path d="M62.21 86.5127L37.8075 86.5001L13.4667 62.1593L13.4541 37.7568L37.7927 13.4183H62.2092L86.5486 37.7576V62.1741L62.21 86.5127Z" fill="#FFF6EC" stroke="#C19364" stroke-width="7"/>
<path d="M24.1856 81.108L18.8866 81.115L18.8866 22.6509" stroke="white" stroke-width="6.29" stroke-miterlimit="10"/>
<path d="M24.1856 81.108L18.8866 81.115L18.8866 22.6509" stroke="#C19364" stroke-width="3.42" stroke-miterlimit="10"/>
<path d="M75.4494 18.8802L81.1133 18.8872L81.1134 81.1132L76.0179 81.1132" stroke="white" stroke-width="6.29" stroke-miterlimit="10"/>
<path d="M75.4494 18.8802L81.1133 18.8872L81.1134 81.1132L76.0179 81.1132" stroke="#C19364" stroke-width="3.42" stroke-miterlimit="10"/>
<path d="M36 53.6133V53.5584C36.6189 53.083 37.2436 52.6075 37.8522 52.1269C37.8836 52.0938 37.9075 52.0543 37.9221 52.0111C37.9368 51.9679 37.9419 51.9221 37.937 51.8767C37.7421 50.5988 37.7421 49.2988 37.937 48.0209C37.9421 47.9756 37.9371 47.9298 37.9224 47.8867C37.9077 47.8436 37.8838 47.8043 37.8522 47.7715C37.2399 47.2872 36.6189 46.8146 36 46.3392V46.2843C36.0549 46.2024 36.1141 46.1226 36.1639 46.0371C37.3343 44.0117 38.5047 41.9857 39.6751 39.9589C39.7336 39.8573 39.7951 39.7578 39.8638 39.6437C39.9619 39.6802 40.0467 39.7095 40.1294 39.7431C40.7365 39.9897 41.3459 40.2318 41.9479 40.4886C42.0145 40.5248 42.091 40.5387 42.1661 40.5282C42.2411 40.5176 42.3108 40.4832 42.3649 40.43C43.3243 39.6449 44.4033 39.0186 45.5608 38.5749C45.6382 38.5537 45.7068 38.5085 45.7567 38.4458C45.8067 38.3831 45.8354 38.3061 45.8388 38.226C45.9207 37.5757 46.0283 36.9283 46.0992 36.2772C46.1241 36.0519 46.2009 35.9993 46.4167 36C48.8043 36.0073 51.192 36.0044 53.5796 36.0051C53.6682 36.0051 53.7567 36.0132 53.8598 36.019C53.9615 36.7571 54.0654 37.4762 54.1568 38.1975C54.1809 38.3847 54.2395 38.4996 54.4362 38.5742C55.5874 39.0119 56.661 39.6313 57.6161 40.4088C57.7683 40.5324 57.8926 40.5595 58.0792 40.482C58.7558 40.193 59.4405 39.9238 60.142 39.6393L64 46.3216C63.3848 46.8007 62.7857 47.2601 62.1983 47.7356C62.1561 47.7744 62.1228 47.8219 62.1007 47.8748C62.0786 47.9278 62.0682 47.9848 62.0703 48.0421C62.2393 49.2316 62.2773 50.4225 62.0842 51.609C62.03 51.9455 62.1003 52.1466 62.3834 52.3251C62.6518 52.4941 62.891 52.7106 63.1419 52.9067L64 53.5775L60.142 60.2583C59.4405 59.9738 58.7558 59.7046 58.0799 59.4164C57.8934 59.3366 57.769 59.363 57.6161 59.4895C56.6613 60.2665 55.5886 60.8861 54.4384 61.3249C54.2424 61.398 54.1831 61.5136 54.159 61.7009C54.0749 62.3695 53.9725 63.0359 53.8898 63.7045C53.8708 63.8603 53.8086 63.8969 53.6645 63.8961C51.2222 63.8932 48.7797 63.8932 46.337 63.8961C46.1907 63.8961 46.1321 63.8581 46.1131 63.703C46.0312 63.0447 45.9237 62.3863 45.8483 61.7279C45.822 61.4968 45.7298 61.3878 45.5126 61.3044C44.3894 60.8711 43.3413 60.2642 42.4066 59.5056C42.2361 59.3674 42.1008 59.3439 41.8945 59.4325C41.2281 59.7199 40.5515 59.9833 39.866 60.2613C39.8039 60.1589 39.7505 60.0755 39.7014 59.9899C38.9212 58.6415 38.1426 57.2933 37.3657 55.9454C36.9144 55.1634 36.4557 54.3894 36 53.6133ZM58.7851 49.3896C57.8458 48.8819 56.9431 48.3903 56.0339 47.9112C55.9859 47.8955 55.9352 47.8896 55.8849 47.894C55.8346 47.8984 55.7858 47.913 55.7413 47.9368C55.0953 48.274 54.4567 48.6229 53.8159 48.9697C53.5628 49.1072 53.3112 49.2477 53.042 49.3954C53.3075 49.887 53.5606 50.3544 53.8196 50.8321L55.1882 50.1006C55.2409 51.8562 54.0405 53.7845 52.3405 54.584C50.0596 55.6564 48.0092 55.2109 46.1738 53.5094L44.9829 54.6206C46.8724 56.464 49.0874 57.2394 51.628 56.5752C54.8393 55.7354 56.4969 53.4926 56.8846 50.2293L58.0097 50.8284L58.7851 49.3896ZM44.7906 49.8131C44.931 47.8622 45.7591 46.3538 47.4335 45.4453C49.7575 44.1841 51.9023 44.6113 53.8349 46.3838L54.9973 45.2968C53.5431 43.6699 51.0157 42.6165 48.4232 43.2997C45.1914 44.152 43.5082 46.3779 43.1176 49.6639L41.9933 49.0677L41.2296 50.4839C41.2514 50.5107 41.2759 50.5352 41.3027 50.5571C42.1805 51.034 43.0583 51.5139 43.9479 51.9791C43.9993 51.9988 44.0542 52.0077 44.1092 52.0051C44.1642 52.0026 44.2181 51.9888 44.2675 51.9645C44.8418 51.6675 45.4079 51.3551 45.9756 51.0472C46.3004 50.8716 46.6244 50.6938 46.9624 50.5102L46.1826 49.0706L44.7906 49.8131Z" fill="#C19364"/>
</svg>
