<svg width="100" height="156" viewBox="0 0 100 156" fill="none" xmlns="http://www.w3.org/2000/svg">
<rect width="100" height="156" rx="19" fill="#F9FBFF"/>
<path d="M17.3439 109.34V119H15.5939V109.34H17.3439ZM20.3399 109.34V110.768H12.5979V109.34H20.3399ZM21.5826 112.126L21.8066 113.47L21.9606 113.666V119H20.2666V112.126H21.5826ZM24.9426 111.958L24.7746 113.526H24.2846C23.9206 113.526 23.5519 113.587 23.1786 113.708C22.8052 113.829 22.3386 114.011 21.7786 114.254L21.6666 113.26C22.1519 112.849 22.6466 112.532 23.1506 112.308C23.6546 112.075 24.1399 111.958 24.6066 111.958H24.9426ZM29.3814 111.958C29.9321 111.958 30.3941 112.033 30.7674 112.182C31.1501 112.322 31.4394 112.565 31.6354 112.91C31.8314 113.255 31.9294 113.731 31.9294 114.338V119H30.5854L30.3474 117.516L30.2214 117.32V114.324C30.2214 113.96 30.1374 113.699 29.9694 113.54C29.8014 113.372 29.4794 113.288 29.0034 113.288C28.6488 113.288 28.2008 113.302 27.6594 113.33C27.1274 113.358 26.5908 113.395 26.0494 113.442L25.8954 112.28C26.2221 112.215 26.5908 112.159 27.0014 112.112C27.4121 112.065 27.8274 112.028 28.2474 112C28.6674 111.972 29.0454 111.958 29.3814 111.958ZM31.2014 114.772L31.1874 115.822H28.0374C27.7574 115.831 27.5568 115.906 27.4354 116.046C27.3141 116.186 27.2534 116.377 27.2534 116.62V116.998C27.2534 117.278 27.3281 117.493 27.4774 117.642C27.6268 117.782 27.8601 117.852 28.1774 117.852C28.4294 117.852 28.7094 117.801 29.0174 117.698C29.3254 117.595 29.6288 117.446 29.9274 117.25C30.2354 117.054 30.5108 116.821 30.7534 116.55V117.432C30.6601 117.572 30.5248 117.74 30.3474 117.936C30.1701 118.123 29.9508 118.309 29.6894 118.496C29.4374 118.683 29.1434 118.837 28.8074 118.958C28.4808 119.079 28.1168 119.14 27.7154 119.14C27.3048 119.14 26.9361 119.07 26.6094 118.93C26.2828 118.781 26.0261 118.566 25.8394 118.286C25.6528 117.997 25.5594 117.642 25.5594 117.222V116.494C25.5594 115.953 25.7368 115.533 26.0914 115.234C26.4554 114.926 26.9501 114.772 27.5754 114.772H31.2014ZM38.1531 111.958C39.4318 111.958 40.0711 112.588 40.0711 113.848V119H38.3771V114.366C38.3771 113.993 38.3118 113.736 38.1811 113.596C38.0504 113.456 37.8311 113.386 37.5231 113.386C37.1778 113.386 36.8231 113.465 36.4591 113.624C36.0951 113.773 35.6564 113.993 35.1431 114.282L35.0731 113.26C35.5771 112.84 36.0904 112.518 36.6131 112.294C37.1358 112.07 37.6491 111.958 38.1531 111.958ZM35.0171 112.126L35.1851 113.47L35.3251 113.666V119H33.6311V112.126H35.0171ZM44.2679 111.958C44.5853 111.958 44.9259 111.967 45.2899 111.986C45.6633 112.005 46.0273 112.033 46.3819 112.07C46.7366 112.098 47.0539 112.14 47.3339 112.196L47.2219 113.302C46.7739 113.293 46.3259 113.283 45.8779 113.274C45.4393 113.255 45.0053 113.246 44.5759 113.246C44.1933 113.246 43.8899 113.255 43.6659 113.274C43.4513 113.293 43.2973 113.349 43.2039 113.442C43.1199 113.535 43.0779 113.694 43.0779 113.918C43.0779 114.189 43.1526 114.371 43.3019 114.464C43.4513 114.548 43.6939 114.632 44.0299 114.716L45.9059 115.15C46.4659 115.29 46.8813 115.505 47.1519 115.794C47.4226 116.074 47.5579 116.508 47.5579 117.096C47.5579 117.665 47.4506 118.099 47.2359 118.398C47.0306 118.687 46.6993 118.888 46.2419 119C45.7939 119.103 45.2199 119.154 44.5199 119.154C44.2493 119.154 43.8479 119.14 43.3159 119.112C42.7839 119.093 42.2006 119.033 41.5659 118.93L41.6779 117.824C41.8646 117.824 42.0839 117.829 42.3359 117.838C42.5973 117.847 42.8726 117.852 43.1619 117.852C43.4606 117.852 43.7639 117.852 44.0719 117.852C44.5666 117.852 44.9446 117.838 45.2059 117.81C45.4766 117.773 45.6633 117.703 45.7659 117.6C45.8686 117.488 45.9199 117.329 45.9199 117.124C45.9199 116.863 45.8313 116.69 45.6539 116.606C45.4859 116.513 45.2339 116.424 44.8979 116.34L43.0639 115.892C42.6439 115.78 42.3173 115.64 42.0839 115.472C41.8506 115.295 41.6826 115.08 41.5799 114.828C41.4773 114.567 41.4259 114.249 41.4259 113.876C41.4259 113.372 41.5193 112.98 41.7059 112.7C41.9019 112.42 42.2053 112.224 42.6159 112.112C43.0359 112 43.5866 111.949 44.2679 111.958ZM52.4087 111.958C52.9594 111.958 53.4214 112.033 53.7947 112.182C54.1774 112.322 54.4667 112.565 54.6627 112.91C54.8587 113.255 54.9567 113.731 54.9567 114.338V119H53.6127L53.3747 117.516L53.2487 117.32V114.324C53.2487 113.96 53.1647 113.699 52.9967 113.54C52.8287 113.372 52.5067 113.288 52.0307 113.288C51.676 113.288 51.228 113.302 50.6867 113.33C50.1547 113.358 49.618 113.395 49.0767 113.442L48.9227 112.28C49.2494 112.215 49.618 112.159 50.0287 112.112C50.4394 112.065 50.8547 112.028 51.2747 112C51.6947 111.972 52.0727 111.958 52.4087 111.958ZM54.2287 114.772L54.2147 115.822H51.0647C50.7847 115.831 50.584 115.906 50.4627 116.046C50.3414 116.186 50.2807 116.377 50.2807 116.62V116.998C50.2807 117.278 50.3554 117.493 50.5047 117.642C50.654 117.782 50.8874 117.852 51.2047 117.852C51.4567 117.852 51.7367 117.801 52.0447 117.698C52.3527 117.595 52.656 117.446 52.9547 117.25C53.2627 117.054 53.538 116.821 53.7807 116.55V117.432C53.6874 117.572 53.552 117.74 53.3747 117.936C53.1974 118.123 52.978 118.309 52.7167 118.496C52.4647 118.683 52.1707 118.837 51.8347 118.958C51.508 119.079 51.144 119.14 50.7427 119.14C50.332 119.14 49.9634 119.07 49.6367 118.93C49.31 118.781 49.0534 118.566 48.8667 118.286C48.68 117.997 48.5867 117.642 48.5867 117.222V116.494C48.5867 115.953 48.764 115.533 49.1187 115.234C49.4827 114.926 49.9774 114.772 50.6027 114.772H54.2287ZM59.7384 111.958C59.9717 111.958 60.2284 111.967 60.5084 111.986C60.7884 112.005 61.073 112.042 61.3624 112.098C61.6517 112.154 61.913 112.233 62.1464 112.336L61.9504 113.4C61.605 113.381 61.2597 113.367 60.9144 113.358C60.5784 113.349 60.2844 113.344 60.0324 113.344C59.5564 113.344 59.1784 113.409 58.8984 113.54C58.6277 113.661 58.4317 113.885 58.3104 114.212C58.189 114.529 58.1284 114.977 58.1284 115.556C58.1284 116.135 58.189 116.587 58.3104 116.914C58.4317 117.231 58.6277 117.455 58.8984 117.586C59.1784 117.717 59.5564 117.782 60.0324 117.782C60.1724 117.782 60.3544 117.777 60.5784 117.768C60.8117 117.759 61.059 117.745 61.3204 117.726C61.591 117.707 61.8524 117.684 62.1044 117.656L62.2724 118.748C61.9084 118.897 61.5024 119.005 61.0544 119.07C60.6064 119.135 60.163 119.168 59.7244 119.168C58.903 119.168 58.245 119.051 57.7504 118.818C57.2557 118.585 56.8964 118.207 56.6724 117.684C56.4577 117.152 56.3504 116.443 56.3504 115.556C56.3504 114.669 56.4624 113.965 56.6864 113.442C56.9104 112.91 57.2697 112.532 57.7644 112.308C58.259 112.075 58.917 111.958 59.7384 111.958ZM65.7864 110.166V116.928C65.7864 117.217 65.847 117.423 65.9684 117.544C66.099 117.665 66.3184 117.726 66.6264 117.726H67.5784L67.7604 118.916C67.6017 118.963 67.4104 119.005 67.1864 119.042C66.9624 119.079 66.743 119.103 66.5284 119.112C66.3137 119.131 66.1317 119.14 65.9824 119.14C65.385 119.14 64.9184 118.981 64.5824 118.664C64.2557 118.337 64.0924 117.871 64.0924 117.264V110.166H65.7864ZM67.8304 112.126V113.302H62.8744V112.196L64.2184 112.126H67.8304ZM70.6788 112.126V119H68.9988V112.126H70.6788ZM70.2168 109.144C70.5528 109.144 70.7208 109.312 70.7208 109.648V110.432C70.7208 110.768 70.5528 110.936 70.2168 110.936H69.4608C69.1248 110.936 68.9568 110.768 68.9568 110.432V109.648C68.9568 109.312 69.1248 109.144 69.4608 109.144H70.2168ZM75.6022 111.958C76.4422 111.958 77.1096 112.075 77.6042 112.308C78.1082 112.541 78.4676 112.924 78.6822 113.456C78.9062 113.988 79.0182 114.693 79.0182 115.57C79.0182 116.447 78.9062 117.152 78.6822 117.684C78.4676 118.207 78.1082 118.589 77.6042 118.832C77.1096 119.065 76.4422 119.182 75.6022 119.182C74.7809 119.182 74.1182 119.065 73.6142 118.832C73.1196 118.589 72.7602 118.207 72.5362 117.684C72.3122 117.152 72.2002 116.447 72.2002 115.57C72.2002 114.693 72.3122 113.988 72.5362 113.456C72.7602 112.924 73.1196 112.541 73.6142 112.308C74.1182 112.075 74.7809 111.958 75.6022 111.958ZM75.6022 113.246C75.1916 113.246 74.8649 113.316 74.6222 113.456C74.3889 113.587 74.2209 113.82 74.1182 114.156C74.0156 114.492 73.9642 114.963 73.9642 115.57C73.9642 116.177 74.0156 116.648 74.1182 116.984C74.2209 117.32 74.3889 117.553 74.6222 117.684C74.8649 117.815 75.1916 117.88 75.6022 117.88C76.0222 117.88 76.3536 117.815 76.5962 117.684C76.8389 117.553 77.0069 117.32 77.1002 116.984C77.2029 116.648 77.2542 116.177 77.2542 115.57C77.2542 114.963 77.2029 114.492 77.1002 114.156C77.0069 113.82 76.8389 113.587 76.5962 113.456C76.3536 113.316 76.0222 113.246 75.6022 113.246ZM84.9973 111.958C86.276 111.958 86.9153 112.588 86.9153 113.848V119H85.2213V114.366C85.2213 113.993 85.156 113.736 85.0253 113.596C84.8946 113.456 84.6753 113.386 84.3673 113.386C84.022 113.386 83.6673 113.465 83.3033 113.624C82.9393 113.773 82.5006 113.993 81.9873 114.282L81.9173 113.26C82.4213 112.84 82.9346 112.518 83.4573 112.294C83.98 112.07 84.4933 111.958 84.9973 111.958ZM81.8613 112.126L82.0293 113.47L82.1693 113.666V119H80.4753V112.126H81.8613ZM25.4388 127.172C25.8775 127.172 26.2508 127.186 26.5588 127.214C26.8668 127.233 27.1515 127.265 27.4128 127.312C27.6741 127.349 27.9448 127.405 28.2248 127.48L28.0708 128.782C27.7815 128.763 27.5108 128.749 27.2588 128.74C27.0068 128.721 26.7361 128.707 26.4468 128.698C26.1668 128.689 25.8308 128.684 25.4388 128.684C24.8975 128.684 24.4728 128.791 24.1648 129.006C23.8568 129.221 23.6375 129.58 23.5068 130.084C23.3855 130.588 23.3248 131.283 23.3248 132.17C23.3248 133.057 23.3855 133.752 23.5068 134.256C23.6375 134.76 23.8568 135.119 24.1648 135.334C24.4728 135.549 24.8975 135.656 25.4388 135.656C26.0641 135.656 26.5868 135.647 27.0068 135.628C27.4361 135.6 27.8561 135.563 28.2668 135.516L28.4208 136.804C28.0008 136.935 27.5668 137.028 27.1188 137.084C26.6708 137.14 26.1108 137.168 25.4388 137.168C24.4681 137.168 23.6935 137.009 23.1148 136.692C22.5361 136.365 22.1161 135.838 21.8548 135.11C21.6028 134.382 21.4768 133.402 21.4768 132.17C21.4768 130.938 21.6028 129.958 21.8548 129.23C22.1161 128.502 22.5361 127.979 23.1148 127.662C23.6935 127.335 24.4681 127.172 25.4388 127.172ZM34.1899 129.958C35.4686 129.958 36.1079 130.588 36.1079 131.848V137H34.3999V132.366C34.3999 131.993 34.3346 131.736 34.2039 131.596C34.0826 131.456 33.8679 131.386 33.5599 131.386C33.2146 131.386 32.8599 131.461 32.4959 131.61C32.1319 131.759 31.6932 131.983 31.1799 132.282L31.0539 131.302C31.5766 130.873 32.0992 130.541 32.6219 130.308C33.1539 130.075 33.6766 129.958 34.1899 129.958ZM31.3619 127.2L31.3759 129.72C31.3759 130.065 31.3572 130.392 31.3199 130.7C31.2919 130.999 31.2499 131.255 31.1939 131.47L31.3619 131.666V137H29.6679V127.2H31.3619ZM40.8927 129.958C42.0034 129.958 42.8014 130.154 43.2867 130.546C43.7721 130.929 44.0194 131.498 44.0287 132.254C44.0381 132.879 43.8887 133.355 43.5807 133.682C43.2821 133.999 42.7827 134.158 42.0827 134.158H38.1627V133.108H41.6207C41.9381 133.108 42.1387 133.024 42.2227 132.856C42.3161 132.688 42.3627 132.483 42.3627 132.24C42.3534 131.857 42.2414 131.591 42.0267 131.442C41.8214 131.293 41.4667 131.218 40.9627 131.218C40.5241 131.218 40.1834 131.279 39.9407 131.4C39.6981 131.521 39.5254 131.741 39.4227 132.058C39.3294 132.375 39.2827 132.833 39.2827 133.43C39.2827 134.065 39.3434 134.555 39.4647 134.9C39.5861 135.245 39.7867 135.483 40.0667 135.614C40.3467 135.735 40.7201 135.796 41.1867 135.796C41.5321 135.796 41.9287 135.782 42.3767 135.754C42.8341 135.726 43.2727 135.689 43.6927 135.642L43.8607 136.72C43.6087 136.823 43.3194 136.907 42.9927 136.972C42.6661 137.037 42.3254 137.084 41.9707 137.112C41.6254 137.149 41.2987 137.168 40.9907 137.168C40.1507 137.168 39.4741 137.047 38.9607 136.804C38.4567 136.552 38.0881 136.16 37.8547 135.628C37.6307 135.096 37.5187 134.41 37.5187 133.57C37.5187 132.665 37.6307 131.951 37.8547 131.428C38.0881 130.896 38.4521 130.518 38.9467 130.294C39.4507 130.07 40.0994 129.958 40.8927 129.958ZM48.4913 129.958C48.7247 129.958 48.9813 129.967 49.2613 129.986C49.5413 130.005 49.826 130.042 50.1153 130.098C50.4047 130.154 50.666 130.233 50.8993 130.336L50.7033 131.4C50.358 131.381 50.0127 131.367 49.6673 131.358C49.3313 131.349 49.0373 131.344 48.7853 131.344C48.3093 131.344 47.9313 131.409 47.6513 131.54C47.3807 131.661 47.1847 131.885 47.0633 132.212C46.942 132.529 46.8813 132.977 46.8813 133.556C46.8813 134.135 46.942 134.587 47.0633 134.914C47.1847 135.231 47.3807 135.455 47.6513 135.586C47.9313 135.717 48.3093 135.782 48.7853 135.782C48.9253 135.782 49.1073 135.777 49.3313 135.768C49.5647 135.759 49.812 135.745 50.0733 135.726C50.344 135.707 50.6053 135.684 50.8573 135.656L51.0253 136.748C50.6613 136.897 50.2553 137.005 49.8073 137.07C49.3593 137.135 48.916 137.168 48.4773 137.168C47.656 137.168 46.998 137.051 46.5033 136.818C46.0087 136.585 45.6493 136.207 45.4253 135.684C45.2107 135.152 45.1033 134.443 45.1033 133.556C45.1033 132.669 45.2153 131.965 45.4393 131.442C45.6633 130.91 46.0227 130.532 46.5173 130.308C47.012 130.075 47.67 129.958 48.4913 129.958ZM58.4873 130.126L56.5273 132.576C56.4527 132.688 56.3593 132.8 56.2473 132.912C56.1353 133.015 56.0373 133.094 55.9533 133.15V133.178C56.0373 133.234 56.1353 133.327 56.2473 133.458C56.3593 133.579 56.4527 133.705 56.5273 133.836L58.7113 137H56.7933L54.2873 133.108L56.5693 130.126H58.4873ZM53.9653 127.2L53.9793 131.386C53.9793 131.694 53.9607 131.988 53.9233 132.268C53.8953 132.548 53.8533 132.833 53.7973 133.122C53.844 133.393 53.8813 133.673 53.9093 133.962C53.9467 134.251 53.9653 134.522 53.9653 134.774V137H52.2713V127.2H53.9653ZM55.0153 132.604V133.696H53.4193V132.604H55.0153ZM61.3725 127.2L61.3585 134.928C61.3585 135.189 61.4332 135.39 61.5825 135.53C61.7319 135.661 61.9465 135.726 62.2265 135.726H62.8285L63.0245 136.916C62.9219 136.963 62.7772 137.005 62.5905 137.042C62.4132 137.079 62.2265 137.103 62.0305 137.112C61.8439 137.131 61.6805 137.14 61.5405 137.14C60.9712 137.14 60.5185 136.986 60.1825 136.678C59.8465 136.37 59.6785 135.927 59.6785 135.348V127.2H61.3725ZM65.6766 130.126V137H63.9966V130.126H65.6766ZM65.2146 127.144C65.5506 127.144 65.7186 127.312 65.7186 127.648V128.432C65.7186 128.768 65.5506 128.936 65.2146 128.936H64.4586C64.1226 128.936 63.9546 128.768 63.9546 128.432V127.648C63.9546 127.312 64.1226 127.144 64.4586 127.144H65.2146ZM69.97 129.958C70.2873 129.958 70.628 129.967 70.992 129.986C71.3653 130.005 71.7293 130.033 72.084 130.07C72.4386 130.098 72.756 130.14 73.036 130.196L72.924 131.302C72.476 131.293 72.028 131.283 71.58 131.274C71.1413 131.255 70.7073 131.246 70.278 131.246C69.8953 131.246 69.592 131.255 69.368 131.274C69.1533 131.293 68.9993 131.349 68.906 131.442C68.822 131.535 68.78 131.694 68.78 131.918C68.78 132.189 68.8546 132.371 69.004 132.464C69.1533 132.548 69.396 132.632 69.732 132.716L71.608 133.15C72.168 133.29 72.5833 133.505 72.854 133.794C73.1246 134.074 73.26 134.508 73.26 135.096C73.26 135.665 73.1526 136.099 72.938 136.398C72.7326 136.687 72.4013 136.888 71.944 137C71.496 137.103 70.922 137.154 70.222 137.154C69.9513 137.154 69.55 137.14 69.018 137.112C68.486 137.093 67.9026 137.033 67.268 136.93L67.38 135.824C67.5666 135.824 67.786 135.829 68.038 135.838C68.2993 135.847 68.5746 135.852 68.864 135.852C69.1626 135.852 69.466 135.852 69.774 135.852C70.2686 135.852 70.6466 135.838 70.908 135.81C71.1786 135.773 71.3653 135.703 71.468 135.6C71.5706 135.488 71.622 135.329 71.622 135.124C71.622 134.863 71.5333 134.69 71.356 134.606C71.188 134.513 70.936 134.424 70.6 134.34L68.766 133.892C68.346 133.78 68.0193 133.64 67.786 133.472C67.5526 133.295 67.3846 133.08 67.282 132.828C67.1793 132.567 67.128 132.249 67.128 131.876C67.128 131.372 67.2213 130.98 67.408 130.7C67.604 130.42 67.9073 130.224 68.318 130.112C68.738 130 69.2886 129.949 69.97 129.958ZM76.9207 128.166V134.928C76.9207 135.217 76.9814 135.423 77.1027 135.544C77.2334 135.665 77.4527 135.726 77.7607 135.726H78.7127L78.8947 136.916C78.7361 136.963 78.5447 137.005 78.3207 137.042C78.0967 137.079 77.8774 137.103 77.6627 137.112C77.4481 137.131 77.2661 137.14 77.1167 137.14C76.5194 137.14 76.0527 136.981 75.7167 136.664C75.3901 136.337 75.2267 135.871 75.2267 135.264V128.166H76.9207ZM78.9647 130.126V131.302H74.0087V130.196L75.3527 130.126H78.9647Z" fill="#3F8E78"/>
<path d="M76.245 81.1159L24.4134 81.1089" stroke="white" stroke-width="6.29" stroke-miterlimit="10"/>
<path d="M76.245 81.1159L24.4134 81.1089" stroke="#3F8E78" stroke-width="3.42" stroke-miterlimit="10"/>
<path d="M19.113 22.6508L19.1129 18.8889L75.675 18.8819" stroke="white" stroke-width="6.29" stroke-miterlimit="10"/>
<path d="M19.113 22.6508L19.1129 18.8889L75.675 18.8819" stroke="#3F8E78" stroke-width="3.42" stroke-miterlimit="10"/>
<path d="M86.7745 37.4976V61.9135L62.4359 86.2521L38.0324 86.2397L13.6925 61.8997L13.6801 37.4963L38.0186 13.1577H62.4345L86.7745 37.4976Z" fill="#F3F7FF" stroke="#3F8E78" stroke-width="7"/>
<path d="M24.4118 81.108L19.1128 81.115L19.1128 22.6509" stroke="white" stroke-width="6.29" stroke-miterlimit="10"/>
<path d="M24.4118 81.108L19.1128 81.115L19.1128 22.6509" stroke="#3F8E78" stroke-width="3.42" stroke-miterlimit="10"/>
<path d="M75.6755 18.8803L81.3394 18.8874L81.3394 81.1134L76.244 81.1134" stroke="white" stroke-width="6.29" stroke-miterlimit="10"/>
<path d="M75.6755 18.8803L81.3394 18.8874L81.3394 81.1134L76.244 81.1134" stroke="#3F8E78" stroke-width="3.42" stroke-miterlimit="10"/>
<path d="M52.092 37V37.3455C52.092 39.0407 52.092 40.7359 52.092 42.4311C52.092 44.1757 53.2846 45.3667 55.03 45.3683C56.7257 45.3683 58.4211 45.3683 60.1163 45.3683H60.4517C60.4595 45.4692 60.4711 45.5523 60.4711 45.6361C60.4711 49.9753 60.4711 54.3147 60.4711 58.6544C60.4711 60.1816 59.4618 61.3167 57.9555 61.4976C57.2746 61.5753 56.6496 61.3959 56.0874 61.0069C55.9205 60.892 55.7644 60.76 55.6045 60.6342C55.0711 60.2134 54.6976 60.2095 54.1743 60.6265C53.5082 61.1581 52.8428 61.6907 52.1782 62.2244C50.8916 63.2578 49.5865 63.2593 48.2961 62.2244L46.393 60.6964C45.7354 60.1684 45.4148 60.1637 44.7626 60.7072C44.2587 61.1242 43.7121 61.4262 43.0459 61.4836C41.3867 61.6164 40.0085 60.3664 40.0054 58.6978C39.9982 54.9596 39.9982 51.2207 40.0054 47.4809C40.0054 44.972 40.0054 42.4634 40.0054 39.9551C40.0054 38.1879 41.191 37.0047 42.9558 37.0047H52.0982L52.092 37ZM47.8217 49.0889C48.2487 48.6642 48.6229 48.3039 48.9863 47.9304C49.3644 47.5422 49.3636 46.963 48.9979 46.6012C48.6322 46.2394 48.0561 46.2417 47.6695 46.6245C46.7611 47.5236 45.8568 48.4274 44.9567 49.3358C44.6624 49.6308 44.5685 49.9833 44.7307 50.3723C44.893 50.7613 45.2067 50.9476 45.6252 50.9476C48.706 50.9476 51.7858 50.9476 54.8646 50.9476C54.9936 50.9594 55.1236 50.9442 55.2463 50.903C55.3691 50.8617 55.4819 50.7953 55.5776 50.708C55.6733 50.6207 55.7497 50.5144 55.802 50.3959C55.8542 50.2774 55.8812 50.1493 55.8812 50.0198C55.8812 49.8903 55.8542 49.7622 55.802 49.6437C55.7497 49.5252 55.6733 49.4189 55.5776 49.3316C55.4819 49.2443 55.3691 49.1779 55.2463 49.1366C55.1236 49.0954 54.9936 49.0802 54.8646 49.092C53.4794 49.0865 52.0943 49.092 50.7092 49.092L47.8217 49.0889ZM52.6463 54.669C52.2325 55.0805 51.8653 55.4237 51.5283 55.7933C51.3842 55.9465 51.2806 56.1333 51.227 56.3368C51.1824 56.5324 51.2059 56.7375 51.2938 56.9179C51.3816 57.0984 51.5284 57.2434 51.71 57.329C51.8899 57.4161 52.0929 57.4438 52.2896 57.4082C52.4863 57.3726 52.6667 57.2756 52.8047 57.131C53.6922 56.2513 54.5711 55.3631 55.4585 54.4834C55.7776 54.1674 55.9197 53.808 55.7373 53.3801C55.5548 52.9523 55.2031 52.8064 54.7528 52.8071C51.7403 52.8118 48.7275 52.8118 45.7145 52.8071C45.0731 52.8071 44.65 53.1829 44.6539 53.7443C44.6577 54.3056 45.084 54.6667 45.7292 54.6674H52.6463V54.669Z" fill="#3F8E78"/>
<path d="M54.044 37.0691C54.4003 37.3082 54.8025 37.5 55.1046 37.7943C56.6457 39.2943 58.1621 40.8223 59.6854 42.3387C60.01 42.6619 60.2431 43.0653 60.3609 43.5079H55.0238C54.31 43.5079 53.9531 43.1503 53.9531 42.4349C53.9531 40.7594 53.9531 39.0836 53.9531 37.4076V37.1483L54.044 37.0691Z" fill="#3F8E78"/>
</svg>
