<svg width="100" height="156" viewBox="0 0 100 156" fill="none" xmlns="http://www.w3.org/2000/svg">
<rect width="100" height="156" rx="19" fill="#F9FBFF"/>
<path d="M40.9691 109.343V115.223C40.9691 116.184 40.8524 116.954 40.6191 117.533C40.3858 118.111 40.0031 118.531 39.4711 118.793C38.9391 119.054 38.2251 119.185 37.3291 119.185C36.3958 119.185 35.6491 119.054 35.0891 118.793C34.5291 118.531 34.1231 118.111 33.8711 117.533C33.6284 116.954 33.5071 116.184 33.5071 115.223V109.343H35.2571V115.223C35.2571 115.857 35.3178 116.361 35.4391 116.735C35.5698 117.108 35.7798 117.374 36.0691 117.533C36.3584 117.682 36.7504 117.757 37.2451 117.757C37.7398 117.757 38.1271 117.682 38.4071 117.533C38.6964 117.374 38.9018 117.108 39.0231 116.735C39.1538 116.361 39.2191 115.857 39.2191 115.223V109.343H40.9691ZM45.8237 111.961C46.1411 111.961 46.4817 111.97 46.8457 111.989C47.2191 112.007 47.5831 112.035 47.9377 112.073C48.2924 112.101 48.6097 112.143 48.8897 112.199L48.7777 113.305C48.3297 113.295 47.8817 113.286 47.4337 113.277C46.9951 113.258 46.5611 113.249 46.1317 113.249C45.7491 113.249 45.4457 113.258 45.2217 113.277C45.0071 113.295 44.8531 113.351 44.7597 113.445C44.6757 113.538 44.6337 113.697 44.6337 113.921C44.6337 114.191 44.7084 114.373 44.8577 114.467C45.0071 114.551 45.2497 114.635 45.5857 114.719L47.4617 115.153C48.0217 115.293 48.4371 115.507 48.7077 115.797C48.9784 116.077 49.1137 116.511 49.1137 117.099C49.1137 117.668 49.0064 118.102 48.7917 118.401C48.5864 118.69 48.2551 118.891 47.7977 119.003C47.3497 119.105 46.7757 119.157 46.0757 119.157C45.8051 119.157 45.4037 119.143 44.8717 119.115C44.3397 119.096 43.7564 119.035 43.1217 118.933L43.2337 117.827C43.4204 117.827 43.6397 117.831 43.8917 117.841C44.1531 117.85 44.4284 117.855 44.7177 117.855C45.0164 117.855 45.3197 117.855 45.6277 117.855C46.1224 117.855 46.5004 117.841 46.7617 117.813C47.0324 117.775 47.2191 117.705 47.3217 117.603C47.4244 117.491 47.4757 117.332 47.4757 117.127C47.4757 116.865 47.3871 116.693 47.2097 116.609C47.0417 116.515 46.7897 116.427 46.4537 116.343L44.6197 115.895C44.1997 115.783 43.8731 115.643 43.6397 115.475C43.4064 115.297 43.2384 115.083 43.1357 114.831C43.0331 114.569 42.9817 114.252 42.9817 113.879C42.9817 113.375 43.0751 112.983 43.2617 112.703C43.4577 112.423 43.7611 112.227 44.1717 112.115C44.5917 112.003 45.1424 111.951 45.8237 111.961ZM54.1325 111.961C55.2432 111.961 56.0412 112.157 56.5265 112.549C57.0118 112.931 57.2592 113.501 57.2685 114.257C57.2778 114.882 57.1285 115.358 56.8205 115.685C56.5218 116.002 56.0225 116.161 55.3225 116.161H51.4025V115.111H54.8605C55.1778 115.111 55.3785 115.027 55.4625 114.859C55.5558 114.691 55.6025 114.485 55.6025 114.243C55.5932 113.86 55.4812 113.594 55.2665 113.445C55.0612 113.295 54.7065 113.221 54.2025 113.221C53.7638 113.221 53.4232 113.281 53.1805 113.403C52.9378 113.524 52.7652 113.743 52.6625 114.061C52.5692 114.378 52.5225 114.835 52.5225 115.433C52.5225 116.067 52.5832 116.557 52.7045 116.903C52.8258 117.248 53.0265 117.486 53.3065 117.617C53.5865 117.738 53.9598 117.799 54.4265 117.799C54.7718 117.799 55.1685 117.785 55.6165 117.757C56.0738 117.729 56.5125 117.691 56.9325 117.645L57.1005 118.723C56.8485 118.825 56.5592 118.909 56.2325 118.975C55.9058 119.04 55.5652 119.087 55.2105 119.115C54.8652 119.152 54.5385 119.171 54.2305 119.171C53.3905 119.171 52.7138 119.049 52.2005 118.807C51.6965 118.555 51.3278 118.163 51.0945 117.631C50.8705 117.099 50.7585 116.413 50.7585 115.573C50.7585 114.667 50.8705 113.953 51.0945 113.431C51.3278 112.899 51.6918 112.521 52.1865 112.297C52.6905 112.073 53.3392 111.961 54.1325 111.961ZM60.5271 112.129L60.7511 113.473L60.9051 113.669V119.003H59.2111V112.129H60.5271ZM63.8871 111.961L63.7191 113.529H63.2291C62.8651 113.529 62.4964 113.589 62.1231 113.711C61.7498 113.832 61.2831 114.014 60.7231 114.257L60.6111 113.263C61.0964 112.852 61.5911 112.535 62.0951 112.311C62.5991 112.077 63.0844 111.961 63.5511 111.961H63.8871ZM25.5946 127.175C26.0333 127.175 26.4066 127.189 26.7146 127.217C27.0226 127.235 27.3073 127.268 27.5686 127.315C27.8299 127.352 28.1006 127.408 28.3806 127.483L28.2266 128.785C27.9373 128.766 27.6666 128.752 27.4146 128.743C27.1626 128.724 26.8919 128.71 26.6026 128.701C26.3226 128.691 25.9866 128.687 25.5946 128.687C25.0533 128.687 24.6286 128.794 24.3206 129.009C24.0126 129.223 23.7933 129.583 23.6626 130.087C23.5413 130.591 23.4806 131.286 23.4806 132.173C23.4806 133.059 23.5413 133.755 23.6626 134.259C23.7933 134.763 24.0126 135.122 24.3206 135.337C24.6286 135.551 25.0533 135.659 25.5946 135.659C26.2199 135.659 26.7426 135.649 27.1626 135.631C27.5919 135.603 28.0119 135.565 28.4226 135.519L28.5766 136.807C28.1566 136.937 27.7226 137.031 27.2746 137.087C26.8266 137.143 26.2666 137.171 25.5946 137.171C24.6239 137.171 23.8493 137.012 23.2706 136.695C22.6919 136.368 22.2719 135.841 22.0106 135.113C21.7586 134.385 21.6326 133.405 21.6326 132.173C21.6326 130.941 21.7586 129.961 22.0106 129.233C22.2719 128.505 22.6919 127.982 23.2706 127.665C23.8493 127.338 24.6239 127.175 25.5946 127.175ZM31.6997 130.129L31.9237 131.473L32.0777 131.669V137.003H30.3837V130.129H31.6997ZM35.0597 129.961L34.8917 131.529H34.4017C34.0377 131.529 33.669 131.589 33.2957 131.711C32.9224 131.832 32.4557 132.014 31.8957 132.257L31.7837 131.263C32.269 130.852 32.7637 130.535 33.2677 130.311C33.7717 130.077 34.257 129.961 34.7237 129.961H35.0597ZM39.5572 129.961C40.6679 129.961 41.4659 130.157 41.9512 130.549C42.4365 130.931 42.6839 131.501 42.6932 132.257C42.7025 132.882 42.5532 133.358 42.2452 133.685C41.9465 134.002 41.4472 134.161 40.7472 134.161H36.8272V133.111H40.2852C40.6025 133.111 40.8032 133.027 40.8872 132.859C40.9805 132.691 41.0272 132.485 41.0272 132.243C41.0179 131.86 40.9059 131.594 40.6912 131.445C40.4859 131.295 40.1312 131.221 39.6272 131.221C39.1885 131.221 38.8479 131.281 38.6052 131.403C38.3625 131.524 38.1899 131.743 38.0872 132.061C37.9939 132.378 37.9472 132.835 37.9472 133.433C37.9472 134.067 38.0079 134.557 38.1292 134.903C38.2505 135.248 38.4512 135.486 38.7312 135.617C39.0112 135.738 39.3845 135.799 39.8512 135.799C40.1965 135.799 40.5932 135.785 41.0412 135.757C41.4985 135.729 41.9372 135.691 42.3572 135.645L42.5252 136.723C42.2732 136.825 41.9839 136.909 41.6572 136.975C41.3305 137.04 40.9899 137.087 40.6352 137.115C40.2899 137.152 39.9632 137.171 39.6552 137.171C38.8152 137.171 38.1385 137.049 37.6252 136.807C37.1212 136.555 36.7525 136.163 36.5192 135.631C36.2952 135.099 36.1832 134.413 36.1832 133.573C36.1832 132.667 36.2952 131.953 36.5192 131.431C36.7525 130.899 37.1165 130.521 37.6112 130.297C38.1152 130.073 38.7639 129.961 39.5572 129.961ZM48.0938 129.961C48.6445 129.961 49.1065 130.035 49.4798 130.185C49.8625 130.325 50.1518 130.567 50.3478 130.913C50.5438 131.258 50.6418 131.734 50.6418 132.341V137.003H49.2978L49.0598 135.519L48.9338 135.323V132.327C48.9338 131.963 48.8498 131.701 48.6818 131.543C48.5138 131.375 48.1918 131.291 47.7158 131.291C47.3611 131.291 46.9131 131.305 46.3718 131.333C45.8398 131.361 45.3031 131.398 44.7618 131.445L44.6078 130.283C44.9345 130.217 45.3031 130.161 45.7138 130.115C46.1245 130.068 46.5398 130.031 46.9598 130.003C47.3798 129.975 47.7578 129.961 48.0938 129.961ZM49.9138 132.775L49.8998 133.825H46.7498C46.4698 133.834 46.2691 133.909 46.1478 134.049C46.0265 134.189 45.9658 134.38 45.9658 134.623V135.001C45.9658 135.281 46.0405 135.495 46.1898 135.645C46.3391 135.785 46.5725 135.855 46.8898 135.855C47.1418 135.855 47.4218 135.803 47.7298 135.701C48.0378 135.598 48.3411 135.449 48.6398 135.253C48.9478 135.057 49.2231 134.823 49.4658 134.553V135.435C49.3725 135.575 49.2371 135.743 49.0598 135.939C48.8825 136.125 48.6631 136.312 48.4018 136.499C48.1498 136.685 47.8558 136.839 47.5198 136.961C47.1931 137.082 46.8291 137.143 46.4278 137.143C46.0171 137.143 45.6485 137.073 45.3218 136.933C44.9951 136.783 44.7385 136.569 44.5518 136.289C44.3651 135.999 44.2718 135.645 44.2718 135.225V134.497C44.2718 133.955 44.4491 133.535 44.8038 133.237C45.1678 132.929 45.6625 132.775 46.2878 132.775H49.9138ZM55.1715 128.169V134.931C55.1715 135.22 55.2321 135.425 55.3535 135.547C55.4841 135.668 55.7035 135.729 56.0115 135.729H56.9635L57.1455 136.919C56.9868 136.965 56.7955 137.007 56.5715 137.045C56.3475 137.082 56.1281 137.105 55.9135 137.115C55.6988 137.133 55.5168 137.143 55.3675 137.143C54.7701 137.143 54.3035 136.984 53.9675 136.667C53.6408 136.34 53.4775 135.873 53.4775 135.267V128.169H55.1715ZM57.2155 130.129V131.305H52.2595V130.199L53.6035 130.129H57.2155ZM60.6239 130.129V137.003H58.9439V130.129H60.6239ZM60.1619 127.147C60.4979 127.147 60.6659 127.315 60.6659 127.651V128.435C60.6659 128.771 60.4979 128.939 60.1619 128.939H59.4059C59.0699 128.939 58.9019 128.771 58.9019 128.435V127.651C58.9019 127.315 59.0699 127.147 59.4059 127.147H60.1619ZM66.1073 129.961C66.9473 129.961 67.6146 130.077 68.1093 130.311C68.6133 130.544 68.9726 130.927 69.1873 131.459C69.4113 131.991 69.5233 132.695 69.5233 133.573C69.5233 134.45 69.4113 135.155 69.1873 135.687C68.9726 136.209 68.6133 136.592 68.1093 136.835C67.6146 137.068 66.9473 137.185 66.1073 137.185C65.286 137.185 64.6233 137.068 64.1193 136.835C63.6246 136.592 63.2653 136.209 63.0413 135.687C62.8173 135.155 62.7053 134.45 62.7053 133.573C62.7053 132.695 62.8173 131.991 63.0413 131.459C63.2653 130.927 63.6246 130.544 64.1193 130.311C64.6233 130.077 65.286 129.961 66.1073 129.961ZM66.1073 131.249C65.6966 131.249 65.37 131.319 65.1273 131.459C64.894 131.589 64.726 131.823 64.6233 132.159C64.5206 132.495 64.4693 132.966 64.4693 133.573C64.4693 134.179 64.5206 134.651 64.6233 134.987C64.726 135.323 64.894 135.556 65.1273 135.687C65.37 135.817 65.6966 135.883 66.1073 135.883C66.5273 135.883 66.8586 135.817 67.1013 135.687C67.344 135.556 67.512 135.323 67.6053 134.987C67.708 134.651 67.7593 134.179 67.7593 133.573C67.7593 132.966 67.708 132.495 67.6053 132.159C67.512 131.823 67.344 131.589 67.1013 131.459C66.8586 131.319 66.5273 131.249 66.1073 131.249ZM76.0624 129.961C77.3411 129.961 77.9804 130.591 77.9804 131.851V137.003H76.2864V132.369C76.2864 131.995 76.2211 131.739 76.0904 131.599C75.9597 131.459 75.7404 131.389 75.4324 131.389C75.0871 131.389 74.7324 131.468 74.3684 131.627C74.0044 131.776 73.5657 131.995 73.0524 132.285L72.9824 131.263C73.4864 130.843 73.9997 130.521 74.5224 130.297C75.0451 130.073 75.5584 129.961 76.0624 129.961ZM72.9264 130.129L73.0944 131.473L73.2344 131.669V137.003H71.5404V130.129H72.9264Z" fill="#9049A9"/>
<path d="M76.0189 81.1159L24.1873 81.1089" stroke="white" stroke-width="6.29" stroke-miterlimit="10"/>
<path d="M76.0189 81.1159L24.1873 81.1089" stroke="#9049A9" stroke-width="3.42" stroke-miterlimit="10"/>
<path d="M18.8871 22.6508L18.8871 18.8889L75.4492 18.8819" stroke="white" stroke-width="6.29" stroke-miterlimit="10"/>
<path d="M18.8871 22.6508L18.8871 18.8889L75.4492 18.8819" stroke="#9049A9" stroke-width="3.42" stroke-miterlimit="10"/>
<path d="M62.21 86.5128L37.8075 86.5003L13.4667 62.1594L13.4541 37.757L37.7927 13.4184H62.2092L86.5486 37.7577V62.1742L62.21 86.5128Z" fill="#FBEEFF" stroke="#9049A9" stroke-width="7"/>
<path d="M24.1854 81.108L18.8865 81.115L18.8865 22.6509" stroke="white" stroke-width="6.29" stroke-miterlimit="10"/>
<path d="M24.1854 81.108L18.8865 81.115L18.8865 22.6509" stroke="#9049A9" stroke-width="3.42" stroke-miterlimit="10"/>
<path d="M75.4494 18.8803L81.1133 18.8874L81.1134 81.1134L76.0179 81.1134" stroke="white" stroke-width="6.29" stroke-miterlimit="10"/>
<path d="M75.4494 18.8803L81.1133 18.8874L81.1134 81.1134L76.0179 81.1134" stroke="#9049A9" stroke-width="3.42" stroke-miterlimit="10"/>
<path d="M54.2512 58.9811C54.5906 58.1441 54.6673 57.387 54.5194 56.6141C54.3185 55.5667 53.7433 54.7717 52.8415 54.2164C51.2032 53.2062 48.7089 53.2829 47.1702 54.3809C46.4433 54.9033 45.8917 55.6336 45.5881 56.4757C45.293 57.2573 45.3682 58.3031 46.5872 59.0072C46.3451 58.985 46.1015 58.9684 45.8602 58.9391C43.813 58.7004 41.791 58.2805 39.8179 57.6845C39.3187 57.5326 39.0474 57.2968 39.0189 56.7241C38.9604 55.5375 39.0189 54.3825 39.4635 53.2639C39.8148 52.3739 40.4389 51.7276 41.2039 51.1873C42.3156 50.4182 43.5122 49.7798 44.7701 49.2848C45.1792 49.1157 45.5776 48.9218 45.963 48.7041C46.3989 48.4605 46.6371 48.0807 46.7383 47.5768C46.8396 47.0729 46.8016 46.6789 46.5081 46.209C45.9543 45.323 45.4212 44.4054 45.1735 43.3611C45.0897 43.0067 44.9726 42.6579 45.1419 42.2916C45.172 42.2251 45.1356 42.1207 45.115 42.0377C44.8864 41.1145 44.7891 40.1834 45.1008 39.2689C45.4607 38.2072 45.9393 37.2374 47.0286 36.6947C47.9943 36.2152 49.062 35.9774 50.14 36.0017C51.1303 35.9994 52.1069 36.2343 52.9879 36.6868C53.7647 37.0926 54.2876 37.6946 54.6404 38.5063C54.9798 39.2839 55.1871 40.0647 55.1151 40.9119C55.108 41.0005 55.1001 41.0884 55.0929 41.177C55.0518 41.6856 54.9505 42.1801 54.9442 42.703C54.9371 43.3429 54.623 43.9861 54.4071 44.6158C54.3066 44.9085 54.131 45.1775 53.9783 45.4512C53.7919 45.8092 53.5873 46.1575 53.3652 46.4946C53.2228 46.6971 53.207 46.8799 53.2173 47.118C53.2608 48.2935 54.036 48.8141 54.9996 49.1835C56.4409 49.7245 57.8044 50.4536 59.0547 51.3519C60.2342 52.2086 60.8045 53.3944 60.9604 54.7867C61.0395 55.5351 60.9841 56.3001 60.9754 57.0579C60.9754 57.3791 60.731 57.5176 60.4636 57.5935C59.5831 57.8443 58.7074 58.1227 57.8143 58.3189C56.6609 58.5689 55.494 58.7524 54.2512 58.9811Z" fill="#9049A9"/>
<path d="M49.7647 60.8073C49.597 60.8073 49.4292 60.812 49.2615 60.8073C48.8937 60.7946 48.8209 60.7131 48.8154 60.3382C48.8035 59.5146 49.127 58.8889 49.8786 58.5068C50.0803 58.404 50.3042 58.313 50.4584 58.1571C50.6455 57.9771 50.7877 57.7558 50.8738 57.5108C50.9821 57.1493 50.7496 56.8511 50.3793 56.7688C50.1625 56.711 49.9327 56.7252 49.7246 56.8094C49.5166 56.8936 49.3416 57.0432 49.2259 57.2355C49.1256 57.3935 49.0377 57.5591 48.9633 57.7308C48.8446 57.9981 48.6556 58.0749 48.389 57.9768C48.0282 57.8431 47.6659 57.7141 47.3099 57.5702C46.9935 57.4412 46.9278 57.2838 47.0584 56.9626C47.4175 56.0782 48.0298 55.4596 48.9665 55.2104C49.9158 54.958 50.8651 54.973 51.7724 55.3899C53.3364 56.1138 53.5128 58.1793 52.0968 59.1618C51.789 59.3754 51.4552 59.5495 51.1364 59.7456C50.8627 59.9149 50.6657 60.1309 50.672 60.4821C50.672 60.6823 50.5557 60.7922 50.3556 60.7986C50.1555 60.8049 49.9601 60.7986 49.7639 60.7986L49.7647 60.8073Z" fill="#9049A9"/>
<path d="M49.7727 63.2755C48.734 63.2897 48.5995 63.1528 48.6209 62.1157C48.6233 61.9977 48.6328 61.8798 48.6494 61.7629C48.6968 61.4164 48.8495 61.2376 49.196 61.2092C49.5785 61.183 49.9622 61.183 50.3447 61.2092C50.6405 61.2281 50.8478 61.4046 50.8707 61.7123C50.9021 62.0445 50.905 62.3787 50.8794 62.7114C50.8438 63.0848 50.654 63.2383 50.2743 63.2652C50.1081 63.2857 49.9404 63.2755 49.7727 63.2755Z" fill="#9049A9"/>
</svg>
