<svg width="100" height="156" viewBox="0 0 100 156" fill="none" xmlns="http://www.w3.org/2000/svg">
<rect width="100" height="156" rx="19" fill="#F9FBFF"/>
<path d="M28.9608 109.343L26.2028 118.513C26.1562 118.653 26.0768 118.769 25.9648 118.863C25.8528 118.956 25.7175 119.003 25.5588 119.003H23.9068C23.7482 119.003 23.6128 118.956 23.5008 118.863C23.3888 118.769 23.3142 118.653 23.2768 118.513L20.5188 109.343H22.3248L24.2988 116.609C24.3455 116.786 24.3922 116.963 24.4388 117.141C24.4855 117.318 24.5228 117.495 24.5508 117.673H24.9148C24.9615 117.495 25.0035 117.318 25.0408 117.141C25.0875 116.954 25.1342 116.772 25.1808 116.595L27.1548 109.343H28.9608ZM31.8162 112.129V119.003H30.1362V112.129H31.8162ZM31.3542 109.147C31.6902 109.147 31.8582 109.315 31.8582 109.651V110.435C31.8582 110.771 31.6902 110.939 31.3542 110.939H30.5982C30.2622 110.939 30.0942 110.771 30.0942 110.435V109.651C30.0942 109.315 30.2622 109.147 30.5982 109.147H31.3542ZM36.8376 111.961C37.9482 111.961 38.7462 112.157 39.2316 112.549C39.7169 112.931 39.9642 113.501 39.9736 114.257C39.9829 114.882 39.8336 115.358 39.5256 115.685C39.2269 116.002 38.7276 116.161 38.0276 116.161H34.1076V115.111H37.5656C37.8829 115.111 38.0836 115.027 38.1676 114.859C38.2609 114.691 38.3076 114.485 38.3076 114.243C38.2982 113.86 38.1862 113.594 37.9716 113.445C37.7662 113.295 37.4116 113.221 36.9076 113.221C36.4689 113.221 36.1282 113.281 35.8856 113.403C35.6429 113.524 35.4702 113.743 35.3676 114.061C35.2742 114.378 35.2276 114.835 35.2276 115.433C35.2276 116.067 35.2882 116.557 35.4096 116.903C35.5309 117.248 35.7316 117.486 36.0116 117.617C36.2916 117.738 36.6649 117.799 37.1316 117.799C37.4769 117.799 37.8736 117.785 38.3216 117.757C38.7789 117.729 39.2176 117.691 39.6376 117.645L39.8056 118.723C39.5536 118.825 39.2642 118.909 38.9376 118.975C38.6109 119.04 38.2702 119.087 37.9156 119.115C37.5702 119.152 37.2436 119.171 36.9356 119.171C36.0956 119.171 35.4189 119.049 34.9056 118.807C34.4016 118.555 34.0329 118.163 33.7996 117.631C33.5756 117.099 33.4636 116.413 33.4636 115.573C33.4636 114.667 33.5756 113.953 33.7996 113.431C34.0329 112.899 34.3969 112.521 34.8916 112.297C35.3956 112.073 36.0442 111.961 36.8376 111.961ZM51.9965 112.129L50.1765 118.555C50.1392 118.685 50.0645 118.793 49.9525 118.877C49.8405 118.961 49.7098 119.003 49.5605 119.003H48.2025C48.0532 119.003 47.9178 118.956 47.7965 118.863C47.6752 118.769 47.6052 118.643 47.5865 118.485L46.6765 114.271C46.6392 114.084 46.6065 113.897 46.5785 113.711C46.5598 113.524 46.5318 113.337 46.4945 113.151H46.3125C46.2845 113.337 46.2518 113.524 46.2145 113.711C46.1865 113.897 46.1538 114.084 46.1165 114.271L45.2205 118.485C45.1925 118.643 45.1178 118.769 44.9965 118.863C44.8845 118.956 44.7492 119.003 44.5905 119.003H43.2465C43.0972 119.003 42.9665 118.961 42.8545 118.877C42.7425 118.793 42.6725 118.685 42.6445 118.555L40.8105 112.129H42.5325L43.6805 116.847C43.7178 117.024 43.7505 117.206 43.7785 117.393C43.8158 117.57 43.8485 117.747 43.8765 117.925H44.0445C44.0912 117.747 44.1285 117.57 44.1565 117.393C44.1938 117.206 44.2312 117.024 44.2685 116.847L45.1785 112.647C45.2065 112.497 45.2718 112.376 45.3745 112.283C45.4865 112.18 45.6265 112.129 45.7945 112.129H47.0265C47.1758 112.129 47.3065 112.18 47.4185 112.283C47.5305 112.376 47.6005 112.502 47.6285 112.661L48.5385 116.847C48.5665 117.024 48.5992 117.201 48.6365 117.379C48.6832 117.556 48.7205 117.738 48.7485 117.925H48.9165C48.9538 117.738 48.9865 117.561 49.0145 117.393C49.0425 117.215 49.0798 117.033 49.1265 116.847L50.2745 112.129H51.9965ZM59.4737 111.961C60.0244 111.961 60.4864 112.035 60.8597 112.185C61.2424 112.325 61.5317 112.567 61.7277 112.913C61.9237 113.258 62.0217 113.734 62.0217 114.341V119.003H60.6777L60.4397 117.519L60.3137 117.323V114.327C60.3137 113.963 60.2297 113.701 60.0617 113.543C59.8937 113.375 59.5717 113.291 59.0957 113.291C58.7411 113.291 58.2931 113.305 57.7517 113.333C57.2197 113.361 56.6831 113.398 56.1417 113.445L55.9877 112.283C56.3144 112.217 56.6831 112.161 57.0937 112.115C57.5044 112.068 57.9197 112.031 58.3397 112.003C58.7597 111.975 59.1377 111.961 59.4737 111.961ZM61.2937 114.775L61.2797 115.825H58.1297C57.8497 115.834 57.6491 115.909 57.5277 116.049C57.4064 116.189 57.3457 116.38 57.3457 116.623V117.001C57.3457 117.281 57.4204 117.495 57.5697 117.645C57.7191 117.785 57.9524 117.855 58.2697 117.855C58.5217 117.855 58.8017 117.803 59.1097 117.701C59.4177 117.598 59.7211 117.449 60.0197 117.253C60.3277 117.057 60.6031 116.823 60.8457 116.553V117.435C60.7524 117.575 60.6171 117.743 60.4397 117.939C60.2624 118.125 60.0431 118.312 59.7817 118.499C59.5297 118.685 59.2357 118.839 58.8997 118.961C58.5731 119.082 58.2091 119.143 57.8077 119.143C57.3971 119.143 57.0284 119.073 56.7017 118.933C56.3751 118.783 56.1184 118.569 55.9317 118.289C55.7451 117.999 55.6517 117.645 55.6517 117.225V116.497C55.6517 115.955 55.8291 115.535 56.1837 115.237C56.5477 114.929 57.0424 114.775 57.6677 114.775H61.2937ZM68.3854 111.961C69.664 111.961 70.3034 112.591 70.3034 113.851V119.003H68.6094V114.369C68.6094 113.995 68.544 113.739 68.4134 113.599C68.2827 113.459 68.0634 113.389 67.7554 113.389C67.41 113.389 67.0554 113.468 66.6914 113.627C66.3274 113.776 65.8887 113.995 65.3754 114.285L65.3054 113.263C65.8094 112.843 66.3227 112.521 66.8454 112.297C67.368 112.073 67.8814 111.961 68.3854 111.961ZM65.2494 112.129L65.4174 113.473L65.5574 113.669V119.003H63.8634V112.129H65.2494ZM74.4862 111.961C74.9529 111.961 75.4102 112.026 75.8582 112.157C76.3062 112.278 76.7122 112.483 77.0762 112.773L76.9642 113.627C76.6002 113.524 76.2735 113.435 75.9842 113.361C75.6949 113.286 75.3729 113.249 75.0182 113.249C74.6822 113.249 74.4115 113.309 74.2062 113.431C74.0102 113.543 73.8609 113.762 73.7582 114.089C73.6649 114.415 73.6182 114.891 73.6182 115.517C73.6182 116.114 73.6649 116.576 73.7582 116.903C73.8515 117.22 73.9962 117.444 74.1922 117.575C74.3882 117.696 74.6449 117.757 74.9622 117.757C75.2142 117.757 75.4382 117.729 75.6342 117.673C75.8302 117.607 76.0309 117.514 76.2362 117.393C76.4415 117.262 76.6795 117.099 76.9502 116.903L77.0902 117.855C76.7729 118.219 76.3809 118.531 75.9142 118.793C75.4569 119.045 74.9249 119.171 74.3182 119.171C73.4409 119.171 72.8155 118.863 72.4422 118.247C72.0689 117.621 71.8822 116.716 71.8822 115.531C71.8822 114.625 71.9755 113.916 72.1622 113.403C72.3582 112.88 72.6475 112.511 73.0302 112.297C73.4222 112.073 73.9075 111.961 74.4862 111.961ZM78.4622 109.203V119.003H77.1322L76.9502 117.771L76.7682 117.631V113.039L76.8522 112.843C76.8149 112.572 76.7915 112.301 76.7822 112.031C76.7729 111.751 76.7682 111.466 76.7682 111.177V109.203H78.4622ZM32.9367 127.175C33.3753 127.175 33.7487 127.189 34.0567 127.217C34.3647 127.235 34.6493 127.268 34.9107 127.315C35.172 127.352 35.4427 127.408 35.7227 127.483L35.5687 128.785C35.2793 128.766 35.0087 128.752 34.7567 128.743C34.5047 128.724 34.234 128.71 33.9447 128.701C33.6647 128.691 33.3287 128.687 32.9367 128.687C32.3953 128.687 31.9707 128.794 31.6627 129.009C31.3547 129.223 31.1353 129.583 31.0047 130.087C30.8833 130.591 30.8227 131.286 30.8227 132.173C30.8227 133.059 30.8833 133.755 31.0047 134.259C31.1353 134.763 31.3547 135.122 31.6627 135.337C31.9707 135.551 32.3953 135.659 32.9367 135.659C33.562 135.659 34.0847 135.649 34.5047 135.631C34.934 135.603 35.354 135.565 35.7647 135.519L35.9187 136.807C35.4987 136.937 35.0647 137.031 34.6167 137.087C34.1687 137.143 33.6087 137.171 32.9367 137.171C31.966 137.171 31.1913 137.012 30.6127 136.695C30.034 136.368 29.614 135.841 29.3527 135.113C29.1007 134.385 28.9747 133.405 28.9747 132.173C28.9747 130.941 29.1007 129.961 29.3527 129.233C29.614 128.505 30.034 127.982 30.6127 127.665C31.1913 127.338 31.966 127.175 32.9367 127.175ZM40.7638 129.961C41.3144 129.961 41.7764 130.035 42.1498 130.185C42.5324 130.325 42.8218 130.567 43.0178 130.913C43.2138 131.258 43.3118 131.734 43.3118 132.341V137.003H41.9678L41.7298 135.519L41.6038 135.323V132.327C41.6038 131.963 41.5198 131.701 41.3518 131.543C41.1838 131.375 40.8618 131.291 40.3858 131.291C40.0311 131.291 39.5831 131.305 39.0418 131.333C38.5098 131.361 37.9731 131.398 37.4318 131.445L37.2778 130.283C37.6044 130.217 37.9731 130.161 38.3838 130.115C38.7944 130.068 39.2098 130.031 39.6298 130.003C40.0498 129.975 40.4278 129.961 40.7638 129.961ZM42.5838 132.775L42.5698 133.825H39.4198C39.1398 133.834 38.9391 133.909 38.8178 134.049C38.6964 134.189 38.6358 134.38 38.6358 134.623V135.001C38.6358 135.281 38.7104 135.495 38.8598 135.645C39.0091 135.785 39.2424 135.855 39.5598 135.855C39.8118 135.855 40.0918 135.803 40.3998 135.701C40.7078 135.598 41.0111 135.449 41.3098 135.253C41.6178 135.057 41.8931 134.823 42.1358 134.553V135.435C42.0424 135.575 41.9071 135.743 41.7298 135.939C41.5524 136.125 41.3331 136.312 41.0718 136.499C40.8198 136.685 40.5258 136.839 40.1898 136.961C39.8631 137.082 39.4991 137.143 39.0978 137.143C38.6871 137.143 38.3184 137.073 37.9918 136.933C37.6651 136.783 37.4084 136.569 37.2218 136.289C37.0351 135.999 36.9418 135.645 36.9418 135.225V134.497C36.9418 133.955 37.1191 133.535 37.4738 133.237C37.8378 132.929 38.3324 132.775 38.9578 132.775H42.5838ZM49.6754 129.961C50.9541 129.961 51.5934 130.591 51.5934 131.851V137.003H49.8994V132.369C49.8994 131.995 49.8341 131.739 49.7034 131.599C49.5727 131.459 49.3534 131.389 49.0454 131.389C48.7001 131.389 48.3454 131.468 47.9814 131.627C47.6174 131.776 47.1787 131.995 46.6654 132.285L46.5954 131.263C47.0994 130.843 47.6127 130.521 48.1354 130.297C48.6581 130.073 49.1714 129.961 49.6754 129.961ZM46.5394 130.129L46.7074 131.473L46.8474 131.669V137.003H45.1534V130.129H46.5394ZM56.5322 129.961C56.7656 129.961 57.0222 129.97 57.3022 129.989C57.5822 130.007 57.8669 130.045 58.1562 130.101C58.4456 130.157 58.7069 130.236 58.9402 130.339L58.7442 131.403C58.3989 131.384 58.0536 131.37 57.7082 131.361C57.3722 131.351 57.0782 131.347 56.8262 131.347C56.3502 131.347 55.9722 131.412 55.6922 131.543C55.4216 131.664 55.2256 131.888 55.1042 132.215C54.9829 132.532 54.9222 132.98 54.9222 133.559C54.9222 134.137 54.9829 134.59 55.1042 134.917C55.2256 135.234 55.4216 135.458 55.6922 135.589C55.9722 135.719 56.3502 135.785 56.8262 135.785C56.9662 135.785 57.1482 135.78 57.3722 135.771C57.6056 135.761 57.8529 135.747 58.1142 135.729C58.3849 135.71 58.6462 135.687 58.8982 135.659L59.0662 136.751C58.7022 136.9 58.2962 137.007 57.8482 137.073C57.4002 137.138 56.9569 137.171 56.5182 137.171C55.6969 137.171 55.0389 137.054 54.5442 136.821C54.0496 136.587 53.6902 136.209 53.4662 135.687C53.2516 135.155 53.1442 134.445 53.1442 133.559C53.1442 132.672 53.2562 131.967 53.4802 131.445C53.7042 130.913 54.0636 130.535 54.5582 130.311C55.0529 130.077 55.7109 129.961 56.5322 129.961ZM63.4225 129.961C64.5332 129.961 65.3312 130.157 65.8165 130.549C66.3019 130.931 66.5492 131.501 66.5585 132.257C66.5679 132.882 66.4185 133.358 66.1105 133.685C65.8119 134.002 65.3125 134.161 64.6125 134.161H60.6925V133.111H64.1505C64.4679 133.111 64.6685 133.027 64.7525 132.859C64.8459 132.691 64.8925 132.485 64.8925 132.243C64.8832 131.86 64.7712 131.594 64.5565 131.445C64.3512 131.295 63.9965 131.221 63.4925 131.221C63.0539 131.221 62.7132 131.281 62.4705 131.403C62.2279 131.524 62.0552 131.743 61.9525 132.061C61.8592 132.378 61.8125 132.835 61.8125 133.433C61.8125 134.067 61.8732 134.557 61.9945 134.903C62.1159 135.248 62.3165 135.486 62.5965 135.617C62.8765 135.738 63.2499 135.799 63.7165 135.799C64.0619 135.799 64.4585 135.785 64.9065 135.757C65.3639 135.729 65.8025 135.691 66.2225 135.645L66.3905 136.723C66.1385 136.825 65.8492 136.909 65.5225 136.975C65.1959 137.04 64.8552 137.087 64.5005 137.115C64.1552 137.152 63.8285 137.171 63.5205 137.171C62.6805 137.171 62.0039 137.049 61.4905 136.807C60.9865 136.555 60.6179 136.163 60.3845 135.631C60.1605 135.099 60.0485 134.413 60.0485 133.573C60.0485 132.667 60.1605 131.953 60.3845 131.431C60.6179 130.899 60.9819 130.521 61.4765 130.297C61.9805 130.073 62.6292 129.961 63.4225 129.961ZM69.7891 127.203L69.7751 134.931C69.7751 135.192 69.8498 135.393 69.9991 135.533C70.1485 135.663 70.3631 135.729 70.6431 135.729H71.2451L71.4411 136.919C71.3385 136.965 71.1938 137.007 71.0071 137.045C70.8298 137.082 70.6431 137.105 70.4471 137.115C70.2605 137.133 70.0971 137.143 69.9571 137.143C69.3878 137.143 68.9351 136.989 68.5991 136.681C68.2631 136.373 68.0951 135.929 68.0951 135.351V127.203H69.7891Z" fill="#C85C87"/>
<path d="M76.0185 81.1159L24.1868 81.1089" stroke="white" stroke-width="6.29" stroke-miterlimit="10"/>
<path d="M76.0185 81.1159L24.1868 81.1089" stroke="#C85C87" stroke-width="3.42" stroke-miterlimit="10"/>
<path d="M18.8864 22.6508L18.8864 18.8889L75.4485 18.8819" stroke="white" stroke-width="6.29" stroke-miterlimit="10"/>
<path d="M18.8864 22.6508L18.8864 18.8889L75.4485 18.8819" stroke="#C85C87" stroke-width="3.42" stroke-miterlimit="10"/>
<path d="M62.2095 86.5128L37.807 86.5003L13.4662 62.1594L13.4537 37.757L37.7922 13.4184H62.2087L86.5481 37.7577L86.5481 62.1742L62.2095 86.5128Z" fill="#FFF3F8" stroke="#C85C87" stroke-width="7"/>
<path d="M51.661 51.2783C46.6644 51.1932 42.9861 49.2695 40.1225 45.7027C39.7823 45.2817 39.5016 44.8191 39.1869 44.3785C39.1281 44.3125 39.0944 44.2279 39.0919 44.1395C39.0895 44.0511 39.1183 43.9647 39.1733 43.8955C41.2851 40.6135 44.1325 38.2663 47.9776 37.4082C53.8196 36.1036 58.6206 37.9559 62.4027 42.5424C62.7582 42.9744 63.0474 43.4617 63.3697 43.9201C63.4184 43.9745 63.4463 44.0443 63.4487 44.1172C63.451 44.1902 63.4275 44.2616 63.3824 44.319C61.1414 47.8195 58.0754 50.1625 53.9539 50.9925C53.0771 51.1694 52.1722 51.217 51.661 51.2783ZM51.2894 39.0359C50.6201 39.0336 49.9568 39.1631 49.3376 39.4171C48.7184 39.6711 48.1552 40.0445 47.6803 40.5162C47.2054 40.9878 46.8281 41.5484 46.5699 42.1658C46.3117 42.7833 46.1776 43.4456 46.1754 44.1149C46.1753 45.46 46.7064 46.7507 47.6531 47.7063C48.5998 48.6619 49.8856 49.2051 51.2307 49.2176C52.5824 49.2262 53.8822 48.6976 54.8443 47.748C55.8063 46.7985 56.3518 45.5057 56.3608 44.154C56.3669 42.8028 55.8361 41.5046 54.885 40.5448C53.9339 39.585 52.6406 39.0422 51.2894 39.0359Z" fill="#C85C87"/>
<path d="M53.3044 57.3338C54.1438 57.2589 54.9458 57.2045 55.7435 57.1127C57.664 56.8907 59.5597 56.5446 61.3704 55.8421C61.8197 55.6552 62.2588 55.4448 62.6861 55.2119C62.8443 55.1248 62.9914 55.0188 63.1241 54.8964C63.6055 54.4711 63.6344 54.131 63.1241 53.7508C62.6832 53.4222 62.2065 53.1449 61.7029 52.9242C60.3779 52.3399 58.9703 52.0261 57.5491 51.7709L57.1239 51.691C57.7949 51.3389 58.4932 51.0582 59.0902 50.6347C59.666 50.2274 60.1805 50.2052 60.8159 50.4289C61.998 50.8465 63.1777 51.2581 64.1855 52.032C64.4302 52.2184 64.6561 52.4283 64.8599 52.6588C65.7631 53.6921 65.7512 54.9729 64.837 55.9986C64.1192 56.8031 63.193 57.2904 62.2141 57.6884C60.343 58.4538 58.3826 58.8391 56.3899 59.0823C55.3812 59.2056 54.3666 59.283 53.3061 59.3859V59.7006C53.3061 60.4541 53.3061 61.2068 53.3061 61.9603C53.2904 62.049 53.2617 62.135 53.221 62.2154C53.136 62.1873 53.0322 62.1822 52.9761 62.1304C51.7335 60.8998 50.496 59.664 49.2407 58.4113C49.3164 58.3263 49.3734 58.2523 49.438 58.1876C50.5856 57.039 51.7344 55.892 52.8842 54.7467C52.9693 54.6616 53.1062 54.6242 53.2185 54.5647C53.26 54.6773 53.2885 54.7943 53.3035 54.9134C53.3078 55.6966 53.3044 56.4774 53.3044 57.3338Z" fill="#C85C87"/>
<path d="M45.3123 51.6537C44.2007 51.9369 43.0074 52.1895 41.8491 52.5526C41.1038 52.7917 40.3882 53.115 39.7161 53.5162C38.829 54.0401 38.8426 54.4831 39.6786 55.0768C40.5147 55.6704 41.4562 56.0216 42.43 56.2793C43.3715 56.5276 44.3282 56.7122 45.2808 56.9172C45.8863 57.0473 46.2674 57.555 46.1594 58.1078C46.0479 58.6836 45.5359 59.0186 44.9227 58.9166C43.1214 58.6164 41.343 58.2243 39.6854 57.4283C39.1683 57.1843 38.6797 56.884 38.2286 56.5328C36.5709 55.2128 36.5965 53.3912 38.2702 52.0874C39.4294 51.1842 40.7919 50.7216 42.1757 50.3014C42.5278 50.1943 42.794 50.2419 43.1112 50.4367C43.8494 50.8891 44.6251 51.2786 45.3123 51.6537Z" fill="#C85C87"/>
<path d="M52.0982 41.2244C51.4637 41.6496 51.1423 42.1999 51.3149 42.9457C51.4612 43.5734 51.8728 43.9663 52.4996 44.0922C53.2183 44.2342 53.7533 43.9221 54.1453 43.3267C54.6182 44.1517 54.1674 45.6749 53.22 46.4734C52.6729 46.9281 51.9843 47.1776 51.2729 47.179C50.5615 47.1804 49.872 46.9336 49.3231 46.4811C48.77 46.0247 48.3952 45.3882 48.2642 44.6832C48.1333 43.9782 48.2546 43.2496 48.6069 42.6251C49.3061 41.3953 50.8259 40.7711 52.0982 41.2244Z" fill="#C85C87"/>
<path d="M24.1852 81.108L18.8862 81.115L18.8862 22.6509" stroke="white" stroke-width="6.29" stroke-miterlimit="10"/>
<path d="M24.1852 81.108L18.8862 81.115L18.8862 22.6509" stroke="#C85C87" stroke-width="3.42" stroke-miterlimit="10"/>
<path d="M75.4489 18.8803L81.1128 18.8874L81.1129 81.1134L76.0174 81.1134" stroke="white" stroke-width="6.29" stroke-miterlimit="10"/>
<path d="M75.4489 18.8803L81.1128 18.8874L81.1129 81.1134L76.0174 81.1134" stroke="#C85C87" stroke-width="3.42" stroke-miterlimit="10"/>
</svg>
